<?xml version="1.0" encoding="UTF-8" standalone="no"?>
<!DOCTYPE svg PUBLIC "-//W3C//DTD SVG 1.1//EN"
 "http://www.w3.org/Graphics/SVG/1.1/DTD/svg11.dtd">
<!-- Generated by graphviz version 12.2.0 (20241103.1931)
 -->
<!-- Title: /Users/fola/Documents/ArkScript/Ark/src/arkreactor/VM/Value/Procedure.cpp Pages: 1 -->
<svg width="707pt" height="216pt"
 viewBox="0.00 0.00 706.61 215.50" xmlns="http://www.w3.org/2000/svg" xmlns:xlink="http://www.w3.org/1999/xlink">
<g id="graph0" class="graph" transform="scale(1 1) rotate(0) translate(4 211.5)">
<title>/Users/fola/Documents/ArkScript/Ark/src/arkreactor/VM/Value/Procedure.cpp</title>
<!-- Node1 -->
<g id="Node000001" class="node">
<title>Node1</title>
<g id="a_Node000001"><a xlink:title=" ">
<polygon fill="#999999" stroke="#666666" points="389.25,-207.5 248.75,-207.5 248.75,-165.75 389.25,-165.75 389.25,-207.5"/>
<text text-anchor="start" x="256.75" y="-194" font-family="Helvetica,sans-Serif" font-size="10.00">/Users/fola/Documents</text>
<text text-anchor="start" x="256.75" y="-182.75" font-family="Helvetica,sans-Serif" font-size="10.00">/ArkScript/Ark/src/arkreactor</text>
<text text-anchor="middle" x="319" y="-171.5" font-family="Helvetica,sans-Serif" font-size="10.00">/VM/Value/Procedure.cpp</text>
</a>
</g>
</g>
<!-- Node2 -->
<g id="Node000002" class="node">
<title>Node2</title>
<g id="a_Node000002"><a xlink:href="../../de/dfd/Value_8hpp.html" target="_top" xlink:title="Default value type handled by the virtual machine.">
<polygon fill="white" stroke="#666666" points="366.38,-129.75 271.62,-129.75 271.62,-110.5 366.38,-110.5 366.38,-129.75"/>
<text text-anchor="middle" x="319" y="-116.25" font-family="Helvetica,sans-Serif" font-size="10.00">Ark/VM/Value.hpp</text>
</a>
</g>
</g>
<!-- Node1&#45;&gt;Node2 -->
<g id="edge1_Node000001_Node000002" class="edge">
<title>Node1&#45;&gt;Node2</title>
<g id="a_edge1_Node000001_Node000002"><a xlink:title=" ">
<path fill="none" stroke="#63b8ff" d="M319,-165.57C319,-157.9 319,-149.14 319,-141.45"/>
<polygon fill="#63b8ff" stroke="#63b8ff" points="322.5,-141.71 319,-131.71 315.5,-141.71 322.5,-141.71"/>
</a>
</g>
</g>
<!-- Node13 -->
<g id="Node000013" class="node">
<title>Node13</title>
<g id="a_Node000013"><a xlink:href="../../da/dcf/Procedure_8hpp.html" target="_top" xlink:title="Wrapper object for user&#45;defined functions.">
<polygon fill="white" stroke="#666666" points="142,-74.5 0,-74.5 0,-55.25 142,-55.25 142,-74.5"/>
<text text-anchor="middle" x="71" y="-61" font-family="Helvetica,sans-Serif" font-size="10.00">Ark/VM/Value/Procedure.hpp</text>
</a>
</g>
</g>
<!-- Node1&#45;&gt;Node13 -->
<g id="edge20_Node000001_Node000013" class="edge">
<title>Node1&#45;&gt;Node13</title>
<g id="a_edge20_Node000001_Node000013"><a xlink:title=" ">
<path fill="none" stroke="#63b8ff" d="M276.93,-165.31C226.61,-141.01 143.7,-100.98 100.01,-79.88"/>
<polygon fill="#63b8ff" stroke="#63b8ff" points="101.68,-76.8 91.16,-75.61 98.64,-83.11 101.68,-76.8"/>
</a>
</g>
</g>
<!-- Node15 -->
<g id="Node000015" class="node">
<title>Node15</title>
<g id="a_Node000015"><a xlink:title=" ">
<polygon fill="#e0e0e0" stroke="#999999" points="423.62,-129.75 384.38,-129.75 384.38,-110.5 423.62,-110.5 423.62,-129.75"/>
<text text-anchor="middle" x="404" y="-116.25" font-family="Helvetica,sans-Serif" font-size="10.00">utility</text>
</a>
</g>
</g>
<!-- Node1&#45;&gt;Node15 -->
<g id="edge21_Node000001_Node000015" class="edge">
<title>Node1&#45;&gt;Node15</title>
<g id="a_edge21_Node000001_Node000015"><a xlink:title=" ">
<path fill="none" stroke="#63b8ff" d="M345.43,-165.57C357.49,-156.42 371.58,-145.73 382.91,-137.13"/>
<polygon fill="#63b8ff" stroke="#63b8ff" points="384.99,-139.94 390.84,-131.11 380.76,-134.37 384.99,-139.94"/>
</a>
</g>
</g>
<!-- Node3 -->
<g id="Node000003" class="node">
<title>Node3</title>
<g id="a_Node000003"><a xlink:title=" ">
<polygon fill="#e0e0e0" stroke="#999999" points="176.5,-19.25 133.5,-19.25 133.5,0 176.5,0 176.5,-19.25"/>
<text text-anchor="middle" x="155" y="-5.75" font-family="Helvetica,sans-Serif" font-size="10.00">vector</text>
</a>
</g>
</g>
<!-- Node2&#45;&gt;Node3 -->
<g id="edge2_Node000002_Node000003" class="edge">
<title>Node2&#45;&gt;Node3</title>
<g id="a_edge2_Node000002_Node000003"><a xlink:title=" ">
<path fill="none" stroke="#63b8ff" d="M271.43,-111.68C244.74,-105.48 212.24,-94.32 189,-74.5 175.26,-62.78 166.23,-44.08 160.95,-29.94"/>
<polygon fill="#63b8ff" stroke="#63b8ff" points="164.39,-29.17 157.87,-20.81 157.76,-31.41 164.39,-29.17"/>
</a>
</g>
</g>
<!-- Node4 -->
<g id="Node000004" class="node">
<title>Node4</title>
<g id="a_Node000004"><a xlink:title=" ">
<polygon fill="#e0e0e0" stroke="#999999" points="243.62,-74.5 198.38,-74.5 198.38,-55.25 243.62,-55.25 243.62,-74.5"/>
<text text-anchor="middle" x="221" y="-61" font-family="Helvetica,sans-Serif" font-size="10.00">variant</text>
</a>
</g>
</g>
<!-- Node2&#45;&gt;Node4 -->
<g id="edge3_Node000002_Node000004" class="edge">
<title>Node2&#45;&gt;Node4</title>
<g id="a_edge3_Node000002_Node000004"><a xlink:title=" ">
<path fill="none" stroke="#63b8ff" d="M302.38,-110.09C287.31,-101.91 264.86,-89.71 247.35,-80.19"/>
<polygon fill="#63b8ff" stroke="#63b8ff" points="249.49,-77.37 239.04,-75.68 246.15,-83.52 249.49,-77.37"/>
</a>
</g>
</g>
<!-- Node5 -->
<g id="Node000005" class="node">
<title>Node5</title>
<g id="a_Node000005"><a xlink:title=" ">
<polygon fill="#e0e0e0" stroke="#999999" points="307,-19.25 267,-19.25 267,0 307,0 307,-19.25"/>
<text text-anchor="middle" x="287" y="-5.75" font-family="Helvetica,sans-Serif" font-size="10.00">string</text>
</a>
</g>
</g>
<!-- Node2&#45;&gt;Node5 -->
<g id="edge4_Node000002_Node000005" class="edge">
<title>Node2&#45;&gt;Node5</title>
<g id="a_edge4_Node000002_Node000005"><a xlink:title=" ">
<path fill="none" stroke="#63b8ff" d="M311.52,-110.23C304.81,-101.68 295.37,-88.08 291,-74.5 286.45,-60.38 285.56,-43.62 285.75,-30.81"/>
<polygon fill="#63b8ff" stroke="#63b8ff" points="289.24,-31.2 286.14,-21.07 282.24,-30.92 289.24,-31.2"/>
</a>
</g>
</g>
<!-- Node6 -->
<g id="Node000006" class="node">
<title>Node6</title>
<g id="a_Node000006"><a xlink:title=" ">
<polygon fill="#e0e0e0" stroke="#999999" points="696.88,-19.25 641.12,-19.25 641.12,0 696.88,0 696.88,-19.25"/>
<text text-anchor="middle" x="669" y="-5.75" font-family="Helvetica,sans-Serif" font-size="10.00">cinttypes</text>
</a>
</g>
</g>
<!-- Node2&#45;&gt;Node6 -->
<g id="edge5_Node000002_Node000006" class="edge">
<title>Node2&#45;&gt;Node6</title>
<g id="a_edge5_Node000002_Node000006"><a xlink:title=" ">
<path fill="none" stroke="#63b8ff" d="M366.64,-111.65C369.47,-111.25 372.27,-110.86 375,-110.5 445.49,-101.09 645.62,-127.54 693,-74.5 704.67,-61.43 694.85,-42.15 684.47,-28.19"/>
<polygon fill="#63b8ff" stroke="#63b8ff" points="687.42,-26.27 678.41,-20.7 681.98,-30.67 687.42,-26.27"/>
</a>
</g>
</g>
<!-- Node7 -->
<g id="Node000007" class="node">
<title>Node7</title>
<g id="a_Node000007"><a xlink:title=" ">
<polygon fill="#e0e0e0" stroke="#999999" points="683.88,-74.5 646.12,-74.5 646.12,-55.25 683.88,-55.25 683.88,-74.5"/>
<text text-anchor="middle" x="665" y="-61" font-family="Helvetica,sans-Serif" font-size="10.00">array</text>
</a>
</g>
</g>
<!-- Node2&#45;&gt;Node7 -->
<g id="edge6_Node000002_Node000007" class="edge">
<title>Node2&#45;&gt;Node7</title>
<g id="a_edge6_Node000002_Node000007"><a xlink:title=" ">
<path fill="none" stroke="#63b8ff" d="M366.65,-111.73C369.48,-111.31 372.27,-110.9 375,-110.5 487.79,-94.07 520.28,-99.52 634.85,-74.65"/>
<polygon fill="#63b8ff" stroke="#63b8ff" points="635.34,-78.13 644.35,-72.55 633.83,-71.29 635.34,-78.13"/>
</a>
</g>
</g>
<!-- Node8 -->
<g id="Node000008" class="node">
<title>Node8</title>
<g id="a_Node000008"><a xlink:href="../../dc/dd5/Closure_8hpp.html" target="_top" xlink:title="Subtype of the value type, handling closures.">
<polygon fill="white" stroke="#666666" points="431.75,-74.5 300.25,-74.5 300.25,-55.25 431.75,-55.25 431.75,-74.5"/>
<text text-anchor="middle" x="366" y="-61" font-family="Helvetica,sans-Serif" font-size="10.00">Ark/VM/Value/Closure.hpp</text>
</a>
</g>
</g>
<!-- Node2&#45;&gt;Node8 -->
<g id="edge7_Node000002_Node000008" class="edge">
<title>Node2&#45;&gt;Node8</title>
<g id="a_edge7_Node000002_Node000008"><a xlink:title=" ">
<path fill="none" stroke="#63b8ff" d="M326.76,-110.33C333.19,-103.05 342.51,-92.48 350.46,-83.48"/>
<polygon fill="#63b8ff" stroke="#63b8ff" points="353.08,-85.81 357.07,-75.99 347.83,-81.18 353.08,-85.81"/>
</a>
</g>
</g>
<!-- Node11 -->
<g id="Node000011" class="node">
<title>Node11</title>
<g id="a_Node000011"><a xlink:href="../../d5/d40/Platform_8hpp.html" target="_top" xlink:title="ArkScript configuration macros.">
<polygon fill="white" stroke="#666666" points="504.75,-19.25 415.25,-19.25 415.25,0 504.75,0 504.75,-19.25"/>
<text text-anchor="middle" x="460" y="-5.75" font-family="Helvetica,sans-Serif" font-size="10.00">Ark/Platform.hpp</text>
</a>
</g>
</g>
<!-- Node2&#45;&gt;Node11 -->
<g id="edge19_Node000002_Node000011" class="edge">
<title>Node2&#45;&gt;Node11</title>
<g id="a_edge19_Node000002_Node000011"><a xlink:title=" ">
<path fill="none" stroke="#63b8ff" d="M366.67,-112.23C391.91,-106.25 421.61,-95.12 441,-74.5 452.04,-62.76 456.69,-44.87 458.64,-31.01"/>
<polygon fill="#63b8ff" stroke="#63b8ff" points="462.11,-31.51 459.62,-21.21 455.14,-30.81 462.11,-31.51"/>
</a>
</g>
</g>
<!-- Node12 -->
<g id="Node000012" class="node">
<title>Node12</title>
<g id="a_Node000012"><a xlink:href="../../dc/d3d/UserType_8hpp.html" target="_top" xlink:title="Subtype of the value, capable of handling any C++ type.">
<polygon fill="white" stroke="#666666" points="627.88,-74.5 488.12,-74.5 488.12,-55.25 627.88,-55.25 627.88,-74.5"/>
<text text-anchor="middle" x="558" y="-61" font-family="Helvetica,sans-Serif" font-size="10.00">Ark/VM/Value/UserType.hpp</text>
</a>
</g>
</g>
<!-- Node2&#45;&gt;Node12 -->
<g id="edge12_Node000002_Node000012" class="edge">
<title>Node2&#45;&gt;Node12</title>
<g id="a_edge12_Node000002_Node000012"><a xlink:title=" ">
<path fill="none" stroke="#63b8ff" d="M359.81,-110.03C400.29,-101.01 462.44,-87.17 506.33,-77.39"/>
<polygon fill="#63b8ff" stroke="#63b8ff" points="506.88,-80.85 515.88,-75.26 505.36,-74.02 506.88,-80.85"/>
</a>
</g>
</g>
<!-- Node2&#45;&gt;Node13 -->
<g id="edge16_Node000002_Node000013" class="edge">
<title>Node2&#45;&gt;Node13</title>
<g id="a_edge16_Node000002_Node000013"><a xlink:title=" ">
<path fill="none" stroke="#63b8ff" d="M276.65,-110.03C234.56,-100.99 169.89,-87.11 124.32,-77.32"/>
<polygon fill="#63b8ff" stroke="#63b8ff" points="125.17,-73.93 114.66,-75.25 123.7,-80.77 125.17,-73.93"/>
</a>
</g>
</g>
<!-- Node8&#45;&gt;Node5 -->
<g id="edge10_Node000008_Node000005" class="edge">
<title>Node8&#45;&gt;Node5</title>
<g id="a_edge10_Node000008_Node000005"><a xlink:title=" ">
<path fill="none" stroke="#63b8ff" d="M352.6,-54.84C340.91,-46.96 323.7,-35.36 309.84,-26.02"/>
<polygon fill="#63b8ff" stroke="#63b8ff" points="311.97,-23.24 301.72,-20.55 308.06,-29.04 311.97,-23.24"/>
</a>
</g>
</g>
<!-- Node9 -->
<g id="Node000009" class="node">
<title>Node9</title>
<g id="a_Node000009"><a xlink:title=" ">
<polygon fill="#e0e0e0" stroke="#999999" points="391.62,-19.25 340.38,-19.25 340.38,0 391.62,0 391.62,-19.25"/>
<text text-anchor="middle" x="366" y="-5.75" font-family="Helvetica,sans-Serif" font-size="10.00">memory</text>
</a>
</g>
</g>
<!-- Node8&#45;&gt;Node9 -->
<g id="edge8_Node000008_Node000009" class="edge">
<title>Node8&#45;&gt;Node9</title>
<g id="a_edge8_Node000008_Node000009"><a xlink:title=" ">
<path fill="none" stroke="#63b8ff" d="M366,-55.08C366,-48.57 366,-39.42 366,-31.12"/>
<polygon fill="#63b8ff" stroke="#63b8ff" points="369.5,-31.12 366,-21.12 362.5,-31.12 369.5,-31.12"/>
</a>
</g>
</g>
<!-- Node10 -->
<g id="Node000010" class="node">
<title>Node10</title>
<g id="a_Node000010"><a xlink:title=" ">
<polygon fill="#e0e0e0" stroke="#999999" points="580.75,-19.25 527.25,-19.25 527.25,0 580.75,0 580.75,-19.25"/>
<text text-anchor="middle" x="554" y="-5.75" font-family="Helvetica,sans-Serif" font-size="10.00">iostream</text>
</a>
</g>
</g>
<!-- Node8&#45;&gt;Node10 -->
<g id="edge9_Node000008_Node000010" class="edge">
<title>Node8&#45;&gt;Node10</title>
<g id="a_edge9_Node000008_Node000010"><a xlink:title=" ">
<path fill="none" stroke="#63b8ff" d="M397.89,-54.84C430.6,-45.58 481.46,-31.17 516.18,-21.34"/>
<polygon fill="#63b8ff" stroke="#63b8ff" points="516.72,-24.82 525.39,-18.73 514.81,-18.09 516.72,-24.82"/>
</a>
</g>
</g>
<!-- Node8&#45;&gt;Node11 -->
<g id="edge11_Node000008_Node000011" class="edge">
<title>Node8&#45;&gt;Node11</title>
<g id="a_edge11_Node000008_Node000011"><a xlink:title=" ">
<path fill="none" stroke="#63b8ff" d="M381.95,-54.84C396.26,-46.73 417.53,-34.68 434.25,-25.21"/>
<polygon fill="#63b8ff" stroke="#63b8ff" points="435.68,-28.42 442.66,-20.45 432.23,-22.33 435.68,-28.42"/>
</a>
</g>
</g>
<!-- Node12&#45;&gt;Node6 -->
<g id="edge14_Node000012_Node000006" class="edge">
<title>Node12&#45;&gt;Node6</title>
<g id="a_edge14_Node000012_Node000006"><a xlink:title=" ">
<path fill="none" stroke="#63b8ff" d="M576.83,-54.84C594.05,-46.58 619.8,-34.23 639.71,-24.68"/>
<polygon fill="#63b8ff" stroke="#63b8ff" points="641.21,-27.84 648.71,-20.36 638.18,-21.53 641.21,-27.84"/>
</a>
</g>
</g>
<!-- Node12&#45;&gt;Node10 -->
<g id="edge13_Node000012_Node000010" class="edge">
<title>Node12&#45;&gt;Node10</title>
<g id="a_edge13_Node000012_Node000010"><a xlink:title=" ">
<path fill="none" stroke="#63b8ff" d="M557.34,-55.08C556.84,-48.49 556.15,-39.21 555.52,-30.82"/>
<polygon fill="#63b8ff" stroke="#63b8ff" points="559.03,-30.83 554.79,-21.12 552.05,-31.35 559.03,-30.83"/>
</a>
</g>
</g>
<!-- Node12&#45;&gt;Node11 -->
<g id="edge15_Node000012_Node000011" class="edge">
<title>Node12&#45;&gt;Node11</title>
<g id="a_edge15_Node000012_Node000011"><a xlink:title=" ">
<path fill="none" stroke="#63b8ff" d="M541.38,-54.84C526.31,-46.66 503.86,-34.46 486.35,-24.94"/>
<polygon fill="#63b8ff" stroke="#63b8ff" points="488.49,-22.12 478.04,-20.43 485.15,-28.27 488.49,-22.12"/>
</a>
</g>
</g>
<!-- Node13&#45;&gt;Node3 -->
<g id="edge18_Node000013_Node000003" class="edge">
<title>Node13&#45;&gt;Node3</title>
<g id="a_edge18_Node000013_Node000003"><a xlink:title=" ">
<path fill="none" stroke="#63b8ff" d="M85.25,-54.84C97.8,-46.89 116.33,-35.14 131.14,-25.75"/>
<polygon fill="#63b8ff" stroke="#63b8ff" points="132.83,-28.82 139.4,-20.51 129.08,-22.91 132.83,-28.82"/>
</a>
</g>
</g>
<!-- Node14 -->
<g id="Node000014" class="node">
<title>Node14</title>
<g id="a_Node000014"><a xlink:title=" ">
<polygon fill="#e0e0e0" stroke="#999999" points="100,-19.25 42,-19.25 42,0 100,0 100,-19.25"/>
<text text-anchor="middle" x="71" y="-5.75" font-family="Helvetica,sans-Serif" font-size="10.00">functional</text>
</a>
</g>
</g>
<!-- Node13&#45;&gt;Node14 -->
<g id="edge17_Node000013_Node000014" class="edge">
<title>Node13&#45;&gt;Node14</title>
<g id="a_edge17_Node000013_Node000014"><a xlink:title=" ">
<path fill="none" stroke="#63b8ff" d="M71,-55.08C71,-48.57 71,-39.42 71,-31.12"/>
<polygon fill="#63b8ff" stroke="#63b8ff" points="74.5,-31.12 71,-21.12 67.5,-31.12 74.5,-31.12"/>
</a>
</g>
</g>
</g>
</svg>
