<?xml version="1.0" encoding="UTF-8" standalone="no"?>
<!DOCTYPE svg PUBLIC "-//W3C//DTD SVG 1.1//EN"
 "http://www.w3.org/Graphics/SVG/1.1/DTD/svg11.dtd">
<!-- Generated by graphviz version 12.2.0 (20241103.1931)
 -->
<!-- Title: /Users/fola/Documents/ArkScript/Ark/include/Ark/Compiler/Package/ImportSolver.hpp Pages: 1 -->
<svg width="1669pt" height="337pt"
 viewBox="0.00 0.00 1669.38 337.25" xmlns="http://www.w3.org/2000/svg" xmlns:xlink="http://www.w3.org/1999/xlink">
<g id="graph0" class="graph" transform="scale(1 1) rotate(0) translate(4 333.25)">
<title>/Users/fola/Documents/ArkScript/Ark/include/Ark/Compiler/Package/ImportSolver.hpp</title>
<!-- Node1 -->
<g id="Node000001" class="node">
<title>Node1</title>
<g id="a_Node000001"><a xlink:title="Handle imports, resolve them with modules and everything.">
<polygon fill="#999999" stroke="#666666" points="1016.88,-329.25 823.12,-329.25 823.12,-287.5 1016.88,-287.5 1016.88,-329.25"/>
<text text-anchor="start" x="831.12" y="-315.75" font-family="Helvetica,sans-Serif" font-size="10.00">/Users/fola/Documents</text>
<text text-anchor="start" x="831.12" y="-304.5" font-family="Helvetica,sans-Serif" font-size="10.00">/ArkScript/Ark/include</text>
<text text-anchor="middle" x="920" y="-293.25" font-family="Helvetica,sans-Serif" font-size="10.00">/Ark/Compiler/Package/ImportSolver.hpp</text>
</a>
</g>
</g>
<!-- Node2 -->
<g id="Node000002" class="node">
<title>Node2</title>
<g id="a_Node000002"><a xlink:title=" ">
<polygon fill="#e0e0e0" stroke="#999999" points="40,-245.88 0,-245.88 0,-226.62 40,-226.62 40,-245.88"/>
<text text-anchor="middle" x="20" y="-232.38" font-family="Helvetica,sans-Serif" font-size="10.00">stack</text>
</a>
</g>
</g>
<!-- Node1&#45;&gt;Node2 -->
<g id="edge1_Node000001_Node000002" class="edge">
<title>Node1&#45;&gt;Node2</title>
<g id="a_edge1_Node000001_Node000002"><a xlink:title=" ">
<path fill="none" stroke="#63b8ff" d="M822.9,-305.16C628.46,-300.06 197.64,-285.23 54,-251.5 52.36,-251.12 50.71,-250.66 49.05,-250.15"/>
<polygon fill="#63b8ff" stroke="#63b8ff" points="50.35,-246.9 39.75,-246.76 47.95,-253.48 50.35,-246.9"/>
</a>
</g>
</g>
<!-- Node3 -->
<g id="Node000003" class="node">
<title>Node3</title>
<g id="a_Node000003"><a xlink:title=" ">
<polygon fill="#e0e0e0" stroke="#999999" points="961.5,-74.5 918.5,-74.5 918.5,-55.25 961.5,-55.25 961.5,-74.5"/>
<text text-anchor="middle" x="940" y="-61" font-family="Helvetica,sans-Serif" font-size="10.00">vector</text>
</a>
</g>
</g>
<!-- Node1&#45;&gt;Node3 -->
<g id="edge2_Node000001_Node000003" class="edge">
<title>Node1&#45;&gt;Node3</title>
<g id="a_edge2_Node000001_Node000003"><a xlink:title=" ">
<path fill="none" stroke="#63b8ff" d="M908.91,-287.07C903.89,-276.74 898.53,-263.81 896,-251.5 883.38,-190.12 872.22,-168.48 896,-110.5 900.6,-99.29 909.52,-89.39 918.13,-81.78"/>
<polygon fill="#63b8ff" stroke="#63b8ff" points="920.08,-84.71 925.63,-75.68 915.66,-79.28 920.08,-84.71"/>
</a>
</g>
</g>
<!-- Node4 -->
<g id="Node000004" class="node">
<title>Node4</title>
<g id="a_Node000004"><a xlink:title=" ">
<polygon fill="#e0e0e0" stroke="#999999" points="653,-74.5 613,-74.5 613,-55.25 653,-55.25 653,-74.5"/>
<text text-anchor="middle" x="633" y="-61" font-family="Helvetica,sans-Serif" font-size="10.00">string</text>
</a>
</g>
</g>
<!-- Node1&#45;&gt;Node4 -->
<g id="edge3_Node000001_Node000004" class="edge">
<title>Node1&#45;&gt;Node4</title>
<g id="a_edge3_Node000001_Node000004"><a xlink:title=" ">
<path fill="none" stroke="#63b8ff" d="M822.78,-302.02C622.43,-288.68 174.91,-246.23 87,-129.75 81.85,-122.92 81.2,-116.79 87,-110.5 121.95,-72.58 489.53,-66.88 601.08,-66.03"/>
<polygon fill="#63b8ff" stroke="#63b8ff" points="601.03,-69.53 611,-65.96 600.98,-62.53 601.03,-69.53"/>
</a>
</g>
</g>
<!-- Node5 -->
<g id="Node000005" class="node">
<title>Node5</title>
<g id="a_Node000005"><a xlink:title=" ">
<polygon fill="#e0e0e0" stroke="#999999" points="848.5,-245.88 787.5,-245.88 787.5,-226.62 848.5,-226.62 848.5,-245.88"/>
<text text-anchor="middle" x="818" y="-232.38" font-family="Helvetica,sans-Serif" font-size="10.00">filesystem</text>
</a>
</g>
</g>
<!-- Node1&#45;&gt;Node5 -->
<g id="edge4_Node000001_Node000005" class="edge">
<title>Node1&#45;&gt;Node5</title>
<g id="a_edge4_Node000001_Node000005"><a xlink:title=" ">
<path fill="none" stroke="#63b8ff" d="M890.5,-287.09C874.53,-276.11 855.12,-262.77 840.41,-252.65"/>
<polygon fill="#63b8ff" stroke="#63b8ff" points="842.54,-249.87 832.32,-247.09 838.57,-255.64 842.54,-249.87"/>
</a>
</g>
</g>
<!-- Node6 -->
<g id="Node000006" class="node">
<title>Node6</title>
<g id="a_Node000006"><a xlink:title=" ">
<polygon fill="#e0e0e0" stroke="#999999" points="178.38,-129.75 95.62,-129.75 95.62,-110.5 178.38,-110.5 178.38,-129.75"/>
<text text-anchor="middle" x="137" y="-116.25" font-family="Helvetica,sans-Serif" font-size="10.00">unordered_map</text>
</a>
</g>
</g>
<!-- Node1&#45;&gt;Node6 -->
<g id="edge5_Node000001_Node000006" class="edge">
<title>Node1&#45;&gt;Node6</title>
<g id="a_edge5_Node000001_Node000006"><a xlink:title=" ">
<path fill="none" stroke="#63b8ff" d="M823.05,-287.63C712.16,-264.67 525.35,-224.79 366,-185 300.1,-168.54 224.3,-146.85 178.56,-133.45"/>
<polygon fill="#63b8ff" stroke="#63b8ff" points="179.64,-130.12 169.05,-130.66 177.66,-136.84 179.64,-130.12"/>
</a>
</g>
</g>
<!-- Node7 -->
<g id="Node000007" class="node">
<title>Node7</title>
<g id="a_Node000007"><a xlink:href="../../d5/d40/Platform_8hpp.html" target="_top" xlink:title="ArkScript configuration macros.">
<polygon fill="white" stroke="#666666" points="1661.38,-74.5 1548.62,-74.5 1548.62,-55.25 1661.38,-55.25 1661.38,-74.5"/>
<text text-anchor="middle" x="1605" y="-61" font-family="Helvetica,sans-Serif" font-size="10.00">Ark/Utils/Platform.hpp</text>
</a>
</g>
</g>
<!-- Node1&#45;&gt;Node7 -->
<g id="edge6_Node000001_Node000007" class="edge">
<title>Node1&#45;&gt;Node7</title>
<g id="a_edge6_Node000001_Node000007"><a xlink:title=" ">
<path fill="none" stroke="#63b8ff" d="M1017.27,-295.51C1085.49,-286.18 1178.52,-271.42 1259,-251.5 1425,-210.41 1524.02,-268.49 1624,-129.75 1633.7,-116.29 1626.57,-97.86 1618.42,-84.25"/>
<polygon fill="#63b8ff" stroke="#63b8ff" points="1621.53,-82.61 1613.09,-76.22 1615.7,-86.48 1621.53,-82.61"/>
</a>
</g>
</g>
<!-- Node8 -->
<g id="Node000008" class="node">
<title>Node8</title>
<g id="a_Node000008"><a xlink:href="../../df/d5f/Pass_8hpp.html" target="_top" xlink:title="Interface for a compiler pass (take in an AST, output an AST)">
<polygon fill="white" stroke="#666666" points="1022.62,-245.88 905.38,-245.88 905.38,-226.62 1022.62,-226.62 1022.62,-245.88"/>
<text text-anchor="middle" x="964" y="-232.38" font-family="Helvetica,sans-Serif" font-size="10.00">Ark/Compiler/Pass.hpp</text>
</a>
</g>
</g>
<!-- Node1&#45;&gt;Node8 -->
<g id="edge7_Node000001_Node000008" class="edge">
<title>Node1&#45;&gt;Node8</title>
<g id="a_edge7_Node000001_Node000008"><a xlink:title=" ">
<path fill="none" stroke="#63b8ff" d="M932.73,-287.09C938.92,-277.22 946.32,-265.43 952.36,-255.79"/>
<polygon fill="#63b8ff" stroke="#63b8ff" points="955.32,-257.66 957.67,-247.33 949.39,-253.94 955.32,-257.66"/>
</a>
</g>
</g>
<!-- Node9 -->
<g id="Node000009" class="node">
<title>Node9</title>
<g id="a_Node000009"><a xlink:href="../../d7/dc6/Node_8hpp.html" target="_top" xlink:title="AST node used by the parser, optimizer and compiler.">
<polygon fill="white" stroke="#666666" points="1189.25,-185 1048.75,-185 1048.75,-165.75 1189.25,-165.75 1189.25,-185"/>
<text text-anchor="middle" x="1119" y="-171.5" font-family="Helvetica,sans-Serif" font-size="10.00">Ark/Compiler/AST/Node.hpp</text>
</a>
</g>
</g>
<!-- Node1&#45;&gt;Node9 -->
<g id="edge42_Node000001_Node000009" class="edge">
<title>Node1&#45;&gt;Node9</title>
<g id="a_edge42_Node000001_Node000009"><a xlink:title=" ">
<path fill="none" stroke="#63b8ff" d="M967.22,-287.03C987.77,-277.37 1011.74,-264.99 1032,-251.5 1046.11,-242.11 1079.8,-212.1 1100.87,-192.98"/>
<polygon fill="#63b8ff" stroke="#63b8ff" points="1103.14,-195.64 1108.17,-186.32 1098.43,-190.47 1103.14,-195.64"/>
</a>
</g>
</g>
<!-- Node29 -->
<g id="Node000029" class="node">
<title>Node29</title>
<g id="a_Node000029"><a xlink:href="../../d4/d32/Import_8hpp.html" target="_top" xlink:title=" ">
<polygon fill="white" stroke="#666666" points="1576.5,-129.75 1431.5,-129.75 1431.5,-110.5 1576.5,-110.5 1576.5,-129.75"/>
<text text-anchor="middle" x="1504" y="-116.25" font-family="Helvetica,sans-Serif" font-size="10.00">Ark/Compiler/AST/Import.hpp</text>
</a>
</g>
</g>
<!-- Node1&#45;&gt;Node29 -->
<g id="edge43_Node000001_Node000029" class="edge">
<title>Node1&#45;&gt;Node29</title>
<g id="a_edge43_Node000001_Node000029"><a xlink:title=" ">
<path fill="none" stroke="#63b8ff" d="M1017.2,-293.34C1072.15,-284.12 1141.71,-270.25 1202,-251.5 1306.87,-218.88 1424.62,-161.69 1476.7,-135.26"/>
<polygon fill="#63b8ff" stroke="#63b8ff" points="1478.13,-138.46 1485.45,-130.79 1474.95,-132.22 1478.13,-138.46"/>
</a>
</g>
</g>
<!-- Node31 -->
<g id="Node000031" class="node">
<title>Node31</title>
<g id="a_Node000031"><a xlink:href="../../d8/d80/Package_8hpp.html" target="_top" xlink:title=" ">
<polygon fill="white" stroke="#666666" points="1193.12,-251.5 1078.88,-251.5 1078.88,-221 1193.12,-221 1193.12,-251.5"/>
<text text-anchor="start" x="1086.88" y="-238" font-family="Helvetica,sans-Serif" font-size="10.00">Ark/Compiler/Package</text>
<text text-anchor="middle" x="1136" y="-226.75" font-family="Helvetica,sans-Serif" font-size="10.00">/Package.hpp</text>
</a>
</g>
</g>
<!-- Node1&#45;&gt;Node31 -->
<g id="edge48_Node000001_Node000031" class="edge">
<title>Node1&#45;&gt;Node31</title>
<g id="a_edge48_Node000001_Node000031"><a xlink:title=" ">
<path fill="none" stroke="#63b8ff" d="M982.48,-287.09C1013.33,-277.08 1050.24,-265.09 1080.14,-255.39"/>
<polygon fill="#63b8ff" stroke="#63b8ff" points="1080.94,-258.8 1089.37,-252.39 1078.78,-252.15 1080.94,-258.8"/>
</a>
</g>
</g>
<!-- Node8&#45;&gt;Node7 -->
<g id="edge8_Node000008_Node000007" class="edge">
<title>Node8&#45;&gt;Node7</title>
<g id="a_edge8_Node000008_Node000007"><a xlink:title=" ">
<path fill="none" stroke="#63b8ff" d="M1023.09,-226.57C1180.12,-203.37 1596.51,-140.92 1606,-129.75 1616.1,-117.85 1614.79,-99.72 1611.57,-85.82"/>
<polygon fill="#63b8ff" stroke="#63b8ff" points="1614.99,-85.06 1608.89,-76.4 1608.26,-86.98 1614.99,-85.06"/>
</a>
</g>
</g>
<!-- Node8&#45;&gt;Node9 -->
<g id="edge9_Node000008_Node000009" class="edge">
<title>Node8&#45;&gt;Node9</title>
<g id="a_edge9_Node000008_Node000009"><a xlink:title=" ">
<path fill="none" stroke="#63b8ff" d="M987.88,-226.18C1013.71,-216.37 1055.12,-200.64 1084.49,-189.48"/>
<polygon fill="#63b8ff" stroke="#63b8ff" points="1085.57,-192.82 1093.68,-185.99 1083.09,-186.27 1085.57,-192.82"/>
</a>
</g>
</g>
<!-- Node23 -->
<g id="Node000023" class="node">
<title>Node23</title>
<g id="a_Node000023"><a xlink:href="../../d9/d11/Logger_8hpp.html" target="_top" xlink:title="Internal logger.">
<polygon fill="white" stroke="#666666" points="479.25,-185 374.75,-185 374.75,-165.75 479.25,-165.75 479.25,-185"/>
<text text-anchor="middle" x="427" y="-171.5" font-family="Helvetica,sans-Serif" font-size="10.00">Ark/Utils/Logger.hpp</text>
</a>
</g>
</g>
<!-- Node8&#45;&gt;Node23 -->
<g id="edge33_Node000008_Node000023" class="edge">
<title>Node8&#45;&gt;Node23</title>
<g id="a_edge33_Node000008_Node000023"><a xlink:title=" ">
<path fill="none" stroke="#63b8ff" d="M904.89,-226.98C889.63,-224.93 873.21,-222.81 858,-221 727.8,-205.51 575.09,-190.43 490.89,-182.38"/>
<polygon fill="#63b8ff" stroke="#63b8ff" points="491.26,-178.9 480.98,-181.43 490.6,-185.86 491.26,-178.9"/>
</a>
</g>
</g>
<!-- Node9&#45;&gt;Node3 -->
<g id="edge13_Node000009_Node000003" class="edge">
<title>Node9&#45;&gt;Node3</title>
<g id="a_edge13_Node000009_Node000003"><a xlink:title=" ">
<path fill="none" stroke="#63b8ff" d="M1116.53,-165.55C1112.22,-151.78 1102.02,-125.22 1084,-110.5 1079.57,-106.88 1013.87,-87.34 972.76,-75.35"/>
<polygon fill="#63b8ff" stroke="#63b8ff" points="973.93,-72.05 963.35,-72.61 971.97,-78.77 973.93,-72.05"/>
</a>
</g>
</g>
<!-- Node9&#45;&gt;Node4 -->
<g id="edge12_Node000009_Node000004" class="edge">
<title>Node9&#45;&gt;Node4</title>
<g id="a_edge12_Node000009_Node000004"><a xlink:title=" ">
<path fill="none" stroke="#63b8ff" d="M1048.63,-175.24C937.77,-175.33 728.8,-169.94 668,-129.75 652.67,-119.62 643.47,-100.41 638.37,-85.69"/>
<polygon fill="#63b8ff" stroke="#63b8ff" points="641.72,-84.67 635.46,-76.13 635.03,-86.72 641.72,-84.67"/>
</a>
</g>
</g>
<!-- Node9&#45;&gt;Node7 -->
<g id="edge29_Node000009_Node000007" class="edge">
<title>Node9&#45;&gt;Node7</title>
<g id="a_edge29_Node000009_Node000007"><a xlink:title=" ">
<path fill="none" stroke="#63b8ff" d="M1189.67,-171.93C1312.71,-167.04 1556.09,-154.36 1586,-129.75 1598.71,-119.29 1603.16,-100.72 1604.61,-86.29"/>
<polygon fill="#63b8ff" stroke="#63b8ff" points="1608.09,-86.67 1605.15,-76.49 1601.1,-86.28 1608.09,-86.67"/>
</a>
</g>
</g>
<!-- Node10 -->
<g id="Node000010" class="node">
<title>Node10</title>
<g id="a_Node000010"><a xlink:title=" ">
<polygon fill="#e0e0e0" stroke="#999999" points="1176.62,-129.75 1131.38,-129.75 1131.38,-110.5 1176.62,-110.5 1176.62,-129.75"/>
<text text-anchor="middle" x="1154" y="-116.25" font-family="Helvetica,sans-Serif" font-size="10.00">variant</text>
</a>
</g>
</g>
<!-- Node9&#45;&gt;Node10 -->
<g id="edge10_Node000009_Node000010" class="edge">
<title>Node9&#45;&gt;Node10</title>
<g id="a_edge10_Node000009_Node000010"><a xlink:title=" ">
<path fill="none" stroke="#63b8ff" d="M1124.78,-165.58C1129.41,-158.53 1136.07,-148.4 1141.87,-139.58"/>
<polygon fill="#63b8ff" stroke="#63b8ff" points="1144.7,-141.65 1147.26,-131.37 1138.85,-137.81 1144.7,-141.65"/>
</a>
</g>
</g>
<!-- Node11 -->
<g id="Node000011" class="node">
<title>Node11</title>
<g id="a_Node000011"><a xlink:title=" ">
<polygon fill="#e0e0e0" stroke="#999999" points="1413.62,-129.75 1362.38,-129.75 1362.38,-110.5 1413.62,-110.5 1413.62,-129.75"/>
<text text-anchor="middle" x="1388" y="-116.25" font-family="Helvetica,sans-Serif" font-size="10.00">ostream</text>
</a>
</g>
</g>
<!-- Node9&#45;&gt;Node11 -->
<g id="edge11_Node000009_Node000011" class="edge">
<title>Node9&#45;&gt;Node11</title>
<g id="a_edge11_Node000009_Node000011"><a xlink:title=" ">
<path fill="none" stroke="#63b8ff" d="M1171.92,-165.27C1217.15,-157.28 1284.23,-144.93 1350.92,-130.34"/>
<polygon fill="#63b8ff" stroke="#63b8ff" points="1351.56,-133.78 1360.57,-128.21 1350.05,-126.95 1351.56,-133.78"/>
</a>
</g>
</g>
<!-- Node12 -->
<g id="Node000012" class="node">
<title>Node12</title>
<g id="a_Node000012"><a xlink:title=" ">
<polygon fill="#e0e0e0" stroke="#999999" points="1271.88,-74.5 1222.12,-74.5 1222.12,-55.25 1271.88,-55.25 1271.88,-74.5"/>
<text text-anchor="middle" x="1247" y="-61" font-family="Helvetica,sans-Serif" font-size="10.00">optional</text>
</a>
</g>
</g>
<!-- Node9&#45;&gt;Node12 -->
<g id="edge14_Node000009_Node000012" class="edge">
<title>Node9&#45;&gt;Node12</title>
<g id="a_edge14_Node000009_Node000012"><a xlink:title=" ">
<path fill="none" stroke="#63b8ff" d="M1134.58,-165.36C1148.61,-156.92 1169.51,-143.58 1186,-129.75 1203.18,-115.34 1220.64,-96.55 1232.45,-83.08"/>
<polygon fill="#63b8ff" stroke="#63b8ff" points="1234.78,-85.74 1238.67,-75.88 1229.48,-81.16 1234.78,-85.74"/>
</a>
</g>
</g>
<!-- Node13 -->
<g id="Node000013" class="node">
<title>Node13</title>
<g id="a_Node000013"><a xlink:href="../../da/d33/Namespace_8hpp.html" target="_top" xlink:title=" ">
<polygon fill="white" stroke="#666666" points="1074.88,-129.75 905.12,-129.75 905.12,-110.5 1074.88,-110.5 1074.88,-129.75"/>
<text text-anchor="middle" x="990" y="-116.25" font-family="Helvetica,sans-Serif" font-size="10.00">Ark/Compiler/AST/Namespace.hpp</text>
</a>
</g>
</g>
<!-- Node9&#45;&gt;Node13 -->
<g id="edge15_Node000009_Node000013" class="edge">
<title>Node9&#45;&gt;Node13</title>
<g id="a_edge15_Node000009_Node000013"><a xlink:title=" ">
<path fill="none" stroke="#63b8ff" d="M1097.12,-165.34C1076.64,-156.89 1045.79,-144.15 1022.44,-134.52"/>
<polygon fill="#63b8ff" stroke="#63b8ff" points="1023.97,-131.36 1013.39,-130.78 1021.3,-137.83 1023.97,-131.36"/>
</a>
</g>
</g>
<!-- Node15 -->
<g id="Node000015" class="node">
<title>Node15</title>
<g id="a_Node000015"><a xlink:href="../../d8/ddd/Common_8hpp.html" target="_top" xlink:title="Common code for the compiler.">
<polygon fill="white" stroke="#666666" points="811.25,-129.75 676.75,-129.75 676.75,-110.5 811.25,-110.5 811.25,-129.75"/>
<text text-anchor="middle" x="744" y="-116.25" font-family="Helvetica,sans-Serif" font-size="10.00">Ark/Compiler/Common.hpp</text>
</a>
</g>
</g>
<!-- Node9&#45;&gt;Node15 -->
<g id="edge19_Node000009_Node000015" class="edge">
<title>Node9&#45;&gt;Node15</title>
<g id="a_edge19_Node000009_Node000015"><a xlink:title=" ">
<path fill="none" stroke="#63b8ff" d="M1054.96,-165.28C989.67,-156.01 888.42,-141.63 819.32,-131.82"/>
<polygon fill="#63b8ff" stroke="#63b8ff" points="819.98,-128.38 809.59,-130.44 819,-135.31 819.98,-128.38"/>
</a>
</g>
</g>
<!-- Node22 -->
<g id="Node000022" class="node">
<title>Node22</title>
<g id="a_Node000022"><a xlink:href="../../dc/d58/Position_8hpp.html" target="_top" xlink:title="Defines position utilities (for text in a file) for the parser, formatter, diagnostics.">
<polygon fill="white" stroke="#666666" points="1344.62,-129.75 1233.38,-129.75 1233.38,-110.5 1344.62,-110.5 1344.62,-129.75"/>
<text text-anchor="middle" x="1289" y="-116.25" font-family="Helvetica,sans-Serif" font-size="10.00">Ark/Utils/Position.hpp</text>
</a>
</g>
</g>
<!-- Node9&#45;&gt;Node22 -->
<g id="edge30_Node000009_Node000022" class="edge">
<title>Node9&#45;&gt;Node22</title>
<g id="a_edge30_Node000009_Node000022"><a xlink:title=" ">
<path fill="none" stroke="#63b8ff" d="M1147.84,-165.34C1175.68,-156.62 1218.07,-143.34 1249.14,-133.61"/>
<polygon fill="#63b8ff" stroke="#63b8ff" points="1250.08,-136.98 1258.58,-130.65 1247.99,-130.3 1250.08,-136.98"/>
</a>
</g>
</g>
<!-- Node13&#45;&gt;Node3 -->
<g id="edge17_Node000013_Node000003" class="edge">
<title>Node13&#45;&gt;Node3</title>
<g id="a_edge17_Node000013_Node000003"><a xlink:title=" ">
<path fill="none" stroke="#63b8ff" d="M981.74,-110.33C974.84,-102.98 964.78,-92.26 956.26,-83.19"/>
<polygon fill="#63b8ff" stroke="#63b8ff" points="958.87,-80.86 949.47,-75.96 953.77,-85.65 958.87,-80.86"/>
</a>
</g>
</g>
<!-- Node13&#45;&gt;Node4 -->
<g id="edge16_Node000013_Node000004" class="edge">
<title>Node13&#45;&gt;Node4</title>
<g id="a_edge16_Node000013_Node000004"><a xlink:title=" ">
<path fill="none" stroke="#63b8ff" d="M929.04,-110.03C852.46,-98.61 723.94,-79.44 664.68,-70.6"/>
<polygon fill="#63b8ff" stroke="#63b8ff" points="665.36,-67.16 654.96,-69.15 664.33,-74.09 665.36,-67.16"/>
</a>
</g>
</g>
<!-- Node14 -->
<g id="Node000014" class="node">
<title>Node14</title>
<g id="a_Node000014"><a xlink:title=" ">
<polygon fill="#e0e0e0" stroke="#999999" points="1030.62,-74.5 979.38,-74.5 979.38,-55.25 1030.62,-55.25 1030.62,-74.5"/>
<text text-anchor="middle" x="1005" y="-61" font-family="Helvetica,sans-Serif" font-size="10.00">memory</text>
</a>
</g>
</g>
<!-- Node13&#45;&gt;Node14 -->
<g id="edge18_Node000013_Node000014" class="edge">
<title>Node13&#45;&gt;Node14</title>
<g id="a_edge18_Node000013_Node000014"><a xlink:title=" ">
<path fill="none" stroke="#63b8ff" d="M992.48,-110.33C994.35,-103.67 997.01,-94.24 999.39,-85.78"/>
<polygon fill="#63b8ff" stroke="#63b8ff" points="1002.72,-86.89 1002.06,-76.32 995.98,-84.99 1002.72,-86.89"/>
</a>
</g>
</g>
<!-- Node15&#45;&gt;Node3 -->
<g id="edge22_Node000015_Node000003" class="edge">
<title>Node15&#45;&gt;Node3</title>
<g id="a_edge22_Node000015_Node000003"><a xlink:title=" ">
<path fill="none" stroke="#63b8ff" d="M778.38,-110.07C809.69,-101.78 857.47,-89.03 907.11,-75.27"/>
<polygon fill="#63b8ff" stroke="#63b8ff" points="907.9,-78.69 916.6,-72.64 906.03,-71.94 907.9,-78.69"/>
</a>
</g>
</g>
<!-- Node16 -->
<g id="Node000016" class="node">
<title>Node16</title>
<g id="a_Node000016"><a xlink:title=" ">
<polygon fill="#e0e0e0" stroke="#999999" points="900.88,-74.5 863.12,-74.5 863.12,-55.25 900.88,-55.25 900.88,-74.5"/>
<text text-anchor="middle" x="882" y="-61" font-family="Helvetica,sans-Serif" font-size="10.00">array</text>
</a>
</g>
</g>
<!-- Node15&#45;&gt;Node16 -->
<g id="edge20_Node000015_Node000016" class="edge">
<title>Node15&#45;&gt;Node16</title>
<g id="a_edge20_Node000015_Node000016"><a xlink:title=" ">
<path fill="none" stroke="#63b8ff" d="M767.41,-110.09C790.85,-101.05 827.01,-87.09 852.43,-77.29"/>
<polygon fill="#63b8ff" stroke="#63b8ff" points="853.45,-80.64 861.52,-73.78 850.93,-74.11 853.45,-80.64"/>
</a>
</g>
</g>
<!-- Node17 -->
<g id="Node000017" class="node">
<title>Node17</title>
<g id="a_Node000017"><a xlink:title=" ">
<polygon fill="#e0e0e0" stroke="#999999" points="696.75,-19.25 631.25,-19.25 631.25,0 696.75,0 696.75,-19.25"/>
<text text-anchor="middle" x="664" y="-5.75" font-family="Helvetica,sans-Serif" font-size="10.00">string_view</text>
</a>
</g>
</g>
<!-- Node15&#45;&gt;Node17 -->
<g id="edge21_Node000015_Node000017" class="edge">
<title>Node15&#45;&gt;Node17</title>
<g id="a_edge21_Node000015_Node000017"><a xlink:title=" ">
<path fill="none" stroke="#63b8ff" d="M737.45,-110.25C724.39,-92.52 694.83,-52.44 677.46,-28.88"/>
<polygon fill="#63b8ff" stroke="#63b8ff" points="680.29,-26.82 671.54,-20.84 674.65,-30.97 680.29,-26.82"/>
</a>
</g>
</g>
<!-- Node18 -->
<g id="Node000018" class="node">
<title>Node18</title>
<g id="a_Node000018"><a xlink:title=" ">
<polygon fill="#e0e0e0" stroke="#999999" points="770.88,-19.25 715.12,-19.25 715.12,0 770.88,0 770.88,-19.25"/>
<text text-anchor="middle" x="743" y="-5.75" font-family="Helvetica,sans-Serif" font-size="10.00">cinttypes</text>
</a>
</g>
</g>
<!-- Node15&#45;&gt;Node18 -->
<g id="edge23_Node000015_Node000018" class="edge">
<title>Node15&#45;&gt;Node18</title>
<g id="a_edge23_Node000015_Node000018"><a xlink:title=" ">
<path fill="none" stroke="#63b8ff" d="M742.45,-110.27C740.97,-101.29 738.84,-86.98 738,-74.5 737.02,-59.85 738.38,-43.33 739.93,-30.75"/>
<polygon fill="#63b8ff" stroke="#63b8ff" points="743.34,-31.6 741.25,-21.22 736.41,-30.64 743.34,-31.6"/>
</a>
</g>
</g>
<!-- Node19 -->
<g id="Node000019" class="node">
<title>Node19</title>
<g id="a_Node000019"><a xlink:href="../../d6/de9/Constants_8hpp.html" target="_top" xlink:title="Constants used by ArkScript.">
<polygon fill="white" stroke="#666666" points="844.88,-74.5 747.12,-74.5 747.12,-55.25 844.88,-55.25 844.88,-74.5"/>
<text text-anchor="middle" x="796" y="-61" font-family="Helvetica,sans-Serif" font-size="10.00">Ark/Constants.hpp</text>
</a>
</g>
</g>
<!-- Node15&#45;&gt;Node19 -->
<g id="edge24_Node000015_Node000019" class="edge">
<title>Node15&#45;&gt;Node19</title>
<g id="a_edge24_Node000015_Node000019"><a xlink:title=" ">
<path fill="none" stroke="#63b8ff" d="M752.59,-110.33C759.84,-102.9 770.45,-92.04 779.37,-82.91"/>
<polygon fill="#63b8ff" stroke="#63b8ff" points="781.69,-85.54 786.17,-75.94 776.68,-80.65 781.69,-85.54"/>
</a>
</g>
</g>
<!-- Node19&#45;&gt;Node17 -->
<g id="edge25_Node000019_Node000017" class="edge">
<title>Node19&#45;&gt;Node17</title>
<g id="a_edge25_Node000019_Node000017"><a xlink:title=" ">
<path fill="none" stroke="#63b8ff" d="M773.61,-54.84C752.56,-46.35 720.8,-33.54 696.88,-23.89"/>
<polygon fill="#63b8ff" stroke="#63b8ff" points="698.49,-20.76 687.91,-20.27 695.87,-27.26 698.49,-20.76"/>
</a>
</g>
</g>
<!-- Node19&#45;&gt;Node18 -->
<g id="edge27_Node000019_Node000018" class="edge">
<title>Node19&#45;&gt;Node18</title>
<g id="a_edge27_Node000019_Node000018"><a xlink:title=" ">
<path fill="none" stroke="#63b8ff" d="M787.25,-55.08C779.85,-47.65 769.04,-36.79 759.95,-27.66"/>
<polygon fill="#63b8ff" stroke="#63b8ff" points="762.54,-25.3 753.01,-20.68 757.58,-30.24 762.54,-25.3"/>
</a>
</g>
</g>
<!-- Node20 -->
<g id="Node000020" class="node">
<title>Node20</title>
<g id="a_Node000020"><a xlink:title=" ">
<polygon fill="#e0e0e0" stroke="#999999" points="894.62,-19.25 855.38,-19.25 855.38,0 894.62,0 894.62,-19.25"/>
<text text-anchor="middle" x="875" y="-5.75" font-family="Helvetica,sans-Serif" font-size="10.00">limits</text>
</a>
</g>
</g>
<!-- Node19&#45;&gt;Node20 -->
<g id="edge26_Node000019_Node000020" class="edge">
<title>Node19&#45;&gt;Node20</title>
<g id="a_edge26_Node000019_Node000020"><a xlink:title=" ">
<path fill="none" stroke="#63b8ff" d="M809.4,-54.84C821.09,-46.96 838.3,-35.36 852.16,-26.02"/>
<polygon fill="#63b8ff" stroke="#63b8ff" points="853.94,-29.04 860.28,-20.55 850.03,-23.24 853.94,-29.04"/>
</a>
</g>
</g>
<!-- Node21 -->
<g id="Node000021" class="node">
<title>Node21</title>
<g id="a_Node000021"><a xlink:title=" ">
<polygon fill="#e0e0e0" stroke="#999999" points="837.12,-19.25 788.88,-19.25 788.88,0 837.12,0 837.12,-19.25"/>
<text text-anchor="middle" x="813" y="-5.75" font-family="Helvetica,sans-Serif" font-size="10.00">cstddef</text>
</a>
</g>
</g>
<!-- Node19&#45;&gt;Node21 -->
<g id="edge28_Node000019_Node000021" class="edge">
<title>Node19&#45;&gt;Node21</title>
<g id="a_edge28_Node000019_Node000021"><a xlink:title=" ">
<path fill="none" stroke="#63b8ff" d="M798.81,-55.08C800.94,-48.42 803.94,-38.99 806.64,-30.53"/>
<polygon fill="#63b8ff" stroke="#63b8ff" points="809.96,-31.64 809.67,-21.05 803.3,-29.51 809.96,-31.64"/>
</a>
</g>
</g>
<!-- Node22&#45;&gt;Node7 -->
<g id="edge32_Node000022_Node000007" class="edge">
<title>Node22&#45;&gt;Node7</title>
<g id="a_edge32_Node000022_Node000007"><a xlink:title=" ">
<path fill="none" stroke="#63b8ff" d="M1342.96,-110.03C1397.42,-100.86 1481.55,-86.68 1539.72,-76.88"/>
<polygon fill="#63b8ff" stroke="#63b8ff" points="1540.22,-80.34 1549.5,-75.23 1539.06,-73.44 1540.22,-80.34"/>
</a>
</g>
</g>
<!-- Node22&#45;&gt;Node12 -->
<g id="edge31_Node000022_Node000012" class="edge">
<title>Node22&#45;&gt;Node12</title>
<g id="a_edge31_Node000022_Node000012"><a xlink:title=" ">
<path fill="none" stroke="#63b8ff" d="M1282.06,-110.33C1276.38,-103.13 1268.16,-92.71 1261.11,-83.76"/>
<polygon fill="#63b8ff" stroke="#63b8ff" points="1263.96,-81.73 1255.02,-76.05 1258.47,-86.07 1263.96,-81.73"/>
</a>
</g>
</g>
<!-- Node23&#45;&gt;Node3 -->
<g id="edge39_Node000023_Node000003" class="edge">
<title>Node23&#45;&gt;Node3</title>
<g id="a_edge39_Node000023_Node000003"><a xlink:title=" ">
<path fill="none" stroke="#63b8ff" d="M479.45,-174.6C556.03,-173.56 702.12,-166.36 820,-129.75 839.17,-123.8 885.85,-97.55 915.01,-80.61"/>
<polygon fill="#63b8ff" stroke="#63b8ff" points="916.71,-83.67 923.58,-75.61 913.18,-77.63 916.71,-83.67"/>
</a>
</g>
</g>
<!-- Node23&#45;&gt;Node4 -->
<g id="edge36_Node000023_Node000004" class="edge">
<title>Node23&#45;&gt;Node4</title>
<g id="a_edge36_Node000023_Node000004"><a xlink:title=" ">
<path fill="none" stroke="#63b8ff" d="M374.31,-173.92C300.6,-171.54 180.44,-160.2 225,-110.5 250.04,-82.57 509.87,-70.4 601.35,-66.95"/>
<polygon fill="#63b8ff" stroke="#63b8ff" points="601.24,-70.46 611.1,-66.6 600.98,-63.47 601.24,-70.46"/>
</a>
</g>
</g>
<!-- Node23&#45;&gt;Node6 -->
<g id="edge40_Node000023_Node000006" class="edge">
<title>Node23&#45;&gt;Node6</title>
<g id="a_edge40_Node000023_Node000006"><a xlink:title=" ">
<path fill="none" stroke="#63b8ff" d="M377.48,-165.28C325.33,-155.71 243.53,-140.69 190.08,-130.87"/>
<polygon fill="#63b8ff" stroke="#63b8ff" points="190.75,-127.44 180.28,-129.07 189.48,-134.32 190.75,-127.44"/>
</a>
</g>
</g>
<!-- Node24 -->
<g id="Node000024" class="node">
<title>Node24</title>
<g id="a_Node000024"><a xlink:title=" ">
<polygon fill="#e0e0e0" stroke="#999999" points="620.75,-129.75 567.25,-129.75 567.25,-110.5 620.75,-110.5 620.75,-129.75"/>
<text text-anchor="middle" x="594" y="-116.25" font-family="Helvetica,sans-Serif" font-size="10.00">iostream</text>
</a>
</g>
</g>
<!-- Node23&#45;&gt;Node24 -->
<g id="edge34_Node000023_Node000024" class="edge">
<title>Node23&#45;&gt;Node24</title>
<g id="a_edge34_Node000023_Node000024"><a xlink:title=" ">
<path fill="none" stroke="#63b8ff" d="M455.33,-165.34C483.09,-156.49 525.59,-142.94 556.22,-133.17"/>
<polygon fill="#63b8ff" stroke="#63b8ff" points="557.01,-136.59 565.48,-130.22 554.88,-129.92 557.01,-136.59"/>
</a>
</g>
</g>
<!-- Node25 -->
<g id="Node000025" class="node">
<title>Node25</title>
<g id="a_Node000025"><a xlink:title=" ">
<polygon fill="#e0e0e0" stroke="#999999" points="303.62,-129.75 234.38,-129.75 234.38,-110.5 303.62,-110.5 303.62,-129.75"/>
<text text-anchor="middle" x="269" y="-116.25" font-family="Helvetica,sans-Serif" font-size="10.00">fmt/format.h</text>
</a>
</g>
</g>
<!-- Node23&#45;&gt;Node25 -->
<g id="edge35_Node000023_Node000025" class="edge">
<title>Node23&#45;&gt;Node25</title>
<g id="a_edge35_Node000023_Node000025"><a xlink:title=" ">
<path fill="none" stroke="#63b8ff" d="M400.2,-165.34C374.55,-156.7 335.61,-143.57 306.81,-133.87"/>
<polygon fill="#63b8ff" stroke="#63b8ff" points="307.96,-130.56 297.37,-130.69 305.73,-137.2 307.96,-130.56"/>
</a>
</g>
</g>
<!-- Node26 -->
<g id="Node000026" class="node">
<title>Node26</title>
<g id="a_Node000026"><a xlink:title=" ">
<polygon fill="#e0e0e0" stroke="#999999" points="366.62,-129.75 321.38,-129.75 321.38,-110.5 366.62,-110.5 366.62,-129.75"/>
<text text-anchor="middle" x="344" y="-116.25" font-family="Helvetica,sans-Serif" font-size="10.00">chrono</text>
</a>
</g>
</g>
<!-- Node23&#45;&gt;Node26 -->
<g id="edge37_Node000023_Node000026" class="edge">
<title>Node23&#45;&gt;Node26</title>
<g id="a_edge37_Node000023_Node000026"><a xlink:title=" ">
<path fill="none" stroke="#63b8ff" d="M412.92,-165.34C400.52,-157.39 382.21,-145.64 367.57,-136.25"/>
<polygon fill="#63b8ff" stroke="#63b8ff" points="369.73,-133.47 359.42,-131.02 365.95,-139.37 369.73,-133.47"/>
</a>
</g>
</g>
<!-- Node27 -->
<g id="Node000027" class="node">
<title>Node27</title>
<g id="a_Node000027"><a xlink:title=" ">
<polygon fill="#e0e0e0" stroke="#999999" points="469.12,-129.75 384.88,-129.75 384.88,-110.5 469.12,-110.5 469.12,-129.75"/>
<text text-anchor="middle" x="427" y="-116.25" font-family="Helvetica,sans-Serif" font-size="10.00">source_location</text>
</a>
</g>
</g>
<!-- Node23&#45;&gt;Node27 -->
<g id="edge38_Node000023_Node000027" class="edge">
<title>Node23&#45;&gt;Node27</title>
<g id="a_edge38_Node000023_Node000027"><a xlink:title=" ">
<path fill="none" stroke="#63b8ff" d="M427,-165.58C427,-159.07 427,-149.92 427,-141.62"/>
<polygon fill="#63b8ff" stroke="#63b8ff" points="430.5,-141.62 427,-131.62 423.5,-141.62 430.5,-141.62"/>
</a>
</g>
</g>
<!-- Node28 -->
<g id="Node000028" class="node">
<title>Node28</title>
<g id="a_Node000028"><a xlink:title=" ">
<polygon fill="#e0e0e0" stroke="#999999" points="548.88,-129.75 487.12,-129.75 487.12,-110.5 548.88,-110.5 548.88,-129.75"/>
<text text-anchor="middle" x="518" y="-116.25" font-family="Helvetica,sans-Serif" font-size="10.00">fmt/color.h</text>
</a>
</g>
</g>
<!-- Node23&#45;&gt;Node28 -->
<g id="edge41_Node000023_Node000028" class="edge">
<title>Node23&#45;&gt;Node28</title>
<g id="a_edge41_Node000023_Node000028"><a xlink:title=" ">
<path fill="none" stroke="#63b8ff" d="M442.44,-165.34C456.16,-157.31 476.5,-145.41 492.62,-135.98"/>
<polygon fill="#63b8ff" stroke="#63b8ff" points="494.32,-139.04 501.18,-130.97 490.78,-133 494.32,-139.04"/>
</a>
</g>
</g>
<!-- Node29&#45;&gt;Node3 -->
<g id="edge44_Node000029_Node000003" class="edge">
<title>Node29&#45;&gt;Node3</title>
<g id="a_edge44_Node000029_Node000003"><a xlink:title=" ">
<path fill="none" stroke="#63b8ff" d="M1431.15,-111.27C1428.4,-111.01 1425.68,-110.75 1423,-110.5 1225.53,-92.14 1170.69,-109.92 972.9,-74.7"/>
<polygon fill="#63b8ff" stroke="#63b8ff" points="973.79,-71.3 963.32,-72.97 972.54,-78.19 973.79,-71.3"/>
</a>
</g>
</g>
<!-- Node29&#45;&gt;Node4 -->
<g id="edge45_Node000029_Node000004" class="edge">
<title>Node29&#45;&gt;Node4</title>
<g id="a_edge45_Node000029_Node000004"><a xlink:title=" ">
<path fill="none" stroke="#63b8ff" d="M1431.16,-111.18C1428.41,-110.94 1425.68,-110.71 1423,-110.5 1119.09,-86.35 1042.18,-94.98 738,-74.5 713.29,-72.84 685.34,-70.52 664.49,-68.71"/>
<polygon fill="#63b8ff" stroke="#63b8ff" points="664.89,-65.23 654.62,-67.84 664.28,-72.2 664.89,-65.23"/>
</a>
</g>
</g>
<!-- Node29&#45;&gt;Node7 -->
<g id="edge47_Node000029_Node000007" class="edge">
<title>Node29&#45;&gt;Node7</title>
<g id="a_edge47_Node000029_Node000007"><a xlink:title=" ">
<path fill="none" stroke="#63b8ff" d="M1521.13,-110.09C1536.66,-101.91 1559.8,-89.71 1577.84,-80.19"/>
<polygon fill="#63b8ff" stroke="#63b8ff" points="1579.23,-83.42 1586.44,-75.66 1575.97,-77.23 1579.23,-83.42"/>
</a>
</g>
</g>
<!-- Node30 -->
<g id="Node000030" class="node">
<title>Node30</title>
<g id="a_Node000030"><a xlink:title=" ">
<polygon fill="#e0e0e0" stroke="#999999" points="1529.25,-74.5 1478.75,-74.5 1478.75,-55.25 1529.25,-55.25 1529.25,-74.5"/>
<text text-anchor="middle" x="1504" y="-61" font-family="Helvetica,sans-Serif" font-size="10.00">numeric</text>
</a>
</g>
</g>
<!-- Node29&#45;&gt;Node30 -->
<g id="edge46_Node000029_Node000030" class="edge">
<title>Node29&#45;&gt;Node30</title>
<g id="a_edge46_Node000029_Node000030"><a xlink:title=" ">
<path fill="none" stroke="#63b8ff" d="M1504,-110.33C1504,-103.82 1504,-94.67 1504,-86.37"/>
<polygon fill="#63b8ff" stroke="#63b8ff" points="1507.5,-86.37 1504,-76.37 1500.5,-86.37 1507.5,-86.37"/>
</a>
</g>
</g>
<!-- Node31&#45;&gt;Node9 -->
<g id="edge49_Node000031_Node000009" class="edge">
<title>Node31&#45;&gt;Node9</title>
<g id="a_edge49_Node000031_Node000009"><a xlink:title=" ">
<path fill="none" stroke="#63b8ff" d="M1131.8,-220.7C1129.68,-213.37 1127.08,-204.37 1124.78,-196.41"/>
<polygon fill="#63b8ff" stroke="#63b8ff" points="1128.18,-195.54 1122.04,-186.91 1121.45,-197.48 1128.18,-195.54"/>
</a>
</g>
</g>
<!-- Node31&#45;&gt;Node29 -->
<g id="edge50_Node000031_Node000029" class="edge">
<title>Node31&#45;&gt;Node29</title>
<g id="a_edge50_Node000031_Node000029"><a xlink:title=" ">
<path fill="none" stroke="#63b8ff" d="M1183.36,-220.56C1256.54,-197.87 1395.8,-154.68 1464.15,-133.48"/>
<polygon fill="#63b8ff" stroke="#63b8ff" points="1464.92,-136.91 1473.44,-130.6 1462.85,-130.22 1464.92,-136.91"/>
</a>
</g>
</g>
</g>
</svg>
