<?xml version="1.0" encoding="UTF-8" standalone="no"?>
<!DOCTYPE svg PUBLIC "-//W3C//DTD SVG 1.1//EN"
 "http://www.w3.org/Graphics/SVG/1.1/DTD/svg11.dtd">
<!-- Generated by graphviz version 12.2.0 (20241103.1931)
 -->
<!-- Title: /Users/fola/Documents/ArkScript/Ark/include/Ark/Compiler/Package/ImportSolver.hpp Pages: 1 -->
<svg width="1499pt" height="337pt"
 viewBox="0.00 0.00 1499.25 337.25" xmlns="http://www.w3.org/2000/svg" xmlns:xlink="http://www.w3.org/1999/xlink">
<g id="graph0" class="graph" transform="scale(1 1) rotate(0) translate(4 333.25)">
<title>/Users/fola/Documents/ArkScript/Ark/include/Ark/Compiler/Package/ImportSolver.hpp</title>
<!-- Node1 -->
<g id="Node000001" class="node">
<title>Node1</title>
<g id="a_Node000001"><a xlink:title="Handle imports, resolve them with modules and everything.">
<polygon fill="#999999" stroke="#666666" points="916.25,-329.25 722.5,-329.25 722.5,-287.5 916.25,-287.5 916.25,-329.25"/>
<text text-anchor="start" x="730.5" y="-315.75" font-family="Helvetica,sans-Serif" font-size="10.00">/Users/fola/Documents</text>
<text text-anchor="start" x="730.5" y="-304.5" font-family="Helvetica,sans-Serif" font-size="10.00">/ArkScript/Ark/include</text>
<text text-anchor="middle" x="819.38" y="-293.25" font-family="Helvetica,sans-Serif" font-size="10.00">/Ark/Compiler/Package/ImportSolver.hpp</text>
</a>
</g>
</g>
<!-- Node2 -->
<g id="Node000002" class="node">
<title>Node2</title>
<g id="a_Node000002"><a xlink:title=" ">
<polygon fill="#e0e0e0" stroke="#999999" points="284.38,-245.88 244.38,-245.88 244.38,-226.62 284.38,-226.62 284.38,-245.88"/>
<text text-anchor="middle" x="264.38" y="-232.38" font-family="Helvetica,sans-Serif" font-size="10.00">stack</text>
</a>
</g>
</g>
<!-- Node1&#45;&gt;Node2 -->
<g id="edge1_Node000001_Node000002" class="edge">
<title>Node1&#45;&gt;Node2</title>
<g id="a_edge1_Node000001_Node000002"><a xlink:title=" ">
<path fill="none" stroke="#63b8ff" d="M722.34,-305.34C616.57,-301.19 443.08,-288.74 298.38,-251.5 296.79,-251.09 295.18,-250.62 293.56,-250.11"/>
<polygon fill="#63b8ff" stroke="#63b8ff" points="295.11,-246.95 284.52,-246.76 292.68,-253.51 295.11,-246.95"/>
</a>
</g>
</g>
<!-- Node3 -->
<g id="Node000003" class="node">
<title>Node3</title>
<g id="a_Node000003"><a xlink:title=" ">
<polygon fill="#e0e0e0" stroke="#999999" points="1096.88,-74.5 1053.88,-74.5 1053.88,-55.25 1096.88,-55.25 1096.88,-74.5"/>
<text text-anchor="middle" x="1075.38" y="-61" font-family="Helvetica,sans-Serif" font-size="10.00">vector</text>
</a>
</g>
</g>
<!-- Node1&#45;&gt;Node3 -->
<g id="edge2_Node000001_Node000003" class="edge">
<title>Node1&#45;&gt;Node3</title>
<g id="a_edge2_Node000001_Node000003"><a xlink:title=" ">
<path fill="none" stroke="#63b8ff" d="M916.54,-290.25C942.48,-281.96 968.95,-269.68 989.38,-251.5 1040.62,-205.89 1063.5,-123.43 1071.64,-85.69"/>
<polygon fill="#63b8ff" stroke="#63b8ff" points="1075,-86.71 1073.55,-76.21 1068.14,-85.32 1075,-86.71"/>
</a>
</g>
</g>
<!-- Node4 -->
<g id="Node000004" class="node">
<title>Node4</title>
<g id="a_Node000004"><a xlink:title=" ">
<polygon fill="#e0e0e0" stroke="#999999" points="1324.38,-74.5 1284.38,-74.5 1284.38,-55.25 1324.38,-55.25 1324.38,-74.5"/>
<text text-anchor="middle" x="1304.38" y="-61" font-family="Helvetica,sans-Serif" font-size="10.00">string</text>
</a>
</g>
</g>
<!-- Node1&#45;&gt;Node4 -->
<g id="edge3_Node000001_Node000004" class="edge">
<title>Node1&#45;&gt;Node4</title>
<g id="a_edge3_Node000001_Node000004"><a xlink:title=" ">
<path fill="none" stroke="#63b8ff" d="M916.59,-296.63C1085.57,-275.66 1421.74,-222.96 1487.38,-129.75 1492.3,-122.75 1492.66,-117.23 1487.38,-110.5 1477.98,-98.54 1385.55,-80.39 1335.77,-71.37"/>
<polygon fill="#63b8ff" stroke="#63b8ff" points="1336.63,-67.96 1326.17,-69.65 1335.4,-74.86 1336.63,-67.96"/>
</a>
</g>
</g>
<!-- Node5 -->
<g id="Node000005" class="node">
<title>Node5</title>
<g id="a_Node000005"><a xlink:title=" ">
<polygon fill="#e0e0e0" stroke="#999999" points="771.88,-245.88 710.88,-245.88 710.88,-226.62 771.88,-226.62 771.88,-245.88"/>
<text text-anchor="middle" x="741.38" y="-232.38" font-family="Helvetica,sans-Serif" font-size="10.00">filesystem</text>
</a>
</g>
</g>
<!-- Node1&#45;&gt;Node5 -->
<g id="edge4_Node000001_Node000005" class="edge">
<title>Node1&#45;&gt;Node5</title>
<g id="a_edge4_Node000001_Node000005"><a xlink:title=" ">
<path fill="none" stroke="#63b8ff" d="M796.81,-287.09C785,-276.47 770.73,-263.64 759.63,-253.66"/>
<polygon fill="#63b8ff" stroke="#63b8ff" points="762.07,-251.15 752.29,-247.06 757.39,-256.35 762.07,-251.15"/>
</a>
</g>
</g>
<!-- Node6 -->
<g id="Node000006" class="node">
<title>Node6</title>
<g id="a_Node000006"><a xlink:title=" ">
<polygon fill="#e0e0e0" stroke="#999999" points="82.75,-74.5 0,-74.5 0,-55.25 82.75,-55.25 82.75,-74.5"/>
<text text-anchor="middle" x="41.38" y="-61" font-family="Helvetica,sans-Serif" font-size="10.00">unordered_map</text>
</a>
</g>
</g>
<!-- Node1&#45;&gt;Node6 -->
<g id="edge5_Node000001_Node000006" class="edge">
<title>Node1&#45;&gt;Node6</title>
<g id="a_edge5_Node000001_Node000006"><a xlink:title=" ">
<path fill="none" stroke="#63b8ff" d="M722.03,-293.45C664.03,-284.05 589.3,-269.96 524.38,-251.5 348.13,-201.38 146.12,-113.29 71.28,-79.55"/>
<polygon fill="#63b8ff" stroke="#63b8ff" points="73.11,-76.54 62.56,-75.6 70.22,-82.92 73.11,-76.54"/>
</a>
</g>
</g>
<!-- Node7 -->
<g id="Node000007" class="node">
<title>Node7</title>
<g id="a_Node000007"><a xlink:href="../../d5/d40/Platform_8hpp.html" target="_top" xlink:title="ArkScript configuration macros.">
<polygon fill="white" stroke="#666666" points="712.75,-74.5 600,-74.5 600,-55.25 712.75,-55.25 712.75,-74.5"/>
<text text-anchor="middle" x="656.38" y="-61" font-family="Helvetica,sans-Serif" font-size="10.00">Ark/Utils/Platform.hpp</text>
</a>
</g>
</g>
<!-- Node1&#45;&gt;Node7 -->
<g id="edge6_Node000001_Node000007" class="edge">
<title>Node1&#45;&gt;Node7</title>
<g id="a_edge6_Node000001_Node000007"><a xlink:title=" ">
<path fill="none" stroke="#63b8ff" d="M722.15,-299.65C646.18,-287.91 545.24,-258.5 494.38,-185 477.81,-161.06 508.22,-121.99 521.38,-110.5 540.24,-94.03 565.35,-83.61 588.79,-77.02"/>
<polygon fill="#63b8ff" stroke="#63b8ff" points="589.51,-80.45 598.31,-74.56 587.75,-73.68 589.51,-80.45"/>
</a>
</g>
</g>
<!-- Node8 -->
<g id="Node000008" class="node">
<title>Node8</title>
<g id="a_Node000008"><a xlink:href="../../df/d5f/Pass_8hpp.html" target="_top" xlink:title="Interface for a compiler pass.">
<polygon fill="white" stroke="#666666" points="621,-185 503.75,-185 503.75,-165.75 621,-165.75 621,-185"/>
<text text-anchor="middle" x="562.38" y="-171.5" font-family="Helvetica,sans-Serif" font-size="10.00">Ark/Compiler/Pass.hpp</text>
</a>
</g>
</g>
<!-- Node1&#45;&gt;Node8 -->
<g id="edge7_Node000001_Node000008" class="edge">
<title>Node1&#45;&gt;Node8</title>
<g id="a_edge7_Node000001_Node000008"><a xlink:title=" ">
<path fill="none" stroke="#63b8ff" d="M816.04,-287.36C811.64,-267.45 801.91,-237.56 781.38,-221 758.77,-202.77 687.72,-190.6 632.62,-183.64"/>
<polygon fill="#63b8ff" stroke="#63b8ff" points="633.33,-180.2 622.98,-182.46 632.48,-187.15 633.33,-180.2"/>
</a>
</g>
</g>
<!-- Node17 -->
<g id="Node000017" class="node">
<title>Node17</title>
<g id="a_Node000017"><a xlink:href="../../d7/dc6/Node_8hpp.html" target="_top" xlink:title="AST node used by the parser, optimizer and compiler.">
<polygon fill="white" stroke="#666666" points="951.62,-185 811.12,-185 811.12,-165.75 951.62,-165.75 951.62,-185"/>
<text text-anchor="middle" x="881.38" y="-171.5" font-family="Helvetica,sans-Serif" font-size="10.00">Ark/Compiler/AST/Node.hpp</text>
</a>
</g>
</g>
<!-- Node1&#45;&gt;Node17 -->
<g id="edge21_Node000001_Node000017" class="edge">
<title>Node1&#45;&gt;Node17</title>
<g id="a_edge21_Node000001_Node000017"><a xlink:title=" ">
<path fill="none" stroke="#63b8ff" d="M827.69,-287.27C835.11,-269.63 846.46,-243.38 857.38,-221 861.52,-212.51 866.41,-203.29 870.69,-195.45"/>
<polygon fill="#63b8ff" stroke="#63b8ff" points="873.68,-197.26 875.46,-186.82 867.56,-193.88 873.68,-197.26"/>
</a>
</g>
</g>
<!-- Node30 -->
<g id="Node000030" class="node">
<title>Node30</title>
<g id="a_Node000030"><a xlink:href="../../d4/d32/Import_8hpp.html" target="_top" xlink:title=" ">
<polygon fill="white" stroke="#666666" points="1477.88,-129.75 1332.88,-129.75 1332.88,-110.5 1477.88,-110.5 1477.88,-129.75"/>
<text text-anchor="middle" x="1405.38" y="-116.25" font-family="Helvetica,sans-Serif" font-size="10.00">Ark/Compiler/AST/Import.hpp</text>
</a>
</g>
</g>
<!-- Node1&#45;&gt;Node30 -->
<g id="edge45_Node000001_Node000030" class="edge">
<title>Node1&#45;&gt;Node30</title>
<g id="a_edge45_Node000001_Node000030"><a xlink:title=" ">
<path fill="none" stroke="#63b8ff" d="M916.54,-292.19C969.19,-282.79 1035.03,-269.13 1092.38,-251.5 1200.55,-218.24 1322.78,-161.41 1376.94,-135.16"/>
<polygon fill="#63b8ff" stroke="#63b8ff" points="1378.32,-138.38 1385.78,-130.86 1375.26,-132.09 1378.32,-138.38"/>
</a>
</g>
</g>
<!-- Node32 -->
<g id="Node000032" class="node">
<title>Node32</title>
<g id="a_Node000032"><a xlink:href="../../d8/d80/Package_8hpp.html" target="_top" xlink:title=" ">
<polygon fill="white" stroke="#666666" points="980.5,-251.5 866.25,-251.5 866.25,-221 980.5,-221 980.5,-251.5"/>
<text text-anchor="start" x="874.25" y="-238" font-family="Helvetica,sans-Serif" font-size="10.00">Ark/Compiler/Package</text>
<text text-anchor="middle" x="923.38" y="-226.75" font-family="Helvetica,sans-Serif" font-size="10.00">/Package.hpp</text>
</a>
</g>
</g>
<!-- Node1&#45;&gt;Node32 -->
<g id="edge50_Node000001_Node000032" class="edge">
<title>Node1&#45;&gt;Node32</title>
<g id="a_edge50_Node000001_Node000032"><a xlink:title=" ">
<path fill="none" stroke="#63b8ff" d="M849.46,-287.09C862.88,-278.04 878.68,-267.39 892.22,-258.25"/>
<polygon fill="#63b8ff" stroke="#63b8ff" points="894.03,-261.26 900.36,-252.77 890.12,-255.45 894.03,-261.26"/>
</a>
</g>
</g>
<!-- Node8&#45;&gt;Node7 -->
<g id="edge8_Node000008_Node000007" class="edge">
<title>Node8&#45;&gt;Node7</title>
<g id="a_edge8_Node000008_Node000007"><a xlink:title=" ">
<path fill="none" stroke="#63b8ff" d="M551.94,-165.68C537.98,-152.96 516.39,-128.83 529.38,-110.5 538.46,-97.68 573.05,-86.01 603.84,-77.83"/>
<polygon fill="#63b8ff" stroke="#63b8ff" points="604.67,-81.23 613.49,-75.35 602.93,-74.45 604.67,-81.23"/>
</a>
</g>
</g>
<!-- Node9 -->
<g id="Node000009" class="node">
<title>Node9</title>
<g id="a_Node000009"><a xlink:href="../../d9/d11/Logger_8hpp.html" target="_top" xlink:title="Internal logger.">
<polygon fill="white" stroke="#666666" points="444.62,-129.75 340.12,-129.75 340.12,-110.5 444.62,-110.5 444.62,-129.75"/>
<text text-anchor="middle" x="392.38" y="-116.25" font-family="Helvetica,sans-Serif" font-size="10.00">Ark/Utils/Logger.hpp</text>
</a>
</g>
</g>
<!-- Node8&#45;&gt;Node9 -->
<g id="edge9_Node000008_Node000009" class="edge">
<title>Node8&#45;&gt;Node9</title>
<g id="a_edge9_Node000008_Node000009"><a xlink:title=" ">
<path fill="none" stroke="#63b8ff" d="M533.54,-165.34C505.7,-156.62 463.3,-143.34 432.24,-133.61"/>
<polygon fill="#63b8ff" stroke="#63b8ff" points="433.39,-130.3 422.8,-130.65 431.3,-136.98 433.39,-130.3"/>
</a>
</g>
</g>
<!-- Node16 -->
<g id="Node000016" class="node">
<title>Node16</title>
<g id="a_Node000016"><a xlink:title=" ">
<polygon fill="#e0e0e0" stroke="#999999" points="590,-129.75 538.75,-129.75 538.75,-110.5 590,-110.5 590,-129.75"/>
<text text-anchor="middle" x="564.38" y="-116.25" font-family="Helvetica,sans-Serif" font-size="10.00">ostream</text>
</a>
</g>
</g>
<!-- Node8&#45;&gt;Node16 -->
<g id="edge20_Node000008_Node000016" class="edge">
<title>Node8&#45;&gt;Node16</title>
<g id="a_edge20_Node000008_Node000016"><a xlink:title=" ">
<path fill="none" stroke="#63b8ff" d="M562.71,-165.58C562.95,-158.99 563.3,-149.71 563.62,-141.32"/>
<polygon fill="#63b8ff" stroke="#63b8ff" points="567.1,-141.75 563.98,-131.62 560.11,-141.48 567.1,-141.75"/>
</a>
</g>
</g>
<!-- Node9&#45;&gt;Node3 -->
<g id="edge17_Node000009_Node000003" class="edge">
<title>Node9&#45;&gt;Node3</title>
<g id="a_edge17_Node000009_Node000003"><a xlink:title=" ">
<path fill="none" stroke="#63b8ff" d="M444.98,-115.53C571.9,-106.8 892.33,-84.51 999.38,-74.5 1013.49,-73.18 1029.04,-71.46 1042.39,-69.91"/>
<polygon fill="#63b8ff" stroke="#63b8ff" points="1042.43,-73.43 1051.95,-68.77 1041.6,-66.48 1042.43,-73.43"/>
</a>
</g>
</g>
<!-- Node9&#45;&gt;Node4 -->
<g id="edge14_Node000009_Node000004" class="edge">
<title>Node9&#45;&gt;Node4</title>
<g id="a_edge14_Node000009_Node000004"><a xlink:title=" ">
<path fill="none" stroke="#63b8ff" d="M445.06,-115.67C470.53,-114.03 501.54,-112.1 529.38,-110.5 839.06,-92.75 917.2,-99.56 1226.38,-74.5 1241.65,-73.26 1258.57,-71.45 1272.73,-69.8"/>
<polygon fill="#63b8ff" stroke="#63b8ff" points="1272.86,-73.31 1282.38,-68.65 1272.03,-66.36 1272.86,-73.31"/>
</a>
</g>
</g>
<!-- Node9&#45;&gt;Node6 -->
<g id="edge18_Node000009_Node000006" class="edge">
<title>Node9&#45;&gt;Node6</title>
<g id="a_edge18_Node000009_Node000006"><a xlink:title=" ">
<path fill="none" stroke="#63b8ff" d="M339.76,-111.62C282.16,-103.33 186.78,-89.4 94.36,-74.79"/>
<polygon fill="#63b8ff" stroke="#63b8ff" points="95.03,-71.35 84.61,-73.24 93.94,-78.26 95.03,-71.35"/>
</a>
</g>
</g>
<!-- Node9&#45;&gt;Node7 -->
<g id="edge19_Node000009_Node000007" class="edge">
<title>Node9&#45;&gt;Node7</title>
<g id="a_edge19_Node000009_Node000007"><a xlink:title=" ">
<path fill="none" stroke="#63b8ff" d="M437.46,-110.03C482.45,-100.96 551.69,-86.99 600.23,-77.2"/>
<polygon fill="#63b8ff" stroke="#63b8ff" points="600.88,-80.64 609.99,-75.23 599.5,-73.78 600.88,-80.64"/>
</a>
</g>
</g>
<!-- Node10 -->
<g id="Node000010" class="node">
<title>Node10</title>
<g id="a_Node000010"><a xlink:title=" ">
<polygon fill="#e0e0e0" stroke="#999999" points="415.12,-74.5 361.62,-74.5 361.62,-55.25 415.12,-55.25 415.12,-74.5"/>
<text text-anchor="middle" x="388.38" y="-61" font-family="Helvetica,sans-Serif" font-size="10.00">iostream</text>
</a>
</g>
</g>
<!-- Node9&#45;&gt;Node10 -->
<g id="edge10_Node000009_Node000010" class="edge">
<title>Node9&#45;&gt;Node10</title>
<g id="a_edge10_Node000009_Node000010"><a xlink:title=" ">
<path fill="none" stroke="#63b8ff" d="M391.71,-110.33C391.22,-103.74 390.52,-94.46 389.89,-86.07"/>
<polygon fill="#63b8ff" stroke="#63b8ff" points="393.4,-86.08 389.16,-76.37 386.42,-86.6 393.4,-86.08"/>
</a>
</g>
</g>
<!-- Node11 -->
<g id="Node000011" class="node">
<title>Node11</title>
<g id="a_Node000011"><a xlink:title=" ">
<polygon fill="#e0e0e0" stroke="#999999" points="502,-74.5 432.75,-74.5 432.75,-55.25 502,-55.25 502,-74.5"/>
<text text-anchor="middle" x="467.38" y="-61" font-family="Helvetica,sans-Serif" font-size="10.00">fmt/format.h</text>
</a>
</g>
</g>
<!-- Node9&#45;&gt;Node11 -->
<g id="edge11_Node000009_Node000011" class="edge">
<title>Node9&#45;&gt;Node11</title>
<g id="a_edge11_Node000009_Node000011"><a xlink:title=" ">
<path fill="none" stroke="#63b8ff" d="M405.1,-110.09C416.09,-102.29 432.22,-90.84 445.31,-81.54"/>
<polygon fill="#63b8ff" stroke="#63b8ff" points="447.23,-84.47 453.36,-75.83 443.18,-78.76 447.23,-84.47"/>
</a>
</g>
</g>
<!-- Node12 -->
<g id="Node000012" class="node">
<title>Node12</title>
<g id="a_Node000012"><a xlink:title=" ">
<polygon fill="#e0e0e0" stroke="#999999" points="582.25,-74.5 520.5,-74.5 520.5,-55.25 582.25,-55.25 582.25,-74.5"/>
<text text-anchor="middle" x="551.38" y="-61" font-family="Helvetica,sans-Serif" font-size="10.00">fmt/color.h</text>
</a>
</g>
</g>
<!-- Node9&#45;&gt;Node12 -->
<g id="edge12_Node000009_Node000012" class="edge">
<title>Node9&#45;&gt;Node12</title>
<g id="a_edge12_Node000009_Node000012"><a xlink:title=" ">
<path fill="none" stroke="#63b8ff" d="M419.35,-110.09C445.27,-101.41 484.69,-88.21 513.71,-78.49"/>
<polygon fill="#63b8ff" stroke="#63b8ff" points="514.46,-81.93 522.84,-75.43 512.24,-75.29 514.46,-81.93"/>
</a>
</g>
</g>
<!-- Node13 -->
<g id="Node000013" class="node">
<title>Node13</title>
<g id="a_Node000013"><a xlink:title=" ">
<polygon fill="#e0e0e0" stroke="#999999" points="177.75,-74.5 101,-74.5 101,-55.25 177.75,-55.25 177.75,-74.5"/>
<text text-anchor="middle" x="139.38" y="-61" font-family="Helvetica,sans-Serif" font-size="10.00">fmt/ostream.h</text>
</a>
</g>
</g>
<!-- Node9&#45;&gt;Node13 -->
<g id="edge13_Node000009_Node000013" class="edge">
<title>Node9&#45;&gt;Node13</title>
<g id="a_edge13_Node000009_Node000013"><a xlink:title=" ">
<path fill="none" stroke="#63b8ff" d="M349.17,-110.03C304.71,-100.67 235.54,-86.11 188.9,-76.3"/>
<polygon fill="#63b8ff" stroke="#63b8ff" points="189.83,-72.92 179.32,-74.28 188.39,-79.77 189.83,-72.92"/>
</a>
</g>
</g>
<!-- Node14 -->
<g id="Node000014" class="node">
<title>Node14</title>
<g id="a_Node000014"><a xlink:title=" ">
<polygon fill="#e0e0e0" stroke="#999999" points="241,-74.5 195.75,-74.5 195.75,-55.25 241,-55.25 241,-74.5"/>
<text text-anchor="middle" x="218.38" y="-61" font-family="Helvetica,sans-Serif" font-size="10.00">chrono</text>
</a>
</g>
</g>
<!-- Node9&#45;&gt;Node14 -->
<g id="edge15_Node000009_Node000014" class="edge">
<title>Node9&#45;&gt;Node14</title>
<g id="a_edge15_Node000009_Node000014"><a xlink:title=" ">
<path fill="none" stroke="#63b8ff" d="M362.86,-110.09C332.15,-100.7 284.16,-86.01 252.01,-76.17"/>
<polygon fill="#63b8ff" stroke="#63b8ff" points="253.39,-72.93 242.8,-73.35 251.34,-79.62 253.39,-72.93"/>
</a>
</g>
</g>
<!-- Node15 -->
<g id="Node000015" class="node">
<title>Node15</title>
<g id="a_Node000015"><a xlink:title=" ">
<polygon fill="#e0e0e0" stroke="#999999" points="343.5,-74.5 259.25,-74.5 259.25,-55.25 343.5,-55.25 343.5,-74.5"/>
<text text-anchor="middle" x="301.38" y="-61" font-family="Helvetica,sans-Serif" font-size="10.00">source_location</text>
</a>
</g>
</g>
<!-- Node9&#45;&gt;Node15 -->
<g id="edge16_Node000009_Node000015" class="edge">
<title>Node9&#45;&gt;Node15</title>
<g id="a_edge16_Node000009_Node000015"><a xlink:title=" ">
<path fill="none" stroke="#63b8ff" d="M376.94,-110.09C363.21,-102.06 342.88,-90.16 326.76,-80.73"/>
<polygon fill="#63b8ff" stroke="#63b8ff" points="328.59,-77.75 318.19,-75.72 325.06,-83.79 328.59,-77.75"/>
</a>
</g>
</g>
<!-- Node17&#45;&gt;Node3 -->
<g id="edge25_Node000017_Node000003" class="edge">
<title>Node17&#45;&gt;Node3</title>
<g id="a_edge25_Node000017_Node000003"><a xlink:title=" ">
<path fill="none" stroke="#63b8ff" d="M932.67,-165.27C960.58,-158.6 994.75,-147.53 1021.38,-129.75 1039.26,-117.81 1054.52,-98.31 1064.21,-84"/>
<polygon fill="#63b8ff" stroke="#63b8ff" points="1066.93,-86.24 1069.41,-75.94 1061.05,-82.44 1066.93,-86.24"/>
</a>
</g>
</g>
<!-- Node17&#45;&gt;Node4 -->
<g id="edge24_Node000017_Node000004" class="edge">
<title>Node17&#45;&gt;Node4</title>
<g id="a_edge24_Node000017_Node000004"><a xlink:title=" ">
<path fill="none" stroke="#63b8ff" d="M951.74,-168.63C1064.1,-159.16 1272.75,-140.3 1285.38,-129.75 1298.01,-119.2 1302.47,-100.64 1303.94,-86.23"/>
<polygon fill="#63b8ff" stroke="#63b8ff" points="1307.42,-86.65 1304.5,-76.46 1300.43,-86.25 1307.42,-86.65"/>
</a>
</g>
</g>
<!-- Node17&#45;&gt;Node7 -->
<g id="edge41_Node000017_Node000007" class="edge">
<title>Node17&#45;&gt;Node7</title>
<g id="a_edge41_Node000017_Node000007"><a xlink:title=" ">
<path fill="none" stroke="#63b8ff" d="M810.75,-171.23C746.72,-166.72 659.13,-155.84 637.38,-129.75 626.63,-116.86 634.16,-98.08 642.7,-84.21"/>
<polygon fill="#63b8ff" stroke="#63b8ff" points="645.56,-86.23 648.3,-76 639.78,-82.29 645.56,-86.23"/>
</a>
</g>
</g>
<!-- Node17&#45;&gt;Node16 -->
<g id="edge23_Node000017_Node000016" class="edge">
<title>Node17&#45;&gt;Node16</title>
<g id="a_edge23_Node000017_Node000016"><a xlink:title=" ">
<path fill="none" stroke="#63b8ff" d="M818.78,-165.25C762.53,-156.83 677.74,-143.56 604.38,-129.75 603.37,-129.56 602.35,-129.36 601.32,-129.16"/>
<polygon fill="#63b8ff" stroke="#63b8ff" points="602.14,-125.76 591.64,-127.19 600.74,-132.62 602.14,-125.76"/>
</a>
</g>
</g>
<!-- Node18 -->
<g id="Node000018" class="node">
<title>Node18</title>
<g id="a_Node000018"><a xlink:title=" ">
<polygon fill="#e0e0e0" stroke="#999999" points="1012,-129.75 966.75,-129.75 966.75,-110.5 1012,-110.5 1012,-129.75"/>
<text text-anchor="middle" x="989.38" y="-116.25" font-family="Helvetica,sans-Serif" font-size="10.00">variant</text>
</a>
</g>
</g>
<!-- Node17&#45;&gt;Node18 -->
<g id="edge22_Node000017_Node000018" class="edge">
<title>Node17&#45;&gt;Node18</title>
<g id="a_edge22_Node000017_Node000018"><a xlink:title=" ">
<path fill="none" stroke="#63b8ff" d="M899.7,-165.34C916.45,-157.08 941.51,-144.73 960.88,-135.18"/>
<polygon fill="#63b8ff" stroke="#63b8ff" points="962.19,-138.43 969.61,-130.87 959.09,-132.15 962.19,-138.43"/>
</a>
</g>
</g>
<!-- Node19 -->
<g id="Node000019" class="node">
<title>Node19</title>
<g id="a_Node000019"><a xlink:title=" ">
<polygon fill="#e0e0e0" stroke="#999999" points="780.25,-74.5 730.5,-74.5 730.5,-55.25 780.25,-55.25 780.25,-74.5"/>
<text text-anchor="middle" x="755.38" y="-61" font-family="Helvetica,sans-Serif" font-size="10.00">optional</text>
</a>
</g>
</g>
<!-- Node17&#45;&gt;Node19 -->
<g id="edge26_Node000017_Node000019" class="edge">
<title>Node17&#45;&gt;Node19</title>
<g id="a_edge26_Node000017_Node000019"><a xlink:title=" ">
<path fill="none" stroke="#63b8ff" d="M861.64,-165.37C845.46,-157.42 822.53,-144.76 805.38,-129.75 790,-116.3 776,-97.59 766.75,-83.89"/>
<polygon fill="#63b8ff" stroke="#63b8ff" points="769.89,-82.29 761.49,-75.84 764.03,-86.12 769.89,-82.29"/>
</a>
</g>
</g>
<!-- Node20 -->
<g id="Node000020" class="node">
<title>Node20</title>
<g id="a_Node000020"><a xlink:href="../../da/d33/Namespace_8hpp.html" target="_top" xlink:title=" ">
<polygon fill="white" stroke="#666666" points="1276.25,-129.75 1106.5,-129.75 1106.5,-110.5 1276.25,-110.5 1276.25,-129.75"/>
<text text-anchor="middle" x="1191.38" y="-116.25" font-family="Helvetica,sans-Serif" font-size="10.00">Ark/Compiler/AST/Namespace.hpp</text>
</a>
</g>
</g>
<!-- Node17&#45;&gt;Node20 -->
<g id="edge27_Node000017_Node000020" class="edge">
<title>Node17&#45;&gt;Node20</title>
<g id="a_edge27_Node000017_Node000020"><a xlink:title=" ">
<path fill="none" stroke="#63b8ff" d="M934.31,-165.28C987.73,-156.11 1070.27,-141.93 1127.34,-132.13"/>
<polygon fill="#63b8ff" stroke="#63b8ff" points="1127.64,-135.62 1136.9,-130.48 1126.46,-128.73 1127.64,-135.62"/>
</a>
</g>
</g>
<!-- Node22 -->
<g id="Node000022" class="node">
<title>Node22</title>
<g id="a_Node000022"><a xlink:href="../../d8/ddd/Common_8hpp.html" target="_top" xlink:title="Common code for the compiler.">
<polygon fill="white" stroke="#666666" points="948.62,-129.75 814.12,-129.75 814.12,-110.5 948.62,-110.5 948.62,-129.75"/>
<text text-anchor="middle" x="881.38" y="-116.25" font-family="Helvetica,sans-Serif" font-size="10.00">Ark/Compiler/Common.hpp</text>
</a>
</g>
</g>
<!-- Node17&#45;&gt;Node22 -->
<g id="edge31_Node000017_Node000022" class="edge">
<title>Node17&#45;&gt;Node22</title>
<g id="a_edge31_Node000017_Node000022"><a xlink:title=" ">
<path fill="none" stroke="#63b8ff" d="M881.38,-165.58C881.38,-159.07 881.38,-149.92 881.38,-141.62"/>
<polygon fill="#63b8ff" stroke="#63b8ff" points="884.88,-141.62 881.38,-131.62 877.88,-141.62 884.88,-141.62"/>
</a>
</g>
</g>
<!-- Node29 -->
<g id="Node000029" class="node">
<title>Node29</title>
<g id="a_Node000029"><a xlink:href="../../dc/d58/Position_8hpp.html" target="_top" xlink:title="Defines position utilities (for text in a file) for the parser, formatter, diagnostics.">
<polygon fill="white" stroke="#666666" points="758,-129.75 646.75,-129.75 646.75,-110.5 758,-110.5 758,-129.75"/>
<text text-anchor="middle" x="702.38" y="-116.25" font-family="Helvetica,sans-Serif" font-size="10.00">Ark/Utils/Position.hpp</text>
</a>
</g>
</g>
<!-- Node17&#45;&gt;Node29 -->
<g id="edge42_Node000017_Node000029" class="edge">
<title>Node17&#45;&gt;Node29</title>
<g id="a_edge42_Node000017_Node000029"><a xlink:title=" ">
<path fill="none" stroke="#63b8ff" d="M851.01,-165.34C821.57,-156.58 776.67,-143.23 743.92,-133.48"/>
<polygon fill="#63b8ff" stroke="#63b8ff" points="744.92,-130.13 734.34,-130.63 742.93,-136.84 744.92,-130.13"/>
</a>
</g>
</g>
<!-- Node20&#45;&gt;Node3 -->
<g id="edge29_Node000020_Node000003" class="edge">
<title>Node20&#45;&gt;Node3</title>
<g id="a_edge29_Node000020_Node000003"><a xlink:title=" ">
<path fill="none" stroke="#63b8ff" d="M1171.7,-110.09C1153.53,-101.75 1126.29,-89.25 1105.41,-79.66"/>
<polygon fill="#63b8ff" stroke="#63b8ff" points="1107.07,-76.58 1096.52,-75.58 1104.15,-82.94 1107.07,-76.58"/>
</a>
</g>
</g>
<!-- Node20&#45;&gt;Node4 -->
<g id="edge28_Node000020_Node000004" class="edge">
<title>Node20&#45;&gt;Node4</title>
<g id="a_edge28_Node000020_Node000004"><a xlink:title=" ">
<path fill="none" stroke="#63b8ff" d="M1210.54,-110.09C1228.16,-101.79 1254.53,-89.36 1274.84,-79.79"/>
<polygon fill="#63b8ff" stroke="#63b8ff" points="1276.19,-83.03 1283.74,-75.6 1273.2,-76.69 1276.19,-83.03"/>
</a>
</g>
</g>
<!-- Node21 -->
<g id="Node000021" class="node">
<title>Node21</title>
<g id="a_Node000021"><a xlink:title=" ">
<polygon fill="#e0e0e0" stroke="#999999" points="1217,-74.5 1165.75,-74.5 1165.75,-55.25 1217,-55.25 1217,-74.5"/>
<text text-anchor="middle" x="1191.38" y="-61" font-family="Helvetica,sans-Serif" font-size="10.00">memory</text>
</a>
</g>
</g>
<!-- Node20&#45;&gt;Node21 -->
<g id="edge30_Node000020_Node000021" class="edge">
<title>Node20&#45;&gt;Node21</title>
<g id="a_edge30_Node000020_Node000021"><a xlink:title=" ">
<path fill="none" stroke="#63b8ff" d="M1191.38,-110.33C1191.38,-103.82 1191.38,-94.67 1191.38,-86.37"/>
<polygon fill="#63b8ff" stroke="#63b8ff" points="1194.88,-86.37 1191.38,-76.37 1187.88,-86.37 1194.88,-86.37"/>
</a>
</g>
</g>
<!-- Node22&#45;&gt;Node3 -->
<g id="edge34_Node000022_Node000003" class="edge">
<title>Node22&#45;&gt;Node3</title>
<g id="a_edge34_Node000022_Node000003"><a xlink:title=" ">
<path fill="none" stroke="#63b8ff" d="M914.28,-110.09C950.08,-100.27 1006.97,-84.65 1042.68,-74.85"/>
<polygon fill="#63b8ff" stroke="#63b8ff" points="1043.3,-78.31 1052.02,-72.29 1041.45,-71.56 1043.3,-78.31"/>
</a>
</g>
</g>
<!-- Node23 -->
<g id="Node000023" class="node">
<title>Node23</title>
<g id="a_Node000023"><a xlink:title=" ">
<polygon fill="#e0e0e0" stroke="#999999" points="990.25,-74.5 952.5,-74.5 952.5,-55.25 990.25,-55.25 990.25,-74.5"/>
<text text-anchor="middle" x="971.38" y="-61" font-family="Helvetica,sans-Serif" font-size="10.00">array</text>
</a>
</g>
</g>
<!-- Node22&#45;&gt;Node23 -->
<g id="edge32_Node000022_Node000023" class="edge">
<title>Node22&#45;&gt;Node23</title>
<g id="a_edge32_Node000022_Node000023"><a xlink:title=" ">
<path fill="none" stroke="#63b8ff" d="M896.64,-110.09C910.22,-102.06 930.33,-90.16 946.27,-80.73"/>
<polygon fill="#63b8ff" stroke="#63b8ff" points="947.91,-83.83 954.73,-75.72 944.34,-77.8 947.91,-83.83"/>
</a>
</g>
</g>
<!-- Node24 -->
<g id="Node000024" class="node">
<title>Node24</title>
<g id="a_Node000024"><a xlink:title=" ">
<polygon fill="#e0e0e0" stroke="#999999" points="1049.12,-19.25 983.62,-19.25 983.62,0 1049.12,0 1049.12,-19.25"/>
<text text-anchor="middle" x="1016.38" y="-5.75" font-family="Helvetica,sans-Serif" font-size="10.00">string_view</text>
</a>
</g>
</g>
<!-- Node22&#45;&gt;Node24 -->
<g id="edge33_Node000022_Node000024" class="edge">
<title>Node22&#45;&gt;Node24</title>
<g id="a_edge33_Node000022_Node000024"><a xlink:title=" ">
<path fill="none" stroke="#63b8ff" d="M935.47,-110.01C958.07,-103.62 982.86,-92.78 999.38,-74.5 1010.09,-62.63 1014.18,-44.76 1015.68,-30.94"/>
<polygon fill="#63b8ff" stroke="#63b8ff" points="1019.16,-31.39 1016.34,-21.18 1012.17,-30.92 1019.16,-31.39"/>
</a>
</g>
</g>
<!-- Node25 -->
<g id="Node000025" class="node">
<title>Node25</title>
<g id="a_Node000025"><a xlink:title=" ">
<polygon fill="#e0e0e0" stroke="#999999" points="839.25,-19.25 783.5,-19.25 783.5,0 839.25,0 839.25,-19.25"/>
<text text-anchor="middle" x="811.38" y="-5.75" font-family="Helvetica,sans-Serif" font-size="10.00">cinttypes</text>
</a>
</g>
</g>
<!-- Node22&#45;&gt;Node25 -->
<g id="edge35_Node000022_Node000025" class="edge">
<title>Node22&#45;&gt;Node25</title>
<g id="a_edge35_Node000022_Node000025"><a xlink:title=" ">
<path fill="none" stroke="#63b8ff" d="M865.78,-110.13C853.53,-102.26 836.98,-89.72 827.38,-74.5 819.05,-61.31 815.06,-44.04 813.14,-30.79"/>
<polygon fill="#63b8ff" stroke="#63b8ff" points="816.64,-30.61 812.04,-21.07 809.69,-31.4 816.64,-30.61"/>
</a>
</g>
</g>
<!-- Node26 -->
<g id="Node000026" class="node">
<title>Node26</title>
<g id="a_Node000026"><a xlink:href="../../d6/de9/Constants_8hpp.html" target="_top" xlink:title="Constants used by ArkScript.">
<polygon fill="white" stroke="#666666" points="934.25,-74.5 836.5,-74.5 836.5,-55.25 934.25,-55.25 934.25,-74.5"/>
<text text-anchor="middle" x="885.38" y="-61" font-family="Helvetica,sans-Serif" font-size="10.00">Ark/Constants.hpp</text>
</a>
</g>
</g>
<!-- Node22&#45;&gt;Node26 -->
<g id="edge36_Node000022_Node000026" class="edge">
<title>Node22&#45;&gt;Node26</title>
<g id="a_edge36_Node000022_Node000026"><a xlink:title=" ">
<path fill="none" stroke="#63b8ff" d="M882.04,-110.33C882.53,-103.74 883.23,-94.46 883.86,-86.07"/>
<polygon fill="#63b8ff" stroke="#63b8ff" points="887.33,-86.6 884.59,-76.37 880.35,-86.08 887.33,-86.6"/>
</a>
</g>
</g>
<!-- Node26&#45;&gt;Node24 -->
<g id="edge37_Node000026_Node000024" class="edge">
<title>Node26&#45;&gt;Node24</title>
<g id="a_edge37_Node000026_Node000024"><a xlink:title=" ">
<path fill="none" stroke="#63b8ff" d="M907.6,-54.84C928.39,-46.39 959.72,-33.65 983.43,-24.02"/>
<polygon fill="#63b8ff" stroke="#63b8ff" points="984.7,-27.28 992.64,-20.27 982.06,-20.8 984.7,-27.28"/>
</a>
</g>
</g>
<!-- Node26&#45;&gt;Node25 -->
<g id="edge39_Node000026_Node000025" class="edge">
<title>Node26&#45;&gt;Node25</title>
<g id="a_edge39_Node000026_Node000025"><a xlink:title=" ">
<path fill="none" stroke="#63b8ff" d="M872.82,-54.84C861.91,-46.99 845.87,-35.45 832.91,-26.12"/>
<polygon fill="#63b8ff" stroke="#63b8ff" points="835.13,-23.41 824.97,-20.41 831.04,-29.09 835.13,-23.41"/>
</a>
</g>
</g>
<!-- Node27 -->
<g id="Node000027" class="node">
<title>Node27</title>
<g id="a_Node000027"><a xlink:title=" ">
<polygon fill="#e0e0e0" stroke="#999999" points="965,-19.25 925.75,-19.25 925.75,0 965,0 965,-19.25"/>
<text text-anchor="middle" x="945.38" y="-5.75" font-family="Helvetica,sans-Serif" font-size="10.00">limits</text>
</a>
</g>
</g>
<!-- Node26&#45;&gt;Node27 -->
<g id="edge38_Node000026_Node000027" class="edge">
<title>Node26&#45;&gt;Node27</title>
<g id="a_edge38_Node000026_Node000027"><a xlink:title=" ">
<path fill="none" stroke="#63b8ff" d="M895.55,-54.84C904.14,-47.22 916.64,-36.12 926.98,-26.95"/>
<polygon fill="#63b8ff" stroke="#63b8ff" points="929.06,-29.79 934.22,-20.53 924.41,-24.55 929.06,-29.79"/>
</a>
</g>
</g>
<!-- Node28 -->
<g id="Node000028" class="node">
<title>Node28</title>
<g id="a_Node000028"><a xlink:title=" ">
<polygon fill="#e0e0e0" stroke="#999999" points="907.5,-19.25 859.25,-19.25 859.25,0 907.5,0 907.5,-19.25"/>
<text text-anchor="middle" x="883.38" y="-5.75" font-family="Helvetica,sans-Serif" font-size="10.00">cstddef</text>
</a>
</g>
</g>
<!-- Node26&#45;&gt;Node28 -->
<g id="edge40_Node000026_Node000028" class="edge">
<title>Node26&#45;&gt;Node28</title>
<g id="a_edge40_Node000026_Node000028"><a xlink:title=" ">
<path fill="none" stroke="#63b8ff" d="M885.04,-55.08C884.8,-48.49 884.45,-39.21 884.13,-30.82"/>
<polygon fill="#63b8ff" stroke="#63b8ff" points="887.64,-30.98 883.77,-21.12 880.65,-31.25 887.64,-30.98"/>
</a>
</g>
</g>
<!-- Node29&#45;&gt;Node7 -->
<g id="edge44_Node000029_Node000007" class="edge">
<title>Node29&#45;&gt;Node7</title>
<g id="a_edge44_Node000029_Node000007"><a xlink:title=" ">
<path fill="none" stroke="#63b8ff" d="M694.78,-110.33C688.49,-103.05 679.36,-92.48 671.58,-83.48"/>
<polygon fill="#63b8ff" stroke="#63b8ff" points="674.31,-81.28 665.13,-76 669.01,-85.86 674.31,-81.28"/>
</a>
</g>
</g>
<!-- Node29&#45;&gt;Node19 -->
<g id="edge43_Node000029_Node000019" class="edge">
<title>Node29&#45;&gt;Node19</title>
<g id="a_edge43_Node000029_Node000019"><a xlink:title=" ">
<path fill="none" stroke="#63b8ff" d="M711.13,-110.33C718.52,-102.9 729.34,-92.04 738.42,-82.91"/>
<polygon fill="#63b8ff" stroke="#63b8ff" points="740.79,-85.49 745.37,-75.93 735.83,-80.55 740.79,-85.49"/>
</a>
</g>
</g>
<!-- Node30&#45;&gt;Node3 -->
<g id="edge46_Node000030_Node000003" class="edge">
<title>Node30&#45;&gt;Node3</title>
<g id="a_edge46_Node000030_Node000003"><a xlink:title=" ">
<path fill="none" stroke="#63b8ff" d="M1349.02,-110.03C1279.76,-98.86 1164.52,-80.26 1108.28,-71.19"/>
<polygon fill="#63b8ff" stroke="#63b8ff" points="1109.14,-67.78 1098.71,-69.64 1108.02,-74.69 1109.14,-67.78"/>
</a>
</g>
</g>
<!-- Node30&#45;&gt;Node4 -->
<g id="edge47_Node000030_Node000004" class="edge">
<title>Node30&#45;&gt;Node4</title>
<g id="a_edge47_Node000030_Node000004"><a xlink:title=" ">
<path fill="none" stroke="#63b8ff" d="M1388.24,-110.09C1372.72,-101.91 1349.57,-89.71 1331.53,-80.19"/>
<polygon fill="#63b8ff" stroke="#63b8ff" points="1333.41,-77.23 1322.93,-75.66 1330.14,-83.42 1333.41,-77.23"/>
</a>
</g>
</g>
<!-- Node30&#45;&gt;Node7 -->
<g id="edge49_Node000030_Node000007" class="edge">
<title>Node30&#45;&gt;Node7</title>
<g id="a_edge49_Node000030_Node000007"><a xlink:title=" ">
<path fill="none" stroke="#63b8ff" d="M1332.4,-113.79C1316.88,-112.68 1300.59,-111.53 1285.38,-110.5 1038.45,-93.75 973.25,-98.88 724.3,-74.73"/>
<polygon fill="#63b8ff" stroke="#63b8ff" points="724.87,-71.27 714.58,-73.78 724.19,-78.23 724.87,-71.27"/>
</a>
</g>
</g>
<!-- Node31 -->
<g id="Node000031" class="node">
<title>Node31</title>
<g id="a_Node000031"><a xlink:title=" ">
<polygon fill="#e0e0e0" stroke="#999999" points="1430.62,-74.5 1380.12,-74.5 1380.12,-55.25 1430.62,-55.25 1430.62,-74.5"/>
<text text-anchor="middle" x="1405.38" y="-61" font-family="Helvetica,sans-Serif" font-size="10.00">numeric</text>
</a>
</g>
</g>
<!-- Node30&#45;&gt;Node31 -->
<g id="edge48_Node000030_Node000031" class="edge">
<title>Node30&#45;&gt;Node31</title>
<g id="a_edge48_Node000030_Node000031"><a xlink:title=" ">
<path fill="none" stroke="#63b8ff" d="M1405.38,-110.33C1405.38,-103.82 1405.38,-94.67 1405.38,-86.37"/>
<polygon fill="#63b8ff" stroke="#63b8ff" points="1408.88,-86.37 1405.38,-76.37 1401.88,-86.37 1408.88,-86.37"/>
</a>
</g>
</g>
<!-- Node32&#45;&gt;Node17 -->
<g id="edge51_Node000032_Node000017" class="edge">
<title>Node32&#45;&gt;Node17</title>
<g id="a_edge51_Node000032_Node000017"><a xlink:title=" ">
<path fill="none" stroke="#63b8ff" d="M912.99,-220.7C907.4,-212.85 900.44,-203.1 894.47,-194.74"/>
<polygon fill="#63b8ff" stroke="#63b8ff" points="897.39,-192.79 888.73,-186.68 891.69,-196.86 897.39,-192.79"/>
</a>
</g>
</g>
<!-- Node32&#45;&gt;Node30 -->
<g id="edge52_Node000032_Node000030" class="edge">
<title>Node32&#45;&gt;Node30</title>
<g id="a_edge52_Node000032_Node000030"><a xlink:title=" ">
<path fill="none" stroke="#63b8ff" d="M980.56,-221.71C1075.98,-199.12 1266.04,-154.12 1355.99,-132.82"/>
<polygon fill="#63b8ff" stroke="#63b8ff" points="1356.57,-136.28 1365.5,-130.57 1354.96,-129.47 1356.57,-136.28"/>
</a>
</g>
</g>
</g>
</svg>
