<?xml version="1.0" encoding="UTF-8" standalone="no"?>
<!DOCTYPE svg PUBLIC "-//W3C//DTD SVG 1.1//EN"
 "http://www.w3.org/Graphics/SVG/1.1/DTD/svg11.dtd">
<!-- Generated by graphviz version 12.2.0 (20241103.1931)
 -->
<!-- Title: /Users/fola/Documents/ArkScript/Ark/include/Ark/Builtins/Builtins.hpp Pages: 1 -->
<svg width="1307pt" height="227pt"
 viewBox="0.00 0.00 1306.62 226.75" xmlns="http://www.w3.org/2000/svg" xmlns:xlink="http://www.w3.org/1999/xlink">
<g id="graph0" class="graph" transform="scale(1 1) rotate(0) translate(4 222.75)">
<title>/Users/fola/Documents/ArkScript/Ark/include/Ark/Builtins/Builtins.hpp</title>
<!-- Node1 -->
<g id="Node000001" class="node">
<title>Node1</title>
<g id="a_Node000001"><a xlink:title="Host the declaration of all the ArkScript builtins.">
<polygon fill="#999999" stroke="#666666" points="507.62,-218.75 384.38,-218.75 384.38,-177 507.62,-177 507.62,-218.75"/>
<text text-anchor="start" x="392.38" y="-205.25" font-family="Helvetica,sans-Serif" font-size="10.00">/Users/fola/Documents</text>
<text text-anchor="start" x="392.38" y="-194" font-family="Helvetica,sans-Serif" font-size="10.00">/ArkScript/Ark/include</text>
<text text-anchor="middle" x="446" y="-182.75" font-family="Helvetica,sans-Serif" font-size="10.00">/Ark/Builtins/Builtins.hpp</text>
</a>
</g>
</g>
<!-- Node2 -->
<g id="Node000002" class="node">
<title>Node2</title>
<g id="a_Node000002"><a xlink:title=" ">
<polygon fill="#e0e0e0" stroke="#999999" points="210.5,-19.25 167.5,-19.25 167.5,0 210.5,0 210.5,-19.25"/>
<text text-anchor="middle" x="189" y="-5.75" font-family="Helvetica,sans-Serif" font-size="10.00">vector</text>
</a>
</g>
</g>
<!-- Node1&#45;&gt;Node2 -->
<g id="edge1_Node000001_Node000002" class="edge">
<title>Node1&#45;&gt;Node2</title>
<g id="a_edge1_Node000001_Node000002"><a xlink:title=" ">
<path fill="none" stroke="#63b8ff" d="M383.96,-186.23C326.78,-172.99 244.29,-144.5 200,-85.75 188.11,-69.98 186.37,-46.94 186.97,-30.54"/>
<polygon fill="#63b8ff" stroke="#63b8ff" points="190.43,-31.26 187.65,-21.03 183.45,-30.76 190.43,-31.26"/>
</a>
</g>
</g>
<!-- Node3 -->
<g id="Node000003" class="node">
<title>Node3</title>
<g id="a_Node000003"><a xlink:href="../../de/dfd/Value_8hpp.html" target="_top" xlink:title="Default value type handled by the virtual machine.">
<polygon fill="white" stroke="#666666" points="493.38,-141 398.62,-141 398.62,-121.75 493.38,-121.75 493.38,-141"/>
<text text-anchor="middle" x="446" y="-127.5" font-family="Helvetica,sans-Serif" font-size="10.00">Ark/VM/Value.hpp</text>
</a>
</g>
</g>
<!-- Node1&#45;&gt;Node3 -->
<g id="edge2_Node000001_Node000003" class="edge">
<title>Node1&#45;&gt;Node3</title>
<g id="a_edge2_Node000001_Node000003"><a xlink:title=" ">
<path fill="none" stroke="#63b8ff" d="M446,-176.82C446,-169.15 446,-160.39 446,-152.7"/>
<polygon fill="#63b8ff" stroke="#63b8ff" points="449.5,-152.96 446,-142.96 442.5,-152.96 449.5,-152.96"/>
</a>
</g>
</g>
<!-- Node15 -->
<g id="Node000015" class="node">
<title>Node15</title>
<g id="a_Node000015"><a xlink:href="../../d2/de9/Exceptions_8hpp.html" target="_top" xlink:title="ArkScript homemade exceptions.">
<polygon fill="white" stroke="#666666" points="958.75,-141 857.25,-141 857.25,-121.75 958.75,-121.75 958.75,-141"/>
<text text-anchor="middle" x="908" y="-127.5" font-family="Helvetica,sans-Serif" font-size="10.00">Ark/Exceptions.hpp</text>
</a>
</g>
</g>
<!-- Node1&#45;&gt;Node15 -->
<g id="edge21_Node000001_Node000015" class="edge">
<title>Node1&#45;&gt;Node15</title>
<g id="a_edge21_Node000001_Node000015"><a xlink:title=" ">
<path fill="none" stroke="#63b8ff" d="M507.83,-188.24C596.04,-175.93 757.12,-153.44 845.63,-141.08"/>
<polygon fill="#63b8ff" stroke="#63b8ff" points="845.92,-144.58 855.34,-139.73 844.95,-137.64 845.92,-144.58"/>
</a>
</g>
</g>
<!-- Node3&#45;&gt;Node2 -->
<g id="edge3_Node000003_Node000002" class="edge">
<title>Node3&#45;&gt;Node2</title>
<g id="a_edge3_Node000003_Node000002"><a xlink:title=" ">
<path fill="none" stroke="#63b8ff" d="M398.33,-125.54C342.23,-119.02 253.38,-105.87 227,-85.75 209.23,-72.19 199.13,-48.03 193.88,-30.77"/>
<polygon fill="#63b8ff" stroke="#63b8ff" points="197.26,-29.87 191.27,-21.13 190.51,-31.7 197.26,-29.87"/>
</a>
</g>
</g>
<!-- Node4 -->
<g id="Node000004" class="node">
<title>Node4</title>
<g id="a_Node000004"><a xlink:title=" ">
<polygon fill="#e0e0e0" stroke="#999999" points="281.62,-80.12 236.38,-80.12 236.38,-60.88 281.62,-60.88 281.62,-80.12"/>
<text text-anchor="middle" x="259" y="-66.62" font-family="Helvetica,sans-Serif" font-size="10.00">variant</text>
</a>
</g>
</g>
<!-- Node3&#45;&gt;Node4 -->
<g id="edge4_Node000003_Node000004" class="edge">
<title>Node3&#45;&gt;Node4</title>
<g id="a_edge4_Node000003_Node000004"><a xlink:title=" ">
<path fill="none" stroke="#63b8ff" d="M412.7,-121.28C382.14,-112.74 335.73,-99.29 296,-85.75 294.68,-85.3 293.34,-84.83 291.99,-84.35"/>
<polygon fill="#63b8ff" stroke="#63b8ff" points="293.61,-81.22 283.02,-81.05 291.19,-87.79 293.61,-81.22"/>
</a>
</g>
</g>
<!-- Node5 -->
<g id="Node000005" class="node">
<title>Node5</title>
<g id="a_Node000005"><a xlink:title=" ">
<polygon fill="#e0e0e0" stroke="#999999" points="839,-19.25 799,-19.25 799,0 839,0 839,-19.25"/>
<text text-anchor="middle" x="819" y="-5.75" font-family="Helvetica,sans-Serif" font-size="10.00">string</text>
</a>
</g>
</g>
<!-- Node3&#45;&gt;Node5 -->
<g id="edge5_Node000003_Node000005" class="edge">
<title>Node3&#45;&gt;Node5</title>
<g id="a_edge5_Node000003_Node000005"><a xlink:title=" ">
<path fill="none" stroke="#63b8ff" d="M493.59,-127.34C567.87,-121.95 707.39,-109.02 751,-85.75 775.78,-72.53 796.1,-46.57 807.89,-28.92"/>
<polygon fill="#63b8ff" stroke="#63b8ff" points="810.57,-31.22 812.99,-20.91 804.66,-27.46 810.57,-31.22"/>
</a>
</g>
</g>
<!-- Node6 -->
<g id="Node000006" class="node">
<title>Node6</title>
<g id="a_Node000006"><a xlink:title=" ">
<polygon fill="#e0e0e0" stroke="#999999" points="405.88,-19.25 350.12,-19.25 350.12,0 405.88,0 405.88,-19.25"/>
<text text-anchor="middle" x="378" y="-5.75" font-family="Helvetica,sans-Serif" font-size="10.00">cinttypes</text>
</a>
</g>
</g>
<!-- Node3&#45;&gt;Node6 -->
<g id="edge6_Node000003_Node000006" class="edge">
<title>Node3&#45;&gt;Node6</title>
<g id="a_edge6_Node000003_Node000006"><a xlink:title=" ">
<path fill="none" stroke="#63b8ff" d="M414.53,-121.28C397.22,-114.49 377.24,-103.3 367,-85.75 357.06,-68.71 362.5,-45.92 368.74,-29.92"/>
<polygon fill="#63b8ff" stroke="#63b8ff" points="371.82,-31.61 372.61,-21.04 365.4,-28.81 371.82,-31.61"/>
</a>
</g>
</g>
<!-- Node7 -->
<g id="Node000007" class="node">
<title>Node7</title>
<g id="a_Node000007"><a xlink:title=" ">
<polygon fill="#e0e0e0" stroke="#999999" points="916.88,-19.25 879.12,-19.25 879.12,0 916.88,0 916.88,-19.25"/>
<text text-anchor="middle" x="898" y="-5.75" font-family="Helvetica,sans-Serif" font-size="10.00">array</text>
</a>
</g>
</g>
<!-- Node3&#45;&gt;Node7 -->
<g id="edge7_Node000003_Node000007" class="edge">
<title>Node3&#45;&gt;Node7</title>
<g id="a_edge7_Node000003_Node000007"><a xlink:title=" ">
<path fill="none" stroke="#63b8ff" d="M493.64,-130.64C560.4,-129.56 684.64,-122.23 783,-85.75 820.03,-72.01 857.29,-44.6 878.97,-26.96"/>
<polygon fill="#63b8ff" stroke="#63b8ff" points="881.17,-29.69 886.62,-20.6 876.69,-24.31 881.17,-29.69"/>
</a>
</g>
</g>
<!-- Node8 -->
<g id="Node000008" class="node">
<title>Node8</title>
<g id="a_Node000008"><a xlink:href="../../dc/dd5/Closure_8hpp.html" target="_top" xlink:title="Subtype of the value type, handling closures.">
<polygon fill="white" stroke="#666666" points="741.75,-80.12 610.25,-80.12 610.25,-60.88 741.75,-60.88 741.75,-80.12"/>
<text text-anchor="middle" x="676" y="-66.62" font-family="Helvetica,sans-Serif" font-size="10.00">Ark/VM/Value/Closure.hpp</text>
</a>
</g>
</g>
<!-- Node3&#45;&gt;Node8 -->
<g id="edge8_Node000003_Node000008" class="edge">
<title>Node3&#45;&gt;Node8</title>
<g id="a_edge8_Node000003_Node000008"><a xlink:title=" ">
<path fill="none" stroke="#63b8ff" d="M481.43,-121.3C521.19,-111.13 585.84,-94.58 629.6,-83.38"/>
<polygon fill="#63b8ff" stroke="#63b8ff" points="630.24,-86.83 639.06,-80.96 628.5,-80.05 630.24,-86.83"/>
</a>
</g>
</g>
<!-- Node11 -->
<g id="Node000011" class="node">
<title>Node11</title>
<g id="a_Node000011"><a xlink:href="../../d5/d40/Platform_8hpp.html" target="_top" xlink:title="ArkScript configuration macros.">
<polygon fill="white" stroke="#666666" points="603.75,-19.25 514.25,-19.25 514.25,0 603.75,0 603.75,-19.25"/>
<text text-anchor="middle" x="559" y="-5.75" font-family="Helvetica,sans-Serif" font-size="10.00">Ark/Platform.hpp</text>
</a>
</g>
</g>
<!-- Node3&#45;&gt;Node11 -->
<g id="edge20_Node000003_Node000011" class="edge">
<title>Node3&#45;&gt;Node11</title>
<g id="a_edge20_Node000003_Node000011"><a xlink:title=" ">
<path fill="none" stroke="#63b8ff" d="M470.43,-121.37C487.57,-114.01 510.01,-102.14 525,-85.75 539.47,-69.92 548.65,-46.89 553.77,-30.51"/>
<polygon fill="#63b8ff" stroke="#63b8ff" points="557.12,-31.54 556.51,-20.96 550.39,-29.61 557.12,-31.54"/>
</a>
</g>
</g>
<!-- Node12 -->
<g id="Node000012" class="node">
<title>Node12</title>
<g id="a_Node000012"><a xlink:href="../../dc/d3d/UserType_8hpp.html" target="_top" xlink:title="Subtype of the value, capable of handling any C++ type.">
<polygon fill="white" stroke="#666666" points="515.88,-80.12 376.12,-80.12 376.12,-60.88 515.88,-60.88 515.88,-80.12"/>
<text text-anchor="middle" x="446" y="-66.62" font-family="Helvetica,sans-Serif" font-size="10.00">Ark/VM/Value/UserType.hpp</text>
</a>
</g>
</g>
<!-- Node3&#45;&gt;Node12 -->
<g id="edge13_Node000003_Node000012" class="edge">
<title>Node3&#45;&gt;Node12</title>
<g id="a_edge13_Node000003_Node000012"><a xlink:title=" ">
<path fill="none" stroke="#63b8ff" d="M446,-121.43C446,-113.65 446,-102.08 446,-92.03"/>
<polygon fill="#63b8ff" stroke="#63b8ff" points="449.5,-92.04 446,-82.04 442.5,-92.04 449.5,-92.04"/>
</a>
</g>
</g>
<!-- Node13 -->
<g id="Node000013" class="node">
<title>Node13</title>
<g id="a_Node000013"><a xlink:href="../../da/dcf/Procedure_8hpp.html" target="_top" xlink:title="Wrapper object for user&#45;defined functions.">
<polygon fill="white" stroke="#666666" points="142,-80.12 0,-80.12 0,-60.88 142,-60.88 142,-80.12"/>
<text text-anchor="middle" x="71" y="-66.62" font-family="Helvetica,sans-Serif" font-size="10.00">Ark/VM/Value/Procedure.hpp</text>
</a>
</g>
</g>
<!-- Node3&#45;&gt;Node13 -->
<g id="edge17_Node000003_Node000013" class="edge">
<title>Node3&#45;&gt;Node13</title>
<g id="a_edge17_Node000003_Node000013"><a xlink:title=" ">
<path fill="none" stroke="#63b8ff" d="M398.13,-122.86C332.77,-112.6 215.19,-94.14 140.23,-82.37"/>
<polygon fill="#63b8ff" stroke="#63b8ff" points="140.95,-78.94 130.53,-80.85 139.87,-85.86 140.95,-78.94"/>
</a>
</g>
</g>
<!-- Node8&#45;&gt;Node5 -->
<g id="edge11_Node000008_Node000005" class="edge">
<title>Node8&#45;&gt;Node5</title>
<g id="a_edge11_Node000008_Node000005"><a xlink:title=" ">
<path fill="none" stroke="#63b8ff" d="M698.03,-60.43C722.13,-50.51 760.94,-34.53 788.08,-23.35"/>
<polygon fill="#63b8ff" stroke="#63b8ff" points="789.25,-26.66 797.17,-19.61 786.59,-20.18 789.25,-26.66"/>
</a>
</g>
</g>
<!-- Node9 -->
<g id="Node000009" class="node">
<title>Node9</title>
<g id="a_Node000009"><a xlink:title=" ">
<polygon fill="#e0e0e0" stroke="#999999" points="760.62,-19.25 709.38,-19.25 709.38,0 760.62,0 760.62,-19.25"/>
<text text-anchor="middle" x="735" y="-5.75" font-family="Helvetica,sans-Serif" font-size="10.00">memory</text>
</a>
</g>
</g>
<!-- Node8&#45;&gt;Node9 -->
<g id="edge9_Node000008_Node000009" class="edge">
<title>Node8&#45;&gt;Node9</title>
<g id="a_edge9_Node000008_Node000009"><a xlink:title=" ">
<path fill="none" stroke="#63b8ff" d="M684.96,-60.56C693.71,-51.83 707.25,-38.32 718.04,-27.55"/>
<polygon fill="#63b8ff" stroke="#63b8ff" points="720.28,-30.26 724.88,-20.72 715.33,-25.31 720.28,-30.26"/>
</a>
</g>
</g>
<!-- Node10 -->
<g id="Node000010" class="node">
<title>Node10</title>
<g id="a_Node000010"><a xlink:title=" ">
<polygon fill="#e0e0e0" stroke="#999999" points="691.75,-19.25 638.25,-19.25 638.25,0 691.75,0 691.75,-19.25"/>
<text text-anchor="middle" x="665" y="-5.75" font-family="Helvetica,sans-Serif" font-size="10.00">iostream</text>
</a>
</g>
</g>
<!-- Node8&#45;&gt;Node10 -->
<g id="edge10_Node000008_Node000010" class="edge">
<title>Node8&#45;&gt;Node10</title>
<g id="a_edge10_Node000008_Node000010"><a xlink:title=" ">
<path fill="none" stroke="#63b8ff" d="M674.33,-60.56C672.86,-52.69 670.67,-40.95 668.77,-30.82"/>
<polygon fill="#63b8ff" stroke="#63b8ff" points="672.24,-30.33 666.96,-21.14 665.36,-31.61 672.24,-30.33"/>
</a>
</g>
</g>
<!-- Node8&#45;&gt;Node11 -->
<g id="edge12_Node000008_Node000011" class="edge">
<title>Node8&#45;&gt;Node11</title>
<g id="a_edge12_Node000008_Node000011"><a xlink:title=" ">
<path fill="none" stroke="#63b8ff" d="M657.98,-60.43C639.03,-50.89 608.96,-35.77 586.94,-24.68"/>
<polygon fill="#63b8ff" stroke="#63b8ff" points="588.71,-21.66 578.21,-20.29 585.56,-27.91 588.71,-21.66"/>
</a>
</g>
</g>
<!-- Node12&#45;&gt;Node6 -->
<g id="edge15_Node000012_Node000006" class="edge">
<title>Node12&#45;&gt;Node6</title>
<g id="a_edge15_Node000012_Node000006"><a xlink:title=" ">
<path fill="none" stroke="#63b8ff" d="M435.67,-60.56C425.39,-51.65 409.37,-37.78 396.82,-26.92"/>
<polygon fill="#63b8ff" stroke="#63b8ff" points="399.42,-24.54 389.57,-20.64 394.84,-29.83 399.42,-24.54"/>
</a>
</g>
</g>
<!-- Node12&#45;&gt;Node10 -->
<g id="edge14_Node000012_Node000010" class="edge">
<title>Node12&#45;&gt;Node10</title>
<g id="a_edge14_Node000012_Node000010"><a xlink:title=" ">
<path fill="none" stroke="#63b8ff" d="M479.74,-60.43C519.44,-49.76 585.2,-32.08 626.76,-20.91"/>
<polygon fill="#63b8ff" stroke="#63b8ff" points="627.59,-24.31 636.34,-18.33 625.77,-17.55 627.59,-24.31"/>
</a>
</g>
</g>
<!-- Node12&#45;&gt;Node11 -->
<g id="edge16_Node000012_Node000011" class="edge">
<title>Node12&#45;&gt;Node11</title>
<g id="a_edge16_Node000012_Node000011"><a xlink:title=" ">
<path fill="none" stroke="#63b8ff" d="M463.16,-60.56C481.33,-51.09 510.28,-36.01 531.61,-24.9"/>
<polygon fill="#63b8ff" stroke="#63b8ff" points="533.08,-28.08 540.33,-20.35 529.85,-21.87 533.08,-28.08"/>
</a>
</g>
</g>
<!-- Node13&#45;&gt;Node2 -->
<g id="edge19_Node000013_Node000002" class="edge">
<title>Node13&#45;&gt;Node2</title>
<g id="a_edge19_Node000013_Node000002"><a xlink:title=" ">
<path fill="none" stroke="#63b8ff" d="M89.18,-60.43C108.29,-50.89 138.61,-35.77 160.82,-24.68"/>
<polygon fill="#63b8ff" stroke="#63b8ff" points="162.25,-27.88 169.64,-20.28 159.13,-21.62 162.25,-27.88"/>
</a>
</g>
</g>
<!-- Node14 -->
<g id="Node000014" class="node">
<title>Node14</title>
<g id="a_Node000014"><a xlink:title=" ">
<polygon fill="#e0e0e0" stroke="#999999" points="100,-19.25 42,-19.25 42,0 100,0 100,-19.25"/>
<text text-anchor="middle" x="71" y="-5.75" font-family="Helvetica,sans-Serif" font-size="10.00">functional</text>
</a>
</g>
</g>
<!-- Node13&#45;&gt;Node14 -->
<g id="edge18_Node000013_Node000014" class="edge">
<title>Node13&#45;&gt;Node14</title>
<g id="a_edge18_Node000013_Node000014"><a xlink:title=" ">
<path fill="none" stroke="#63b8ff" d="M71,-60.56C71,-52.78 71,-41.2 71,-31.16"/>
<polygon fill="#63b8ff" stroke="#63b8ff" points="74.5,-31.16 71,-21.16 67.5,-31.16 74.5,-31.16"/>
</a>
</g>
</g>
<!-- Node15&#45;&gt;Node2 -->
<g id="edge24_Node000015_Node000002" class="edge">
<title>Node15&#45;&gt;Node2</title>
<g id="a_edge24_Node000015_Node000002"><a xlink:title=" ">
<path fill="none" stroke="#63b8ff" d="M856.99,-128.23C740.73,-123 459.09,-108.37 367,-85.75 352.03,-82.07 266.83,-44.96 219.94,-24.31"/>
<polygon fill="#63b8ff" stroke="#63b8ff" points="221.41,-21.14 210.84,-20.3 218.58,-27.54 221.41,-21.14"/>
</a>
</g>
</g>
<!-- Node15&#45;&gt;Node5 -->
<g id="edge22_Node000015_Node000005" class="edge">
<title>Node15&#45;&gt;Node5</title>
<g id="a_edge22_Node000015_Node000005"><a xlink:title=" ">
<path fill="none" stroke="#63b8ff" d="M901.31,-121.37C886.75,-101.78 851.94,-54.95 832.58,-28.89"/>
<polygon fill="#63b8ff" stroke="#63b8ff" points="835.44,-26.88 826.67,-20.94 829.83,-31.06 835.44,-26.88"/>
</a>
</g>
</g>
<!-- Node15&#45;&gt;Node10 -->
<g id="edge28_Node000015_Node000010" class="edge">
<title>Node15&#45;&gt;Node10</title>
<g id="a_edge28_Node000015_Node000010"><a xlink:title=" ">
<path fill="none" stroke="#63b8ff" d="M889.74,-121.37C847.78,-100.7 744.26,-49.68 693.7,-24.77"/>
<polygon fill="#63b8ff" stroke="#63b8ff" points="695.35,-21.68 684.83,-20.4 692.26,-27.96 695.35,-21.68"/>
</a>
</g>
</g>
<!-- Node15&#45;&gt;Node11 -->
<g id="edge33_Node000015_Node000011" class="edge">
<title>Node15&#45;&gt;Node11</title>
<g id="a_edge33_Node000015_Node000011"><a xlink:title=" ">
<path fill="none" stroke="#63b8ff" d="M856.94,-128.36C780.65,-124.46 641.54,-113.65 601,-85.75 581.99,-72.67 570.63,-48.03 564.61,-30.54"/>
<polygon fill="#63b8ff" stroke="#63b8ff" points="567.96,-29.52 561.65,-21.01 561.27,-31.6 567.96,-29.52"/>
</a>
</g>
</g>
<!-- Node16 -->
<g id="Node000016" class="node">
<title>Node16</title>
<g id="a_Node000016"><a xlink:title=" ">
<polygon fill="#e0e0e0" stroke="#999999" points="1084.62,-80.12 1045.38,-80.12 1045.38,-60.88 1084.62,-60.88 1084.62,-80.12"/>
<text text-anchor="middle" x="1065" y="-66.62" font-family="Helvetica,sans-Serif" font-size="10.00">utility</text>
</a>
</g>
</g>
<!-- Node15&#45;&gt;Node16 -->
<g id="edge23_Node000015_Node000016" class="edge">
<title>Node15&#45;&gt;Node16</title>
<g id="a_edge23_Node000015_Node000016"><a xlink:title=" ">
<path fill="none" stroke="#63b8ff" d="M937.9,-121.32C964.33,-113.02 1003.74,-99.89 1037,-85.75 1037.23,-85.65 1037.45,-85.56 1037.68,-85.46"/>
<polygon fill="#63b8ff" stroke="#63b8ff" points="1039.06,-88.68 1046.63,-81.26 1036.09,-82.34 1039.06,-88.68"/>
</a>
</g>
</g>
<!-- Node17 -->
<g id="Node000017" class="node">
<title>Node17</title>
<g id="a_Node000017"><a xlink:title=" ">
<polygon fill="#e0e0e0" stroke="#999999" points="1161.38,-80.12 1102.62,-80.12 1102.62,-60.88 1161.38,-60.88 1161.38,-80.12"/>
<text text-anchor="middle" x="1132" y="-66.62" font-family="Helvetica,sans-Serif" font-size="10.00">stdexcept</text>
</a>
</g>
</g>
<!-- Node15&#45;&gt;Node17 -->
<g id="edge25_Node000015_Node000017" class="edge">
<title>Node15&#45;&gt;Node17</title>
<g id="a_edge25_Node000015_Node000017"><a xlink:title=" ">
<path fill="none" stroke="#63b8ff" d="M952.76,-121.26C990.7,-113.15 1046.37,-100.33 1094,-85.75 1095.56,-85.27 1097.14,-84.77 1098.74,-84.24"/>
<polygon fill="#63b8ff" stroke="#63b8ff" points="1099.54,-87.67 1107.82,-81.05 1097.23,-81.06 1099.54,-87.67"/>
</a>
</g>
</g>
<!-- Node18 -->
<g id="Node000018" class="node">
<title>Node18</title>
<g id="a_Node000018"><a xlink:title=" ">
<polygon fill="#e0e0e0" stroke="#999999" points="1228.88,-80.12 1179.12,-80.12 1179.12,-60.88 1228.88,-60.88 1228.88,-80.12"/>
<text text-anchor="middle" x="1204" y="-66.62" font-family="Helvetica,sans-Serif" font-size="10.00">optional</text>
</a>
</g>
</g>
<!-- Node15&#45;&gt;Node18 -->
<g id="edge26_Node000015_Node000018" class="edge">
<title>Node15&#45;&gt;Node18</title>
<g id="a_edge26_Node000015_Node000018"><a xlink:title=" ">
<path fill="none" stroke="#63b8ff" d="M959,-125.18C1012.37,-118.94 1098.22,-106.61 1170,-85.75 1171.35,-85.36 1172.72,-84.93 1174.09,-84.47"/>
<polygon fill="#63b8ff" stroke="#63b8ff" points="1174.95,-87.89 1183.08,-81.1 1172.49,-81.33 1174.95,-87.89"/>
</a>
</g>
</g>
<!-- Node19 -->
<g id="Node000019" class="node">
<title>Node19</title>
<g id="a_Node000019"><a xlink:title=" ">
<polygon fill="#e0e0e0" stroke="#999999" points="1298.62,-80.12 1247.38,-80.12 1247.38,-60.88 1298.62,-60.88 1298.62,-80.12"/>
<text text-anchor="middle" x="1273" y="-66.62" font-family="Helvetica,sans-Serif" font-size="10.00">ostream</text>
</a>
</g>
</g>
<!-- Node15&#45;&gt;Node19 -->
<g id="edge27_Node000015_Node000019" class="edge">
<title>Node15&#45;&gt;Node19</title>
<g id="a_edge27_Node000015_Node000019"><a xlink:title=" ">
<path fill="none" stroke="#63b8ff" d="M959.1,-127.47C1024.63,-122.84 1141.36,-111.51 1238,-85.75 1239.58,-85.33 1241.19,-84.85 1242.81,-84.34"/>
<polygon fill="#63b8ff" stroke="#63b8ff" points="1243.68,-87.74 1251.89,-81.04 1241.29,-81.16 1243.68,-87.74"/>
</a>
</g>
</g>
<!-- Node20 -->
<g id="Node000020" class="node">
<title>Node20</title>
<g id="a_Node000020"><a xlink:href="../../db/d4e/utf8__char_8hpp.html" target="_top" xlink:title=" ">
<polygon fill="white" stroke="#666666" points="1027.5,-85.75 912.5,-85.75 912.5,-55.25 1027.5,-55.25 1027.5,-85.75"/>
<text text-anchor="start" x="920.5" y="-72.25" font-family="Helvetica,sans-Serif" font-size="10.00">Ark/Compiler/AST/utf8</text>
<text text-anchor="middle" x="970" y="-61" font-family="Helvetica,sans-Serif" font-size="10.00">_char.hpp</text>
</a>
</g>
</g>
<!-- Node15&#45;&gt;Node20 -->
<g id="edge29_Node000015_Node000020" class="edge">
<title>Node15&#45;&gt;Node20</title>
<g id="a_edge29_Node000015_Node000020"><a xlink:title=" ">
<path fill="none" stroke="#63b8ff" d="M917.42,-121.43C925.14,-114.09 936.42,-103.38 946.56,-93.76"/>
<polygon fill="#63b8ff" stroke="#63b8ff" points="948.76,-96.5 953.6,-87.07 943.94,-91.42 948.76,-96.5"/>
</a>
</g>
</g>
<!-- Node20&#45;&gt;Node5 -->
<g id="edge31_Node000020_Node000005" class="edge">
<title>Node20&#45;&gt;Node5</title>
<g id="a_edge31_Node000020_Node000005"><a xlink:title=" ">
<path fill="none" stroke="#63b8ff" d="M932.29,-54.8C906.8,-44.86 873.57,-31.9 849.7,-22.59"/>
<polygon fill="#63b8ff" stroke="#63b8ff" points="851.13,-19.39 840.54,-19.02 848.58,-25.92 851.13,-19.39"/>
</a>
</g>
</g>
<!-- Node20&#45;&gt;Node7 -->
<g id="edge30_Node000020_Node000007" class="edge">
<title>Node20&#45;&gt;Node7</title>
<g id="a_edge30_Node000020_Node000007"><a xlink:title=" ">
<path fill="none" stroke="#63b8ff" d="M952.2,-54.95C941.77,-46.41 928.56,-35.62 917.8,-26.81"/>
<polygon fill="#63b8ff" stroke="#63b8ff" points="920.23,-24.28 910.27,-20.66 915.8,-29.7 920.23,-24.28"/>
</a>
</g>
</g>
<!-- Node21 -->
<g id="Node000021" class="node">
<title>Node21</title>
<g id="a_Node000021"><a xlink:title=" ">
<polygon fill="#e0e0e0" stroke="#999999" points="989.62,-19.25 950.38,-19.25 950.38,0 989.62,0 989.62,-19.25"/>
<text text-anchor="middle" x="970" y="-5.75" font-family="Helvetica,sans-Serif" font-size="10.00">limits</text>
</a>
</g>
</g>
<!-- Node20&#45;&gt;Node21 -->
<g id="edge32_Node000020_Node000021" class="edge">
<title>Node20&#45;&gt;Node21</title>
<g id="a_edge32_Node000020_Node000021"><a xlink:title=" ">
<path fill="none" stroke="#63b8ff" d="M970,-54.95C970,-47.71 970,-38.84 970,-30.94"/>
<polygon fill="#63b8ff" stroke="#63b8ff" points="973.5,-31.21 970,-21.21 966.5,-31.21 973.5,-31.21"/>
</a>
</g>
</g>
</g>
</svg>
