<?xml version="1.0" encoding="UTF-8" standalone="no"?>
<!DOCTYPE svg PUBLIC "-//W3C//DTD SVG 1.1//EN"
 "http://www.w3.org/Graphics/SVG/1.1/DTD/svg11.dtd">
<!-- Generated by graphviz version 12.2.0 (20241103.1931)
 -->
<!-- Title: /Users/fola/Documents/ArkScript/Ark/include/Ark/Compiler/Lowerer/ASTLowerer.hpp Pages: 1 -->
<!--zoomable 360 -->

<svg id="main" version="1.1" xmlns="http://www.w3.org/2000/svg" xmlns:xlink="http://www.w3.org/1999/xlink" xml:space="preserve" onload="init(evt)">

<style type="text/css"><![CDATA[
.node, .edge {opacity: 0.7;}
.node.selected, .edge.selected {opacity: 1;}
.edge:hover path { stroke: red; }
.edge:hover polygon { stroke: red; fill: red; }
]]></style>

<defs>
  <circle id="rim" cx="0" cy="0" r="7"/>
  <circle id="rim2" cx="0" cy="0" r="3.5"/>
  <g id="zoomPlus">
    <use xlink:href="#rim" fill="#404040"><set attributeName="fill" to="#808080" begin="zoomplus.mouseover" end="zoomplus.mouseout"/></use>
    <path d="M-4,0h8M0,-4v8" fill="none" stroke="white" stroke-width="1.5" pointer-events="none"/>
  </g>
  <g id="zoomMin">
    <use xlink:href="#rim" fill="#404040"><set attributeName="fill" to="#808080" begin="zoomminus.mouseover" end="zoomminus.mouseout"/></use>
    <path d="M-4,0h8" fill="none" stroke="white" stroke-width="1.5" pointer-events="none"/>
  </g>
  <g id="arrowUp" transform="translate(30 24)">
    <use xlink:href="#rim"/>
    <path pointer-events="none" fill="none" stroke="white" stroke-width="1.5" d="M0,-3.0v7 M-2.5,-0.5L0,-3.0L2.5,-0.5"/>
  </g>
  <g id="arrowRight" transform="rotate(90) translate(36 -43)">
    <use xlink:href="#rim"/>
    <path pointer-events="none" fill="none" stroke="white" stroke-width="1.5" d="M0,-3.0v7 M-2.5,-0.5L0,-3.0L2.5,-0.5"/>
  </g>
  <g id="arrowDown" transform="rotate(180) translate(-30 -48)">
    <use xlink:href="#rim"/>
    <path pointer-events="none" fill="none" stroke="white" stroke-width="1.5" d="M0,-3.0v7 M-2.5,-0.5L0,-3.0L2.5,-0.5"/>
  </g>
  <g id="arrowLeft" transform="rotate(270) translate(-36 17)">
    <use xlink:href="#rim"/>
    <path pointer-events="none" fill="none" stroke="white" stroke-width="1.5" d="M0,-3.0v7 M-2.5,-0.5L0,-3.0L2.5,-0.5"/>
  </g>
  <g id="resetDef">
    <use xlink:href="#rim2" fill="#404040"><set attributeName="fill" to="#808080" begin="reset.mouseover" end="reset.mouseout"/></use>
  </g>
</defs>
<script type="application/ecmascript">
var viewWidth = 1665;
var viewHeight = 360;
var sectionId = 'dynsection-0';
</script>
<script type="application/ecmascript" xlink:href="../../svg.min.js"/>
<svg id="graph" class="graph">
<g id="viewport">
<title>/Users/fola/Documents/ArkScript/Ark/include/Ark/Compiler/Lowerer/ASTLowerer.hpp</title>
<!-- Node1 -->
<g id="Node000001" class="node">
<title>Node1</title>
<g id="a_Node000001"><a xlink:title=" ">
<polygon fill="#999999" stroke="#666666" points="937.25,-351.75 748.75,-351.75 748.75,-310 937.25,-310 937.25,-351.75"/>
<text text-anchor="start" x="756.75" y="-338.25" font-family="Helvetica,sans-Serif" font-size="10.00">/Users/fola/Documents</text>
<text text-anchor="start" x="756.75" y="-327" font-family="Helvetica,sans-Serif" font-size="10.00">/ArkScript/Ark/include</text>
<text text-anchor="middle" x="843" y="-315.75" font-family="Helvetica,sans-Serif" font-size="10.00">/Ark/Compiler/Lowerer/ASTLowerer.hpp</text>
</a>
</g>
</g>
<!-- Node2 -->
<g id="Node000002" class="node">
<title>Node2</title>
<g id="a_Node000002"><a xlink:title=" ">
<polygon fill="#e0e0e0" stroke="#999999" points="40,-268.38 0,-268.38 0,-249.12 40,-249.12 40,-268.38"/>
<text text-anchor="middle" x="20" y="-254.88" font-family="Helvetica,sans-Serif" font-size="10.00">stack</text>
</a>
</g>
</g>
<!-- Node1&#45;&gt;Node2 -->
<g id="edge1_Node000001_Node000002" class="edge">
<title>Node1&#45;&gt;Node2</title>
<g id="a_edge1_Node000001_Node000002"><a xlink:title=" ">
<path fill="none" stroke="#63b8ff" d="M748.34,-327.03C568.38,-320.97 183.33,-304.8 54,-274 52.4,-273.62 50.79,-273.17 49.17,-272.68"/>
<polygon fill="#63b8ff" stroke="#63b8ff" points="50.71,-269.51 40.12,-269.38 48.32,-276.09 50.71,-269.51"/>
</a>
</g>
</g>
<!-- Node3 -->
<g id="Node000003" class="node">
<title>Node3</title>
<g id="a_Node000003"><a xlink:title=" ">
<polygon fill="#e0e0e0" stroke="#999999" points="884.5,-74.5 841.5,-74.5 841.5,-55.25 884.5,-55.25 884.5,-74.5"/>
<text text-anchor="middle" x="863" y="-61" font-family="Helvetica,sans-Serif" font-size="10.00">vector</text>
</a>
</g>
</g>
<!-- Node1&#45;&gt;Node3 -->
<g id="edge2_Node000001_Node000003" class="edge">
<title>Node1&#45;&gt;Node3</title>
<g id="a_edge2_Node000001_Node000003"><a xlink:title=" ">
<path fill="none" stroke="#63b8ff" d="M859.33,-309.55C866.97,-299.33 875.75,-286.48 882,-274 895.94,-246.17 899.05,-238.23 904,-207.5 906.16,-194.12 907.67,-190.05 904,-177 898.92,-158.95 889.27,-158.28 882,-141 874.5,-123.17 869.43,-101.68 866.43,-86.26"/>
<polygon fill="#63b8ff" stroke="#63b8ff" points="869.88,-85.65 864.66,-76.43 862.99,-86.9 869.88,-85.65"/>
</a>
</g>
</g>
<!-- Node4 -->
<g id="Node000004" class="node">
<title>Node4</title>
<g id="a_Node000004"><a xlink:title=" ">
<polygon fill="#e0e0e0" stroke="#999999" points="1295,-74.5 1255,-74.5 1255,-55.25 1295,-55.25 1295,-74.5"/>
<text text-anchor="middle" x="1275" y="-61" font-family="Helvetica,sans-Serif" font-size="10.00">string</text>
</a>
</g>
</g>
<!-- Node1&#45;&gt;Node4 -->
<g id="edge3_Node000001_Node000004" class="edge">
<title>Node1&#45;&gt;Node4</title>
<g id="a_edge3_Node000001_Node000004"><a xlink:title=" ">
<path fill="none" stroke="#63b8ff" d="M937.64,-327.79C1123.05,-322.96 1520.6,-308.67 1572,-274 1636.56,-230.46 1686.57,-168.85 1635,-110.5 1613.39,-86.04 1390.71,-71.93 1306.78,-67.45"/>
<polygon fill="#63b8ff" stroke="#63b8ff" points="1307.12,-63.96 1296.95,-66.94 1306.75,-70.95 1307.12,-63.96"/>
</a>
</g>
</g>
<!-- Node5 -->
<g id="Node000005" class="node">
<title>Node5</title>
<g id="a_Node000005"><a xlink:title=" ">
<polygon fill="#e0e0e0" stroke="#999999" points="827.88,-19.25 772.12,-19.25 772.12,0 827.88,0 827.88,-19.25"/>
<text text-anchor="middle" x="800" y="-5.75" font-family="Helvetica,sans-Serif" font-size="10.00">cinttypes</text>
</a>
</g>
</g>
<!-- Node1&#45;&gt;Node5 -->
<g id="edge4_Node000001_Node000005" class="edge">
<title>Node1&#45;&gt;Node5</title>
<g id="a_edge4_Node000001_Node000005"><a xlink:title=" ">
<path fill="none" stroke="#63b8ff" d="M748.36,-322.96C541.61,-306.58 68,-261.6 68,-193.25 68,-193.25 68,-193.25 68,-124.75 68,-92.73 62.17,-75.47 87,-55.25 139.39,-12.6 619.05,-10.22 760.76,-10.46"/>
<polygon fill="#63b8ff" stroke="#63b8ff" points="760.37,-13.96 770.37,-10.48 760.38,-6.96 760.37,-13.96"/>
</a>
</g>
</g>
<!-- Node6 -->
<g id="Node000006" class="node">
<title>Node6</title>
<g id="a_Node000006"><a xlink:title=" ">
<polygon fill="#e0e0e0" stroke="#999999" points="894.88,-201.88 845.12,-201.88 845.12,-182.62 894.88,-182.62 894.88,-201.88"/>
<text text-anchor="middle" x="870" y="-188.38" font-family="Helvetica,sans-Serif" font-size="10.00">optional</text>
</a>
</g>
</g>
<!-- Node1&#45;&gt;Node6 -->
<g id="edge5_Node000001_Node000006" class="edge">
<title>Node1&#45;&gt;Node6</title>
<g id="a_edge5_Node000001_Node000006"><a xlink:title=" ">
<path fill="none" stroke="#63b8ff" d="M853.25,-309.72C858.03,-299.33 863.25,-286.28 866,-274 870.5,-253.9 871.15,-230.3 870.89,-213.83"/>
<polygon fill="#63b8ff" stroke="#63b8ff" points="874.39,-213.75 870.59,-203.86 867.39,-213.96 874.39,-213.75"/>
</a>
</g>
</g>
<!-- Node7 -->
<g id="Node000007" class="node">
<title>Node7</title>
<g id="a_Node000007"><a xlink:href="../../d5/d40/Platform_8hpp.html" target="_top" xlink:title="ArkScript configuration macros.">
<polygon fill="white" stroke="#666666" points="980.75,-135.38 891.25,-135.38 891.25,-116.12 980.75,-116.12 980.75,-135.38"/>
<text text-anchor="middle" x="936" y="-121.88" font-family="Helvetica,sans-Serif" font-size="10.00">Ark/Platform.hpp</text>
</a>
</g>
</g>
<!-- Node1&#45;&gt;Node7 -->
<g id="edge6_Node000001_Node000007" class="edge">
<title>Node1&#45;&gt;Node7</title>
<g id="a_edge6_Node000001_Node000007"><a xlink:title=" ">
<path fill="none" stroke="#63b8ff" d="M897.68,-309.7C913.16,-301.16 928.18,-289.51 937,-274 959.9,-233.75 949.89,-176.75 942.08,-146.84"/>
<polygon fill="#63b8ff" stroke="#63b8ff" points="945.47,-145.94 939.38,-137.27 938.73,-147.84 945.47,-145.94"/>
</a>
</g>
</g>
<!-- Node8 -->
<g id="Node000008" class="node">
<title>Node8</title>
<g id="a_Node000008"><a xlink:href="../../d9/d11/Logger_8hpp.html" target="_top" xlink:title="Internal logger.">
<polygon fill="white" stroke="#666666" points="408.62,-135.38 327.38,-135.38 327.38,-116.12 408.62,-116.12 408.62,-135.38"/>
<text text-anchor="middle" x="368" y="-121.88" font-family="Helvetica,sans-Serif" font-size="10.00">Ark/Logger.hpp</text>
</a>
</g>
</g>
<!-- Node1&#45;&gt;Node8 -->
<g id="edge7_Node000001_Node000008" class="edge">
<title>Node1&#45;&gt;Node8</title>
<g id="a_edge7_Node000001_Node000008"><a xlink:title=" ">
<path fill="none" stroke="#63b8ff" d="M766.75,-309.56C733.79,-299.99 695.05,-287.67 661,-274 558.87,-233 443.91,-169.95 393.73,-141.54"/>
<polygon fill="#63b8ff" stroke="#63b8ff" points="395.5,-138.52 385.08,-136.61 392.04,-144.6 395.5,-138.52"/>
</a>
</g>
</g>
<!-- Node15 -->
<g id="Node000015" class="node">
<title>Node15</title>
<g id="a_Node000015"><a xlink:href="../../d8/daa/Instructions_8hpp.html" target="_top" xlink:title="The different instructions used by the compiler and virtual machine.">
<polygon fill="white" stroke="#666666" points="572.88,-135.38 427.12,-135.38 427.12,-116.12 572.88,-116.12 572.88,-135.38"/>
<text text-anchor="middle" x="500" y="-121.88" font-family="Helvetica,sans-Serif" font-size="10.00">Ark/Compiler/Instructions.hpp</text>
</a>
</g>
</g>
<!-- Node1&#45;&gt;Node15 -->
<g id="edge16_Node000001_Node000015" class="edge">
<title>Node1&#45;&gt;Node15</title>
<g id="a_edge16_Node000001_Node000015"><a xlink:title=" ">
<path fill="none" stroke="#63b8ff" d="M789.05,-309.5C765.22,-299.79 737.18,-287.38 713,-274 637.89,-232.44 556.33,-170.96 519.73,-142.4"/>
<polygon fill="#63b8ff" stroke="#63b8ff" points="522.24,-139.92 512.22,-136.5 517.92,-145.43 522.24,-139.92"/>
</a>
</g>
</g>
<!-- Node17 -->
<g id="Node000017" class="node">
<title>Node17</title>
<g id="a_Node000017"><a xlink:href="../../de/da6/Entity_8hpp.html" target="_top" xlink:title="An entity in the IR is a bundle of information.">
<polygon fill="white" stroke="#666666" points="764,-207.5 634,-207.5 634,-177 764,-177 764,-207.5"/>
<text text-anchor="start" x="642" y="-194" font-family="Helvetica,sans-Serif" font-size="10.00">Ark/Compiler/Intermediate</text>
<text text-anchor="middle" x="699" y="-182.75" font-family="Helvetica,sans-Serif" font-size="10.00">Representation/Entity.hpp</text>
</a>
</g>
</g>
<!-- Node1&#45;&gt;Node17 -->
<g id="edge18_Node000001_Node000017" class="edge">
<title>Node1&#45;&gt;Node17</title>
<g id="a_edge18_Node000001_Node000017"><a xlink:title=" ">
<path fill="none" stroke="#63b8ff" d="M789.76,-309.63C771.66,-300.78 752.38,-288.96 738,-274 722.86,-258.26 712.6,-235.52 706.42,-218.19"/>
<polygon fill="#63b8ff" stroke="#63b8ff" points="709.89,-217.52 703.42,-209.14 703.25,-219.73 709.89,-217.52"/>
</a>
</g>
</g>
<!-- Node19 -->
<g id="Node000019" class="node">
<title>Node19</title>
<g id="a_Node000019"><a xlink:href="../../d7/dc6/Node_8hpp.html" target="_top" xlink:title="AST node used by the parser, optimizer and compiler.">
<polygon fill="white" stroke="#666666" points="1372.25,-201.88 1231.75,-201.88 1231.75,-182.62 1372.25,-182.62 1372.25,-201.88"/>
<text text-anchor="middle" x="1302" y="-188.38" font-family="Helvetica,sans-Serif" font-size="10.00">Ark/Compiler/AST/Node.hpp</text>
</a>
</g>
</g>
<!-- Node1&#45;&gt;Node19 -->
<g id="edge24_Node000001_Node000019" class="edge">
<title>Node1&#45;&gt;Node19</title>
<g id="a_edge24_Node000001_Node000019"><a xlink:title=" ">
<path fill="none" stroke="#63b8ff" d="M937.32,-322.4C1031.84,-313.74 1170,-297.59 1218,-274 1247.85,-259.33 1274.02,-230.19 1288.91,-211.22"/>
<polygon fill="#63b8ff" stroke="#63b8ff" points="1291.64,-213.41 1294.89,-203.33 1286.06,-209.18 1291.64,-213.41"/>
</a>
</g>
</g>
<!-- Node28 -->
<g id="Node000028" class="node">
<title>Node28</title>
<g id="a_Node000028"><a xlink:href="../../dd/de7/ValTableElem_8hpp.html" target="_top" xlink:title="The basic value type handled by the compiler.">
<polygon fill="white" stroke="#666666" points="1563,-268.38 1409,-268.38 1409,-249.12 1563,-249.12 1563,-268.38"/>
<text text-anchor="middle" x="1486" y="-254.88" font-family="Helvetica,sans-Serif" font-size="10.00">Ark/Compiler/ValTableElem.hpp</text>
</a>
</g>
</g>
<!-- Node1&#45;&gt;Node28 -->
<g id="edge43_Node000001_Node000028" class="edge">
<title>Node1&#45;&gt;Node28</title>
<g id="a_edge43_Node000001_Node000028"><a xlink:title=" ">
<path fill="none" stroke="#63b8ff" d="M937.53,-319.57C1061.3,-306.07 1276.68,-282.58 1397.42,-269.41"/>
<polygon fill="#63b8ff" stroke="#63b8ff" points="1397.74,-272.9 1407.3,-268.33 1396.98,-265.94 1397.74,-272.9"/>
</a>
</g>
</g>
<!-- Node29 -->
<g id="Node000029" class="node">
<title>Node29</title>
<g id="a_Node000029"><a xlink:href="../../df/dd6/LocalsLocator_8hpp.html" target="_top" xlink:title="Track locals at compile.">
<polygon fill="white" stroke="#666666" points="857.25,-274 746.75,-274 746.75,-243.5 857.25,-243.5 857.25,-274"/>
<text text-anchor="start" x="754.75" y="-260.5" font-family="Helvetica,sans-Serif" font-size="10.00">Ark/Compiler/Lowerer</text>
<text text-anchor="middle" x="802" y="-249.25" font-family="Helvetica,sans-Serif" font-size="10.00">/LocalsLocator.hpp</text>
</a>
</g>
</g>
<!-- Node1&#45;&gt;Node29 -->
<g id="edge47_Node000001_Node000029" class="edge">
<title>Node1&#45;&gt;Node29</title>
<g id="a_edge47_Node000001_Node000029"><a xlink:title=" ">
<path fill="none" stroke="#63b8ff" d="M831.14,-309.59C826.48,-301.63 821.1,-292.42 816.24,-284.1"/>
<polygon fill="#63b8ff" stroke="#63b8ff" points="819.28,-282.37 811.21,-275.51 813.24,-285.91 819.28,-282.37"/>
</a>
</g>
</g>
<!-- Node8&#45;&gt;Node3 -->
<g id="edge13_Node000008_Node000003" class="edge">
<title>Node8&#45;&gt;Node3</title>
<g id="a_edge13_Node000008_Node000003"><a xlink:title=" ">
<path fill="none" stroke="#63b8ff" d="M396.61,-115.65C403.55,-113.71 411,-111.84 418,-110.5 570.07,-81.44 755.22,-70.58 829.66,-67.19"/>
<polygon fill="#63b8ff" stroke="#63b8ff" points="829.69,-70.7 839.53,-66.76 829.38,-63.7 829.69,-70.7"/>
</a>
</g>
</g>
<!-- Node8&#45;&gt;Node4 -->
<g id="edge10_Node000008_Node000004" class="edge">
<title>Node8&#45;&gt;Node4</title>
<g id="a_edge10_Node000008_Node000004"><a xlink:title=" ">
<path fill="none" stroke="#63b8ff" d="M395.78,-115.63C402.94,-113.61 410.7,-111.71 418,-110.5 459.45,-103.6 1093.61,-74.2 1243.45,-67.32"/>
<polygon fill="#63b8ff" stroke="#63b8ff" points="1243.19,-70.83 1253.02,-66.88 1242.87,-63.84 1243.19,-70.83"/>
</a>
</g>
</g>
<!-- Node9 -->
<g id="Node000009" class="node">
<title>Node9</title>
<g id="a_Node000009"><a xlink:title=" ">
<polygon fill="#e0e0e0" stroke="#999999" points="432.75,-74.5 379.25,-74.5 379.25,-55.25 432.75,-55.25 432.75,-74.5"/>
<text text-anchor="middle" x="406" y="-61" font-family="Helvetica,sans-Serif" font-size="10.00">iostream</text>
</a>
</g>
</g>
<!-- Node8&#45;&gt;Node9 -->
<g id="edge8_Node000008_Node000009" class="edge">
<title>Node8&#45;&gt;Node9</title>
<g id="a_edge8_Node000008_Node000009"><a xlink:title=" ">
<path fill="none" stroke="#63b8ff" d="M373.77,-115.81C379.13,-107.51 387.27,-94.89 394.03,-84.42"/>
<polygon fill="#63b8ff" stroke="#63b8ff" points="396.87,-86.47 399.35,-76.17 390.99,-82.68 396.87,-86.47"/>
</a>
</g>
</g>
<!-- Node10 -->
<g id="Node000010" class="node">
<title>Node10</title>
<g id="a_Node000010"><a xlink:title=" ">
<polygon fill="#e0e0e0" stroke="#999999" points="519.62,-74.5 450.38,-74.5 450.38,-55.25 519.62,-55.25 519.62,-74.5"/>
<text text-anchor="middle" x="485" y="-61" font-family="Helvetica,sans-Serif" font-size="10.00">fmt/format.h</text>
</a>
</g>
</g>
<!-- Node8&#45;&gt;Node10 -->
<g id="edge9_Node000008_Node000010" class="edge">
<title>Node8&#45;&gt;Node10</title>
<g id="a_edge9_Node000008_Node000010"><a xlink:title=" ">
<path fill="none" stroke="#63b8ff" d="M386.02,-115.68C404.97,-106.14 435.04,-91.02 457.06,-79.93"/>
<polygon fill="#63b8ff" stroke="#63b8ff" points="458.44,-83.16 465.79,-75.54 455.29,-76.91 458.44,-83.16"/>
</a>
</g>
</g>
<!-- Node11 -->
<g id="Node000011" class="node">
<title>Node11</title>
<g id="a_Node000011"><a xlink:title=" ">
<polygon fill="#e0e0e0" stroke="#999999" points="582.62,-74.5 537.38,-74.5 537.38,-55.25 582.62,-55.25 582.62,-74.5"/>
<text text-anchor="middle" x="560" y="-61" font-family="Helvetica,sans-Serif" font-size="10.00">chrono</text>
</a>
</g>
</g>
<!-- Node8&#45;&gt;Node11 -->
<g id="edge11_Node000008_Node000011" class="edge">
<title>Node8&#45;&gt;Node11</title>
<g id="a_edge11_Node000008_Node000011"><a xlink:title=" ">
<path fill="none" stroke="#63b8ff" d="M397.58,-115.68C432.37,-105.01 490,-87.34 526.44,-76.17"/>
<polygon fill="#63b8ff" stroke="#63b8ff" points="527.04,-79.64 535.57,-73.37 524.98,-72.95 527.04,-79.64"/>
</a>
</g>
</g>
<!-- Node12 -->
<g id="Node000012" class="node">
<title>Node12</title>
<g id="a_Node000012"><a xlink:title=" ">
<polygon fill="#e0e0e0" stroke="#999999" points="180.12,-74.5 95.88,-74.5 95.88,-55.25 180.12,-55.25 180.12,-74.5"/>
<text text-anchor="middle" x="138" y="-61" font-family="Helvetica,sans-Serif" font-size="10.00">source_location</text>
</a>
</g>
</g>
<!-- Node8&#45;&gt;Node12 -->
<g id="edge12_Node000008_Node000012" class="edge">
<title>Node8&#45;&gt;Node12</title>
<g id="a_edge12_Node000008_Node000012"><a xlink:title=" ">
<path fill="none" stroke="#63b8ff" d="M332.57,-115.68C292.81,-105.5 228.16,-88.95 184.4,-77.75"/>
<polygon fill="#63b8ff" stroke="#63b8ff" points="185.5,-74.42 174.94,-75.33 183.76,-81.2 185.5,-74.42"/>
</a>
</g>
</g>
<!-- Node13 -->
<g id="Node000013" class="node">
<title>Node13</title>
<g id="a_Node000013"><a xlink:title=" ">
<polygon fill="#e0e0e0" stroke="#999999" points="281.38,-74.5 198.62,-74.5 198.62,-55.25 281.38,-55.25 281.38,-74.5"/>
<text text-anchor="middle" x="240" y="-61" font-family="Helvetica,sans-Serif" font-size="10.00">unordered_map</text>
</a>
</g>
</g>
<!-- Node8&#45;&gt;Node13 -->
<g id="edge14_Node000008_Node000013" class="edge">
<title>Node8&#45;&gt;Node13</title>
<g id="a_edge14_Node000008_Node000013"><a xlink:title=" ">
<path fill="none" stroke="#63b8ff" d="M348.28,-115.68C327.36,-106.06 294.06,-90.74 269.91,-79.63"/>
<polygon fill="#63b8ff" stroke="#63b8ff" points="271.45,-76.49 260.91,-75.49 268.53,-82.85 271.45,-76.49"/>
</a>
</g>
</g>
<!-- Node14 -->
<g id="Node000014" class="node">
<title>Node14</title>
<g id="a_Node000014"><a xlink:title=" ">
<polygon fill="#e0e0e0" stroke="#999999" points="360.88,-74.5 299.12,-74.5 299.12,-55.25 360.88,-55.25 360.88,-74.5"/>
<text text-anchor="middle" x="330" y="-61" font-family="Helvetica,sans-Serif" font-size="10.00">fmt/color.h</text>
</a>
</g>
</g>
<!-- Node8&#45;&gt;Node14 -->
<g id="edge15_Node000008_Node000014" class="edge">
<title>Node8&#45;&gt;Node14</title>
<g id="a_edge15_Node000008_Node000014"><a xlink:title=" ">
<path fill="none" stroke="#63b8ff" d="M362.23,-115.81C356.87,-107.51 348.73,-94.89 341.97,-84.42"/>
<polygon fill="#63b8ff" stroke="#63b8ff" points="345.01,-82.68 336.65,-76.17 339.13,-86.47 345.01,-82.68"/>
</a>
</g>
</g>
<!-- Node16 -->
<g id="Node000016" class="node">
<title>Node16</title>
<g id="a_Node000016"><a xlink:title=" ">
<polygon fill="#e0e0e0" stroke="#999999" points="638.88,-74.5 601.12,-74.5 601.12,-55.25 638.88,-55.25 638.88,-74.5"/>
<text text-anchor="middle" x="620" y="-61" font-family="Helvetica,sans-Serif" font-size="10.00">array</text>
</a>
</g>
</g>
<!-- Node15&#45;&gt;Node16 -->
<g id="edge17_Node000015_Node000016" class="edge">
<title>Node15&#45;&gt;Node16</title>
<g id="a_edge17_Node000015_Node000016"><a xlink:title=" ">
<path fill="none" stroke="#63b8ff" d="M518.49,-115.68C538.01,-106.1 569.04,-90.88 591.65,-79.78"/>
<polygon fill="#63b8ff" stroke="#63b8ff" points="592.89,-83.07 600.33,-75.53 589.81,-76.79 592.89,-83.07"/>
</a>
</g>
</g>
<!-- Node17&#45;&gt;Node3 -->
<g id="edge20_Node000017_Node000003" class="edge">
<title>Node17&#45;&gt;Node3</title>
<g id="a_edge20_Node000017_Node000003"><a xlink:title=" ">
<path fill="none" stroke="#63b8ff" d="M719.69,-176.51C733.48,-166.61 751.95,-153.19 768,-141 794.24,-121.08 823.95,-97.4 843.05,-82.03"/>
<polygon fill="#63b8ff" stroke="#63b8ff" points="845.23,-84.76 850.82,-75.76 840.84,-79.31 845.23,-84.76"/>
</a>
</g>
</g>
<!-- Node17&#45;&gt;Node4 -->
<g id="edge21_Node000017_Node000004" class="edge">
<title>Node17&#45;&gt;Node4</title>
<g id="a_edge21_Node000017_Node000004"><a xlink:title=" ">
<path fill="none" stroke="#63b8ff" d="M764.27,-184.46C895.61,-170.79 1179.4,-141.24 1180,-141 1188.59,-137.5 1230.47,-103.13 1255.67,-82.11"/>
<polygon fill="#63b8ff" stroke="#63b8ff" points="1257.83,-84.88 1263.25,-75.77 1253.33,-79.51 1257.83,-84.88"/>
</a>
</g>
</g>
<!-- Node17&#45;&gt;Node5 -->
<g id="edge19_Node000017_Node000005" class="edge">
<title>Node17&#45;&gt;Node5</title>
<g id="a_edge19_Node000017_Node000005"><a xlink:title=" ">
<path fill="none" stroke="#63b8ff" d="M660.45,-176.59C644.98,-168.57 628.76,-156.96 620,-141 613.48,-129.12 613.12,-122.18 620,-110.5 650.29,-59.05 717.71,-32.21 760.89,-19.78"/>
<polygon fill="#63b8ff" stroke="#63b8ff" points="761.66,-23.2 770.39,-17.19 759.82,-16.45 761.66,-23.2"/>
</a>
</g>
</g>
<!-- Node17&#45;&gt;Node15 -->
<g id="edge23_Node000017_Node000015" class="edge">
<title>Node17&#45;&gt;Node15</title>
<g id="a_edge23_Node000017_Node000015"><a xlink:title=" ">
<path fill="none" stroke="#63b8ff" d="M653.84,-176.61C619.12,-165.36 571.67,-149.98 538.68,-139.29"/>
<polygon fill="#63b8ff" stroke="#63b8ff" points="540.12,-136.07 529.53,-136.32 537.96,-142.73 540.12,-136.07"/>
</a>
</g>
</g>
<!-- Node18 -->
<g id="Node000018" class="node">
<title>Node18</title>
<g id="a_Node000018"><a xlink:href="../../db/d53/Word_8hpp.html" target="_top" xlink:title="Describe an instruction and its immediate argument.">
<polygon fill="white" stroke="#666666" points="759,-141 629,-141 629,-110.5 759,-110.5 759,-141"/>
<text text-anchor="start" x="637" y="-127.5" font-family="Helvetica,sans-Serif" font-size="10.00">Ark/Compiler/Intermediate</text>
<text text-anchor="middle" x="694" y="-116.25" font-family="Helvetica,sans-Serif" font-size="10.00">Representation/Word.hpp</text>
</a>
</g>
</g>
<!-- Node17&#45;&gt;Node18 -->
<g id="edge22_Node000017_Node000018" class="edge">
<title>Node17&#45;&gt;Node18</title>
<g id="a_edge22_Node000017_Node000018"><a xlink:title=" ">
<path fill="none" stroke="#63b8ff" d="M697.87,-176.61C697.32,-169.52 696.64,-160.79 696.01,-152.63"/>
<polygon fill="#63b8ff" stroke="#63b8ff" points="699.51,-152.54 695.25,-142.84 692.53,-153.08 699.51,-152.54"/>
</a>
</g>
</g>
<!-- Node19&#45;&gt;Node3 -->
<g id="edge28_Node000019_Node000003" class="edge">
<title>Node19&#45;&gt;Node3</title>
<g id="a_edge28_Node000019_Node000003"><a xlink:title=" ">
<path fill="none" stroke="#63b8ff" d="M1248.74,-182.17C1171.9,-168.98 1037.99,-145.57 1028,-141 1008.31,-131.99 1008.93,-121.02 990,-110.5 959.75,-93.69 922,-81.4 895.55,-74.02"/>
<polygon fill="#63b8ff" stroke="#63b8ff" points="896.64,-70.69 886.07,-71.46 894.81,-77.45 896.64,-70.69"/>
</a>
</g>
</g>
<!-- Node19&#45;&gt;Node4 -->
<g id="edge27_Node000019_Node000004" class="edge">
<title>Node19&#45;&gt;Node4</title>
<g id="a_edge27_Node000019_Node000004"><a xlink:title=" ">
<path fill="none" stroke="#63b8ff" d="M1300.06,-182.23C1295.74,-162.17 1285.25,-113.45 1279.3,-85.83"/>
<polygon fill="#63b8ff" stroke="#63b8ff" points="1282.77,-85.33 1277.24,-76.29 1275.93,-86.8 1282.77,-85.33"/>
</a>
</g>
</g>
<!-- Node19&#45;&gt;Node7 -->
<g id="edge42_Node000019_Node000007" class="edge">
<title>Node19&#45;&gt;Node7</title>
<g id="a_edge42_Node000019_Node000007"><a xlink:title=" ">
<path fill="none" stroke="#63b8ff" d="M1248.69,-182.14C1238.5,-180.42 1227.92,-178.64 1218,-177 1118.95,-160.6 1093.42,-160.8 995,-141 990.99,-140.19 986.85,-139.31 982.69,-138.38"/>
<polygon fill="#63b8ff" stroke="#63b8ff" points="983.79,-135.04 973.26,-136.2 982.21,-141.86 983.79,-135.04"/>
</a>
</g>
</g>
<!-- Node20 -->
<g id="Node000020" class="node">
<title>Node20</title>
<g id="a_Node000020"><a xlink:title=" ">
<polygon fill="#e0e0e0" stroke="#999999" points="1606.62,-135.38 1561.38,-135.38 1561.38,-116.12 1606.62,-116.12 1606.62,-135.38"/>
<text text-anchor="middle" x="1584" y="-121.88" font-family="Helvetica,sans-Serif" font-size="10.00">variant</text>
</a>
</g>
</g>
<!-- Node19&#45;&gt;Node20 -->
<g id="edge25_Node000019_Node000020" class="edge">
<title>Node19&#45;&gt;Node20</title>
<g id="a_edge25_Node000019_Node000020"><a xlink:title=" ">
<path fill="none" stroke="#63b8ff" d="M1367.49,-182.14C1418.51,-174.08 1490.74,-160.53 1552,-141 1552.99,-140.68 1553.99,-140.35 1554.99,-139.99"/>
<polygon fill="#63b8ff" stroke="#63b8ff" points="1556.25,-143.26 1564.25,-136.31 1553.67,-136.76 1556.25,-143.26"/>
</a>
</g>
</g>
<!-- Node21 -->
<g id="Node000021" class="node">
<title>Node21</title>
<g id="a_Node000021"><a xlink:title=" ">
<polygon fill="#e0e0e0" stroke="#999999" points="1354.62,-135.38 1303.38,-135.38 1303.38,-116.12 1354.62,-116.12 1354.62,-135.38"/>
<text text-anchor="middle" x="1329" y="-121.88" font-family="Helvetica,sans-Serif" font-size="10.00">ostream</text>
</a>
</g>
</g>
<!-- Node19&#45;&gt;Node21 -->
<g id="edge26_Node000019_Node000021" class="edge">
<title>Node19&#45;&gt;Node21</title>
<g id="a_edge26_Node000019_Node000021"><a xlink:title=" ">
<path fill="none" stroke="#63b8ff" d="M1305.75,-182.28C1309.66,-172.94 1315.91,-158.03 1320.94,-146.01"/>
<polygon fill="#63b8ff" stroke="#63b8ff" points="1324.06,-147.61 1324.69,-137.04 1317.6,-144.91 1324.06,-147.61"/>
</a>
</g>
</g>
<!-- Node22 -->
<g id="Node000022" class="node">
<title>Node22</title>
<g id="a_Node000022"><a xlink:href="../../da/d33/Namespace_8hpp.html" target="_top" xlink:title=" ">
<polygon fill="white" stroke="#666666" points="1542.88,-135.38 1373.12,-135.38 1373.12,-116.12 1542.88,-116.12 1542.88,-135.38"/>
<text text-anchor="middle" x="1458" y="-121.88" font-family="Helvetica,sans-Serif" font-size="10.00">Ark/Compiler/AST/Namespace.hpp</text>
</a>
</g>
</g>
<!-- Node19&#45;&gt;Node22 -->
<g id="edge29_Node000019_Node000022" class="edge">
<title>Node19&#45;&gt;Node22</title>
<g id="a_edge29_Node000019_Node000022"><a xlink:title=" ">
<path fill="none" stroke="#63b8ff" d="M1324.02,-182.15C1350.5,-171.2 1395.17,-152.73 1425.59,-140.15"/>
<polygon fill="#63b8ff" stroke="#63b8ff" points="1426.79,-143.44 1434.69,-136.39 1424.11,-136.97 1426.79,-143.44"/>
</a>
</g>
</g>
<!-- Node24 -->
<g id="Node000024" class="node">
<title>Node24</title>
<g id="a_Node000024"><a xlink:href="../../d8/ddd/Common_8hpp.html" target="_top" xlink:title="Common code for the compiler.">
<polygon fill="white" stroke="#666666" points="1171.25,-135.38 1036.75,-135.38 1036.75,-116.12 1171.25,-116.12 1171.25,-135.38"/>
<text text-anchor="middle" x="1104" y="-121.88" font-family="Helvetica,sans-Serif" font-size="10.00">Ark/Compiler/Common.hpp</text>
</a>
</g>
</g>
<!-- Node19&#45;&gt;Node24 -->
<g id="edge33_Node000019_Node000024" class="edge">
<title>Node19&#45;&gt;Node24</title>
<g id="a_edge33_Node000019_Node000024"><a xlink:title=" ">
<path fill="none" stroke="#63b8ff" d="M1274.05,-182.15C1239.71,-170.96 1181.25,-151.91 1142.62,-139.33"/>
<polygon fill="#63b8ff" stroke="#63b8ff" points="1143.84,-136.05 1133.25,-136.28 1141.67,-142.7 1143.84,-136.05"/>
</a>
</g>
</g>
<!-- Node22&#45;&gt;Node3 -->
<g id="edge31_Node000022_Node000003" class="edge">
<title>Node22&#45;&gt;Node3</title>
<g id="a_edge31_Node000022_Node000003"><a xlink:title=" ">
<path fill="none" stroke="#63b8ff" d="M1401.91,-115.67C1389.45,-113.81 1376.29,-111.98 1364,-110.5 1272.75,-99.53 992.83,-76.43 896.21,-68.56"/>
<polygon fill="#63b8ff" stroke="#63b8ff" points="896.61,-65.08 886.36,-67.76 896.04,-72.06 896.61,-65.08"/>
</a>
</g>
</g>
<!-- Node22&#45;&gt;Node4 -->
<g id="edge30_Node000022_Node000004" class="edge">
<title>Node22&#45;&gt;Node4</title>
<g id="a_edge30_Node000022_Node000004"><a xlink:title=" ">
<path fill="none" stroke="#63b8ff" d="M1429.81,-115.68C1396.39,-104.93 1340.87,-87.07 1306.19,-75.91"/>
<polygon fill="#63b8ff" stroke="#63b8ff" points="1307.32,-72.6 1296.73,-72.87 1305.18,-79.26 1307.32,-72.6"/>
</a>
</g>
</g>
<!-- Node23 -->
<g id="Node000023" class="node">
<title>Node23</title>
<g id="a_Node000023"><a xlink:title=" ">
<polygon fill="#e0e0e0" stroke="#999999" points="1483.62,-74.5 1432.38,-74.5 1432.38,-55.25 1483.62,-55.25 1483.62,-74.5"/>
<text text-anchor="middle" x="1458" y="-61" font-family="Helvetica,sans-Serif" font-size="10.00">memory</text>
</a>
</g>
</g>
<!-- Node22&#45;&gt;Node23 -->
<g id="edge32_Node000022_Node000023" class="edge">
<title>Node22&#45;&gt;Node23</title>
<g id="a_edge32_Node000022_Node000023"><a xlink:title=" ">
<path fill="none" stroke="#63b8ff" d="M1458,-115.81C1458,-108.03 1458,-96.45 1458,-86.41"/>
<polygon fill="#63b8ff" stroke="#63b8ff" points="1461.5,-86.41 1458,-76.41 1454.5,-86.41 1461.5,-86.41"/>
</a>
</g>
</g>
<!-- Node24&#45;&gt;Node3 -->
<g id="edge36_Node000024_Node000003" class="edge">
<title>Node24&#45;&gt;Node3</title>
<g id="a_edge36_Node000024_Node000003"><a xlink:title=" ">
<path fill="none" stroke="#63b8ff" d="M1066.87,-115.68C1020.09,-104.25 940.41,-84.79 895.78,-73.88"/>
<polygon fill="#63b8ff" stroke="#63b8ff" points="896.72,-70.51 886.17,-71.54 895.06,-77.31 896.72,-70.51"/>
</a>
</g>
</g>
<!-- Node24&#45;&gt;Node5 -->
<g id="edge37_Node000024_Node000005" class="edge">
<title>Node24&#45;&gt;Node5</title>
<g id="a_edge37_Node000024_Node000005"><a xlink:title=" ">
<path fill="none" stroke="#63b8ff" d="M1079.6,-115.71C1052.55,-105.68 1007.64,-88.99 969,-74.5 922.23,-56.96 868.24,-36.52 834.12,-23.58"/>
<polygon fill="#63b8ff" stroke="#63b8ff" points="835.78,-20.47 825.19,-20.19 833.3,-27.01 835.78,-20.47"/>
</a>
</g>
</g>
<!-- Node24&#45;&gt;Node16 -->
<g id="edge34_Node000024_Node000016" class="edge">
<title>Node24&#45;&gt;Node16</title>
<g id="a_edge34_Node000024_Node000016"><a xlink:title=" ">
<path fill="none" stroke="#63b8ff" d="M1036.49,-116.26C1021.21,-114.35 1005.05,-112.35 990,-110.5 863.91,-95.02 713.58,-77.03 650.37,-69.49"/>
<polygon fill="#63b8ff" stroke="#63b8ff" points="651.11,-66.06 640.77,-68.35 650.28,-73.01 651.11,-66.06"/>
</a>
</g>
</g>
<!-- Node25 -->
<g id="Node000025" class="node">
<title>Node25</title>
<g id="a_Node000025"><a xlink:title=" ">
<polygon fill="#e0e0e0" stroke="#999999" points="1135.75,-19.25 1070.25,-19.25 1070.25,0 1135.75,0 1135.75,-19.25"/>
<text text-anchor="middle" x="1103" y="-5.75" font-family="Helvetica,sans-Serif" font-size="10.00">string_view</text>
</a>
</g>
</g>
<!-- Node24&#45;&gt;Node25 -->
<g id="edge35_Node000024_Node000025" class="edge">
<title>Node24&#45;&gt;Node25</title>
<g id="a_edge35_Node000024_Node000025"><a xlink:title=" ">
<path fill="none" stroke="#63b8ff" d="M1103.92,-115.79C1103.76,-97.63 1103.4,-56.04 1103.18,-30.95"/>
<polygon fill="#63b8ff" stroke="#63b8ff" points="1106.68,-31.02 1103.09,-21.05 1099.68,-31.08 1106.68,-31.02"/>
</a>
</g>
</g>
<!-- Node26 -->
<g id="Node000026" class="node">
<title>Node26</title>
<g id="a_Node000026"><a xlink:href="../../d6/de9/Constants_8hpp.html" target="_top" xlink:title="Constants used by ArkScript.">
<polygon fill="white" stroke="#666666" points="1075.88,-74.5 978.12,-74.5 978.12,-55.25 1075.88,-55.25 1075.88,-74.5"/>
<text text-anchor="middle" x="1027" y="-61" font-family="Helvetica,sans-Serif" font-size="10.00">Ark/Constants.hpp</text>
</a>
</g>
</g>
<!-- Node24&#45;&gt;Node26 -->
<g id="edge38_Node000024_Node000026" class="edge">
<title>Node24&#45;&gt;Node26</title>
<g id="a_edge38_Node000024_Node000026"><a xlink:title=" ">
<path fill="none" stroke="#63b8ff" d="M1092.31,-115.81C1080.55,-106.82 1062.16,-92.76 1047.89,-81.85"/>
<polygon fill="#63b8ff" stroke="#63b8ff" points="1050.08,-79.11 1040.01,-75.82 1045.83,-84.67 1050.08,-79.11"/>
</a>
</g>
</g>
<!-- Node26&#45;&gt;Node5 -->
<g id="edge40_Node000026_Node000005" class="edge">
<title>Node26&#45;&gt;Node5</title>
<g id="a_edge40_Node000026_Node000005"><a xlink:title=" ">
<path fill="none" stroke="#63b8ff" d="M988.24,-54.78C946.68,-45.03 881.07,-29.64 839.31,-19.85"/>
<polygon fill="#63b8ff" stroke="#63b8ff" points="840.21,-16.46 829.68,-17.59 838.61,-23.28 840.21,-16.46"/>
</a>
</g>
</g>
<!-- Node26&#45;&gt;Node25 -->
<g id="edge39_Node000026_Node000025" class="edge">
<title>Node26&#45;&gt;Node25</title>
<g id="a_edge39_Node000026_Node000025"><a xlink:title=" ">
<path fill="none" stroke="#63b8ff" d="M1039.89,-54.84C1051.03,-47.04 1067.37,-35.59 1080.64,-26.29"/>
<polygon fill="#63b8ff" stroke="#63b8ff" points="1082.62,-29.18 1088.8,-20.57 1078.61,-23.44 1082.62,-29.18"/>
</a>
</g>
</g>
<!-- Node27 -->
<g id="Node000027" class="node">
<title>Node27</title>
<g id="a_Node000027"><a xlink:title=" ">
<polygon fill="#e0e0e0" stroke="#999999" points="1051.12,-19.25 1002.88,-19.25 1002.88,0 1051.12,0 1051.12,-19.25"/>
<text text-anchor="middle" x="1027" y="-5.75" font-family="Helvetica,sans-Serif" font-size="10.00">cstddef</text>
</a>
</g>
</g>
<!-- Node26&#45;&gt;Node27 -->
<g id="edge41_Node000026_Node000027" class="edge">
<title>Node26&#45;&gt;Node27</title>
<g id="a_edge41_Node000026_Node000027"><a xlink:title=" ">
<path fill="none" stroke="#63b8ff" d="M1027,-55.08C1027,-48.57 1027,-39.42 1027,-31.12"/>
<polygon fill="#63b8ff" stroke="#63b8ff" points="1030.5,-31.12 1027,-21.12 1023.5,-31.12 1030.5,-31.12"/>
</a>
</g>
</g>
<!-- Node28&#45;&gt;Node4 -->
<g id="edge45_Node000028_Node000004" class="edge">
<title>Node28&#45;&gt;Node4</title>
<g id="a_edge45_Node000028_Node000004"><a xlink:title=" ">
<path fill="none" stroke="#63b8ff" d="M1505.25,-248.63C1551.55,-225.55 1662,-162.91 1616,-110.5 1595.72,-87.4 1387.42,-72.59 1306.71,-67.68"/>
<polygon fill="#63b8ff" stroke="#63b8ff" points="1307.03,-64.19 1296.84,-67.09 1306.61,-71.18 1307.03,-64.19"/>
</a>
</g>
</g>
<!-- Node28&#45;&gt;Node19 -->
<g id="edge46_Node000028_Node000019" class="edge">
<title>Node28&#45;&gt;Node19</title>
<g id="a_edge46_Node000028_Node000019"><a xlink:title=" ">
<path fill="none" stroke="#63b8ff" d="M1460.03,-248.65C1428.25,-237.51 1374.25,-218.58 1338.35,-205.99"/>
<polygon fill="#63b8ff" stroke="#63b8ff" points="1339.86,-202.81 1329.27,-202.81 1337.55,-209.42 1339.86,-202.81"/>
</a>
</g>
</g>
<!-- Node28&#45;&gt;Node20 -->
<g id="edge44_Node000028_Node000020" class="edge">
<title>Node28&#45;&gt;Node20</title>
<g id="a_edge44_Node000028_Node000020"><a xlink:title=" ">
<path fill="none" stroke="#63b8ff" d="M1492.74,-248.75C1508.75,-227.34 1549.35,-173.07 1570.58,-144.68"/>
<polygon fill="#63b8ff" stroke="#63b8ff" points="1573.12,-147.13 1576.31,-137.03 1567.52,-142.94 1573.12,-147.13"/>
</a>
</g>
</g>
<!-- Node29&#45;&gt;Node3 -->
<g id="edge48_Node000029_Node000003" class="edge">
<title>Node29&#45;&gt;Node3</title>
<g id="a_edge48_Node000029_Node000003"><a xlink:title=" ">
<path fill="none" stroke="#63b8ff" d="M806.69,-243.01C817.56,-208.8 844.52,-124.01 856.77,-85.48"/>
<polygon fill="#63b8ff" stroke="#63b8ff" points="860.03,-86.75 859.73,-76.16 853.36,-84.63 860.03,-86.75"/>
</a>
</g>
</g>
<!-- Node29&#45;&gt;Node4 -->
<g id="edge49_Node000029_Node000004" class="edge">
<title>Node29&#45;&gt;Node4</title>
<g id="a_edge49_Node000029_Node000004"><a xlink:title=" ">
<path fill="none" stroke="#63b8ff" d="M857.53,-252.55C940.81,-242.55 1100.3,-214.65 1213,-141 1235.27,-126.45 1253.59,-101.4 1264.4,-84.26"/>
<polygon fill="#63b8ff" stroke="#63b8ff" points="1267.17,-86.44 1269.34,-76.07 1261.18,-82.82 1267.17,-86.44"/>
</a>
</g>
</g>
<!-- Node29&#45;&gt;Node6 -->
<g id="edge50_Node000029_Node000006" class="edge">
<title>Node29&#45;&gt;Node6</title>
<g id="a_edge50_Node000029_Node000006"><a xlink:title=" ">
<path fill="none" stroke="#63b8ff" d="M817.43,-243.11C827.84,-233.24 841.6,-220.19 852.43,-209.92"/>
<polygon fill="#63b8ff" stroke="#63b8ff" points="854.75,-212.54 859.6,-203.11 849.94,-207.46 854.75,-212.54"/>
</a>
</g>
</g>
</g>
</svg>

<g id="navigator" transform="translate(0 0)" fill="#404254">
  <rect fill="#f2f5e9" fill-opacity="0.5" stroke="#606060" stroke-width=".5" x="0" y="0" width="60" height="60"/>
  <use id="zoomplus" xlink:href="#zoomPlus" x="17" y="9" onmousedown="handleZoom(evt,'in')"/>
  <use id="zoomminus" xlink:href="#zoomMin" x="42" y="9" onmousedown="handleZoom(evt,'out')"/>
  <use id="reset" xlink:href="#resetDef" x="30" y="36" onmousedown="handleReset()"/>
   <use id="arrowup" xlink:href="#arrowUp" x="0" y="0" onmousedown="handlePan(0,-1)"/>
  <use id="arrowright" xlink:href="#arrowRight" x="0" y="0" onmousedown="handlePan(1,0)"/>
  <use id="arrowdown" xlink:href="#arrowDown" x="0" y="0" onmousedown="handlePan(0,1)"/>
  <use id="arrowleft" xlink:href="#arrowLeft" x="0" y="0" onmousedown="handlePan(-1,0)"/>
</g>
<svg viewBox="0 0 15 15" width="100%" height="30px" preserveAspectRatio="xMaxYMin meet">
 <g id="arrow_out" transform="scale(0.3 0.3)">
  <a xlink:href="ASTLowerer_8hpp__incl_org.svg" target="_base">
   <rect id="button" ry="5" rx="5" y="6" x="6" height="38" width="38"
        fill="#f2f5e9" fill-opacity="0.5" stroke="#606060" stroke-width="1.0"/>
   <path id="arrow"
     d="M 11.500037,31.436501 C 11.940474,20.09759 22.043105,11.32322 32.158766,21.979434 L 37.068811,17.246167 C 37.068811,17.246167 37.088388,32 37.088388,32 L 22.160133,31.978069 C 22.160133,31.978069 26.997745,27.140456 26.997745,27.140456 C 18.528582,18.264221 13.291696,25.230495 11.500037,31.436501 z"
     style="fill:#404040;"/>
  </a>
 </g>
</svg>

<style type='text/css'>
<![CDATA[
[data-mouse-over-selected='false'] { opacity: 0.7; }
[data-mouse-over-selected='true']  { opacity: 1.0; }
]]>
</style>
<script type="application/ecmascript"><![CDATA[
document.addEventListener('DOMContentLoaded', (event) => {
  highlightEdges();
  highlightAdjacentNodes();
});
]]></script>
</svg>
