<?xml version="1.0" encoding="UTF-8" standalone="no"?>
<!DOCTYPE svg PUBLIC "-//W3C//DTD SVG 1.1//EN"
 "http://www.w3.org/Graphics/SVG/1.1/DTD/svg11.dtd">
<!-- Generated by graphviz version 12.2.0 (20241103.1931)
 -->
<!-- Title: /Users/fola/Documents/ArkScript/Ark/include/Ark/Compiler/Lowerer/ASTLowerer.hpp Pages: 1 -->
<!--zoomable 349 -->

<svg id="main" version="1.1" xmlns="http://www.w3.org/2000/svg" xmlns:xlink="http://www.w3.org/1999/xlink" xml:space="preserve" onload="init(evt)">

<style type="text/css"><![CDATA[
.node, .edge {opacity: 0.7;}
.node.selected, .edge.selected {opacity: 1;}
.edge:hover path { stroke: red; }
.edge:hover polygon { stroke: red; fill: red; }
]]></style>

<defs>
  <circle id="rim" cx="0" cy="0" r="7"/>
  <circle id="rim2" cx="0" cy="0" r="3.5"/>
  <g id="zoomPlus">
    <use xlink:href="#rim" fill="#404040"><set attributeName="fill" to="#808080" begin="zoomplus.mouseover" end="zoomplus.mouseout"/></use>
    <path d="M-4,0h8M0,-4v8" fill="none" stroke="white" stroke-width="1.5" pointer-events="none"/>
  </g>
  <g id="zoomMin">
    <use xlink:href="#rim" fill="#404040"><set attributeName="fill" to="#808080" begin="zoomminus.mouseover" end="zoomminus.mouseout"/></use>
    <path d="M-4,0h8" fill="none" stroke="white" stroke-width="1.5" pointer-events="none"/>
  </g>
  <g id="arrowUp" transform="translate(30 24)">
    <use xlink:href="#rim"/>
    <path pointer-events="none" fill="none" stroke="white" stroke-width="1.5" d="M0,-3.0v7 M-2.5,-0.5L0,-3.0L2.5,-0.5"/>
  </g>
  <g id="arrowRight" transform="rotate(90) translate(36 -43)">
    <use xlink:href="#rim"/>
    <path pointer-events="none" fill="none" stroke="white" stroke-width="1.5" d="M0,-3.0v7 M-2.5,-0.5L0,-3.0L2.5,-0.5"/>
  </g>
  <g id="arrowDown" transform="rotate(180) translate(-30 -48)">
    <use xlink:href="#rim"/>
    <path pointer-events="none" fill="none" stroke="white" stroke-width="1.5" d="M0,-3.0v7 M-2.5,-0.5L0,-3.0L2.5,-0.5"/>
  </g>
  <g id="arrowLeft" transform="rotate(270) translate(-36 17)">
    <use xlink:href="#rim"/>
    <path pointer-events="none" fill="none" stroke="white" stroke-width="1.5" d="M0,-3.0v7 M-2.5,-0.5L0,-3.0L2.5,-0.5"/>
  </g>
  <g id="resetDef">
    <use xlink:href="#rim2" fill="#404040"><set attributeName="fill" to="#808080" begin="reset.mouseover" end="reset.mouseout"/></use>
  </g>
</defs>
<script type="application/ecmascript">
var viewWidth = 1926;
var viewHeight = 349;
var sectionId = 'dynsection-0';
</script>
<script type="application/ecmascript" xlink:href="../../svg.min.js"/>
<svg id="graph" class="graph">
<g id="viewport">
<title>/Users/fola/Documents/ArkScript/Ark/include/Ark/Compiler/Lowerer/ASTLowerer.hpp</title>
<!-- Node1 -->
<g id="Node000001" class="node">
<title>Node1</title>
<g id="a_Node000001"><a xlink:title=" ">
<polygon fill="#999999" stroke="#666666" points="604.12,-340.5 415.62,-340.5 415.62,-298.75 604.12,-298.75 604.12,-340.5"/>
<text text-anchor="start" x="423.62" y="-327" font-family="Helvetica,sans-Serif" font-size="10.00">/Users/fola/Documents</text>
<text text-anchor="start" x="423.62" y="-315.75" font-family="Helvetica,sans-Serif" font-size="10.00">/ArkScript/Ark/include</text>
<text text-anchor="middle" x="509.88" y="-304.5" font-family="Helvetica,sans-Serif" font-size="10.00">/Ark/Compiler/Lowerer/ASTLowerer.hpp</text>
</a>
</g>
</g>
<!-- Node2 -->
<g id="Node000002" class="node">
<title>Node2</title>
<g id="a_Node000002"><a xlink:title=" ">
<polygon fill="#e0e0e0" stroke="#999999" points="107.88,-262.75 67.88,-262.75 67.88,-243.5 107.88,-243.5 107.88,-262.75"/>
<text text-anchor="middle" x="87.88" y="-249.25" font-family="Helvetica,sans-Serif" font-size="10.00">stack</text>
</a>
</g>
</g>
<!-- Node1&#45;&gt;Node2 -->
<g id="edge1_Node000001_Node000002" class="edge">
<title>Node1&#45;&gt;Node2</title>
<g id="a_edge1_Node000001_Node000002"><a xlink:title=" ">
<path fill="none" stroke="#63b8ff" d="M415.32,-307.84C336.46,-298.16 221.34,-282.47 121.88,-262.75 121.05,-262.59 120.21,-262.41 119.36,-262.24"/>
<polygon fill="#63b8ff" stroke="#63b8ff" points="120.3,-258.86 109.77,-260.02 118.72,-265.68 120.3,-258.86"/>
</a>
</g>
</g>
<!-- Node3 -->
<g id="Node000003" class="node">
<title>Node3</title>
<g id="a_Node000003"><a xlink:title=" ">
<polygon fill="#e0e0e0" stroke="#999999" points="725.38,-80.12 682.38,-80.12 682.38,-60.88 725.38,-60.88 725.38,-80.12"/>
<text text-anchor="middle" x="703.88" y="-66.62" font-family="Helvetica,sans-Serif" font-size="10.00">vector</text>
</a>
</g>
</g>
<!-- Node1&#45;&gt;Node3 -->
<g id="edge2_Node000001_Node000003" class="edge">
<title>Node1&#45;&gt;Node3</title>
<g id="a_edge2_Node000001_Node000003"><a xlink:title=" ">
<path fill="none" stroke="#63b8ff" d="M493.64,-298.35C464.79,-259.74 411.5,-174.76 454.88,-121.75 481.78,-88.87 609.21,-77.02 670.63,-73.17"/>
<polygon fill="#63b8ff" stroke="#63b8ff" points="670.69,-76.67 680.47,-72.59 670.28,-69.68 670.69,-76.67"/>
</a>
</g>
</g>
<!-- Node4 -->
<g id="Node000004" class="node">
<title>Node4</title>
<g id="a_Node000004"><a xlink:title=" ">
<polygon fill="#e0e0e0" stroke="#999999" points="538.88,-80.12 498.88,-80.12 498.88,-60.88 538.88,-60.88 538.88,-80.12"/>
<text text-anchor="middle" x="518.88" y="-66.62" font-family="Helvetica,sans-Serif" font-size="10.00">string</text>
</a>
</g>
</g>
<!-- Node1&#45;&gt;Node4 -->
<g id="edge3_Node000001_Node000004" class="edge">
<title>Node1&#45;&gt;Node4</title>
<g id="a_edge3_Node000001_Node000004"><a xlink:title=" ">
<path fill="none" stroke="#63b8ff" d="M459.52,-298.27C444.71,-289.64 430.24,-277.98 421.88,-262.75 417.75,-255.25 421.04,-252.02 421.88,-243.5 427.23,-188.61 415.59,-167.84 445.88,-121.75 456.24,-105.97 473.44,-93.78 488.54,-85.35"/>
<polygon fill="#63b8ff" stroke="#63b8ff" points="489.96,-88.56 497.2,-80.83 486.72,-82.35 489.96,-88.56"/>
</a>
</g>
</g>
<!-- Node5 -->
<g id="Node000005" class="node">
<title>Node5</title>
<g id="a_Node000005"><a xlink:title=" ">
<polygon fill="#e0e0e0" stroke="#999999" points="387.75,-19.25 332,-19.25 332,0 387.75,0 387.75,-19.25"/>
<text text-anchor="middle" x="359.88" y="-5.75" font-family="Helvetica,sans-Serif" font-size="10.00">cinttypes</text>
</a>
</g>
</g>
<!-- Node1&#45;&gt;Node5 -->
<g id="edge4_Node000001_Node000005" class="edge">
<title>Node1&#45;&gt;Node5</title>
<g id="a_edge4_Node000001_Node000005"><a xlink:title=" ">
<path fill="none" stroke="#63b8ff" d="M459.12,-298.27C443.12,-289.54 426.78,-277.82 415.88,-262.75 363.12,-189.86 358.66,-76.33 359.2,-30.66"/>
<polygon fill="#63b8ff" stroke="#63b8ff" points="362.69,-31.03 359.42,-20.95 355.69,-30.87 362.69,-31.03"/>
</a>
</g>
</g>
<!-- Node6 -->
<g id="Node000006" class="node">
<title>Node6</title>
<g id="a_Node000006"><a xlink:title=" ">
<polygon fill="#e0e0e0" stroke="#999999" points="1133.75,-80.12 1084,-80.12 1084,-60.88 1133.75,-60.88 1133.75,-80.12"/>
<text text-anchor="middle" x="1108.88" y="-66.62" font-family="Helvetica,sans-Serif" font-size="10.00">optional</text>
</a>
</g>
</g>
<!-- Node1&#45;&gt;Node6 -->
<g id="edge5_Node000001_Node000006" class="edge">
<title>Node1&#45;&gt;Node6</title>
<g id="a_edge5_Node000001_Node000006"><a xlink:title=" ">
<path fill="none" stroke="#63b8ff" d="M604.62,-303.54C751.45,-278.24 1023.95,-223 1089.88,-152.25 1105.04,-135.98 1108.82,-109.95 1109.44,-91.86"/>
<polygon fill="#63b8ff" stroke="#63b8ff" points="1112.94,-92.1 1109.45,-82.09 1105.94,-92.09 1112.94,-92.1"/>
</a>
</g>
</g>
<!-- Node7 -->
<g id="Node000007" class="node">
<title>Node7</title>
<g id="a_Node000007"><a xlink:href="../../d5/d40/Platform_8hpp.html" target="_top" xlink:title="ArkScript configuration macros.">
<polygon fill="white" stroke="#666666" points="1317.25,-80.12 1204.5,-80.12 1204.5,-60.88 1317.25,-60.88 1317.25,-80.12"/>
<text text-anchor="middle" x="1260.88" y="-66.62" font-family="Helvetica,sans-Serif" font-size="10.00">Ark/Utils/Platform.hpp</text>
</a>
</g>
</g>
<!-- Node1&#45;&gt;Node7 -->
<g id="edge6_Node000001_Node000007" class="edge">
<title>Node1&#45;&gt;Node7</title>
<g id="a_edge6_Node000001_Node000007"><a xlink:title=" ">
<path fill="none" stroke="#63b8ff" d="M604.27,-306.02C674.97,-295.98 773.88,-280.67 859.88,-262.75 1052.2,-222.66 1167.57,-307.56 1287.88,-152.25 1302.39,-133.52 1288.14,-106.58 1275.45,-89.06"/>
<polygon fill="#63b8ff" stroke="#63b8ff" points="1278.58,-87.37 1269.69,-81.6 1273.04,-91.66 1278.58,-87.37"/>
</a>
</g>
</g>
<!-- Node8 -->
<g id="Node000008" class="node">
<title>Node8</title>
<g id="a_Node000008"><a xlink:href="../../d9/d11/Logger_8hpp.html" target="_top" xlink:title="Internal logger.">
<polygon fill="white" stroke="#666666" points="1566.12,-146.62 1461.62,-146.62 1461.62,-127.38 1566.12,-127.38 1566.12,-146.62"/>
<text text-anchor="middle" x="1513.88" y="-133.12" font-family="Helvetica,sans-Serif" font-size="10.00">Ark/Utils/Logger.hpp</text>
</a>
</g>
</g>
<!-- Node1&#45;&gt;Node8 -->
<g id="edge7_Node000001_Node000008" class="edge">
<title>Node1&#45;&gt;Node8</title>
<g id="a_edge7_Node000001_Node000008"><a xlink:title=" ">
<path fill="none" stroke="#63b8ff" d="M604.58,-316.9C797,-312.67 1227.49,-299.32 1369.88,-262.75 1425.96,-248.35 1448.6,-250.05 1487.88,-207.5 1500.57,-193.74 1507.23,-173.21 1510.62,-158.03"/>
<polygon fill="#63b8ff" stroke="#63b8ff" points="1514.04,-158.76 1512.47,-148.29 1507.16,-157.46 1514.04,-158.76"/>
</a>
</g>
</g>
<!-- Node16 -->
<g id="Node000016" class="node">
<title>Node16</title>
<g id="a_Node000016"><a xlink:href="../../df/d5f/Pass_8hpp.html" target="_top" xlink:title="Interface for a compiler pass.">
<polygon fill="white" stroke="#666666" points="1478.5,-207.5 1361.25,-207.5 1361.25,-188.25 1478.5,-188.25 1478.5,-207.5"/>
<text text-anchor="middle" x="1419.88" y="-194" font-family="Helvetica,sans-Serif" font-size="10.00">Ark/Compiler/Pass.hpp</text>
</a>
</g>
</g>
<!-- Node1&#45;&gt;Node16 -->
<g id="edge18_Node000001_Node000016" class="edge">
<title>Node1&#45;&gt;Node16</title>
<g id="a_edge18_Node000001_Node000016"><a xlink:title=" ">
<path fill="none" stroke="#63b8ff" d="M604.62,-319.3C793.09,-319.5 1208.2,-313.9 1339.88,-262.75 1365.63,-252.74 1389.61,-231.33 1404.47,-216.06"/>
<polygon fill="#63b8ff" stroke="#63b8ff" points="1406.79,-218.7 1411.08,-209.01 1401.69,-213.91 1406.79,-218.7"/>
</a>
</g>
</g>
<!-- Node18 -->
<g id="Node000018" class="node">
<title>Node18</title>
<g id="a_Node000018"><a xlink:href="../../d8/daa/Instructions_8hpp.html" target="_top" xlink:title="The different instructions used by the compiler and virtual machine.">
<polygon fill="white" stroke="#666666" points="145.75,-80.12 0,-80.12 0,-60.88 145.75,-60.88 145.75,-80.12"/>
<text text-anchor="middle" x="72.88" y="-66.62" font-family="Helvetica,sans-Serif" font-size="10.00">Ark/Compiler/Instructions.hpp</text>
</a>
</g>
</g>
<!-- Node1&#45;&gt;Node18 -->
<g id="edge22_Node000001_Node000018" class="edge">
<title>Node1&#45;&gt;Node18</title>
<g id="a_edge22_Node000001_Node000018"><a xlink:title=" ">
<path fill="none" stroke="#63b8ff" d="M415.22,-305.61C373.06,-297.27 323.8,-283.89 282.88,-262.75 196,-217.88 117.72,-127.79 86.84,-89.44"/>
<polygon fill="#63b8ff" stroke="#63b8ff" points="89.62,-87.31 80.66,-81.65 84.14,-91.66 89.62,-87.31"/>
</a>
</g>
</g>
<!-- Node20 -->
<g id="Node000020" class="node">
<title>Node20</title>
<g id="a_Node000020"><a xlink:href="../../de/da6/Entity_8hpp.html" target="_top" xlink:title="An entity in the IR is a bundle of information.">
<polygon fill="white" stroke="#666666" points="293.88,-152.25 163.88,-152.25 163.88,-121.75 293.88,-121.75 293.88,-152.25"/>
<text text-anchor="start" x="171.88" y="-138.75" font-family="Helvetica,sans-Serif" font-size="10.00">Ark/Compiler/Intermediate</text>
<text text-anchor="middle" x="228.88" y="-127.5" font-family="Helvetica,sans-Serif" font-size="10.00">Representation/Entity.hpp</text>
</a>
</g>
</g>
<!-- Node1&#45;&gt;Node20 -->
<g id="edge24_Node000001_Node000020" class="edge">
<title>Node1&#45;&gt;Node20</title>
<g id="a_edge24_Node000001_Node000020"><a xlink:title=" ">
<path fill="none" stroke="#63b8ff" d="M415.26,-307.27C379,-299.32 338.93,-285.78 307.88,-262.75 273.31,-237.12 250.1,-191.46 238.23,-163.06"/>
<polygon fill="#63b8ff" stroke="#63b8ff" points="241.49,-161.79 234.52,-153.81 234.99,-164.39 241.49,-161.79"/>
</a>
</g>
</g>
<!-- Node22 -->
<g id="Node000022" class="node">
<title>Node22</title>
<g id="a_Node000022"><a xlink:href="../../d7/dc6/Node_8hpp.html" target="_top" xlink:title="AST node used by the parser, optimizer and compiler.">
<polygon fill="white" stroke="#666666" points="887.12,-207.5 746.62,-207.5 746.62,-188.25 887.12,-188.25 887.12,-207.5"/>
<text text-anchor="middle" x="816.88" y="-194" font-family="Helvetica,sans-Serif" font-size="10.00">Ark/Compiler/AST/Node.hpp</text>
</a>
</g>
</g>
<!-- Node1&#45;&gt;Node22 -->
<g id="edge31_Node000001_Node000022" class="edge">
<title>Node1&#45;&gt;Node22</title>
<g id="a_edge31_Node000001_Node000022"><a xlink:title=" ">
<path fill="none" stroke="#63b8ff" d="M593.97,-298.3C627.77,-289.03 666.74,-276.94 700.88,-262.75 734.2,-248.9 770.26,-228.02 793.19,-213.94"/>
<polygon fill="#63b8ff" stroke="#63b8ff" points="794.81,-217.05 801.45,-208.8 791.11,-211.11 794.81,-217.05"/>
</a>
</g>
</g>
<!-- Node32 -->
<g id="Node000032" class="node">
<title>Node32</title>
<g id="a_Node000032"><a xlink:href="../../dd/de7/ValTableElem_8hpp.html" target="_top" xlink:title="The basic value type handled by the compiler.">
<polygon fill="white" stroke="#666666" points="691.88,-262.75 537.88,-262.75 537.88,-243.5 691.88,-243.5 691.88,-262.75"/>
<text text-anchor="middle" x="614.88" y="-249.25" font-family="Helvetica,sans-Serif" font-size="10.00">Ark/Compiler/ValTableElem.hpp</text>
</a>
</g>
</g>
<!-- Node1&#45;&gt;Node32 -->
<g id="edge55_Node000001_Node000032" class="edge">
<title>Node1&#45;&gt;Node32</title>
<g id="a_edge55_Node000001_Node000032"><a xlink:title=" ">
<path fill="none" stroke="#63b8ff" d="M542.81,-298.39C558.3,-288.88 576.43,-277.74 590.64,-269.01"/>
<polygon fill="#63b8ff" stroke="#63b8ff" points="592.21,-272.15 598.9,-263.94 588.55,-266.19 592.21,-272.15"/>
</a>
</g>
</g>
<!-- Node33 -->
<g id="Node000033" class="node">
<title>Node33</title>
<g id="a_Node000033"><a xlink:href="../../df/dd6/LocalsLocator_8hpp.html" target="_top" xlink:title="Track locals at compile.">
<polygon fill="white" stroke="#666666" points="574.12,-152.25 463.62,-152.25 463.62,-121.75 574.12,-121.75 574.12,-152.25"/>
<text text-anchor="start" x="471.62" y="-138.75" font-family="Helvetica,sans-Serif" font-size="10.00">Ark/Compiler/Lowerer</text>
<text text-anchor="middle" x="518.88" y="-127.5" font-family="Helvetica,sans-Serif" font-size="10.00">/LocalsLocator.hpp</text>
</a>
</g>
</g>
<!-- Node1&#45;&gt;Node33 -->
<g id="edge59_Node000001_Node000033" class="edge">
<title>Node1&#45;&gt;Node33</title>
<g id="a_edge59_Node000001_Node000033"><a xlink:title=" ">
<path fill="none" stroke="#63b8ff" d="M510.89,-298.26C512.54,-265.1 515.81,-199.54 517.61,-163.39"/>
<polygon fill="#63b8ff" stroke="#63b8ff" points="521.08,-164.03 518.08,-153.86 514.09,-163.68 521.08,-164.03"/>
</a>
</g>
</g>
<!-- Node8&#45;&gt;Node3 -->
<g id="edge15_Node000008_Node000003" class="edge">
<title>Node8&#45;&gt;Node3</title>
<g id="a_edge15_Node000008_Node000003"><a xlink:title=" ">
<path fill="none" stroke="#63b8ff" d="M1461.32,-127.56C1446.34,-125.39 1429.99,-123.25 1414.88,-121.75 1126.08,-93.05 1050,-127.99 762.88,-85.75 754.35,-84.5 745.24,-82.59 736.8,-80.57"/>
<polygon fill="#63b8ff" stroke="#63b8ff" points="737.84,-77.22 727.29,-78.18 736.13,-84.01 737.84,-77.22"/>
</a>
</g>
</g>
<!-- Node8&#45;&gt;Node4 -->
<g id="edge12_Node000008_Node000004" class="edge">
<title>Node8&#45;&gt;Node4</title>
<g id="a_edge12_Node000008_Node000004"><a xlink:title=" ">
<path fill="none" stroke="#63b8ff" d="M1461.32,-127.49C1446.35,-125.33 1430,-123.2 1414.88,-121.75 1086.22,-90.2 1002.22,-108.97 672.88,-85.75 630.55,-82.77 581.8,-78.04 550.68,-74.85"/>
<polygon fill="#63b8ff" stroke="#63b8ff" points="551.09,-71.38 540.78,-73.83 550.37,-78.34 551.09,-71.38"/>
</a>
</g>
</g>
<!-- Node8&#45;&gt;Node7 -->
<g id="edge17_Node000008_Node000007" class="edge">
<title>Node8&#45;&gt;Node7</title>
<g id="a_edge17_Node000008_Node000007"><a xlink:title=" ">
<path fill="none" stroke="#63b8ff" d="M1478.16,-126.9C1433.43,-115.49 1356.68,-95.92 1307.39,-83.36"/>
<polygon fill="#63b8ff" stroke="#63b8ff" points="1308.43,-80.01 1297.87,-80.93 1306.7,-86.79 1308.43,-80.01"/>
</a>
</g>
</g>
<!-- Node9 -->
<g id="Node000009" class="node">
<title>Node9</title>
<g id="a_Node000009"><a xlink:title=" ">
<polygon fill="#e0e0e0" stroke="#999999" points="1917.62,-80.12 1864.12,-80.12 1864.12,-60.88 1917.62,-60.88 1917.62,-80.12"/>
<text text-anchor="middle" x="1890.88" y="-66.62" font-family="Helvetica,sans-Serif" font-size="10.00">iostream</text>
</a>
</g>
</g>
<!-- Node8&#45;&gt;Node9 -->
<g id="edge8_Node000008_Node000009" class="edge">
<title>Node8&#45;&gt;Node9</title>
<g id="a_edge8_Node000008_Node000009"><a xlink:title=" ">
<path fill="none" stroke="#63b8ff" d="M1566.34,-132.05C1633.95,-126.1 1754.73,-112.56 1854.88,-85.75 1856.46,-85.33 1858.07,-84.85 1859.68,-84.35"/>
<polygon fill="#63b8ff" stroke="#63b8ff" points="1860.52,-87.76 1868.78,-81.13 1858.19,-81.16 1860.52,-87.76"/>
</a>
</g>
</g>
<!-- Node10 -->
<g id="Node000010" class="node">
<title>Node10</title>
<g id="a_Node000010"><a xlink:title=" ">
<polygon fill="#e0e0e0" stroke="#999999" points="1404.5,-80.12 1335.25,-80.12 1335.25,-60.88 1404.5,-60.88 1404.5,-80.12"/>
<text text-anchor="middle" x="1369.88" y="-66.62" font-family="Helvetica,sans-Serif" font-size="10.00">fmt/format.h</text>
</a>
</g>
</g>
<!-- Node8&#45;&gt;Node10 -->
<g id="edge9_Node000008_Node000010" class="edge">
<title>Node8&#45;&gt;Node10</title>
<g id="a_edge9_Node000008_Node000010"><a xlink:title=" ">
<path fill="none" stroke="#63b8ff" d="M1493.55,-126.9C1469.32,-116.04 1428.59,-97.8 1400.53,-85.23"/>
<polygon fill="#63b8ff" stroke="#63b8ff" points="1402.04,-82.07 1391.48,-81.18 1399.17,-88.46 1402.04,-82.07"/>
</a>
</g>
</g>
<!-- Node11 -->
<g id="Node000011" class="node">
<title>Node11</title>
<g id="a_Node000011"><a xlink:title=" ">
<polygon fill="#e0e0e0" stroke="#999999" points="1484.75,-80.12 1423,-80.12 1423,-60.88 1484.75,-60.88 1484.75,-80.12"/>
<text text-anchor="middle" x="1453.88" y="-66.62" font-family="Helvetica,sans-Serif" font-size="10.00">fmt/color.h</text>
</a>
</g>
</g>
<!-- Node8&#45;&gt;Node11 -->
<g id="edge10_Node000008_Node000011" class="edge">
<title>Node8&#45;&gt;Node11</title>
<g id="a_edge10_Node000008_Node000011"><a xlink:title=" ">
<path fill="none" stroke="#63b8ff" d="M1505.53,-127.03C1496.31,-117.12 1481.23,-100.91 1469.74,-88.56"/>
<polygon fill="#63b8ff" stroke="#63b8ff" points="1472.55,-86.44 1463.18,-81.5 1467.43,-91.21 1472.55,-86.44"/>
</a>
</g>
</g>
<!-- Node12 -->
<g id="Node000012" class="node">
<title>Node12</title>
<g id="a_Node000012"><a xlink:title=" ">
<polygon fill="#e0e0e0" stroke="#999999" points="1579.25,-80.12 1502.5,-80.12 1502.5,-60.88 1579.25,-60.88 1579.25,-80.12"/>
<text text-anchor="middle" x="1540.88" y="-66.62" font-family="Helvetica,sans-Serif" font-size="10.00">fmt/ostream.h</text>
</a>
</g>
</g>
<!-- Node8&#45;&gt;Node12 -->
<g id="edge11_Node000008_Node000012" class="edge">
<title>Node8&#45;&gt;Node12</title>
<g id="a_edge11_Node000008_Node000012"><a xlink:title=" ">
<path fill="none" stroke="#63b8ff" d="M1517.63,-127.03C1521.54,-117.69 1527.78,-102.78 1532.81,-90.76"/>
<polygon fill="#63b8ff" stroke="#63b8ff" points="1535.94,-92.36 1536.57,-81.79 1529.48,-89.66 1535.94,-92.36"/>
</a>
</g>
</g>
<!-- Node13 -->
<g id="Node000013" class="node">
<title>Node13</title>
<g id="a_Node000013"><a xlink:title=" ">
<polygon fill="#e0e0e0" stroke="#999999" points="1642.5,-80.12 1597.25,-80.12 1597.25,-60.88 1642.5,-60.88 1642.5,-80.12"/>
<text text-anchor="middle" x="1619.88" y="-66.62" font-family="Helvetica,sans-Serif" font-size="10.00">chrono</text>
</a>
</g>
</g>
<!-- Node8&#45;&gt;Node13 -->
<g id="edge13_Node000008_Node000013" class="edge">
<title>Node8&#45;&gt;Node13</title>
<g id="a_edge13_Node000008_Node000013"><a xlink:title=" ">
<path fill="none" stroke="#63b8ff" d="M1528.61,-127.03C1545.84,-116.55 1574.62,-99.04 1595.25,-86.48"/>
<polygon fill="#63b8ff" stroke="#63b8ff" points="1596.9,-89.58 1603.63,-81.39 1593.26,-83.6 1596.9,-89.58"/>
</a>
</g>
</g>
<!-- Node14 -->
<g id="Node000014" class="node">
<title>Node14</title>
<g id="a_Node000014"><a xlink:title=" ">
<polygon fill="#e0e0e0" stroke="#999999" points="1745,-80.12 1660.75,-80.12 1660.75,-60.88 1745,-60.88 1745,-80.12"/>
<text text-anchor="middle" x="1702.88" y="-66.62" font-family="Helvetica,sans-Serif" font-size="10.00">source_location</text>
</a>
</g>
</g>
<!-- Node8&#45;&gt;Node14 -->
<g id="edge14_Node000008_Node000014" class="edge">
<title>Node8&#45;&gt;Node14</title>
<g id="a_edge14_Node000008_Node000014"><a xlink:title=" ">
<path fill="none" stroke="#63b8ff" d="M1540.55,-126.9C1573.2,-115.76 1628.66,-96.83 1665.53,-84.24"/>
<polygon fill="#63b8ff" stroke="#63b8ff" points="1666.57,-87.59 1674.9,-81.05 1664.31,-80.96 1666.57,-87.59"/>
</a>
</g>
</g>
<!-- Node15 -->
<g id="Node000015" class="node">
<title>Node15</title>
<g id="a_Node000015"><a xlink:title=" ">
<polygon fill="#e0e0e0" stroke="#999999" points="1846.25,-80.12 1763.5,-80.12 1763.5,-60.88 1846.25,-60.88 1846.25,-80.12"/>
<text text-anchor="middle" x="1804.88" y="-66.62" font-family="Helvetica,sans-Serif" font-size="10.00">unordered_map</text>
</a>
</g>
</g>
<!-- Node8&#45;&gt;Node15 -->
<g id="edge16_Node000008_Node000015" class="edge">
<title>Node8&#45;&gt;Node15</title>
<g id="a_edge16_Node000008_Node000015"><a xlink:title=" ">
<path fill="none" stroke="#63b8ff" d="M1561.9,-126.91C1610.5,-117.49 1687.71,-101.9 1753.88,-85.75 1756.79,-85.04 1759.79,-84.28 1762.8,-83.49"/>
<polygon fill="#63b8ff" stroke="#63b8ff" points="1763.46,-86.94 1772.21,-80.96 1761.65,-80.18 1763.46,-86.94"/>
</a>
</g>
</g>
<!-- Node16&#45;&gt;Node7 -->
<g id="edge19_Node000016_Node000007" class="edge">
<title>Node16&#45;&gt;Node7</title>
<g id="a_edge19_Node000016_Node000007"><a xlink:title=" ">
<path fill="none" stroke="#63b8ff" d="M1422.2,-187.9C1425.59,-172.57 1429.96,-141.15 1414.88,-121.75 1407.96,-112.86 1349.4,-95.42 1306.54,-83.61"/>
<polygon fill="#63b8ff" stroke="#63b8ff" points="1307.5,-80.25 1296.93,-80.99 1305.66,-87 1307.5,-80.25"/>
</a>
</g>
</g>
<!-- Node16&#45;&gt;Node8 -->
<g id="edge20_Node000016_Node000008" class="edge">
<title>Node16&#45;&gt;Node8</title>
<g id="a_edge20_Node000016_Node000008"><a xlink:title=" ">
<path fill="none" stroke="#63b8ff" d="M1434.15,-187.93C1448.92,-178.68 1472.25,-164.07 1489.86,-153.04"/>
<polygon fill="#63b8ff" stroke="#63b8ff" points="1491.56,-156.1 1498.18,-147.83 1487.85,-150.17 1491.56,-156.1"/>
</a>
</g>
</g>
<!-- Node17 -->
<g id="Node000017" class="node">
<title>Node17</title>
<g id="a_Node000017"><a xlink:title=" ">
<polygon fill="#e0e0e0" stroke="#999999" points="1405.5,-146.62 1354.25,-146.62 1354.25,-127.38 1405.5,-127.38 1405.5,-146.62"/>
<text text-anchor="middle" x="1379.88" y="-133.12" font-family="Helvetica,sans-Serif" font-size="10.00">ostream</text>
</a>
</g>
</g>
<!-- Node16&#45;&gt;Node17 -->
<g id="edge21_Node000016_Node000017" class="edge">
<title>Node16&#45;&gt;Node17</title>
<g id="a_edge21_Node000016_Node000017"><a xlink:title=" ">
<path fill="none" stroke="#63b8ff" d="M1413.8,-187.93C1408.16,-179.63 1399.59,-167.02 1392.48,-156.55"/>
<polygon fill="#63b8ff" stroke="#63b8ff" points="1395.37,-154.58 1386.86,-148.28 1389.58,-158.52 1395.37,-154.58"/>
</a>
</g>
</g>
<!-- Node19 -->
<g id="Node000019" class="node">
<title>Node19</title>
<g id="a_Node000019"><a xlink:title=" ">
<polygon fill="#e0e0e0" stroke="#999999" points="202.75,-19.25 165,-19.25 165,0 202.75,0 202.75,-19.25"/>
<text text-anchor="middle" x="183.88" y="-5.75" font-family="Helvetica,sans-Serif" font-size="10.00">array</text>
</a>
</g>
</g>
<!-- Node18&#45;&gt;Node19 -->
<g id="edge23_Node000018_Node000019" class="edge">
<title>Node18&#45;&gt;Node19</title>
<g id="a_edge23_Node000018_Node000019"><a xlink:title=" ">
<path fill="none" stroke="#63b8ff" d="M89.73,-60.56C107.58,-51.09 136.01,-36.01 156.97,-24.9"/>
<polygon fill="#63b8ff" stroke="#63b8ff" points="158.33,-28.14 165.52,-20.36 155.05,-21.95 158.33,-28.14"/>
</a>
</g>
</g>
<!-- Node20&#45;&gt;Node3 -->
<g id="edge26_Node000020_Node000003" class="edge">
<title>Node20&#45;&gt;Node3</title>
<g id="a_edge26_Node000020_Node000003"><a xlink:title=" ">
<path fill="none" stroke="#63b8ff" d="M293.93,-127.17C396.88,-113.19 593.64,-86.47 671.24,-75.93"/>
<polygon fill="#63b8ff" stroke="#63b8ff" points="671.29,-79.46 680.72,-74.64 670.34,-72.52 671.29,-79.46"/>
</a>
</g>
</g>
<!-- Node20&#45;&gt;Node4 -->
<g id="edge27_Node000020_Node000004" class="edge">
<title>Node20&#45;&gt;Node4</title>
<g id="a_edge27_Node000020_Node000004"><a xlink:title=" ">
<path fill="none" stroke="#63b8ff" d="M294.32,-121.44C354.56,-108.05 441.34,-88.75 487.39,-78.5"/>
<polygon fill="#63b8ff" stroke="#63b8ff" points="487.96,-81.96 496.97,-76.37 486.44,-75.13 487.96,-81.96"/>
</a>
</g>
</g>
<!-- Node20&#45;&gt;Node5 -->
<g id="edge25_Node000020_Node000005" class="edge">
<title>Node20&#45;&gt;Node5</title>
<g id="a_edge25_Node000020_Node000005"><a xlink:title=" ">
<path fill="none" stroke="#63b8ff" d="M254.71,-121.35C269.67,-112.19 288.34,-99.54 302.88,-85.75 321,-68.56 337.76,-45.17 348.36,-29.08"/>
<polygon fill="#63b8ff" stroke="#63b8ff" points="351.1,-31.28 353.56,-20.98 345.21,-27.5 351.1,-31.28"/>
</a>
</g>
</g>
<!-- Node20&#45;&gt;Node18 -->
<g id="edge30_Node000020_Node000018" class="edge">
<title>Node20&#45;&gt;Node18</title>
<g id="a_edge30_Node000020_Node000018"><a xlink:title=" ">
<path fill="none" stroke="#63b8ff" d="M193.48,-121.36C166.89,-110.37 130.78,-95.44 105.02,-84.79"/>
<polygon fill="#63b8ff" stroke="#63b8ff" points="106.64,-81.67 96.06,-81.09 103.97,-88.14 106.64,-81.67"/>
</a>
</g>
</g>
<!-- Node21 -->
<g id="Node000021" class="node">
<title>Node21</title>
<g id="a_Node000021"><a xlink:href="../../db/d53/Word_8hpp.html" target="_top" xlink:title="Describe an instruction and its immediate argument.">
<polygon fill="white" stroke="#666666" points="293.88,-85.75 163.88,-85.75 163.88,-55.25 293.88,-55.25 293.88,-85.75"/>
<text text-anchor="start" x="171.88" y="-72.25" font-family="Helvetica,sans-Serif" font-size="10.00">Ark/Compiler/Intermediate</text>
<text text-anchor="middle" x="228.88" y="-61" font-family="Helvetica,sans-Serif" font-size="10.00">Representation/Word.hpp</text>
</a>
</g>
</g>
<!-- Node20&#45;&gt;Node21 -->
<g id="edge28_Node000020_Node000021" class="edge">
<title>Node20&#45;&gt;Node21</title>
<g id="a_edge28_Node000020_Node000021"><a xlink:title=" ">
<path fill="none" stroke="#63b8ff" d="M228.88,-121.36C228.88,-114.27 228.88,-105.54 228.88,-97.38"/>
<polygon fill="#63b8ff" stroke="#63b8ff" points="232.38,-97.59 228.88,-87.59 225.38,-97.59 232.38,-97.59"/>
</a>
</g>
</g>
<!-- Node21&#45;&gt;Node5 -->
<g id="edge29_Node000021_Node000005" class="edge">
<title>Node21&#45;&gt;Node5</title>
<g id="a_edge29_Node000021_Node000005"><a xlink:title=" ">
<path fill="none" stroke="#63b8ff" d="M261.59,-54.8C282.41,-45.44 309.17,-33.41 329.51,-24.27"/>
<polygon fill="#63b8ff" stroke="#63b8ff" points="330.72,-27.57 338.4,-20.27 327.85,-21.18 330.72,-27.57"/>
</a>
</g>
</g>
<!-- Node22&#45;&gt;Node3 -->
<g id="edge35_Node000022_Node000003" class="edge">
<title>Node22&#45;&gt;Node3</title>
<g id="a_edge35_Node000022_Node000003"><a xlink:title=" ">
<path fill="none" stroke="#63b8ff" d="M780.3,-187.9C760.54,-181.22 737.29,-170.1 722.88,-152.25 709.04,-135.12 704.95,-109.65 703.91,-91.91"/>
<polygon fill="#63b8ff" stroke="#63b8ff" points="707.41,-92 703.63,-82.1 700.41,-92.2 707.41,-92"/>
</a>
</g>
</g>
<!-- Node22&#45;&gt;Node4 -->
<g id="edge34_Node000022_Node000004" class="edge">
<title>Node22&#45;&gt;Node4</title>
<g id="a_edge34_Node000022_Node000004"><a xlink:title=" ">
<path fill="none" stroke="#63b8ff" d="M792.09,-187.86C769.19,-179.32 734.34,-165.82 704.88,-152.25 678.42,-140.07 673.36,-133.87 646.88,-121.75 614.35,-106.87 576.05,-92.19 549.88,-82.58"/>
<polygon fill="#63b8ff" stroke="#63b8ff" points="551.13,-79.31 540.54,-79.18 548.74,-85.89 551.13,-79.31"/>
</a>
</g>
</g>
<!-- Node22&#45;&gt;Node6 -->
<g id="edge36_Node000022_Node000006" class="edge">
<title>Node22&#45;&gt;Node6</title>
<g id="a_edge36_Node000022_Node000006"><a xlink:title=" ">
<path fill="none" stroke="#63b8ff" d="M887.51,-190.72C949.94,-184.11 1035.25,-171.82 1062.88,-152.25 1083.72,-137.49 1096.38,-110.1 1103,-91.35"/>
<polygon fill="#63b8ff" stroke="#63b8ff" points="1106.3,-92.53 1106.04,-81.93 1099.64,-90.37 1106.3,-92.53"/>
</a>
</g>
</g>
<!-- Node22&#45;&gt;Node7 -->
<g id="edge51_Node000022_Node000007" class="edge">
<title>Node22&#45;&gt;Node7</title>
<g id="a_edge51_Node000022_Node000007"><a xlink:title=" ">
<path fill="none" stroke="#63b8ff" d="M887.45,-195.01C1008.17,-191.08 1243.79,-179.93 1268.88,-152.25 1283.7,-135.89 1277.38,-109.31 1270.25,-91.15"/>
<polygon fill="#63b8ff" stroke="#63b8ff" points="1273.46,-89.77 1266.26,-82 1267.05,-92.57 1273.46,-89.77"/>
</a>
</g>
</g>
<!-- Node22&#45;&gt;Node17 -->
<g id="edge33_Node000022_Node000017" class="edge">
<title>Node22&#45;&gt;Node17</title>
<g id="a_edge33_Node000022_Node000017"><a xlink:title=" ">
<path fill="none" stroke="#63b8ff" d="M887.38,-192.36C981.97,-185.86 1155.06,-172.37 1301.88,-152.25 1315.24,-150.42 1329.8,-147.9 1342.69,-145.49"/>
<polygon fill="#63b8ff" stroke="#63b8ff" points="1343.32,-148.93 1352.48,-143.62 1342,-142.06 1343.32,-148.93"/>
</a>
</g>
</g>
<!-- Node23 -->
<g id="Node000023" class="node">
<title>Node23</title>
<g id="a_Node000023"><a xlink:title=" ">
<polygon fill="#e0e0e0" stroke="#999999" points="637.5,-146.62 592.25,-146.62 592.25,-127.38 637.5,-127.38 637.5,-146.62"/>
<text text-anchor="middle" x="614.88" y="-133.12" font-family="Helvetica,sans-Serif" font-size="10.00">variant</text>
</a>
</g>
</g>
<!-- Node22&#45;&gt;Node23 -->
<g id="edge32_Node000022_Node000023" class="edge">
<title>Node22&#45;&gt;Node23</title>
<g id="a_edge32_Node000022_Node000023"><a xlink:title=" ">
<path fill="none" stroke="#63b8ff" d="M778.87,-187.78C745.21,-179.45 694.89,-166.31 651.88,-152.25 650.55,-151.82 649.2,-151.36 647.85,-150.89"/>
<polygon fill="#63b8ff" stroke="#63b8ff" points="649.46,-147.76 638.86,-147.63 647.07,-154.34 649.46,-147.76"/>
</a>
</g>
</g>
<!-- Node24 -->
<g id="Node000024" class="node">
<title>Node24</title>
<g id="a_Node000024"><a xlink:href="../../da/d33/Namespace_8hpp.html" target="_top" xlink:title=" ">
<polygon fill="white" stroke="#666666" points="901.75,-146.62 732,-146.62 732,-127.38 901.75,-127.38 901.75,-146.62"/>
<text text-anchor="middle" x="816.88" y="-133.12" font-family="Helvetica,sans-Serif" font-size="10.00">Ark/Compiler/AST/Namespace.hpp</text>
</a>
</g>
</g>
<!-- Node22&#45;&gt;Node24 -->
<g id="edge37_Node000022_Node000024" class="edge">
<title>Node22&#45;&gt;Node24</title>
<g id="a_edge37_Node000022_Node000024"><a xlink:title=" ">
<path fill="none" stroke="#63b8ff" d="M816.88,-187.93C816.88,-180.15 816.88,-168.58 816.88,-158.53"/>
<polygon fill="#63b8ff" stroke="#63b8ff" points="820.38,-158.54 816.88,-148.54 813.38,-158.54 820.38,-158.54"/>
</a>
</g>
</g>
<!-- Node26 -->
<g id="Node000026" class="node">
<title>Node26</title>
<g id="a_Node000026"><a xlink:href="../../d8/ddd/Common_8hpp.html" target="_top" xlink:title="Common code for the compiler.">
<polygon fill="white" stroke="#666666" points="1054.12,-146.62 919.62,-146.62 919.62,-127.38 1054.12,-127.38 1054.12,-146.62"/>
<text text-anchor="middle" x="986.88" y="-133.12" font-family="Helvetica,sans-Serif" font-size="10.00">Ark/Compiler/Common.hpp</text>
</a>
</g>
</g>
<!-- Node22&#45;&gt;Node26 -->
<g id="edge41_Node000022_Node000026" class="edge">
<title>Node22&#45;&gt;Node26</title>
<g id="a_edge41_Node000022_Node000026"><a xlink:title=" ">
<path fill="none" stroke="#63b8ff" d="M843.06,-187.8C871.64,-177.91 917.61,-161.99 949.87,-150.82"/>
<polygon fill="#63b8ff" stroke="#63b8ff" points="950.92,-154.16 959.23,-147.58 948.63,-147.54 950.92,-154.16"/>
</a>
</g>
</g>
<!-- Node31 -->
<g id="Node000031" class="node">
<title>Node31</title>
<g id="a_Node000031"><a xlink:href="../../dc/d58/Position_8hpp.html" target="_top" xlink:title="Defines position utilities (for text in a file) for the parser, formatter, diagnostics.">
<polygon fill="white" stroke="#666666" points="1259.5,-146.62 1148.25,-146.62 1148.25,-127.38 1259.5,-127.38 1259.5,-146.62"/>
<text text-anchor="middle" x="1203.88" y="-133.12" font-family="Helvetica,sans-Serif" font-size="10.00">Ark/Utils/Position.hpp</text>
</a>
</g>
</g>
<!-- Node22&#45;&gt;Node31 -->
<g id="edge52_Node000022_Node000031" class="edge">
<title>Node22&#45;&gt;Node31</title>
<g id="a_edge52_Node000022_Node000031"><a xlink:title=" ">
<path fill="none" stroke="#63b8ff" d="M876.5,-187.8C946.88,-177.1 1063.61,-159.34 1137.01,-148.17"/>
<polygon fill="#63b8ff" stroke="#63b8ff" points="1137.1,-151.7 1146.46,-146.73 1136.05,-144.78 1137.1,-151.7"/>
</a>
</g>
</g>
<!-- Node24&#45;&gt;Node3 -->
<g id="edge39_Node000024_Node000003" class="edge">
<title>Node24&#45;&gt;Node3</title>
<g id="a_edge39_Node000024_Node000003"><a xlink:title=" ">
<path fill="none" stroke="#63b8ff" d="M801.16,-127.03C782.63,-116.45 751.56,-98.72 729.52,-86.14"/>
<polygon fill="#63b8ff" stroke="#63b8ff" points="731.55,-83.27 721.13,-81.35 728.08,-89.35 731.55,-83.27"/>
</a>
</g>
</g>
<!-- Node24&#45;&gt;Node4 -->
<g id="edge38_Node000024_Node000004" class="edge">
<title>Node24&#45;&gt;Node4</title>
<g id="a_edge38_Node000024_Node000004"><a xlink:title=" ">
<path fill="none" stroke="#63b8ff" d="M774.81,-126.9C714.4,-113.82 604.43,-90.02 550.46,-78.34"/>
<polygon fill="#63b8ff" stroke="#63b8ff" points="551.22,-74.92 540.7,-76.22 549.74,-81.76 551.22,-74.92"/>
</a>
</g>
</g>
<!-- Node25 -->
<g id="Node000025" class="node">
<title>Node25</title>
<g id="a_Node000025"><a xlink:title=" ">
<polygon fill="#e0e0e0" stroke="#999999" points="823.5,-80.12 772.25,-80.12 772.25,-60.88 823.5,-60.88 823.5,-80.12"/>
<text text-anchor="middle" x="797.88" y="-66.62" font-family="Helvetica,sans-Serif" font-size="10.00">memory</text>
</a>
</g>
</g>
<!-- Node24&#45;&gt;Node25 -->
<g id="edge40_Node000024_Node000025" class="edge">
<title>Node24&#45;&gt;Node25</title>
<g id="a_edge40_Node000024_Node000025"><a xlink:title=" ">
<path fill="none" stroke="#63b8ff" d="M814.23,-127.03C811.51,-117.79 807.18,-103.08 803.66,-91.13"/>
<polygon fill="#63b8ff" stroke="#63b8ff" points="807.11,-90.45 800.92,-81.84 800.39,-92.43 807.11,-90.45"/>
</a>
</g>
</g>
<!-- Node26&#45;&gt;Node3 -->
<g id="edge44_Node000026_Node000003" class="edge">
<title>Node26&#45;&gt;Node3</title>
<g id="a_edge44_Node000026_Node000003"><a xlink:title=" ">
<path fill="none" stroke="#63b8ff" d="M945.54,-126.94C900.56,-117.03 826.53,-100.58 762.88,-85.75 754.41,-83.78 745.27,-81.6 736.77,-79.55"/>
<polygon fill="#63b8ff" stroke="#63b8ff" points="737.72,-76.18 727.18,-77.22 736.07,-82.98 737.72,-76.18"/>
</a>
</g>
</g>
<!-- Node26&#45;&gt;Node5 -->
<g id="edge45_Node000026_Node000005" class="edge">
<title>Node26&#45;&gt;Node5</title>
<g id="a_edge45_Node000026_Node000005"><a xlink:title=" ">
<path fill="none" stroke="#63b8ff" d="M977.15,-126.95C957.75,-109.5 912.09,-71.51 865.88,-55.25 779.95,-25.03 503.23,-14.52 399.57,-11.59"/>
<polygon fill="#63b8ff" stroke="#63b8ff" points="399.7,-8.1 389.61,-11.32 399.51,-15.09 399.7,-8.1"/>
</a>
</g>
</g>
<!-- Node26&#45;&gt;Node19 -->
<g id="edge42_Node000026_Node000019" class="edge">
<title>Node26&#45;&gt;Node19</title>
<g id="a_edge42_Node000026_Node000019"><a xlink:title=" ">
<path fill="none" stroke="#63b8ff" d="M957.1,-126.93C931.7,-118.43 894.79,-104.28 865.88,-85.75 849.06,-74.98 851.21,-63.16 832.88,-55.25 825.67,-52.14 341.48,-20.77 214.23,-12.58"/>
<polygon fill="#63b8ff" stroke="#63b8ff" points="214.77,-9.1 204.57,-11.95 214.32,-16.09 214.77,-9.1"/>
</a>
</g>
</g>
<!-- Node27 -->
<g id="Node000027" class="node">
<title>Node27</title>
<g id="a_Node000027"><a xlink:title=" ">
<polygon fill="#e0e0e0" stroke="#999999" points="960.62,-19.25 895.12,-19.25 895.12,0 960.62,0 960.62,-19.25"/>
<text text-anchor="middle" x="927.88" y="-5.75" font-family="Helvetica,sans-Serif" font-size="10.00">string_view</text>
</a>
</g>
</g>
<!-- Node26&#45;&gt;Node27 -->
<g id="edge43_Node000026_Node000027" class="edge">
<title>Node26&#45;&gt;Node27</title>
<g id="a_edge43_Node000026_Node000027"><a xlink:title=" ">
<path fill="none" stroke="#63b8ff" d="M977.9,-127.2C968.78,-117.76 954.89,-101.94 946.88,-85.75 938.11,-68.06 933.15,-45.96 930.51,-30.32"/>
<polygon fill="#63b8ff" stroke="#63b8ff" points="934.04,-30.24 929.09,-20.87 927.12,-31.28 934.04,-30.24"/>
</a>
</g>
</g>
<!-- Node28 -->
<g id="Node000028" class="node">
<title>Node28</title>
<g id="a_Node000028"><a xlink:href="../../d6/de9/Constants_8hpp.html" target="_top" xlink:title="Constants used by ArkScript.">
<polygon fill="white" stroke="#666666" points="1053.75,-80.12 956,-80.12 956,-60.88 1053.75,-60.88 1053.75,-80.12"/>
<text text-anchor="middle" x="1004.88" y="-66.62" font-family="Helvetica,sans-Serif" font-size="10.00">Ark/Constants.hpp</text>
</a>
</g>
</g>
<!-- Node26&#45;&gt;Node28 -->
<g id="edge46_Node000026_Node000028" class="edge">
<title>Node26&#45;&gt;Node28</title>
<g id="a_edge46_Node000026_Node000028"><a xlink:title=" ">
<path fill="none" stroke="#63b8ff" d="M989.38,-127.03C991.96,-117.79 996.06,-103.08 999.4,-91.13"/>
<polygon fill="#63b8ff" stroke="#63b8ff" points="1002.67,-92.42 1001.99,-81.85 995.93,-90.54 1002.67,-92.42"/>
</a>
</g>
</g>
<!-- Node28&#45;&gt;Node5 -->
<g id="edge49_Node000028_Node000005" class="edge">
<title>Node28&#45;&gt;Node5</title>
<g id="a_edge49_Node000028_Node000005"><a xlink:title=" ">
<path fill="none" stroke="#63b8ff" d="M955.63,-61.97C939.2,-59.61 920.77,-57.13 903.88,-55.25 715.5,-34.25 489.39,-18.82 399.51,-13.08"/>
<polygon fill="#63b8ff" stroke="#63b8ff" points="399.96,-9.6 389.76,-12.46 399.52,-16.59 399.96,-9.6"/>
</a>
</g>
</g>
<!-- Node28&#45;&gt;Node27 -->
<g id="edge47_Node000028_Node000027" class="edge">
<title>Node28&#45;&gt;Node27</title>
<g id="a_edge47_Node000028_Node000027"><a xlink:title=" ">
<path fill="none" stroke="#63b8ff" d="M993.18,-60.56C981.42,-51.57 963.04,-37.51 948.77,-26.6"/>
<polygon fill="#63b8ff" stroke="#63b8ff" points="950.95,-23.86 940.88,-20.57 946.7,-29.42 950.95,-23.86"/>
</a>
</g>
</g>
<!-- Node29 -->
<g id="Node000029" class="node">
<title>Node29</title>
<g id="a_Node000029"><a xlink:title=" ">
<polygon fill="#e0e0e0" stroke="#999999" points="1085.5,-19.25 1046.25,-19.25 1046.25,0 1085.5,0 1085.5,-19.25"/>
<text text-anchor="middle" x="1065.88" y="-5.75" font-family="Helvetica,sans-Serif" font-size="10.00">limits</text>
</a>
</g>
</g>
<!-- Node28&#45;&gt;Node29 -->
<g id="edge48_Node000028_Node000029" class="edge">
<title>Node28&#45;&gt;Node29</title>
<g id="a_edge48_Node000028_Node000029"><a xlink:title=" ">
<path fill="none" stroke="#63b8ff" d="M1014.14,-60.56C1023.19,-51.83 1037.18,-38.32 1048.34,-27.55"/>
<polygon fill="#63b8ff" stroke="#63b8ff" points="1050.67,-30.17 1055.43,-20.7 1045.81,-25.13 1050.67,-30.17"/>
</a>
</g>
</g>
<!-- Node30 -->
<g id="Node000030" class="node">
<title>Node30</title>
<g id="a_Node000030"><a xlink:title=" ">
<polygon fill="#e0e0e0" stroke="#999999" points="1028,-19.25 979.75,-19.25 979.75,0 1028,0 1028,-19.25"/>
<text text-anchor="middle" x="1003.88" y="-5.75" font-family="Helvetica,sans-Serif" font-size="10.00">cstddef</text>
</a>
</g>
</g>
<!-- Node28&#45;&gt;Node30 -->
<g id="edge50_Node000028_Node000030" class="edge">
<title>Node28&#45;&gt;Node30</title>
<g id="a_edge50_Node000028_Node000030"><a xlink:title=" ">
<path fill="none" stroke="#63b8ff" d="M1004.72,-60.56C1004.59,-52.78 1004.39,-41.2 1004.22,-31.16"/>
<polygon fill="#63b8ff" stroke="#63b8ff" points="1007.72,-31.1 1004.05,-21.16 1000.72,-31.22 1007.72,-31.1"/>
</a>
</g>
</g>
<!-- Node31&#45;&gt;Node6 -->
<g id="edge53_Node000031_Node000006" class="edge">
<title>Node31&#45;&gt;Node6</title>
<g id="a_edge53_Node000031_Node000006"><a xlink:title=" ">
<path fill="none" stroke="#63b8ff" d="M1190.67,-127.03C1175.44,-116.69 1150.14,-99.52 1131.71,-87"/>
<polygon fill="#63b8ff" stroke="#63b8ff" points="1133.77,-84.17 1123.53,-81.45 1129.84,-89.96 1133.77,-84.17"/>
</a>
</g>
</g>
<!-- Node31&#45;&gt;Node7 -->
<g id="edge54_Node000031_Node000007" class="edge">
<title>Node31&#45;&gt;Node7</title>
<g id="a_edge54_Node000031_Node000007"><a xlink:title=" ">
<path fill="none" stroke="#63b8ff" d="M1211.8,-127.03C1220.48,-117.21 1234.61,-101.23 1245.48,-88.92"/>
<polygon fill="#63b8ff" stroke="#63b8ff" points="1248.02,-91.34 1252.01,-81.53 1242.77,-86.7 1248.02,-91.34"/>
</a>
</g>
</g>
<!-- Node32&#45;&gt;Node4 -->
<g id="edge57_Node000032_Node000004" class="edge">
<title>Node32&#45;&gt;Node4</title>
<g id="a_edge57_Node000032_Node000004"><a xlink:title=" ">
<path fill="none" stroke="#63b8ff" d="M583.99,-243.06C545.76,-229.98 482.35,-201.79 454.88,-152.25 448.3,-140.4 448.95,-133.94 454.88,-121.75 462.21,-106.67 476.51,-94.76 489.73,-86.34"/>
<polygon fill="#63b8ff" stroke="#63b8ff" points="491.36,-89.44 498.2,-81.35 487.81,-83.41 491.36,-89.44"/>
</a>
</g>
</g>
<!-- Node32&#45;&gt;Node22 -->
<g id="edge58_Node000032_Node000022" class="edge">
<title>Node32&#45;&gt;Node22</title>
<g id="a_edge58_Node000032_Node000022"><a xlink:title=" ">
<path fill="none" stroke="#63b8ff" d="M649.14,-243.09C682.8,-234.22 734.37,-220.62 771.44,-210.85"/>
<polygon fill="#63b8ff" stroke="#63b8ff" points="772.2,-214.27 780.98,-208.34 770.41,-207.5 772.2,-214.27"/>
</a>
</g>
</g>
<!-- Node32&#45;&gt;Node23 -->
<g id="edge56_Node000032_Node000023" class="edge">
<title>Node32&#45;&gt;Node23</title>
<g id="a_edge56_Node000032_Node000023"><a xlink:title=" ">
<path fill="none" stroke="#63b8ff" d="M614.88,-243.17C614.88,-225 614.88,-183.42 614.88,-158.32"/>
<polygon fill="#63b8ff" stroke="#63b8ff" points="618.38,-158.43 614.88,-148.43 611.38,-158.43 618.38,-158.43"/>
</a>
</g>
</g>
<!-- Node33&#45;&gt;Node3 -->
<g id="edge60_Node000033_Node000003" class="edge">
<title>Node33&#45;&gt;Node3</title>
<g id="a_edge60_Node000033_Node000003"><a xlink:title=" ">
<path fill="none" stroke="#63b8ff" d="M560.85,-121.36C594.37,-109.68 640.65,-93.54 671.38,-82.83"/>
<polygon fill="#63b8ff" stroke="#63b8ff" points="672.23,-86.24 680.52,-79.64 669.93,-79.63 672.23,-86.24"/>
</a>
</g>
</g>
<!-- Node33&#45;&gt;Node4 -->
<g id="edge61_Node000033_Node000004" class="edge">
<title>Node33&#45;&gt;Node4</title>
<g id="a_edge61_Node000033_Node000004"><a xlink:title=" ">
<path fill="none" stroke="#63b8ff" d="M518.88,-121.36C518.88,-112.58 518.88,-101.27 518.88,-91.65"/>
<polygon fill="#63b8ff" stroke="#63b8ff" points="522.38,-91.84 518.88,-81.84 515.38,-91.84 522.38,-91.84"/>
</a>
</g>
</g>
<!-- Node33&#45;&gt;Node6 -->
<g id="edge62_Node000033_Node000006" class="edge">
<title>Node33&#45;&gt;Node6</title>
<g id="a_edge62_Node000033_Node000006"><a xlink:title=" ">
<path fill="none" stroke="#63b8ff" d="M574.29,-123.15C577.18,-122.64 580.06,-122.17 582.88,-121.75 794.5,-90.42 852.7,-125.66 1062.88,-85.75 1066.11,-85.14 1069.44,-84.37 1072.75,-83.52"/>
<polygon fill="#63b8ff" stroke="#63b8ff" points="1073.71,-86.89 1082.37,-80.79 1071.79,-80.16 1073.71,-86.89"/>
</a>
</g>
</g>
</g>
</svg>

<g id="navigator" transform="translate(0 0)" fill="#404254">
  <rect fill="#f2f5e9" fill-opacity="0.5" stroke="#606060" stroke-width=".5" x="0" y="0" width="60" height="60"/>
  <use id="zoomplus" xlink:href="#zoomPlus" x="17" y="9" onmousedown="handleZoom(evt,'in')"/>
  <use id="zoomminus" xlink:href="#zoomMin" x="42" y="9" onmousedown="handleZoom(evt,'out')"/>
  <use id="reset" xlink:href="#resetDef" x="30" y="36" onmousedown="handleReset()"/>
   <use id="arrowup" xlink:href="#arrowUp" x="0" y="0" onmousedown="handlePan(0,-1)"/>
  <use id="arrowright" xlink:href="#arrowRight" x="0" y="0" onmousedown="handlePan(1,0)"/>
  <use id="arrowdown" xlink:href="#arrowDown" x="0" y="0" onmousedown="handlePan(0,1)"/>
  <use id="arrowleft" xlink:href="#arrowLeft" x="0" y="0" onmousedown="handlePan(-1,0)"/>
</g>
<svg viewBox="0 0 15 15" width="100%" height="30px" preserveAspectRatio="xMaxYMin meet">
 <g id="arrow_out" transform="scale(0.3 0.3)">
  <a xlink:href="ASTLowerer_8hpp__incl_org.svg" target="_base">
   <rect id="button" ry="5" rx="5" y="6" x="6" height="38" width="38"
        fill="#f2f5e9" fill-opacity="0.5" stroke="#606060" stroke-width="1.0"/>
   <path id="arrow"
     d="M 11.500037,31.436501 C 11.940474,20.09759 22.043105,11.32322 32.158766,21.979434 L 37.068811,17.246167 C 37.068811,17.246167 37.088388,32 37.088388,32 L 22.160133,31.978069 C 22.160133,31.978069 26.997745,27.140456 26.997745,27.140456 C 18.528582,18.264221 13.291696,25.230495 11.500037,31.436501 z"
     style="fill:#404040;"/>
  </a>
 </g>
</svg>

<style type='text/css'>
<![CDATA[
[data-mouse-over-selected='false'] { opacity: 0.7; }
[data-mouse-over-selected='true']  { opacity: 1.0; }
]]>
</style>
<script type="application/ecmascript"><![CDATA[
document.addEventListener('DOMContentLoaded', (event) => {
  highlightEdges();
  highlightAdjacentNodes();
});
]]></script>
</svg>
