<?xml version="1.0" encoding="UTF-8" standalone="no"?>
<!DOCTYPE svg PUBLIC "-//W3C//DTD SVG 1.1//EN"
 "http://www.w3.org/Graphics/SVG/1.1/DTD/svg11.dtd">
<!-- Generated by graphviz version 12.2.0 (20241103.1931)
 -->
<!-- Title: Ark::internal::Pass Pages: 1 -->
<svg width="311pt" height="138pt"
 viewBox="0.00 0.00 310.75 138.25" xmlns="http://www.w3.org/2000/svg" xmlns:xlink="http://www.w3.org/1999/xlink">

<svg id="main" version="1.1" xmlns="http://www.w3.org/2000/svg" xmlns:xlink="http://www.w3.org/1999/xlink" xml:space="preserve">

<style type="text/css"><![CDATA[
.node, .edge {opacity: 0.7;}
.node.selected, .edge.selected {opacity: 1;}
.edge:hover path { stroke: red; }
.edge:hover polygon { stroke: red; fill: red; }
]]></style>
<script type="application/ecmascript" xlink:href="../../svg.min.js"/>
<svg id="graph" class="graph">
<g id="graph0" class="graph" transform="scale(1 1) rotate(0) translate(4 134.25)">
<title>Ark::internal::Pass</title>
<!-- Node1 -->
<g id="Node000001" class="node">
<title>Node1</title>
<g id="a_Node000001"><a xlink:title="An interface to describe compiler passes.">
<polygon fill="#999999" stroke="#666666" points="97,-74.25 0,-74.25 0,-55 97,-55 97,-74.25"/>
<text text-anchor="middle" x="48.5" y="-60.75" font-family="Helvetica,sans-Serif" font-size="10.00">Ark::internal::Pass</text>
</a>
</g>
</g>
<!-- Node2 -->
<g id="Node000002" class="node">
<title>Node2</title>
<g id="a_Node000002"><a xlink:href="../../d2/d90/classArk_1_1internal_1_1ImportSolver.html" target="_top" xlink:title=" ">
<polygon fill="white" stroke="#666666" points="282.88,-130.25 152.88,-130.25 152.88,-111 282.88,-111 282.88,-130.25"/>
<text text-anchor="middle" x="217.88" y="-116.75" font-family="Helvetica,sans-Serif" font-size="10.00">Ark::internal::ImportSolver</text>
</a>
</g>
</g>
<!-- Node1&#45;&gt;Node2 -->
<g id="edge1_Node000001_Node000002" class="edge">
<title>Node1&#45;&gt;Node2</title>
<g id="a_edge1_Node000001_Node000002"><a xlink:title=" ">
<path fill="none" stroke="#63b8ff" d="M78.75,-79.82C94.5,-87.51 114.45,-96.49 133,-102.62 142.19,-105.66 152.12,-108.32 161.83,-110.59"/>
<polygon fill="#63b8ff" stroke="#63b8ff" points="80.46,-76.76 69.95,-75.43 77.33,-83.02 80.46,-76.76"/>
</a>
</g>
</g>
<!-- Node3 -->
<g id="Node000003" class="node">
<title>Node3</title>
<g id="a_Node000003"><a xlink:href="../../d5/db5/classArk_1_1internal_1_1MacroProcessor.html" target="_top" xlink:title="The class handling the macros definitions and calls, given an AST.">
<polygon fill="white" stroke="#666666" points="290.75,-93.25 145,-93.25 145,-74 290.75,-74 290.75,-93.25"/>
<text text-anchor="middle" x="217.88" y="-79.75" font-family="Helvetica,sans-Serif" font-size="10.00">Ark::internal::MacroProcessor</text>
</a>
</g>
</g>
<!-- Node1&#45;&gt;Node3 -->
<g id="edge2_Node000001_Node000003" class="edge">
<title>Node1&#45;&gt;Node3</title>
<g id="a_edge2_Node000001_Node000003"><a xlink:title=" ">
<path fill="none" stroke="#63b8ff" d="M108.78,-71.35C120.36,-72.67 132.62,-74.06 144.56,-75.42"/>
<polygon fill="#63b8ff" stroke="#63b8ff" points="109.3,-67.89 98.97,-70.24 108.51,-74.85 109.3,-67.89"/>
</a>
</g>
</g>
<!-- Node4 -->
<g id="Node000004" class="node">
<title>Node4</title>
<g id="a_Node000004"><a xlink:href="../../d7/db8/classArk_1_1internal_1_1NameResolutionPass.html" target="_top" xlink:title=" ">
<polygon fill="white" stroke="#666666" points="302.75,-56.25 133,-56.25 133,-37 302.75,-37 302.75,-56.25"/>
<text text-anchor="middle" x="217.88" y="-42.75" font-family="Helvetica,sans-Serif" font-size="10.00">Ark::internal::NameResolutionPass</text>
</a>
</g>
</g>
<!-- Node1&#45;&gt;Node4 -->
<g id="edge3_Node000001_Node000004" class="edge">
<title>Node1&#45;&gt;Node4</title>
<g id="a_edge3_Node000001_Node000004"><a xlink:title=" ">
<path fill="none" stroke="#63b8ff" d="M108.87,-58.24C116.56,-57.41 124.55,-56.55 132.55,-55.69"/>
<polygon fill="#63b8ff" stroke="#63b8ff" points="108.54,-54.76 98.97,-59.31 109.28,-61.72 108.54,-54.76"/>
</a>
</g>
</g>
<!-- Node5 -->
<g id="Node000005" class="node">
<title>Node5</title>
<g id="a_Node000005"><a xlink:href="../../d7/da8/classArk_1_1internal_1_1Optimizer.html" target="_top" xlink:title="The ArkScript AST optimizer.">
<polygon fill="white" stroke="#666666" points="276.12,-19.25 159.62,-19.25 159.62,0 276.12,0 276.12,-19.25"/>
<text text-anchor="middle" x="217.88" y="-5.75" font-family="Helvetica,sans-Serif" font-size="10.00">Ark::internal::Optimizer</text>
</a>
</g>
</g>
<!-- Node1&#45;&gt;Node5 -->
<g id="edge4_Node000001_Node000005" class="edge">
<title>Node1&#45;&gt;Node5</title>
<g id="a_edge4_Node000001_Node000005"><a xlink:title=" ">
<path fill="none" stroke="#63b8ff" d="M79.11,-49.72C94.82,-42.27 114.62,-33.6 133,-27.62 142.21,-24.63 152.15,-22 161.85,-19.74"/>
<polygon fill="#63b8ff" stroke="#63b8ff" points="77.8,-46.46 70.32,-53.97 80.85,-52.76 77.8,-46.46"/>
</a>
</g>
</g>
</g>
</svg>
</svg>

<style type='text/css'>
<![CDATA[
[data-mouse-over-selected='false'] { opacity: 0.7; }
[data-mouse-over-selected='true']  { opacity: 1.0; }
]]>
</style>
<script type="application/ecmascript"><![CDATA[
document.addEventListener('DOMContentLoaded', (event) => {
  highlightEdges();
  highlightAdjacentNodes();
});
]]></script>
</svg>
