<?xml version="1.0" encoding="UTF-8" standalone="no"?>
<!DOCTYPE svg PUBLIC "-//W3C//DTD SVG 1.1//EN"
 "http://www.w3.org/Graphics/SVG/1.1/DTD/svg11.dtd">
<!-- Generated by graphviz version 12.2.0 (20241103.1931)
 -->
<!-- Title: Ark::internal::Pass Pages: 1 -->
<svg width="311pt" height="249pt"
 viewBox="0.00 0.00 310.75 249.25" xmlns="http://www.w3.org/2000/svg" xmlns:xlink="http://www.w3.org/1999/xlink">

<svg id="main" version="1.1" xmlns="http://www.w3.org/2000/svg" xmlns:xlink="http://www.w3.org/1999/xlink" xml:space="preserve">

<style type="text/css"><![CDATA[
.node, .edge {opacity: 0.7;}
.node.selected, .edge.selected {opacity: 1;}
.edge:hover path { stroke: red; }
.edge:hover polygon { stroke: red; fill: red; }
]]></style>
<script type="application/ecmascript" xlink:href="../../svg.min.js"/>
<svg id="graph" class="graph">
<g id="graph0" class="graph" transform="scale(1 1) rotate(0) translate(4 245.25)">
<title>Ark::internal::Pass</title>
<!-- Node1 -->
<g id="Node000001" class="node">
<title>Node1</title>
<g id="a_Node000001"><a xlink:title="An interface to describe compiler passes.">
<polygon fill="#999999" stroke="#666666" points="97,-130.25 0,-130.25 0,-111 97,-111 97,-130.25"/>
<text text-anchor="middle" x="48.5" y="-116.75" font-family="Helvetica,sans-Serif" font-size="10.00">Ark::internal::Pass</text>
</a>
</g>
</g>
<!-- Node2 -->
<g id="Node000002" class="node">
<title>Node2</title>
<g id="a_Node000002"><a xlink:href="../../d3/d57/classArk_1_1internal_1_1ASTLowerer.html" target="_top" xlink:title="The ArkScript AST to IR compiler.">
<polygon fill="white" stroke="#666666" points="282.12,-241.25 153.62,-241.25 153.62,-222 282.12,-222 282.12,-241.25"/>
<text text-anchor="middle" x="217.88" y="-227.75" font-family="Helvetica,sans-Serif" font-size="10.00">Ark::internal::ASTLowerer</text>
</a>
</g>
</g>
<!-- Node1&#45;&gt;Node2 -->
<g id="edge1_Node000001_Node000002" class="edge">
<title>Node1&#45;&gt;Node2</title>
<g id="a_edge1_Node000001_Node000002"><a xlink:title=" ">
<path fill="none" stroke="#63b8ff" d="M61.46,-140.05C75.75,-161.53 101.7,-195.48 133,-213.62 139.31,-217.28 146.28,-220.2 153.43,-222.53"/>
<polygon fill="#63b8ff" stroke="#63b8ff" points="64.58,-138.43 56.23,-131.91 58.69,-142.21 64.58,-138.43"/>
</a>
</g>
</g>
<!-- Node3 -->
<g id="Node000003" class="node">
<title>Node3</title>
<g id="a_Node000003"><a xlink:href="../../d0/da1/classArk_1_1internal_1_1IRCompiler.html" target="_top" xlink:title=" ">
<polygon fill="white" stroke="#666666" points="279.88,-204.25 155.88,-204.25 155.88,-185 279.88,-185 279.88,-204.25"/>
<text text-anchor="middle" x="217.88" y="-190.75" font-family="Helvetica,sans-Serif" font-size="10.00">Ark::internal::IRCompiler</text>
</a>
</g>
</g>
<!-- Node1&#45;&gt;Node3 -->
<g id="edge2_Node000001_Node000003" class="edge">
<title>Node1&#45;&gt;Node3</title>
<g id="a_edge2_Node000001_Node000003"><a xlink:title=" ">
<path fill="none" stroke="#63b8ff" d="M69.97,-137.61C86.13,-150.18 109.76,-166.77 133,-176.62 140.4,-179.76 148.42,-182.38 156.45,-184.55"/>
<polygon fill="#63b8ff" stroke="#63b8ff" points="72.56,-135.19 62.56,-131.69 68.19,-140.67 72.56,-135.19"/>
</a>
</g>
</g>
<!-- Node4 -->
<g id="Node000004" class="node">
<title>Node4</title>
<g id="a_Node000004"><a xlink:href="../../da/d85/classArk_1_1internal_1_1IROptimizer.html" target="_top" xlink:title=" ">
<polygon fill="white" stroke="#666666" points="281.38,-167.25 154.38,-167.25 154.38,-148 281.38,-148 281.38,-167.25"/>
<text text-anchor="middle" x="217.88" y="-153.75" font-family="Helvetica,sans-Serif" font-size="10.00">Ark::internal::IROptimizer</text>
</a>
</g>
</g>
<!-- Node1&#45;&gt;Node4 -->
<g id="edge3_Node000001_Node000004" class="edge">
<title>Node1&#45;&gt;Node4</title>
<g id="a_edge3_Node000001_Node000004"><a xlink:title=" ">
<path fill="none" stroke="#63b8ff" d="M104.29,-133.19C113.85,-135.36 123.71,-137.57 133,-139.62 144.78,-142.23 157.5,-144.99 169.39,-147.54"/>
<polygon fill="#63b8ff" stroke="#63b8ff" points="105.25,-129.82 94.72,-131.02 103.7,-136.65 105.25,-129.82"/>
</a>
</g>
</g>
<!-- Node5 -->
<g id="Node000005" class="node">
<title>Node5</title>
<g id="a_Node000005"><a xlink:href="../../d2/d90/classArk_1_1internal_1_1ImportSolver.html" target="_top" xlink:title=" ">
<polygon fill="white" stroke="#666666" points="282.88,-130.25 152.88,-130.25 152.88,-111 282.88,-111 282.88,-130.25"/>
<text text-anchor="middle" x="217.88" y="-116.75" font-family="Helvetica,sans-Serif" font-size="10.00">Ark::internal::ImportSolver</text>
</a>
</g>
</g>
<!-- Node1&#45;&gt;Node5 -->
<g id="edge4_Node000001_Node000005" class="edge">
<title>Node1&#45;&gt;Node5</title>
<g id="a_edge4_Node000001_Node000005"><a xlink:title=" ">
<path fill="none" stroke="#63b8ff" d="M108.64,-120.62C122.9,-120.62 138.2,-120.62 152.68,-120.62"/>
<polygon fill="#63b8ff" stroke="#63b8ff" points="108.98,-117.13 98.98,-120.63 108.98,-124.13 108.98,-117.13"/>
</a>
</g>
</g>
<!-- Node6 -->
<g id="Node000006" class="node">
<title>Node6</title>
<g id="a_Node000006"><a xlink:href="../../d5/db5/classArk_1_1internal_1_1MacroProcessor.html" target="_top" xlink:title="The class handling the macros definitions and calls, given an AST.">
<polygon fill="white" stroke="#666666" points="290.75,-93.25 145,-93.25 145,-74 290.75,-74 290.75,-93.25"/>
<text text-anchor="middle" x="217.88" y="-79.75" font-family="Helvetica,sans-Serif" font-size="10.00">Ark::internal::MacroProcessor</text>
</a>
</g>
</g>
<!-- Node1&#45;&gt;Node6 -->
<g id="edge5_Node000001_Node000006" class="edge">
<title>Node1&#45;&gt;Node6</title>
<g id="a_edge5_Node000001_Node000006"><a xlink:title=" ">
<path fill="none" stroke="#63b8ff" d="M104.29,-108.06C113.85,-105.89 123.71,-103.68 133,-101.62 144.78,-99.02 157.5,-96.26 169.39,-93.71"/>
<polygon fill="#63b8ff" stroke="#63b8ff" points="103.7,-104.6 94.72,-110.23 105.25,-111.43 103.7,-104.6"/>
</a>
</g>
</g>
<!-- Node7 -->
<g id="Node000007" class="node">
<title>Node7</title>
<g id="a_Node000007"><a xlink:href="../../d7/db8/classArk_1_1internal_1_1NameResolutionPass.html" target="_top" xlink:title=" ">
<polygon fill="white" stroke="#666666" points="302.75,-56.25 133,-56.25 133,-37 302.75,-37 302.75,-56.25"/>
<text text-anchor="middle" x="217.88" y="-42.75" font-family="Helvetica,sans-Serif" font-size="10.00">Ark::internal::NameResolutionPass</text>
</a>
</g>
</g>
<!-- Node1&#45;&gt;Node7 -->
<g id="edge6_Node000001_Node000007" class="edge">
<title>Node1&#45;&gt;Node7</title>
<g id="a_edge6_Node000001_Node000007"><a xlink:title=" ">
<path fill="none" stroke="#63b8ff" d="M69.97,-103.64C86.13,-91.07 109.76,-74.48 133,-64.62 140.4,-61.49 148.42,-58.87 156.45,-56.7"/>
<polygon fill="#63b8ff" stroke="#63b8ff" points="68.19,-100.58 62.56,-109.56 72.56,-106.06 68.19,-100.58"/>
</a>
</g>
</g>
<!-- Node8 -->
<g id="Node000008" class="node">
<title>Node8</title>
<g id="a_Node000008"><a xlink:href="../../d7/da8/classArk_1_1internal_1_1Optimizer.html" target="_top" xlink:title="The ArkScript AST optimizer.">
<polygon fill="white" stroke="#666666" points="276.12,-19.25 159.62,-19.25 159.62,0 276.12,0 276.12,-19.25"/>
<text text-anchor="middle" x="217.88" y="-5.75" font-family="Helvetica,sans-Serif" font-size="10.00">Ark::internal::Optimizer</text>
</a>
</g>
</g>
<!-- Node1&#45;&gt;Node8 -->
<g id="edge7_Node000001_Node000008" class="edge">
<title>Node1&#45;&gt;Node8</title>
<g id="a_edge7_Node000001_Node000008"><a xlink:title=" ">
<path fill="none" stroke="#63b8ff" d="M61.46,-101.2C75.75,-79.72 101.7,-45.77 133,-27.62 140.99,-22.99 150.03,-19.55 159.14,-16.99"/>
<polygon fill="#63b8ff" stroke="#63b8ff" points="58.69,-99.04 56.23,-109.34 64.58,-102.82 58.69,-99.04"/>
</a>
</g>
</g>
</g>
</svg>
</svg>

<style type='text/css'>
<![CDATA[
[data-mouse-over-selected='false'] { opacity: 0.7; }
[data-mouse-over-selected='true']  { opacity: 1.0; }
]]>
</style>
<script type="application/ecmascript"><![CDATA[
document.addEventListener('DOMContentLoaded', (event) => {
  highlightEdges();
  highlightAdjacentNodes();
});
]]></script>
</svg>
