<?xml version="1.0" encoding="UTF-8" standalone="no"?>
<!DOCTYPE svg PUBLIC "-//W3C//DTD SVG 1.1//EN"
 "http://www.w3.org/Graphics/SVG/1.1/DTD/svg11.dtd">
<!-- Generated by graphviz version 12.2.0 (20241103.1931)
 -->
<!-- Title: /Users/fola/Documents/ArkScript/Ark/include/Ark/Error/Diagnostics.hpp Pages: 1 -->
<svg width="968pt" height="128pt"
 viewBox="0.00 0.00 967.50 127.50" xmlns="http://www.w3.org/2000/svg" xmlns:xlink="http://www.w3.org/1999/xlink">
<g id="graph0" class="graph" transform="scale(1 1) rotate(0) translate(4 123.5)">
<title>/Users/fola/Documents/ArkScript/Ark/include/Ark/Error/Diagnostics.hpp</title>
<!-- Node1 -->
<g id="Node000001" class="node">
<title>Node1</title>
<g id="a_Node000001"><a xlink:title="Tools to report code errors nicely to the user.">
<polygon fill="#999999" stroke="#666666" points="563,-119.5 431.5,-119.5 431.5,-77.75 563,-77.75 563,-119.5"/>
<text text-anchor="start" x="439.5" y="-106" font-family="Helvetica,sans-Serif" font-size="10.00">/Users/fola/Documents</text>
<text text-anchor="start" x="439.5" y="-94.75" font-family="Helvetica,sans-Serif" font-size="10.00">/ArkScript/Ark/include</text>
<text text-anchor="middle" x="497.25" y="-83.5" font-family="Helvetica,sans-Serif" font-size="10.00">/Ark/Error/Diagnostics.hpp</text>
</a>
</g>
</g>
<!-- Node2 -->
<g id="Node000002" class="node">
<title>Node2</title>
<g id="a_Node000002"><a xlink:href="../../d2/d5e/ASTLowerer_8cpp.html" target="_top" xlink:title=" ">
<polygon fill="white" stroke="#666666" points="170.5,-41.75 0,-41.75 0,0 170.5,0 170.5,-41.75"/>
<text text-anchor="start" x="8" y="-28.25" font-family="Helvetica,sans-Serif" font-size="10.00">/Users/fola/Documents</text>
<text text-anchor="start" x="8" y="-17" font-family="Helvetica,sans-Serif" font-size="10.00">/ArkScript/Ark/src/arkreactor</text>
<text text-anchor="middle" x="85.25" y="-5.75" font-family="Helvetica,sans-Serif" font-size="10.00">/Compiler/Lowerer/ASTLowerer.cpp</text>
</a>
</g>
</g>
<!-- Node1&#45;&gt;Node2 -->
<g id="edge1_Node000001_Node000002" class="edge">
<title>Node1&#45;&gt;Node2</title>
<g id="a_edge1_Node000001_Node000002"><a xlink:title=" ">
<path fill="none" stroke="#63b8ff" d="M420.02,-84.72C355.75,-73.81 261.91,-57.48 180.25,-41.75 177.19,-41.16 174.07,-40.55 170.93,-39.93"/>
<polygon fill="#63b8ff" stroke="#63b8ff" points="419.33,-88.15 429.77,-86.37 420.5,-81.25 419.33,-88.15"/>
</a>
</g>
</g>
<!-- Node3 -->
<g id="Node000003" class="node">
<title>Node3</title>
<g id="a_Node000003"><a xlink:href="../../d3/df1/Welder_8cpp.html" target="_top" xlink:title=" ">
<polygon fill="white" stroke="#666666" points="329.5,-41.75 189,-41.75 189,0 329.5,0 329.5,-41.75"/>
<text text-anchor="start" x="197" y="-28.25" font-family="Helvetica,sans-Serif" font-size="10.00">/Users/fola/Documents</text>
<text text-anchor="start" x="197" y="-17" font-family="Helvetica,sans-Serif" font-size="10.00">/ArkScript/Ark/src/arkreactor</text>
<text text-anchor="middle" x="259.25" y="-5.75" font-family="Helvetica,sans-Serif" font-size="10.00">/Compiler/Welder.cpp</text>
</a>
</g>
</g>
<!-- Node1&#45;&gt;Node3 -->
<g id="edge2_Node000001_Node000003" class="edge">
<title>Node1&#45;&gt;Node3</title>
<g id="a_edge2_Node000001_Node000003"><a xlink:title=" ">
<path fill="none" stroke="#63b8ff" d="M422.84,-73.94C390.88,-63.77 353.91,-52 323.21,-42.23"/>
<polygon fill="#63b8ff" stroke="#63b8ff" points="421.44,-77.17 432.03,-76.87 423.56,-70.5 421.44,-77.17"/>
</a>
</g>
</g>
<!-- Node4 -->
<g id="Node000004" class="node">
<title>Node4</title>
<g id="a_Node000004"><a xlink:href="../../de/d66/Diagnostics_8cpp.html" target="_top" xlink:title=" ">
<polygon fill="white" stroke="#666666" points="488.5,-41.75 348,-41.75 348,0 488.5,0 488.5,-41.75"/>
<text text-anchor="start" x="356" y="-28.25" font-family="Helvetica,sans-Serif" font-size="10.00">/Users/fola/Documents</text>
<text text-anchor="start" x="356" y="-17" font-family="Helvetica,sans-Serif" font-size="10.00">/ArkScript/Ark/src/arkreactor</text>
<text text-anchor="middle" x="418.25" y="-5.75" font-family="Helvetica,sans-Serif" font-size="10.00">/Error/Diagnostics.cpp</text>
</a>
</g>
</g>
<!-- Node1&#45;&gt;Node4 -->
<g id="edge3_Node000001_Node000004" class="edge">
<title>Node1&#45;&gt;Node4</title>
<g id="a_edge3_Node000001_Node000004"><a xlink:title=" ">
<path fill="none" stroke="#63b8ff" d="M468.04,-69.61C458.57,-60.53 448.25,-50.64 439.48,-42.23"/>
<polygon fill="#63b8ff" stroke="#63b8ff" points="465.35,-71.88 474.99,-76.28 470.19,-66.83 465.35,-71.88"/>
</a>
</g>
</g>
<!-- Node5 -->
<g id="Node000005" class="node">
<title>Node5</title>
<g id="a_Node000005"><a xlink:href="../../db/d7b/Debugger_8cpp.html" target="_top" xlink:title=" ">
<polygon fill="white" stroke="#666666" points="647.5,-41.75 507,-41.75 507,0 647.5,0 647.5,-41.75"/>
<text text-anchor="start" x="515" y="-28.25" font-family="Helvetica,sans-Serif" font-size="10.00">/Users/fola/Documents</text>
<text text-anchor="start" x="515" y="-17" font-family="Helvetica,sans-Serif" font-size="10.00">/ArkScript/Ark/src/arkreactor</text>
<text text-anchor="middle" x="577.25" y="-5.75" font-family="Helvetica,sans-Serif" font-size="10.00">/VM/Debugger.cpp</text>
</a>
</g>
</g>
<!-- Node1&#45;&gt;Node5 -->
<g id="edge4_Node000001_Node000005" class="edge">
<title>Node1&#45;&gt;Node5</title>
<g id="a_edge4_Node000001_Node000005"><a xlink:title=" ">
<path fill="none" stroke="#63b8ff" d="M526.83,-69.61C536.42,-60.53 546.87,-50.64 555.75,-42.23"/>
<polygon fill="#63b8ff" stroke="#63b8ff" points="524.64,-66.87 519.79,-76.28 529.46,-71.95 524.64,-66.87"/>
</a>
</g>
</g>
<!-- Node6 -->
<g id="Node000006" class="node">
<title>Node6</title>
<g id="a_Node000006"><a xlink:href="../../d2/d27/VM_8cpp.html" target="_top" xlink:title=" ">
<polygon fill="white" stroke="#666666" points="806.5,-41.75 666,-41.75 666,0 806.5,0 806.5,-41.75"/>
<text text-anchor="start" x="674" y="-28.25" font-family="Helvetica,sans-Serif" font-size="10.00">/Users/fola/Documents</text>
<text text-anchor="start" x="674" y="-17" font-family="Helvetica,sans-Serif" font-size="10.00">/ArkScript/Ark/src/arkreactor</text>
<text text-anchor="middle" x="736.25" y="-5.75" font-family="Helvetica,sans-Serif" font-size="10.00">/VM/VM.cpp</text>
</a>
</g>
</g>
<!-- Node1&#45;&gt;Node6 -->
<g id="edge5_Node000001_Node000006" class="edge">
<title>Node1&#45;&gt;Node6</title>
<g id="a_edge5_Node000001_Node000006"><a xlink:title=" ">
<path fill="none" stroke="#63b8ff" d="M571.97,-73.94C604.06,-63.77 641.19,-52 672.03,-42.23"/>
<polygon fill="#63b8ff" stroke="#63b8ff" points="571.22,-70.51 562.74,-76.87 573.33,-77.18 571.22,-70.51"/>
</a>
</g>
</g>
<!-- Node7 -->
<g id="Node000007" class="node">
<title>Node7</title>
<g id="a_Node000007"><a xlink:href="../../d2/d56/Formatter_8cpp.html" target="_top" xlink:title=" ">
<polygon fill="white" stroke="#666666" points="959.5,-41.75 825,-41.75 825,0 959.5,0 959.5,-41.75"/>
<text text-anchor="start" x="833" y="-28.25" font-family="Helvetica,sans-Serif" font-size="10.00">/Users/fola/Documents</text>
<text text-anchor="start" x="833" y="-17" font-family="Helvetica,sans-Serif" font-size="10.00">/ArkScript/Ark/src/arkscript</text>
<text text-anchor="middle" x="892.25" y="-5.75" font-family="Helvetica,sans-Serif" font-size="10.00">/Formatter.cpp</text>
</a>
</g>
</g>
<!-- Node1&#45;&gt;Node7 -->
<g id="edge6_Node000001_Node000007" class="edge">
<title>Node1&#45;&gt;Node7</title>
<g id="a_edge6_Node000001_Node000007"><a xlink:title=" ">
<path fill="none" stroke="#63b8ff" d="M574.63,-85.78C639.22,-75.47 733.59,-59.43 815.25,-41.75 818.35,-41.08 821.52,-40.37 824.72,-39.63"/>
<polygon fill="#63b8ff" stroke="#63b8ff" points="574.14,-82.31 564.82,-87.33 575.24,-89.22 574.14,-82.31"/>
</a>
</g>
</g>
</g>
</svg>
