<?xml version="1.0" encoding="UTF-8" standalone="no"?>
<!DOCTYPE svg PUBLIC "-//W3C//DTD SVG 1.1//EN"
 "http://www.w3.org/Graphics/SVG/1.1/DTD/svg11.dtd">
<!-- Generated by graphviz version 12.2.0 (20241103.1931)
 -->
<!-- Title: Ark::internal::IROptimizer Pages: 1 -->
<svg width="1312pt" height="423pt"
 viewBox="0.00 0.00 1312.25 423.43" xmlns="http://www.w3.org/2000/svg" xmlns:xlink="http://www.w3.org/1999/xlink">
<g id="graph0" class="graph" transform="scale(1 1) rotate(0) translate(4 419.43)">
<title>Ark::internal::IROptimizer</title>
<!-- Node1 -->
<g id="Node000001" class="node">
<title>Node1</title>
<g id="a_Node000001"><a xlink:title=" ">
<polygon fill="#999999" stroke="#666666" points="1304.25,-210.88 1177.25,-210.88 1177.25,-191.62 1304.25,-191.62 1304.25,-210.88"/>
<text text-anchor="middle" x="1240.75" y="-197.38" font-family="Helvetica,sans-Serif" font-size="10.00">Ark::internal::IROptimizer</text>
</a>
</g>
</g>
<!-- Node2 -->
<g id="Node000002" class="node">
<title>Node2</title>
<g id="a_Node000002"><a xlink:title=" ">
<polygon fill="white" stroke="#666666" points="1095.5,-322.5 972.25,-322.5 972.25,-292 1095.5,-292 1095.5,-322.5"/>
<text text-anchor="start" x="980.25" y="-309" font-family="Helvetica,sans-Serif" font-size="10.00">std::vector&lt; Ark::internal</text>
<text text-anchor="middle" x="1033.88" y="-297.75" font-family="Helvetica,sans-Serif" font-size="10.00">::IROptimizer::Rule &gt;</text>
</a>
</g>
</g>
<!-- Node2&#45;&gt;Node1 -->
<g id="edge1_Node000001_Node000002" class="edge">
<title>Node2&#45;&gt;Node1</title>
<g id="a_edge1_Node000001_Node000002"><a xlink:title=" ">
<path fill="none" stroke="#9a32cd" stroke-dasharray="5,2" d="M1075.13,-286.42C1118.88,-263.79 1186.98,-228.55 1220.2,-211.37"/>
<polygon fill="#9a32cd" stroke="#9a32cd" points="1073.72,-283.21 1066.45,-290.91 1076.94,-289.43 1073.72,-283.21"/>
</a>
</g>
<text text-anchor="middle" x="1136.38" y="-265.49" font-family="Helvetica,sans-Serif" font-size="10.00" fill="grey"> m_ruleset</text>
</g>
<!-- Node3 -->
<g id="Node000003" class="node">
<title>Node3</title>
<g id="a_Node000003"><a xlink:href="../../da/d1e/structArk_1_1internal_1_1IROptimizer_1_1Rule.html" target="_top" xlink:title=" ">
<polygon fill="white" stroke="#666666" points="883,-365.5 756,-365.5 756,-335 883,-335 883,-365.5"/>
<text text-anchor="start" x="764" y="-352" font-family="Helvetica,sans-Serif" font-size="10.00">Ark::internal::IROptimizer</text>
<text text-anchor="middle" x="819.5" y="-340.75" font-family="Helvetica,sans-Serif" font-size="10.00">::Rule</text>
</a>
</g>
</g>
<!-- Node3&#45;&gt;Node2 -->
<g id="edge2_Node000002_Node000003" class="edge">
<title>Node3&#45;&gt;Node2</title>
<g id="a_edge2_Node000002_Node000003"><a xlink:title=" ">
<path fill="none" stroke="#9a32cd" stroke-dasharray="5,2" d="M894.41,-335.29C919.76,-330.15 947.81,-324.47 972.01,-319.57"/>
<polygon fill="#9a32cd" stroke="#9a32cd" points="893.95,-331.81 884.84,-337.22 895.34,-338.67 893.95,-331.81"/>
</a>
</g>
<text text-anchor="middle" x="927.62" y="-335.62" font-family="Helvetica,sans-Serif" font-size="10.00" fill="grey"> elements</text>
</g>
<!-- Node4 -->
<g id="Node000004" class="node">
<title>Node4</title>
<g id="a_Node000004"><a xlink:title=" ">
<polygon fill="white" stroke="#666666" points="597.75,-358.88 471.5,-358.88 471.5,-339.62 597.75,-339.62 597.75,-358.88"/>
<text text-anchor="middle" x="534.62" y="-345.38" font-family="Helvetica,sans-Serif" font-size="10.00">std::vector&lt; Instruction &gt;</text>
</a>
</g>
</g>
<!-- Node4&#45;&gt;Node3 -->
<g id="edge3_Node000003_Node000004" class="edge">
<title>Node4&#45;&gt;Node3</title>
<g id="a_edge3_Node000003_Node000004"><a xlink:title=" ">
<path fill="none" stroke="#9a32cd" stroke-dasharray="5,2" d="M609.33,-349.51C654.79,-349.67 712.47,-349.88 755.74,-350.03"/>
<polygon fill="#9a32cd" stroke="#9a32cd" points="609.58,-346.01 599.57,-349.48 609.55,-353.01 609.58,-346.01"/>
</a>
</g>
<text text-anchor="middle" x="676.88" y="-351.7" font-family="Helvetica,sans-Serif" font-size="10.00" fill="grey"> expected</text>
</g>
<!-- Node5 -->
<g id="Node000005" class="node">
<title>Node5</title>
<g id="a_Node000005"><a xlink:title=" ">
<polygon fill="white" stroke="#666666" points="282.88,-316.88 196.38,-316.88 196.38,-297.62 282.88,-297.62 282.88,-316.88"/>
<text text-anchor="middle" x="239.62" y="-303.38" font-family="Helvetica,sans-Serif" font-size="10.00">std::vector&lt; T &gt;</text>
</a>
</g>
</g>
<!-- Node5&#45;&gt;Node2 -->
<g id="edge6_Node000002_Node000005" class="edge">
<title>Node5&#45;&gt;Node2</title>
<g id="a_edge6_Node000002_Node000005"><a xlink:title=" ">
<path fill="none" stroke="orange" stroke-dasharray="5,2" d="M294.65,-307.25C437.07,-307.25 822.12,-307.25 972.01,-307.25"/>
<polygon fill="orange" stroke="orange" points="294.73,-303.75 284.73,-307.25 294.73,-310.75 294.73,-303.75"/>
</a>
</g>
<text text-anchor="start" x="615.75" y="-320.25" font-family="Helvetica,sans-Serif" font-size="10.00" fill="grey"> &lt; Ark::internal::IROptimizer</text>
<text text-anchor="middle" x="676.88" y="-309" font-family="Helvetica,sans-Serif" font-size="10.00" fill="grey">::Rule &gt;</text>
</g>
<!-- Node5&#45;&gt;Node4 -->
<g id="edge4_Node000004_Node000005" class="edge">
<title>Node5&#45;&gt;Node4</title>
<g id="a_edge4_Node000004_Node000005"><a xlink:title=" ">
<path fill="none" stroke="orange" stroke-dasharray="5,2" d="M294.44,-314.96C344.38,-322.12 418.73,-332.78 471.25,-340.31"/>
<polygon fill="orange" stroke="orange" points="295.12,-311.53 284.73,-313.57 294.13,-318.46 295.12,-311.53"/>
</a>
</g>
<text text-anchor="middle" x="389" y="-338.59" font-family="Helvetica,sans-Serif" font-size="10.00" fill="grey"> &lt; Instruction &gt;</text>
</g>
<!-- Node13 -->
<g id="Node000013" class="node">
<title>Node13</title>
<g id="a_Node000013"><a xlink:title=" ">
<polygon fill="white" stroke="#666666" points="596.62,-210.88 472.62,-210.88 472.62,-191.62 596.62,-191.62 596.62,-210.88"/>
<text text-anchor="middle" x="534.62" y="-197.38" font-family="Helvetica,sans-Serif" font-size="10.00">std::vector&lt; std::string &gt;</text>
</a>
</g>
</g>
<!-- Node5&#45;&gt;Node13 -->
<g id="edge17_Node000013_Node000005" class="edge">
<title>Node5&#45;&gt;Node13</title>
<g id="a_edge17_Node000013_Node000005"><a xlink:title=" ">
<path fill="none" stroke="orange" stroke-dasharray="5,2" d="M281.94,-293.76C295.42,-289.64 310.51,-285.33 324.5,-282 381.14,-268.53 399.89,-281.95 453.5,-259.25 481.33,-247.46 508.77,-224.47 523.2,-211.25"/>
<polygon fill="orange" stroke="orange" points="281.02,-290.38 272.51,-296.69 283.1,-297.06 281.02,-290.38"/>
</a>
</g>
<text text-anchor="middle" x="389" y="-283.75" font-family="Helvetica,sans-Serif" font-size="10.00" fill="grey"> &lt; std::string &gt;</text>
</g>
<!-- Node14 -->
<g id="Node000014" class="node">
<title>Node14</title>
<g id="a_Node000014"><a xlink:title=" ">
<polygon fill="white" stroke="#666666" points="595.5,-402.88 473.75,-402.88 473.75,-383.62 595.5,-383.62 595.5,-402.88"/>
<text text-anchor="middle" x="534.62" y="-389.38" font-family="Helvetica,sans-Serif" font-size="10.00">std::vector&lt; IR::Block &gt;</text>
</a>
</g>
</g>
<!-- Node5&#45;&gt;Node14 -->
<g id="edge19_Node000014_Node000005" class="edge">
<title>Node5&#45;&gt;Node14</title>
<g id="a_edge19_Node000014_Node000005"><a xlink:title=" ">
<path fill="none" stroke="#9a32cd" stroke-dasharray="5,2" d="M253.97,-326.12C268.74,-345.24 294.46,-373.75 324.5,-386.25 371.79,-405.94 430.42,-406.06 473.56,-402.2"/>
<polygon fill="#9a32cd" stroke="#9a32cd" points="256.95,-324.26 248.18,-318.32 251.33,-328.43 256.95,-324.26"/>
</a>
</g>
<text text-anchor="middle" x="389" y="-405.93" font-family="Helvetica,sans-Serif" font-size="10.00" fill="grey"> elements</text>
</g>
<!-- Node5&#45;&gt;Node14 -->
<g id="edge20_Node000014_Node000005" class="edge">
<title>Node5&#45;&gt;Node14</title>
<g id="a_edge20_Node000014_Node000005"><a xlink:title=" ">
<path fill="none" stroke="orange" stroke-dasharray="5,2" d="M265.43,-323.4C281.62,-333.21 303.57,-345.17 324.5,-352.25 379.51,-370.85 396.63,-361.26 453.5,-373 467.69,-375.93 483.16,-379.7 496.68,-383.19"/>
<polygon fill="orange" stroke="orange" points="267.31,-320.45 256.97,-318.14 263.61,-326.39 267.31,-320.45"/>
</a>
</g>
<text text-anchor="middle" x="389" y="-374.75" font-family="Helvetica,sans-Serif" font-size="10.00" fill="grey"> &lt; IR::Block &gt;</text>
</g>
<!-- Node15 -->
<g id="Node000015" class="node">
<title>Node15</title>
<g id="a_Node000015"><a xlink:title=" ">
<polygon fill="white" stroke="#666666" points="596.25,-30.5 473,-30.5 473,0 596.25,0 596.25,-30.5"/>
<text text-anchor="start" x="481" y="-17" font-family="Helvetica,sans-Serif" font-size="10.00">std::vector&lt; Ark::internal</text>
<text text-anchor="middle" x="534.62" y="-5.75" font-family="Helvetica,sans-Serif" font-size="10.00">::ValTableElem &gt;</text>
</a>
</g>
</g>
<!-- Node5&#45;&gt;Node15 -->
<g id="edge24_Node000015_Node000005" class="edge">
<title>Node5&#45;&gt;Node15</title>
<g id="a_edge24_Node000015_Node000005"><a xlink:title=" ">
<path fill="none" stroke="orange" stroke-dasharray="5,2" d="M255.48,-289.01C270.82,-271.52 296.42,-245.91 324.5,-232.75 377.01,-208.15 413.41,-255.14 453.5,-213.25 479.61,-185.96 449.55,-74.99 471.5,-44.25 475.3,-38.92 480.34,-34.55 485.91,-30.96"/>
<polygon fill="orange" stroke="orange" points="253.22,-286.26 249.41,-296.15 258.55,-290.79 253.22,-286.26"/>
</a>
</g>
<text text-anchor="start" x="335.75" y="-245.75" font-family="Helvetica,sans-Serif" font-size="10.00" fill="grey"> &lt; Ark::internal::ValTable</text>
<text text-anchor="middle" x="389" y="-234.5" font-family="Helvetica,sans-Serif" font-size="10.00" fill="grey">Elem &gt;</text>
</g>
<!-- Node6 -->
<g id="Node000006" class="node">
<title>Node6</title>
<g id="a_Node000006"><a xlink:title=" ">
<polygon fill="white" stroke="#666666" points="61.4,-225.88 32.6,-225.88 32.6,-206.62 61.4,-206.62 61.4,-225.88"/>
<text text-anchor="middle" x="47" y="-212.38" font-family="Helvetica,sans-Serif" font-size="10.00">T</text>
</a>
</g>
</g>
<!-- Node6&#45;&gt;Node5 -->
<g id="edge5_Node000005_Node000006" class="edge">
<title>Node6&#45;&gt;Node5</title>
<g id="a_edge5_Node000005_Node000006"><a xlink:title=" ">
<path fill="none" stroke="#9a32cd" stroke-dasharray="5,2" d="M71.72,-227.58C109.22,-245.47 181.59,-280.02 217.44,-297.13"/>
<polygon fill="#9a32cd" stroke="#9a32cd" points="73.61,-224.6 63.08,-223.45 70.59,-230.91 73.61,-224.6"/>
</a>
</g>
<text text-anchor="middle" x="133.38" y="-268.95" font-family="Helvetica,sans-Serif" font-size="10.00" fill="grey"> elements</text>
</g>
<!-- Node11 -->
<g id="Node000011" class="node">
<title>Node11</title>
<g id="a_Node000011"><a xlink:title=" ">
<polygon fill="white" stroke="#666666" points="290.75,-179.5 188.5,-179.5 188.5,-149 290.75,-149 290.75,-179.5"/>
<text text-anchor="start" x="196.5" y="-166" font-family="Helvetica,sans-Serif" font-size="10.00">std::unordered_map</text>
<text text-anchor="middle" x="239.62" y="-154.75" font-family="Helvetica,sans-Serif" font-size="10.00">&lt; K, T &gt;</text>
</a>
</g>
</g>
<!-- Node6&#45;&gt;Node11 -->
<g id="edge14_Node000011_Node000006" class="edge">
<title>Node6&#45;&gt;Node11</title>
<g id="a_edge14_Node000011_Node000006"><a xlink:title=" ">
<path fill="none" stroke="#9a32cd" stroke-dasharray="5,2" d="M72.48,-209.57C101.52,-201.65 150.69,-188.24 188.02,-178.05"/>
<polygon fill="#9a32cd" stroke="#9a32cd" points="71.9,-206.1 63.17,-212.11 73.74,-212.86 71.9,-206.1"/>
</a>
</g>
<text text-anchor="middle" x="133.38" y="-199.7" font-family="Helvetica,sans-Serif" font-size="10.00" fill="grey"> elements</text>
</g>
<!-- Node7 -->
<g id="Node000007" class="node">
<title>Node7</title>
<g id="a_Node000007"><a xlink:href="../../d6/d2f/classArk_1_1internal_1_1Logger.html" target="_top" xlink:title=" ">
<polygon fill="white" stroke="#666666" points="871.38,-150.88 767.62,-150.88 767.62,-131.62 871.38,-131.62 871.38,-150.88"/>
<text text-anchor="middle" x="819.5" y="-137.38" font-family="Helvetica,sans-Serif" font-size="10.00">Ark::internal::Logger</text>
</a>
</g>
</g>
<!-- Node7&#45;&gt;Node1 -->
<g id="edge7_Node000001_Node000007" class="edge">
<title>Node7&#45;&gt;Node1</title>
<g id="a_edge7_Node000001_Node000007"><a xlink:title=" ">
<path fill="none" stroke="#9a32cd" stroke-dasharray="5,2" d="M882.91,-148.28C938.73,-154.77 1022.71,-165.04 1095.5,-176 1125.42,-180.51 1158.69,-186.28 1185.73,-191.17"/>
<polygon fill="#9a32cd" stroke="#9a32cd" points="883.63,-144.84 873.29,-147.17 882.83,-151.79 883.63,-144.84"/>
</a>
</g>
<text text-anchor="middle" x="1033.88" y="-177.75" font-family="Helvetica,sans-Serif" font-size="10.00" fill="grey"> m_logger</text>
</g>
<!-- Node8 -->
<g id="Node000008" class="node">
<title>Node8</title>
<g id="a_Node000008"><a xlink:title=" ">
<polygon fill="white" stroke="#666666" points="269.38,-108.88 209.88,-108.88 209.88,-89.62 269.38,-89.62 269.38,-108.88"/>
<text text-anchor="middle" x="239.62" y="-95.38" font-family="Helvetica,sans-Serif" font-size="10.00">std::string</text>
</a>
</g>
</g>
<!-- Node8&#45;&gt;Node7 -->
<g id="edge8_Node000007_Node000008" class="edge">
<title>Node8&#45;&gt;Node7</title>
<g id="a_edge8_Node000007_Node000008"><a xlink:title=" ">
<path fill="none" stroke="#9a32cd" stroke-dasharray="5,2" d="M280.62,-92.44C346.87,-82.22 483.4,-65.68 597.75,-81 669.02,-90.55 749.86,-116.71 791.11,-131.23"/>
<polygon fill="#9a32cd" stroke="#9a32cd" points="280.3,-88.94 270.97,-93.96 281.39,-95.86 280.3,-88.94"/>
</a>
</g>
<text text-anchor="middle" x="534.62" y="-82.75" font-family="Helvetica,sans-Serif" font-size="10.00" fill="grey"> m_name</text>
</g>
<!-- Node10 -->
<g id="Node000010" class="node">
<title>Node10</title>
<g id="a_Node000010"><a xlink:title=" ">
<polygon fill="white" stroke="#666666" points="595.88,-165.38 473.38,-165.38 473.38,-101.12 595.88,-101.12 595.88,-165.38"/>
<text text-anchor="start" x="481.38" y="-151.88" font-family="Helvetica,sans-Serif" font-size="10.00">std::unordered_map</text>
<text text-anchor="start" x="481.38" y="-140.62" font-family="Helvetica,sans-Serif" font-size="10.00">&lt; std::string, std::</text>
<text text-anchor="start" x="481.38" y="-129.38" font-family="Helvetica,sans-Serif" font-size="10.00">chrono::time_point&lt; std</text>
<text text-anchor="start" x="481.38" y="-118.12" font-family="Helvetica,sans-Serif" font-size="10.00">::chrono::high_resolution</text>
<text text-anchor="middle" x="534.62" y="-106.88" font-family="Helvetica,sans-Serif" font-size="10.00">_clock &gt; &gt;</text>
</a>
</g>
</g>
<!-- Node8&#45;&gt;Node10 -->
<g id="edge11_Node000010_Node000008" class="edge">
<title>Node8&#45;&gt;Node10</title>
<g id="a_edge11_Node000010_Node000008"><a xlink:title=" ">
<path fill="none" stroke="#9a32cd" stroke-dasharray="5,2" d="M281.14,-99.28C324.16,-99.87 394.03,-102.43 453.5,-112 459.89,-113.03 466.52,-114.35 473.09,-115.84"/>
<polygon fill="#9a32cd" stroke="#9a32cd" points="281.3,-95.78 271.26,-99.18 281.22,-102.78 281.3,-95.78"/>
</a>
</g>
<text text-anchor="middle" x="389" y="-113.75" font-family="Helvetica,sans-Serif" font-size="10.00" fill="grey"> keys</text>
</g>
<!-- Node8&#45;&gt;Node13 -->
<g id="edge16_Node000013_Node000008" class="edge">
<title>Node8&#45;&gt;Node13</title>
<g id="a_edge16_Node000013_Node000008"><a xlink:title=" ">
<path fill="none" stroke="#9a32cd" stroke-dasharray="5,2" d="M273.29,-114.56C284.89,-121.2 297.33,-129.86 306.5,-140.25 319.13,-154.56 308.98,-168.13 324.5,-179.25 347.46,-195.7 419.08,-200.3 472.14,-201.37"/>
<polygon fill="#9a32cd" stroke="#9a32cd" points="275.22,-111.62 264.75,-109.96 271.9,-117.78 275.22,-111.62"/>
</a>
</g>
<text text-anchor="middle" x="389" y="-202.44" font-family="Helvetica,sans-Serif" font-size="10.00" fill="grey"> elements</text>
</g>
<!-- Node9 -->
<g id="Node000009" class="node">
<title>Node9</title>
<g id="a_Node000009"><a xlink:title=" ">
<polygon fill="white" stroke="#666666" points="94,-114.5 0,-114.5 0,-84 94,-84 94,-114.5"/>
<text text-anchor="start" x="8" y="-101" font-family="Helvetica,sans-Serif" font-size="10.00">std::basic_string&lt;</text>
<text text-anchor="middle" x="47" y="-89.75" font-family="Helvetica,sans-Serif" font-size="10.00"> Char &gt;</text>
</a>
</g>
</g>
<!-- Node9&#45;&gt;Node8 -->
<g id="edge9_Node000008_Node000009" class="edge">
<title>Node9&#45;&gt;Node8</title>
<g id="a_edge9_Node000008_Node000009"><a xlink:title=" ">
<path fill="none" stroke="#63b8ff" d="M105.45,-99.25C139.78,-99.25 181.93,-99.25 209.5,-99.25"/>
<polygon fill="#63b8ff" stroke="#63b8ff" points="105.66,-95.75 95.66,-99.25 105.66,-102.75 105.66,-95.75"/>
</a>
</g>
</g>
<!-- Node10&#45;&gt;Node7 -->
<g id="edge10_Node000007_Node000010" class="edge">
<title>Node10&#45;&gt;Node7</title>
<g id="a_edge10_Node000007_Node000010"><a xlink:title=" ">
<path fill="none" stroke="#9a32cd" stroke-dasharray="5,2" d="M607.45,-134.64C646.13,-135.46 694.68,-136.62 738,-138 747.51,-138.3 757.64,-138.67 767.4,-139.06"/>
<polygon fill="#9a32cd" stroke="#9a32cd" points="607.88,-131.15 597.81,-134.44 607.73,-138.15 607.88,-131.15"/>
</a>
</g>
<text text-anchor="middle" x="676.88" y="-139.75" font-family="Helvetica,sans-Serif" font-size="10.00" fill="grey"> m_trace_starts</text>
</g>
<!-- Node11&#45;&gt;Node10 -->
<g id="edge12_Node000010_Node000011" class="edge">
<title>Node11&#45;&gt;Node10</title>
<g id="a_edge12_Node000010_Node000011"><a xlink:title=" ">
<path fill="none" stroke="orange" stroke-dasharray="5,2" d="M286.92,-144.55C298.94,-140.31 312.02,-136.45 324.5,-134.25 374.02,-125.54 431.17,-125.96 473.2,-128.18"/>
<polygon fill="orange" stroke="orange" points="285.81,-141.22 277.65,-147.98 288.24,-147.79 285.81,-141.22"/>
</a>
</g>
<text text-anchor="start" x="324.5" y="-169.75" font-family="Helvetica,sans-Serif" font-size="10.00" fill="grey"> &lt; std::string, std</text>
<text text-anchor="start" x="324.5" y="-158.5" font-family="Helvetica,sans-Serif" font-size="10.00" fill="grey">::chrono::time_point</text>
<text text-anchor="start" x="324.5" y="-147.25" font-family="Helvetica,sans-Serif" font-size="10.00" fill="grey">&lt; std::chrono::high_resolution</text>
<text text-anchor="middle" x="389" y="-136" font-family="Helvetica,sans-Serif" font-size="10.00" fill="grey">_clock &gt; &gt;</text>
</g>
<!-- Node12 -->
<g id="Node000012" class="node">
<title>Node12</title>
<g id="a_Node000012"><a xlink:title=" ">
<polygon fill="white" stroke="#666666" points="61.4,-173.88 32.6,-173.88 32.6,-154.62 61.4,-154.62 61.4,-173.88"/>
<text text-anchor="middle" x="47" y="-160.38" font-family="Helvetica,sans-Serif" font-size="10.00">K</text>
</a>
</g>
</g>
<!-- Node12&#45;&gt;Node11 -->
<g id="edge13_Node000011_Node000012" class="edge">
<title>Node12&#45;&gt;Node11</title>
<g id="a_edge13_Node000011_Node000012"><a xlink:title=" ">
<path fill="none" stroke="#9a32cd" stroke-dasharray="5,2" d="M72.87,-164.25C101.96,-164.25 150.85,-164.25 188.02,-164.25"/>
<polygon fill="#9a32cd" stroke="#9a32cd" points="73.22,-160.75 63.22,-164.25 73.22,-167.75 73.22,-160.75"/>
</a>
</g>
<text text-anchor="middle" x="133.38" y="-166" font-family="Helvetica,sans-Serif" font-size="10.00" fill="grey"> keys</text>
</g>
<!-- Node13&#45;&gt;Node1 -->
<g id="edge21_Node000001_Node000013" class="edge">
<title>Node13&#45;&gt;Node1</title>
<g id="a_edge21_Node000001_Node000013"><a xlink:title=" ">
<path fill="none" stroke="#9a32cd" stroke-dasharray="5,2" d="M608.17,-201.25C746.61,-201.25 1046.34,-201.25 1176.87,-201.25"/>
<polygon fill="#9a32cd" stroke="#9a32cd" points="608.39,-197.75 598.39,-201.25 608.39,-204.75 608.39,-197.75"/>
</a>
</g>
<text text-anchor="middle" x="927.62" y="-203" font-family="Helvetica,sans-Serif" font-size="10.00" fill="grey"> m_symbols</text>
</g>
<!-- Node13&#45;&gt;Node7 -->
<g id="edge15_Node000007_Node000013" class="edge">
<title>Node13&#45;&gt;Node7</title>
<g id="a_edge15_Node000007_Node000013"><a xlink:title=" ">
<path fill="none" stroke="#9a32cd" stroke-dasharray="5,2" d="M575.12,-187.64C587.97,-183.52 602.37,-179.24 615.75,-176 666.77,-163.65 726.05,-154.02 767.28,-148.07"/>
<polygon fill="#9a32cd" stroke="#9a32cd" points="574.14,-184.27 565.73,-190.71 576.32,-190.93 574.14,-184.27"/>
</a>
</g>
<text text-anchor="middle" x="676.88" y="-177.75" font-family="Helvetica,sans-Serif" font-size="10.00" fill="grey"> m_active_traces</text>
</g>
<!-- Node14&#45;&gt;Node1 -->
<g id="edge18_Node000001_Node000014" class="edge">
<title>Node14&#45;&gt;Node1</title>
<g id="a_edge18_Node000001_Node000014"><a xlink:title=" ">
<path fill="none" stroke="#9a32cd" stroke-dasharray="5,2" d="M607.17,-399.7C717.66,-406.59 933.92,-407.7 1095.5,-331.25 1157.97,-301.69 1212.89,-236.11 1232.29,-211.15"/>
<polygon fill="#9a32cd" stroke="#9a32cd" points="607.57,-396.22 597.36,-399.05 607.1,-403.2 607.57,-396.22"/>
</a>
</g>
<text text-anchor="middle" x="927.62" y="-389.32" font-family="Helvetica,sans-Serif" font-size="10.00" fill="grey"> m_ir</text>
</g>
<!-- Node15&#45;&gt;Node1 -->
<g id="edge22_Node000001_Node000015" class="edge">
<title>Node15&#45;&gt;Node1</title>
<g id="a_edge22_Node000001_Node000015"><a xlink:title=" ">
<path fill="none" stroke="#9a32cd" stroke-dasharray="5,2" d="M607.38,-31.76C714.24,-56.67 921.32,-106.2 1095.5,-155.25 1135.48,-166.51 1181.05,-181.39 1210.09,-191.14"/>
<polygon fill="#9a32cd" stroke="#9a32cd" points="608.42,-28.41 597.89,-29.55 606.84,-35.23 608.42,-28.41"/>
</a>
</g>
<text text-anchor="middle" x="927.62" y="-117.29" font-family="Helvetica,sans-Serif" font-size="10.00" fill="grey"> m_values</text>
</g>
<!-- Node16 -->
<g id="Node000016" class="node">
<title>Node16</title>
<g id="a_Node000016"><a xlink:href="../../d8/dc4/structArk_1_1internal_1_1ValTableElem.html" target="_top" xlink:title="A Compiler Value class helper to handle multiple types.">
<polygon fill="white" stroke="#666666" points="306.5,-24.88 172.75,-24.88 172.75,-5.63 306.5,-5.63 306.5,-24.88"/>
<text text-anchor="middle" x="239.62" y="-11.38" font-family="Helvetica,sans-Serif" font-size="10.00">Ark::internal::ValTableElem</text>
</a>
</g>
</g>
<!-- Node16&#45;&gt;Node15 -->
<g id="edge23_Node000015_Node000016" class="edge">
<title>Node16&#45;&gt;Node15</title>
<g id="a_edge23_Node000015_Node000016"><a xlink:title=" ">
<path fill="none" stroke="#9a32cd" stroke-dasharray="5,2" d="M318.11,-15.25C366.48,-15.25 427.87,-15.25 472.74,-15.25"/>
<polygon fill="#9a32cd" stroke="#9a32cd" points="318.26,-11.75 308.26,-15.25 318.26,-18.75 318.26,-11.75"/>
</a>
</g>
<text text-anchor="middle" x="389" y="-17" font-family="Helvetica,sans-Serif" font-size="10.00" fill="grey"> elements</text>
</g>
</g>
</svg>
