<?xml version="1.0" encoding="UTF-8" standalone="no"?>
<!DOCTYPE svg PUBLIC "-//W3C//DTD SVG 1.1//EN"
 "http://www.w3.org/Graphics/SVG/1.1/DTD/svg11.dtd">
<!-- Generated by graphviz version 12.2.0 (20241103.1931)
 -->
<!-- Title: Ark::internal::IROptimizer Pages: 1 -->
<svg width="1446pt" height="432pt"
 viewBox="0.00 0.00 1445.50 432.43" xmlns="http://www.w3.org/2000/svg" xmlns:xlink="http://www.w3.org/1999/xlink">
<g id="graph0" class="graph" transform="scale(1 1) rotate(0) translate(4 428.43)">
<title>Ark::internal::IROptimizer</title>
<!-- Node1 -->
<g id="Node000001" class="node">
<title>Node1</title>
<g id="a_Node000001"><a xlink:title=" ">
<polygon fill="#999999" stroke="#666666" points="1437.5,-284.88 1310.5,-284.88 1310.5,-265.62 1437.5,-265.62 1437.5,-284.88"/>
<text text-anchor="middle" x="1374" y="-271.38" font-family="Helvetica,sans-Serif" font-size="10.00">Ark::internal::IROptimizer</text>
</a>
</g>
</g>
<!-- Node2 -->
<g id="Node000002" class="node">
<title>Node2</title>
<g id="a_Node000002"><a xlink:href="../../da/d7b/classArk_1_1internal_1_1Pass.html" target="_top" xlink:title="An interface to describe compiler passes.">
<polygon fill="white" stroke="#666666" points="1215.62,-195.88 1118.62,-195.88 1118.62,-176.62 1215.62,-176.62 1215.62,-195.88"/>
<text text-anchor="middle" x="1167.12" y="-182.38" font-family="Helvetica,sans-Serif" font-size="10.00">Ark::internal::Pass</text>
</a>
</g>
</g>
<!-- Node2&#45;&gt;Node1 -->
<g id="edge1_Node000001_Node000002" class="edge">
<title>Node2&#45;&gt;Node1</title>
<g id="a_edge1_Node000001_Node000002"><a xlink:title=" ">
<path fill="none" stroke="#63b8ff" d="M1224.1,-199.26C1245.95,-205.27 1270.89,-213.3 1292.5,-223.25 1317.89,-234.94 1344.63,-253.68 1360,-265.18"/>
<polygon fill="#63b8ff" stroke="#63b8ff" points="1225.01,-195.88 1214.45,-196.69 1223.21,-202.65 1225.01,-195.88"/>
</a>
</g>
</g>
<!-- Node3 -->
<g id="Node000003" class="node">
<title>Node3</title>
<g id="a_Node000003"><a xlink:href="../../d6/d2f/classArk_1_1internal_1_1Logger.html" target="_top" xlink:title=" ">
<polygon fill="white" stroke="#666666" points="1004.62,-152.88 900.88,-152.88 900.88,-133.62 1004.62,-133.62 1004.62,-152.88"/>
<text text-anchor="middle" x="952.75" y="-139.38" font-family="Helvetica,sans-Serif" font-size="10.00">Ark::internal::Logger</text>
</a>
</g>
</g>
<!-- Node3&#45;&gt;Node2 -->
<g id="edge2_Node000002_Node000003" class="edge">
<title>Node3&#45;&gt;Node2</title>
<g id="a_edge2_Node000002_Node000003"><a xlink:title=" ">
<path fill="none" stroke="#9a32cd" stroke-dasharray="5,2" d="M1014.44,-155.54C1047.46,-162.22 1087.73,-170.38 1118.47,-176.6"/>
<polygon fill="#9a32cd" stroke="#9a32cd" points="1015.52,-152.19 1005.03,-153.63 1014.13,-159.05 1015.52,-152.19"/>
</a>
</g>
<text text-anchor="middle" x="1060.88" y="-171.62" font-family="Helvetica,sans-Serif" font-size="10.00" fill="grey"> m_logger</text>
</g>
<!-- Node4 -->
<g id="Node000004" class="node">
<title>Node4</title>
<g id="a_Node000004"><a xlink:title=" ">
<polygon fill="white" stroke="#666666" points="402.62,-152.88 343.12,-152.88 343.12,-133.62 402.62,-133.62 402.62,-152.88"/>
<text text-anchor="middle" x="372.88" y="-139.38" font-family="Helvetica,sans-Serif" font-size="10.00">std::string</text>
</a>
</g>
</g>
<!-- Node4&#45;&gt;Node3 -->
<g id="edge3_Node000003_Node000004" class="edge">
<title>Node4&#45;&gt;Node3</title>
<g id="a_edge3_Node000003_Node000004"><a xlink:title=" ">
<path fill="none" stroke="#9a32cd" stroke-dasharray="5,2" d="M414.31,-143.25C516.94,-143.25 787.42,-143.25 900.7,-143.25"/>
<polygon fill="#9a32cd" stroke="#9a32cd" points="414.44,-139.75 404.44,-143.25 414.44,-146.75 414.44,-139.75"/>
</a>
</g>
<text text-anchor="middle" x="667.88" y="-145" font-family="Helvetica,sans-Serif" font-size="10.00" fill="grey"> m_name</text>
</g>
<!-- Node6 -->
<g id="Node000006" class="node">
<title>Node6</title>
<g id="a_Node000006"><a xlink:title=" ">
<polygon fill="white" stroke="#666666" points="729.12,-107.38 606.62,-107.38 606.62,-43.12 729.12,-43.12 729.12,-107.38"/>
<text text-anchor="start" x="614.62" y="-93.88" font-family="Helvetica,sans-Serif" font-size="10.00">std::unordered_map</text>
<text text-anchor="start" x="614.62" y="-82.62" font-family="Helvetica,sans-Serif" font-size="10.00">&lt; std::string, std::</text>
<text text-anchor="start" x="614.62" y="-71.38" font-family="Helvetica,sans-Serif" font-size="10.00">chrono::time_point&lt; std</text>
<text text-anchor="start" x="614.62" y="-60.12" font-family="Helvetica,sans-Serif" font-size="10.00">::chrono::high_resolution</text>
<text text-anchor="middle" x="667.88" y="-48.88" font-family="Helvetica,sans-Serif" font-size="10.00">_clock &gt; &gt;</text>
</a>
</g>
</g>
<!-- Node4&#45;&gt;Node6 -->
<g id="edge6_Node000006_Node000004" class="edge">
<title>Node4&#45;&gt;Node6</title>
<g id="a_edge6_Node000006_Node000004"><a xlink:title=" ">
<path fill="none" stroke="#9a32cd" stroke-dasharray="5,2" d="M413.45,-130.29C427.36,-126.01 443.16,-121.47 457.75,-118 514.39,-104.53 529.81,-107.36 586.75,-95.25 593.06,-93.91 599.63,-92.42 606.17,-90.88"/>
<polygon fill="#9a32cd" stroke="#9a32cd" points="412.7,-126.86 404.2,-133.18 414.79,-133.54 412.7,-126.86"/>
</a>
</g>
<text text-anchor="middle" x="522.25" y="-119.75" font-family="Helvetica,sans-Serif" font-size="10.00" fill="grey"> keys</text>
</g>
<!-- Node10 -->
<g id="Node000010" class="node">
<title>Node10</title>
<g id="a_Node000010"><a xlink:title=" ">
<polygon fill="white" stroke="#666666" points="729.88,-201.88 605.88,-201.88 605.88,-182.62 729.88,-182.62 729.88,-201.88"/>
<text text-anchor="middle" x="667.88" y="-188.38" font-family="Helvetica,sans-Serif" font-size="10.00">std::vector&lt; std::string &gt;</text>
</a>
</g>
</g>
<!-- Node4&#45;&gt;Node10 -->
<g id="edge11_Node000010_Node000004" class="edge">
<title>Node4&#45;&gt;Node10</title>
<g id="a_edge11_Node000010_Node000004"><a xlink:title=" ">
<path fill="none" stroke="#9a32cd" stroke-dasharray="5,2" d="M414.19,-149.26C457.05,-155.74 526.77,-166.54 586.75,-177 595.96,-178.61 605.74,-180.4 615.2,-182.17"/>
<polygon fill="#9a32cd" stroke="#9a32cd" points="414.75,-145.81 404.34,-147.78 413.71,-152.73 414.75,-145.81"/>
</a>
</g>
<text text-anchor="middle" x="522.25" y="-178.75" font-family="Helvetica,sans-Serif" font-size="10.00" fill="grey"> elements</text>
</g>
<!-- Node5 -->
<g id="Node000005" class="node">
<title>Node5</title>
<g id="a_Node000005"><a xlink:title=" ">
<polygon fill="white" stroke="#666666" points="216.38,-158.5 122.38,-158.5 122.38,-128 216.38,-128 216.38,-158.5"/>
<text text-anchor="start" x="130.38" y="-145" font-family="Helvetica,sans-Serif" font-size="10.00">std::basic_string&lt;</text>
<text text-anchor="middle" x="169.38" y="-133.75" font-family="Helvetica,sans-Serif" font-size="10.00"> Char &gt;</text>
</a>
</g>
</g>
<!-- Node5&#45;&gt;Node4 -->
<g id="edge4_Node000004_Node000005" class="edge">
<title>Node5&#45;&gt;Node4</title>
<g id="a_edge4_Node000004_Node000005"><a xlink:title=" ">
<path fill="none" stroke="#63b8ff" d="M228.15,-143.25C265.64,-143.25 312.91,-143.25 342.77,-143.25"/>
<polygon fill="#63b8ff" stroke="#63b8ff" points="228.37,-139.75 218.37,-143.25 228.37,-146.75 228.37,-139.75"/>
</a>
</g>
</g>
<!-- Node6&#45;&gt;Node3 -->
<g id="edge5_Node000003_Node000006" class="edge">
<title>Node6&#45;&gt;Node3</title>
<g id="a_edge5_Node000003_Node000006"><a xlink:title=" ">
<path fill="none" stroke="#9a32cd" stroke-dasharray="5,2" d="M740.65,-88.67C779.52,-96.38 828.25,-106.74 871.25,-118 888.25,-122.45 907,-128.28 922.13,-133.21"/>
<polygon fill="#9a32cd" stroke="#9a32cd" points="741.42,-85.26 730.93,-86.76 740.07,-92.12 741.42,-85.26"/>
</a>
</g>
<text text-anchor="middle" x="810.12" y="-119.75" font-family="Helvetica,sans-Serif" font-size="10.00" fill="grey"> m_trace_starts</text>
</g>
<!-- Node7 -->
<g id="Node000007" class="node">
<title>Node7</title>
<g id="a_Node000007"><a xlink:title=" ">
<polygon fill="white" stroke="#666666" points="424,-79.5 321.75,-79.5 321.75,-49 424,-49 424,-79.5"/>
<text text-anchor="start" x="329.75" y="-66" font-family="Helvetica,sans-Serif" font-size="10.00">std::unordered_map</text>
<text text-anchor="middle" x="372.88" y="-54.75" font-family="Helvetica,sans-Serif" font-size="10.00">&lt; K, T &gt;</text>
</a>
</g>
</g>
<!-- Node7&#45;&gt;Node6 -->
<g id="edge7_Node000006_Node000007" class="edge">
<title>Node7&#45;&gt;Node6</title>
<g id="a_edge7_Node000006_Node000007"><a xlink:title=" ">
<path fill="none" stroke="orange" stroke-dasharray="5,2" d="M435.5,-52.77C442.98,-51.73 450.52,-50.85 457.75,-50.25 514.89,-45.51 530.07,-41.61 586.75,-50.25 593.23,-51.24 599.91,-52.65 606.52,-54.31"/>
<polygon fill="orange" stroke="orange" points="435.14,-49.29 425.77,-54.23 436.17,-56.21 435.14,-49.29"/>
</a>
</g>
<text text-anchor="start" x="457.75" y="-85.75" font-family="Helvetica,sans-Serif" font-size="10.00" fill="grey"> &lt; std::string, std</text>
<text text-anchor="start" x="457.75" y="-74.5" font-family="Helvetica,sans-Serif" font-size="10.00" fill="grey">::chrono::time_point</text>
<text text-anchor="start" x="457.75" y="-63.25" font-family="Helvetica,sans-Serif" font-size="10.00" fill="grey">&lt; std::chrono::high_resolution</text>
<text text-anchor="middle" x="522.25" y="-52" font-family="Helvetica,sans-Serif" font-size="10.00" fill="grey">_clock &gt; &gt;</text>
</g>
<!-- Node8 -->
<g id="Node000008" class="node">
<title>Node8</title>
<g id="a_Node000008"><a xlink:title=" ">
<polygon fill="white" stroke="#666666" points="183.78,-72.88 154.97,-72.88 154.97,-53.62 183.78,-53.62 183.78,-72.88"/>
<text text-anchor="middle" x="169.38" y="-59.38" font-family="Helvetica,sans-Serif" font-size="10.00">K</text>
</a>
</g>
</g>
<!-- Node8&#45;&gt;Node7 -->
<g id="edge8_Node000007_Node000008" class="edge">
<title>Node8&#45;&gt;Node7</title>
<g id="a_edge8_Node000007_Node000008"><a xlink:title=" ">
<path fill="none" stroke="#9a32cd" stroke-dasharray="5,2" d="M195.41,-63.37C226.79,-63.53 281.32,-63.8 321.48,-64"/>
<polygon fill="#9a32cd" stroke="#9a32cd" points="195.76,-59.88 185.74,-63.33 195.72,-66.88 195.76,-59.88"/>
</a>
</g>
<text text-anchor="middle" x="266.62" y="-65.56" font-family="Helvetica,sans-Serif" font-size="10.00" fill="grey"> keys</text>
</g>
<!-- Node9 -->
<g id="Node000009" class="node">
<title>Node9</title>
<g id="a_Node000009"><a xlink:title=" ">
<polygon fill="white" stroke="#666666" points="183.78,-109.88 154.97,-109.88 154.97,-90.62 183.78,-90.62 183.78,-109.88"/>
<text text-anchor="middle" x="169.38" y="-96.38" font-family="Helvetica,sans-Serif" font-size="10.00">T</text>
</a>
</g>
</g>
<!-- Node9&#45;&gt;Node7 -->
<g id="edge9_Node000007_Node000009" class="edge">
<title>Node9&#45;&gt;Node7</title>
<g id="a_edge9_Node000007_Node000009"><a xlink:title=" ">
<path fill="none" stroke="#9a32cd" stroke-dasharray="5,2" d="M195.41,-95.78C226.79,-90.17 281.32,-80.43 321.48,-73.25"/>
<polygon fill="#9a32cd" stroke="#9a32cd" points="194.94,-92.31 185.71,-97.51 196.17,-99.2 194.94,-92.31"/>
</a>
</g>
<text text-anchor="middle" x="266.62" y="-88.28" font-family="Helvetica,sans-Serif" font-size="10.00" fill="grey"> elements</text>
</g>
<!-- Node11 -->
<g id="Node000011" class="node">
<title>Node11</title>
<g id="a_Node000011"><a xlink:title=" ">
<polygon fill="white" stroke="#666666" points="416.12,-325.88 329.62,-325.88 329.62,-306.62 416.12,-306.62 416.12,-325.88"/>
<text text-anchor="middle" x="372.88" y="-312.38" font-family="Helvetica,sans-Serif" font-size="10.00">std::vector&lt; T &gt;</text>
</a>
</g>
</g>
<!-- Node9&#45;&gt;Node11 -->
<g id="edge13_Node000011_Node000009" class="edge">
<title>Node9&#45;&gt;Node11</title>
<g id="a_edge13_Node000011_Node000009"><a xlink:title=" ">
<path fill="none" stroke="#9a32cd" stroke-dasharray="5,2" d="M194.9,-104.23C205.75,-106.99 218.1,-111.6 227.25,-119.25 283.21,-166.04 259.18,-207.31 306,-263.25 320.6,-280.7 341.67,-296.45 356.02,-306.16"/>
<polygon fill="#9a32cd" stroke="#9a32cd" points="195.92,-100.87 185.41,-102.23 194.47,-107.72 195.92,-100.87"/>
</a>
</g>
<text text-anchor="middle" x="266.62" y="-236.1" font-family="Helvetica,sans-Serif" font-size="10.00" fill="grey"> elements</text>
</g>
<!-- Node10&#45;&gt;Node1 -->
<g id="edge26_Node000001_Node000010" class="edge">
<title>Node10&#45;&gt;Node1</title>
<g id="a_edge26_Node000001_Node000010"><a xlink:title=" ">
<path fill="none" stroke="#9a32cd" stroke-dasharray="5,2" d="M728.44,-204.56C812.18,-221.2 969.67,-250.08 1105.5,-261.25 1175.49,-267.01 1255.98,-270.84 1310.23,-273.02"/>
<polygon fill="#9a32cd" stroke="#9a32cd" points="729.35,-201.17 718.86,-202.64 727.98,-208.04 729.35,-201.17"/>
</a>
</g>
<text text-anchor="middle" x="1060.88" y="-261.41" font-family="Helvetica,sans-Serif" font-size="10.00" fill="grey"> m_symbols</text>
</g>
<!-- Node10&#45;&gt;Node3 -->
<g id="edge10_Node000003_Node000010" class="edge">
<title>Node10&#45;&gt;Node3</title>
<g id="a_edge10_Node000003_Node000010"><a xlink:title=" ">
<path fill="none" stroke="#9a32cd" stroke-dasharray="5,2" d="M738.56,-180.21C777.58,-173.47 827.12,-164.9 871.25,-157.25 880.75,-155.6 890.89,-153.84 900.65,-152.14"/>
<polygon fill="#9a32cd" stroke="#9a32cd" points="738.08,-176.75 728.82,-181.9 739.27,-183.64 738.08,-176.75"/>
</a>
</g>
<text text-anchor="middle" x="810.12" y="-179.82" font-family="Helvetica,sans-Serif" font-size="10.00" fill="grey"> m_active_traces</text>
</g>
<!-- Node11&#45;&gt;Node10 -->
<g id="edge12_Node000010_Node000011" class="edge">
<title>Node11&#45;&gt;Node10</title>
<g id="a_edge12_Node000010_Node000011"><a xlink:title=" ">
<path fill="none" stroke="orange" stroke-dasharray="5,2" d="M398.9,-299.89C412.18,-290.33 428.12,-277.39 439.75,-263.25 450.68,-249.97 443.86,-239.14 457.75,-229 500.33,-197.93 560.59,-190.1 605.5,-189.25"/>
<polygon fill="orange" stroke="orange" points="397.25,-296.77 391.04,-305.35 401.25,-302.52 397.25,-296.77"/>
</a>
</g>
<text text-anchor="middle" x="522.25" y="-230.75" font-family="Helvetica,sans-Serif" font-size="10.00" fill="grey"> &lt; std::string &gt;</text>
</g>
<!-- Node16 -->
<g id="Node000016" class="node">
<title>Node16</title>
<g id="a_Node000016"><a xlink:title=" ">
<polygon fill="white" stroke="#666666" points="1228.75,-333.5 1105.5,-333.5 1105.5,-303 1228.75,-303 1228.75,-333.5"/>
<text text-anchor="start" x="1113.5" y="-320" font-family="Helvetica,sans-Serif" font-size="10.00">std::vector&lt; Ark::internal</text>
<text text-anchor="middle" x="1167.12" y="-308.75" font-family="Helvetica,sans-Serif" font-size="10.00">::IROptimizer::Rule &gt;</text>
</a>
</g>
</g>
<!-- Node11&#45;&gt;Node16 -->
<g id="edge22_Node000016_Node000011" class="edge">
<title>Node11&#45;&gt;Node16</title>
<g id="a_edge22_Node000016_Node000011"><a xlink:title=" ">
<path fill="none" stroke="orange" stroke-dasharray="5,2" d="M427.9,-316.39C570.32,-316.75 955.37,-317.72 1105.26,-318.1"/>
<polygon fill="orange" stroke="orange" points="427.99,-312.89 417.98,-316.36 427.97,-319.89 427.99,-312.89"/>
</a>
</g>
<text text-anchor="start" x="749" y="-330.5" font-family="Helvetica,sans-Serif" font-size="10.00" fill="grey"> &lt; Ark::internal::IROptimizer</text>
<text text-anchor="middle" x="810.12" y="-319.25" font-family="Helvetica,sans-Serif" font-size="10.00" fill="grey">::Rule &gt;</text>
</g>
<!-- Node18 -->
<g id="Node000018" class="node">
<title>Node18</title>
<g id="a_Node000018"><a xlink:title=" ">
<polygon fill="white" stroke="#666666" points="731,-367.88 604.75,-367.88 604.75,-348.62 731,-348.62 731,-367.88"/>
<text text-anchor="middle" x="667.88" y="-354.38" font-family="Helvetica,sans-Serif" font-size="10.00">std::vector&lt; Instruction &gt;</text>
</a>
</g>
</g>
<!-- Node11&#45;&gt;Node18 -->
<g id="edge21_Node000018_Node000011" class="edge">
<title>Node11&#45;&gt;Node18</title>
<g id="a_edge21_Node000018_Node000011"><a xlink:title=" ">
<path fill="none" stroke="orange" stroke-dasharray="5,2" d="M427.69,-323.96C477.63,-331.12 551.98,-341.78 604.5,-349.31"/>
<polygon fill="orange" stroke="orange" points="428.37,-320.53 417.98,-322.57 427.38,-327.46 428.37,-320.53"/>
</a>
</g>
<text text-anchor="middle" x="522.25" y="-347.59" font-family="Helvetica,sans-Serif" font-size="10.00" fill="grey"> &lt; Instruction &gt;</text>
</g>
<!-- Node19 -->
<g id="Node000019" class="node">
<title>Node19</title>
<g id="a_Node000019"><a xlink:title=" ">
<polygon fill="white" stroke="#666666" points="728.75,-411.88 607,-411.88 607,-392.62 728.75,-392.62 728.75,-411.88"/>
<text text-anchor="middle" x="667.88" y="-398.38" font-family="Helvetica,sans-Serif" font-size="10.00">std::vector&lt; IR::Block &gt;</text>
</a>
</g>
</g>
<!-- Node11&#45;&gt;Node19 -->
<g id="edge24_Node000019_Node000011" class="edge">
<title>Node11&#45;&gt;Node19</title>
<g id="a_edge24_Node000019_Node000011"><a xlink:title=" ">
<path fill="none" stroke="#9a32cd" stroke-dasharray="5,2" d="M398.72,-332.29C414.92,-342.06 436.87,-354.02 457.75,-361.25 512.76,-380.31 529.68,-372.48 586.75,-384 599.06,-386.49 612.37,-389.42 624.54,-392.2"/>
<polygon fill="#9a32cd" stroke="#9a32cd" points="400.6,-329.34 390.25,-327.06 396.91,-335.29 400.6,-329.34"/>
</a>
</g>
<text text-anchor="middle" x="522.25" y="-385.75" font-family="Helvetica,sans-Serif" font-size="10.00" fill="grey"> elements</text>
</g>
<!-- Node11&#45;&gt;Node19 -->
<g id="edge25_Node000019_Node000011" class="edge">
<title>Node11&#45;&gt;Node19</title>
<g id="a_edge25_Node000019_Node000011"><a xlink:title=" ">
<path fill="none" stroke="orange" stroke-dasharray="5,2" d="M387.22,-335.12C401.99,-354.24 427.71,-382.75 457.75,-395.25 505.04,-414.94 563.67,-415.06 606.81,-411.2"/>
<polygon fill="orange" stroke="orange" points="390.2,-333.26 381.43,-327.32 384.58,-337.43 390.2,-333.26"/>
</a>
</g>
<text text-anchor="middle" x="522.25" y="-414.93" font-family="Helvetica,sans-Serif" font-size="10.00" fill="grey"> &lt; IR::Block &gt;</text>
</g>
<!-- Node20 -->
<g id="Node000020" class="node">
<title>Node20</title>
<g id="a_Node000020"><a xlink:title=" ">
<polygon fill="white" stroke="#666666" points="729.5,-259.5 606.25,-259.5 606.25,-229 729.5,-229 729.5,-259.5"/>
<text text-anchor="start" x="614.25" y="-246" font-family="Helvetica,sans-Serif" font-size="10.00">std::vector&lt; Ark::internal</text>
<text text-anchor="middle" x="667.88" y="-234.75" font-family="Helvetica,sans-Serif" font-size="10.00">::ValTableElem &gt;</text>
</a>
</g>
</g>
<!-- Node11&#45;&gt;Node20 -->
<g id="edge29_Node000020_Node000011" class="edge">
<title>Node11&#45;&gt;Node20</title>
<g id="a_edge29_Node000020_Node000011"><a xlink:title=" ">
<path fill="none" stroke="orange" stroke-dasharray="5,2" d="M403.54,-301.24C419.3,-293.81 439.2,-285.27 457.75,-279.75 471.8,-275.57 549.3,-262.85 605.86,-253.84"/>
<polygon fill="orange" stroke="orange" points="402.21,-298 394.73,-305.5 405.25,-304.3 402.21,-298"/>
</a>
</g>
<text text-anchor="start" x="469" y="-292.75" font-family="Helvetica,sans-Serif" font-size="10.00" fill="grey"> &lt; Ark::internal::ValTable</text>
<text text-anchor="middle" x="522.25" y="-281.5" font-family="Helvetica,sans-Serif" font-size="10.00" fill="grey">Elem &gt;</text>
</g>
<!-- Node12 -->
<g id="Node000012" class="node">
<title>Node12</title>
<g id="a_Node000012"><a xlink:title=" ">
<polygon fill="white" stroke="#666666" points="703.25,-24.88 632.5,-24.88 632.5,-5.63 703.25,-5.63 703.25,-24.88"/>
<text text-anchor="middle" x="667.88" y="-11.38" font-family="Helvetica,sans-Serif" font-size="10.00">std::ostream</text>
</a>
</g>
</g>
<!-- Node12&#45;&gt;Node3 -->
<g id="edge14_Node000003_Node000012" class="edge">
<title>Node12&#45;&gt;Node3</title>
<g id="a_edge14_Node000003_Node000012"><a xlink:title=" ">
<path fill="none" stroke="#9a32cd" stroke-dasharray="5,2" d="M714.55,-23.45C756.96,-32.31 820.95,-48.92 871.25,-76 900.43,-91.71 928.81,-119.07 942.78,-133.58"/>
<polygon fill="#9a32cd" stroke="#9a32cd" points="715.43,-20.06 704.94,-21.5 714.05,-26.92 715.43,-20.06"/>
</a>
</g>
<text text-anchor="middle" x="810.12" y="-77.75" font-family="Helvetica,sans-Serif" font-size="10.00" fill="grey"> m_stream</text>
</g>
<!-- Node13 -->
<g id="Node000013" class="node">
<title>Node13</title>
<g id="a_Node000013"><a xlink:title=" ">
<polygon fill="white" stroke="#666666" points="422.5,-30.5 323.25,-30.5 323.25,0 422.5,0 422.5,-30.5"/>
<text text-anchor="start" x="331.25" y="-17" font-family="Helvetica,sans-Serif" font-size="10.00">std::basic_ostream</text>
<text text-anchor="middle" x="372.88" y="-5.75" font-family="Helvetica,sans-Serif" font-size="10.00">&lt; Char &gt;</text>
</a>
</g>
</g>
<!-- Node13&#45;&gt;Node12 -->
<g id="edge15_Node000012_Node000013" class="edge">
<title>Node13&#45;&gt;Node12</title>
<g id="a_edge15_Node000012_Node000013"><a xlink:title=" ">
<path fill="none" stroke="#63b8ff" d="M434.1,-15.25C493.95,-15.25 583.64,-15.25 632.37,-15.25"/>
<polygon fill="#63b8ff" stroke="#63b8ff" points="434.43,-11.75 424.43,-15.25 434.43,-18.75 434.43,-11.75"/>
</a>
</g>
</g>
<!-- Node14 -->
<g id="Node000014" class="node">
<title>Node14</title>
<g id="a_Node000014"><a xlink:title=" ">
<polygon fill="white" stroke="#666666" points="227.25,-24.88 111.5,-24.88 111.5,-5.63 227.25,-5.63 227.25,-24.88"/>
<text text-anchor="middle" x="169.38" y="-11.38" font-family="Helvetica,sans-Serif" font-size="10.00">std::basic_ios&lt; Char &gt;</text>
</a>
</g>
</g>
<!-- Node14&#45;&gt;Node13 -->
<g id="edge16_Node000013_Node000014" class="edge">
<title>Node14&#45;&gt;Node13</title>
<g id="a_edge16_Node000013_Node000014"><a xlink:title=" ">
<path fill="none" stroke="#63b8ff" d="M238.78,-15.25C266.46,-15.25 297.77,-15.25 323.07,-15.25"/>
<polygon fill="#63b8ff" stroke="#63b8ff" points="239.09,-11.75 229.09,-15.25 239.09,-18.75 239.09,-11.75"/>
</a>
</g>
</g>
<!-- Node15 -->
<g id="Node000015" class="node">
<title>Node15</title>
<g id="a_Node000015"><a xlink:title=" ">
<polygon fill="white" stroke="#666666" points="74.5,-24.88 0,-24.88 0,-5.63 74.5,-5.63 74.5,-24.88"/>
<text text-anchor="middle" x="37.25" y="-11.38" font-family="Helvetica,sans-Serif" font-size="10.00">std::ios_base</text>
</a>
</g>
</g>
<!-- Node15&#45;&gt;Node14 -->
<g id="edge17_Node000014_Node000015" class="edge">
<title>Node15&#45;&gt;Node14</title>
<g id="a_edge17_Node000014_Node000015"><a xlink:title=" ">
<path fill="none" stroke="#63b8ff" d="M86.34,-15.25C94.41,-15.25 102.86,-15.25 111.13,-15.25"/>
<polygon fill="#63b8ff" stroke="#63b8ff" points="86.36,-11.75 76.36,-15.25 86.36,-18.75 86.36,-11.75"/>
</a>
</g>
</g>
<!-- Node16&#45;&gt;Node1 -->
<g id="edge18_Node000001_Node000016" class="edge">
<title>Node16&#45;&gt;Node1</title>
<g id="a_edge18_Node000001_Node000016"><a xlink:title=" ">
<path fill="none" stroke="#9a32cd" stroke-dasharray="5,2" d="M1240.04,-303.16C1268.19,-297.25 1299.71,-290.63 1324.99,-285.33"/>
<polygon fill="#9a32cd" stroke="#9a32cd" points="1239.59,-299.67 1230.52,-305.15 1241.03,-306.53 1239.59,-299.67"/>
</a>
</g>
<text text-anchor="middle" x="1269.62" y="-302.35" font-family="Helvetica,sans-Serif" font-size="10.00" fill="grey"> m_ruleset</text>
</g>
<!-- Node17 -->
<g id="Node000017" class="node">
<title>Node17</title>
<g id="a_Node000017"><a xlink:href="../../da/d1e/structArk_1_1internal_1_1IROptimizer_1_1Rule.html" target="_top" xlink:title=" ">
<polygon fill="white" stroke="#666666" points="1016.25,-374.5 889.25,-374.5 889.25,-344 1016.25,-344 1016.25,-374.5"/>
<text text-anchor="start" x="897.25" y="-361" font-family="Helvetica,sans-Serif" font-size="10.00">Ark::internal::IROptimizer</text>
<text text-anchor="middle" x="952.75" y="-349.75" font-family="Helvetica,sans-Serif" font-size="10.00">::Rule</text>
</a>
</g>
</g>
<!-- Node17&#45;&gt;Node16 -->
<g id="edge19_Node000016_Node000017" class="edge">
<title>Node17&#45;&gt;Node16</title>
<g id="a_edge19_Node000016_Node000017"><a xlink:title=" ">
<path fill="none" stroke="#9a32cd" stroke-dasharray="5,2" d="M1027.66,-344.98C1053.01,-340.09 1081.06,-334.67 1105.26,-330"/>
<polygon fill="#9a32cd" stroke="#9a32cd" points="1027.25,-341.5 1018.09,-346.83 1028.58,-348.37 1027.25,-341.5"/>
</a>
</g>
<text text-anchor="middle" x="1060.88" y="-345.38" font-family="Helvetica,sans-Serif" font-size="10.00" fill="grey"> elements</text>
</g>
<!-- Node18&#45;&gt;Node17 -->
<g id="edge20_Node000017_Node000018" class="edge">
<title>Node18&#45;&gt;Node17</title>
<g id="a_edge20_Node000017_Node000018"><a xlink:title=" ">
<path fill="none" stroke="#9a32cd" stroke-dasharray="5,2" d="M742.58,-358.51C788.04,-358.67 845.72,-358.88 888.99,-359.03"/>
<polygon fill="#9a32cd" stroke="#9a32cd" points="742.83,-355.01 732.82,-358.48 742.8,-362.01 742.83,-355.01"/>
</a>
</g>
<text text-anchor="middle" x="810.12" y="-360.7" font-family="Helvetica,sans-Serif" font-size="10.00" fill="grey"> expected</text>
</g>
<!-- Node19&#45;&gt;Node1 -->
<g id="edge23_Node000001_Node000019" class="edge">
<title>Node19&#45;&gt;Node1</title>
<g id="a_edge23_Node000001_Node000019"><a xlink:title=" ">
<path fill="none" stroke="#9a32cd" stroke-dasharray="5,2" d="M740.51,-402.81C848.59,-401.82 1058.78,-392.77 1228.75,-342.25 1276.92,-327.93 1329.51,-300.11 1355.88,-285.22"/>
<polygon fill="#9a32cd" stroke="#9a32cd" points="740.6,-399.3 730.62,-402.87 740.65,-406.3 740.6,-399.3"/>
</a>
</g>
<text text-anchor="middle" x="1060.88" y="-383.87" font-family="Helvetica,sans-Serif" font-size="10.00" fill="grey"> m_ir</text>
</g>
<!-- Node20&#45;&gt;Node1 -->
<g id="edge27_Node000001_Node000020" class="edge">
<title>Node20&#45;&gt;Node1</title>
<g id="a_edge27_Node000001_Node000020"><a xlink:title=" ">
<path fill="none" stroke="#9a32cd" stroke-dasharray="5,2" d="M741.32,-241.57C824.82,-239.01 966.16,-236.32 1087.5,-242 1178.91,-246.28 1201.8,-249.12 1292.5,-261.25 1300.94,-262.38 1309.84,-263.75 1318.53,-265.18"/>
<polygon fill="#9a32cd" stroke="#9a32cd" points="741.32,-238.07 731.44,-241.88 741.54,-245.06 741.32,-238.07"/>
</a>
</g>
<text text-anchor="middle" x="1060.88" y="-243.75" font-family="Helvetica,sans-Serif" font-size="10.00" fill="grey"> m_values</text>
</g>
<!-- Node21 -->
<g id="Node000021" class="node">
<title>Node21</title>
<g id="a_Node000021"><a xlink:href="../../d8/dc4/structArk_1_1internal_1_1ValTableElem.html" target="_top" xlink:title="A Compiler Value class helper to handle multiple types.">
<polygon fill="white" stroke="#666666" points="439.75,-253.88 306,-253.88 306,-234.62 439.75,-234.62 439.75,-253.88"/>
<text text-anchor="middle" x="372.88" y="-240.38" font-family="Helvetica,sans-Serif" font-size="10.00">Ark::internal::ValTableElem</text>
</a>
</g>
</g>
<!-- Node21&#45;&gt;Node20 -->
<g id="edge28_Node000020_Node000021" class="edge">
<title>Node21&#45;&gt;Node20</title>
<g id="a_edge28_Node000020_Node000021"><a xlink:title=" ">
<path fill="none" stroke="#9a32cd" stroke-dasharray="5,2" d="M451.36,-244.25C499.73,-244.25 561.12,-244.25 605.99,-244.25"/>
<polygon fill="#9a32cd" stroke="#9a32cd" points="451.51,-240.75 441.51,-244.25 451.51,-247.75 451.51,-240.75"/>
</a>
</g>
<text text-anchor="middle" x="522.25" y="-246" font-family="Helvetica,sans-Serif" font-size="10.00" fill="grey"> elements</text>
</g>
</g>
</svg>
