<?xml version="1.0" encoding="UTF-8" standalone="no"?>
<!DOCTYPE svg PUBLIC "-//W3C//DTD SVG 1.1//EN"
 "http://www.w3.org/Graphics/SVG/1.1/DTD/svg11.dtd">
<!-- Generated by graphviz version 12.2.0 (20241103.1931)
 -->
<!-- Title: /Users/fola/Documents/ArkScript/Ark/include/Ark/Compiler/Package/Package.hpp Pages: 1 -->
<!--zoomable 271 -->

<svg id="main" version="1.1" xmlns="http://www.w3.org/2000/svg" xmlns:xlink="http://www.w3.org/1999/xlink" xml:space="preserve" onload="init(evt)">

<style type="text/css"><![CDATA[
.node, .edge {opacity: 0.7;}
.node.selected, .edge.selected {opacity: 1;}
.edge:hover path { stroke: red; }
.edge:hover polygon { stroke: red; fill: red; }
]]></style>

<defs>
  <circle id="rim" cx="0" cy="0" r="7"/>
  <circle id="rim2" cx="0" cy="0" r="3.5"/>
  <g id="zoomPlus">
    <use xlink:href="#rim" fill="#404040"><set attributeName="fill" to="#808080" begin="zoomplus.mouseover" end="zoomplus.mouseout"/></use>
    <path d="M-4,0h8M0,-4v8" fill="none" stroke="white" stroke-width="1.5" pointer-events="none"/>
  </g>
  <g id="zoomMin">
    <use xlink:href="#rim" fill="#404040"><set attributeName="fill" to="#808080" begin="zoomminus.mouseover" end="zoomminus.mouseout"/></use>
    <path d="M-4,0h8" fill="none" stroke="white" stroke-width="1.5" pointer-events="none"/>
  </g>
  <g id="arrowUp" transform="translate(30 24)">
    <use xlink:href="#rim"/>
    <path pointer-events="none" fill="none" stroke="white" stroke-width="1.5" d="M0,-3.0v7 M-2.5,-0.5L0,-3.0L2.5,-0.5"/>
  </g>
  <g id="arrowRight" transform="rotate(90) translate(36 -43)">
    <use xlink:href="#rim"/>
    <path pointer-events="none" fill="none" stroke="white" stroke-width="1.5" d="M0,-3.0v7 M-2.5,-0.5L0,-3.0L2.5,-0.5"/>
  </g>
  <g id="arrowDown" transform="rotate(180) translate(-30 -48)">
    <use xlink:href="#rim"/>
    <path pointer-events="none" fill="none" stroke="white" stroke-width="1.5" d="M0,-3.0v7 M-2.5,-0.5L0,-3.0L2.5,-0.5"/>
  </g>
  <g id="arrowLeft" transform="rotate(270) translate(-36 17)">
    <use xlink:href="#rim"/>
    <path pointer-events="none" fill="none" stroke="white" stroke-width="1.5" d="M0,-3.0v7 M-2.5,-0.5L0,-3.0L2.5,-0.5"/>
  </g>
  <g id="resetDef">
    <use xlink:href="#rim2" fill="#404040"><set attributeName="fill" to="#808080" begin="reset.mouseover" end="reset.mouseout"/></use>
  </g>
</defs>
<script type="application/ecmascript">
var viewWidth = 860;
var viewHeight = 271;
var sectionId = 'dynsection-0';
</script>
<script type="application/ecmascript" xlink:href="../../svg.min.js"/>
<svg id="graph" class="graph">
<g id="viewport">
<title>/Users/fola/Documents/ArkScript/Ark/include/Ark/Compiler/Package/Package.hpp</title>
<!-- Node1 -->
<g id="Node000001" class="node">
<title>Node1</title>
<g id="a_Node000001"><a xlink:title=" ">
<polygon fill="#999999" stroke="#666666" points="400.71,-262.75 223.46,-262.75 223.46,-221 400.71,-221 400.71,-262.75"/>
<text text-anchor="start" x="231.46" y="-249.25" font-family="Helvetica,sans-Serif" font-size="10.00">/Users/fola/Documents</text>
<text text-anchor="start" x="231.46" y="-238" font-family="Helvetica,sans-Serif" font-size="10.00">/ArkScript/Ark/include</text>
<text text-anchor="middle" x="312.09" y="-226.75" font-family="Helvetica,sans-Serif" font-size="10.00">/Ark/Compiler/Package/Package.hpp</text>
</a>
</g>
</g>
<!-- Node2 -->
<g id="Node000002" class="node">
<title>Node2</title>
<g id="a_Node000002"><a xlink:href="../../d7/dc6/Node_8hpp.html" target="_top" xlink:title="AST node used by the parser, optimizer and compiler.">
<polygon fill="white" stroke="#666666" points="561.34,-185 420.84,-185 420.84,-165.75 561.34,-165.75 561.34,-185"/>
<text text-anchor="middle" x="491.09" y="-171.5" font-family="Helvetica,sans-Serif" font-size="10.00">Ark/Compiler/AST/Node.hpp</text>
</a>
</g>
</g>
<!-- Node1&#45;&gt;Node2 -->
<g id="edge1_Node000001_Node000002" class="edge">
<title>Node1&#45;&gt;Node2</title>
<g id="a_edge1_Node000001_Node000002"><a xlink:title=" ">
<path fill="none" stroke="#63b8ff" d="M368.23,-220.64C396.68,-210.39 430.38,-198.25 455.28,-189.28"/>
<polygon fill="#63b8ff" stroke="#63b8ff" points="456.41,-192.59 464.63,-185.91 454.04,-186 456.41,-192.59"/>
</a>
</g>
</g>
<!-- Node19 -->
<g id="Node000019" class="node">
<title>Node19</title>
<g id="a_Node000019"><a xlink:href="../../d4/d32/Import_8hpp.html" target="_top" xlink:title=" ">
<polygon fill="white" stroke="#666666" points="158.59,-129.75 13.59,-129.75 13.59,-110.5 158.59,-110.5 158.59,-129.75"/>
<text text-anchor="middle" x="86.09" y="-116.25" font-family="Helvetica,sans-Serif" font-size="10.00">Ark/Compiler/AST/Import.hpp</text>
</a>
</g>
</g>
<!-- Node1&#45;&gt;Node19 -->
<g id="edge25_Node000001_Node000019" class="edge">
<title>Node1&#45;&gt;Node19</title>
<g id="a_edge25_Node000001_Node000019"><a xlink:title=" ">
<path fill="none" stroke="#63b8ff" d="M273.75,-220.56C228.18,-196.42 153.3,-156.74 113.29,-135.54"/>
<polygon fill="#63b8ff" stroke="#63b8ff" points="115.03,-132.5 104.55,-130.91 111.75,-138.68 115.03,-132.5"/>
</a>
</g>
</g>
<!-- Node3 -->
<g id="Node000003" class="node">
<title>Node3</title>
<g id="a_Node000003"><a xlink:title=" ">
<polygon fill="#e0e0e0" stroke="#999999" points="707.71,-129.75 662.46,-129.75 662.46,-110.5 707.71,-110.5 707.71,-129.75"/>
<text text-anchor="middle" x="685.09" y="-116.25" font-family="Helvetica,sans-Serif" font-size="10.00">variant</text>
</a>
</g>
</g>
<!-- Node2&#45;&gt;Node3 -->
<g id="edge2_Node000002_Node000003" class="edge">
<title>Node2&#45;&gt;Node3</title>
<g id="a_edge2_Node000002_Node000003"><a xlink:title=" ">
<path fill="none" stroke="#63b8ff" d="M524,-165.34C559.41,-155.62 615.44,-140.24 651.22,-130.42"/>
<polygon fill="#63b8ff" stroke="#63b8ff" points="651.89,-133.87 660.61,-127.84 650.04,-127.12 651.89,-133.87"/>
</a>
</g>
</g>
<!-- Node4 -->
<g id="Node000004" class="node">
<title>Node4</title>
<g id="a_Node000004"><a xlink:title=" ">
<polygon fill="#e0e0e0" stroke="#999999" points="227.71,-129.75 176.46,-129.75 176.46,-110.5 227.71,-110.5 227.71,-129.75"/>
<text text-anchor="middle" x="202.09" y="-116.25" font-family="Helvetica,sans-Serif" font-size="10.00">ostream</text>
</a>
</g>
</g>
<!-- Node2&#45;&gt;Node4 -->
<g id="edge3_Node000002_Node000004" class="edge">
<title>Node2&#45;&gt;Node4</title>
<g id="a_edge3_Node000002_Node000004"><a xlink:title=" ">
<path fill="none" stroke="#63b8ff" d="M432.61,-165.26C383.51,-157.34 311.27,-145.08 239.14,-130.06"/>
<polygon fill="#63b8ff" stroke="#63b8ff" points="240.02,-126.67 229.52,-128.04 238.58,-133.52 240.02,-126.67"/>
</a>
</g>
</g>
<!-- Node5 -->
<g id="Node000005" class="node">
<title>Node5</title>
<g id="a_Node000005"><a xlink:title=" ">
<polygon fill="#e0e0e0" stroke="#999999" points="137.09,-74.5 97.09,-74.5 97.09,-55.25 137.09,-55.25 137.09,-74.5"/>
<text text-anchor="middle" x="117.09" y="-61" font-family="Helvetica,sans-Serif" font-size="10.00">string</text>
</a>
</g>
</g>
<!-- Node2&#45;&gt;Node5 -->
<g id="edge4_Node000002_Node000005" class="edge">
<title>Node2&#45;&gt;Node5</title>
<g id="a_edge4_Node000002_Node000005"><a xlink:title=" ">
<path fill="none" stroke="#63b8ff" d="M420.64,-173.06C292.44,-169.93 31.59,-159.89 4.09,-129.75 -1.68,-123.43 -0.73,-117.57 4.09,-110.5 8.97,-103.32 54.28,-86.93 86.02,-76.14"/>
<polygon fill="#63b8ff" stroke="#63b8ff" points="86.8,-79.57 95.16,-73.06 84.57,-72.93 86.8,-79.57"/>
</a>
</g>
</g>
<!-- Node6 -->
<g id="Node000006" class="node">
<title>Node6</title>
<g id="a_Node000006"><a xlink:title=" ">
<polygon fill="#e0e0e0" stroke="#999999" points="376.59,-74.5 333.59,-74.5 333.59,-55.25 376.59,-55.25 376.59,-74.5"/>
<text text-anchor="middle" x="355.09" y="-61" font-family="Helvetica,sans-Serif" font-size="10.00">vector</text>
</a>
</g>
</g>
<!-- Node2&#45;&gt;Node6 -->
<g id="edge5_Node000002_Node000006" class="edge">
<title>Node2&#45;&gt;Node6</title>
<g id="a_edge5_Node000002_Node000006"><a xlink:title=" ">
<path fill="none" stroke="#63b8ff" d="M483.05,-165.53C471.09,-152.64 447.61,-128.29 425.09,-110.5 411.2,-99.54 394.55,-88.83 380.96,-80.66"/>
<polygon fill="#63b8ff" stroke="#63b8ff" points="382.97,-77.77 372.58,-75.7 379.41,-83.8 382.97,-77.77"/>
</a>
</g>
</g>
<!-- Node7 -->
<g id="Node000007" class="node">
<title>Node7</title>
<g id="a_Node000007"><a xlink:title=" ">
<polygon fill="#e0e0e0" stroke="#999999" points="847.96,-74.5 798.21,-74.5 798.21,-55.25 847.96,-55.25 847.96,-74.5"/>
<text text-anchor="middle" x="823.09" y="-61" font-family="Helvetica,sans-Serif" font-size="10.00">optional</text>
</a>
</g>
</g>
<!-- Node2&#45;&gt;Node7 -->
<g id="edge6_Node000002_Node000007" class="edge">
<title>Node2&#45;&gt;Node7</title>
<g id="a_edge6_Node000002_Node000007"><a xlink:title=" ">
<path fill="none" stroke="#63b8ff" d="M561.48,-170.45C659.6,-164.26 827.59,-150.71 846.09,-129.75 857.62,-116.68 848.15,-97.4 838.1,-83.44"/>
<polygon fill="#63b8ff" stroke="#63b8ff" points="841.16,-81.67 832.23,-75.96 835.65,-85.99 841.16,-81.67"/>
</a>
</g>
</g>
<!-- Node8 -->
<g id="Node000008" class="node">
<title>Node8</title>
<g id="a_Node000008"><a xlink:href="../../da/d33/Namespace_8hpp.html" target="_top" xlink:title=" ">
<polygon fill="white" stroke="#666666" points="415.96,-129.75 246.21,-129.75 246.21,-110.5 415.96,-110.5 415.96,-129.75"/>
<text text-anchor="middle" x="331.09" y="-116.25" font-family="Helvetica,sans-Serif" font-size="10.00">Ark/Compiler/AST/Namespace.hpp</text>
</a>
</g>
</g>
<!-- Node2&#45;&gt;Node8 -->
<g id="edge7_Node000002_Node000008" class="edge">
<title>Node2&#45;&gt;Node8</title>
<g id="a_edge7_Node000002_Node000008"><a xlink:title=" ">
<path fill="none" stroke="#63b8ff" d="M463.94,-165.34C437.86,-156.66 398.19,-143.46 368.99,-133.74"/>
<polygon fill="#63b8ff" stroke="#63b8ff" points="370.39,-130.52 359.8,-130.68 368.18,-137.16 370.39,-130.52"/>
</a>
</g>
</g>
<!-- Node10 -->
<g id="Node000010" class="node">
<title>Node10</title>
<g id="a_Node000010"><a xlink:href="../../d8/ddd/Common_8hpp.html" target="_top" xlink:title="Common code for the compiler.">
<polygon fill="white" stroke="#666666" points="606.34,-129.75 471.84,-129.75 471.84,-110.5 606.34,-110.5 606.34,-129.75"/>
<text text-anchor="middle" x="539.09" y="-116.25" font-family="Helvetica,sans-Serif" font-size="10.00">Ark/Compiler/Common.hpp</text>
</a>
</g>
</g>
<!-- Node2&#45;&gt;Node10 -->
<g id="edge11_Node000002_Node000010" class="edge">
<title>Node2&#45;&gt;Node10</title>
<g id="a_edge11_Node000002_Node000010"><a xlink:title=" ">
<path fill="none" stroke="#63b8ff" d="M499.01,-165.58C505.64,-158.23 515.3,-147.51 523.48,-138.44"/>
<polygon fill="#63b8ff" stroke="#63b8ff" points="525.88,-141 529.97,-131.23 520.68,-136.32 525.88,-141"/>
</a>
</g>
</g>
<!-- Node17 -->
<g id="Node000017" class="node">
<title>Node17</title>
<g id="a_Node000017"><a xlink:href="../../d5/d40/Platform_8hpp.html" target="_top" xlink:title="ArkScript configuration macros.">
<polygon fill="white" stroke="#666666" points="755.46,-74.5 642.71,-74.5 642.71,-55.25 755.46,-55.25 755.46,-74.5"/>
<text text-anchor="middle" x="699.09" y="-61" font-family="Helvetica,sans-Serif" font-size="10.00">Ark/Utils/Platform.hpp</text>
</a>
</g>
</g>
<!-- Node2&#45;&gt;Node17 -->
<g id="edge21_Node000002_Node000017" class="edge">
<title>Node2&#45;&gt;Node17</title>
<g id="a_edge21_Node000002_Node000017"><a xlink:title=" ">
<path fill="none" stroke="#63b8ff" d="M524.9,-165.26C550.52,-157.63 586.14,-145.48 615.09,-129.75 639.58,-116.44 664.63,-96.39 680.92,-82.31"/>
<polygon fill="#63b8ff" stroke="#63b8ff" points="683.11,-85.05 688.3,-75.81 678.48,-79.8 683.11,-85.05"/>
</a>
</g>
</g>
<!-- Node18 -->
<g id="Node000018" class="node">
<title>Node18</title>
<g id="a_Node000018"><a xlink:href="../../dc/d58/Position_8hpp.html" target="_top" xlink:title="Defines position utilities (for text in a file) for the parser, formatter, diagnostics.">
<polygon fill="white" stroke="#666666" points="836.71,-129.75 725.46,-129.75 725.46,-110.5 836.71,-110.5 836.71,-129.75"/>
<text text-anchor="middle" x="781.09" y="-116.25" font-family="Helvetica,sans-Serif" font-size="10.00">Ark/Utils/Position.hpp</text>
</a>
</g>
</g>
<!-- Node2&#45;&gt;Node18 -->
<g id="edge22_Node000002_Node000018" class="edge">
<title>Node2&#45;&gt;Node18</title>
<g id="a_edge22_Node000002_Node000018"><a xlink:title=" ">
<path fill="none" stroke="#63b8ff" d="M540.61,-165.28C590.45,-156.13 667.38,-142 720.75,-132.2"/>
<polygon fill="#63b8ff" stroke="#63b8ff" points="721.08,-135.7 730.28,-130.45 719.81,-128.82 721.08,-135.7"/>
</a>
</g>
</g>
<!-- Node8&#45;&gt;Node5 -->
<g id="edge8_Node000008_Node000005" class="edge">
<title>Node8&#45;&gt;Node5</title>
<g id="a_edge8_Node000008_Node000005"><a xlink:title=" ">
<path fill="none" stroke="#63b8ff" d="M294.78,-110.09C253.72,-99.87 187.5,-83.4 148.55,-73.7"/>
<polygon fill="#63b8ff" stroke="#63b8ff" points="149.41,-70.31 138.86,-71.29 147.72,-77.1 149.41,-70.31"/>
</a>
</g>
</g>
<!-- Node8&#45;&gt;Node6 -->
<g id="edge9_Node000008_Node000006" class="edge">
<title>Node8&#45;&gt;Node6</title>
<g id="a_edge9_Node000008_Node000006"><a xlink:title=" ">
<path fill="none" stroke="#63b8ff" d="M335.05,-110.33C338.12,-103.51 342.5,-93.81 346.38,-85.2"/>
<polygon fill="#63b8ff" stroke="#63b8ff" points="349.5,-86.79 350.42,-76.24 343.12,-83.92 349.5,-86.79"/>
</a>
</g>
</g>
<!-- Node9 -->
<g id="Node000009" class="node">
<title>Node9</title>
<g id="a_Node000009"><a xlink:title=" ">
<polygon fill="#e0e0e0" stroke="#999999" points="315.71,-74.5 264.46,-74.5 264.46,-55.25 315.71,-55.25 315.71,-74.5"/>
<text text-anchor="middle" x="290.09" y="-61" font-family="Helvetica,sans-Serif" font-size="10.00">memory</text>
</a>
</g>
</g>
<!-- Node8&#45;&gt;Node9 -->
<g id="edge10_Node000008_Node000009" class="edge">
<title>Node8&#45;&gt;Node9</title>
<g id="a_edge10_Node000008_Node000009"><a xlink:title=" ">
<path fill="none" stroke="#63b8ff" d="M324.32,-110.33C318.77,-103.13 310.74,-92.71 303.86,-83.76"/>
<polygon fill="#63b8ff" stroke="#63b8ff" points="306.8,-81.85 297.93,-76.06 301.25,-86.12 306.8,-81.85"/>
</a>
</g>
</g>
<!-- Node10&#45;&gt;Node6 -->
<g id="edge14_Node000010_Node000006" class="edge">
<title>Node10&#45;&gt;Node6</title>
<g id="a_edge14_Node000010_Node000006"><a xlink:title=" ">
<path fill="none" stroke="#63b8ff" d="M507.87,-110.09C474.43,-100.41 421.6,-85.13 387.65,-75.3"/>
<polygon fill="#63b8ff" stroke="#63b8ff" points="388.95,-72.03 378.37,-72.61 387,-78.76 388.95,-72.03"/>
</a>
</g>
</g>
<!-- Node11 -->
<g id="Node000011" class="node">
<title>Node11</title>
<g id="a_Node000011"><a xlink:title=" ">
<polygon fill="#e0e0e0" stroke="#999999" points="586.96,-74.5 549.21,-74.5 549.21,-55.25 586.96,-55.25 586.96,-74.5"/>
<text text-anchor="middle" x="568.09" y="-61" font-family="Helvetica,sans-Serif" font-size="10.00">array</text>
</a>
</g>
</g>
<!-- Node10&#45;&gt;Node11 -->
<g id="edge12_Node000010_Node000011" class="edge">
<title>Node10&#45;&gt;Node11</title>
<g id="a_edge12_Node000010_Node000011"><a xlink:title=" ">
<path fill="none" stroke="#63b8ff" d="M543.88,-110.33C547.63,-103.44 552.99,-93.59 557.72,-84.91"/>
<polygon fill="#63b8ff" stroke="#63b8ff" points="560.76,-86.64 562.47,-76.19 554.61,-83.3 560.76,-86.64"/>
</a>
</g>
</g>
<!-- Node12 -->
<g id="Node000012" class="node">
<title>Node12</title>
<g id="a_Node000012"><a xlink:title=" ">
<polygon fill="#e0e0e0" stroke="#999999" points="646.84,-19.25 581.34,-19.25 581.34,0 646.84,0 646.84,-19.25"/>
<text text-anchor="middle" x="614.09" y="-5.75" font-family="Helvetica,sans-Serif" font-size="10.00">string_view</text>
</a>
</g>
</g>
<!-- Node10&#45;&gt;Node12 -->
<g id="edge13_Node000010_Node000012" class="edge">
<title>Node10&#45;&gt;Node12</title>
<g id="a_edge13_Node000010_Node000012"><a xlink:title=" ">
<path fill="none" stroke="#63b8ff" d="M555.69,-110.09C568.53,-102.28 585.8,-89.84 596.09,-74.5 604.84,-61.45 609.37,-44.17 611.7,-30.87"/>
<polygon fill="#63b8ff" stroke="#63b8ff" points="615.15,-31.51 613.11,-21.11 608.22,-30.51 615.15,-31.51"/>
</a>
</g>
</g>
<!-- Node13 -->
<g id="Node000013" class="node">
<title>Node13</title>
<g id="a_Node000013"><a xlink:title=" ">
<polygon fill="#e0e0e0" stroke="#999999" points="435.96,-19.25 380.21,-19.25 380.21,0 435.96,0 435.96,-19.25"/>
<text text-anchor="middle" x="408.09" y="-5.75" font-family="Helvetica,sans-Serif" font-size="10.00">cinttypes</text>
</a>
</g>
</g>
<!-- Node10&#45;&gt;Node13 -->
<g id="edge15_Node000010_Node000013" class="edge">
<title>Node10&#45;&gt;Node13</title>
<g id="a_edge15_Node000010_Node000013"><a xlink:title=" ">
<path fill="none" stroke="#63b8ff" d="M487.1,-110.06C464.81,-103.66 440.24,-92.81 424.09,-74.5 413.55,-62.56 409.74,-44.69 408.46,-30.89"/>
<polygon fill="#63b8ff" stroke="#63b8ff" points="411.97,-30.96 407.95,-21.15 404.98,-31.32 411.97,-30.96"/>
</a>
</g>
</g>
<!-- Node14 -->
<g id="Node000014" class="node">
<title>Node14</title>
<g id="a_Node000014"><a xlink:href="../../d6/de9/Constants_8hpp.html" target="_top" xlink:title="Constants used by ArkScript.">
<polygon fill="white" stroke="#666666" points="530.96,-74.5 433.21,-74.5 433.21,-55.25 530.96,-55.25 530.96,-74.5"/>
<text text-anchor="middle" x="482.09" y="-61" font-family="Helvetica,sans-Serif" font-size="10.00">Ark/Constants.hpp</text>
</a>
</g>
</g>
<!-- Node10&#45;&gt;Node14 -->
<g id="edge16_Node000010_Node000014" class="edge">
<title>Node10&#45;&gt;Node14</title>
<g id="a_edge16_Node000010_Node000014"><a xlink:title=" ">
<path fill="none" stroke="#63b8ff" d="M529.42,-110.09C521.34,-102.55 509.62,-91.6 499.86,-82.48"/>
<polygon fill="#63b8ff" stroke="#63b8ff" points="502.42,-80.08 492.72,-75.81 497.64,-85.19 502.42,-80.08"/>
</a>
</g>
</g>
<!-- Node14&#45;&gt;Node12 -->
<g id="edge17_Node000014_Node000012" class="edge">
<title>Node14&#45;&gt;Node12</title>
<g id="a_edge17_Node000014_Node000012"><a xlink:title=" ">
<path fill="none" stroke="#63b8ff" d="M504.48,-54.84C525.53,-46.35 557.29,-33.54 581.21,-23.89"/>
<polygon fill="#63b8ff" stroke="#63b8ff" points="582.22,-27.26 590.18,-20.27 579.6,-20.76 582.22,-27.26"/>
</a>
</g>
</g>
<!-- Node14&#45;&gt;Node13 -->
<g id="edge19_Node000014_Node000013" class="edge">
<title>Node14&#45;&gt;Node13</title>
<g id="a_edge19_Node000014_Node000013"><a xlink:title=" ">
<path fill="none" stroke="#63b8ff" d="M469.53,-54.84C458.62,-46.99 442.58,-35.45 429.63,-26.12"/>
<polygon fill="#63b8ff" stroke="#63b8ff" points="431.84,-23.41 421.68,-20.41 427.76,-29.09 431.84,-23.41"/>
</a>
</g>
</g>
<!-- Node15 -->
<g id="Node000015" class="node">
<title>Node15</title>
<g id="a_Node000015"><a xlink:title=" ">
<polygon fill="#e0e0e0" stroke="#999999" points="495.71,-19.25 456.46,-19.25 456.46,0 495.71,0 495.71,-19.25"/>
<text text-anchor="middle" x="476.09" y="-5.75" font-family="Helvetica,sans-Serif" font-size="10.00">limits</text>
</a>
</g>
</g>
<!-- Node14&#45;&gt;Node15 -->
<g id="edge18_Node000014_Node000015" class="edge">
<title>Node14&#45;&gt;Node15</title>
<g id="a_edge18_Node000014_Node000015"><a xlink:title=" ">
<path fill="none" stroke="#63b8ff" d="M481.1,-55.08C480.35,-48.49 479.31,-39.21 478.36,-30.82"/>
<polygon fill="#63b8ff" stroke="#63b8ff" points="481.87,-30.66 477.27,-21.11 474.91,-31.44 481.87,-30.66"/>
</a>
</g>
</g>
<!-- Node16 -->
<g id="Node000016" class="node">
<title>Node16</title>
<g id="a_Node000016"><a xlink:title=" ">
<polygon fill="#e0e0e0" stroke="#999999" points="562.21,-19.25 513.96,-19.25 513.96,0 562.21,0 562.21,-19.25"/>
<text text-anchor="middle" x="538.09" y="-5.75" font-family="Helvetica,sans-Serif" font-size="10.00">cstddef</text>
</a>
</g>
</g>
<!-- Node14&#45;&gt;Node16 -->
<g id="edge20_Node000014_Node000016" class="edge">
<title>Node14&#45;&gt;Node16</title>
<g id="a_edge20_Node000014_Node000016"><a xlink:title=" ">
<path fill="none" stroke="#63b8ff" d="M491.59,-54.84C499.52,-47.3 511.04,-36.35 520.62,-27.23"/>
<polygon fill="#63b8ff" stroke="#63b8ff" points="522.8,-29.99 527.63,-20.57 517.97,-24.92 522.8,-29.99"/>
</a>
</g>
</g>
<!-- Node18&#45;&gt;Node7 -->
<g id="edge23_Node000018_Node000007" class="edge">
<title>Node18&#45;&gt;Node7</title>
<g id="a_edge23_Node000018_Node000007"><a xlink:title=" ">
<path fill="none" stroke="#63b8ff" d="M788.02,-110.33C793.7,-103.13 801.92,-92.71 808.98,-83.76"/>
<polygon fill="#63b8ff" stroke="#63b8ff" points="811.62,-86.07 815.06,-76.05 806.12,-81.73 811.62,-86.07"/>
</a>
</g>
</g>
<!-- Node18&#45;&gt;Node17 -->
<g id="edge24_Node000018_Node000017" class="edge">
<title>Node18&#45;&gt;Node17</title>
<g id="a_edge24_Node000018_Node000017"><a xlink:title=" ">
<path fill="none" stroke="#63b8ff" d="M767.18,-110.09C754.92,-102.14 736.83,-90.39 722.38,-81"/>
<polygon fill="#63b8ff" stroke="#63b8ff" points="724.63,-78.29 714.33,-75.78 720.81,-84.16 724.63,-78.29"/>
</a>
</g>
</g>
<!-- Node19&#45;&gt;Node5 -->
<g id="edge27_Node000019_Node000005" class="edge">
<title>Node19&#45;&gt;Node5</title>
<g id="a_edge27_Node000019_Node000005"><a xlink:title=" ">
<path fill="none" stroke="#63b8ff" d="M91.21,-110.33C95.26,-103.36 101.08,-93.37 106.17,-84.62"/>
<polygon fill="#63b8ff" stroke="#63b8ff" points="109.09,-86.57 111.09,-76.17 103.04,-83.05 109.09,-86.57"/>
</a>
</g>
</g>
<!-- Node19&#45;&gt;Node6 -->
<g id="edge26_Node000019_Node000006" class="edge">
<title>Node19&#45;&gt;Node6</title>
<g id="a_edge26_Node000019_Node000006"><a xlink:title=" ">
<path fill="none" stroke="#63b8ff" d="M143.39,-110C189.44,-102.32 256,-90.41 322.15,-75.03"/>
<polygon fill="#63b8ff" stroke="#63b8ff" points="322.79,-78.48 331.72,-72.78 321.19,-71.66 322.79,-78.48"/>
</a>
</g>
</g>
<!-- Node19&#45;&gt;Node17 -->
<g id="edge29_Node000019_Node000017" class="edge">
<title>Node19&#45;&gt;Node17</title>
<g id="a_edge29_Node000019_Node000017"><a xlink:title=" ">
<path fill="none" stroke="#63b8ff" d="M158.94,-111.29C161.69,-111.02 164.41,-110.75 167.09,-110.5 172.81,-109.96 489.12,-83.46 631.23,-71.56"/>
<polygon fill="#63b8ff" stroke="#63b8ff" points="631.2,-75.07 640.87,-70.75 630.62,-68.1 631.2,-75.07"/>
</a>
</g>
</g>
<!-- Node20 -->
<g id="Node000020" class="node">
<title>Node20</title>
<g id="a_Node000020"><a xlink:title=" ">
<polygon fill="#e0e0e0" stroke="#999999" points="79.34,-74.5 28.84,-74.5 28.84,-55.25 79.34,-55.25 79.34,-74.5"/>
<text text-anchor="middle" x="54.09" y="-61" font-family="Helvetica,sans-Serif" font-size="10.00">numeric</text>
</a>
</g>
</g>
<!-- Node19&#45;&gt;Node20 -->
<g id="edge28_Node000019_Node000020" class="edge">
<title>Node19&#45;&gt;Node20</title>
<g id="a_edge28_Node000019_Node000020"><a xlink:title=" ">
<path fill="none" stroke="#63b8ff" d="M80.8,-110.33C76.61,-103.36 70.61,-93.37 65.35,-84.62"/>
<polygon fill="#63b8ff" stroke="#63b8ff" points="68.42,-82.93 60.27,-76.16 62.42,-86.53 68.42,-82.93"/>
</a>
</g>
</g>
</g>
</svg>

<g id="navigator" transform="translate(0 0)" fill="#404254">
  <rect fill="#f2f5e9" fill-opacity="0.5" stroke="#606060" stroke-width=".5" x="0" y="0" width="60" height="60"/>
  <use id="zoomplus" xlink:href="#zoomPlus" x="17" y="9" onmousedown="handleZoom(evt,'in')"/>
  <use id="zoomminus" xlink:href="#zoomMin" x="42" y="9" onmousedown="handleZoom(evt,'out')"/>
  <use id="reset" xlink:href="#resetDef" x="30" y="36" onmousedown="handleReset()"/>
   <use id="arrowup" xlink:href="#arrowUp" x="0" y="0" onmousedown="handlePan(0,-1)"/>
  <use id="arrowright" xlink:href="#arrowRight" x="0" y="0" onmousedown="handlePan(1,0)"/>
  <use id="arrowdown" xlink:href="#arrowDown" x="0" y="0" onmousedown="handlePan(0,1)"/>
  <use id="arrowleft" xlink:href="#arrowLeft" x="0" y="0" onmousedown="handlePan(-1,0)"/>
</g>
<svg viewBox="0 0 15 15" width="100%" height="30px" preserveAspectRatio="xMaxYMin meet">
 <g id="arrow_out" transform="scale(0.3 0.3)">
  <a xlink:href="Package_8hpp__incl_org.svg" target="_base">
   <rect id="button" ry="5" rx="5" y="6" x="6" height="38" width="38"
        fill="#f2f5e9" fill-opacity="0.5" stroke="#606060" stroke-width="1.0"/>
   <path id="arrow"
     d="M 11.500037,31.436501 C 11.940474,20.09759 22.043105,11.32322 32.158766,21.979434 L 37.068811,17.246167 C 37.068811,17.246167 37.088388,32 37.088388,32 L 22.160133,31.978069 C 22.160133,31.978069 26.997745,27.140456 26.997745,27.140456 C 18.528582,18.264221 13.291696,25.230495 11.500037,31.436501 z"
     style="fill:#404040;"/>
  </a>
 </g>
</svg>

<style type='text/css'>
<![CDATA[
[data-mouse-over-selected='false'] { opacity: 0.7; }
[data-mouse-over-selected='true']  { opacity: 1.0; }
]]>
</style>
<script type="application/ecmascript"><![CDATA[
document.addEventListener('DOMContentLoaded', (event) => {
  highlightEdges();
  highlightAdjacentNodes();
});
]]></script>
</svg>
