<?xml version="1.0" encoding="UTF-8" standalone="no"?>
<!DOCTYPE svg PUBLIC "-//W3C//DTD SVG 1.1//EN"
 "http://www.w3.org/Graphics/SVG/1.1/DTD/svg11.dtd">
<!-- Generated by graphviz version 12.2.0 (20241103.1931)
 -->
<!-- Title: Ark::types::TypeCheckingError Pages: 1 -->
<!--zoomable 236 -->

<svg id="main" version="1.1" xmlns="http://www.w3.org/2000/svg" xmlns:xlink="http://www.w3.org/1999/xlink" xml:space="preserve" onload="init(evt)">

<style type="text/css"><![CDATA[
.node, .edge {opacity: 0.7;}
.node.selected, .edge.selected {opacity: 1;}
.edge:hover path { stroke: red; }
.edge:hover polygon { stroke: red; fill: red; }
]]></style>

<defs>
  <circle id="rim" cx="0" cy="0" r="7"/>
  <circle id="rim2" cx="0" cy="0" r="3.5"/>
  <g id="zoomPlus">
    <use xlink:href="#rim" fill="#404040"><set attributeName="fill" to="#808080" begin="zoomplus.mouseover" end="zoomplus.mouseout"/></use>
    <path d="M-4,0h8M0,-4v8" fill="none" stroke="white" stroke-width="1.5" pointer-events="none"/>
  </g>
  <g id="zoomMin">
    <use xlink:href="#rim" fill="#404040"><set attributeName="fill" to="#808080" begin="zoomminus.mouseover" end="zoomminus.mouseout"/></use>
    <path d="M-4,0h8" fill="none" stroke="white" stroke-width="1.5" pointer-events="none"/>
  </g>
  <g id="arrowUp" transform="translate(30 24)">
    <use xlink:href="#rim"/>
    <path pointer-events="none" fill="none" stroke="white" stroke-width="1.5" d="M0,-3.0v7 M-2.5,-0.5L0,-3.0L2.5,-0.5"/>
  </g>
  <g id="arrowRight" transform="rotate(90) translate(36 -43)">
    <use xlink:href="#rim"/>
    <path pointer-events="none" fill="none" stroke="white" stroke-width="1.5" d="M0,-3.0v7 M-2.5,-0.5L0,-3.0L2.5,-0.5"/>
  </g>
  <g id="arrowDown" transform="rotate(180) translate(-30 -48)">
    <use xlink:href="#rim"/>
    <path pointer-events="none" fill="none" stroke="white" stroke-width="1.5" d="M0,-3.0v7 M-2.5,-0.5L0,-3.0L2.5,-0.5"/>
  </g>
  <g id="arrowLeft" transform="rotate(270) translate(-36 17)">
    <use xlink:href="#rim"/>
    <path pointer-events="none" fill="none" stroke="white" stroke-width="1.5" d="M0,-3.0v7 M-2.5,-0.5L0,-3.0L2.5,-0.5"/>
  </g>
  <g id="resetDef">
    <use xlink:href="#rim2" fill="#404040"><set attributeName="fill" to="#808080" begin="reset.mouseover" end="reset.mouseout"/></use>
  </g>
</defs>
<script type="application/ecmascript">
var viewWidth = 1570;
var viewHeight = 236;
var sectionId = 'dynsection-1';
</script>
<script type="application/ecmascript" xlink:href="../../svg.min.js"/>
<svg id="graph" class="graph">
<g id="viewport">
<title>Ark::types::TypeCheckingError</title>
<!-- Node1 -->
<g id="Node000001" class="node">
<title>Node1</title>
<g id="a_Node000001"><a xlink:title=" ">
<polygon fill="#999999" stroke="#666666" points="1562.05,-181.5 1432.8,-181.5 1432.8,-151 1562.05,-151 1562.05,-181.5"/>
<text text-anchor="start" x="1440.8" y="-168" font-family="Helvetica,sans-Serif" font-size="10.00">Ark::types::TypeChecking</text>
<text text-anchor="middle" x="1497.43" y="-156.75" font-family="Helvetica,sans-Serif" font-size="10.00">Error</text>
</a>
</g>
</g>
<!-- Node2 -->
<g id="Node000002" class="node">
<title>Node2</title>
<g id="a_Node000002"><a xlink:href="../../d6/d43/classArk_1_1Error.html" target="_top" xlink:title=" ">
<polygon fill="white" stroke="#666666" points="1310.93,-227.88 1252.93,-227.88 1252.93,-208.62 1310.93,-208.62 1310.93,-227.88"/>
<text text-anchor="middle" x="1281.93" y="-214.38" font-family="Helvetica,sans-Serif" font-size="10.00">Ark::Error</text>
</a>
</g>
</g>
<!-- Node2&#45;&gt;Node1 -->
<g id="edge1_Node000001_Node000002" class="edge">
<title>Node2&#45;&gt;Node1</title>
<g id="a_edge1_Node000001_Node000002"><a xlink:title=" ">
<path fill="none" stroke="#63b8ff" d="M1322.31,-212.67C1348.7,-208.54 1384.1,-202.26 1414.8,-194.25 1427.99,-190.81 1442.12,-186.27 1454.85,-181.86"/>
<polygon fill="#63b8ff" stroke="#63b8ff" points="1322.09,-209.16 1312.73,-214.13 1323.14,-216.08 1322.09,-209.16"/>
</a>
</g>
</g>
<!-- Node3 -->
<g id="Node000003" class="node">
<title>Node3</title>
<g id="a_Node000003"><a xlink:title=" ">
<polygon fill="white" stroke="#666666" points="1139.3,-227.88 1046.8,-227.88 1046.8,-208.62 1139.3,-208.62 1139.3,-227.88"/>
<text text-anchor="middle" x="1093.05" y="-214.38" font-family="Helvetica,sans-Serif" font-size="10.00">std::runtime_error</text>
</a>
</g>
</g>
<!-- Node3&#45;&gt;Node2 -->
<g id="edge2_Node000002_Node000003" class="edge">
<title>Node3&#45;&gt;Node2</title>
<g id="a_edge2_Node000002_Node000003"><a xlink:title=" ">
<path fill="none" stroke="#63b8ff" d="M1150.85,-218.25C1184.48,-218.25 1225.63,-218.25 1252.52,-218.25"/>
<polygon fill="#63b8ff" stroke="#63b8ff" points="1151.28,-214.75 1141.28,-218.25 1151.28,-221.75 1151.28,-214.75"/>
</a>
</g>
</g>
<!-- Node4 -->
<g id="Node000004" class="node">
<title>Node4</title>
<g id="a_Node000004"><a xlink:title=" ">
<polygon fill="white" stroke="#666666" points="913.68,-227.88 836.18,-227.88 836.18,-208.62 913.68,-208.62 913.68,-227.88"/>
<text text-anchor="middle" x="874.93" y="-214.38" font-family="Helvetica,sans-Serif" font-size="10.00">std::exception</text>
</a>
</g>
</g>
<!-- Node4&#45;&gt;Node3 -->
<g id="edge3_Node000003_Node000004" class="edge">
<title>Node4&#45;&gt;Node3</title>
<g id="a_edge3_Node000003_Node000004"><a xlink:title=" ">
<path fill="none" stroke="#63b8ff" d="M925.41,-218.25C961.82,-218.25 1010.95,-218.25 1046.42,-218.25"/>
<polygon fill="#63b8ff" stroke="#63b8ff" points="925.58,-214.75 915.58,-218.25 925.58,-221.75 925.58,-214.75"/>
</a>
</g>
</g>
<!-- Node5 -->
<g id="Node000005" class="node">
<title>Node5</title>
<g id="a_Node000005"><a xlink:title=" ">
<polygon fill="white" stroke="#666666" points="396.05,-24.88 336.55,-24.88 336.55,-5.63 396.05,-5.63 396.05,-24.88"/>
<text text-anchor="middle" x="366.3" y="-11.38" font-family="Helvetica,sans-Serif" font-size="10.00">std::string</text>
</a>
</g>
</g>
<!-- Node5&#45;&gt;Node1 -->
<g id="edge4_Node000001_Node000005" class="edge">
<title>Node5&#45;&gt;Node1</title>
<g id="a_edge4_Node000001_Node000005"><a xlink:title=" ">
<path fill="none" stroke="#9a32cd" stroke-dasharray="5,2" d="M407.78,-11.63C457.75,-7.48 545.34,-1.25 620.55,-1.25 620.55,-1.25 620.55,-1.25 1282.93,-1.25 1380.13,-1.25 1460.02,-109.65 1486.81,-150.73"/>
<polygon fill="#9a32cd" stroke="#9a32cd" points="407.7,-8.13 398.03,-12.46 408.29,-15.1 407.7,-8.13"/>
</a>
</g>
<text text-anchor="middle" x="986.8" y="-3" font-family="Helvetica,sans-Serif" font-size="10.00" fill="grey"> m_funcname</text>
</g>
<!-- Node10 -->
<g id="Node000010" class="node">
<title>Node10</title>
<g id="a_Node000010"><a xlink:href="../../d9/dbf/structArk_1_1types_1_1Typedef.html" target="_top" xlink:title="A type definition within a contract.">
<polygon fill="white" stroke="#666666" points="672.3,-75.88 570.8,-75.88 570.8,-56.62 672.3,-56.62 672.3,-75.88"/>
<text text-anchor="middle" x="621.55" y="-62.38" font-family="Helvetica,sans-Serif" font-size="10.00">Ark::types::Typedef</text>
</a>
</g>
</g>
<!-- Node5&#45;&gt;Node10 -->
<g id="edge10_Node000010_Node000005" class="edge">
<title>Node5&#45;&gt;Node10</title>
<g id="a_edge10_Node000010_Node000005"><a xlink:title=" ">
<path fill="none" stroke="#9a32cd" stroke-dasharray="5,2" d="M407.27,-22.58C444.88,-29.57 502.76,-40.55 552.8,-51 560.47,-52.6 568.61,-54.37 576.5,-56.13"/>
<polygon fill="#9a32cd" stroke="#9a32cd" points="408.23,-19.2 397.76,-20.82 406.96,-26.08 408.23,-19.2"/>
</a>
</g>
<text text-anchor="middle" x="499.93" y="-52.75" font-family="Helvetica,sans-Serif" font-size="10.00" fill="grey"> name</text>
</g>
<!-- Node6 -->
<g id="Node000006" class="node">
<title>Node6</title>
<g id="a_Node000006"><a xlink:title=" ">
<polygon fill="white" stroke="#666666" points="201.55,-30.5 107.55,-30.5 107.55,0 201.55,0 201.55,-30.5"/>
<text text-anchor="start" x="115.55" y="-17" font-family="Helvetica,sans-Serif" font-size="10.00">std::basic_string&lt;</text>
<text text-anchor="middle" x="154.55" y="-5.75" font-family="Helvetica,sans-Serif" font-size="10.00"> Char &gt;</text>
</a>
</g>
</g>
<!-- Node6&#45;&gt;Node5 -->
<g id="edge5_Node000005_Node000006" class="edge">
<title>Node6&#45;&gt;Node5</title>
<g id="a_edge5_Node000005_Node000006"><a xlink:title=" ">
<path fill="none" stroke="#63b8ff" d="M213.29,-15.25C253.2,-15.25 304.6,-15.25 336.24,-15.25"/>
<polygon fill="#63b8ff" stroke="#63b8ff" points="213.35,-11.75 203.35,-15.25 213.35,-18.75 213.35,-11.75"/>
</a>
</g>
</g>
<!-- Node7 -->
<g id="Node000007" class="node">
<title>Node7</title>
<g id="a_Node000007"><a xlink:title=" ">
<polygon fill="white" stroke="#666666" points="1339.8,-152.5 1224.05,-152.5 1224.05,-122 1339.8,-122 1339.8,-152.5"/>
<text text-anchor="start" x="1232.05" y="-139" font-family="Helvetica,sans-Serif" font-size="10.00">std::vector&lt; Ark::types</text>
<text text-anchor="middle" x="1281.93" y="-127.75" font-family="Helvetica,sans-Serif" font-size="10.00">::Contract &gt;</text>
</a>
</g>
</g>
<!-- Node7&#45;&gt;Node1 -->
<g id="edge6_Node000001_Node000007" class="edge">
<title>Node7&#45;&gt;Node1</title>
<g id="a_edge6_Node000001_Node000007"><a xlink:title=" ">
<path fill="none" stroke="#9a32cd" stroke-dasharray="5,2" d="M1351.18,-146.4C1371.64,-149.15 1394.13,-152.19 1414.8,-155 1420.61,-155.79 1426.65,-156.62 1432.71,-157.45"/>
<polygon fill="#9a32cd" stroke="#9a32cd" points="1351.93,-142.96 1341.55,-145.1 1351,-149.9 1351.93,-142.96"/>
</a>
</g>
<text text-anchor="middle" x="1386.3" y="-156.75" font-family="Helvetica,sans-Serif" font-size="10.00" fill="grey"> m_contracts</text>
</g>
<!-- Node8 -->
<g id="Node000008" class="node">
<title>Node8</title>
<g id="a_Node000008"><a xlink:href="../../d3/dfb/structArk_1_1types_1_1Contract.html" target="_top" xlink:title="A contract is a list of typed arguments that a function can follow.">
<polygon fill="white" stroke="#666666" points="1145.3,-111.88 1040.8,-111.88 1040.8,-92.62 1145.3,-92.62 1145.3,-111.88"/>
<text text-anchor="middle" x="1093.05" y="-98.38" font-family="Helvetica,sans-Serif" font-size="10.00">Ark::types::Contract</text>
</a>
</g>
</g>
<!-- Node8&#45;&gt;Node7 -->
<g id="edge7_Node000007_Node000008" class="edge">
<title>Node8&#45;&gt;Node7</title>
<g id="a_edge7_Node000007_Node000008"><a xlink:title=" ">
<path fill="none" stroke="#9a32cd" stroke-dasharray="5,2" d="M1156.57,-108.99C1172.76,-111.14 1190.11,-113.81 1206.05,-117 1212.65,-118.32 1219.53,-119.9 1226.33,-121.58"/>
<polygon fill="#9a32cd" stroke="#9a32cd" points="1157.45,-105.57 1147.08,-107.77 1156.56,-112.51 1157.45,-105.57"/>
</a>
</g>
<text text-anchor="middle" x="1184.68" y="-118.75" font-family="Helvetica,sans-Serif" font-size="10.00" fill="grey"> elements</text>
</g>
<!-- Node9 -->
<g id="Node000009" class="node">
<title>Node9</title>
<g id="a_Node000009"><a xlink:title=" ">
<polygon fill="white" stroke="#666666" points="932.8,-114.5 817.05,-114.5 817.05,-84 932.8,-84 932.8,-114.5"/>
<text text-anchor="start" x="825.05" y="-101" font-family="Helvetica,sans-Serif" font-size="10.00">std::vector&lt; Ark::types</text>
<text text-anchor="middle" x="874.93" y="-89.75" font-family="Helvetica,sans-Serif" font-size="10.00">::Typedef &gt;</text>
</a>
</g>
</g>
<!-- Node9&#45;&gt;Node8 -->
<g id="edge8_Node000008_Node000009" class="edge">
<title>Node9&#45;&gt;Node8</title>
<g id="a_edge8_Node000008_Node000009"><a xlink:title=" ">
<path fill="none" stroke="#9a32cd" stroke-dasharray="5,2" d="M944.46,-100.2C975.52,-100.63 1011.62,-101.13 1040.35,-101.53"/>
<polygon fill="#9a32cd" stroke="#9a32cd" points="944.84,-96.71 934.79,-100.07 944.74,-103.71 944.84,-96.71"/>
</a>
</g>
<text text-anchor="middle" x="986.8" y="-103.03" font-family="Helvetica,sans-Serif" font-size="10.00" fill="grey"> arguments</text>
</g>
<!-- Node10&#45;&gt;Node9 -->
<g id="edge9_Node000009_Node000010" class="edge">
<title>Node10&#45;&gt;Node9</title>
<g id="a_edge9_Node000009_Node000010"><a xlink:title=" ">
<path fill="none" stroke="#9a32cd" stroke-dasharray="5,2" d="M683.89,-67.79C717.99,-69.37 761.09,-72.56 799.05,-79 806.22,-80.22 813.7,-81.82 821.03,-83.6"/>
<polygon fill="#9a32cd" stroke="#9a32cd" points="684.34,-64.3 674.2,-67.38 684.04,-71.3 684.34,-64.3"/>
</a>
</g>
<text text-anchor="middle" x="744.68" y="-80.75" font-family="Helvetica,sans-Serif" font-size="10.00" fill="grey"> elements</text>
</g>
<!-- Node11 -->
<g id="Node000011" class="node">
<title>Node11</title>
<g id="a_Node000011"><a xlink:title=" ">
<polygon fill="white" stroke="#666666" points="429.05,-75.88 303.55,-75.88 303.55,-56.62 429.05,-56.62 429.05,-75.88"/>
<text text-anchor="middle" x="366.3" y="-62.38" font-family="Helvetica,sans-Serif" font-size="10.00">std::vector&lt; ValueType &gt;</text>
</a>
</g>
</g>
<!-- Node11&#45;&gt;Node10 -->
<g id="edge11_Node000010_Node000011" class="edge">
<title>Node11&#45;&gt;Node10</title>
<g id="a_edge11_Node000010_Node000011"><a xlink:title=" ">
<path fill="none" stroke="#9a32cd" stroke-dasharray="5,2" d="M440.75,-66.25C482.48,-66.25 533.63,-66.25 570.69,-66.25"/>
<polygon fill="#9a32cd" stroke="#9a32cd" points="440.77,-62.75 430.77,-66.25 440.77,-69.75 440.77,-62.75"/>
</a>
</g>
<text text-anchor="middle" x="499.93" y="-68" font-family="Helvetica,sans-Serif" font-size="10.00" fill="grey"> types</text>
</g>
<!-- Node12 -->
<g id="Node000012" class="node">
<title>Node12</title>
<g id="a_Node000012"><a xlink:title=" ">
<polygon fill="white" stroke="#666666" points="197.8,-132.88 111.3,-132.88 111.3,-113.62 197.8,-113.62 197.8,-132.88"/>
<text text-anchor="middle" x="154.55" y="-119.38" font-family="Helvetica,sans-Serif" font-size="10.00">std::vector&lt; T &gt;</text>
</a>
</g>
</g>
<!-- Node12&#45;&gt;Node7 -->
<g id="edge15_Node000007_Node000012" class="edge">
<title>Node12&#45;&gt;Node7</title>
<g id="a_edge15_Node000007_Node000012"><a xlink:title=" ">
<path fill="none" stroke="orange" stroke-dasharray="5,2" d="M209.19,-130.8C251.5,-136.1 312.05,-142.25 365.3,-142.25 365.3,-142.25 365.3,-142.25 1094.05,-142.25 1137.54,-142.25 1186.7,-140.88 1223.68,-139.57"/>
<polygon fill="orange" stroke="orange" points="209.9,-127.36 199.53,-129.56 209.01,-134.3 209.9,-127.36"/>
</a>
</g>
<text text-anchor="middle" x="744.68" y="-144" font-family="Helvetica,sans-Serif" font-size="10.00" fill="grey"> &lt; Ark::types::Contract &gt;</text>
</g>
<!-- Node12&#45;&gt;Node9 -->
<g id="edge14_Node000009_Node000012" class="edge">
<title>Node12&#45;&gt;Node9</title>
<g id="a_edge14_Node000009_Node000012"><a xlink:title=" ">
<path fill="none" stroke="orange" stroke-dasharray="5,2" d="M209.46,-121.45C341.63,-117.03 680.86,-105.7 816.56,-101.17"/>
<polygon fill="orange" stroke="orange" points="209.46,-117.95 199.58,-121.78 209.69,-124.94 209.46,-117.95"/>
</a>
</g>
<text text-anchor="middle" x="499.93" y="-115.2" font-family="Helvetica,sans-Serif" font-size="10.00" fill="grey"> &lt; Ark::types::Typedef &gt;</text>
</g>
<!-- Node12&#45;&gt;Node11 -->
<g id="edge12_Node000011_Node000012" class="edge">
<title>Node12&#45;&gt;Node11</title>
<g id="a_edge12_Node000011_Node000012"><a xlink:title=" ">
<path fill="none" stroke="orange" stroke-dasharray="5,2" d="M174.52,-106.19C186.54,-96.45 202.91,-85 219.55,-79 245.95,-69.48 276.72,-65.8 303.16,-64.7"/>
<polygon fill="orange" stroke="orange" points="172.41,-103.39 167.05,-112.53 176.94,-108.73 172.41,-103.39"/>
</a>
</g>
<text text-anchor="middle" x="252.55" y="-80.75" font-family="Helvetica,sans-Serif" font-size="10.00" fill="grey"> &lt; ValueType &gt;</text>
</g>
<!-- Node14 -->
<g id="Node000014" class="node">
<title>Node14</title>
<g id="a_Node000014"><a xlink:title=" ">
<polygon fill="white" stroke="#666666" points="428.68,-189.88 303.93,-189.88 303.93,-170.62 428.68,-170.62 428.68,-189.88"/>
<text text-anchor="middle" x="366.3" y="-176.38" font-family="Helvetica,sans-Serif" font-size="10.00">std::vector&lt; Ark::Value &gt;</text>
</a>
</g>
</g>
<!-- Node12&#45;&gt;Node14 -->
<g id="edge18_Node000014_Node000012" class="edge">
<title>Node12&#45;&gt;Node14</title>
<g id="a_edge18_Node000014_Node000012"><a xlink:title=" ">
<path fill="none" stroke="orange" stroke-dasharray="5,2" d="M183.99,-138.49C194.87,-143.8 207.55,-149.39 219.55,-153.25 246.5,-161.91 277.2,-168.11 303.45,-172.37"/>
<polygon fill="orange" stroke="orange" points="185.66,-135.41 175.16,-134.02 182.5,-141.66 185.66,-135.41"/>
</a>
</g>
<text text-anchor="middle" x="252.55" y="-170.47" font-family="Helvetica,sans-Serif" font-size="10.00" fill="grey"> &lt; Ark::Value &gt;</text>
</g>
<!-- Node13 -->
<g id="Node000013" class="node">
<title>Node13</title>
<g id="a_Node000013"><a xlink:title=" ">
<polygon fill="white" stroke="#666666" points="28.8,-132.88 0,-132.88 0,-113.62 28.8,-113.62 28.8,-132.88"/>
<text text-anchor="middle" x="14.4" y="-119.38" font-family="Helvetica,sans-Serif" font-size="10.00">T</text>
</a>
</g>
</g>
<!-- Node13&#45;&gt;Node12 -->
<g id="edge13_Node000012_Node000013" class="edge">
<title>Node13&#45;&gt;Node12</title>
<g id="a_edge13_Node000012_Node000013"><a xlink:title=" ">
<path fill="none" stroke="#9a32cd" stroke-dasharray="5,2" d="M40.48,-123.25C60.1,-123.25 87.84,-123.25 110.93,-123.25"/>
<polygon fill="#9a32cd" stroke="#9a32cd" points="40.66,-119.75 30.66,-123.25 40.66,-126.75 40.66,-119.75"/>
</a>
</g>
<text text-anchor="middle" x="68.18" y="-125" font-family="Helvetica,sans-Serif" font-size="10.00" fill="grey"> elements</text>
</g>
<!-- Node14&#45;&gt;Node1 -->
<g id="edge16_Node000001_Node000014" class="edge">
<title>Node14&#45;&gt;Node1</title>
<g id="a_edge16_Node000001_Node000014"><a xlink:title=" ">
<path fill="none" stroke="#9a32cd" stroke-dasharray="5,2" d="M440.44,-180.25C491.02,-180.25 559.88,-180.25 620.55,-180.25 620.55,-180.25 620.55,-180.25 1282.93,-180.25 1333.26,-180.25 1390.12,-176.33 1432.5,-172.64"/>
<polygon fill="#9a32cd" stroke="#9a32cd" points="440.48,-176.75 430.48,-180.25 440.48,-183.75 440.48,-176.75"/>
</a>
</g>
<text text-anchor="middle" x="986.8" y="-182" font-family="Helvetica,sans-Serif" font-size="10.00" fill="grey"> m_passed_args</text>
</g>
<!-- Node15 -->
<g id="Node000015" class="node">
<title>Node15</title>
<g id="a_Node000015"><a xlink:href="../../d3/d90/classArk_1_1Value.html" target="_top" xlink:title=" ">
<polygon fill="white" stroke="#666666" points="185.05,-218.88 124.05,-218.88 124.05,-199.62 185.05,-199.62 185.05,-218.88"/>
<text text-anchor="middle" x="154.55" y="-205.38" font-family="Helvetica,sans-Serif" font-size="10.00">Ark::Value</text>
</a>
</g>
</g>
<!-- Node15&#45;&gt;Node14 -->
<g id="edge17_Node000014_Node000015" class="edge">
<title>Node15&#45;&gt;Node14</title>
<g id="a_edge17_Node000014_Node000015"><a xlink:title=" ">
<path fill="none" stroke="#9a32cd" stroke-dasharray="5,2" d="M196.21,-203.63C226.66,-199.42 268.86,-193.58 303.48,-188.8"/>
<polygon fill="#9a32cd" stroke="#9a32cd" points="196.08,-200.11 186.66,-204.95 197.04,-207.05 196.08,-200.11"/>
</a>
</g>
<text text-anchor="middle" x="252.55" y="-201.62" font-family="Helvetica,sans-Serif" font-size="10.00" fill="grey"> elements</text>
</g>
</g>
</svg>

<g id="navigator" transform="translate(0 0)" fill="#404254">
  <rect fill="#f2f5e9" fill-opacity="0.5" stroke="#606060" stroke-width=".5" x="0" y="0" width="60" height="60"/>
  <use id="zoomplus" xlink:href="#zoomPlus" x="17" y="9" onmousedown="handleZoom(evt,'in')"/>
  <use id="zoomminus" xlink:href="#zoomMin" x="42" y="9" onmousedown="handleZoom(evt,'out')"/>
  <use id="reset" xlink:href="#resetDef" x="30" y="36" onmousedown="handleReset()"/>
   <use id="arrowup" xlink:href="#arrowUp" x="0" y="0" onmousedown="handlePan(0,-1)"/>
  <use id="arrowright" xlink:href="#arrowRight" x="0" y="0" onmousedown="handlePan(1,0)"/>
  <use id="arrowdown" xlink:href="#arrowDown" x="0" y="0" onmousedown="handlePan(0,1)"/>
  <use id="arrowleft" xlink:href="#arrowLeft" x="0" y="0" onmousedown="handlePan(-1,0)"/>
</g>
<svg viewBox="0 0 15 15" width="100%" height="30px" preserveAspectRatio="xMaxYMin meet">
 <g id="arrow_out" transform="scale(0.3 0.3)">
  <a xlink:href="classArk_1_1types_1_1TypeCheckingError__coll__graph_org.svg" target="_base">
   <rect id="button" ry="5" rx="5" y="6" x="6" height="38" width="38"
        fill="#f2f5e9" fill-opacity="0.5" stroke="#606060" stroke-width="1.0"/>
   <path id="arrow"
     d="M 11.500037,31.436501 C 11.940474,20.09759 22.043105,11.32322 32.158766,21.979434 L 37.068811,17.246167 C 37.068811,17.246167 37.088388,32 37.088388,32 L 22.160133,31.978069 C 22.160133,31.978069 26.997745,27.140456 26.997745,27.140456 C 18.528582,18.264221 13.291696,25.230495 11.500037,31.436501 z"
     style="fill:#404040;"/>
  </a>
 </g>
</svg>

<style type='text/css'>
<![CDATA[
[data-mouse-over-selected='false'] { opacity: 0.7; }
[data-mouse-over-selected='true']  { opacity: 1.0; }
]]>
</style>
<script type="application/ecmascript"><![CDATA[
document.addEventListener('DOMContentLoaded', (event) => {
  highlightEdges();
  highlightAdjacentNodes();
});
]]></script>
</svg>
