<?xml version="1.0" encoding="UTF-8" standalone="no"?>
<!DOCTYPE svg PUBLIC "-//W3C//DTD SVG 1.1//EN"
 "http://www.w3.org/Graphics/SVG/1.1/DTD/svg11.dtd">
<!-- Generated by graphviz version 12.2.0 (20241103.1931)
 -->
<!-- Title: Ark::internal::MacroScope Pages: 1 -->
<svg width="283pt" height="362pt"
 viewBox="0.00 0.00 282.95 361.75" xmlns="http://www.w3.org/2000/svg" xmlns:xlink="http://www.w3.org/1999/xlink">
<g id="graph0" class="graph" transform="scale(1 1) rotate(0) translate(4 357.75)">
<title>Ark::internal::MacroScope</title>
<!-- Node1 -->
<g id="Node000001" class="node">
<title>Node1</title>
<g id="a_Node000001"><a xlink:title=" ">
<polygon fill="#999999" stroke="#666666" points="162.62,-19.25 33.38,-19.25 33.38,0 162.62,0 162.62,-19.25"/>
<text text-anchor="middle" x="98" y="-5.75" font-family="Helvetica,sans-Serif" font-size="10.00">Ark::internal::MacroScope</text>
</a>
</g>
</g>
<!-- Node2 -->
<g id="Node000002" class="node">
<title>Node2</title>
<g id="a_Node000002"><a xlink:title=" ">
<polygon fill="white" stroke="#666666" points="149.12,-108.25 46.88,-108.25 46.88,-66.5 149.12,-66.5 149.12,-108.25"/>
<text text-anchor="start" x="54.88" y="-94.75" font-family="Helvetica,sans-Serif" font-size="10.00">std::unordered_map</text>
<text text-anchor="start" x="54.88" y="-83.5" font-family="Helvetica,sans-Serif" font-size="10.00">&lt; std::string, Ark::</text>
<text text-anchor="middle" x="98" y="-72.25" font-family="Helvetica,sans-Serif" font-size="10.00">internal::Node &gt;</text>
</a>
</g>
</g>
<!-- Node2&#45;&gt;Node1 -->
<g id="edge1_Node000001_Node000002" class="edge">
<title>Node2&#45;&gt;Node1</title>
<g id="a_edge1_Node000001_Node000002"><a xlink:title=" ">
<path fill="none" stroke="#9a32cd" stroke-dasharray="5,2" d="M98,-54.86C98,-42.16 98,-28.48 98,-19.75"/>
<polygon fill="#9a32cd" stroke="#9a32cd" points="94.5,-54.56 98,-64.56 101.5,-54.56 94.5,-54.56"/>
</a>
</g>
<text text-anchor="middle" x="122.38" y="-39" font-family="Helvetica,sans-Serif" font-size="10.00" fill="grey"> m_macros</text>
</g>
<!-- Node3 -->
<g id="Node000003" class="node">
<title>Node3</title>
<g id="a_Node000003"><a xlink:title=" ">
<polygon fill="white" stroke="#666666" points="76.75,-286.25 17.25,-286.25 17.25,-267 76.75,-267 76.75,-286.25"/>
<text text-anchor="middle" x="47" y="-272.75" font-family="Helvetica,sans-Serif" font-size="10.00">std::string</text>
</a>
</g>
</g>
<!-- Node3&#45;&gt;Node2 -->
<g id="edge2_Node000002_Node000003" class="edge">
<title>Node3&#45;&gt;Node2</title>
<g id="a_edge2_Node000002_Node000003"><a xlink:title=" ">
<path fill="none" stroke="#9a32cd" stroke-dasharray="5,2" d="M34.24,-257.15C20.7,-235.09 2.92,-197.34 16,-166.75 26.3,-142.67 48.03,-122.45 66.53,-108.59"/>
<polygon fill="#9a32cd" stroke="#9a32cd" points="31.18,-258.87 39.57,-265.35 37.05,-255.05 31.18,-258.87"/>
</a>
</g>
<text text-anchor="middle" x="28" y="-178.12" font-family="Helvetica,sans-Serif" font-size="10.00" fill="grey"> keys</text>
</g>
<!-- Node5 -->
<g id="Node000005" class="node">
<title>Node5</title>
<g id="a_Node000005"><a xlink:href="../../dc/d9e/classArk_1_1internal_1_1Node.html" target="_top" xlink:title="A node of an Abstract Syntax Tree for ArkScript.">
<polygon fill="white" stroke="#666666" points="146.88,-191.62 49.12,-191.62 49.12,-172.38 146.88,-172.38 146.88,-191.62"/>
<text text-anchor="middle" x="98" y="-178.12" font-family="Helvetica,sans-Serif" font-size="10.00">Ark::internal::Node</text>
</a>
</g>
</g>
<!-- Node3&#45;&gt;Node5 -->
<g id="edge5_Node000005_Node000003" class="edge">
<title>Node3&#45;&gt;Node5</title>
<g id="a_edge5_Node000005_Node000003"><a xlink:title=" ">
<path fill="none" stroke="#9a32cd" stroke-dasharray="5,2" d="M57.38,-256.77C68.25,-237.04 84.84,-206.9 93.05,-191.99"/>
<polygon fill="#9a32cd" stroke="#9a32cd" points="54.38,-254.97 52.62,-265.42 60.51,-258.35 54.38,-254.97"/>
</a>
</g>
<text text-anchor="middle" x="120.92" y="-239.5" font-family="Helvetica,sans-Serif" font-size="10.00" fill="grey"> m_after_comment</text>
<text text-anchor="middle" x="120.92" y="-228.25" font-family="Helvetica,sans-Serif" font-size="10.00" fill="grey">m_comment</text>
<text text-anchor="middle" x="120.92" y="-217" font-family="Helvetica,sans-Serif" font-size="10.00" fill="grey">m_filename</text>
</g>
<!-- Node4 -->
<g id="Node000004" class="node">
<title>Node4</title>
<g id="a_Node000004"><a xlink:title=" ">
<polygon fill="white" stroke="#666666" points="94,-353.75 0,-353.75 0,-323.25 94,-323.25 94,-353.75"/>
<text text-anchor="start" x="8" y="-340.25" font-family="Helvetica,sans-Serif" font-size="10.00">std::basic_string&lt;</text>
<text text-anchor="middle" x="47" y="-329" font-family="Helvetica,sans-Serif" font-size="10.00"> Char &gt;</text>
</a>
</g>
</g>
<!-- Node4&#45;&gt;Node3 -->
<g id="edge3_Node000003_Node000004" class="edge">
<title>Node4&#45;&gt;Node3</title>
<g id="a_edge3_Node000003_Node000004"><a xlink:title=" ">
<path fill="none" stroke="#63b8ff" d="M47,-311.77C47,-302.79 47,-293.29 47,-286.6"/>
<polygon fill="#63b8ff" stroke="#63b8ff" points="43.5,-311.49 47,-321.49 50.5,-311.49 43.5,-311.49"/>
</a>
</g>
</g>
<!-- Node5&#45;&gt;Node2 -->
<g id="edge4_Node000002_Node000005" class="edge">
<title>Node5&#45;&gt;Node2</title>
<g id="a_edge4_Node000002_Node000005"><a xlink:title=" ">
<path fill="none" stroke="#9a32cd" stroke-dasharray="5,2" d="M98,-160.68C98,-145.15 98,-123.85 98,-108.39"/>
<polygon fill="#9a32cd" stroke="#9a32cd" points="94.5,-160.61 98,-170.61 101.5,-160.61 94.5,-160.61"/>
</a>
</g>
<text text-anchor="middle" x="119.38" y="-133.62" font-family="Helvetica,sans-Serif" font-size="10.00" fill="grey"> elements</text>
</g>
<!-- Node6 -->
<g id="Node000006" class="node">
<title>Node6</title>
<g id="a_Node000006"><a xlink:title=" ">
<polygon fill="white" stroke="#666666" points="267.12,-197.25 164.88,-197.25 164.88,-166.75 267.12,-166.75 267.12,-197.25"/>
<text text-anchor="start" x="172.88" y="-183.75" font-family="Helvetica,sans-Serif" font-size="10.00">std::unordered_map</text>
<text text-anchor="middle" x="216" y="-172.5" font-family="Helvetica,sans-Serif" font-size="10.00">&lt; K, T &gt;</text>
</a>
</g>
</g>
<!-- Node6&#45;&gt;Node2 -->
<g id="edge6_Node000002_Node000006" class="edge">
<title>Node6&#45;&gt;Node2</title>
<g id="a_edge6_Node000002_Node000006"><a xlink:title=" ">
<path fill="none" stroke="orange" stroke-dasharray="5,2" d="M188.28,-159.24C168.72,-143.89 142.71,-123.47 123.63,-108.5"/>
<polygon fill="orange" stroke="orange" points="186.08,-161.97 196.11,-165.39 190.41,-156.46 186.08,-161.97"/>
</a>
</g>
<text text-anchor="start" x="174.46" y="-139.25" font-family="Helvetica,sans-Serif" font-size="10.00" fill="grey"> &lt; std::string, Ark</text>
<text text-anchor="middle" x="212.34" y="-128" font-family="Helvetica,sans-Serif" font-size="10.00" fill="grey">::internal::Node &gt;</text>
</g>
<!-- Node7 -->
<g id="Node000007" class="node">
<title>Node7</title>
<g id="a_Node000007"><a xlink:title=" ">
<polygon fill="white" stroke="#666666" points="206.4,-286.25 177.6,-286.25 177.6,-267 206.4,-267 206.4,-286.25"/>
<text text-anchor="middle" x="192" y="-272.75" font-family="Helvetica,sans-Serif" font-size="10.00">K</text>
</a>
</g>
</g>
<!-- Node7&#45;&gt;Node6 -->
<g id="edge7_Node000006_Node000007" class="edge">
<title>Node7&#45;&gt;Node6</title>
<g id="a_edge7_Node000006_Node000007"><a xlink:title=" ">
<path fill="none" stroke="#9a32cd" stroke-dasharray="5,2" d="M190.92,-255.39C190.87,-243.44 191.85,-228.18 196,-215.25 197.97,-209.1 201.37,-202.94 204.8,-197.67"/>
<polygon fill="#9a32cd" stroke="#9a32cd" points="187.42,-255.38 191.23,-265.27 194.41,-255.16 187.42,-255.38"/>
</a>
</g>
<text text-anchor="middle" x="208" y="-228.25" font-family="Helvetica,sans-Serif" font-size="10.00" fill="grey"> keys</text>
</g>
<!-- Node8 -->
<g id="Node000008" class="node">
<title>Node8</title>
<g id="a_Node000008"><a xlink:title=" ">
<polygon fill="white" stroke="#666666" points="253.4,-286.25 224.6,-286.25 224.6,-267 253.4,-267 253.4,-286.25"/>
<text text-anchor="middle" x="239" y="-272.75" font-family="Helvetica,sans-Serif" font-size="10.00">T</text>
</a>
</g>
</g>
<!-- Node8&#45;&gt;Node6 -->
<g id="edge8_Node000006_Node000008" class="edge">
<title>Node8&#45;&gt;Node6</title>
<g id="a_edge8_Node000006_Node000008"><a xlink:title=" ">
<path fill="none" stroke="#9a32cd" stroke-dasharray="5,2" d="M234.08,-255.8C229.72,-238.27 223.48,-213.11 219.58,-197.42"/>
<polygon fill="#9a32cd" stroke="#9a32cd" points="230.62,-256.41 236.43,-265.27 237.42,-254.73 230.62,-256.41"/>
</a>
</g>
<text text-anchor="middle" x="253.58" y="-228.25" font-family="Helvetica,sans-Serif" font-size="10.00" fill="grey"> elements</text>
</g>
</g>
</svg>
