<?xml version="1.0" encoding="UTF-8" standalone="no"?>
<!DOCTYPE svg PUBLIC "-//W3C//DTD SVG 1.1//EN"
 "http://www.w3.org/Graphics/SVG/1.1/DTD/svg11.dtd">
<!-- Generated by graphviz version 12.2.0 (20241103.1931)
 -->
<!-- Title: /Users/fola/Documents/ArkScript/Ark/src/arkreactor/Compiler/Lowerer/LocalsLocator.cpp Pages: 1 -->
<svg width="226pt" height="172pt"
 viewBox="0.00 0.00 226.12 171.50" xmlns="http://www.w3.org/2000/svg" xmlns:xlink="http://www.w3.org/1999/xlink">

<svg id="main" version="1.1" xmlns="http://www.w3.org/2000/svg" xmlns:xlink="http://www.w3.org/1999/xlink" xml:space="preserve">

<style type="text/css"><![CDATA[
.node, .edge {opacity: 0.7;}
.node.selected, .edge.selected {opacity: 1;}
.edge:hover path { stroke: red; }
.edge:hover polygon { stroke: red; fill: red; }
]]></style>
<script type="application/ecmascript" xlink:href="../../svg.min.js"/>
<svg id="graph" class="graph">
<g id="graph0" class="graph" transform="scale(1 1) rotate(0) translate(4 167.5)">
<title>/Users/fola/Documents/ArkScript/Ark/src/arkreactor/Compiler/Lowerer/LocalsLocator.cpp</title>
<!-- Node1 -->
<g id="Node000001" class="node">
<title>Node1</title>
<g id="a_Node000001"><a xlink:title=" ">
<polygon fill="#999999" stroke="#666666" points="218.12,-163.5 40.88,-163.5 40.88,-121.75 218.12,-121.75 218.12,-163.5"/>
<text text-anchor="start" x="48.88" y="-150" font-family="Helvetica,sans-Serif" font-size="10.00">/Users/fola/Documents</text>
<text text-anchor="start" x="48.88" y="-138.75" font-family="Helvetica,sans-Serif" font-size="10.00">/ArkScript/Ark/src/arkreactor</text>
<text text-anchor="middle" x="129.5" y="-127.5" font-family="Helvetica,sans-Serif" font-size="10.00">/Compiler/Lowerer/LocalsLocator.cpp</text>
</a>
</g>
</g>
<!-- Node2 -->
<g id="Node000002" class="node">
<title>Node2</title>
<g id="a_Node000002"><a xlink:href="../../df/dd6/LocalsLocator_8hpp.html" target="_top" xlink:title="Track locals at compile.">
<polygon fill="white" stroke="#666666" points="136.75,-85.75 26.25,-85.75 26.25,-55.25 136.75,-55.25 136.75,-85.75"/>
<text text-anchor="start" x="34.25" y="-72.25" font-family="Helvetica,sans-Serif" font-size="10.00">Ark/Compiler/Lowerer</text>
<text text-anchor="middle" x="81.5" y="-61" font-family="Helvetica,sans-Serif" font-size="10.00">/LocalsLocator.hpp</text>
</a>
</g>
</g>
<!-- Node1&#45;&gt;Node2 -->
<g id="edge1_Node000001_Node000002" class="edge">
<title>Node1&#45;&gt;Node2</title>
<g id="a_edge1_Node000001_Node000002"><a xlink:title=" ">
<path fill="none" stroke="#63b8ff" d="M115.62,-121.34C110.04,-113.2 103.58,-103.76 97.79,-95.3"/>
<polygon fill="#63b8ff" stroke="#63b8ff" points="100.78,-93.47 92.25,-87.2 95.01,-97.43 100.78,-93.47"/>
</a>
</g>
</g>
<!-- Node6 -->
<g id="Node000006" class="node">
<title>Node6</title>
<g id="a_Node000006"><a xlink:title=" ">
<polygon fill="#e0e0e0" stroke="#999999" points="200.12,-80.12 154.88,-80.12 154.88,-60.88 200.12,-60.88 200.12,-80.12"/>
<text text-anchor="middle" x="177.5" y="-66.62" font-family="Helvetica,sans-Serif" font-size="10.00">ranges</text>
</a>
</g>
</g>
<!-- Node1&#45;&gt;Node6 -->
<g id="edge5_Node000001_Node000006" class="edge">
<title>Node1&#45;&gt;Node6</title>
<g id="a_edge5_Node000001_Node000006"><a xlink:title=" ">
<path fill="none" stroke="#63b8ff" d="M143.38,-121.34C150.22,-111.36 158.39,-99.42 165.02,-89.73"/>
<polygon fill="#63b8ff" stroke="#63b8ff" points="167.86,-91.78 170.62,-81.55 162.08,-87.83 167.86,-91.78"/>
</a>
</g>
</g>
<!-- Node3 -->
<g id="Node000003" class="node">
<title>Node3</title>
<g id="a_Node000003"><a xlink:title=" ">
<polygon fill="#e0e0e0" stroke="#999999" points="43,-19.25 0,-19.25 0,0 43,0 43,-19.25"/>
<text text-anchor="middle" x="21.5" y="-5.75" font-family="Helvetica,sans-Serif" font-size="10.00">vector</text>
</a>
</g>
</g>
<!-- Node2&#45;&gt;Node3 -->
<g id="edge2_Node000002_Node000003" class="edge">
<title>Node2&#45;&gt;Node3</title>
<g id="a_edge2_Node000002_Node000003"><a xlink:title=" ">
<path fill="none" stroke="#63b8ff" d="M66.67,-54.95C58.24,-46.67 47.63,-36.27 38.82,-27.62"/>
<polygon fill="#63b8ff" stroke="#63b8ff" points="41.42,-25.27 31.83,-20.76 36.52,-30.26 41.42,-25.27"/>
</a>
</g>
</g>
<!-- Node4 -->
<g id="Node000004" class="node">
<title>Node4</title>
<g id="a_Node000004"><a xlink:title=" ">
<polygon fill="#e0e0e0" stroke="#999999" points="101.5,-19.25 61.5,-19.25 61.5,0 101.5,0 101.5,-19.25"/>
<text text-anchor="middle" x="81.5" y="-5.75" font-family="Helvetica,sans-Serif" font-size="10.00">string</text>
</a>
</g>
</g>
<!-- Node2&#45;&gt;Node4 -->
<g id="edge3_Node000002_Node000004" class="edge">
<title>Node2&#45;&gt;Node4</title>
<g id="a_edge3_Node000002_Node000004"><a xlink:title=" ">
<path fill="none" stroke="#63b8ff" d="M81.5,-54.95C81.5,-47.71 81.5,-38.84 81.5,-30.94"/>
<polygon fill="#63b8ff" stroke="#63b8ff" points="85,-31.21 81.5,-21.21 78,-31.21 85,-31.21"/>
</a>
</g>
</g>
<!-- Node5 -->
<g id="Node000005" class="node">
<title>Node5</title>
<g id="a_Node000005"><a xlink:title=" ">
<polygon fill="#e0e0e0" stroke="#999999" points="169.38,-19.25 119.62,-19.25 119.62,0 169.38,0 169.38,-19.25"/>
<text text-anchor="middle" x="144.5" y="-5.75" font-family="Helvetica,sans-Serif" font-size="10.00">optional</text>
</a>
</g>
</g>
<!-- Node2&#45;&gt;Node5 -->
<g id="edge4_Node000002_Node000005" class="edge">
<title>Node2&#45;&gt;Node5</title>
<g id="a_edge4_Node000002_Node000005"><a xlink:title=" ">
<path fill="none" stroke="#63b8ff" d="M97.07,-54.95C106.02,-46.59 117.29,-36.05 126.6,-27.35"/>
<polygon fill="#63b8ff" stroke="#63b8ff" points="128.77,-30.12 133.68,-20.73 123.99,-25.01 128.77,-30.12"/>
</a>
</g>
</g>
</g>
</svg>
</svg>

<style type='text/css'>
<![CDATA[
[data-mouse-over-selected='false'] { opacity: 0.7; }
[data-mouse-over-selected='true']  { opacity: 1.0; }
]]>
</style>
<script type="application/ecmascript"><![CDATA[
document.addEventListener('DOMContentLoaded', (event) => {
  highlightEdges();
  highlightAdjacentNodes();
});
]]></script>
</svg>
