<?xml version="1.0" encoding="UTF-8" standalone="no"?>
<!DOCTYPE svg PUBLIC "-//W3C//DTD SVG 1.1//EN"
 "http://www.w3.org/Graphics/SVG/1.1/DTD/svg11.dtd">
<!-- Generated by graphviz version 12.2.0 (20241103.1931)
 -->
<!-- Title: Ark::internal::EntityWithOffset Pages: 1 -->
<svg width="132pt" height="250pt"
 viewBox="0.00 0.00 131.88 250.25" xmlns="http://www.w3.org/2000/svg" xmlns:xlink="http://www.w3.org/1999/xlink">
<g id="graph0" class="graph" transform="scale(1 1) rotate(0) translate(4 246.25)">
<title>Ark::internal::EntityWithOffset</title>
<!-- Node1 -->
<g id="Node000001" class="node">
<title>Node1</title>
<g id="a_Node000001"><a xlink:title=" ">
<polygon fill="#999999" stroke="#666666" points="120.25,-30.5 0,-30.5 0,0 120.25,0 120.25,-30.5"/>
<text text-anchor="start" x="8" y="-17" font-family="Helvetica,sans-Serif" font-size="10.00">Ark::internal::EntityWith</text>
<text text-anchor="middle" x="60.12" y="-5.75" font-family="Helvetica,sans-Serif" font-size="10.00">Offset</text>
</a>
</g>
</g>
<!-- Node2 -->
<g id="Node000002" class="node">
<title>Node2</title>
<g id="a_Node000002"><a xlink:href="../../dc/d35/classArk_1_1internal_1_1IR_1_1Entity.html" target="_top" xlink:title=" ">
<polygon fill="white" stroke="#666666" points="105.62,-108.25 14.62,-108.25 14.62,-77.75 105.62,-77.75 105.62,-108.25"/>
<text text-anchor="start" x="22.62" y="-94.75" font-family="Helvetica,sans-Serif" font-size="10.00">Ark::internal::IR::</text>
<text text-anchor="middle" x="60.12" y="-83.5" font-family="Helvetica,sans-Serif" font-size="10.00">Entity</text>
</a>
</g>
</g>
<!-- Node2&#45;&gt;Node1 -->
<g id="edge1_Node000001_Node000002" class="edge">
<title>Node2&#45;&gt;Node1</title>
<g id="a_edge1_Node000001_Node000002"><a xlink:title=" ">
<path fill="none" stroke="#9a32cd" stroke-dasharray="5,2" d="M60.12,-65.97C60.12,-54.21 60.12,-40.76 60.12,-30.81"/>
<polygon fill="#9a32cd" stroke="#9a32cd" points="56.63,-65.88 60.13,-75.88 63.63,-65.88 56.63,-65.88"/>
</a>
</g>
<text text-anchor="middle" x="73.62" y="-50.25" font-family="Helvetica,sans-Serif" font-size="10.00" fill="grey"> entity</text>
</g>
<!-- Node3 -->
<g id="Node000003" class="node">
<title>Node3</title>
<g id="a_Node000003"><a xlink:title=" ">
<polygon fill="white" stroke="#666666" points="89.88,-174.75 30.37,-174.75 30.37,-155.5 89.88,-155.5 89.88,-174.75"/>
<text text-anchor="middle" x="60.12" y="-161.25" font-family="Helvetica,sans-Serif" font-size="10.00">std::string</text>
</a>
</g>
</g>
<!-- Node3&#45;&gt;Node2 -->
<g id="edge2_Node000002_Node000003" class="edge">
<title>Node3&#45;&gt;Node2</title>
<g id="a_edge2_Node000002_Node000003"><a xlink:title=" ">
<path fill="none" stroke="#9a32cd" stroke-dasharray="5,2" d="M60.12,-143.92C60.12,-132.66 60.12,-118.89 60.12,-108.67"/>
<polygon fill="#9a32cd" stroke="#9a32cd" points="56.63,-143.73 60.13,-153.73 63.63,-143.73 56.63,-143.73"/>
</a>
</g>
<text text-anchor="middle" x="92" y="-128" font-family="Helvetica,sans-Serif" font-size="10.00" fill="grey"> m_source_file</text>
</g>
<!-- Node4 -->
<g id="Node000004" class="node">
<title>Node4</title>
<g id="a_Node000004"><a xlink:title=" ">
<polygon fill="white" stroke="#666666" points="107.12,-242.25 13.12,-242.25 13.12,-211.75 107.12,-211.75 107.12,-242.25"/>
<text text-anchor="start" x="21.12" y="-228.75" font-family="Helvetica,sans-Serif" font-size="10.00">std::basic_string&lt;</text>
<text text-anchor="middle" x="60.12" y="-217.5" font-family="Helvetica,sans-Serif" font-size="10.00"> Char &gt;</text>
</a>
</g>
</g>
<!-- Node4&#45;&gt;Node3 -->
<g id="edge3_Node000003_Node000004" class="edge">
<title>Node4&#45;&gt;Node3</title>
<g id="a_edge3_Node000003_Node000004"><a xlink:title=" ">
<path fill="none" stroke="#63b8ff" d="M60.12,-200.27C60.12,-191.29 60.12,-181.79 60.12,-175.1"/>
<polygon fill="#63b8ff" stroke="#63b8ff" points="56.63,-199.99 60.13,-209.99 63.63,-199.99 56.63,-199.99"/>
</a>
</g>
</g>
</g>
</svg>
