<?xml version="1.0" encoding="UTF-8" standalone="no"?>
<!DOCTYPE svg PUBLIC "-//W3C//DTD SVG 1.1//EN"
 "http://www.w3.org/Graphics/SVG/1.1/DTD/svg11.dtd">
<!-- Generated by graphviz version 12.2.0 (20241103.1931)
 -->
<!-- Title: /Users/fola/Documents/ArkScript/Ark/src/arkreactor/VM/Value/UserType.cpp Pages: 1 -->
<svg width="342pt" height="160pt"
 viewBox="0.00 0.00 342.12 160.25" xmlns="http://www.w3.org/2000/svg" xmlns:xlink="http://www.w3.org/1999/xlink">

<svg id="main" version="1.1" xmlns="http://www.w3.org/2000/svg" xmlns:xlink="http://www.w3.org/1999/xlink" xml:space="preserve">

<style type="text/css"><![CDATA[
.node, .edge {opacity: 0.7;}
.node.selected, .edge.selected {opacity: 1;}
.edge:hover path { stroke: red; }
.edge:hover polygon { stroke: red; fill: red; }
]]></style>
<script type="application/ecmascript" xlink:href="../../svg.min.js"/>
<svg id="graph" class="graph">
<g id="graph0" class="graph" transform="scale(1 1) rotate(0) translate(4 156.25)">
<title>/Users/fola/Documents/ArkScript/Ark/src/arkreactor/VM/Value/UserType.cpp</title>
<!-- Node1 -->
<g id="Node000001" class="node">
<title>Node1</title>
<g id="a_Node000001"><a xlink:title=" ">
<polygon fill="#999999" stroke="#666666" points="207,-152.25 66.5,-152.25 66.5,-110.5 207,-110.5 207,-152.25"/>
<text text-anchor="start" x="74.5" y="-138.75" font-family="Helvetica,sans-Serif" font-size="10.00">/Users/fola/Documents</text>
<text text-anchor="start" x="74.5" y="-127.5" font-family="Helvetica,sans-Serif" font-size="10.00">/ArkScript/Ark/src/arkreactor</text>
<text text-anchor="middle" x="136.75" y="-116.25" font-family="Helvetica,sans-Serif" font-size="10.00">/VM/Value/UserType.cpp</text>
</a>
</g>
</g>
<!-- Node2 -->
<g id="Node000002" class="node">
<title>Node2</title>
<g id="a_Node000002"><a xlink:href="../../dc/d3d/UserType_8hpp.html" target="_top" xlink:title="Subtype of the value, capable of handling any C++ type.">
<polygon fill="white" stroke="#666666" points="206.62,-74.5 66.88,-74.5 66.88,-55.25 206.62,-55.25 206.62,-74.5"/>
<text text-anchor="middle" x="136.75" y="-61" font-family="Helvetica,sans-Serif" font-size="10.00">Ark/VM/Value/UserType.hpp</text>
</a>
</g>
</g>
<!-- Node1&#45;&gt;Node2 -->
<g id="edge1_Node000001_Node000002" class="edge">
<title>Node1&#45;&gt;Node2</title>
<g id="a_edge1_Node000001_Node000002"><a xlink:title=" ">
<path fill="none" stroke="#63b8ff" d="M136.75,-110.32C136.75,-102.65 136.75,-93.89 136.75,-86.2"/>
<polygon fill="#63b8ff" stroke="#63b8ff" points="140.25,-86.46 136.75,-76.46 133.25,-86.46 140.25,-86.46"/>
</a>
</g>
</g>
<!-- Node3 -->
<g id="Node000003" class="node">
<title>Node3</title>
<g id="a_Node000003"><a xlink:title=" ">
<polygon fill="#e0e0e0" stroke="#999999" points="53.5,-19.25 0,-19.25 0,0 53.5,0 53.5,-19.25"/>
<text text-anchor="middle" x="26.75" y="-5.75" font-family="Helvetica,sans-Serif" font-size="10.00">iostream</text>
</a>
</g>
</g>
<!-- Node2&#45;&gt;Node3 -->
<g id="edge2_Node000002_Node000003" class="edge">
<title>Node2&#45;&gt;Node3</title>
<g id="a_edge2_Node000002_Node000003"><a xlink:title=" ">
<path fill="none" stroke="#63b8ff" d="M118.09,-54.84C101.02,-46.58 75.51,-34.23 55.78,-24.68"/>
<polygon fill="#63b8ff" stroke="#63b8ff" points="57.39,-21.57 46.86,-20.36 54.34,-27.87 57.39,-21.57"/>
</a>
</g>
</g>
<!-- Node4 -->
<g id="Node000004" class="node">
<title>Node4</title>
<g id="a_Node000004"><a xlink:title=" ">
<polygon fill="#e0e0e0" stroke="#999999" points="127.62,-19.25 71.88,-19.25 71.88,0 127.62,0 127.62,-19.25"/>
<text text-anchor="middle" x="99.75" y="-5.75" font-family="Helvetica,sans-Serif" font-size="10.00">cinttypes</text>
</a>
</g>
</g>
<!-- Node2&#45;&gt;Node4 -->
<g id="edge3_Node000002_Node000004" class="edge">
<title>Node2&#45;&gt;Node4</title>
<g id="a_edge3_Node000002_Node000004"><a xlink:title=" ">
<path fill="none" stroke="#63b8ff" d="M130.64,-55.08C125.69,-47.96 118.55,-37.68 112.38,-28.8"/>
<polygon fill="#63b8ff" stroke="#63b8ff" points="115.44,-27.07 106.86,-20.85 109.69,-31.06 115.44,-27.07"/>
</a>
</g>
</g>
<!-- Node5 -->
<g id="Node000005" class="node">
<title>Node5</title>
<g id="a_Node000005"><a xlink:title=" ">
<polygon fill="#e0e0e0" stroke="#999999" points="203.75,-19.25 145.75,-19.25 145.75,0 203.75,0 203.75,-19.25"/>
<text text-anchor="middle" x="174.75" y="-5.75" font-family="Helvetica,sans-Serif" font-size="10.00">functional</text>
</a>
</g>
</g>
<!-- Node2&#45;&gt;Node5 -->
<g id="edge4_Node000002_Node000005" class="edge">
<title>Node2&#45;&gt;Node5</title>
<g id="a_edge4_Node000002_Node000005"><a xlink:title=" ">
<path fill="none" stroke="#63b8ff" d="M143.02,-55.08C148.11,-47.96 155.45,-37.68 161.78,-28.8"/>
<polygon fill="#63b8ff" stroke="#63b8ff" points="164.5,-31.01 167.46,-20.84 158.8,-26.95 164.5,-31.01"/>
</a>
</g>
</g>
<!-- Node6 -->
<g id="Node000006" class="node">
<title>Node6</title>
<g id="a_Node000006"><a xlink:href="../../d5/d40/Platform_8hpp.html" target="_top" xlink:title="ArkScript configuration macros.">
<polygon fill="white" stroke="#666666" points="334.12,-19.25 221.38,-19.25 221.38,0 334.12,0 334.12,-19.25"/>
<text text-anchor="middle" x="277.75" y="-5.75" font-family="Helvetica,sans-Serif" font-size="10.00">Ark/Utils/Platform.hpp</text>
</a>
</g>
</g>
<!-- Node2&#45;&gt;Node6 -->
<g id="edge5_Node000002_Node000006" class="edge">
<title>Node2&#45;&gt;Node6</title>
<g id="a_edge5_Node000002_Node000006"><a xlink:title=" ">
<path fill="none" stroke="#63b8ff" d="M160.67,-54.84C183.25,-46.31 217.39,-33.42 242.98,-23.76"/>
<polygon fill="#63b8ff" stroke="#63b8ff" points="244.18,-27.04 252.3,-20.24 241.71,-20.5 244.18,-27.04"/>
</a>
</g>
</g>
</g>
</svg>
</svg>

<style type='text/css'>
<![CDATA[
[data-mouse-over-selected='false'] { opacity: 0.7; }
[data-mouse-over-selected='true']  { opacity: 1.0; }
]]>
</style>
<script type="application/ecmascript"><![CDATA[
document.addEventListener('DOMContentLoaded', (event) => {
  highlightEdges();
  highlightAdjacentNodes();
});
]]></script>
</svg>
