<?xml version="1.0" encoding="UTF-8" standalone="no"?>
<!DOCTYPE svg PUBLIC "-//W3C//DTD SVG 1.1//EN"
 "http://www.w3.org/Graphics/SVG/1.1/DTD/svg11.dtd">
<!-- Generated by graphviz version 12.2.0 (20241103.1931)
 -->
<!-- Title: Ark::internal::Logger Pages: 1 -->
<svg width="787pt" height="181pt"
 viewBox="0.00 0.00 786.75 181.11" xmlns="http://www.w3.org/2000/svg" xmlns:xlink="http://www.w3.org/1999/xlink">
<g id="graph0" class="graph" transform="scale(1 1) rotate(0) translate(4 177.11)">
<title>Ark::internal::Logger</title>
<!-- Node1 -->
<g id="Node000001" class="node">
<title>Node1</title>
<g id="a_Node000001"><a xlink:title=" ">
<polygon fill="#999999" stroke="#666666" points="778.75,-43.2 675,-43.2 675,-23.95 778.75,-23.95 778.75,-43.2"/>
<text text-anchor="middle" x="726.88" y="-29.7" font-family="Helvetica,sans-Serif" font-size="10.00">Ark::internal::Logger</text>
</a>
</g>
</g>
<!-- Node2 -->
<g id="Node000002" class="node">
<title>Node2</title>
<g id="a_Node000002"><a xlink:title=" ">
<polygon fill="white" stroke="#666666" points="253.62,-37.2 194.12,-37.2 194.12,-17.95 253.62,-17.95 253.62,-37.2"/>
<text text-anchor="middle" x="223.88" y="-23.7" font-family="Helvetica,sans-Serif" font-size="10.00">std::string</text>
</a>
</g>
</g>
<!-- Node2&#45;&gt;Node1 -->
<g id="edge1_Node000001_Node000002" class="edge">
<title>Node2&#45;&gt;Node1</title>
<g id="a_edge1_Node000001_Node000002"><a xlink:title=" ">
<path fill="none" stroke="#9a32cd" stroke-dasharray="5,2" d="M265.04,-20.45C328.57,-10.14 456.11,6.67 564,-3.32 604.99,-7.12 651.09,-16.22 683.57,-23.45"/>
<polygon fill="#9a32cd" stroke="#9a32cd" points="264.73,-16.95 255.43,-22.04 265.87,-23.86 264.73,-16.95"/>
</a>
</g>
<text text-anchor="middle" x="502" y="-5.07" font-family="Helvetica,sans-Serif" font-size="10.00" fill="grey"> m_name</text>
</g>
<!-- Node4 -->
<g id="Node000004" class="node">
<title>Node4</title>
<g id="a_Node000004"><a xlink:title=" ">
<polygon fill="white" stroke="#666666" points="563.25,-125.7 440.75,-125.7 440.75,-61.45 563.25,-61.45 563.25,-125.7"/>
<text text-anchor="start" x="448.75" y="-112.2" font-family="Helvetica,sans-Serif" font-size="10.00">std::unordered_map</text>
<text text-anchor="start" x="448.75" y="-100.95" font-family="Helvetica,sans-Serif" font-size="10.00">&lt; std::string, std::</text>
<text text-anchor="start" x="448.75" y="-89.7" font-family="Helvetica,sans-Serif" font-size="10.00">chrono::time_point&lt; std</text>
<text text-anchor="start" x="448.75" y="-78.45" font-family="Helvetica,sans-Serif" font-size="10.00">::chrono::high_resolution</text>
<text text-anchor="middle" x="502" y="-67.2" font-family="Helvetica,sans-Serif" font-size="10.00">_clock &gt; &gt;</text>
</a>
</g>
</g>
<!-- Node2&#45;&gt;Node4 -->
<g id="edge4_Node000004_Node000002" class="edge">
<title>Node2&#45;&gt;Node4</title>
<g id="a_edge4_Node000004_Node000002"><a xlink:title=" ">
<path fill="none" stroke="#9a32cd" stroke-dasharray="5,2" d="M265.23,-34.78C274.36,-36.38 284.01,-38.06 293,-39.57 350.26,-49.22 366.17,-44.33 422,-60.32 428.01,-62.04 434.17,-64.09 440.28,-66.32"/>
<polygon fill="#9a32cd" stroke="#9a32cd" points="265.98,-31.36 255.52,-33.07 264.76,-38.25 265.98,-31.36"/>
</a>
</g>
<text text-anchor="middle" x="357.5" y="-62.07" font-family="Helvetica,sans-Serif" font-size="10.00" fill="grey"> keys</text>
</g>
<!-- Node8 -->
<g id="Node000008" class="node">
<title>Node8</title>
<g id="a_Node000008"><a xlink:title=" ">
<polygon fill="white" stroke="#666666" points="564,-43.2 440,-43.2 440,-23.95 564,-23.95 564,-43.2"/>
<text text-anchor="middle" x="502" y="-29.7" font-family="Helvetica,sans-Serif" font-size="10.00">std::vector&lt; std::string &gt;</text>
</a>
</g>
</g>
<!-- Node2&#45;&gt;Node8 -->
<g id="edge9_Node000008_Node000002" class="edge">
<title>Node2&#45;&gt;Node8</title>
<g id="a_edge9_Node000008_Node000002"><a xlink:title=" ">
<path fill="none" stroke="#9a32cd" stroke-dasharray="5,2" d="M265.3,-26.99C305.16,-26.59 367.8,-26.42 422,-28.32 427.77,-28.52 433.77,-28.8 439.78,-29.12"/>
<polygon fill="#9a32cd" stroke="#9a32cd" points="265.42,-23.49 255.46,-27.1 265.5,-30.49 265.42,-23.49"/>
</a>
</g>
<text text-anchor="middle" x="357.5" y="-30.07" font-family="Helvetica,sans-Serif" font-size="10.00" fill="grey"> elements</text>
</g>
<!-- Node3 -->
<g id="Node000003" class="node">
<title>Node3</title>
<g id="a_Node000003"><a xlink:title=" ">
<polygon fill="white" stroke="#666666" points="94,-42.82 0,-42.82 0,-12.32 94,-12.32 94,-42.82"/>
<text text-anchor="start" x="8" y="-29.32" font-family="Helvetica,sans-Serif" font-size="10.00">std::basic_string&lt;</text>
<text text-anchor="middle" x="47" y="-18.07" font-family="Helvetica,sans-Serif" font-size="10.00"> Char &gt;</text>
</a>
</g>
</g>
<!-- Node3&#45;&gt;Node2 -->
<g id="edge2_Node000002_Node000003" class="edge">
<title>Node3&#45;&gt;Node2</title>
<g id="a_edge2_Node000002_Node000003"><a xlink:title=" ">
<path fill="none" stroke="#63b8ff" d="M105.85,-27.57C135.35,-27.57 169.95,-27.57 193.83,-27.57"/>
<polygon fill="#63b8ff" stroke="#63b8ff" points="105.92,-24.07 95.92,-27.57 105.92,-31.07 105.92,-24.07"/>
</a>
</g>
</g>
<!-- Node4&#45;&gt;Node1 -->
<g id="edge3_Node000001_Node000004" class="edge">
<title>Node4&#45;&gt;Node1</title>
<g id="a_edge3_Node000001_Node000004"><a xlink:title=" ">
<path fill="none" stroke="#9a32cd" stroke-dasharray="5,2" d="M574.59,-74.3C612.44,-64.11 657.36,-52.02 688.36,-43.67"/>
<polygon fill="#9a32cd" stroke="#9a32cd" points="573.82,-70.88 565.07,-76.86 575.63,-77.64 573.82,-70.88"/>
</a>
</g>
<text text-anchor="middle" x="619.5" y="-72.46" font-family="Helvetica,sans-Serif" font-size="10.00" fill="grey"> m_trace_starts</text>
</g>
<!-- Node5 -->
<g id="Node000005" class="node">
<title>Node5</title>
<g id="a_Node000005"><a xlink:title=" ">
<polygon fill="white" stroke="#666666" points="275,-150.82 172.75,-150.82 172.75,-120.32 275,-120.32 275,-150.82"/>
<text text-anchor="start" x="180.75" y="-137.32" font-family="Helvetica,sans-Serif" font-size="10.00">std::unordered_map</text>
<text text-anchor="middle" x="223.88" y="-126.07" font-family="Helvetica,sans-Serif" font-size="10.00">&lt; K, T &gt;</text>
</a>
</g>
</g>
<!-- Node5&#45;&gt;Node4 -->
<g id="edge5_Node000004_Node000005" class="edge">
<title>Node5&#45;&gt;Node4</title>
<g id="a_edge5_Node000004_Node000005"><a xlink:title=" ">
<path fill="none" stroke="orange" stroke-dasharray="5,2" d="M286.7,-129.11C325.64,-124.7 376.91,-118.27 422,-110.57 427.95,-109.56 434.12,-108.4 440.29,-107.19"/>
<polygon fill="orange" stroke="orange" points="286.34,-125.63 276.79,-130.22 287.12,-132.59 286.34,-125.63"/>
</a>
</g>
<text text-anchor="start" x="293" y="-163.61" font-family="Helvetica,sans-Serif" font-size="10.00" fill="grey"> &lt; std::string, std</text>
<text text-anchor="start" x="293" y="-152.36" font-family="Helvetica,sans-Serif" font-size="10.00" fill="grey">::chrono::time_point</text>
<text text-anchor="start" x="293" y="-141.11" font-family="Helvetica,sans-Serif" font-size="10.00" fill="grey">&lt; std::chrono::high_resolution</text>
<text text-anchor="middle" x="357.5" y="-129.86" font-family="Helvetica,sans-Serif" font-size="10.00" fill="grey">_clock &gt; &gt;</text>
</g>
<!-- Node6 -->
<g id="Node000006" class="node">
<title>Node6</title>
<g id="a_Node000006"><a xlink:title=" ">
<polygon fill="white" stroke="#666666" points="61.4,-170.2 32.6,-170.2 32.6,-150.95 61.4,-150.95 61.4,-170.2"/>
<text text-anchor="middle" x="47" y="-156.7" font-family="Helvetica,sans-Serif" font-size="10.00">K</text>
</a>
</g>
</g>
<!-- Node6&#45;&gt;Node5 -->
<g id="edge6_Node000005_Node000006" class="edge">
<title>Node6&#45;&gt;Node5</title>
<g id="a_edge6_Node000005_Node000006"><a xlink:title=" ">
<path fill="none" stroke="#9a32cd" stroke-dasharray="5,2" d="M73.1,-156.98C98.97,-153.29 140.01,-147.42 172.59,-142.76"/>
<polygon fill="#9a32cd" stroke="#9a32cd" points="72.62,-153.52 63.22,-158.4 73.62,-160.45 72.62,-153.52"/>
</a>
</g>
<text text-anchor="middle" x="133.38" y="-152.8" font-family="Helvetica,sans-Serif" font-size="10.00" fill="grey"> keys</text>
</g>
<!-- Node7 -->
<g id="Node000007" class="node">
<title>Node7</title>
<g id="a_Node000007"><a xlink:title=" ">
<polygon fill="white" stroke="#666666" points="61.4,-118.2 32.6,-118.2 32.6,-98.95 61.4,-98.95 61.4,-118.2"/>
<text text-anchor="middle" x="47" y="-104.7" font-family="Helvetica,sans-Serif" font-size="10.00">T</text>
</a>
</g>
</g>
<!-- Node7&#45;&gt;Node5 -->
<g id="edge7_Node000005_Node000007" class="edge">
<title>Node7&#45;&gt;Node5</title>
<g id="a_edge7_Node000005_Node000007"><a xlink:title=" ">
<path fill="none" stroke="#9a32cd" stroke-dasharray="5,2" d="M73.1,-112.45C98.97,-116.44 140.01,-122.78 172.59,-127.81"/>
<polygon fill="#9a32cd" stroke="#9a32cd" points="73.63,-108.99 63.22,-110.92 72.57,-115.91 73.63,-108.99"/>
</a>
</g>
<text text-anchor="middle" x="133.38" y="-126.24" font-family="Helvetica,sans-Serif" font-size="10.00" fill="grey"> elements</text>
</g>
<!-- Node9 -->
<g id="Node000009" class="node">
<title>Node9</title>
<g id="a_Node000009"><a xlink:title=" ">
<polygon fill="white" stroke="#666666" points="267.12,-102.2 180.62,-102.2 180.62,-82.95 267.12,-82.95 267.12,-102.2"/>
<text text-anchor="middle" x="223.88" y="-88.7" font-family="Helvetica,sans-Serif" font-size="10.00">std::vector&lt; T &gt;</text>
</a>
</g>
</g>
<!-- Node7&#45;&gt;Node9 -->
<g id="edge11_Node000009_Node000007" class="edge">
<title>Node7&#45;&gt;Node9</title>
<g id="a_edge11_Node000009_Node000007"><a xlink:title=" ">
<path fill="none" stroke="#9a32cd" stroke-dasharray="5,2" d="M72.38,-101.39C84.22,-98.25 98.73,-94.93 112,-93.32 134.45,-90.61 159.65,-90.23 180.35,-90.61"/>
<polygon fill="#9a32cd" stroke="#9a32cd" points="71.73,-97.93 63.03,-103.98 73.6,-104.68 71.73,-97.93"/>
</a>
</g>
<text text-anchor="middle" x="133.38" y="-95.07" font-family="Helvetica,sans-Serif" font-size="10.00" fill="grey"> elements</text>
</g>
<!-- Node8&#45;&gt;Node1 -->
<g id="edge8_Node000001_Node000008" class="edge">
<title>Node8&#45;&gt;Node1</title>
<g id="a_edge8_Node000001_Node000008"><a xlink:title=" ">
<path fill="none" stroke="#9a32cd" stroke-dasharray="5,2" d="M575.71,-33.57C608.07,-33.57 645.4,-33.57 674.75,-33.57"/>
<polygon fill="#9a32cd" stroke="#9a32cd" points="576.01,-30.07 566.01,-33.57 576.01,-37.07 576.01,-30.07"/>
</a>
</g>
<text text-anchor="middle" x="619.5" y="-35.32" font-family="Helvetica,sans-Serif" font-size="10.00" fill="grey"> m_active_traces</text>
</g>
<!-- Node9&#45;&gt;Node8 -->
<g id="edge10_Node000008_Node000009" class="edge">
<title>Node9&#45;&gt;Node8</title>
<g id="a_edge10_Node000008_Node000009"><a xlink:title=" ">
<path fill="none" stroke="orange" stroke-dasharray="5,2" d="M278.66,-91.86C328.3,-90.41 397.87,-86.11 422,-73.57 432.91,-67.91 429.73,-59.33 440,-52.57 445.47,-48.97 451.65,-46.03 457.94,-43.62"/>
<polygon fill="orange" stroke="orange" points="278.87,-88.35 268.96,-92.11 279.05,-95.35 278.87,-88.35"/>
</a>
</g>
<text text-anchor="middle" x="357.5" y="-93.12" font-family="Helvetica,sans-Serif" font-size="10.00" fill="grey"> &lt; std::string &gt;</text>
</g>
</g>
</svg>
