<?xml version="1.0" encoding="UTF-8" standalone="no"?>
<!DOCTYPE svg PUBLIC "-//W3C//DTD SVG 1.1//EN"
 "http://www.w3.org/Graphics/SVG/1.1/DTD/svg11.dtd">
<!-- Generated by graphviz version 12.2.0 (20241103.1931)
 -->
<!-- Title: /Users/fola/Documents/ArkScript/Ark/include/Ark/Compiler/Package/Package.hpp Pages: 1 -->
<svg width="887pt" height="361pt"
 viewBox="0.00 0.00 887.12 360.75" xmlns="http://www.w3.org/2000/svg" xmlns:xlink="http://www.w3.org/1999/xlink">
<g id="graph0" class="graph" transform="scale(1 1) rotate(0) translate(4 356.75)">
<title>/Users/fola/Documents/ArkScript/Ark/include/Ark/Compiler/Package/Package.hpp</title>
<!-- Node1 -->
<g id="Node000001" class="node">
<title>Node1</title>
<g id="a_Node000001"><a xlink:title=" ">
<polygon fill="#999999" stroke="#666666" points="763.88,-352.75 586.62,-352.75 586.62,-311 763.88,-311 763.88,-352.75"/>
<text text-anchor="start" x="594.62" y="-339.25" font-family="Helvetica,sans-Serif" font-size="10.00">/Users/fola/Documents</text>
<text text-anchor="start" x="594.62" y="-328" font-family="Helvetica,sans-Serif" font-size="10.00">/ArkScript/Ark/include</text>
<text text-anchor="middle" x="675.25" y="-316.75" font-family="Helvetica,sans-Serif" font-size="10.00">/Ark/Compiler/Package/Package.hpp</text>
</a>
</g>
</g>
<!-- Node2 -->
<g id="Node000002" class="node">
<title>Node2</title>
<g id="a_Node000002"><a xlink:href="../../d1/db0/ImportSolver_8hpp.html" target="_top" xlink:title="Handle imports, resolve them with modules and everything.">
<polygon fill="white" stroke="#666666" points="772.12,-275 578.38,-275 578.38,-233.25 772.12,-233.25 772.12,-275"/>
<text text-anchor="start" x="586.38" y="-261.5" font-family="Helvetica,sans-Serif" font-size="10.00">/Users/fola/Documents</text>
<text text-anchor="start" x="586.38" y="-250.25" font-family="Helvetica,sans-Serif" font-size="10.00">/ArkScript/Ark/include</text>
<text text-anchor="middle" x="675.25" y="-239" font-family="Helvetica,sans-Serif" font-size="10.00">/Ark/Compiler/Package/ImportSolver.hpp</text>
</a>
</g>
</g>
<!-- Node1&#45;&gt;Node2 -->
<g id="edge1_Node000001_Node000002" class="edge">
<title>Node1&#45;&gt;Node2</title>
<g id="a_edge1_Node000001_Node000002"><a xlink:title=" ">
<path fill="none" stroke="#63b8ff" d="M675.25,-299.25C675.25,-291.21 675.25,-282.79 675.25,-275.48"/>
<polygon fill="#63b8ff" stroke="#63b8ff" points="671.75,-299.06 675.25,-309.06 678.75,-299.06 671.75,-299.06"/>
</a>
</g>
</g>
<!-- Node3 -->
<g id="Node000003" class="node">
<title>Node3</title>
<g id="a_Node000003"><a xlink:href="../../de/d8e/Welder_8hpp.html" target="_top" xlink:title="In charge of welding everything needed to compile code.">
<polygon fill="white" stroke="#666666" points="613.75,-197.25 486.75,-197.25 486.75,-155.5 613.75,-155.5 613.75,-197.25"/>
<text text-anchor="start" x="494.75" y="-183.75" font-family="Helvetica,sans-Serif" font-size="10.00">/Users/fola/Documents</text>
<text text-anchor="start" x="494.75" y="-172.5" font-family="Helvetica,sans-Serif" font-size="10.00">/ArkScript/Ark/include</text>
<text text-anchor="middle" x="550.25" y="-161.25" font-family="Helvetica,sans-Serif" font-size="10.00">/Ark/Compiler/Welder.hpp</text>
</a>
</g>
</g>
<!-- Node2&#45;&gt;Node3 -->
<g id="edge2_Node000002_Node000003" class="edge">
<title>Node2&#45;&gt;Node3</title>
<g id="a_edge2_Node000002_Node000003"><a xlink:title=" ">
<path fill="none" stroke="#63b8ff" d="M632.18,-227.03C616.37,-217.44 598.7,-206.74 583.84,-197.73"/>
<polygon fill="#63b8ff" stroke="#63b8ff" points="630.09,-229.85 640.46,-232.04 633.72,-223.87 630.09,-229.85"/>
</a>
</g>
</g>
<!-- Node10 -->
<g id="Node000010" class="node">
<title>Node10</title>
<g id="a_Node000010"><a xlink:href="../../d3/df1/Welder_8cpp.html" target="_top" xlink:title=" ">
<polygon fill="white" stroke="#666666" points="779.5,-119.5 639,-119.5 639,-77.75 779.5,-77.75 779.5,-119.5"/>
<text text-anchor="start" x="647" y="-106" font-family="Helvetica,sans-Serif" font-size="10.00">/Users/fola/Documents</text>
<text text-anchor="start" x="647" y="-94.75" font-family="Helvetica,sans-Serif" font-size="10.00">/ArkScript/Ark/src/arkreactor</text>
<text text-anchor="middle" x="709.25" y="-83.5" font-family="Helvetica,sans-Serif" font-size="10.00">/Compiler/Welder.cpp</text>
</a>
</g>
</g>
<!-- Node2&#45;&gt;Node10 -->
<g id="edge12_Node000002_Node000010" class="edge">
<title>Node2&#45;&gt;Node10</title>
<g id="a_edge12_Node000002_Node000010"><a xlink:title=" ">
<path fill="none" stroke="#63b8ff" d="M680.78,-221.72C684.31,-202.53 689.16,-177.51 694.25,-155.5 696.99,-143.66 700.49,-130.53 703.42,-119.97"/>
<polygon fill="#63b8ff" stroke="#63b8ff" points="677.38,-220.89 679.04,-231.36 684.27,-222.14 677.38,-220.89"/>
</a>
</g>
</g>
<!-- Node12 -->
<g id="Node000012" class="node">
<title>Node12</title>
<g id="a_Node000012"><a xlink:href="../../d6/d41/ImportSolver_8cpp.html" target="_top" xlink:title=" ">
<polygon fill="white" stroke="#666666" points="879.12,-197.25 703.38,-197.25 703.38,-155.5 879.12,-155.5 879.12,-197.25"/>
<text text-anchor="start" x="711.38" y="-183.75" font-family="Helvetica,sans-Serif" font-size="10.00">/Users/fola/Documents</text>
<text text-anchor="start" x="711.38" y="-172.5" font-family="Helvetica,sans-Serif" font-size="10.00">/ArkScript/Ark/src/arkreactor</text>
<text text-anchor="middle" x="791.25" y="-161.25" font-family="Helvetica,sans-Serif" font-size="10.00">/Compiler/Package/ImportSolver.cpp</text>
</a>
</g>
</g>
<!-- Node2&#45;&gt;Node12 -->
<g id="edge11_Node000002_Node000012" class="edge">
<title>Node2&#45;&gt;Node12</title>
<g id="a_edge11_Node000002_Node000012"><a xlink:title=" ">
<path fill="none" stroke="#63b8ff" d="M715.63,-226.76C730.2,-217.24 746.41,-206.65 760.08,-197.73"/>
<polygon fill="#63b8ff" stroke="#63b8ff" points="714.06,-223.6 707.6,-232 717.89,-229.46 714.06,-223.6"/>
</a>
</g>
</g>
<!-- Node4 -->
<g id="Node000004" class="node">
<title>Node4</title>
<g id="a_Node000004"><a xlink:href="../../d3/d7e/Ark_8hpp.html" target="_top" xlink:title="Includes the needed files to start using ArkScript.">
<polygon fill="white" stroke="#666666" points="305.88,-119.5 188.62,-119.5 188.62,-77.75 305.88,-77.75 305.88,-119.5"/>
<text text-anchor="start" x="196.62" y="-106" font-family="Helvetica,sans-Serif" font-size="10.00">/Users/fola/Documents</text>
<text text-anchor="start" x="196.62" y="-94.75" font-family="Helvetica,sans-Serif" font-size="10.00">/ArkScript/Ark/include</text>
<text text-anchor="middle" x="247.25" y="-83.5" font-family="Helvetica,sans-Serif" font-size="10.00">/Ark/Ark.hpp</text>
</a>
</g>
</g>
<!-- Node3&#45;&gt;Node4 -->
<g id="edge3_Node000003_Node000004" class="edge">
<title>Node3&#45;&gt;Node4</title>
<g id="a_edge3_Node000003_Node000004"><a xlink:title=" ">
<path fill="none" stroke="#63b8ff" d="M475.48,-156.68C423.26,-143.63 354.52,-126.44 306.17,-114.35"/>
<polygon fill="#63b8ff" stroke="#63b8ff" points="474.34,-160.01 484.89,-159.04 476.04,-153.21 474.34,-160.01"/>
</a>
</g>
</g>
<!-- Node7 -->
<g id="Node000007" class="node">
<title>Node7</title>
<g id="a_Node000007"><a xlink:href="../../dc/dfd/JsonCompiler_8hpp.html" target="_top" xlink:title=" ">
<polygon fill="white" stroke="#666666" points="461.88,-119.5 344.62,-119.5 344.62,-77.75 461.88,-77.75 461.88,-119.5"/>
<text text-anchor="start" x="352.62" y="-106" font-family="Helvetica,sans-Serif" font-size="10.00">/Users/fola/Documents</text>
<text text-anchor="start" x="352.62" y="-94.75" font-family="Helvetica,sans-Serif" font-size="10.00">/ArkScript/Ark/include</text>
<text text-anchor="middle" x="403.25" y="-83.5" font-family="Helvetica,sans-Serif" font-size="10.00">/CLI/JsonCompiler.hpp</text>
</a>
</g>
</g>
<!-- Node3&#45;&gt;Node7 -->
<g id="edge6_Node000003_Node000007" class="edge">
<title>Node3&#45;&gt;Node7</title>
<g id="a_edge6_Node000003_Node000007"><a xlink:title=" ">
<path fill="none" stroke="#63b8ff" d="M500.65,-149.82C481.79,-140.1 460.56,-129.16 442.75,-119.98"/>
<polygon fill="#63b8ff" stroke="#63b8ff" points="499.02,-152.91 509.51,-154.38 502.23,-146.69 499.02,-152.91"/>
</a>
</g>
</g>
<!-- Node3&#45;&gt;Node10 -->
<g id="edge9_Node000003_Node000010" class="edge">
<title>Node3&#45;&gt;Node10</title>
<g id="a_edge9_Node000003_Node000010"><a xlink:title=" ">
<path fill="none" stroke="#63b8ff" d="M603.05,-150.22C623.66,-140.4 646.99,-129.29 666.52,-119.98"/>
<polygon fill="#63b8ff" stroke="#63b8ff" points="601.75,-146.96 594.23,-154.42 604.76,-153.28 601.75,-146.96"/>
</a>
</g>
</g>
<!-- Node11 -->
<g id="Node000011" class="node">
<title>Node11</title>
<g id="a_Node000011"><a xlink:href="../../d0/da0/State_8cpp.html" target="_top" xlink:title=" ">
<polygon fill="white" stroke="#666666" points="620.5,-119.5 480,-119.5 480,-77.75 620.5,-77.75 620.5,-119.5"/>
<text text-anchor="start" x="488" y="-106" font-family="Helvetica,sans-Serif" font-size="10.00">/Users/fola/Documents</text>
<text text-anchor="start" x="488" y="-94.75" font-family="Helvetica,sans-Serif" font-size="10.00">/ArkScript/Ark/src/arkreactor</text>
<text text-anchor="middle" x="550.25" y="-83.5" font-family="Helvetica,sans-Serif" font-size="10.00">/VM/State.cpp</text>
</a>
</g>
</g>
<!-- Node3&#45;&gt;Node11 -->
<g id="edge10_Node000003_Node000011" class="edge">
<title>Node3&#45;&gt;Node11</title>
<g id="a_edge10_Node000003_Node000011"><a xlink:title=" ">
<path fill="none" stroke="#63b8ff" d="M550.25,-143.75C550.25,-135.71 550.25,-127.29 550.25,-119.98"/>
<polygon fill="#63b8ff" stroke="#63b8ff" points="546.75,-143.56 550.25,-153.56 553.75,-143.56 546.75,-143.56"/>
</a>
</g>
</g>
<!-- Node5 -->
<g id="Node000005" class="node">
<title>Node5</title>
<g id="a_Node000005"><a xlink:href="../../d1/d95/arkemscripten_2main_8cpp.html" target="_top" xlink:title=" ">
<polygon fill="white" stroke="#666666" points="158.5,-41.75 0,-41.75 0,0 158.5,0 158.5,-41.75"/>
<text text-anchor="start" x="8" y="-28.25" font-family="Helvetica,sans-Serif" font-size="10.00">/Users/fola/Documents</text>
<text text-anchor="start" x="8" y="-17" font-family="Helvetica,sans-Serif" font-size="10.00">/ArkScript/Ark/src/arkemscripten</text>
<text text-anchor="middle" x="79.25" y="-5.75" font-family="Helvetica,sans-Serif" font-size="10.00">/main.cpp</text>
</a>
</g>
</g>
<!-- Node4&#45;&gt;Node5 -->
<g id="edge4_Node000004_Node000005" class="edge">
<title>Node4&#45;&gt;Node5</title>
<g id="a_edge4_Node000004_Node000005"><a xlink:title=" ">
<path fill="none" stroke="#63b8ff" d="M191.76,-72.61C169.91,-62.75 145.13,-51.58 124.4,-42.23"/>
<polygon fill="#63b8ff" stroke="#63b8ff" points="190.29,-75.78 200.85,-76.7 193.17,-69.4 190.29,-75.78"/>
</a>
</g>
</g>
<!-- Node6 -->
<g id="Node000006" class="node">
<title>Node6</title>
<g id="a_Node000006"><a xlink:href="../../dc/d32/Ark_8cpp.html" target="_top" xlink:title=" ">
<polygon fill="white" stroke="#666666" points="317.5,-41.75 177,-41.75 177,0 317.5,0 317.5,-41.75"/>
<text text-anchor="start" x="185" y="-28.25" font-family="Helvetica,sans-Serif" font-size="10.00">/Users/fola/Documents</text>
<text text-anchor="start" x="185" y="-17" font-family="Helvetica,sans-Serif" font-size="10.00">/ArkScript/Ark/src/arkreactor</text>
<text text-anchor="middle" x="247.25" y="-5.75" font-family="Helvetica,sans-Serif" font-size="10.00">/Ark.cpp</text>
</a>
</g>
</g>
<!-- Node4&#45;&gt;Node6 -->
<g id="edge5_Node000004_Node000006" class="edge">
<title>Node4&#45;&gt;Node6</title>
<g id="a_edge5_Node000004_Node000006"><a xlink:title=" ">
<path fill="none" stroke="#63b8ff" d="M247.25,-66C247.25,-57.96 247.25,-49.54 247.25,-42.23"/>
<polygon fill="#63b8ff" stroke="#63b8ff" points="243.75,-65.81 247.25,-75.81 250.75,-65.81 243.75,-65.81"/>
</a>
</g>
</g>
<!-- Node8 -->
<g id="Node000008" class="node">
<title>Node8</title>
<g id="a_Node000008"><a xlink:href="../../db/d71/JsonCompiler_8cpp.html" target="_top" xlink:title=" ">
<polygon fill="white" stroke="#666666" points="470.5,-41.75 336,-41.75 336,0 470.5,0 470.5,-41.75"/>
<text text-anchor="start" x="344" y="-28.25" font-family="Helvetica,sans-Serif" font-size="10.00">/Users/fola/Documents</text>
<text text-anchor="start" x="344" y="-17" font-family="Helvetica,sans-Serif" font-size="10.00">/ArkScript/Ark/src/arkscript</text>
<text text-anchor="middle" x="403.25" y="-5.75" font-family="Helvetica,sans-Serif" font-size="10.00">/JsonCompiler.cpp</text>
</a>
</g>
</g>
<!-- Node7&#45;&gt;Node8 -->
<g id="edge7_Node000007_Node000008" class="edge">
<title>Node7&#45;&gt;Node8</title>
<g id="a_edge7_Node000007_Node000008"><a xlink:title=" ">
<path fill="none" stroke="#63b8ff" d="M403.25,-66C403.25,-57.96 403.25,-49.54 403.25,-42.23"/>
<polygon fill="#63b8ff" stroke="#63b8ff" points="399.75,-65.81 403.25,-75.81 406.75,-65.81 399.75,-65.81"/>
</a>
</g>
</g>
<!-- Node9 -->
<g id="Node000009" class="node">
<title>Node9</title>
<g id="a_Node000009"><a xlink:href="../../d0/d46/arkscript_2main_8cpp.html" target="_top" xlink:title=" ">
<polygon fill="white" stroke="#666666" points="623.5,-41.75 489,-41.75 489,0 623.5,0 623.5,-41.75"/>
<text text-anchor="start" x="497" y="-28.25" font-family="Helvetica,sans-Serif" font-size="10.00">/Users/fola/Documents</text>
<text text-anchor="start" x="497" y="-17" font-family="Helvetica,sans-Serif" font-size="10.00">/ArkScript/Ark/src/arkscript</text>
<text text-anchor="middle" x="556.25" y="-5.75" font-family="Helvetica,sans-Serif" font-size="10.00">/main.cpp</text>
</a>
</g>
</g>
<!-- Node7&#45;&gt;Node9 -->
<g id="edge8_Node000007_Node000009" class="edge">
<title>Node7&#45;&gt;Node9</title>
<g id="a_edge8_Node000007_Node000009"><a xlink:title=" ">
<path fill="none" stroke="#63b8ff" d="M454.33,-72.34C474.1,-62.55 496.43,-51.49 515.14,-42.23"/>
<polygon fill="#63b8ff" stroke="#63b8ff" points="453.02,-69.08 445.61,-76.65 456.12,-75.35 453.02,-69.08"/>
</a>
</g>
</g>
</g>
</svg>
