<?xml version="1.0" encoding="UTF-8" standalone="no"?>
<!DOCTYPE svg PUBLIC "-//W3C//DTD SVG 1.1//EN"
 "http://www.w3.org/Graphics/SVG/1.1/DTD/svg11.dtd">
<!-- Generated by graphviz version 12.2.0 (20241103.1931)
 -->
<!-- Title: /Users/fola/Documents/ArkScript/Ark/include/Ark/Utils/Logger.hpp Pages: 1 -->
<svg width="615pt" height="105pt"
 viewBox="0.00 0.00 614.62 105.00" xmlns="http://www.w3.org/2000/svg" xmlns:xlink="http://www.w3.org/1999/xlink">
<g id="graph0" class="graph" transform="scale(1 1) rotate(0) translate(4 101)">
<title>/Users/fola/Documents/ArkScript/Ark/include/Ark/Utils/Logger.hpp</title>
<!-- Node1 -->
<g id="Node000001" class="node">
<title>Node1</title>
<g id="a_Node000001"><a xlink:title="Internal logger.">
<polygon fill="#999999" stroke="#666666" points="339.38,-97 222.12,-97 222.12,-55.25 339.38,-55.25 339.38,-97"/>
<text text-anchor="start" x="230.12" y="-83.5" font-family="Helvetica,sans-Serif" font-size="10.00">/Users/fola/Documents</text>
<text text-anchor="start" x="230.12" y="-72.25" font-family="Helvetica,sans-Serif" font-size="10.00">/ArkScript/Ark/include</text>
<text text-anchor="middle" x="280.75" y="-61" font-family="Helvetica,sans-Serif" font-size="10.00">/Ark/Utils/Logger.hpp</text>
</a>
</g>
</g>
<!-- Node2 -->
<g id="Node000002" class="node">
<title>Node2</title>
<g id="a_Node000002"><a xlink:title=" ">
<polygon fill="#e0e0e0" stroke="#999999" points="53.5,-19.25 0,-19.25 0,0 53.5,0 53.5,-19.25"/>
<text text-anchor="middle" x="26.75" y="-5.75" font-family="Helvetica,sans-Serif" font-size="10.00">iostream</text>
</a>
</g>
</g>
<!-- Node1&#45;&gt;Node2 -->
<g id="edge1_Node000001_Node000002" class="edge">
<title>Node1&#45;&gt;Node2</title>
<g id="a_edge1_Node000001_Node000002"><a xlink:title=" ">
<path fill="none" stroke="#63b8ff" d="M221.84,-60.17C173.48,-47.89 106.42,-30.86 64.85,-20.3"/>
<polygon fill="#63b8ff" stroke="#63b8ff" points="65.86,-16.95 55.31,-17.88 64.14,-23.73 65.86,-16.95"/>
</a>
</g>
</g>
<!-- Node3 -->
<g id="Node000003" class="node">
<title>Node3</title>
<g id="a_Node000003"><a xlink:title=" ">
<polygon fill="#e0e0e0" stroke="#999999" points="140.38,-19.25 71.12,-19.25 71.12,0 140.38,0 140.38,-19.25"/>
<text text-anchor="middle" x="105.75" y="-5.75" font-family="Helvetica,sans-Serif" font-size="10.00">fmt/format.h</text>
</a>
</g>
</g>
<!-- Node1&#45;&gt;Node3 -->
<g id="edge2_Node000001_Node000003" class="edge">
<title>Node1&#45;&gt;Node3</title>
<g id="a_edge2_Node000001_Node000003"><a xlink:title=" ">
<path fill="none" stroke="#63b8ff" d="M225.86,-54.89C198.04,-44.64 165.1,-32.5 140.75,-23.53"/>
<polygon fill="#63b8ff" stroke="#63b8ff" points="142.23,-20.34 131.64,-20.17 139.81,-26.91 142.23,-20.34"/>
</a>
</g>
</g>
<!-- Node4 -->
<g id="Node000004" class="node">
<title>Node4</title>
<g id="a_Node000004"><a xlink:title=" ">
<polygon fill="#e0e0e0" stroke="#999999" points="198.75,-19.25 158.75,-19.25 158.75,0 198.75,0 198.75,-19.25"/>
<text text-anchor="middle" x="178.75" y="-5.75" font-family="Helvetica,sans-Serif" font-size="10.00">string</text>
</a>
</g>
</g>
<!-- Node1&#45;&gt;Node4 -->
<g id="edge3_Node000001_Node000004" class="edge">
<title>Node1&#45;&gt;Node4</title>
<g id="a_edge3_Node000001_Node000004"><a xlink:title=" ">
<path fill="none" stroke="#63b8ff" d="M248.76,-54.89C233.86,-45.47 216.43,-34.46 202.7,-25.77"/>
<polygon fill="#63b8ff" stroke="#63b8ff" points="204.61,-22.84 194.29,-20.45 200.87,-28.76 204.61,-22.84"/>
</a>
</g>
</g>
<!-- Node5 -->
<g id="Node000005" class="node">
<title>Node5</title>
<g id="a_Node000005"><a xlink:title=" ">
<polygon fill="#e0e0e0" stroke="#999999" points="262.38,-19.25 217.12,-19.25 217.12,0 262.38,0 262.38,-19.25"/>
<text text-anchor="middle" x="239.75" y="-5.75" font-family="Helvetica,sans-Serif" font-size="10.00">chrono</text>
</a>
</g>
</g>
<!-- Node1&#45;&gt;Node5 -->
<g id="edge4_Node000001_Node000005" class="edge">
<title>Node1&#45;&gt;Node5</title>
<g id="a_edge4_Node000001_Node000005"><a xlink:title=" ">
<path fill="none" stroke="#63b8ff" d="M268,-55.07C262.77,-46.84 256.75,-37.37 251.62,-29.29"/>
<polygon fill="#63b8ff" stroke="#63b8ff" points="254.65,-27.53 246.33,-20.97 248.74,-31.29 254.65,-27.53"/>
</a>
</g>
</g>
<!-- Node6 -->
<g id="Node000006" class="node">
<title>Node6</title>
<g id="a_Node000006"><a xlink:title=" ">
<polygon fill="#e0e0e0" stroke="#999999" points="364.88,-19.25 280.62,-19.25 280.62,0 364.88,0 364.88,-19.25"/>
<text text-anchor="middle" x="322.75" y="-5.75" font-family="Helvetica,sans-Serif" font-size="10.00">source_location</text>
</a>
</g>
</g>
<!-- Node1&#45;&gt;Node6 -->
<g id="edge5_Node000001_Node000006" class="edge">
<title>Node1&#45;&gt;Node6</title>
<g id="a_edge5_Node000001_Node000006"><a xlink:title=" ">
<path fill="none" stroke="#63b8ff" d="M293.81,-55.07C299.17,-46.84 305.33,-37.37 310.59,-29.29"/>
<polygon fill="#63b8ff" stroke="#63b8ff" points="313.49,-31.25 316.02,-20.96 307.63,-27.43 313.49,-31.25"/>
</a>
</g>
</g>
<!-- Node7 -->
<g id="Node000007" class="node">
<title>Node7</title>
<g id="a_Node000007"><a xlink:title=" ">
<polygon fill="#e0e0e0" stroke="#999999" points="426.25,-19.25 383.25,-19.25 383.25,0 426.25,0 426.25,-19.25"/>
<text text-anchor="middle" x="404.75" y="-5.75" font-family="Helvetica,sans-Serif" font-size="10.00">vector</text>
</a>
</g>
</g>
<!-- Node1&#45;&gt;Node7 -->
<g id="edge6_Node000001_Node000007" class="edge">
<title>Node1&#45;&gt;Node7</title>
<g id="a_edge6_Node000001_Node000007"><a xlink:title=" ">
<path fill="none" stroke="#63b8ff" d="M319.64,-54.89C338.47,-45.1 360.6,-33.59 377.58,-24.76"/>
<polygon fill="#63b8ff" stroke="#63b8ff" points="378.81,-28.06 386.07,-20.34 375.58,-21.85 378.81,-28.06"/>
</a>
</g>
</g>
<!-- Node8 -->
<g id="Node000008" class="node">
<title>Node8</title>
<g id="a_Node000008"><a xlink:title=" ">
<polygon fill="#e0e0e0" stroke="#999999" points="527.12,-19.25 444.38,-19.25 444.38,0 527.12,0 527.12,-19.25"/>
<text text-anchor="middle" x="485.75" y="-5.75" font-family="Helvetica,sans-Serif" font-size="10.00">unordered_map</text>
</a>
</g>
</g>
<!-- Node1&#45;&gt;Node8 -->
<g id="edge7_Node000001_Node000008" class="edge">
<title>Node1&#45;&gt;Node8</title>
<g id="a_edge7_Node000001_Node000008"><a xlink:title=" ">
<path fill="none" stroke="#63b8ff" d="M339.77,-56.56C373.86,-45.83 415.82,-32.63 445.99,-23.13"/>
<polygon fill="#63b8ff" stroke="#63b8ff" points="447.01,-26.48 455.5,-20.14 444.91,-19.81 447.01,-26.48"/>
</a>
</g>
</g>
<!-- Node9 -->
<g id="Node000009" class="node">
<title>Node9</title>
<g id="a_Node000009"><a xlink:title=" ">
<polygon fill="#e0e0e0" stroke="#999999" points="606.62,-19.25 544.88,-19.25 544.88,0 606.62,0 606.62,-19.25"/>
<text text-anchor="middle" x="575.75" y="-5.75" font-family="Helvetica,sans-Serif" font-size="10.00">fmt/color.h</text>
</a>
</g>
</g>
<!-- Node1&#45;&gt;Node9 -->
<g id="edge8_Node000001_Node000009" class="edge">
<title>Node1&#45;&gt;Node9</title>
<g id="a_edge8_Node000001_Node000009"><a xlink:title=" ">
<path fill="none" stroke="#63b8ff" d="M339.74,-62.23C396.99,-49.71 482.46,-31.02 533.31,-19.9"/>
<polygon fill="#63b8ff" stroke="#63b8ff" points="534.03,-23.33 543.05,-17.77 532.54,-16.49 534.03,-23.33"/>
</a>
</g>
</g>
</g>
</svg>
