<?xml version="1.0" encoding="UTF-8" standalone="no"?>
<!DOCTYPE svg PUBLIC "-//W3C//DTD SVG 1.1//EN"
 "http://www.w3.org/Graphics/SVG/1.1/DTD/svg11.dtd">
<!-- Generated by graphviz version 12.2.0 (20241103.1931)
 -->
<!-- Title: /Users/fola/Documents/ArkScript/Ark/include/Ark/Compiler/IntermediateRepresentation/IRCompiler.hpp Pages: 1 -->
<!--zoomable 360 -->

<svg id="main" version="1.1" xmlns="http://www.w3.org/2000/svg" xmlns:xlink="http://www.w3.org/1999/xlink" xml:space="preserve" onload="init(evt)">

<style type="text/css"><![CDATA[
.node, .edge {opacity: 0.7;}
.node.selected, .edge.selected {opacity: 1;}
.edge:hover path { stroke: red; }
.edge:hover polygon { stroke: red; fill: red; }
]]></style>

<defs>
  <circle id="rim" cx="0" cy="0" r="7"/>
  <circle id="rim2" cx="0" cy="0" r="3.5"/>
  <g id="zoomPlus">
    <use xlink:href="#rim" fill="#404040"><set attributeName="fill" to="#808080" begin="zoomplus.mouseover" end="zoomplus.mouseout"/></use>
    <path d="M-4,0h8M0,-4v8" fill="none" stroke="white" stroke-width="1.5" pointer-events="none"/>
  </g>
  <g id="zoomMin">
    <use xlink:href="#rim" fill="#404040"><set attributeName="fill" to="#808080" begin="zoomminus.mouseover" end="zoomminus.mouseout"/></use>
    <path d="M-4,0h8" fill="none" stroke="white" stroke-width="1.5" pointer-events="none"/>
  </g>
  <g id="arrowUp" transform="translate(30 24)">
    <use xlink:href="#rim"/>
    <path pointer-events="none" fill="none" stroke="white" stroke-width="1.5" d="M0,-3.0v7 M-2.5,-0.5L0,-3.0L2.5,-0.5"/>
  </g>
  <g id="arrowRight" transform="rotate(90) translate(36 -43)">
    <use xlink:href="#rim"/>
    <path pointer-events="none" fill="none" stroke="white" stroke-width="1.5" d="M0,-3.0v7 M-2.5,-0.5L0,-3.0L2.5,-0.5"/>
  </g>
  <g id="arrowDown" transform="rotate(180) translate(-30 -48)">
    <use xlink:href="#rim"/>
    <path pointer-events="none" fill="none" stroke="white" stroke-width="1.5" d="M0,-3.0v7 M-2.5,-0.5L0,-3.0L2.5,-0.5"/>
  </g>
  <g id="arrowLeft" transform="rotate(270) translate(-36 17)">
    <use xlink:href="#rim"/>
    <path pointer-events="none" fill="none" stroke="white" stroke-width="1.5" d="M0,-3.0v7 M-2.5,-0.5L0,-3.0L2.5,-0.5"/>
  </g>
  <g id="resetDef">
    <use xlink:href="#rim2" fill="#404040"><set attributeName="fill" to="#808080" begin="reset.mouseover" end="reset.mouseout"/></use>
  </g>
</defs>
<script type="application/ecmascript">
var viewWidth = 1622;
var viewHeight = 360;
var sectionId = 'dynsection-0';
</script>
<script type="application/ecmascript" xlink:href="../../svg.min.js"/>
<svg id="graph" class="graph">
<g id="viewport">
<title>/Users/fola/Documents/ArkScript/Ark/include/Ark/Compiler/IntermediateRepresentation/IRCompiler.hpp</title>
<!-- Node1 -->
<g id="Node000001" class="node">
<title>Node1</title>
<g id="a_Node000001"><a xlink:title="Compile the intermediate representation to bytecode.">
<polygon fill="#999999" stroke="#666666" points="932.12,-351.75 733.12,-351.75 733.12,-298.75 932.12,-298.75 932.12,-351.75"/>
<text text-anchor="start" x="741.12" y="-338.25" font-family="Helvetica,sans-Serif" font-size="10.00">/Users/fola/Documents</text>
<text text-anchor="start" x="741.12" y="-327" font-family="Helvetica,sans-Serif" font-size="10.00">/ArkScript/Ark/include</text>
<text text-anchor="start" x="741.12" y="-315.75" font-family="Helvetica,sans-Serif" font-size="10.00">/Ark/Compiler/IntermediateRepresentation</text>
<text text-anchor="middle" x="832.62" y="-304.5" font-family="Helvetica,sans-Serif" font-size="10.00">/IRCompiler.hpp</text>
</a>
</g>
</g>
<!-- Node2 -->
<g id="Node000002" class="node">
<title>Node2</title>
<g id="a_Node000002"><a xlink:title=" ">
<polygon fill="#e0e0e0" stroke="#999999" points="957.12,-80.12 914.12,-80.12 914.12,-60.88 957.12,-60.88 957.12,-80.12"/>
<text text-anchor="middle" x="935.62" y="-66.62" font-family="Helvetica,sans-Serif" font-size="10.00">vector</text>
</a>
</g>
</g>
<!-- Node1&#45;&gt;Node2 -->
<g id="edge1_Node000001_Node000002" class="edge">
<title>Node1&#45;&gt;Node2</title>
<g id="a_edge1_Node000001_Node000002"><a xlink:title=" ">
<path fill="none" stroke="#63b8ff" d="M843.02,-298.32C858.5,-259.76 888.58,-185.06 914.62,-121.75 918.82,-111.54 923.56,-100.2 927.47,-90.87"/>
<polygon fill="#63b8ff" stroke="#63b8ff" points="930.64,-92.35 931.29,-81.78 924.19,-89.64 930.64,-92.35"/>
</a>
</g>
</g>
<!-- Node3 -->
<g id="Node000003" class="node">
<title>Node3</title>
<g id="a_Node000003"><a xlink:title=" ">
<polygon fill="#e0e0e0" stroke="#999999" points="895.62,-80.12 855.62,-80.12 855.62,-60.88 895.62,-60.88 895.62,-80.12"/>
<text text-anchor="middle" x="875.62" y="-66.62" font-family="Helvetica,sans-Serif" font-size="10.00">string</text>
</a>
</g>
</g>
<!-- Node1&#45;&gt;Node3 -->
<g id="edge2_Node000001_Node000003" class="edge">
<title>Node1&#45;&gt;Node3</title>
<g id="a_edge2_Node000001_Node000003"><a xlink:title=" ">
<path fill="none" stroke="#63b8ff" d="M824.98,-298.37C817.97,-270.77 809.91,-225.95 818.62,-188.25 827.22,-151.04 849.38,-111.99 863.4,-89.8"/>
<polygon fill="#63b8ff" stroke="#63b8ff" points="866.2,-91.91 868.71,-81.62 860.33,-88.1 866.2,-91.91"/>
</a>
</g>
</g>
<!-- Node4 -->
<g id="Node000004" class="node">
<title>Node4</title>
<g id="a_Node000004"><a xlink:href="../../d5/d40/Platform_8hpp.html" target="_top" xlink:title="ArkScript configuration macros.">
<polygon fill="white" stroke="#666666" points="1482,-80.12 1369.25,-80.12 1369.25,-60.88 1482,-60.88 1482,-80.12"/>
<text text-anchor="middle" x="1425.62" y="-66.62" font-family="Helvetica,sans-Serif" font-size="10.00">Ark/Utils/Platform.hpp</text>
</a>
</g>
</g>
<!-- Node1&#45;&gt;Node4 -->
<g id="edge3_Node000001_Node000004" class="edge">
<title>Node1&#45;&gt;Node4</title>
<g id="a_edge3_Node000001_Node000004"><a xlink:title=" ">
<path fill="none" stroke="#63b8ff" d="M932.6,-317.8C1123.47,-303.1 1527.95,-259.71 1607.62,-152.25 1615.7,-141.36 1615.84,-132.54 1607.62,-121.75 1603.46,-116.28 1526.66,-96.42 1474.17,-83.36"/>
<polygon fill="#63b8ff" stroke="#63b8ff" points="1475.06,-79.98 1464.51,-80.97 1473.38,-86.77 1475.06,-79.98"/>
</a>
</g>
</g>
<!-- Node5 -->
<g id="Node000005" class="node">
<title>Node5</title>
<g id="a_Node000005"><a xlink:href="../../d9/d11/Logger_8hpp.html" target="_top" xlink:title="Internal logger.">
<polygon fill="white" stroke="#666666" points="425.88,-146.62 321.38,-146.62 321.38,-127.38 425.88,-127.38 425.88,-146.62"/>
<text text-anchor="middle" x="373.62" y="-133.12" font-family="Helvetica,sans-Serif" font-size="10.00">Ark/Utils/Logger.hpp</text>
</a>
</g>
</g>
<!-- Node1&#45;&gt;Node5 -->
<g id="edge4_Node000001_Node000005" class="edge">
<title>Node1&#45;&gt;Node5</title>
<g id="a_edge4_Node000001_Node000005"><a xlink:title=" ">
<path fill="none" stroke="#63b8ff" d="M768.8,-298.35C669.49,-258.05 481.55,-181.79 406.14,-151.19"/>
<polygon fill="#63b8ff" stroke="#63b8ff" points="407.84,-148.1 397.25,-147.59 405.2,-154.59 407.84,-148.1"/>
</a>
</g>
</g>
<!-- Node12 -->
<g id="Node000012" class="node">
<title>Node12</title>
<g id="a_Node000012"><a xlink:href="../../d8/ddd/Common_8hpp.html" target="_top" xlink:title="Common code for the compiler.">
<polygon fill="white" stroke="#666666" points="1258.88,-146.62 1124.38,-146.62 1124.38,-127.38 1258.88,-127.38 1258.88,-146.62"/>
<text text-anchor="middle" x="1191.62" y="-133.12" font-family="Helvetica,sans-Serif" font-size="10.00">Ark/Compiler/Common.hpp</text>
</a>
</g>
</g>
<!-- Node1&#45;&gt;Node12 -->
<g id="edge13_Node000001_Node000012" class="edge">
<title>Node1&#45;&gt;Node12</title>
<g id="a_edge13_Node000001_Node000012"><a xlink:title=" ">
<path fill="none" stroke="#63b8ff" d="M882.54,-298.35C959.42,-258.47 1104.21,-183.35 1164.36,-152.15"/>
<polygon fill="#63b8ff" stroke="#63b8ff" points="1165.63,-155.43 1172.9,-147.72 1162.41,-149.21 1165.63,-155.43"/>
</a>
</g>
</g>
<!-- Node19 -->
<g id="Node000019" class="node">
<title>Node19</title>
<g id="a_Node000019"><a xlink:href="../../dd/de7/ValTableElem_8hpp.html" target="_top" xlink:title="The basic value type handled by the compiler.">
<polygon fill="white" stroke="#666666" points="1234.62,-262.75 1080.62,-262.75 1080.62,-243.5 1234.62,-243.5 1234.62,-262.75"/>
<text text-anchor="middle" x="1157.62" y="-249.25" font-family="Helvetica,sans-Serif" font-size="10.00">Ark/Compiler/ValTableElem.hpp</text>
</a>
</g>
</g>
<!-- Node1&#45;&gt;Node19 -->
<g id="edge23_Node000001_Node000019" class="edge">
<title>Node1&#45;&gt;Node19</title>
<g id="a_edge23_Node000001_Node000019"><a xlink:title=" ">
<path fill="none" stroke="#63b8ff" d="M932.34,-302.73C989.06,-290.5 1057.83,-275.66 1104.35,-265.62"/>
<polygon fill="#63b8ff" stroke="#63b8ff" points="1104.87,-269.09 1113.91,-263.56 1103.39,-262.25 1104.87,-269.09"/>
</a>
</g>
</g>
<!-- Node27 -->
<g id="Node000027" class="node">
<title>Node27</title>
<g id="a_Node000027"><a xlink:href="../../de/da6/Entity_8hpp.html" target="_top" xlink:title="An entity in the IR is a bundle of information.">
<polygon fill="white" stroke="#666666" points="728.62,-152.25 598.62,-152.25 598.62,-121.75 728.62,-121.75 728.62,-152.25"/>
<text text-anchor="start" x="606.62" y="-138.75" font-family="Helvetica,sans-Serif" font-size="10.00">Ark/Compiler/Intermediate</text>
<text text-anchor="middle" x="663.62" y="-127.5" font-family="Helvetica,sans-Serif" font-size="10.00">Representation/Entity.hpp</text>
</a>
</g>
</g>
<!-- Node1&#45;&gt;Node27 -->
<g id="edge41_Node000001_Node000027" class="edge">
<title>Node1&#45;&gt;Node27</title>
<g id="a_edge41_Node000001_Node000027"><a xlink:title=" ">
<path fill="none" stroke="#63b8ff" d="M787.28,-298.44C772.05,-288.48 755.64,-276.23 742.62,-262.75 713.2,-232.28 688.85,-189.17 675.28,-162.43"/>
<polygon fill="#63b8ff" stroke="#63b8ff" points="678.55,-161.15 670.97,-153.75 672.28,-164.26 678.55,-161.15"/>
</a>
</g>
</g>
<!-- Node5&#45;&gt;Node2 -->
<g id="edge10_Node000005_Node000002" class="edge">
<title>Node5&#45;&gt;Node2</title>
<g id="a_edge10_Node000005_Node000002"><a xlink:title=" ">
<path fill="none" stroke="#63b8ff" d="M426.18,-132.03C551.18,-122.46 859.19,-97.96 904.62,-85.75 905.8,-85.43 906.98,-85.08 908.17,-84.69"/>
<polygon fill="#63b8ff" stroke="#63b8ff" points="909.21,-88.04 917.22,-81.11 906.64,-81.53 909.21,-88.04"/>
</a>
</g>
</g>
<!-- Node5&#45;&gt;Node3 -->
<g id="edge7_Node000005_Node000003" class="edge">
<title>Node5&#45;&gt;Node3</title>
<g id="a_edge7_Node000005_Node000003"><a xlink:title=" ">
<path fill="none" stroke="#63b8ff" d="M426.17,-132.74C532.31,-125.78 768.78,-108.24 846.62,-85.75 847.59,-85.47 848.57,-85.16 849.54,-84.83"/>
<polygon fill="#63b8ff" stroke="#63b8ff" points="850.51,-88.21 858.37,-81.12 847.8,-81.76 850.51,-88.21"/>
</a>
</g>
</g>
<!-- Node6 -->
<g id="Node000006" class="node">
<title>Node6</title>
<g id="a_Node000006"><a xlink:title=" ">
<polygon fill="#e0e0e0" stroke="#999999" points="400.38,-80.12 346.88,-80.12 346.88,-60.88 400.38,-60.88 400.38,-80.12"/>
<text text-anchor="middle" x="373.62" y="-66.62" font-family="Helvetica,sans-Serif" font-size="10.00">iostream</text>
</a>
</g>
</g>
<!-- Node5&#45;&gt;Node6 -->
<g id="edge5_Node000005_Node000006" class="edge">
<title>Node5&#45;&gt;Node6</title>
<g id="a_edge5_Node000005_Node000006"><a xlink:title=" ">
<path fill="none" stroke="#63b8ff" d="M373.62,-127.03C373.62,-117.98 373.62,-103.7 373.62,-91.88"/>
<polygon fill="#63b8ff" stroke="#63b8ff" points="377.13,-91.91 373.63,-81.91 370.13,-91.91 377.13,-91.91"/>
</a>
</g>
</g>
<!-- Node7 -->
<g id="Node000007" class="node">
<title>Node7</title>
<g id="a_Node000007"><a xlink:title=" ">
<polygon fill="#e0e0e0" stroke="#999999" points="487.25,-80.12 418,-80.12 418,-60.88 487.25,-60.88 487.25,-80.12"/>
<text text-anchor="middle" x="452.62" y="-66.62" font-family="Helvetica,sans-Serif" font-size="10.00">fmt/format.h</text>
</a>
</g>
</g>
<!-- Node5&#45;&gt;Node7 -->
<g id="edge6_Node000005_Node000007" class="edge">
<title>Node5&#45;&gt;Node7</title>
<g id="a_edge6_Node000005_Node000007"><a xlink:title=" ">
<path fill="none" stroke="#63b8ff" d="M384.61,-127.03C397.04,-116.88 417.53,-100.15 432.78,-87.7"/>
<polygon fill="#63b8ff" stroke="#63b8ff" points="434.77,-90.59 440.31,-81.56 430.35,-85.17 434.77,-90.59"/>
</a>
</g>
</g>
<!-- Node8 -->
<g id="Node000008" class="node">
<title>Node8</title>
<g id="a_Node000008"><a xlink:title=" ">
<polygon fill="#e0e0e0" stroke="#999999" points="45.25,-80.12 0,-80.12 0,-60.88 45.25,-60.88 45.25,-80.12"/>
<text text-anchor="middle" x="22.62" y="-66.62" font-family="Helvetica,sans-Serif" font-size="10.00">chrono</text>
</a>
</g>
</g>
<!-- Node5&#45;&gt;Node8 -->
<g id="edge8_Node000005_Node000008" class="edge">
<title>Node5&#45;&gt;Node8</title>
<g id="a_edge8_Node000005_Node000008"><a xlink:title=" ">
<path fill="none" stroke="#63b8ff" d="M321.04,-131.98C257.03,-126.11 146.16,-112.82 54.62,-85.75 53.46,-85.41 52.28,-85.03 51.1,-84.62"/>
<polygon fill="#63b8ff" stroke="#63b8ff" points="52.58,-81.45 42,-81.04 50.02,-87.96 52.58,-81.45"/>
</a>
</g>
</g>
<!-- Node9 -->
<g id="Node000009" class="node">
<title>Node9</title>
<g id="a_Node000009"><a xlink:title=" ">
<polygon fill="#e0e0e0" stroke="#999999" points="147.75,-80.12 63.5,-80.12 63.5,-60.88 147.75,-60.88 147.75,-80.12"/>
<text text-anchor="middle" x="105.62" y="-66.62" font-family="Helvetica,sans-Serif" font-size="10.00">source_location</text>
</a>
</g>
</g>
<!-- Node5&#45;&gt;Node9 -->
<g id="edge9_Node000005_Node000009" class="edge">
<title>Node5&#45;&gt;Node9</title>
<g id="a_edge9_Node000005_Node000009"><a xlink:title=" ">
<path fill="none" stroke="#63b8ff" d="M332.5,-126.93C288.96,-117.22 218.28,-101.11 157.62,-85.75 154.85,-85.05 151.99,-84.31 149.11,-83.55"/>
<polygon fill="#63b8ff" stroke="#63b8ff" points="150.05,-80.18 139.49,-80.98 148.25,-86.94 150.05,-80.18"/>
</a>
</g>
</g>
<!-- Node10 -->
<g id="Node000010" class="node">
<title>Node10</title>
<g id="a_Node000010"><a xlink:title=" ">
<polygon fill="#e0e0e0" stroke="#999999" points="249,-80.12 166.25,-80.12 166.25,-60.88 249,-60.88 249,-80.12"/>
<text text-anchor="middle" x="207.62" y="-66.62" font-family="Helvetica,sans-Serif" font-size="10.00">unordered_map</text>
</a>
</g>
</g>
<!-- Node5&#45;&gt;Node10 -->
<g id="edge11_Node000005_Node000010" class="edge">
<title>Node5&#45;&gt;Node10</title>
<g id="a_edge11_Node000005_Node000010"><a xlink:title=" ">
<path fill="none" stroke="#63b8ff" d="M350.19,-126.9C321.77,-115.85 273.65,-97.15 241.26,-84.57"/>
<polygon fill="#63b8ff" stroke="#63b8ff" points="242.94,-81.47 232.35,-81.11 240.4,-87.99 242.94,-81.47"/>
</a>
</g>
</g>
<!-- Node11 -->
<g id="Node000011" class="node">
<title>Node11</title>
<g id="a_Node000011"><a xlink:title=" ">
<polygon fill="#e0e0e0" stroke="#999999" points="328.5,-80.12 266.75,-80.12 266.75,-60.88 328.5,-60.88 328.5,-80.12"/>
<text text-anchor="middle" x="297.62" y="-66.62" font-family="Helvetica,sans-Serif" font-size="10.00">fmt/color.h</text>
</a>
</g>
</g>
<!-- Node5&#45;&gt;Node11 -->
<g id="edge12_Node000005_Node000011" class="edge">
<title>Node5&#45;&gt;Node11</title>
<g id="a_edge12_Node000005_Node000011"><a xlink:title=" ">
<path fill="none" stroke="#63b8ff" d="M363.06,-127.03C351.03,-116.83 331.16,-99.96 316.47,-87.49"/>
<polygon fill="#63b8ff" stroke="#63b8ff" points="319.15,-85.17 309.26,-81.37 314.62,-90.51 319.15,-85.17"/>
</a>
</g>
</g>
<!-- Node12&#45;&gt;Node2 -->
<g id="edge16_Node000012_Node000002" class="edge">
<title>Node12&#45;&gt;Node2</title>
<g id="a_edge16_Node000012_Node000002"><a xlink:title=" ">
<path fill="none" stroke="#63b8ff" d="M1146.8,-126.96C1103.06,-117.8 1034.8,-102.61 976.62,-85.75 973.9,-84.96 971.09,-84.1 968.28,-83.19"/>
<polygon fill="#63b8ff" stroke="#63b8ff" points="969.65,-79.96 959.05,-80.1 967.42,-86.6 969.65,-79.96"/>
</a>
</g>
</g>
<!-- Node13 -->
<g id="Node000013" class="node">
<title>Node13</title>
<g id="a_Node000013"><a xlink:title=" ">
<polygon fill="#e0e0e0" stroke="#999999" points="929.5,-19.25 891.75,-19.25 891.75,0 929.5,0 929.5,-19.25"/>
<text text-anchor="middle" x="910.62" y="-5.75" font-family="Helvetica,sans-Serif" font-size="10.00">array</text>
</a>
</g>
</g>
<!-- Node12&#45;&gt;Node13 -->
<g id="edge14_Node000012_Node000013" class="edge">
<title>Node12&#45;&gt;Node13</title>
<g id="a_edge14_Node000012_Node000013"><a xlink:title=" ">
<path fill="none" stroke="#63b8ff" d="M1179.14,-126.91C1150.51,-106.07 1082.36,-56.54 1079.62,-55.25 1033.85,-33.62 975.97,-21.23 941.19,-15.22"/>
<polygon fill="#63b8ff" stroke="#63b8ff" points="941.85,-11.78 931.41,-13.61 940.7,-18.69 941.85,-11.78"/>
</a>
</g>
</g>
<!-- Node14 -->
<g id="Node000014" class="node">
<title>Node14</title>
<g id="a_Node000014"><a xlink:title=" ">
<polygon fill="#e0e0e0" stroke="#999999" points="1288.38,-19.25 1222.88,-19.25 1222.88,0 1288.38,0 1288.38,-19.25"/>
<text text-anchor="middle" x="1255.62" y="-5.75" font-family="Helvetica,sans-Serif" font-size="10.00">string_view</text>
</a>
</g>
</g>
<!-- Node12&#45;&gt;Node14 -->
<g id="edge15_Node000012_Node000014" class="edge">
<title>Node12&#45;&gt;Node14</title>
<g id="a_edge15_Node000012_Node000014"><a xlink:title=" ">
<path fill="none" stroke="#63b8ff" d="M1203.13,-126.88C1213.96,-117.66 1229.79,-102.43 1238.62,-85.75 1247.81,-68.41 1252.05,-46.26 1254,-30.51"/>
<polygon fill="#63b8ff" stroke="#63b8ff" points="1257.44,-31.28 1254.97,-20.98 1250.48,-30.58 1257.44,-31.28"/>
</a>
</g>
</g>
<!-- Node15 -->
<g id="Node000015" class="node">
<title>Node15</title>
<g id="a_Node000015"><a xlink:title=" ">
<polygon fill="#e0e0e0" stroke="#999999" points="855.5,-19.25 799.75,-19.25 799.75,0 855.5,0 855.5,-19.25"/>
<text text-anchor="middle" x="827.62" y="-5.75" font-family="Helvetica,sans-Serif" font-size="10.00">cinttypes</text>
</a>
</g>
</g>
<!-- Node12&#45;&gt;Node15 -->
<g id="edge17_Node000012_Node000015" class="edge">
<title>Node12&#45;&gt;Node15</title>
<g id="a_edge17_Node000012_Node000015"><a xlink:title=" ">
<path fill="none" stroke="#63b8ff" d="M1165.49,-127.04C1141.98,-118.35 1107.01,-103.84 1079.62,-85.75 1062.96,-74.74 1064.4,-64.36 1046.62,-55.25 1030.8,-47.14 925.38,-27.77 866.77,-17.42"/>
<polygon fill="#63b8ff" stroke="#63b8ff" points="867.66,-14.02 857.2,-15.74 866.44,-20.92 867.66,-14.02"/>
</a>
</g>
</g>
<!-- Node16 -->
<g id="Node000016" class="node">
<title>Node16</title>
<g id="a_Node000016"><a xlink:href="../../d6/de9/Constants_8hpp.html" target="_top" xlink:title="Constants used by ArkScript.">
<polygon fill="white" stroke="#666666" points="1229.5,-80.12 1131.75,-80.12 1131.75,-60.88 1229.5,-60.88 1229.5,-80.12"/>
<text text-anchor="middle" x="1180.62" y="-66.62" font-family="Helvetica,sans-Serif" font-size="10.00">Ark/Constants.hpp</text>
</a>
</g>
</g>
<!-- Node12&#45;&gt;Node16 -->
<g id="edge18_Node000012_Node000016" class="edge">
<title>Node12&#45;&gt;Node16</title>
<g id="a_edge18_Node000012_Node000016"><a xlink:title=" ">
<path fill="none" stroke="#63b8ff" d="M1190.1,-127.03C1188.54,-117.89 1186.06,-103.39 1184.04,-91.5"/>
<polygon fill="#63b8ff" stroke="#63b8ff" points="1187.53,-91.15 1182.4,-81.88 1180.63,-92.33 1187.53,-91.15"/>
</a>
</g>
</g>
<!-- Node16&#45;&gt;Node14 -->
<g id="edge19_Node000016_Node000014" class="edge">
<title>Node16&#45;&gt;Node14</title>
<g id="a_edge19_Node000016_Node000014"><a xlink:title=" ">
<path fill="none" stroke="#63b8ff" d="M1192.02,-60.56C1203.47,-51.57 1221.37,-37.51 1235.27,-26.6"/>
<polygon fill="#63b8ff" stroke="#63b8ff" points="1237.23,-29.51 1242.94,-20.59 1232.91,-24.01 1237.23,-29.51"/>
</a>
</g>
</g>
<!-- Node16&#45;&gt;Node15 -->
<g id="edge21_Node000016_Node000015" class="edge">
<title>Node16&#45;&gt;Node15</title>
<g id="a_edge21_Node000016_Node000015"><a xlink:title=" ">
<path fill="none" stroke="#63b8ff" d="M1131.54,-61.31C1060.92,-49.53 932.02,-28.04 867.14,-17.22"/>
<polygon fill="#63b8ff" stroke="#63b8ff" points="867.74,-13.77 857.3,-15.57 866.59,-20.67 867.74,-13.77"/>
</a>
</g>
</g>
<!-- Node17 -->
<g id="Node000017" class="node">
<title>Node17</title>
<g id="a_Node000017"><a xlink:title=" ">
<polygon fill="#e0e0e0" stroke="#999999" points="1202.25,-19.25 1163,-19.25 1163,0 1202.25,0 1202.25,-19.25"/>
<text text-anchor="middle" x="1182.62" y="-5.75" font-family="Helvetica,sans-Serif" font-size="10.00">limits</text>
</a>
</g>
</g>
<!-- Node16&#45;&gt;Node17 -->
<g id="edge20_Node000016_Node000017" class="edge">
<title>Node16&#45;&gt;Node17</title>
<g id="a_edge20_Node000016_Node000017"><a xlink:title=" ">
<path fill="none" stroke="#63b8ff" d="M1180.93,-60.56C1181.2,-52.69 1181.59,-40.95 1181.94,-30.82"/>
<polygon fill="#63b8ff" stroke="#63b8ff" points="1185.43,-31.28 1182.27,-21.16 1178.43,-31.04 1185.43,-31.28"/>
</a>
</g>
</g>
<!-- Node18 -->
<g id="Node000018" class="node">
<title>Node18</title>
<g id="a_Node000018"><a xlink:title=" ">
<polygon fill="#e0e0e0" stroke="#999999" points="1144.75,-19.25 1096.5,-19.25 1096.5,0 1144.75,0 1144.75,-19.25"/>
<text text-anchor="middle" x="1120.62" y="-5.75" font-family="Helvetica,sans-Serif" font-size="10.00">cstddef</text>
</a>
</g>
</g>
<!-- Node16&#45;&gt;Node18 -->
<g id="edge22_Node000016_Node000018" class="edge">
<title>Node16&#45;&gt;Node18</title>
<g id="a_edge22_Node000016_Node000018"><a xlink:title=" ">
<path fill="none" stroke="#63b8ff" d="M1171.51,-60.56C1162.61,-51.83 1148.85,-38.32 1137.88,-27.55"/>
<polygon fill="#63b8ff" stroke="#63b8ff" points="1140.49,-25.22 1130.9,-20.71 1135.59,-30.21 1140.49,-25.22"/>
</a>
</g>
</g>
<!-- Node19&#45;&gt;Node3 -->
<g id="edge25_Node000019_Node000003" class="edge">
<title>Node19&#45;&gt;Node3</title>
<g id="a_edge25_Node000019_Node000003"><a xlink:title=" ">
<path fill="none" stroke="#63b8ff" d="M1080.31,-245C1018.1,-234.94 933.56,-210.7 886.62,-152.25 873.01,-135.29 871.78,-109.59 872.97,-91.76"/>
<polygon fill="#63b8ff" stroke="#63b8ff" points="876.44,-92.21 873.97,-81.9 869.48,-91.5 876.44,-92.21"/>
</a>
</g>
</g>
<!-- Node20 -->
<g id="Node000020" class="node">
<title>Node20</title>
<g id="a_Node000020"><a xlink:title=" ">
<polygon fill="#e0e0e0" stroke="#999999" points="1598.25,-146.62 1553,-146.62 1553,-127.38 1598.25,-127.38 1598.25,-146.62"/>
<text text-anchor="middle" x="1575.62" y="-133.12" font-family="Helvetica,sans-Serif" font-size="10.00">variant</text>
</a>
</g>
</g>
<!-- Node19&#45;&gt;Node20 -->
<g id="edge24_Node000019_Node000020" class="edge">
<title>Node19&#45;&gt;Node20</title>
<g id="a_edge24_Node000019_Node000020"><a xlink:title=" ">
<path fill="none" stroke="#63b8ff" d="M1192.66,-243.02C1258.46,-225.84 1404.93,-187.24 1527.62,-152.25 1532.23,-150.94 1537.08,-149.53 1541.86,-148.13"/>
<polygon fill="#63b8ff" stroke="#63b8ff" points="1542.66,-151.54 1551.25,-145.34 1540.67,-144.83 1542.66,-151.54"/>
</a>
</g>
</g>
<!-- Node21 -->
<g id="Node000021" class="node">
<title>Node21</title>
<g id="a_Node000021"><a xlink:href="../../d7/dc6/Node_8hpp.html" target="_top" xlink:title="AST node used by the parser, optimizer and compiler.">
<polygon fill="white" stroke="#666666" points="1316.88,-207.5 1176.38,-207.5 1176.38,-188.25 1316.88,-188.25 1316.88,-207.5"/>
<text text-anchor="middle" x="1246.62" y="-194" font-family="Helvetica,sans-Serif" font-size="10.00">Ark/Compiler/AST/Node.hpp</text>
</a>
</g>
</g>
<!-- Node19&#45;&gt;Node21 -->
<g id="edge26_Node000019_Node000021" class="edge">
<title>Node19&#45;&gt;Node21</title>
<g id="a_edge26_Node000019_Node000021"><a xlink:title=" ">
<path fill="none" stroke="#63b8ff" d="M1172.72,-243.09C1186.15,-235.06 1206.04,-223.16 1221.8,-213.73"/>
<polygon fill="#63b8ff" stroke="#63b8ff" points="1223.37,-216.87 1230.15,-208.73 1219.78,-210.86 1223.37,-216.87"/>
</a>
</g>
</g>
<!-- Node21&#45;&gt;Node2 -->
<g id="edge30_Node000021_Node000002" class="edge">
<title>Node21&#45;&gt;Node2</title>
<g id="a_edge30_Node000021_Node000002"><a xlink:title=" ">
<path fill="none" stroke="#63b8ff" d="M1175.96,-197.33C1091.95,-196.18 959.14,-188.48 927.62,-152.25 913.14,-135.6 919.38,-109.08 926.41,-91.01"/>
<polygon fill="#63b8ff" stroke="#63b8ff" points="929.57,-92.51 930.32,-81.94 923.15,-89.73 929.57,-92.51"/>
</a>
</g>
</g>
<!-- Node21&#45;&gt;Node3 -->
<g id="edge29_Node000021_Node000003" class="edge">
<title>Node21&#45;&gt;Node3</title>
<g id="a_edge29_Node000021_Node000003"><a xlink:title=" ">
<path fill="none" stroke="#63b8ff" d="M1175.93,-195.1C1091.07,-191.66 955.12,-181.6 914.62,-152.25 894.76,-137.85 884.58,-110.59 879.68,-91.75"/>
<polygon fill="#63b8ff" stroke="#63b8ff" points="883.1,-91.01 877.46,-82.04 876.28,-92.56 883.1,-91.01"/>
</a>
</g>
</g>
<!-- Node21&#45;&gt;Node4 -->
<g id="edge37_Node000021_Node000004" class="edge">
<title>Node21&#45;&gt;Node4</title>
<g id="a_edge37_Node000021_Node000004"><a xlink:title=" ">
<path fill="none" stroke="#63b8ff" d="M1269.68,-187.75C1288.7,-179.73 1315.97,-167.04 1337.62,-152.25 1352.38,-142.17 1387.16,-109.05 1408.31,-88.49"/>
<polygon fill="#63b8ff" stroke="#63b8ff" points="1410.65,-91.1 1415.36,-81.61 1405.76,-86.09 1410.65,-91.1"/>
</a>
</g>
</g>
<!-- Node21&#45;&gt;Node12 -->
<g id="edge36_Node000021_Node000012" class="edge">
<title>Node21&#45;&gt;Node12</title>
<g id="a_edge36_Node000021_Node000012"><a xlink:title=" ">
<path fill="none" stroke="#63b8ff" d="M1238.27,-187.93C1230.2,-179.29 1217.75,-165.96 1207.74,-155.25"/>
<polygon fill="#63b8ff" stroke="#63b8ff" points="1210.47,-153.05 1201.09,-148.13 1205.36,-157.83 1210.47,-153.05"/>
</a>
</g>
</g>
<!-- Node21&#45;&gt;Node20 -->
<g id="edge27_Node000021_Node000020" class="edge">
<title>Node21&#45;&gt;Node20</title>
<g id="a_edge27_Node000021_Node000020"><a xlink:title=" ">
<path fill="none" stroke="#63b8ff" d="M1317.12,-190.42C1376.81,-183.93 1464.28,-172 1538.62,-152.25 1540.25,-151.82 1541.89,-151.34 1543.55,-150.83"/>
<polygon fill="#63b8ff" stroke="#63b8ff" points="1544.63,-154.16 1552.93,-147.58 1542.34,-147.55 1544.63,-154.16"/>
</a>
</g>
</g>
<!-- Node22 -->
<g id="Node000022" class="node">
<title>Node22</title>
<g id="a_Node000022"><a xlink:title=" ">
<polygon fill="#e0e0e0" stroke="#999999" points="1328.25,-146.62 1277,-146.62 1277,-127.38 1328.25,-127.38 1328.25,-146.62"/>
<text text-anchor="middle" x="1302.62" y="-133.12" font-family="Helvetica,sans-Serif" font-size="10.00">ostream</text>
</a>
</g>
</g>
<!-- Node21&#45;&gt;Node22 -->
<g id="edge28_Node000021_Node000022" class="edge">
<title>Node21&#45;&gt;Node22</title>
<g id="a_edge28_Node000021_Node000022"><a xlink:title=" ">
<path fill="none" stroke="#63b8ff" d="M1255.13,-187.93C1263.35,-179.29 1276.03,-165.96 1286.22,-155.25"/>
<polygon fill="#63b8ff" stroke="#63b8ff" points="1288.64,-157.78 1293,-148.12 1283.57,-152.96 1288.64,-157.78"/>
</a>
</g>
</g>
<!-- Node23 -->
<g id="Node000023" class="node">
<title>Node23</title>
<g id="a_Node000023"><a xlink:title=" ">
<polygon fill="#e0e0e0" stroke="#999999" points="1549.5,-80.12 1499.75,-80.12 1499.75,-60.88 1549.5,-60.88 1549.5,-80.12"/>
<text text-anchor="middle" x="1524.62" y="-66.62" font-family="Helvetica,sans-Serif" font-size="10.00">optional</text>
</a>
</g>
</g>
<!-- Node21&#45;&gt;Node23 -->
<g id="edge31_Node000021_Node000023" class="edge">
<title>Node21&#45;&gt;Node23</title>
<g id="a_edge31_Node000021_Node000023"><a xlink:title=" ">
<path fill="none" stroke="#63b8ff" d="M1317.36,-193.31C1384.52,-188.45 1479.05,-177.27 1505.62,-152.25 1521.91,-136.92 1525.43,-110.49 1525.68,-92.06"/>
<polygon fill="#63b8ff" stroke="#63b8ff" points="1529.18,-92 1525.46,-82.08 1522.18,-92.15 1529.18,-92"/>
</a>
</g>
</g>
<!-- Node24 -->
<g id="Node000024" class="node">
<title>Node24</title>
<g id="a_Node000024"><a xlink:href="../../da/d33/Namespace_8hpp.html" target="_top" xlink:title=" ">
<polygon fill="white" stroke="#666666" points="1106.5,-146.62 936.75,-146.62 936.75,-127.38 1106.5,-127.38 1106.5,-146.62"/>
<text text-anchor="middle" x="1021.62" y="-133.12" font-family="Helvetica,sans-Serif" font-size="10.00">Ark/Compiler/AST/Namespace.hpp</text>
</a>
</g>
</g>
<!-- Node21&#45;&gt;Node24 -->
<g id="edge32_Node000021_Node000024" class="edge">
<title>Node21&#45;&gt;Node24</title>
<g id="a_edge32_Node000021_Node000024"><a xlink:title=" ">
<path fill="none" stroke="#63b8ff" d="M1211.96,-187.8C1173.15,-177.65 1110.09,-161.15 1067.29,-149.95"/>
<polygon fill="#63b8ff" stroke="#63b8ff" points="1068.35,-146.61 1057.79,-147.46 1066.58,-153.38 1068.35,-146.61"/>
</a>
</g>
</g>
<!-- Node26 -->
<g id="Node000026" class="node">
<title>Node26</title>
<g id="a_Node000026"><a xlink:href="../../dc/d58/Position_8hpp.html" target="_top" xlink:title="Defines position utilities (for text in a file) for the parser, formatter, diagnostics.">
<polygon fill="white" stroke="#666666" points="1496.25,-146.62 1385,-146.62 1385,-127.38 1496.25,-127.38 1496.25,-146.62"/>
<text text-anchor="middle" x="1440.62" y="-133.12" font-family="Helvetica,sans-Serif" font-size="10.00">Ark/Utils/Position.hpp</text>
</a>
</g>
</g>
<!-- Node21&#45;&gt;Node26 -->
<g id="edge38_Node000021_Node000026" class="edge">
<title>Node21&#45;&gt;Node26</title>
<g id="a_edge38_Node000021_Node000026"><a xlink:title=" ">
<path fill="none" stroke="#63b8ff" d="M1276.51,-187.8C1309.55,-177.78 1362.96,-161.57 1399.83,-150.38"/>
<polygon fill="#63b8ff" stroke="#63b8ff" points="1400.7,-153.77 1409.26,-147.52 1398.67,-147.07 1400.7,-153.77"/>
</a>
</g>
</g>
<!-- Node24&#45;&gt;Node2 -->
<g id="edge34_Node000024_Node000002" class="edge">
<title>Node24&#45;&gt;Node2</title>
<g id="a_edge34_Node000024_Node000002"><a xlink:title=" ">
<path fill="none" stroke="#63b8ff" d="M1009.67,-127.03C996.01,-116.79 973.41,-99.84 956.76,-87.35"/>
<polygon fill="#63b8ff" stroke="#63b8ff" points="959.07,-84.71 948.97,-81.51 954.87,-90.31 959.07,-84.71"/>
</a>
</g>
</g>
<!-- Node24&#45;&gt;Node3 -->
<g id="edge33_Node000024_Node000003" class="edge">
<title>Node24&#45;&gt;Node3</title>
<g id="a_edge33_Node000024_Node000003"><a xlink:title=" ">
<path fill="none" stroke="#63b8ff" d="M1000.15,-126.96C976.79,-117.07 938.4,-100.63 905.62,-85.75 905.28,-85.59 904.93,-85.44 904.59,-85.28"/>
<polygon fill="#63b8ff" stroke="#63b8ff" points="906.22,-82.18 895.67,-81.13 903.27,-88.52 906.22,-82.18"/>
</a>
</g>
</g>
<!-- Node25 -->
<g id="Node000025" class="node">
<title>Node25</title>
<g id="a_Node000025"><a xlink:title=" ">
<polygon fill="#e0e0e0" stroke="#999999" points="1037.25,-80.12 986,-80.12 986,-60.88 1037.25,-60.88 1037.25,-80.12"/>
<text text-anchor="middle" x="1011.62" y="-66.62" font-family="Helvetica,sans-Serif" font-size="10.00">memory</text>
</a>
</g>
</g>
<!-- Node24&#45;&gt;Node25 -->
<g id="edge35_Node000024_Node000025" class="edge">
<title>Node24&#45;&gt;Node25</title>
<g id="a_edge35_Node000024_Node000025"><a xlink:title=" ">
<path fill="none" stroke="#63b8ff" d="M1020.23,-127.03C1018.82,-117.89 1016.57,-103.39 1014.73,-91.5"/>
<polygon fill="#63b8ff" stroke="#63b8ff" points="1018.23,-91.23 1013.24,-81.89 1011.31,-92.31 1018.23,-91.23"/>
</a>
</g>
</g>
<!-- Node26&#45;&gt;Node4 -->
<g id="edge40_Node000026_Node000004" class="edge">
<title>Node26&#45;&gt;Node4</title>
<g id="a_edge40_Node000026_Node000004"><a xlink:title=" ">
<path fill="none" stroke="#63b8ff" d="M1438.54,-127.03C1436.41,-117.89 1433.04,-103.39 1430.28,-91.5"/>
<polygon fill="#63b8ff" stroke="#63b8ff" points="1433.71,-90.81 1428.04,-81.87 1426.89,-92.4 1433.71,-90.81"/>
</a>
</g>
</g>
<!-- Node26&#45;&gt;Node23 -->
<g id="edge39_Node000026_Node000023" class="edge">
<title>Node26&#45;&gt;Node23</title>
<g id="a_edge39_Node000026_Node000023"><a xlink:title=" ">
<path fill="none" stroke="#63b8ff" d="M1452.3,-127.03C1465.64,-116.79 1487.72,-99.84 1503.98,-87.35"/>
<polygon fill="#63b8ff" stroke="#63b8ff" points="1505.77,-90.39 1511.57,-81.52 1501.51,-84.84 1505.77,-90.39"/>
</a>
</g>
</g>
<!-- Node27&#45;&gt;Node2 -->
<g id="edge43_Node000027_Node000002" class="edge">
<title>Node27&#45;&gt;Node2</title>
<g id="a_edge43_Node000027_Node000002"><a xlink:title=" ">
<path fill="none" stroke="#63b8ff" d="M729.11,-126.45C778.18,-118.31 846.58,-104.87 904.62,-85.75 905.58,-85.43 906.55,-85.1 907.53,-84.74"/>
<polygon fill="#63b8ff" stroke="#63b8ff" points="908.55,-88.11 916.47,-81.07 905.89,-81.63 908.55,-88.11"/>
</a>
</g>
</g>
<!-- Node27&#45;&gt;Node3 -->
<g id="edge44_Node000027_Node000003" class="edge">
<title>Node27&#45;&gt;Node3</title>
<g id="a_edge44_Node000027_Node000003"><a xlink:title=" ">
<path fill="none" stroke="#63b8ff" d="M728.52,-121.35C763.94,-112.57 808.27,-100.29 846.62,-85.75 847.25,-85.51 847.88,-85.27 848.51,-85.02"/>
<polygon fill="#63b8ff" stroke="#63b8ff" points="849.59,-88.36 857.3,-81.1 846.75,-81.97 849.59,-88.36"/>
</a>
</g>
</g>
<!-- Node27&#45;&gt;Node15 -->
<g id="edge42_Node000027_Node000015" class="edge">
<title>Node27&#45;&gt;Node15</title>
<g id="a_edge42_Node000027_Node000015"><a xlink:title=" ">
<path fill="none" stroke="#63b8ff" d="M662.96,-121.47C662.95,-103.58 665.71,-73.35 682.62,-55.25 709.7,-26.29 755.06,-15.96 787.85,-12.36"/>
<polygon fill="#63b8ff" stroke="#63b8ff" points="788.15,-15.85 797.79,-11.45 787.52,-8.87 788.15,-15.85"/>
</a>
</g>
</g>
<!-- Node28 -->
<g id="Node000028" class="node">
<title>Node28</title>
<g id="a_Node000028"><a xlink:href="../../db/d53/Word_8hpp.html" target="_top" xlink:title="Describe an instruction and its immediate argument.">
<polygon fill="white" stroke="#666666" points="635.62,-85.75 505.62,-85.75 505.62,-55.25 635.62,-55.25 635.62,-85.75"/>
<text text-anchor="start" x="513.62" y="-72.25" font-family="Helvetica,sans-Serif" font-size="10.00">Ark/Compiler/Intermediate</text>
<text text-anchor="middle" x="570.62" y="-61" font-family="Helvetica,sans-Serif" font-size="10.00">Representation/Word.hpp</text>
</a>
</g>
</g>
<!-- Node27&#45;&gt;Node28 -->
<g id="edge45_Node000027_Node000028" class="edge">
<title>Node27&#45;&gt;Node28</title>
<g id="a_edge45_Node000027_Node000028"><a xlink:title=" ">
<path fill="none" stroke="#63b8ff" d="M642.52,-121.36C630.27,-112.87 614.64,-102.02 601.07,-92.62"/>
<polygon fill="#63b8ff" stroke="#63b8ff" points="603.1,-89.76 592.89,-86.94 599.11,-95.52 603.1,-89.76"/>
</a>
</g>
</g>
<!-- Node29 -->
<g id="Node000029" class="node">
<title>Node29</title>
<g id="a_Node000029"><a xlink:href="../../d8/daa/Instructions_8hpp.html" target="_top" xlink:title="The different instructions used by the compiler and virtual machine.">
<polygon fill="white" stroke="#666666" points="837.5,-80.12 691.75,-80.12 691.75,-60.88 837.5,-60.88 837.5,-80.12"/>
<text text-anchor="middle" x="764.62" y="-66.62" font-family="Helvetica,sans-Serif" font-size="10.00">Ark/Compiler/Instructions.hpp</text>
</a>
</g>
</g>
<!-- Node27&#45;&gt;Node29 -->
<g id="edge47_Node000027_Node000029" class="edge">
<title>Node27&#45;&gt;Node29</title>
<g id="a_edge47_Node000027_Node000029"><a xlink:title=" ">
<path fill="none" stroke="#63b8ff" d="M686.54,-121.36C702.83,-110.96 724.65,-97.03 741.08,-86.54"/>
<polygon fill="#63b8ff" stroke="#63b8ff" points="742.7,-89.66 749.24,-81.32 738.93,-83.76 742.7,-89.66"/>
</a>
</g>
</g>
<!-- Node28&#45;&gt;Node15 -->
<g id="edge46_Node000028_Node000015" class="edge">
<title>Node28&#45;&gt;Node15</title>
<g id="a_edge46_Node000028_Node000015"><a xlink:title=" ">
<path fill="none" stroke="#63b8ff" d="M634.81,-54.8C683.09,-43.74 747.68,-28.94 788.48,-19.59"/>
<polygon fill="#63b8ff" stroke="#63b8ff" points="789.13,-23.03 798.1,-17.39 787.57,-16.21 789.13,-23.03"/>
</a>
</g>
</g>
<!-- Node29&#45;&gt;Node13 -->
<g id="edge48_Node000029_Node000013" class="edge">
<title>Node29&#45;&gt;Node13</title>
<g id="a_edge48_Node000029_Node000013"><a xlink:title=" ">
<path fill="none" stroke="#63b8ff" d="M787.12,-60.43C812.29,-50.28 853.16,-33.8 880.94,-22.6"/>
<polygon fill="#63b8ff" stroke="#63b8ff" points="882.23,-25.85 890.19,-18.86 879.61,-19.36 882.23,-25.85"/>
</a>
</g>
</g>
</g>
</svg>

<g id="navigator" transform="translate(0 0)" fill="#404254">
  <rect fill="#f2f5e9" fill-opacity="0.5" stroke="#606060" stroke-width=".5" x="0" y="0" width="60" height="60"/>
  <use id="zoomplus" xlink:href="#zoomPlus" x="17" y="9" onmousedown="handleZoom(evt,'in')"/>
  <use id="zoomminus" xlink:href="#zoomMin" x="42" y="9" onmousedown="handleZoom(evt,'out')"/>
  <use id="reset" xlink:href="#resetDef" x="30" y="36" onmousedown="handleReset()"/>
   <use id="arrowup" xlink:href="#arrowUp" x="0" y="0" onmousedown="handlePan(0,-1)"/>
  <use id="arrowright" xlink:href="#arrowRight" x="0" y="0" onmousedown="handlePan(1,0)"/>
  <use id="arrowdown" xlink:href="#arrowDown" x="0" y="0" onmousedown="handlePan(0,1)"/>
  <use id="arrowleft" xlink:href="#arrowLeft" x="0" y="0" onmousedown="handlePan(-1,0)"/>
</g>
<svg viewBox="0 0 15 15" width="100%" height="30px" preserveAspectRatio="xMaxYMin meet">
 <g id="arrow_out" transform="scale(0.3 0.3)">
  <a xlink:href="IRCompiler_8hpp__incl_org.svg" target="_base">
   <rect id="button" ry="5" rx="5" y="6" x="6" height="38" width="38"
        fill="#f2f5e9" fill-opacity="0.5" stroke="#606060" stroke-width="1.0"/>
   <path id="arrow"
     d="M 11.500037,31.436501 C 11.940474,20.09759 22.043105,11.32322 32.158766,21.979434 L 37.068811,17.246167 C 37.068811,17.246167 37.088388,32 37.088388,32 L 22.160133,31.978069 C 22.160133,31.978069 26.997745,27.140456 26.997745,27.140456 C 18.528582,18.264221 13.291696,25.230495 11.500037,31.436501 z"
     style="fill:#404040;"/>
  </a>
 </g>
</svg>

<style type='text/css'>
<![CDATA[
[data-mouse-over-selected='false'] { opacity: 0.7; }
[data-mouse-over-selected='true']  { opacity: 1.0; }
]]>
</style>
<script type="application/ecmascript"><![CDATA[
document.addEventListener('DOMContentLoaded', (event) => {
  highlightEdges();
  highlightAdjacentNodes();
});
]]></script>
</svg>
