<?xml version="1.0" encoding="UTF-8" standalone="no"?>
<!DOCTYPE svg PUBLIC "-//W3C//DTD SVG 1.1//EN"
 "http://www.w3.org/Graphics/SVG/1.1/DTD/svg11.dtd">
<!-- Generated by graphviz version 12.2.0 (20241103.1931)
 -->
<!-- Title: /Users/fola/Documents/ArkScript/Ark/include/Ark/Compiler/IntermediateRepresentation/IRCompiler.hpp Pages: 1 -->
<svg width="1365pt" height="360pt"
 viewBox="0.00 0.00 1364.62 359.75" xmlns="http://www.w3.org/2000/svg" xmlns:xlink="http://www.w3.org/1999/xlink">
<g id="graph0" class="graph" transform="scale(1 1) rotate(0) translate(4 355.75)">
<title>/Users/fola/Documents/ArkScript/Ark/include/Ark/Compiler/IntermediateRepresentation/IRCompiler.hpp</title>
<!-- Node1 -->
<g id="Node000001" class="node">
<title>Node1</title>
<g id="a_Node000001"><a xlink:title="Compile the intermediate representation to bytecode.">
<polygon fill="#999999" stroke="#666666" points="782.25,-351.75 583.25,-351.75 583.25,-298.75 782.25,-298.75 782.25,-351.75"/>
<text text-anchor="start" x="591.25" y="-338.25" font-family="Helvetica,sans-Serif" font-size="10.00">/Users/fola/Documents</text>
<text text-anchor="start" x="591.25" y="-327" font-family="Helvetica,sans-Serif" font-size="10.00">/ArkScript/Ark/include</text>
<text text-anchor="start" x="591.25" y="-315.75" font-family="Helvetica,sans-Serif" font-size="10.00">/Ark/Compiler/IntermediateRepresentation</text>
<text text-anchor="middle" x="682.75" y="-304.5" font-family="Helvetica,sans-Serif" font-size="10.00">/IRCompiler.hpp</text>
</a>
</g>
</g>
<!-- Node2 -->
<g id="Node000002" class="node">
<title>Node2</title>
<g id="a_Node000002"><a xlink:title=" ">
<polygon fill="#e0e0e0" stroke="#999999" points="778.25,-80.12 735.25,-80.12 735.25,-60.88 778.25,-60.88 778.25,-80.12"/>
<text text-anchor="middle" x="756.75" y="-66.62" font-family="Helvetica,sans-Serif" font-size="10.00">vector</text>
</a>
</g>
</g>
<!-- Node1&#45;&gt;Node2 -->
<g id="edge1_Node000001_Node000002" class="edge">
<title>Node1&#45;&gt;Node2</title>
<g id="a_edge1_Node000001_Node000002"><a xlink:title=" ">
<path fill="none" stroke="#63b8ff" d="M663.39,-298.33C635.43,-257.48 591.04,-177.07 628.75,-121.75 634.43,-113.42 688.4,-94.18 724.43,-82.08"/>
<polygon fill="#63b8ff" stroke="#63b8ff" points="725.14,-85.53 733.52,-79.04 722.93,-78.89 725.14,-85.53"/>
</a>
</g>
</g>
<!-- Node3 -->
<g id="Node000003" class="node">
<title>Node3</title>
<g id="a_Node000003"><a xlink:title=" ">
<polygon fill="#e0e0e0" stroke="#999999" points="1003.75,-80.12 963.75,-80.12 963.75,-60.88 1003.75,-60.88 1003.75,-80.12"/>
<text text-anchor="middle" x="983.75" y="-66.62" font-family="Helvetica,sans-Serif" font-size="10.00">string</text>
</a>
</g>
</g>
<!-- Node1&#45;&gt;Node3 -->
<g id="edge2_Node000001_Node000003" class="edge">
<title>Node1&#45;&gt;Node3</title>
<g id="a_edge2_Node000001_Node000003"><a xlink:title=" ">
<path fill="none" stroke="#63b8ff" d="M782.33,-315.29C878.38,-305.39 1016.02,-287.5 1063.75,-262.75 1094.23,-246.94 1096.62,-234.57 1117.75,-207.5 1142.98,-175.18 1176.95,-154.09 1151.75,-121.75 1111.46,-70.06 1069.56,-110.2 1008.75,-85.75 1008.52,-85.66 1008.3,-85.57 1008.07,-85.47"/>
<polygon fill="#63b8ff" stroke="#63b8ff" points="1009.83,-82.44 999.32,-81.15 1006.73,-88.71 1009.83,-82.44"/>
</a>
</g>
</g>
<!-- Node4 -->
<g id="Node000004" class="node">
<title>Node4</title>
<g id="a_Node000004"><a xlink:href="../../d5/d40/Platform_8hpp.html" target="_top" xlink:title="ArkScript configuration macros.">
<polygon fill="white" stroke="#666666" points="727.5,-146.62 638,-146.62 638,-127.38 727.5,-127.38 727.5,-146.62"/>
<text text-anchor="middle" x="682.75" y="-133.12" font-family="Helvetica,sans-Serif" font-size="10.00">Ark/Platform.hpp</text>
</a>
</g>
</g>
<!-- Node1&#45;&gt;Node4 -->
<g id="edge3_Node000001_Node000004" class="edge">
<title>Node1&#45;&gt;Node4</title>
<g id="a_edge3_Node000001_Node000004"><a xlink:title=" ">
<path fill="none" stroke="#63b8ff" d="M682.75,-298.35C682.75,-260.77 682.75,-191.92 682.75,-157.98"/>
<polygon fill="#63b8ff" stroke="#63b8ff" points="686.25,-158.34 682.75,-148.34 679.25,-158.34 686.25,-158.34"/>
</a>
</g>
</g>
<!-- Node5 -->
<g id="Node000005" class="node">
<title>Node5</title>
<g id="a_Node000005"><a xlink:href="../../d9/d11/Logger_8hpp.html" target="_top" xlink:title="Internal logger.">
<polygon fill="white" stroke="#666666" points="406.38,-146.62 325.12,-146.62 325.12,-127.38 406.38,-127.38 406.38,-146.62"/>
<text text-anchor="middle" x="365.75" y="-133.12" font-family="Helvetica,sans-Serif" font-size="10.00">Ark/Logger.hpp</text>
</a>
</g>
</g>
<!-- Node1&#45;&gt;Node5 -->
<g id="edge4_Node000001_Node000005" class="edge">
<title>Node1&#45;&gt;Node5</title>
<g id="a_edge4_Node000001_Node000005"><a xlink:title=" ">
<path fill="none" stroke="#63b8ff" d="M637.83,-298.3C618.95,-287.36 596.76,-274.47 576.75,-262.75 509.48,-223.35 430.43,-176.45 390.91,-152.97"/>
<polygon fill="#63b8ff" stroke="#63b8ff" points="392.77,-150 382.38,-147.9 389.19,-156.01 392.77,-150"/>
</a>
</g>
</g>
<!-- Node12 -->
<g id="Node000012" class="node">
<title>Node12</title>
<g id="a_Node000012"><a xlink:href="../../d8/ddd/Common_8hpp.html" target="_top" xlink:title="Common code for the compiler.">
<polygon fill="white" stroke="#666666" points="582,-146.62 447.5,-146.62 447.5,-127.38 582,-127.38 582,-146.62"/>
<text text-anchor="middle" x="514.75" y="-133.12" font-family="Helvetica,sans-Serif" font-size="10.00">Ark/Compiler/Common.hpp</text>
</a>
</g>
</g>
<!-- Node1&#45;&gt;Node12 -->
<g id="edge13_Node000001_Node000012" class="edge">
<title>Node1&#45;&gt;Node12</title>
<g id="a_edge13_Node000001_Node000012"><a xlink:title=" ">
<path fill="none" stroke="#63b8ff" d="M639.48,-298.43C624.65,-288.39 608.57,-276.08 595.75,-262.75 564.1,-229.83 537.53,-182.87 524.12,-156.97"/>
<polygon fill="#63b8ff" stroke="#63b8ff" points="527.38,-155.66 519.74,-148.32 521.13,-158.82 527.38,-155.66"/>
</a>
</g>
</g>
<!-- Node18 -->
<g id="Node000018" class="node">
<title>Node18</title>
<g id="a_Node000018"><a xlink:href="../../dd/de7/ValTableElem_8hpp.html" target="_top" xlink:title="The basic value type handled by the compiler.">
<polygon fill="white" stroke="#666666" points="1054.75,-262.75 900.75,-262.75 900.75,-243.5 1054.75,-243.5 1054.75,-262.75"/>
<text text-anchor="middle" x="977.75" y="-249.25" font-family="Helvetica,sans-Serif" font-size="10.00">Ark/Compiler/ValTableElem.hpp</text>
</a>
</g>
</g>
<!-- Node1&#45;&gt;Node18 -->
<g id="edge22_Node000001_Node000018" class="edge">
<title>Node1&#45;&gt;Node18</title>
<g id="a_edge22_Node000001_Node000018"><a xlink:title=" ">
<path fill="none" stroke="#63b8ff" d="M782.62,-300.51C831.87,-288.8 889.05,-275.21 928.72,-265.78"/>
<polygon fill="#63b8ff" stroke="#63b8ff" points="929.29,-269.24 938.21,-263.52 927.67,-262.43 929.29,-269.24"/>
</a>
</g>
</g>
<!-- Node24 -->
<g id="Node000024" class="node">
<title>Node24</title>
<g id="a_Node000024"><a xlink:href="../../de/da6/Entity_8hpp.html" target="_top" xlink:title="An entity in the IR is a bundle of information.">
<polygon fill="white" stroke="#666666" points="1348.75,-152.25 1218.75,-152.25 1218.75,-121.75 1348.75,-121.75 1348.75,-152.25"/>
<text text-anchor="start" x="1226.75" y="-138.75" font-family="Helvetica,sans-Serif" font-size="10.00">Ark/Compiler/Intermediate</text>
<text text-anchor="middle" x="1283.75" y="-127.5" font-family="Helvetica,sans-Serif" font-size="10.00">Representation/Entity.hpp</text>
</a>
</g>
</g>
<!-- Node1&#45;&gt;Node24 -->
<g id="edge36_Node000001_Node000024" class="edge">
<title>Node1&#45;&gt;Node24</title>
<g id="a_edge36_Node000001_Node000024"><a xlink:title=" ">
<path fill="none" stroke="#63b8ff" d="M782.51,-322.56C913.98,-318.65 1136.55,-305.68 1204.75,-262.75 1241.52,-239.6 1264.23,-192.42 1275.38,-163.18"/>
<polygon fill="#63b8ff" stroke="#63b8ff" points="1278.59,-164.59 1278.7,-154 1272.01,-162.21 1278.59,-164.59"/>
</a>
</g>
</g>
<!-- Node5&#45;&gt;Node2 -->
<g id="edge10_Node000005_Node000002" class="edge">
<title>Node5&#45;&gt;Node2</title>
<g id="a_edge10_Node000005_Node000002"><a xlink:title=" ">
<path fill="none" stroke="#63b8ff" d="M406.63,-127.75C417.09,-125.71 428.32,-123.59 438.75,-121.75 542.55,-103.42 665.99,-84.83 723.8,-76.31"/>
<polygon fill="#63b8ff" stroke="#63b8ff" points="724.23,-79.78 733.62,-74.86 723.21,-72.86 724.23,-79.78"/>
</a>
</g>
</g>
<!-- Node5&#45;&gt;Node3 -->
<g id="edge7_Node000005_Node000003" class="edge">
<title>Node5&#45;&gt;Node3</title>
<g id="a_edge7_Node000005_Node000003"><a xlink:title=" ">
<path fill="none" stroke="#63b8ff" d="M406.54,-127.17C417,-125.15 428.26,-123.18 438.75,-121.75 644.15,-93.85 698.13,-111.96 903.75,-85.75 919.87,-83.7 937.68,-80.6 952.4,-77.83"/>
<polygon fill="#63b8ff" stroke="#63b8ff" points="952.81,-81.31 961.96,-75.98 951.48,-74.44 952.81,-81.31"/>
</a>
</g>
</g>
<!-- Node6 -->
<g id="Node000006" class="node">
<title>Node6</title>
<g id="a_Node000006"><a xlink:title=" ">
<polygon fill="#e0e0e0" stroke="#999999" points="53.5,-80.12 0,-80.12 0,-60.88 53.5,-60.88 53.5,-80.12"/>
<text text-anchor="middle" x="26.75" y="-66.62" font-family="Helvetica,sans-Serif" font-size="10.00">iostream</text>
</a>
</g>
</g>
<!-- Node5&#45;&gt;Node6 -->
<g id="edge5_Node000005_Node000006" class="edge">
<title>Node5&#45;&gt;Node6</title>
<g id="a_edge5_Node000005_Node000006"><a xlink:title=" ">
<path fill="none" stroke="#63b8ff" d="M324.8,-132.16C265.81,-125.97 153.9,-111.77 61.75,-85.75 60.36,-85.36 58.96,-84.93 57.55,-84.47"/>
<polygon fill="#63b8ff" stroke="#63b8ff" points="58.86,-81.22 48.26,-81.09 56.46,-87.8 58.86,-81.22"/>
</a>
</g>
</g>
<!-- Node7 -->
<g id="Node000007" class="node">
<title>Node7</title>
<g id="a_Node000007"><a xlink:title=" ">
<polygon fill="#e0e0e0" stroke="#999999" points="140.38,-80.12 71.12,-80.12 71.12,-60.88 140.38,-60.88 140.38,-80.12"/>
<text text-anchor="middle" x="105.75" y="-66.62" font-family="Helvetica,sans-Serif" font-size="10.00">fmt/format.h</text>
</a>
</g>
</g>
<!-- Node5&#45;&gt;Node7 -->
<g id="edge6_Node000005_Node000007" class="edge">
<title>Node5&#45;&gt;Node7</title>
<g id="a_edge6_Node000005_Node000007"><a xlink:title=" ">
<path fill="none" stroke="#63b8ff" d="M324.67,-127.67C280.82,-118.5 209.44,-102.79 148.75,-85.75 146.65,-85.16 144.5,-84.53 142.33,-83.88"/>
<polygon fill="#63b8ff" stroke="#63b8ff" points="143.59,-80.6 133,-80.94 141.48,-87.28 143.59,-80.6"/>
</a>
</g>
</g>
<!-- Node8 -->
<g id="Node000008" class="node">
<title>Node8</title>
<g id="a_Node000008"><a xlink:title=" ">
<polygon fill="#e0e0e0" stroke="#999999" points="203.38,-80.12 158.12,-80.12 158.12,-60.88 203.38,-60.88 203.38,-80.12"/>
<text text-anchor="middle" x="180.75" y="-66.62" font-family="Helvetica,sans-Serif" font-size="10.00">chrono</text>
</a>
</g>
</g>
<!-- Node5&#45;&gt;Node8 -->
<g id="edge8_Node000005_Node000008" class="edge">
<title>Node5&#45;&gt;Node8</title>
<g id="a_edge8_Node000005_Node000008"><a xlink:title=" ">
<path fill="none" stroke="#63b8ff" d="M334.95,-126.89C303.82,-117.45 254.49,-101.85 212.75,-85.75 212.11,-85.5 211.47,-85.25 210.82,-84.99"/>
<polygon fill="#63b8ff" stroke="#63b8ff" points="212.22,-81.79 201.64,-81.15 209.51,-88.24 212.22,-81.79"/>
</a>
</g>
</g>
<!-- Node9 -->
<g id="Node000009" class="node">
<title>Node9</title>
<g id="a_Node000009"><a xlink:title=" ">
<polygon fill="#e0e0e0" stroke="#999999" points="305.88,-80.12 221.62,-80.12 221.62,-60.88 305.88,-60.88 305.88,-80.12"/>
<text text-anchor="middle" x="263.75" y="-66.62" font-family="Helvetica,sans-Serif" font-size="10.00">source_location</text>
</a>
</g>
</g>
<!-- Node5&#45;&gt;Node9 -->
<g id="edge9_Node000005_Node000009" class="edge">
<title>Node5&#45;&gt;Node9</title>
<g id="a_edge9_Node000005_Node000009"><a xlink:title=" ">
<path fill="none" stroke="#63b8ff" d="M351.57,-127.03C335.07,-116.6 307.55,-99.2 287.72,-86.65"/>
<polygon fill="#63b8ff" stroke="#63b8ff" points="289.74,-83.8 279.42,-81.41 286,-89.71 289.74,-83.8"/>
</a>
</g>
</g>
<!-- Node10 -->
<g id="Node000010" class="node">
<title>Node10</title>
<g id="a_Node000010"><a xlink:title=" ">
<polygon fill="#e0e0e0" stroke="#999999" points="407.12,-80.12 324.38,-80.12 324.38,-60.88 407.12,-60.88 407.12,-80.12"/>
<text text-anchor="middle" x="365.75" y="-66.62" font-family="Helvetica,sans-Serif" font-size="10.00">unordered_map</text>
</a>
</g>
</g>
<!-- Node5&#45;&gt;Node10 -->
<g id="edge11_Node000005_Node000010" class="edge">
<title>Node5&#45;&gt;Node10</title>
<g id="a_edge11_Node000005_Node000010"><a xlink:title=" ">
<path fill="none" stroke="#63b8ff" d="M365.75,-127.03C365.75,-117.98 365.75,-103.7 365.75,-91.88"/>
<polygon fill="#63b8ff" stroke="#63b8ff" points="369.25,-91.91 365.75,-81.91 362.25,-91.91 369.25,-91.91"/>
</a>
</g>
</g>
<!-- Node11 -->
<g id="Node000011" class="node">
<title>Node11</title>
<g id="a_Node000011"><a xlink:title=" ">
<polygon fill="#e0e0e0" stroke="#999999" points="486.62,-80.12 424.88,-80.12 424.88,-60.88 486.62,-60.88 486.62,-80.12"/>
<text text-anchor="middle" x="455.75" y="-66.62" font-family="Helvetica,sans-Serif" font-size="10.00">fmt/color.h</text>
</a>
</g>
</g>
<!-- Node5&#45;&gt;Node11 -->
<g id="edge12_Node000005_Node000011" class="edge">
<title>Node5&#45;&gt;Node11</title>
<g id="a_edge12_Node000005_Node000011"><a xlink:title=" ">
<path fill="none" stroke="#63b8ff" d="M378.26,-127.03C392.69,-116.69 416.66,-99.52 434.12,-87"/>
<polygon fill="#63b8ff" stroke="#63b8ff" points="435.73,-90.15 441.82,-81.48 431.65,-84.46 435.73,-90.15"/>
</a>
</g>
</g>
<!-- Node12&#45;&gt;Node2 -->
<g id="edge16_Node000012_Node000002" class="edge">
<title>Node12&#45;&gt;Node2</title>
<g id="a_edge16_Node000012_Node000002"><a xlink:title=" ">
<path fill="none" stroke="#63b8ff" d="M559.44,-126.96C601.5,-118.01 666.03,-103.16 720.75,-85.75 722.08,-85.33 723.44,-84.88 724.8,-84.41"/>
<polygon fill="#63b8ff" stroke="#63b8ff" points="725.62,-87.84 733.8,-81.1 723.21,-81.27 725.62,-87.84"/>
</a>
</g>
</g>
<!-- Node13 -->
<g id="Node000013" class="node">
<title>Node13</title>
<g id="a_Node000013"><a xlink:title=" ">
<polygon fill="#e0e0e0" stroke="#999999" points="1027.62,-19.25 989.88,-19.25 989.88,0 1027.62,0 1027.62,-19.25"/>
<text text-anchor="middle" x="1008.75" y="-5.75" font-family="Helvetica,sans-Serif" font-size="10.00">array</text>
</a>
</g>
</g>
<!-- Node12&#45;&gt;Node13 -->
<g id="edge14_Node000012_Node000013" class="edge">
<title>Node12&#45;&gt;Node13</title>
<g id="a_edge14_Node000012_Node000013"><a xlink:title=" ">
<path fill="none" stroke="#63b8ff" d="M549.2,-126.91C581.27,-117.98 630.09,-103.19 670.75,-85.75 696.8,-74.58 699.92,-64.38 726.75,-55.25 814.91,-25.27 925.55,-15.26 978.19,-12.05"/>
<polygon fill="#63b8ff" stroke="#63b8ff" points="978.1,-15.56 987.89,-11.51 977.71,-8.58 978.1,-15.56"/>
</a>
</g>
</g>
<!-- Node14 -->
<g id="Node000014" class="node">
<title>Node14</title>
<g id="a_Node000014"><a xlink:title=" ">
<polygon fill="#e0e0e0" stroke="#999999" points="548.5,-19.25 483,-19.25 483,0 548.5,0 548.5,-19.25"/>
<text text-anchor="middle" x="515.75" y="-5.75" font-family="Helvetica,sans-Serif" font-size="10.00">string_view</text>
</a>
</g>
</g>
<!-- Node12&#45;&gt;Node14 -->
<g id="edge15_Node000012_Node000014" class="edge">
<title>Node12&#45;&gt;Node14</title>
<g id="a_edge15_Node000012_Node000014"><a xlink:title=" ">
<path fill="none" stroke="#63b8ff" d="M514.82,-126.98C514.98,-107.01 515.37,-58.64 515.59,-30.96"/>
<polygon fill="#63b8ff" stroke="#63b8ff" points="519.09,-31.1 515.67,-21.07 512.09,-31.05 519.09,-31.1"/>
</a>
</g>
</g>
<!-- Node15 -->
<g id="Node000015" class="node">
<title>Node15</title>
<g id="a_Node000015"><a xlink:title=" ">
<polygon fill="#e0e0e0" stroke="#999999" points="696.62,-19.25 640.88,-19.25 640.88,0 696.62,0 696.62,-19.25"/>
<text text-anchor="middle" x="668.75" y="-5.75" font-family="Helvetica,sans-Serif" font-size="10.00">cinttypes</text>
</a>
</g>
</g>
<!-- Node12&#45;&gt;Node15 -->
<g id="edge17_Node000012_Node000015" class="edge">
<title>Node12&#45;&gt;Node15</title>
<g id="a_edge17_Node000012_Node000015"><a xlink:title=" ">
<path fill="none" stroke="#63b8ff" d="M573.65,-126.91C600.34,-119.9 630.21,-107.53 649.75,-85.75 663.21,-70.75 667.42,-47.58 668.6,-30.93"/>
<polygon fill="#63b8ff" stroke="#63b8ff" points="672.09,-31.36 668.96,-21.24 665.09,-31.1 672.09,-31.36"/>
</a>
</g>
</g>
<!-- Node16 -->
<g id="Node000016" class="node">
<title>Node16</title>
<g id="a_Node000016"><a xlink:href="../../d6/de9/Constants_8hpp.html" target="_top" xlink:title="Constants used by ArkScript.">
<polygon fill="white" stroke="#666666" points="640.62,-80.12 542.88,-80.12 542.88,-60.88 640.62,-60.88 640.62,-80.12"/>
<text text-anchor="middle" x="591.75" y="-66.62" font-family="Helvetica,sans-Serif" font-size="10.00">Ark/Constants.hpp</text>
</a>
</g>
</g>
<!-- Node12&#45;&gt;Node16 -->
<g id="edge18_Node000012_Node000016" class="edge">
<title>Node12&#45;&gt;Node16</title>
<g id="a_edge18_Node000012_Node000016"><a xlink:title=" ">
<path fill="none" stroke="#63b8ff" d="M525.46,-127.03C537.64,-116.83 557.77,-99.96 572.66,-87.49"/>
<polygon fill="#63b8ff" stroke="#63b8ff" points="574.56,-90.47 579.97,-81.36 570.06,-85.1 574.56,-90.47"/>
</a>
</g>
</g>
<!-- Node16&#45;&gt;Node14 -->
<g id="edge19_Node000016_Node000014" class="edge">
<title>Node16&#45;&gt;Node14</title>
<g id="a_edge19_Node000016_Node000014"><a xlink:title=" ">
<path fill="none" stroke="#63b8ff" d="M580.21,-60.56C568.6,-51.57 550.46,-37.51 536.37,-26.6"/>
<polygon fill="#63b8ff" stroke="#63b8ff" points="538.65,-23.94 528.6,-20.58 534.36,-29.47 538.65,-23.94"/>
</a>
</g>
</g>
<!-- Node16&#45;&gt;Node15 -->
<g id="edge20_Node000016_Node000015" class="edge">
<title>Node16&#45;&gt;Node15</title>
<g id="a_edge20_Node000016_Node000015"><a xlink:title=" ">
<path fill="none" stroke="#63b8ff" d="M603.44,-60.56C615.2,-51.57 633.59,-37.51 647.86,-26.6"/>
<polygon fill="#63b8ff" stroke="#63b8ff" points="649.92,-29.42 655.74,-20.57 645.67,-23.86 649.92,-29.42"/>
</a>
</g>
</g>
<!-- Node17 -->
<g id="Node000017" class="node">
<title>Node17</title>
<g id="a_Node000017"><a xlink:title=" ">
<polygon fill="#e0e0e0" stroke="#999999" points="615.88,-19.25 567.62,-19.25 567.62,0 615.88,0 615.88,-19.25"/>
<text text-anchor="middle" x="591.75" y="-5.75" font-family="Helvetica,sans-Serif" font-size="10.00">cstddef</text>
</a>
</g>
</g>
<!-- Node16&#45;&gt;Node17 -->
<g id="edge21_Node000016_Node000017" class="edge">
<title>Node16&#45;&gt;Node17</title>
<g id="a_edge21_Node000016_Node000017"><a xlink:title=" ">
<path fill="none" stroke="#63b8ff" d="M591.75,-60.56C591.75,-52.78 591.75,-41.2 591.75,-31.16"/>
<polygon fill="#63b8ff" stroke="#63b8ff" points="595.25,-31.16 591.75,-21.16 588.25,-31.16 595.25,-31.16"/>
</a>
</g>
</g>
<!-- Node18&#45;&gt;Node3 -->
<g id="edge24_Node000018_Node000003" class="edge">
<title>Node18&#45;&gt;Node3</title>
<g id="a_edge24_Node000018_Node000003"><a xlink:title=" ">
<path fill="none" stroke="#63b8ff" d="M1006.3,-243.11C1061.81,-224.08 1175.35,-177.02 1133.75,-121.75 1098.98,-75.56 1062.02,-108.22 1008.75,-85.75 1008.64,-85.7 1008.53,-85.66 1008.42,-85.61"/>
<polygon fill="#63b8ff" stroke="#63b8ff" points="1010.12,-82.55 999.61,-81.21 1007,-88.81 1010.12,-82.55"/>
</a>
</g>
</g>
<!-- Node19 -->
<g id="Node000019" class="node">
<title>Node19</title>
<g id="a_Node000019"><a xlink:title=" ">
<polygon fill="#e0e0e0" stroke="#999999" points="1124.38,-146.62 1079.12,-146.62 1079.12,-127.38 1124.38,-127.38 1124.38,-146.62"/>
<text text-anchor="middle" x="1101.75" y="-133.12" font-family="Helvetica,sans-Serif" font-size="10.00">variant</text>
</a>
</g>
</g>
<!-- Node18&#45;&gt;Node19 -->
<g id="edge23_Node000018_Node000019" class="edge">
<title>Node18&#45;&gt;Node19</title>
<g id="a_edge23_Node000018_Node000019"><a xlink:title=" ">
<path fill="none" stroke="#63b8ff" d="M987.48,-243.17C1008.22,-224.09 1057.03,-179.16 1083.66,-154.65"/>
<polygon fill="#63b8ff" stroke="#63b8ff" points="1085.96,-157.29 1090.95,-147.94 1081.22,-152.14 1085.96,-157.29"/>
</a>
</g>
</g>
<!-- Node20 -->
<g id="Node000020" class="node">
<title>Node20</title>
<g id="a_Node000020"><a xlink:href="../../d7/dc6/Node_8hpp.html" target="_top" xlink:title="AST node used by the parser, optimizer and compiler.">
<polygon fill="white" stroke="#666666" points="975,-207.5 834.5,-207.5 834.5,-188.25 975,-188.25 975,-207.5"/>
<text text-anchor="middle" x="904.75" y="-194" font-family="Helvetica,sans-Serif" font-size="10.00">Ark/Compiler/AST/Node.hpp</text>
</a>
</g>
</g>
<!-- Node18&#45;&gt;Node20 -->
<g id="edge25_Node000018_Node000020" class="edge">
<title>Node18&#45;&gt;Node20</title>
<g id="a_edge25_Node000018_Node000020"><a xlink:title=" ">
<path fill="none" stroke="#63b8ff" d="M965.37,-243.09C954.6,-235.24 938.78,-223.7 926,-214.37"/>
<polygon fill="#63b8ff" stroke="#63b8ff" points="928.31,-211.73 918.17,-208.67 924.19,-217.39 928.31,-211.73"/>
</a>
</g>
</g>
<!-- Node20&#45;&gt;Node2 -->
<g id="edge29_Node000020_Node000002" class="edge">
<title>Node20&#45;&gt;Node2</title>
<g id="a_edge29_Node000020_Node000002"><a xlink:title=" ">
<path fill="none" stroke="#63b8ff" d="M838.84,-187.83C815.62,-181.48 791.21,-170.66 774.75,-152.25 760.03,-135.8 756.5,-109.99 756.03,-92"/>
<polygon fill="#63b8ff" stroke="#63b8ff" points="759.52,-92.06 756.09,-82.03 752.53,-92.01 759.52,-92.06"/>
</a>
</g>
</g>
<!-- Node20&#45;&gt;Node3 -->
<g id="edge28_Node000020_Node000003" class="edge">
<title>Node20&#45;&gt;Node3</title>
<g id="a_edge28_Node000020_Node000003"><a xlink:title=" ">
<path fill="none" stroke="#63b8ff" d="M922,-187.81C935.09,-180.06 952.51,-167.72 962.75,-152.25 974.85,-133.97 979.98,-109.08 982.16,-91.79"/>
<polygon fill="#63b8ff" stroke="#63b8ff" points="985.62,-92.31 983.14,-82.01 978.66,-91.61 985.62,-92.31"/>
</a>
</g>
</g>
<!-- Node20&#45;&gt;Node4 -->
<g id="edge35_Node000020_Node000004" class="edge">
<title>Node20&#45;&gt;Node4</title>
<g id="a_edge35_Node000020_Node000004"><a xlink:title=" ">
<path fill="none" stroke="#63b8ff" d="M870.55,-187.8C832.33,-177.67 770.3,-161.22 728.07,-150.02"/>
<polygon fill="#63b8ff" stroke="#63b8ff" points="729.02,-146.65 718.45,-147.47 727.22,-153.42 729.02,-146.65"/>
</a>
</g>
</g>
<!-- Node20&#45;&gt;Node12 -->
<g id="edge34_Node000020_Node000012" class="edge">
<title>Node20&#45;&gt;Node12</title>
<g id="a_edge34_Node000020_Node000012"><a xlink:title=" ">
<path fill="none" stroke="#63b8ff" d="M844.67,-187.8C774.96,-177.28 660.13,-159.95 585.99,-148.75"/>
<polygon fill="#63b8ff" stroke="#63b8ff" points="586.81,-145.34 576.4,-147.31 585.76,-152.26 586.81,-145.34"/>
</a>
</g>
</g>
<!-- Node20&#45;&gt;Node19 -->
<g id="edge26_Node000020_Node000019" class="edge">
<title>Node20&#45;&gt;Node19</title>
<g id="a_edge26_Node000020_Node000019"><a xlink:title=" ">
<path fill="none" stroke="#63b8ff" d="M946.28,-187.76C980.22,-179.83 1029.21,-167.26 1070.75,-152.25 1071.39,-152.02 1072.04,-151.78 1072.7,-151.53"/>
<polygon fill="#63b8ff" stroke="#63b8ff" points="1074,-154.78 1081.88,-147.69 1071.3,-148.32 1074,-154.78"/>
</a>
</g>
</g>
<!-- Node21 -->
<g id="Node000021" class="node">
<title>Node21</title>
<g id="a_Node000021"><a xlink:title=" ">
<polygon fill="#e0e0e0" stroke="#999999" points="1061.38,-146.62 1010.12,-146.62 1010.12,-127.38 1061.38,-127.38 1061.38,-146.62"/>
<text text-anchor="middle" x="1035.75" y="-133.12" font-family="Helvetica,sans-Serif" font-size="10.00">ostream</text>
</a>
</g>
</g>
<!-- Node20&#45;&gt;Node21 -->
<g id="edge27_Node000020_Node000021" class="edge">
<title>Node20&#45;&gt;Node21</title>
<g id="a_edge27_Node000020_Node000021"><a xlink:title=" ">
<path fill="none" stroke="#63b8ff" d="M924.93,-187.8C946.44,-178.14 980.73,-162.73 1005.47,-151.61"/>
<polygon fill="#63b8ff" stroke="#63b8ff" points="1006.69,-154.9 1014.38,-147.6 1003.82,-148.51 1006.69,-154.9"/>
</a>
</g>
</g>
<!-- Node22 -->
<g id="Node000022" class="node">
<title>Node22</title>
<g id="a_Node000022"><a xlink:href="../../da/d33/Namespace_8hpp.html" target="_top" xlink:title=" ">
<polygon fill="white" stroke="#666666" points="953.62,-146.62 783.88,-146.62 783.88,-127.38 953.62,-127.38 953.62,-146.62"/>
<text text-anchor="middle" x="868.75" y="-133.12" font-family="Helvetica,sans-Serif" font-size="10.00">Ark/Compiler/AST/Namespace.hpp</text>
</a>
</g>
</g>
<!-- Node20&#45;&gt;Node22 -->
<g id="edge30_Node000020_Node000022" class="edge">
<title>Node20&#45;&gt;Node22</title>
<g id="a_edge30_Node000020_Node000022"><a xlink:title=" ">
<path fill="none" stroke="#63b8ff" d="M899.28,-187.93C894.21,-179.63 886.49,-167.02 880.09,-156.55"/>
<polygon fill="#63b8ff" stroke="#63b8ff" points="883.26,-155.02 875.06,-148.32 877.29,-158.67 883.26,-155.02"/>
</a>
</g>
</g>
<!-- Node22&#45;&gt;Node2 -->
<g id="edge32_Node000022_Node000002" class="edge">
<title>Node22&#45;&gt;Node2</title>
<g id="a_edge32_Node000022_Node000002"><a xlink:title=" ">
<path fill="none" stroke="#63b8ff" d="M853.18,-127.03C834.89,-116.5 804.29,-98.88 782.47,-86.31"/>
<polygon fill="#63b8ff" stroke="#63b8ff" points="784.28,-83.31 773.86,-81.36 780.78,-89.38 784.28,-83.31"/>
</a>
</g>
</g>
<!-- Node22&#45;&gt;Node3 -->
<g id="edge31_Node000022_Node000003" class="edge">
<title>Node22&#45;&gt;Node3</title>
<g id="a_edge31_Node000022_Node000003"><a xlink:title=" ">
<path fill="none" stroke="#63b8ff" d="M884.74,-127.03C903.6,-116.45 935.22,-98.72 957.65,-86.14"/>
<polygon fill="#63b8ff" stroke="#63b8ff" points="959.2,-89.29 966.2,-81.34 955.77,-83.18 959.2,-89.29"/>
</a>
</g>
</g>
<!-- Node23 -->
<g id="Node000023" class="node">
<title>Node23</title>
<g id="a_Node000023"><a xlink:title=" ">
<polygon fill="#e0e0e0" stroke="#999999" points="894.38,-80.12 843.12,-80.12 843.12,-60.88 894.38,-60.88 894.38,-80.12"/>
<text text-anchor="middle" x="868.75" y="-66.62" font-family="Helvetica,sans-Serif" font-size="10.00">memory</text>
</a>
</g>
</g>
<!-- Node22&#45;&gt;Node23 -->
<g id="edge33_Node000022_Node000023" class="edge">
<title>Node22&#45;&gt;Node23</title>
<g id="a_edge33_Node000022_Node000023"><a xlink:title=" ">
<path fill="none" stroke="#63b8ff" d="M868.75,-127.03C868.75,-117.98 868.75,-103.7 868.75,-91.88"/>
<polygon fill="#63b8ff" stroke="#63b8ff" points="872.25,-91.91 868.75,-81.91 865.25,-91.91 872.25,-91.91"/>
</a>
</g>
</g>
<!-- Node24&#45;&gt;Node2 -->
<g id="edge38_Node000024_Node000002" class="edge">
<title>Node24&#45;&gt;Node2</title>
<g id="a_edge38_Node000024_Node000002"><a xlink:title=" ">
<path fill="none" stroke="#63b8ff" d="M1218.29,-129.28C1111.95,-118.25 906.26,-96.49 833.75,-85.75 819.29,-83.61 803.4,-80.75 789.82,-78.16"/>
<polygon fill="#63b8ff" stroke="#63b8ff" points="790.56,-74.74 780.07,-76.26 789.22,-81.61 790.56,-74.74"/>
</a>
</g>
</g>
<!-- Node24&#45;&gt;Node3 -->
<g id="edge39_Node000024_Node000003" class="edge">
<title>Node24&#45;&gt;Node3</title>
<g id="a_edge39_Node000024_Node000003"><a xlink:title=" ">
<path fill="none" stroke="#63b8ff" d="M1218.28,-124.21C1146.38,-111.15 1038.57,-91.21 1019.75,-85.75 1018.14,-85.28 1016.49,-84.77 1014.84,-84.22"/>
<polygon fill="#63b8ff" stroke="#63b8ff" points="1016.09,-80.95 1005.5,-80.84 1013.71,-87.54 1016.09,-80.95"/>
</a>
</g>
</g>
<!-- Node24&#45;&gt;Node15 -->
<g id="edge37_Node000024_Node000015" class="edge">
<title>Node24&#45;&gt;Node15</title>
<g id="a_edge37_Node000024_Node000015"><a xlink:title=" ">
<path fill="none" stroke="#63b8ff" d="M1218.42,-123.19C1155.83,-110.69 1068.72,-92.57 1053.75,-85.75 1033.08,-76.34 1033.8,-63.76 1012.75,-55.25 958.19,-33.18 786.4,-18.8 708.2,-13.23"/>
<polygon fill="#63b8ff" stroke="#63b8ff" points="708.66,-9.75 698.44,-12.55 708.17,-16.74 708.66,-9.75"/>
</a>
</g>
</g>
<!-- Node25 -->
<g id="Node000025" class="node">
<title>Node25</title>
<g id="a_Node000025"><a xlink:href="../../db/d53/Word_8hpp.html" target="_top" xlink:title="Describe an instruction and its immediate argument.">
<polygon fill="white" stroke="#666666" points="1192.75,-85.75 1062.75,-85.75 1062.75,-55.25 1192.75,-55.25 1192.75,-85.75"/>
<text text-anchor="start" x="1070.75" y="-72.25" font-family="Helvetica,sans-Serif" font-size="10.00">Ark/Compiler/Intermediate</text>
<text text-anchor="middle" x="1127.75" y="-61" font-family="Helvetica,sans-Serif" font-size="10.00">Representation/Word.hpp</text>
</a>
</g>
</g>
<!-- Node24&#45;&gt;Node25 -->
<g id="edge40_Node000024_Node000025" class="edge">
<title>Node24&#45;&gt;Node25</title>
<g id="a_edge40_Node000024_Node000025"><a xlink:title=" ">
<path fill="none" stroke="#63b8ff" d="M1248.35,-121.36C1226.29,-112.24 1197.67,-100.41 1173.85,-90.56"/>
<polygon fill="#63b8ff" stroke="#63b8ff" points="1175.26,-87.35 1164.68,-86.77 1172.58,-93.82 1175.26,-87.35"/>
</a>
</g>
</g>
<!-- Node26 -->
<g id="Node000026" class="node">
<title>Node26</title>
<g id="a_Node000026"><a xlink:href="../../d8/daa/Instructions_8hpp.html" target="_top" xlink:title="The different instructions used by the compiler and virtual machine.">
<polygon fill="white" stroke="#666666" points="1356.62,-80.12 1210.88,-80.12 1210.88,-60.88 1356.62,-60.88 1356.62,-80.12"/>
<text text-anchor="middle" x="1283.75" y="-66.62" font-family="Helvetica,sans-Serif" font-size="10.00">Ark/Compiler/Instructions.hpp</text>
</a>
</g>
</g>
<!-- Node24&#45;&gt;Node26 -->
<g id="edge41_Node000024_Node000026" class="edge">
<title>Node24&#45;&gt;Node26</title>
<g id="a_edge41_Node000024_Node000026"><a xlink:title=" ">
<path fill="none" stroke="#63b8ff" d="M1283.75,-121.36C1283.75,-112.58 1283.75,-101.27 1283.75,-91.65"/>
<polygon fill="#63b8ff" stroke="#63b8ff" points="1287.25,-91.84 1283.75,-81.84 1280.25,-91.84 1287.25,-91.84"/>
</a>
</g>
</g>
<!-- Node26&#45;&gt;Node13 -->
<g id="edge42_Node000026_Node000013" class="edge">
<title>Node26&#45;&gt;Node13</title>
<g id="a_edge42_Node000026_Node000013"><a xlink:title=" ">
<path fill="none" stroke="#63b8ff" d="M1241.38,-60.43C1185.43,-48.45 1088.25,-27.65 1039.09,-17.12"/>
<polygon fill="#63b8ff" stroke="#63b8ff" points="1039.95,-13.73 1029.44,-15.06 1038.49,-20.57 1039.95,-13.73"/>
</a>
</g>
</g>
</g>
</svg>
