<?xml version="1.0" encoding="UTF-8" standalone="no"?>
<!DOCTYPE svg PUBLIC "-//W3C//DTD SVG 1.1//EN"
 "http://www.w3.org/Graphics/SVG/1.1/DTD/svg11.dtd">
<!-- Generated by graphviz version 12.2.0 (20241103.1931)
 -->
<!-- Title: /Users/fola/Documents/ArkScript/Ark/include/Ark/Compiler/IntermediateRepresentation/IRCompiler.hpp Pages: 1 -->
<svg width="1734pt" height="360pt"
 viewBox="0.00 0.00 1733.58 359.75" xmlns="http://www.w3.org/2000/svg" xmlns:xlink="http://www.w3.org/1999/xlink">
<g id="graph0" class="graph" transform="scale(1 1) rotate(0) translate(4 355.75)">
<title>/Users/fola/Documents/ArkScript/Ark/include/Ark/Compiler/IntermediateRepresentation/IRCompiler.hpp</title>
<!-- Node1 -->
<g id="Node000001" class="node">
<title>Node1</title>
<g id="a_Node000001"><a xlink:title="Compile the intermediate representation to bytecode.">
<polygon fill="#999999" stroke="#666666" points="950.71,-351.75 751.71,-351.75 751.71,-298.75 950.71,-298.75 950.71,-351.75"/>
<text text-anchor="start" x="759.71" y="-338.25" font-family="Helvetica,sans-Serif" font-size="10.00">/Users/fola/Documents</text>
<text text-anchor="start" x="759.71" y="-327" font-family="Helvetica,sans-Serif" font-size="10.00">/ArkScript/Ark/include</text>
<text text-anchor="start" x="759.71" y="-315.75" font-family="Helvetica,sans-Serif" font-size="10.00">/Ark/Compiler/IntermediateRepresentation</text>
<text text-anchor="middle" x="851.21" y="-304.5" font-family="Helvetica,sans-Serif" font-size="10.00">/IRCompiler.hpp</text>
</a>
</g>
</g>
<!-- Node2 -->
<g id="Node000002" class="node">
<title>Node2</title>
<g id="a_Node000002"><a xlink:title=" ">
<polygon fill="#e0e0e0" stroke="#999999" points="600.71,-80.12 557.71,-80.12 557.71,-60.88 600.71,-60.88 600.71,-80.12"/>
<text text-anchor="middle" x="579.21" y="-66.62" font-family="Helvetica,sans-Serif" font-size="10.00">vector</text>
</a>
</g>
</g>
<!-- Node1&#45;&gt;Node2 -->
<g id="edge1_Node000001_Node000002" class="edge">
<title>Node1&#45;&gt;Node2</title>
<g id="a_edge1_Node000001_Node000002"><a xlink:title=" ">
<path fill="none" stroke="#63b8ff" d="M763.11,-298.35C694.84,-273.12 604.92,-227.37 562.21,-152.25 551.29,-133.04 559.7,-107.67 568.11,-90.54"/>
<polygon fill="#63b8ff" stroke="#63b8ff" points="571.07,-92.41 572.72,-81.94 564.9,-89.1 571.07,-92.41"/>
</a>
</g>
</g>
<!-- Node3 -->
<g id="Node000003" class="node">
<title>Node3</title>
<g id="a_Node000003"><a xlink:title=" ">
<polygon fill="#e0e0e0" stroke="#999999" points="822.21,-80.12 782.21,-80.12 782.21,-60.88 822.21,-60.88 822.21,-80.12"/>
<text text-anchor="middle" x="802.21" y="-66.62" font-family="Helvetica,sans-Serif" font-size="10.00">string</text>
</a>
</g>
</g>
<!-- Node1&#45;&gt;Node3 -->
<g id="edge2_Node000001_Node000003" class="edge">
<title>Node1&#45;&gt;Node3</title>
<g id="a_edge2_Node000001_Node000003"><a xlink:title=" ">
<path fill="none" stroke="#63b8ff" d="M834.52,-298.25C828.45,-287.63 822.12,-274.98 818.21,-262.75 799.06,-202.82 799.46,-127.26 800.98,-91.72"/>
<polygon fill="#63b8ff" stroke="#63b8ff" points="804.46,-92.22 801.48,-82.06 797.47,-91.86 804.46,-92.22"/>
</a>
</g>
</g>
<!-- Node4 -->
<g id="Node000004" class="node">
<title>Node4</title>
<g id="a_Node000004"><a xlink:href="../../d5/d40/Platform_8hpp.html" target="_top" xlink:title="ArkScript configuration macros.">
<polygon fill="white" stroke="#666666" points="1125.58,-80.12 1012.83,-80.12 1012.83,-60.88 1125.58,-60.88 1125.58,-80.12"/>
<text text-anchor="middle" x="1069.21" y="-66.62" font-family="Helvetica,sans-Serif" font-size="10.00">Ark/Utils/Platform.hpp</text>
</a>
</g>
</g>
<!-- Node1&#45;&gt;Node4 -->
<g id="edge3_Node000001_Node000004" class="edge">
<title>Node1&#45;&gt;Node4</title>
<g id="a_edge3_Node000001_Node000004"><a xlink:title=" ">
<path fill="none" stroke="#63b8ff" d="M951.17,-309.04C1057.73,-290.54 1216.03,-255.71 1252.21,-207.5 1268.07,-186.37 1262.49,-151.59 1233.21,-121.75 1224.8,-113.18 1161.86,-95.45 1116.46,-83.52"/>
<polygon fill="#63b8ff" stroke="#63b8ff" points="1117.36,-80.14 1106.8,-81 1115.59,-86.91 1117.36,-80.14"/>
</a>
</g>
</g>
<!-- Node5 -->
<g id="Node000005" class="node">
<title>Node5</title>
<g id="a_Node000005"><a xlink:href="../../d9/d11/Logger_8hpp.html" target="_top" xlink:title="Internal logger.">
<polygon fill="white" stroke="#666666" points="1406.46,-146.62 1301.96,-146.62 1301.96,-127.38 1406.46,-127.38 1406.46,-146.62"/>
<text text-anchor="middle" x="1354.21" y="-133.12" font-family="Helvetica,sans-Serif" font-size="10.00">Ark/Utils/Logger.hpp</text>
</a>
</g>
</g>
<!-- Node1&#45;&gt;Node5 -->
<g id="edge4_Node000001_Node000005" class="edge">
<title>Node1&#45;&gt;Node5</title>
<g id="a_edge4_Node000001_Node000005"><a xlink:title=" ">
<path fill="none" stroke="#63b8ff" d="M950.95,-320.6C1062.77,-314.74 1235.38,-299.83 1288.21,-262.75 1324.2,-237.49 1342.16,-186.35 1349.69,-158.02"/>
<polygon fill="#63b8ff" stroke="#63b8ff" points="1353.02,-159.12 1352.01,-148.57 1346.22,-157.45 1353.02,-159.12"/>
</a>
</g>
</g>
<!-- Node13 -->
<g id="Node000013" class="node">
<title>Node13</title>
<g id="a_Node000013"><a xlink:href="../../d8/ddd/Common_8hpp.html" target="_top" xlink:title="Common code for the compiler.">
<polygon fill="white" stroke="#666666" points="491.46,-146.62 356.96,-146.62 356.96,-127.38 491.46,-127.38 491.46,-146.62"/>
<text text-anchor="middle" x="424.21" y="-133.12" font-family="Helvetica,sans-Serif" font-size="10.00">Ark/Compiler/Common.hpp</text>
</a>
</g>
</g>
<!-- Node1&#45;&gt;Node13 -->
<g id="edge15_Node000001_Node000013" class="edge">
<title>Node1&#45;&gt;Node13</title>
<g id="a_edge15_Node000001_Node000013"><a xlink:title=" ">
<path fill="none" stroke="#63b8ff" d="M751.38,-315.38C663.91,-306.02 544.75,-288.96 505.21,-262.75 466.41,-237.03 442.09,-185.68 431.1,-157.55"/>
<polygon fill="#63b8ff" stroke="#63b8ff" points="434.49,-156.63 427.73,-148.47 427.93,-159.07 434.49,-156.63"/>
</a>
</g>
</g>
<!-- Node20 -->
<g id="Node000020" class="node">
<title>Node20</title>
<g id="a_Node000020"><a xlink:href="../../df/d5f/Pass_8hpp.html" target="_top" xlink:title="Interface for a compiler pass.">
<polygon fill="white" stroke="#666666" points="1242.83,-207.5 1125.58,-207.5 1125.58,-188.25 1242.83,-188.25 1242.83,-207.5"/>
<text text-anchor="middle" x="1184.21" y="-194" font-family="Helvetica,sans-Serif" font-size="10.00">Ark/Compiler/Pass.hpp</text>
</a>
</g>
</g>
<!-- Node1&#45;&gt;Node20 -->
<g id="edge25_Node000001_Node000020" class="edge">
<title>Node1&#45;&gt;Node20</title>
<g id="a_edge25_Node000001_Node000020"><a xlink:title=" ">
<path fill="none" stroke="#63b8ff" d="M920.21,-298.27C990.1,-271.96 1095.4,-232.31 1149.46,-211.96"/>
<polygon fill="#63b8ff" stroke="#63b8ff" points="1150.65,-215.25 1158.77,-208.45 1148.18,-208.7 1150.65,-215.25"/>
</a>
</g>
</g>
<!-- Node22 -->
<g id="Node000022" class="node">
<title>Node22</title>
<g id="a_Node000022"><a xlink:href="../../dd/de7/ValTableElem_8hpp.html" target="_top" xlink:title="The basic value type handled by the compiler.">
<polygon fill="white" stroke="#666666" points="981.21,-262.75 827.21,-262.75 827.21,-243.5 981.21,-243.5 981.21,-262.75"/>
<text text-anchor="middle" x="904.21" y="-249.25" font-family="Helvetica,sans-Serif" font-size="10.00">Ark/Compiler/ValTableElem.hpp</text>
</a>
</g>
</g>
<!-- Node1&#45;&gt;Node22 -->
<g id="edge29_Node000001_Node000022" class="edge">
<title>Node1&#45;&gt;Node22</title>
<g id="a_edge29_Node000001_Node000022"><a xlink:title=" ">
<path fill="none" stroke="#63b8ff" d="M870.64,-298.54C877.21,-289.85 884.4,-280.34 890.43,-272.36"/>
<polygon fill="#63b8ff" stroke="#63b8ff" points="893.17,-274.53 896.41,-264.44 887.59,-270.31 893.17,-274.53"/>
</a>
</g>
</g>
<!-- Node29 -->
<g id="Node000029" class="node">
<title>Node29</title>
<g id="a_Node000029"><a xlink:href="../../de/da6/Entity_8hpp.html" target="_top" xlink:title="An entity in the IR is a bundle of information.">
<polygon fill="white" stroke="#666666" points="339.21,-152.25 209.21,-152.25 209.21,-121.75 339.21,-121.75 339.21,-152.25"/>
<text text-anchor="start" x="217.21" y="-138.75" font-family="Helvetica,sans-Serif" font-size="10.00">Ark/Compiler/Intermediate</text>
<text text-anchor="middle" x="274.21" y="-127.5" font-family="Helvetica,sans-Serif" font-size="10.00">Representation/Entity.hpp</text>
</a>
</g>
</g>
<!-- Node1&#45;&gt;Node29 -->
<g id="edge47_Node000001_Node000029" class="edge">
<title>Node1&#45;&gt;Node29</title>
<g id="a_edge47_Node000001_Node000029"><a xlink:title=" ">
<path fill="none" stroke="#63b8ff" d="M751.45,-318.14C674.98,-311 567.89,-295.65 479.21,-262.75 410.43,-237.23 339.29,-187.8 301.57,-159.42"/>
<polygon fill="#63b8ff" stroke="#63b8ff" points="304,-156.88 293.92,-153.61 299.76,-162.45 304,-156.88"/>
</a>
</g>
</g>
<!-- Node5&#45;&gt;Node2 -->
<g id="edge12_Node000005_Node000002" class="edge">
<title>Node5&#45;&gt;Node2</title>
<g id="a_edge12_Node000005_Node000002"><a xlink:title=" ">
<path fill="none" stroke="#63b8ff" d="M1301.56,-130C1276.1,-127.24 1245.09,-124.06 1217.21,-121.75 958.93,-100.34 891.24,-125.88 635.21,-85.75 627.64,-84.56 619.6,-82.82 612.05,-80.95"/>
<polygon fill="#63b8ff" stroke="#63b8ff" points="613.11,-77.61 602.55,-78.46 611.34,-84.38 613.11,-77.61"/>
</a>
</g>
</g>
<!-- Node5&#45;&gt;Node3 -->
<g id="edge9_Node000005_Node000003" class="edge">
<title>Node5&#45;&gt;Node3</title>
<g id="a_edge9_Node000005_Node000003"><a xlink:title=" ">
<path fill="none" stroke="#63b8ff" d="M1301.6,-130.45C1198.92,-119.59 975.12,-95.69 898.21,-85.75 876.59,-82.95 852.29,-79.34 833.56,-76.46"/>
<polygon fill="#63b8ff" stroke="#63b8ff" points="834.32,-73.03 823.9,-74.96 833.25,-79.95 834.32,-73.03"/>
</a>
</g>
</g>
<!-- Node5&#45;&gt;Node4 -->
<g id="edge14_Node000005_Node000004" class="edge">
<title>Node5&#45;&gt;Node4</title>
<g id="a_edge14_Node000005_Node000004"><a xlink:title=" ">
<path fill="none" stroke="#63b8ff" d="M1313.98,-126.9C1263.16,-115.4 1175.67,-95.59 1120.22,-83.04"/>
<polygon fill="#63b8ff" stroke="#63b8ff" points="1121.24,-79.69 1110.71,-80.89 1119.69,-86.51 1121.24,-79.69"/>
</a>
</g>
</g>
<!-- Node6 -->
<g id="Node000006" class="node">
<title>Node6</title>
<g id="a_Node000006"><a xlink:title=" ">
<polygon fill="#e0e0e0" stroke="#999999" points="1463.96,-80.12 1410.46,-80.12 1410.46,-60.88 1463.96,-60.88 1463.96,-80.12"/>
<text text-anchor="middle" x="1437.21" y="-66.62" font-family="Helvetica,sans-Serif" font-size="10.00">iostream</text>
</a>
</g>
</g>
<!-- Node5&#45;&gt;Node6 -->
<g id="edge5_Node000005_Node000006" class="edge">
<title>Node5&#45;&gt;Node6</title>
<g id="a_edge5_Node000005_Node000006"><a xlink:title=" ">
<path fill="none" stroke="#63b8ff" d="M1365.75,-127.03C1378.93,-116.79 1400.75,-99.84 1416.81,-87.35"/>
<polygon fill="#63b8ff" stroke="#63b8ff" points="1418.56,-90.43 1424.3,-81.53 1414.26,-84.9 1418.56,-90.43"/>
</a>
</g>
</g>
<!-- Node7 -->
<g id="Node000007" class="node">
<title>Node7</title>
<g id="a_Node000007"><a xlink:title=" ">
<polygon fill="#e0e0e0" stroke="#999999" points="1550.83,-80.12 1481.58,-80.12 1481.58,-60.88 1550.83,-60.88 1550.83,-80.12"/>
<text text-anchor="middle" x="1516.21" y="-66.62" font-family="Helvetica,sans-Serif" font-size="10.00">fmt/format.h</text>
</a>
</g>
</g>
<!-- Node5&#45;&gt;Node7 -->
<g id="edge6_Node000005_Node000007" class="edge">
<title>Node5&#45;&gt;Node7</title>
<g id="a_edge6_Node000005_Node000007"><a xlink:title=" ">
<path fill="none" stroke="#63b8ff" d="M1377.08,-126.9C1404.7,-115.9 1451.37,-97.31 1482.97,-84.74"/>
<polygon fill="#63b8ff" stroke="#63b8ff" points="1484.06,-88.07 1492.05,-81.12 1481.47,-81.57 1484.06,-88.07"/>
</a>
</g>
</g>
<!-- Node8 -->
<g id="Node000008" class="node">
<title>Node8</title>
<g id="a_Node000008"><a xlink:title=" ">
<polygon fill="#e0e0e0" stroke="#999999" points="1631.08,-80.12 1569.33,-80.12 1569.33,-60.88 1631.08,-60.88 1631.08,-80.12"/>
<text text-anchor="middle" x="1600.21" y="-66.62" font-family="Helvetica,sans-Serif" font-size="10.00">fmt/color.h</text>
</a>
</g>
</g>
<!-- Node5&#45;&gt;Node8 -->
<g id="edge7_Node000005_Node000008" class="edge">
<title>Node5&#45;&gt;Node8</title>
<g id="a_edge7_Node000005_Node000008"><a xlink:title=" ">
<path fill="none" stroke="#63b8ff" d="M1397.16,-126.88C1439.08,-117.66 1504.49,-102.42 1560.21,-85.75 1561.92,-85.24 1563.67,-84.69 1565.44,-84.13"/>
<polygon fill="#63b8ff" stroke="#63b8ff" points="1566.43,-87.49 1574.79,-80.98 1564.2,-80.85 1566.43,-87.49"/>
</a>
</g>
</g>
<!-- Node9 -->
<g id="Node000009" class="node">
<title>Node9</title>
<g id="a_Node000009"><a xlink:title=" ">
<polygon fill="#e0e0e0" stroke="#999999" points="1725.58,-80.12 1648.83,-80.12 1648.83,-60.88 1725.58,-60.88 1725.58,-80.12"/>
<text text-anchor="middle" x="1687.21" y="-66.62" font-family="Helvetica,sans-Serif" font-size="10.00">fmt/ostream.h</text>
</a>
</g>
</g>
<!-- Node5&#45;&gt;Node9 -->
<g id="edge8_Node000005_Node000009" class="edge">
<title>Node5&#45;&gt;Node9</title>
<g id="a_edge8_Node000005_Node000009"><a xlink:title=" ">
<path fill="none" stroke="#63b8ff" d="M1406.79,-128.7C1464.45,-120.25 1559.54,-104.99 1640.21,-85.75 1642.97,-85.09 1645.8,-84.36 1648.65,-83.6"/>
<polygon fill="#63b8ff" stroke="#63b8ff" points="1649.41,-87.02 1658.07,-80.91 1647.49,-80.29 1649.41,-87.02"/>
</a>
</g>
</g>
<!-- Node10 -->
<g id="Node000010" class="node">
<title>Node10</title>
<g id="a_Node000010"><a xlink:title=" ">
<polygon fill="#e0e0e0" stroke="#999999" points="1188.83,-80.12 1143.58,-80.12 1143.58,-60.88 1188.83,-60.88 1188.83,-80.12"/>
<text text-anchor="middle" x="1166.21" y="-66.62" font-family="Helvetica,sans-Serif" font-size="10.00">chrono</text>
</a>
</g>
</g>
<!-- Node5&#45;&gt;Node10 -->
<g id="edge10_Node000005_Node000010" class="edge">
<title>Node5&#45;&gt;Node10</title>
<g id="a_edge10_Node000005_Node000010"><a xlink:title=" ">
<path fill="none" stroke="#63b8ff" d="M1322.79,-126.96C1291.04,-117.58 1240.73,-102.01 1198.21,-85.75 1197.57,-85.51 1196.93,-85.26 1196.28,-85"/>
<polygon fill="#63b8ff" stroke="#63b8ff" points="1197.67,-81.79 1187.1,-81.16 1194.97,-88.25 1197.67,-81.79"/>
</a>
</g>
</g>
<!-- Node11 -->
<g id="Node000011" class="node">
<title>Node11</title>
<g id="a_Node000011"><a xlink:title=" ">
<polygon fill="#e0e0e0" stroke="#999999" points="1291.33,-80.12 1207.08,-80.12 1207.08,-60.88 1291.33,-60.88 1291.33,-80.12"/>
<text text-anchor="middle" x="1249.21" y="-66.62" font-family="Helvetica,sans-Serif" font-size="10.00">source_location</text>
</a>
</g>
</g>
<!-- Node5&#45;&gt;Node11 -->
<g id="edge11_Node000005_Node000011" class="edge">
<title>Node5&#45;&gt;Node11</title>
<g id="a_edge11_Node000005_Node000011"><a xlink:title=" ">
<path fill="none" stroke="#63b8ff" d="M1339.61,-127.03C1322.55,-116.55 1294.04,-99.04 1273.6,-86.48"/>
<polygon fill="#63b8ff" stroke="#63b8ff" points="1275.67,-83.64 1265.31,-81.39 1272,-89.61 1275.67,-83.64"/>
</a>
</g>
</g>
<!-- Node12 -->
<g id="Node000012" class="node">
<title>Node12</title>
<g id="a_Node000012"><a xlink:title=" ">
<polygon fill="#e0e0e0" stroke="#999999" points="1392.58,-80.12 1309.83,-80.12 1309.83,-60.88 1392.58,-60.88 1392.58,-80.12"/>
<text text-anchor="middle" x="1351.21" y="-66.62" font-family="Helvetica,sans-Serif" font-size="10.00">unordered_map</text>
</a>
</g>
</g>
<!-- Node5&#45;&gt;Node12 -->
<g id="edge13_Node000005_Node000012" class="edge">
<title>Node5&#45;&gt;Node12</title>
<g id="a_edge13_Node000005_Node000012"><a xlink:title=" ">
<path fill="none" stroke="#63b8ff" d="M1353.79,-127.03C1353.37,-117.98 1352.71,-103.7 1352.16,-91.88"/>
<polygon fill="#63b8ff" stroke="#63b8ff" points="1355.65,-91.73 1351.69,-81.9 1348.66,-92.06 1355.65,-91.73"/>
</a>
</g>
</g>
<!-- Node13&#45;&gt;Node2 -->
<g id="edge18_Node000013_Node000002" class="edge">
<title>Node13&#45;&gt;Node2</title>
<g id="a_edge18_Node000013_Node000002"><a xlink:title=" ">
<path fill="none" stroke="#63b8ff" d="M446.09,-126.9C472.4,-115.95 516.78,-97.48 547.01,-84.9"/>
<polygon fill="#63b8ff" stroke="#63b8ff" points="548.16,-88.21 556.04,-81.14 545.47,-81.75 548.16,-88.21"/>
</a>
</g>
</g>
<!-- Node14 -->
<g id="Node000014" class="node">
<title>Node14</title>
<g id="a_Node000014"><a xlink:title=" ">
<polygon fill="#e0e0e0" stroke="#999999" points="320.08,-19.25 282.33,-19.25 282.33,0 320.08,0 320.08,-19.25"/>
<text text-anchor="middle" x="301.21" y="-5.75" font-family="Helvetica,sans-Serif" font-size="10.00">array</text>
</a>
</g>
</g>
<!-- Node13&#45;&gt;Node14 -->
<g id="edge16_Node000013_Node000014" class="edge">
<title>Node13&#45;&gt;Node14</title>
<g id="a_edge16_Node000013_Node000014"><a xlink:title=" ">
<path fill="none" stroke="#63b8ff" d="M417.57,-127.04C405.94,-111.62 380.8,-79.39 356.21,-55.25 345.73,-44.96 333.06,-34.56 322.52,-26.39"/>
<polygon fill="#63b8ff" stroke="#63b8ff" points="324.85,-23.76 314.77,-20.5 320.61,-29.34 324.85,-23.76"/>
</a>
</g>
</g>
<!-- Node15 -->
<g id="Node000015" class="node">
<title>Node15</title>
<g id="a_Node000015"><a xlink:title=" ">
<polygon fill="#e0e0e0" stroke="#999999" points="559.96,-19.25 494.46,-19.25 494.46,0 559.96,0 559.96,-19.25"/>
<text text-anchor="middle" x="527.21" y="-5.75" font-family="Helvetica,sans-Serif" font-size="10.00">string_view</text>
</a>
</g>
</g>
<!-- Node13&#45;&gt;Node15 -->
<g id="edge17_Node000013_Node000015" class="edge">
<title>Node13&#45;&gt;Node15</title>
<g id="a_edge17_Node000013_Node000015"><a xlink:title=" ">
<path fill="none" stroke="#63b8ff" d="M451.14,-126.93C470.47,-119.04 495.6,-105.7 510.21,-85.75 521.93,-69.75 525.78,-47.07 526.94,-30.82"/>
<polygon fill="#63b8ff" stroke="#63b8ff" points="530.43,-31.06 527.33,-20.93 523.44,-30.78 530.43,-31.06"/>
</a>
</g>
</g>
<!-- Node16 -->
<g id="Node000016" class="node">
<title>Node16</title>
<g id="a_Node000016"><a xlink:title=" ">
<polygon fill="#e0e0e0" stroke="#999999" points="155.08,-19.25 99.33,-19.25 99.33,0 155.08,0 155.08,-19.25"/>
<text text-anchor="middle" x="127.21" y="-5.75" font-family="Helvetica,sans-Serif" font-size="10.00">cinttypes</text>
</a>
</g>
</g>
<!-- Node13&#45;&gt;Node16 -->
<g id="edge19_Node000013_Node000016" class="edge">
<title>Node13&#45;&gt;Node16</title>
<g id="a_edge19_Node000013_Node000016"><a xlink:title=" ">
<path fill="none" stroke="#63b8ff" d="M378.74,-126.92C313.51,-113.79 200.25,-90.52 192.21,-85.75 168.87,-71.9 149.67,-46.7 138.33,-29.33"/>
<polygon fill="#63b8ff" stroke="#63b8ff" points="141.39,-27.61 133.12,-20.98 135.45,-31.32 141.39,-27.61"/>
</a>
</g>
</g>
<!-- Node17 -->
<g id="Node000017" class="node">
<title>Node17</title>
<g id="a_Node000017"><a xlink:href="../../d6/de9/Constants_8hpp.html" target="_top" xlink:title="Constants used by ArkScript.">
<polygon fill="white" stroke="#666666" points="501.08,-80.12 403.33,-80.12 403.33,-60.88 501.08,-60.88 501.08,-80.12"/>
<text text-anchor="middle" x="452.21" y="-66.62" font-family="Helvetica,sans-Serif" font-size="10.00">Ark/Constants.hpp</text>
</a>
</g>
</g>
<!-- Node13&#45;&gt;Node17 -->
<g id="edge20_Node000013_Node000017" class="edge">
<title>Node13&#45;&gt;Node17</title>
<g id="a_edge20_Node000013_Node000017"><a xlink:title=" ">
<path fill="none" stroke="#63b8ff" d="M428.1,-127.03C432.16,-117.69 438.63,-102.78 443.85,-90.76"/>
<polygon fill="#63b8ff" stroke="#63b8ff" points="446.98,-92.35 447.75,-81.78 440.55,-89.56 446.98,-92.35"/>
</a>
</g>
</g>
<!-- Node17&#45;&gt;Node15 -->
<g id="edge21_Node000017_Node000015" class="edge">
<title>Node17&#45;&gt;Node15</title>
<g id="a_edge21_Node000017_Node000015"><a xlink:title=" ">
<path fill="none" stroke="#63b8ff" d="M463.6,-60.56C475.05,-51.57 492.96,-37.51 506.86,-26.6"/>
<polygon fill="#63b8ff" stroke="#63b8ff" points="508.82,-29.51 514.52,-20.59 504.49,-24.01 508.82,-29.51"/>
</a>
</g>
</g>
<!-- Node17&#45;&gt;Node16 -->
<g id="edge23_Node000017_Node000016" class="edge">
<title>Node17&#45;&gt;Node16</title>
<g id="a_edge23_Node000017_Node000016"><a xlink:title=" ">
<path fill="none" stroke="#63b8ff" d="M402.85,-60.56C338.09,-48.83 225.74,-28.47 166.45,-17.73"/>
<polygon fill="#63b8ff" stroke="#63b8ff" points="167.28,-14.33 156.82,-15.99 166.04,-21.22 167.28,-14.33"/>
</a>
</g>
</g>
<!-- Node18 -->
<g id="Node000018" class="node">
<title>Node18</title>
<g id="a_Node000018"><a xlink:title=" ">
<polygon fill="#e0e0e0" stroke="#999999" points="473.83,-19.25 434.58,-19.25 434.58,0 473.83,0 473.83,-19.25"/>
<text text-anchor="middle" x="454.21" y="-5.75" font-family="Helvetica,sans-Serif" font-size="10.00">limits</text>
</a>
</g>
</g>
<!-- Node17&#45;&gt;Node18 -->
<g id="edge22_Node000017_Node000018" class="edge">
<title>Node17&#45;&gt;Node18</title>
<g id="a_edge22_Node000017_Node000018"><a xlink:title=" ">
<path fill="none" stroke="#63b8ff" d="M452.51,-60.56C452.78,-52.69 453.18,-40.95 453.52,-30.82"/>
<polygon fill="#63b8ff" stroke="#63b8ff" points="457.01,-31.28 453.85,-21.16 450.01,-31.04 457.01,-31.28"/>
</a>
</g>
</g>
<!-- Node19 -->
<g id="Node000019" class="node">
<title>Node19</title>
<g id="a_Node000019"><a xlink:title=" ">
<polygon fill="#e0e0e0" stroke="#999999" points="416.33,-19.25 368.08,-19.25 368.08,0 416.33,0 416.33,-19.25"/>
<text text-anchor="middle" x="392.21" y="-5.75" font-family="Helvetica,sans-Serif" font-size="10.00">cstddef</text>
</a>
</g>
</g>
<!-- Node17&#45;&gt;Node19 -->
<g id="edge24_Node000017_Node000019" class="edge">
<title>Node17&#45;&gt;Node19</title>
<g id="a_edge24_Node000017_Node000019"><a xlink:title=" ">
<path fill="none" stroke="#63b8ff" d="M443.1,-60.56C434.2,-51.83 420.43,-38.32 409.46,-27.55"/>
<polygon fill="#63b8ff" stroke="#63b8ff" points="412.08,-25.22 402.49,-20.71 407.17,-30.21 412.08,-25.22"/>
</a>
</g>
</g>
<!-- Node20&#45;&gt;Node4 -->
<g id="edge26_Node000020_Node000004" class="edge">
<title>Node20&#45;&gt;Node4</title>
<g id="a_edge26_Node000020_Node000004"><a xlink:title=" ">
<path fill="none" stroke="#63b8ff" d="M1193.72,-187.93C1208.23,-173.19 1232.64,-143.29 1217.21,-121.75 1210.89,-112.94 1154.76,-95.54 1113.49,-83.71"/>
<polygon fill="#63b8ff" stroke="#63b8ff" points="1114.59,-80.39 1104.02,-81.02 1112.68,-87.12 1114.59,-80.39"/>
</a>
</g>
</g>
<!-- Node20&#45;&gt;Node5 -->
<g id="edge27_Node000020_Node000005" class="edge">
<title>Node20&#45;&gt;Node5</title>
<g id="a_edge27_Node000020_Node000005"><a xlink:title=" ">
<path fill="none" stroke="#63b8ff" d="M1210.4,-187.8C1238.98,-177.91 1284.95,-161.99 1317.2,-150.82"/>
<polygon fill="#63b8ff" stroke="#63b8ff" points="1318.26,-154.16 1326.56,-147.58 1315.97,-147.54 1318.26,-154.16"/>
</a>
</g>
</g>
<!-- Node21 -->
<g id="Node000021" class="node">
<title>Node21</title>
<g id="a_Node000021"><a xlink:title=" ">
<polygon fill="#e0e0e0" stroke="#999999" points="1207.83,-146.62 1156.58,-146.62 1156.58,-127.38 1207.83,-127.38 1207.83,-146.62"/>
<text text-anchor="middle" x="1182.21" y="-133.12" font-family="Helvetica,sans-Serif" font-size="10.00">ostream</text>
</a>
</g>
</g>
<!-- Node20&#45;&gt;Node21 -->
<g id="edge28_Node000020_Node000021" class="edge">
<title>Node20&#45;&gt;Node21</title>
<g id="a_edge28_Node000020_Node000021"><a xlink:title=" ">
<path fill="none" stroke="#63b8ff" d="M1183.91,-187.93C1183.64,-180.07 1183.24,-168.32 1182.9,-158.2"/>
<polygon fill="#63b8ff" stroke="#63b8ff" points="1186.41,-158.41 1182.57,-148.54 1179.41,-158.65 1186.41,-158.41"/>
</a>
</g>
</g>
<!-- Node22&#45;&gt;Node3 -->
<g id="edge31_Node000022_Node000003" class="edge">
<title>Node22&#45;&gt;Node3</title>
<g id="a_edge31_Node000022_Node000003"><a xlink:title=" ">
<path fill="none" stroke="#63b8ff" d="M884.66,-243.11C870.34,-235.54 851.5,-223.41 840.21,-207.5 814.86,-171.79 806.39,-119.69 803.58,-91.47"/>
<polygon fill="#63b8ff" stroke="#63b8ff" points="807.09,-91.51 802.77,-81.83 800.12,-92.09 807.09,-91.51"/>
</a>
</g>
</g>
<!-- Node23 -->
<g id="Node000023" class="node">
<title>Node23</title>
<g id="a_Node000023"><a xlink:title=" ">
<polygon fill="#e0e0e0" stroke="#999999" points="1138.83,-146.62 1093.58,-146.62 1093.58,-127.38 1138.83,-127.38 1138.83,-146.62"/>
<text text-anchor="middle" x="1116.21" y="-133.12" font-family="Helvetica,sans-Serif" font-size="10.00">variant</text>
</a>
</g>
</g>
<!-- Node22&#45;&gt;Node23 -->
<g id="edge30_Node000022_Node000023" class="edge">
<title>Node22&#45;&gt;Node23</title>
<g id="a_edge30_Node000022_Node000023"><a xlink:title=" ">
<path fill="none" stroke="#63b8ff" d="M924.64,-243.06C943.85,-234.39 973.31,-220.71 998.21,-207.5 1031.51,-189.84 1068.82,-167.39 1092.4,-152.87"/>
<polygon fill="#63b8ff" stroke="#63b8ff" points="1093.97,-156.02 1100.63,-147.78 1090.28,-150.07 1093.97,-156.02"/>
</a>
</g>
</g>
<!-- Node24 -->
<g id="Node000024" class="node">
<title>Node24</title>
<g id="a_Node000024"><a xlink:href="../../d7/dc6/Node_8hpp.html" target="_top" xlink:title="AST node used by the parser, optimizer and compiler.">
<polygon fill="white" stroke="#666666" points="989.46,-207.5 848.96,-207.5 848.96,-188.25 989.46,-188.25 989.46,-207.5"/>
<text text-anchor="middle" x="919.21" y="-194" font-family="Helvetica,sans-Serif" font-size="10.00">Ark/Compiler/AST/Node.hpp</text>
</a>
</g>
</g>
<!-- Node22&#45;&gt;Node24 -->
<g id="edge32_Node000022_Node000024" class="edge">
<title>Node22&#45;&gt;Node24</title>
<g id="a_edge32_Node000022_Node000024"><a xlink:title=" ">
<path fill="none" stroke="#63b8ff" d="M906.69,-243.33C908.56,-236.67 911.22,-227.24 913.6,-218.78"/>
<polygon fill="#63b8ff" stroke="#63b8ff" points="916.93,-219.89 916.27,-209.32 910.19,-217.99 916.93,-219.89"/>
</a>
</g>
</g>
<!-- Node24&#45;&gt;Node2 -->
<g id="edge36_Node000024_Node000002" class="edge">
<title>Node24&#45;&gt;Node2</title>
<g id="a_edge36_Node000024_Node000002"><a xlink:title=" ">
<path fill="none" stroke="#63b8ff" d="M848.8,-192.62C753.68,-186.14 593.89,-172.38 576.21,-152.25 561.77,-135.81 566.04,-109.44 571.58,-91.33"/>
<polygon fill="#63b8ff" stroke="#63b8ff" points="574.84,-92.6 574.81,-82.01 568.23,-90.31 574.84,-92.6"/>
</a>
</g>
</g>
<!-- Node24&#45;&gt;Node3 -->
<g id="edge35_Node000024_Node000003" class="edge">
<title>Node24&#45;&gt;Node3</title>
<g id="a_edge35_Node000024_Node000003"><a xlink:title=" ">
<path fill="none" stroke="#63b8ff" d="M910.8,-187.86C891.4,-167.08 843.29,-115.53 818.13,-88.56"/>
<polygon fill="#63b8ff" stroke="#63b8ff" points="820.96,-86.46 811.58,-81.54 815.84,-91.24 820.96,-86.46"/>
</a>
</g>
</g>
<!-- Node24&#45;&gt;Node4 -->
<g id="edge43_Node000024_Node000004" class="edge">
<title>Node24&#45;&gt;Node4</title>
<g id="a_edge43_Node000024_Node000004"><a xlink:title=" ">
<path fill="none" stroke="#63b8ff" d="M980.13,-187.8C1003.6,-181.44 1028.91,-170.63 1046.21,-152.25 1061.64,-135.86 1066.82,-109.85 1068.51,-91.8"/>
<polygon fill="#63b8ff" stroke="#63b8ff" points="1071.99,-92.26 1069.11,-82.06 1065,-91.83 1071.99,-92.26"/>
</a>
</g>
</g>
<!-- Node24&#45;&gt;Node13 -->
<g id="edge42_Node000024_Node000013" class="edge">
<title>Node24&#45;&gt;Node13</title>
<g id="a_edge42_Node000024_Node000013"><a xlink:title=" ">
<path fill="none" stroke="#63b8ff" d="M848.52,-188.51C772.95,-179.56 649.61,-164.93 543.21,-152.25 530.22,-150.7 516.42,-149.05 503.01,-147.45"/>
<polygon fill="#63b8ff" stroke="#63b8ff" points="503.71,-144.01 493.36,-146.29 502.88,-150.96 503.71,-144.01"/>
</a>
</g>
</g>
<!-- Node24&#45;&gt;Node21 -->
<g id="edge34_Node000024_Node000021" class="edge">
<title>Node24&#45;&gt;Node21</title>
<g id="a_edge34_Node000024_Node000021"><a xlink:title=" ">
<path fill="none" stroke="#63b8ff" d="M984.73,-187.76C1031,-180.44 1094.14,-168.66 1148.21,-152.25 1149.55,-151.84 1150.92,-151.4 1152.29,-150.93"/>
<polygon fill="#63b8ff" stroke="#63b8ff" points="1153.16,-154.34 1161.27,-147.52 1150.68,-147.8 1153.16,-154.34"/>
</a>
</g>
</g>
<!-- Node24&#45;&gt;Node23 -->
<g id="edge33_Node000024_Node000023" class="edge">
<title>Node24&#45;&gt;Node23</title>
<g id="a_edge33_Node000024_Node000023"><a xlink:title=" ">
<path fill="none" stroke="#63b8ff" d="M955.73,-187.75C988.35,-179.35 1037.32,-166.12 1079.21,-152.25 1080.53,-151.81 1081.88,-151.35 1083.23,-150.88"/>
<polygon fill="#63b8ff" stroke="#63b8ff" points="1084.02,-154.32 1092.21,-147.61 1081.62,-147.75 1084.02,-154.32"/>
</a>
</g>
</g>
<!-- Node25 -->
<g id="Node000025" class="node">
<title>Node25</title>
<g id="a_Node000025"><a xlink:title=" ">
<polygon fill="#e0e0e0" stroke="#999999" points="957.08,-80.12 907.33,-80.12 907.33,-60.88 957.08,-60.88 957.08,-80.12"/>
<text text-anchor="middle" x="932.21" y="-66.62" font-family="Helvetica,sans-Serif" font-size="10.00">optional</text>
</a>
</g>
</g>
<!-- Node24&#45;&gt;Node25 -->
<g id="edge37_Node000024_Node000025" class="edge">
<title>Node24&#45;&gt;Node25</title>
<g id="a_edge37_Node000024_Node000025"><a xlink:title=" ">
<path fill="none" stroke="#63b8ff" d="M917.76,-188.02C915.69,-173.91 912.52,-145.48 916.21,-121.75 917.81,-111.43 921.16,-100.34 924.38,-91.2"/>
<polygon fill="#63b8ff" stroke="#63b8ff" points="927.61,-92.56 927.86,-81.97 921.06,-90.1 927.61,-92.56"/>
</a>
</g>
</g>
<!-- Node26 -->
<g id="Node000026" class="node">
<title>Node26</title>
<g id="a_Node000026"><a xlink:href="../../da/d33/Namespace_8hpp.html" target="_top" xlink:title=" ">
<polygon fill="white" stroke="#666666" points="755.08,-146.62 585.33,-146.62 585.33,-127.38 755.08,-127.38 755.08,-146.62"/>
<text text-anchor="middle" x="670.21" y="-133.12" font-family="Helvetica,sans-Serif" font-size="10.00">Ark/Compiler/AST/Namespace.hpp</text>
</a>
</g>
</g>
<!-- Node24&#45;&gt;Node26 -->
<g id="edge38_Node000024_Node000026" class="edge">
<title>Node24&#45;&gt;Node26</title>
<g id="a_edge38_Node000024_Node000026"><a xlink:title=" ">
<path fill="none" stroke="#63b8ff" d="M880.85,-187.8C837.53,-177.56 766.92,-160.87 719.54,-149.66"/>
<polygon fill="#63b8ff" stroke="#63b8ff" points="720.62,-146.32 710.09,-147.43 719.01,-153.14 720.62,-146.32"/>
</a>
</g>
</g>
<!-- Node28 -->
<g id="Node000028" class="node">
<title>Node28</title>
<g id="a_Node000028"><a xlink:href="../../dc/d58/Position_8hpp.html" target="_top" xlink:title="Defines position utilities (for text in a file) for the parser, formatter, diagnostics.">
<polygon fill="white" stroke="#666666" points="1036.83,-146.62 925.58,-146.62 925.58,-127.38 1036.83,-127.38 1036.83,-146.62"/>
<text text-anchor="middle" x="981.21" y="-133.12" font-family="Helvetica,sans-Serif" font-size="10.00">Ark/Utils/Position.hpp</text>
</a>
</g>
</g>
<!-- Node24&#45;&gt;Node28 -->
<g id="edge44_Node000024_Node000028" class="edge">
<title>Node24&#45;&gt;Node28</title>
<g id="a_edge44_Node000024_Node000028"><a xlink:title=" ">
<path fill="none" stroke="#63b8ff" d="M928.63,-187.93C937.82,-179.2 952.05,-165.69 963.38,-154.93"/>
<polygon fill="#63b8ff" stroke="#63b8ff" points="965.77,-157.49 970.61,-148.07 960.95,-152.42 965.77,-157.49"/>
</a>
</g>
</g>
<!-- Node26&#45;&gt;Node2 -->
<g id="edge40_Node000026_Node000002" class="edge">
<title>Node26&#45;&gt;Node2</title>
<g id="a_edge40_Node000026_Node000002"><a xlink:title=" ">
<path fill="none" stroke="#63b8ff" d="M657.56,-127.03C642.97,-116.69 618.74,-99.52 601.08,-87"/>
<polygon fill="#63b8ff" stroke="#63b8ff" points="603.47,-84.4 593.28,-81.48 599.42,-90.11 603.47,-84.4"/>
</a>
</g>
</g>
<!-- Node26&#45;&gt;Node3 -->
<g id="edge39_Node000026_Node000003" class="edge">
<title>Node26&#45;&gt;Node3</title>
<g id="a_edge39_Node000026_Node000003"><a xlink:title=" ">
<path fill="none" stroke="#63b8ff" d="M688.84,-126.9C710.85,-116.14 747.73,-98.12 773.42,-85.57"/>
<polygon fill="#63b8ff" stroke="#63b8ff" points="774.86,-88.76 782.31,-81.22 771.79,-82.47 774.86,-88.76"/>
</a>
</g>
</g>
<!-- Node27 -->
<g id="Node000027" class="node">
<title>Node27</title>
<g id="a_Node000027"><a xlink:title=" ">
<polygon fill="#e0e0e0" stroke="#999999" points="695.83,-80.12 644.58,-80.12 644.58,-60.88 695.83,-60.88 695.83,-80.12"/>
<text text-anchor="middle" x="670.21" y="-66.62" font-family="Helvetica,sans-Serif" font-size="10.00">memory</text>
</a>
</g>
</g>
<!-- Node26&#45;&gt;Node27 -->
<g id="edge41_Node000026_Node000027" class="edge">
<title>Node26&#45;&gt;Node27</title>
<g id="a_edge41_Node000026_Node000027"><a xlink:title=" ">
<path fill="none" stroke="#63b8ff" d="M670.21,-127.03C670.21,-117.98 670.21,-103.7 670.21,-91.88"/>
<polygon fill="#63b8ff" stroke="#63b8ff" points="673.71,-91.91 670.21,-81.91 666.71,-91.91 673.71,-91.91"/>
</a>
</g>
</g>
<!-- Node28&#45;&gt;Node4 -->
<g id="edge46_Node000028_Node000004" class="edge">
<title>Node28&#45;&gt;Node4</title>
<g id="a_edge46_Node000028_Node000004"><a xlink:title=" ">
<path fill="none" stroke="#63b8ff" d="M993.45,-127.03C1007.42,-116.79 1030.55,-99.84 1047.58,-87.35"/>
<polygon fill="#63b8ff" stroke="#63b8ff" points="1049.58,-90.23 1055.57,-81.49 1045.44,-84.58 1049.58,-90.23"/>
</a>
</g>
</g>
<!-- Node28&#45;&gt;Node25 -->
<g id="edge45_Node000028_Node000025" class="edge">
<title>Node28&#45;&gt;Node25</title>
<g id="a_edge45_Node000028_Node000025"><a xlink:title=" ">
<path fill="none" stroke="#63b8ff" d="M974.4,-127.03C967.01,-117.31 955.03,-101.54 945.72,-89.28"/>
<polygon fill="#63b8ff" stroke="#63b8ff" points="948.72,-87.44 939.88,-81.6 943.14,-91.68 948.72,-87.44"/>
</a>
</g>
</g>
<!-- Node29&#45;&gt;Node2 -->
<g id="edge49_Node000029_Node000002" class="edge">
<title>Node29&#45;&gt;Node2</title>
<g id="a_edge49_Node000029_Node000002"><a xlink:title=" ">
<path fill="none" stroke="#63b8ff" d="M339.64,-122.16C403.19,-108.72 497.08,-88.87 546.32,-78.46"/>
<polygon fill="#63b8ff" stroke="#63b8ff" points="547.01,-81.89 556.07,-76.39 545.56,-75.04 547.01,-81.89"/>
</a>
</g>
</g>
<!-- Node29&#45;&gt;Node3 -->
<g id="edge50_Node000029_Node000003" class="edge">
<title>Node29&#45;&gt;Node3</title>
<g id="a_edge50_Node000029_Node000003"><a xlink:title=" ">
<path fill="none" stroke="#63b8ff" d="M339.53,-123.09C342.46,-122.62 345.36,-122.17 348.21,-121.75 506,-98.65 546.95,-105.34 705.21,-85.75 727.07,-83.04 751.61,-79.43 770.54,-76.52"/>
<polygon fill="#63b8ff" stroke="#63b8ff" points="770.97,-80 780.31,-75 769.89,-73.08 770.97,-80"/>
</a>
</g>
</g>
<!-- Node29&#45;&gt;Node16 -->
<g id="edge48_Node000029_Node000016" class="edge">
<title>Node29&#45;&gt;Node16</title>
<g id="a_edge48_Node000029_Node000016"><a xlink:title=" ">
<path fill="none" stroke="#63b8ff" d="M208.71,-133.03C137.81,-128.28 31.45,-116.17 6.21,-85.75 -2.45,-75.32 -1.54,-66.37 6.21,-55.25 24.41,-29.13 59.72,-18.26 87.52,-13.76"/>
<polygon fill="#63b8ff" stroke="#63b8ff" points="87.97,-17.23 97.4,-12.4 87.02,-10.29 87.97,-17.23"/>
</a>
</g>
</g>
<!-- Node30 -->
<g id="Node000030" class="node">
<title>Node30</title>
<g id="a_Node000030"><a xlink:href="../../db/d53/Word_8hpp.html" target="_top" xlink:title="Describe an instruction and its immediate argument.">
<polygon fill="white" stroke="#666666" points="145.21,-85.75 15.21,-85.75 15.21,-55.25 145.21,-55.25 145.21,-85.75"/>
<text text-anchor="start" x="23.21" y="-72.25" font-family="Helvetica,sans-Serif" font-size="10.00">Ark/Compiler/Intermediate</text>
<text text-anchor="middle" x="80.21" y="-61" font-family="Helvetica,sans-Serif" font-size="10.00">Representation/Word.hpp</text>
</a>
</g>
</g>
<!-- Node29&#45;&gt;Node30 -->
<g id="edge51_Node000029_Node000030" class="edge">
<title>Node29&#45;&gt;Node30</title>
<g id="a_edge51_Node000029_Node000030"><a xlink:title=" ">
<path fill="none" stroke="#63b8ff" d="M230.19,-121.36C202.01,-112 165.23,-99.77 135.15,-89.76"/>
<polygon fill="#63b8ff" stroke="#63b8ff" points="136.42,-86.5 125.83,-86.67 134.21,-93.14 136.42,-86.5"/>
</a>
</g>
</g>
<!-- Node31 -->
<g id="Node000031" class="node">
<title>Node31</title>
<g id="a_Node000031"><a xlink:href="../../d8/daa/Instructions_8hpp.html" target="_top" xlink:title="The different instructions used by the compiler and virtual machine.">
<polygon fill="white" stroke="#666666" points="347.08,-80.12 201.33,-80.12 201.33,-60.88 347.08,-60.88 347.08,-80.12"/>
<text text-anchor="middle" x="274.21" y="-66.62" font-family="Helvetica,sans-Serif" font-size="10.00">Ark/Compiler/Instructions.hpp</text>
</a>
</g>
</g>
<!-- Node29&#45;&gt;Node31 -->
<g id="edge53_Node000029_Node000031" class="edge">
<title>Node29&#45;&gt;Node31</title>
<g id="a_edge53_Node000029_Node000031"><a xlink:title=" ">
<path fill="none" stroke="#63b8ff" d="M274.21,-121.36C274.21,-112.58 274.21,-101.27 274.21,-91.65"/>
<polygon fill="#63b8ff" stroke="#63b8ff" points="277.71,-91.84 274.21,-81.84 270.71,-91.84 277.71,-91.84"/>
</a>
</g>
</g>
<!-- Node30&#45;&gt;Node16 -->
<g id="edge52_Node000030_Node000016" class="edge">
<title>Node30&#45;&gt;Node16</title>
<g id="a_edge52_Node000030_Node000016"><a xlink:title=" ">
<path fill="none" stroke="#63b8ff" d="M91.83,-54.95C98.23,-46.93 106.22,-36.92 112.99,-28.44"/>
<polygon fill="#63b8ff" stroke="#63b8ff" points="115.52,-30.88 119.02,-20.88 110.05,-26.52 115.52,-30.88"/>
</a>
</g>
</g>
<!-- Node31&#45;&gt;Node14 -->
<g id="edge54_Node000031_Node000014" class="edge">
<title>Node31&#45;&gt;Node14</title>
<g id="a_edge54_Node000031_Node000014"><a xlink:title=" ">
<path fill="none" stroke="#63b8ff" d="M278.31,-60.56C282.04,-52.43 287.66,-40.17 292.4,-29.83"/>
<polygon fill="#63b8ff" stroke="#63b8ff" points="295.45,-31.58 296.44,-21.03 289.09,-28.66 295.45,-31.58"/>
</a>
</g>
</g>
</g>
</svg>
