<?xml version="1.0" encoding="UTF-8" standalone="no"?>
<!DOCTYPE svg PUBLIC "-//W3C//DTD SVG 1.1//EN"
 "http://www.w3.org/Graphics/SVG/1.1/DTD/svg11.dtd">
<!-- Generated by graphviz version 12.2.0 (20241103.1931)
 -->
<!-- Title: /Users/fola/Documents/ArkScript/Ark/include/Ark/Error/PrettyPrinting.hpp Pages: 1 -->
<svg width="413pt" height="160pt"
 viewBox="0.00 0.00 413.38 160.25" xmlns="http://www.w3.org/2000/svg" xmlns:xlink="http://www.w3.org/1999/xlink">
<g id="graph0" class="graph" transform="scale(1 1) rotate(0) translate(4 156.25)">
<title>/Users/fola/Documents/ArkScript/Ark/include/Ark/Error/PrettyPrinting.hpp</title>
<!-- Node1 -->
<g id="Node000001" class="node">
<title>Node1</title>
<g id="a_Node000001"><a xlink:title="Pretty printing utilities for diagnostics.">
<polygon fill="#999999" stroke="#666666" points="241.5,-152.25 102.5,-152.25 102.5,-110.5 241.5,-110.5 241.5,-152.25"/>
<text text-anchor="start" x="110.5" y="-138.75" font-family="Helvetica,sans-Serif" font-size="10.00">/Users/fola/Documents</text>
<text text-anchor="start" x="110.5" y="-127.5" font-family="Helvetica,sans-Serif" font-size="10.00">/ArkScript/Ark/include</text>
<text text-anchor="middle" x="172" y="-116.25" font-family="Helvetica,sans-Serif" font-size="10.00">/Ark/Error/PrettyPrinting.hpp</text>
</a>
</g>
</g>
<!-- Node2 -->
<g id="Node000002" class="node">
<title>Node2</title>
<g id="a_Node000002"><a xlink:title=" ">
<polygon fill="#e0e0e0" stroke="#999999" points="40,-74.5 0,-74.5 0,-55.25 40,-55.25 40,-74.5"/>
<text text-anchor="middle" x="20" y="-61" font-family="Helvetica,sans-Serif" font-size="10.00">string</text>
</a>
</g>
</g>
<!-- Node1&#45;&gt;Node2 -->
<g id="edge1_Node000001_Node000002" class="edge">
<title>Node1&#45;&gt;Node2</title>
<g id="a_edge1_Node000001_Node000002"><a xlink:title=" ">
<path fill="none" stroke="#63b8ff" d="M124.32,-110.14C100.3,-99.95 71.88,-87.89 50.77,-78.93"/>
<polygon fill="#63b8ff" stroke="#63b8ff" points="52.42,-75.83 41.85,-75.15 49.69,-82.28 52.42,-75.83"/>
</a>
</g>
</g>
<!-- Node3 -->
<g id="Node000003" class="node">
<title>Node3</title>
<g id="a_Node000003"><a xlink:title=" ">
<polygon fill="#e0e0e0" stroke="#999999" points="101.5,-74.5 58.5,-74.5 58.5,-55.25 101.5,-55.25 101.5,-74.5"/>
<text text-anchor="middle" x="80" y="-61" font-family="Helvetica,sans-Serif" font-size="10.00">vector</text>
</a>
</g>
</g>
<!-- Node1&#45;&gt;Node3 -->
<g id="edge2_Node000001_Node000003" class="edge">
<title>Node1&#45;&gt;Node3</title>
<g id="a_edge2_Node000001_Node000003"><a xlink:title=" ">
<path fill="none" stroke="#63b8ff" d="M143.14,-110.14C129.84,-100.82 114.3,-89.92 101.96,-81.27"/>
<polygon fill="#63b8ff" stroke="#63b8ff" points="104.3,-78.64 94.1,-75.76 100.28,-84.37 104.3,-78.64"/>
</a>
</g>
</g>
<!-- Node4 -->
<g id="Node000004" class="node">
<title>Node4</title>
<g id="a_Node000004"><a xlink:title=" ">
<polygon fill="#e0e0e0" stroke="#999999" points="170.62,-74.5 119.38,-74.5 119.38,-55.25 170.62,-55.25 170.62,-74.5"/>
<text text-anchor="middle" x="145" y="-61" font-family="Helvetica,sans-Serif" font-size="10.00">ostream</text>
</a>
</g>
</g>
<!-- Node1&#45;&gt;Node4 -->
<g id="edge3_Node000001_Node000004" class="edge">
<title>Node1&#45;&gt;Node4</title>
<g id="a_edge3_Node000001_Node000004"><a xlink:title=" ">
<path fill="none" stroke="#63b8ff" d="M163.61,-110.32C160.28,-102.37 156.46,-93.26 153.16,-85.36"/>
<polygon fill="#63b8ff" stroke="#63b8ff" points="156.47,-84.21 149.38,-76.34 150.01,-86.92 156.47,-84.21"/>
</a>
</g>
</g>
<!-- Node5 -->
<g id="Node000005" class="node">
<title>Node5</title>
<g id="a_Node000005"><a xlink:title=" ">
<polygon fill="#e0e0e0" stroke="#999999" points="257.88,-19.25 208.12,-19.25 208.12,0 257.88,0 257.88,-19.25"/>
<text text-anchor="middle" x="233" y="-5.75" font-family="Helvetica,sans-Serif" font-size="10.00">optional</text>
</a>
</g>
</g>
<!-- Node1&#45;&gt;Node5 -->
<g id="edge4_Node000001_Node000005" class="edge">
<title>Node1&#45;&gt;Node5</title>
<g id="a_edge4_Node000001_Node000005"><a xlink:title=" ">
<path fill="none" stroke="#63b8ff" d="M182.35,-110.06C193.81,-87.56 212.15,-51.56 223.33,-29.61"/>
<polygon fill="#63b8ff" stroke="#63b8ff" points="226.34,-31.4 227.76,-20.9 220.11,-28.23 226.34,-31.4"/>
</a>
</g>
</g>
<!-- Node6 -->
<g id="Node000006" class="node">
<title>Node6</title>
<g id="a_Node000006"><a xlink:href="../../d5/d40/Platform_8hpp.html" target="_top" xlink:title="ArkScript configuration macros.">
<polygon fill="white" stroke="#666666" points="405.38,-19.25 292.62,-19.25 292.62,0 405.38,0 405.38,-19.25"/>
<text text-anchor="middle" x="349" y="-5.75" font-family="Helvetica,sans-Serif" font-size="10.00">Ark/Utils/Platform.hpp</text>
</a>
</g>
</g>
<!-- Node1&#45;&gt;Node6 -->
<g id="edge5_Node000001_Node000006" class="edge">
<title>Node1&#45;&gt;Node6</title>
<g id="a_edge5_Node000001_Node000006"><a xlink:title=" ">
<path fill="none" stroke="#63b8ff" d="M241.63,-127.13C279.51,-121.39 323.51,-107.43 348,-74.5 357.22,-62.1 356.7,-44.27 354.31,-30.6"/>
<polygon fill="#63b8ff" stroke="#63b8ff" points="357.75,-29.96 352.15,-20.97 350.92,-31.49 357.75,-29.96"/>
</a>
</g>
</g>
<!-- Node7 -->
<g id="Node000007" class="node">
<title>Node7</title>
<g id="a_Node000007"><a xlink:href="../../dc/d58/Position_8hpp.html" target="_top" xlink:title="Defines position utilities (for text in a file) for the parser, formatter, diagnostics.">
<polygon fill="white" stroke="#666666" points="338.62,-74.5 227.38,-74.5 227.38,-55.25 338.62,-55.25 338.62,-74.5"/>
<text text-anchor="middle" x="283" y="-61" font-family="Helvetica,sans-Serif" font-size="10.00">Ark/Utils/Position.hpp</text>
</a>
</g>
</g>
<!-- Node1&#45;&gt;Node7 -->
<g id="edge6_Node000001_Node000007" class="edge">
<title>Node1&#45;&gt;Node7</title>
<g id="a_edge6_Node000001_Node000007"><a xlink:title=" ">
<path fill="none" stroke="#63b8ff" d="M206.82,-110.14C223.35,-100.54 242.73,-89.27 257.81,-80.51"/>
<polygon fill="#63b8ff" stroke="#63b8ff" points="259.28,-83.71 266.17,-75.65 255.76,-77.65 259.28,-83.71"/>
</a>
</g>
</g>
<!-- Node7&#45;&gt;Node5 -->
<g id="edge7_Node000007_Node000005" class="edge">
<title>Node7&#45;&gt;Node5</title>
<g id="a_edge7_Node000007_Node000005"><a xlink:title=" ">
<path fill="none" stroke="#63b8ff" d="M274.74,-55.08C267.84,-47.73 257.78,-37.01 249.26,-27.94"/>
<polygon fill="#63b8ff" stroke="#63b8ff" points="251.87,-25.61 242.47,-20.71 246.77,-30.4 251.87,-25.61"/>
</a>
</g>
</g>
<!-- Node7&#45;&gt;Node6 -->
<g id="edge8_Node000007_Node000006" class="edge">
<title>Node7&#45;&gt;Node6</title>
<g id="a_edge8_Node000007_Node000006"><a xlink:title=" ">
<path fill="none" stroke="#63b8ff" d="M294.2,-54.84C303.74,-47.15 317.67,-35.9 329.11,-26.68"/>
<polygon fill="#63b8ff" stroke="#63b8ff" points="331.21,-29.48 336.79,-20.48 326.81,-24.03 331.21,-29.48"/>
</a>
</g>
</g>
</g>
</svg>
