<?xml version="1.0" encoding="UTF-8" standalone="no"?>
<!DOCTYPE svg PUBLIC "-//W3C//DTD SVG 1.1//EN"
 "http://www.w3.org/Graphics/SVG/1.1/DTD/svg11.dtd">
<!-- Generated by graphviz version 12.2.0 (20241103.1931)
 -->
<!-- Title: Ark::internal::SymbolExecutor Pages: 1 -->
<svg width="1717pt" height="628pt"
 viewBox="0.00 0.00 1717.25 627.57" xmlns="http://www.w3.org/2000/svg" xmlns:xlink="http://www.w3.org/1999/xlink">
<g id="graph0" class="graph" transform="scale(1 1) rotate(0) translate(4 623.57)">
<title>Ark::internal::SymbolExecutor</title>
<!-- Node1 -->
<g id="Node000001" class="node">
<title>Node1</title>
<g id="a_Node000001"><a xlink:title="Handles Symbol macros.">
<polygon fill="#999999" stroke="#666666" points="1135.75,-593.75 989.25,-593.75 989.25,-574.5 1135.75,-574.5 1135.75,-593.75"/>
<text text-anchor="middle" x="1062.5" y="-580.25" font-family="Helvetica,sans-Serif" font-size="10.00">Ark::internal::SymbolExecutor</text>
</a>
</g>
</g>
<!-- Node2 -->
<g id="Node000002" class="node">
<title>Node2</title>
<g id="a_Node000002"><a xlink:href="../../d5/d8f/classArk_1_1internal_1_1MacroExecutor.html" target="_top" xlink:title="A class that applies macros in a Node.">
<polygon fill="white" stroke="#666666" points="806.38,-601.75 665.88,-601.75 665.88,-582.5 806.38,-582.5 806.38,-601.75"/>
<text text-anchor="middle" x="736.12" y="-588.25" font-family="Helvetica,sans-Serif" font-size="10.00">Ark::internal::MacroExecutor</text>
</a>
</g>
</g>
<!-- Node2&#45;&gt;Node1 -->
<g id="edge1_Node000001_Node000002" class="edge">
<title>Node2&#45;&gt;Node1</title>
<g id="a_edge1_Node000001_Node000002"><a xlink:title=" ">
<path fill="none" stroke="#63b8ff" d="M818,-590.13C870.45,-588.84 938.22,-587.17 988.94,-585.91"/>
<polygon fill="#63b8ff" stroke="#63b8ff" points="818.14,-586.63 808.22,-590.37 818.31,-593.62 818.14,-586.63"/>
</a>
</g>
</g>
<!-- Node21 -->
<g id="Node000021" class="node">
<title>Node21</title>
<g id="a_Node000021"><a xlink:title=" ">
<polygon fill="white" stroke="#666666" points="1129.75,-555.38 995.25,-555.38 995.25,-524.88 1129.75,-524.88 1129.75,-555.38"/>
<text text-anchor="start" x="1003.25" y="-541.88" font-family="Helvetica,sans-Serif" font-size="10.00">std::shared_ptr&lt; Ark</text>
<text text-anchor="middle" x="1062.5" y="-530.62" font-family="Helvetica,sans-Serif" font-size="10.00">::internal::MacroExecutor &gt;</text>
</a>
</g>
</g>
<!-- Node2&#45;&gt;Node21 -->
<g id="edge31_Node000021_Node000002" class="edge">
<title>Node2&#45;&gt;Node21</title>
<g id="a_edge31_Node000021_Node000002"><a xlink:title=" ">
<path fill="none" stroke="#9a32cd" stroke-dasharray="5,2" d="M786.68,-579.38C799.59,-576.33 813.52,-573.26 826.5,-570.88 882.95,-560.5 947.66,-552.3 994.87,-546.99"/>
<polygon fill="#9a32cd" stroke="#9a32cd" points="786.02,-575.94 777.12,-581.69 787.67,-582.74 786.02,-575.94"/>
</a>
</g>
<text text-anchor="middle" x="898.88" y="-572.62" font-family="Helvetica,sans-Serif" font-size="10.00" fill="grey"> ptr</text>
</g>
<!-- Node3 -->
<g id="Node000003" class="node">
<title>Node3</title>
<g id="a_Node000003"><a xlink:href="../../d5/db5/classArk_1_1internal_1_1MacroProcessor.html" target="_top" xlink:title="The class handling the macros definitions and calls, given an AST.">
<polygon fill="white" stroke="#666666" points="1709.25,-437.75 1563.5,-437.75 1563.5,-418.5 1709.25,-418.5 1709.25,-437.75"/>
<text text-anchor="middle" x="1636.38" y="-424.25" font-family="Helvetica,sans-Serif" font-size="10.00">Ark::internal::MacroProcessor</text>
</a>
</g>
</g>
<!-- Node3&#45;&gt;Node2 -->
<g id="edge2_Node000002_Node000003" class="edge">
<title>Node3&#45;&gt;Node2</title>
<g id="a_edge2_Node000002_Node000003"><a xlink:title=" ">
<path fill="none" stroke="#9a32cd" stroke-dasharray="5,2" d="M1618.88,-446.08C1591.1,-474.89 1531.75,-530.37 1468.25,-552.12 1236.6,-631.49 939.62,-614.06 806.77,-600.58"/>
<polygon fill="#9a32cd" stroke="#9a32cd" points="1621.09,-448.84 1625.42,-439.17 1616.01,-444.03 1621.09,-448.84"/>
</a>
</g>
<text text-anchor="middle" x="1210.38" y="-610.07" font-family="Helvetica,sans-Serif" font-size="10.00" fill="grey"> m_processor</text>
</g>
<!-- Node4 -->
<g id="Node000004" class="node">
<title>Node4</title>
<g id="a_Node000004"><a xlink:href="../../da/d7b/classArk_1_1internal_1_1Pass.html" target="_top" xlink:title="An interface to describe compiler passes.">
<polygon fill="white" stroke="#666666" points="1425.12,-192.75 1328.12,-192.75 1328.12,-173.5 1425.12,-173.5 1425.12,-192.75"/>
<text text-anchor="middle" x="1376.62" y="-179.25" font-family="Helvetica,sans-Serif" font-size="10.00">Ark::internal::Pass</text>
</a>
</g>
</g>
<!-- Node4&#45;&gt;Node3 -->
<g id="edge3_Node000003_Node000004" class="edge">
<title>Node4&#45;&gt;Node3</title>
<g id="a_edge3_Node000003_Node000004"><a xlink:title=" ">
<path fill="none" stroke="#63b8ff" d="M1429.33,-196.44C1465.41,-207.89 1512.76,-227.48 1545.5,-258.12 1596.69,-306.03 1624.37,-389.74 1632.67,-418.27"/>
<polygon fill="#63b8ff" stroke="#63b8ff" points="1430.56,-193.16 1419.98,-193.59 1428.52,-199.85 1430.56,-193.16"/>
</a>
</g>
</g>
<!-- Node5 -->
<g id="Node000005" class="node">
<title>Node5</title>
<g id="a_Node000005"><a xlink:href="../../d6/d2f/classArk_1_1internal_1_1Logger.html" target="_top" xlink:title=" ">
<polygon fill="white" stroke="#666666" points="1114.38,-119.75 1010.62,-119.75 1010.62,-100.5 1114.38,-100.5 1114.38,-119.75"/>
<text text-anchor="middle" x="1062.5" y="-106.25" font-family="Helvetica,sans-Serif" font-size="10.00">Ark::internal::Logger</text>
</a>
</g>
</g>
<!-- Node5&#45;&gt;Node4 -->
<g id="edge4_Node000004_Node000005" class="edge">
<title>Node5&#45;&gt;Node4</title>
<g id="a_edge4_Node000004_Node000005"><a xlink:title=" ">
<path fill="none" stroke="#9a32cd" stroke-dasharray="5,2" d="M1117.51,-122.76C1178.46,-137.01 1276.42,-159.92 1332.49,-173.04"/>
<polygon fill="#9a32cd" stroke="#9a32cd" points="1118.58,-119.41 1108.05,-120.54 1116.99,-126.23 1118.58,-119.41"/>
</a>
</g>
<text text-anchor="middle" x="1210.38" y="-159.18" font-family="Helvetica,sans-Serif" font-size="10.00" fill="grey"> m_logger</text>
</g>
<!-- Node6 -->
<g id="Node000006" class="node">
<title>Node6</title>
<g id="a_Node000006"><a xlink:title=" ">
<polygon fill="white" stroke="#666666" points="252.12,-147.75 192.62,-147.75 192.62,-128.5 252.12,-128.5 252.12,-147.75"/>
<text text-anchor="middle" x="222.38" y="-134.25" font-family="Helvetica,sans-Serif" font-size="10.00">std::string</text>
</a>
</g>
</g>
<!-- Node6&#45;&gt;Node5 -->
<g id="edge5_Node000005_Node000006" class="edge">
<title>Node6&#45;&gt;Node5</title>
<g id="a_edge5_Node000005_Node000006"><a xlink:title=" ">
<path fill="none" stroke="#9a32cd" stroke-dasharray="5,2" d="M263.79,-134.48C320.33,-129.51 426.27,-120.68 516.75,-115.88 698.09,-106.25 913.84,-107.83 1010.38,-109.22"/>
<polygon fill="#9a32cd" stroke="#9a32cd" points="263.66,-130.97 254,-135.34 264.27,-137.95 263.66,-130.97"/>
</a>
</g>
<text text-anchor="middle" x="581.25" y="-117.62" font-family="Helvetica,sans-Serif" font-size="10.00" fill="grey"> m_name</text>
</g>
<!-- Node8 -->
<g id="Node000008" class="node">
<title>Node8</title>
<g id="a_Node000008"><a xlink:title=" ">
<polygon fill="white" stroke="#666666" points="797.38,-64.25 674.88,-64.25 674.88,0 797.38,0 797.38,-64.25"/>
<text text-anchor="start" x="682.88" y="-50.75" font-family="Helvetica,sans-Serif" font-size="10.00">std::unordered_map</text>
<text text-anchor="start" x="682.88" y="-39.5" font-family="Helvetica,sans-Serif" font-size="10.00">&lt; std::string, std::</text>
<text text-anchor="start" x="682.88" y="-28.25" font-family="Helvetica,sans-Serif" font-size="10.00">chrono::time_point&lt; std</text>
<text text-anchor="start" x="682.88" y="-17" font-family="Helvetica,sans-Serif" font-size="10.00">::chrono::high_resolution</text>
<text text-anchor="middle" x="736.12" y="-5.75" font-family="Helvetica,sans-Serif" font-size="10.00">_clock &gt; &gt;</text>
</a>
</g>
</g>
<!-- Node6&#45;&gt;Node8 -->
<g id="edge8_Node000008_Node000006" class="edge">
<title>Node6&#45;&gt;Node8</title>
<g id="a_edge8_Node000008_Node000006"><a xlink:title=" ">
<path fill="none" stroke="#9a32cd" stroke-dasharray="5,2" d="M239.26,-120.45C252.99,-106.43 274.15,-87.65 296.75,-78.12 423.15,-24.85 587.47,-23.63 674.63,-27.68"/>
<polygon fill="#9a32cd" stroke="#9a32cd" points="237.07,-117.66 232.76,-127.34 242.16,-122.47 237.07,-117.66"/>
</a>
</g>
<text text-anchor="middle" x="447.62" y="-48.6" font-family="Helvetica,sans-Serif" font-size="10.00" fill="grey"> keys</text>
</g>
<!-- Node12 -->
<g id="Node000012" class="node">
<title>Node12</title>
<g id="a_Node000012"><a xlink:title=" ">
<polygon fill="white" stroke="#666666" points="798.12,-139.75 674.12,-139.75 674.12,-120.5 798.12,-120.5 798.12,-139.75"/>
<text text-anchor="middle" x="736.12" y="-126.25" font-family="Helvetica,sans-Serif" font-size="10.00">std::vector&lt; std::string &gt;</text>
</a>
</g>
</g>
<!-- Node6&#45;&gt;Node12 -->
<g id="edge13_Node000012_Node000006" class="edge">
<title>Node6&#45;&gt;Node12</title>
<g id="a_edge13_Node000012_Node000006"><a xlink:title=" ">
<path fill="none" stroke="#9a32cd" stroke-dasharray="5,2" d="M263.6,-137.5C352.88,-136.1 568.07,-132.74 674.05,-131.08"/>
<polygon fill="#9a32cd" stroke="#9a32cd" points="263.81,-133.99 253.87,-137.65 263.92,-140.99 263.81,-133.99"/>
</a>
</g>
<text text-anchor="middle" x="447.62" y="-137.06" font-family="Helvetica,sans-Serif" font-size="10.00" fill="grey"> elements</text>
</g>
<!-- Node14 -->
<g id="Node000014" class="node">
<title>Node14</title>
<g id="a_Node000014"><a xlink:href="../../dc/d9e/classArk_1_1internal_1_1Node.html" target="_top" xlink:title="A node of an Abstract Syntax Tree for ArkScript.">
<polygon fill="white" stroke="#666666" points="496.5,-356.75 398.75,-356.75 398.75,-337.5 496.5,-337.5 496.5,-356.75"/>
<text text-anchor="middle" x="447.62" y="-343.25" font-family="Helvetica,sans-Serif" font-size="10.00">Ark::internal::Node</text>
</a>
</g>
</g>
<!-- Node6&#45;&gt;Node14 -->
<g id="edge19_Node000014_Node000006" class="edge">
<title>Node6&#45;&gt;Node14</title>
<g id="a_edge19_Node000014_Node000006"><a xlink:title=" ">
<path fill="none" stroke="#9a32cd" stroke-dasharray="5,2" d="M235.15,-157.86C248.03,-177.97 270.4,-208.86 296.75,-228.12 328.28,-251.18 351.92,-231.76 378.5,-260.38 396.8,-280.07 379.72,-297.12 396.5,-318.12 402.96,-326.21 412.34,-332.49 421.24,-337.1"/>
<polygon fill="#9a32cd" stroke="#9a32cd" points="238.2,-156.13 229.95,-149.48 232.25,-159.82 238.2,-156.13"/>
</a>
</g>
<text text-anchor="middle" x="337.62" y="-284.62" font-family="Helvetica,sans-Serif" font-size="10.00" fill="grey"> m_after_comment</text>
<text text-anchor="middle" x="337.62" y="-273.38" font-family="Helvetica,sans-Serif" font-size="10.00" fill="grey">m_comment</text>
<text text-anchor="middle" x="337.62" y="-262.12" font-family="Helvetica,sans-Serif" font-size="10.00" fill="grey">m_filename</text>
</g>
<!-- Node19 -->
<g id="Node000019" class="node">
<title>Node19</title>
<g id="a_Node000019"><a xlink:title=" ">
<polygon fill="white" stroke="#666666" points="787.25,-305 685,-305 685,-263.25 787.25,-263.25 787.25,-305"/>
<text text-anchor="start" x="693" y="-291.5" font-family="Helvetica,sans-Serif" font-size="10.00">std::unordered_map</text>
<text text-anchor="start" x="693" y="-280.25" font-family="Helvetica,sans-Serif" font-size="10.00">&lt; std::string, Ark::</text>
<text text-anchor="middle" x="736.12" y="-269" font-family="Helvetica,sans-Serif" font-size="10.00">internal::Node &gt;</text>
</a>
</g>
</g>
<!-- Node6&#45;&gt;Node19 -->
<g id="edge23_Node000019_Node000006" class="edge">
<title>Node6&#45;&gt;Node19</title>
<g id="a_edge23_Node000019_Node000006"><a xlink:title=" ">
<path fill="none" stroke="#9a32cd" stroke-dasharray="5,2" d="M263.46,-147.06C319.94,-159.64 426.17,-183.26 516.75,-203.12 574.06,-215.69 591.15,-209.66 645.75,-231.12 666.57,-239.31 688.19,-252 704.95,-262.91"/>
<polygon fill="#9a32cd" stroke="#9a32cd" points="264.51,-143.71 253.99,-144.95 262.99,-150.54 264.51,-143.71"/>
</a>
</g>
<text text-anchor="middle" x="447.62" y="-200.04" font-family="Helvetica,sans-Serif" font-size="10.00" fill="grey"> keys</text>
</g>
<!-- Node7 -->
<g id="Node000007" class="node">
<title>Node7</title>
<g id="a_Node000007"><a xlink:title=" ">
<polygon fill="white" stroke="#666666" points="100.75,-153.38 6.75,-153.38 6.75,-122.88 100.75,-122.88 100.75,-153.38"/>
<text text-anchor="start" x="14.75" y="-139.88" font-family="Helvetica,sans-Serif" font-size="10.00">std::basic_string&lt;</text>
<text text-anchor="middle" x="53.75" y="-128.62" font-family="Helvetica,sans-Serif" font-size="10.00"> Char &gt;</text>
</a>
</g>
</g>
<!-- Node7&#45;&gt;Node6 -->
<g id="edge6_Node000006_Node000007" class="edge">
<title>Node7&#45;&gt;Node6</title>
<g id="a_edge6_Node000006_Node000007"><a xlink:title=" ">
<path fill="none" stroke="#63b8ff" d="M112.42,-138.12C139.35,-138.12 170.23,-138.12 192.22,-138.12"/>
<polygon fill="#63b8ff" stroke="#63b8ff" points="112.68,-134.63 102.68,-138.13 112.68,-141.63 112.68,-134.63"/>
</a>
</g>
</g>
<!-- Node8&#45;&gt;Node5 -->
<g id="edge7_Node000005_Node000008" class="edge">
<title>Node8&#45;&gt;Node5</title>
<g id="a_edge7_Node000005_Node000008"><a xlink:title=" ">
<path fill="none" stroke="#9a32cd" stroke-dasharray="5,2" d="M808.69,-37.16C855.68,-41.81 918.07,-50.59 971.25,-66.88 998,-75.06 1026.8,-90.06 1044.49,-100.06"/>
<polygon fill="#9a32cd" stroke="#9a32cd" points="809.18,-33.69 798.9,-36.23 808.52,-40.66 809.18,-33.69"/>
</a>
</g>
<text text-anchor="middle" x="898.88" y="-68.62" font-family="Helvetica,sans-Serif" font-size="10.00" fill="grey"> m_trace_starts</text>
</g>
<!-- Node9 -->
<g id="Node000009" class="node">
<title>Node9</title>
<g id="a_Node000009"><a xlink:title=" ">
<polygon fill="white" stroke="#666666" points="498.75,-309.38 396.5,-309.38 396.5,-278.88 498.75,-278.88 498.75,-309.38"/>
<text text-anchor="start" x="404.5" y="-295.88" font-family="Helvetica,sans-Serif" font-size="10.00">std::unordered_map</text>
<text text-anchor="middle" x="447.62" y="-284.62" font-family="Helvetica,sans-Serif" font-size="10.00">&lt; K, T &gt;</text>
</a>
</g>
</g>
<!-- Node9&#45;&gt;Node8 -->
<g id="edge9_Node000008_Node000009" class="edge">
<title>Node9&#45;&gt;Node8</title>
<g id="a_edge9_Node000008_Node000009"><a xlink:title=" ">
<path fill="none" stroke="orange" stroke-dasharray="5,2" d="M471.17,-270.06C480.6,-259.09 491.12,-245.58 498.75,-232.12 510.2,-211.94 501.89,-200.94 516.75,-183.12 559.37,-132.03 591.41,-145.53 645.75,-107.12 664.11,-94.15 683.35,-78.32 699.26,-64.56"/>
<polygon fill="orange" stroke="orange" points="468.61,-267.67 464.6,-277.48 473.85,-272.32 468.61,-267.67"/>
</a>
</g>
<text text-anchor="start" x="516.75" y="-218.62" font-family="Helvetica,sans-Serif" font-size="10.00" fill="grey"> &lt; std::string, std</text>
<text text-anchor="start" x="516.75" y="-207.38" font-family="Helvetica,sans-Serif" font-size="10.00" fill="grey">::chrono::time_point</text>
<text text-anchor="start" x="516.75" y="-196.12" font-family="Helvetica,sans-Serif" font-size="10.00" fill="grey">&lt; std::chrono::high_resolution</text>
<text text-anchor="middle" x="581.25" y="-184.88" font-family="Helvetica,sans-Serif" font-size="10.00" fill="grey">_clock &gt; &gt;</text>
</g>
<!-- Node9&#45;&gt;Node19 -->
<g id="edge25_Node000019_Node000009" class="edge">
<title>Node9&#45;&gt;Node19</title>
<g id="a_edge25_Node000019_Node000009"><a xlink:title=" ">
<path fill="none" stroke="orange" stroke-dasharray="5,2" d="M510.51,-286.09C512.61,-285.91 514.7,-285.76 516.75,-285.62 574.25,-281.85 640.46,-282.03 684.76,-282.8"/>
<polygon fill="orange" stroke="orange" points="510.29,-282.59 500.66,-287.01 510.95,-289.56 510.29,-282.59"/>
</a>
</g>
<text text-anchor="start" x="543.38" y="-298.62" font-family="Helvetica,sans-Serif" font-size="10.00" fill="grey"> &lt; std::string, Ark</text>
<text text-anchor="middle" x="581.25" y="-287.38" font-family="Helvetica,sans-Serif" font-size="10.00" fill="grey">::internal::Node &gt;</text>
</g>
<!-- Node10 -->
<g id="Node000010" class="node">
<title>Node10</title>
<g id="a_Node000010"><a xlink:title=" ">
<polygon fill="white" stroke="#666666" points="236.78,-316.75 207.97,-316.75 207.97,-297.5 236.78,-297.5 236.78,-316.75"/>
<text text-anchor="middle" x="222.38" y="-303.25" font-family="Helvetica,sans-Serif" font-size="10.00">K</text>
</a>
</g>
</g>
<!-- Node10&#45;&gt;Node9 -->
<g id="edge10_Node000009_Node000010" class="edge">
<title>Node10&#45;&gt;Node9</title>
<g id="a_edge10_Node000009_Node000010"><a xlink:title=" ">
<path fill="none" stroke="#9a32cd" stroke-dasharray="5,2" d="M248.25,-305.68C283.9,-303.6 350.32,-299.73 396.42,-297.05"/>
<polygon fill="#9a32cd" stroke="#9a32cd" points="248.29,-302.17 238.52,-306.24 248.7,-309.16 248.29,-302.17"/>
</a>
</g>
<text text-anchor="middle" x="337.62" y="-304.3" font-family="Helvetica,sans-Serif" font-size="10.00" fill="grey"> keys</text>
</g>
<!-- Node11 -->
<g id="Node000011" class="node">
<title>Node11</title>
<g id="a_Node000011"><a xlink:title=" ">
<polygon fill="white" stroke="#666666" points="236.78,-445.75 207.97,-445.75 207.97,-426.5 236.78,-426.5 236.78,-445.75"/>
<text text-anchor="middle" x="222.38" y="-432.25" font-family="Helvetica,sans-Serif" font-size="10.00">T</text>
</a>
</g>
</g>
<!-- Node11&#45;&gt;Node9 -->
<g id="edge11_Node000009_Node000011" class="edge">
<title>Node11&#45;&gt;Node9</title>
<g id="a_edge11_Node000009_Node000011"><a xlink:title=" ">
<path fill="none" stroke="#9a32cd" stroke-dasharray="5,2" d="M248.06,-429.67C281.26,-419.9 340.52,-398.55 378.5,-362.12 390.84,-350.29 385.09,-340.86 396.5,-328.12 402.75,-321.16 410.71,-314.92 418.44,-309.76"/>
<polygon fill="#9a32cd" stroke="#9a32cd" points="247.23,-426.27 238.55,-432.34 249.12,-433.01 247.23,-426.27"/>
</a>
</g>
<text text-anchor="middle" x="337.62" y="-412.76" font-family="Helvetica,sans-Serif" font-size="10.00" fill="grey"> elements</text>
</g>
<!-- Node13 -->
<g id="Node000013" class="node">
<title>Node13</title>
<g id="a_Node000013"><a xlink:title=" ">
<polygon fill="white" stroke="#666666" points="490.88,-445.75 404.38,-445.75 404.38,-426.5 490.88,-426.5 490.88,-445.75"/>
<text text-anchor="middle" x="447.62" y="-432.25" font-family="Helvetica,sans-Serif" font-size="10.00">std::vector&lt; T &gt;</text>
</a>
</g>
</g>
<!-- Node11&#45;&gt;Node13 -->
<g id="edge15_Node000013_Node000011" class="edge">
<title>Node11&#45;&gt;Node13</title>
<g id="a_edge15_Node000013_Node000011"><a xlink:title=" ">
<path fill="none" stroke="#9a32cd" stroke-dasharray="5,2" d="M248.41,-436.12C286.19,-436.12 358.21,-436.12 404.25,-436.12"/>
<polygon fill="#9a32cd" stroke="#9a32cd" points="248.52,-432.63 238.52,-436.13 248.52,-439.63 248.52,-432.63"/>
</a>
</g>
<text text-anchor="middle" x="337.62" y="-437.88" font-family="Helvetica,sans-Serif" font-size="10.00" fill="grey"> elements</text>
</g>
<!-- Node22 -->
<g id="Node000022" class="node">
<title>Node22</title>
<g id="a_Node000022"><a xlink:title=" ">
<polygon fill="white" stroke="#666666" points="633.88,-531.75 528.62,-531.75 528.62,-512.5 633.88,-512.5 633.88,-531.75"/>
<text text-anchor="middle" x="581.25" y="-518.25" font-family="Helvetica,sans-Serif" font-size="10.00">std::shared_ptr&lt; T &gt;</text>
</a>
</g>
</g>
<!-- Node11&#45;&gt;Node22 -->
<g id="edge33_Node000022_Node000011" class="edge">
<title>Node11&#45;&gt;Node22</title>
<g id="a_edge33_Node000022_Node000011"><a xlink:title=" ">
<path fill="none" stroke="#9a32cd" stroke-dasharray="5,2" d="M247.95,-442.05C308.08,-456.54 463.19,-493.92 538.28,-512.01"/>
<polygon fill="#9a32cd" stroke="#9a32cd" points="248.94,-438.69 238.4,-439.75 247.3,-445.49 248.94,-438.69"/>
</a>
</g>
<text text-anchor="middle" x="337.62" y="-473.54" font-family="Helvetica,sans-Serif" font-size="10.00" fill="grey"> ptr</text>
</g>
<!-- Node12&#45;&gt;Node5 -->
<g id="edge12_Node000005_Node000012" class="edge">
<title>Node12&#45;&gt;Node5</title>
<g id="a_edge12_Node000005_Node000012"><a xlink:title=" ">
<path fill="none" stroke="#9a32cd" stroke-dasharray="5,2" d="M809.98,-125.63C870.91,-121.88 956.28,-116.61 1010.23,-113.29"/>
<polygon fill="#9a32cd" stroke="#9a32cd" points="809.8,-122.14 800.03,-126.25 810.23,-129.12 809.8,-122.14"/>
</a>
</g>
<text text-anchor="middle" x="898.88" y="-125.97" font-family="Helvetica,sans-Serif" font-size="10.00" fill="grey"> m_active_traces</text>
</g>
<!-- Node13&#45;&gt;Node12 -->
<g id="edge14_Node000012_Node000013" class="edge">
<title>Node13&#45;&gt;Node12</title>
<g id="a_edge14_Node000012_Node000013"><a xlink:title=" ">
<path fill="none" stroke="orange" stroke-dasharray="5,2" d="M465.53,-417.44C476.69,-404.09 490.69,-385.18 498.75,-366.12 516.23,-324.84 486.88,-300.31 516.75,-266.88 556.64,-222.23 595.08,-260.01 645.75,-228.12 683.76,-204.21 715.72,-159.87 728.79,-140.09"/>
<polygon fill="orange" stroke="orange" points="462.92,-415.11 459.03,-424.96 468.22,-419.69 462.92,-415.11"/>
</a>
</g>
<text text-anchor="middle" x="581.25" y="-268.62" font-family="Helvetica,sans-Serif" font-size="10.00" fill="grey"> &lt; std::string &gt;</text>
</g>
<!-- Node17 -->
<g id="Node000017" class="node">
<title>Node17</title>
<g id="a_Node000017"><a xlink:title=" ">
<polygon fill="white" stroke="#666666" points="1438.25,-414.38 1315,-414.38 1315,-383.88 1438.25,-383.88 1438.25,-414.38"/>
<text text-anchor="start" x="1323" y="-400.88" font-family="Helvetica,sans-Serif" font-size="10.00">std::vector&lt; Ark::internal</text>
<text text-anchor="middle" x="1376.62" y="-389.62" font-family="Helvetica,sans-Serif" font-size="10.00">::MacroScope &gt;</text>
</a>
</g>
</g>
<!-- Node13&#45;&gt;Node17 -->
<g id="edge26_Node000017_Node000013" class="edge">
<title>Node13&#45;&gt;Node17</title>
<g id="a_edge26_Node000017_Node000013"><a xlink:title=" ">
<path fill="none" stroke="orange" stroke-dasharray="5,2" d="M502.49,-438.29C660.22,-444.27 1119.23,-459.07 1267,-435.12 1291.32,-431.18 1317.56,-422.62 1338.16,-414.83"/>
<polygon fill="orange" stroke="orange" points="502.87,-434.8 492.74,-437.91 502.6,-441.8 502.87,-434.8"/>
</a>
</g>
<text text-anchor="middle" x="898.88" y="-450.07" font-family="Helvetica,sans-Serif" font-size="10.00" fill="grey"> &lt; Ark::internal::MacroScope &gt;</text>
</g>
<!-- Node20 -->
<g id="Node000020" class="node">
<title>Node20</title>
<g id="a_Node000020"><a xlink:title=" ">
<polygon fill="white" stroke="#666666" points="797.75,-421.38 674.5,-421.38 674.5,-390.88 797.75,-390.88 797.75,-421.38"/>
<text text-anchor="start" x="682.5" y="-407.88" font-family="Helvetica,sans-Serif" font-size="10.00">std::vector&lt; Ark::internal</text>
<text text-anchor="middle" x="736.12" y="-396.62" font-family="Helvetica,sans-Serif" font-size="10.00">::Node &gt;</text>
</a>
</g>
</g>
<!-- Node13&#45;&gt;Node20 -->
<g id="edge29_Node000020_Node000013" class="edge">
<title>Node13&#45;&gt;Node20</title>
<g id="a_edge29_Node000020_Node000013"><a xlink:title=" ">
<path fill="none" stroke="orange" stroke-dasharray="5,2" d="M502.33,-425.97C507.2,-425.2 512.06,-424.49 516.75,-423.88 569.74,-416.97 630.35,-412.3 674.24,-409.49"/>
<polygon fill="orange" stroke="orange" points="501.83,-422.5 492.54,-427.59 502.98,-429.41 501.83,-422.5"/>
</a>
</g>
<text text-anchor="middle" x="581.25" y="-425.62" font-family="Helvetica,sans-Serif" font-size="10.00" fill="grey"> &lt; Ark::internal::Node &gt;</text>
</g>
<!-- Node23 -->
<g id="Node000023" class="node">
<title>Node23</title>
<g id="a_Node000023"><a xlink:title=" ">
<polygon fill="white" stroke="#666666" points="1468.25,-502.38 1285,-502.38 1285,-471.88 1468.25,-471.88 1468.25,-502.38"/>
<text text-anchor="start" x="1293" y="-488.88" font-family="Helvetica,sans-Serif" font-size="10.00">std::vector&lt; std::shared</text>
<text text-anchor="middle" x="1376.62" y="-477.62" font-family="Helvetica,sans-Serif" font-size="10.00">_ptr&lt; Ark::internal::MacroExecutor &gt; &gt;</text>
</a>
</g>
</g>
<!-- Node13&#45;&gt;Node23 -->
<g id="edge36_Node000023_Node000013" class="edge">
<title>Node13&#45;&gt;Node23</title>
<g id="a_edge36_Node000023_Node000013"><a xlink:title=" ">
<path fill="none" stroke="orange" stroke-dasharray="5,2" d="M489.67,-449.24C498.52,-451.6 507.88,-453.74 516.75,-455.12 793.93,-498.33 1127.2,-495.33 1284.69,-490.7"/>
<polygon fill="orange" stroke="orange" points="490.84,-445.94 480.27,-446.6 488.94,-452.68 490.84,-445.94"/>
</a>
</g>
<text text-anchor="start" x="826.5" y="-504.39" font-family="Helvetica,sans-Serif" font-size="10.00" fill="grey"> &lt; std::shared_ptr&lt;</text>
<text text-anchor="middle" x="898.88" y="-493.14" font-family="Helvetica,sans-Serif" font-size="10.00" fill="grey"> Ark::internal::MacroExecutor &gt; &gt;</text>
</g>
<!-- Node14&#45;&gt;Node3 -->
<g id="edge16_Node000003_Node000014" class="edge">
<title>Node14&#45;&gt;Node3</title>
<g id="a_edge16_Node000003_Node000014"><a xlink:title=" ">
<path fill="none" stroke="#9a32cd" stroke-dasharray="5,2" d="M508.27,-350.09C566.21,-352.71 656.68,-356.12 735.12,-356.12 735.12,-356.12 735.12,-356.12 1377.62,-356.12 1468.69,-356.12 1571.4,-398.33 1614.54,-418.11"/>
<polygon fill="#9a32cd" stroke="#9a32cd" points="508.43,-346.59 498.28,-349.63 508.11,-353.59 508.43,-346.59"/>
</a>
</g>
<text text-anchor="middle" x="1062.5" y="-357.88" font-family="Helvetica,sans-Serif" font-size="10.00" fill="grey"> m_ast</text>
</g>
<!-- Node14&#45;&gt;Node19 -->
<g id="edge24_Node000019_Node000014" class="edge">
<title>Node14&#45;&gt;Node19</title>
<g id="a_edge24_Node000019_Node000014"><a xlink:title=" ">
<path fill="none" stroke="#9a32cd" stroke-dasharray="5,2" d="M500.43,-334.43C505.93,-333.18 511.45,-331.97 516.75,-330.88 573.76,-319.06 588.92,-320.74 645.75,-308.12 658.45,-305.3 672.07,-301.87 684.74,-298.48"/>
<polygon fill="#9a32cd" stroke="#9a32cd" points="499.67,-331.01 490.72,-336.68 501.25,-337.83 499.67,-331.01"/>
</a>
</g>
<text text-anchor="middle" x="581.25" y="-332.62" font-family="Helvetica,sans-Serif" font-size="10.00" fill="grey"> elements</text>
</g>
<!-- Node14&#45;&gt;Node20 -->
<g id="edge28_Node000020_Node000014" class="edge">
<title>Node14&#45;&gt;Node20</title>
<g id="a_edge28_Node000020_Node000014"><a xlink:title=" ">
<path fill="none" stroke="#9a32cd" stroke-dasharray="5,2" d="M491.12,-360.38C499.57,-362.79 508.41,-365.16 516.75,-367.12 569.42,-379.52 630.05,-390.06 674.05,-397.04"/>
<polygon fill="#9a32cd" stroke="#9a32cd" points="492.35,-357.09 481.77,-357.63 490.38,-363.81 492.35,-357.09"/>
</a>
</g>
<text text-anchor="middle" x="581.25" y="-393.31" font-family="Helvetica,sans-Serif" font-size="10.00" fill="grey"> elements</text>
</g>
<!-- Node15 -->
<g id="Node000015" class="node">
<title>Node15</title>
<g id="a_Node000015"><a xlink:href="../../dc/dda/structArk_1_1internal_1_1FileSpan.html" target="_top" xlink:title="Describes a span for a node/atom in a file, its start position and end position.">
<polygon fill="white" stroke="#666666" points="278.75,-356.75 166,-356.75 166,-337.5 278.75,-337.5 278.75,-356.75"/>
<text text-anchor="middle" x="222.38" y="-343.25" font-family="Helvetica,sans-Serif" font-size="10.00">Ark::internal::FileSpan</text>
</a>
</g>
</g>
<!-- Node15&#45;&gt;Node14 -->
<g id="edge17_Node000014_Node000015" class="edge">
<title>Node15&#45;&gt;Node14</title>
<g id="a_edge17_Node000014_Node000015"><a xlink:title=" ">
<path fill="none" stroke="#9a32cd" stroke-dasharray="5,2" d="M290.62,-347.12C325.34,-347.12 366.89,-347.12 398.38,-347.12"/>
<polygon fill="#9a32cd" stroke="#9a32cd" points="290.65,-343.63 280.65,-347.13 290.65,-350.63 290.65,-343.63"/>
</a>
</g>
<text text-anchor="middle" x="337.62" y="-348.88" font-family="Helvetica,sans-Serif" font-size="10.00" fill="grey"> m_pos</text>
</g>
<!-- Node16 -->
<g id="Node000016" class="node">
<title>Node16</title>
<g id="a_Node000016"><a xlink:href="../../d7/df6/structArk_1_1internal_1_1FilePos.html" target="_top" xlink:title=" ">
<polygon fill="white" stroke="#666666" points="107.5,-356.75 0,-356.75 0,-337.5 107.5,-337.5 107.5,-356.75"/>
<text text-anchor="middle" x="53.75" y="-343.25" font-family="Helvetica,sans-Serif" font-size="10.00">Ark::internal::FilePos</text>
</a>
</g>
</g>
<!-- Node16&#45;&gt;Node15 -->
<g id="edge18_Node000015_Node000016" class="edge">
<title>Node16&#45;&gt;Node15</title>
<g id="a_edge18_Node000015_Node000016"><a xlink:title=" ">
<path fill="none" stroke="#9a32cd" stroke-dasharray="5,2" d="M119.37,-347.12C134.61,-347.12 150.73,-347.12 165.54,-347.12"/>
<polygon fill="#9a32cd" stroke="#9a32cd" points="119.44,-343.63 109.44,-347.13 119.44,-350.63 119.44,-343.63"/>
</a>
</g>
<text text-anchor="middle" x="136.75" y="-348.88" font-family="Helvetica,sans-Serif" font-size="10.00" fill="grey"> start</text>
</g>
<!-- Node17&#45;&gt;Node3 -->
<g id="edge20_Node000003_Node000017" class="edge">
<title>Node17&#45;&gt;Node3</title>
<g id="a_edge20_Node000003_Node000017"><a xlink:title=" ">
<path fill="none" stroke="#9a32cd" stroke-dasharray="5,2" d="M1449.77,-406.45C1479.44,-409.54 1514.13,-413.25 1545.5,-416.88 1551.28,-417.54 1557.27,-418.25 1563.28,-418.98"/>
<polygon fill="#9a32cd" stroke="#9a32cd" points="1450.47,-403 1440.16,-405.45 1449.75,-409.96 1450.47,-403"/>
</a>
</g>
<text text-anchor="middle" x="1515.88" y="-418.62" font-family="Helvetica,sans-Serif" font-size="10.00" fill="grey"> m_macros</text>
</g>
<!-- Node18 -->
<g id="Node000018" class="node">
<title>Node18</title>
<g id="a_Node000018"><a xlink:href="../../d6/d42/classArk_1_1internal_1_1MacroScope.html" target="_top" xlink:title=" ">
<polygon fill="white" stroke="#666666" points="1127.12,-319.75 997.88,-319.75 997.88,-300.5 1127.12,-300.5 1127.12,-319.75"/>
<text text-anchor="middle" x="1062.5" y="-306.25" font-family="Helvetica,sans-Serif" font-size="10.00">Ark::internal::MacroScope</text>
</a>
</g>
</g>
<!-- Node18&#45;&gt;Node17 -->
<g id="edge21_Node000017_Node000018" class="edge">
<title>Node18&#45;&gt;Node17</title>
<g id="a_edge21_Node000017_Node000018"><a xlink:title=" ">
<path fill="none" stroke="#9a32cd" stroke-dasharray="5,2" d="M1110.05,-323.4C1166.26,-339.43 1260.69,-366.35 1320.49,-383.4"/>
<polygon fill="#9a32cd" stroke="#9a32cd" points="1111.03,-320.04 1100.46,-320.66 1109.11,-326.77 1111.03,-320.04"/>
</a>
</g>
<text text-anchor="middle" x="1210.38" y="-369.55" font-family="Helvetica,sans-Serif" font-size="10.00" fill="grey"> elements</text>
</g>
<!-- Node19&#45;&gt;Node3 -->
<g id="edge37_Node000003_Node000019" class="edge">
<title>Node19&#45;&gt;Node3</title>
<g id="a_edge37_Node000003_Node000019"><a xlink:title=" ">
<path fill="none" stroke="#9a32cd" stroke-dasharray="5,2" d="M798.63,-285.16C845.85,-285.95 912.67,-287.09 971.25,-288.12 1227.56,-292.65 1313.96,-232.1 1545.5,-342.12 1582.95,-359.92 1614.78,-399.4 1628.35,-418.02"/>
<polygon fill="#9a32cd" stroke="#9a32cd" points="798.93,-281.66 788.88,-284.99 798.82,-288.66 798.93,-281.66"/>
</a>
</g>
<text text-anchor="middle" x="1210.38" y="-283.36" font-family="Helvetica,sans-Serif" font-size="10.00" fill="grey"> m_defined_functions</text>
</g>
<!-- Node19&#45;&gt;Node18 -->
<g id="edge22_Node000018_Node000019" class="edge">
<title>Node19&#45;&gt;Node18</title>
<g id="a_edge22_Node000018_Node000019"><a xlink:title=" ">
<path fill="none" stroke="#9a32cd" stroke-dasharray="5,2" d="M798.82,-289.07C855.78,-293.64 940.02,-300.39 997.65,-305.01"/>
<polygon fill="#9a32cd" stroke="#9a32cd" points="799.21,-285.59 788.96,-288.28 798.65,-292.57 799.21,-285.59"/>
</a>
</g>
<text text-anchor="middle" x="898.88" y="-304.19" font-family="Helvetica,sans-Serif" font-size="10.00" fill="grey"> m_macros</text>
</g>
<!-- Node20&#45;&gt;Node3 -->
<g id="edge27_Node000003_Node000020" class="edge">
<title>Node20&#45;&gt;Node3</title>
<g id="a_edge27_Node000003_Node000020"><a xlink:title=" ">
<path fill="none" stroke="#9a32cd" stroke-dasharray="5,2" d="M809.05,-409.05C942.51,-414.29 1237.52,-425.04 1486.25,-428.12 1511.36,-428.44 1538.85,-428.51 1563.32,-428.49"/>
<polygon fill="#9a32cd" stroke="#9a32cd" points="809.44,-405.56 799.31,-408.66 809.17,-412.56 809.44,-405.56"/>
</a>
</g>
<text text-anchor="middle" x="1210.38" y="-425.61" font-family="Helvetica,sans-Serif" font-size="10.00" fill="grey"> m_macros_being_applied</text>
</g>
<!-- Node21&#45;&gt;Node3 -->
<g id="edge30_Node000003_Node000021" class="edge">
<title>Node21&#45;&gt;Node3</title>
<g id="a_edge30_Node000003_Node000021"><a xlink:title=" ">
<path fill="none" stroke="#9a32cd" stroke-dasharray="5,2" d="M1141.23,-541.6C1223.5,-541.54 1356.61,-536.78 1468.25,-511.12 1503.84,-502.95 1512.59,-498.96 1545.5,-483.12 1573.36,-469.72 1603.6,-450.05 1620.94,-438.22"/>
<polygon fill="#9a32cd" stroke="#9a32cd" points="1141.49,-538.11 1131.48,-541.59 1141.48,-545.11 1141.49,-538.11"/>
</a>
</g>
<text text-anchor="middle" x="1376.62" y="-538.34" font-family="Helvetica,sans-Serif" font-size="10.00" fill="grey"> m_conditional_executor</text>
</g>
<!-- Node21&#45;&gt;Node23 -->
<g id="edge35_Node000023_Node000021" class="edge">
<title>Node21&#45;&gt;Node23</title>
<g id="a_edge35_Node000023_Node000021"><a xlink:title=" ">
<path fill="none" stroke="#9a32cd" stroke-dasharray="5,2" d="M1141.21,-523.24C1145.45,-522.42 1149.65,-521.62 1153.75,-520.88 1196.68,-513.04 1244.51,-505.6 1284.74,-499.71"/>
<polygon fill="#9a32cd" stroke="#9a32cd" points="1140.56,-519.81 1131.43,-525.19 1141.92,-526.67 1140.56,-519.81"/>
</a>
</g>
<text text-anchor="middle" x="1210.38" y="-522.62" font-family="Helvetica,sans-Serif" font-size="10.00" fill="grey"> elements</text>
</g>
<!-- Node22&#45;&gt;Node21 -->
<g id="edge32_Node000021_Node000022" class="edge">
<title>Node22&#45;&gt;Node21</title>
<g id="a_edge32_Node000021_Node000022"><a xlink:title=" ">
<path fill="none" stroke="orange" stroke-dasharray="5,2" d="M645.48,-524.5C736.22,-527.91 902.6,-534.16 995.08,-537.63"/>
<polygon fill="orange" stroke="orange" points="645.63,-521 635.51,-524.13 645.37,-528 645.63,-521"/>
</a>
</g>
<text text-anchor="middle" x="736.12" y="-532.1" font-family="Helvetica,sans-Serif" font-size="10.00" fill="grey"> &lt; Ark::internal::MacroExecutor &gt;</text>
</g>
<!-- Node23&#45;&gt;Node3 -->
<g id="edge34_Node000003_Node000023" class="edge">
<title>Node23&#45;&gt;Node3</title>
<g id="a_edge34_Node000003_Node000023"><a xlink:title=" ">
<path fill="none" stroke="#9a32cd" stroke-dasharray="5,2" d="M1479.93,-470.25C1501.68,-466.1 1524.43,-461.33 1545.5,-456.12 1565.97,-451.07 1588.63,-444 1606.08,-438.23"/>
<polygon fill="#9a32cd" stroke="#9a32cd" points="1479.33,-466.8 1470.15,-472.08 1480.62,-473.68 1479.33,-466.8"/>
</a>
</g>
<text text-anchor="middle" x="1515.88" y="-469.95" font-family="Helvetica,sans-Serif" font-size="10.00" fill="grey"> m_executors</text>
</g>
</g>
</svg>
