<?xml version="1.0" encoding="UTF-8" standalone="no"?>
<!DOCTYPE svg PUBLIC "-//W3C//DTD SVG 1.1//EN"
 "http://www.w3.org/Graphics/SVG/1.1/DTD/svg11.dtd">
<!-- Generated by graphviz version 12.2.0 (20241103.1931)
 -->
<!-- Title: Ark::internal::SymbolExecutor Pages: 1 -->
<!--zoomable 637 -->

<svg id="main" version="1.1" xmlns="http://www.w3.org/2000/svg" xmlns:xlink="http://www.w3.org/1999/xlink" xml:space="preserve" onload="init(evt)">

<style type="text/css"><![CDATA[
.node, .edge {opacity: 0.7;}
.node.selected, .edge.selected {opacity: 1;}
.edge:hover path { stroke: red; }
.edge:hover polygon { stroke: red; fill: red; }
]]></style>

<defs>
  <circle id="rim" cx="0" cy="0" r="7"/>
  <circle id="rim2" cx="0" cy="0" r="3.5"/>
  <g id="zoomPlus">
    <use xlink:href="#rim" fill="#404040"><set attributeName="fill" to="#808080" begin="zoomplus.mouseover" end="zoomplus.mouseout"/></use>
    <path d="M-4,0h8M0,-4v8" fill="none" stroke="white" stroke-width="1.5" pointer-events="none"/>
  </g>
  <g id="zoomMin">
    <use xlink:href="#rim" fill="#404040"><set attributeName="fill" to="#808080" begin="zoomminus.mouseover" end="zoomminus.mouseout"/></use>
    <path d="M-4,0h8" fill="none" stroke="white" stroke-width="1.5" pointer-events="none"/>
  </g>
  <g id="arrowUp" transform="translate(30 24)">
    <use xlink:href="#rim"/>
    <path pointer-events="none" fill="none" stroke="white" stroke-width="1.5" d="M0,-3.0v7 M-2.5,-0.5L0,-3.0L2.5,-0.5"/>
  </g>
  <g id="arrowRight" transform="rotate(90) translate(36 -43)">
    <use xlink:href="#rim"/>
    <path pointer-events="none" fill="none" stroke="white" stroke-width="1.5" d="M0,-3.0v7 M-2.5,-0.5L0,-3.0L2.5,-0.5"/>
  </g>
  <g id="arrowDown" transform="rotate(180) translate(-30 -48)">
    <use xlink:href="#rim"/>
    <path pointer-events="none" fill="none" stroke="white" stroke-width="1.5" d="M0,-3.0v7 M-2.5,-0.5L0,-3.0L2.5,-0.5"/>
  </g>
  <g id="arrowLeft" transform="rotate(270) translate(-36 17)">
    <use xlink:href="#rim"/>
    <path pointer-events="none" fill="none" stroke="white" stroke-width="1.5" d="M0,-3.0v7 M-2.5,-0.5L0,-3.0L2.5,-0.5"/>
  </g>
  <g id="resetDef">
    <use xlink:href="#rim2" fill="#404040"><set attributeName="fill" to="#808080" begin="reset.mouseover" end="reset.mouseout"/></use>
  </g>
</defs>
<script type="application/ecmascript">
var viewWidth = 1720;
var viewHeight = 637;
var sectionId = 'dynsection-1';
</script>
<script type="application/ecmascript" xlink:href="../../svg.min.js"/>
<svg id="graph" class="graph">
<g id="viewport">
<title>Ark::internal::SymbolExecutor</title>
<!-- Node1 -->
<g id="Node000001" class="node">
<title>Node1</title>
<g id="a_Node000001"><a xlink:title="Handles Symbol macros.">
<polygon fill="#999999" stroke="#666666" points="1138.75,-593.88 992.25,-593.88 992.25,-574.62 1138.75,-574.62 1138.75,-593.88"/>
<text text-anchor="middle" x="1065.5" y="-580.38" font-family="Helvetica,sans-Serif" font-size="10.00">Ark::internal::SymbolExecutor</text>
</a>
</g>
</g>
<!-- Node2 -->
<g id="Node000002" class="node">
<title>Node2</title>
<g id="a_Node000002"><a xlink:href="../../d5/d8f/classArk_1_1internal_1_1MacroExecutor.html" target="_top" xlink:title="A class that applies macros in a Node.">
<polygon fill="white" stroke="#666666" points="809.38,-601.88 668.88,-601.88 668.88,-582.62 809.38,-582.62 809.38,-601.88"/>
<text text-anchor="middle" x="739.12" y="-588.38" font-family="Helvetica,sans-Serif" font-size="10.00">Ark::internal::MacroExecutor</text>
</a>
</g>
</g>
<!-- Node2&#45;&gt;Node1 -->
<g id="edge1_Node000001_Node000002" class="edge">
<title>Node2&#45;&gt;Node1</title>
<g id="a_edge1_Node000001_Node000002"><a xlink:title=" ">
<path fill="none" stroke="#63b8ff" d="M821,-590.26C873.45,-588.96 941.22,-587.29 991.94,-586.04"/>
<polygon fill="#63b8ff" stroke="#63b8ff" points="821.14,-586.75 811.22,-590.5 821.31,-593.75 821.14,-586.75"/>
</a>
</g>
</g>
<!-- Node25 -->
<g id="Node000025" class="node">
<title>Node25</title>
<g id="a_Node000025"><a xlink:title=" ">
<polygon fill="white" stroke="#666666" points="1132.75,-555.5 998.25,-555.5 998.25,-525 1132.75,-525 1132.75,-555.5"/>
<text text-anchor="start" x="1006.25" y="-542" font-family="Helvetica,sans-Serif" font-size="10.00">std::shared_ptr&lt; Ark</text>
<text text-anchor="middle" x="1065.5" y="-530.75" font-family="Helvetica,sans-Serif" font-size="10.00">::internal::MacroExecutor &gt;</text>
</a>
</g>
</g>
<!-- Node2&#45;&gt;Node25 -->
<g id="edge35_Node000025_Node000002" class="edge">
<title>Node2&#45;&gt;Node25</title>
<g id="a_edge35_Node000025_Node000002"><a xlink:title=" ">
<path fill="none" stroke="#9a32cd" stroke-dasharray="5,2" d="M789.68,-579.5C802.59,-576.45 816.52,-573.39 829.5,-571 885.95,-560.62 950.66,-552.43 997.87,-547.11"/>
<polygon fill="#9a32cd" stroke="#9a32cd" points="789.02,-576.06 780.12,-581.81 790.67,-582.87 789.02,-576.06"/>
</a>
</g>
<text text-anchor="middle" x="901.88" y="-572.75" font-family="Helvetica,sans-Serif" font-size="10.00" fill="grey"> ptr</text>
</g>
<!-- Node3 -->
<g id="Node000003" class="node">
<title>Node3</title>
<g id="a_Node000003"><a xlink:href="../../d5/db5/classArk_1_1internal_1_1MacroProcessor.html" target="_top" xlink:title="The class handling the macros definitions and calls, given an AST.">
<polygon fill="white" stroke="#666666" points="1712.25,-419.88 1566.5,-419.88 1566.5,-400.62 1712.25,-400.62 1712.25,-419.88"/>
<text text-anchor="middle" x="1639.38" y="-406.38" font-family="Helvetica,sans-Serif" font-size="10.00">Ark::internal::MacroProcessor</text>
</a>
</g>
</g>
<!-- Node3&#45;&gt;Node2 -->
<g id="edge2_Node000002_Node000003" class="edge">
<title>Node3&#45;&gt;Node2</title>
<g id="a_edge2_Node000002_Node000003"><a xlink:title=" ">
<path fill="none" stroke="#9a32cd" stroke-dasharray="5,2" d="M1624.52,-429.12C1598.75,-462.45 1539.8,-530.71 1471.25,-557.25 1239.72,-646.89 935.75,-620.09 804.76,-602.37"/>
<polygon fill="#9a32cd" stroke="#9a32cd" points="1627,-431.64 1630.25,-421.55 1621.42,-427.42 1627,-431.64"/>
</a>
</g>
<text text-anchor="middle" x="1213.38" y="-619.76" font-family="Helvetica,sans-Serif" font-size="10.00" fill="grey"> m_processor</text>
</g>
<!-- Node4 -->
<g id="Node000004" class="node">
<title>Node4</title>
<g id="a_Node000004"><a xlink:href="../../da/d7b/classArk_1_1internal_1_1Pass.html" target="_top" xlink:title="An interface to describe compiler passes.">
<polygon fill="white" stroke="#666666" points="1428.12,-221.88 1331.12,-221.88 1331.12,-202.62 1428.12,-202.62 1428.12,-221.88"/>
<text text-anchor="middle" x="1379.62" y="-208.38" font-family="Helvetica,sans-Serif" font-size="10.00">Ark::internal::Pass</text>
</a>
</g>
</g>
<!-- Node4&#45;&gt;Node3 -->
<g id="edge3_Node000003_Node000004" class="edge">
<title>Node4&#45;&gt;Node3</title>
<g id="a_edge3_Node000003_Node000004"><a xlink:title=" ">
<path fill="none" stroke="#63b8ff" d="M1439.54,-219.05C1474.15,-225.51 1517.11,-238.02 1548.5,-262.25 1597.76,-300.27 1626.12,-373.57 1635.17,-400.24"/>
<polygon fill="#63b8ff" stroke="#63b8ff" points="1440.57,-215.68 1430.12,-217.42 1439.37,-222.58 1440.57,-215.68"/>
</a>
</g>
</g>
<!-- Node5 -->
<g id="Node000005" class="node">
<title>Node5</title>
<g id="a_Node000005"><a xlink:href="../../d6/d2f/classArk_1_1internal_1_1Logger.html" target="_top" xlink:title=" ">
<polygon fill="white" stroke="#666666" points="1117.38,-136.88 1013.62,-136.88 1013.62,-117.62 1117.38,-117.62 1117.38,-136.88"/>
<text text-anchor="middle" x="1065.5" y="-123.38" font-family="Helvetica,sans-Serif" font-size="10.00">Ark::internal::Logger</text>
</a>
</g>
</g>
<!-- Node5&#45;&gt;Node4 -->
<g id="edge4_Node000004_Node000005" class="edge">
<title>Node5&#45;&gt;Node4</title>
<g id="a_edge4_Node000004_Node000005"><a xlink:title=" ">
<path fill="none" stroke="#9a32cd" stroke-dasharray="5,2" d="M1114.27,-140.26C1176.78,-157.28 1285,-186.75 1341.64,-202.18"/>
<polygon fill="#9a32cd" stroke="#9a32cd" points="1115.56,-136.98 1104.99,-137.73 1113.72,-143.74 1115.56,-136.98"/>
</a>
</g>
<text text-anchor="middle" x="1213.38" y="-184.08" font-family="Helvetica,sans-Serif" font-size="10.00" fill="grey"> m_logger</text>
</g>
<!-- Node6 -->
<g id="Node000006" class="node">
<title>Node6</title>
<g id="a_Node000006"><a xlink:title=" ">
<polygon fill="white" stroke="#666666" points="253.62,-201.88 194.12,-201.88 194.12,-182.62 253.62,-182.62 253.62,-201.88"/>
<text text-anchor="middle" x="223.88" y="-188.38" font-family="Helvetica,sans-Serif" font-size="10.00">std::string</text>
</a>
</g>
</g>
<!-- Node6&#45;&gt;Node5 -->
<g id="edge5_Node000005_Node000006" class="edge">
<title>Node6&#45;&gt;Node5</title>
<g id="a_edge5_Node000005_Node000006"><a xlink:title=" ">
<path fill="none" stroke="#9a32cd" stroke-dasharray="5,2" d="M244.81,-175.18C259.24,-163.59 279.66,-148.71 299.75,-139.25 341.3,-119.68 354.6,-121.89 399.5,-112.25 578.89,-73.73 628.62,-71.53 811.5,-86.25 883.57,-92.05 966.09,-107.01 1016.75,-117.16"/>
<polygon fill="#9a32cd" stroke="#9a32cd" points="242.91,-172.21 237.42,-181.27 247.37,-177.61 242.91,-172.21"/>
</a>
</g>
<text text-anchor="middle" x="584.25" y="-90.41" font-family="Helvetica,sans-Serif" font-size="10.00" fill="grey"> m_name</text>
</g>
<!-- Node8 -->
<g id="Node000008" class="node">
<title>Node8</title>
<g id="a_Node000008"><a xlink:title=" ">
<polygon fill="white" stroke="#666666" points="800.38,-159.38 677.88,-159.38 677.88,-95.12 800.38,-95.12 800.38,-159.38"/>
<text text-anchor="start" x="685.88" y="-145.88" font-family="Helvetica,sans-Serif" font-size="10.00">std::unordered_map</text>
<text text-anchor="start" x="685.88" y="-134.62" font-family="Helvetica,sans-Serif" font-size="10.00">&lt; std::string, std::</text>
<text text-anchor="start" x="685.88" y="-123.38" font-family="Helvetica,sans-Serif" font-size="10.00">chrono::time_point&lt; std</text>
<text text-anchor="start" x="685.88" y="-112.12" font-family="Helvetica,sans-Serif" font-size="10.00">::chrono::high_resolution</text>
<text text-anchor="middle" x="739.12" y="-100.88" font-family="Helvetica,sans-Serif" font-size="10.00">_clock &gt; &gt;</text>
</a>
</g>
</g>
<!-- Node6&#45;&gt;Node8 -->
<g id="edge8_Node000008_Node000006" class="edge">
<title>Node6&#45;&gt;Node8</title>
<g id="a_edge8_Node000008_Node000006"><a xlink:title=" ">
<path fill="none" stroke="#9a32cd" stroke-dasharray="5,2" d="M263.18,-178.52C318.82,-159.38 425.61,-125.64 519.75,-113.25 576.59,-105.77 591.59,-108.8 648.75,-113.25 658.14,-113.98 668.05,-115.14 677.7,-116.48"/>
<polygon fill="#9a32cd" stroke="#9a32cd" points="262.16,-175.17 253.87,-181.76 264.46,-181.78 262.16,-175.17"/>
</a>
</g>
<text text-anchor="middle" x="450.62" y="-138.73" font-family="Helvetica,sans-Serif" font-size="10.00" fill="grey"> keys</text>
</g>
<!-- Node12 -->
<g id="Node000012" class="node">
<title>Node12</title>
<g id="a_Node000012"><a xlink:title=" ">
<polygon fill="white" stroke="#666666" points="801.12,-201.88 677.12,-201.88 677.12,-182.62 801.12,-182.62 801.12,-201.88"/>
<text text-anchor="middle" x="739.12" y="-188.38" font-family="Helvetica,sans-Serif" font-size="10.00">std::vector&lt; std::string &gt;</text>
</a>
</g>
</g>
<!-- Node6&#45;&gt;Node12 -->
<g id="edge13_Node000012_Node000006" class="edge">
<title>Node6&#45;&gt;Node12</title>
<g id="a_edge13_Node000012_Node000006"><a xlink:title=" ">
<path fill="none" stroke="#9a32cd" stroke-dasharray="5,2" d="M265.22,-192.25C354.76,-192.25 570.58,-192.25 676.87,-192.25"/>
<polygon fill="#9a32cd" stroke="#9a32cd" points="265.45,-188.75 255.45,-192.25 265.45,-195.75 265.45,-188.75"/>
</a>
</g>
<text text-anchor="middle" x="450.62" y="-194" font-family="Helvetica,sans-Serif" font-size="10.00" fill="grey"> elements</text>
</g>
<!-- Node18 -->
<g id="Node000018" class="node">
<title>Node18</title>
<g id="a_Node000018"><a xlink:href="../../dc/d9e/classArk_1_1internal_1_1Node.html" target="_top" xlink:title="A node of an Abstract Syntax Tree for ArkScript.">
<polygon fill="white" stroke="#666666" points="499.5,-318.88 401.75,-318.88 401.75,-299.62 499.5,-299.62 499.5,-318.88"/>
<text text-anchor="middle" x="450.62" y="-305.38" font-family="Helvetica,sans-Serif" font-size="10.00">Ark::internal::Node</text>
</a>
</g>
</g>
<!-- Node6&#45;&gt;Node18 -->
<g id="edge23_Node000018_Node000006" class="edge">
<title>Node6&#45;&gt;Node18</title>
<g id="a_edge23_Node000018_Node000006"><a xlink:title=" ">
<path fill="none" stroke="#9a32cd" stroke-dasharray="5,2" d="M239.83,-210.89C253.7,-226.91 275.75,-249.4 299.75,-262.25 332.66,-279.87 345.94,-270.15 381.5,-281.5 397.19,-286.51 414.37,-293.52 427.55,-299.24"/>
<polygon fill="#9a32cd" stroke="#9a32cd" points="242.74,-208.91 233.64,-203.49 237.37,-213.41 242.74,-208.91"/>
</a>
</g>
<text text-anchor="middle" x="340.62" y="-305.75" font-family="Helvetica,sans-Serif" font-size="10.00" fill="grey"> m_after_comment</text>
<text text-anchor="middle" x="340.62" y="-294.5" font-family="Helvetica,sans-Serif" font-size="10.00" fill="grey">m_comment</text>
<text text-anchor="middle" x="340.62" y="-283.25" font-family="Helvetica,sans-Serif" font-size="10.00" fill="grey">m_filename</text>
</g>
<!-- Node23 -->
<g id="Node000023" class="node">
<title>Node23</title>
<g id="a_Node000023"><a xlink:title=" ">
<polygon fill="white" stroke="#666666" points="790.25,-346.12 688,-346.12 688,-304.38 790.25,-304.38 790.25,-346.12"/>
<text text-anchor="start" x="696" y="-332.62" font-family="Helvetica,sans-Serif" font-size="10.00">std::unordered_map</text>
<text text-anchor="start" x="696" y="-321.38" font-family="Helvetica,sans-Serif" font-size="10.00">&lt; std::string, Ark::</text>
<text text-anchor="middle" x="739.12" y="-310.12" font-family="Helvetica,sans-Serif" font-size="10.00">internal::Node &gt;</text>
</a>
</g>
</g>
<!-- Node6&#45;&gt;Node23 -->
<g id="edge27_Node000023_Node000006" class="edge">
<title>Node6&#45;&gt;Node23</title>
<g id="a_edge27_Node000023_Node000006"><a xlink:title=" ">
<path fill="none" stroke="#9a32cd" stroke-dasharray="5,2" d="M265.06,-202.66C357.68,-226.66 585.99,-285.83 687.76,-312.2"/>
<polygon fill="#9a32cd" stroke="#9a32cd" points="265.96,-199.28 255.41,-200.16 264.21,-206.06 265.96,-199.28"/>
</a>
</g>
<text text-anchor="middle" x="450.62" y="-264.93" font-family="Helvetica,sans-Serif" font-size="10.00" fill="grey"> keys</text>
</g>
<!-- Node7 -->
<g id="Node000007" class="node">
<title>Node7</title>
<g id="a_Node000007"><a xlink:title=" ">
<polygon fill="white" stroke="#666666" points="100.75,-207.5 6.75,-207.5 6.75,-177 100.75,-177 100.75,-207.5"/>
<text text-anchor="start" x="14.75" y="-194" font-family="Helvetica,sans-Serif" font-size="10.00">std::basic_string&lt;</text>
<text text-anchor="middle" x="53.75" y="-182.75" font-family="Helvetica,sans-Serif" font-size="10.00"> Char &gt;</text>
</a>
</g>
</g>
<!-- Node7&#45;&gt;Node6 -->
<g id="edge6_Node000006_Node000007" class="edge">
<title>Node7&#45;&gt;Node6</title>
<g id="a_edge6_Node000006_Node000007"><a xlink:title=" ">
<path fill="none" stroke="#63b8ff" d="M112.62,-192.25C140.11,-192.25 171.74,-192.25 194.06,-192.25"/>
<polygon fill="#63b8ff" stroke="#63b8ff" points="112.65,-188.75 102.65,-192.25 112.65,-195.75 112.65,-188.75"/>
</a>
</g>
</g>
<!-- Node8&#45;&gt;Node5 -->
<g id="edge7_Node000005_Node000008" class="edge">
<title>Node8&#45;&gt;Node5</title>
<g id="a_edge7_Node000005_Node000008"><a xlink:title=" ">
<path fill="none" stroke="#9a32cd" stroke-dasharray="5,2" d="M812.22,-127.25C873.2,-127.25 959.07,-127.25 1013.24,-127.25"/>
<polygon fill="#9a32cd" stroke="#9a32cd" points="812.27,-123.75 802.27,-127.25 812.27,-130.75 812.27,-123.75"/>
</a>
</g>
<text text-anchor="middle" x="901.88" y="-129" font-family="Helvetica,sans-Serif" font-size="10.00" fill="grey"> m_trace_starts</text>
</g>
<!-- Node9 -->
<g id="Node000009" class="node">
<title>Node9</title>
<g id="a_Node000009"><a xlink:title=" ">
<polygon fill="white" stroke="#666666" points="501.75,-379.5 399.5,-379.5 399.5,-349 501.75,-349 501.75,-379.5"/>
<text text-anchor="start" x="407.5" y="-366" font-family="Helvetica,sans-Serif" font-size="10.00">std::unordered_map</text>
<text text-anchor="middle" x="450.62" y="-354.75" font-family="Helvetica,sans-Serif" font-size="10.00">&lt; K, T &gt;</text>
</a>
</g>
</g>
<!-- Node9&#45;&gt;Node8 -->
<g id="edge9_Node000008_Node000009" class="edge">
<title>Node9&#45;&gt;Node8</title>
<g id="a_edge9_Node000008_Node000009"><a xlink:title=" ">
<path fill="none" stroke="orange" stroke-dasharray="5,2" d="M490.66,-341.64C494.98,-337.68 498.86,-333.22 501.75,-328.25 520.85,-295.41 493.37,-185.59 519.75,-158.25 559.77,-116.78 628.21,-113.36 677.82,-117.58"/>
<polygon fill="orange" stroke="orange" points="488.74,-338.69 483.11,-347.67 493.11,-344.16 488.74,-338.69"/>
</a>
</g>
<text text-anchor="start" x="519.75" y="-193.75" font-family="Helvetica,sans-Serif" font-size="10.00" fill="grey"> &lt; std::string, std</text>
<text text-anchor="start" x="519.75" y="-182.5" font-family="Helvetica,sans-Serif" font-size="10.00" fill="grey">::chrono::time_point</text>
<text text-anchor="start" x="519.75" y="-171.25" font-family="Helvetica,sans-Serif" font-size="10.00" fill="grey">&lt; std::chrono::high_resolution</text>
<text text-anchor="middle" x="584.25" y="-160" font-family="Helvetica,sans-Serif" font-size="10.00" fill="grey">_clock &gt; &gt;</text>
</g>
<!-- Node9&#45;&gt;Node23 -->
<g id="edge29_Node000023_Node000009" class="edge">
<title>Node9&#45;&gt;Node23</title>
<g id="a_edge29_Node000023_Node000009"><a xlink:title=" ">
<path fill="none" stroke="orange" stroke-dasharray="5,2" d="M513.14,-346.08C515.37,-345.6 517.57,-345.15 519.75,-344.75 576.82,-334.13 643.39,-329.25 687.89,-327.03"/>
<polygon fill="orange" stroke="orange" points="512.38,-342.66 503.44,-348.34 513.97,-349.48 512.38,-342.66"/>
</a>
</g>
<text text-anchor="start" x="546.38" y="-357.75" font-family="Helvetica,sans-Serif" font-size="10.00" fill="grey"> &lt; std::string, Ark</text>
<text text-anchor="middle" x="584.25" y="-346.5" font-family="Helvetica,sans-Serif" font-size="10.00" fill="grey">::internal::Node &gt;</text>
</g>
<!-- Node10 -->
<g id="Node000010" class="node">
<title>Node10</title>
<g id="a_Node000010"><a xlink:title=" ">
<polygon fill="white" stroke="#666666" points="238.28,-385.88 209.47,-385.88 209.47,-366.62 238.28,-366.62 238.28,-385.88"/>
<text text-anchor="middle" x="223.88" y="-372.38" font-family="Helvetica,sans-Serif" font-size="10.00">K</text>
</a>
</g>
</g>
<!-- Node10&#45;&gt;Node9 -->
<g id="edge10_Node000009_Node000010" class="edge">
<title>Node10&#45;&gt;Node9</title>
<g id="a_edge10_Node000009_Node000010"><a xlink:title=" ">
<path fill="none" stroke="#9a32cd" stroke-dasharray="5,2" d="M249.92,-374.91C285.81,-373 352.67,-369.43 399.09,-366.95"/>
<polygon fill="#9a32cd" stroke="#9a32cd" points="249.91,-371.41 240.11,-375.44 250.28,-378.4 249.91,-371.41"/>
</a>
</g>
<text text-anchor="middle" x="340.62" y="-373.78" font-family="Helvetica,sans-Serif" font-size="10.00" fill="grey"> keys</text>
</g>
<!-- Node11 -->
<g id="Node000011" class="node">
<title>Node11</title>
<g id="a_Node000011"><a xlink:title=" ">
<polygon fill="white" stroke="#666666" points="238.28,-456.88 209.47,-456.88 209.47,-437.62 238.28,-437.62 238.28,-456.88"/>
<text text-anchor="middle" x="223.88" y="-443.38" font-family="Helvetica,sans-Serif" font-size="10.00">T</text>
</a>
</g>
</g>
<!-- Node11&#45;&gt;Node9 -->
<g id="edge11_Node000009_Node000011" class="edge">
<title>Node11&#45;&gt;Node9</title>
<g id="a_edge11_Node000009_Node000011"><a xlink:title=" ">
<path fill="none" stroke="#9a32cd" stroke-dasharray="5,2" d="M249.13,-438.29C287.01,-424.3 360.69,-397.09 407.41,-379.84"/>
<polygon fill="#9a32cd" stroke="#9a32cd" points="248.18,-434.91 240.02,-441.66 250.61,-441.48 248.18,-434.91"/>
</a>
</g>
<text text-anchor="middle" x="340.62" y="-419.78" font-family="Helvetica,sans-Serif" font-size="10.00" fill="grey"> elements</text>
</g>
<!-- Node13 -->
<g id="Node000013" class="node">
<title>Node13</title>
<g id="a_Node000013"><a xlink:title=" ">
<polygon fill="white" stroke="#666666" points="493.88,-456.88 407.38,-456.88 407.38,-437.62 493.88,-437.62 493.88,-456.88"/>
<text text-anchor="middle" x="450.62" y="-443.38" font-family="Helvetica,sans-Serif" font-size="10.00">std::vector&lt; T &gt;</text>
</a>
</g>
</g>
<!-- Node11&#45;&gt;Node13 -->
<g id="edge15_Node000013_Node000011" class="edge">
<title>Node11&#45;&gt;Node13</title>
<g id="a_edge15_Node000013_Node000011"><a xlink:title=" ">
<path fill="none" stroke="#9a32cd" stroke-dasharray="5,2" d="M250.08,-447.25C288.11,-447.25 360.61,-447.25 406.96,-447.25"/>
<polygon fill="#9a32cd" stroke="#9a32cd" points="250.11,-443.75 240.11,-447.25 250.11,-450.75 250.11,-443.75"/>
</a>
</g>
<text text-anchor="middle" x="340.62" y="-449" font-family="Helvetica,sans-Serif" font-size="10.00" fill="grey"> elements</text>
</g>
<!-- Node26 -->
<g id="Node000026" class="node">
<title>Node26</title>
<g id="a_Node000026"><a xlink:title=" ">
<polygon fill="white" stroke="#666666" points="636.88,-532.88 531.62,-532.88 531.62,-513.62 636.88,-513.62 636.88,-532.88"/>
<text text-anchor="middle" x="584.25" y="-519.38" font-family="Helvetica,sans-Serif" font-size="10.00">std::shared_ptr&lt; T &gt;</text>
</a>
</g>
</g>
<!-- Node11&#45;&gt;Node26 -->
<g id="edge37_Node000026_Node000011" class="edge">
<title>Node11&#45;&gt;Node26</title>
<g id="a_edge37_Node000026_Node000011"><a xlink:title=" ">
<path fill="none" stroke="#9a32cd" stroke-dasharray="5,2" d="M249.65,-452.5C308.69,-465.02 458.5,-496.79 535.68,-513.16"/>
<polygon fill="#9a32cd" stroke="#9a32cd" points="250.48,-449.1 239.97,-450.45 249.02,-455.95 250.48,-449.1"/>
</a>
</g>
<text text-anchor="middle" x="340.62" y="-482.13" font-family="Helvetica,sans-Serif" font-size="10.00" fill="grey"> ptr</text>
</g>
<!-- Node12&#45;&gt;Node5 -->
<g id="edge12_Node000005_Node000012" class="edge">
<title>Node12&#45;&gt;Node5</title>
<g id="a_edge12_Node000005_Node000012"><a xlink:title=" ">
<path fill="none" stroke="#9a32cd" stroke-dasharray="5,2" d="M801.56,-179.94C863.1,-167.61 956.71,-148.85 1014.05,-137.36"/>
<polygon fill="#9a32cd" stroke="#9a32cd" points="801.05,-176.47 791.94,-181.87 802.43,-183.33 801.05,-176.47"/>
</a>
</g>
<text text-anchor="middle" x="901.88" y="-174.79" font-family="Helvetica,sans-Serif" font-size="10.00" fill="grey"> m_active_traces</text>
</g>
<!-- Node13&#45;&gt;Node12 -->
<g id="edge14_Node000012_Node000013" class="edge">
<title>Node13&#45;&gt;Node12</title>
<g id="a_edge14_Node000012_Node000013"><a xlink:title=" ">
<path fill="none" stroke="orange" stroke-dasharray="5,2" d="M471.19,-429.36C481.87,-418.5 494.38,-403.77 501.75,-388.25 520.62,-348.55 492.64,-325.6 519.75,-291 559.78,-239.9 632.11,-214.41 682.52,-202.29"/>
<polygon fill="orange" stroke="orange" points="468.97,-426.64 464.24,-436.13 473.85,-431.66 468.97,-426.64"/>
</a>
</g>
<text text-anchor="middle" x="584.25" y="-292.75" font-family="Helvetica,sans-Serif" font-size="10.00" fill="grey"> &lt; std::string &gt;</text>
</g>
<!-- Node21 -->
<g id="Node000021" class="node">
<title>Node21</title>
<g id="a_Node000021"><a xlink:title=" ">
<polygon fill="white" stroke="#666666" points="1441.25,-447.5 1318,-447.5 1318,-417 1441.25,-417 1441.25,-447.5"/>
<text text-anchor="start" x="1326" y="-434" font-family="Helvetica,sans-Serif" font-size="10.00">std::vector&lt; Ark::internal</text>
<text text-anchor="middle" x="1379.62" y="-422.75" font-family="Helvetica,sans-Serif" font-size="10.00">::MacroScope &gt;</text>
</a>
</g>
</g>
<!-- Node13&#45;&gt;Node21 -->
<g id="edge30_Node000021_Node000013" class="edge">
<title>Node13&#45;&gt;Node21</title>
<g id="a_edge30_Node000021_Node000013"><a xlink:title=" ">
<path fill="none" stroke="orange" stroke-dasharray="5,2" d="M505.49,-446.7C636.42,-445.32 981.79,-441.34 1270,-435.25 1285.47,-434.92 1302.17,-434.5 1317.73,-434.07"/>
<polygon fill="orange" stroke="orange" points="505.7,-443.2 495.74,-446.8 505.78,-450.2 505.7,-443.2"/>
</a>
</g>
<text text-anchor="middle" x="901.88" y="-444.43" font-family="Helvetica,sans-Serif" font-size="10.00" fill="grey"> &lt; Ark::internal::MacroScope &gt;</text>
</g>
<!-- Node24 -->
<g id="Node000024" class="node">
<title>Node24</title>
<g id="a_Node000024"><a xlink:title=" ">
<polygon fill="white" stroke="#666666" points="800.75,-406.5 677.5,-406.5 677.5,-376 800.75,-376 800.75,-406.5"/>
<text text-anchor="start" x="685.5" y="-393" font-family="Helvetica,sans-Serif" font-size="10.00">std::vector&lt; Ark::internal</text>
<text text-anchor="middle" x="739.12" y="-381.75" font-family="Helvetica,sans-Serif" font-size="10.00">::Node &gt;</text>
</a>
</g>
</g>
<!-- Node13&#45;&gt;Node24 -->
<g id="edge33_Node000024_Node000013" class="edge">
<title>Node13&#45;&gt;Node24</title>
<g id="a_edge33_Node000024_Node000013"><a xlink:title=" ">
<path fill="none" stroke="orange" stroke-dasharray="5,2" d="M488.06,-433.46C498.21,-429.99 509.32,-426.54 519.75,-424 548.76,-416.94 623.3,-406.35 677.23,-399.13"/>
<polygon fill="orange" stroke="orange" points="487.2,-430.06 478.93,-436.69 489.52,-436.66 487.2,-430.06"/>
</a>
</g>
<text text-anchor="middle" x="584.25" y="-425.75" font-family="Helvetica,sans-Serif" font-size="10.00" fill="grey"> &lt; Ark::internal::Node &gt;</text>
</g>
<!-- Node27 -->
<g id="Node000027" class="node">
<title>Node27</title>
<g id="a_Node000027"><a xlink:title=" ">
<polygon fill="white" stroke="#666666" points="1471.25,-502.5 1288,-502.5 1288,-472 1471.25,-472 1471.25,-502.5"/>
<text text-anchor="start" x="1296" y="-489" font-family="Helvetica,sans-Serif" font-size="10.00">std::vector&lt; std::shared</text>
<text text-anchor="middle" x="1379.62" y="-477.75" font-family="Helvetica,sans-Serif" font-size="10.00">_ptr&lt; Ark::internal::MacroExecutor &gt; &gt;</text>
</a>
</g>
</g>
<!-- Node13&#45;&gt;Node27 -->
<g id="edge40_Node000027_Node000013" class="edge">
<title>Node13&#45;&gt;Node27</title>
<g id="a_edge40_Node000027_Node000013"><a xlink:title=" ">
<path fill="none" stroke="orange" stroke-dasharray="5,2" d="M505.5,-458.34C510.3,-459.08 515.1,-459.74 519.75,-460.25 798.34,-491.02 1130.6,-491.17 1287.71,-489.07"/>
<polygon fill="orange" stroke="orange" points="506.29,-454.92 495.84,-456.72 505.13,-461.82 506.29,-454.92"/>
</a>
</g>
<text text-anchor="start" x="829.5" y="-500.48" font-family="Helvetica,sans-Serif" font-size="10.00" fill="grey"> &lt; std::shared_ptr&lt;</text>
<text text-anchor="middle" x="901.88" y="-489.23" font-family="Helvetica,sans-Serif" font-size="10.00" fill="grey"> Ark::internal::MacroExecutor &gt; &gt;</text>
</g>
<!-- Node14 -->
<g id="Node000014" class="node">
<title>Node14</title>
<g id="a_Node000014"><a xlink:title=" ">
<polygon fill="white" stroke="#666666" points="774.5,-27.88 703.75,-27.88 703.75,-8.62 774.5,-8.62 774.5,-27.88"/>
<text text-anchor="middle" x="739.12" y="-14.38" font-family="Helvetica,sans-Serif" font-size="10.00">std::ostream</text>
</a>
</g>
</g>
<!-- Node14&#45;&gt;Node5 -->
<g id="edge16_Node000005_Node000014" class="edge">
<title>Node14&#45;&gt;Node5</title>
<g id="a_edge16_Node000005_Node000014"><a xlink:title=" ">
<path fill="none" stroke="#9a32cd" stroke-dasharray="5,2" d="M786.17,-11.64C835.21,-6.7 913.9,-4.96 974.25,-33 1014.52,-51.71 1046.03,-97.02 1058.59,-117.23"/>
<polygon fill="#9a32cd" stroke="#9a32cd" points="786.04,-8.13 776.48,-12.7 786.81,-15.09 786.04,-8.13"/>
</a>
</g>
<text text-anchor="middle" x="901.88" y="-34.75" font-family="Helvetica,sans-Serif" font-size="10.00" fill="grey"> m_stream</text>
</g>
<!-- Node15 -->
<g id="Node000015" class="node">
<title>Node15</title>
<g id="a_Node000015"><a xlink:title=" ">
<polygon fill="white" stroke="#666666" points="500.25,-30.5 401,-30.5 401,0 500.25,0 500.25,-30.5"/>
<text text-anchor="start" x="409" y="-17" font-family="Helvetica,sans-Serif" font-size="10.00">std::basic_ostream</text>
<text text-anchor="middle" x="450.62" y="-5.75" font-family="Helvetica,sans-Serif" font-size="10.00">&lt; Char &gt;</text>
</a>
</g>
</g>
<!-- Node15&#45;&gt;Node14 -->
<g id="edge17_Node000014_Node000015" class="edge">
<title>Node15&#45;&gt;Node14</title>
<g id="a_edge17_Node000014_Node000015"><a xlink:title=" ">
<path fill="none" stroke="#63b8ff" d="M511.78,-15.88C569.88,-16.49 655.86,-17.39 703.38,-17.89"/>
<polygon fill="#63b8ff" stroke="#63b8ff" points="512.1,-12.38 502.06,-15.78 512.03,-19.38 512.1,-12.38"/>
</a>
</g>
</g>
<!-- Node16 -->
<g id="Node000016" class="node">
<title>Node16</title>
<g id="a_Node000016"><a xlink:title=" ">
<polygon fill="white" stroke="#666666" points="281.75,-24.88 166,-24.88 166,-5.63 281.75,-5.63 281.75,-24.88"/>
<text text-anchor="middle" x="223.88" y="-11.38" font-family="Helvetica,sans-Serif" font-size="10.00">std::basic_ios&lt; Char &gt;</text>
</a>
</g>
</g>
<!-- Node16&#45;&gt;Node15 -->
<g id="edge18_Node000015_Node000016" class="edge">
<title>Node16&#45;&gt;Node15</title>
<g id="a_edge18_Node000015_Node000016"><a xlink:title=" ">
<path fill="none" stroke="#63b8ff" d="M293.64,-15.25C328.28,-15.25 369.46,-15.25 400.81,-15.25"/>
<polygon fill="#63b8ff" stroke="#63b8ff" points="293.68,-11.75 283.68,-15.25 293.68,-18.75 293.68,-11.75"/>
</a>
</g>
</g>
<!-- Node17 -->
<g id="Node000017" class="node">
<title>Node17</title>
<g id="a_Node000017"><a xlink:title=" ">
<polygon fill="white" stroke="#666666" points="91,-24.88 16.5,-24.88 16.5,-5.63 91,-5.63 91,-24.88"/>
<text text-anchor="middle" x="53.75" y="-11.38" font-family="Helvetica,sans-Serif" font-size="10.00">std::ios_base</text>
</a>
</g>
</g>
<!-- Node17&#45;&gt;Node16 -->
<g id="edge19_Node000016_Node000017" class="edge">
<title>Node17&#45;&gt;Node16</title>
<g id="a_edge19_Node000016_Node000017"><a xlink:title=" ">
<path fill="none" stroke="#63b8ff" d="M102.67,-15.25C122.29,-15.25 145.15,-15.25 165.64,-15.25"/>
<polygon fill="#63b8ff" stroke="#63b8ff" points="102.74,-11.75 92.74,-15.25 102.74,-18.75 102.74,-11.75"/>
</a>
</g>
</g>
<!-- Node18&#45;&gt;Node3 -->
<g id="edge20_Node000003_Node000018" class="edge">
<title>Node18&#45;&gt;Node3</title>
<g id="a_edge20_Node000003_Node000018"><a xlink:title=" ">
<path fill="none" stroke="#9a32cd" stroke-dasharray="5,2" d="M510.95,-298.4C568.73,-288.78 659.15,-276.25 738.12,-276.25 738.12,-276.25 738.12,-276.25 1380.62,-276.25 1488.05,-276.25 1595.15,-369.01 1628.09,-400.18"/>
<polygon fill="#9a32cd" stroke="#9a32cd" points="510.61,-294.9 501.33,-300.02 511.78,-301.81 510.61,-294.9"/>
</a>
</g>
<text text-anchor="middle" x="1065.5" y="-278" font-family="Helvetica,sans-Serif" font-size="10.00" fill="grey"> m_ast</text>
</g>
<!-- Node18&#45;&gt;Node23 -->
<g id="edge28_Node000023_Node000018" class="edge">
<title>Node18&#45;&gt;Node23</title>
<g id="a_edge28_Node000023_Node000018"><a xlink:title=" ">
<path fill="none" stroke="#9a32cd" stroke-dasharray="5,2" d="M511.38,-306.92C550.52,-306.02 602.77,-306.02 648.75,-310 661.45,-311.1 675.06,-313.03 687.74,-315.16"/>
<polygon fill="#9a32cd" stroke="#9a32cd" points="511.35,-303.42 501.44,-307.18 511.53,-310.42 511.35,-303.42"/>
</a>
</g>
<text text-anchor="middle" x="584.25" y="-311.75" font-family="Helvetica,sans-Serif" font-size="10.00" fill="grey"> elements</text>
</g>
<!-- Node18&#45;&gt;Node24 -->
<g id="edge32_Node000024_Node000018" class="edge">
<title>Node18&#45;&gt;Node24</title>
<g id="a_edge32_Node000024_Node000018"><a xlink:title=" ">
<path fill="none" stroke="#9a32cd" stroke-dasharray="5,2" d="M481.48,-324.81C488.56,-329.26 495.78,-334.48 501.75,-340.25 512.12,-350.27 507.43,-359.76 519.75,-367.25 532.97,-375.29 617.15,-382.78 677.03,-387.18"/>
<polygon fill="#9a32cd" stroke="#9a32cd" points="483.75,-322.08 473.35,-320.02 480.19,-328.11 483.75,-322.08"/>
</a>
</g>
<text text-anchor="middle" x="584.25" y="-386.28" font-family="Helvetica,sans-Serif" font-size="10.00" fill="grey"> elements</text>
</g>
<!-- Node19 -->
<g id="Node000019" class="node">
<title>Node19</title>
<g id="a_Node000019"><a xlink:href="../../dc/dda/structArk_1_1internal_1_1FileSpan.html" target="_top" xlink:title="Describes a span for a node/atom in a file, its start position and end position.">
<polygon fill="white" stroke="#666666" points="280.25,-348.88 167.5,-348.88 167.5,-329.62 280.25,-329.62 280.25,-348.88"/>
<text text-anchor="middle" x="223.88" y="-335.38" font-family="Helvetica,sans-Serif" font-size="10.00">Ark::internal::FileSpan</text>
</a>
</g>
</g>
<!-- Node19&#45;&gt;Node18 -->
<g id="edge21_Node000018_Node000019" class="edge">
<title>Node19&#45;&gt;Node18</title>
<g id="a_edge21_Node000018_Node000019"><a xlink:title=" ">
<path fill="none" stroke="#9a32cd" stroke-dasharray="5,2" d="M291.9,-330.97C319.65,-327.47 352.14,-323.28 381.5,-319.25 387.9,-318.37 394.62,-317.42 401.26,-316.46"/>
<polygon fill="#9a32cd" stroke="#9a32cd" points="291.71,-327.47 282.23,-332.19 292.59,-334.41 291.71,-327.47"/>
</a>
</g>
<text text-anchor="middle" x="340.62" y="-331.65" font-family="Helvetica,sans-Serif" font-size="10.00" fill="grey"> m_pos</text>
</g>
<!-- Node20 -->
<g id="Node000020" class="node">
<title>Node20</title>
<g id="a_Node000020"><a xlink:href="../../d7/df6/structArk_1_1internal_1_1FilePos.html" target="_top" xlink:title=" ">
<polygon fill="white" stroke="#666666" points="107.5,-348.88 0,-348.88 0,-329.62 107.5,-329.62 107.5,-348.88"/>
<text text-anchor="middle" x="53.75" y="-335.38" font-family="Helvetica,sans-Serif" font-size="10.00">Ark::internal::FilePos</text>
</a>
</g>
</g>
<!-- Node20&#45;&gt;Node19 -->
<g id="edge22_Node000019_Node000020" class="edge">
<title>Node20&#45;&gt;Node19</title>
<g id="a_edge22_Node000019_Node000020"><a xlink:title=" ">
<path fill="none" stroke="#9a32cd" stroke-dasharray="5,2" d="M119.24,-339.25C135.02,-339.25 151.79,-339.25 167.13,-339.25"/>
<polygon fill="#9a32cd" stroke="#9a32cd" points="119.46,-335.75 109.46,-339.25 119.46,-342.75 119.46,-335.75"/>
</a>
</g>
<text text-anchor="middle" x="136.75" y="-341" font-family="Helvetica,sans-Serif" font-size="10.00" fill="grey"> start</text>
</g>
<!-- Node21&#45;&gt;Node3 -->
<g id="edge24_Node000003_Node000021" class="edge">
<title>Node21&#45;&gt;Node3</title>
<g id="a_edge24_Node000003_Node000021"><a xlink:title=" ">
<path fill="none" stroke="#9a32cd" stroke-dasharray="5,2" d="M1452.94,-426.08C1488.36,-423.05 1530.9,-419.42 1566.29,-416.4"/>
<polygon fill="#9a32cd" stroke="#9a32cd" points="1452.88,-422.57 1443.22,-426.91 1453.48,-429.54 1452.88,-422.57"/>
</a>
</g>
<text text-anchor="middle" x="1518.88" y="-424.32" font-family="Helvetica,sans-Serif" font-size="10.00" fill="grey"> m_macros</text>
</g>
<!-- Node22 -->
<g id="Node000022" class="node">
<title>Node22</title>
<g id="a_Node000022"><a xlink:href="../../d6/d42/classArk_1_1internal_1_1MacroScope.html" target="_top" xlink:title=" ">
<polygon fill="white" stroke="#666666" points="1130.12,-362.88 1000.88,-362.88 1000.88,-343.62 1130.12,-343.62 1130.12,-362.88"/>
<text text-anchor="middle" x="1065.5" y="-349.38" font-family="Helvetica,sans-Serif" font-size="10.00">Ark::internal::MacroScope</text>
</a>
</g>
</g>
<!-- Node22&#45;&gt;Node21 -->
<g id="edge25_Node000021_Node000022" class="edge">
<title>Node22&#45;&gt;Node21</title>
<g id="a_edge25_Node000021_Node000022"><a xlink:title=" ">
<path fill="none" stroke="#9a32cd" stroke-dasharray="5,2" d="M1090.89,-369.25C1108.48,-380.02 1133.19,-393.6 1156.75,-401.25 1185.74,-410.66 1262.42,-420.17 1317.51,-426.13"/>
<polygon fill="#9a32cd" stroke="#9a32cd" points="1093.03,-366.46 1082.7,-364.11 1089.31,-372.39 1093.03,-366.46"/>
</a>
</g>
<text text-anchor="middle" x="1213.38" y="-422.08" font-family="Helvetica,sans-Serif" font-size="10.00" fill="grey"> elements</text>
</g>
<!-- Node23&#45;&gt;Node3 -->
<g id="edge41_Node000003_Node000023" class="edge">
<title>Node23&#45;&gt;Node3</title>
<g id="a_edge41_Node000003_Node000023"><a xlink:title=" ">
<path fill="none" stroke="#9a32cd" stroke-dasharray="5,2" d="M801.63,-326.08C848.85,-326.77 915.68,-327.86 974.25,-329.25 1047.37,-330.99 1065.9,-327.74 1138.75,-334.25 1322.14,-350.63 1366.63,-366.54 1548.5,-395.25 1558.34,-396.8 1568.79,-398.5 1578.94,-400.18"/>
<polygon fill="#9a32cd" stroke="#9a32cd" points="801.93,-322.58 791.88,-325.94 801.83,-329.58 801.93,-322.58"/>
</a>
</g>
<text text-anchor="middle" x="1213.38" y="-350.18" font-family="Helvetica,sans-Serif" font-size="10.00" fill="grey"> m_defined_functions</text>
</g>
<!-- Node23&#45;&gt;Node22 -->
<g id="edge26_Node000022_Node000023" class="edge">
<title>Node23&#45;&gt;Node22</title>
<g id="a_edge26_Node000022_Node000023"><a xlink:title=" ">
<path fill="none" stroke="#9a32cd" stroke-dasharray="5,2" d="M801.82,-330.58C858.78,-335.49 943.02,-342.76 1000.65,-347.74"/>
<polygon fill="#9a32cd" stroke="#9a32cd" points="802.22,-327.1 791.96,-329.72 801.62,-334.07 802.22,-327.1"/>
</a>
</g>
<text text-anchor="middle" x="901.88" y="-346.73" font-family="Helvetica,sans-Serif" font-size="10.00" fill="grey"> m_macros</text>
</g>
<!-- Node24&#45;&gt;Node3 -->
<g id="edge31_Node000003_Node000024" class="edge">
<title>Node24&#45;&gt;Node3</title>
<g id="a_edge31_Node000003_Node000024"><a xlink:title=" ">
<path fill="none" stroke="#9a32cd" stroke-dasharray="5,2" d="M812.32,-389.15C914.32,-386.56 1106.42,-383.06 1270,-388 1372.95,-391.11 1491.86,-399.08 1566.09,-404.59"/>
<polygon fill="#9a32cd" stroke="#9a32cd" points="812.35,-385.65 802.45,-389.4 812.54,-392.64 812.35,-385.65"/>
</a>
</g>
<text text-anchor="middle" x="1213.38" y="-389.75" font-family="Helvetica,sans-Serif" font-size="10.00" fill="grey"> m_macros_being_applied</text>
</g>
<!-- Node25&#45;&gt;Node3 -->
<g id="edge34_Node000003_Node000025" class="edge">
<title>Node25&#45;&gt;Node3</title>
<g id="a_edge34_Node000003_Node000025"><a xlink:title=" ">
<path fill="none" stroke="#9a32cd" stroke-dasharray="5,2" d="M1144.33,-544.81C1227.22,-547.34 1361.36,-544.76 1471.25,-511.25 1535.78,-491.57 1600.97,-441.46 1626.81,-420.12"/>
<polygon fill="#9a32cd" stroke="#9a32cd" points="1144.61,-541.31 1134.49,-544.47 1144.37,-548.31 1144.61,-541.31"/>
</a>
</g>
<text text-anchor="middle" x="1379.62" y="-543.9" font-family="Helvetica,sans-Serif" font-size="10.00" fill="grey"> m_conditional_executor</text>
</g>
<!-- Node25&#45;&gt;Node27 -->
<g id="edge39_Node000027_Node000025" class="edge">
<title>Node25&#45;&gt;Node27</title>
<g id="a_edge39_Node000027_Node000025"><a xlink:title=" ">
<path fill="none" stroke="#9a32cd" stroke-dasharray="5,2" d="M1144.21,-523.37C1148.45,-522.54 1152.65,-521.75 1156.75,-521 1199.68,-513.16 1247.51,-505.72 1287.74,-499.83"/>
<polygon fill="#9a32cd" stroke="#9a32cd" points="1143.56,-519.93 1134.43,-525.32 1144.92,-526.8 1143.56,-519.93"/>
</a>
</g>
<text text-anchor="middle" x="1213.38" y="-522.75" font-family="Helvetica,sans-Serif" font-size="10.00" fill="grey"> elements</text>
</g>
<!-- Node26&#45;&gt;Node25 -->
<g id="edge36_Node000025_Node000026" class="edge">
<title>Node26&#45;&gt;Node25</title>
<g id="a_edge36_Node000025_Node000026"><a xlink:title=" ">
<path fill="none" stroke="orange" stroke-dasharray="5,2" d="M648.48,-525.49C739.22,-528.71 905.6,-534.61 998.08,-537.89"/>
<polygon fill="orange" stroke="orange" points="648.62,-522 638.51,-525.14 648.38,-528.99 648.62,-522"/>
</a>
</g>
<text text-anchor="middle" x="739.12" y="-532.77" font-family="Helvetica,sans-Serif" font-size="10.00" fill="grey"> &lt; Ark::internal::MacroExecutor &gt;</text>
</g>
<!-- Node27&#45;&gt;Node3 -->
<g id="edge38_Node000003_Node000027" class="edge">
<title>Node27&#45;&gt;Node3</title>
<g id="a_edge38_Node000003_Node000027"><a xlink:title=" ">
<path fill="none" stroke="#9a32cd" stroke-dasharray="5,2" d="M1445.85,-468.51C1476.97,-459.49 1514.7,-448.45 1548.5,-438.25 1567.75,-432.44 1589.24,-425.75 1606.39,-420.37"/>
<polygon fill="#9a32cd" stroke="#9a32cd" points="1445.22,-465.05 1436.59,-471.19 1447.17,-471.77 1445.22,-465.05"/>
</a>
</g>
<text text-anchor="middle" x="1518.88" y="-456.45" font-family="Helvetica,sans-Serif" font-size="10.00" fill="grey"> m_executors</text>
</g>
</g>
</svg>

<g id="navigator" transform="translate(0 0)" fill="#404254">
  <rect fill="#f2f5e9" fill-opacity="0.5" stroke="#606060" stroke-width=".5" x="0" y="0" width="60" height="60"/>
  <use id="zoomplus" xlink:href="#zoomPlus" x="17" y="9" onmousedown="handleZoom(evt,'in')"/>
  <use id="zoomminus" xlink:href="#zoomMin" x="42" y="9" onmousedown="handleZoom(evt,'out')"/>
  <use id="reset" xlink:href="#resetDef" x="30" y="36" onmousedown="handleReset()"/>
   <use id="arrowup" xlink:href="#arrowUp" x="0" y="0" onmousedown="handlePan(0,-1)"/>
  <use id="arrowright" xlink:href="#arrowRight" x="0" y="0" onmousedown="handlePan(1,0)"/>
  <use id="arrowdown" xlink:href="#arrowDown" x="0" y="0" onmousedown="handlePan(0,1)"/>
  <use id="arrowleft" xlink:href="#arrowLeft" x="0" y="0" onmousedown="handlePan(-1,0)"/>
</g>
<svg viewBox="0 0 15 15" width="100%" height="30px" preserveAspectRatio="xMaxYMin meet">
 <g id="arrow_out" transform="scale(0.3 0.3)">
  <a xlink:href="classArk_1_1internal_1_1SymbolExecutor__coll__graph_org.svg" target="_base">
   <rect id="button" ry="5" rx="5" y="6" x="6" height="38" width="38"
        fill="#f2f5e9" fill-opacity="0.5" stroke="#606060" stroke-width="1.0"/>
   <path id="arrow"
     d="M 11.500037,31.436501 C 11.940474,20.09759 22.043105,11.32322 32.158766,21.979434 L 37.068811,17.246167 C 37.068811,17.246167 37.088388,32 37.088388,32 L 22.160133,31.978069 C 22.160133,31.978069 26.997745,27.140456 26.997745,27.140456 C 18.528582,18.264221 13.291696,25.230495 11.500037,31.436501 z"
     style="fill:#404040;"/>
  </a>
 </g>
</svg>

<style type='text/css'>
<![CDATA[
[data-mouse-over-selected='false'] { opacity: 0.7; }
[data-mouse-over-selected='true']  { opacity: 1.0; }
]]>
</style>
<script type="application/ecmascript"><![CDATA[
document.addEventListener('DOMContentLoaded', (event) => {
  highlightEdges();
  highlightAdjacentNodes();
});
]]></script>
</svg>
