<?xml version="1.0" encoding="UTF-8" standalone="no"?>
<!DOCTYPE svg PUBLIC "-//W3C//DTD SVG 1.1//EN"
 "http://www.w3.org/Graphics/SVG/1.1/DTD/svg11.dtd">
<!-- Generated by graphviz version 12.2.0 (20241103.1931)
 -->
<!-- Title: Ark::internal::SymbolExecutor Pages: 1 -->
<!--zoomable 594 -->

<svg id="main" version="1.1" xmlns="http://www.w3.org/2000/svg" xmlns:xlink="http://www.w3.org/1999/xlink" xml:space="preserve" onload="init(evt)">

<style type="text/css"><![CDATA[
.node, .edge {opacity: 0.7;}
.node.selected, .edge.selected {opacity: 1;}
.edge:hover path { stroke: red; }
.edge:hover polygon { stroke: red; fill: red; }
]]></style>

<defs>
  <circle id="rim" cx="0" cy="0" r="7"/>
  <circle id="rim2" cx="0" cy="0" r="3.5"/>
  <g id="zoomPlus">
    <use xlink:href="#rim" fill="#404040"><set attributeName="fill" to="#808080" begin="zoomplus.mouseover" end="zoomplus.mouseout"/></use>
    <path d="M-4,0h8M0,-4v8" fill="none" stroke="white" stroke-width="1.5" pointer-events="none"/>
  </g>
  <g id="zoomMin">
    <use xlink:href="#rim" fill="#404040"><set attributeName="fill" to="#808080" begin="zoomminus.mouseover" end="zoomminus.mouseout"/></use>
    <path d="M-4,0h8" fill="none" stroke="white" stroke-width="1.5" pointer-events="none"/>
  </g>
  <g id="arrowUp" transform="translate(30 24)">
    <use xlink:href="#rim"/>
    <path pointer-events="none" fill="none" stroke="white" stroke-width="1.5" d="M0,-3.0v7 M-2.5,-0.5L0,-3.0L2.5,-0.5"/>
  </g>
  <g id="arrowRight" transform="rotate(90) translate(36 -43)">
    <use xlink:href="#rim"/>
    <path pointer-events="none" fill="none" stroke="white" stroke-width="1.5" d="M0,-3.0v7 M-2.5,-0.5L0,-3.0L2.5,-0.5"/>
  </g>
  <g id="arrowDown" transform="rotate(180) translate(-30 -48)">
    <use xlink:href="#rim"/>
    <path pointer-events="none" fill="none" stroke="white" stroke-width="1.5" d="M0,-3.0v7 M-2.5,-0.5L0,-3.0L2.5,-0.5"/>
  </g>
  <g id="arrowLeft" transform="rotate(270) translate(-36 17)">
    <use xlink:href="#rim"/>
    <path pointer-events="none" fill="none" stroke="white" stroke-width="1.5" d="M0,-3.0v7 M-2.5,-0.5L0,-3.0L2.5,-0.5"/>
  </g>
  <g id="resetDef">
    <use xlink:href="#rim2" fill="#404040"><set attributeName="fill" to="#808080" begin="reset.mouseover" end="reset.mouseout"/></use>
  </g>
</defs>
<script type="application/ecmascript">
var viewWidth = 1629;
var viewHeight = 594;
var sectionId = 'dynsection-1';
</script>
<script type="application/ecmascript" xlink:href="../../svg.min.js"/>
<svg id="graph" class="graph">
<g id="viewport">
<title>Ark::internal::SymbolExecutor</title>
<!-- Node1 -->
<g id="Node000001" class="node">
<title>Node1</title>
<g id="a_Node000001"><a xlink:title="Handles Symbol macros.">
<polygon fill="#999999" stroke="#666666" points="1047.5,-503.62 901,-503.62 901,-484.38 1047.5,-484.38 1047.5,-503.62"/>
<text text-anchor="middle" x="974.25" y="-490.12" font-family="Helvetica,sans-Serif" font-size="10.00">Ark::internal::SymbolExecutor</text>
</a>
</g>
</g>
<!-- Node2 -->
<g id="Node000002" class="node">
<title>Node2</title>
<g id="a_Node000002"><a xlink:href="../../d5/d8f/classArk_1_1internal_1_1MacroExecutor.html" target="_top" xlink:title="A class that applies macros in a Node.">
<polygon fill="white" stroke="#666666" points="718.12,-496.62 577.62,-496.62 577.62,-477.38 718.12,-477.38 718.12,-496.62"/>
<text text-anchor="middle" x="647.88" y="-483.12" font-family="Helvetica,sans-Serif" font-size="10.00">Ark::internal::MacroExecutor</text>
</a>
</g>
</g>
<!-- Node2&#45;&gt;Node1 -->
<g id="edge1_Node000001_Node000002" class="edge">
<title>Node2&#45;&gt;Node1</title>
<g id="a_edge1_Node000001_Node000002"><a xlink:title=" ">
<path fill="none" stroke="#63b8ff" d="M729.75,-488.75C782.2,-489.88 849.97,-491.34 900.69,-492.43"/>
<polygon fill="#63b8ff" stroke="#63b8ff" points="730.05,-485.25 719.97,-488.53 729.9,-492.25 730.05,-485.25"/>
</a>
</g>
</g>
<!-- Node19 -->
<g id="Node000019" class="node">
<title>Node19</title>
<g id="a_Node000019"><a xlink:title=" ">
<polygon fill="white" stroke="#666666" points="1041.5,-553.25 907,-553.25 907,-522.75 1041.5,-522.75 1041.5,-553.25"/>
<text text-anchor="start" x="915" y="-539.75" font-family="Helvetica,sans-Serif" font-size="10.00">std::shared_ptr&lt; Ark</text>
<text text-anchor="middle" x="974.25" y="-528.5" font-family="Helvetica,sans-Serif" font-size="10.00">::internal::MacroExecutor &gt;</text>
</a>
</g>
</g>
<!-- Node2&#45;&gt;Node19 -->
<g id="edge29_Node000019_Node000002" class="edge">
<title>Node2&#45;&gt;Node19</title>
<g id="a_edge29_Node000019_Node000002"><a xlink:title=" ">
<path fill="none" stroke="#9a32cd" stroke-dasharray="5,2" d="M729.63,-497.71C774.81,-503.94 832.13,-512.23 883,-520.75 890.71,-522.04 898.77,-523.47 906.77,-524.94"/>
<polygon fill="#9a32cd" stroke="#9a32cd" points="730.29,-494.27 719.91,-496.38 729.34,-501.21 730.29,-494.27"/>
</a>
</g>
<text text-anchor="middle" x="810.62" y="-522.5" font-family="Helvetica,sans-Serif" font-size="10.00" fill="grey"> ptr</text>
</g>
<!-- Node3 -->
<g id="Node000003" class="node">
<title>Node3</title>
<g id="a_Node000003"><a xlink:href="../../d5/db5/classArk_1_1internal_1_1MacroProcessor.html" target="_top" xlink:title="The class handling the macros definitions and calls, given an AST.">
<polygon fill="white" stroke="#666666" points="1621,-266.62 1475.25,-266.62 1475.25,-247.38 1621,-247.38 1621,-266.62"/>
<text text-anchor="middle" x="1548.12" y="-253.12" font-family="Helvetica,sans-Serif" font-size="10.00">Ark::internal::MacroProcessor</text>
</a>
</g>
</g>
<!-- Node3&#45;&gt;Node2 -->
<g id="edge2_Node000002_Node000003" class="edge">
<title>Node3&#45;&gt;Node2</title>
<g id="a_edge2_Node000002_Node000003"><a xlink:title=" ">
<path fill="none" stroke="#9a32cd" stroke-dasharray="5,2" d="M1502.4,-270.16C1488,-274.33 1471.97,-278.92 1457.25,-283 1202.82,-353.47 1139.53,-372.59 883,-435 818.88,-450.6 744.41,-466.82 696.98,-476.91"/>
<polygon fill="#9a32cd" stroke="#9a32cd" points="1502.96,-273.64 1511.58,-267.48 1501,-266.92 1502.96,-273.64"/>
</a>
</g>
<text text-anchor="middle" x="1122.12" y="-390.75" font-family="Helvetica,sans-Serif" font-size="10.00" fill="grey"> m_processor</text>
</g>
<!-- Node4 -->
<g id="Node000004" class="node">
<title>Node4</title>
<g id="a_Node000004"><a xlink:href="../../da/d7b/classArk_1_1internal_1_1Pass.html" target="_top" xlink:title="An interface to describe compiler passes.">
<polygon fill="white" stroke="#666666" points="1336.88,-243.62 1239.88,-243.62 1239.88,-224.38 1336.88,-224.38 1336.88,-243.62"/>
<text text-anchor="middle" x="1288.38" y="-230.12" font-family="Helvetica,sans-Serif" font-size="10.00">Ark::internal::Pass</text>
</a>
</g>
</g>
<!-- Node4&#45;&gt;Node3 -->
<g id="edge3_Node000003_Node000004" class="edge">
<title>Node4&#45;&gt;Node3</title>
<g id="a_edge3_Node000003_Node000004"><a xlink:title=" ">
<path fill="none" stroke="#63b8ff" d="M1348.55,-239.28C1386.22,-242.64 1435.24,-247.02 1475.15,-250.58"/>
<polygon fill="#63b8ff" stroke="#63b8ff" points="1349.03,-235.81 1338.76,-238.41 1348.41,-242.78 1349.03,-235.81"/>
</a>
</g>
</g>
<!-- Node5 -->
<g id="Node000005" class="node">
<title>Node5</title>
<g id="a_Node000005"><a xlink:href="../../d6/d2f/classArk_1_1internal_1_1Logger.html" target="_top" xlink:title=" ">
<polygon fill="white" stroke="#666666" points="1026.12,-243.62 922.38,-243.62 922.38,-224.38 1026.12,-224.38 1026.12,-243.62"/>
<text text-anchor="middle" x="974.25" y="-230.12" font-family="Helvetica,sans-Serif" font-size="10.00">Ark::internal::Logger</text>
</a>
</g>
</g>
<!-- Node5&#45;&gt;Node4 -->
<g id="edge4_Node000004_Node000005" class="edge">
<title>Node5&#45;&gt;Node4</title>
<g id="a_edge4_Node000004_Node000005"><a xlink:title=" ">
<path fill="none" stroke="#9a32cd" stroke-dasharray="5,2" d="M1037.93,-234C1097.4,-234 1185.46,-234 1239.49,-234"/>
<polygon fill="#9a32cd" stroke="#9a32cd" points="1037.96,-230.5 1027.96,-234 1037.96,-237.5 1037.96,-230.5"/>
</a>
</g>
<text text-anchor="middle" x="1122.12" y="-235.75" font-family="Helvetica,sans-Serif" font-size="10.00" fill="grey"> m_logger</text>
</g>
<!-- Node6 -->
<g id="Node000006" class="node">
<title>Node6</title>
<g id="a_Node000006"><a xlink:title=" ">
<polygon fill="white" stroke="#666666" points="190.5,-145.62 131,-145.62 131,-126.38 190.5,-126.38 190.5,-145.62"/>
<text text-anchor="middle" x="160.75" y="-132.12" font-family="Helvetica,sans-Serif" font-size="10.00">std::string</text>
</a>
</g>
</g>
<!-- Node6&#45;&gt;Node5 -->
<g id="edge5_Node000005_Node000006" class="edge">
<title>Node6&#45;&gt;Node5</title>
<g id="a_edge5_Node000005_Node000006"><a xlink:title=" ">
<path fill="none" stroke="#9a32cd" stroke-dasharray="5,2" d="M202,-123.76C253.8,-108.7 346.86,-84 428.5,-74.75 485.47,-68.29 501.12,-64.34 557.5,-74.75 718.25,-104.44 897.16,-193.77 954.5,-223.93"/>
<polygon fill="#9a32cd" stroke="#9a32cd" points="201.04,-120.39 192.43,-126.57 203.01,-127.11 201.04,-120.39"/>
</a>
</g>
<text text-anchor="middle" x="493" y="-76.5" font-family="Helvetica,sans-Serif" font-size="10.00" fill="grey"> m_name</text>
</g>
<!-- Node8 -->
<g id="Node000008" class="node">
<title>Node8</title>
<g id="a_Node000008"><a xlink:title=" ">
<polygon fill="white" stroke="#666666" points="709.12,-270.12 586.62,-270.12 586.62,-205.88 709.12,-205.88 709.12,-270.12"/>
<text text-anchor="start" x="594.62" y="-256.62" font-family="Helvetica,sans-Serif" font-size="10.00">std::unordered_map</text>
<text text-anchor="start" x="594.62" y="-245.38" font-family="Helvetica,sans-Serif" font-size="10.00">&lt; std::string, std::</text>
<text text-anchor="start" x="594.62" y="-234.12" font-family="Helvetica,sans-Serif" font-size="10.00">chrono::time_point&lt; std</text>
<text text-anchor="start" x="594.62" y="-222.88" font-family="Helvetica,sans-Serif" font-size="10.00">::chrono::high_resolution</text>
<text text-anchor="middle" x="647.88" y="-211.62" font-family="Helvetica,sans-Serif" font-size="10.00">_clock &gt; &gt;</text>
</a>
</g>
</g>
<!-- Node6&#45;&gt;Node8 -->
<g id="edge8_Node000008_Node000006" class="edge">
<title>Node6&#45;&gt;Node8</title>
<g id="a_edge8_Node000008_Node000006"><a xlink:title=" ">
<path fill="none" stroke="#9a32cd" stroke-dasharray="5,2" d="M192.64,-150.34C197.86,-152.43 203.28,-154.42 208.5,-156 340.38,-196.01 500.8,-220.03 586.32,-230.95"/>
<polygon fill="#9a32cd" stroke="#9a32cd" points="194.3,-147.24 183.72,-146.55 191.56,-153.68 194.3,-147.24"/>
</a>
</g>
<text text-anchor="middle" x="359.38" y="-204.59" font-family="Helvetica,sans-Serif" font-size="10.00" fill="grey"> keys</text>
</g>
<!-- Node12 -->
<g id="Node000012" class="node">
<title>Node12</title>
<g id="a_Node000012"><a xlink:title=" ">
<polygon fill="white" stroke="#666666" points="709.88,-311.62 585.88,-311.62 585.88,-292.38 709.88,-292.38 709.88,-311.62"/>
<text text-anchor="middle" x="647.88" y="-298.12" font-family="Helvetica,sans-Serif" font-size="10.00">std::vector&lt; std::string &gt;</text>
</a>
</g>
</g>
<!-- Node6&#45;&gt;Node12 -->
<g id="edge13_Node000012_Node000006" class="edge">
<title>Node6&#45;&gt;Node12</title>
<g id="a_edge13_Node000012_Node000006"><a xlink:title=" ">
<path fill="none" stroke="#9a32cd" stroke-dasharray="5,2" d="M167.91,-156.44C178.45,-190.82 199.68,-257.15 208.5,-264 265.75,-308.45 478.97,-307.88 585.5,-304.61"/>
<polygon fill="#9a32cd" stroke="#9a32cd" points="171.36,-155.76 165.1,-147.21 164.66,-157.8 171.36,-155.76"/>
</a>
</g>
<text text-anchor="middle" x="359.38" y="-305.71" font-family="Helvetica,sans-Serif" font-size="10.00" fill="grey"> elements</text>
</g>
<!-- Node14 -->
<g id="Node000014" class="node">
<title>Node14</title>
<g id="a_Node000014"><a xlink:href="../../dc/d9e/classArk_1_1internal_1_1Node.html" target="_top" xlink:title="A node of an Abstract Syntax Tree for ArkScript.">
<polygon fill="white" stroke="#666666" points="408.25,-41.62 310.5,-41.62 310.5,-22.38 408.25,-22.38 408.25,-41.62"/>
<text text-anchor="middle" x="359.38" y="-28.12" font-family="Helvetica,sans-Serif" font-size="10.00">Ark::internal::Node</text>
</a>
</g>
</g>
<!-- Node6&#45;&gt;Node14 -->
<g id="edge17_Node000014_Node000006" class="edge">
<title>Node6&#45;&gt;Node14</title>
<g id="a_edge17_Node000014_Node000006"><a xlink:title=" ">
<path fill="none" stroke="#9a32cd" stroke-dasharray="5,2" d="M164.14,-114.62C168.27,-89.08 179.33,-47.39 208.5,-28.25 244.3,-4.76 295.97,-13.01 328.34,-21.9"/>
<polygon fill="#9a32cd" stroke="#9a32cd" points="160.68,-114.12 162.79,-124.5 167.61,-115.07 160.68,-114.12"/>
</a>
</g>
<text text-anchor="middle" x="249.38" y="-52.5" font-family="Helvetica,sans-Serif" font-size="10.00" fill="grey"> m_after_comment</text>
<text text-anchor="middle" x="249.38" y="-41.25" font-family="Helvetica,sans-Serif" font-size="10.00" fill="grey">m_comment</text>
<text text-anchor="middle" x="249.38" y="-30" font-family="Helvetica,sans-Serif" font-size="10.00" fill="grey">m_filename</text>
</g>
<!-- Node17 -->
<g id="Node000017" class="node">
<title>Node17</title>
<g id="a_Node000017"><a xlink:title=" ">
<polygon fill="white" stroke="#666666" points="699,-187.88 596.75,-187.88 596.75,-146.12 699,-146.12 699,-187.88"/>
<text text-anchor="start" x="604.75" y="-174.38" font-family="Helvetica,sans-Serif" font-size="10.00">std::unordered_map</text>
<text text-anchor="start" x="604.75" y="-163.12" font-family="Helvetica,sans-Serif" font-size="10.00">&lt; std::string, Ark::</text>
<text text-anchor="middle" x="647.88" y="-151.88" font-family="Helvetica,sans-Serif" font-size="10.00">internal::Node &gt;</text>
</a>
</g>
</g>
<!-- Node6&#45;&gt;Node17 -->
<g id="edge21_Node000017_Node000006" class="edge">
<title>Node6&#45;&gt;Node17</title>
<g id="a_edge21_Node000017_Node000006"><a xlink:title=" ">
<path fill="none" stroke="#9a32cd" stroke-dasharray="5,2" d="M202,-138.57C290.14,-144.2 500,-157.61 596.62,-163.79"/>
<polygon fill="#9a32cd" stroke="#9a32cd" points="202.36,-135.09 192.15,-137.94 201.91,-142.07 202.36,-135.09"/>
</a>
</g>
<text text-anchor="middle" x="359.38" y="-153.25" font-family="Helvetica,sans-Serif" font-size="10.00" fill="grey"> keys</text>
</g>
<!-- Node7 -->
<g id="Node000007" class="node">
<title>Node7</title>
<g id="a_Node000007"><a xlink:title=" ">
<polygon fill="white" stroke="#666666" points="94,-151.25 0,-151.25 0,-120.75 94,-120.75 94,-151.25"/>
<text text-anchor="start" x="8" y="-137.75" font-family="Helvetica,sans-Serif" font-size="10.00">std::basic_string&lt;</text>
<text text-anchor="middle" x="47" y="-126.5" font-family="Helvetica,sans-Serif" font-size="10.00"> Char &gt;</text>
</a>
</g>
</g>
<!-- Node7&#45;&gt;Node6 -->
<g id="edge6_Node000006_Node000007" class="edge">
<title>Node7&#45;&gt;Node6</title>
<g id="a_edge6_Node000006_Node000007"><a xlink:title=" ">
<path fill="none" stroke="#63b8ff" d="M105.71,-136C114.32,-136 122.87,-136 130.55,-136"/>
<polygon fill="#63b8ff" stroke="#63b8ff" points="105.93,-132.5 95.93,-136 105.93,-139.5 105.93,-132.5"/>
</a>
</g>
</g>
<!-- Node8&#45;&gt;Node5 -->
<g id="edge7_Node000005_Node000008" class="edge">
<title>Node8&#45;&gt;Node5</title>
<g id="a_edge7_Node000005_Node000008"><a xlink:title=" ">
<path fill="none" stroke="#9a32cd" stroke-dasharray="5,2" d="M720.79,-235.18C726.7,-235.01 732.57,-234.86 738.25,-234.75 801.48,-233.5 874.29,-233.49 921.9,-233.67"/>
<polygon fill="#9a32cd" stroke="#9a32cd" points="720.84,-231.67 710.96,-235.48 721.06,-238.67 720.84,-231.67"/>
</a>
</g>
<text text-anchor="middle" x="810.62" y="-236.5" font-family="Helvetica,sans-Serif" font-size="10.00" fill="grey"> m_trace_starts</text>
</g>
<!-- Node9 -->
<g id="Node000009" class="node">
<title>Node9</title>
<g id="a_Node000009"><a xlink:title=" ">
<polygon fill="white" stroke="#666666" points="410.5,-264.25 308.25,-264.25 308.25,-233.75 410.5,-233.75 410.5,-264.25"/>
<text text-anchor="start" x="316.25" y="-250.75" font-family="Helvetica,sans-Serif" font-size="10.00">std::unordered_map</text>
<text text-anchor="middle" x="359.38" y="-239.5" font-family="Helvetica,sans-Serif" font-size="10.00">&lt; K, T &gt;</text>
</a>
</g>
</g>
<!-- Node9&#45;&gt;Node8 -->
<g id="edge9_Node000008_Node000009" class="edge">
<title>Node9&#45;&gt;Node8</title>
<g id="a_edge9_Node000008_Node000009"><a xlink:title=" ">
<path fill="none" stroke="orange" stroke-dasharray="5,2" d="M422.27,-241.45C424.37,-241.29 426.45,-241.13 428.5,-241 481.85,-237.51 542.68,-236.95 586.56,-237.16"/>
<polygon fill="orange" stroke="orange" points="422.07,-237.96 412.42,-242.34 422.7,-244.93 422.07,-237.96"/>
</a>
</g>
<text text-anchor="start" x="428.5" y="-276.5" font-family="Helvetica,sans-Serif" font-size="10.00" fill="grey"> &lt; std::string, std</text>
<text text-anchor="start" x="428.5" y="-265.25" font-family="Helvetica,sans-Serif" font-size="10.00" fill="grey">::chrono::time_point</text>
<text text-anchor="start" x="428.5" y="-254" font-family="Helvetica,sans-Serif" font-size="10.00" fill="grey">&lt; std::chrono::high_resolution</text>
<text text-anchor="middle" x="493" y="-242.75" font-family="Helvetica,sans-Serif" font-size="10.00" fill="grey">_clock &gt; &gt;</text>
</g>
<!-- Node9&#45;&gt;Node17 -->
<g id="edge23_Node000017_Node000009" class="edge">
<title>Node9&#45;&gt;Node17</title>
<g id="a_edge23_Node000017_Node000009"><a xlink:title=" ">
<path fill="none" stroke="orange" stroke-dasharray="5,2" d="M395.9,-227.58C408.72,-220.14 421.7,-213.02 428.5,-210.5 484.13,-189.85 551.56,-178.32 596.64,-172.4"/>
<polygon fill="orange" stroke="orange" points="394.38,-224.41 387.54,-232.49 397.93,-230.45 394.38,-224.41"/>
</a>
</g>
<text text-anchor="start" x="455.12" y="-223.5" font-family="Helvetica,sans-Serif" font-size="10.00" fill="grey"> &lt; std::string, Ark</text>
<text text-anchor="middle" x="493" y="-212.25" font-family="Helvetica,sans-Serif" font-size="10.00" fill="grey">::internal::Node &gt;</text>
</g>
<!-- Node10 -->
<g id="Node000010" class="node">
<title>Node10</title>
<g id="a_Node000010"><a xlink:title=" ">
<polygon fill="white" stroke="#666666" points="175.15,-258.62 146.35,-258.62 146.35,-239.38 175.15,-239.38 175.15,-258.62"/>
<text text-anchor="middle" x="160.75" y="-245.12" font-family="Helvetica,sans-Serif" font-size="10.00">K</text>
</a>
</g>
</g>
<!-- Node10&#45;&gt;Node9 -->
<g id="edge10_Node000009_Node000010" class="edge">
<title>Node10&#45;&gt;Node9</title>
<g id="a_edge10_Node000009_Node000010"><a xlink:title=" ">
<path fill="none" stroke="#9a32cd" stroke-dasharray="5,2" d="M186.83,-249C217.27,-249 269.32,-249 308.12,-249"/>
<polygon fill="#9a32cd" stroke="#9a32cd" points="187.09,-245.5 177.09,-249 187.09,-252.5 187.09,-245.5"/>
</a>
</g>
<text text-anchor="middle" x="249.38" y="-250.75" font-family="Helvetica,sans-Serif" font-size="10.00" fill="grey"> keys</text>
</g>
<!-- Node11 -->
<g id="Node000011" class="node">
<title>Node11</title>
<g id="a_Node000011"><a xlink:title=" ">
<polygon fill="white" stroke="#666666" points="175.15,-395.62 146.35,-395.62 146.35,-376.38 175.15,-376.38 175.15,-395.62"/>
<text text-anchor="middle" x="160.75" y="-382.12" font-family="Helvetica,sans-Serif" font-size="10.00">T</text>
</a>
</g>
</g>
<!-- Node11&#45;&gt;Node9 -->
<g id="edge11_Node000009_Node000011" class="edge">
<title>Node11&#45;&gt;Node9</title>
<g id="a_edge11_Node000009_Node000011"><a xlink:title=" ">
<path fill="none" stroke="#9a32cd" stroke-dasharray="5,2" d="M183.28,-368.95C211.38,-346.99 262.38,-308.05 308.25,-278 315.15,-273.48 322.77,-268.88 329.94,-264.72"/>
<polygon fill="#9a32cd" stroke="#9a32cd" points="181.24,-366.11 175.53,-375.04 185.56,-371.61 181.24,-366.11"/>
</a>
</g>
<text text-anchor="middle" x="249.38" y="-350.37" font-family="Helvetica,sans-Serif" font-size="10.00" fill="grey"> elements</text>
</g>
<!-- Node13 -->
<g id="Node000013" class="node">
<title>Node13</title>
<g id="a_Node000013"><a xlink:title=" ">
<polygon fill="white" stroke="#666666" points="402.62,-395.62 316.12,-395.62 316.12,-376.38 402.62,-376.38 402.62,-395.62"/>
<text text-anchor="middle" x="359.38" y="-382.12" font-family="Helvetica,sans-Serif" font-size="10.00">std::vector&lt; T &gt;</text>
</a>
</g>
</g>
<!-- Node11&#45;&gt;Node13 -->
<g id="edge15_Node000013_Node000011" class="edge">
<title>Node11&#45;&gt;Node13</title>
<g id="a_edge15_Node000013_Node000011"><a xlink:title=" ">
<path fill="none" stroke="#9a32cd" stroke-dasharray="5,2" d="M186.71,-386C219.13,-386 276.24,-386 315.63,-386"/>
<polygon fill="#9a32cd" stroke="#9a32cd" points="187.09,-382.5 177.09,-386 187.09,-389.5 187.09,-382.5"/>
</a>
</g>
<text text-anchor="middle" x="249.38" y="-387.75" font-family="Helvetica,sans-Serif" font-size="10.00" fill="grey"> elements</text>
</g>
<!-- Node20 -->
<g id="Node000020" class="node">
<title>Node20</title>
<g id="a_Node000020"><a xlink:title=" ">
<polygon fill="white" stroke="#666666" points="545.62,-529.62 440.38,-529.62 440.38,-510.38 545.62,-510.38 545.62,-529.62"/>
<text text-anchor="middle" x="493" y="-516.12" font-family="Helvetica,sans-Serif" font-size="10.00">std::shared_ptr&lt; T &gt;</text>
</a>
</g>
</g>
<!-- Node11&#45;&gt;Node20 -->
<g id="edge31_Node000020_Node000011" class="edge">
<title>Node11&#45;&gt;Node20</title>
<g id="a_edge31_Node000020_Node000011"><a xlink:title=" ">
<path fill="none" stroke="#9a32cd" stroke-dasharray="5,2" d="M186.02,-395.85C246.93,-420.56 405.75,-485 467.21,-509.94"/>
<polygon fill="#9a32cd" stroke="#9a32cd" points="187.5,-392.67 176.92,-392.16 184.87,-399.16 187.5,-392.67"/>
</a>
</g>
<text text-anchor="middle" x="249.38" y="-437.69" font-family="Helvetica,sans-Serif" font-size="10.00" fill="grey"> ptr</text>
</g>
<!-- Node12&#45;&gt;Node5 -->
<g id="edge12_Node000005_Node000012" class="edge">
<title>Node12&#45;&gt;Node5</title>
<g id="a_edge12_Node000005_Node000012"><a xlink:title=" ">
<path fill="none" stroke="#9a32cd" stroke-dasharray="5,2" d="M721.56,-310.44C770.41,-312.61 834.48,-308.4 883,-280 895.13,-272.9 889.54,-262.14 901,-254 907.37,-249.48 914.72,-245.98 922.24,-243.27"/>
<polygon fill="#9a32cd" stroke="#9a32cd" points="721.81,-306.95 711.63,-309.89 721.43,-313.94 721.81,-306.95"/>
</a>
</g>
<text text-anchor="middle" x="810.62" y="-312.67" font-family="Helvetica,sans-Serif" font-size="10.00" fill="grey"> m_active_traces</text>
</g>
<!-- Node13&#45;&gt;Node12 -->
<g id="edge14_Node000012_Node000013" class="edge">
<title>Node13&#45;&gt;Node12</title>
<g id="a_edge14_Node000012_Node000013"><a xlink:title=" ">
<path fill="none" stroke="orange" stroke-dasharray="5,2" d="M406.5,-373.06C413.83,-371.17 421.36,-369.33 428.5,-367.75 485.34,-355.15 502.08,-362.84 557.5,-345 583.72,-336.56 612.08,-321.87 629.66,-312.04"/>
<polygon fill="orange" stroke="orange" points="405.83,-369.62 397.05,-375.55 407.61,-376.39 405.83,-369.62"/>
</a>
</g>
<text text-anchor="middle" x="493" y="-369.5" font-family="Helvetica,sans-Serif" font-size="10.00" fill="grey"> &lt; std::string &gt;</text>
</g>
<!-- Node15 -->
<g id="Node000015" class="node">
<title>Node15</title>
<g id="a_Node000015"><a xlink:title=" ">
<polygon fill="white" stroke="#666666" points="1350,-292.25 1226.75,-292.25 1226.75,-261.75 1350,-261.75 1350,-292.25"/>
<text text-anchor="start" x="1234.75" y="-278.75" font-family="Helvetica,sans-Serif" font-size="10.00">std::vector&lt; Ark::internal</text>
<text text-anchor="middle" x="1288.38" y="-267.5" font-family="Helvetica,sans-Serif" font-size="10.00">::MacroScope &gt;</text>
</a>
</g>
</g>
<!-- Node13&#45;&gt;Node15 -->
<g id="edge24_Node000015_Node000013" class="edge">
<title>Node13&#45;&gt;Node15</title>
<g id="a_edge24_Node000015_Node000013"><a xlink:title=" ">
<path fill="none" stroke="orange" stroke-dasharray="5,2" d="M414.03,-385.59C453.72,-384.92 509.06,-383.23 557.5,-379 807,-357.19 1101.69,-309.1 1226.58,-287.67"/>
<polygon fill="orange" stroke="orange" points="414.21,-382.09 404.26,-385.74 414.32,-389.09 414.21,-382.09"/>
</a>
</g>
<text text-anchor="middle" x="810.62" y="-361.1" font-family="Helvetica,sans-Serif" font-size="10.00" fill="grey"> &lt; Ark::internal::MacroScope &gt;</text>
</g>
<!-- Node18 -->
<g id="Node000018" class="node">
<title>Node18</title>
<g id="a_Node000018"><a xlink:title=" ">
<polygon fill="white" stroke="#666666" points="709.5,-58.25 586.25,-58.25 586.25,-27.75 709.5,-27.75 709.5,-58.25"/>
<text text-anchor="start" x="594.25" y="-44.75" font-family="Helvetica,sans-Serif" font-size="10.00">std::vector&lt; Ark::internal</text>
<text text-anchor="middle" x="647.88" y="-33.5" font-family="Helvetica,sans-Serif" font-size="10.00">::Node &gt;</text>
</a>
</g>
</g>
<!-- Node13&#45;&gt;Node18 -->
<g id="edge27_Node000018_Node000013" class="edge">
<title>Node13&#45;&gt;Node18</title>
<g id="a_edge27_Node000018_Node000013"><a xlink:title=" ">
<path fill="none" stroke="orange" stroke-dasharray="5,2" d="M378.24,-368.78C391.29,-356.99 409.88,-341.75 428.5,-331.75 481.59,-303.24 519.26,-336.57 557.5,-290 579.22,-263.54 562.7,-168.75 575.5,-137 588.07,-105.83 613.82,-76.02 630.72,-58.62"/>
<polygon fill="orange" stroke="orange" points="376.22,-365.88 371.27,-375.25 380.98,-371.01 376.22,-365.88"/>
</a>
</g>
<text text-anchor="middle" x="493" y="-333.5" font-family="Helvetica,sans-Serif" font-size="10.00" fill="grey"> &lt; Ark::internal::Node &gt;</text>
</g>
<!-- Node21 -->
<g id="Node000021" class="node">
<title>Node21</title>
<g id="a_Node000021"><a xlink:title=" ">
<polygon fill="white" stroke="#666666" points="1380,-507.25 1196.75,-507.25 1196.75,-476.75 1380,-476.75 1380,-507.25"/>
<text text-anchor="start" x="1204.75" y="-493.75" font-family="Helvetica,sans-Serif" font-size="10.00">std::vector&lt; std::shared</text>
<text text-anchor="middle" x="1288.38" y="-482.5" font-family="Helvetica,sans-Serif" font-size="10.00">_ptr&lt; Ark::internal::MacroExecutor &gt; &gt;</text>
</a>
</g>
</g>
<!-- Node13&#45;&gt;Node21 -->
<g id="edge34_Node000021_Node000013" class="edge">
<title>Node13&#45;&gt;Node21</title>
<g id="a_edge34_Node000021_Node000013"><a xlink:title=" ">
<path fill="none" stroke="orange" stroke-dasharray="5,2" d="M403.55,-398.96C411.77,-400.98 420.35,-402.8 428.5,-404 758.62,-452.61 857.47,-341.89 1178.75,-432 1211.53,-441.19 1245.22,-461.89 1266.22,-476.4"/>
<polygon fill="orange" stroke="orange" points="404.66,-395.63 394.1,-396.49 402.89,-402.41 404.66,-395.63"/>
</a>
</g>
<text text-anchor="start" x="738.25" y="-421.9" font-family="Helvetica,sans-Serif" font-size="10.00" fill="grey"> &lt; std::shared_ptr&lt;</text>
<text text-anchor="middle" x="810.62" y="-410.65" font-family="Helvetica,sans-Serif" font-size="10.00" fill="grey"> Ark::internal::MacroExecutor &gt; &gt;</text>
</g>
<!-- Node14&#45;&gt;Node3 -->
<g id="edge16_Node000003_Node000014" class="edge">
<title>Node14&#45;&gt;Node3</title>
<g id="a_edge16_Node000003_Node000014"><a xlink:title=" ">
<path fill="none" stroke="#9a32cd" stroke-dasharray="5,2" d="M419.71,-21.47C477.5,-12.15 567.93,0 646.88,0 646.88,0 646.88,0 1289.38,0 1431.87,0 1523.32,-199.41 1543.09,-246.93"/>
<polygon fill="#9a32cd" stroke="#9a32cd" points="419.4,-17.98 410.1,-23.05 420.53,-24.89 419.4,-17.98"/>
</a>
</g>
<text text-anchor="middle" x="974.25" y="-1.75" font-family="Helvetica,sans-Serif" font-size="10.00" fill="grey"> m_ast</text>
</g>
<!-- Node14&#45;&gt;Node17 -->
<g id="edge22_Node000017_Node000014" class="edge">
<title>Node14&#45;&gt;Node17</title>
<g id="a_edge22_Node000017_Node000014"><a xlink:title=" ">
<path fill="none" stroke="#9a32cd" stroke-dasharray="5,2" d="M376.85,-49.75C389.69,-62.45 408.61,-78.85 428.5,-88 481.39,-112.34 503.18,-89.8 557.5,-110.75 579.74,-119.33 602.44,-133.7 619.4,-145.77"/>
<polygon fill="#9a32cd" stroke="#9a32cd" points="379.54,-47.5 370.06,-42.77 374.53,-52.38 379.54,-47.5"/>
</a>
</g>
<text text-anchor="middle" x="493" y="-112.5" font-family="Helvetica,sans-Serif" font-size="10.00" fill="grey"> elements</text>
</g>
<!-- Node14&#45;&gt;Node18 -->
<g id="edge26_Node000018_Node000014" class="edge">
<title>Node14&#45;&gt;Node18</title>
<g id="a_edge26_Node000018_Node000014"><a xlink:title=" ">
<path fill="none" stroke="#9a32cd" stroke-dasharray="5,2" d="M419.94,-34.29C468.54,-36.15 536.94,-38.78 585.91,-40.66"/>
<polygon fill="#9a32cd" stroke="#9a32cd" points="420.29,-30.8 410.16,-33.91 420.02,-37.79 420.29,-30.8"/>
</a>
</g>
<text text-anchor="middle" x="493" y="-41.19" font-family="Helvetica,sans-Serif" font-size="10.00" fill="grey"> elements</text>
</g>
<!-- Node15&#45;&gt;Node3 -->
<g id="edge18_Node000003_Node000015" class="edge">
<title>Node15&#45;&gt;Node3</title>
<g id="a_edge18_Node000003_Node000015"><a xlink:title=" ">
<path fill="none" stroke="#9a32cd" stroke-dasharray="5,2" d="M1361.69,-271.39C1397.11,-268.64 1439.65,-265.34 1475.04,-262.59"/>
<polygon fill="#9a32cd" stroke="#9a32cd" points="1361.67,-267.88 1351.97,-272.14 1362.21,-274.86 1361.67,-267.88"/>
</a>
</g>
<text text-anchor="middle" x="1427.62" y="-269.95" font-family="Helvetica,sans-Serif" font-size="10.00" fill="grey"> m_macros</text>
</g>
<!-- Node16 -->
<g id="Node000016" class="node">
<title>Node16</title>
<g id="a_Node000016"><a xlink:href="../../d6/d42/classArk_1_1internal_1_1MacroScope.html" target="_top" xlink:title=" ">
<polygon fill="white" stroke="#666666" points="1038.88,-282.62 909.62,-282.62 909.62,-263.38 1038.88,-263.38 1038.88,-282.62"/>
<text text-anchor="middle" x="974.25" y="-269.12" font-family="Helvetica,sans-Serif" font-size="10.00">Ark::internal::MacroScope</text>
</a>
</g>
</g>
<!-- Node16&#45;&gt;Node15 -->
<g id="edge19_Node000015_Node000016" class="edge">
<title>Node16&#45;&gt;Node15</title>
<g id="a_edge19_Node000015_Node000016"><a xlink:title=" ">
<path fill="none" stroke="#9a32cd" stroke-dasharray="5,2" d="M1050.39,-273.96C1104.33,-274.65 1176.09,-275.57 1226.46,-276.22"/>
<polygon fill="#9a32cd" stroke="#9a32cd" points="1050.72,-270.47 1040.68,-273.84 1050.63,-277.47 1050.72,-270.47"/>
</a>
</g>
<text text-anchor="middle" x="1122.12" y="-277.34" font-family="Helvetica,sans-Serif" font-size="10.00" fill="grey"> elements</text>
</g>
<!-- Node17&#45;&gt;Node3 -->
<g id="edge35_Node000003_Node000017" class="edge">
<title>Node17&#45;&gt;Node3</title>
<g id="a_edge35_Node000003_Node000017"><a xlink:title=" ">
<path fill="none" stroke="#9a32cd" stroke-dasharray="5,2" d="M710.64,-167.3C837.06,-168.75 1134.15,-176.36 1380,-215 1427.43,-222.45 1481.08,-237.07 1514.51,-246.94"/>
<polygon fill="#9a32cd" stroke="#9a32cd" points="710.85,-163.81 700.82,-167.2 710.78,-170.8 710.85,-163.81"/>
</a>
</g>
<text text-anchor="middle" x="1122.12" y="-191.62" font-family="Helvetica,sans-Serif" font-size="10.00" fill="grey"> m_defined_functions</text>
</g>
<!-- Node17&#45;&gt;Node16 -->
<g id="edge20_Node000016_Node000017" class="edge">
<title>Node17&#45;&gt;Node16</title>
<g id="a_edge20_Node000016_Node000017"><a xlink:title=" ">
<path fill="none" stroke="#9a32cd" stroke-dasharray="5,2" d="M709.2,-187.76C713.21,-190.49 716.96,-193.56 720.25,-197 736.27,-213.78 720.02,-231.66 738.25,-246 744.96,-251.28 842.06,-261.09 909.32,-267.32"/>
<polygon fill="#9a32cd" stroke="#9a32cd" points="711.13,-184.84 700.74,-182.77 707.57,-190.87 711.13,-184.84"/>
</a>
</g>
<text text-anchor="middle" x="810.62" y="-266.31" font-family="Helvetica,sans-Serif" font-size="10.00" fill="grey"> m_macros</text>
</g>
<!-- Node18&#45;&gt;Node3 -->
<g id="edge25_Node000003_Node000018" class="edge">
<title>Node18&#45;&gt;Node3</title>
<g id="a_edge25_Node000003_Node000018"><a xlink:title=" ">
<path fill="none" stroke="#9a32cd" stroke-dasharray="5,2" d="M720.71,-54.5C852.46,-76.22 1141.16,-126.73 1380,-189 1414.92,-198.1 1423.73,-200.63 1457.25,-214 1482.31,-224 1510.2,-237.78 1528.17,-247.02"/>
<polygon fill="#9a32cd" stroke="#9a32cd" points="721.53,-51.09 711.09,-52.92 720.39,-57.99 721.53,-51.09"/>
</a>
</g>
<text text-anchor="middle" x="1122.12" y="-141.77" font-family="Helvetica,sans-Serif" font-size="10.00" fill="grey"> m_macros_being_applied</text>
</g>
<!-- Node19&#45;&gt;Node3 -->
<g id="edge28_Node000003_Node000019" class="edge">
<title>Node19&#45;&gt;Node3</title>
<g id="a_edge28_Node000003_Node000019"><a xlink:title=" ">
<path fill="none" stroke="#9a32cd" stroke-dasharray="5,2" d="M1046.62,-556.14C1149.69,-577.74 1340.6,-599.88 1457.25,-504 1534.45,-440.54 1545.34,-304.9 1546.87,-267.01"/>
<polygon fill="#9a32cd" stroke="#9a32cd" points="1047.4,-552.73 1036.89,-554.04 1045.93,-559.57 1047.4,-552.73"/>
</a>
</g>
<text text-anchor="middle" x="1288.38" y="-576.63" font-family="Helvetica,sans-Serif" font-size="10.00" fill="grey"> m_conditional_executor</text>
</g>
<!-- Node19&#45;&gt;Node21 -->
<g id="edge33_Node000021_Node000019" class="edge">
<title>Node19&#45;&gt;Node21</title>
<g id="a_edge33_Node000021_Node000019"><a xlink:title=" ">
<path fill="none" stroke="#9a32cd" stroke-dasharray="5,2" d="M1052.91,-520.03C1057.16,-519.22 1061.38,-518.45 1065.5,-517.75 1108.32,-510.48 1156.14,-504.64 1196.39,-500.38"/>
<polygon fill="#9a32cd" stroke="#9a32cd" points="1052.24,-516.59 1043.11,-521.98 1053.61,-523.46 1052.24,-516.59"/>
</a>
</g>
<text text-anchor="middle" x="1122.12" y="-519.5" font-family="Helvetica,sans-Serif" font-size="10.00" fill="grey"> elements</text>
</g>
<!-- Node20&#45;&gt;Node19 -->
<g id="edge30_Node000019_Node000020" class="edge">
<title>Node20&#45;&gt;Node19</title>
<g id="a_edge30_Node000019_Node000020"><a xlink:title=" ">
<path fill="none" stroke="orange" stroke-dasharray="5,2" d="M557.36,-523.52C606.65,-526.16 676.78,-529.71 738.25,-532 795.04,-534.12 859.58,-535.71 906.64,-536.72"/>
<polygon fill="orange" stroke="orange" points="557.61,-520.03 547.43,-522.99 557.23,-527.02 557.61,-520.03"/>
</a>
</g>
<text text-anchor="middle" x="647.88" y="-533.02" font-family="Helvetica,sans-Serif" font-size="10.00" fill="grey"> &lt; Ark::internal::MacroExecutor &gt;</text>
</g>
<!-- Node21&#45;&gt;Node3 -->
<g id="edge32_Node000003_Node000021" class="edge">
<title>Node21&#45;&gt;Node3</title>
<g id="a_edge32_Node000003_Node000021"><a xlink:title=" ">
<path fill="none" stroke="#9a32cd" stroke-dasharray="5,2" d="M1391.29,-490.56C1414.84,-486.06 1438.47,-477.74 1457.25,-463 1523.56,-410.98 1541.96,-300.09 1546.08,-266.71"/>
<polygon fill="#9a32cd" stroke="#9a32cd" points="1390.91,-487.07 1381.62,-492.16 1392.06,-493.98 1390.91,-487.07"/>
</a>
</g>
<text text-anchor="middle" x="1427.62" y="-490.65" font-family="Helvetica,sans-Serif" font-size="10.00" fill="grey"> m_executors</text>
</g>
</g>
</svg>

<g id="navigator" transform="translate(0 0)" fill="#404254">
  <rect fill="#f2f5e9" fill-opacity="0.5" stroke="#606060" stroke-width=".5" x="0" y="0" width="60" height="60"/>
  <use id="zoomplus" xlink:href="#zoomPlus" x="17" y="9" onmousedown="handleZoom(evt,'in')"/>
  <use id="zoomminus" xlink:href="#zoomMin" x="42" y="9" onmousedown="handleZoom(evt,'out')"/>
  <use id="reset" xlink:href="#resetDef" x="30" y="36" onmousedown="handleReset()"/>
   <use id="arrowup" xlink:href="#arrowUp" x="0" y="0" onmousedown="handlePan(0,-1)"/>
  <use id="arrowright" xlink:href="#arrowRight" x="0" y="0" onmousedown="handlePan(1,0)"/>
  <use id="arrowdown" xlink:href="#arrowDown" x="0" y="0" onmousedown="handlePan(0,1)"/>
  <use id="arrowleft" xlink:href="#arrowLeft" x="0" y="0" onmousedown="handlePan(-1,0)"/>
</g>
<svg viewBox="0 0 15 15" width="100%" height="30px" preserveAspectRatio="xMaxYMin meet">
 <g id="arrow_out" transform="scale(0.3 0.3)">
  <a xlink:href="classArk_1_1internal_1_1SymbolExecutor__coll__graph_org.svg" target="_base">
   <rect id="button" ry="5" rx="5" y="6" x="6" height="38" width="38"
        fill="#f2f5e9" fill-opacity="0.5" stroke="#606060" stroke-width="1.0"/>
   <path id="arrow"
     d="M 11.500037,31.436501 C 11.940474,20.09759 22.043105,11.32322 32.158766,21.979434 L 37.068811,17.246167 C 37.068811,17.246167 37.088388,32 37.088388,32 L 22.160133,31.978069 C 22.160133,31.978069 26.997745,27.140456 26.997745,27.140456 C 18.528582,18.264221 13.291696,25.230495 11.500037,31.436501 z"
     style="fill:#404040;"/>
  </a>
 </g>
</svg>

<style type='text/css'>
<![CDATA[
[data-mouse-over-selected='false'] { opacity: 0.7; }
[data-mouse-over-selected='true']  { opacity: 1.0; }
]]>
</style>
<script type="application/ecmascript"><![CDATA[
document.addEventListener('DOMContentLoaded', (event) => {
  highlightEdges();
  highlightAdjacentNodes();
});
]]></script>
</svg>
