<?xml version="1.0" encoding="UTF-8" standalone="no"?>
<!DOCTYPE svg PUBLIC "-//W3C//DTD SVG 1.1//EN"
 "http://www.w3.org/Graphics/SVG/1.1/DTD/svg11.dtd">
<!-- Generated by graphviz version 12.2.0 (20241103.1931)
 -->
<!-- Title: /Users/fola/Documents/ArkScript/Ark/src/arkreactor/Exceptions.cpp Pages: 1 -->
<svg width="1540pt" height="282pt"
 viewBox="0.00 0.00 1539.62 282.00" xmlns="http://www.w3.org/2000/svg" xmlns:xlink="http://www.w3.org/1999/xlink">
<g id="graph0" class="graph" transform="scale(1 1) rotate(0) translate(4 278)">
<title>/Users/fola/Documents/ArkScript/Ark/src/arkreactor/Exceptions.cpp</title>
<!-- Node1 -->
<g id="Node000001" class="node">
<title>Node1</title>
<g id="a_Node000001"><a xlink:title=" ">
<polygon fill="#999999" stroke="#666666" points="698.75,-274 558.25,-274 558.25,-232.25 698.75,-232.25 698.75,-274"/>
<text text-anchor="start" x="566.25" y="-260.5" font-family="Helvetica,sans-Serif" font-size="10.00">/Users/fola/Documents</text>
<text text-anchor="start" x="566.25" y="-249.25" font-family="Helvetica,sans-Serif" font-size="10.00">/ArkScript/Ark/src/arkreactor</text>
<text text-anchor="middle" x="628.5" y="-238" font-family="Helvetica,sans-Serif" font-size="10.00">/Exceptions.cpp</text>
</a>
</g>
</g>
<!-- Node2 -->
<g id="Node000002" class="node">
<title>Node2</title>
<g id="a_Node000002"><a xlink:href="../../d2/de9/Exceptions_8hpp.html" target="_top" xlink:title="ArkScript homemade exceptions.">
<polygon fill="white" stroke="#666666" points="458.25,-196.25 356.75,-196.25 356.75,-177 458.25,-177 458.25,-196.25"/>
<text text-anchor="middle" x="407.5" y="-182.75" font-family="Helvetica,sans-Serif" font-size="10.00">Ark/Exceptions.hpp</text>
</a>
</g>
</g>
<!-- Node1&#45;&gt;Node2 -->
<g id="edge1_Node000001_Node000002" class="edge">
<title>Node1&#45;&gt;Node2</title>
<g id="a_edge1_Node000001_Node000002"><a xlink:title=" ">
<path fill="none" stroke="#63b8ff" d="M558.88,-231.81C522.93,-221.31 480.27,-208.86 449.41,-199.86"/>
<polygon fill="#63b8ff" stroke="#63b8ff" points="450.64,-196.57 440.06,-197.13 448.68,-203.29 450.64,-196.57"/>
</a>
</g>
</g>
<!-- Node14 -->
<g id="Node000014" class="node">
<title>Node14</title>
<g id="a_Node000014"><a xlink:title=" ">
<polygon fill="#e0e0e0" stroke="#999999" points="269.62,-196.25 221.38,-196.25 221.38,-177 269.62,-177 269.62,-196.25"/>
<text text-anchor="middle" x="245.5" y="-182.75" font-family="Helvetica,sans-Serif" font-size="10.00">cassert</text>
</a>
</g>
</g>
<!-- Node1&#45;&gt;Node14 -->
<g id="edge14_Node000001_Node000014" class="edge">
<title>Node1&#45;&gt;Node14</title>
<g id="a_edge14_Node000001_Node000014"><a xlink:title=" ">
<path fill="none" stroke="#63b8ff" d="M558.07,-242.94C489.62,-233.54 382.56,-217.62 281.02,-196.61"/>
<polygon fill="#63b8ff" stroke="#63b8ff" points="281.93,-193.23 271.43,-194.61 280.5,-200.08 281.93,-193.23"/>
</a>
</g>
</g>
<!-- Node15 -->
<g id="Node000015" class="node">
<title>Node15</title>
<g id="a_Node000015"><a xlink:title=" ">
<polygon fill="#e0e0e0" stroke="#999999" points="339.12,-196.25 287.88,-196.25 287.88,-177 339.12,-177 339.12,-196.25"/>
<text text-anchor="middle" x="313.5" y="-182.75" font-family="Helvetica,sans-Serif" font-size="10.00">sstream</text>
</a>
</g>
</g>
<!-- Node1&#45;&gt;Node15 -->
<g id="edge15_Node000001_Node000015" class="edge">
<title>Node1&#45;&gt;Node15</title>
<g id="a_edge15_Node000001_Node000015"><a xlink:title=" ">
<path fill="none" stroke="#63b8ff" d="M557.84,-239.13C503.55,-228.91 426.46,-213.87 350.63,-196.88"/>
<polygon fill="#63b8ff" stroke="#63b8ff" points="351.46,-193.48 340.93,-194.69 349.92,-200.3 351.46,-193.48"/>
</a>
</g>
</g>
<!-- Node16 -->
<g id="Node000016" class="node">
<title>Node16</title>
<g id="a_Node000016"><a xlink:title=" ">
<polygon fill="#e0e0e0" stroke="#999999" points="654.38,-135.38 598.62,-135.38 598.62,-116.12 654.38,-116.12 654.38,-135.38"/>
<text text-anchor="middle" x="626.5" y="-121.88" font-family="Helvetica,sans-Serif" font-size="10.00">algorithm</text>
</a>
</g>
</g>
<!-- Node1&#45;&gt;Node16 -->
<g id="edge16_Node000001_Node000016" class="edge">
<title>Node1&#45;&gt;Node16</title>
<g id="a_edge16_Node000001_Node000016"><a xlink:title=" ">
<path fill="none" stroke="#63b8ff" d="M683.46,-231.76C709.82,-218.6 733.04,-199.7 719.5,-177 712.65,-165.52 683.48,-150.83 659.61,-140.3"/>
<polygon fill="#63b8ff" stroke="#63b8ff" points="661.07,-137.12 650.5,-136.39 658.31,-143.55 661.07,-137.12"/>
</a>
</g>
</g>
<!-- Node17 -->
<g id="Node000017" class="node">
<title>Node17</title>
<g id="a_Node000017"><a xlink:title=" ">
<polygon fill="#e0e0e0" stroke="#999999" points="536.62,-196.25 476.38,-196.25 476.38,-177 536.62,-177 536.62,-196.25"/>
<text text-anchor="middle" x="506.5" y="-182.75" font-family="Helvetica,sans-Serif" font-size="10.00">fmt/core.h</text>
</a>
</g>
</g>
<!-- Node1&#45;&gt;Node17 -->
<g id="edge17_Node000001_Node000017" class="edge">
<title>Node1&#45;&gt;Node17</title>
<g id="a_edge17_Node000001_Node000017"><a xlink:title=" ">
<path fill="none" stroke="#63b8ff" d="M590.23,-231.89C571.89,-222.2 550.35,-210.81 533.7,-202.01"/>
<polygon fill="#63b8ff" stroke="#63b8ff" points="535.37,-198.93 524.9,-197.35 532.1,-205.12 535.37,-198.93"/>
</a>
</g>
</g>
<!-- Node18 -->
<g id="Node000018" class="node">
<title>Node18</title>
<g id="a_Node000018"><a xlink:title=" ">
<polygon fill="#e0e0e0" stroke="#999999" points="616.38,-196.25 554.62,-196.25 554.62,-177 616.38,-177 616.38,-196.25"/>
<text text-anchor="middle" x="585.5" y="-182.75" font-family="Helvetica,sans-Serif" font-size="10.00">fmt/color.h</text>
</a>
</g>
</g>
<!-- Node1&#45;&gt;Node18 -->
<g id="edge18_Node000001_Node000018" class="edge">
<title>Node1&#45;&gt;Node18</title>
<g id="a_edge18_Node000001_Node000018"><a xlink:title=" ">
<path fill="none" stroke="#63b8ff" d="M615.13,-232.07C609.58,-223.75 603.19,-214.16 597.76,-206.02"/>
<polygon fill="#63b8ff" stroke="#63b8ff" points="600.85,-204.33 592.39,-197.95 595.02,-208.22 600.85,-204.33"/>
</a>
</g>
</g>
<!-- Node19 -->
<g id="Node000019" class="node">
<title>Node19</title>
<g id="a_Node000019"><a xlink:title=" ">
<polygon fill="#e0e0e0" stroke="#999999" points="710.88,-196.25 634.12,-196.25 634.12,-177 710.88,-177 710.88,-196.25"/>
<text text-anchor="middle" x="672.5" y="-182.75" font-family="Helvetica,sans-Serif" font-size="10.00">fmt/ostream.h</text>
</a>
</g>
</g>
<!-- Node1&#45;&gt;Node19 -->
<g id="edge19_Node000001_Node000019" class="edge">
<title>Node1&#45;&gt;Node19</title>
<g id="a_edge19_Node000001_Node000019"><a xlink:title=" ">
<path fill="none" stroke="#63b8ff" d="M642.18,-232.07C647.86,-223.75 654.4,-214.16 659.95,-206.02"/>
<polygon fill="#63b8ff" stroke="#63b8ff" points="662.72,-208.18 665.46,-197.95 656.93,-204.23 662.72,-208.18"/>
</a>
</g>
</g>
<!-- Node20 -->
<g id="Node000020" class="node">
<title>Node20</title>
<g id="a_Node000020"><a xlink:href="../../d6/de9/Constants_8hpp.html" target="_top" xlink:title="Constants used by ArkScript.">
<polygon fill="white" stroke="#666666" points="1517.38,-74.5 1419.62,-74.5 1419.62,-55.25 1517.38,-55.25 1517.38,-74.5"/>
<text text-anchor="middle" x="1468.5" y="-61" font-family="Helvetica,sans-Serif" font-size="10.00">Ark/Constants.hpp</text>
</a>
</g>
</g>
<!-- Node1&#45;&gt;Node20 -->
<g id="edge20_Node000001_Node000020" class="edge">
<title>Node1&#45;&gt;Node20</title>
<g id="a_edge20_Node000001_Node000020"><a xlink:title=" ">
<path fill="none" stroke="#63b8ff" d="M698.95,-247.73C889.92,-235.12 1406.68,-196.17 1458.5,-141 1472.14,-126.48 1473.14,-102.86 1471.69,-85.98"/>
<polygon fill="#63b8ff" stroke="#63b8ff" points="1475.17,-85.63 1470.45,-76.15 1468.23,-86.51 1475.17,-85.63"/>
</a>
</g>
</g>
<!-- Node24 -->
<g id="Node000024" class="node">
<title>Node24</title>
<g id="a_Node000024"><a xlink:href="../../d4/dcb/Ark_2Utils_8hpp.html" target="_top" xlink:title="Lots of utilities about string, filesystem and more.">
<polygon fill="white" stroke="#666666" points="840,-196.25 767,-196.25 767,-177 840,-177 840,-196.25"/>
<text text-anchor="middle" x="803.5" y="-182.75" font-family="Helvetica,sans-Serif" font-size="10.00">Ark/Utils.hpp</text>
</a>
</g>
</g>
<!-- Node1&#45;&gt;Node24 -->
<g id="edge24_Node000001_Node000024" class="edge">
<title>Node1&#45;&gt;Node24</title>
<g id="a_edge24_Node000001_Node000024"><a xlink:title=" ">
<path fill="none" stroke="#63b8ff" d="M683.39,-231.89C711.21,-221.64 744.15,-209.5 768.5,-200.53"/>
<polygon fill="#63b8ff" stroke="#63b8ff" points="769.44,-203.91 777.61,-197.17 767.02,-197.34 769.44,-203.91"/>
</a>
</g>
</g>
<!-- Node26 -->
<g id="Node000026" class="node">
<title>Node26</title>
<g id="a_Node000026"><a xlink:href="../../d4/dc0/Files_8hpp.html" target="_top" xlink:title="Lots of utilities about the filesystem.">
<polygon fill="white" stroke="#666666" points="97.38,-135.38 23.62,-135.38 23.62,-116.12 97.38,-116.12 97.38,-135.38"/>
<text text-anchor="middle" x="60.5" y="-121.88" font-family="Helvetica,sans-Serif" font-size="10.00">Ark/Files.hpp</text>
</a>
</g>
</g>
<!-- Node1&#45;&gt;Node26 -->
<g id="edge30_Node000001_Node000026" class="edge">
<title>Node1&#45;&gt;Node26</title>
<g id="a_edge30_Node000001_Node000026"><a xlink:title=" ">
<path fill="none" stroke="#63b8ff" d="M558.01,-248.99C474.21,-243.83 330.82,-230.42 212.5,-196.25 165.82,-182.77 115.18,-157.19 85.73,-141.11"/>
<polygon fill="#63b8ff" stroke="#63b8ff" points="87.65,-138.17 77.21,-136.39 84.26,-144.29 87.65,-138.17"/>
</a>
</g>
</g>
<!-- Node29 -->
<g id="Node000029" class="node">
<title>Node29</title>
<g id="a_Node000029"><a xlink:href="../../de/dee/Literals_8hpp.html" target="_top" xlink:title="User defined literals for Ark internals.">
<polygon fill="white" stroke="#666666" points="1169.62,-196.25 1085.38,-196.25 1085.38,-177 1169.62,-177 1169.62,-196.25"/>
<text text-anchor="middle" x="1127.5" y="-182.75" font-family="Helvetica,sans-Serif" font-size="10.00">Ark/Literals.hpp</text>
</a>
</g>
</g>
<!-- Node1&#45;&gt;Node29 -->
<g id="edge35_Node000001_Node000029" class="edge">
<title>Node1&#45;&gt;Node29</title>
<g id="a_edge35_Node000001_Node000029"><a xlink:title=" ">
<path fill="none" stroke="#63b8ff" d="M699.24,-244.26C785.31,-234.48 935.33,-216.75 1073.73,-196.61"/>
<polygon fill="#63b8ff" stroke="#63b8ff" points="1074.06,-200.09 1083.45,-195.18 1073.05,-193.17 1074.06,-200.09"/>
</a>
</g>
</g>
<!-- Node30 -->
<g id="Node000030" class="node">
<title>Node30</title>
<g id="a_Node000030"><a xlink:href="../../d7/dc6/Node_8hpp.html" target="_top" xlink:title="AST node used by the parser, optimizer and compiler.">
<polygon fill="white" stroke="#666666" points="1067.75,-196.25 927.25,-196.25 927.25,-177 1067.75,-177 1067.75,-196.25"/>
<text text-anchor="middle" x="997.5" y="-182.75" font-family="Helvetica,sans-Serif" font-size="10.00">Ark/Compiler/AST/Node.hpp</text>
</a>
</g>
</g>
<!-- Node1&#45;&gt;Node30 -->
<g id="edge36_Node000001_Node000030" class="edge">
<title>Node1&#45;&gt;Node30</title>
<g id="a_edge36_Node000001_Node000030"><a xlink:title=" ">
<path fill="none" stroke="#63b8ff" d="M699.21,-239.77C767.26,-227.87 869.2,-210.05 934.52,-198.63"/>
<polygon fill="#63b8ff" stroke="#63b8ff" points="934.74,-202.15 943.99,-196.98 933.54,-195.25 934.74,-202.15"/>
</a>
</g>
</g>
<!-- Node3 -->
<g id="Node000003" class="node">
<title>Node3</title>
<g id="a_Node000003"><a xlink:title=" ">
<polygon fill="#e0e0e0" stroke="#999999" points="627.5,-74.5 587.5,-74.5 587.5,-55.25 627.5,-55.25 627.5,-74.5"/>
<text text-anchor="middle" x="607.5" y="-61" font-family="Helvetica,sans-Serif" font-size="10.00">string</text>
</a>
</g>
</g>
<!-- Node2&#45;&gt;Node3 -->
<g id="edge2_Node000002_Node000003" class="edge">
<title>Node2&#45;&gt;Node3</title>
<g id="a_edge2_Node000002_Node000003"><a xlink:title=" ">
<path fill="none" stroke="#63b8ff" d="M434.62,-176.56C456.64,-168.66 488.1,-156.1 513.5,-141 528.89,-131.85 565.8,-101.28 588.52,-82.07"/>
<polygon fill="#63b8ff" stroke="#63b8ff" points="590.5,-84.99 595.86,-75.85 585.97,-79.65 590.5,-84.99"/>
</a>
</g>
</g>
<!-- Node4 -->
<g id="Node000004" class="node">
<title>Node4</title>
<g id="a_Node000004"><a xlink:title=" ">
<polygon fill="#e0e0e0" stroke="#999999" points="155.12,-135.38 115.88,-135.38 115.88,-116.12 155.12,-116.12 155.12,-135.38"/>
<text text-anchor="middle" x="135.5" y="-121.88" font-family="Helvetica,sans-Serif" font-size="10.00">utility</text>
</a>
</g>
</g>
<!-- Node2&#45;&gt;Node4 -->
<g id="edge3_Node000002_Node000004" class="edge">
<title>Node2&#45;&gt;Node4</title>
<g id="a_edge3_Node000002_Node000004"><a xlink:title=" ">
<path fill="none" stroke="#63b8ff" d="M356.47,-178.07C295.82,-168.78 198.43,-152.8 163.5,-141 163,-140.83 162.49,-140.65 161.98,-140.47"/>
<polygon fill="#63b8ff" stroke="#63b8ff" points="163.39,-137.26 152.83,-136.47 160.59,-143.68 163.39,-137.26"/>
</a>
</g>
</g>
<!-- Node5 -->
<g id="Node000005" class="node">
<title>Node5</title>
<g id="a_Node000005"><a xlink:title=" ">
<polygon fill="#e0e0e0" stroke="#999999" points="865,-74.5 822,-74.5 822,-55.25 865,-55.25 865,-74.5"/>
<text text-anchor="middle" x="843.5" y="-61" font-family="Helvetica,sans-Serif" font-size="10.00">vector</text>
</a>
</g>
</g>
<!-- Node2&#45;&gt;Node5 -->
<g id="edge4_Node000002_Node000005" class="edge">
<title>Node2&#45;&gt;Node5</title>
<g id="a_edge4_Node000002_Node000005"><a xlink:title=" ">
<path fill="none" stroke="#63b8ff" d="M447.44,-176.53C476.19,-169.12 515.4,-157.24 547.5,-141 568.09,-130.59 568.26,-119.5 589.5,-110.5 664.33,-78.77 760.75,-69.6 810.52,-66.95"/>
<polygon fill="#63b8ff" stroke="#63b8ff" points="810.51,-70.46 820.33,-66.49 810.18,-63.47 810.51,-70.46"/>
</a>
</g>
</g>
<!-- Node6 -->
<g id="Node000006" class="node">
<title>Node6</title>
<g id="a_Node000006"><a xlink:title=" ">
<polygon fill="#e0e0e0" stroke="#999999" points="364.88,-135.38 306.12,-135.38 306.12,-116.12 364.88,-116.12 364.88,-135.38"/>
<text text-anchor="middle" x="335.5" y="-121.88" font-family="Helvetica,sans-Serif" font-size="10.00">stdexcept</text>
</a>
</g>
</g>
<!-- Node2&#45;&gt;Node6 -->
<g id="edge5_Node000002_Node000006" class="edge">
<title>Node2&#45;&gt;Node6</title>
<g id="a_edge5_Node000002_Node000006"><a xlink:title=" ">
<path fill="none" stroke="#63b8ff" d="M396.56,-176.68C385.68,-167.78 368.71,-153.91 355.42,-143.04"/>
<polygon fill="#63b8ff" stroke="#63b8ff" points="357.67,-140.35 347.71,-136.73 353.24,-145.77 357.67,-140.35"/>
</a>
</g>
</g>
<!-- Node7 -->
<g id="Node000007" class="node">
<title>Node7</title>
<g id="a_Node000007"><a xlink:title=" ">
<polygon fill="#e0e0e0" stroke="#999999" points="432.38,-135.38 382.62,-135.38 382.62,-116.12 432.38,-116.12 432.38,-135.38"/>
<text text-anchor="middle" x="407.5" y="-121.88" font-family="Helvetica,sans-Serif" font-size="10.00">optional</text>
</a>
</g>
</g>
<!-- Node2&#45;&gt;Node7 -->
<g id="edge6_Node000002_Node000007" class="edge">
<title>Node2&#45;&gt;Node7</title>
<g id="a_edge6_Node000002_Node000007"><a xlink:title=" ">
<path fill="none" stroke="#63b8ff" d="M407.5,-176.68C407.5,-168.9 407.5,-157.33 407.5,-147.28"/>
<polygon fill="#63b8ff" stroke="#63b8ff" points="411,-147.29 407.5,-137.29 404,-147.29 411,-147.29"/>
</a>
</g>
</g>
<!-- Node8 -->
<g id="Node000008" class="node">
<title>Node8</title>
<g id="a_Node000008"><a xlink:title=" ">
<polygon fill="#e0e0e0" stroke="#999999" points="862.12,-135.38 810.88,-135.38 810.88,-116.12 862.12,-116.12 862.12,-135.38"/>
<text text-anchor="middle" x="836.5" y="-121.88" font-family="Helvetica,sans-Serif" font-size="10.00">ostream</text>
</a>
</g>
</g>
<!-- Node2&#45;&gt;Node8 -->
<g id="edge7_Node000002_Node000008" class="edge">
<title>Node2&#45;&gt;Node8</title>
<g id="a_edge7_Node000002_Node000008"><a xlink:title=" ">
<path fill="none" stroke="#63b8ff" d="M458.55,-178.21C461.58,-177.79 464.58,-177.39 467.5,-177 598.87,-159.57 632.6,-161.71 763.5,-141 775.27,-139.14 788.03,-136.77 799.55,-134.5"/>
<polygon fill="#63b8ff" stroke="#63b8ff" points="799.97,-137.98 809.08,-132.58 798.59,-131.12 799.97,-137.98"/>
</a>
</g>
</g>
<!-- Node9 -->
<g id="Node000009" class="node">
<title>Node9</title>
<g id="a_Node000009"><a xlink:title=" ">
<polygon fill="#e0e0e0" stroke="#999999" points="504.25,-135.38 450.75,-135.38 450.75,-116.12 504.25,-116.12 504.25,-135.38"/>
<text text-anchor="middle" x="477.5" y="-121.88" font-family="Helvetica,sans-Serif" font-size="10.00">iostream</text>
</a>
</g>
</g>
<!-- Node2&#45;&gt;Node9 -->
<g id="edge8_Node000002_Node000009" class="edge">
<title>Node2&#45;&gt;Node9</title>
<g id="a_edge8_Node000002_Node000009"><a xlink:title=" ">
<path fill="none" stroke="#63b8ff" d="M418.13,-176.68C428.72,-167.78 445.21,-153.91 458.13,-143.04"/>
<polygon fill="#63b8ff" stroke="#63b8ff" points="460.21,-145.87 465.61,-136.75 455.7,-140.51 460.21,-145.87"/>
</a>
</g>
</g>
<!-- Node10 -->
<g id="Node000010" class="node">
<title>Node10</title>
<g id="a_Node000010"><a xlink:href="../../db/d4e/utf8__char_8hpp.html" target="_top" xlink:title=" ">
<polygon fill="white" stroke="#666666" points="288,-141 173,-141 173,-110.5 288,-110.5 288,-141"/>
<text text-anchor="start" x="181" y="-127.5" font-family="Helvetica,sans-Serif" font-size="10.00">Ark/Compiler/AST/utf8</text>
<text text-anchor="middle" x="230.5" y="-116.25" font-family="Helvetica,sans-Serif" font-size="10.00">_char.hpp</text>
</a>
</g>
</g>
<!-- Node2&#45;&gt;Node10 -->
<g id="edge9_Node000002_Node000010" class="edge">
<title>Node2&#45;&gt;Node10</title>
<g id="a_edge9_Node000002_Node000010"><a xlink:title=" ">
<path fill="none" stroke="#63b8ff" d="M380.23,-176.55C355.08,-168.19 316.97,-155.51 285.5,-145.04"/>
<polygon fill="#63b8ff" stroke="#63b8ff" points="286.71,-141.76 276.11,-141.92 284.5,-148.4 286.71,-141.76"/>
</a>
</g>
</g>
<!-- Node13 -->
<g id="Node000013" class="node">
<title>Node13</title>
<g id="a_Node000013"><a xlink:href="../../d5/d40/Platform_8hpp.html" target="_top" xlink:title="ArkScript configuration macros.">
<polygon fill="white" stroke="#666666" points="969.25,-135.38 879.75,-135.38 879.75,-116.12 969.25,-116.12 969.25,-135.38"/>
<text text-anchor="middle" x="924.5" y="-121.88" font-family="Helvetica,sans-Serif" font-size="10.00">Ark/Platform.hpp</text>
</a>
</g>
</g>
<!-- Node2&#45;&gt;Node13 -->
<g id="edge13_Node000002_Node000013" class="edge">
<title>Node2&#45;&gt;Node13</title>
<g id="a_edge13_Node000002_Node000013"><a xlink:title=" ">
<path fill="none" stroke="#63b8ff" d="M458.54,-178.1C461.57,-177.71 464.57,-177.34 467.5,-177 646.56,-156.17 694.01,-172.52 871.5,-141 875.37,-140.31 879.37,-139.48 883.35,-138.56"/>
<polygon fill="#63b8ff" stroke="#63b8ff" points="884.1,-141.98 892.97,-136.17 882.42,-135.19 884.1,-141.98"/>
</a>
</g>
</g>
<!-- Node10&#45;&gt;Node3 -->
<g id="edge11_Node000010_Node000003" class="edge">
<title>Node10&#45;&gt;Node3</title>
<g id="a_edge11_Node000010_Node000003"><a xlink:title=" ">
<path fill="none" stroke="#63b8ff" d="M288.2,-112.22C291.34,-111.62 294.46,-111.04 297.5,-110.5 398.74,-92.47 519.58,-76.72 575.81,-69.73"/>
<polygon fill="#63b8ff" stroke="#63b8ff" points="576.12,-73.22 585.61,-68.52 575.26,-66.27 576.12,-73.22"/>
</a>
</g>
</g>
<!-- Node11 -->
<g id="Node000011" class="node">
<title>Node11</title>
<g id="a_Node000011"><a xlink:title=" ">
<polygon fill="#e0e0e0" stroke="#999999" points="982.38,-74.5 944.62,-74.5 944.62,-55.25 982.38,-55.25 982.38,-74.5"/>
<text text-anchor="middle" x="963.5" y="-61" font-family="Helvetica,sans-Serif" font-size="10.00">array</text>
</a>
</g>
</g>
<!-- Node10&#45;&gt;Node11 -->
<g id="edge10_Node000010_Node000011" class="edge">
<title>Node10&#45;&gt;Node11</title>
<g id="a_edge10_Node000010_Node000011"><a xlink:title=" ">
<path fill="none" stroke="#63b8ff" d="M288.15,-111.93C291.3,-111.4 294.44,-110.92 297.5,-110.5 552.07,-75.68 618.37,-94.9 874.5,-74.5 894.02,-72.95 915.91,-70.83 933.1,-69.08"/>
<polygon fill="#63b8ff" stroke="#63b8ff" points="933.33,-72.58 942.91,-68.07 932.61,-65.61 933.33,-72.58"/>
</a>
</g>
</g>
<!-- Node12 -->
<g id="Node000012" class="node">
<title>Node12</title>
<g id="a_Node000012"><a xlink:title=" ">
<polygon fill="#e0e0e0" stroke="#999999" points="250.12,-74.5 210.88,-74.5 210.88,-55.25 250.12,-55.25 250.12,-74.5"/>
<text text-anchor="middle" x="230.5" y="-61" font-family="Helvetica,sans-Serif" font-size="10.00">limits</text>
</a>
</g>
</g>
<!-- Node10&#45;&gt;Node12 -->
<g id="edge12_Node000010_Node000012" class="edge">
<title>Node10&#45;&gt;Node12</title>
<g id="a_edge12_Node000010_Node000012"><a xlink:title=" ">
<path fill="none" stroke="#63b8ff" d="M230.5,-110.2C230.5,-102.96 230.5,-94.09 230.5,-86.19"/>
<polygon fill="#63b8ff" stroke="#63b8ff" points="234,-86.46 230.5,-76.46 227,-86.46 234,-86.46"/>
</a>
</g>
</g>
<!-- Node21 -->
<g id="Node000021" class="node">
<title>Node21</title>
<g id="a_Node000021"><a xlink:title=" ">
<polygon fill="#e0e0e0" stroke="#999999" points="1465.25,-19.25 1399.75,-19.25 1399.75,0 1465.25,0 1465.25,-19.25"/>
<text text-anchor="middle" x="1432.5" y="-5.75" font-family="Helvetica,sans-Serif" font-size="10.00">string_view</text>
</a>
</g>
</g>
<!-- Node20&#45;&gt;Node21 -->
<g id="edge21_Node000020_Node000021" class="edge">
<title>Node20&#45;&gt;Node21</title>
<g id="a_edge21_Node000020_Node000021"><a xlink:title=" ">
<path fill="none" stroke="#63b8ff" d="M1462.56,-55.08C1457.79,-48.03 1450.94,-37.9 1444.98,-29.08"/>
<polygon fill="#63b8ff" stroke="#63b8ff" points="1447.92,-27.19 1439.42,-20.86 1442.12,-31.11 1447.92,-27.19"/>
</a>
</g>
</g>
<!-- Node22 -->
<g id="Node000022" class="node">
<title>Node22</title>
<g id="a_Node000022"><a xlink:title=" ">
<polygon fill="#e0e0e0" stroke="#999999" points="1381.38,-19.25 1325.62,-19.25 1325.62,0 1381.38,0 1381.38,-19.25"/>
<text text-anchor="middle" x="1353.5" y="-5.75" font-family="Helvetica,sans-Serif" font-size="10.00">cinttypes</text>
</a>
</g>
</g>
<!-- Node20&#45;&gt;Node22 -->
<g id="edge22_Node000020_Node000022" class="edge">
<title>Node20&#45;&gt;Node22</title>
<g id="a_edge22_Node000020_Node000022"><a xlink:title=" ">
<path fill="none" stroke="#63b8ff" d="M1448.99,-54.84C1430.98,-46.5 1403.98,-34 1383.27,-24.41"/>
<polygon fill="#63b8ff" stroke="#63b8ff" points="1385.02,-21.36 1374.48,-20.34 1382.08,-27.72 1385.02,-21.36"/>
</a>
</g>
</g>
<!-- Node23 -->
<g id="Node000023" class="node">
<title>Node23</title>
<g id="a_Node000023"><a xlink:title=" ">
<polygon fill="#e0e0e0" stroke="#999999" points="1531.62,-19.25 1483.38,-19.25 1483.38,0 1531.62,0 1531.62,-19.25"/>
<text text-anchor="middle" x="1507.5" y="-5.75" font-family="Helvetica,sans-Serif" font-size="10.00">cstddef</text>
</a>
</g>
</g>
<!-- Node20&#45;&gt;Node23 -->
<g id="edge23_Node000020_Node000023" class="edge">
<title>Node20&#45;&gt;Node23</title>
<g id="a_edge23_Node000020_Node000023"><a xlink:title=" ">
<path fill="none" stroke="#63b8ff" d="M1474.94,-55.08C1480.16,-47.96 1487.69,-37.68 1494.19,-28.8"/>
<polygon fill="#63b8ff" stroke="#63b8ff" points="1496.94,-30.97 1500.03,-20.83 1491.29,-26.83 1496.94,-30.97"/>
</a>
</g>
</g>
<!-- Node24&#45;&gt;Node3 -->
<g id="edge27_Node000024_Node000003" class="edge">
<title>Node24&#45;&gt;Node3</title>
<g id="a_edge27_Node000024_Node000003"><a xlink:title=" ">
<path fill="none" stroke="#63b8ff" d="M778.56,-176.64C757.57,-168.62 727.13,-155.85 702.5,-141 700.49,-139.79 654.89,-103.58 627.61,-81.88"/>
<polygon fill="#63b8ff" stroke="#63b8ff" points="630.01,-79.32 620.01,-75.83 625.66,-84.8 630.01,-79.32"/>
</a>
</g>
</g>
<!-- Node24&#45;&gt;Node5 -->
<g id="edge28_Node000024_Node000005" class="edge">
<title>Node24&#45;&gt;Node5</title>
<g id="a_edge28_Node000024_Node000005"><a xlink:title=" ">
<path fill="none" stroke="#63b8ff" d="M801.13,-176.91C797.66,-162.49 792.55,-133.06 801.5,-110.5 805.82,-99.61 814.2,-89.82 822.34,-82.22"/>
<polygon fill="#63b8ff" stroke="#63b8ff" points="824.44,-85.03 829.74,-75.85 819.88,-79.72 824.44,-85.03"/>
</a>
</g>
</g>
<!-- Node24&#45;&gt;Node13 -->
<g id="edge25_Node000024_Node000013" class="edge">
<title>Node24&#45;&gt;Node13</title>
<g id="a_edge25_Node000024_Node000013"><a xlink:title=" ">
<path fill="none" stroke="#63b8ff" d="M822.14,-176.55C841.83,-166.98 873.11,-151.75 895.92,-140.66"/>
<polygon fill="#63b8ff" stroke="#63b8ff" points="897.21,-143.92 904.68,-136.4 894.15,-137.62 897.21,-143.92"/>
</a>
</g>
</g>
<!-- Node24&#45;&gt;Node16 -->
<g id="edge26_Node000024_Node000016" class="edge">
<title>Node24&#45;&gt;Node16</title>
<g id="a_edge26_Node000024_Node000016"><a xlink:title=" ">
<path fill="none" stroke="#63b8ff" d="M775.81,-176.54C748.51,-167.57 705.6,-153.43 668.5,-141 666.95,-140.48 665.37,-139.95 663.77,-139.41"/>
<polygon fill="#63b8ff" stroke="#63b8ff" points="665.18,-136.19 654.59,-136.31 662.94,-142.83 665.18,-136.19"/>
</a>
</g>
</g>
<!-- Node25 -->
<g id="Node000025" class="node">
<title>Node25</title>
<g id="a_Node000025"><a xlink:title=" ">
<polygon fill="#e0e0e0" stroke="#999999" points="754,-135.38 711,-135.38 711,-116.12 754,-116.12 754,-135.38"/>
<text text-anchor="middle" x="732.5" y="-121.88" font-family="Helvetica,sans-Serif" font-size="10.00">cmath</text>
</a>
</g>
</g>
<!-- Node24&#45;&gt;Node25 -->
<g id="edge29_Node000024_Node000025" class="edge">
<title>Node24&#45;&gt;Node25</title>
<g id="a_edge29_Node000024_Node000025"><a xlink:title=" ">
<path fill="none" stroke="#63b8ff" d="M792.72,-176.68C781.98,-167.78 765.25,-153.91 752.15,-143.04"/>
<polygon fill="#63b8ff" stroke="#63b8ff" points="754.48,-140.43 744.55,-136.74 750.01,-145.82 754.48,-140.43"/>
</a>
</g>
</g>
<!-- Node26&#45;&gt;Node3 -->
<g id="edge31_Node000026_Node000003" class="edge">
<title>Node26&#45;&gt;Node3</title>
<g id="a_edge31_Node000026_Node000003"><a xlink:title=" ">
<path fill="none" stroke="#63b8ff" d="M86.53,-115.64C92.98,-113.67 99.94,-111.79 106.5,-110.5 281.71,-75.96 496.7,-68.13 576.11,-66.37"/>
<polygon fill="#63b8ff" stroke="#63b8ff" points="575.8,-69.88 585.73,-66.18 575.66,-62.88 575.8,-69.88"/>
</a>
</g>
</g>
<!-- Node26&#45;&gt;Node5 -->
<g id="edge32_Node000026_Node000005" class="edge">
<title>Node26&#45;&gt;Node5</title>
<g id="a_edge32_Node000026_Node000005"><a xlink:title=" ">
<path fill="none" stroke="#63b8ff" d="M86.02,-115.65C92.61,-113.63 99.76,-111.73 106.5,-110.5 176.27,-97.77 676.25,-73.7 810.43,-67.41"/>
<polygon fill="#63b8ff" stroke="#63b8ff" points="810.22,-70.92 820.05,-66.96 809.89,-63.93 810.22,-70.92"/>
</a>
</g>
</g>
<!-- Node27 -->
<g id="Node000027" class="node">
<title>Node27</title>
<g id="a_Node000027"><a xlink:title=" ">
<polygon fill="#e0e0e0" stroke="#999999" points="49,-74.5 0,-74.5 0,-55.25 49,-55.25 49,-74.5"/>
<text text-anchor="middle" x="24.5" y="-61" font-family="Helvetica,sans-Serif" font-size="10.00">fstream</text>
</a>
</g>
</g>
<!-- Node26&#45;&gt;Node27 -->
<g id="edge33_Node000026_Node000027" class="edge">
<title>Node26&#45;&gt;Node27</title>
<g id="a_edge33_Node000026_Node000027"><a xlink:title=" ">
<path fill="none" stroke="#63b8ff" d="M55.03,-115.81C49.96,-107.51 42.24,-94.89 35.84,-84.42"/>
<polygon fill="#63b8ff" stroke="#63b8ff" points="39.01,-82.9 30.81,-76.19 33.04,-86.55 39.01,-82.9"/>
</a>
</g>
</g>
<!-- Node28 -->
<g id="Node000028" class="node">
<title>Node28</title>
<g id="a_Node000028"><a xlink:title=" ">
<polygon fill="#e0e0e0" stroke="#999999" points="128,-74.5 67,-74.5 67,-55.25 128,-55.25 128,-74.5"/>
<text text-anchor="middle" x="97.5" y="-61" font-family="Helvetica,sans-Serif" font-size="10.00">filesystem</text>
</a>
</g>
</g>
<!-- Node26&#45;&gt;Node28 -->
<g id="edge34_Node000026_Node000028" class="edge">
<title>Node26&#45;&gt;Node28</title>
<g id="a_edge34_Node000026_Node000028"><a xlink:title=" ">
<path fill="none" stroke="#63b8ff" d="M66.12,-115.81C71.34,-107.51 79.26,-94.89 85.84,-84.42"/>
<polygon fill="#63b8ff" stroke="#63b8ff" points="88.66,-86.51 91.02,-76.18 82.74,-82.79 88.66,-86.51"/>
</a>
</g>
</g>
<!-- Node30&#45;&gt;Node3 -->
<g id="edge39_Node000030_Node000003" class="edge">
<title>Node30&#45;&gt;Node3</title>
<g id="a_edge39_Node000030_Node000003"><a xlink:title=" ">
<path fill="none" stroke="#63b8ff" d="M998.19,-176.59C998.86,-160.59 997.69,-127.38 978.5,-110.5 953.2,-88.24 724.56,-72.72 639.33,-67.66"/>
<polygon fill="#63b8ff" stroke="#63b8ff" points="639.54,-64.17 629.35,-67.08 639.13,-71.15 639.54,-64.17"/>
</a>
</g>
</g>
<!-- Node30&#45;&gt;Node5 -->
<g id="edge40_Node000030_Node000005" class="edge">
<title>Node30&#45;&gt;Node5</title>
<g id="a_edge40_Node000030_Node000005"><a xlink:title=" ">
<path fill="none" stroke="#63b8ff" d="M1003.16,-176.72C1012.03,-161.52 1026.71,-130.27 1011.5,-110.5 995.2,-89.3 920.93,-76.06 876.78,-69.93"/>
<polygon fill="#63b8ff" stroke="#63b8ff" points="877.34,-66.47 866.97,-68.62 876.42,-73.41 877.34,-66.47"/>
</a>
</g>
</g>
<!-- Node30&#45;&gt;Node8 -->
<g id="edge38_Node000030_Node000008" class="edge">
<title>Node30&#45;&gt;Node8</title>
<g id="a_edge38_Node000030_Node000008"><a xlink:title=" ">
<path fill="none" stroke="#63b8ff" d="M970.08,-176.51C944.24,-167.8 904.52,-154.09 870.5,-141 869.72,-140.7 868.92,-140.39 868.12,-140.08"/>
<polygon fill="#63b8ff" stroke="#63b8ff" points="869.63,-136.91 859.05,-136.41 867,-143.4 869.63,-136.91"/>
</a>
</g>
</g>
<!-- Node30&#45;&gt;Node13 -->
<g id="edge51_Node000030_Node000013" class="edge">
<title>Node30&#45;&gt;Node13</title>
<g id="a_edge51_Node000030_Node000013"><a xlink:title=" ">
<path fill="none" stroke="#63b8ff" d="M986.41,-176.68C975.26,-167.69 957.84,-153.64 944.31,-142.73"/>
<polygon fill="#63b8ff" stroke="#63b8ff" points="946.85,-140.28 936.87,-136.73 942.46,-145.73 946.85,-140.28"/>
</a>
</g>
</g>
<!-- Node31 -->
<g id="Node000031" class="node">
<title>Node31</title>
<g id="a_Node000031"><a xlink:title=" ">
<polygon fill="#e0e0e0" stroke="#999999" points="1297.12,-135.38 1251.88,-135.38 1251.88,-116.12 1297.12,-116.12 1297.12,-135.38"/>
<text text-anchor="middle" x="1274.5" y="-121.88" font-family="Helvetica,sans-Serif" font-size="10.00">variant</text>
</a>
</g>
</g>
<!-- Node30&#45;&gt;Node31 -->
<g id="edge37_Node000030_Node000031" class="edge">
<title>Node30&#45;&gt;Node31</title>
<g id="a_edge37_Node000030_Node000031"><a xlink:title=" ">
<path fill="none" stroke="#63b8ff" d="M1068,-177.33C1117.54,-170.41 1184.98,-158.77 1242.5,-141 1243.49,-140.69 1244.49,-140.37 1245.5,-140.02"/>
<polygon fill="#63b8ff" stroke="#63b8ff" points="1246.75,-143.29 1254.77,-136.36 1244.18,-136.78 1246.75,-143.29"/>
</a>
</g>
</g>
<!-- Node32 -->
<g id="Node000032" class="node">
<title>Node32</title>
<g id="a_Node000032"><a xlink:href="../../da/d33/Namespace_8hpp.html" target="_top" xlink:title=" ">
<polygon fill="white" stroke="#666666" points="1233.38,-135.38 1063.62,-135.38 1063.62,-116.12 1233.38,-116.12 1233.38,-135.38"/>
<text text-anchor="middle" x="1148.5" y="-121.88" font-family="Helvetica,sans-Serif" font-size="10.00">Ark/Compiler/AST/Namespace.hpp</text>
</a>
</g>
</g>
<!-- Node30&#45;&gt;Node32 -->
<g id="edge41_Node000030_Node000032" class="edge">
<title>Node30&#45;&gt;Node32</title>
<g id="a_edge41_Node000030_Node000032"><a xlink:title=" ">
<path fill="none" stroke="#63b8ff" d="M1020.76,-176.55C1045.81,-166.79 1085.91,-151.15 1114.5,-140.01"/>
<polygon fill="#63b8ff" stroke="#63b8ff" points="1115.76,-143.27 1123.8,-136.38 1113.21,-136.75 1115.76,-143.27"/>
</a>
</g>
</g>
<!-- Node34 -->
<g id="Node000034" class="node">
<title>Node34</title>
<g id="a_Node000034"><a xlink:href="../../d8/ddd/Common_8hpp.html" target="_top" xlink:title="Common code for the compiler.">
<polygon fill="white" stroke="#666666" points="1449.75,-135.38 1315.25,-135.38 1315.25,-116.12 1449.75,-116.12 1449.75,-135.38"/>
<text text-anchor="middle" x="1382.5" y="-121.88" font-family="Helvetica,sans-Serif" font-size="10.00">Ark/Compiler/Common.hpp</text>
</a>
</g>
</g>
<!-- Node30&#45;&gt;Node34 -->
<g id="edge45_Node000030_Node000034" class="edge">
<title>Node30&#45;&gt;Node34</title>
<g id="a_edge45_Node000030_Node000034"><a xlink:title=" ">
<path fill="none" stroke="#63b8ff" d="M1066.36,-176.52C1129.06,-168.03 1224.15,-154.66 1306.5,-141 1312.46,-140.01 1318.67,-138.93 1324.86,-137.82"/>
<polygon fill="#63b8ff" stroke="#63b8ff" points="1325.23,-141.31 1334.44,-136.07 1323.98,-134.42 1325.23,-141.31"/>
</a>
</g>
</g>
<!-- Node32&#45;&gt;Node3 -->
<g id="edge42_Node000032_Node000003" class="edge">
<title>Node32&#45;&gt;Node3</title>
<g id="a_edge42_Node000032_Node000003"><a xlink:title=" ">
<path fill="none" stroke="#63b8ff" d="M1064.86,-115.65C942.58,-102.34 720.67,-78.19 638.87,-69.29"/>
<polygon fill="#63b8ff" stroke="#63b8ff" points="639.46,-65.83 629.14,-68.23 638.7,-72.79 639.46,-65.83"/>
</a>
</g>
</g>
<!-- Node32&#45;&gt;Node5 -->
<g id="edge43_Node000032_Node000005" class="edge">
<title>Node32&#45;&gt;Node5</title>
<g id="a_edge43_Node000032_Node000005"><a xlink:title=" ">
<path fill="none" stroke="#63b8ff" d="M1101.51,-115.68C1039.09,-103.63 930.39,-82.65 876.19,-72.18"/>
<polygon fill="#63b8ff" stroke="#63b8ff" points="877.14,-68.8 866.66,-70.35 875.82,-75.68 877.14,-68.8"/>
</a>
</g>
</g>
<!-- Node33 -->
<g id="Node000033" class="node">
<title>Node33</title>
<g id="a_Node000033"><a xlink:title=" ">
<polygon fill="#e0e0e0" stroke="#999999" points="1174.12,-74.5 1122.88,-74.5 1122.88,-55.25 1174.12,-55.25 1174.12,-74.5"/>
<text text-anchor="middle" x="1148.5" y="-61" font-family="Helvetica,sans-Serif" font-size="10.00">memory</text>
</a>
</g>
</g>
<!-- Node32&#45;&gt;Node33 -->
<g id="edge44_Node000032_Node000033" class="edge">
<title>Node32&#45;&gt;Node33</title>
<g id="a_edge44_Node000032_Node000033"><a xlink:title=" ">
<path fill="none" stroke="#63b8ff" d="M1148.5,-115.81C1148.5,-108.03 1148.5,-96.45 1148.5,-86.41"/>
<polygon fill="#63b8ff" stroke="#63b8ff" points="1152,-86.41 1148.5,-76.41 1145,-86.41 1152,-86.41"/>
</a>
</g>
</g>
<!-- Node34&#45;&gt;Node5 -->
<g id="edge48_Node000034_Node000005" class="edge">
<title>Node34&#45;&gt;Node5</title>
<g id="a_edge48_Node000034_Node000005"><a xlink:title=" ">
<path fill="none" stroke="#63b8ff" d="M1337.6,-115.64C1327.4,-113.77 1316.6,-111.93 1306.5,-110.5 1285.21,-107.48 978.64,-78.58 876.41,-68.97"/>
<polygon fill="#63b8ff" stroke="#63b8ff" points="877.04,-65.51 866.76,-68.06 876.39,-72.48 877.04,-65.51"/>
</a>
</g>
</g>
<!-- Node34&#45;&gt;Node11 -->
<g id="edge46_Node000034_Node000011" class="edge">
<title>Node34&#45;&gt;Node11</title>
<g id="a_edge46_Node000034_Node000011"><a xlink:title=" ">
<path fill="none" stroke="#63b8ff" d="M1336.35,-115.67C1326.52,-113.85 1316.18,-112.04 1306.5,-110.5 1191.37,-92.23 1053.61,-76.01 993.75,-69.23"/>
<polygon fill="#63b8ff" stroke="#63b8ff" points="994.35,-65.78 984.02,-68.14 993.57,-72.74 994.35,-65.78"/>
</a>
</g>
</g>
<!-- Node34&#45;&gt;Node20 -->
<g id="edge50_Node000034_Node000020" class="edge">
<title>Node34&#45;&gt;Node20</title>
<g id="a_edge50_Node000034_Node000020"><a xlink:title=" ">
<path fill="none" stroke="#63b8ff" d="M1395.56,-115.81C1408.95,-106.64 1430.02,-92.22 1446.08,-81.23"/>
<polygon fill="#63b8ff" stroke="#63b8ff" points="1447.79,-84.29 1454.07,-75.76 1443.84,-78.52 1447.79,-84.29"/>
</a>
</g>
</g>
<!-- Node34&#45;&gt;Node21 -->
<g id="edge47_Node000034_Node000021" class="edge">
<title>Node34&#45;&gt;Node21</title>
<g id="a_edge47_Node000034_Node000021"><a xlink:title=" ">
<path fill="none" stroke="#63b8ff" d="M1385.91,-115.66C1390.98,-102.3 1400.94,-76.63 1410.5,-55.25 1414.33,-46.67 1418.88,-37.33 1422.84,-29.42"/>
<polygon fill="#63b8ff" stroke="#63b8ff" points="1425.83,-31.27 1427.23,-20.77 1419.59,-28.1 1425.83,-31.27"/>
</a>
</g>
</g>
<!-- Node34&#45;&gt;Node22 -->
<g id="edge49_Node000034_Node000022" class="edge">
<title>Node34&#45;&gt;Node22</title>
<g id="a_edge49_Node000034_Node000022"><a xlink:title=" ">
<path fill="none" stroke="#63b8ff" d="M1380.22,-115.79C1375.59,-97.54 1364.94,-55.66 1358.58,-30.6"/>
<polygon fill="#63b8ff" stroke="#63b8ff" points="1361.99,-29.84 1356.14,-21.01 1355.21,-31.56 1361.99,-29.84"/>
</a>
</g>
</g>
</g>
</svg>
