<?xml version="1.0" encoding="UTF-8" standalone="no"?>
<!DOCTYPE svg PUBLIC "-//W3C//DTD SVG 1.1//EN"
 "http://www.w3.org/Graphics/SVG/1.1/DTD/svg11.dtd">
<!-- Generated by graphviz version 12.2.0 (20241103.1931)
 -->
<!-- Title: /Users/fola/Documents/ArkScript/Ark/src/arkreactor/VM/ScopeView.cpp Pages: 1 -->
<!--zoomable 271 -->

<svg id="main" version="1.1" xmlns="http://www.w3.org/2000/svg" xmlns:xlink="http://www.w3.org/1999/xlink" xml:space="preserve" onload="init(evt)">

<style type="text/css"><![CDATA[
.node, .edge {opacity: 0.7;}
.node.selected, .edge.selected {opacity: 1;}
.edge:hover path { stroke: red; }
.edge:hover polygon { stroke: red; fill: red; }
]]></style>

<defs>
  <circle id="rim" cx="0" cy="0" r="7"/>
  <circle id="rim2" cx="0" cy="0" r="3.5"/>
  <g id="zoomPlus">
    <use xlink:href="#rim" fill="#404040"><set attributeName="fill" to="#808080" begin="zoomplus.mouseover" end="zoomplus.mouseout"/></use>
    <path d="M-4,0h8M0,-4v8" fill="none" stroke="white" stroke-width="1.5" pointer-events="none"/>
  </g>
  <g id="zoomMin">
    <use xlink:href="#rim" fill="#404040"><set attributeName="fill" to="#808080" begin="zoomminus.mouseover" end="zoomminus.mouseout"/></use>
    <path d="M-4,0h8" fill="none" stroke="white" stroke-width="1.5" pointer-events="none"/>
  </g>
  <g id="arrowUp" transform="translate(30 24)">
    <use xlink:href="#rim"/>
    <path pointer-events="none" fill="none" stroke="white" stroke-width="1.5" d="M0,-3.0v7 M-2.5,-0.5L0,-3.0L2.5,-0.5"/>
  </g>
  <g id="arrowRight" transform="rotate(90) translate(36 -43)">
    <use xlink:href="#rim"/>
    <path pointer-events="none" fill="none" stroke="white" stroke-width="1.5" d="M0,-3.0v7 M-2.5,-0.5L0,-3.0L2.5,-0.5"/>
  </g>
  <g id="arrowDown" transform="rotate(180) translate(-30 -48)">
    <use xlink:href="#rim"/>
    <path pointer-events="none" fill="none" stroke="white" stroke-width="1.5" d="M0,-3.0v7 M-2.5,-0.5L0,-3.0L2.5,-0.5"/>
  </g>
  <g id="arrowLeft" transform="rotate(270) translate(-36 17)">
    <use xlink:href="#rim"/>
    <path pointer-events="none" fill="none" stroke="white" stroke-width="1.5" d="M0,-3.0v7 M-2.5,-0.5L0,-3.0L2.5,-0.5"/>
  </g>
  <g id="resetDef">
    <use xlink:href="#rim2" fill="#404040"><set attributeName="fill" to="#808080" begin="reset.mouseover" end="reset.mouseout"/></use>
  </g>
</defs>
<script type="application/ecmascript">
var viewWidth = 794;
var viewHeight = 271;
var sectionId = 'dynsection-0';
</script>
<script type="application/ecmascript" xlink:href="../../svg.min.js"/>
<svg id="graph" class="graph">
<g id="viewport">
<title>/Users/fola/Documents/ArkScript/Ark/src/arkreactor/VM/ScopeView.cpp</title>
<!-- Node1 -->
<g id="Node000001" class="node">
<title>Node1</title>
<g id="a_Node000001"><a xlink:title=" ">
<polygon fill="#999999" stroke="#666666" points="177.62,-262.75 37.12,-262.75 37.12,-221 177.62,-221 177.62,-262.75"/>
<text text-anchor="start" x="45.12" y="-249.25" font-family="Helvetica,sans-Serif" font-size="10.00">/Users/fola/Documents</text>
<text text-anchor="start" x="45.12" y="-238" font-family="Helvetica,sans-Serif" font-size="10.00">/ArkScript/Ark/src/arkreactor</text>
<text text-anchor="middle" x="107.38" y="-226.75" font-family="Helvetica,sans-Serif" font-size="10.00">/VM/ScopeView.cpp</text>
</a>
</g>
</g>
<!-- Node2 -->
<g id="Node000002" class="node">
<title>Node2</title>
<g id="a_Node000002"><a xlink:href="../../d8/d45/ScopeView_8hpp.html" target="_top" xlink:title=" ">
<polygon fill="white" stroke="#666666" points="118.75,-185 0,-185 0,-165.75 118.75,-165.75 118.75,-185"/>
<text text-anchor="middle" x="59.38" y="-171.5" font-family="Helvetica,sans-Serif" font-size="10.00">Ark/VM/ScopeView.hpp</text>
</a>
</g>
</g>
<!-- Node1&#45;&gt;Node2 -->
<g id="edge1_Node000001_Node000002" class="edge">
<title>Node1&#45;&gt;Node2</title>
<g id="a_edge1_Node000001_Node000002"><a xlink:title=" ">
<path fill="none" stroke="#63b8ff" d="M92.45,-220.82C86.19,-212.41 78.96,-202.7 72.86,-194.5"/>
<polygon fill="#63b8ff" stroke="#63b8ff" points="75.81,-192.59 67.03,-186.66 70.19,-196.77 75.81,-192.59"/>
</a>
</g>
</g>
<!-- Node16 -->
<g id="Node000016" class="node">
<title>Node16</title>
<g id="a_Node000016"><a xlink:title=" ">
<polygon fill="#e0e0e0" stroke="#999999" points="176,-185 136.75,-185 136.75,-165.75 176,-165.75 176,-185"/>
<text text-anchor="middle" x="156.38" y="-171.5" font-family="Helvetica,sans-Serif" font-size="10.00">limits</text>
</a>
</g>
</g>
<!-- Node1&#45;&gt;Node16 -->
<g id="edge24_Node000001_Node000016" class="edge">
<title>Node1&#45;&gt;Node16</title>
<g id="a_edge24_Node000001_Node000016"><a xlink:title=" ">
<path fill="none" stroke="#63b8ff" d="M122.61,-220.82C129,-212.41 136.38,-202.7 142.61,-194.5"/>
<polygon fill="#63b8ff" stroke="#63b8ff" points="145.31,-196.73 148.57,-186.65 139.73,-192.5 145.31,-196.73"/>
</a>
</g>
</g>
<!-- Node3 -->
<g id="Node000003" class="node">
<title>Node3</title>
<g id="a_Node000003"><a xlink:title=" ">
<polygon fill="#e0e0e0" stroke="#999999" points="102.25,-74.5 64.5,-74.5 64.5,-55.25 102.25,-55.25 102.25,-74.5"/>
<text text-anchor="middle" x="83.38" y="-61" font-family="Helvetica,sans-Serif" font-size="10.00">array</text>
</a>
</g>
</g>
<!-- Node2&#45;&gt;Node3 -->
<g id="edge2_Node000002_Node000003" class="edge">
<title>Node2&#45;&gt;Node3</title>
<g id="a_edge2_Node000002_Node000003"><a xlink:title=" ">
<path fill="none" stroke="#63b8ff" d="M61.34,-165.5C65.15,-148.25 73.65,-109.83 78.91,-86.06"/>
<polygon fill="#63b8ff" stroke="#63b8ff" points="82.31,-86.87 81.06,-76.35 75.48,-85.36 82.31,-86.87"/>
</a>
</g>
</g>
<!-- Node4 -->
<g id="Node000004" class="node">
<title>Node4</title>
<g id="a_Node000004"><a xlink:title=" ">
<polygon fill="#e0e0e0" stroke="#999999" points="158.25,-19.25 102.5,-19.25 102.5,0 158.25,0 158.25,-19.25"/>
<text text-anchor="middle" x="130.38" y="-5.75" font-family="Helvetica,sans-Serif" font-size="10.00">cinttypes</text>
</a>
</g>
</g>
<!-- Node2&#45;&gt;Node4 -->
<g id="edge3_Node000002_Node000004" class="edge">
<title>Node2&#45;&gt;Node4</title>
<g id="a_edge3_Node000002_Node000004"><a xlink:title=" ">
<path fill="none" stroke="#63b8ff" d="M48.59,-165.39C39.64,-157.17 27.56,-144.14 22.38,-129.75 11.14,-98.6 3.97,-82.77 22.38,-55.25 37.66,-32.39 67.03,-21.23 91.29,-15.79"/>
<polygon fill="#63b8ff" stroke="#63b8ff" points="91.74,-19.27 100.87,-13.9 90.38,-12.4 91.74,-19.27"/>
</a>
</g>
</g>
<!-- Node5 -->
<g id="Node000005" class="node">
<title>Node5</title>
<g id="a_Node000005"><a xlink:href="../../d5/d40/Platform_8hpp.html" target="_top" xlink:title="ArkScript configuration macros.">
<polygon fill="white" stroke="#666666" points="276.12,-19.25 186.62,-19.25 186.62,0 276.12,0 276.12,-19.25"/>
<text text-anchor="middle" x="231.38" y="-5.75" font-family="Helvetica,sans-Serif" font-size="10.00">Ark/Platform.hpp</text>
</a>
</g>
</g>
<!-- Node2&#45;&gt;Node5 -->
<g id="edge4_Node000002_Node000005" class="edge">
<title>Node2&#45;&gt;Node5</title>
<g id="a_edge4_Node000002_Node000005"><a xlink:title=" ">
<path fill="none" stroke="#63b8ff" d="M55.61,-165.43C47.21,-143.88 29.58,-88.4 55.38,-55.25 62.92,-45.56 126.51,-31.12 175.11,-21.32"/>
<polygon fill="#63b8ff" stroke="#63b8ff" points="175.56,-24.8 184.68,-19.41 174.19,-17.93 175.56,-24.8"/>
</a>
</g>
</g>
<!-- Node6 -->
<g id="Node000006" class="node">
<title>Node6</title>
<g id="a_Node000006"><a xlink:href="../../de/dfd/Value_8hpp.html" target="_top" xlink:title="Default value type handled by the virtual machine.">
<polygon fill="white" stroke="#666666" points="390.75,-129.75 296,-129.75 296,-110.5 390.75,-110.5 390.75,-129.75"/>
<text text-anchor="middle" x="343.38" y="-116.25" font-family="Helvetica,sans-Serif" font-size="10.00">Ark/VM/Value.hpp</text>
</a>
</g>
</g>
<!-- Node2&#45;&gt;Node6 -->
<g id="edge5_Node000002_Node000006" class="edge">
<title>Node2&#45;&gt;Node6</title>
<g id="a_edge5_Node000002_Node000006"><a xlink:title=" ">
<path fill="none" stroke="#63b8ff" d="M107.87,-165.28C156.73,-156.12 232.16,-141.98 284.44,-132.18"/>
<polygon fill="#63b8ff" stroke="#63b8ff" points="284.88,-135.65 294.06,-130.37 283.59,-128.77 284.88,-135.65"/>
</a>
</g>
</g>
<!-- Node6&#45;&gt;Node3 -->
<g id="edge10_Node000006_Node000003" class="edge">
<title>Node6&#45;&gt;Node3</title>
<g id="a_edge10_Node000006_Node000003"><a xlink:title=" ">
<path fill="none" stroke="#63b8ff" d="M295.81,-110.65C249.75,-102.25 178.04,-88.61 116.38,-74.5 115.39,-74.27 114.39,-74.04 113.38,-73.8"/>
<polygon fill="#63b8ff" stroke="#63b8ff" points="114.54,-70.48 103.99,-71.46 112.84,-77.27 114.54,-70.48"/>
</a>
</g>
</g>
<!-- Node6&#45;&gt;Node4 -->
<g id="edge9_Node000006_Node000004" class="edge">
<title>Node6&#45;&gt;Node4</title>
<g id="a_edge9_Node000006_Node000004"><a xlink:title=" ">
<path fill="none" stroke="#63b8ff" d="M295.84,-114.4C261.15,-109.1 214.29,-97.93 179.38,-74.5 162.36,-63.08 148.76,-43.79 140.25,-29.39"/>
<polygon fill="#63b8ff" stroke="#63b8ff" points="143.42,-27.89 135.49,-20.86 137.31,-31.3 143.42,-27.89"/>
</a>
</g>
</g>
<!-- Node6&#45;&gt;Node5 -->
<g id="edge23_Node000006_Node000005" class="edge">
<title>Node6&#45;&gt;Node5</title>
<g id="a_edge23_Node000006_Node000005"><a xlink:title=" ">
<path fill="none" stroke="#63b8ff" d="M295.83,-111.91C254.93,-104.61 200.52,-91.93 187.38,-74.5 175.27,-58.44 192.26,-39.38 208.52,-26.29"/>
<polygon fill="#63b8ff" stroke="#63b8ff" points="210.2,-29.4 216.08,-20.59 205.99,-23.81 210.2,-29.4"/>
</a>
</g>
</g>
<!-- Node7 -->
<g id="Node000007" class="node">
<title>Node7</title>
<g id="a_Node000007"><a xlink:title=" ">
<polygon fill="#e0e0e0" stroke="#999999" points="652.88,-19.25 609.88,-19.25 609.88,0 652.88,0 652.88,-19.25"/>
<text text-anchor="middle" x="631.38" y="-5.75" font-family="Helvetica,sans-Serif" font-size="10.00">vector</text>
</a>
</g>
</g>
<!-- Node6&#45;&gt;Node7 -->
<g id="edge6_Node000006_Node000007" class="edge">
<title>Node6&#45;&gt;Node7</title>
<g id="a_edge6_Node000006_Node000007"><a xlink:title=" ">
<path fill="none" stroke="#63b8ff" d="M391.03,-115.72C455.23,-110.3 565.17,-97.87 597.38,-74.5 611.99,-63.89 620.91,-45.06 625.93,-30.58"/>
<polygon fill="#63b8ff" stroke="#63b8ff" points="629.23,-31.75 628.81,-21.17 622.54,-29.7 629.23,-31.75"/>
</a>
</g>
</g>
<!-- Node8 -->
<g id="Node000008" class="node">
<title>Node8</title>
<g id="a_Node000008"><a xlink:title=" ">
<polygon fill="#e0e0e0" stroke="#999999" points="588,-74.5 542.75,-74.5 542.75,-55.25 588,-55.25 588,-74.5"/>
<text text-anchor="middle" x="565.38" y="-61" font-family="Helvetica,sans-Serif" font-size="10.00">variant</text>
</a>
</g>
</g>
<!-- Node6&#45;&gt;Node8 -->
<g id="edge7_Node000006_Node000008" class="edge">
<title>Node6&#45;&gt;Node8</title>
<g id="a_edge7_Node000006_Node000008"><a xlink:title=" ">
<path fill="none" stroke="#63b8ff" d="M381.29,-110.03C423.33,-99.95 490.55,-83.82 531.08,-74.1"/>
<polygon fill="#63b8ff" stroke="#63b8ff" points="531.87,-77.51 540.78,-71.77 530.24,-70.7 531.87,-77.51"/>
</a>
</g>
</g>
<!-- Node9 -->
<g id="Node000009" class="node">
<title>Node9</title>
<g id="a_Node000009"><a xlink:title=" ">
<polygon fill="#e0e0e0" stroke="#999999" points="519.38,-19.25 479.38,-19.25 479.38,0 519.38,0 519.38,-19.25"/>
<text text-anchor="middle" x="499.38" y="-5.75" font-family="Helvetica,sans-Serif" font-size="10.00">string</text>
</a>
</g>
</g>
<!-- Node6&#45;&gt;Node9 -->
<g id="edge8_Node000006_Node000009" class="edge">
<title>Node6&#45;&gt;Node9</title>
<g id="a_edge8_Node000006_Node000009"><a xlink:title=" ">
<path fill="none" stroke="#63b8ff" d="M391.01,-118.74C425.66,-115.7 470.66,-105.45 495.38,-74.5 505.04,-62.4 505.37,-44.55 503.66,-30.79"/>
<polygon fill="#63b8ff" stroke="#63b8ff" points="507.13,-30.34 501.99,-21.08 500.23,-31.53 507.13,-30.34"/>
</a>
</g>
</g>
<!-- Node10 -->
<g id="Node000010" class="node">
<title>Node10</title>
<g id="a_Node000010"><a xlink:href="../../dc/dd5/Closure_8hpp.html" target="_top" xlink:title="Subtype of the value type, handling closures.">
<polygon fill="white" stroke="#666666" points="486.12,-74.5 354.62,-74.5 354.62,-55.25 486.12,-55.25 486.12,-74.5"/>
<text text-anchor="middle" x="420.38" y="-61" font-family="Helvetica,sans-Serif" font-size="10.00">Ark/VM/Value/Closure.hpp</text>
</a>
</g>
</g>
<!-- Node6&#45;&gt;Node10 -->
<g id="edge11_Node000006_Node000010" class="edge">
<title>Node6&#45;&gt;Node10</title>
<g id="a_edge11_Node000006_Node000010"><a xlink:title=" ">
<path fill="none" stroke="#63b8ff" d="M356.44,-110.09C367.83,-102.21 384.6,-90.61 398.11,-81.27"/>
<polygon fill="#63b8ff" stroke="#63b8ff" points="399.77,-84.38 406,-75.81 395.79,-78.62 399.77,-84.38"/>
</a>
</g>
</g>
<!-- Node13 -->
<g id="Node000013" class="node">
<title>Node13</title>
<g id="a_Node000013"><a xlink:href="../../dc/d3d/UserType_8hpp.html" target="_top" xlink:title="Subtype of the value, capable of handling any C++ type.">
<polygon fill="white" stroke="#666666" points="336.25,-74.5 196.5,-74.5 196.5,-55.25 336.25,-55.25 336.25,-74.5"/>
<text text-anchor="middle" x="266.38" y="-61" font-family="Helvetica,sans-Serif" font-size="10.00">Ark/VM/Value/UserType.hpp</text>
</a>
</g>
</g>
<!-- Node6&#45;&gt;Node13 -->
<g id="edge16_Node000006_Node000013" class="edge">
<title>Node6&#45;&gt;Node13</title>
<g id="a_edge16_Node000006_Node000013"><a xlink:title=" ">
<path fill="none" stroke="#63b8ff" d="M330.31,-110.09C318.92,-102.21 302.15,-90.61 288.64,-81.27"/>
<polygon fill="#63b8ff" stroke="#63b8ff" points="290.96,-78.62 280.75,-75.81 286.98,-84.38 290.96,-78.62"/>
</a>
</g>
</g>
<!-- Node14 -->
<g id="Node000014" class="node">
<title>Node14</title>
<g id="a_Node000014"><a xlink:href="../../da/dcf/Procedure_8hpp.html" target="_top" xlink:title="Wrapper object for user&#45;defined functions.">
<polygon fill="white" stroke="#666666" points="786.38,-74.5 644.38,-74.5 644.38,-55.25 786.38,-55.25 786.38,-74.5"/>
<text text-anchor="middle" x="715.38" y="-61" font-family="Helvetica,sans-Serif" font-size="10.00">Ark/VM/Value/Procedure.hpp</text>
</a>
</g>
</g>
<!-- Node6&#45;&gt;Node14 -->
<g id="edge20_Node000006_Node000014" class="edge">
<title>Node6&#45;&gt;Node14</title>
<g id="a_edge20_Node000006_Node000014"><a xlink:title=" ">
<path fill="none" stroke="#63b8ff" d="M391.25,-112.27C454.43,-103.23 566.32,-87.21 640.68,-76.57"/>
<polygon fill="#63b8ff" stroke="#63b8ff" points="640.92,-80.07 650.32,-75.19 639.93,-73.14 640.92,-80.07"/>
</a>
</g>
</g>
<!-- Node10&#45;&gt;Node5 -->
<g id="edge15_Node000010_Node000005" class="edge">
<title>Node10&#45;&gt;Node5</title>
<g id="a_edge15_Node000010_Node000005"><a xlink:title=" ">
<path fill="none" stroke="#63b8ff" d="M388.31,-54.84C356.95,-46.01 308.99,-32.49 274.34,-22.73"/>
<polygon fill="#63b8ff" stroke="#63b8ff" points="275.62,-19.46 265.05,-20.11 273.73,-26.19 275.62,-19.46"/>
</a>
</g>
</g>
<!-- Node10&#45;&gt;Node9 -->
<g id="edge14_Node000010_Node000009" class="edge">
<title>Node10&#45;&gt;Node9</title>
<g id="a_edge14_Node000010_Node000009"><a xlink:title=" ">
<path fill="none" stroke="#63b8ff" d="M433.78,-54.84C445.47,-46.96 462.68,-35.36 476.54,-26.02"/>
<polygon fill="#63b8ff" stroke="#63b8ff" points="478.32,-29.04 484.65,-20.55 474.4,-23.24 478.32,-29.04"/>
</a>
</g>
</g>
<!-- Node11 -->
<g id="Node000011" class="node">
<title>Node11</title>
<g id="a_Node000011"><a xlink:title=" ">
<polygon fill="#e0e0e0" stroke="#999999" points="446,-19.25 394.75,-19.25 394.75,0 446,0 446,-19.25"/>
<text text-anchor="middle" x="420.38" y="-5.75" font-family="Helvetica,sans-Serif" font-size="10.00">memory</text>
</a>
</g>
</g>
<!-- Node10&#45;&gt;Node11 -->
<g id="edge12_Node000010_Node000011" class="edge">
<title>Node10&#45;&gt;Node11</title>
<g id="a_edge12_Node000010_Node000011"><a xlink:title=" ">
<path fill="none" stroke="#63b8ff" d="M420.38,-55.08C420.38,-48.57 420.38,-39.42 420.38,-31.12"/>
<polygon fill="#63b8ff" stroke="#63b8ff" points="423.88,-31.12 420.38,-21.12 416.88,-31.12 423.88,-31.12"/>
</a>
</g>
</g>
<!-- Node12 -->
<g id="Node000012" class="node">
<title>Node12</title>
<g id="a_Node000012"><a xlink:title=" ">
<polygon fill="#e0e0e0" stroke="#999999" points="367.12,-19.25 313.62,-19.25 313.62,0 367.12,0 367.12,-19.25"/>
<text text-anchor="middle" x="340.38" y="-5.75" font-family="Helvetica,sans-Serif" font-size="10.00">iostream</text>
</a>
</g>
</g>
<!-- Node10&#45;&gt;Node12 -->
<g id="edge13_Node000010_Node000012" class="edge">
<title>Node10&#45;&gt;Node12</title>
<g id="a_edge13_Node000010_Node000012"><a xlink:title=" ">
<path fill="none" stroke="#63b8ff" d="M406.8,-54.84C394.97,-46.96 377.54,-35.36 363.5,-26.02"/>
<polygon fill="#63b8ff" stroke="#63b8ff" points="365.54,-23.17 355.27,-20.54 361.66,-29 365.54,-23.17"/>
</a>
</g>
</g>
<!-- Node13&#45;&gt;Node4 -->
<g id="edge18_Node000013_Node000004" class="edge">
<title>Node13&#45;&gt;Node4</title>
<g id="a_edge18_Node000013_Node000004"><a xlink:title=" ">
<path fill="none" stroke="#63b8ff" d="M243.3,-54.84C221.62,-46.35 188.89,-33.54 164.25,-23.89"/>
<polygon fill="#63b8ff" stroke="#63b8ff" points="165.56,-20.64 154.97,-20.25 163,-27.16 165.56,-20.64"/>
</a>
</g>
</g>
<!-- Node13&#45;&gt;Node5 -->
<g id="edge19_Node000013_Node000005" class="edge">
<title>Node13&#45;&gt;Node5</title>
<g id="a_edge19_Node000013_Node000005"><a xlink:title=" ">
<path fill="none" stroke="#63b8ff" d="M260.6,-55.08C255.96,-48.03 249.3,-37.9 243.51,-29.08"/>
<polygon fill="#63b8ff" stroke="#63b8ff" points="246.53,-27.31 238.11,-20.87 240.68,-31.15 246.53,-27.31"/>
</a>
</g>
</g>
<!-- Node13&#45;&gt;Node12 -->
<g id="edge17_Node000013_Node000012" class="edge">
<title>Node13&#45;&gt;Node12</title>
<g id="a_edge17_Node000013_Node000012"><a xlink:title=" ">
<path fill="none" stroke="#63b8ff" d="M278.93,-54.84C289.84,-46.99 305.88,-35.45 318.84,-26.12"/>
<polygon fill="#63b8ff" stroke="#63b8ff" points="320.71,-29.09 326.78,-20.41 316.62,-23.41 320.71,-29.09"/>
</a>
</g>
</g>
<!-- Node14&#45;&gt;Node7 -->
<g id="edge22_Node000014_Node000007" class="edge">
<title>Node14&#45;&gt;Node7</title>
<g id="a_edge22_Node000014_Node000007"><a xlink:title=" ">
<path fill="none" stroke="#63b8ff" d="M701.13,-54.84C688.58,-46.89 670.04,-35.14 655.23,-25.75"/>
<polygon fill="#63b8ff" stroke="#63b8ff" points="657.29,-22.91 646.97,-20.51 653.54,-28.82 657.29,-22.91"/>
</a>
</g>
</g>
<!-- Node15 -->
<g id="Node000015" class="node">
<title>Node15</title>
<g id="a_Node000015"><a xlink:title=" ">
<polygon fill="#e0e0e0" stroke="#999999" points="744.38,-19.25 686.38,-19.25 686.38,0 744.38,0 744.38,-19.25"/>
<text text-anchor="middle" x="715.38" y="-5.75" font-family="Helvetica,sans-Serif" font-size="10.00">functional</text>
</a>
</g>
</g>
<!-- Node14&#45;&gt;Node15 -->
<g id="edge21_Node000014_Node000015" class="edge">
<title>Node14&#45;&gt;Node15</title>
<g id="a_edge21_Node000014_Node000015"><a xlink:title=" ">
<path fill="none" stroke="#63b8ff" d="M715.38,-55.08C715.38,-48.57 715.38,-39.42 715.38,-31.12"/>
<polygon fill="#63b8ff" stroke="#63b8ff" points="718.88,-31.12 715.38,-21.12 711.88,-31.12 718.88,-31.12"/>
</a>
</g>
</g>
</g>
</svg>

<g id="navigator" transform="translate(0 0)" fill="#404254">
  <rect fill="#f2f5e9" fill-opacity="0.5" stroke="#606060" stroke-width=".5" x="0" y="0" width="60" height="60"/>
  <use id="zoomplus" xlink:href="#zoomPlus" x="17" y="9" onmousedown="handleZoom(evt,'in')"/>
  <use id="zoomminus" xlink:href="#zoomMin" x="42" y="9" onmousedown="handleZoom(evt,'out')"/>
  <use id="reset" xlink:href="#resetDef" x="30" y="36" onmousedown="handleReset()"/>
   <use id="arrowup" xlink:href="#arrowUp" x="0" y="0" onmousedown="handlePan(0,-1)"/>
  <use id="arrowright" xlink:href="#arrowRight" x="0" y="0" onmousedown="handlePan(1,0)"/>
  <use id="arrowdown" xlink:href="#arrowDown" x="0" y="0" onmousedown="handlePan(0,1)"/>
  <use id="arrowleft" xlink:href="#arrowLeft" x="0" y="0" onmousedown="handlePan(-1,0)"/>
</g>
<svg viewBox="0 0 15 15" width="100%" height="30px" preserveAspectRatio="xMaxYMin meet">
 <g id="arrow_out" transform="scale(0.3 0.3)">
  <a xlink:href="ScopeView_8cpp__incl_org.svg" target="_base">
   <rect id="button" ry="5" rx="5" y="6" x="6" height="38" width="38"
        fill="#f2f5e9" fill-opacity="0.5" stroke="#606060" stroke-width="1.0"/>
   <path id="arrow"
     d="M 11.500037,31.436501 C 11.940474,20.09759 22.043105,11.32322 32.158766,21.979434 L 37.068811,17.246167 C 37.068811,17.246167 37.088388,32 37.088388,32 L 22.160133,31.978069 C 22.160133,31.978069 26.997745,27.140456 26.997745,27.140456 C 18.528582,18.264221 13.291696,25.230495 11.500037,31.436501 z"
     style="fill:#404040;"/>
  </a>
 </g>
</svg>

<style type='text/css'>
<![CDATA[
[data-mouse-over-selected='false'] { opacity: 0.7; }
[data-mouse-over-selected='true']  { opacity: 1.0; }
]]>
</style>
<script type="application/ecmascript"><![CDATA[
document.addEventListener('DOMContentLoaded', (event) => {
  highlightEdges();
  highlightAdjacentNodes();
});
]]></script>
</svg>
