<?xml version="1.0" encoding="UTF-8" standalone="no"?>
<!DOCTYPE svg PUBLIC "-//W3C//DTD SVG 1.1//EN"
 "http://www.w3.org/Graphics/SVG/1.1/DTD/svg11.dtd">
<!-- Generated by graphviz version 12.2.0 (20241103.1931)
 -->
<!-- Title: /Users/fola/Documents/ArkScript/Ark/src/arkreactor/VM/ScopeView.cpp Pages: 1 -->
<!--zoomable 271 -->

<svg id="main" version="1.1" xmlns="http://www.w3.org/2000/svg" xmlns:xlink="http://www.w3.org/1999/xlink" xml:space="preserve" onload="init(evt)">

<style type="text/css"><![CDATA[
.node, .edge {opacity: 0.7;}
.node.selected, .edge.selected {opacity: 1;}
.edge:hover path { stroke: red; }
.edge:hover polygon { stroke: red; fill: red; }
]]></style>

<defs>
  <circle id="rim" cx="0" cy="0" r="7"/>
  <circle id="rim2" cx="0" cy="0" r="3.5"/>
  <g id="zoomPlus">
    <use xlink:href="#rim" fill="#404040"><set attributeName="fill" to="#808080" begin="zoomplus.mouseover" end="zoomplus.mouseout"/></use>
    <path d="M-4,0h8M0,-4v8" fill="none" stroke="white" stroke-width="1.5" pointer-events="none"/>
  </g>
  <g id="zoomMin">
    <use xlink:href="#rim" fill="#404040"><set attributeName="fill" to="#808080" begin="zoomminus.mouseover" end="zoomminus.mouseout"/></use>
    <path d="M-4,0h8" fill="none" stroke="white" stroke-width="1.5" pointer-events="none"/>
  </g>
  <g id="arrowUp" transform="translate(30 24)">
    <use xlink:href="#rim"/>
    <path pointer-events="none" fill="none" stroke="white" stroke-width="1.5" d="M0,-3.0v7 M-2.5,-0.5L0,-3.0L2.5,-0.5"/>
  </g>
  <g id="arrowRight" transform="rotate(90) translate(36 -43)">
    <use xlink:href="#rim"/>
    <path pointer-events="none" fill="none" stroke="white" stroke-width="1.5" d="M0,-3.0v7 M-2.5,-0.5L0,-3.0L2.5,-0.5"/>
  </g>
  <g id="arrowDown" transform="rotate(180) translate(-30 -48)">
    <use xlink:href="#rim"/>
    <path pointer-events="none" fill="none" stroke="white" stroke-width="1.5" d="M0,-3.0v7 M-2.5,-0.5L0,-3.0L2.5,-0.5"/>
  </g>
  <g id="arrowLeft" transform="rotate(270) translate(-36 17)">
    <use xlink:href="#rim"/>
    <path pointer-events="none" fill="none" stroke="white" stroke-width="1.5" d="M0,-3.0v7 M-2.5,-0.5L0,-3.0L2.5,-0.5"/>
  </g>
  <g id="resetDef">
    <use xlink:href="#rim2" fill="#404040"><set attributeName="fill" to="#808080" begin="reset.mouseover" end="reset.mouseout"/></use>
  </g>
</defs>
<script type="application/ecmascript">
var viewWidth = 1146;
var viewHeight = 271;
var sectionId = 'dynsection-0';
</script>
<script type="application/ecmascript" xlink:href="../../svg.min.js"/>
<svg id="graph" class="graph">
<g id="viewport">
<title>/Users/fola/Documents/ArkScript/Ark/src/arkreactor/VM/ScopeView.cpp</title>
<!-- Node1 -->
<g id="Node000001" class="node">
<title>Node1</title>
<g id="a_Node000001"><a xlink:title=" ">
<polygon fill="#999999" stroke="#666666" points="1052.31,-262.75 911.81,-262.75 911.81,-221 1052.31,-221 1052.31,-262.75"/>
<text text-anchor="start" x="919.81" y="-249.25" font-family="Helvetica,sans-Serif" font-size="10.00">/Users/fola/Documents</text>
<text text-anchor="start" x="919.81" y="-238" font-family="Helvetica,sans-Serif" font-size="10.00">/ArkScript/Ark/src/arkreactor</text>
<text text-anchor="middle" x="982.06" y="-226.75" font-family="Helvetica,sans-Serif" font-size="10.00">/VM/ScopeView.cpp</text>
</a>
</g>
</g>
<!-- Node2 -->
<g id="Node000002" class="node">
<title>Node2</title>
<g id="a_Node000002"><a xlink:href="../../d8/d45/ScopeView_8hpp.html" target="_top" xlink:title="The virtual machine scope system.">
<polygon fill="white" stroke="#666666" points="895.43,-185 776.68,-185 776.68,-165.75 895.43,-165.75 895.43,-185"/>
<text text-anchor="middle" x="836.06" y="-171.5" font-family="Helvetica,sans-Serif" font-size="10.00">Ark/VM/ScopeView.hpp</text>
</a>
</g>
</g>
<!-- Node1&#45;&gt;Node2 -->
<g id="edge1_Node000001_Node000002" class="edge">
<title>Node1&#45;&gt;Node2</title>
<g id="a_edge1_Node000001_Node000002"><a xlink:title=" ">
<path fill="none" stroke="#63b8ff" d="M936.26,-220.64C913.69,-210.67 887.05,-198.9 866.92,-190.01"/>
<polygon fill="#63b8ff" stroke="#63b8ff" points="868.42,-186.85 857.86,-186.01 865.59,-193.25 868.42,-186.85"/>
</a>
</g>
</g>
<!-- Node17 -->
<g id="Node000017" class="node">
<title>Node17</title>
<g id="a_Node000017"><a xlink:href="../../d6/de9/Constants_8hpp.html" target="_top" xlink:title="Constants used by ArkScript.">
<polygon fill="white" stroke="#666666" points="1030.93,-185 933.18,-185 933.18,-165.75 1030.93,-165.75 1030.93,-185"/>
<text text-anchor="middle" x="982.06" y="-171.5" font-family="Helvetica,sans-Serif" font-size="10.00">Ark/Constants.hpp</text>
</a>
</g>
</g>
<!-- Node1&#45;&gt;Node17 -->
<g id="edge26_Node000001_Node000017" class="edge">
<title>Node1&#45;&gt;Node17</title>
<g id="a_edge26_Node000001_Node000017"><a xlink:title=" ">
<path fill="none" stroke="#63b8ff" d="M982.06,-220.82C982.06,-213.15 982.06,-204.39 982.06,-196.7"/>
<polygon fill="#63b8ff" stroke="#63b8ff" points="985.56,-196.96 982.06,-186.96 978.56,-196.96 985.56,-196.96"/>
</a>
</g>
</g>
<!-- Node21 -->
<g id="Node000021" class="node">
<title>Node21</title>
<g id="a_Node000021"><a xlink:title=" ">
<polygon fill="#e0e0e0" stroke="#999999" points="1097.18,-185 1048.93,-185 1048.93,-165.75 1097.18,-165.75 1097.18,-185"/>
<text text-anchor="middle" x="1073.06" y="-171.5" font-family="Helvetica,sans-Serif" font-size="10.00">cassert</text>
</a>
</g>
</g>
<!-- Node1&#45;&gt;Node21 -->
<g id="edge31_Node000001_Node000021" class="edge">
<title>Node1&#45;&gt;Node21</title>
<g id="a_edge31_Node000001_Node000021"><a xlink:title=" ">
<path fill="none" stroke="#63b8ff" d="M1010.35,-220.82C1023.53,-211.48 1038.96,-200.55 1051.22,-191.86"/>
<polygon fill="#63b8ff" stroke="#63b8ff" points="1052.89,-194.96 1059.03,-186.32 1048.85,-189.25 1052.89,-194.96"/>
</a>
</g>
</g>
<!-- Node3 -->
<g id="Node000003" class="node">
<title>Node3</title>
<g id="a_Node000003"><a xlink:title=" ">
<polygon fill="#e0e0e0" stroke="#999999" points="854.93,-74.5 817.18,-74.5 817.18,-55.25 854.93,-55.25 854.93,-74.5"/>
<text text-anchor="middle" x="836.06" y="-61" font-family="Helvetica,sans-Serif" font-size="10.00">array</text>
</a>
</g>
</g>
<!-- Node2&#45;&gt;Node3 -->
<g id="edge2_Node000002_Node000003" class="edge">
<title>Node2&#45;&gt;Node3</title>
<g id="a_edge2_Node000002_Node000003"><a xlink:title=" ">
<path fill="none" stroke="#63b8ff" d="M836.06,-165.5C836.06,-148.25 836.06,-109.83 836.06,-86.06"/>
<polygon fill="#63b8ff" stroke="#63b8ff" points="839.56,-86.39 836.06,-76.39 832.56,-86.39 839.56,-86.39"/>
</a>
</g>
</g>
<!-- Node4 -->
<g id="Node000004" class="node">
<title>Node4</title>
<g id="a_Node000004"><a xlink:title=" ">
<polygon fill="#e0e0e0" stroke="#999999" points="863.93,-19.25 808.18,-19.25 808.18,0 863.93,0 863.93,-19.25"/>
<text text-anchor="middle" x="836.06" y="-5.75" font-family="Helvetica,sans-Serif" font-size="10.00">cinttypes</text>
</a>
</g>
</g>
<!-- Node2&#45;&gt;Node4 -->
<g id="edge3_Node000002_Node000004" class="edge">
<title>Node2&#45;&gt;Node4</title>
<g id="a_edge3_Node000002_Node000004"><a xlink:title=" ">
<path fill="none" stroke="#63b8ff" d="M841.34,-165.33C852.35,-145.33 875.75,-95.88 864.06,-55.25 861.32,-45.72 855.87,-36.25 850.51,-28.51"/>
<polygon fill="#63b8ff" stroke="#63b8ff" points="853.43,-26.58 844.64,-20.67 847.83,-30.77 853.43,-26.58"/>
</a>
</g>
</g>
<!-- Node5 -->
<g id="Node000005" class="node">
<title>Node5</title>
<g id="a_Node000005"><a xlink:href="../../d5/d40/Platform_8hpp.html" target="_top" xlink:title="ArkScript configuration macros.">
<polygon fill="white" stroke="#666666" points="171.43,-19.25 58.68,-19.25 58.68,0 171.43,0 171.43,-19.25"/>
<text text-anchor="middle" x="115.06" y="-5.75" font-family="Helvetica,sans-Serif" font-size="10.00">Ark/Utils/Platform.hpp</text>
</a>
</g>
</g>
<!-- Node2&#45;&gt;Node5 -->
<g id="edge4_Node000002_Node000005" class="edge">
<title>Node2&#45;&gt;Node5</title>
<g id="a_edge4_Node000002_Node000005"><a xlink:title=" ">
<path fill="none" stroke="#63b8ff" d="M776.32,-171.77C594.31,-163.23 56.01,-133.17 6.06,-74.5 -14.58,-50.26 23.24,-32.97 59.85,-22.54"/>
<polygon fill="#63b8ff" stroke="#63b8ff" points="60.39,-26.02 69.14,-20.05 58.58,-19.26 60.39,-26.02"/>
</a>
</g>
</g>
<!-- Node6 -->
<g id="Node000006" class="node">
<title>Node6</title>
<g id="a_Node000006"><a xlink:href="../../de/dfd/Value_8hpp.html" target="_top" xlink:title="Default value type handled by the virtual machine.">
<polygon fill="white" stroke="#666666" points="478.93,-129.75 357.18,-129.75 357.18,-110.5 478.93,-110.5 478.93,-129.75"/>
<text text-anchor="middle" x="418.06" y="-116.25" font-family="Helvetica,sans-Serif" font-size="10.00">Ark/VM/Value/Value.hpp</text>
</a>
</g>
</g>
<!-- Node2&#45;&gt;Node6 -->
<g id="edge5_Node000002_Node000006" class="edge">
<title>Node2&#45;&gt;Node6</title>
<g id="a_edge5_Node000002_Node000006"><a xlink:title=" ">
<path fill="none" stroke="#63b8ff" d="M776.61,-166.8C701.27,-157.2 571.47,-140.67 490.44,-130.35"/>
<polygon fill="#63b8ff" stroke="#63b8ff" points="491.2,-126.91 480.84,-129.12 490.32,-133.86 491.2,-126.91"/>
</a>
</g>
</g>
<!-- Node6&#45;&gt;Node3 -->
<g id="edge10_Node000006_Node000003" class="edge">
<title>Node6&#45;&gt;Node3</title>
<g id="a_edge10_Node000006_Node000003"><a xlink:title=" ">
<path fill="none" stroke="#63b8ff" d="M479.14,-114.71C555.4,-108.58 689.64,-95.79 803.06,-74.5 804.05,-74.31 805.06,-74.11 806.07,-73.9"/>
<polygon fill="#63b8ff" stroke="#63b8ff" points="806.56,-77.39 815.49,-71.7 804.96,-70.57 806.56,-77.39"/>
</a>
</g>
</g>
<!-- Node6&#45;&gt;Node4 -->
<g id="edge9_Node000006_Node000004" class="edge">
<title>Node6&#45;&gt;Node4</title>
<g id="a_edge9_Node000006_Node000004"><a xlink:title=" ">
<path fill="none" stroke="#63b8ff" d="M479.13,-116.03C565.93,-110.84 720.01,-98.53 770.06,-74.5 791.99,-63.97 811.23,-43.3 823.19,-28.32"/>
<polygon fill="#63b8ff" stroke="#63b8ff" points="825.75,-30.74 829.03,-20.66 820.18,-26.49 825.75,-30.74"/>
</a>
</g>
</g>
<!-- Node6&#45;&gt;Node5 -->
<g id="edge25_Node000006_Node000005" class="edge">
<title>Node6&#45;&gt;Node5</title>
<g id="a_edge25_Node000006_Node000005"><a xlink:title=" ">
<path fill="none" stroke="#63b8ff" d="M356.81,-114.75C289.11,-108.91 185.35,-96.61 153.06,-74.5 137.43,-63.8 127.24,-44.37 121.38,-29.74"/>
<polygon fill="#63b8ff" stroke="#63b8ff" points="124.8,-28.93 118.1,-20.72 118.22,-31.32 124.8,-28.93"/>
</a>
</g>
</g>
<!-- Node7 -->
<g id="Node000007" class="node">
<title>Node7</title>
<g id="a_Node000007"><a xlink:title=" ">
<polygon fill="#e0e0e0" stroke="#999999" points="409.56,-19.25 366.56,-19.25 366.56,0 409.56,0 409.56,-19.25"/>
<text text-anchor="middle" x="388.06" y="-5.75" font-family="Helvetica,sans-Serif" font-size="10.00">vector</text>
</a>
</g>
</g>
<!-- Node6&#45;&gt;Node7 -->
<g id="edge6_Node000006_Node000007" class="edge">
<title>Node6&#45;&gt;Node7</title>
<g id="a_edge6_Node000006_Node000007"><a xlink:title=" ">
<path fill="none" stroke="#63b8ff" d="M409.56,-110.07C402.26,-101.61 392.25,-88.25 388.06,-74.5 383.74,-60.34 383.93,-43.58 385.09,-30.78"/>
<polygon fill="#63b8ff" stroke="#63b8ff" points="388.54,-31.39 386.27,-21.05 381.6,-30.55 388.54,-31.39"/>
</a>
</g>
</g>
<!-- Node8 -->
<g id="Node000008" class="node">
<title>Node8</title>
<g id="a_Node000008"><a xlink:title=" ">
<polygon fill="#e0e0e0" stroke="#999999" points="760.68,-74.5 715.43,-74.5 715.43,-55.25 760.68,-55.25 760.68,-74.5"/>
<text text-anchor="middle" x="738.06" y="-61" font-family="Helvetica,sans-Serif" font-size="10.00">variant</text>
</a>
</g>
</g>
<!-- Node6&#45;&gt;Node8 -->
<g id="edge7_Node000006_Node000008" class="edge">
<title>Node6&#45;&gt;Node8</title>
<g id="a_edge7_Node000006_Node000008"><a xlink:title=" ">
<path fill="none" stroke="#63b8ff" d="M479.37,-111.61C535.4,-104.29 620.74,-92.03 703.88,-74.75"/>
<polygon fill="#63b8ff" stroke="#63b8ff" points="704.52,-78.2 713.58,-72.71 703.07,-71.35 704.52,-78.2"/>
</a>
</g>
</g>
<!-- Node9 -->
<g id="Node000009" class="node">
<title>Node9</title>
<g id="a_Node000009"><a xlink:title=" ">
<polygon fill="#e0e0e0" stroke="#999999" points="238.06,-19.25 198.06,-19.25 198.06,0 238.06,0 238.06,-19.25"/>
<text text-anchor="middle" x="218.06" y="-5.75" font-family="Helvetica,sans-Serif" font-size="10.00">string</text>
</a>
</g>
</g>
<!-- Node6&#45;&gt;Node9 -->
<g id="edge8_Node000006_Node000009" class="edge">
<title>Node6&#45;&gt;Node9</title>
<g id="a_edge8_Node000006_Node000009"><a xlink:title=" ">
<path fill="none" stroke="#63b8ff" d="M356.75,-117.21C289.08,-113.66 186.45,-103.51 162.06,-74.5 147.7,-57.43 169.86,-38.23 190.39,-25.38"/>
<polygon fill="#63b8ff" stroke="#63b8ff" points="192.03,-28.48 198.87,-20.39 188.48,-22.45 192.03,-28.48"/>
</a>
</g>
</g>
<!-- Node10 -->
<g id="Node000010" class="node">
<title>Node10</title>
<g id="a_Node000010"><a xlink:title=" ">
<polygon fill="#e0e0e0" stroke="#999999" points="337.68,-19.25 286.43,-19.25 286.43,0 337.68,0 337.68,-19.25"/>
<text text-anchor="middle" x="312.06" y="-5.75" font-family="Helvetica,sans-Serif" font-size="10.00">memory</text>
</a>
</g>
</g>
<!-- Node6&#45;&gt;Node10 -->
<g id="edge11_Node000006_Node000010" class="edge">
<title>Node6&#45;&gt;Node10</title>
<g id="a_edge11_Node000006_Node000010"><a xlink:title=" ">
<path fill="none" stroke="#63b8ff" d="M409.39,-110.25C391.76,-92.21 351.5,-51 328.67,-27.63"/>
<polygon fill="#63b8ff" stroke="#63b8ff" points="331.4,-25.42 321.91,-20.71 326.4,-30.31 331.4,-25.42"/>
</a>
</g>
</g>
<!-- Node11 -->
<g id="Node000011" class="node">
<title>Node11</title>
<g id="a_Node000011"><a xlink:title=" ">
<polygon fill="#e0e0e0" stroke="#999999" points="76.93,-74.5 15.18,-74.5 15.18,-55.25 76.93,-55.25 76.93,-74.5"/>
<text text-anchor="middle" x="46.06" y="-61" font-family="Helvetica,sans-Serif" font-size="10.00">type_traits</text>
</a>
</g>
</g>
<!-- Node6&#45;&gt;Node11 -->
<g id="edge12_Node000006_Node000011" class="edge">
<title>Node6&#45;&gt;Node11</title>
<g id="a_edge12_Node000006_Node000011"><a xlink:title=" ">
<path fill="none" stroke="#63b8ff" d="M356.74,-111.76C290.92,-103.61 183.36,-89.63 91.06,-74.5 90.06,-74.34 89.06,-74.17 88.04,-74"/>
<polygon fill="#63b8ff" stroke="#63b8ff" points="88.95,-70.6 78.5,-72.3 87.73,-77.5 88.95,-70.6"/>
</a>
</g>
</g>
<!-- Node12 -->
<g id="Node000012" class="node">
<title>Node12</title>
<g id="a_Node000012"><a xlink:href="../../dc/dd5/Closure_8hpp.html" target="_top" xlink:title="Subtype of the value type, handling closures.">
<polygon fill="white" stroke="#666666" points="302.81,-74.5 171.31,-74.5 171.31,-55.25 302.81,-55.25 302.81,-74.5"/>
<text text-anchor="middle" x="237.06" y="-61" font-family="Helvetica,sans-Serif" font-size="10.00">Ark/VM/Value/Closure.hpp</text>
</a>
</g>
</g>
<!-- Node6&#45;&gt;Node12 -->
<g id="edge13_Node000006_Node000012" class="edge">
<title>Node6&#45;&gt;Node12</title>
<g id="a_edge13_Node000006_Node000012"><a xlink:title=" ">
<path fill="none" stroke="#63b8ff" d="M387.36,-110.09C357.45,-101.29 311.78,-87.86 278.63,-78.11"/>
<polygon fill="#63b8ff" stroke="#63b8ff" points="279.95,-74.84 269.37,-75.38 277.97,-81.56 279.95,-74.84"/>
</a>
</g>
</g>
<!-- Node13 -->
<g id="Node000013" class="node">
<title>Node13</title>
<g id="a_Node000013"><a xlink:href="../../dc/d3d/UserType_8hpp.html" target="_top" xlink:title="Subtype of the value, capable of handling any C++ type.">
<polygon fill="white" stroke="#666666" points="696.93,-74.5 557.18,-74.5 557.18,-55.25 696.93,-55.25 696.93,-74.5"/>
<text text-anchor="middle" x="627.06" y="-61" font-family="Helvetica,sans-Serif" font-size="10.00">Ark/VM/Value/UserType.hpp</text>
</a>
</g>
</g>
<!-- Node6&#45;&gt;Node13 -->
<g id="edge17_Node000006_Node000013" class="edge">
<title>Node6&#45;&gt;Node13</title>
<g id="a_edge17_Node000006_Node000013"><a xlink:title=" ">
<path fill="none" stroke="#63b8ff" d="M453.51,-110.09C488.49,-101.18 542.15,-87.51 580.54,-77.73"/>
<polygon fill="#63b8ff" stroke="#63b8ff" points="581.14,-81.19 589.96,-75.33 579.41,-74.4 581.14,-81.19"/>
</a>
</g>
</g>
<!-- Node16 -->
<g id="Node000016" class="node">
<title>Node16</title>
<g id="a_Node000016"><a xlink:href="../../da/dcf/Procedure_8hpp.html" target="_top" xlink:title="Wrapper object for user&#45;defined functions.">
<polygon fill="white" stroke="#666666" points="539.06,-74.5 397.06,-74.5 397.06,-55.25 539.06,-55.25 539.06,-74.5"/>
<text text-anchor="middle" x="468.06" y="-61" font-family="Helvetica,sans-Serif" font-size="10.00">Ark/VM/Value/Procedure.hpp</text>
</a>
</g>
</g>
<!-- Node6&#45;&gt;Node16 -->
<g id="edge22_Node000006_Node000016" class="edge">
<title>Node6&#45;&gt;Node16</title>
<g id="a_edge22_Node000006_Node000016"><a xlink:title=" ">
<path fill="none" stroke="#63b8ff" d="M426.32,-110.33C433.22,-102.98 443.28,-92.26 451.8,-83.19"/>
<polygon fill="#63b8ff" stroke="#63b8ff" points="454.29,-85.65 458.59,-75.96 449.19,-80.86 454.29,-85.65"/>
</a>
</g>
</g>
<!-- Node12&#45;&gt;Node5 -->
<g id="edge16_Node000012_Node000005" class="edge">
<title>Node12&#45;&gt;Node5</title>
<g id="a_edge16_Node000012_Node000005"><a xlink:title=" ">
<path fill="none" stroke="#63b8ff" d="M216.36,-54.84C197.17,-46.47 168.35,-33.88 146.34,-24.28"/>
<polygon fill="#63b8ff" stroke="#63b8ff" points="147.81,-21.1 137.24,-20.31 145.01,-27.52 147.81,-21.1"/>
</a>
</g>
</g>
<!-- Node12&#45;&gt;Node9 -->
<g id="edge15_Node000012_Node000009" class="edge">
<title>Node12&#45;&gt;Node9</title>
<g id="a_edge15_Node000012_Node000009"><a xlink:title=" ">
<path fill="none" stroke="#63b8ff" d="M233.92,-55.08C231.52,-48.34 228.1,-38.77 225.06,-30.24"/>
<polygon fill="#63b8ff" stroke="#63b8ff" points="228.43,-29.28 221.77,-21.03 221.84,-31.63 228.43,-29.28"/>
</a>
</g>
</g>
<!-- Node12&#45;&gt;Node10 -->
<g id="edge14_Node000012_Node000010" class="edge">
<title>Node12&#45;&gt;Node10</title>
<g id="a_edge14_Node000012_Node000010"><a xlink:title=" ">
<path fill="none" stroke="#63b8ff" d="M249.78,-54.84C260.77,-47.04 276.9,-35.59 289.99,-26.29"/>
<polygon fill="#63b8ff" stroke="#63b8ff" points="291.91,-29.22 298.04,-20.58 287.86,-23.51 291.91,-29.22"/>
</a>
</g>
</g>
<!-- Node13&#45;&gt;Node4 -->
<g id="edge19_Node000013_Node000004" class="edge">
<title>Node13&#45;&gt;Node4</title>
<g id="a_edge19_Node000013_Node000004"><a xlink:title=" ">
<path fill="none" stroke="#63b8ff" d="M662.51,-54.84C699.83,-45.34 758.39,-30.41 797.01,-20.58"/>
<polygon fill="#63b8ff" stroke="#63b8ff" points="797.53,-24.05 806.35,-18.19 795.8,-17.27 797.53,-24.05"/>
</a>
</g>
</g>
<!-- Node13&#45;&gt;Node5 -->
<g id="edge21_Node000013_Node000005" class="edge">
<title>Node13&#45;&gt;Node5</title>
<g id="a_edge21_Node000013_Node000005"><a xlink:title=" ">
<path fill="none" stroke="#63b8ff" d="M556.85,-56.18C553.88,-55.86 550.94,-55.55 548.06,-55.25 388.58,-38.55 348.48,-36.53 189.06,-19.25 187.03,-19.03 184.96,-18.8 182.88,-18.57"/>
<polygon fill="#63b8ff" stroke="#63b8ff" points="183.44,-15.11 173.12,-17.48 182.66,-22.07 183.44,-15.11"/>
</a>
</g>
</g>
<!-- Node14 -->
<g id="Node000014" class="node">
<title>Node14</title>
<g id="a_Node000014"><a xlink:title=" ">
<polygon fill="#e0e0e0" stroke="#999999" points="653.81,-19.25 600.31,-19.25 600.31,0 653.81,0 653.81,-19.25"/>
<text text-anchor="middle" x="627.06" y="-5.75" font-family="Helvetica,sans-Serif" font-size="10.00">iostream</text>
</a>
</g>
</g>
<!-- Node13&#45;&gt;Node14 -->
<g id="edge18_Node000013_Node000014" class="edge">
<title>Node13&#45;&gt;Node14</title>
<g id="a_edge18_Node000013_Node000014"><a xlink:title=" ">
<path fill="none" stroke="#63b8ff" d="M627.06,-55.08C627.06,-48.57 627.06,-39.42 627.06,-31.12"/>
<polygon fill="#63b8ff" stroke="#63b8ff" points="630.56,-31.12 627.06,-21.12 623.56,-31.12 630.56,-31.12"/>
</a>
</g>
</g>
<!-- Node15 -->
<g id="Node000015" class="node">
<title>Node15</title>
<g id="a_Node000015"><a xlink:title=" ">
<polygon fill="#e0e0e0" stroke="#999999" points="539.06,-19.25 481.06,-19.25 481.06,0 539.06,0 539.06,-19.25"/>
<text text-anchor="middle" x="510.06" y="-5.75" font-family="Helvetica,sans-Serif" font-size="10.00">functional</text>
</a>
</g>
</g>
<!-- Node13&#45;&gt;Node15 -->
<g id="edge20_Node000013_Node000015" class="edge">
<title>Node13&#45;&gt;Node15</title>
<g id="a_edge20_Node000013_Node000015"><a xlink:title=" ">
<path fill="none" stroke="#63b8ff" d="M607.21,-54.84C588.89,-46.5 561.41,-34 540.35,-24.41"/>
<polygon fill="#63b8ff" stroke="#63b8ff" points="541.93,-21.29 531.38,-20.33 539.03,-27.66 541.93,-21.29"/>
</a>
</g>
</g>
<!-- Node16&#45;&gt;Node7 -->
<g id="edge24_Node000016_Node000007" class="edge">
<title>Node16&#45;&gt;Node7</title>
<g id="a_edge24_Node000016_Node000007"><a xlink:title=" ">
<path fill="none" stroke="#63b8ff" d="M454.49,-54.84C442.65,-46.96 425.22,-35.36 411.19,-26.02"/>
<polygon fill="#63b8ff" stroke="#63b8ff" points="413.22,-23.17 402.96,-20.54 409.34,-29 413.22,-23.17"/>
</a>
</g>
</g>
<!-- Node16&#45;&gt;Node15 -->
<g id="edge23_Node000016_Node000015" class="edge">
<title>Node16&#45;&gt;Node15</title>
<g id="a_edge23_Node000016_Node000015"><a xlink:title=" ">
<path fill="none" stroke="#63b8ff" d="M474.99,-55.08C480.68,-47.88 488.9,-37.46 495.95,-28.51"/>
<polygon fill="#63b8ff" stroke="#63b8ff" points="498.59,-30.82 502.04,-20.8 493.1,-26.48 498.59,-30.82"/>
</a>
</g>
</g>
<!-- Node17&#45;&gt;Node4 -->
<g id="edge29_Node000017_Node000004" class="edge">
<title>Node17&#45;&gt;Node4</title>
<g id="a_edge29_Node000017_Node000004"><a xlink:title=" ">
<path fill="none" stroke="#63b8ff" d="M973.16,-165.34C964.51,-156.45 951.1,-142.43 940.06,-129.75 912.14,-97.69 908.35,-86.98 880.06,-55.25 871.66,-45.83 861.83,-35.78 853.6,-27.61"/>
<polygon fill="#63b8ff" stroke="#63b8ff" points="856.11,-25.16 846.52,-20.66 851.2,-30.16 856.11,-25.16"/>
</a>
</g>
</g>
<!-- Node18 -->
<g id="Node000018" class="node">
<title>Node18</title>
<g id="a_Node000018"><a xlink:title=" ">
<polygon fill="#e0e0e0" stroke="#999999" points="1014.81,-129.75 949.31,-129.75 949.31,-110.5 1014.81,-110.5 1014.81,-129.75"/>
<text text-anchor="middle" x="982.06" y="-116.25" font-family="Helvetica,sans-Serif" font-size="10.00">string_view</text>
</a>
</g>
</g>
<!-- Node17&#45;&gt;Node18 -->
<g id="edge27_Node000017_Node000018" class="edge">
<title>Node17&#45;&gt;Node18</title>
<g id="a_edge27_Node000017_Node000018"><a xlink:title=" ">
<path fill="none" stroke="#63b8ff" d="M982.06,-165.58C982.06,-159.07 982.06,-149.92 982.06,-141.62"/>
<polygon fill="#63b8ff" stroke="#63b8ff" points="985.56,-141.62 982.06,-131.62 978.56,-141.62 985.56,-141.62"/>
</a>
</g>
</g>
<!-- Node19 -->
<g id="Node000019" class="node">
<title>Node19</title>
<g id="a_Node000019"><a xlink:title=" ">
<polygon fill="#e0e0e0" stroke="#999999" points="1071.68,-129.75 1032.43,-129.75 1032.43,-110.5 1071.68,-110.5 1071.68,-129.75"/>
<text text-anchor="middle" x="1052.06" y="-116.25" font-family="Helvetica,sans-Serif" font-size="10.00">limits</text>
</a>
</g>
</g>
<!-- Node17&#45;&gt;Node19 -->
<g id="edge28_Node000017_Node000019" class="edge">
<title>Node17&#45;&gt;Node19</title>
<g id="a_edge28_Node000017_Node000019"><a xlink:title=" ">
<path fill="none" stroke="#63b8ff" d="M993.93,-165.34C1004.15,-157.57 1019.13,-146.17 1031.32,-136.9"/>
<polygon fill="#63b8ff" stroke="#63b8ff" points="1033.32,-139.78 1039.16,-130.94 1029.08,-134.21 1033.32,-139.78"/>
</a>
</g>
</g>
<!-- Node20 -->
<g id="Node000020" class="node">
<title>Node20</title>
<g id="a_Node000020"><a xlink:title=" ">
<polygon fill="#e0e0e0" stroke="#999999" points="1138.18,-129.75 1089.93,-129.75 1089.93,-110.5 1138.18,-110.5 1138.18,-129.75"/>
<text text-anchor="middle" x="1114.06" y="-116.25" font-family="Helvetica,sans-Serif" font-size="10.00">cstddef</text>
</a>
</g>
</g>
<!-- Node17&#45;&gt;Node20 -->
<g id="edge30_Node000017_Node000020" class="edge">
<title>Node17&#45;&gt;Node20</title>
<g id="a_edge30_Node000017_Node000020"><a xlink:title=" ">
<path fill="none" stroke="#63b8ff" d="M1004.45,-165.34C1025.5,-156.85 1057.26,-144.04 1081.18,-134.39"/>
<polygon fill="#63b8ff" stroke="#63b8ff" points="1082.19,-137.76 1090.15,-130.77 1079.57,-131.26 1082.19,-137.76"/>
</a>
</g>
</g>
</g>
</svg>

<g id="navigator" transform="translate(0 0)" fill="#404254">
  <rect fill="#f2f5e9" fill-opacity="0.5" stroke="#606060" stroke-width=".5" x="0" y="0" width="60" height="60"/>
  <use id="zoomplus" xlink:href="#zoomPlus" x="17" y="9" onmousedown="handleZoom(evt,'in')"/>
  <use id="zoomminus" xlink:href="#zoomMin" x="42" y="9" onmousedown="handleZoom(evt,'out')"/>
  <use id="reset" xlink:href="#resetDef" x="30" y="36" onmousedown="handleReset()"/>
   <use id="arrowup" xlink:href="#arrowUp" x="0" y="0" onmousedown="handlePan(0,-1)"/>
  <use id="arrowright" xlink:href="#arrowRight" x="0" y="0" onmousedown="handlePan(1,0)"/>
  <use id="arrowdown" xlink:href="#arrowDown" x="0" y="0" onmousedown="handlePan(0,1)"/>
  <use id="arrowleft" xlink:href="#arrowLeft" x="0" y="0" onmousedown="handlePan(-1,0)"/>
</g>
<svg viewBox="0 0 15 15" width="100%" height="30px" preserveAspectRatio="xMaxYMin meet">
 <g id="arrow_out" transform="scale(0.3 0.3)">
  <a xlink:href="ScopeView_8cpp__incl_org.svg" target="_base">
   <rect id="button" ry="5" rx="5" y="6" x="6" height="38" width="38"
        fill="#f2f5e9" fill-opacity="0.5" stroke="#606060" stroke-width="1.0"/>
   <path id="arrow"
     d="M 11.500037,31.436501 C 11.940474,20.09759 22.043105,11.32322 32.158766,21.979434 L 37.068811,17.246167 C 37.068811,17.246167 37.088388,32 37.088388,32 L 22.160133,31.978069 C 22.160133,31.978069 26.997745,27.140456 26.997745,27.140456 C 18.528582,18.264221 13.291696,25.230495 11.500037,31.436501 z"
     style="fill:#404040;"/>
  </a>
 </g>
</svg>

<style type='text/css'>
<![CDATA[
[data-mouse-over-selected='false'] { opacity: 0.7; }
[data-mouse-over-selected='true']  { opacity: 1.0; }
]]>
</style>
<script type="application/ecmascript"><![CDATA[
document.addEventListener('DOMContentLoaded', (event) => {
  highlightEdges();
  highlightAdjacentNodes();
});
]]></script>
</svg>
