<?xml version="1.0" encoding="UTF-8" standalone="no"?>
<!DOCTYPE svg PUBLIC "-//W3C//DTD SVG 1.1//EN"
 "http://www.w3.org/Graphics/SVG/1.1/DTD/svg11.dtd">
<!-- Generated by graphviz version 12.2.0 (20241103.1931)
 -->
<!-- Title: /Users/fola/Documents/ArkScript/Ark/include/Ark/VM/Value/ClosureScope.hpp Pages: 1 -->
<svg width="844pt" height="216pt"
 viewBox="0.00 0.00 843.50 215.50" xmlns="http://www.w3.org/2000/svg" xmlns:xlink="http://www.w3.org/1999/xlink">
<g id="graph0" class="graph" transform="scale(1 1) rotate(0) translate(4 211.5)">
<title>/Users/fola/Documents/ArkScript/Ark/include/Ark/VM/Value/ClosureScope.hpp</title>
<!-- Node1 -->
<g id="Node000001" class="node">
<title>Node1</title>
<g id="a_Node000001"><a xlink:title="Subtype of the value type, handling closures.">
<polygon fill="#999999" stroke="#666666" points="493,-207.5 330.75,-207.5 330.75,-165.75 493,-165.75 493,-207.5"/>
<text text-anchor="start" x="338.75" y="-194" font-family="Helvetica,sans-Serif" font-size="10.00">/Users/fola/Documents</text>
<text text-anchor="start" x="338.75" y="-182.75" font-family="Helvetica,sans-Serif" font-size="10.00">/ArkScript/Ark/include</text>
<text text-anchor="middle" x="411.88" y="-171.5" font-family="Helvetica,sans-Serif" font-size="10.00">/Ark/VM/Value/ClosureScope.hpp</text>
</a>
</g>
</g>
<!-- Node2 -->
<g id="Node000002" class="node">
<title>Node2</title>
<g id="a_Node000002"><a xlink:title=" ">
<polygon fill="#e0e0e0" stroke="#999999" points="631.38,-19.25 588.38,-19.25 588.38,0 631.38,0 631.38,-19.25"/>
<text text-anchor="middle" x="609.88" y="-5.75" font-family="Helvetica,sans-Serif" font-size="10.00">vector</text>
</a>
</g>
</g>
<!-- Node1&#45;&gt;Node2 -->
<g id="edge1_Node000001_Node000002" class="edge">
<title>Node1&#45;&gt;Node2</title>
<g id="a_edge1_Node000001_Node000002"><a xlink:title=" ">
<path fill="none" stroke="#63b8ff" d="M493.39,-184.22C573.18,-177.96 690.93,-154.62 748.88,-74.5 777.62,-34.75 692.54,-19.11 642.91,-13.48"/>
<polygon fill="#63b8ff" stroke="#63b8ff" points="643.55,-10.03 633.24,-12.47 642.82,-16.99 643.55,-10.03"/>
</a>
</g>
</g>
<!-- Node3 -->
<g id="Node000003" class="node">
<title>Node3</title>
<g id="a_Node000003"><a xlink:title=" ">
<polygon fill="#e0e0e0" stroke="#999999" points="835.5,-129.75 796.25,-129.75 796.25,-110.5 835.5,-110.5 835.5,-129.75"/>
<text text-anchor="middle" x="815.88" y="-116.25" font-family="Helvetica,sans-Serif" font-size="10.00">utility</text>
</a>
</g>
</g>
<!-- Node1&#45;&gt;Node3 -->
<g id="edge2_Node000001_Node000003" class="edge">
<title>Node1&#45;&gt;Node3</title>
<g id="a_edge2_Node000001_Node000003"><a xlink:title=" ">
<path fill="none" stroke="#63b8ff" d="M493.48,-175.65C568.72,-165.9 683.33,-149.64 781.88,-129.75 782.87,-129.55 783.87,-129.34 784.89,-129.12"/>
<polygon fill="#63b8ff" stroke="#63b8ff" points="785.4,-132.6 794.34,-126.91 783.81,-125.78 785.4,-132.6"/>
</a>
</g>
</g>
<!-- Node4 -->
<g id="Node000004" class="node">
<title>Node4</title>
<g id="a_Node000004"><a xlink:title=" ">
<polygon fill="#e0e0e0" stroke="#999999" points="55.75,-19.25 0,-19.25 0,0 55.75,0 55.75,-19.25"/>
<text text-anchor="middle" x="27.88" y="-5.75" font-family="Helvetica,sans-Serif" font-size="10.00">cinttypes</text>
</a>
</g>
</g>
<!-- Node1&#45;&gt;Node4 -->
<g id="edge3_Node000001_Node000004" class="edge">
<title>Node1&#45;&gt;Node4</title>
<g id="a_edge3_Node000001_Node000004"><a xlink:title=" ">
<path fill="none" stroke="#63b8ff" d="M330.6,-177.41C253.79,-168.45 145.08,-152.31 108.88,-129.75 70.97,-106.13 46.54,-57.5 35.22,-30.24"/>
<polygon fill="#63b8ff" stroke="#63b8ff" points="38.54,-29.12 31.61,-21.1 32.03,-31.69 38.54,-29.12"/>
</a>
</g>
</g>
<!-- Node5 -->
<g id="Node000005" class="node">
<title>Node5</title>
<g id="a_Node000005"><a xlink:href="../../d5/d40/Platform_8hpp.html" target="_top" xlink:title="ArkScript configuration macros.">
<polygon fill="white" stroke="#666666" points="173.62,-19.25 84.12,-19.25 84.12,0 173.62,0 173.62,-19.25"/>
<text text-anchor="middle" x="128.88" y="-5.75" font-family="Helvetica,sans-Serif" font-size="10.00">Ark/Platform.hpp</text>
</a>
</g>
</g>
<!-- Node1&#45;&gt;Node5 -->
<g id="edge4_Node000001_Node000005" class="edge">
<title>Node1&#45;&gt;Node5</title>
<g id="a_edge4_Node000001_Node000005"><a xlink:title=" ">
<path fill="none" stroke="#63b8ff" d="M330.6,-184.14C251.04,-177.82 133.63,-154.43 75.88,-74.5 63.3,-57.09 83.32,-38.31 102.26,-25.65"/>
<polygon fill="#63b8ff" stroke="#63b8ff" points="103.98,-28.7 110.6,-20.43 100.26,-22.77 103.98,-28.7"/>
</a>
</g>
</g>
<!-- Node6 -->
<g id="Node000006" class="node">
<title>Node6</title>
<g id="a_Node000006"><a xlink:href="../../de/dfd/Value_8hpp.html" target="_top" xlink:title="Default value type handled by the virtual machine.">
<polygon fill="white" stroke="#666666" points="459.25,-129.75 364.5,-129.75 364.5,-110.5 459.25,-110.5 459.25,-129.75"/>
<text text-anchor="middle" x="411.88" y="-116.25" font-family="Helvetica,sans-Serif" font-size="10.00">Ark/VM/Value.hpp</text>
</a>
</g>
</g>
<!-- Node1&#45;&gt;Node6 -->
<g id="edge5_Node000001_Node000006" class="edge">
<title>Node1&#45;&gt;Node6</title>
<g id="a_edge5_Node000001_Node000006"><a xlink:title=" ">
<path fill="none" stroke="#63b8ff" d="M411.88,-165.57C411.88,-157.9 411.88,-149.14 411.88,-141.45"/>
<polygon fill="#63b8ff" stroke="#63b8ff" points="415.38,-141.71 411.88,-131.71 408.38,-141.71 415.38,-141.71"/>
</a>
</g>
</g>
<!-- Node6&#45;&gt;Node2 -->
<g id="edge6_Node000006_Node000002" class="edge">
<title>Node6&#45;&gt;Node2</title>
<g id="a_edge6_Node000006_Node000002"><a xlink:title=" ">
<path fill="none" stroke="#63b8ff" d="M459.4,-112.68C505.84,-105.46 572.18,-92.37 590.88,-74.5 602.66,-63.24 607.22,-45.03 608.95,-30.93"/>
<polygon fill="#63b8ff" stroke="#63b8ff" points="612.44,-31.2 609.74,-20.96 605.46,-30.65 612.44,-31.2"/>
</a>
</g>
</g>
<!-- Node6&#45;&gt;Node4 -->
<g id="edge9_Node000006_Node000004" class="edge">
<title>Node6&#45;&gt;Node4</title>
<g id="a_edge9_Node000006_Node000004"><a xlink:title=" ">
<path fill="none" stroke="#63b8ff" d="M364.1,-117.29C283.29,-113.46 123.75,-102.5 75.88,-74.5 58.13,-64.12 44.84,-44.35 36.8,-29.54"/>
<polygon fill="#63b8ff" stroke="#63b8ff" points="40,-28.12 32.37,-20.77 33.75,-31.27 40,-28.12"/>
</a>
</g>
</g>
<!-- Node6&#45;&gt;Node5 -->
<g id="edge23_Node000006_Node000005" class="edge">
<title>Node6&#45;&gt;Node5</title>
<g id="a_edge23_Node000006_Node000005"><a xlink:title=" ">
<path fill="none" stroke="#63b8ff" d="M364.05,-119.94C282.17,-120.19 120.53,-115.35 84.88,-74.5 71.5,-59.18 89.22,-39.7 106,-26.31"/>
<polygon fill="#63b8ff" stroke="#63b8ff" points="107.9,-29.26 113.81,-20.46 103.71,-23.65 107.9,-29.26"/>
</a>
</g>
</g>
<!-- Node7 -->
<g id="Node000007" class="node">
<title>Node7</title>
<g id="a_Node000007"><a xlink:title=" ">
<polygon fill="#e0e0e0" stroke="#999999" points="683.5,-74.5 638.25,-74.5 638.25,-55.25 683.5,-55.25 683.5,-74.5"/>
<text text-anchor="middle" x="660.88" y="-61" font-family="Helvetica,sans-Serif" font-size="10.00">variant</text>
</a>
</g>
</g>
<!-- Node6&#45;&gt;Node7 -->
<g id="edge7_Node000006_Node000007" class="edge">
<title>Node6&#45;&gt;Node7</title>
<g id="a_edge7_Node000006_Node000007"><a xlink:title=" ">
<path fill="none" stroke="#63b8ff" d="M456.6,-110C499.55,-101.17 566.22,-87.29 623.88,-74.5 624.86,-74.28 625.86,-74.06 626.87,-73.83"/>
<polygon fill="#63b8ff" stroke="#63b8ff" points="627.35,-77.31 636.32,-71.67 625.8,-70.49 627.35,-77.31"/>
</a>
</g>
</g>
<!-- Node8 -->
<g id="Node000008" class="node">
<title>Node8</title>
<g id="a_Node000008"><a xlink:title=" ">
<polygon fill="#e0e0e0" stroke="#999999" points="416.88,-19.25 376.88,-19.25 376.88,0 416.88,0 416.88,-19.25"/>
<text text-anchor="middle" x="396.88" y="-5.75" font-family="Helvetica,sans-Serif" font-size="10.00">string</text>
</a>
</g>
</g>
<!-- Node6&#45;&gt;Node8 -->
<g id="edge8_Node000006_Node000008" class="edge">
<title>Node6&#45;&gt;Node8</title>
<g id="a_edge8_Node000006_Node000008"><a xlink:title=" ">
<path fill="none" stroke="#63b8ff" d="M410.65,-110.25C408.26,-93 402.95,-54.58 399.67,-30.81"/>
<polygon fill="#63b8ff" stroke="#63b8ff" points="403.16,-30.55 398.33,-21.13 396.23,-31.51 403.16,-30.55"/>
</a>
</g>
</g>
<!-- Node9 -->
<g id="Node000009" class="node">
<title>Node9</title>
<g id="a_Node000009"><a xlink:title=" ">
<polygon fill="#e0e0e0" stroke="#999999" points="739.75,-74.5 702,-74.5 702,-55.25 739.75,-55.25 739.75,-74.5"/>
<text text-anchor="middle" x="720.88" y="-61" font-family="Helvetica,sans-Serif" font-size="10.00">array</text>
</a>
</g>
</g>
<!-- Node6&#45;&gt;Node9 -->
<g id="edge10_Node000006_Node000009" class="edge">
<title>Node6&#45;&gt;Node9</title>
<g id="a_edge10_Node000006_Node000009"><a xlink:title=" ">
<path fill="none" stroke="#63b8ff" d="M459.5,-113.65C513.41,-106.99 603.98,-94.41 690.6,-74.74"/>
<polygon fill="#63b8ff" stroke="#63b8ff" points="691.26,-78.18 700.22,-72.52 689.69,-71.36 691.26,-78.18"/>
</a>
</g>
</g>
<!-- Node10 -->
<g id="Node000010" class="node">
<title>Node10</title>
<g id="a_Node000010"><a xlink:href="../../dc/dd5/Closure_8hpp.html" target="_top" xlink:title="Subtype of the value type, handling closures.">
<polygon fill="white" stroke="#666666" points="383.62,-74.5 252.12,-74.5 252.12,-55.25 383.62,-55.25 383.62,-74.5"/>
<text text-anchor="middle" x="317.88" y="-61" font-family="Helvetica,sans-Serif" font-size="10.00">Ark/VM/Value/Closure.hpp</text>
</a>
</g>
</g>
<!-- Node6&#45;&gt;Node10 -->
<g id="edge11_Node000006_Node000010" class="edge">
<title>Node6&#45;&gt;Node10</title>
<g id="a_edge11_Node000006_Node000010"><a xlink:title=" ">
<path fill="none" stroke="#63b8ff" d="M395.93,-110.09C381.61,-101.98 360.34,-89.93 343.62,-80.46"/>
<polygon fill="#63b8ff" stroke="#63b8ff" points="345.64,-77.58 335.22,-75.7 342.19,-83.67 345.64,-77.58"/>
</a>
</g>
</g>
<!-- Node13 -->
<g id="Node000013" class="node">
<title>Node13</title>
<g id="a_Node000013"><a xlink:href="../../dc/d3d/UserType_8hpp.html" target="_top" xlink:title="Subtype of the value, capable of handling any C++ type.">
<polygon fill="white" stroke="#666666" points="233.75,-74.5 94,-74.5 94,-55.25 233.75,-55.25 233.75,-74.5"/>
<text text-anchor="middle" x="163.88" y="-61" font-family="Helvetica,sans-Serif" font-size="10.00">Ark/VM/Value/UserType.hpp</text>
</a>
</g>
</g>
<!-- Node6&#45;&gt;Node13 -->
<g id="edge16_Node000006_Node000013" class="edge">
<title>Node6&#45;&gt;Node13</title>
<g id="a_edge16_Node000006_Node000013"><a xlink:title=" ">
<path fill="none" stroke="#63b8ff" d="M369.52,-110.03C327.44,-100.99 262.76,-87.11 217.2,-77.32"/>
<polygon fill="#63b8ff" stroke="#63b8ff" points="218.04,-73.93 207.53,-75.25 216.57,-80.77 218.04,-73.93"/>
</a>
</g>
</g>
<!-- Node14 -->
<g id="Node000014" class="node">
<title>Node14</title>
<g id="a_Node000014"><a xlink:href="../../da/dcf/Procedure_8hpp.html" target="_top" xlink:title="Wrapper object for user&#45;defined functions.">
<polygon fill="white" stroke="#666666" points="581.88,-74.5 439.88,-74.5 439.88,-55.25 581.88,-55.25 581.88,-74.5"/>
<text text-anchor="middle" x="510.88" y="-61" font-family="Helvetica,sans-Serif" font-size="10.00">Ark/VM/Value/Procedure.hpp</text>
</a>
</g>
</g>
<!-- Node6&#45;&gt;Node14 -->
<g id="edge20_Node000006_Node000014" class="edge">
<title>Node6&#45;&gt;Node14</title>
<g id="a_edge20_Node000006_Node000014"><a xlink:title=" ">
<path fill="none" stroke="#63b8ff" d="M428.67,-110.09C443.89,-101.91 466.57,-89.71 484.26,-80.19"/>
<polygon fill="#63b8ff" stroke="#63b8ff" points="485.52,-83.49 492.67,-75.67 482.2,-77.32 485.52,-83.49"/>
</a>
</g>
</g>
<!-- Node10&#45;&gt;Node5 -->
<g id="edge15_Node000010_Node000005" class="edge">
<title>Node10&#45;&gt;Node5</title>
<g id="a_edge15_Node000010_Node000005"><a xlink:title=" ">
<path fill="none" stroke="#63b8ff" d="M285.81,-54.84C254.45,-46.01 206.49,-32.49 171.84,-22.73"/>
<polygon fill="#63b8ff" stroke="#63b8ff" points="173.12,-19.46 162.55,-20.11 171.23,-26.19 173.12,-19.46"/>
</a>
</g>
</g>
<!-- Node10&#45;&gt;Node8 -->
<g id="edge14_Node000010_Node000008" class="edge">
<title>Node10&#45;&gt;Node8</title>
<g id="a_edge14_Node000010_Node000008"><a xlink:title=" ">
<path fill="none" stroke="#63b8ff" d="M331.28,-54.84C342.97,-46.96 360.18,-35.36 374.04,-26.02"/>
<polygon fill="#63b8ff" stroke="#63b8ff" points="375.82,-29.04 382.15,-20.55 371.9,-23.24 375.82,-29.04"/>
</a>
</g>
</g>
<!-- Node11 -->
<g id="Node000011" class="node">
<title>Node11</title>
<g id="a_Node000011"><a xlink:title=" ">
<polygon fill="#e0e0e0" stroke="#999999" points="343.5,-19.25 292.25,-19.25 292.25,0 343.5,0 343.5,-19.25"/>
<text text-anchor="middle" x="317.88" y="-5.75" font-family="Helvetica,sans-Serif" font-size="10.00">memory</text>
</a>
</g>
</g>
<!-- Node10&#45;&gt;Node11 -->
<g id="edge12_Node000010_Node000011" class="edge">
<title>Node10&#45;&gt;Node11</title>
<g id="a_edge12_Node000010_Node000011"><a xlink:title=" ">
<path fill="none" stroke="#63b8ff" d="M317.88,-55.08C317.88,-48.57 317.88,-39.42 317.88,-31.12"/>
<polygon fill="#63b8ff" stroke="#63b8ff" points="321.38,-31.12 317.88,-21.12 314.38,-31.12 321.38,-31.12"/>
</a>
</g>
</g>
<!-- Node12 -->
<g id="Node000012" class="node">
<title>Node12</title>
<g id="a_Node000012"><a xlink:title=" ">
<polygon fill="#e0e0e0" stroke="#999999" points="264.62,-19.25 211.12,-19.25 211.12,0 264.62,0 264.62,-19.25"/>
<text text-anchor="middle" x="237.88" y="-5.75" font-family="Helvetica,sans-Serif" font-size="10.00">iostream</text>
</a>
</g>
</g>
<!-- Node10&#45;&gt;Node12 -->
<g id="edge13_Node000010_Node000012" class="edge">
<title>Node10&#45;&gt;Node12</title>
<g id="a_edge13_Node000010_Node000012"><a xlink:title=" ">
<path fill="none" stroke="#63b8ff" d="M304.3,-54.84C292.47,-46.96 275.04,-35.36 261,-26.02"/>
<polygon fill="#63b8ff" stroke="#63b8ff" points="263.04,-23.17 252.77,-20.54 259.16,-29 263.04,-23.17"/>
</a>
</g>
</g>
<!-- Node13&#45;&gt;Node4 -->
<g id="edge18_Node000013_Node000004" class="edge">
<title>Node13&#45;&gt;Node4</title>
<g id="a_edge18_Node000013_Node000004"><a xlink:title=" ">
<path fill="none" stroke="#63b8ff" d="M140.8,-54.84C119.12,-46.35 86.39,-33.54 61.75,-23.89"/>
<polygon fill="#63b8ff" stroke="#63b8ff" points="63.06,-20.64 52.47,-20.25 60.5,-27.16 63.06,-20.64"/>
</a>
</g>
</g>
<!-- Node13&#45;&gt;Node5 -->
<g id="edge19_Node000013_Node000005" class="edge">
<title>Node13&#45;&gt;Node5</title>
<g id="a_edge19_Node000013_Node000005"><a xlink:title=" ">
<path fill="none" stroke="#63b8ff" d="M158.1,-55.08C153.46,-48.03 146.8,-37.9 141.01,-29.08"/>
<polygon fill="#63b8ff" stroke="#63b8ff" points="144.03,-27.31 135.61,-20.87 138.18,-31.15 144.03,-27.31"/>
</a>
</g>
</g>
<!-- Node13&#45;&gt;Node12 -->
<g id="edge17_Node000013_Node000012" class="edge">
<title>Node13&#45;&gt;Node12</title>
<g id="a_edge17_Node000013_Node000012"><a xlink:title=" ">
<path fill="none" stroke="#63b8ff" d="M176.43,-54.84C187.34,-46.99 203.38,-35.45 216.34,-26.12"/>
<polygon fill="#63b8ff" stroke="#63b8ff" points="218.21,-29.09 224.28,-20.41 214.12,-23.41 218.21,-29.09"/>
</a>
</g>
</g>
<!-- Node14&#45;&gt;Node2 -->
<g id="edge22_Node000014_Node000002" class="edge">
<title>Node14&#45;&gt;Node2</title>
<g id="a_edge22_Node000014_Node000002"><a xlink:title=" ">
<path fill="none" stroke="#63b8ff" d="M527.67,-54.84C542.89,-46.66 565.57,-34.46 583.26,-24.94"/>
<polygon fill="#63b8ff" stroke="#63b8ff" points="584.52,-28.24 591.67,-20.42 581.2,-22.07 584.52,-28.24"/>
</a>
</g>
</g>
<!-- Node15 -->
<g id="Node000015" class="node">
<title>Node15</title>
<g id="a_Node000015"><a xlink:title=" ">
<polygon fill="#e0e0e0" stroke="#999999" points="539.88,-19.25 481.88,-19.25 481.88,0 539.88,0 539.88,-19.25"/>
<text text-anchor="middle" x="510.88" y="-5.75" font-family="Helvetica,sans-Serif" font-size="10.00">functional</text>
</a>
</g>
</g>
<!-- Node14&#45;&gt;Node15 -->
<g id="edge21_Node000014_Node000015" class="edge">
<title>Node14&#45;&gt;Node15</title>
<g id="a_edge21_Node000014_Node000015"><a xlink:title=" ">
<path fill="none" stroke="#63b8ff" d="M510.88,-55.08C510.88,-48.57 510.88,-39.42 510.88,-31.12"/>
<polygon fill="#63b8ff" stroke="#63b8ff" points="514.38,-31.12 510.88,-21.12 507.38,-31.12 514.38,-31.12"/>
</a>
</g>
</g>
</g>
</svg>
