<?xml version="1.0" encoding="UTF-8" standalone="no"?>
<!DOCTYPE svg PUBLIC "-//W3C//DTD SVG 1.1//EN"
 "http://www.w3.org/Graphics/SVG/1.1/DTD/svg11.dtd">
<!-- Generated by graphviz version 12.2.0 (20241103.1931)
 -->
<!-- Title: /Users/fola/Documents/ArkScript/Ark/include/Ark/Compiler/NameResolution/NameResolutionPass.hpp Pages: 1 -->
<!--zoomable 305 -->

<svg id="main" version="1.1" xmlns="http://www.w3.org/2000/svg" xmlns:xlink="http://www.w3.org/1999/xlink" xml:space="preserve" onload="init(evt)">

<style type="text/css"><![CDATA[
.node, .edge {opacity: 0.7;}
.node.selected, .edge.selected {opacity: 1;}
.edge:hover path { stroke: red; }
.edge:hover polygon { stroke: red; fill: red; }
]]></style>

<defs>
  <circle id="rim" cx="0" cy="0" r="7"/>
  <circle id="rim2" cx="0" cy="0" r="3.5"/>
  <g id="zoomPlus">
    <use xlink:href="#rim" fill="#404040"><set attributeName="fill" to="#808080" begin="zoomplus.mouseover" end="zoomplus.mouseout"/></use>
    <path d="M-4,0h8M0,-4v8" fill="none" stroke="white" stroke-width="1.5" pointer-events="none"/>
  </g>
  <g id="zoomMin">
    <use xlink:href="#rim" fill="#404040"><set attributeName="fill" to="#808080" begin="zoomminus.mouseover" end="zoomminus.mouseout"/></use>
    <path d="M-4,0h8" fill="none" stroke="white" stroke-width="1.5" pointer-events="none"/>
  </g>
  <g id="arrowUp" transform="translate(30 24)">
    <use xlink:href="#rim"/>
    <path pointer-events="none" fill="none" stroke="white" stroke-width="1.5" d="M0,-3.0v7 M-2.5,-0.5L0,-3.0L2.5,-0.5"/>
  </g>
  <g id="arrowRight" transform="rotate(90) translate(36 -43)">
    <use xlink:href="#rim"/>
    <path pointer-events="none" fill="none" stroke="white" stroke-width="1.5" d="M0,-3.0v7 M-2.5,-0.5L0,-3.0L2.5,-0.5"/>
  </g>
  <g id="arrowDown" transform="rotate(180) translate(-30 -48)">
    <use xlink:href="#rim"/>
    <path pointer-events="none" fill="none" stroke="white" stroke-width="1.5" d="M0,-3.0v7 M-2.5,-0.5L0,-3.0L2.5,-0.5"/>
  </g>
  <g id="arrowLeft" transform="rotate(270) translate(-36 17)">
    <use xlink:href="#rim"/>
    <path pointer-events="none" fill="none" stroke="white" stroke-width="1.5" d="M0,-3.0v7 M-2.5,-0.5L0,-3.0L2.5,-0.5"/>
  </g>
  <g id="resetDef">
    <use xlink:href="#rim2" fill="#404040"><set attributeName="fill" to="#808080" begin="reset.mouseover" end="reset.mouseout"/></use>
  </g>
</defs>
<script type="application/ecmascript">
var viewWidth = 1815;
var viewHeight = 305;
var sectionId = 'dynsection-0';
</script>
<script type="application/ecmascript" xlink:href="../../svg.min.js"/>
<svg id="graph" class="graph">
<g id="viewport">
<title>/Users/fola/Documents/ArkScript/Ark/include/Ark/Compiler/NameResolution/NameResolutionPass.hpp</title>
<!-- Node1 -->
<g id="Node000001" class="node">
<title>Node1</title>
<g id="a_Node000001"><a xlink:title="Resolves names and fully qualify them in the AST (prefixing them with the package they are from)">
<polygon fill="#999999" stroke="#666666" points="767.62,-296.5 615.88,-296.5 615.88,-243.5 767.62,-243.5 767.62,-296.5"/>
<text text-anchor="start" x="623.88" y="-283" font-family="Helvetica,sans-Serif" font-size="10.00">/Users/fola/Documents</text>
<text text-anchor="start" x="623.88" y="-271.75" font-family="Helvetica,sans-Serif" font-size="10.00">/ArkScript/Ark/include</text>
<text text-anchor="start" x="623.88" y="-260.5" font-family="Helvetica,sans-Serif" font-size="10.00">/Ark/Compiler/NameResolution</text>
<text text-anchor="middle" x="691.75" y="-249.25" font-family="Helvetica,sans-Serif" font-size="10.00">/NameResolutionPass.hpp</text>
</a>
</g>
</g>
<!-- Node2 -->
<g id="Node000002" class="node">
<title>Node2</title>
<g id="a_Node000002"><a xlink:title=" ">
<polygon fill="#e0e0e0" stroke="#999999" points="713.25,-74.5 670.25,-74.5 670.25,-55.25 713.25,-55.25 713.25,-74.5"/>
<text text-anchor="middle" x="691.75" y="-61" font-family="Helvetica,sans-Serif" font-size="10.00">vector</text>
</a>
</g>
</g>
<!-- Node1&#45;&gt;Node2 -->
<g id="edge1_Node000001_Node000002" class="edge">
<title>Node1&#45;&gt;Node2</title>
<g id="a_edge1_Node000001_Node000002"><a xlink:title=" ">
<path fill="none" stroke="#63b8ff" d="M691.75,-243.27C691.75,-202.4 691.75,-123.46 691.75,-86.24"/>
<polygon fill="#63b8ff" stroke="#63b8ff" points="695.25,-86.46 691.75,-76.46 688.25,-86.46 695.25,-86.46"/>
</a>
</g>
</g>
<!-- Node3 -->
<g id="Node000003" class="node">
<title>Node3</title>
<g id="a_Node000003"><a xlink:title=" ">
<polygon fill="#e0e0e0" stroke="#999999" points="484.75,-74.5 444.75,-74.5 444.75,-55.25 484.75,-55.25 484.75,-74.5"/>
<text text-anchor="middle" x="464.75" y="-61" font-family="Helvetica,sans-Serif" font-size="10.00">string</text>
</a>
</g>
</g>
<!-- Node1&#45;&gt;Node3 -->
<g id="edge2_Node000001_Node000003" class="edge">
<title>Node1&#45;&gt;Node3</title>
<g id="a_edge2_Node000001_Node000003"><a xlink:title=" ">
<path fill="none" stroke="#63b8ff" d="M615.62,-251.78C558.15,-234.36 483.18,-201.13 446.75,-141 436.25,-123.66 444.42,-100.62 452.87,-84.64"/>
<polygon fill="#63b8ff" stroke="#63b8ff" points="455.79,-86.58 457.79,-76.18 449.74,-83.07 455.79,-86.58"/>
</a>
</g>
</g>
<!-- Node4 -->
<g id="Node000004" class="node">
<title>Node4</title>
<g id="a_Node000004"><a xlink:title=" ">
<polygon fill="#e0e0e0" stroke="#999999" points="77.5,-74.5 0,-74.5 0,-55.25 77.5,-55.25 77.5,-74.5"/>
<text text-anchor="middle" x="38.75" y="-61" font-family="Helvetica,sans-Serif" font-size="10.00">unordered_set</text>
</a>
</g>
</g>
<!-- Node1&#45;&gt;Node4 -->
<g id="edge3_Node000001_Node000004" class="edge">
<title>Node1&#45;&gt;Node4</title>
<g id="a_edge3_Node000001_Node000004"><a xlink:title=" ">
<path fill="none" stroke="#63b8ff" d="M615.64,-266.59C518.55,-261.88 346.27,-248.06 204.75,-207.5 136.98,-188.08 106.78,-194.39 60.75,-141 47.46,-125.58 42.19,-102.48 40.1,-85.97"/>
<polygon fill="#63b8ff" stroke="#63b8ff" points="43.62,-86 39.19,-76.37 36.65,-86.66 43.62,-86"/>
</a>
</g>
</g>
<!-- Node5 -->
<g id="Node000005" class="node">
<title>Node5</title>
<g id="a_Node000005"><a xlink:href="../../d5/d40/Platform_8hpp.html" target="_top" xlink:title="ArkScript configuration macros.">
<polygon fill="white" stroke="#666666" points="1208.12,-74.5 1095.38,-74.5 1095.38,-55.25 1208.12,-55.25 1208.12,-74.5"/>
<text text-anchor="middle" x="1151.75" y="-61" font-family="Helvetica,sans-Serif" font-size="10.00">Ark/Utils/Platform.hpp</text>
</a>
</g>
</g>
<!-- Node1&#45;&gt;Node5 -->
<g id="edge4_Node000001_Node000005" class="edge">
<title>Node1&#45;&gt;Node5</title>
<g id="a_edge4_Node000001_Node000005"><a xlink:title=" ">
<path fill="none" stroke="#63b8ff" d="M767.74,-259.29C886.85,-242.31 1108.7,-203.02 1154.75,-141 1166.52,-125.15 1163.33,-101.79 1158.75,-85.34"/>
<polygon fill="#63b8ff" stroke="#63b8ff" points="1162.22,-84.68 1155.83,-76.23 1155.55,-86.82 1162.22,-84.68"/>
</a>
</g>
</g>
<!-- Node6 -->
<g id="Node000006" class="node">
<title>Node6</title>
<g id="a_Node000006"><a xlink:href="../../df/d5f/Pass_8hpp.html" target="_top" xlink:title="Interface for a compiler pass.">
<polygon fill="white" stroke="#666666" points="1345.38,-201.88 1228.12,-201.88 1228.12,-182.62 1345.38,-182.62 1345.38,-201.88"/>
<text text-anchor="middle" x="1286.75" y="-188.38" font-family="Helvetica,sans-Serif" font-size="10.00">Ark/Compiler/Pass.hpp</text>
</a>
</g>
</g>
<!-- Node1&#45;&gt;Node6 -->
<g id="edge5_Node000001_Node000006" class="edge">
<title>Node1&#45;&gt;Node6</title>
<g id="a_edge5_Node000001_Node000006"><a xlink:title=" ">
<path fill="none" stroke="#63b8ff" d="M767.81,-261.08C867.95,-250.37 1049.38,-230.01 1203.75,-207.5 1210.68,-206.49 1217.92,-205.36 1225.12,-204.19"/>
<polygon fill="#63b8ff" stroke="#63b8ff" points="1225.55,-207.66 1234.85,-202.57 1224.41,-200.76 1225.55,-207.66"/>
</a>
</g>
</g>
<!-- Node16 -->
<g id="Node000016" class="node">
<title>Node16</title>
<g id="a_Node000016"><a xlink:href="../../d7/dc6/Node_8hpp.html" target="_top" xlink:title="AST node used by the parser, optimizer and compiler.">
<polygon fill="white" stroke="#666666" points="926,-201.88 785.5,-201.88 785.5,-182.62 926,-182.62 926,-201.88"/>
<text text-anchor="middle" x="855.75" y="-188.38" font-family="Helvetica,sans-Serif" font-size="10.00">Ark/Compiler/AST/Node.hpp</text>
</a>
</g>
</g>
<!-- Node1&#45;&gt;Node16 -->
<g id="edge19_Node000001_Node000016" class="edge">
<title>Node1&#45;&gt;Node16</title>
<g id="a_edge19_Node000001_Node000016"><a xlink:title=" ">
<path fill="none" stroke="#63b8ff" d="M747.73,-243.14C773.93,-231.04 804.07,-217.12 825.85,-207.06"/>
<polygon fill="#63b8ff" stroke="#63b8ff" points="827.13,-210.32 834.74,-202.95 824.19,-203.97 827.13,-210.32"/>
</a>
</g>
</g>
<!-- Node29 -->
<g id="Node000029" class="node">
<title>Node29</title>
<g id="a_Node000029"><a xlink:href="../../db/d5b/ScopeResolver_8hpp.html" target="_top" xlink:title="Handle scope resolution at compile time.">
<polygon fill="white" stroke="#666666" points="362.12,-207.5 213.38,-207.5 213.38,-177 362.12,-177 362.12,-207.5"/>
<text text-anchor="start" x="221.38" y="-194" font-family="Helvetica,sans-Serif" font-size="10.00">Ark/Compiler/NameResolution</text>
<text text-anchor="middle" x="287.75" y="-182.75" font-family="Helvetica,sans-Serif" font-size="10.00">/ScopeResolver.hpp</text>
</a>
</g>
</g>
<!-- Node1&#45;&gt;Node29 -->
<g id="edge43_Node000001_Node000029" class="edge">
<title>Node1&#45;&gt;Node29</title>
<g id="a_edge43_Node000001_Node000029"><a xlink:title=" ">
<path fill="none" stroke="#63b8ff" d="M615.76,-254.75C546.87,-241.84 445.44,-222.82 373.63,-209.35"/>
<polygon fill="#63b8ff" stroke="#63b8ff" points="374.34,-205.92 363.86,-207.52 373.05,-212.8 374.34,-205.92"/>
</a>
</g>
</g>
<!-- Node6&#45;&gt;Node5 -->
<g id="edge6_Node000006_Node000005" class="edge">
<title>Node6&#45;&gt;Node5</title>
<g id="a_edge6_Node000006_Node000005"><a xlink:title=" ">
<path fill="none" stroke="#63b8ff" d="M1288.68,-182.37C1291.64,-166.2 1295.37,-131.66 1278.75,-110.5 1268.95,-98.02 1233.8,-86.22 1202.96,-77.89"/>
<polygon fill="#63b8ff" stroke="#63b8ff" points="1203.87,-74.51 1193.31,-75.37 1202.1,-81.29 1203.87,-74.51"/>
</a>
</g>
</g>
<!-- Node7 -->
<g id="Node000007" class="node">
<title>Node7</title>
<g id="a_Node000007"><a xlink:href="../../d9/d11/Logger_8hpp.html" target="_top" xlink:title="Internal logger.">
<polygon fill="white" stroke="#666666" points="1430,-135.38 1325.5,-135.38 1325.5,-116.12 1430,-116.12 1430,-135.38"/>
<text text-anchor="middle" x="1377.75" y="-121.88" font-family="Helvetica,sans-Serif" font-size="10.00">Ark/Utils/Logger.hpp</text>
</a>
</g>
</g>
<!-- Node6&#45;&gt;Node7 -->
<g id="edge7_Node000006_Node000007" class="edge">
<title>Node6&#45;&gt;Node7</title>
<g id="a_edge7_Node000006_Node000007"><a xlink:title=" ">
<path fill="none" stroke="#63b8ff" d="M1299.4,-182.28C1313.99,-171.94 1338.22,-154.77 1355.88,-142.25"/>
<polygon fill="#63b8ff" stroke="#63b8ff" points="1357.54,-145.36 1363.68,-136.73 1353.49,-139.65 1357.54,-145.36"/>
</a>
</g>
</g>
<!-- Node15 -->
<g id="Node000015" class="node">
<title>Node15</title>
<g id="a_Node000015"><a xlink:title=" ">
<polygon fill="#e0e0e0" stroke="#999999" points="1269.38,-135.38 1218.12,-135.38 1218.12,-116.12 1269.38,-116.12 1269.38,-135.38"/>
<text text-anchor="middle" x="1243.75" y="-121.88" font-family="Helvetica,sans-Serif" font-size="10.00">ostream</text>
</a>
</g>
</g>
<!-- Node6&#45;&gt;Node15 -->
<g id="edge18_Node000006_Node000015" class="edge">
<title>Node6&#45;&gt;Node15</title>
<g id="a_edge18_Node000006_Node000015"><a xlink:title=" ">
<path fill="none" stroke="#63b8ff" d="M1280.77,-182.28C1274.35,-172.65 1263.98,-157.1 1255.85,-144.9"/>
<polygon fill="#63b8ff" stroke="#63b8ff" points="1258.98,-143.28 1250.52,-136.9 1253.15,-147.16 1258.98,-143.28"/>
</a>
</g>
</g>
<!-- Node7&#45;&gt;Node2 -->
<g id="edge15_Node000007_Node000002" class="edge">
<title>Node7&#45;&gt;Node2</title>
<g id="a_edge15_Node000007_Node000002"><a xlink:title=" ">
<path fill="none" stroke="#63b8ff" d="M1325.17,-116.51C1310.2,-114.35 1293.85,-112.16 1278.75,-110.5 1068.47,-87.4 814.49,-72.48 724.94,-67.62"/>
<polygon fill="#63b8ff" stroke="#63b8ff" points="725.34,-64.13 715.16,-67.09 724.96,-71.12 725.34,-64.13"/>
</a>
</g>
</g>
<!-- Node7&#45;&gt;Node3 -->
<g id="edge12_Node000007_Node000003" class="edge">
<title>Node7&#45;&gt;Node3</title>
<g id="a_edge12_Node000007_Node000003"><a xlink:title=" ">
<path fill="none" stroke="#63b8ff" d="M1325.19,-116.31C1310.22,-114.14 1293.87,-112 1278.75,-110.5 1122.7,-95.02 626.87,-72.9 496.44,-67.24"/>
<polygon fill="#63b8ff" stroke="#63b8ff" points="496.63,-63.74 486.49,-66.81 496.33,-70.74 496.63,-63.74"/>
</a>
</g>
</g>
<!-- Node7&#45;&gt;Node5 -->
<g id="edge17_Node000007_Node000005" class="edge">
<title>Node7&#45;&gt;Node5</title>
<g id="a_edge17_Node000007_Node000005"><a xlink:title=" ">
<path fill="none" stroke="#63b8ff" d="M1342.93,-115.68C1303.95,-105.52 1240.61,-89.02 1197.61,-77.82"/>
<polygon fill="#63b8ff" stroke="#63b8ff" points="1198.63,-74.47 1188.07,-75.34 1196.87,-81.25 1198.63,-74.47"/>
</a>
</g>
</g>
<!-- Node8 -->
<g id="Node000008" class="node">
<title>Node8</title>
<g id="a_Node000008"><a xlink:title=" ">
<polygon fill="#e0e0e0" stroke="#999999" points="1720.5,-74.5 1667,-74.5 1667,-55.25 1720.5,-55.25 1720.5,-74.5"/>
<text text-anchor="middle" x="1693.75" y="-61" font-family="Helvetica,sans-Serif" font-size="10.00">iostream</text>
</a>
</g>
</g>
<!-- Node7&#45;&gt;Node8 -->
<g id="edge8_Node000007_Node000008" class="edge">
<title>Node7&#45;&gt;Node8</title>
<g id="a_edge8_Node000007_Node000008"><a xlink:title=" ">
<path fill="none" stroke="#63b8ff" d="M1430.3,-116.25C1484.34,-107.3 1571.16,-92.34 1655.58,-74.86"/>
<polygon fill="#63b8ff" stroke="#63b8ff" points="1656.11,-78.32 1665.18,-72.85 1654.67,-71.47 1656.11,-78.32"/>
</a>
</g>
</g>
<!-- Node9 -->
<g id="Node000009" class="node">
<title>Node9</title>
<g id="a_Node000009"><a xlink:title=" ">
<polygon fill="#e0e0e0" stroke="#999999" points="1807.38,-74.5 1738.12,-74.5 1738.12,-55.25 1807.38,-55.25 1807.38,-74.5"/>
<text text-anchor="middle" x="1772.75" y="-61" font-family="Helvetica,sans-Serif" font-size="10.00">fmt/format.h</text>
</a>
</g>
</g>
<!-- Node7&#45;&gt;Node9 -->
<g id="edge9_Node000007_Node000009" class="edge">
<title>Node7&#45;&gt;Node9</title>
<g id="a_edge9_Node000007_Node000009"><a xlink:title=" ">
<path fill="none" stroke="#63b8ff" d="M1430.37,-118.18C1497.09,-109.63 1615.91,-93.73 1726.98,-74.9"/>
<polygon fill="#63b8ff" stroke="#63b8ff" points="1727.29,-78.4 1736.56,-73.26 1726.11,-71.5 1727.29,-78.4"/>
</a>
</g>
</g>
<!-- Node10 -->
<g id="Node000010" class="node">
<title>Node10</title>
<g id="a_Node000010"><a xlink:title=" ">
<polygon fill="#e0e0e0" stroke="#999999" points="1287.62,-74.5 1225.88,-74.5 1225.88,-55.25 1287.62,-55.25 1287.62,-74.5"/>
<text text-anchor="middle" x="1256.75" y="-61" font-family="Helvetica,sans-Serif" font-size="10.00">fmt/color.h</text>
</a>
</g>
</g>
<!-- Node7&#45;&gt;Node10 -->
<g id="edge10_Node000007_Node000010" class="edge">
<title>Node7&#45;&gt;Node10</title>
<g id="a_edge10_Node000007_Node000010"><a xlink:title=" ">
<path fill="none" stroke="#63b8ff" d="M1359.11,-115.68C1339.42,-106.1 1308.14,-90.88 1285.33,-79.78"/>
<polygon fill="#63b8ff" stroke="#63b8ff" points="1287.1,-76.75 1276.57,-75.52 1284.04,-83.04 1287.1,-76.75"/>
</a>
</g>
</g>
<!-- Node11 -->
<g id="Node000011" class="node">
<title>Node11</title>
<g id="a_Node000011"><a xlink:title=" ">
<polygon fill="#e0e0e0" stroke="#999999" points="1382.12,-74.5 1305.38,-74.5 1305.38,-55.25 1382.12,-55.25 1382.12,-74.5"/>
<text text-anchor="middle" x="1343.75" y="-61" font-family="Helvetica,sans-Serif" font-size="10.00">fmt/ostream.h</text>
</a>
</g>
</g>
<!-- Node7&#45;&gt;Node11 -->
<g id="edge11_Node000007_Node000011" class="edge">
<title>Node7&#45;&gt;Node11</title>
<g id="a_edge11_Node000007_Node000011"><a xlink:title=" ">
<path fill="none" stroke="#63b8ff" d="M1372.59,-115.81C1367.84,-107.6 1360.66,-95.16 1354.65,-84.75"/>
<polygon fill="#63b8ff" stroke="#63b8ff" points="1357.75,-83.12 1349.72,-76.21 1351.69,-86.62 1357.75,-83.12"/>
</a>
</g>
</g>
<!-- Node12 -->
<g id="Node000012" class="node">
<title>Node12</title>
<g id="a_Node000012"><a xlink:title=" ">
<polygon fill="#e0e0e0" stroke="#999999" points="1445.38,-74.5 1400.12,-74.5 1400.12,-55.25 1445.38,-55.25 1445.38,-74.5"/>
<text text-anchor="middle" x="1422.75" y="-61" font-family="Helvetica,sans-Serif" font-size="10.00">chrono</text>
</a>
</g>
</g>
<!-- Node7&#45;&gt;Node12 -->
<g id="edge13_Node000007_Node000012" class="edge">
<title>Node7&#45;&gt;Node12</title>
<g id="a_edge13_Node000007_Node000012"><a xlink:title=" ">
<path fill="none" stroke="#63b8ff" d="M1384.58,-115.81C1391.06,-107.34 1400.97,-94.37 1409.07,-83.77"/>
<polygon fill="#63b8ff" stroke="#63b8ff" points="1411.64,-86.17 1414.93,-76.1 1406.08,-81.92 1411.64,-86.17"/>
</a>
</g>
</g>
<!-- Node13 -->
<g id="Node000013" class="node">
<title>Node13</title>
<g id="a_Node000013"><a xlink:title=" ">
<polygon fill="#e0e0e0" stroke="#999999" points="1547.88,-74.5 1463.62,-74.5 1463.62,-55.25 1547.88,-55.25 1547.88,-74.5"/>
<text text-anchor="middle" x="1505.75" y="-61" font-family="Helvetica,sans-Serif" font-size="10.00">source_location</text>
</a>
</g>
</g>
<!-- Node7&#45;&gt;Node13 -->
<g id="edge14_Node000007_Node000013" class="edge">
<title>Node7&#45;&gt;Node13</title>
<g id="a_edge14_Node000007_Node000013"><a xlink:title=" ">
<path fill="none" stroke="#63b8ff" d="M1397.47,-115.68C1418.39,-106.06 1451.69,-90.74 1475.84,-79.63"/>
<polygon fill="#63b8ff" stroke="#63b8ff" points="1477.22,-82.85 1484.84,-75.49 1474.3,-76.49 1477.22,-82.85"/>
</a>
</g>
</g>
<!-- Node14 -->
<g id="Node000014" class="node">
<title>Node14</title>
<g id="a_Node000014"><a xlink:title=" ">
<polygon fill="#e0e0e0" stroke="#999999" points="1649.12,-74.5 1566.38,-74.5 1566.38,-55.25 1649.12,-55.25 1649.12,-74.5"/>
<text text-anchor="middle" x="1607.75" y="-61" font-family="Helvetica,sans-Serif" font-size="10.00">unordered_map</text>
</a>
</g>
</g>
<!-- Node7&#45;&gt;Node14 -->
<g id="edge16_Node000007_Node000014" class="edge">
<title>Node7&#45;&gt;Node14</title>
<g id="a_edge16_Node000007_Node000014"><a xlink:title=" ">
<path fill="none" stroke="#63b8ff" d="M1413.18,-115.68C1452.94,-105.5 1517.59,-88.95 1561.35,-77.75"/>
<polygon fill="#63b8ff" stroke="#63b8ff" points="1561.99,-81.2 1570.81,-75.33 1560.25,-74.42 1561.99,-81.2"/>
</a>
</g>
</g>
<!-- Node16&#45;&gt;Node2 -->
<g id="edge23_Node000016_Node000002" class="edge">
<title>Node16&#45;&gt;Node2</title>
<g id="a_edge23_Node000016_Node000002"><a xlink:title=" ">
<path fill="none" stroke="#63b8ff" d="M862.97,-182.25C874.93,-166.19 895.91,-132.24 878.75,-110.5 859.93,-86.66 773.36,-74.16 724.88,-68.93"/>
<polygon fill="#63b8ff" stroke="#63b8ff" points="725.54,-65.48 715.23,-67.94 724.82,-72.44 725.54,-65.48"/>
</a>
</g>
</g>
<!-- Node16&#45;&gt;Node3 -->
<g id="edge22_Node000016_Node000003" class="edge">
<title>Node16&#45;&gt;Node3</title>
<g id="a_edge22_Node000016_Node000003"><a xlink:title=" ">
<path fill="none" stroke="#63b8ff" d="M833.08,-182.17C793.32,-166.42 708.23,-133.51 634.75,-110.5 586.95,-95.53 530.56,-81.41 496.24,-73.21"/>
<polygon fill="#63b8ff" stroke="#63b8ff" points="497.08,-69.81 486.55,-70.91 495.47,-76.62 497.08,-69.81"/>
</a>
</g>
</g>
<!-- Node16&#45;&gt;Node5 -->
<g id="edge39_Node000016_Node000005" class="edge">
<title>Node16&#45;&gt;Node5</title>
<g id="a_edge39_Node000016_Node000005"><a xlink:title=" ">
<path fill="none" stroke="#63b8ff" d="M926.34,-187.02C998.34,-181.25 1103.5,-168.31 1132.75,-141 1147.64,-127.1 1151.56,-103.36 1152.28,-86.29"/>
<polygon fill="#63b8ff" stroke="#63b8ff" points="1155.78,-86.33 1152.33,-76.31 1148.78,-86.3 1155.78,-86.33"/>
</a>
</g>
</g>
<!-- Node16&#45;&gt;Node15 -->
<g id="edge21_Node000016_Node000015" class="edge">
<title>Node16&#45;&gt;Node15</title>
<g id="a_edge21_Node000016_Node000015"><a xlink:title=" ">
<path fill="none" stroke="#63b8ff" d="M914.09,-182.15C976.44,-172.34 1078.17,-156.1 1165.75,-141 1179.04,-138.71 1193.59,-136.08 1206.48,-133.72"/>
<polygon fill="#63b8ff" stroke="#63b8ff" points="1207.09,-137.16 1216.28,-131.9 1205.82,-130.28 1207.09,-137.16"/>
</a>
</g>
</g>
<!-- Node17 -->
<g id="Node000017" class="node">
<title>Node17</title>
<g id="a_Node000017"><a xlink:title=" ">
<polygon fill="#e0e0e0" stroke="#999999" points="971.38,-135.38 926.12,-135.38 926.12,-116.12 971.38,-116.12 971.38,-135.38"/>
<text text-anchor="middle" x="948.75" y="-121.88" font-family="Helvetica,sans-Serif" font-size="10.00">variant</text>
</a>
</g>
</g>
<!-- Node16&#45;&gt;Node17 -->
<g id="edge20_Node000016_Node000017" class="edge">
<title>Node16&#45;&gt;Node17</title>
<g id="a_edge20_Node000016_Node000017"><a xlink:title=" ">
<path fill="none" stroke="#63b8ff" d="M868.68,-182.28C883.59,-171.94 908.35,-154.77 926.4,-142.25"/>
<polygon fill="#63b8ff" stroke="#63b8ff" points="928.16,-145.29 934.39,-136.71 924.17,-139.54 928.16,-145.29"/>
</a>
</g>
</g>
<!-- Node18 -->
<g id="Node000018" class="node">
<title>Node18</title>
<g id="a_Node000018"><a xlink:title=" ">
<polygon fill="#e0e0e0" stroke="#999999" points="298.62,-74.5 248.88,-74.5 248.88,-55.25 298.62,-55.25 298.62,-74.5"/>
<text text-anchor="middle" x="273.75" y="-61" font-family="Helvetica,sans-Serif" font-size="10.00">optional</text>
</a>
</g>
</g>
<!-- Node16&#45;&gt;Node18 -->
<g id="edge24_Node000016_Node000018" class="edge">
<title>Node16&#45;&gt;Node18</title>
<g id="a_edge24_Node000016_Node000018"><a xlink:title=" ">
<path fill="none" stroke="#63b8ff" d="M785.1,-188.72C702.62,-184.36 562.71,-172.59 446.75,-141 392.3,-126.17 332.75,-97.26 299.65,-79.95"/>
<polygon fill="#63b8ff" stroke="#63b8ff" points="301.69,-77.06 291.21,-75.47 298.41,-83.25 301.69,-77.06"/>
</a>
</g>
</g>
<!-- Node19 -->
<g id="Node000019" class="node">
<title>Node19</title>
<g id="a_Node000019"><a xlink:href="../../da/d33/Namespace_8hpp.html" target="_top" xlink:title=" ">
<polygon fill="white" stroke="#666666" points="625.62,-135.38 455.88,-135.38 455.88,-116.12 625.62,-116.12 625.62,-135.38"/>
<text text-anchor="middle" x="540.75" y="-121.88" font-family="Helvetica,sans-Serif" font-size="10.00">Ark/Compiler/AST/Namespace.hpp</text>
</a>
</g>
</g>
<!-- Node16&#45;&gt;Node19 -->
<g id="edge25_Node000016_Node000019" class="edge">
<title>Node16&#45;&gt;Node19</title>
<g id="a_edge25_Node000016_Node000019"><a xlink:title=" ">
<path fill="none" stroke="#63b8ff" d="M811.29,-182.15C754.85,-170.59 657.48,-150.65 596.24,-138.11"/>
<polygon fill="#63b8ff" stroke="#63b8ff" points="597.22,-134.74 586.72,-136.16 595.82,-141.6 597.22,-134.74"/>
</a>
</g>
</g>
<!-- Node21 -->
<g id="Node000021" class="node">
<title>Node21</title>
<g id="a_Node000021"><a xlink:href="../../d8/ddd/Common_8hpp.html" target="_top" xlink:title="Common code for the compiler.">
<polygon fill="white" stroke="#666666" points="1124,-135.38 989.5,-135.38 989.5,-116.12 1124,-116.12 1124,-135.38"/>
<text text-anchor="middle" x="1056.75" y="-121.88" font-family="Helvetica,sans-Serif" font-size="10.00">Ark/Compiler/Common.hpp</text>
</a>
</g>
</g>
<!-- Node16&#45;&gt;Node21 -->
<g id="edge29_Node000016_Node000021" class="edge">
<title>Node16&#45;&gt;Node21</title>
<g id="a_edge29_Node000016_Node000021"><a xlink:title=" ">
<path fill="none" stroke="#63b8ff" d="M884.12,-182.15C919.06,-170.93 978.59,-151.83 1017.79,-139.25"/>
<polygon fill="#63b8ff" stroke="#63b8ff" points="1018.63,-142.66 1027.08,-136.27 1016.49,-135.99 1018.63,-142.66"/>
</a>
</g>
</g>
<!-- Node28 -->
<g id="Node000028" class="node">
<title>Node28</title>
<g id="a_Node000028"><a xlink:href="../../dc/d58/Position_8hpp.html" target="_top" xlink:title="Defines position utilities (for text in a file) for the parser, formatter, diagnostics.">
<polygon fill="white" stroke="#666666" points="869.38,-135.38 758.12,-135.38 758.12,-116.12 869.38,-116.12 869.38,-135.38"/>
<text text-anchor="middle" x="813.75" y="-121.88" font-family="Helvetica,sans-Serif" font-size="10.00">Ark/Utils/Position.hpp</text>
</a>
</g>
</g>
<!-- Node16&#45;&gt;Node28 -->
<g id="edge40_Node000016_Node000028" class="edge">
<title>Node16&#45;&gt;Node28</title>
<g id="a_edge40_Node000016_Node000028"><a xlink:title=" ">
<path fill="none" stroke="#63b8ff" d="M849.91,-182.28C843.7,-172.75 833.72,-157.41 825.81,-145.27"/>
<polygon fill="#63b8ff" stroke="#63b8ff" points="828.76,-143.38 820.37,-136.91 822.89,-147.2 828.76,-143.38"/>
</a>
</g>
</g>
<!-- Node19&#45;&gt;Node2 -->
<g id="edge27_Node000019_Node000002" class="edge">
<title>Node19&#45;&gt;Node2</title>
<g id="a_edge27_Node000019_Node000002"><a xlink:title=" ">
<path fill="none" stroke="#63b8ff" d="M564.01,-115.68C589.57,-105.71 630.81,-89.64 659.48,-78.46"/>
<polygon fill="#63b8ff" stroke="#63b8ff" points="660.72,-81.73 668.76,-74.84 658.18,-75.21 660.72,-81.73"/>
</a>
</g>
</g>
<!-- Node19&#45;&gt;Node3 -->
<g id="edge26_Node000019_Node000003" class="edge">
<title>Node19&#45;&gt;Node3</title>
<g id="a_edge26_Node000019_Node000003"><a xlink:title=" ">
<path fill="none" stroke="#63b8ff" d="M529.21,-115.81C517.6,-106.82 499.46,-92.76 485.37,-81.85"/>
<polygon fill="#63b8ff" stroke="#63b8ff" points="487.65,-79.19 477.6,-75.83 483.36,-84.72 487.65,-79.19"/>
</a>
</g>
</g>
<!-- Node20 -->
<g id="Node000020" class="node">
<title>Node20</title>
<g id="a_Node000020"><a xlink:title=" ">
<polygon fill="#e0e0e0" stroke="#999999" points="160.38,-74.5 109.12,-74.5 109.12,-55.25 160.38,-55.25 160.38,-74.5"/>
<text text-anchor="middle" x="134.75" y="-61" font-family="Helvetica,sans-Serif" font-size="10.00">memory</text>
</a>
</g>
</g>
<!-- Node19&#45;&gt;Node20 -->
<g id="edge28_Node000019_Node000020" class="edge">
<title>Node19&#45;&gt;Node20</title>
<g id="a_edge28_Node000019_Node000020"><a xlink:title=" ">
<path fill="none" stroke="#63b8ff" d="M455.72,-116.06C382.69,-107.96 274.42,-94.43 171.86,-74.93"/>
<polygon fill="#63b8ff" stroke="#63b8ff" points="172.64,-71.52 162.16,-73.06 171.31,-78.39 172.64,-71.52"/>
</a>
</g>
</g>
<!-- Node21&#45;&gt;Node2 -->
<g id="edge32_Node000021_Node000002" class="edge">
<title>Node21&#45;&gt;Node2</title>
<g id="a_edge32_Node000021_Node000002"><a xlink:title=" ">
<path fill="none" stroke="#63b8ff" d="M1009.76,-115.7C1000.17,-113.92 990.15,-112.11 980.75,-110.5 888.17,-94.68 778.46,-78.42 724.74,-70.62"/>
<polygon fill="#63b8ff" stroke="#63b8ff" points="725.44,-67.18 715.04,-69.21 724.43,-74.11 725.44,-67.18"/>
</a>
</g>
</g>
<!-- Node22 -->
<g id="Node000022" class="node">
<title>Node22</title>
<g id="a_Node000022"><a xlink:title=" ">
<polygon fill="#e0e0e0" stroke="#999999" points="1077.62,-74.5 1039.88,-74.5 1039.88,-55.25 1077.62,-55.25 1077.62,-74.5"/>
<text text-anchor="middle" x="1058.75" y="-61" font-family="Helvetica,sans-Serif" font-size="10.00">array</text>
</a>
</g>
</g>
<!-- Node21&#45;&gt;Node22 -->
<g id="edge30_Node000021_Node000022" class="edge">
<title>Node21&#45;&gt;Node22</title>
<g id="a_edge30_Node000021_Node000022"><a xlink:title=" ">
<path fill="none" stroke="#63b8ff" d="M1057.05,-115.81C1057.32,-107.94 1057.72,-96.2 1058.06,-86.07"/>
<polygon fill="#63b8ff" stroke="#63b8ff" points="1061.55,-86.53 1058.39,-76.41 1054.55,-86.29 1061.55,-86.53"/>
</a>
</g>
</g>
<!-- Node23 -->
<g id="Node000023" class="node">
<title>Node23</title>
<g id="a_Node000023"><a xlink:title=" ">
<polygon fill="#e0e0e0" stroke="#999999" points="854.5,-19.25 789,-19.25 789,0 854.5,0 854.5,-19.25"/>
<text text-anchor="middle" x="821.75" y="-5.75" font-family="Helvetica,sans-Serif" font-size="10.00">string_view</text>
</a>
</g>
</g>
<!-- Node21&#45;&gt;Node23 -->
<g id="edge31_Node000021_Node000023" class="edge">
<title>Node21&#45;&gt;Node23</title>
<g id="a_edge31_Node000021_Node000023"><a xlink:title=" ">
<path fill="none" stroke="#63b8ff" d="M1013.25,-115.66C967.59,-105.58 899.34,-88.86 876.75,-74.5 858.46,-62.88 842.93,-43.33 833.08,-28.92"/>
<polygon fill="#63b8ff" stroke="#63b8ff" points="836.18,-27.25 827.79,-20.78 830.31,-31.07 836.18,-27.25"/>
</a>
</g>
</g>
<!-- Node24 -->
<g id="Node000024" class="node">
<title>Node24</title>
<g id="a_Node000024"><a xlink:title=" ">
<polygon fill="#e0e0e0" stroke="#999999" points="1051.62,-19.25 995.88,-19.25 995.88,0 1051.62,0 1051.62,-19.25"/>
<text text-anchor="middle" x="1023.75" y="-5.75" font-family="Helvetica,sans-Serif" font-size="10.00">cinttypes</text>
</a>
</g>
</g>
<!-- Node21&#45;&gt;Node24 -->
<g id="edge33_Node000021_Node000024" class="edge">
<title>Node21&#45;&gt;Node24</title>
<g id="a_edge33_Node000021_Node000024"><a xlink:title=" ">
<path fill="none" stroke="#63b8ff" d="M1050.89,-115.92C1044.77,-106.21 1035.41,-89.92 1030.75,-74.5 1026.44,-60.24 1024.73,-43.49 1024.07,-30.71"/>
<polygon fill="#63b8ff" stroke="#63b8ff" points="1027.57,-30.9 1023.75,-21.02 1020.58,-31.13 1027.57,-30.9"/>
</a>
</g>
</g>
<!-- Node25 -->
<g id="Node000025" class="node">
<title>Node25</title>
<g id="a_Node000025"><a xlink:href="../../d6/de9/Constants_8hpp.html" target="_top" xlink:title="Constants used by ArkScript.">
<polygon fill="white" stroke="#666666" points="983.62,-74.5 885.88,-74.5 885.88,-55.25 983.62,-55.25 983.62,-74.5"/>
<text text-anchor="middle" x="934.75" y="-61" font-family="Helvetica,sans-Serif" font-size="10.00">Ark/Constants.hpp</text>
</a>
</g>
</g>
<!-- Node21&#45;&gt;Node25 -->
<g id="edge34_Node000021_Node000025" class="edge">
<title>Node21&#45;&gt;Node25</title>
<g id="a_edge34_Node000021_Node000025"><a xlink:title=" ">
<path fill="none" stroke="#63b8ff" d="M1037.95,-115.68C1018.11,-106.1 986.56,-90.88 963.57,-79.78"/>
<polygon fill="#63b8ff" stroke="#63b8ff" points="965.26,-76.71 954.73,-75.52 962.21,-83.02 965.26,-76.71"/>
</a>
</g>
</g>
<!-- Node25&#45;&gt;Node23 -->
<g id="edge35_Node000025_Node000023" class="edge">
<title>Node25&#45;&gt;Node23</title>
<g id="a_edge35_Node000025_Node000023"><a xlink:title=" ">
<path fill="none" stroke="#63b8ff" d="M915.58,-54.84C897.97,-46.54 871.59,-34.11 851.29,-24.54"/>
<polygon fill="#63b8ff" stroke="#63b8ff" points="852.92,-21.44 842.38,-20.35 849.94,-27.78 852.92,-21.44"/>
</a>
</g>
</g>
<!-- Node25&#45;&gt;Node24 -->
<g id="edge37_Node000025_Node000024" class="edge">
<title>Node25&#45;&gt;Node24</title>
<g id="a_edge37_Node000025_Node000024"><a xlink:title=" ">
<path fill="none" stroke="#63b8ff" d="M949.85,-54.84C963.27,-46.81 983.16,-34.91 998.92,-25.48"/>
<polygon fill="#63b8ff" stroke="#63b8ff" points="1000.5,-28.62 1007.28,-20.48 996.9,-22.61 1000.5,-28.62"/>
</a>
</g>
</g>
<!-- Node26 -->
<g id="Node000026" class="node">
<title>Node26</title>
<g id="a_Node000026"><a xlink:title=" ">
<polygon fill="#e0e0e0" stroke="#999999" points="911.38,-19.25 872.12,-19.25 872.12,0 911.38,0 911.38,-19.25"/>
<text text-anchor="middle" x="891.75" y="-5.75" font-family="Helvetica,sans-Serif" font-size="10.00">limits</text>
</a>
</g>
</g>
<!-- Node25&#45;&gt;Node26 -->
<g id="edge36_Node000025_Node000026" class="edge">
<title>Node25&#45;&gt;Node26</title>
<g id="a_edge36_Node000025_Node000026"><a xlink:title=" ">
<path fill="none" stroke="#63b8ff" d="M927.65,-55.08C921.83,-47.88 913.42,-37.46 906.19,-28.51"/>
<polygon fill="#63b8ff" stroke="#63b8ff" points="908.96,-26.37 899.96,-20.79 903.52,-30.77 908.96,-26.37"/>
</a>
</g>
</g>
<!-- Node27 -->
<g id="Node000027" class="node">
<title>Node27</title>
<g id="a_Node000027"><a xlink:title=" ">
<polygon fill="#e0e0e0" stroke="#999999" points="977.88,-19.25 929.62,-19.25 929.62,0 977.88,0 977.88,-19.25"/>
<text text-anchor="middle" x="953.75" y="-5.75" font-family="Helvetica,sans-Serif" font-size="10.00">cstddef</text>
</a>
</g>
</g>
<!-- Node25&#45;&gt;Node27 -->
<g id="edge38_Node000025_Node000027" class="edge">
<title>Node25&#45;&gt;Node27</title>
<g id="a_edge38_Node000025_Node000027"><a xlink:title=" ">
<path fill="none" stroke="#63b8ff" d="M937.89,-55.08C940.29,-48.34 943.71,-38.77 946.75,-30.24"/>
<polygon fill="#63b8ff" stroke="#63b8ff" points="949.97,-31.63 950.04,-21.03 943.38,-29.28 949.97,-31.63"/>
</a>
</g>
</g>
<!-- Node28&#45;&gt;Node5 -->
<g id="edge42_Node000028_Node000005" class="edge">
<title>Node28&#45;&gt;Node5</title>
<g id="a_edge42_Node000028_Node000005"><a xlink:title=" ">
<path fill="none" stroke="#63b8ff" d="M865.82,-115.68C925.74,-105.24 1024.12,-88.11 1088.42,-76.91"/>
<polygon fill="#63b8ff" stroke="#63b8ff" points="1088.88,-80.38 1098.13,-75.22 1087.68,-73.48 1088.88,-80.38"/>
</a>
</g>
</g>
<!-- Node28&#45;&gt;Node18 -->
<g id="edge41_Node000028_Node000018" class="edge">
<title>Node28&#45;&gt;Node18</title>
<g id="a_edge41_Node000028_Node000018"><a xlink:title=" ">
<path fill="none" stroke="#63b8ff" d="M757.74,-118.64C646.99,-106.57 402.7,-79.93 310.21,-69.85"/>
<polygon fill="#63b8ff" stroke="#63b8ff" points="310.77,-66.39 300.45,-68.79 310.01,-73.35 310.77,-66.39"/>
</a>
</g>
</g>
<!-- Node29&#45;&gt;Node2 -->
<g id="edge47_Node000029_Node000002" class="edge">
<title>Node29&#45;&gt;Node2</title>
<g id="a_edge47_Node000029_Node000002"><a xlink:title=" ">
<path fill="none" stroke="#63b8ff" d="M362.28,-187.05C450.15,-180.98 589.92,-167.43 634.75,-141 656.85,-127.97 673.25,-102.75 682.65,-85.14"/>
<polygon fill="#63b8ff" stroke="#63b8ff" points="685.76,-86.73 687.12,-76.23 679.51,-83.59 685.76,-86.73"/>
</a>
</g>
</g>
<!-- Node29&#45;&gt;Node3 -->
<g id="edge44_Node000029_Node000003" class="edge">
<title>Node29&#45;&gt;Node3</title>
<g id="a_edge44_Node000029_Node000003"><a xlink:title=" ">
<path fill="none" stroke="#63b8ff" d="M301.34,-176.5C317.79,-159.21 346.9,-130.39 375.75,-110.5 394.02,-97.91 416.34,-86.72 434.06,-78.7"/>
<polygon fill="#63b8ff" stroke="#63b8ff" points="435.3,-81.98 443.04,-74.74 432.47,-75.58 435.3,-81.98"/>
</a>
</g>
</g>
<!-- Node29&#45;&gt;Node18 -->
<g id="edge45_Node000029_Node000018" class="edge">
<title>Node29&#45;&gt;Node18</title>
<g id="a_edge45_Node000029_Node000018"><a xlink:title=" ">
<path fill="none" stroke="#63b8ff" d="M283.06,-176.92C280.05,-166.96 276.4,-153.33 274.75,-141 272.26,-122.42 272.25,-101.02 272.72,-85.82"/>
<polygon fill="#63b8ff" stroke="#63b8ff" points="276.2,-86.36 273.12,-76.23 269.21,-86.07 276.2,-86.36"/>
</a>
</g>
</g>
<!-- Node29&#45;&gt;Node20 -->
<g id="edge46_Node000029_Node000020" class="edge">
<title>Node29&#45;&gt;Node20</title>
<g id="a_edge46_Node000029_Node000020"><a xlink:title=" ">
<path fill="none" stroke="#63b8ff" d="M213.13,-183.82C157.6,-176.56 88.47,-163.29 70.75,-141 62.31,-130.39 64.48,-122.52 70.75,-110.5 77.55,-97.46 90.1,-87.45 102.3,-80.25"/>
<polygon fill="#63b8ff" stroke="#63b8ff" points="103.84,-83.4 110.99,-75.58 100.53,-77.23 103.84,-83.4"/>
</a>
</g>
</g>
<!-- Node30 -->
<g id="Node000030" class="node">
<title>Node30</title>
<g id="a_Node000030"><a xlink:title=" ">
<polygon fill="#e0e0e0" stroke="#999999" points="323.38,-135.38 284.12,-135.38 284.12,-116.12 323.38,-116.12 323.38,-135.38"/>
<text text-anchor="middle" x="303.75" y="-121.88" font-family="Helvetica,sans-Serif" font-size="10.00">utility</text>
</a>
</g>
</g>
<!-- Node29&#45;&gt;Node30 -->
<g id="edge48_Node000029_Node000030" class="edge">
<title>Node29&#45;&gt;Node30</title>
<g id="a_edge48_Node000029_Node000030"><a xlink:title=" ">
<path fill="none" stroke="#63b8ff" d="M291.38,-176.61C293.58,-167.73 296.43,-156.27 298.83,-146.58"/>
<polygon fill="#63b8ff" stroke="#63b8ff" points="302.19,-147.59 301.2,-137.04 295.39,-145.9 302.19,-147.59"/>
</a>
</g>
</g>
<!-- Node31 -->
<g id="Node000031" class="node">
<title>Node31</title>
<g id="a_Node000031"><a xlink:href="../../df/db8/StaticScope_8hpp.html" target="_top" xlink:title="Static scopes (for functions, loops) and namespace scopes (for packages) definitions,...">
<polygon fill="white" stroke="#666666" points="228.12,-141 79.38,-141 79.38,-110.5 228.12,-110.5 228.12,-141"/>
<text text-anchor="start" x="87.38" y="-127.5" font-family="Helvetica,sans-Serif" font-size="10.00">Ark/Compiler/NameResolution</text>
<text text-anchor="middle" x="153.75" y="-116.25" font-family="Helvetica,sans-Serif" font-size="10.00">/StaticScope.hpp</text>
</a>
</g>
</g>
<!-- Node29&#45;&gt;Node31 -->
<g id="edge49_Node000029_Node000031" class="edge">
<title>Node29&#45;&gt;Node31</title>
<g id="a_edge49_Node000029_Node000031"><a xlink:title=" ">
<path fill="none" stroke="#63b8ff" d="M257.34,-176.61C238.67,-167.63 214.52,-156 194.24,-146.24"/>
<polygon fill="#63b8ff" stroke="#63b8ff" points="195.93,-143.17 185.4,-141.98 192.89,-149.48 195.93,-143.17"/>
</a>
</g>
</g>
<!-- Node31&#45;&gt;Node2 -->
<g id="edge53_Node000031_Node000002" class="edge">
<title>Node31&#45;&gt;Node2</title>
<g id="a_edge53_Node000031_Node000002"><a xlink:title=" ">
<path fill="none" stroke="#63b8ff" d="M228.61,-115.81C243.87,-114.02 259.83,-112.18 274.75,-110.5 417.7,-94.43 588.37,-76.59 658.84,-69.28"/>
<polygon fill="#63b8ff" stroke="#63b8ff" points="658.94,-72.78 668.53,-68.27 658.22,-65.82 658.94,-72.78"/>
</a>
</g>
</g>
<!-- Node31&#45;&gt;Node3 -->
<g id="edge50_Node000031_Node000003" class="edge">
<title>Node31&#45;&gt;Node3</title>
<g id="a_edge50_Node000031_Node000003"><a xlink:title=" ">
<path fill="none" stroke="#63b8ff" d="M228.24,-110.65C293.68,-98.26 385.67,-80.85 433.34,-71.82"/>
<polygon fill="#63b8ff" stroke="#63b8ff" points="433.8,-75.3 442.98,-70 432.5,-68.42 433.8,-75.3"/>
</a>
</g>
</g>
<!-- Node31&#45;&gt;Node4 -->
<g id="edge55_Node000031_Node000004" class="edge">
<title>Node31&#45;&gt;Node4</title>
<g id="a_edge55_Node000031_Node000004"><a xlink:title=" ">
<path fill="none" stroke="#63b8ff" d="M125.03,-110.05C107.01,-100.82 83.91,-89 66.15,-79.9"/>
<polygon fill="#63b8ff" stroke="#63b8ff" points="68.23,-77.04 57.73,-75.59 65.04,-83.27 68.23,-77.04"/>
</a>
</g>
</g>
<!-- Node31&#45;&gt;Node5 -->
<g id="edge56_Node000031_Node000005" class="edge">
<title>Node31&#45;&gt;Node5</title>
<g id="a_edge56_Node000031_Node000005"><a xlink:title=" ">
<path fill="none" stroke="#63b8ff" d="M228.54,-115.08C243.81,-113.35 259.78,-111.71 274.75,-110.5 631.12,-81.65 724.99,-105.78 1083.82,-74.68"/>
<polygon fill="#63b8ff" stroke="#63b8ff" points="1083.9,-78.19 1093.55,-73.83 1083.29,-71.21 1083.9,-78.19"/>
</a>
</g>
</g>
<!-- Node31&#45;&gt;Node18 -->
<g id="edge51_Node000031_Node000018" class="edge">
<title>Node31&#45;&gt;Node18</title>
<g id="a_edge51_Node000031_Node000018"><a xlink:title=" ">
<path fill="none" stroke="#63b8ff" d="M183.72,-110.05C202.52,-100.82 226.63,-89 245.16,-79.9"/>
<polygon fill="#63b8ff" stroke="#63b8ff" points="246.55,-83.12 253.99,-75.57 243.47,-76.83 246.55,-83.12"/>
</a>
</g>
</g>
<!-- Node31&#45;&gt;Node20 -->
<g id="edge52_Node000031_Node000020" class="edge">
<title>Node31&#45;&gt;Node20</title>
<g id="a_edge52_Node000031_Node000020"><a xlink:title=" ">
<path fill="none" stroke="#63b8ff" d="M149.05,-110.2C146.69,-102.87 143.79,-93.87 141.21,-85.91"/>
<polygon fill="#63b8ff" stroke="#63b8ff" points="144.55,-84.83 138.14,-76.39 137.88,-86.98 144.55,-84.83"/>
</a>
</g>
</g>
<!-- Node32 -->
<g id="Node000032" class="node">
<title>Node32</title>
<g id="a_Node000032"><a xlink:title=" ">
<polygon fill="#e0e0e0" stroke="#999999" points="223.38,-74.5 178.12,-74.5 178.12,-55.25 223.38,-55.25 223.38,-74.5"/>
<text text-anchor="middle" x="200.75" y="-61" font-family="Helvetica,sans-Serif" font-size="10.00">ranges</text>
</a>
</g>
</g>
<!-- Node31&#45;&gt;Node32 -->
<g id="edge54_Node000031_Node000032" class="edge">
<title>Node31&#45;&gt;Node32</title>
<g id="a_edge54_Node000031_Node000032"><a xlink:title=" ">
<path fill="none" stroke="#63b8ff" d="M165.37,-110.2C171.77,-102.18 179.76,-92.17 186.53,-83.69"/>
<polygon fill="#63b8ff" stroke="#63b8ff" points="189.06,-86.13 192.56,-76.13 183.59,-81.77 189.06,-86.13"/>
</a>
</g>
</g>
</g>
</svg>

<g id="navigator" transform="translate(0 0)" fill="#404254">
  <rect fill="#f2f5e9" fill-opacity="0.5" stroke="#606060" stroke-width=".5" x="0" y="0" width="60" height="60"/>
  <use id="zoomplus" xlink:href="#zoomPlus" x="17" y="9" onmousedown="handleZoom(evt,'in')"/>
  <use id="zoomminus" xlink:href="#zoomMin" x="42" y="9" onmousedown="handleZoom(evt,'out')"/>
  <use id="reset" xlink:href="#resetDef" x="30" y="36" onmousedown="handleReset()"/>
   <use id="arrowup" xlink:href="#arrowUp" x="0" y="0" onmousedown="handlePan(0,-1)"/>
  <use id="arrowright" xlink:href="#arrowRight" x="0" y="0" onmousedown="handlePan(1,0)"/>
  <use id="arrowdown" xlink:href="#arrowDown" x="0" y="0" onmousedown="handlePan(0,1)"/>
  <use id="arrowleft" xlink:href="#arrowLeft" x="0" y="0" onmousedown="handlePan(-1,0)"/>
</g>
<svg viewBox="0 0 15 15" width="100%" height="30px" preserveAspectRatio="xMaxYMin meet">
 <g id="arrow_out" transform="scale(0.3 0.3)">
  <a xlink:href="NameResolutionPass_8hpp__incl_org.svg" target="_base">
   <rect id="button" ry="5" rx="5" y="6" x="6" height="38" width="38"
        fill="#f2f5e9" fill-opacity="0.5" stroke="#606060" stroke-width="1.0"/>
   <path id="arrow"
     d="M 11.500037,31.436501 C 11.940474,20.09759 22.043105,11.32322 32.158766,21.979434 L 37.068811,17.246167 C 37.068811,17.246167 37.088388,32 37.088388,32 L 22.160133,31.978069 C 22.160133,31.978069 26.997745,27.140456 26.997745,27.140456 C 18.528582,18.264221 13.291696,25.230495 11.500037,31.436501 z"
     style="fill:#404040;"/>
  </a>
 </g>
</svg>

<style type='text/css'>
<![CDATA[
[data-mouse-over-selected='false'] { opacity: 0.7; }
[data-mouse-over-selected='true']  { opacity: 1.0; }
]]>
</style>
<script type="application/ecmascript"><![CDATA[
document.addEventListener('DOMContentLoaded', (event) => {
  highlightEdges();
  highlightAdjacentNodes();
});
]]></script>
</svg>
