<?xml version="1.0" encoding="UTF-8" standalone="no"?>
<!DOCTYPE svg PUBLIC "-//W3C//DTD SVG 1.1//EN"
 "http://www.w3.org/Graphics/SVG/1.1/DTD/svg11.dtd">
<!-- Generated by graphviz version 12.2.0 (20241103.1931)
 -->
<!-- Title: /Users/fola/Documents/ArkScript/Ark/include/Ark/Compiler/NameResolution/NameResolutionPass.hpp Pages: 1 -->
<!--zoomable 360 -->

<svg id="main" version="1.1" xmlns="http://www.w3.org/2000/svg" xmlns:xlink="http://www.w3.org/1999/xlink" xml:space="preserve" onload="init(evt)">

<style type="text/css"><![CDATA[
.node, .edge {opacity: 0.7;}
.node.selected, .edge.selected {opacity: 1;}
.edge:hover path { stroke: red; }
.edge:hover polygon { stroke: red; fill: red; }
]]></style>

<defs>
  <circle id="rim" cx="0" cy="0" r="7"/>
  <circle id="rim2" cx="0" cy="0" r="3.5"/>
  <g id="zoomPlus">
    <use xlink:href="#rim" fill="#404040"><set attributeName="fill" to="#808080" begin="zoomplus.mouseover" end="zoomplus.mouseout"/></use>
    <path d="M-4,0h8M0,-4v8" fill="none" stroke="white" stroke-width="1.5" pointer-events="none"/>
  </g>
  <g id="zoomMin">
    <use xlink:href="#rim" fill="#404040"><set attributeName="fill" to="#808080" begin="zoomminus.mouseover" end="zoomminus.mouseout"/></use>
    <path d="M-4,0h8" fill="none" stroke="white" stroke-width="1.5" pointer-events="none"/>
  </g>
  <g id="arrowUp" transform="translate(30 24)">
    <use xlink:href="#rim"/>
    <path pointer-events="none" fill="none" stroke="white" stroke-width="1.5" d="M0,-3.0v7 M-2.5,-0.5L0,-3.0L2.5,-0.5"/>
  </g>
  <g id="arrowRight" transform="rotate(90) translate(36 -43)">
    <use xlink:href="#rim"/>
    <path pointer-events="none" fill="none" stroke="white" stroke-width="1.5" d="M0,-3.0v7 M-2.5,-0.5L0,-3.0L2.5,-0.5"/>
  </g>
  <g id="arrowDown" transform="rotate(180) translate(-30 -48)">
    <use xlink:href="#rim"/>
    <path pointer-events="none" fill="none" stroke="white" stroke-width="1.5" d="M0,-3.0v7 M-2.5,-0.5L0,-3.0L2.5,-0.5"/>
  </g>
  <g id="arrowLeft" transform="rotate(270) translate(-36 17)">
    <use xlink:href="#rim"/>
    <path pointer-events="none" fill="none" stroke="white" stroke-width="1.5" d="M0,-3.0v7 M-2.5,-0.5L0,-3.0L2.5,-0.5"/>
  </g>
  <g id="resetDef">
    <use xlink:href="#rim2" fill="#404040"><set attributeName="fill" to="#808080" begin="reset.mouseover" end="reset.mouseout"/></use>
  </g>
</defs>
<script type="application/ecmascript">
var viewWidth = 1648;
var viewHeight = 360;
var sectionId = 'dynsection-0';
</script>
<script type="application/ecmascript" xlink:href="../../svg.min.js"/>
<svg id="graph" class="graph">
<g id="viewport">
<title>/Users/fola/Documents/ArkScript/Ark/include/Ark/Compiler/NameResolution/NameResolutionPass.hpp</title>
<!-- Node1 -->
<g id="Node000001" class="node">
<title>Node1</title>
<g id="a_Node000001"><a xlink:title="Resolves names and fully qualify them in the AST (prefixing them with the package they are from)">
<polygon fill="#999999" stroke="#666666" points="1286,-351.75 1134.25,-351.75 1134.25,-298.75 1286,-298.75 1286,-351.75"/>
<text text-anchor="start" x="1142.25" y="-338.25" font-family="Helvetica,sans-Serif" font-size="10.00">/Users/fola/Documents</text>
<text text-anchor="start" x="1142.25" y="-327" font-family="Helvetica,sans-Serif" font-size="10.00">/ArkScript/Ark/include</text>
<text text-anchor="start" x="1142.25" y="-315.75" font-family="Helvetica,sans-Serif" font-size="10.00">/Ark/Compiler/NameResolution</text>
<text text-anchor="middle" x="1210.12" y="-304.5" font-family="Helvetica,sans-Serif" font-size="10.00">/NameResolutionPass.hpp</text>
</a>
</g>
</g>
<!-- Node2 -->
<g id="Node000002" class="node">
<title>Node2</title>
<g id="a_Node000002"><a xlink:title=" ">
<polygon fill="#e0e0e0" stroke="#999999" points="796.62,-74.5 753.62,-74.5 753.62,-55.25 796.62,-55.25 796.62,-74.5"/>
<text text-anchor="middle" x="775.12" y="-61" font-family="Helvetica,sans-Serif" font-size="10.00">vector</text>
</a>
</g>
</g>
<!-- Node1&#45;&gt;Node2 -->
<g id="edge1_Node000001_Node000002" class="edge">
<title>Node1&#45;&gt;Node2</title>
<g id="a_edge1_Node000001_Node000002"><a xlink:title=" ">
<path fill="none" stroke="#63b8ff" d="M1133.87,-315.2C1071.14,-306.27 980.6,-289.93 905.12,-262.75 856.25,-245.15 847.41,-232.96 802.12,-207.5 751.33,-178.94 718.05,-191.59 689.12,-141 682.4,-129.23 682.09,-122.08 689.12,-110.5 700.74,-91.39 723.47,-80.1 742.65,-73.65"/>
<polygon fill="#63b8ff" stroke="#63b8ff" points="743.42,-77.08 751.97,-70.83 741.39,-70.38 743.42,-77.08"/>
</a>
</g>
</g>
<!-- Node3 -->
<g id="Node000003" class="node">
<title>Node3</title>
<g id="a_Node000003"><a xlink:title=" ">
<polygon fill="#e0e0e0" stroke="#999999" points="1135.12,-74.5 1095.12,-74.5 1095.12,-55.25 1135.12,-55.25 1135.12,-74.5"/>
<text text-anchor="middle" x="1115.12" y="-61" font-family="Helvetica,sans-Serif" font-size="10.00">string</text>
</a>
</g>
</g>
<!-- Node1&#45;&gt;Node3 -->
<g id="edge2_Node000001_Node000003" class="edge">
<title>Node1&#45;&gt;Node3</title>
<g id="a_edge2_Node000001_Node000003"><a xlink:title=" ">
<path fill="none" stroke="#63b8ff" d="M1200.67,-298.53C1181.63,-246.74 1139.04,-130.93 1122.19,-85.09"/>
<polygon fill="#63b8ff" stroke="#63b8ff" points="1125.58,-84.17 1118.84,-75.99 1119.01,-86.58 1125.58,-84.17"/>
</a>
</g>
</g>
<!-- Node4 -->
<g id="Node000004" class="node">
<title>Node4</title>
<g id="a_Node000004"><a xlink:title=" ">
<polygon fill="#e0e0e0" stroke="#999999" points="1639.88,-74.5 1562.38,-74.5 1562.38,-55.25 1639.88,-55.25 1639.88,-74.5"/>
<text text-anchor="middle" x="1601.12" y="-61" font-family="Helvetica,sans-Serif" font-size="10.00">unordered_set</text>
</a>
</g>
</g>
<!-- Node1&#45;&gt;Node4 -->
<g id="edge3_Node000001_Node000004" class="edge">
<title>Node1&#45;&gt;Node4</title>
<g id="a_edge3_Node000001_Node000004"><a xlink:title=" ">
<path fill="none" stroke="#63b8ff" d="M1281.83,-298.29C1354.79,-269.04 1467.72,-215.65 1544.12,-141 1561.99,-123.54 1578.81,-100.21 1589.48,-84.2"/>
<polygon fill="#63b8ff" stroke="#63b8ff" points="1592.2,-86.44 1594.73,-76.15 1586.34,-82.62 1592.2,-86.44"/>
</a>
</g>
</g>
<!-- Node5 -->
<g id="Node000005" class="node">
<title>Node5</title>
<g id="a_Node000005"><a xlink:href="../../d5/d40/Platform_8hpp.html" target="_top" xlink:title="ArkScript configuration macros.">
<polygon fill="white" stroke="#666666" points="1277.88,-74.5 1188.38,-74.5 1188.38,-55.25 1277.88,-55.25 1277.88,-74.5"/>
<text text-anchor="middle" x="1233.12" y="-61" font-family="Helvetica,sans-Serif" font-size="10.00">Ark/Platform.hpp</text>
</a>
</g>
</g>
<!-- Node1&#45;&gt;Node5 -->
<g id="edge4_Node000001_Node000005" class="edge">
<title>Node1&#45;&gt;Node5</title>
<g id="a_edge4_Node000001_Node000005"><a xlink:title=" ">
<path fill="none" stroke="#63b8ff" d="M1212.41,-298.53C1217,-247.07 1227.2,-132.4 1231.34,-85.97"/>
<polygon fill="#63b8ff" stroke="#63b8ff" points="1234.82,-86.35 1232.22,-76.08 1227.84,-85.73 1234.82,-86.35"/>
</a>
</g>
</g>
<!-- Node6 -->
<g id="Node000006" class="node">
<title>Node6</title>
<g id="a_Node000006"><a xlink:href="../../df/d5f/Pass_8hpp.html" target="_top" xlink:title="Interface for a compiler pass (take in an AST, output an AST)">
<polygon fill="white" stroke="#666666" points="1031.75,-262.75 914.5,-262.75 914.5,-243.5 1031.75,-243.5 1031.75,-262.75"/>
<text text-anchor="middle" x="973.12" y="-249.25" font-family="Helvetica,sans-Serif" font-size="10.00">Ark/Compiler/Pass.hpp</text>
</a>
</g>
</g>
<!-- Node1&#45;&gt;Node6 -->
<g id="edge5_Node000001_Node000006" class="edge">
<title>Node1&#45;&gt;Node6</title>
<g id="a_edge5_Node000001_Node000006"><a xlink:title=" ">
<path fill="none" stroke="#63b8ff" d="M1133.83,-301.68C1094.37,-290 1047.73,-276.2 1014.88,-266.48"/>
<polygon fill="#63b8ff" stroke="#63b8ff" points="1015.91,-263.13 1005.33,-263.65 1013.92,-269.85 1015.91,-263.13"/>
</a>
</g>
</g>
<!-- Node25 -->
<g id="Node000025" class="node">
<title>Node25</title>
<g id="a_Node000025"><a xlink:href="../../db/d5b/ScopeResolver_8hpp.html" target="_top" xlink:title="Handle scope resolution at compile time.">
<polygon fill="white" stroke="#666666" points="1443.5,-207.5 1294.75,-207.5 1294.75,-177 1443.5,-177 1443.5,-207.5"/>
<text text-anchor="start" x="1302.75" y="-194" font-family="Helvetica,sans-Serif" font-size="10.00">Ark/Compiler/NameResolution</text>
<text text-anchor="middle" x="1369.12" y="-182.75" font-family="Helvetica,sans-Serif" font-size="10.00">/ScopeResolver.hpp</text>
</a>
</g>
</g>
<!-- Node1&#45;&gt;Node25 -->
<g id="edge35_Node000001_Node000025" class="edge">
<title>Node1&#45;&gt;Node25</title>
<g id="a_edge35_Node000001_Node000025"><a xlink:title=" ">
<path fill="none" stroke="#63b8ff" d="M1241.54,-298.37C1271.14,-273.98 1314.98,-237.86 1342.79,-214.95"/>
<polygon fill="#63b8ff" stroke="#63b8ff" points="1344.9,-217.74 1350.4,-208.68 1340.45,-212.34 1344.9,-217.74"/>
</a>
</g>
</g>
<!-- Node6&#45;&gt;Node5 -->
<g id="edge6_Node000006_Node000005" class="edge">
<title>Node6&#45;&gt;Node5</title>
<g id="a_edge6_Node000006_Node000005"><a xlink:title=" ">
<path fill="none" stroke="#63b8ff" d="M986.63,-243.11C1014.47,-224.44 1080.2,-180.04 1134.12,-141 1161.63,-121.08 1192.74,-97.26 1212.62,-81.86"/>
<polygon fill="#63b8ff" stroke="#63b8ff" points="1214.72,-84.66 1220.47,-75.76 1210.43,-79.13 1214.72,-84.66"/>
</a>
</g>
</g>
<!-- Node7 -->
<g id="Node000007" class="node">
<title>Node7</title>
<g id="a_Node000007"><a xlink:href="../../d7/dc6/Node_8hpp.html" target="_top" xlink:title="AST node used by the parser, optimizer and compiler.">
<polygon fill="white" stroke="#666666" points="951.38,-201.88 810.88,-201.88 810.88,-182.62 951.38,-182.62 951.38,-201.88"/>
<text text-anchor="middle" x="881.12" y="-188.38" font-family="Helvetica,sans-Serif" font-size="10.00">Ark/Compiler/AST/Node.hpp</text>
</a>
</g>
</g>
<!-- Node6&#45;&gt;Node7 -->
<g id="edge7_Node000006_Node000007" class="edge">
<title>Node6&#45;&gt;Node7</title>
<g id="a_edge7_Node000006_Node000007"><a xlink:title=" ">
<path fill="none" stroke="#63b8ff" d="M959.15,-243.18C944.7,-233.93 921.87,-219.32 904.63,-208.29"/>
<polygon fill="#63b8ff" stroke="#63b8ff" points="906.81,-205.53 896.5,-203.09 903.04,-211.43 906.81,-205.53"/>
</a>
</g>
</g>
<!-- Node18 -->
<g id="Node000018" class="node">
<title>Node18</title>
<g id="a_Node000018"><a xlink:href="../../d9/d11/Logger_8hpp.html" target="_top" xlink:title="Internal logger.">
<polygon fill="white" stroke="#666666" points="429.75,-135.38 348.5,-135.38 348.5,-116.12 429.75,-116.12 429.75,-135.38"/>
<text text-anchor="middle" x="389.12" y="-121.88" font-family="Helvetica,sans-Serif" font-size="10.00">Ark/Logger.hpp</text>
</a>
</g>
</g>
<!-- Node6&#45;&gt;Node18 -->
<g id="edge26_Node000006_Node000018" class="edge">
<title>Node6&#45;&gt;Node18</title>
<g id="a_edge26_Node000006_Node000018"><a xlink:title=" ">
<path fill="none" stroke="#63b8ff" d="M930.65,-243.01C825.85,-220.51 555.16,-162.4 441.06,-137.9"/>
<polygon fill="#63b8ff" stroke="#63b8ff" points="441.87,-134.49 431.36,-135.82 440.4,-141.34 441.87,-134.49"/>
</a>
</g>
</g>
<!-- Node7&#45;&gt;Node2 -->
<g id="edge11_Node000007_Node000002" class="edge">
<title>Node7&#45;&gt;Node2</title>
<g id="a_edge11_Node000007_Node000002"><a xlink:title=" ">
<path fill="none" stroke="#63b8ff" d="M818.65,-182.19C771.96,-173.99 713.77,-160.23 699.12,-141 690.91,-130.21 692.39,-122.26 699.12,-110.5 708.6,-93.94 726.88,-82.93 743.13,-75.98"/>
<polygon fill="#63b8ff" stroke="#63b8ff" points="743.94,-79.42 752,-72.54 741.41,-72.9 743.94,-79.42"/>
</a>
</g>
</g>
<!-- Node7&#45;&gt;Node3 -->
<g id="edge10_Node000007_Node000003" class="edge">
<title>Node7&#45;&gt;Node3</title>
<g id="a_edge10_Node000007_Node000003"><a xlink:title=" ">
<path fill="none" stroke="#63b8ff" d="M950.68,-182.16C985.26,-175.11 1026.34,-162.71 1058.12,-141 1079.2,-126.61 1095.74,-101.9 1105.46,-84.76"/>
<polygon fill="#63b8ff" stroke="#63b8ff" points="1108.45,-86.58 1110.12,-76.11 1102.29,-83.26 1108.45,-86.58"/>
</a>
</g>
</g>
<!-- Node7&#45;&gt;Node5 -->
<g id="edge25_Node000007_Node000005" class="edge">
<title>Node7&#45;&gt;Node5</title>
<g id="a_edge25_Node000007_Node000005"><a xlink:title=" ">
<path fill="none" stroke="#63b8ff" d="M932.93,-182.14C975.21,-173.87 1036.08,-160.05 1087.12,-141 1131.65,-124.38 1180.09,-97.55 1208.48,-80.85"/>
<polygon fill="#63b8ff" stroke="#63b8ff" points="1210.22,-83.89 1217.02,-75.77 1206.64,-77.88 1210.22,-83.89"/>
</a>
</g>
</g>
<!-- Node8 -->
<g id="Node000008" class="node">
<title>Node8</title>
<g id="a_Node000008"><a xlink:title=" ">
<polygon fill="#e0e0e0" stroke="#999999" points="753.75,-135.38 708.5,-135.38 708.5,-116.12 753.75,-116.12 753.75,-135.38"/>
<text text-anchor="middle" x="731.12" y="-121.88" font-family="Helvetica,sans-Serif" font-size="10.00">variant</text>
</a>
</g>
</g>
<!-- Node7&#45;&gt;Node8 -->
<g id="edge8_Node000007_Node000008" class="edge">
<title>Node7&#45;&gt;Node8</title>
<g id="a_edge8_Node000007_Node000008"><a xlink:title=" ">
<path fill="none" stroke="#63b8ff" d="M859.1,-182.19C835.15,-172.29 795.78,-155.84 762.12,-141 761.65,-140.79 761.17,-140.58 760.69,-140.37"/>
<polygon fill="#63b8ff" stroke="#63b8ff" points="762.36,-137.28 751.81,-136.36 759.49,-143.66 762.36,-137.28"/>
</a>
</g>
</g>
<!-- Node9 -->
<g id="Node000009" class="node">
<title>Node9</title>
<g id="a_Node000009"><a xlink:title=" ">
<polygon fill="#e0e0e0" stroke="#999999" points="822.75,-135.38 771.5,-135.38 771.5,-116.12 822.75,-116.12 822.75,-135.38"/>
<text text-anchor="middle" x="797.12" y="-121.88" font-family="Helvetica,sans-Serif" font-size="10.00">ostream</text>
</a>
</g>
</g>
<!-- Node7&#45;&gt;Node9 -->
<g id="edge9_Node000007_Node000009" class="edge">
<title>Node7&#45;&gt;Node9</title>
<g id="a_edge9_Node000007_Node000009"><a xlink:title=" ">
<path fill="none" stroke="#63b8ff" d="M869.45,-182.28C856.11,-172.04 834.03,-155.09 817.77,-142.6"/>
<polygon fill="#63b8ff" stroke="#63b8ff" points="820.24,-140.09 810.18,-136.77 815.98,-145.64 820.24,-140.09"/>
</a>
</g>
</g>
<!-- Node10 -->
<g id="Node000010" class="node">
<title>Node10</title>
<g id="a_Node000010"><a xlink:href="../../da/d33/Namespace_8hpp.html" target="_top" xlink:title=" ">
<polygon fill="white" stroke="#666666" points="1049,-135.38 879.25,-135.38 879.25,-116.12 1049,-116.12 1049,-135.38"/>
<text text-anchor="middle" x="964.12" y="-121.88" font-family="Helvetica,sans-Serif" font-size="10.00">Ark/Compiler/AST/Namespace.hpp</text>
</a>
</g>
</g>
<!-- Node7&#45;&gt;Node10 -->
<g id="edge12_Node000007_Node000010" class="edge">
<title>Node7&#45;&gt;Node10</title>
<g id="a_edge12_Node000007_Node000010"><a xlink:title=" ">
<path fill="none" stroke="#63b8ff" d="M892.67,-182.28C905.85,-172.04 927.66,-155.09 943.73,-142.6"/>
<polygon fill="#63b8ff" stroke="#63b8ff" points="945.47,-145.68 951.22,-136.78 941.18,-140.15 945.47,-145.68"/>
</a>
</g>
</g>
<!-- Node12 -->
<g id="Node000012" class="node">
<title>Node12</title>
<g id="a_Node000012"><a xlink:href="../../d8/ddd/Common_8hpp.html" target="_top" xlink:title="Common code for the compiler.">
<polygon fill="white" stroke="#666666" points="614.38,-135.38 479.88,-135.38 479.88,-116.12 614.38,-116.12 614.38,-135.38"/>
<text text-anchor="middle" x="547.12" y="-121.88" font-family="Helvetica,sans-Serif" font-size="10.00">Ark/Compiler/Common.hpp</text>
</a>
</g>
</g>
<!-- Node7&#45;&gt;Node12 -->
<g id="edge16_Node000007_Node000012" class="edge">
<title>Node7&#45;&gt;Node12</title>
<g id="a_edge16_Node000007_Node000012"><a xlink:title=" ">
<path fill="none" stroke="#63b8ff" d="M833.98,-182.15C774.01,-170.57 670.47,-150.57 605.56,-138.03"/>
<polygon fill="#63b8ff" stroke="#63b8ff" points="606.27,-134.61 595.79,-136.15 604.94,-141.48 606.27,-134.61"/>
</a>
</g>
</g>
<!-- Node10&#45;&gt;Node2 -->
<g id="edge14_Node000010_Node000002" class="edge">
<title>Node10&#45;&gt;Node2</title>
<g id="a_edge14_Node000010_Node000002"><a xlink:title=" ">
<path fill="none" stroke="#63b8ff" d="M935.01,-115.68C900.62,-104.97 843.59,-87.2 807.75,-76.04"/>
<polygon fill="#63b8ff" stroke="#63b8ff" points="808.94,-72.74 798.35,-73.11 806.86,-79.43 808.94,-72.74"/>
</a>
</g>
</g>
<!-- Node10&#45;&gt;Node3 -->
<g id="edge13_Node000010_Node000003" class="edge">
<title>Node10&#45;&gt;Node3</title>
<g id="a_edge13_Node000010_Node000003"><a xlink:title=" ">
<path fill="none" stroke="#63b8ff" d="M987.39,-115.68C1013.39,-105.54 1055.6,-89.08 1084.32,-77.89"/>
<polygon fill="#63b8ff" stroke="#63b8ff" points="1085.52,-81.17 1093.57,-74.28 1082.98,-74.65 1085.52,-81.17"/>
</a>
</g>
</g>
<!-- Node11 -->
<g id="Node000011" class="node">
<title>Node11</title>
<g id="a_Node000011"><a xlink:title=" ">
<polygon fill="#e0e0e0" stroke="#999999" points="1465.75,-74.5 1414.5,-74.5 1414.5,-55.25 1465.75,-55.25 1465.75,-74.5"/>
<text text-anchor="middle" x="1440.12" y="-61" font-family="Helvetica,sans-Serif" font-size="10.00">memory</text>
</a>
</g>
</g>
<!-- Node10&#45;&gt;Node11 -->
<g id="edge15_Node000010_Node000011" class="edge">
<title>Node10&#45;&gt;Node11</title>
<g id="a_edge15_Node000010_Node000011"><a xlink:title=" ">
<path fill="none" stroke="#63b8ff" d="M1049.36,-118.5C1136.21,-111.35 1274.92,-97.8 1403.04,-74.86"/>
<polygon fill="#63b8ff" stroke="#63b8ff" points="1403.51,-78.33 1412.73,-73.1 1402.26,-71.45 1403.51,-78.33"/>
</a>
</g>
</g>
<!-- Node12&#45;&gt;Node2 -->
<g id="edge19_Node000012_Node000002" class="edge">
<title>Node12&#45;&gt;Node2</title>
<g id="a_edge19_Node000012_Node000002"><a xlink:title=" ">
<path fill="none" stroke="#63b8ff" d="M582.25,-115.68C625.87,-104.42 699.7,-85.35 742.24,-74.37"/>
<polygon fill="#63b8ff" stroke="#63b8ff" points="743.09,-77.76 751.9,-71.87 741.34,-70.98 743.09,-77.76"/>
</a>
</g>
</g>
<!-- Node13 -->
<g id="Node000013" class="node">
<title>Node13</title>
<g id="a_Node000013"><a xlink:title=" ">
<polygon fill="#e0e0e0" stroke="#999999" points="543,-74.5 505.25,-74.5 505.25,-55.25 543,-55.25 543,-74.5"/>
<text text-anchor="middle" x="524.12" y="-61" font-family="Helvetica,sans-Serif" font-size="10.00">array</text>
</a>
</g>
</g>
<!-- Node12&#45;&gt;Node13 -->
<g id="edge17_Node000012_Node000013" class="edge">
<title>Node12&#45;&gt;Node13</title>
<g id="a_edge17_Node000012_Node000013"><a xlink:title=" ">
<path fill="none" stroke="#63b8ff" d="M543.63,-115.81C540.49,-107.77 535.77,-95.68 531.76,-85.41"/>
<polygon fill="#63b8ff" stroke="#63b8ff" points="535.1,-84.35 528.2,-76.31 528.58,-86.9 535.1,-84.35"/>
</a>
</g>
</g>
<!-- Node14 -->
<g id="Node000014" class="node">
<title>Node14</title>
<g id="a_Node000014"><a xlink:title=" ">
<polygon fill="#e0e0e0" stroke="#999999" points="604.88,-19.25 539.38,-19.25 539.38,0 604.88,0 604.88,-19.25"/>
<text text-anchor="middle" x="572.12" y="-5.75" font-family="Helvetica,sans-Serif" font-size="10.00">string_view</text>
</a>
</g>
</g>
<!-- Node12&#45;&gt;Node14 -->
<g id="edge18_Node000012_Node000014" class="edge">
<title>Node12&#45;&gt;Node14</title>
<g id="a_edge18_Node000012_Node000014"><a xlink:title=" ">
<path fill="none" stroke="#63b8ff" d="M549.09,-115.79C553.08,-97.54 562.26,-55.66 567.75,-30.6"/>
<polygon fill="#63b8ff" stroke="#63b8ff" points="571.13,-31.53 569.85,-21.02 564.29,-30.04 571.13,-31.53"/>
</a>
</g>
</g>
<!-- Node15 -->
<g id="Node000015" class="node">
<title>Node15</title>
<g id="a_Node000015"><a xlink:title=" ">
<polygon fill="#e0e0e0" stroke="#999999" points="749,-19.25 693.25,-19.25 693.25,0 749,0 749,-19.25"/>
<text text-anchor="middle" x="721.12" y="-5.75" font-family="Helvetica,sans-Serif" font-size="10.00">cinttypes</text>
</a>
</g>
</g>
<!-- Node12&#45;&gt;Node15 -->
<g id="edge20_Node000012_Node000015" class="edge">
<title>Node12&#45;&gt;Node15</title>
<g id="a_edge20_Node000012_Node000015"><a xlink:title=" ">
<path fill="none" stroke="#63b8ff" d="M592.35,-115.67C633.65,-106.48 690.57,-91.27 706.12,-74.5 716.92,-62.86 720.41,-44.97 721.34,-31.08"/>
<polygon fill="#63b8ff" stroke="#63b8ff" points="724.84,-31.34 721.59,-21.25 717.84,-31.16 724.84,-31.34"/>
</a>
</g>
</g>
<!-- Node16 -->
<g id="Node000016" class="node">
<title>Node16</title>
<g id="a_Node000016"><a xlink:href="../../d6/de9/Constants_8hpp.html" target="_top" xlink:title="Constants used by ArkScript.">
<polygon fill="white" stroke="#666666" points="697,-74.5 599.25,-74.5 599.25,-55.25 697,-55.25 697,-74.5"/>
<text text-anchor="middle" x="648.12" y="-61" font-family="Helvetica,sans-Serif" font-size="10.00">Ark/Constants.hpp</text>
</a>
</g>
</g>
<!-- Node12&#45;&gt;Node16 -->
<g id="edge21_Node000012_Node000016" class="edge">
<title>Node12&#45;&gt;Node16</title>
<g id="a_edge21_Node000012_Node000016"><a xlink:title=" ">
<path fill="none" stroke="#63b8ff" d="M562.46,-115.81C578.48,-106.47 603.87,-91.67 622.85,-80.61"/>
<polygon fill="#63b8ff" stroke="#63b8ff" points="624.46,-83.72 631.33,-75.66 620.93,-77.68 624.46,-83.72"/>
</a>
</g>
</g>
<!-- Node16&#45;&gt;Node14 -->
<g id="edge22_Node000016_Node000014" class="edge">
<title>Node16&#45;&gt;Node14</title>
<g id="a_edge22_Node000016_Node000014"><a xlink:title=" ">
<path fill="none" stroke="#63b8ff" d="M635.23,-54.84C624.1,-47.04 607.75,-35.59 594.49,-26.29"/>
<polygon fill="#63b8ff" stroke="#63b8ff" points="596.52,-23.44 586.32,-20.57 592.5,-29.18 596.52,-23.44"/>
</a>
</g>
</g>
<!-- Node16&#45;&gt;Node15 -->
<g id="edge23_Node000016_Node000015" class="edge">
<title>Node16&#45;&gt;Node15</title>
<g id="a_edge23_Node000016_Node000015"><a xlink:title=" ">
<path fill="none" stroke="#63b8ff" d="M660.51,-54.84C671.27,-46.99 687.1,-35.45 699.88,-26.12"/>
<polygon fill="#63b8ff" stroke="#63b8ff" points="701.69,-29.14 707.7,-20.42 697.56,-23.48 701.69,-29.14"/>
</a>
</g>
</g>
<!-- Node17 -->
<g id="Node000017" class="node">
<title>Node17</title>
<g id="a_Node000017"><a xlink:title=" ">
<polygon fill="#e0e0e0" stroke="#999999" points="672.25,-19.25 624,-19.25 624,0 672.25,0 672.25,-19.25"/>
<text text-anchor="middle" x="648.12" y="-5.75" font-family="Helvetica,sans-Serif" font-size="10.00">cstddef</text>
</a>
</g>
</g>
<!-- Node16&#45;&gt;Node17 -->
<g id="edge24_Node000016_Node000017" class="edge">
<title>Node16&#45;&gt;Node17</title>
<g id="a_edge24_Node000016_Node000017"><a xlink:title=" ">
<path fill="none" stroke="#63b8ff" d="M648.12,-55.08C648.12,-48.57 648.12,-39.42 648.12,-31.12"/>
<polygon fill="#63b8ff" stroke="#63b8ff" points="651.63,-31.12 648.13,-21.12 644.63,-31.12 651.63,-31.12"/>
</a>
</g>
</g>
<!-- Node18&#45;&gt;Node2 -->
<g id="edge32_Node000018_Node000002" class="edge">
<title>Node18&#45;&gt;Node2</title>
<g id="a_edge32_Node000018_Node000002"><a xlink:title=" ">
<path fill="none" stroke="#63b8ff" d="M429.96,-117.43C443.1,-115.14 457.71,-112.65 471.12,-110.5 569.51,-94.73 686.17,-78.22 742.06,-70.44"/>
<polygon fill="#63b8ff" stroke="#63b8ff" points="742.42,-73.92 751.85,-69.08 741.46,-66.99 742.42,-73.92"/>
</a>
</g>
</g>
<!-- Node18&#45;&gt;Node3 -->
<g id="edge29_Node000018_Node000003" class="edge">
<title>Node18&#45;&gt;Node3</title>
<g id="a_edge29_Node000018_Node000003"><a xlink:title=" ">
<path fill="none" stroke="#63b8ff" d="M429.88,-116.82C443,-114.49 457.64,-112.13 471.12,-110.5 705.11,-82.14 989.28,-70.26 1083.26,-66.92"/>
<polygon fill="#63b8ff" stroke="#63b8ff" points="1083.37,-70.42 1093.24,-66.58 1083.12,-63.42 1083.37,-70.42"/>
</a>
</g>
</g>
<!-- Node19 -->
<g id="Node000019" class="node">
<title>Node19</title>
<g id="a_Node000019"><a xlink:title=" ">
<polygon fill="#e0e0e0" stroke="#999999" points="336.88,-74.5 283.38,-74.5 283.38,-55.25 336.88,-55.25 336.88,-74.5"/>
<text text-anchor="middle" x="310.12" y="-61" font-family="Helvetica,sans-Serif" font-size="10.00">iostream</text>
</a>
</g>
</g>
<!-- Node18&#45;&gt;Node19 -->
<g id="edge27_Node000018_Node000019" class="edge">
<title>Node18&#45;&gt;Node19</title>
<g id="a_edge27_Node000018_Node000019"><a xlink:title=" ">
<path fill="none" stroke="#63b8ff" d="M377.13,-115.81C364.95,-106.73 345.84,-92.49 331.14,-81.54"/>
<polygon fill="#63b8ff" stroke="#63b8ff" points="333.56,-78.97 323.45,-75.81 329.38,-84.59 333.56,-78.97"/>
</a>
</g>
</g>
<!-- Node20 -->
<g id="Node000020" class="node">
<title>Node20</title>
<g id="a_Node000020"><a xlink:title=" ">
<polygon fill="#e0e0e0" stroke="#999999" points="423.75,-74.5 354.5,-74.5 354.5,-55.25 423.75,-55.25 423.75,-74.5"/>
<text text-anchor="middle" x="389.12" y="-61" font-family="Helvetica,sans-Serif" font-size="10.00">fmt/format.h</text>
</a>
</g>
</g>
<!-- Node18&#45;&gt;Node20 -->
<g id="edge28_Node000018_Node000020" class="edge">
<title>Node18&#45;&gt;Node20</title>
<g id="a_edge28_Node000018_Node000020"><a xlink:title=" ">
<path fill="none" stroke="#63b8ff" d="M389.12,-115.81C389.12,-108.03 389.12,-96.45 389.12,-86.41"/>
<polygon fill="#63b8ff" stroke="#63b8ff" points="392.63,-86.41 389.13,-76.41 385.63,-86.41 392.63,-86.41"/>
</a>
</g>
</g>
<!-- Node21 -->
<g id="Node000021" class="node">
<title>Node21</title>
<g id="a_Node000021"><a xlink:title=" ">
<polygon fill="#e0e0e0" stroke="#999999" points="486.75,-74.5 441.5,-74.5 441.5,-55.25 486.75,-55.25 486.75,-74.5"/>
<text text-anchor="middle" x="464.12" y="-61" font-family="Helvetica,sans-Serif" font-size="10.00">chrono</text>
</a>
</g>
</g>
<!-- Node18&#45;&gt;Node21 -->
<g id="edge30_Node000018_Node000021" class="edge">
<title>Node18&#45;&gt;Node21</title>
<g id="a_edge30_Node000018_Node000021"><a xlink:title=" ">
<path fill="none" stroke="#63b8ff" d="M400.52,-115.81C411.97,-106.82 429.87,-92.76 443.77,-81.85"/>
<polygon fill="#63b8ff" stroke="#63b8ff" points="445.73,-84.76 451.44,-75.84 441.41,-79.26 445.73,-84.76"/>
</a>
</g>
</g>
<!-- Node22 -->
<g id="Node000022" class="node">
<title>Node22</title>
<g id="a_Node000022"><a xlink:title=" ">
<polygon fill="#e0e0e0" stroke="#999999" points="84.25,-74.5 0,-74.5 0,-55.25 84.25,-55.25 84.25,-74.5"/>
<text text-anchor="middle" x="42.12" y="-61" font-family="Helvetica,sans-Serif" font-size="10.00">source_location</text>
</a>
</g>
</g>
<!-- Node18&#45;&gt;Node22 -->
<g id="edge31_Node000018_Node000022" class="edge">
<title>Node18&#45;&gt;Node22</title>
<g id="a_edge31_Node000018_Node000022"><a xlink:title=" ">
<path fill="none" stroke="#63b8ff" d="M348.3,-117.82C285.59,-107.18 165.53,-86.81 95.84,-74.99"/>
<polygon fill="#63b8ff" stroke="#63b8ff" points="96.63,-71.57 86.18,-73.35 95.46,-78.47 96.63,-71.57"/>
</a>
</g>
</g>
<!-- Node23 -->
<g id="Node000023" class="node">
<title>Node23</title>
<g id="a_Node000023"><a xlink:title=" ">
<polygon fill="#e0e0e0" stroke="#999999" points="185.5,-74.5 102.75,-74.5 102.75,-55.25 185.5,-55.25 185.5,-74.5"/>
<text text-anchor="middle" x="144.12" y="-61" font-family="Helvetica,sans-Serif" font-size="10.00">unordered_map</text>
</a>
</g>
</g>
<!-- Node18&#45;&gt;Node23 -->
<g id="edge33_Node000018_Node000023" class="edge">
<title>Node18&#45;&gt;Node23</title>
<g id="a_edge33_Node000018_Node000023"><a xlink:title=" ">
<path fill="none" stroke="#63b8ff" d="M351.38,-115.68C308.85,-105.46 239.58,-88.81 192.95,-77.61"/>
<polygon fill="#63b8ff" stroke="#63b8ff" points="193.92,-74.24 183.38,-75.31 192.29,-81.05 193.92,-74.24"/>
</a>
</g>
</g>
<!-- Node24 -->
<g id="Node000024" class="node">
<title>Node24</title>
<g id="a_Node000024"><a xlink:title=" ">
<polygon fill="#e0e0e0" stroke="#999999" points="265,-74.5 203.25,-74.5 203.25,-55.25 265,-55.25 265,-74.5"/>
<text text-anchor="middle" x="234.12" y="-61" font-family="Helvetica,sans-Serif" font-size="10.00">fmt/color.h</text>
</a>
</g>
</g>
<!-- Node18&#45;&gt;Node24 -->
<g id="edge34_Node000018_Node000024" class="edge">
<title>Node18&#45;&gt;Node24</title>
<g id="a_edge34_Node000018_Node000024"><a xlink:title=" ">
<path fill="none" stroke="#63b8ff" d="M365.25,-115.68C339.42,-105.87 298.01,-90.14 268.64,-78.98"/>
<polygon fill="#63b8ff" stroke="#63b8ff" points="270.04,-75.77 259.45,-75.49 267.55,-82.32 270.04,-75.77"/>
</a>
</g>
</g>
<!-- Node25&#45;&gt;Node2 -->
<g id="edge39_Node000025_Node000002" class="edge">
<title>Node25&#45;&gt;Node2</title>
<g id="a_edge39_Node000025_Node000002"><a xlink:title=" ">
<path fill="none" stroke="#63b8ff" d="M1294.41,-188.91C1174.53,-184.3 945.07,-171.66 870.12,-141 850.08,-132.8 849.1,-123.95 832.12,-110.5 819.94,-100.84 806.21,-90.09 795.29,-81.56"/>
<polygon fill="#63b8ff" stroke="#63b8ff" points="797.74,-79.04 787.71,-75.66 793.44,-84.56 797.74,-79.04"/>
</a>
</g>
</g>
<!-- Node25&#45;&gt;Node3 -->
<g id="edge36_Node000025_Node000003" class="edge">
<title>Node25&#45;&gt;Node3</title>
<g id="a_edge36_Node000025_Node000003"><a xlink:title=" ">
<path fill="none" stroke="#63b8ff" d="M1339.49,-176.62C1290.22,-152.3 1192.08,-103.86 1143.59,-79.92"/>
<polygon fill="#63b8ff" stroke="#63b8ff" points="1145.36,-76.89 1134.84,-75.61 1142.26,-83.17 1145.36,-76.89"/>
</a>
</g>
</g>
<!-- Node25&#45;&gt;Node11 -->
<g id="edge38_Node000025_Node000011" class="edge">
<title>Node25&#45;&gt;Node11</title>
<g id="a_edge38_Node000025_Node000011"><a xlink:title=" ">
<path fill="none" stroke="#63b8ff" d="M1443.86,-182.2C1469.11,-175.16 1494.77,-162.77 1510.12,-141 1517.94,-129.92 1516.64,-122.39 1510.12,-110.5 1502.74,-97.04 1489.38,-87.05 1476.3,-79.98"/>
<polygon fill="#63b8ff" stroke="#63b8ff" points="1477.87,-76.85 1467.35,-75.59 1474.78,-83.14 1477.87,-76.85"/>
</a>
</g>
</g>
<!-- Node26 -->
<g id="Node000026" class="node">
<title>Node26</title>
<g id="a_Node000026"><a xlink:title=" ">
<polygon fill="#e0e0e0" stroke="#999999" points="1541,-74.5 1491.25,-74.5 1491.25,-55.25 1541,-55.25 1541,-74.5"/>
<text text-anchor="middle" x="1516.12" y="-61" font-family="Helvetica,sans-Serif" font-size="10.00">optional</text>
</a>
</g>
</g>
<!-- Node25&#45;&gt;Node26 -->
<g id="edge37_Node000025_Node000026" class="edge">
<title>Node25&#45;&gt;Node26</title>
<g id="a_edge37_Node000025_Node000026"><a xlink:title=" ">
<path fill="none" stroke="#63b8ff" d="M1443.97,-186.31C1474.89,-180.12 1507.92,-167.25 1527.12,-141 1539.01,-124.75 1532.8,-101.14 1525.85,-84.75"/>
<polygon fill="#63b8ff" stroke="#63b8ff" points="1529.2,-83.66 1521.78,-76.1 1522.87,-86.64 1529.2,-83.66"/>
</a>
</g>
</g>
<!-- Node27 -->
<g id="Node000027" class="node">
<title>Node27</title>
<g id="a_Node000027"><a xlink:title=" ">
<polygon fill="#e0e0e0" stroke="#999999" points="1334.75,-135.38 1295.5,-135.38 1295.5,-116.12 1334.75,-116.12 1334.75,-135.38"/>
<text text-anchor="middle" x="1315.12" y="-121.88" font-family="Helvetica,sans-Serif" font-size="10.00">utility</text>
</a>
</g>
</g>
<!-- Node25&#45;&gt;Node27 -->
<g id="edge40_Node000025_Node000027" class="edge">
<title>Node25&#45;&gt;Node27</title>
<g id="a_edge40_Node000025_Node000027"><a xlink:title=" ">
<path fill="none" stroke="#63b8ff" d="M1356.87,-176.61C1348.85,-167.04 1338.33,-154.47 1329.86,-144.35"/>
<polygon fill="#63b8ff" stroke="#63b8ff" points="1332.59,-142.15 1323.48,-136.73 1327.22,-146.65 1332.59,-142.15"/>
</a>
</g>
</g>
<!-- Node28 -->
<g id="Node000028" class="node">
<title>Node28</title>
<g id="a_Node000028"><a xlink:href="../../df/db8/StaticScope_8hpp.html" target="_top" xlink:title="Static scopes (for functions, loops) and namespace scopes (for packages) definitions,...">
<polygon fill="white" stroke="#666666" points="1501.5,-141 1352.75,-141 1352.75,-110.5 1501.5,-110.5 1501.5,-141"/>
<text text-anchor="start" x="1360.75" y="-127.5" font-family="Helvetica,sans-Serif" font-size="10.00">Ark/Compiler/NameResolution</text>
<text text-anchor="middle" x="1427.12" y="-116.25" font-family="Helvetica,sans-Serif" font-size="10.00">/StaticScope.hpp</text>
</a>
</g>
</g>
<!-- Node25&#45;&gt;Node28 -->
<g id="edge41_Node000025_Node000028" class="edge">
<title>Node25&#45;&gt;Node28</title>
<g id="a_edge41_Node000025_Node000028"><a xlink:title=" ">
<path fill="none" stroke="#63b8ff" d="M1382.29,-176.61C1389.41,-168.7 1398.36,-158.74 1406.39,-149.8"/>
<polygon fill="#63b8ff" stroke="#63b8ff" points="1408.92,-152.23 1413,-142.45 1403.71,-147.55 1408.92,-152.23"/>
</a>
</g>
</g>
<!-- Node28&#45;&gt;Node2 -->
<g id="edge45_Node000028_Node000002" class="edge">
<title>Node28&#45;&gt;Node2</title>
<g id="a_edge45_Node000028_Node000002"><a xlink:title=" ">
<path fill="none" stroke="#63b8ff" d="M1352.52,-111.61C1349.69,-111.22 1346.88,-110.84 1344.12,-110.5 1141.28,-85.19 895.86,-71.69 808.2,-67.41"/>
<polygon fill="#63b8ff" stroke="#63b8ff" points="808.57,-63.92 798.42,-66.93 808.24,-70.91 808.57,-63.92"/>
</a>
</g>
</g>
<!-- Node28&#45;&gt;Node3 -->
<g id="edge42_Node000028_Node000003" class="edge">
<title>Node28&#45;&gt;Node3</title>
<g id="a_edge42_Node000028_Node000003"><a xlink:title=" ">
<path fill="none" stroke="#63b8ff" d="M1352.39,-110.65C1286.75,-98.26 1194.46,-80.85 1146.63,-71.82"/>
<polygon fill="#63b8ff" stroke="#63b8ff" points="1147.44,-68.41 1136.96,-70 1146.14,-75.29 1147.44,-68.41"/>
</a>
</g>
</g>
<!-- Node28&#45;&gt;Node4 -->
<g id="edge47_Node000028_Node000004" class="edge">
<title>Node28&#45;&gt;Node4</title>
<g id="a_edge47_Node000028_Node000004"><a xlink:title=" ">
<path fill="none" stroke="#63b8ff" d="M1470.58,-110.05C1499.16,-100.38 1536.18,-87.85 1563.49,-78.61"/>
<polygon fill="#63b8ff" stroke="#63b8ff" points="1564.4,-82 1572.75,-75.48 1562.16,-75.37 1564.4,-82"/>
</a>
</g>
</g>
<!-- Node28&#45;&gt;Node5 -->
<g id="edge48_Node000028_Node000005" class="edge">
<title>Node28&#45;&gt;Node5</title>
<g id="a_edge48_Node000028_Node000005"><a xlink:title=" ">
<path fill="none" stroke="#63b8ff" d="M1378.67,-110.05C1346.39,-100.25 1304.43,-87.52 1273.87,-78.24"/>
<polygon fill="#63b8ff" stroke="#63b8ff" points="1275.2,-74.99 1264.61,-75.43 1273.16,-81.68 1275.2,-74.99"/>
</a>
</g>
</g>
<!-- Node28&#45;&gt;Node11 -->
<g id="edge44_Node000028_Node000011" class="edge">
<title>Node28&#45;&gt;Node11</title>
<g id="a_edge44_Node000028_Node000011"><a xlink:title=" ">
<path fill="none" stroke="#63b8ff" d="M1430.34,-110.2C1431.94,-102.96 1433.9,-94.09 1435.64,-86.19"/>
<polygon fill="#63b8ff" stroke="#63b8ff" points="1439.06,-86.95 1437.79,-76.43 1432.22,-85.44 1439.06,-86.95"/>
</a>
</g>
</g>
<!-- Node28&#45;&gt;Node26 -->
<g id="edge43_Node000028_Node000026" class="edge">
<title>Node28&#45;&gt;Node26</title>
<g id="a_edge43_Node000028_Node000026"><a xlink:title=" ">
<path fill="none" stroke="#63b8ff" d="M1449.13,-110.2C1462.42,-101.4 1479.34,-90.21 1492.85,-81.27"/>
<polygon fill="#63b8ff" stroke="#63b8ff" points="1494.73,-84.22 1501.14,-75.79 1490.87,-78.38 1494.73,-84.22"/>
</a>
</g>
</g>
<!-- Node29 -->
<g id="Node000029" class="node">
<title>Node29</title>
<g id="a_Node000029"><a xlink:title=" ">
<polygon fill="#e0e0e0" stroke="#999999" points="1396.75,-74.5 1351.5,-74.5 1351.5,-55.25 1396.75,-55.25 1396.75,-74.5"/>
<text text-anchor="middle" x="1374.12" y="-61" font-family="Helvetica,sans-Serif" font-size="10.00">ranges</text>
</a>
</g>
</g>
<!-- Node28&#45;&gt;Node29 -->
<g id="edge46_Node000028_Node000029" class="edge">
<title>Node28&#45;&gt;Node29</title>
<g id="a_edge46_Node000028_Node000029"><a xlink:title=" ">
<path fill="none" stroke="#63b8ff" d="M1414.02,-110.2C1406.73,-102.09 1397.6,-91.95 1389.91,-83.41"/>
<polygon fill="#63b8ff" stroke="#63b8ff" points="1392.6,-81.17 1383.31,-76.08 1387.4,-85.85 1392.6,-81.17"/>
</a>
</g>
</g>
</g>
</svg>

<g id="navigator" transform="translate(0 0)" fill="#404254">
  <rect fill="#f2f5e9" fill-opacity="0.5" stroke="#606060" stroke-width=".5" x="0" y="0" width="60" height="60"/>
  <use id="zoomplus" xlink:href="#zoomPlus" x="17" y="9" onmousedown="handleZoom(evt,'in')"/>
  <use id="zoomminus" xlink:href="#zoomMin" x="42" y="9" onmousedown="handleZoom(evt,'out')"/>
  <use id="reset" xlink:href="#resetDef" x="30" y="36" onmousedown="handleReset()"/>
   <use id="arrowup" xlink:href="#arrowUp" x="0" y="0" onmousedown="handlePan(0,-1)"/>
  <use id="arrowright" xlink:href="#arrowRight" x="0" y="0" onmousedown="handlePan(1,0)"/>
  <use id="arrowdown" xlink:href="#arrowDown" x="0" y="0" onmousedown="handlePan(0,1)"/>
  <use id="arrowleft" xlink:href="#arrowLeft" x="0" y="0" onmousedown="handlePan(-1,0)"/>
</g>
<svg viewBox="0 0 15 15" width="100%" height="30px" preserveAspectRatio="xMaxYMin meet">
 <g id="arrow_out" transform="scale(0.3 0.3)">
  <a xlink:href="NameResolutionPass_8hpp__incl_org.svg" target="_base">
   <rect id="button" ry="5" rx="5" y="6" x="6" height="38" width="38"
        fill="#f2f5e9" fill-opacity="0.5" stroke="#606060" stroke-width="1.0"/>
   <path id="arrow"
     d="M 11.500037,31.436501 C 11.940474,20.09759 22.043105,11.32322 32.158766,21.979434 L 37.068811,17.246167 C 37.068811,17.246167 37.088388,32 37.088388,32 L 22.160133,31.978069 C 22.160133,31.978069 26.997745,27.140456 26.997745,27.140456 C 18.528582,18.264221 13.291696,25.230495 11.500037,31.436501 z"
     style="fill:#404040;"/>
  </a>
 </g>
</svg>

<style type='text/css'>
<![CDATA[
[data-mouse-over-selected='false'] { opacity: 0.7; }
[data-mouse-over-selected='true']  { opacity: 1.0; }
]]>
</style>
<script type="application/ecmascript"><![CDATA[
document.addEventListener('DOMContentLoaded', (event) => {
  highlightEdges();
  highlightAdjacentNodes();
});
]]></script>
</svg>
