<?xml version="1.0" encoding="UTF-8" standalone="no"?>
<!DOCTYPE svg PUBLIC "-//W3C//DTD SVG 1.1//EN"
 "http://www.w3.org/Graphics/SVG/1.1/DTD/svg11.dtd">
<!-- Generated by graphviz version 12.2.0 (20241103.1931)
 -->
<!-- Title: /Users/fola/Documents/ArkScript/Ark/include/Ark/TypeChecker.hpp Pages: 1 -->
<svg width="1373pt" height="227pt"
 viewBox="0.00 0.00 1373.12 226.75" xmlns="http://www.w3.org/2000/svg" xmlns:xlink="http://www.w3.org/1999/xlink">
<g id="graph0" class="graph" transform="scale(1 1) rotate(0) translate(4 222.75)">
<title>/Users/fola/Documents/ArkScript/Ark/include/Ark/TypeChecker.hpp</title>
<!-- Node1 -->
<g id="Node000001" class="node">
<title>Node1</title>
<g id="a_Node000001"><a xlink:title=" ">
<polygon fill="#999999" stroke="#666666" points="1201.12,-218.75 1083.88,-218.75 1083.88,-177 1201.12,-177 1201.12,-218.75"/>
<text text-anchor="start" x="1091.88" y="-205.25" font-family="Helvetica,sans-Serif" font-size="10.00">/Users/fola/Documents</text>
<text text-anchor="start" x="1091.88" y="-194" font-family="Helvetica,sans-Serif" font-size="10.00">/ArkScript/Ark/include</text>
<text text-anchor="middle" x="1142.5" y="-182.75" font-family="Helvetica,sans-Serif" font-size="10.00">/Ark/TypeChecker.hpp</text>
</a>
</g>
</g>
<!-- Node2 -->
<g id="Node000002" class="node">
<title>Node2</title>
<g id="a_Node000002"><a xlink:title=" ">
<polygon fill="#e0e0e0" stroke="#999999" points="958.5,-19.25 918.5,-19.25 918.5,0 958.5,0 958.5,-19.25"/>
<text text-anchor="middle" x="938.5" y="-5.75" font-family="Helvetica,sans-Serif" font-size="10.00">string</text>
</a>
</g>
</g>
<!-- Node1&#45;&gt;Node2 -->
<g id="edge1_Node000001_Node000002" class="edge">
<title>Node1&#45;&gt;Node2</title>
<g id="a_edge1_Node000001_Node000002"><a xlink:title=" ">
<path fill="none" stroke="#63b8ff" d="M1182.34,-176.72C1231.53,-149.27 1304.33,-98.58 1266.5,-55.25 1228.19,-11.37 1044.88,-9 970.24,-9.92"/>
<polygon fill="#63b8ff" stroke="#63b8ff" points="970.28,-6.42 960.34,-10.07 970.39,-13.42 970.28,-6.42"/>
</a>
</g>
</g>
<!-- Node3 -->
<g id="Node000003" class="node">
<title>Node3</title>
<g id="a_Node000003"><a xlink:title=" ">
<polygon fill="#e0e0e0" stroke="#999999" points="43,-19.25 0,-19.25 0,0 43,0 43,-19.25"/>
<text text-anchor="middle" x="21.5" y="-5.75" font-family="Helvetica,sans-Serif" font-size="10.00">vector</text>
</a>
</g>
</g>
<!-- Node1&#45;&gt;Node3 -->
<g id="edge2_Node000001_Node000003" class="edge">
<title>Node1&#45;&gt;Node3</title>
<g id="a_edge2_Node000001_Node000003"><a xlink:title=" ">
<path fill="none" stroke="#63b8ff" d="M1083.6,-195.72C861.18,-190.74 81.42,-167.52 10.5,-85.75 -2.69,-70.54 3.77,-46.73 11.14,-30.01"/>
<polygon fill="#63b8ff" stroke="#63b8ff" points="14.24,-31.63 15.48,-21.11 7.95,-28.56 14.24,-31.63"/>
</a>
</g>
</g>
<!-- Node4 -->
<g id="Node000004" class="node">
<title>Node4</title>
<g id="a_Node000004"><a xlink:title=" ">
<polygon fill="#e0e0e0" stroke="#999999" points="1257.12,-80.12 1205.88,-80.12 1205.88,-60.88 1257.12,-60.88 1257.12,-80.12"/>
<text text-anchor="middle" x="1231.5" y="-66.62" font-family="Helvetica,sans-Serif" font-size="10.00">ostream</text>
</a>
</g>
</g>
<!-- Node1&#45;&gt;Node4 -->
<g id="edge3_Node000001_Node000004" class="edge">
<title>Node1&#45;&gt;Node4</title>
<g id="a_edge3_Node000001_Node000004"><a xlink:title=" ">
<path fill="none" stroke="#63b8ff" d="M1156.8,-176.73C1173.84,-152.72 1202.08,-112.94 1218.52,-89.78"/>
<polygon fill="#63b8ff" stroke="#63b8ff" points="1221.35,-91.84 1224.29,-81.66 1215.64,-87.79 1221.35,-91.84"/>
</a>
</g>
</g>
<!-- Node5 -->
<g id="Node000005" class="node">
<title>Node5</title>
<g id="a_Node000005"><a xlink:title=" ">
<polygon fill="#e0e0e0" stroke="#999999" points="1365.12,-141 1313.88,-141 1313.88,-121.75 1365.12,-121.75 1365.12,-141"/>
<text text-anchor="middle" x="1339.5" y="-127.5" font-family="Helvetica,sans-Serif" font-size="10.00">sstream</text>
</a>
</g>
</g>
<!-- Node1&#45;&gt;Node5 -->
<g id="edge4_Node000001_Node000005" class="edge">
<title>Node1&#45;&gt;Node5</title>
<g id="a_edge4_Node000001_Node000005"><a xlink:title=" ">
<path fill="none" stroke="#63b8ff" d="M1201.61,-177.52C1234.52,-166.75 1274.47,-153.67 1302.88,-144.37"/>
<polygon fill="#63b8ff" stroke="#63b8ff" points="1303.68,-147.79 1312.1,-141.35 1301.5,-141.13 1303.68,-147.79"/>
</a>
</g>
</g>
<!-- Node6 -->
<g id="Node000006" class="node">
<title>Node6</title>
<g id="a_Node000006"><a xlink:href="../../d2/de9/Exceptions_8hpp.html" target="_top" xlink:title="ArkScript homemade exceptions.">
<polygon fill="white" stroke="#666666" points="1075.25,-141 973.75,-141 973.75,-121.75 1075.25,-121.75 1075.25,-141"/>
<text text-anchor="middle" x="1024.5" y="-127.5" font-family="Helvetica,sans-Serif" font-size="10.00">Ark/Exceptions.hpp</text>
</a>
</g>
</g>
<!-- Node1&#45;&gt;Node6 -->
<g id="edge5_Node000001_Node000006" class="edge">
<title>Node1&#45;&gt;Node6</title>
<g id="a_edge5_Node000001_Node000006"><a xlink:title=" ">
<path fill="none" stroke="#63b8ff" d="M1105.49,-176.64C1087.75,-166.95 1066.91,-155.56 1050.81,-146.76"/>
<polygon fill="#63b8ff" stroke="#63b8ff" points="1052.78,-143.85 1042.33,-142.12 1049.42,-149.99 1052.78,-143.85"/>
</a>
</g>
</g>
<!-- Node15 -->
<g id="Node000015" class="node">
<title>Node15</title>
<g id="a_Node000015"><a xlink:href="../../de/dfd/Value_8hpp.html" target="_top" xlink:title="Default value type handled by the virtual machine.">
<polygon fill="white" stroke="#666666" points="500.88,-141 406.12,-141 406.12,-121.75 500.88,-121.75 500.88,-141"/>
<text text-anchor="middle" x="453.5" y="-127.5" font-family="Helvetica,sans-Serif" font-size="10.00">Ark/VM/Value.hpp</text>
</a>
</g>
</g>
<!-- Node1&#45;&gt;Node15 -->
<g id="edge18_Node000001_Node000015" class="edge">
<title>Node1&#45;&gt;Node15</title>
<g id="a_edge18_Node000001_Node000015"><a xlink:title=" ">
<path fill="none" stroke="#63b8ff" d="M1083.46,-191.35C953.27,-179.16 642.79,-150.1 512.57,-137.91"/>
<polygon fill="#63b8ff" stroke="#63b8ff" points="513.07,-134.44 502.79,-136.99 512.42,-141.41 513.07,-134.44"/>
</a>
</g>
</g>
<!-- Node6&#45;&gt;Node2 -->
<g id="edge6_Node000006_Node000002" class="edge">
<title>Node6&#45;&gt;Node2</title>
<g id="a_edge6_Node000006_Node000002"><a xlink:title=" ">
<path fill="none" stroke="#63b8ff" d="M1054.42,-121.39C1071.47,-114.56 1091.39,-103.29 1101.5,-85.75 1108.27,-74 1109.72,-66.03 1101.5,-55.25 1085.64,-34.46 1012.85,-20.99 970.09,-14.72"/>
<polygon fill="#63b8ff" stroke="#63b8ff" points="970.79,-11.29 960.4,-13.36 969.81,-18.22 970.79,-11.29"/>
</a>
</g>
</g>
<!-- Node6&#45;&gt;Node3 -->
<g id="edge8_Node000006_Node000003" class="edge">
<title>Node6&#45;&gt;Node3</title>
<g id="a_edge8_Node000006_Node000003"><a xlink:title=" ">
<path fill="none" stroke="#63b8ff" d="M973.38,-128.89C822.41,-124.26 385.37,-108.98 325.5,-85.75 305.31,-77.92 307.28,-64.07 287.5,-55.25 197,-14.92 165.09,-36.38 67.5,-19.25 63.33,-18.52 58.96,-17.73 54.63,-16.93"/>
<polygon fill="#63b8ff" stroke="#63b8ff" points="55.44,-13.52 44.96,-15.13 54.15,-20.4 55.44,-13.52"/>
</a>
</g>
</g>
<!-- Node6&#45;&gt;Node4 -->
<g id="edge11_Node000006_Node000004" class="edge">
<title>Node6&#45;&gt;Node4</title>
<g id="a_edge11_Node000006_Node000004"><a xlink:title=" ">
<path fill="none" stroke="#63b8ff" d="M1066.59,-121.31C1101.93,-113.28 1153.55,-100.54 1197.5,-85.75 1198.48,-85.42 1199.48,-85.07 1200.48,-84.72"/>
<polygon fill="#63b8ff" stroke="#63b8ff" points="1201.71,-87.99 1209.77,-81.12 1199.19,-81.46 1201.71,-87.99"/>
</a>
</g>
</g>
<!-- Node7 -->
<g id="Node000007" class="node">
<title>Node7</title>
<g id="a_Node000007"><a xlink:title=" ">
<polygon fill="#e0e0e0" stroke="#999999" points="1188.12,-80.12 1148.88,-80.12 1148.88,-60.88 1188.12,-60.88 1188.12,-80.12"/>
<text text-anchor="middle" x="1168.5" y="-66.62" font-family="Helvetica,sans-Serif" font-size="10.00">utility</text>
</a>
</g>
</g>
<!-- Node6&#45;&gt;Node7 -->
<g id="edge7_Node000006_Node000007" class="edge">
<title>Node6&#45;&gt;Node7</title>
<g id="a_edge7_Node000006_Node000007"><a xlink:title=" ">
<path fill="none" stroke="#63b8ff" d="M1046.86,-121.39C1069.11,-112.43 1104.21,-98.24 1134.5,-85.75 1135.62,-85.29 1136.77,-84.81 1137.92,-84.33"/>
<polygon fill="#63b8ff" stroke="#63b8ff" points="1139.1,-87.64 1146.98,-80.56 1136.41,-81.18 1139.1,-87.64"/>
</a>
</g>
</g>
<!-- Node8 -->
<g id="Node000008" class="node">
<title>Node8</title>
<g id="a_Node000008"><a xlink:title=" ">
<polygon fill="#e0e0e0" stroke="#999999" points="1024.88,-80.12 966.12,-80.12 966.12,-60.88 1024.88,-60.88 1024.88,-80.12"/>
<text text-anchor="middle" x="995.5" y="-66.62" font-family="Helvetica,sans-Serif" font-size="10.00">stdexcept</text>
</a>
</g>
</g>
<!-- Node6&#45;&gt;Node8 -->
<g id="edge9_Node000006_Node000008" class="edge">
<title>Node6&#45;&gt;Node8</title>
<g id="a_edge9_Node000006_Node000008"><a xlink:title=" ">
<path fill="none" stroke="#63b8ff" d="M1020.1,-121.43C1016.09,-113.31 1010.05,-101.04 1004.96,-90.7"/>
<polygon fill="#63b8ff" stroke="#63b8ff" points="1008.17,-89.31 1000.61,-81.88 1001.89,-92.4 1008.17,-89.31"/>
</a>
</g>
</g>
<!-- Node9 -->
<g id="Node000009" class="node">
<title>Node9</title>
<g id="a_Node000009"><a xlink:title=" ">
<polygon fill="#e0e0e0" stroke="#999999" points="1092.38,-80.12 1042.62,-80.12 1042.62,-60.88 1092.38,-60.88 1092.38,-80.12"/>
<text text-anchor="middle" x="1067.5" y="-66.62" font-family="Helvetica,sans-Serif" font-size="10.00">optional</text>
</a>
</g>
</g>
<!-- Node6&#45;&gt;Node9 -->
<g id="edge10_Node000006_Node000009" class="edge">
<title>Node6&#45;&gt;Node9</title>
<g id="a_edge10_Node000006_Node000009"><a xlink:title=" ">
<path fill="none" stroke="#63b8ff" d="M1031.03,-121.43C1037.16,-113.05 1046.5,-100.26 1054.19,-89.72"/>
<polygon fill="#63b8ff" stroke="#63b8ff" points="1056.94,-91.89 1060.02,-81.75 1051.29,-87.76 1056.94,-91.89"/>
</a>
</g>
</g>
<!-- Node10 -->
<g id="Node000010" class="node">
<title>Node10</title>
<g id="a_Node000010"><a xlink:title=" ">
<polygon fill="#e0e0e0" stroke="#999999" points="619.25,-19.25 565.75,-19.25 565.75,0 619.25,0 619.25,-19.25"/>
<text text-anchor="middle" x="592.5" y="-5.75" font-family="Helvetica,sans-Serif" font-size="10.00">iostream</text>
</a>
</g>
</g>
<!-- Node6&#45;&gt;Node10 -->
<g id="edge12_Node000006_Node000010" class="edge">
<title>Node6&#45;&gt;Node10</title>
<g id="a_edge12_Node000006_Node000010"><a xlink:title=" ">
<path fill="none" stroke="#63b8ff" d="M973.43,-128.66C865.75,-124.55 623.16,-112.39 597.5,-85.75 583.71,-71.43 584.54,-47.61 587.49,-30.63"/>
<polygon fill="#63b8ff" stroke="#63b8ff" points="590.84,-31.7 589.51,-21.19 583.99,-30.24 590.84,-31.7"/>
</a>
</g>
</g>
<!-- Node11 -->
<g id="Node000011" class="node">
<title>Node11</title>
<g id="a_Node000011"><a xlink:href="../../db/d4e/utf8__char_8hpp.html" target="_top" xlink:title=" ">
<polygon fill="white" stroke="#666666" points="910,-85.75 795,-85.75 795,-55.25 910,-55.25 910,-85.75"/>
<text text-anchor="start" x="803" y="-72.25" font-family="Helvetica,sans-Serif" font-size="10.00">Ark/Compiler/AST/utf8</text>
<text text-anchor="middle" x="852.5" y="-61" font-family="Helvetica,sans-Serif" font-size="10.00">_char.hpp</text>
</a>
</g>
</g>
<!-- Node6&#45;&gt;Node11 -->
<g id="edge13_Node000006_Node000011" class="edge">
<title>Node6&#45;&gt;Node11</title>
<g id="a_edge13_Node000006_Node000011"><a xlink:title=" ">
<path fill="none" stroke="#63b8ff" d="M998,-121.3C973.56,-112.94 936.53,-100.26 905.95,-89.79"/>
<polygon fill="#63b8ff" stroke="#63b8ff" points="907.46,-86.61 896.86,-86.68 905.19,-93.23 907.46,-86.61"/>
</a>
</g>
</g>
<!-- Node14 -->
<g id="Node000014" class="node">
<title>Node14</title>
<g id="a_Node000014"><a xlink:href="../../d5/d40/Platform_8hpp.html" target="_top" xlink:title="ArkScript configuration macros.">
<polygon fill="white" stroke="#666666" points="547.25,-19.25 457.75,-19.25 457.75,0 547.25,0 547.25,-19.25"/>
<text text-anchor="middle" x="502.5" y="-5.75" font-family="Helvetica,sans-Serif" font-size="10.00">Ark/Platform.hpp</text>
</a>
</g>
</g>
<!-- Node6&#45;&gt;Node14 -->
<g id="edge17_Node000006_Node000014" class="edge">
<title>Node6&#45;&gt;Node14</title>
<g id="a_edge17_Node000006_Node000014"><a xlink:title=" ">
<path fill="none" stroke="#63b8ff" d="M973.47,-129.36C872.31,-126.67 650.17,-117.27 581.5,-85.75 553.76,-73.02 529.62,-46.52 515.56,-28.65"/>
<polygon fill="#63b8ff" stroke="#63b8ff" points="518.39,-26.59 509.56,-20.73 512.81,-30.81 518.39,-26.59"/>
</a>
</g>
</g>
<!-- Node11&#45;&gt;Node2 -->
<g id="edge15_Node000011_Node000002" class="edge">
<title>Node11&#45;&gt;Node2</title>
<g id="a_edge15_Node000011_Node000002"><a xlink:title=" ">
<path fill="none" stroke="#63b8ff" d="M873.76,-54.95C886.6,-46.15 902.95,-34.96 916.01,-26.02"/>
<polygon fill="#63b8ff" stroke="#63b8ff" points="917.72,-29.09 923.99,-20.56 913.76,-23.32 917.72,-29.09"/>
</a>
</g>
</g>
<!-- Node12 -->
<g id="Node000012" class="node">
<title>Node12</title>
<g id="a_Node000012"><a xlink:title=" ">
<polygon fill="#e0e0e0" stroke="#999999" points="799.38,-19.25 761.62,-19.25 761.62,0 799.38,0 799.38,-19.25"/>
<text text-anchor="middle" x="780.5" y="-5.75" font-family="Helvetica,sans-Serif" font-size="10.00">array</text>
</a>
</g>
</g>
<!-- Node11&#45;&gt;Node12 -->
<g id="edge14_Node000011_Node000012" class="edge">
<title>Node11&#45;&gt;Node12</title>
<g id="a_edge14_Node000011_Node000012"><a xlink:title=" ">
<path fill="none" stroke="#63b8ff" d="M834.7,-54.95C824.27,-46.41 811.06,-35.62 800.3,-26.81"/>
<polygon fill="#63b8ff" stroke="#63b8ff" points="802.73,-24.28 792.77,-20.66 798.3,-29.7 802.73,-24.28"/>
</a>
</g>
</g>
<!-- Node13 -->
<g id="Node000013" class="node">
<title>Node13</title>
<g id="a_Node000013"><a xlink:title=" ">
<polygon fill="#e0e0e0" stroke="#999999" points="872.12,-19.25 832.88,-19.25 832.88,0 872.12,0 872.12,-19.25"/>
<text text-anchor="middle" x="852.5" y="-5.75" font-family="Helvetica,sans-Serif" font-size="10.00">limits</text>
</a>
</g>
</g>
<!-- Node11&#45;&gt;Node13 -->
<g id="edge16_Node000011_Node000013" class="edge">
<title>Node11&#45;&gt;Node13</title>
<g id="a_edge16_Node000011_Node000013"><a xlink:title=" ">
<path fill="none" stroke="#63b8ff" d="M852.5,-54.95C852.5,-47.71 852.5,-38.84 852.5,-30.94"/>
<polygon fill="#63b8ff" stroke="#63b8ff" points="856,-31.21 852.5,-21.21 849,-31.21 856,-31.21"/>
</a>
</g>
</g>
<!-- Node15&#45;&gt;Node2 -->
<g id="edge21_Node000015_Node000002" class="edge">
<title>Node15&#45;&gt;Node2</title>
<g id="a_edge21_Node000015_Node000002"><a xlink:title=" ">
<path fill="none" stroke="#63b8ff" d="M501.13,-128.88C613.52,-124.93 888.2,-112.61 919.5,-85.75 935.03,-72.42 938.81,-48.4 939.32,-31.1"/>
<polygon fill="#63b8ff" stroke="#63b8ff" points="942.83,-31.19 939.24,-21.22 935.83,-31.25 942.83,-31.19"/>
</a>
</g>
</g>
<!-- Node15&#45;&gt;Node3 -->
<g id="edge19_Node000015_Node000003" class="edge">
<title>Node15&#45;&gt;Node3</title>
<g id="a_edge19_Node000015_Node000003"><a xlink:title=" ">
<path fill="none" stroke="#63b8ff" d="M405.91,-128.83C299.84,-124.92 51.33,-112.93 25.5,-85.75 11.74,-71.28 12.99,-47.3 16.23,-30.33"/>
<polygon fill="#63b8ff" stroke="#63b8ff" points="19.56,-31.45 18.41,-20.92 12.74,-29.87 19.56,-31.45"/>
</a>
</g>
</g>
<!-- Node15&#45;&gt;Node12 -->
<g id="edge23_Node000015_Node000012" class="edge">
<title>Node15&#45;&gt;Node12</title>
<g id="a_edge23_Node000015_Node000012"><a xlink:title=" ">
<path fill="none" stroke="#63b8ff" d="M501.24,-128.63C574.41,-125.05 709.8,-114.64 747.5,-85.75 764.79,-72.5 773.2,-48.28 777.17,-30.92"/>
<polygon fill="#63b8ff" stroke="#63b8ff" points="780.58,-31.72 779.05,-21.23 773.71,-30.38 780.58,-31.72"/>
</a>
</g>
</g>
<!-- Node15&#45;&gt;Node14 -->
<g id="edge36_Node000015_Node000014" class="edge">
<title>Node15&#45;&gt;Node14</title>
<g id="a_edge36_Node000015_Node000014"><a xlink:title=" ">
<path fill="none" stroke="#63b8ff" d="M460.94,-121.35C467.72,-112.71 477.56,-99.05 483.5,-85.75 491.46,-67.91 496.5,-46.14 499.38,-30.64"/>
<polygon fill="#63b8ff" stroke="#63b8ff" points="502.75,-31.68 500.98,-21.24 495.85,-30.51 502.75,-31.68"/>
</a>
</g>
</g>
<!-- Node16 -->
<g id="Node000016" class="node">
<title>Node16</title>
<g id="a_Node000016"><a xlink:title=" ">
<polygon fill="#e0e0e0" stroke="#999999" points="278.12,-80.12 232.88,-80.12 232.88,-60.88 278.12,-60.88 278.12,-80.12"/>
<text text-anchor="middle" x="255.5" y="-66.62" font-family="Helvetica,sans-Serif" font-size="10.00">variant</text>
</a>
</g>
</g>
<!-- Node15&#45;&gt;Node16 -->
<g id="edge20_Node000015_Node000016" class="edge">
<title>Node15&#45;&gt;Node16</title>
<g id="a_edge20_Node000015_Node000016"><a xlink:title=" ">
<path fill="none" stroke="#63b8ff" d="M416.75,-121.28C383.92,-112.89 334.64,-99.67 292.5,-85.75 291.18,-85.31 289.83,-84.86 288.47,-84.38"/>
<polygon fill="#63b8ff" stroke="#63b8ff" points="290.09,-81.25 279.49,-81.11 287.69,-87.82 290.09,-81.25"/>
</a>
</g>
</g>
<!-- Node17 -->
<g id="Node000017" class="node">
<title>Node17</title>
<g id="a_Node000017"><a xlink:title=" ">
<polygon fill="#e0e0e0" stroke="#999999" points="332.38,-19.25 276.62,-19.25 276.62,0 332.38,0 332.38,-19.25"/>
<text text-anchor="middle" x="304.5" y="-5.75" font-family="Helvetica,sans-Serif" font-size="10.00">cinttypes</text>
</a>
</g>
</g>
<!-- Node15&#45;&gt;Node17 -->
<g id="edge22_Node000015_Node000017" class="edge">
<title>Node15&#45;&gt;Node17</title>
<g id="a_edge22_Node000015_Node000017"><a xlink:title=" ">
<path fill="none" stroke="#63b8ff" d="M405.79,-128.05C345.31,-123.98 246.14,-113.21 223.5,-85.75 214.88,-75.29 216.6,-66.92 223.5,-55.25 232.81,-39.49 249.9,-28.91 265.99,-22.03"/>
<polygon fill="#63b8ff" stroke="#63b8ff" points="266.85,-25.45 274.91,-18.57 264.32,-18.93 266.85,-25.45"/>
</a>
</g>
</g>
<!-- Node18 -->
<g id="Node000018" class="node">
<title>Node18</title>
<g id="a_Node000018"><a xlink:href="../../dc/dd5/Closure_8hpp.html" target="_top" xlink:title="Subtype of the value type, handling closures.">
<polygon fill="white" stroke="#666666" points="738.25,-80.12 606.75,-80.12 606.75,-60.88 738.25,-60.88 738.25,-80.12"/>
<text text-anchor="middle" x="672.5" y="-66.62" font-family="Helvetica,sans-Serif" font-size="10.00">Ark/VM/Value/Closure.hpp</text>
</a>
</g>
</g>
<!-- Node15&#45;&gt;Node18 -->
<g id="edge24_Node000015_Node000018" class="edge">
<title>Node15&#45;&gt;Node18</title>
<g id="a_edge24_Node000015_Node000018"><a xlink:title=" ">
<path fill="none" stroke="#63b8ff" d="M487.24,-121.3C524.94,-111.17 586.13,-94.72 627.79,-83.52"/>
<polygon fill="#63b8ff" stroke="#63b8ff" points="628.51,-86.95 637.26,-80.97 626.7,-80.19 628.51,-86.95"/>
</a>
</g>
</g>
<!-- Node20 -->
<g id="Node000020" class="node">
<title>Node20</title>
<g id="a_Node000020"><a xlink:href="../../dc/d3d/UserType_8hpp.html" target="_top" xlink:title="Subtype of the value, capable of handling any C++ type.">
<polygon fill="white" stroke="#666666" points="474.38,-80.12 334.62,-80.12 334.62,-60.88 474.38,-60.88 474.38,-80.12"/>
<text text-anchor="middle" x="404.5" y="-66.62" font-family="Helvetica,sans-Serif" font-size="10.00">Ark/VM/Value/UserType.hpp</text>
</a>
</g>
</g>
<!-- Node15&#45;&gt;Node20 -->
<g id="edge29_Node000015_Node000020" class="edge">
<title>Node15&#45;&gt;Node20</title>
<g id="a_edge29_Node000015_Node000020"><a xlink:title=" ">
<path fill="none" stroke="#63b8ff" d="M446.06,-121.43C438.93,-112.87 427.99,-99.73 419.12,-89.07"/>
<polygon fill="#63b8ff" stroke="#63b8ff" points="422.07,-87.14 412.98,-81.69 416.69,-91.61 422.07,-87.14"/>
</a>
</g>
</g>
<!-- Node21 -->
<g id="Node000021" class="node">
<title>Node21</title>
<g id="a_Node000021"><a xlink:href="../../da/dcf/Procedure_8hpp.html" target="_top" xlink:title="Wrapper object for user&#45;defined functions.">
<polygon fill="white" stroke="#666666" points="176.5,-80.12 34.5,-80.12 34.5,-60.88 176.5,-60.88 176.5,-80.12"/>
<text text-anchor="middle" x="105.5" y="-66.62" font-family="Helvetica,sans-Serif" font-size="10.00">Ark/VM/Value/Procedure.hpp</text>
</a>
</g>
</g>
<!-- Node15&#45;&gt;Node21 -->
<g id="edge33_Node000015_Node000021" class="edge">
<title>Node15&#45;&gt;Node21</title>
<g id="a_edge33_Node000015_Node000021"><a xlink:title=" ">
<path fill="none" stroke="#63b8ff" d="M405.84,-122.31C344.83,-111.99 238.86,-94.06 170.49,-82.49"/>
<polygon fill="#63b8ff" stroke="#63b8ff" points="171.37,-79.09 160.92,-80.88 170.2,-86 171.37,-79.09"/>
</a>
</g>
</g>
<!-- Node18&#45;&gt;Node2 -->
<g id="edge27_Node000018_Node000002" class="edge">
<title>Node18&#45;&gt;Node2</title>
<g id="a_edge27_Node000018_Node000002"><a xlink:title=" ">
<path fill="none" stroke="#63b8ff" d="M713.48,-60.43C766.93,-48.6 859.27,-28.16 907.35,-17.52"/>
<polygon fill="#63b8ff" stroke="#63b8ff" points="907.81,-21 916.82,-15.42 906.3,-14.17 907.81,-21"/>
</a>
</g>
</g>
<!-- Node18&#45;&gt;Node10 -->
<g id="edge26_Node000018_Node000010" class="edge">
<title>Node18&#45;&gt;Node10</title>
<g id="a_edge26_Node000018_Node000010"><a xlink:title=" ">
<path fill="none" stroke="#63b8ff" d="M660.35,-60.56C648.02,-51.48 628.67,-37.24 613.78,-26.29"/>
<polygon fill="#63b8ff" stroke="#63b8ff" points="616.11,-23.66 605.98,-20.55 611.96,-29.29 616.11,-23.66"/>
</a>
</g>
</g>
<!-- Node18&#45;&gt;Node14 -->
<g id="edge28_Node000018_Node000014" class="edge">
<title>Node18&#45;&gt;Node14</title>
<g id="a_edge28_Node000018_Node000014"><a xlink:title=" ">
<path fill="none" stroke="#63b8ff" d="M646.31,-60.43C617.73,-50.53 571.76,-34.61 539.51,-23.44"/>
<polygon fill="#63b8ff" stroke="#63b8ff" points="540.74,-20.17 530.15,-20.2 538.45,-26.78 540.74,-20.17"/>
</a>
</g>
</g>
<!-- Node19 -->
<g id="Node000019" class="node">
<title>Node19</title>
<g id="a_Node000019"><a xlink:title=" ">
<polygon fill="#e0e0e0" stroke="#999999" points="698.12,-19.25 646.88,-19.25 646.88,0 698.12,0 698.12,-19.25"/>
<text text-anchor="middle" x="672.5" y="-5.75" font-family="Helvetica,sans-Serif" font-size="10.00">memory</text>
</a>
</g>
</g>
<!-- Node18&#45;&gt;Node19 -->
<g id="edge25_Node000018_Node000019" class="edge">
<title>Node18&#45;&gt;Node19</title>
<g id="a_edge25_Node000018_Node000019"><a xlink:title=" ">
<path fill="none" stroke="#63b8ff" d="M672.5,-60.56C672.5,-52.78 672.5,-41.2 672.5,-31.16"/>
<polygon fill="#63b8ff" stroke="#63b8ff" points="676,-31.16 672.5,-21.16 669,-31.16 676,-31.16"/>
</a>
</g>
</g>
<!-- Node20&#45;&gt;Node10 -->
<g id="edge30_Node000020_Node000010" class="edge">
<title>Node20&#45;&gt;Node10</title>
<g id="a_edge30_Node000020_Node000010"><a xlink:title=" ">
<path fill="none" stroke="#63b8ff" d="M433.46,-60.43C465.9,-50.27 518.6,-33.77 554.37,-22.57"/>
<polygon fill="#63b8ff" stroke="#63b8ff" points="555.4,-25.91 563.89,-19.58 553.3,-19.23 555.4,-25.91"/>
</a>
</g>
</g>
<!-- Node20&#45;&gt;Node14 -->
<g id="edge32_Node000020_Node000014" class="edge">
<title>Node20&#45;&gt;Node14</title>
<g id="a_edge32_Node000020_Node000014"><a xlink:title=" ">
<path fill="none" stroke="#63b8ff" d="M419.38,-60.56C434.85,-51.26 459.33,-36.56 477.72,-25.51"/>
<polygon fill="#63b8ff" stroke="#63b8ff" points="479.41,-28.58 486.18,-20.43 475.8,-22.58 479.41,-28.58"/>
</a>
</g>
</g>
<!-- Node20&#45;&gt;Node17 -->
<g id="edge31_Node000020_Node000017" class="edge">
<title>Node20&#45;&gt;Node17</title>
<g id="a_edge31_Node000020_Node000017"><a xlink:title=" ">
<path fill="none" stroke="#63b8ff" d="M389.31,-60.56C373.45,-51.22 348.32,-36.42 329.52,-25.36"/>
<polygon fill="#63b8ff" stroke="#63b8ff" points="331.53,-22.48 321.14,-20.42 327.98,-28.51 331.53,-22.48"/>
</a>
</g>
</g>
<!-- Node21&#45;&gt;Node3 -->
<g id="edge35_Node000021_Node000003" class="edge">
<title>Node21&#45;&gt;Node3</title>
<g id="a_edge35_Node000021_Node000003"><a xlink:title=" ">
<path fill="none" stroke="#63b8ff" d="M92.74,-60.56C79.67,-51.39 59.09,-36.97 43.4,-25.98"/>
<polygon fill="#63b8ff" stroke="#63b8ff" points="45.82,-23.39 35.62,-20.52 41.8,-29.13 45.82,-23.39"/>
</a>
</g>
</g>
<!-- Node22 -->
<g id="Node000022" class="node">
<title>Node22</title>
<g id="a_Node000022"><a xlink:title=" ">
<polygon fill="#e0e0e0" stroke="#999999" points="134.5,-19.25 76.5,-19.25 76.5,0 134.5,0 134.5,-19.25"/>
<text text-anchor="middle" x="105.5" y="-5.75" font-family="Helvetica,sans-Serif" font-size="10.00">functional</text>
</a>
</g>
</g>
<!-- Node21&#45;&gt;Node22 -->
<g id="edge34_Node000021_Node000022" class="edge">
<title>Node21&#45;&gt;Node22</title>
<g id="a_edge34_Node000021_Node000022"><a xlink:title=" ">
<path fill="none" stroke="#63b8ff" d="M105.5,-60.56C105.5,-52.78 105.5,-41.2 105.5,-31.16"/>
<polygon fill="#63b8ff" stroke="#63b8ff" points="109,-31.16 105.5,-21.16 102,-31.16 109,-31.16"/>
</a>
</g>
</g>
</g>
</svg>
