<?xml version="1.0" encoding="UTF-8" standalone="no"?>
<!DOCTYPE svg PUBLIC "-//W3C//DTD SVG 1.1//EN"
 "http://www.w3.org/Graphics/SVG/1.1/DTD/svg11.dtd">
<!-- Generated by graphviz version 12.2.0 (20241103.1931)
 -->
<!-- Title: /Users/fola/Documents/ArkScript/Ark/src/arkreactor/Error/Diagnostics.cpp Pages: 1 -->
<svg width="2024pt" height="337pt"
 viewBox="0.00 0.00 2023.62 337.25" xmlns="http://www.w3.org/2000/svg" xmlns:xlink="http://www.w3.org/1999/xlink">
<g id="graph0" class="graph" transform="scale(1 1) rotate(0) translate(4 333.25)">
<title>/Users/fola/Documents/ArkScript/Ark/src/arkreactor/Error/Diagnostics.cpp</title>
<!-- Node1 -->
<g id="Node000001" class="node">
<title>Node1</title>
<g id="a_Node000001"><a xlink:title=" ">
<polygon fill="#999999" stroke="#666666" points="1640.12,-329.25 1499.62,-329.25 1499.62,-287.5 1640.12,-287.5 1640.12,-329.25"/>
<text text-anchor="start" x="1507.62" y="-315.75" font-family="Helvetica,sans-Serif" font-size="10.00">/Users/fola/Documents</text>
<text text-anchor="start" x="1507.62" y="-304.5" font-family="Helvetica,sans-Serif" font-size="10.00">/ArkScript/Ark/src/arkreactor</text>
<text text-anchor="middle" x="1569.87" y="-293.25" font-family="Helvetica,sans-Serif" font-size="10.00">/Error/Diagnostics.cpp</text>
</a>
</g>
</g>
<!-- Node2 -->
<g id="Node000002" class="node">
<title>Node2</title>
<g id="a_Node000002"><a xlink:href="../../db/dfe/Diagnostics_8hpp.html" target="_top" xlink:title="Tools to report code errors nicely to the user.">
<polygon fill="white" stroke="#666666" points="327.12,-251.5 198.62,-251.5 198.62,-232.25 327.12,-232.25 327.12,-251.5"/>
<text text-anchor="middle" x="262.87" y="-238" font-family="Helvetica,sans-Serif" font-size="10.00">Ark/Error/Diagnostics.hpp</text>
</a>
</g>
</g>
<!-- Node1&#45;&gt;Node2 -->
<g id="edge1_Node000001_Node000002" class="edge">
<title>Node1&#45;&gt;Node2</title>
<g id="a_edge1_Node000001_Node000002"><a xlink:title=" ">
<path fill="none" stroke="#63b8ff" d="M1499.14,-303.88C1273.49,-292.75 571.93,-258.13 338.95,-246.63"/>
<polygon fill="#63b8ff" stroke="#63b8ff" points="339.22,-243.14 329.06,-246.14 338.88,-250.13 339.22,-243.14"/>
</a>
</g>
</g>
<!-- Node15 -->
<g id="Node000015" class="node">
<title>Node15</title>
<g id="a_Node000015"><a xlink:title=" ">
<polygon fill="#e0e0e0" stroke="#999999" points="1646,-251.5 1597.75,-251.5 1597.75,-232.25 1646,-232.25 1646,-251.5"/>
<text text-anchor="middle" x="1621.87" y="-238" font-family="Helvetica,sans-Serif" font-size="10.00">cassert</text>
</a>
</g>
</g>
<!-- Node1&#45;&gt;Node15 -->
<g id="edge23_Node000001_Node000015" class="edge">
<title>Node1&#45;&gt;Node15</title>
<g id="a_edge23_Node000001_Node000015"><a xlink:title=" ">
<path fill="none" stroke="#63b8ff" d="M1586.04,-287.32C1592.9,-278.81 1600.82,-268.98 1607.48,-260.73"/>
<polygon fill="#63b8ff" stroke="#63b8ff" points="1610.06,-263.11 1613.61,-253.12 1604.61,-258.71 1610.06,-263.11"/>
</a>
</g>
</g>
<!-- Node16 -->
<g id="Node000016" class="node">
<title>Node16</title>
<g id="a_Node000016"><a xlink:title=" ">
<polygon fill="#e0e0e0" stroke="#999999" points="1715.5,-251.5 1664.25,-251.5 1664.25,-232.25 1715.5,-232.25 1715.5,-251.5"/>
<text text-anchor="middle" x="1689.87" y="-238" font-family="Helvetica,sans-Serif" font-size="10.00">sstream</text>
</a>
</g>
</g>
<!-- Node1&#45;&gt;Node16 -->
<g id="edge24_Node000001_Node000016" class="edge">
<title>Node1&#45;&gt;Node16</title>
<g id="a_edge24_Node000001_Node000016"><a xlink:title=" ">
<path fill="none" stroke="#63b8ff" d="M1607.51,-287.14C1625.55,-277.45 1646.74,-266.06 1663.11,-257.26"/>
<polygon fill="#63b8ff" stroke="#63b8ff" points="1664.61,-260.43 1671.76,-252.61 1661.29,-254.26 1664.61,-260.43"/>
</a>
</g>
</g>
<!-- Node17 -->
<g id="Node000017" class="node">
<title>Node17</title>
<g id="a_Node000017"><a xlink:title=" ">
<polygon fill="#e0e0e0" stroke="#999999" points="1452.75,-74.5 1397,-74.5 1397,-55.25 1452.75,-55.25 1452.75,-74.5"/>
<text text-anchor="middle" x="1424.87" y="-61" font-family="Helvetica,sans-Serif" font-size="10.00">algorithm</text>
</a>
</g>
</g>
<!-- Node1&#45;&gt;Node17 -->
<g id="edge25_Node000001_Node000017" class="edge">
<title>Node1&#45;&gt;Node17</title>
<g id="a_edge25_Node000001_Node000017"><a xlink:title=" ">
<path fill="none" stroke="#63b8ff" d="M1566.14,-287.17C1557.59,-242.65 1535.57,-137.91 1512.87,-110.5 1500.11,-95.09 1480.69,-84.46 1463.33,-77.45"/>
<polygon fill="#63b8ff" stroke="#63b8ff" points="1464.88,-74.29 1454.28,-74.07 1462.43,-80.85 1464.88,-74.29"/>
</a>
</g>
</g>
<!-- Node18 -->
<g id="Node000018" class="node">
<title>Node18</title>
<g id="a_Node000018"><a xlink:title=" ">
<polygon fill="#e0e0e0" stroke="#999999" points="1795.75,-251.5 1734,-251.5 1734,-232.25 1795.75,-232.25 1795.75,-251.5"/>
<text text-anchor="middle" x="1764.87" y="-238" font-family="Helvetica,sans-Serif" font-size="10.00">fmt/color.h</text>
</a>
</g>
</g>
<!-- Node1&#45;&gt;Node18 -->
<g id="edge26_Node000001_Node000018" class="edge">
<title>Node1&#45;&gt;Node18</title>
<g id="a_edge26_Node000001_Node000018"><a xlink:title=" ">
<path fill="none" stroke="#63b8ff" d="M1631.3,-287.06C1662.6,-276.7 1699.68,-264.44 1726.81,-255.46"/>
<polygon fill="#63b8ff" stroke="#63b8ff" points="1727.59,-258.89 1735.99,-252.43 1725.39,-252.25 1727.59,-258.89"/>
</a>
</g>
</g>
<!-- Node19 -->
<g id="Node000019" class="node">
<title>Node19</title>
<g id="a_Node000019"><a xlink:title=" ">
<polygon fill="#e0e0e0" stroke="#999999" points="1890.25,-251.5 1813.5,-251.5 1813.5,-232.25 1890.25,-232.25 1890.25,-251.5"/>
<text text-anchor="middle" x="1851.87" y="-238" font-family="Helvetica,sans-Serif" font-size="10.00">fmt/ostream.h</text>
</a>
</g>
</g>
<!-- Node1&#45;&gt;Node19 -->
<g id="edge27_Node000001_Node000019" class="edge">
<title>Node1&#45;&gt;Node19</title>
<g id="a_edge27_Node000001_Node000019"><a xlink:title=" ">
<path fill="none" stroke="#63b8ff" d="M1640.3,-291.27C1690.58,-279.77 1756.98,-264.58 1801.88,-254.31"/>
<polygon fill="#63b8ff" stroke="#63b8ff" points="1802.65,-257.72 1811.62,-252.08 1801.09,-250.9 1802.65,-257.72"/>
</a>
</g>
</g>
<!-- Node20 -->
<g id="Node000020" class="node">
<title>Node20</title>
<g id="a_Node000020"><a xlink:href="../../d6/de9/Constants_8hpp.html" target="_top" xlink:title="Constants used by ArkScript.">
<polygon fill="white" stroke="#666666" points="1568.75,-74.5 1471,-74.5 1471,-55.25 1568.75,-55.25 1568.75,-74.5"/>
<text text-anchor="middle" x="1519.87" y="-61" font-family="Helvetica,sans-Serif" font-size="10.00">Ark/Constants.hpp</text>
</a>
</g>
</g>
<!-- Node1&#45;&gt;Node20 -->
<g id="edge28_Node000001_Node000020" class="edge">
<title>Node1&#45;&gt;Node20</title>
<g id="a_edge28_Node000001_Node000020"><a xlink:title=" ">
<path fill="none" stroke="#63b8ff" d="M1570.07,-287.23C1569.84,-250.92 1566.73,-172.51 1545.87,-110.5 1542.81,-101.39 1537.75,-92.08 1532.9,-84.33"/>
<polygon fill="#63b8ff" stroke="#63b8ff" points="1535.92,-82.56 1527.47,-76.17 1530.1,-86.44 1535.92,-82.56"/>
</a>
</g>
</g>
<!-- Node24 -->
<g id="Node000024" class="node">
<title>Node24</title>
<g id="a_Node000024"><a xlink:href="../../d3/d7a/Ark_2Utils_2Utils_8hpp.html" target="_top" xlink:title="Lots of utilities about string, filesystem and more.">
<polygon fill="white" stroke="#666666" points="1352,-135.38 1255.75,-135.38 1255.75,-116.12 1352,-116.12 1352,-135.38"/>
<text text-anchor="middle" x="1303.87" y="-121.88" font-family="Helvetica,sans-Serif" font-size="10.00">Ark/Utils/Utils.hpp</text>
</a>
</g>
</g>
<!-- Node1&#45;&gt;Node24 -->
<g id="edge33_Node000001_Node000024" class="edge">
<title>Node1&#45;&gt;Node24</title>
<g id="a_edge33_Node000001_Node000024"><a xlink:title=" ">
<path fill="none" stroke="#63b8ff" d="M1539.87,-287.01C1486.2,-250.56 1374.87,-174.96 1326.8,-142.32"/>
<polygon fill="#63b8ff" stroke="#63b8ff" points="1328.78,-139.43 1318.54,-136.71 1324.84,-145.22 1328.78,-139.43"/>
</a>
</g>
</g>
<!-- Node27 -->
<g id="Node000027" class="node">
<title>Node27</title>
<g id="a_Node000027"><a xlink:href="../../de/dee/Literals_8hpp.html" target="_top" xlink:title="User defined literals for Ark internals.">
<polygon fill="white" stroke="#666666" points="2015.62,-251.5 1908.12,-251.5 1908.12,-232.25 2015.62,-232.25 2015.62,-251.5"/>
<text text-anchor="middle" x="1961.87" y="-238" font-family="Helvetica,sans-Serif" font-size="10.00">Ark/Utils/Literals.hpp</text>
</a>
</g>
</g>
<!-- Node1&#45;&gt;Node27 -->
<g id="edge39_Node000001_Node000027" class="edge">
<title>Node1&#45;&gt;Node27</title>
<g id="a_edge39_Node000001_Node000027"><a xlink:title=" ">
<path fill="none" stroke="#63b8ff" d="M1640.41,-295.77C1713.22,-283.79 1825.89,-265.25 1896.68,-253.6"/>
<polygon fill="#63b8ff" stroke="#63b8ff" points="1896.87,-257.12 1906.17,-252.04 1895.74,-250.21 1896.87,-257.12"/>
</a>
</g>
</g>
<!-- Node28 -->
<g id="Node000028" class="node">
<title>Node28</title>
<g id="a_Node000028"><a xlink:href="../../d7/dc6/Node_8hpp.html" target="_top" xlink:title="AST node used by the parser, optimizer and compiler.">
<polygon fill="white" stroke="#666666" points="1034.12,-196.25 893.62,-196.25 893.62,-177 1034.12,-177 1034.12,-196.25"/>
<text text-anchor="middle" x="963.87" y="-182.75" font-family="Helvetica,sans-Serif" font-size="10.00">Ark/Compiler/AST/Node.hpp</text>
</a>
</g>
</g>
<!-- Node1&#45;&gt;Node28 -->
<g id="edge40_Node000001_Node000028" class="edge">
<title>Node1&#45;&gt;Node28</title>
<g id="a_edge40_Node000001_Node000028"><a xlink:title=" ">
<path fill="none" stroke="#63b8ff" d="M1499.17,-293.4C1377.82,-269.43 1132.26,-220.9 1020.98,-198.91"/>
<polygon fill="#63b8ff" stroke="#63b8ff" points="1021.97,-195.54 1011.48,-197.03 1020.62,-202.41 1021.97,-195.54"/>
</a>
</g>
</g>
<!-- Node34 -->
<g id="Node000034" class="node">
<title>Node34</title>
<g id="a_Node000034"><a xlink:href="../../de/d68/PrettyPrinting_8hpp.html" target="_top" xlink:title="Pretty printing utilities for diagnostics.">
<polygon fill="white" stroke="#666666" points="585.87,-135.38 449.87,-135.38 449.87,-116.12 585.87,-116.12 585.87,-135.38"/>
<text text-anchor="middle" x="517.87" y="-121.88" font-family="Helvetica,sans-Serif" font-size="10.00">Ark/Error/PrettyPrinting.hpp</text>
</a>
</g>
</g>
<!-- Node1&#45;&gt;Node34 -->
<g id="edge58_Node000001_Node000034" class="edge">
<title>Node1&#45;&gt;Node34</title>
<g id="a_edge58_Node000001_Node000034"><a xlink:title=" ">
<path fill="none" stroke="#63b8ff" d="M1499.22,-297.65C1423.01,-287.01 1298.18,-269.09 1190.87,-251.5 1054.49,-229.14 1020.77,-221.39 884.87,-196.25 775.77,-176.07 648.57,-151.82 576.2,-137.95"/>
<polygon fill="#63b8ff" stroke="#63b8ff" points="577.03,-134.55 566.55,-136.11 575.71,-141.43 577.03,-134.55"/>
</a>
</g>
</g>
<!-- Node3 -->
<g id="Node000003" class="node">
<title>Node3</title>
<g id="a_Node000003"><a xlink:title=" ">
<polygon fill="#e0e0e0" stroke="#999999" points="766.87,-74.5 726.87,-74.5 726.87,-55.25 766.87,-55.25 766.87,-74.5"/>
<text text-anchor="middle" x="746.87" y="-61" font-family="Helvetica,sans-Serif" font-size="10.00">string</text>
</a>
</g>
</g>
<!-- Node2&#45;&gt;Node3 -->
<g id="edge2_Node000002_Node000003" class="edge">
<title>Node2&#45;&gt;Node3</title>
<g id="a_edge2_Node000002_Node000003"><a xlink:title=" ">
<path fill="none" stroke="#63b8ff" d="M327.53,-238.34C417.99,-233.89 576.95,-222.52 627.87,-196.25 678.1,-170.33 717.72,-114.09 735.95,-84.67"/>
<polygon fill="#63b8ff" stroke="#63b8ff" points="738.93,-86.5 741.08,-76.12 732.93,-82.89 738.93,-86.5"/>
</a>
</g>
</g>
<!-- Node4 -->
<g id="Node000004" class="node">
<title>Node4</title>
<g id="a_Node000004"><a xlink:title=" ">
<polygon fill="#e0e0e0" stroke="#999999" points="234.75,-19.25 185,-19.25 185,0 234.75,0 234.75,-19.25"/>
<text text-anchor="middle" x="209.87" y="-5.75" font-family="Helvetica,sans-Serif" font-size="10.00">optional</text>
</a>
</g>
</g>
<!-- Node2&#45;&gt;Node4 -->
<g id="edge3_Node000002_Node000004" class="edge">
<title>Node2&#45;&gt;Node4</title>
<g id="a_edge3_Node000002_Node000004"><a xlink:title=" ">
<path fill="none" stroke="#63b8ff" d="M198.28,-234.77C139.33,-228.09 57.59,-215.65 31.87,-196.25 9.89,-179.67 10.27,-167.78 3.87,-141 -5.51,-101.73 1.99,-80.03 33.87,-55.25 74.49,-23.67 134.86,-14.22 173.29,-11.52"/>
<polygon fill="#63b8ff" stroke="#63b8ff" points="173.4,-15.02 183.19,-10.95 173,-8.03 173.4,-15.02"/>
</a>
</g>
</g>
<!-- Node5 -->
<g id="Node000005" class="node">
<title>Node5</title>
<g id="a_Node000005"><a xlink:title=" ">
<polygon fill="#e0e0e0" stroke="#999999" points="181.62,-196.25 128.12,-196.25 128.12,-177 181.62,-177 181.62,-196.25"/>
<text text-anchor="middle" x="154.87" y="-182.75" font-family="Helvetica,sans-Serif" font-size="10.00">iostream</text>
</a>
</g>
</g>
<!-- Node2&#45;&gt;Node5 -->
<g id="edge4_Node000002_Node000005" class="edge">
<title>Node2&#45;&gt;Node5</title>
<g id="a_edge4_Node000002_Node000005"><a xlink:title=" ">
<path fill="none" stroke="#63b8ff" d="M244.55,-231.84C227.79,-223.58 202.74,-211.23 183.37,-201.68"/>
<polygon fill="#63b8ff" stroke="#63b8ff" points="185.16,-198.65 174.64,-197.37 182.06,-204.93 185.16,-198.65"/>
</a>
</g>
</g>
<!-- Node6 -->
<g id="Node000006" class="node">
<title>Node6</title>
<g id="a_Node000006"><a xlink:href="../../d5/d40/Platform_8hpp.html" target="_top" xlink:title="ArkScript configuration macros.">
<polygon fill="white" stroke="#666666" points="562.25,-19.25 449.5,-19.25 449.5,0 562.25,0 562.25,-19.25"/>
<text text-anchor="middle" x="505.87" y="-5.75" font-family="Helvetica,sans-Serif" font-size="10.00">Ark/Utils/Platform.hpp</text>
</a>
</g>
</g>
<!-- Node2&#45;&gt;Node6 -->
<g id="edge5_Node000002_Node000006" class="edge">
<title>Node2&#45;&gt;Node6</title>
<g id="a_edge5_Node000002_Node000006"><a xlink:title=" ">
<path fill="none" stroke="#63b8ff" d="M321.15,-231.8C407.33,-217.07 562.1,-185.08 594.87,-141 617.61,-110.42 614.89,-87.68 594.87,-55.25 585.8,-40.55 570.25,-30.53 554.65,-23.77"/>
<polygon fill="#63b8ff" stroke="#63b8ff" points="555.93,-20.51 545.35,-20.14 553.39,-27.03 555.93,-20.51"/>
</a>
</g>
</g>
<!-- Node7 -->
<g id="Node000007" class="node">
<title>Node7</title>
<g id="a_Node000007"><a xlink:href="../../dc/d58/Position_8hpp.html" target="_top" xlink:title="Defines position utilities (for text in a file) for the parser, formatter, diagnostics.">
<polygon fill="white" stroke="#666666" points="389.5,-74.5 278.25,-74.5 278.25,-55.25 389.5,-55.25 389.5,-74.5"/>
<text text-anchor="middle" x="333.87" y="-61" font-family="Helvetica,sans-Serif" font-size="10.00">Ark/Utils/Position.hpp</text>
</a>
</g>
</g>
<!-- Node2&#45;&gt;Node7 -->
<g id="edge6_Node000002_Node000007" class="edge">
<title>Node2&#45;&gt;Node7</title>
<g id="a_edge6_Node000002_Node000007"><a xlink:title=" ">
<path fill="none" stroke="#63b8ff" d="M203.17,-231.77C113.57,-215.7 -39.31,-177.5 18.87,-110.5 50.3,-74.3 183.94,-66.68 266.72,-65.52"/>
<polygon fill="#63b8ff" stroke="#63b8ff" points="266.58,-69.02 276.54,-65.41 266.5,-62.02 266.58,-69.02"/>
</a>
</g>
</g>
<!-- Node8 -->
<g id="Node000008" class="node">
<title>Node8</title>
<g id="a_Node000008"><a xlink:href="../../d2/de9/Exceptions_8hpp.html" target="_top" xlink:title="ArkScript homemade exceptions.">
<polygon fill="white" stroke="#666666" points="325.62,-196.25 200.12,-196.25 200.12,-177 325.62,-177 325.62,-196.25"/>
<text text-anchor="middle" x="262.87" y="-182.75" font-family="Helvetica,sans-Serif" font-size="10.00">Ark/Error/Exceptions.hpp</text>
</a>
</g>
</g>
<!-- Node2&#45;&gt;Node8 -->
<g id="edge9_Node000002_Node000008" class="edge">
<title>Node2&#45;&gt;Node8</title>
<g id="a_edge9_Node000002_Node000008"><a xlink:title=" ">
<path fill="none" stroke="#63b8ff" d="M262.87,-232.08C262.87,-225.57 262.87,-216.42 262.87,-208.12"/>
<polygon fill="#63b8ff" stroke="#63b8ff" points="266.37,-208.12 262.87,-198.12 259.37,-208.12 266.37,-208.12"/>
</a>
</g>
</g>
<!-- Node7&#45;&gt;Node4 -->
<g id="edge7_Node000007_Node000004" class="edge">
<title>Node7&#45;&gt;Node4</title>
<g id="a_edge7_Node000007_Node000004"><a xlink:title=" ">
<path fill="none" stroke="#63b8ff" d="M312.84,-54.84C293.24,-46.43 263.76,-33.77 241.36,-24.15"/>
<polygon fill="#63b8ff" stroke="#63b8ff" points="242.97,-21.03 232.4,-20.3 240.21,-27.46 242.97,-21.03"/>
</a>
</g>
</g>
<!-- Node7&#45;&gt;Node6 -->
<g id="edge8_Node000007_Node000006" class="edge">
<title>Node7&#45;&gt;Node6</title>
<g id="a_edge8_Node000007_Node000006"><a xlink:title=" ">
<path fill="none" stroke="#63b8ff" d="M363.05,-54.84C391.34,-46.08 434.49,-32.73 465.95,-22.98"/>
<polygon fill="#63b8ff" stroke="#63b8ff" points="466.59,-26.45 475.1,-20.15 464.52,-19.76 466.59,-26.45"/>
</a>
</g>
</g>
<!-- Node8&#45;&gt;Node3 -->
<g id="edge10_Node000008_Node000003" class="edge">
<title>Node8&#45;&gt;Node3</title>
<g id="a_edge10_Node000008_Node000003"><a xlink:title=" ">
<path fill="none" stroke="#63b8ff" d="M325.96,-183.23C393.73,-179.27 503.93,-168.77 594.87,-141 642.76,-126.38 694.12,-98.02 723.19,-80.63"/>
<polygon fill="#63b8ff" stroke="#63b8ff" points="724.82,-83.74 731.56,-75.56 721.19,-77.75 724.82,-83.74"/>
</a>
</g>
</g>
<!-- Node8&#45;&gt;Node4 -->
<g id="edge13_Node000008_Node000004" class="edge">
<title>Node8&#45;&gt;Node4</title>
<g id="a_edge13_Node000008_Node000004"><a xlink:title=" ">
<path fill="none" stroke="#63b8ff" d="M202.29,-176.52C131.97,-165.66 24.77,-148.08 18.87,-141 -31.19,-80.95 105.43,-36.82 173.69,-19.13"/>
<polygon fill="#63b8ff" stroke="#63b8ff" points="174.49,-22.54 183.33,-16.7 172.78,-15.75 174.49,-22.54"/>
</a>
</g>
</g>
<!-- Node8&#45;&gt;Node6 -->
<g id="edge18_Node000008_Node000006" class="edge">
<title>Node8&#45;&gt;Node6</title>
<g id="a_edge18_Node000008_Node000006"><a xlink:title=" ">
<path fill="none" stroke="#63b8ff" d="M259.75,-176.72C252.08,-153.01 235.25,-87.95 268.87,-55.25 292.5,-32.27 376.71,-20.68 438.05,-15.16"/>
<polygon fill="#63b8ff" stroke="#63b8ff" points="438.05,-18.67 447.71,-14.32 437.45,-11.69 438.05,-18.67"/>
</a>
</g>
</g>
<!-- Node9 -->
<g id="Node000009" class="node">
<title>Node9</title>
<g id="a_Node000009"><a xlink:title=" ">
<polygon fill="#e0e0e0" stroke="#999999" points="67.5,-135.38 28.25,-135.38 28.25,-116.12 67.5,-116.12 67.5,-135.38"/>
<text text-anchor="middle" x="47.87" y="-121.88" font-family="Helvetica,sans-Serif" font-size="10.00">utility</text>
</a>
</g>
</g>
<!-- Node8&#45;&gt;Node9 -->
<g id="edge11_Node000008_Node000009" class="edge">
<title>Node8&#45;&gt;Node9</title>
<g id="a_edge11_Node000008_Node000009"><a xlink:title=" ">
<path fill="none" stroke="#63b8ff" d="M211.86,-176.55C173.98,-169.06 121.39,-157.05 76.87,-141 76.24,-140.77 75.61,-140.54 74.98,-140.29"/>
<polygon fill="#63b8ff" stroke="#63b8ff" points="76.72,-137.24 66.16,-136.44 73.92,-143.65 76.72,-137.24"/>
</a>
</g>
</g>
<!-- Node10 -->
<g id="Node000010" class="node">
<title>Node10</title>
<g id="a_Node000010"><a xlink:title=" ">
<polygon fill="#e0e0e0" stroke="#999999" points="144.25,-135.38 85.5,-135.38 85.5,-116.12 144.25,-116.12 144.25,-135.38"/>
<text text-anchor="middle" x="114.87" y="-121.88" font-family="Helvetica,sans-Serif" font-size="10.00">stdexcept</text>
</a>
</g>
</g>
<!-- Node8&#45;&gt;Node10 -->
<g id="edge12_Node000008_Node000010" class="edge">
<title>Node8&#45;&gt;Node10</title>
<g id="a_edge12_Node000008_Node000010"><a xlink:title=" ">
<path fill="none" stroke="#63b8ff" d="M240.07,-176.55C215.45,-166.76 175.99,-151.06 147.95,-139.91"/>
<polygon fill="#63b8ff" stroke="#63b8ff" points="149.45,-136.74 138.86,-136.29 146.86,-143.24 149.45,-136.74"/>
</a>
</g>
</g>
<!-- Node11 -->
<g id="Node000011" class="node">
<title>Node11</title>
<g id="a_Node000011"><a xlink:href="../../db/d4e/utf8__char_8hpp.html" target="_top" xlink:title=" ">
<polygon fill="white" stroke="#666666" points="909.37,-141 794.37,-141 794.37,-110.5 909.37,-110.5 909.37,-141"/>
<text text-anchor="start" x="802.37" y="-127.5" font-family="Helvetica,sans-Serif" font-size="10.00">Ark/Compiler/AST/utf8</text>
<text text-anchor="middle" x="851.87" y="-116.25" font-family="Helvetica,sans-Serif" font-size="10.00">_char.hpp</text>
</a>
</g>
</g>
<!-- Node8&#45;&gt;Node11 -->
<g id="edge14_Node000008_Node000011" class="edge">
<title>Node8&#45;&gt;Node11</title>
<g id="a_edge14_Node000008_Node000011"><a xlink:title=" ">
<path fill="none" stroke="#63b8ff" d="M325.9,-179.32C437.2,-168.2 667.63,-145.17 782.96,-133.64"/>
<polygon fill="#63b8ff" stroke="#63b8ff" points="782.99,-137.15 792.59,-132.68 782.29,-130.19 782.99,-137.15"/>
</a>
</g>
</g>
<!-- Node14 -->
<g id="Node000014" class="node">
<title>Node14</title>
<g id="a_Node000014"><a xlink:href="../../dc/d73/CodeErrorContext_8hpp.html" target="_top" xlink:title="Defines a code error context.">
<polygon fill="white" stroke="#666666" points="431.62,-135.38 276.12,-135.38 276.12,-116.12 431.62,-116.12 431.62,-135.38"/>
<text text-anchor="middle" x="353.87" y="-121.88" font-family="Helvetica,sans-Serif" font-size="10.00">Ark/Error/CodeErrorContext.hpp</text>
</a>
</g>
</g>
<!-- Node8&#45;&gt;Node14 -->
<g id="edge19_Node000008_Node000014" class="edge">
<title>Node8&#45;&gt;Node14</title>
<g id="a_edge19_Node000008_Node000014"><a xlink:title=" ">
<path fill="none" stroke="#63b8ff" d="M276.69,-176.68C290.99,-167.43 313.57,-152.82 330.62,-141.79"/>
<polygon fill="#63b8ff" stroke="#63b8ff" points="332.15,-144.97 338.65,-136.6 328.35,-139.09 332.15,-144.97"/>
</a>
</g>
</g>
<!-- Node11&#45;&gt;Node3 -->
<g id="edge16_Node000011_Node000003" class="edge">
<title>Node11&#45;&gt;Node3</title>
<g id="a_edge16_Node000011_Node000003"><a xlink:title=" ">
<path fill="none" stroke="#63b8ff" d="M825.65,-110.05C809.5,-100.99 788.89,-89.44 772.8,-80.41"/>
<polygon fill="#63b8ff" stroke="#63b8ff" points="774.73,-77.48 764.29,-75.64 771.3,-83.59 774.73,-77.48"/>
</a>
</g>
</g>
<!-- Node12 -->
<g id="Node000012" class="node">
<title>Node12</title>
<g id="a_Node000012"><a xlink:title=" ">
<polygon fill="#e0e0e0" stroke="#999999" points="1279.75,-74.5 1242,-74.5 1242,-55.25 1279.75,-55.25 1279.75,-74.5"/>
<text text-anchor="middle" x="1260.87" y="-61" font-family="Helvetica,sans-Serif" font-size="10.00">array</text>
</a>
</g>
</g>
<!-- Node11&#45;&gt;Node12 -->
<g id="edge15_Node000011_Node000012" class="edge">
<title>Node11&#45;&gt;Node12</title>
<g id="a_edge15_Node000011_Node000012"><a xlink:title=" ">
<path fill="none" stroke="#63b8ff" d="M909.6,-116.44C997.68,-103.76 1162.52,-80.03 1230.44,-70.26"/>
<polygon fill="#63b8ff" stroke="#63b8ff" points="1230.68,-73.76 1240.08,-68.87 1229.69,-66.83 1230.68,-73.76"/>
</a>
</g>
</g>
<!-- Node13 -->
<g id="Node000013" class="node">
<title>Node13</title>
<g id="a_Node000013"><a xlink:title=" ">
<polygon fill="#e0e0e0" stroke="#999999" points="1106.5,-19.25 1067.25,-19.25 1067.25,0 1106.5,0 1106.5,-19.25"/>
<text text-anchor="middle" x="1086.87" y="-5.75" font-family="Helvetica,sans-Serif" font-size="10.00">limits</text>
</a>
</g>
</g>
<!-- Node11&#45;&gt;Node13 -->
<g id="edge17_Node000011_Node000013" class="edge">
<title>Node11&#45;&gt;Node13</title>
<g id="a_edge17_Node000011_Node000013"><a xlink:title=" ">
<path fill="none" stroke="#63b8ff" d="M882.11,-110.06C927.69,-87.93 1013.4,-46.3 1058.1,-24.6"/>
<polygon fill="#63b8ff" stroke="#63b8ff" points="1059.45,-27.83 1066.91,-20.32 1056.39,-21.54 1059.45,-27.83"/>
</a>
</g>
</g>
<!-- Node14&#45;&gt;Node3 -->
<g id="edge20_Node000014_Node000003" class="edge">
<title>Node14&#45;&gt;Node3</title>
<g id="a_edge20_Node000014_Node000003"><a xlink:title=" ">
<path fill="none" stroke="#63b8ff" d="M408.61,-115.63C419.3,-113.9 430.43,-112.12 440.87,-110.5 540.96,-95.01 659.71,-78.11 715.27,-70.3"/>
<polygon fill="#63b8ff" stroke="#63b8ff" points="715.53,-73.8 724.94,-68.94 714.55,-66.86 715.53,-73.8"/>
</a>
</g>
</g>
<!-- Node14&#45;&gt;Node6 -->
<g id="edge21_Node000014_Node000006" class="edge">
<title>Node14&#45;&gt;Node6</title>
<g id="a_edge21_Node000014_Node000006"><a xlink:title=" ">
<path fill="none" stroke="#63b8ff" d="M365.8,-115.79C391.55,-96.46 452.63,-50.6 484.96,-26.33"/>
<polygon fill="#63b8ff" stroke="#63b8ff" points="486.89,-29.25 492.79,-20.45 482.69,-23.65 486.89,-29.25"/>
</a>
</g>
</g>
<!-- Node14&#45;&gt;Node7 -->
<g id="edge22_Node000014_Node000007" class="edge">
<title>Node14&#45;&gt;Node7</title>
<g id="a_edge22_Node000014_Node000007"><a xlink:title=" ">
<path fill="none" stroke="#63b8ff" d="M350.83,-115.81C348.13,-107.85 344.08,-95.94 340.62,-85.74"/>
<polygon fill="#63b8ff" stroke="#63b8ff" points="343.95,-84.68 337.42,-76.33 337.33,-86.93 343.95,-84.68"/>
</a>
</g>
</g>
<!-- Node20&#45;&gt;Node13 -->
<g id="edge30_Node000020_Node000013" class="edge">
<title>Node20&#45;&gt;Node13</title>
<g id="a_edge30_Node000020_Node000013"><a xlink:title=" ">
<path fill="none" stroke="#63b8ff" d="M1470.52,-56.44C1467.6,-56.03 1464.7,-55.63 1461.87,-55.25 1334.58,-38.22 1182.54,-21.12 1118.15,-14.03"/>
<polygon fill="#63b8ff" stroke="#63b8ff" points="1118.64,-10.57 1108.32,-12.96 1117.88,-17.53 1118.64,-10.57"/>
</a>
</g>
</g>
<!-- Node21 -->
<g id="Node000021" class="node">
<title>Node21</title>
<g id="a_Node000021"><a xlink:title=" ">
<polygon fill="#e0e0e0" stroke="#999999" points="1439.62,-19.25 1374.12,-19.25 1374.12,0 1439.62,0 1439.62,-19.25"/>
<text text-anchor="middle" x="1406.87" y="-5.75" font-family="Helvetica,sans-Serif" font-size="10.00">string_view</text>
</a>
</g>
</g>
<!-- Node20&#45;&gt;Node21 -->
<g id="edge29_Node000020_Node000021" class="edge">
<title>Node20&#45;&gt;Node21</title>
<g id="a_edge29_Node000020_Node000021"><a xlink:title=" ">
<path fill="none" stroke="#63b8ff" d="M1500.7,-54.84C1483.09,-46.54 1456.71,-34.11 1436.41,-24.54"/>
<polygon fill="#63b8ff" stroke="#63b8ff" points="1438.04,-21.44 1427.5,-20.35 1435.06,-27.78 1438.04,-21.44"/>
</a>
</g>
</g>
<!-- Node22 -->
<g id="Node000022" class="node">
<title>Node22</title>
<g id="a_Node000022"><a xlink:title=" ">
<polygon fill="#e0e0e0" stroke="#999999" points="1620.75,-19.25 1565,-19.25 1565,0 1620.75,0 1620.75,-19.25"/>
<text text-anchor="middle" x="1592.87" y="-5.75" font-family="Helvetica,sans-Serif" font-size="10.00">cinttypes</text>
</a>
</g>
</g>
<!-- Node20&#45;&gt;Node22 -->
<g id="edge31_Node000020_Node000022" class="edge">
<title>Node20&#45;&gt;Node22</title>
<g id="a_edge31_Node000020_Node000022"><a xlink:title=" ">
<path fill="none" stroke="#63b8ff" d="M1532.25,-54.84C1543.02,-46.99 1558.84,-35.45 1571.62,-26.12"/>
<polygon fill="#63b8ff" stroke="#63b8ff" points="1573.43,-29.14 1579.45,-20.42 1569.31,-23.48 1573.43,-29.14"/>
</a>
</g>
</g>
<!-- Node23 -->
<g id="Node000023" class="node">
<title>Node23</title>
<g id="a_Node000023"><a xlink:title=" ">
<polygon fill="#e0e0e0" stroke="#999999" points="1544,-19.25 1495.75,-19.25 1495.75,0 1544,0 1544,-19.25"/>
<text text-anchor="middle" x="1519.87" y="-5.75" font-family="Helvetica,sans-Serif" font-size="10.00">cstddef</text>
</a>
</g>
</g>
<!-- Node20&#45;&gt;Node23 -->
<g id="edge32_Node000020_Node000023" class="edge">
<title>Node20&#45;&gt;Node23</title>
<g id="a_edge32_Node000020_Node000023"><a xlink:title=" ">
<path fill="none" stroke="#63b8ff" d="M1519.87,-55.08C1519.87,-48.57 1519.87,-39.42 1519.87,-31.12"/>
<polygon fill="#63b8ff" stroke="#63b8ff" points="1523.37,-31.12 1519.87,-21.12 1516.37,-31.12 1523.37,-31.12"/>
</a>
</g>
</g>
<!-- Node24&#45;&gt;Node3 -->
<g id="edge36_Node000024_Node000003" class="edge">
<title>Node24&#45;&gt;Node3</title>
<g id="a_edge36_Node000024_Node000003"><a xlink:title=" ">
<path fill="none" stroke="#63b8ff" d="M1255.61,-117.01C1240.65,-114.74 1224.1,-112.38 1208.87,-110.5 1047.5,-90.62 853.51,-74.36 778.56,-68.36"/>
<polygon fill="#63b8ff" stroke="#63b8ff" points="778.93,-64.88 768.69,-67.57 778.38,-71.85 778.93,-64.88"/>
</a>
</g>
</g>
<!-- Node24&#45;&gt;Node6 -->
<g id="edge34_Node000024_Node000006" class="edge">
<title>Node24&#45;&gt;Node6</title>
<g id="a_edge34_Node000024_Node000006"><a xlink:title=" ">
<path fill="none" stroke="#63b8ff" d="M1291.43,-115.69C1267.49,-98.44 1215.56,-62.02 1194.87,-55.25 1080.92,-17.97 724.36,-11.71 573.91,-10.75"/>
<polygon fill="#63b8ff" stroke="#63b8ff" points="574.12,-7.25 564.1,-10.69 574.08,-14.25 574.12,-7.25"/>
</a>
</g>
</g>
<!-- Node24&#45;&gt;Node17 -->
<g id="edge35_Node000024_Node000017" class="edge">
<title>Node24&#45;&gt;Node17</title>
<g id="a_edge35_Node000024_Node000017"><a xlink:title=" ">
<path fill="none" stroke="#63b8ff" d="M1322.51,-115.68C1342.2,-106.1 1373.48,-90.88 1396.29,-79.78"/>
<polygon fill="#63b8ff" stroke="#63b8ff" points="1397.59,-83.04 1405.05,-75.52 1394.52,-76.75 1397.59,-83.04"/>
</a>
</g>
</g>
<!-- Node25 -->
<g id="Node000025" class="node">
<title>Node25</title>
<g id="a_Node000025"><a xlink:title=" ">
<polygon fill="#e0e0e0" stroke="#999999" points="1185.37,-74.5 1142.37,-74.5 1142.37,-55.25 1185.37,-55.25 1185.37,-74.5"/>
<text text-anchor="middle" x="1163.87" y="-61" font-family="Helvetica,sans-Serif" font-size="10.00">vector</text>
</a>
</g>
</g>
<!-- Node24&#45;&gt;Node25 -->
<g id="edge37_Node000024_Node000025" class="edge">
<title>Node24&#45;&gt;Node25</title>
<g id="a_edge37_Node000024_Node000025"><a xlink:title=" ">
<path fill="none" stroke="#63b8ff" d="M1282.3,-115.68C1259.11,-105.93 1222.01,-90.33 1195.52,-79.18"/>
<polygon fill="#63b8ff" stroke="#63b8ff" points="1197.2,-76.1 1186.63,-75.45 1194.49,-82.55 1197.2,-76.1"/>
</a>
</g>
</g>
<!-- Node26 -->
<g id="Node000026" class="node">
<title>Node26</title>
<g id="a_Node000026"><a xlink:title=" ">
<polygon fill="#e0e0e0" stroke="#999999" points="1340.37,-74.5 1297.37,-74.5 1297.37,-55.25 1340.37,-55.25 1340.37,-74.5"/>
<text text-anchor="middle" x="1318.87" y="-61" font-family="Helvetica,sans-Serif" font-size="10.00">cmath</text>
</a>
</g>
</g>
<!-- Node24&#45;&gt;Node26 -->
<g id="edge38_Node000024_Node000026" class="edge">
<title>Node24&#45;&gt;Node26</title>
<g id="a_edge38_Node000024_Node000026"><a xlink:title=" ">
<path fill="none" stroke="#63b8ff" d="M1306.15,-115.81C1308.18,-107.85 1311.21,-95.94 1313.81,-85.74"/>
<polygon fill="#63b8ff" stroke="#63b8ff" points="1317.12,-86.92 1316.2,-76.37 1310.34,-85.19 1317.12,-86.92"/>
</a>
</g>
</g>
<!-- Node28&#45;&gt;Node3 -->
<g id="edge43_Node000028_Node000003" class="edge">
<title>Node28&#45;&gt;Node3</title>
<g id="a_edge43_Node000028_Node000003"><a xlink:title=" ">
<path fill="none" stroke="#63b8ff" d="M893.25,-181.49C857.88,-176.27 816.24,-165 785.87,-141 768.24,-127.07 757.76,-102.98 752.18,-85.84"/>
<polygon fill="#63b8ff" stroke="#63b8ff" points="755.55,-84.89 749.37,-76.28 748.83,-86.86 755.55,-84.89"/>
</a>
</g>
</g>
<!-- Node28&#45;&gt;Node4 -->
<g id="edge45_Node000028_Node000004" class="edge">
<title>Node28&#45;&gt;Node4</title>
<g id="a_edge45_Node000028_Node000004"><a xlink:title=" ">
<path fill="none" stroke="#63b8ff" d="M893.18,-185.5C724.15,-184.61 306.91,-178.56 256.87,-141 222.01,-114.83 212.95,-60.39 210.63,-30.81"/>
<polygon fill="#63b8ff" stroke="#63b8ff" points="214.14,-30.78 210.07,-21 207.15,-31.18 214.14,-30.78"/>
</a>
</g>
</g>
<!-- Node28&#45;&gt;Node6 -->
<g id="edge56_Node000028_Node000006" class="edge">
<title>Node28&#45;&gt;Node6</title>
<g id="a_edge56_Node000028_Node000006"><a xlink:title=" ">
<path fill="none" stroke="#63b8ff" d="M960.85,-176.93C955.05,-161.48 940.97,-129.11 918.87,-110.5 866.75,-66.61 841.6,-73.18 775.87,-55.25 708.37,-36.84 629.17,-24.84 574.08,-17.97"/>
<polygon fill="#63b8ff" stroke="#63b8ff" points="574.55,-14.51 564.2,-16.77 573.71,-21.45 574.55,-14.51"/>
</a>
</g>
</g>
<!-- Node28&#45;&gt;Node7 -->
<g id="edge57_Node000028_Node000007" class="edge">
<title>Node28&#45;&gt;Node7</title>
<g id="a_edge57_Node000028_Node000007"><a xlink:title=" ">
<path fill="none" stroke="#63b8ff" d="M893.17,-183.68C720.18,-178.57 288.08,-163.61 266.87,-141 257.6,-131.11 260.47,-122.45 266.87,-110.5 274,-97.18 287.06,-87.15 299.76,-80.01"/>
<polygon fill="#63b8ff" stroke="#63b8ff" points="301.1,-83.26 308.41,-75.59 297.91,-77.03 301.1,-83.26"/>
</a>
</g>
</g>
<!-- Node28&#45;&gt;Node25 -->
<g id="edge44_Node000028_Node000025" class="edge">
<title>Node28&#45;&gt;Node25</title>
<g id="a_edge44_Node000028_Node000025"><a xlink:title=" ">
<path fill="none" stroke="#63b8ff" d="M1034.47,-182.54C1098.79,-178.08 1186.99,-167.23 1208.87,-141 1224.44,-122.34 1203.02,-97.69 1184.74,-81.81"/>
<polygon fill="#63b8ff" stroke="#63b8ff" points="1187.3,-79.39 1177.36,-75.74 1182.86,-84.8 1187.3,-79.39"/>
</a>
</g>
</g>
<!-- Node29 -->
<g id="Node000029" class="node">
<title>Node29</title>
<g id="a_Node000029"><a xlink:title=" ">
<polygon fill="#e0e0e0" stroke="#999999" points="1011.5,-135.38 966.25,-135.38 966.25,-116.12 1011.5,-116.12 1011.5,-135.38"/>
<text text-anchor="middle" x="988.87" y="-121.88" font-family="Helvetica,sans-Serif" font-size="10.00">variant</text>
</a>
</g>
</g>
<!-- Node28&#45;&gt;Node29 -->
<g id="edge41_Node000028_Node000029" class="edge">
<title>Node28&#45;&gt;Node29</title>
<g id="a_edge41_Node000028_Node000029"><a xlink:title=" ">
<path fill="none" stroke="#63b8ff" d="M967.67,-176.68C971.08,-168.64 976.22,-156.55 980.58,-146.28"/>
<polygon fill="#63b8ff" stroke="#63b8ff" points="983.76,-147.74 984.45,-137.17 977.32,-145.01 983.76,-147.74"/>
</a>
</g>
</g>
<!-- Node30 -->
<g id="Node000030" class="node">
<title>Node30</title>
<g id="a_Node000030"><a xlink:title=" ">
<polygon fill="#e0e0e0" stroke="#999999" points="585.5,-74.5 534.25,-74.5 534.25,-55.25 585.5,-55.25 585.5,-74.5"/>
<text text-anchor="middle" x="559.87" y="-61" font-family="Helvetica,sans-Serif" font-size="10.00">ostream</text>
</a>
</g>
</g>
<!-- Node28&#45;&gt;Node30 -->
<g id="edge42_Node000028_Node000030" class="edge">
<title>Node28&#45;&gt;Node30</title>
<g id="a_edge42_Node000028_Node000030"><a xlink:title=" ">
<path fill="none" stroke="#63b8ff" d="M911.95,-176.51C870.19,-168.65 810.21,-156.19 758.87,-141 698.44,-123.12 630.15,-95.69 591.33,-79.4"/>
<polygon fill="#63b8ff" stroke="#63b8ff" points="592.7,-76.17 582.12,-75.5 589.97,-82.62 592.7,-76.17"/>
</a>
</g>
</g>
<!-- Node31 -->
<g id="Node000031" class="node">
<title>Node31</title>
<g id="a_Node000031"><a xlink:href="../../da/d33/Namespace_8hpp.html" target="_top" xlink:title=" ">
<polygon fill="white" stroke="#666666" points="1199.75,-135.38 1030,-135.38 1030,-116.12 1199.75,-116.12 1199.75,-135.38"/>
<text text-anchor="middle" x="1114.87" y="-121.88" font-family="Helvetica,sans-Serif" font-size="10.00">Ark/Compiler/AST/Namespace.hpp</text>
</a>
</g>
</g>
<!-- Node28&#45;&gt;Node31 -->
<g id="edge46_Node000028_Node000031" class="edge">
<title>Node28&#45;&gt;Node31</title>
<g id="a_edge46_Node000028_Node000031"><a xlink:title=" ">
<path fill="none" stroke="#63b8ff" d="M987.13,-176.55C1012.18,-166.79 1052.28,-151.15 1080.87,-140.01"/>
<polygon fill="#63b8ff" stroke="#63b8ff" points="1082.13,-143.27 1090.17,-136.38 1079.58,-136.75 1082.13,-143.27"/>
</a>
</g>
</g>
<!-- Node33 -->
<g id="Node000033" class="node">
<title>Node33</title>
<g id="a_Node000033"><a xlink:href="../../d8/ddd/Common_8hpp.html" target="_top" xlink:title="Common code for the compiler.">
<polygon fill="white" stroke="#666666" points="1504.12,-135.38 1369.62,-135.38 1369.62,-116.12 1504.12,-116.12 1504.12,-135.38"/>
<text text-anchor="middle" x="1436.87" y="-121.88" font-family="Helvetica,sans-Serif" font-size="10.00">Ark/Compiler/Common.hpp</text>
</a>
</g>
</g>
<!-- Node28&#45;&gt;Node33 -->
<g id="edge50_Node000028_Node000033" class="edge">
<title>Node28&#45;&gt;Node33</title>
<g id="a_edge50_Node000028_Node000033"><a xlink:title=" ">
<path fill="none" stroke="#63b8ff" d="M1034.35,-179.28C1113.88,-171.75 1247.01,-158.05 1360.87,-141 1367.25,-140.04 1373.91,-138.95 1380.52,-137.79"/>
<polygon fill="#63b8ff" stroke="#63b8ff" points="1380.84,-141.29 1390.06,-136.08 1379.6,-134.4 1380.84,-141.29"/>
</a>
</g>
</g>
<!-- Node31&#45;&gt;Node3 -->
<g id="edge47_Node000031_Node000003" class="edge">
<title>Node31&#45;&gt;Node3</title>
<g id="a_edge47_Node000031_Node000003"><a xlink:title=" ">
<path fill="none" stroke="#63b8ff" d="M1058.18,-115.68C979.57,-103.1 840.17,-80.8 778.14,-70.88"/>
<polygon fill="#63b8ff" stroke="#63b8ff" points="779.07,-67.48 768.64,-69.36 777.96,-74.39 779.07,-67.48"/>
</a>
</g>
</g>
<!-- Node31&#45;&gt;Node25 -->
<g id="edge48_Node000031_Node000025" class="edge">
<title>Node31&#45;&gt;Node25</title>
<g id="a_edge48_Node000031_Node000025"><a xlink:title=" ">
<path fill="none" stroke="#63b8ff" d="M1122.31,-115.81C1129.44,-107.25 1140.38,-94.1 1149.25,-83.45"/>
<polygon fill="#63b8ff" stroke="#63b8ff" points="1151.68,-85.99 1155.39,-76.06 1146.3,-81.51 1151.68,-85.99"/>
</a>
</g>
</g>
<!-- Node32 -->
<g id="Node000032" class="node">
<title>Node32</title>
<g id="a_Node000032"><a xlink:title=" ">
<polygon fill="#e0e0e0" stroke="#999999" points="1124.5,-74.5 1073.25,-74.5 1073.25,-55.25 1124.5,-55.25 1124.5,-74.5"/>
<text text-anchor="middle" x="1098.87" y="-61" font-family="Helvetica,sans-Serif" font-size="10.00">memory</text>
</a>
</g>
</g>
<!-- Node31&#45;&gt;Node32 -->
<g id="edge49_Node000031_Node000032" class="edge">
<title>Node31&#45;&gt;Node32</title>
<g id="a_edge49_Node000031_Node000032"><a xlink:title=" ">
<path fill="none" stroke="#63b8ff" d="M1112.44,-115.81C1110.28,-107.85 1107.04,-95.94 1104.27,-85.74"/>
<polygon fill="#63b8ff" stroke="#63b8ff" points="1107.72,-85.09 1101.72,-76.36 1100.97,-86.93 1107.72,-85.09"/>
</a>
</g>
</g>
<!-- Node33&#45;&gt;Node12 -->
<g id="edge51_Node000033_Node000012" class="edge">
<title>Node33&#45;&gt;Node12</title>
<g id="a_edge51_Node000033_Node000012"><a xlink:title=" ">
<path fill="none" stroke="#63b8ff" d="M1409.76,-115.68C1377.67,-104.95 1324.4,-87.13 1291.04,-75.97"/>
<polygon fill="#63b8ff" stroke="#63b8ff" points="1292.16,-72.65 1281.57,-72.8 1289.94,-79.29 1292.16,-72.65"/>
</a>
</g>
</g>
<!-- Node33&#45;&gt;Node20 -->
<g id="edge55_Node000033_Node000020" class="edge">
<title>Node33&#45;&gt;Node20</title>
<g id="a_edge55_Node000033_Node000020"><a xlink:title=" ">
<path fill="none" stroke="#63b8ff" d="M1449.48,-115.81C1462.27,-106.73 1482.35,-92.49 1497.79,-81.54"/>
<polygon fill="#63b8ff" stroke="#63b8ff" points="1499.78,-84.42 1505.91,-75.78 1495.73,-78.71 1499.78,-84.42"/>
</a>
</g>
</g>
<!-- Node33&#45;&gt;Node21 -->
<g id="edge52_Node000033_Node000021" class="edge">
<title>Node33&#45;&gt;Node21</title>
<g id="a_edge52_Node000033_Node000021"><a xlink:title=" ">
<path fill="none" stroke="#63b8ff" d="M1423.56,-115.8C1411.66,-106.92 1395.03,-92.11 1387.87,-74.5 1381.81,-59.6 1387.94,-42.04 1394.8,-29.1"/>
<polygon fill="#63b8ff" stroke="#63b8ff" points="1397.64,-31.18 1399.72,-20.79 1391.62,-27.62 1397.64,-31.18"/>
</a>
</g>
</g>
<!-- Node33&#45;&gt;Node22 -->
<g id="edge54_Node000033_Node000022" class="edge">
<title>Node33&#45;&gt;Node22</title>
<g id="a_edge54_Node000033_Node000022"><a xlink:title=" ">
<path fill="none" stroke="#63b8ff" d="M1501.75,-115.63C1528.8,-108.64 1558.38,-96.29 1577.87,-74.5 1588.45,-62.67 1591.96,-44.79 1592.96,-30.96"/>
<polygon fill="#63b8ff" stroke="#63b8ff" points="1596.45,-31.29 1593.25,-21.19 1589.45,-31.08 1596.45,-31.29"/>
</a>
</g>
</g>
<!-- Node33&#45;&gt;Node25 -->
<g id="edge53_Node000033_Node000025" class="edge">
<title>Node33&#45;&gt;Node25</title>
<g id="a_edge53_Node000033_Node000025"><a xlink:title=" ">
<path fill="none" stroke="#63b8ff" d="M1394.81,-115.68C1340.26,-103.91 1246.22,-83.63 1196.65,-72.94"/>
<polygon fill="#63b8ff" stroke="#63b8ff" points="1197.62,-69.57 1187.11,-70.89 1196.14,-76.42 1197.62,-69.57"/>
</a>
</g>
</g>
<!-- Node34&#45;&gt;Node3 -->
<g id="edge59_Node000034_Node000003" class="edge">
<title>Node34&#45;&gt;Node3</title>
<g id="a_edge59_Node000034_Node000003"><a xlink:title=" ">
<path fill="none" stroke="#63b8ff" d="M553.15,-115.68C597.53,-104.27 673.06,-84.85 715.51,-73.94"/>
<polygon fill="#63b8ff" stroke="#63b8ff" points="716.27,-77.36 725.09,-71.48 714.53,-70.58 716.27,-77.36"/>
</a>
</g>
</g>
<!-- Node34&#45;&gt;Node4 -->
<g id="edge62_Node000034_Node000004" class="edge">
<title>Node34&#45;&gt;Node4</title>
<g id="a_edge62_Node000034_Node000004"><a xlink:title=" ">
<path fill="none" stroke="#63b8ff" d="M505.31,-115.71C484.29,-100.97 440.19,-71.77 398.87,-55.25 347.8,-34.84 285.08,-22.32 246.28,-15.92"/>
<polygon fill="#63b8ff" stroke="#63b8ff" points="246.97,-12.49 236.55,-14.37 245.87,-19.4 246.97,-12.49"/>
</a>
</g>
</g>
<!-- Node34&#45;&gt;Node6 -->
<g id="edge63_Node000034_Node000006" class="edge">
<title>Node34&#45;&gt;Node6</title>
<g id="a_edge63_Node000034_Node000006"><a xlink:title=" ">
<path fill="none" stroke="#63b8ff" d="M516.93,-115.79C515.02,-97.63 510.65,-56.04 508.01,-30.95"/>
<polygon fill="#63b8ff" stroke="#63b8ff" points="511.49,-30.62 506.97,-21.04 504.53,-31.36 511.49,-30.62"/>
</a>
</g>
</g>
<!-- Node34&#45;&gt;Node7 -->
<g id="edge64_Node000034_Node000007" class="edge">
<title>Node34&#45;&gt;Node7</title>
<g id="a_edge64_Node000034_Node000007"><a xlink:title=" ">
<path fill="none" stroke="#63b8ff" d="M489.52,-115.68C458.32,-105.7 407.97,-89.58 373.01,-78.4"/>
<polygon fill="#63b8ff" stroke="#63b8ff" points="374.28,-75.13 363.69,-75.42 372.15,-81.8 374.28,-75.13"/>
</a>
</g>
</g>
<!-- Node34&#45;&gt;Node25 -->
<g id="edge60_Node000034_Node000025" class="edge">
<title>Node34&#45;&gt;Node25</title>
<g id="a_edge60_Node000034_Node000025"><a xlink:title=" ">
<path fill="none" stroke="#63b8ff" d="M586.21,-120.89C719.6,-113.09 1011.37,-94.61 1131.01,-74.63"/>
<polygon fill="#63b8ff" stroke="#63b8ff" points="1131.3,-78.14 1140.54,-72.96 1130.09,-71.24 1131.3,-78.14"/>
</a>
</g>
</g>
<!-- Node34&#45;&gt;Node30 -->
<g id="edge61_Node000034_Node000030" class="edge">
<title>Node34&#45;&gt;Node30</title>
<g id="a_edge61_Node000034_Node000030"><a xlink:title=" ">
<path fill="none" stroke="#63b8ff" d="M524.25,-115.81C530.23,-107.42 539.36,-94.63 546.87,-84.09"/>
<polygon fill="#63b8ff" stroke="#63b8ff" points="549.6,-86.31 552.55,-76.13 543.9,-82.24 549.6,-86.31"/>
</a>
</g>
</g>
</g>
</svg>
