<?xml version="1.0" encoding="UTF-8" standalone="no"?>
<!DOCTYPE svg PUBLIC "-//W3C//DTD SVG 1.1//EN"
 "http://www.w3.org/Graphics/SVG/1.1/DTD/svg11.dtd">
<!-- Generated by graphviz version 12.2.0 (20241103.1931)
 -->
<!-- Title: /Users/fola/Documents/ArkScript/Ark/src/arkreactor/Compiler/AST/Node.cpp Pages: 1 -->
<!--zoomable 282 -->

<svg id="main" version="1.1" xmlns="http://www.w3.org/2000/svg" xmlns:xlink="http://www.w3.org/1999/xlink" xml:space="preserve" onload="init(evt)">

<style type="text/css"><![CDATA[
.node, .edge {opacity: 0.7;}
.node.selected, .edge.selected {opacity: 1;}
.edge:hover path { stroke: red; }
.edge:hover polygon { stroke: red; fill: red; }
]]></style>

<defs>
  <circle id="rim" cx="0" cy="0" r="7"/>
  <circle id="rim2" cx="0" cy="0" r="3.5"/>
  <g id="zoomPlus">
    <use xlink:href="#rim" fill="#404040"><set attributeName="fill" to="#808080" begin="zoomplus.mouseover" end="zoomplus.mouseout"/></use>
    <path d="M-4,0h8M0,-4v8" fill="none" stroke="white" stroke-width="1.5" pointer-events="none"/>
  </g>
  <g id="zoomMin">
    <use xlink:href="#rim" fill="#404040"><set attributeName="fill" to="#808080" begin="zoomminus.mouseover" end="zoomminus.mouseout"/></use>
    <path d="M-4,0h8" fill="none" stroke="white" stroke-width="1.5" pointer-events="none"/>
  </g>
  <g id="arrowUp" transform="translate(30 24)">
    <use xlink:href="#rim"/>
    <path pointer-events="none" fill="none" stroke="white" stroke-width="1.5" d="M0,-3.0v7 M-2.5,-0.5L0,-3.0L2.5,-0.5"/>
  </g>
  <g id="arrowRight" transform="rotate(90) translate(36 -43)">
    <use xlink:href="#rim"/>
    <path pointer-events="none" fill="none" stroke="white" stroke-width="1.5" d="M0,-3.0v7 M-2.5,-0.5L0,-3.0L2.5,-0.5"/>
  </g>
  <g id="arrowDown" transform="rotate(180) translate(-30 -48)">
    <use xlink:href="#rim"/>
    <path pointer-events="none" fill="none" stroke="white" stroke-width="1.5" d="M0,-3.0v7 M-2.5,-0.5L0,-3.0L2.5,-0.5"/>
  </g>
  <g id="arrowLeft" transform="rotate(270) translate(-36 17)">
    <use xlink:href="#rim"/>
    <path pointer-events="none" fill="none" stroke="white" stroke-width="1.5" d="M0,-3.0v7 M-2.5,-0.5L0,-3.0L2.5,-0.5"/>
  </g>
  <g id="resetDef">
    <use xlink:href="#rim2" fill="#404040"><set attributeName="fill" to="#808080" begin="reset.mouseover" end="reset.mouseout"/></use>
  </g>
</defs>
<script type="application/ecmascript">
var viewWidth = 1172;
var viewHeight = 282;
var sectionId = 'dynsection-0';
</script>
<script type="application/ecmascript" xlink:href="../../svg.min.js"/>
<svg id="graph" class="graph">
<g id="viewport">
<title>/Users/fola/Documents/ArkScript/Ark/src/arkreactor/Compiler/AST/Node.cpp</title>
<!-- Node1 -->
<g id="Node000001" class="node">
<title>Node1</title>
<g id="a_Node000001"><a xlink:title=" ">
<polygon fill="#999999" stroke="#666666" points="817,-274 676.5,-274 676.5,-232.25 817,-232.25 817,-274"/>
<text text-anchor="start" x="684.5" y="-260.5" font-family="Helvetica,sans-Serif" font-size="10.00">/Users/fola/Documents</text>
<text text-anchor="start" x="684.5" y="-249.25" font-family="Helvetica,sans-Serif" font-size="10.00">/ArkScript/Ark/src/arkreactor</text>
<text text-anchor="middle" x="746.75" y="-238" font-family="Helvetica,sans-Serif" font-size="10.00">/Compiler/AST/Node.cpp</text>
</a>
</g>
</g>
<!-- Node2 -->
<g id="Node000002" class="node">
<title>Node2</title>
<g id="a_Node000002"><a xlink:href="../../d8/ddd/Common_8hpp.html" target="_top" xlink:title="Common code for the compiler.">
<polygon fill="white" stroke="#666666" points="176,-135.38 41.5,-135.38 41.5,-116.12 176,-116.12 176,-135.38"/>
<text text-anchor="middle" x="108.75" y="-121.88" font-family="Helvetica,sans-Serif" font-size="10.00">Ark/Compiler/Common.hpp</text>
</a>
</g>
</g>
<!-- Node1&#45;&gt;Node2 -->
<g id="edge1_Node000001_Node000002" class="edge">
<title>Node1&#45;&gt;Node2</title>
<g id="a_edge1_Node000001_Node000002"><a xlink:title=" ">
<path fill="none" stroke="#63b8ff" d="M676.18,-244.72C598.06,-235.88 468.64,-219.34 358.75,-196.25 283.08,-180.35 196.51,-154.53 147.66,-139.24"/>
<polygon fill="#63b8ff" stroke="#63b8ff" points="148.99,-135.99 138.4,-136.32 146.88,-142.67 148.99,-135.99"/>
</a>
</g>
</g>
<!-- Node9 -->
<g id="Node000009" class="node">
<title>Node9</title>
<g id="a_Node000009"><a xlink:href="../../d7/dc6/Node_8hpp.html" target="_top" xlink:title="AST node used by the parser, optimizer and compiler.">
<polygon fill="white" stroke="#666666" points="508,-196.25 367.5,-196.25 367.5,-177 508,-177 508,-196.25"/>
<text text-anchor="middle" x="437.75" y="-182.75" font-family="Helvetica,sans-Serif" font-size="10.00">Ark/Compiler/AST/Node.hpp</text>
</a>
</g>
</g>
<!-- Node1&#45;&gt;Node9 -->
<g id="edge10_Node000001_Node000009" class="edge">
<title>Node1&#45;&gt;Node9</title>
<g id="a_edge10_Node000001_Node000009"><a xlink:title=" ">
<path fill="none" stroke="#63b8ff" d="M676.25,-237.41C620.44,-225.76 543.63,-209.73 492.41,-199.04"/>
<polygon fill="#63b8ff" stroke="#63b8ff" points="493.24,-195.63 482.73,-197.01 491.81,-202.48 493.24,-195.63"/>
</a>
</g>
</g>
<!-- Node16 -->
<g id="Node000016" class="node">
<title>Node16</title>
<g id="a_Node000016"><a xlink:href="../../d2/de9/Exceptions_8hpp.html" target="_top" xlink:title="ArkScript homemade exceptions.">
<polygon fill="white" stroke="#666666" points="797.5,-196.25 696,-196.25 696,-177 797.5,-177 797.5,-196.25"/>
<text text-anchor="middle" x="746.75" y="-182.75" font-family="Helvetica,sans-Serif" font-size="10.00">Ark/Exceptions.hpp</text>
</a>
</g>
</g>
<!-- Node1&#45;&gt;Node16 -->
<g id="edge21_Node000001_Node000016" class="edge">
<title>Node1&#45;&gt;Node16</title>
<g id="a_edge21_Node000001_Node000016"><a xlink:title=" ">
<path fill="none" stroke="#63b8ff" d="M746.75,-232.07C746.75,-224.4 746.75,-215.64 746.75,-207.95"/>
<polygon fill="#63b8ff" stroke="#63b8ff" points="750.25,-208.21 746.75,-198.21 743.25,-208.21 750.25,-208.21"/>
</a>
</g>
</g>
<!-- Node23 -->
<g id="Node000023" class="node">
<title>Node23</title>
<g id="a_Node000023"><a xlink:title=" ">
<polygon fill="#e0e0e0" stroke="#999999" points="863.88,-196.25 815.62,-196.25 815.62,-177 863.88,-177 863.88,-196.25"/>
<text text-anchor="middle" x="839.75" y="-182.75" font-family="Helvetica,sans-Serif" font-size="10.00">cassert</text>
</a>
</g>
</g>
<!-- Node1&#45;&gt;Node23 -->
<g id="edge34_Node000001_Node000023" class="edge">
<title>Node1&#45;&gt;Node23</title>
<g id="a_edge34_Node000001_Node000023"><a xlink:title=" ">
<path fill="none" stroke="#63b8ff" d="M775.92,-231.89C789.37,-222.57 805.08,-211.67 817.55,-203.02"/>
<polygon fill="#63b8ff" stroke="#63b8ff" points="819.28,-206.08 825.5,-197.51 815.29,-200.33 819.28,-206.08"/>
</a>
</g>
</g>
<!-- Node24 -->
<g id="Node000024" class="node">
<title>Node24</title>
<g id="a_Node000024"><a xlink:title=" ">
<polygon fill="#e0e0e0" stroke="#999999" points="941.88,-196.25 881.62,-196.25 881.62,-177 941.88,-177 941.88,-196.25"/>
<text text-anchor="middle" x="911.75" y="-182.75" font-family="Helvetica,sans-Serif" font-size="10.00">fmt/core.h</text>
</a>
</g>
</g>
<!-- Node1&#45;&gt;Node24 -->
<g id="edge35_Node000001_Node000024" class="edge">
<title>Node1&#45;&gt;Node24</title>
<g id="a_edge35_Node000001_Node000024"><a xlink:title=" ">
<path fill="none" stroke="#63b8ff" d="M798.5,-231.89C824.49,-221.73 855.24,-209.72 878.13,-200.77"/>
<polygon fill="#63b8ff" stroke="#63b8ff" points="879.23,-204.1 887.27,-197.2 876.68,-197.58 879.23,-204.1"/>
</a>
</g>
</g>
<!-- Node3 -->
<g id="Node000003" class="node">
<title>Node3</title>
<g id="a_Node000003"><a xlink:title=" ">
<polygon fill="#e0e0e0" stroke="#999999" points="524.62,-74.5 486.88,-74.5 486.88,-55.25 524.62,-55.25 524.62,-74.5"/>
<text text-anchor="middle" x="505.75" y="-61" font-family="Helvetica,sans-Serif" font-size="10.00">array</text>
</a>
</g>
</g>
<!-- Node2&#45;&gt;Node3 -->
<g id="edge2_Node000002_Node000003" class="edge">
<title>Node2&#45;&gt;Node3</title>
<g id="a_edge2_Node000002_Node000003"><a xlink:title=" ">
<path fill="none" stroke="#63b8ff" d="M155.31,-115.66C165.03,-113.86 175.21,-112.06 184.75,-110.5 291.29,-93.12 418.43,-76.73 475.45,-69.6"/>
<polygon fill="#63b8ff" stroke="#63b8ff" points="475.53,-73.12 485.02,-68.41 474.67,-66.17 475.53,-73.12"/>
</a>
</g>
</g>
<!-- Node4 -->
<g id="Node000004" class="node">
<title>Node4</title>
<g id="a_Node000004"><a xlink:title=" ">
<polygon fill="#e0e0e0" stroke="#999999" points="65.5,-19.25 0,-19.25 0,0 65.5,0 65.5,-19.25"/>
<text text-anchor="middle" x="32.75" y="-5.75" font-family="Helvetica,sans-Serif" font-size="10.00">string_view</text>
</a>
</g>
</g>
<!-- Node2&#45;&gt;Node4 -->
<g id="edge3_Node000002_Node000004" class="edge">
<title>Node2&#45;&gt;Node4</title>
<g id="a_edge3_Node000002_Node000004"><a xlink:title=" ">
<path fill="none" stroke="#63b8ff" d="M94.21,-115.77C80.99,-106.87 61.89,-92.05 50.75,-74.5 42.33,-61.23 37.77,-43.97 35.35,-30.73"/>
<polygon fill="#63b8ff" stroke="#63b8ff" points="38.84,-30.39 33.86,-21.04 31.92,-31.45 38.84,-30.39"/>
</a>
</g>
</g>
<!-- Node5 -->
<g id="Node000005" class="node">
<title>Node5</title>
<g id="a_Node000005"><a xlink:title=" ">
<polygon fill="#e0e0e0" stroke="#999999" points="313.25,-74.5 270.25,-74.5 270.25,-55.25 313.25,-55.25 313.25,-74.5"/>
<text text-anchor="middle" x="291.75" y="-61" font-family="Helvetica,sans-Serif" font-size="10.00">vector</text>
</a>
</g>
</g>
<!-- Node2&#45;&gt;Node5 -->
<g id="edge4_Node000002_Node000005" class="edge">
<title>Node2&#45;&gt;Node5</title>
<g id="a_edge4_Node000002_Node000005"><a xlink:title=" ">
<path fill="none" stroke="#63b8ff" d="M136.94,-115.68C169.96,-105.06 224.56,-87.49 259.31,-76.31"/>
<polygon fill="#63b8ff" stroke="#63b8ff" points="259.96,-79.78 268.4,-73.39 257.81,-73.12 259.96,-79.78"/>
</a>
</g>
</g>
<!-- Node6 -->
<g id="Node000006" class="node">
<title>Node6</title>
<g id="a_Node000006"><a xlink:title=" ">
<polygon fill="#e0e0e0" stroke="#999999" points="209.62,-19.25 153.88,-19.25 153.88,0 209.62,0 209.62,-19.25"/>
<text text-anchor="middle" x="181.75" y="-5.75" font-family="Helvetica,sans-Serif" font-size="10.00">cinttypes</text>
</a>
</g>
</g>
<!-- Node2&#45;&gt;Node6 -->
<g id="edge5_Node000002_Node000006" class="edge">
<title>Node2&#45;&gt;Node6</title>
<g id="a_edge5_Node000002_Node000006"><a xlink:title=" ">
<path fill="none" stroke="#63b8ff" d="M123.72,-115.71C137.06,-106.87 156.07,-92.17 166.75,-74.5 174.79,-61.2 178.52,-43.94 180.25,-30.71"/>
<polygon fill="#63b8ff" stroke="#63b8ff" points="183.71,-31.34 181.22,-21.04 176.74,-30.64 183.71,-31.34"/>
</a>
</g>
</g>
<!-- Node7 -->
<g id="Node000007" class="node">
<title>Node7</title>
<g id="a_Node000007"><a xlink:href="../../d6/de9/Constants_8hpp.html" target="_top" xlink:title="Constants used by ArkScript.">
<polygon fill="white" stroke="#666666" points="157.62,-74.5 59.88,-74.5 59.88,-55.25 157.62,-55.25 157.62,-74.5"/>
<text text-anchor="middle" x="108.75" y="-61" font-family="Helvetica,sans-Serif" font-size="10.00">Ark/Constants.hpp</text>
</a>
</g>
</g>
<!-- Node2&#45;&gt;Node7 -->
<g id="edge6_Node000002_Node000007" class="edge">
<title>Node2&#45;&gt;Node7</title>
<g id="a_edge6_Node000002_Node000007"><a xlink:title=" ">
<path fill="none" stroke="#63b8ff" d="M108.75,-115.81C108.75,-108.03 108.75,-96.45 108.75,-86.41"/>
<polygon fill="#63b8ff" stroke="#63b8ff" points="112.25,-86.41 108.75,-76.41 105.25,-86.41 112.25,-86.41"/>
</a>
</g>
</g>
<!-- Node7&#45;&gt;Node4 -->
<g id="edge7_Node000007_Node000004" class="edge">
<title>Node7&#45;&gt;Node4</title>
<g id="a_edge7_Node000007_Node000004"><a xlink:title=" ">
<path fill="none" stroke="#63b8ff" d="M95.86,-54.84C84.72,-47.04 68.38,-35.59 55.11,-26.29"/>
<polygon fill="#63b8ff" stroke="#63b8ff" points="57.14,-23.44 46.95,-20.57 53.13,-29.18 57.14,-23.44"/>
</a>
</g>
</g>
<!-- Node7&#45;&gt;Node6 -->
<g id="edge8_Node000007_Node000006" class="edge">
<title>Node7&#45;&gt;Node6</title>
<g id="a_edge8_Node000007_Node000006"><a xlink:title=" ">
<path fill="none" stroke="#63b8ff" d="M121.13,-54.84C131.9,-46.99 147.72,-35.45 160.5,-26.12"/>
<polygon fill="#63b8ff" stroke="#63b8ff" points="162.31,-29.14 168.33,-20.42 158.19,-23.48 162.31,-29.14"/>
</a>
</g>
</g>
<!-- Node8 -->
<g id="Node000008" class="node">
<title>Node8</title>
<g id="a_Node000008"><a xlink:title=" ">
<polygon fill="#e0e0e0" stroke="#999999" points="132.88,-19.25 84.62,-19.25 84.62,0 132.88,0 132.88,-19.25"/>
<text text-anchor="middle" x="108.75" y="-5.75" font-family="Helvetica,sans-Serif" font-size="10.00">cstddef</text>
</a>
</g>
</g>
<!-- Node7&#45;&gt;Node8 -->
<g id="edge9_Node000007_Node000008" class="edge">
<title>Node7&#45;&gt;Node8</title>
<g id="a_edge9_Node000007_Node000008"><a xlink:title=" ">
<path fill="none" stroke="#63b8ff" d="M108.75,-55.08C108.75,-48.57 108.75,-39.42 108.75,-31.12"/>
<polygon fill="#63b8ff" stroke="#63b8ff" points="112.25,-31.12 108.75,-21.12 105.25,-31.12 112.25,-31.12"/>
</a>
</g>
</g>
<!-- Node9&#45;&gt;Node2 -->
<g id="edge19_Node000009_Node000002" class="edge">
<title>Node9&#45;&gt;Node2</title>
<g id="a_edge19_Node000009_Node000002"><a xlink:title=" ">
<path fill="none" stroke="#63b8ff" d="M385.39,-176.56C334.21,-167.66 254.08,-153.61 184.75,-141 179.28,-140 173.58,-138.96 167.89,-137.9"/>
<polygon fill="#63b8ff" stroke="#63b8ff" points="168.94,-134.54 158.47,-136.15 167.66,-141.42 168.94,-134.54"/>
</a>
</g>
</g>
<!-- Node9&#45;&gt;Node5 -->
<g id="edge14_Node000009_Node000005" class="edge">
<title>Node9&#45;&gt;Node5</title>
<g id="a_edge14_Node000009_Node000005"><a xlink:title=" ">
<path fill="none" stroke="#63b8ff" d="M367.13,-182.71C337.39,-177.54 305.4,-165.96 286.75,-141 274.91,-125.16 278.81,-101.81 283.98,-85.35"/>
<polygon fill="#63b8ff" stroke="#63b8ff" points="287.18,-86.81 287.25,-76.22 280.59,-84.45 287.18,-86.81"/>
</a>
</g>
</g>
<!-- Node10 -->
<g id="Node000010" class="node">
<title>Node10</title>
<g id="a_Node000010"><a xlink:title=" ">
<polygon fill="#e0e0e0" stroke="#999999" points="239.38,-135.38 194.12,-135.38 194.12,-116.12 239.38,-116.12 239.38,-135.38"/>
<text text-anchor="middle" x="216.75" y="-121.88" font-family="Helvetica,sans-Serif" font-size="10.00">variant</text>
</a>
</g>
</g>
<!-- Node9&#45;&gt;Node10 -->
<g id="edge11_Node000009_Node000010" class="edge">
<title>Node9&#45;&gt;Node10</title>
<g id="a_edge11_Node000009_Node000010"><a xlink:title=" ">
<path fill="none" stroke="#63b8ff" d="M393.44,-176.57C355.9,-168.5 300.81,-155.7 253.75,-141 252.38,-140.57 250.99,-140.12 249.59,-139.65"/>
<polygon fill="#63b8ff" stroke="#63b8ff" points="250.91,-136.4 240.31,-136.32 248.55,-142.99 250.91,-136.4"/>
</a>
</g>
</g>
<!-- Node11 -->
<g id="Node000011" class="node">
<title>Node11</title>
<g id="a_Node000011"><a xlink:title=" ">
<polygon fill="#e0e0e0" stroke="#999999" points="573.38,-135.38 522.12,-135.38 522.12,-116.12 573.38,-116.12 573.38,-135.38"/>
<text text-anchor="middle" x="547.75" y="-121.88" font-family="Helvetica,sans-Serif" font-size="10.00">ostream</text>
</a>
</g>
</g>
<!-- Node9&#45;&gt;Node11 -->
<g id="edge12_Node000009_Node000011" class="edge">
<title>Node9&#45;&gt;Node11</title>
<g id="a_edge12_Node000009_Node000011"><a xlink:title=" ">
<path fill="none" stroke="#63b8ff" d="M454.46,-176.68C472.06,-167.26 500.06,-152.27 520.8,-141.18"/>
<polygon fill="#63b8ff" stroke="#63b8ff" points="522.39,-144.29 529.55,-136.49 519.08,-138.12 522.39,-144.29"/>
</a>
</g>
</g>
<!-- Node12 -->
<g id="Node000012" class="node">
<title>Node12</title>
<g id="a_Node000012"><a xlink:title=" ">
<polygon fill="#e0e0e0" stroke="#999999" points="643.75,-74.5 603.75,-74.5 603.75,-55.25 643.75,-55.25 643.75,-74.5"/>
<text text-anchor="middle" x="623.75" y="-61" font-family="Helvetica,sans-Serif" font-size="10.00">string</text>
</a>
</g>
</g>
<!-- Node9&#45;&gt;Node12 -->
<g id="edge13_Node000009_Node000012" class="edge">
<title>Node9&#45;&gt;Node12</title>
<g id="a_edge13_Node000009_Node000012"><a xlink:title=" ">
<path fill="none" stroke="#63b8ff" d="M444.7,-176.58C456.95,-161.17 483.85,-129.61 512.75,-110.5 537.5,-94.13 569.2,-82.14 592.38,-74.73"/>
<polygon fill="#63b8ff" stroke="#63b8ff" points="593.34,-78.09 601.87,-71.81 591.29,-71.4 593.34,-78.09"/>
</a>
</g>
</g>
<!-- Node13 -->
<g id="Node000013" class="node">
<title>Node13</title>
<g id="a_Node000013"><a xlink:href="../../da/d33/Namespace_8hpp.html" target="_top" xlink:title=" ">
<polygon fill="white" stroke="#666666" points="465.62,-135.38 295.88,-135.38 295.88,-116.12 465.62,-116.12 465.62,-135.38"/>
<text text-anchor="middle" x="380.75" y="-121.88" font-family="Helvetica,sans-Serif" font-size="10.00">Ark/Compiler/AST/Namespace.hpp</text>
</a>
</g>
</g>
<!-- Node9&#45;&gt;Node13 -->
<g id="edge15_Node000009_Node000013" class="edge">
<title>Node9&#45;&gt;Node13</title>
<g id="a_edge15_Node000009_Node000013"><a xlink:title=" ">
<path fill="none" stroke="#63b8ff" d="M429.09,-176.68C420.72,-168.04 407.82,-154.71 397.45,-144"/>
<polygon fill="#63b8ff" stroke="#63b8ff" points="400.01,-141.61 390.54,-136.86 394.98,-146.48 400.01,-141.61"/>
</a>
</g>
</g>
<!-- Node15 -->
<g id="Node000015" class="node">
<title>Node15</title>
<g id="a_Node000015"><a xlink:href="../../d5/d40/Platform_8hpp.html" target="_top" xlink:title="ArkScript configuration macros.">
<polygon fill="white" stroke="#666666" points="680.5,-135.38 591,-135.38 591,-116.12 680.5,-116.12 680.5,-135.38"/>
<text text-anchor="middle" x="635.75" y="-121.88" font-family="Helvetica,sans-Serif" font-size="10.00">Ark/Platform.hpp</text>
</a>
</g>
</g>
<!-- Node9&#45;&gt;Node15 -->
<g id="edge20_Node000009_Node000015" class="edge">
<title>Node9&#45;&gt;Node15</title>
<g id="a_edge20_Node000009_Node000015"><a xlink:title=" ">
<path fill="none" stroke="#63b8ff" d="M468.25,-176.55C502.12,-166.49 556.96,-150.18 594.6,-138.99"/>
<polygon fill="#63b8ff" stroke="#63b8ff" points="595.17,-142.47 603.76,-136.26 593.18,-135.76 595.17,-142.47"/>
</a>
</g>
</g>
<!-- Node13&#45;&gt;Node5 -->
<g id="edge17_Node000013_Node000005" class="edge">
<title>Node13&#45;&gt;Node5</title>
<g id="a_edge17_Node000013_Node000005"><a xlink:title=" ">
<path fill="none" stroke="#63b8ff" d="M367.23,-115.81C353.38,-106.64 331.57,-92.22 314.95,-81.23"/>
<polygon fill="#63b8ff" stroke="#63b8ff" points="316.93,-78.33 306.66,-75.74 313.07,-84.17 316.93,-78.33"/>
</a>
</g>
</g>
<!-- Node13&#45;&gt;Node12 -->
<g id="edge16_Node000013_Node000012" class="edge">
<title>Node13&#45;&gt;Node12</title>
<g id="a_edge16_Node000013_Node000012"><a xlink:title=" ">
<path fill="none" stroke="#63b8ff" d="M418.19,-115.68C465.97,-104.1 547.78,-84.28 592.43,-73.46"/>
<polygon fill="#63b8ff" stroke="#63b8ff" points="593.09,-76.9 601.98,-71.15 591.44,-70.1 593.09,-76.9"/>
</a>
</g>
</g>
<!-- Node14 -->
<g id="Node000014" class="node">
<title>Node14</title>
<g id="a_Node000014"><a xlink:title=" ">
<polygon fill="#e0e0e0" stroke="#999999" points="406.38,-74.5 355.12,-74.5 355.12,-55.25 406.38,-55.25 406.38,-74.5"/>
<text text-anchor="middle" x="380.75" y="-61" font-family="Helvetica,sans-Serif" font-size="10.00">memory</text>
</a>
</g>
</g>
<!-- Node13&#45;&gt;Node14 -->
<g id="edge18_Node000013_Node000014" class="edge">
<title>Node13&#45;&gt;Node14</title>
<g id="a_edge18_Node000013_Node000014"><a xlink:title=" ">
<path fill="none" stroke="#63b8ff" d="M380.75,-115.81C380.75,-108.03 380.75,-96.45 380.75,-86.41"/>
<polygon fill="#63b8ff" stroke="#63b8ff" points="384.25,-86.41 380.75,-76.41 377.25,-86.41 384.25,-86.41"/>
</a>
</g>
</g>
<!-- Node16&#45;&gt;Node5 -->
<g id="edge24_Node000016_Node000005" class="edge">
<title>Node16&#45;&gt;Node5</title>
<g id="a_edge24_Node000016_Node000005"><a xlink:title=" ">
<path fill="none" stroke="#63b8ff" d="M742.86,-176.52C735.31,-160.11 716.99,-125.85 689.75,-110.5 622.78,-72.78 421.95,-84.57 345.75,-74.5 338.94,-73.6 331.66,-72.52 324.72,-71.43"/>
<polygon fill="#63b8ff" stroke="#63b8ff" points="325.44,-68 315.01,-69.87 324.33,-74.91 325.44,-68"/>
</a>
</g>
</g>
<!-- Node16&#45;&gt;Node11 -->
<g id="edge27_Node000016_Node000011" class="edge">
<title>Node16&#45;&gt;Node11</title>
<g id="a_edge27_Node000016_Node000011"><a xlink:title=" ">
<path fill="none" stroke="#63b8ff" d="M707.3,-176.52C673.59,-168.37 623.99,-155.49 581.75,-141 580.77,-140.66 579.78,-140.31 578.78,-139.95"/>
<polygon fill="#63b8ff" stroke="#63b8ff" points="580.08,-136.7 569.49,-136.33 577.54,-143.22 580.08,-136.7"/>
</a>
</g>
</g>
<!-- Node16&#45;&gt;Node12 -->
<g id="edge22_Node000016_Node000012" class="edge">
<title>Node16&#45;&gt;Node12</title>
<g id="a_edge22_Node000016_Node000012"><a xlink:title=" ">
<path fill="none" stroke="#63b8ff" d="M746.2,-176.61C744.79,-161.22 739.88,-129.71 722.75,-110.5 705.09,-90.7 676.94,-79.19 655.16,-72.83"/>
<polygon fill="#63b8ff" stroke="#63b8ff" points="656.16,-69.47 645.59,-70.27 654.35,-76.24 656.16,-69.47"/>
</a>
</g>
</g>
<!-- Node16&#45;&gt;Node15 -->
<g id="edge33_Node000016_Node000015" class="edge">
<title>Node16&#45;&gt;Node15</title>
<g id="a_edge33_Node000016_Node000015"><a xlink:title=" ">
<path fill="none" stroke="#63b8ff" d="M729.89,-176.68C712.04,-167.22 683.61,-152.14 662.66,-141.02"/>
<polygon fill="#63b8ff" stroke="#63b8ff" points="664.58,-138.08 654.1,-136.49 661.3,-144.26 664.58,-138.08"/>
</a>
</g>
</g>
<!-- Node17 -->
<g id="Node000017" class="node">
<title>Node17</title>
<g id="a_Node000017"><a xlink:title=" ">
<polygon fill="#e0e0e0" stroke="#999999" points="947.38,-135.38 908.12,-135.38 908.12,-116.12 947.38,-116.12 947.38,-135.38"/>
<text text-anchor="middle" x="927.75" y="-121.88" font-family="Helvetica,sans-Serif" font-size="10.00">utility</text>
</a>
</g>
</g>
<!-- Node16&#45;&gt;Node17 -->
<g id="edge23_Node000016_Node000017" class="edge">
<title>Node16&#45;&gt;Node17</title>
<g id="a_edge23_Node000016_Node000017"><a xlink:title=" ">
<path fill="none" stroke="#63b8ff" d="M785.14,-176.55C816.49,-168.64 861.68,-156.09 899.75,-141 900.1,-140.86 900.46,-140.72 900.81,-140.57"/>
<polygon fill="#63b8ff" stroke="#63b8ff" points="902.09,-143.84 909.73,-136.49 899.18,-137.47 902.09,-143.84"/>
</a>
</g>
</g>
<!-- Node18 -->
<g id="Node000018" class="node">
<title>Node18</title>
<g id="a_Node000018"><a xlink:title=" ">
<polygon fill="#e0e0e0" stroke="#999999" points="1024.12,-135.38 965.38,-135.38 965.38,-116.12 1024.12,-116.12 1024.12,-135.38"/>
<text text-anchor="middle" x="994.75" y="-121.88" font-family="Helvetica,sans-Serif" font-size="10.00">stdexcept</text>
</a>
</g>
</g>
<!-- Node16&#45;&gt;Node18 -->
<g id="edge25_Node000016_Node000018" class="edge">
<title>Node16&#45;&gt;Node18</title>
<g id="a_edge25_Node000016_Node000018"><a xlink:title=" ">
<path fill="none" stroke="#63b8ff" d="M797.77,-176.99C840.63,-169.21 903.26,-156.62 956.75,-141 958.36,-140.53 959.99,-140.03 961.64,-139.5"/>
<polygon fill="#63b8ff" stroke="#63b8ff" points="962.7,-142.83 971,-136.25 960.41,-136.22 962.7,-142.83"/>
</a>
</g>
</g>
<!-- Node19 -->
<g id="Node000019" class="node">
<title>Node19</title>
<g id="a_Node000019"><a xlink:title=" ">
<polygon fill="#e0e0e0" stroke="#999999" points="1091.62,-135.38 1041.88,-135.38 1041.88,-116.12 1091.62,-116.12 1091.62,-135.38"/>
<text text-anchor="middle" x="1066.75" y="-121.88" font-family="Helvetica,sans-Serif" font-size="10.00">optional</text>
</a>
</g>
</g>
<!-- Node16&#45;&gt;Node19 -->
<g id="edge26_Node000016_Node000019" class="edge">
<title>Node16&#45;&gt;Node19</title>
<g id="a_edge26_Node000016_Node000019"><a xlink:title=" ">
<path fill="none" stroke="#63b8ff" d="M797.96,-177.96C877.19,-166.06 1021.57,-144.16 1032.75,-141 1034.1,-140.62 1035.47,-140.2 1036.84,-139.75"/>
<polygon fill="#63b8ff" stroke="#63b8ff" points="1037.69,-143.16 1045.84,-136.39 1035.25,-136.6 1037.69,-143.16"/>
</a>
</g>
</g>
<!-- Node20 -->
<g id="Node000020" class="node">
<title>Node20</title>
<g id="a_Node000020"><a xlink:title=" ">
<polygon fill="#e0e0e0" stroke="#999999" points="1163.5,-135.38 1110,-135.38 1110,-116.12 1163.5,-116.12 1163.5,-135.38"/>
<text text-anchor="middle" x="1136.75" y="-121.88" font-family="Helvetica,sans-Serif" font-size="10.00">iostream</text>
</a>
</g>
</g>
<!-- Node16&#45;&gt;Node20 -->
<g id="edge28_Node000016_Node000020" class="edge">
<title>Node16&#45;&gt;Node20</title>
<g id="a_edge28_Node000016_Node000020"><a xlink:title=" ">
<path fill="none" stroke="#63b8ff" d="M797.8,-178.21C800.83,-177.8 803.83,-177.39 806.75,-177 937.24,-159.63 973.18,-173.49 1100.75,-141 1102.38,-140.59 1104.03,-140.12 1105.69,-139.61"/>
<polygon fill="#63b8ff" stroke="#63b8ff" points="1106.79,-142.93 1115.06,-136.31 1104.47,-136.33 1106.79,-142.93"/>
</a>
</g>
</g>
<!-- Node21 -->
<g id="Node000021" class="node">
<title>Node21</title>
<g id="a_Node000021"><a xlink:href="../../db/d4e/utf8__char_8hpp.html" target="_top" xlink:title=" ">
<polygon fill="white" stroke="#666666" points="890.25,-141 775.25,-141 775.25,-110.5 890.25,-110.5 890.25,-141"/>
<text text-anchor="start" x="783.25" y="-127.5" font-family="Helvetica,sans-Serif" font-size="10.00">Ark/Compiler/AST/utf8</text>
<text text-anchor="middle" x="832.75" y="-116.25" font-family="Helvetica,sans-Serif" font-size="10.00">_char.hpp</text>
</a>
</g>
</g>
<!-- Node16&#45;&gt;Node21 -->
<g id="edge29_Node000016_Node000021" class="edge">
<title>Node16&#45;&gt;Node21</title>
<g id="a_edge29_Node000016_Node000021"><a xlink:title=" ">
<path fill="none" stroke="#63b8ff" d="M759.81,-176.68C771.07,-168.98 787.75,-157.55 802.33,-147.58"/>
<polygon fill="#63b8ff" stroke="#63b8ff" points="804,-150.67 810.27,-142.14 800.04,-144.9 804,-150.67"/>
</a>
</g>
</g>
<!-- Node21&#45;&gt;Node3 -->
<g id="edge30_Node000021_Node000003" class="edge">
<title>Node21&#45;&gt;Node3</title>
<g id="a_edge30_Node000021_Node000003"><a xlink:title=" ">
<path fill="none" stroke="#63b8ff" d="M775.04,-114.36C705.32,-101.81 590.63,-81.16 536.22,-71.36"/>
<polygon fill="#63b8ff" stroke="#63b8ff" points="536.91,-67.93 526.44,-69.6 535.67,-74.82 536.91,-67.93"/>
</a>
</g>
</g>
<!-- Node21&#45;&gt;Node12 -->
<g id="edge31_Node000021_Node000012" class="edge">
<title>Node21&#45;&gt;Node12</title>
<g id="a_edge31_Node000021_Node000012"><a xlink:title=" ">
<path fill="none" stroke="#63b8ff" d="M780.55,-110.05C741.07,-98.92 688.18,-84.02 655.04,-74.69"/>
<polygon fill="#63b8ff" stroke="#63b8ff" points="656.22,-71.39 645.65,-72.04 654.32,-78.12 656.22,-71.39"/>
</a>
</g>
</g>
<!-- Node22 -->
<g id="Node000022" class="node">
<title>Node22</title>
<g id="a_Node000022"><a xlink:title=" ">
<polygon fill="#e0e0e0" stroke="#999999" points="852.38,-74.5 813.12,-74.5 813.12,-55.25 852.38,-55.25 852.38,-74.5"/>
<text text-anchor="middle" x="832.75" y="-61" font-family="Helvetica,sans-Serif" font-size="10.00">limits</text>
</a>
</g>
</g>
<!-- Node21&#45;&gt;Node22 -->
<g id="edge32_Node000021_Node000022" class="edge">
<title>Node21&#45;&gt;Node22</title>
<g id="a_edge32_Node000021_Node000022"><a xlink:title=" ">
<path fill="none" stroke="#63b8ff" d="M832.75,-110.2C832.75,-102.96 832.75,-94.09 832.75,-86.19"/>
<polygon fill="#63b8ff" stroke="#63b8ff" points="836.25,-86.46 832.75,-76.46 829.25,-86.46 836.25,-86.46"/>
</a>
</g>
</g>
</g>
</svg>

<g id="navigator" transform="translate(0 0)" fill="#404254">
  <rect fill="#f2f5e9" fill-opacity="0.5" stroke="#606060" stroke-width=".5" x="0" y="0" width="60" height="60"/>
  <use id="zoomplus" xlink:href="#zoomPlus" x="17" y="9" onmousedown="handleZoom(evt,'in')"/>
  <use id="zoomminus" xlink:href="#zoomMin" x="42" y="9" onmousedown="handleZoom(evt,'out')"/>
  <use id="reset" xlink:href="#resetDef" x="30" y="36" onmousedown="handleReset()"/>
   <use id="arrowup" xlink:href="#arrowUp" x="0" y="0" onmousedown="handlePan(0,-1)"/>
  <use id="arrowright" xlink:href="#arrowRight" x="0" y="0" onmousedown="handlePan(1,0)"/>
  <use id="arrowdown" xlink:href="#arrowDown" x="0" y="0" onmousedown="handlePan(0,1)"/>
  <use id="arrowleft" xlink:href="#arrowLeft" x="0" y="0" onmousedown="handlePan(-1,0)"/>
</g>
<svg viewBox="0 0 15 15" width="100%" height="30px" preserveAspectRatio="xMaxYMin meet">
 <g id="arrow_out" transform="scale(0.3 0.3)">
  <a xlink:href="Node_8cpp__incl_org.svg" target="_base">
   <rect id="button" ry="5" rx="5" y="6" x="6" height="38" width="38"
        fill="#f2f5e9" fill-opacity="0.5" stroke="#606060" stroke-width="1.0"/>
   <path id="arrow"
     d="M 11.500037,31.436501 C 11.940474,20.09759 22.043105,11.32322 32.158766,21.979434 L 37.068811,17.246167 C 37.068811,17.246167 37.088388,32 37.088388,32 L 22.160133,31.978069 C 22.160133,31.978069 26.997745,27.140456 26.997745,27.140456 C 18.528582,18.264221 13.291696,25.230495 11.500037,31.436501 z"
     style="fill:#404040;"/>
  </a>
 </g>
</svg>

<style type='text/css'>
<![CDATA[
[data-mouse-over-selected='false'] { opacity: 0.7; }
[data-mouse-over-selected='true']  { opacity: 1.0; }
]]>
</style>
<script type="application/ecmascript"><![CDATA[
document.addEventListener('DOMContentLoaded', (event) => {
  highlightEdges();
  highlightAdjacentNodes();
});
]]></script>
</svg>
