<?xml version="1.0" encoding="UTF-8" standalone="no"?>
<!DOCTYPE svg PUBLIC "-//W3C//DTD SVG 1.1//EN"
 "http://www.w3.org/Graphics/SVG/1.1/DTD/svg11.dtd">
<!-- Generated by graphviz version 12.2.0 (20241103.1931)
 -->
<!-- Title: /Users/fola/Documents/ArkScript/Ark/src/arkreactor/Compiler/AST/Node.cpp Pages: 1 -->
<!--zoomable 282 -->

<svg id="main" version="1.1" xmlns="http://www.w3.org/2000/svg" xmlns:xlink="http://www.w3.org/1999/xlink" xml:space="preserve" onload="init(evt)">

<style type="text/css"><![CDATA[
.node, .edge {opacity: 0.7;}
.node.selected, .edge.selected {opacity: 1;}
.edge:hover path { stroke: red; }
.edge:hover polygon { stroke: red; fill: red; }
]]></style>

<defs>
  <circle id="rim" cx="0" cy="0" r="7"/>
  <circle id="rim2" cx="0" cy="0" r="3.5"/>
  <g id="zoomPlus">
    <use xlink:href="#rim" fill="#404040"><set attributeName="fill" to="#808080" begin="zoomplus.mouseover" end="zoomplus.mouseout"/></use>
    <path d="M-4,0h8M0,-4v8" fill="none" stroke="white" stroke-width="1.5" pointer-events="none"/>
  </g>
  <g id="zoomMin">
    <use xlink:href="#rim" fill="#404040"><set attributeName="fill" to="#808080" begin="zoomminus.mouseover" end="zoomminus.mouseout"/></use>
    <path d="M-4,0h8" fill="none" stroke="white" stroke-width="1.5" pointer-events="none"/>
  </g>
  <g id="arrowUp" transform="translate(30 24)">
    <use xlink:href="#rim"/>
    <path pointer-events="none" fill="none" stroke="white" stroke-width="1.5" d="M0,-3.0v7 M-2.5,-0.5L0,-3.0L2.5,-0.5"/>
  </g>
  <g id="arrowRight" transform="rotate(90) translate(36 -43)">
    <use xlink:href="#rim"/>
    <path pointer-events="none" fill="none" stroke="white" stroke-width="1.5" d="M0,-3.0v7 M-2.5,-0.5L0,-3.0L2.5,-0.5"/>
  </g>
  <g id="arrowDown" transform="rotate(180) translate(-30 -48)">
    <use xlink:href="#rim"/>
    <path pointer-events="none" fill="none" stroke="white" stroke-width="1.5" d="M0,-3.0v7 M-2.5,-0.5L0,-3.0L2.5,-0.5"/>
  </g>
  <g id="arrowLeft" transform="rotate(270) translate(-36 17)">
    <use xlink:href="#rim"/>
    <path pointer-events="none" fill="none" stroke="white" stroke-width="1.5" d="M0,-3.0v7 M-2.5,-0.5L0,-3.0L2.5,-0.5"/>
  </g>
  <g id="resetDef">
    <use xlink:href="#rim2" fill="#404040"><set attributeName="fill" to="#808080" begin="reset.mouseover" end="reset.mouseout"/></use>
  </g>
</defs>
<script type="application/ecmascript">
var viewWidth = 1226;
var viewHeight = 282;
var sectionId = 'dynsection-0';
</script>
<script type="application/ecmascript" xlink:href="../../svg.min.js"/>
<svg id="graph" class="graph">
<g id="viewport">
<title>/Users/fola/Documents/ArkScript/Ark/src/arkreactor/Compiler/AST/Node.cpp</title>
<!-- Node1 -->
<g id="Node000001" class="node">
<title>Node1</title>
<g id="a_Node000001"><a xlink:title=" ">
<polygon fill="#999999" stroke="#666666" points="873.12,-274 732.62,-274 732.62,-232.25 873.12,-232.25 873.12,-274"/>
<text text-anchor="start" x="740.62" y="-260.5" font-family="Helvetica,sans-Serif" font-size="10.00">/Users/fola/Documents</text>
<text text-anchor="start" x="740.62" y="-249.25" font-family="Helvetica,sans-Serif" font-size="10.00">/ArkScript/Ark/src/arkreactor</text>
<text text-anchor="middle" x="802.88" y="-238" font-family="Helvetica,sans-Serif" font-size="10.00">/Compiler/AST/Node.cpp</text>
</a>
</g>
</g>
<!-- Node2 -->
<g id="Node000002" class="node">
<title>Node2</title>
<g id="a_Node000002"><a xlink:href="../../d8/ddd/Common_8hpp.html" target="_top" xlink:title="Common code for the compiler.">
<polygon fill="white" stroke="#666666" points="168.12,-135.38 33.62,-135.38 33.62,-116.12 168.12,-116.12 168.12,-135.38"/>
<text text-anchor="middle" x="100.88" y="-121.88" font-family="Helvetica,sans-Serif" font-size="10.00">Ark/Compiler/Common.hpp</text>
</a>
</g>
</g>
<!-- Node1&#45;&gt;Node2 -->
<g id="edge1_Node000001_Node000002" class="edge">
<title>Node1&#45;&gt;Node2</title>
<g id="a_edge1_Node000001_Node000002"><a xlink:title=" ">
<path fill="none" stroke="#63b8ff" d="M732.4,-243.34C655.38,-233.39 528.47,-215.98 419.88,-196.25 323.54,-178.75 211.96,-153.22 149.58,-138.47"/>
<polygon fill="#63b8ff" stroke="#63b8ff" points="150.53,-135.1 139.99,-136.19 148.91,-141.91 150.53,-135.1"/>
</a>
</g>
</g>
<!-- Node10 -->
<g id="Node000010" class="node">
<title>Node10</title>
<g id="a_Node000010"><a xlink:href="../../d7/dc6/Node_8hpp.html" target="_top" xlink:title="AST node used by the parser, optimizer and compiler.">
<polygon fill="white" stroke="#666666" points="569.12,-196.25 428.62,-196.25 428.62,-177 569.12,-177 569.12,-196.25"/>
<text text-anchor="middle" x="498.88" y="-182.75" font-family="Helvetica,sans-Serif" font-size="10.00">Ark/Compiler/AST/Node.hpp</text>
</a>
</g>
</g>
<!-- Node1&#45;&gt;Node10 -->
<g id="edge11_Node000001_Node000010" class="edge">
<title>Node1&#45;&gt;Node10</title>
<g id="a_edge11_Node000001_Node000010"><a xlink:title=" ">
<path fill="none" stroke="#63b8ff" d="M732.37,-237.17C677.69,-225.56 603.04,-209.73 553.01,-199.11"/>
<polygon fill="#63b8ff" stroke="#63b8ff" points="553.78,-195.7 543.27,-197.04 552.32,-202.54 553.78,-195.7"/>
</a>
</g>
</g>
<!-- Node19 -->
<g id="Node000019" class="node">
<title>Node19</title>
<g id="a_Node000019"><a xlink:href="../../d2/de9/Exceptions_8hpp.html" target="_top" xlink:title="ArkScript homemade exceptions.">
<polygon fill="white" stroke="#666666" points="865.62,-196.25 740.12,-196.25 740.12,-177 865.62,-177 865.62,-196.25"/>
<text text-anchor="middle" x="802.88" y="-182.75" font-family="Helvetica,sans-Serif" font-size="10.00">Ark/Error/Exceptions.hpp</text>
</a>
</g>
</g>
<!-- Node1&#45;&gt;Node19 -->
<g id="edge26_Node000001_Node000019" class="edge">
<title>Node1&#45;&gt;Node19</title>
<g id="a_edge26_Node000001_Node000019"><a xlink:title=" ">
<path fill="none" stroke="#63b8ff" d="M802.88,-232.07C802.88,-224.4 802.88,-215.64 802.88,-207.95"/>
<polygon fill="#63b8ff" stroke="#63b8ff" points="806.38,-208.21 802.88,-198.21 799.38,-208.21 806.38,-208.21"/>
</a>
</g>
</g>
<!-- Node24 -->
<g id="Node000024" class="node">
<title>Node24</title>
<g id="a_Node000024"><a xlink:title=" ">
<polygon fill="#e0e0e0" stroke="#999999" points="932,-196.25 883.75,-196.25 883.75,-177 932,-177 932,-196.25"/>
<text text-anchor="middle" x="907.88" y="-182.75" font-family="Helvetica,sans-Serif" font-size="10.00">cassert</text>
</a>
</g>
</g>
<!-- Node1&#45;&gt;Node24 -->
<g id="edge40_Node000001_Node000024" class="edge">
<title>Node1&#45;&gt;Node24</title>
<g id="a_edge40_Node000001_Node000024"><a xlink:title=" ">
<path fill="none" stroke="#63b8ff" d="M835.81,-231.89C851.3,-222.38 869.43,-211.24 883.64,-202.51"/>
<polygon fill="#63b8ff" stroke="#63b8ff" points="885.21,-205.65 891.9,-197.44 881.55,-199.69 885.21,-205.65"/>
</a>
</g>
</g>
<!-- Node25 -->
<g id="Node000025" class="node">
<title>Node25</title>
<g id="a_Node000025"><a xlink:title=" ">
<polygon fill="#e0e0e0" stroke="#999999" points="1010,-196.25 949.75,-196.25 949.75,-177 1010,-177 1010,-196.25"/>
<text text-anchor="middle" x="979.88" y="-182.75" font-family="Helvetica,sans-Serif" font-size="10.00">fmt/core.h</text>
</a>
</g>
</g>
<!-- Node1&#45;&gt;Node25 -->
<g id="edge41_Node000001_Node000025" class="edge">
<title>Node1&#45;&gt;Node25</title>
<g id="a_edge41_Node000001_Node000025"><a xlink:title=" ">
<path fill="none" stroke="#63b8ff" d="M858.39,-231.89C886.53,-221.64 919.85,-209.5 944.47,-200.53"/>
<polygon fill="#63b8ff" stroke="#63b8ff" points="945.5,-203.87 953.7,-197.16 943.11,-197.3 945.5,-203.87"/>
</a>
</g>
</g>
<!-- Node3 -->
<g id="Node000003" class="node">
<title>Node3</title>
<g id="a_Node000003"><a xlink:title=" ">
<polygon fill="#e0e0e0" stroke="#999999" points="488.75,-74.5 451,-74.5 451,-55.25 488.75,-55.25 488.75,-74.5"/>
<text text-anchor="middle" x="469.88" y="-61" font-family="Helvetica,sans-Serif" font-size="10.00">array</text>
</a>
</g>
</g>
<!-- Node2&#45;&gt;Node3 -->
<g id="edge2_Node000002_Node000003" class="edge">
<title>Node2&#45;&gt;Node3</title>
<g id="a_edge2_Node000002_Node000003"><a xlink:title=" ">
<path fill="none" stroke="#63b8ff" d="M168.52,-116.03C247.68,-105.61 375.18,-88.16 439.46,-74.67"/>
<polygon fill="#63b8ff" stroke="#63b8ff" points="440.21,-78.09 449.22,-72.53 438.7,-71.26 440.21,-78.09"/>
</a>
</g>
</g>
<!-- Node4 -->
<g id="Node000004" class="node">
<title>Node4</title>
<g id="a_Node000004"><a xlink:title=" ">
<polygon fill="#e0e0e0" stroke="#999999" points="209.62,-19.25 144.12,-19.25 144.12,0 209.62,0 209.62,-19.25"/>
<text text-anchor="middle" x="176.88" y="-5.75" font-family="Helvetica,sans-Serif" font-size="10.00">string_view</text>
</a>
</g>
</g>
<!-- Node2&#45;&gt;Node4 -->
<g id="edge3_Node000002_Node000004" class="edge">
<title>Node2&#45;&gt;Node4</title>
<g id="a_edge3_Node000002_Node000004"><a xlink:title=" ">
<path fill="none" stroke="#63b8ff" d="M115.41,-115.77C128.63,-106.87 147.73,-92.05 158.88,-74.5 167.3,-61.23 171.86,-43.97 174.28,-30.73"/>
<polygon fill="#63b8ff" stroke="#63b8ff" points="177.71,-31.45 175.77,-21.04 170.79,-30.39 177.71,-31.45"/>
</a>
</g>
</g>
<!-- Node5 -->
<g id="Node000005" class="node">
<title>Node5</title>
<g id="a_Node000005"><a xlink:title=" ">
<polygon fill="#e0e0e0" stroke="#999999" points="249.38,-74.5 206.38,-74.5 206.38,-55.25 249.38,-55.25 249.38,-74.5"/>
<text text-anchor="middle" x="227.88" y="-61" font-family="Helvetica,sans-Serif" font-size="10.00">vector</text>
</a>
</g>
</g>
<!-- Node2&#45;&gt;Node5 -->
<g id="edge4_Node000002_Node000005" class="edge">
<title>Node2&#45;&gt;Node5</title>
<g id="a_edge4_Node000002_Node000005"><a xlink:title=" ">
<path fill="none" stroke="#63b8ff" d="M120.44,-115.68C141.2,-106.06 174.24,-90.74 198.2,-79.63"/>
<polygon fill="#63b8ff" stroke="#63b8ff" points="199.52,-82.88 207.12,-75.5 196.58,-76.53 199.52,-82.88"/>
</a>
</g>
</g>
<!-- Node6 -->
<g id="Node000006" class="node">
<title>Node6</title>
<g id="a_Node000006"><a xlink:title=" ">
<polygon fill="#e0e0e0" stroke="#999999" points="55.75,-19.25 0,-19.25 0,0 55.75,0 55.75,-19.25"/>
<text text-anchor="middle" x="27.88" y="-5.75" font-family="Helvetica,sans-Serif" font-size="10.00">cinttypes</text>
</a>
</g>
</g>
<!-- Node2&#45;&gt;Node6 -->
<g id="edge5_Node000002_Node000006" class="edge">
<title>Node2&#45;&gt;Node6</title>
<g id="a_edge5_Node000002_Node000006"><a xlink:title=" ">
<path fill="none" stroke="#63b8ff" d="M85.9,-115.71C72.57,-106.87 53.56,-92.17 42.88,-74.5 34.84,-61.2 31.11,-43.94 29.37,-30.71"/>
<polygon fill="#63b8ff" stroke="#63b8ff" points="32.88,-30.64 28.4,-21.04 25.92,-31.34 32.88,-30.64"/>
</a>
</g>
</g>
<!-- Node7 -->
<g id="Node000007" class="node">
<title>Node7</title>
<g id="a_Node000007"><a xlink:href="../../d6/de9/Constants_8hpp.html" target="_top" xlink:title="Constants used by ArkScript.">
<polygon fill="white" stroke="#666666" points="149.75,-74.5 52,-74.5 52,-55.25 149.75,-55.25 149.75,-74.5"/>
<text text-anchor="middle" x="100.88" y="-61" font-family="Helvetica,sans-Serif" font-size="10.00">Ark/Constants.hpp</text>
</a>
</g>
</g>
<!-- Node2&#45;&gt;Node7 -->
<g id="edge6_Node000002_Node000007" class="edge">
<title>Node2&#45;&gt;Node7</title>
<g id="a_edge6_Node000002_Node000007"><a xlink:title=" ">
<path fill="none" stroke="#63b8ff" d="M100.88,-115.81C100.88,-108.03 100.88,-96.45 100.88,-86.41"/>
<polygon fill="#63b8ff" stroke="#63b8ff" points="104.38,-86.41 100.88,-76.41 97.38,-86.41 104.38,-86.41"/>
</a>
</g>
</g>
<!-- Node7&#45;&gt;Node4 -->
<g id="edge7_Node000007_Node000004" class="edge">
<title>Node7&#45;&gt;Node4</title>
<g id="a_edge7_Node000007_Node000004"><a xlink:title=" ">
<path fill="none" stroke="#63b8ff" d="M113.77,-54.84C124.9,-47.04 141.25,-35.59 154.51,-26.29"/>
<polygon fill="#63b8ff" stroke="#63b8ff" points="156.5,-29.18 162.68,-20.57 152.48,-23.44 156.5,-29.18"/>
</a>
</g>
</g>
<!-- Node7&#45;&gt;Node6 -->
<g id="edge9_Node000007_Node000006" class="edge">
<title>Node7&#45;&gt;Node6</title>
<g id="a_edge9_Node000007_Node000006"><a xlink:title=" ">
<path fill="none" stroke="#63b8ff" d="M88.49,-54.84C77.73,-46.99 61.9,-35.45 49.12,-26.12"/>
<polygon fill="#63b8ff" stroke="#63b8ff" points="51.44,-23.48 41.3,-20.42 47.31,-29.14 51.44,-23.48"/>
</a>
</g>
</g>
<!-- Node8 -->
<g id="Node000008" class="node">
<title>Node8</title>
<g id="a_Node000008"><a xlink:title=" ">
<polygon fill="#e0e0e0" stroke="#999999" points="401.5,-19.25 362.25,-19.25 362.25,0 401.5,0 401.5,-19.25"/>
<text text-anchor="middle" x="381.88" y="-5.75" font-family="Helvetica,sans-Serif" font-size="10.00">limits</text>
</a>
</g>
</g>
<!-- Node7&#45;&gt;Node8 -->
<g id="edge8_Node000007_Node000008" class="edge">
<title>Node7&#45;&gt;Node8</title>
<g id="a_edge8_Node000007_Node000008"><a xlink:title=" ">
<path fill="none" stroke="#63b8ff" d="M148.86,-54.78C206.64,-43.83 302,-25.76 350.88,-16.5"/>
<polygon fill="#63b8ff" stroke="#63b8ff" points="351.31,-19.98 360.49,-14.68 350.01,-13.1 351.31,-19.98"/>
</a>
</g>
</g>
<!-- Node9 -->
<g id="Node000009" class="node">
<title>Node9</title>
<g id="a_Node000009"><a xlink:title=" ">
<polygon fill="#e0e0e0" stroke="#999999" points="125,-19.25 76.75,-19.25 76.75,0 125,0 125,-19.25"/>
<text text-anchor="middle" x="100.88" y="-5.75" font-family="Helvetica,sans-Serif" font-size="10.00">cstddef</text>
</a>
</g>
</g>
<!-- Node7&#45;&gt;Node9 -->
<g id="edge10_Node000007_Node000009" class="edge">
<title>Node7&#45;&gt;Node9</title>
<g id="a_edge10_Node000007_Node000009"><a xlink:title=" ">
<path fill="none" stroke="#63b8ff" d="M100.88,-55.08C100.88,-48.57 100.88,-39.42 100.88,-31.12"/>
<polygon fill="#63b8ff" stroke="#63b8ff" points="104.38,-31.12 100.88,-21.12 97.38,-31.12 104.38,-31.12"/>
</a>
</g>
</g>
<!-- Node10&#45;&gt;Node2 -->
<g id="edge21_Node000010_Node000002" class="edge">
<title>Node10&#45;&gt;Node2</title>
<g id="a_edge21_Node000010_Node000002"><a xlink:title=" ">
<path fill="none" stroke="#63b8ff" d="M429.2,-176.52C364.91,-167.94 266.82,-154.45 181.88,-141 175.46,-139.98 168.77,-138.88 162.1,-137.75"/>
<polygon fill="#63b8ff" stroke="#63b8ff" points="162.89,-134.34 152.44,-136.09 161.71,-141.23 162.89,-134.34"/>
</a>
</g>
</g>
<!-- Node10&#45;&gt;Node5 -->
<g id="edge15_Node000010_Node000005" class="edge">
<title>Node10&#45;&gt;Node5</title>
<g id="a_edge15_Node000010_Node000005"><a xlink:title=" ">
<path fill="none" stroke="#63b8ff" d="M428.23,-184.63C353.22,-181.9 241.8,-172.48 214.88,-141 201.61,-125.49 209.04,-101.4 217.05,-84.7"/>
<polygon fill="#63b8ff" stroke="#63b8ff" points="219.92,-86.78 221.48,-76.3 213.72,-83.51 219.92,-86.78"/>
</a>
</g>
</g>
<!-- Node11 -->
<g id="Node000011" class="node">
<title>Node11</title>
<g id="a_Node000011"><a xlink:title=" ">
<polygon fill="#e0e0e0" stroke="#999999" points="269.5,-135.38 224.25,-135.38 224.25,-116.12 269.5,-116.12 269.5,-135.38"/>
<text text-anchor="middle" x="246.88" y="-121.88" font-family="Helvetica,sans-Serif" font-size="10.00">variant</text>
</a>
</g>
</g>
<!-- Node10&#45;&gt;Node11 -->
<g id="edge12_Node000010_Node000011" class="edge">
<title>Node10&#45;&gt;Node11</title>
<g id="a_edge12_Node000010_Node000011"><a xlink:title=" ">
<path fill="none" stroke="#63b8ff" d="M433.55,-176.51C389,-169.31 329.05,-157.68 277.88,-141 276.91,-140.69 275.94,-140.35 274.97,-140"/>
<polygon fill="#63b8ff" stroke="#63b8ff" points="276.6,-136.89 266.02,-136.33 273.95,-143.37 276.6,-136.89"/>
</a>
</g>
</g>
<!-- Node12 -->
<g id="Node000012" class="node">
<title>Node12</title>
<g id="a_Node000012"><a xlink:title=" ">
<polygon fill="#e0e0e0" stroke="#999999" points="338.5,-135.38 287.25,-135.38 287.25,-116.12 338.5,-116.12 338.5,-135.38"/>
<text text-anchor="middle" x="312.88" y="-121.88" font-family="Helvetica,sans-Serif" font-size="10.00">ostream</text>
</a>
</g>
</g>
<!-- Node10&#45;&gt;Node12 -->
<g id="edge13_Node000010_Node000012" class="edge">
<title>Node10&#45;&gt;Node12</title>
<g id="a_edge13_Node000010_Node000012"><a xlink:title=" ">
<path fill="none" stroke="#63b8ff" d="M464.68,-176.56C433.88,-168.15 387.48,-154.87 347.88,-141 346.9,-140.66 345.91,-140.3 344.92,-139.94"/>
<polygon fill="#63b8ff" stroke="#63b8ff" points="346.22,-136.69 335.63,-136.37 343.71,-143.23 346.22,-136.69"/>
</a>
</g>
</g>
<!-- Node13 -->
<g id="Node000013" class="node">
<title>Node13</title>
<g id="a_Node000013"><a xlink:title=" ">
<polygon fill="#e0e0e0" stroke="#999999" points="746.88,-74.5 706.88,-74.5 706.88,-55.25 746.88,-55.25 746.88,-74.5"/>
<text text-anchor="middle" x="726.88" y="-61" font-family="Helvetica,sans-Serif" font-size="10.00">string</text>
</a>
</g>
</g>
<!-- Node10&#45;&gt;Node13 -->
<g id="edge14_Node000010_Node000013" class="edge">
<title>Node10&#45;&gt;Node13</title>
<g id="a_edge14_Node000010_Node000013"><a xlink:title=" ">
<path fill="none" stroke="#63b8ff" d="M569.6,-178.53C622.24,-171.83 688.24,-159.92 707.88,-141 722.47,-126.94 726.47,-103.42 727.29,-86.44"/>
<polygon fill="#63b8ff" stroke="#63b8ff" points="730.78,-86.55 727.4,-76.51 723.78,-86.47 730.78,-86.55"/>
</a>
</g>
</g>
<!-- Node14 -->
<g id="Node000014" class="node">
<title>Node14</title>
<g id="a_Node000014"><a xlink:title=" ">
<polygon fill="#e0e0e0" stroke="#999999" points="827.75,-19.25 778,-19.25 778,0 827.75,0 827.75,-19.25"/>
<text text-anchor="middle" x="802.88" y="-5.75" font-family="Helvetica,sans-Serif" font-size="10.00">optional</text>
</a>
</g>
</g>
<!-- Node10&#45;&gt;Node14 -->
<g id="edge16_Node000010_Node000014" class="edge">
<title>Node10&#45;&gt;Node14</title>
<g id="a_edge16_Node000010_Node000014"><a xlink:title=" ">
<path fill="none" stroke="#63b8ff" d="M506.02,-176.71C518.6,-161.49 546.11,-130.22 574.88,-110.5 636.95,-67.95 720.07,-37.08 766.89,-21.68"/>
<polygon fill="#63b8ff" stroke="#63b8ff" points="767.81,-25.06 776.25,-18.65 765.66,-18.4 767.81,-25.06"/>
</a>
</g>
</g>
<!-- Node15 -->
<g id="Node000015" class="node">
<title>Node15</title>
<g id="a_Node000015"><a xlink:href="../../da/d33/Namespace_8hpp.html" target="_top" xlink:title=" ">
<polygon fill="white" stroke="#666666" points="526.75,-135.38 357,-135.38 357,-116.12 526.75,-116.12 526.75,-135.38"/>
<text text-anchor="middle" x="441.88" y="-121.88" font-family="Helvetica,sans-Serif" font-size="10.00">Ark/Compiler/AST/Namespace.hpp</text>
</a>
</g>
</g>
<!-- Node10&#45;&gt;Node15 -->
<g id="edge17_Node000010_Node000015" class="edge">
<title>Node10&#45;&gt;Node15</title>
<g id="a_edge17_Node000010_Node000015"><a xlink:title=" ">
<path fill="none" stroke="#63b8ff" d="M490.22,-176.68C481.85,-168.04 468.95,-154.71 458.57,-144"/>
<polygon fill="#63b8ff" stroke="#63b8ff" points="461.14,-141.61 451.67,-136.86 456.11,-146.48 461.14,-141.61"/>
</a>
</g>
</g>
<!-- Node17 -->
<g id="Node000017" class="node">
<title>Node17</title>
<g id="a_Node000017"><a xlink:href="../../d5/d40/Platform_8hpp.html" target="_top" xlink:title="ArkScript configuration macros.">
<polygon fill="white" stroke="#666666" points="1084.25,-19.25 971.5,-19.25 971.5,0 1084.25,0 1084.25,-19.25"/>
<text text-anchor="middle" x="1027.88" y="-5.75" font-family="Helvetica,sans-Serif" font-size="10.00">Ark/Utils/Platform.hpp</text>
</a>
</g>
</g>
<!-- Node10&#45;&gt;Node17 -->
<g id="edge22_Node000010_Node000017" class="edge">
<title>Node10&#45;&gt;Node17</title>
<g id="a_edge22_Node000010_Node000017"><a xlink:title=" ">
<path fill="none" stroke="#63b8ff" d="M569.36,-182.26C711.07,-175.15 1018.36,-157.86 1033.88,-141 1061.53,-110.94 1047.27,-58.58 1036.4,-30.22"/>
<polygon fill="#63b8ff" stroke="#63b8ff" points="1039.69,-29 1032.66,-21.07 1033.21,-31.65 1039.69,-29"/>
</a>
</g>
</g>
<!-- Node18 -->
<g id="Node000018" class="node">
<title>Node18</title>
<g id="a_Node000018"><a xlink:href="../../dc/d58/Position_8hpp.html" target="_top" xlink:title="Defines position utilities (for text in a file) for the parser, formatter, diagnostics.">
<polygon fill="white" stroke="#666666" points="964.5,-74.5 853.25,-74.5 853.25,-55.25 964.5,-55.25 964.5,-74.5"/>
<text text-anchor="middle" x="908.88" y="-61" font-family="Helvetica,sans-Serif" font-size="10.00">Ark/Utils/Position.hpp</text>
</a>
</g>
</g>
<!-- Node10&#45;&gt;Node18 -->
<g id="edge23_Node000010_Node000018" class="edge">
<title>Node10&#45;&gt;Node18</title>
<g id="a_edge23_Node000010_Node000018"><a xlink:title=" ">
<path fill="none" stroke="#63b8ff" d="M565.22,-176.53C611.88,-169.24 675.44,-157.49 729.88,-141 784.88,-124.34 846.04,-96.54 880.74,-79.83"/>
<polygon fill="#63b8ff" stroke="#63b8ff" points="882.21,-83.01 889.68,-75.49 879.15,-76.71 882.21,-83.01"/>
</a>
</g>
</g>
<!-- Node15&#45;&gt;Node5 -->
<g id="edge19_Node000015_Node000005" class="edge">
<title>Node15&#45;&gt;Node5</title>
<g id="a_edge19_Node000015_Node000005"><a xlink:title=" ">
<path fill="none" stroke="#63b8ff" d="M408.91,-115.68C368.68,-104.61 301.06,-86.01 260.84,-74.94"/>
<polygon fill="#63b8ff" stroke="#63b8ff" points="261.81,-71.58 251.24,-72.3 259.95,-78.33 261.81,-71.58"/>
</a>
</g>
</g>
<!-- Node15&#45;&gt;Node13 -->
<g id="edge18_Node000015_Node000013" class="edge">
<title>Node15&#45;&gt;Node13</title>
<g id="a_edge18_Node000015_Node000013"><a xlink:title=" ">
<path fill="none" stroke="#63b8ff" d="M485.78,-115.68C543.75,-103.71 644.41,-82.91 695.37,-72.38"/>
<polygon fill="#63b8ff" stroke="#63b8ff" points="696.05,-75.82 705.14,-70.37 694.64,-68.96 696.05,-75.82"/>
</a>
</g>
</g>
<!-- Node16 -->
<g id="Node000016" class="node">
<title>Node16</title>
<g id="a_Node000016"><a xlink:title=" ">
<polygon fill="#e0e0e0" stroke="#999999" points="432.5,-74.5 381.25,-74.5 381.25,-55.25 432.5,-55.25 432.5,-74.5"/>
<text text-anchor="middle" x="406.88" y="-61" font-family="Helvetica,sans-Serif" font-size="10.00">memory</text>
</a>
</g>
</g>
<!-- Node15&#45;&gt;Node16 -->
<g id="edge20_Node000015_Node000016" class="edge">
<title>Node15&#45;&gt;Node16</title>
<g id="a_edge20_Node000015_Node000016"><a xlink:title=" ">
<path fill="none" stroke="#63b8ff" d="M436.56,-115.81C431.68,-107.6 424.28,-95.16 418.1,-84.75"/>
<polygon fill="#63b8ff" stroke="#63b8ff" points="421.13,-83.01 413.01,-76.2 415.12,-86.59 421.13,-83.01"/>
</a>
</g>
</g>
<!-- Node18&#45;&gt;Node14 -->
<g id="edge24_Node000018_Node000014" class="edge">
<title>Node18&#45;&gt;Node14</title>
<g id="a_edge24_Node000018_Node000014"><a xlink:title=" ">
<path fill="none" stroke="#63b8ff" d="M890.89,-54.84C874.52,-46.62 850.09,-34.34 831.11,-24.81"/>
<polygon fill="#63b8ff" stroke="#63b8ff" points="832.8,-21.74 822.3,-20.38 829.66,-28 832.8,-21.74"/>
</a>
</g>
</g>
<!-- Node18&#45;&gt;Node17 -->
<g id="edge25_Node000018_Node000017" class="edge">
<title>Node18&#45;&gt;Node17</title>
<g id="a_edge25_Node000018_Node000017"><a xlink:title=" ">
<path fill="none" stroke="#63b8ff" d="M929.06,-54.84C947.78,-46.47 975.9,-33.88 997.36,-24.28"/>
<polygon fill="#63b8ff" stroke="#63b8ff" points="998.51,-27.6 1006.21,-20.32 995.65,-21.21 998.51,-27.6"/>
</a>
</g>
</g>
<!-- Node19&#45;&gt;Node13 -->
<g id="edge27_Node000019_Node000013" class="edge">
<title>Node19&#45;&gt;Node13</title>
<g id="a_edge27_Node000019_Node000013"><a xlink:title=" ">
<path fill="none" stroke="#63b8ff" d="M797.16,-176.62C784.78,-157.12 755.27,-110.61 738.69,-84.49"/>
<polygon fill="#63b8ff" stroke="#63b8ff" points="741.78,-82.83 733.46,-76.26 735.87,-86.58 741.78,-82.83"/>
</a>
</g>
</g>
<!-- Node19&#45;&gt;Node14 -->
<g id="edge30_Node000019_Node000014" class="edge">
<title>Node19&#45;&gt;Node14</title>
<g id="a_edge30_Node000019_Node000014"><a xlink:title=" ">
<path fill="none" stroke="#63b8ff" d="M802.88,-176.71C802.88,-149.8 802.88,-68.94 802.88,-30.87"/>
<polygon fill="#63b8ff" stroke="#63b8ff" points="806.38,-31.25 802.88,-21.25 799.38,-31.25 806.38,-31.25"/>
</a>
</g>
</g>
<!-- Node19&#45;&gt;Node17 -->
<g id="edge35_Node000019_Node000017" class="edge">
<title>Node19&#45;&gt;Node17</title>
<g id="a_edge35_Node000019_Node000017"><a xlink:title=" ">
<path fill="none" stroke="#63b8ff" d="M866.09,-178.01C869.06,-177.67 872,-177.33 874.88,-177 948.39,-168.6 1156.47,-196.07 1205.88,-141 1253.25,-88.2 1138.93,-43.56 1072.07,-22.91"/>
<polygon fill="#63b8ff" stroke="#63b8ff" points="1073.41,-19.66 1062.83,-20.13 1071.39,-26.36 1073.41,-19.66"/>
</a>
</g>
</g>
<!-- Node20 -->
<g id="Node000020" class="node">
<title>Node20</title>
<g id="a_Node000020"><a xlink:title=" ">
<polygon fill="#e0e0e0" stroke="#999999" points="1120.5,-135.38 1081.25,-135.38 1081.25,-116.12 1120.5,-116.12 1120.5,-135.38"/>
<text text-anchor="middle" x="1100.88" y="-121.88" font-family="Helvetica,sans-Serif" font-size="10.00">utility</text>
</a>
</g>
</g>
<!-- Node19&#45;&gt;Node20 -->
<g id="edge28_Node000019_Node000020" class="edge">
<title>Node19&#45;&gt;Node20</title>
<g id="a_edge28_Node000019_Node000020"><a xlink:title=" ">
<path fill="none" stroke="#63b8ff" d="M865.87,-176.68C931.62,-167.04 1030.15,-151.65 1066.88,-141 1068.22,-140.61 1069.59,-140.18 1070.96,-139.72"/>
<polygon fill="#63b8ff" stroke="#63b8ff" points="1071.82,-143.14 1079.96,-136.35 1069.37,-136.58 1071.82,-143.14"/>
</a>
</g>
</g>
<!-- Node21 -->
<g id="Node000021" class="node">
<title>Node21</title>
<g id="a_Node000021"><a xlink:title=" ">
<polygon fill="#e0e0e0" stroke="#999999" points="1197.25,-135.38 1138.5,-135.38 1138.5,-116.12 1197.25,-116.12 1197.25,-135.38"/>
<text text-anchor="middle" x="1167.88" y="-121.88" font-family="Helvetica,sans-Serif" font-size="10.00">stdexcept</text>
</a>
</g>
</g>
<!-- Node19&#45;&gt;Node21 -->
<g id="edge29_Node000019_Node000021" class="edge">
<title>Node19&#45;&gt;Node21</title>
<g id="a_edge29_Node000019_Node000021"><a xlink:title=" ">
<path fill="none" stroke="#63b8ff" d="M865.98,-177.78C953.79,-166.75 1104.91,-147.3 1129.88,-141 1131.75,-140.53 1133.67,-139.99 1135.59,-139.41"/>
<polygon fill="#63b8ff" stroke="#63b8ff" points="1136.65,-142.74 1145,-136.22 1134.41,-136.11 1136.65,-142.74"/>
</a>
</g>
</g>
<!-- Node22 -->
<g id="Node000022" class="node">
<title>Node22</title>
<g id="a_Node000022"><a xlink:href="../../db/d4e/utf8__char_8hpp.html" target="_top" xlink:title=" ">
<polygon fill="white" stroke="#666666" points="698.38,-141 583.38,-141 583.38,-110.5 698.38,-110.5 698.38,-141"/>
<text text-anchor="start" x="591.38" y="-127.5" font-family="Helvetica,sans-Serif" font-size="10.00">Ark/Compiler/AST/utf8</text>
<text text-anchor="middle" x="640.88" y="-116.25" font-family="Helvetica,sans-Serif" font-size="10.00">_char.hpp</text>
</a>
</g>
</g>
<!-- Node19&#45;&gt;Node22 -->
<g id="edge31_Node000019_Node000022" class="edge">
<title>Node19&#45;&gt;Node22</title>
<g id="a_edge31_Node000019_Node000022"><a xlink:title=" ">
<path fill="none" stroke="#63b8ff" d="M777.92,-176.55C755.09,-168.26 720.63,-155.73 691.97,-145.32"/>
<polygon fill="#63b8ff" stroke="#63b8ff" points="693.33,-142.09 682.73,-141.96 690.93,-148.67 693.33,-142.09"/>
</a>
</g>
</g>
<!-- Node23 -->
<g id="Node000023" class="node">
<title>Node23</title>
<g id="a_Node000023"><a xlink:href="../../dc/d73/CodeErrorContext_8hpp.html" target="_top" xlink:title="Defines a code error context.">
<polygon fill="white" stroke="#666666" points="1024.62,-135.38 869.12,-135.38 869.12,-116.12 1024.62,-116.12 1024.62,-135.38"/>
<text text-anchor="middle" x="946.88" y="-121.88" font-family="Helvetica,sans-Serif" font-size="10.00">Ark/Error/CodeErrorContext.hpp</text>
</a>
</g>
</g>
<!-- Node19&#45;&gt;Node23 -->
<g id="edge36_Node000019_Node000023" class="edge">
<title>Node19&#45;&gt;Node23</title>
<g id="a_edge36_Node000019_Node000023"><a xlink:title=" ">
<path fill="none" stroke="#63b8ff" d="M825.06,-176.55C848.91,-166.8 887.07,-151.2 914.32,-140.06"/>
<polygon fill="#63b8ff" stroke="#63b8ff" points="915.57,-143.33 923.5,-136.31 912.92,-136.85 915.57,-143.33"/>
</a>
</g>
</g>
<!-- Node22&#45;&gt;Node3 -->
<g id="edge32_Node000022_Node000003" class="edge">
<title>Node22&#45;&gt;Node3</title>
<g id="a_edge32_Node000022_Node000003"><a xlink:title=" ">
<path fill="none" stroke="#63b8ff" d="M598.17,-110.05C567.52,-99.5 527,-85.54 499.77,-76.17"/>
<polygon fill="#63b8ff" stroke="#63b8ff" points="501.01,-72.89 490.41,-72.95 498.73,-79.51 501.01,-72.89"/>
</a>
</g>
</g>
<!-- Node22&#45;&gt;Node8 -->
<g id="edge34_Node000022_Node000008" class="edge">
<title>Node22&#45;&gt;Node8</title>
<g id="a_edge34_Node000022_Node000008"><a xlink:title=" ">
<path fill="none" stroke="#63b8ff" d="M612.45,-110.05C583.83,-95.45 538.26,-72.79 497.88,-55.25 469.3,-42.84 436.06,-30.23 412.51,-21.6"/>
<polygon fill="#63b8ff" stroke="#63b8ff" points="413.8,-18.35 403.21,-18.22 411.41,-24.92 413.8,-18.35"/>
</a>
</g>
</g>
<!-- Node22&#45;&gt;Node13 -->
<g id="edge33_Node000022_Node000013" class="edge">
<title>Node22&#45;&gt;Node13</title>
<g id="a_edge33_Node000022_Node000013"><a xlink:title=" ">
<path fill="none" stroke="#63b8ff" d="M662.13,-110.2C674.98,-101.4 691.33,-90.21 704.39,-81.27"/>
<polygon fill="#63b8ff" stroke="#63b8ff" points="706.09,-84.34 712.37,-75.81 702.14,-78.57 706.09,-84.34"/>
</a>
</g>
</g>
<!-- Node23&#45;&gt;Node13 -->
<g id="edge37_Node000023_Node000013" class="edge">
<title>Node23&#45;&gt;Node13</title>
<g id="a_edge37_Node000023_Node000013"><a xlink:title=" ">
<path fill="none" stroke="#63b8ff" d="M912.98,-115.68C870.77,-104.38 799.22,-85.23 758.22,-74.26"/>
<polygon fill="#63b8ff" stroke="#63b8ff" points="759.3,-70.93 748.74,-71.73 757.49,-77.69 759.3,-70.93"/>
</a>
</g>
</g>
<!-- Node23&#45;&gt;Node17 -->
<g id="edge38_Node000023_Node000017" class="edge">
<title>Node23&#45;&gt;Node17</title>
<g id="a_edge38_Node000023_Node000017"><a xlink:title=" ">
<path fill="none" stroke="#63b8ff" d="M953.23,-115.79C966.48,-97.13 997.28,-53.73 1014.9,-28.91"/>
<polygon fill="#63b8ff" stroke="#63b8ff" points="1017.74,-30.95 1020.67,-20.77 1012.03,-26.9 1017.74,-30.95"/>
</a>
</g>
</g>
<!-- Node23&#45;&gt;Node18 -->
<g id="edge39_Node000023_Node000018" class="edge">
<title>Node23&#45;&gt;Node18</title>
<g id="a_edge39_Node000023_Node000018"><a xlink:title=" ">
<path fill="none" stroke="#63b8ff" d="M941.1,-115.81C935.75,-107.51 927.61,-94.89 920.85,-84.42"/>
<polygon fill="#63b8ff" stroke="#63b8ff" points="923.89,-82.68 915.52,-76.17 918,-86.47 923.89,-82.68"/>
</a>
</g>
</g>
</g>
</svg>

<g id="navigator" transform="translate(0 0)" fill="#404254">
  <rect fill="#f2f5e9" fill-opacity="0.5" stroke="#606060" stroke-width=".5" x="0" y="0" width="60" height="60"/>
  <use id="zoomplus" xlink:href="#zoomPlus" x="17" y="9" onmousedown="handleZoom(evt,'in')"/>
  <use id="zoomminus" xlink:href="#zoomMin" x="42" y="9" onmousedown="handleZoom(evt,'out')"/>
  <use id="reset" xlink:href="#resetDef" x="30" y="36" onmousedown="handleReset()"/>
   <use id="arrowup" xlink:href="#arrowUp" x="0" y="0" onmousedown="handlePan(0,-1)"/>
  <use id="arrowright" xlink:href="#arrowRight" x="0" y="0" onmousedown="handlePan(1,0)"/>
  <use id="arrowdown" xlink:href="#arrowDown" x="0" y="0" onmousedown="handlePan(0,1)"/>
  <use id="arrowleft" xlink:href="#arrowLeft" x="0" y="0" onmousedown="handlePan(-1,0)"/>
</g>
<svg viewBox="0 0 15 15" width="100%" height="30px" preserveAspectRatio="xMaxYMin meet">
 <g id="arrow_out" transform="scale(0.3 0.3)">
  <a xlink:href="Node_8cpp__incl_org.svg" target="_base">
   <rect id="button" ry="5" rx="5" y="6" x="6" height="38" width="38"
        fill="#f2f5e9" fill-opacity="0.5" stroke="#606060" stroke-width="1.0"/>
   <path id="arrow"
     d="M 11.500037,31.436501 C 11.940474,20.09759 22.043105,11.32322 32.158766,21.979434 L 37.068811,17.246167 C 37.068811,17.246167 37.088388,32 37.088388,32 L 22.160133,31.978069 C 22.160133,31.978069 26.997745,27.140456 26.997745,27.140456 C 18.528582,18.264221 13.291696,25.230495 11.500037,31.436501 z"
     style="fill:#404040;"/>
  </a>
 </g>
</svg>

<style type='text/css'>
<![CDATA[
[data-mouse-over-selected='false'] { opacity: 0.7; }
[data-mouse-over-selected='true']  { opacity: 1.0; }
]]>
</style>
<script type="application/ecmascript"><![CDATA[
document.addEventListener('DOMContentLoaded', (event) => {
  highlightEdges();
  highlightAdjacentNodes();
});
]]></script>
</svg>
