<?xml version="1.0" encoding="UTF-8" standalone="no"?>
<!DOCTYPE svg PUBLIC "-//W3C//DTD SVG 1.1//EN"
 "http://www.w3.org/Graphics/SVG/1.1/DTD/svg11.dtd">
<!-- Generated by graphviz version 12.2.0 (20241103.1931)
 -->
<!-- Title: /Users/fola/Documents/ArkScript/Ark/include/Ark/VM/Value.hpp Pages: 1 -->
<svg width="1822pt" height="528pt"
 viewBox="0.00 0.00 1821.50 527.50" xmlns="http://www.w3.org/2000/svg" xmlns:xlink="http://www.w3.org/1999/xlink">
<g id="graph0" class="graph" transform="scale(1 1) rotate(0) translate(4 523.5)">
<title>/Users/fola/Documents/ArkScript/Ark/include/Ark/VM/Value.hpp</title>
<!-- Node1 -->
<g id="Node000001" class="node">
<title>Node1</title>
<g id="a_Node000001"><a xlink:title="Default value type handled by the virtual machine.">
<polygon fill="#999999" stroke="#666666" points="1430.88,-519.5 1313.62,-519.5 1313.62,-477.75 1430.88,-477.75 1430.88,-519.5"/>
<text text-anchor="start" x="1321.62" y="-506" font-family="Helvetica,sans-Serif" font-size="10.00">/Users/fola/Documents</text>
<text text-anchor="start" x="1321.62" y="-494.75" font-family="Helvetica,sans-Serif" font-size="10.00">/ArkScript/Ark/include</text>
<text text-anchor="middle" x="1372.25" y="-483.5" font-family="Helvetica,sans-Serif" font-size="10.00">/Ark/VM/Value.hpp</text>
</a>
</g>
</g>
<!-- Node2 -->
<g id="Node000002" class="node">
<title>Node2</title>
<g id="a_Node000002"><a xlink:href="../../da/d84/Builtins_8hpp.html" target="_top" xlink:title="Host the declaration of all the ArkScript builtins.">
<polygon fill="white" stroke="#666666" points="794.88,-286.25 671.62,-286.25 671.62,-244.5 794.88,-244.5 794.88,-286.25"/>
<text text-anchor="start" x="679.62" y="-272.75" font-family="Helvetica,sans-Serif" font-size="10.00">/Users/fola/Documents</text>
<text text-anchor="start" x="679.62" y="-261.5" font-family="Helvetica,sans-Serif" font-size="10.00">/ArkScript/Ark/include</text>
<text text-anchor="middle" x="733.25" y="-250.25" font-family="Helvetica,sans-Serif" font-size="10.00">/Ark/Builtins/Builtins.hpp</text>
</a>
</g>
</g>
<!-- Node1&#45;&gt;Node2 -->
<g id="edge1_Node000001_Node000002" class="edge">
<title>Node1&#45;&gt;Node2</title>
<g id="a_edge1_Node000001_Node000002"><a xlink:title=" ">
<path fill="none" stroke="#63b8ff" d="M1301.68,-495.08C1155.82,-489.23 831.39,-472.84 792.25,-441.75 743.95,-403.39 734.91,-323.92 733.41,-286.59"/>
<polygon fill="#63b8ff" stroke="#63b8ff" points="1301.49,-498.58 1311.62,-495.48 1301.77,-491.58 1301.49,-498.58"/>
</a>
</g>
</g>
<!-- Node3 -->
<g id="Node000003" class="node">
<title>Node3</title>
<g id="a_Node000003"><a xlink:href="../../d1/d91/VM_8hpp.html" target="_top" xlink:title="The ArkScript virtual machine.">
<polygon fill="white" stroke="#666666" points="1246.88,-202.88 1129.62,-202.88 1129.62,-161.12 1246.88,-161.12 1246.88,-202.88"/>
<text text-anchor="start" x="1137.62" y="-189.38" font-family="Helvetica,sans-Serif" font-size="10.00">/Users/fola/Documents</text>
<text text-anchor="start" x="1137.62" y="-178.12" font-family="Helvetica,sans-Serif" font-size="10.00">/ArkScript/Ark/include</text>
<text text-anchor="middle" x="1188.25" y="-166.88" font-family="Helvetica,sans-Serif" font-size="10.00">/Ark/VM/VM.hpp</text>
</a>
</g>
</g>
<!-- Node1&#45;&gt;Node3 -->
<g id="edge44_Node000001_Node000003" class="edge">
<title>Node1&#45;&gt;Node3</title>
<g id="a_edge44_Node000001_Node000003"><a xlink:title=" ">
<path fill="none" stroke="#63b8ff" d="M1301.74,-491.69C1166.53,-478.62 879.33,-442.09 825.25,-364 814.68,-348.75 814.74,-337.54 825.25,-322.25 825.83,-321.41 1034.53,-241.67 1135.18,-203.25"/>
<polygon fill="#63b8ff" stroke="#63b8ff" points="1301.37,-495.17 1311.66,-492.63 1302.04,-488.21 1301.37,-495.17"/>
</a>
</g>
</g>
<!-- Node20 -->
<g id="Node000020" class="node">
<title>Node20</title>
<g id="a_Node000020"><a xlink:href="../../d1/d84/BytecodeReader_8hpp.html" target="_top" xlink:title="A bytecode disassembler for ArkScript.">
<polygon fill="white" stroke="#666666" points="1703.12,-286.25 1533.38,-286.25 1533.38,-244.5 1703.12,-244.5 1703.12,-286.25"/>
<text text-anchor="start" x="1541.38" y="-272.75" font-family="Helvetica,sans-Serif" font-size="10.00">/Users/fola/Documents</text>
<text text-anchor="start" x="1541.38" y="-261.5" font-family="Helvetica,sans-Serif" font-size="10.00">/ArkScript/Ark/include</text>
<text text-anchor="middle" x="1618.25" y="-250.25" font-family="Helvetica,sans-Serif" font-size="10.00">/Ark/Compiler/BytecodeReader.hpp</text>
</a>
</g>
</g>
<!-- Node1&#45;&gt;Node20 -->
<g id="edge20_Node000001_Node000020" class="edge">
<title>Node1&#45;&gt;Node20</title>
<g id="a_edge20_Node000001_Node000020"><a xlink:title=" ">
<path fill="none" stroke="#63b8ff" d="M1409.77,-470.49C1421.41,-461.65 1434.11,-451.58 1445.25,-441.75 1504.91,-389.13 1569.2,-320.4 1599.9,-286.74"/>
<polygon fill="#63b8ff" stroke="#63b8ff" points="1407.82,-467.57 1401.92,-476.37 1412.02,-473.17 1407.82,-467.57"/>
</a>
</g>
</g>
<!-- Node22 -->
<g id="Node000022" class="node">
<title>Node22</title>
<g id="a_Node000022"><a xlink:href="../../db/d5e/TypeChecker_8hpp.html" target="_top" xlink:title=" ">
<polygon fill="white" stroke="#666666" points="128.88,-202.88 11.62,-202.88 11.62,-161.12 128.88,-161.12 128.88,-202.88"/>
<text text-anchor="start" x="19.62" y="-189.38" font-family="Helvetica,sans-Serif" font-size="10.00">/Users/fola/Documents</text>
<text text-anchor="start" x="19.62" y="-178.12" font-family="Helvetica,sans-Serif" font-size="10.00">/ArkScript/Ark/include</text>
<text text-anchor="middle" x="70.25" y="-166.88" font-family="Helvetica,sans-Serif" font-size="10.00">/Ark/TypeChecker.hpp</text>
</a>
</g>
</g>
<!-- Node1&#45;&gt;Node22 -->
<g id="edge24_Node000001_Node000022" class="edge">
<title>Node1&#45;&gt;Node22</title>
<g id="a_edge24_Node000001_Node000022"><a xlink:title=" ">
<path fill="none" stroke="#63b8ff" d="M1301.67,-497.4C1186.02,-495.67 949.58,-486.38 755.25,-441.75 502.18,-383.63 216.89,-253.54 111.88,-203.32"/>
<polygon fill="#63b8ff" stroke="#63b8ff" points="1301.59,-500.9 1311.64,-497.54 1301.68,-493.9 1301.59,-500.9"/>
</a>
</g>
</g>
<!-- Node24 -->
<g id="Node000024" class="node">
<title>Node24</title>
<g id="a_Node000024"><a xlink:href="../../db/df6/ExecutionContext_8hpp.html" target="_top" xlink:title="Keeping track of the internal data needed by the VM.">
<polygon fill="white" stroke="#666666" points="1344.12,-364 1192.38,-364 1192.38,-322.25 1344.12,-322.25 1344.12,-364"/>
<text text-anchor="start" x="1200.38" y="-350.5" font-family="Helvetica,sans-Serif" font-size="10.00">/Users/fola/Documents</text>
<text text-anchor="start" x="1200.38" y="-339.25" font-family="Helvetica,sans-Serif" font-size="10.00">/ArkScript/Ark/include</text>
<text text-anchor="middle" x="1268.25" y="-328" font-family="Helvetica,sans-Serif" font-size="10.00">/Ark/VM/ExecutionContext.hpp</text>
</a>
</g>
</g>
<!-- Node1&#45;&gt;Node24 -->
<g id="edge29_Node000001_Node000024" class="edge">
<title>Node1&#45;&gt;Node24</title>
<g id="a_edge29_Node000001_Node000024"><a xlink:title=" ">
<path fill="none" stroke="#63b8ff" d="M1372.27,-466.35C1370.89,-445.94 1366.35,-419.54 1353.25,-400 1343.32,-385.19 1327.99,-373.36 1313.07,-364.48"/>
<polygon fill="#63b8ff" stroke="#63b8ff" points="1368.76,-466.24 1372.69,-476.08 1375.75,-465.93 1368.76,-466.24"/>
</a>
</g>
</g>
<!-- Node25 -->
<g id="Node000025" class="node">
<title>Node25</title>
<g id="a_Node000025"><a xlink:href="../../d0/dda/Future_8hpp.html" target="_top" xlink:title="Internal object to resolve asynchronously a function call in ArkScript.">
<polygon fill="white" stroke="#666666" points="1333.88,-286.25 1216.62,-286.25 1216.62,-244.5 1333.88,-244.5 1333.88,-286.25"/>
<text text-anchor="start" x="1224.62" y="-272.75" font-family="Helvetica,sans-Serif" font-size="10.00">/Users/fola/Documents</text>
<text text-anchor="start" x="1224.62" y="-261.5" font-family="Helvetica,sans-Serif" font-size="10.00">/ArkScript/Ark/include</text>
<text text-anchor="middle" x="1275.25" y="-250.25" font-family="Helvetica,sans-Serif" font-size="10.00">/Ark/VM/Future.hpp</text>
</a>
</g>
</g>
<!-- Node1&#45;&gt;Node25 -->
<g id="edge34_Node000001_Node000025" class="edge">
<title>Node1&#45;&gt;Node25</title>
<g id="a_edge34_Node000001_Node000025"><a xlink:title=" ">
<path fill="none" stroke="#63b8ff" d="M1377.38,-466.03C1381.74,-428.28 1383.2,-364.87 1353.25,-322.25 1343.1,-307.8 1327.98,-295.74 1313.75,-286.56"/>
<polygon fill="#63b8ff" stroke="#63b8ff" points="1373.93,-465.46 1376.1,-475.83 1380.87,-466.37 1373.93,-465.46"/>
</a>
</g>
</g>
<!-- Node26 -->
<g id="Node000026" class="node">
<title>Node26</title>
<g id="a_Node000026"><a xlink:href="../../d8/d45/ScopeView_8hpp.html" target="_top" xlink:title=" ">
<polygon fill="white" stroke="#666666" points="1163.12,-441.75 1041.38,-441.75 1041.38,-400 1163.12,-400 1163.12,-441.75"/>
<text text-anchor="start" x="1049.38" y="-428.25" font-family="Helvetica,sans-Serif" font-size="10.00">/Users/fola/Documents</text>
<text text-anchor="start" x="1049.38" y="-417" font-family="Helvetica,sans-Serif" font-size="10.00">/ArkScript/Ark/include</text>
<text text-anchor="middle" x="1102.25" y="-405.75" font-family="Helvetica,sans-Serif" font-size="10.00">/Ark/VM/ScopeView.hpp</text>
</a>
</g>
</g>
<!-- Node1&#45;&gt;Node26 -->
<g id="edge35_Node000001_Node000026" class="edge">
<title>Node1&#45;&gt;Node26</title>
<g id="a_edge35_Node000001_Node000026"><a xlink:title=" ">
<path fill="none" stroke="#63b8ff" d="M1302.37,-478.02C1259.34,-465.95 1204.7,-450.62 1163.38,-439.03"/>
<polygon fill="#63b8ff" stroke="#63b8ff" points="1301.3,-481.35 1311.87,-480.69 1303.19,-474.61 1301.3,-481.35"/>
</a>
</g>
</g>
<!-- Node29 -->
<g id="Node000029" class="node">
<title>Node29</title>
<g id="a_Node000029"><a xlink:href="../../d0/db5/State_8hpp.html" target="_top" xlink:title="State used by the virtual machine: it loads the bytecode, can compile it if needed,...">
<polygon fill="white" stroke="#666666" points="1513.88,-286.25 1396.62,-286.25 1396.62,-244.5 1513.88,-244.5 1513.88,-286.25"/>
<text text-anchor="start" x="1404.62" y="-272.75" font-family="Helvetica,sans-Serif" font-size="10.00">/Users/fola/Documents</text>
<text text-anchor="start" x="1404.62" y="-261.5" font-family="Helvetica,sans-Serif" font-size="10.00">/ArkScript/Ark/include</text>
<text text-anchor="middle" x="1455.25" y="-250.25" font-family="Helvetica,sans-Serif" font-size="10.00">/Ark/VM/State.hpp</text>
</a>
</g>
</g>
<!-- Node1&#45;&gt;Node29 -->
<g id="edge40_Node000001_Node000029" class="edge">
<title>Node1&#45;&gt;Node29</title>
<g id="a_edge40_Node000001_Node000029"><a xlink:title=" ">
<path fill="none" stroke="#63b8ff" d="M1404.44,-469.3C1412,-461.12 1419.29,-451.7 1424.25,-441.75 1449.96,-390.14 1454.67,-320.65 1455.32,-286.72"/>
<polygon fill="#63b8ff" stroke="#63b8ff" points="1402.12,-466.68 1397.61,-476.27 1407.11,-471.58 1402.12,-466.68"/>
</a>
</g>
</g>
<!-- Node30 -->
<g id="Node000030" class="node">
<title>Node30</title>
<g id="a_Node000030"><a xlink:href="../../d1/d71/ClosureScope_8hpp.html" target="_top" xlink:title="Subtype of the value type, handling closures.">
<polygon fill="white" stroke="#666666" points="1344.38,-441.75 1182.12,-441.75 1182.12,-400 1344.38,-400 1344.38,-441.75"/>
<text text-anchor="start" x="1190.12" y="-428.25" font-family="Helvetica,sans-Serif" font-size="10.00">/Users/fola/Documents</text>
<text text-anchor="start" x="1190.12" y="-417" font-family="Helvetica,sans-Serif" font-size="10.00">/ArkScript/Ark/include</text>
<text text-anchor="middle" x="1263.25" y="-405.75" font-family="Helvetica,sans-Serif" font-size="10.00">/Ark/VM/Value/ClosureScope.hpp</text>
</a>
</g>
</g>
<!-- Node1&#45;&gt;Node30 -->
<g id="edge45_Node000001_Node000030" class="edge">
<title>Node1&#45;&gt;Node30</title>
<g id="a_edge45_Node000001_Node000030"><a xlink:title=" ">
<path fill="none" stroke="#63b8ff" d="M1333.91,-470.98C1320.32,-461.54 1305.26,-451.07 1292.54,-442.23"/>
<polygon fill="#63b8ff" stroke="#63b8ff" points="1331.59,-473.63 1341.8,-476.46 1335.58,-467.88 1331.59,-473.63"/>
</a>
</g>
</g>
<!-- Node31 -->
<g id="Node000031" class="node">
<title>Node31</title>
<g id="a_Node000031"><a xlink:href="../../d1/d74/Value_8cpp.html" target="_top" xlink:title=" ">
<polygon fill="white" stroke="#666666" points="1654.5,-441.75 1514,-441.75 1514,-400 1654.5,-400 1654.5,-441.75"/>
<text text-anchor="start" x="1522" y="-428.25" font-family="Helvetica,sans-Serif" font-size="10.00">/Users/fola/Documents</text>
<text text-anchor="start" x="1522" y="-417" font-family="Helvetica,sans-Serif" font-size="10.00">/ArkScript/Ark/src/arkreactor</text>
<text text-anchor="middle" x="1584.25" y="-405.75" font-family="Helvetica,sans-Serif" font-size="10.00">/VM/Value.cpp</text>
</a>
</g>
</g>
<!-- Node1&#45;&gt;Node31 -->
<g id="edge49_Node000001_Node000031" class="edge">
<title>Node1&#45;&gt;Node31</title>
<g id="a_edge49_Node000001_Node000031"><a xlink:title=" ">
<path fill="none" stroke="#63b8ff" d="M1439.65,-473.54C1467.86,-463.46 1500.29,-451.88 1527.28,-442.23"/>
<polygon fill="#63b8ff" stroke="#63b8ff" points="1438.73,-470.16 1430.49,-476.82 1441.08,-476.75 1438.73,-470.16"/>
</a>
</g>
</g>
<!-- Node32 -->
<g id="Node000032" class="node">
<title>Node32</title>
<g id="a_Node000032"><a xlink:href="../../d9/da8/Procedure_8cpp.html" target="_top" xlink:title=" ">
<polygon fill="white" stroke="#666666" points="1813.5,-441.75 1673,-441.75 1673,-400 1813.5,-400 1813.5,-441.75"/>
<text text-anchor="start" x="1681" y="-428.25" font-family="Helvetica,sans-Serif" font-size="10.00">/Users/fola/Documents</text>
<text text-anchor="start" x="1681" y="-417" font-family="Helvetica,sans-Serif" font-size="10.00">/ArkScript/Ark/src/arkreactor</text>
<text text-anchor="middle" x="1743.25" y="-405.75" font-family="Helvetica,sans-Serif" font-size="10.00">/VM/Value/Procedure.cpp</text>
</a>
</g>
</g>
<!-- Node1&#45;&gt;Node32 -->
<g id="edge50_Node000001_Node000032" class="edge">
<title>Node1&#45;&gt;Node32</title>
<g id="a_edge50_Node000001_Node000032"><a xlink:title=" ">
<path fill="none" stroke="#63b8ff" d="M1442.31,-485.27C1501.39,-474.58 1588.08,-458.29 1663.25,-441.75 1666.32,-441.07 1669.46,-440.37 1672.63,-439.64"/>
<polygon fill="#63b8ff" stroke="#63b8ff" points="1441.95,-481.77 1432.73,-486.99 1443.19,-488.66 1441.95,-481.77"/>
</a>
</g>
</g>
<!-- Node2&#45;&gt;Node3 -->
<g id="edge2_Node000002_Node000003" class="edge">
<title>Node2&#45;&gt;Node3</title>
<g id="a_edge2_Node000002_Node000003"><a xlink:title=" ">
<path fill="none" stroke="#63b8ff" d="M806.24,-245.08C807.25,-244.88 808.25,-244.69 809.25,-244.5 946.45,-218.78 985.64,-241.58 1121.25,-208.5 1127.05,-207.08 1133.04,-205.3 1138.93,-203.34"/>
<polygon fill="#63b8ff" stroke="#63b8ff" points="805.85,-241.58 796.78,-247.07 807.29,-248.43 805.85,-241.58"/>
</a>
</g>
</g>
<!-- Node9 -->
<g id="Node000009" class="node">
<title>Node9</title>
<g id="a_Node000009"><a xlink:href="../../d7/d46/Repl_8cpp.html" target="_top" xlink:title=" ">
<polygon fill="white" stroke="#666666" points="1232.5,-41.75 1098,-41.75 1098,0 1232.5,0 1232.5,-41.75"/>
<text text-anchor="start" x="1106" y="-28.25" font-family="Helvetica,sans-Serif" font-size="10.00">/Users/fola/Documents</text>
<text text-anchor="start" x="1106" y="-17" font-family="Helvetica,sans-Serif" font-size="10.00">/ArkScript/Ark/src/arkscript</text>
<text text-anchor="middle" x="1165.25" y="-5.75" font-family="Helvetica,sans-Serif" font-size="10.00">/REPL/Repl.cpp</text>
</a>
</g>
</g>
<!-- Node2&#45;&gt;Node9 -->
<g id="edge18_Node000002_Node000009" class="edge">
<title>Node2&#45;&gt;Node9</title>
<g id="a_edge18_Node000002_Node000009"><a xlink:title=" ">
<path fill="none" stroke="#63b8ff" d="M732.67,-232.61C733.77,-190.46 742.51,-116.83 787.25,-77.75 832.34,-38.37 1001.76,-26.74 1097.77,-23.31"/>
<polygon fill="#63b8ff" stroke="#63b8ff" points="729.17,-232.56 732.56,-242.6 736.17,-232.64 729.17,-232.56"/>
</a>
</g>
</g>
<!-- Node14 -->
<g id="Node000014" class="node">
<title>Node14</title>
<g id="a_Node000014"><a xlink:href="../../d5/d36/BytecodeReader_8cpp.html" target="_top" xlink:title=" ">
<polygon fill="white" stroke="#666666" points="1493.12,-202.88 1341.38,-202.88 1341.38,-161.12 1493.12,-161.12 1493.12,-202.88"/>
<text text-anchor="start" x="1349.38" y="-189.38" font-family="Helvetica,sans-Serif" font-size="10.00">/Users/fola/Documents</text>
<text text-anchor="start" x="1349.38" y="-178.12" font-family="Helvetica,sans-Serif" font-size="10.00">/ArkScript/Ark/src/arkreactor</text>
<text text-anchor="middle" x="1417.25" y="-166.88" font-family="Helvetica,sans-Serif" font-size="10.00">/Compiler/BytecodeReader.cpp</text>
</a>
</g>
</g>
<!-- Node2&#45;&gt;Node14 -->
<g id="edge13_Node000002_Node000014" class="edge">
<title>Node2&#45;&gt;Node14</title>
<g id="a_edge13_Node000002_Node000014"><a xlink:title=" ">
<path fill="none" stroke="#63b8ff" d="M806.68,-257.71C908,-248.25 1096.3,-229.7 1256.25,-208.5 1284.02,-204.82 1314.39,-200.17 1341.2,-195.86"/>
<polygon fill="#63b8ff" stroke="#63b8ff" points="806.5,-254.21 796.87,-258.63 807.15,-261.18 806.5,-254.21"/>
</a>
</g>
</g>
<!-- Node15 -->
<g id="Node000015" class="node">
<title>Node15</title>
<g id="a_Node000015"><a xlink:href="../../d0/da9/IROptimizer_8cpp.html" target="_top" xlink:title=" ">
<polygon fill="white" stroke="#666666" points="1111.75,-208.5 930.75,-208.5 930.75,-155.5 1111.75,-155.5 1111.75,-208.5"/>
<text text-anchor="start" x="938.75" y="-195" font-family="Helvetica,sans-Serif" font-size="10.00">/Users/fola/Documents</text>
<text text-anchor="start" x="938.75" y="-183.75" font-family="Helvetica,sans-Serif" font-size="10.00">/ArkScript/Ark/src/arkreactor</text>
<text text-anchor="start" x="938.75" y="-172.5" font-family="Helvetica,sans-Serif" font-size="10.00">/Compiler/IntermediateRepresentation</text>
<text text-anchor="middle" x="1021.25" y="-161.25" font-family="Helvetica,sans-Serif" font-size="10.00">/IROptimizer.cpp</text>
</a>
</g>
</g>
<!-- Node2&#45;&gt;Node15 -->
<g id="edge14_Node000002_Node000015" class="edge">
<title>Node2&#45;&gt;Node15</title>
<g id="a_edge14_Node000002_Node000015"><a xlink:title=" ">
<path fill="none" stroke="#63b8ff" d="M805.94,-243.84C843.69,-233.17 890.19,-220.03 930.31,-208.7"/>
<polygon fill="#63b8ff" stroke="#63b8ff" points="805.16,-240.42 796.49,-246.51 807.06,-247.16 805.16,-240.42"/>
</a>
</g>
</g>
<!-- Node16 -->
<g id="Node000016" class="node">
<title>Node16</title>
<g id="a_Node000016"><a xlink:href="../../d2/d5e/ASTLowerer_8cpp.html" target="_top" xlink:title=" ">
<polygon fill="white" stroke="#666666" points="317.5,-202.88 147,-202.88 147,-161.12 317.5,-161.12 317.5,-202.88"/>
<text text-anchor="start" x="155" y="-189.38" font-family="Helvetica,sans-Serif" font-size="10.00">/Users/fola/Documents</text>
<text text-anchor="start" x="155" y="-178.12" font-family="Helvetica,sans-Serif" font-size="10.00">/ArkScript/Ark/src/arkreactor</text>
<text text-anchor="middle" x="232.25" y="-166.88" font-family="Helvetica,sans-Serif" font-size="10.00">/Compiler/Lowerer/ASTLowerer.cpp</text>
</a>
</g>
</g>
<!-- Node2&#45;&gt;Node16 -->
<g id="edge15_Node000002_Node000016" class="edge">
<title>Node2&#45;&gt;Node16</title>
<g id="a_edge15_Node000002_Node000016"><a xlink:title=" ">
<path fill="none" stroke="#63b8ff" d="M659.88,-257.08C578.21,-248.31 442.53,-231.81 327.25,-208.5 319.8,-206.99 312.07,-205.24 304.38,-203.37"/>
<polygon fill="#63b8ff" stroke="#63b8ff" points="659.47,-260.56 669.78,-258.13 660.2,-253.6 659.47,-260.56"/>
</a>
</g>
</g>
<!-- Node17 -->
<g id="Node000017" class="node">
<title>Node17</title>
<g id="a_Node000017"><a xlink:href="../../d6/d69/Processor_8cpp.html" target="_top" xlink:title=" ">
<polygon fill="white" stroke="#666666" points="494.5,-202.88 336,-202.88 336,-161.12 494.5,-161.12 494.5,-202.88"/>
<text text-anchor="start" x="344" y="-189.38" font-family="Helvetica,sans-Serif" font-size="10.00">/Users/fola/Documents</text>
<text text-anchor="start" x="344" y="-178.12" font-family="Helvetica,sans-Serif" font-size="10.00">/ArkScript/Ark/src/arkreactor</text>
<text text-anchor="middle" x="415.25" y="-166.88" font-family="Helvetica,sans-Serif" font-size="10.00">/Compiler/Macros/Processor.cpp</text>
</a>
</g>
</g>
<!-- Node2&#45;&gt;Node17 -->
<g id="edge16_Node000002_Node000017" class="edge">
<title>Node2&#45;&gt;Node17</title>
<g id="a_edge16_Node000002_Node000017"><a xlink:title=" ">
<path fill="none" stroke="#63b8ff" d="M660.64,-247.59C615.27,-236.9 555.71,-222.47 503.25,-208.5 497.1,-206.86 490.73,-205.12 484.34,-203.33"/>
<polygon fill="#63b8ff" stroke="#63b8ff" points="659.55,-250.93 670.09,-249.82 661.16,-244.12 659.55,-250.93"/>
</a>
</g>
</g>
<!-- Node18 -->
<g id="Node000018" class="node">
<title>Node18</title>
<g id="a_Node000018"><a xlink:href="../../de/dd7/NameResolutionPass_8cpp.html" target="_top" xlink:title=" ">
<polygon fill="white" stroke="#666666" points="722,-208.5 512.5,-208.5 512.5,-155.5 722,-155.5 722,-208.5"/>
<text text-anchor="start" x="520.5" y="-195" font-family="Helvetica,sans-Serif" font-size="10.00">/Users/fola/Documents</text>
<text text-anchor="start" x="520.5" y="-183.75" font-family="Helvetica,sans-Serif" font-size="10.00">/ArkScript/Ark/src/arkreactor</text>
<text text-anchor="start" x="520.5" y="-172.5" font-family="Helvetica,sans-Serif" font-size="10.00">/Compiler/NameResolution/NameResolution</text>
<text text-anchor="middle" x="617.25" y="-161.25" font-family="Helvetica,sans-Serif" font-size="10.00">Pass.cpp</text>
</a>
</g>
</g>
<!-- Node2&#45;&gt;Node18 -->
<g id="edge17_Node000002_Node000018" class="edge">
<title>Node2&#45;&gt;Node18</title>
<g id="a_edge17_Node000002_Node000018"><a xlink:title=" ">
<path fill="none" stroke="#63b8ff" d="M695.03,-237.56C681.89,-228.35 667.21,-218.05 654.18,-208.91"/>
<polygon fill="#63b8ff" stroke="#63b8ff" points="692.84,-240.3 703.04,-243.18 696.86,-234.57 692.84,-240.3"/>
</a>
</g>
</g>
<!-- Node19 -->
<g id="Node000019" class="node">
<title>Node19</title>
<g id="a_Node000019"><a xlink:href="../../d7/d48/arkscript_2REPL_2Utils_8cpp.html" target="_top" xlink:title=" ">
<polygon fill="white" stroke="#666666" points="912.5,-202.88 778,-202.88 778,-161.12 912.5,-161.12 912.5,-202.88"/>
<text text-anchor="start" x="786" y="-189.38" font-family="Helvetica,sans-Serif" font-size="10.00">/Users/fola/Documents</text>
<text text-anchor="start" x="786" y="-178.12" font-family="Helvetica,sans-Serif" font-size="10.00">/ArkScript/Ark/src/arkscript</text>
<text text-anchor="middle" x="845.25" y="-166.88" font-family="Helvetica,sans-Serif" font-size="10.00">/REPL/Utils.cpp</text>
</a>
</g>
</g>
<!-- Node2&#45;&gt;Node19 -->
<g id="edge19_Node000002_Node000019" class="edge">
<title>Node2&#45;&gt;Node19</title>
<g id="a_edge19_Node000002_Node000019"><a xlink:title=" ">
<path fill="none" stroke="#63b8ff" d="M770.41,-237.37C785.69,-226.28 803.08,-213.64 817.25,-203.35"/>
<polygon fill="#63b8ff" stroke="#63b8ff" points="768.48,-234.45 762.45,-243.16 772.6,-240.11 768.48,-234.45"/>
</a>
</g>
</g>
<!-- Node4 -->
<g id="Node000004" class="node">
<title>Node4</title>
<g id="a_Node000004"><a xlink:href="../../d3/d7e/Ark_8hpp.html" target="_top" xlink:title="Includes the needed files to start using ArkScript.">
<polygon fill="white" stroke="#666666" points="498.88,-119.5 381.62,-119.5 381.62,-77.75 498.88,-77.75 498.88,-119.5"/>
<text text-anchor="start" x="389.62" y="-106" font-family="Helvetica,sans-Serif" font-size="10.00">/Users/fola/Documents</text>
<text text-anchor="start" x="389.62" y="-94.75" font-family="Helvetica,sans-Serif" font-size="10.00">/ArkScript/Ark/include</text>
<text text-anchor="middle" x="440.25" y="-83.5" font-family="Helvetica,sans-Serif" font-size="10.00">/Ark/Ark.hpp</text>
</a>
</g>
</g>
<!-- Node3&#45;&gt;Node4 -->
<g id="edge3_Node000003_Node000004" class="edge">
<title>Node3&#45;&gt;Node4</title>
<g id="a_edge3_Node000003_Node000004"><a xlink:title=" ">
<path fill="none" stroke="#63b8ff" d="M1128.72,-157.38C1126.21,-156.69 1123.72,-156.06 1121.25,-155.5 1061.41,-141.95 653.57,-113.81 499.25,-103.51"/>
<polygon fill="#63b8ff" stroke="#63b8ff" points="1127.68,-160.72 1138.26,-160.27 1129.71,-154.02 1127.68,-160.72"/>
</a>
</g>
</g>
<!-- Node7 -->
<g id="Node000007" class="node">
<title>Node7</title>
<g id="a_Node000007"><a xlink:href="../../d5/d44/Module_8hpp.html" target="_top" xlink:title=" ">
<polygon fill="white" stroke="#666666" points="1077.88,-119.5 960.62,-119.5 960.62,-77.75 1077.88,-77.75 1077.88,-119.5"/>
<text text-anchor="start" x="968.62" y="-106" font-family="Helvetica,sans-Serif" font-size="10.00">/Users/fola/Documents</text>
<text text-anchor="start" x="968.62" y="-94.75" font-family="Helvetica,sans-Serif" font-size="10.00">/ArkScript/Ark/include</text>
<text text-anchor="middle" x="1019.25" y="-83.5" font-family="Helvetica,sans-Serif" font-size="10.00">/Ark/Module.hpp</text>
</a>
</g>
</g>
<!-- Node3&#45;&gt;Node7 -->
<g id="edge6_Node000003_Node000007" class="edge">
<title>Node3&#45;&gt;Node7</title>
<g id="a_edge6_Node000003_Node000007"><a xlink:title=" ">
<path fill="none" stroke="#63b8ff" d="M1135.74,-155.71C1111.86,-144.22 1084,-130.8 1061.51,-119.97"/>
<polygon fill="#63b8ff" stroke="#63b8ff" points="1134.15,-158.83 1144.68,-160.02 1137.18,-152.53 1134.15,-158.83"/>
</a>
</g>
</g>
<!-- Node8 -->
<g id="Node000008" class="node">
<title>Node8</title>
<g id="a_Node000008"><a xlink:href="../../d5/da5/Repl_8hpp.html" target="_top" xlink:title="ArkScript REPL &#45; Read Eval Print Loop.">
<polygon fill="white" stroke="#666666" points="1563.88,-119.5 1446.62,-119.5 1446.62,-77.75 1563.88,-77.75 1563.88,-119.5"/>
<text text-anchor="start" x="1454.62" y="-106" font-family="Helvetica,sans-Serif" font-size="10.00">/Users/fola/Documents</text>
<text text-anchor="start" x="1454.62" y="-94.75" font-family="Helvetica,sans-Serif" font-size="10.00">/ArkScript/Ark/include</text>
<text text-anchor="middle" x="1505.25" y="-83.5" font-family="Helvetica,sans-Serif" font-size="10.00">/CLI/REPL/Repl.hpp</text>
</a>
</g>
</g>
<!-- Node3&#45;&gt;Node8 -->
<g id="edge7_Node000003_Node000008" class="edge">
<title>Node3&#45;&gt;Node8</title>
<g id="a_edge7_Node000003_Node000008"><a xlink:title=" ">
<path fill="none" stroke="#63b8ff" d="M1258.1,-163.07C1314.46,-148.6 1392.86,-128.47 1446.15,-114.8"/>
<polygon fill="#63b8ff" stroke="#63b8ff" points="1257.41,-159.63 1248.6,-165.51 1259.15,-166.41 1257.41,-159.63"/>
</a>
</g>
</g>
<!-- Node11 -->
<g id="Node000011" class="node">
<title>Node11</title>
<g id="a_Node000011"><a xlink:href="../../d4/dc9/Future_8cpp.html" target="_top" xlink:title=" ">
<polygon fill="white" stroke="#666666" points="1239.5,-119.5 1099,-119.5 1099,-77.75 1239.5,-77.75 1239.5,-119.5"/>
<text text-anchor="start" x="1107" y="-106" font-family="Helvetica,sans-Serif" font-size="10.00">/Users/fola/Documents</text>
<text text-anchor="start" x="1107" y="-94.75" font-family="Helvetica,sans-Serif" font-size="10.00">/ArkScript/Ark/src/arkreactor</text>
<text text-anchor="middle" x="1169.25" y="-83.5" font-family="Helvetica,sans-Serif" font-size="10.00">/VM/Future.cpp</text>
</a>
</g>
</g>
<!-- Node3&#45;&gt;Node11 -->
<g id="edge10_Node000003_Node000011" class="edge">
<title>Node3&#45;&gt;Node11</title>
<g id="a_edge10_Node000003_Node000011"><a xlink:title=" ">
<path fill="none" stroke="#63b8ff" d="M1181,-149.97C1178.64,-139.85 1176.08,-128.89 1173.96,-119.79"/>
<polygon fill="#63b8ff" stroke="#63b8ff" points="1177.53,-150.47 1183.21,-159.41 1184.34,-148.88 1177.53,-150.47"/>
</a>
</g>
</g>
<!-- Node12 -->
<g id="Node000012" class="node">
<title>Node12</title>
<g id="a_Node000012"><a xlink:href="../../d2/d27/VM_8cpp.html" target="_top" xlink:title=" ">
<polygon fill="white" stroke="#666666" points="936.5,-119.5 796,-119.5 796,-77.75 936.5,-77.75 936.5,-119.5"/>
<text text-anchor="start" x="804" y="-106" font-family="Helvetica,sans-Serif" font-size="10.00">/Users/fola/Documents</text>
<text text-anchor="start" x="804" y="-94.75" font-family="Helvetica,sans-Serif" font-size="10.00">/ArkScript/Ark/src/arkreactor</text>
<text text-anchor="middle" x="866.25" y="-83.5" font-family="Helvetica,sans-Serif" font-size="10.00">/VM/VM.cpp</text>
</a>
</g>
</g>
<!-- Node3&#45;&gt;Node12 -->
<g id="edge11_Node000003_Node000012" class="edge">
<title>Node3&#45;&gt;Node12</title>
<g id="a_edge11_Node000003_Node000012"><a xlink:title=" ">
<path fill="none" stroke="#63b8ff" d="M1126.47,-157.09C1124.72,-156.54 1122.97,-156.01 1121.25,-155.5 1047.16,-133.7 1026.63,-136.29 951.25,-119.5 946.52,-118.45 941.64,-117.34 936.73,-116.22"/>
<polygon fill="#63b8ff" stroke="#63b8ff" points="1125.29,-160.38 1135.88,-160.21 1127.49,-153.74 1125.29,-160.38"/>
</a>
</g>
</g>
<!-- Node13 -->
<g id="Node000013" class="node">
<title>Node13</title>
<g id="a_Node000013"><a xlink:href="../../d1/db2/Closure_8cpp.html" target="_top" xlink:title=" ">
<polygon fill="white" stroke="#666666" points="1398.5,-119.5 1258,-119.5 1258,-77.75 1398.5,-77.75 1398.5,-119.5"/>
<text text-anchor="start" x="1266" y="-106" font-family="Helvetica,sans-Serif" font-size="10.00">/Users/fola/Documents</text>
<text text-anchor="start" x="1266" y="-94.75" font-family="Helvetica,sans-Serif" font-size="10.00">/ArkScript/Ark/src/arkreactor</text>
<text text-anchor="middle" x="1328.25" y="-83.5" font-family="Helvetica,sans-Serif" font-size="10.00">/VM/Value/Closure.cpp</text>
</a>
</g>
</g>
<!-- Node3&#45;&gt;Node13 -->
<g id="edge12_Node000003_Node000013" class="edge">
<title>Node3&#45;&gt;Node13</title>
<g id="a_edge12_Node000003_Node000013"><a xlink:title=" ">
<path fill="none" stroke="#63b8ff" d="M1233.09,-154.94C1252.56,-143.62 1275.03,-130.56 1293.24,-119.97"/>
<polygon fill="#63b8ff" stroke="#63b8ff" points="1231.41,-151.86 1224.53,-159.91 1234.93,-157.92 1231.41,-151.86"/>
</a>
</g>
</g>
<!-- Node5 -->
<g id="Node000005" class="node">
<title>Node5</title>
<g id="a_Node000005"><a xlink:href="../../d1/d95/arkemscripten_2main_8cpp.html" target="_top" xlink:title=" ">
<polygon fill="white" stroke="#666666" points="603.5,-41.75 445,-41.75 445,0 603.5,0 603.5,-41.75"/>
<text text-anchor="start" x="453" y="-28.25" font-family="Helvetica,sans-Serif" font-size="10.00">/Users/fola/Documents</text>
<text text-anchor="start" x="453" y="-17" font-family="Helvetica,sans-Serif" font-size="10.00">/ArkScript/Ark/src/arkemscripten</text>
<text text-anchor="middle" x="524.25" y="-5.75" font-family="Helvetica,sans-Serif" font-size="10.00">/main.cpp</text>
</a>
</g>
</g>
<!-- Node4&#45;&gt;Node5 -->
<g id="edge4_Node000004_Node000005" class="edge">
<title>Node4&#45;&gt;Node5</title>
<g id="a_edge4_Node000004_Node000005"><a xlink:title=" ">
<path fill="none" stroke="#63b8ff" d="M471.01,-69.89C481.16,-60.73 492.25,-50.73 501.68,-42.23"/>
<polygon fill="#63b8ff" stroke="#63b8ff" points="468.97,-67.02 463.88,-76.31 473.65,-72.21 468.97,-67.02"/>
</a>
</g>
</g>
<!-- Node6 -->
<g id="Node000006" class="node">
<title>Node6</title>
<g id="a_Node000006"><a xlink:href="../../dc/d32/Ark_8cpp.html" target="_top" xlink:title=" ">
<polygon fill="white" stroke="#666666" points="426.5,-41.75 286,-41.75 286,0 426.5,0 426.5,-41.75"/>
<text text-anchor="start" x="294" y="-28.25" font-family="Helvetica,sans-Serif" font-size="10.00">/Users/fola/Documents</text>
<text text-anchor="start" x="294" y="-17" font-family="Helvetica,sans-Serif" font-size="10.00">/ArkScript/Ark/src/arkreactor</text>
<text text-anchor="middle" x="356.25" y="-5.75" font-family="Helvetica,sans-Serif" font-size="10.00">/Ark.cpp</text>
</a>
</g>
</g>
<!-- Node4&#45;&gt;Node6 -->
<g id="edge5_Node000004_Node000006" class="edge">
<title>Node4&#45;&gt;Node6</title>
<g id="a_edge5_Node000004_Node000006"><a xlink:title=" ">
<path fill="none" stroke="#63b8ff" d="M409.49,-69.89C399.34,-60.73 388.25,-50.73 378.82,-42.23"/>
<polygon fill="#63b8ff" stroke="#63b8ff" points="406.85,-72.21 416.62,-76.31 411.53,-67.02 406.85,-72.21"/>
</a>
</g>
</g>
<!-- Node8&#45;&gt;Node9 -->
<g id="edge8_Node000008_Node000009" class="edge">
<title>Node8&#45;&gt;Node9</title>
<g id="a_edge8_Node000008_Node000009"><a xlink:title=" ">
<path fill="none" stroke="#63b8ff" d="M1435.29,-82.04C1376.03,-68.84 1291.61,-50.03 1232.99,-36.97"/>
<polygon fill="#63b8ff" stroke="#63b8ff" points="1434.42,-85.43 1444.94,-84.19 1435.94,-78.6 1434.42,-85.43"/>
</a>
</g>
</g>
<!-- Node10 -->
<g id="Node000010" class="node">
<title>Node10</title>
<g id="a_Node000010"><a xlink:href="../../d0/d46/arkscript_2main_8cpp.html" target="_top" xlink:title=" ">
<polygon fill="white" stroke="#666666" points="1678.5,-41.75 1544,-41.75 1544,0 1678.5,0 1678.5,-41.75"/>
<text text-anchor="start" x="1552" y="-28.25" font-family="Helvetica,sans-Serif" font-size="10.00">/Users/fola/Documents</text>
<text text-anchor="start" x="1552" y="-17" font-family="Helvetica,sans-Serif" font-size="10.00">/ArkScript/Ark/src/arkscript</text>
<text text-anchor="middle" x="1611.25" y="-5.75" font-family="Helvetica,sans-Serif" font-size="10.00">/main.cpp</text>
</a>
</g>
</g>
<!-- Node8&#45;&gt;Node10 -->
<g id="edge9_Node000008_Node000010" class="edge">
<title>Node8&#45;&gt;Node10</title>
<g id="a_edge9_Node000008_Node000010"><a xlink:title=" ">
<path fill="none" stroke="#63b8ff" d="M1542.91,-70.71C1556.03,-61.34 1570.52,-50.98 1582.77,-42.23"/>
<polygon fill="#63b8ff" stroke="#63b8ff" points="1540.99,-67.78 1534.89,-76.45 1545.06,-73.48 1540.99,-67.78"/>
</a>
</g>
</g>
<!-- Node20&#45;&gt;Node10 -->
<g id="edge23_Node000020_Node000010" class="edge">
<title>Node20&#45;&gt;Node10</title>
<g id="a_edge23_Node000020_Node000010"><a xlink:title=" ">
<path fill="none" stroke="#63b8ff" d="M1671.91,-237.69C1682.49,-229.82 1692.19,-220.12 1698.25,-208.5 1709.14,-187.61 1704.95,-178.08 1698.25,-155.5 1684.94,-110.65 1651.29,-66.78 1629.95,-42.14"/>
<polygon fill="#63b8ff" stroke="#63b8ff" points="1669.98,-234.77 1663.69,-243.3 1673.92,-240.55 1669.98,-234.77"/>
</a>
</g>
</g>
<!-- Node20&#45;&gt;Node14 -->
<g id="edge21_Node000020_Node000014" class="edge">
<title>Node20&#45;&gt;Node14</title>
<g id="a_edge21_Node000020_Node000014"><a xlink:title=" ">
<path fill="none" stroke="#63b8ff" d="M1557.69,-239.86C1528.89,-228.2 1494.86,-214.42 1467.51,-203.35"/>
<polygon fill="#63b8ff" stroke="#63b8ff" points="1556.06,-242.97 1566.64,-243.48 1558.69,-236.49 1556.06,-242.97"/>
</a>
</g>
</g>
<!-- Node21 -->
<g id="Node000021" class="node">
<title>Node21</title>
<g id="a_Node000021"><a xlink:href="../../d0/da0/State_8cpp.html" target="_top" xlink:title=" ">
<polygon fill="white" stroke="#666666" points="1689.5,-202.88 1549,-202.88 1549,-161.12 1689.5,-161.12 1689.5,-202.88"/>
<text text-anchor="start" x="1557" y="-189.38" font-family="Helvetica,sans-Serif" font-size="10.00">/Users/fola/Documents</text>
<text text-anchor="start" x="1557" y="-178.12" font-family="Helvetica,sans-Serif" font-size="10.00">/ArkScript/Ark/src/arkreactor</text>
<text text-anchor="middle" x="1619.25" y="-166.88" font-family="Helvetica,sans-Serif" font-size="10.00">/VM/State.cpp</text>
</a>
</g>
</g>
<!-- Node20&#45;&gt;Node21 -->
<g id="edge22_Node000020_Node000021" class="edge">
<title>Node20&#45;&gt;Node21</title>
<g id="a_edge22_Node000020_Node000021"><a xlink:title=" ">
<path fill="none" stroke="#63b8ff" d="M1618.64,-233.02C1618.76,-222.99 1618.89,-212.17 1619,-203.17"/>
<polygon fill="#63b8ff" stroke="#63b8ff" points="1615.14,-232.7 1618.52,-242.75 1622.14,-232.79 1615.14,-232.7"/>
</a>
</g>
</g>
<!-- Node22&#45;&gt;Node4 -->
<g id="edge25_Node000022_Node000004" class="edge">
<title>Node22&#45;&gt;Node4</title>
<g id="a_edge25_Node000022_Node000004"><a xlink:title=" ">
<path fill="none" stroke="#63b8ff" d="M132.3,-157.23C134.3,-156.62 136.29,-156.05 138.25,-155.5 221.35,-132.42 320,-116.2 381.38,-107.39"/>
<polygon fill="#63b8ff" stroke="#63b8ff" points="131.44,-153.83 122.98,-160.22 133.58,-160.49 131.44,-153.83"/>
</a>
</g>
</g>
<!-- Node22&#45;&gt;Node7 -->
<g id="edge26_Node000022_Node000007" class="edge">
<title>Node22&#45;&gt;Node7</title>
<g id="a_edge26_Node000022_Node000007"><a xlink:title=" ">
<path fill="none" stroke="#63b8ff" d="M129.74,-157.5C132.59,-156.75 135.44,-156.07 138.25,-155.5 490,-83.58 590.45,-174.39 945.25,-119.5 950.25,-118.73 955.39,-117.75 960.53,-116.64"/>
<polygon fill="#63b8ff" stroke="#63b8ff" points="128.8,-154.13 120.19,-160.3 130.77,-160.84 128.8,-154.13"/>
</a>
</g>
</g>
<!-- Node22&#45;&gt;Node12 -->
<g id="edge28_Node000022_Node000012" class="edge">
<title>Node22&#45;&gt;Node12</title>
<g id="a_edge28_Node000022_Node000012"><a xlink:title=" ">
<path fill="none" stroke="#63b8ff" d="M130.38,-157.44C133.02,-156.73 135.65,-156.07 138.25,-155.5 201.29,-141.56 625.14,-114.41 795.53,-103.91"/>
<polygon fill="#63b8ff" stroke="#63b8ff" points="129.56,-154.04 120.97,-160.25 131.56,-160.74 129.56,-154.04"/>
</a>
</g>
</g>
<!-- Node23 -->
<g id="Node000023" class="node">
<title>Node23</title>
<g id="a_Node000023"><a xlink:href="../../d6/d9a/TypeChecker_8cpp.html" target="_top" xlink:title=" ">
<polygon fill="white" stroke="#666666" points="140.5,-119.5 0,-119.5 0,-77.75 140.5,-77.75 140.5,-119.5"/>
<text text-anchor="start" x="8" y="-106" font-family="Helvetica,sans-Serif" font-size="10.00">/Users/fola/Documents</text>
<text text-anchor="start" x="8" y="-94.75" font-family="Helvetica,sans-Serif" font-size="10.00">/ArkScript/Ark/src/arkreactor</text>
<text text-anchor="middle" x="70.25" y="-83.5" font-family="Helvetica,sans-Serif" font-size="10.00">/TypeChecker.cpp</text>
</a>
</g>
</g>
<!-- Node22&#45;&gt;Node23 -->
<g id="edge27_Node000022_Node000023" class="edge">
<title>Node22&#45;&gt;Node23</title>
<g id="a_edge27_Node000022_Node000023"><a xlink:title=" ">
<path fill="none" stroke="#63b8ff" d="M70.25,-149.64C70.25,-139.62 70.25,-128.8 70.25,-119.79"/>
<polygon fill="#63b8ff" stroke="#63b8ff" points="66.75,-149.37 70.25,-159.37 73.75,-149.37 66.75,-149.37"/>
</a>
</g>
</g>
<!-- Node24&#45;&gt;Node3 -->
<g id="edge33_Node000024_Node000003" class="edge">
<title>Node24&#45;&gt;Node3</title>
<g id="a_edge33_Node000024_Node000003"><a xlink:title=" ">
<path fill="none" stroke="#63b8ff" d="M1230.35,-314.46C1221.54,-306.3 1213.05,-296.72 1207.25,-286.25 1192.77,-260.1 1189.05,-225.08 1188.24,-203.29"/>
<polygon fill="#63b8ff" stroke="#63b8ff" points="1227.84,-316.91 1237.68,-320.83 1232.43,-311.62 1227.84,-316.91"/>
</a>
</g>
</g>
<!-- Node24&#45;&gt;Node25 -->
<g id="edge30_Node000024_Node000025" class="edge">
<title>Node24&#45;&gt;Node25</title>
<g id="a_edge30_Node000024_Node000025"><a xlink:title=" ">
<path fill="none" stroke="#63b8ff" d="M1271.17,-310.5C1271.92,-302.46 1272.69,-294.04 1273.37,-286.73"/>
<polygon fill="#63b8ff" stroke="#63b8ff" points="1267.7,-310.04 1270.27,-320.32 1274.67,-310.68 1267.7,-310.04"/>
</a>
</g>
</g>
<!-- Node25&#45;&gt;Node3 -->
<g id="edge31_Node000025_Node000003" class="edge">
<title>Node25&#45;&gt;Node3</title>
<g id="a_edge31_Node000025_Node000003"><a xlink:title=" ">
<path fill="none" stroke="#63b8ff" d="M1245.53,-236.57C1233.8,-225.61 1220.59,-213.25 1209.81,-203.17"/>
<polygon fill="#63b8ff" stroke="#63b8ff" points="1242.94,-238.95 1252.64,-243.23 1247.73,-233.84 1242.94,-238.95"/>
</a>
</g>
</g>
<!-- Node25&#45;&gt;Node11 -->
<g id="edge32_Node000025_Node000011" class="edge">
<title>Node25&#45;&gt;Node11</title>
<g id="a_edge32_Node000025_Node000011"><a xlink:title=" ">
<path fill="none" stroke="#63b8ff" d="M1276.29,-232.85C1275.58,-209.68 1271.44,-178.37 1256.25,-155.5 1246.32,-140.55 1230.87,-128.75 1215.73,-119.93"/>
<polygon fill="#63b8ff" stroke="#63b8ff" points="1272.79,-232.66 1276.37,-242.63 1279.79,-232.6 1272.79,-232.66"/>
</a>
</g>
</g>
<!-- Node26&#45;&gt;Node3 -->
<g id="edge37_Node000026_Node000003" class="edge">
<title>Node26&#45;&gt;Node3</title>
<g id="a_edge37_Node000026_Node000003"><a xlink:title=" ">
<path fill="none" stroke="#63b8ff" d="M1047.62,-393.07C1037.02,-385.23 1027.33,-375.58 1021.25,-364 1012.62,-347.57 1013.38,-339.05 1021.25,-322.25 1047.1,-267.04 1106.8,-226.07 1147.35,-203.34"/>
<polygon fill="#63b8ff" stroke="#63b8ff" points="1045.6,-395.94 1055.84,-398.65 1049.53,-390.14 1045.6,-395.94"/>
</a>
</g>
</g>
<!-- Node26&#45;&gt;Node24 -->
<g id="edge36_Node000026_Node000024" class="edge">
<title>Node26&#45;&gt;Node24</title>
<g id="a_edge36_Node000026_Node000024"><a xlink:title=" ">
<path fill="none" stroke="#63b8ff" d="M1157.08,-394.86C1178.67,-385 1203.16,-373.83 1223.64,-364.48"/>
<polygon fill="#63b8ff" stroke="#63b8ff" points="1155.76,-391.61 1148.11,-398.95 1158.66,-397.98 1155.76,-391.61"/>
</a>
</g>
</g>
<!-- Node27 -->
<g id="Node000027" class="node">
<title>Node27</title>
<g id="a_Node000027"><a xlink:href="../../d9/ddb/ScopeView_8cpp.html" target="_top" xlink:title=" ">
<polygon fill="white" stroke="#666666" points="974.5,-364 834,-364 834,-322.25 974.5,-322.25 974.5,-364"/>
<text text-anchor="start" x="842" y="-350.5" font-family="Helvetica,sans-Serif" font-size="10.00">/Users/fola/Documents</text>
<text text-anchor="start" x="842" y="-339.25" font-family="Helvetica,sans-Serif" font-size="10.00">/ArkScript/Ark/src/arkreactor</text>
<text text-anchor="middle" x="904.25" y="-328" font-family="Helvetica,sans-Serif" font-size="10.00">/VM/ScopeView.cpp</text>
</a>
</g>
</g>
<!-- Node26&#45;&gt;Node27 -->
<g id="edge38_Node000026_Node000027" class="edge">
<title>Node26&#45;&gt;Node27</title>
<g id="a_edge38_Node000026_Node000027"><a xlink:title=" ">
<path fill="none" stroke="#63b8ff" d="M1038.61,-395.53C1012.43,-385.51 982.44,-374.04 957.46,-364.48"/>
<polygon fill="#63b8ff" stroke="#63b8ff" points="1037.19,-398.73 1047.78,-399.03 1039.69,-392.19 1037.19,-398.73"/>
</a>
</g>
</g>
<!-- Node28 -->
<g id="Node000028" class="node">
<title>Node28</title>
<g id="a_Node000028"><a xlink:href="../../d6/d49/ClosureScope_8cpp.html" target="_top" xlink:title=" ">
<polygon fill="white" stroke="#666666" points="1174.38,-364 1030.12,-364 1030.12,-322.25 1174.38,-322.25 1174.38,-364"/>
<text text-anchor="start" x="1038.12" y="-350.5" font-family="Helvetica,sans-Serif" font-size="10.00">/Users/fola/Documents</text>
<text text-anchor="start" x="1038.12" y="-339.25" font-family="Helvetica,sans-Serif" font-size="10.00">/ArkScript/Ark/src/arkreactor</text>
<text text-anchor="middle" x="1102.25" y="-328" font-family="Helvetica,sans-Serif" font-size="10.00">/VM/Value/ClosureScope.cpp</text>
</a>
</g>
</g>
<!-- Node26&#45;&gt;Node28 -->
<g id="edge39_Node000026_Node000028" class="edge">
<title>Node26&#45;&gt;Node28</title>
<g id="a_edge39_Node000026_Node000028"><a xlink:title=" ">
<path fill="none" stroke="#63b8ff" d="M1102.25,-388.25C1102.25,-380.21 1102.25,-371.79 1102.25,-364.48"/>
<polygon fill="#63b8ff" stroke="#63b8ff" points="1098.75,-388.06 1102.25,-398.06 1105.75,-388.06 1098.75,-388.06"/>
</a>
</g>
</g>
<!-- Node29&#45;&gt;Node3 -->
<g id="edge41_Node000029_Node000003" class="edge">
<title>Node29&#45;&gt;Node3</title>
<g id="a_edge41_Node000029_Node000003"><a xlink:title=" ">
<path fill="none" stroke="#63b8ff" d="M1385.37,-243.08C1342.35,-229.96 1287.82,-213.35 1247.02,-200.91"/>
<polygon fill="#63b8ff" stroke="#63b8ff" points="1384.29,-246.41 1394.88,-245.97 1386.33,-239.71 1384.29,-246.41"/>
</a>
</g>
</g>
<!-- Node29&#45;&gt;Node8 -->
<g id="edge42_Node000029_Node000008" class="edge">
<title>Node29&#45;&gt;Node8</title>
<g id="a_edge42_Node000029_Node000008"><a xlink:title=" ">
<path fill="none" stroke="#63b8ff" d="M1485.73,-235.52C1492.39,-227.46 1498.55,-218.23 1502.25,-208.5 1513.41,-179.16 1511.36,-142.09 1508.54,-119.65"/>
<polygon fill="#63b8ff" stroke="#63b8ff" points="1483.14,-233.16 1479.1,-242.95 1488.37,-237.82 1483.14,-233.16"/>
</a>
</g>
</g>
<!-- Node29&#45;&gt;Node21 -->
<g id="edge43_Node000029_Node000021" class="edge">
<title>Node29&#45;&gt;Node21</title>
<g id="a_edge43_Node000029_Node000021"><a xlink:title=" ">
<path fill="none" stroke="#63b8ff" d="M1506.52,-238.93C1529.62,-227.47 1556.52,-214.13 1578.24,-203.35"/>
<polygon fill="#63b8ff" stroke="#63b8ff" points="1504.97,-235.8 1497.57,-243.38 1508.08,-242.07 1504.97,-235.8"/>
</a>
</g>
</g>
<!-- Node30&#45;&gt;Node13 -->
<g id="edge47_Node000030_Node000013" class="edge">
<title>Node30&#45;&gt;Node13</title>
<g id="a_edge47_Node000030_Node000013"><a xlink:title=" ">
<path fill="none" stroke="#63b8ff" d="M1324.2,-393.89C1335.83,-386.04 1346.48,-376.17 1353.25,-364 1362.27,-347.78 1354.44,-340.77 1353.25,-322.25 1351.02,-287.48 1350.59,-278.56 1343.25,-244.5 1339.73,-228.15 1335.02,-225 1332.25,-208.5 1327.1,-177.91 1326.91,-141.83 1327.44,-119.85"/>
<polygon fill="#63b8ff" stroke="#63b8ff" points="1322.66,-390.72 1316,-398.96 1326.35,-396.68 1322.66,-390.72"/>
</a>
</g>
</g>
<!-- Node30&#45;&gt;Node24 -->
<g id="edge46_Node000030_Node000024" class="edge">
<title>Node30&#45;&gt;Node24</title>
<g id="a_edge46_Node000030_Node000024"><a xlink:title=" ">
<path fill="none" stroke="#63b8ff" d="M1265.34,-388.25C1265.87,-380.21 1266.42,-371.79 1266.91,-364.48"/>
<polygon fill="#63b8ff" stroke="#63b8ff" points="1261.86,-387.86 1264.69,-398.07 1268.84,-388.32 1261.86,-387.86"/>
</a>
</g>
</g>
<!-- Node30&#45;&gt;Node28 -->
<g id="edge48_Node000030_Node000028" class="edge">
<title>Node30&#45;&gt;Node28</title>
<g id="a_edge48_Node000030_Node000028"><a xlink:title=" ">
<path fill="none" stroke="#63b8ff" d="M1209.79,-394.72C1188.91,-384.9 1165.29,-373.79 1145.51,-364.48"/>
<polygon fill="#63b8ff" stroke="#63b8ff" points="1208.2,-397.84 1218.74,-398.93 1211.18,-391.51 1208.2,-397.84"/>
</a>
</g>
</g>
</g>
</svg>
