<?xml version="1.0" encoding="UTF-8" standalone="no"?>
<!DOCTYPE svg PUBLIC "-//W3C//DTD SVG 1.1//EN"
 "http://www.w3.org/Graphics/SVG/1.1/DTD/svg11.dtd">
<!-- Generated by graphviz version 12.2.0 (20241103.1931)
 -->
<!-- Title: /Users/fola/Documents/ArkScript/Ark/src/arkreactor/Utils/Utils.cpp Pages: 1 -->
<svg width="375pt" height="160pt"
 viewBox="0.00 0.00 374.88 160.25" xmlns="http://www.w3.org/2000/svg" xmlns:xlink="http://www.w3.org/1999/xlink">
<g id="graph0" class="graph" transform="scale(1 1) rotate(0) translate(4 156.25)">
<title>/Users/fola/Documents/ArkScript/Ark/src/arkreactor/Utils/Utils.cpp</title>
<!-- Node1 -->
<g id="Node000001" class="node">
<title>Node1</title>
<g id="a_Node000001"><a xlink:title=" ">
<polygon fill="#999999" stroke="#666666" points="338.62,-152.25 198.12,-152.25 198.12,-110.5 338.62,-110.5 338.62,-152.25"/>
<text text-anchor="start" x="206.12" y="-138.75" font-family="Helvetica,sans-Serif" font-size="10.00">/Users/fola/Documents</text>
<text text-anchor="start" x="206.12" y="-127.5" font-family="Helvetica,sans-Serif" font-size="10.00">/ArkScript/Ark/src/arkreactor</text>
<text text-anchor="middle" x="268.38" y="-116.25" font-family="Helvetica,sans-Serif" font-size="10.00">/Utils/Utils.cpp</text>
</a>
</g>
</g>
<!-- Node2 -->
<g id="Node000002" class="node">
<title>Node2</title>
<g id="a_Node000002"><a xlink:href="../../d3/d7a/Ark_2Utils_2Utils_8hpp.html" target="_top" xlink:title="Lots of utilities about string, filesystem and more.">
<polygon fill="white" stroke="#666666" points="272.5,-74.5 176.25,-74.5 176.25,-55.25 272.5,-55.25 272.5,-74.5"/>
<text text-anchor="middle" x="224.38" y="-61" font-family="Helvetica,sans-Serif" font-size="10.00">Ark/Utils/Utils.hpp</text>
</a>
</g>
</g>
<!-- Node1&#45;&gt;Node2 -->
<g id="edge1_Node000001_Node000002" class="edge">
<title>Node1&#45;&gt;Node2</title>
<g id="a_edge1_Node000001_Node000002"><a xlink:title=" ">
<path fill="none" stroke="#63b8ff" d="M254.69,-110.32C249.02,-102 242.48,-92.41 236.92,-84.27"/>
<polygon fill="#63b8ff" stroke="#63b8ff" points="239.94,-82.48 231.42,-76.2 234.16,-86.43 239.94,-82.48"/>
</a>
</g>
</g>
<!-- Node8 -->
<g id="Node000008" class="node">
<title>Node8</title>
<g id="a_Node000008"><a xlink:title=" ">
<polygon fill="#e0e0e0" stroke="#999999" points="336,-74.5 290.75,-74.5 290.75,-55.25 336,-55.25 336,-74.5"/>
<text text-anchor="middle" x="313.38" y="-61" font-family="Helvetica,sans-Serif" font-size="10.00">ranges</text>
</a>
</g>
</g>
<!-- Node1&#45;&gt;Node8 -->
<g id="edge7_Node000001_Node000008" class="edge">
<title>Node1&#45;&gt;Node8</title>
<g id="a_edge7_Node000001_Node000008"><a xlink:title=" ">
<path fill="none" stroke="#63b8ff" d="M282.37,-110.32C288.17,-102 294.86,-92.41 300.54,-84.27"/>
<polygon fill="#63b8ff" stroke="#63b8ff" points="303.33,-86.39 306.18,-76.19 297.59,-82.39 303.33,-86.39"/>
</a>
</g>
</g>
<!-- Node3 -->
<g id="Node000003" class="node">
<title>Node3</title>
<g id="a_Node000003"><a xlink:href="../../d5/d40/Platform_8hpp.html" target="_top" xlink:title="ArkScript configuration macros.">
<polygon fill="white" stroke="#666666" points="112.75,-19.25 0,-19.25 0,0 112.75,0 112.75,-19.25"/>
<text text-anchor="middle" x="56.38" y="-5.75" font-family="Helvetica,sans-Serif" font-size="10.00">Ark/Utils/Platform.hpp</text>
</a>
</g>
</g>
<!-- Node2&#45;&gt;Node3 -->
<g id="edge2_Node000002_Node000003" class="edge">
<title>Node2&#45;&gt;Node3</title>
<g id="a_edge2_Node000002_Node000003"><a xlink:title=" ">
<path fill="none" stroke="#63b8ff" d="M195.88,-54.84C168.36,-46.12 126.47,-32.84 95.77,-23.11"/>
<polygon fill="#63b8ff" stroke="#63b8ff" points="97.05,-19.84 86.46,-20.16 94.93,-26.52 97.05,-19.84"/>
</a>
</g>
</g>
<!-- Node4 -->
<g id="Node000004" class="node">
<title>Node4</title>
<g id="a_Node000004"><a xlink:title=" ">
<polygon fill="#e0e0e0" stroke="#999999" points="186.25,-19.25 130.5,-19.25 130.5,0 186.25,0 186.25,-19.25"/>
<text text-anchor="middle" x="158.38" y="-5.75" font-family="Helvetica,sans-Serif" font-size="10.00">algorithm</text>
</a>
</g>
</g>
<!-- Node2&#45;&gt;Node4 -->
<g id="edge3_Node000002_Node000004" class="edge">
<title>Node2&#45;&gt;Node4</title>
<g id="a_edge3_Node000002_Node000004"><a xlink:title=" ">
<path fill="none" stroke="#63b8ff" d="M213.18,-54.84C203.64,-47.15 189.7,-35.9 178.27,-26.68"/>
<polygon fill="#63b8ff" stroke="#63b8ff" points="180.56,-24.03 170.58,-20.48 176.17,-29.48 180.56,-24.03"/>
</a>
</g>
</g>
<!-- Node5 -->
<g id="Node000005" class="node">
<title>Node5</title>
<g id="a_Node000005"><a xlink:title=" ">
<polygon fill="#e0e0e0" stroke="#999999" points="244.38,-19.25 204.38,-19.25 204.38,0 244.38,0 244.38,-19.25"/>
<text text-anchor="middle" x="224.38" y="-5.75" font-family="Helvetica,sans-Serif" font-size="10.00">string</text>
</a>
</g>
</g>
<!-- Node2&#45;&gt;Node5 -->
<g id="edge4_Node000002_Node000005" class="edge">
<title>Node2&#45;&gt;Node5</title>
<g id="a_edge4_Node000002_Node000005"><a xlink:title=" ">
<path fill="none" stroke="#63b8ff" d="M224.38,-55.08C224.38,-48.57 224.38,-39.42 224.38,-31.12"/>
<polygon fill="#63b8ff" stroke="#63b8ff" points="227.88,-31.12 224.38,-21.12 220.88,-31.12 227.88,-31.12"/>
</a>
</g>
</g>
<!-- Node6 -->
<g id="Node000006" class="node">
<title>Node6</title>
<g id="a_Node000006"><a xlink:title=" ">
<polygon fill="#e0e0e0" stroke="#999999" points="305.88,-19.25 262.88,-19.25 262.88,0 305.88,0 305.88,-19.25"/>
<text text-anchor="middle" x="284.38" y="-5.75" font-family="Helvetica,sans-Serif" font-size="10.00">vector</text>
</a>
</g>
</g>
<!-- Node2&#45;&gt;Node6 -->
<g id="edge5_Node000002_Node000006" class="edge">
<title>Node2&#45;&gt;Node6</title>
<g id="a_edge5_Node000002_Node000006"><a xlink:title=" ">
<path fill="none" stroke="#63b8ff" d="M234.55,-54.84C243.14,-47.22 255.64,-36.12 265.98,-26.95"/>
<polygon fill="#63b8ff" stroke="#63b8ff" points="268.06,-29.79 273.22,-20.53 263.41,-24.55 268.06,-29.79"/>
</a>
</g>
</g>
<!-- Node7 -->
<g id="Node000007" class="node">
<title>Node7</title>
<g id="a_Node000007"><a xlink:title=" ">
<polygon fill="#e0e0e0" stroke="#999999" points="366.88,-19.25 323.88,-19.25 323.88,0 366.88,0 366.88,-19.25"/>
<text text-anchor="middle" x="345.38" y="-5.75" font-family="Helvetica,sans-Serif" font-size="10.00">cmath</text>
</a>
</g>
</g>
<!-- Node2&#45;&gt;Node7 -->
<g id="edge6_Node000002_Node000007" class="edge">
<title>Node2&#45;&gt;Node7</title>
<g id="a_edge6_Node000002_Node000007"><a xlink:title=" ">
<path fill="none" stroke="#63b8ff" d="M244.9,-54.84C263.94,-46.47 292.53,-33.88 314.35,-24.28"/>
<polygon fill="#63b8ff" stroke="#63b8ff" points="315.62,-27.54 323.36,-20.31 312.8,-21.14 315.62,-27.54"/>
</a>
</g>
</g>
</g>
</svg>
