<?xml version="1.0" encoding="UTF-8" standalone="no"?>
<!DOCTYPE svg PUBLIC "-//W3C//DTD SVG 1.1//EN"
 "http://www.w3.org/Graphics/SVG/1.1/DTD/svg11.dtd">
<!-- Generated by graphviz version 12.2.0 (20241103.1931)
 -->
<!-- Title: Ark::internal::ScopeResolver Pages: 1 -->
<!--zoomable 547 -->

<svg id="main" version="1.1" xmlns="http://www.w3.org/2000/svg" xmlns:xlink="http://www.w3.org/1999/xlink" xml:space="preserve" onload="init(evt)">

<style type="text/css"><![CDATA[
.node, .edge {opacity: 0.7;}
.node.selected, .edge.selected {opacity: 1;}
.edge:hover path { stroke: red; }
.edge:hover polygon { stroke: red; fill: red; }
]]></style>

<defs>
  <circle id="rim" cx="0" cy="0" r="7"/>
  <circle id="rim2" cx="0" cy="0" r="3.5"/>
  <g id="zoomPlus">
    <use xlink:href="#rim" fill="#404040"><set attributeName="fill" to="#808080" begin="zoomplus.mouseover" end="zoomplus.mouseout"/></use>
    <path d="M-4,0h8M0,-4v8" fill="none" stroke="white" stroke-width="1.5" pointer-events="none"/>
  </g>
  <g id="zoomMin">
    <use xlink:href="#rim" fill="#404040"><set attributeName="fill" to="#808080" begin="zoomminus.mouseover" end="zoomminus.mouseout"/></use>
    <path d="M-4,0h8" fill="none" stroke="white" stroke-width="1.5" pointer-events="none"/>
  </g>
  <g id="arrowUp" transform="translate(30 24)">
    <use xlink:href="#rim"/>
    <path pointer-events="none" fill="none" stroke="white" stroke-width="1.5" d="M0,-3.0v7 M-2.5,-0.5L0,-3.0L2.5,-0.5"/>
  </g>
  <g id="arrowRight" transform="rotate(90) translate(36 -43)">
    <use xlink:href="#rim"/>
    <path pointer-events="none" fill="none" stroke="white" stroke-width="1.5" d="M0,-3.0v7 M-2.5,-0.5L0,-3.0L2.5,-0.5"/>
  </g>
  <g id="arrowDown" transform="rotate(180) translate(-30 -48)">
    <use xlink:href="#rim"/>
    <path pointer-events="none" fill="none" stroke="white" stroke-width="1.5" d="M0,-3.0v7 M-2.5,-0.5L0,-3.0L2.5,-0.5"/>
  </g>
  <g id="arrowLeft" transform="rotate(270) translate(-36 17)">
    <use xlink:href="#rim"/>
    <path pointer-events="none" fill="none" stroke="white" stroke-width="1.5" d="M0,-3.0v7 M-2.5,-0.5L0,-3.0L2.5,-0.5"/>
  </g>
  <g id="resetDef">
    <use xlink:href="#rim2" fill="#404040"><set attributeName="fill" to="#808080" begin="reset.mouseover" end="reset.mouseout"/></use>
  </g>
</defs>
<script type="application/ecmascript">
var viewWidth = 463;
var viewHeight = 547;
var sectionId = 'dynsection-0';
</script>
<script type="application/ecmascript" xlink:href="../../svg.min.js"/>
<svg id="graph" class="graph">
<g id="viewport">
<title>Ark::internal::ScopeResolver</title>
<!-- Node1 -->
<g id="Node000001" class="node">
<title>Node1</title>
<g id="a_Node000001"><a xlink:title=" ">
<polygon fill="#999999" stroke="#666666" points="308.62,-19.25 167.38,-19.25 167.38,0 308.62,0 308.62,-19.25"/>
<text text-anchor="middle" x="238" y="-5.75" font-family="Helvetica,sans-Serif" font-size="10.00">Ark::internal::ScopeResolver</text>
</a>
</g>
</g>
<!-- Node2 -->
<g id="Node000002" class="node">
<title>Node2</title>
<g id="a_Node000002"><a xlink:title=" ">
<polygon fill="white" stroke="#666666" points="323.25,-97 152.75,-97 152.75,-66.5 323.25,-66.5 323.25,-97"/>
<text text-anchor="start" x="160.75" y="-83.5" font-family="Helvetica,sans-Serif" font-size="10.00">std::vector&lt; std::unique</text>
<text text-anchor="middle" x="238" y="-72.25" font-family="Helvetica,sans-Serif" font-size="10.00">_ptr&lt; Ark::internal::StaticScope &gt; &gt;</text>
</a>
</g>
</g>
<!-- Node2&#45;&gt;Node1 -->
<g id="edge1_Node000001_Node000002" class="edge">
<title>Node2&#45;&gt;Node1</title>
<g id="a_edge1_Node000001_Node000002"><a xlink:title=" ">
<path fill="none" stroke="#9a32cd" stroke-dasharray="5,2" d="M238,-54.98C238,-42.48 238,-28.27 238,-19.38"/>
<polygon fill="#9a32cd" stroke="#9a32cd" points="234.5,-54.71 238,-64.71 241.5,-54.71 234.5,-54.71"/>
</a>
</g>
<text text-anchor="middle" x="262" y="-39" font-family="Helvetica,sans-Serif" font-size="10.00" fill="grey"> m_scopes</text>
</g>
<!-- Node3 -->
<g id="Node000003" class="node">
<title>Node3</title>
<g id="a_Node000003"><a xlink:title=" ">
<polygon fill="white" stroke="#666666" points="229.88,-174.75 108.12,-174.75 108.12,-144.25 229.88,-144.25 229.88,-174.75"/>
<text text-anchor="start" x="116.12" y="-161.25" font-family="Helvetica,sans-Serif" font-size="10.00">std::unique_ptr&lt; Ark</text>
<text text-anchor="middle" x="169" y="-150" font-family="Helvetica,sans-Serif" font-size="10.00">::internal::StaticScope &gt;</text>
</a>
</g>
</g>
<!-- Node3&#45;&gt;Node2 -->
<g id="edge2_Node000002_Node000003" class="edge">
<title>Node3&#45;&gt;Node2</title>
<g id="a_edge2_Node000002_Node000003"><a xlink:title=" ">
<path fill="none" stroke="#9a32cd" stroke-dasharray="5,2" d="M190.04,-135.4C201.34,-123 214.92,-108.09 224.74,-97.31"/>
<polygon fill="#9a32cd" stroke="#9a32cd" points="187.47,-133.03 183.32,-142.78 192.64,-137.74 187.47,-133.03"/>
</a>
</g>
<text text-anchor="middle" x="229.01" y="-116.75" font-family="Helvetica,sans-Serif" font-size="10.00" fill="grey"> elements</text>
</g>
<!-- Node4 -->
<g id="Node000004" class="node">
<title>Node4</title>
<g id="a_Node000004"><a xlink:href="../../d3/d8e/classArk_1_1internal_1_1StaticScope.html" target="_top" xlink:title=" ">
<polygon fill="white" stroke="#666666" points="195.88,-249.25 68.12,-249.25 68.12,-230 195.88,-230 195.88,-249.25"/>
<text text-anchor="middle" x="132" y="-235.75" font-family="Helvetica,sans-Serif" font-size="10.00">Ark::internal::StaticScope</text>
</a>
</g>
</g>
<!-- Node4&#45;&gt;Node3 -->
<g id="edge3_Node000003_Node000004" class="edge">
<title>Node4&#45;&gt;Node3</title>
<g id="a_edge3_Node000003_Node000004"><a xlink:title=" ">
<path fill="none" stroke="#9a32cd" stroke-dasharray="5,2" d="M128.88,-218.4C128.46,-210.11 129.13,-200.64 132.75,-192.75 135.84,-186.01 141.09,-180.1 146.65,-175.23"/>
<polygon fill="#9a32cd" stroke="#9a32cd" points="125.38,-218.64 129.95,-228.21 132.34,-217.88 125.38,-218.64"/>
</a>
</g>
<text text-anchor="middle" x="139.88" y="-198.5" font-family="Helvetica,sans-Serif" font-size="10.00" fill="grey"> ptr</text>
</g>
<!-- Node5 -->
<g id="Node000005" class="node">
<title>Node5</title>
<g id="a_Node000005"><a xlink:title=" ">
<polygon fill="white" stroke="#666666" points="202.62,-327 61.38,-327 61.38,-296.5 202.62,-296.5 202.62,-327"/>
<text text-anchor="start" x="69.38" y="-313.5" font-family="Helvetica,sans-Serif" font-size="10.00">std::unordered_set</text>
<text text-anchor="middle" x="132" y="-302.25" font-family="Helvetica,sans-Serif" font-size="10.00">&lt; Ark::internal::Declaration &gt;</text>
</a>
</g>
</g>
<!-- Node5&#45;&gt;Node4 -->
<g id="edge4_Node000004_Node000005" class="edge">
<title>Node5&#45;&gt;Node4</title>
<g id="a_edge4_Node000004_Node000005"><a xlink:title=" ">
<path fill="none" stroke="#9a32cd" stroke-dasharray="5,2" d="M132,-284.98C132,-272.48 132,-258.27 132,-249.38"/>
<polygon fill="#9a32cd" stroke="#9a32cd" points="128.5,-284.71 132,-294.71 135.5,-284.71 128.5,-284.71"/>
</a>
</g>
<text text-anchor="middle" x="149.62" y="-269" font-family="Helvetica,sans-Serif" font-size="10.00" fill="grey"> m_vars</text>
</g>
<!-- Node6 -->
<g id="Node000006" class="node">
<title>Node6</title>
<g id="a_Node000006"><a xlink:href="../../d1/dcf/structArk_1_1internal_1_1Declaration.html" target="_top" xlink:title=" ">
<polygon fill="white" stroke="#666666" points="124,-393.5 0,-393.5 0,-374.25 124,-374.25 124,-393.5"/>
<text text-anchor="middle" x="62" y="-380" font-family="Helvetica,sans-Serif" font-size="10.00">Ark::internal::Declaration</text>
</a>
</g>
</g>
<!-- Node6&#45;&gt;Node5 -->
<g id="edge5_Node000005_Node000006" class="edge">
<title>Node6&#45;&gt;Node5</title>
<g id="a_edge5_Node000005_Node000006"><a xlink:title=" ">
<path fill="none" stroke="#9a32cd" stroke-dasharray="5,2" d="M78.98,-365.86C90.72,-354.11 106.17,-338.63 117.36,-327.42"/>
<polygon fill="#9a32cd" stroke="#9a32cd" points="76.52,-363.37 71.93,-372.92 81.48,-368.32 76.52,-363.37"/>
</a>
</g>
<text text-anchor="middle" x="111.1" y="-346.75" font-family="Helvetica,sans-Serif" font-size="10.00" fill="grey"> keys</text>
</g>
<!-- Node7 -->
<g id="Node000007" class="node">
<title>Node7</title>
<g id="a_Node000007"><a xlink:title=" ">
<polygon fill="white" stroke="#666666" points="91.75,-471.25 32.25,-471.25 32.25,-452 91.75,-452 91.75,-471.25"/>
<text text-anchor="middle" x="62" y="-457.75" font-family="Helvetica,sans-Serif" font-size="10.00">std::string</text>
</a>
</g>
</g>
<!-- Node7&#45;&gt;Node6 -->
<g id="edge6_Node000006_Node000007" class="edge">
<title>Node7&#45;&gt;Node6</title>
<g id="a_edge6_Node000006_Node000007"><a xlink:title=" ">
<path fill="none" stroke="#9a32cd" stroke-dasharray="5,2" d="M62,-440.35C62,-425.2 62,-405.23 62,-393.85"/>
<polygon fill="#9a32cd" stroke="#9a32cd" points="58.5,-440.12 62,-450.12 65.5,-440.12 58.5,-440.12"/>
</a>
</g>
<text text-anchor="middle" x="92" y="-424.5" font-family="Helvetica,sans-Serif" font-size="10.00" fill="grey"> name</text>
<text text-anchor="middle" x="92" y="-413.25" font-family="Helvetica,sans-Serif" font-size="10.00" fill="grey">original_name</text>
</g>
<!-- Node8 -->
<g id="Node000008" class="node">
<title>Node8</title>
<g id="a_Node000008"><a xlink:title=" ">
<polygon fill="white" stroke="#666666" points="109,-538.75 15,-538.75 15,-508.25 109,-508.25 109,-538.75"/>
<text text-anchor="start" x="23" y="-525.25" font-family="Helvetica,sans-Serif" font-size="10.00">std::basic_string&lt;</text>
<text text-anchor="middle" x="62" y="-514" font-family="Helvetica,sans-Serif" font-size="10.00"> Char &gt;</text>
</a>
</g>
</g>
<!-- Node8&#45;&gt;Node7 -->
<g id="edge7_Node000007_Node000008" class="edge">
<title>Node8&#45;&gt;Node7</title>
<g id="a_edge7_Node000007_Node000008"><a xlink:title=" ">
<path fill="none" stroke="#63b8ff" d="M62,-496.77C62,-487.79 62,-478.29 62,-471.6"/>
<polygon fill="#63b8ff" stroke="#63b8ff" points="58.5,-496.49 62,-506.49 65.5,-496.49 58.5,-496.49"/>
</a>
</g>
</g>
<!-- Node9 -->
<g id="Node000009" class="node">
<title>Node9</title>
<g id="a_Node000009"><a xlink:title=" ">
<polygon fill="white" stroke="#666666" points="263.88,-393.5 142.12,-393.5 142.12,-374.25 263.88,-374.25 263.88,-393.5"/>
<text text-anchor="middle" x="203" y="-380" font-family="Helvetica,sans-Serif" font-size="10.00">std::unordered_set&lt; K &gt;</text>
</a>
</g>
</g>
<!-- Node9&#45;&gt;Node5 -->
<g id="edge8_Node000005_Node000009" class="edge">
<title>Node9&#45;&gt;Node5</title>
<g id="a_edge8_Node000005_Node000009"><a xlink:title=" ">
<path fill="none" stroke="orange" stroke-dasharray="5,2" d="M186.12,-366.21C174.18,-354.41 158.31,-338.74 146.85,-327.42"/>
<polygon fill="orange" stroke="orange" points="183.36,-368.39 192.93,-372.93 188.28,-363.41 183.36,-368.39"/>
</a>
</g>
<text text-anchor="middle" x="240.07" y="-346.75" font-family="Helvetica,sans-Serif" font-size="10.00" fill="grey"> &lt; Ark::internal::Declaration &gt;</text>
</g>
<!-- Node10 -->
<g id="Node000010" class="node">
<title>Node10</title>
<g id="a_Node000010"><a xlink:title=" ">
<polygon fill="white" stroke="#666666" points="217.4,-471.25 188.6,-471.25 188.6,-452 217.4,-452 217.4,-471.25"/>
<text text-anchor="middle" x="203" y="-457.75" font-family="Helvetica,sans-Serif" font-size="10.00">K</text>
</a>
</g>
</g>
<!-- Node10&#45;&gt;Node9 -->
<g id="edge9_Node000009_Node000010" class="edge">
<title>Node10&#45;&gt;Node9</title>
<g id="a_edge9_Node000009_Node000010"><a xlink:title=" ">
<path fill="none" stroke="#9a32cd" stroke-dasharray="5,2" d="M203,-440.35C203,-425.2 203,-405.23 203,-393.85"/>
<polygon fill="#9a32cd" stroke="#9a32cd" points="199.5,-440.12 203,-450.12 206.5,-440.12 199.5,-440.12"/>
</a>
</g>
<text text-anchor="middle" x="215" y="-418.88" font-family="Helvetica,sans-Serif" font-size="10.00" fill="grey"> keys</text>
</g>
<!-- Node11 -->
<g id="Node000011" class="node">
<title>Node11</title>
<g id="a_Node000011"><a xlink:title=" ">
<polygon fill="white" stroke="#666666" points="319.25,-249.25 214.75,-249.25 214.75,-230 319.25,-230 319.25,-249.25"/>
<text text-anchor="middle" x="267" y="-235.75" font-family="Helvetica,sans-Serif" font-size="10.00">std::unique_ptr&lt; T &gt;</text>
</a>
</g>
</g>
<!-- Node11&#45;&gt;Node3 -->
<g id="edge10_Node000003_Node000011" class="edge">
<title>Node11&#45;&gt;Node3</title>
<g id="a_edge10_Node000003_Node000011"><a xlink:title=" ">
<path fill="none" stroke="orange" stroke-dasharray="5,2" d="M203.37,-228.53C185.94,-224.39 170.35,-218.93 165,-212 157,-201.64 159.42,-186.34 162.99,-175.11"/>
<polygon fill="orange" stroke="orange" points="202.4,-231.89 212.91,-230.6 203.89,-225.06 202.4,-231.89"/>
</a>
</g>
<text text-anchor="middle" x="231" y="-198.5" font-family="Helvetica,sans-Serif" font-size="10.00" fill="grey"> &lt; Ark::internal::StaticScope &gt;</text>
</g>
<!-- Node12 -->
<g id="Node000012" class="node">
<title>Node12</title>
<g id="a_Node000012"><a xlink:title=" ">
<polygon fill="white" stroke="#666666" points="322.4,-321.38 293.6,-321.38 293.6,-302.12 322.4,-302.12 322.4,-321.38"/>
<text text-anchor="middle" x="308" y="-307.88" font-family="Helvetica,sans-Serif" font-size="10.00">T</text>
</a>
</g>
</g>
<!-- Node12&#45;&gt;Node11 -->
<g id="edge11_Node000011_Node000012" class="edge">
<title>Node12&#45;&gt;Node11</title>
<g id="a_edge11_Node000011_Node000012"><a xlink:title=" ">
<path fill="none" stroke="#9a32cd" stroke-dasharray="5,2" d="M297.05,-292.02C289.03,-278.31 278.51,-260.31 272.28,-249.66"/>
<polygon fill="#9a32cd" stroke="#9a32cd" points="293.97,-293.7 302.04,-300.56 300.02,-290.16 293.97,-293.7"/>
</a>
</g>
<text text-anchor="middle" x="295.85" y="-269" font-family="Helvetica,sans-Serif" font-size="10.00" fill="grey"> ptr</text>
</g>
<!-- Node13 -->
<g id="Node000013" class="node">
<title>Node13</title>
<g id="a_Node000013"><a xlink:title=" ">
<polygon fill="white" stroke="#666666" points="392.25,-212 305.75,-212 305.75,-192.75 392.25,-192.75 392.25,-212"/>
<text text-anchor="middle" x="349" y="-198.5" font-family="Helvetica,sans-Serif" font-size="10.00">std::vector&lt; T &gt;</text>
</a>
</g>
</g>
<!-- Node12&#45;&gt;Node13 -->
<g id="edge13_Node000013_Node000012" class="edge">
<title>Node12&#45;&gt;Node13</title>
<g id="a_edge13_Node000013_Node000012"><a xlink:title=" ">
<path fill="none" stroke="#9a32cd" stroke-dasharray="5,2" d="M315.44,-291.26C324.39,-267.83 339.01,-229.53 345.6,-212.28"/>
<polygon fill="#9a32cd" stroke="#9a32cd" points="312.19,-289.96 311.9,-300.55 318.73,-292.46 312.19,-289.96"/>
</a>
</g>
<text text-anchor="middle" x="345.51" y="-269" font-family="Helvetica,sans-Serif" font-size="10.00" fill="grey"> elements</text>
</g>
<!-- Node13&#45;&gt;Node2 -->
<g id="edge12_Node000002_Node000013" class="edge">
<title>Node13&#45;&gt;Node2</title>
<g id="a_edge12_Node000002_Node000013"><a xlink:title=" ">
<path fill="none" stroke="orange" stroke-dasharray="5,2" d="M332.89,-184.16C310.94,-160.7 272,-119.09 251.5,-97.18"/>
<polygon fill="orange" stroke="orange" points="330.23,-186.44 339.62,-191.35 335.35,-181.66 330.23,-186.44"/>
</a>
</g>
<text text-anchor="start" x="323" y="-161.25" font-family="Helvetica,sans-Serif" font-size="10.00" fill="grey"> &lt; std::unique_ptr&lt;</text>
<text text-anchor="middle" x="389" y="-150" font-family="Helvetica,sans-Serif" font-size="10.00" fill="grey"> Ark::internal::StaticScope &gt; &gt;</text>
</g>
</g>
</svg>

<g id="navigator" transform="translate(0 0)" fill="#404254">
  <rect fill="#f2f5e9" fill-opacity="0.5" stroke="#606060" stroke-width=".5" x="0" y="0" width="60" height="60"/>
  <use id="zoomplus" xlink:href="#zoomPlus" x="17" y="9" onmousedown="handleZoom(evt,'in')"/>
  <use id="zoomminus" xlink:href="#zoomMin" x="42" y="9" onmousedown="handleZoom(evt,'out')"/>
  <use id="reset" xlink:href="#resetDef" x="30" y="36" onmousedown="handleReset()"/>
   <use id="arrowup" xlink:href="#arrowUp" x="0" y="0" onmousedown="handlePan(0,-1)"/>
  <use id="arrowright" xlink:href="#arrowRight" x="0" y="0" onmousedown="handlePan(1,0)"/>
  <use id="arrowdown" xlink:href="#arrowDown" x="0" y="0" onmousedown="handlePan(0,1)"/>
  <use id="arrowleft" xlink:href="#arrowLeft" x="0" y="0" onmousedown="handlePan(-1,0)"/>
</g>
<svg viewBox="0 0 15 15" width="100%" height="30px" preserveAspectRatio="xMaxYMin meet">
 <g id="arrow_out" transform="scale(0.3 0.3)">
  <a xlink:href="classArk_1_1internal_1_1ScopeResolver__coll__graph_org.svg" target="_base">
   <rect id="button" ry="5" rx="5" y="6" x="6" height="38" width="38"
        fill="#f2f5e9" fill-opacity="0.5" stroke="#606060" stroke-width="1.0"/>
   <path id="arrow"
     d="M 11.500037,31.436501 C 11.940474,20.09759 22.043105,11.32322 32.158766,21.979434 L 37.068811,17.246167 C 37.068811,17.246167 37.088388,32 37.088388,32 L 22.160133,31.978069 C 22.160133,31.978069 26.997745,27.140456 26.997745,27.140456 C 18.528582,18.264221 13.291696,25.230495 11.500037,31.436501 z"
     style="fill:#404040;"/>
  </a>
 </g>
</svg>

<style type='text/css'>
<![CDATA[
[data-mouse-over-selected='false'] { opacity: 0.7; }
[data-mouse-over-selected='true']  { opacity: 1.0; }
]]>
</style>
<script type="application/ecmascript"><![CDATA[
document.addEventListener('DOMContentLoaded', (event) => {
  highlightEdges();
  highlightAdjacentNodes();
});
]]></script>
</svg>
