<?xml version="1.0" encoding="UTF-8" standalone="no"?>
<!DOCTYPE svg PUBLIC "-//W3C//DTD SVG 1.1//EN"
 "http://www.w3.org/Graphics/SVG/1.1/DTD/svg11.dtd">
<!-- Generated by graphviz version 12.2.0 (20241103.1931)
 -->
<!-- Title: /Users/fola/Documents/ArkScript/Ark/src/arkreactor/Compiler/AST/Optimizer.cpp Pages: 1 -->
<!--zoomable 326 -->

<svg id="main" version="1.1" xmlns="http://www.w3.org/2000/svg" xmlns:xlink="http://www.w3.org/1999/xlink" xml:space="preserve" onload="init(evt)">

<style type="text/css"><![CDATA[
.node, .edge {opacity: 0.7;}
.node.selected, .edge.selected {opacity: 1;}
.edge:hover path { stroke: red; }
.edge:hover polygon { stroke: red; fill: red; }
]]></style>

<defs>
  <circle id="rim" cx="0" cy="0" r="7"/>
  <circle id="rim2" cx="0" cy="0" r="3.5"/>
  <g id="zoomPlus">
    <use xlink:href="#rim" fill="#404040"><set attributeName="fill" to="#808080" begin="zoomplus.mouseover" end="zoomplus.mouseout"/></use>
    <path d="M-4,0h8M0,-4v8" fill="none" stroke="white" stroke-width="1.5" pointer-events="none"/>
  </g>
  <g id="zoomMin">
    <use xlink:href="#rim" fill="#404040"><set attributeName="fill" to="#808080" begin="zoomminus.mouseover" end="zoomminus.mouseout"/></use>
    <path d="M-4,0h8" fill="none" stroke="white" stroke-width="1.5" pointer-events="none"/>
  </g>
  <g id="arrowUp" transform="translate(30 24)">
    <use xlink:href="#rim"/>
    <path pointer-events="none" fill="none" stroke="white" stroke-width="1.5" d="M0,-3.0v7 M-2.5,-0.5L0,-3.0L2.5,-0.5"/>
  </g>
  <g id="arrowRight" transform="rotate(90) translate(36 -43)">
    <use xlink:href="#rim"/>
    <path pointer-events="none" fill="none" stroke="white" stroke-width="1.5" d="M0,-3.0v7 M-2.5,-0.5L0,-3.0L2.5,-0.5"/>
  </g>
  <g id="arrowDown" transform="rotate(180) translate(-30 -48)">
    <use xlink:href="#rim"/>
    <path pointer-events="none" fill="none" stroke="white" stroke-width="1.5" d="M0,-3.0v7 M-2.5,-0.5L0,-3.0L2.5,-0.5"/>
  </g>
  <g id="arrowLeft" transform="rotate(270) translate(-36 17)">
    <use xlink:href="#rim"/>
    <path pointer-events="none" fill="none" stroke="white" stroke-width="1.5" d="M0,-3.0v7 M-2.5,-0.5L0,-3.0L2.5,-0.5"/>
  </g>
  <g id="resetDef">
    <use xlink:href="#rim2" fill="#404040"><set attributeName="fill" to="#808080" begin="reset.mouseover" end="reset.mouseout"/></use>
  </g>
</defs>
<script type="application/ecmascript">
var viewWidth = 1611;
var viewHeight = 326;
var sectionId = 'dynsection-0';
</script>
<script type="application/ecmascript" xlink:href="../../svg.min.js"/>
<svg id="graph" class="graph">
<g id="viewport">
<title>/Users/fola/Documents/ArkScript/Ark/src/arkreactor/Compiler/AST/Optimizer.cpp</title>
<!-- Node1 -->
<g id="Node000001" class="node">
<title>Node1</title>
<g id="a_Node000001"><a xlink:title=" ">
<polygon fill="#999999" stroke="#666666" points="858.12,-318 714.62,-318 714.62,-276.25 858.12,-276.25 858.12,-318"/>
<text text-anchor="start" x="722.62" y="-304.5" font-family="Helvetica,sans-Serif" font-size="10.00">/Users/fola/Documents</text>
<text text-anchor="start" x="722.62" y="-293.25" font-family="Helvetica,sans-Serif" font-size="10.00">/ArkScript/Ark/src/arkreactor</text>
<text text-anchor="middle" x="786.38" y="-282" font-family="Helvetica,sans-Serif" font-size="10.00">/Compiler/AST/Optimizer.cpp</text>
</a>
</g>
</g>
<!-- Node2 -->
<g id="Node000002" class="node">
<title>Node2</title>
<g id="a_Node000002"><a xlink:href="../../db/d93/Optimizer_8hpp.html" target="_top" xlink:title="Optimizes a given ArkScript AST.">
<polygon fill="white" stroke="#666666" points="663.62,-240.25 505.12,-240.25 505.12,-221 663.62,-221 663.62,-240.25"/>
<text text-anchor="middle" x="584.38" y="-226.75" font-family="Helvetica,sans-Serif" font-size="10.00">Ark/Compiler/AST/Optimizer.hpp</text>
</a>
</g>
</g>
<!-- Node1&#45;&gt;Node2 -->
<g id="edge1_Node000001_Node000002" class="edge">
<title>Node1&#45;&gt;Node2</title>
<g id="a_edge1_Node000001_Node000002"><a xlink:title=" ">
<path fill="none" stroke="#63b8ff" d="M722.74,-275.81C690.17,-265.41 651.57,-253.08 623.43,-244.09"/>
<polygon fill="#63b8ff" stroke="#63b8ff" points="624.84,-240.87 614.25,-241.16 622.71,-247.54 624.84,-240.87"/>
</a>
</g>
</g>
<!-- Node30 -->
<g id="Node000030" class="node">
<title>Node30</title>
<g id="a_Node000030"><a xlink:href="../../d3/d7a/Ark_2Utils_2Utils_8hpp.html" target="_top" xlink:title="Lots of utilities about string, filesystem and more.">
<polygon fill="white" stroke="#666666" points="1301.5,-129.75 1205.25,-129.75 1205.25,-110.5 1301.5,-110.5 1301.5,-129.75"/>
<text text-anchor="middle" x="1253.38" y="-116.25" font-family="Helvetica,sans-Serif" font-size="10.00">Ark/Utils/Utils.hpp</text>
</a>
</g>
</g>
<!-- Node1&#45;&gt;Node30 -->
<g id="edge44_Node000001_Node000030" class="edge">
<title>Node1&#45;&gt;Node30</title>
<g id="a_edge44_Node000001_Node000030"><a xlink:title=" ">
<path fill="none" stroke="#63b8ff" d="M840.4,-275.88C937.29,-239.57 1137.97,-164.37 1218.66,-134.13"/>
<polygon fill="#63b8ff" stroke="#63b8ff" points="1219.68,-137.49 1227.81,-130.7 1217.22,-130.94 1219.68,-137.49"/>
</a>
</g>
</g>
<!-- Node3 -->
<g id="Node000003" class="node">
<title>Node3</title>
<g id="a_Node000003"><a xlink:title=" ">
<polygon fill="#e0e0e0" stroke="#999999" points="431.38,-185 373.38,-185 373.38,-165.75 431.38,-165.75 431.38,-185"/>
<text text-anchor="middle" x="402.38" y="-171.5" font-family="Helvetica,sans-Serif" font-size="10.00">functional</text>
</a>
</g>
</g>
<!-- Node2&#45;&gt;Node3 -->
<g id="edge2_Node000002_Node000003" class="edge">
<title>Node2&#45;&gt;Node3</title>
<g id="a_edge2_Node000002_Node000003"><a xlink:title=" ">
<path fill="none" stroke="#63b8ff" d="M553.5,-220.59C522.89,-211.63 475.84,-197.87 442.37,-188.08"/>
<polygon fill="#63b8ff" stroke="#63b8ff" points="443.62,-184.8 433.04,-185.35 441.66,-191.52 443.62,-184.8"/>
</a>
</g>
</g>
<!-- Node4 -->
<g id="Node000004" class="node">
<title>Node4</title>
<g id="a_Node000004"><a xlink:title=" ">
<polygon fill="#e0e0e0" stroke="#999999" points="581.75,-74.5 499,-74.5 499,-55.25 581.75,-55.25 581.75,-74.5"/>
<text text-anchor="middle" x="540.38" y="-61" font-family="Helvetica,sans-Serif" font-size="10.00">unordered_map</text>
</a>
</g>
</g>
<!-- Node2&#45;&gt;Node4 -->
<g id="edge3_Node000002_Node000004" class="edge">
<title>Node2&#45;&gt;Node4</title>
<g id="a_edge3_Node000002_Node000004"><a xlink:title=" ">
<path fill="none" stroke="#63b8ff" d="M536.63,-220.57C516.64,-214.16 495.3,-203.31 483.38,-185 465.3,-157.26 468.87,-140.27 483.38,-110.5 489.36,-98.22 500.54,-88.32 511.43,-80.99"/>
<polygon fill="#63b8ff" stroke="#63b8ff" points="513.21,-84.01 519.89,-75.79 509.54,-78.04 513.21,-84.01"/>
</a>
</g>
</g>
<!-- Node5 -->
<g id="Node000005" class="node">
<title>Node5</title>
<g id="a_Node000005"><a xlink:title=" ">
<polygon fill="#e0e0e0" stroke="#999999" points="971.38,-74.5 931.38,-74.5 931.38,-55.25 971.38,-55.25 971.38,-74.5"/>
<text text-anchor="middle" x="951.38" y="-61" font-family="Helvetica,sans-Serif" font-size="10.00">string</text>
</a>
</g>
</g>
<!-- Node2&#45;&gt;Node5 -->
<g id="edge4_Node000002_Node000005" class="edge">
<title>Node2&#45;&gt;Node5</title>
<g id="a_edge4_Node000002_Node000005"><a xlink:title=" ">
<path fill="none" stroke="#63b8ff" d="M663.89,-227.6C747.52,-223.95 872.1,-213.72 909.38,-185 940.12,-161.32 948.43,-113.45 950.63,-86.15"/>
<polygon fill="#63b8ff" stroke="#63b8ff" points="954.11,-86.6 951.19,-76.42 947.12,-86.2 954.11,-86.6"/>
</a>
</g>
</g>
<!-- Node6 -->
<g id="Node000006" class="node">
<title>Node6</title>
<g id="a_Node000006"><a xlink:href="../../d5/d40/Platform_8hpp.html" target="_top" xlink:title="ArkScript configuration macros.">
<polygon fill="white" stroke="#666666" points="712.75,-74.5 600,-74.5 600,-55.25 712.75,-55.25 712.75,-74.5"/>
<text text-anchor="middle" x="656.38" y="-61" font-family="Helvetica,sans-Serif" font-size="10.00">Ark/Utils/Platform.hpp</text>
</a>
</g>
</g>
<!-- Node2&#45;&gt;Node6 -->
<g id="edge5_Node000002_Node000006" class="edge">
<title>Node2&#45;&gt;Node6</title>
<g id="a_edge5_Node000002_Node000006"><a xlink:title=" ">
<path fill="none" stroke="#63b8ff" d="M559.57,-220.54C544.12,-213.44 525.5,-201.9 516.38,-185 512.31,-177.47 514.27,-174.04 516.38,-165.75 523.25,-138.67 525.54,-129.12 546.38,-110.5 563.03,-95.61 585.31,-85.33 605.46,-78.42"/>
<polygon fill="#63b8ff" stroke="#63b8ff" points="606.49,-81.77 614.95,-75.39 604.36,-75.1 606.49,-81.77"/>
</a>
</g>
</g>
<!-- Node7 -->
<g id="Node000007" class="node">
<title>Node7</title>
<g id="a_Node000007"><a xlink:href="../../df/d5f/Pass_8hpp.html" target="_top" xlink:title="Interface for a compiler pass.">
<polygon fill="white" stroke="#666666" points="643,-185 525.75,-185 525.75,-165.75 643,-165.75 643,-185"/>
<text text-anchor="middle" x="584.38" y="-171.5" font-family="Helvetica,sans-Serif" font-size="10.00">Ark/Compiler/Pass.hpp</text>
</a>
</g>
</g>
<!-- Node2&#45;&gt;Node7 -->
<g id="edge6_Node000002_Node000007" class="edge">
<title>Node2&#45;&gt;Node7</title>
<g id="a_edge6_Node000002_Node000007"><a xlink:title=" ">
<path fill="none" stroke="#63b8ff" d="M584.38,-220.83C584.38,-214.32 584.38,-205.17 584.38,-196.87"/>
<polygon fill="#63b8ff" stroke="#63b8ff" points="587.88,-196.87 584.38,-186.87 580.88,-196.87 587.88,-196.87"/>
</a>
</g>
</g>
<!-- Node17 -->
<g id="Node000017" class="node">
<title>Node17</title>
<g id="a_Node000017"><a xlink:href="../../d7/dc6/Node_8hpp.html" target="_top" xlink:title="AST node used by the parser, optimizer and compiler.">
<polygon fill="white" stroke="#666666" points="900.62,-185 760.12,-185 760.12,-165.75 900.62,-165.75 900.62,-185"/>
<text text-anchor="middle" x="830.38" y="-171.5" font-family="Helvetica,sans-Serif" font-size="10.00">Ark/Compiler/AST/Node.hpp</text>
</a>
</g>
</g>
<!-- Node2&#45;&gt;Node17 -->
<g id="edge20_Node000002_Node000017" class="edge">
<title>Node2&#45;&gt;Node17</title>
<g id="a_edge20_Node000002_Node000017"><a xlink:title=" ">
<path fill="none" stroke="#63b8ff" d="M626.38,-220.53C668.13,-211.49 732.29,-197.61 777.48,-187.82"/>
<polygon fill="#63b8ff" stroke="#63b8ff" points="778.03,-191.29 787.06,-185.75 776.55,-184.45 778.03,-191.29"/>
</a>
</g>
</g>
<!-- Node7&#45;&gt;Node6 -->
<g id="edge7_Node000007_Node000006" class="edge">
<title>Node7&#45;&gt;Node6</title>
<g id="a_edge7_Node000007_Node000006"><a xlink:title=" ">
<path fill="none" stroke="#63b8ff" d="M574.39,-165.28C561.6,-152.5 542.44,-128.75 554.38,-110.5 564.28,-95.36 580.57,-85.33 597.25,-78.69"/>
<polygon fill="#63b8ff" stroke="#63b8ff" points="597.98,-82.15 606.22,-75.49 595.62,-75.56 597.98,-82.15"/>
</a>
</g>
</g>
<!-- Node8 -->
<g id="Node000008" class="node">
<title>Node8</title>
<g id="a_Node000008"><a xlink:href="../../d9/d11/Logger_8hpp.html" target="_top" xlink:title="Internal logger.">
<polygon fill="white" stroke="#666666" points="431.62,-129.75 327.12,-129.75 327.12,-110.5 431.62,-110.5 431.62,-129.75"/>
<text text-anchor="middle" x="379.38" y="-116.25" font-family="Helvetica,sans-Serif" font-size="10.00">Ark/Utils/Logger.hpp</text>
</a>
</g>
</g>
<!-- Node7&#45;&gt;Node8 -->
<g id="edge8_Node000007_Node000008" class="edge">
<title>Node7&#45;&gt;Node8</title>
<g id="a_edge8_Node000007_Node000008"><a xlink:title=" ">
<path fill="none" stroke="#63b8ff" d="M549.6,-165.34C515.29,-156.43 462.65,-142.76 425,-132.98"/>
<polygon fill="#63b8ff" stroke="#63b8ff" points="426.34,-129.71 415.79,-130.58 424.58,-136.48 426.34,-129.71"/>
</a>
</g>
</g>
<!-- Node16 -->
<g id="Node000016" class="node">
<title>Node16</title>
<g id="a_Node000016"><a xlink:title=" ">
<polygon fill="#e0e0e0" stroke="#999999" points="615,-129.75 563.75,-129.75 563.75,-110.5 615,-110.5 615,-129.75"/>
<text text-anchor="middle" x="589.38" y="-116.25" font-family="Helvetica,sans-Serif" font-size="10.00">ostream</text>
</a>
</g>
</g>
<!-- Node7&#45;&gt;Node16 -->
<g id="edge19_Node000007_Node000016" class="edge">
<title>Node7&#45;&gt;Node16</title>
<g id="a_edge19_Node000007_Node000016"><a xlink:title=" ">
<path fill="none" stroke="#63b8ff" d="M585.2,-165.58C585.82,-158.99 586.69,-149.71 587.48,-141.32"/>
<polygon fill="#63b8ff" stroke="#63b8ff" points="590.94,-141.9 588.39,-131.62 583.97,-141.25 590.94,-141.9"/>
</a>
</g>
</g>
<!-- Node8&#45;&gt;Node4 -->
<g id="edge17_Node000008_Node000004" class="edge">
<title>Node8&#45;&gt;Node4</title>
<g id="a_edge17_Node000008_Node000004"><a xlink:title=" ">
<path fill="none" stroke="#63b8ff" d="M406.69,-110.09C432.94,-101.41 472.85,-88.21 502.23,-78.49"/>
<polygon fill="#63b8ff" stroke="#63b8ff" points="503.1,-81.89 511.49,-75.43 500.9,-75.24 503.1,-81.89"/>
</a>
</g>
</g>
<!-- Node8&#45;&gt;Node5 -->
<g id="edge13_Node000008_Node000005" class="edge">
<title>Node8&#45;&gt;Node5</title>
<g id="a_edge13_Node000008_Node000005"><a xlink:title=" ">
<path fill="none" stroke="#63b8ff" d="M431.91,-114.23C548.46,-103.38 825.78,-77.57 919.67,-68.83"/>
<polygon fill="#63b8ff" stroke="#63b8ff" points="919.79,-72.33 929.42,-67.92 919.14,-65.36 919.79,-72.33"/>
</a>
</g>
</g>
<!-- Node8&#45;&gt;Node6 -->
<g id="edge18_Node000008_Node000006" class="edge">
<title>Node8&#45;&gt;Node6</title>
<g id="a_edge18_Node000008_Node000006"><a xlink:title=" ">
<path fill="none" stroke="#63b8ff" d="M426.68,-110.03C474.08,-100.92 547.15,-86.87 598.11,-77.08"/>
<polygon fill="#63b8ff" stroke="#63b8ff" points="598.62,-80.54 607.78,-75.22 597.3,-73.67 598.62,-80.54"/>
</a>
</g>
</g>
<!-- Node9 -->
<g id="Node000009" class="node">
<title>Node9</title>
<g id="a_Node000009"><a xlink:title=" ">
<polygon fill="#e0e0e0" stroke="#999999" points="314.12,-74.5 260.62,-74.5 260.62,-55.25 314.12,-55.25 314.12,-74.5"/>
<text text-anchor="middle" x="287.38" y="-61" font-family="Helvetica,sans-Serif" font-size="10.00">iostream</text>
</a>
</g>
</g>
<!-- Node8&#45;&gt;Node9 -->
<g id="edge9_Node000008_Node000009" class="edge">
<title>Node8&#45;&gt;Node9</title>
<g id="a_edge9_Node000008_Node000009"><a xlink:title=" ">
<path fill="none" stroke="#63b8ff" d="M363.77,-110.09C349.76,-101.98 328.94,-89.93 312.57,-80.46"/>
<polygon fill="#63b8ff" stroke="#63b8ff" points="314.78,-77.69 304.37,-75.71 311.27,-83.75 314.78,-77.69"/>
</a>
</g>
</g>
<!-- Node10 -->
<g id="Node000010" class="node">
<title>Node10</title>
<g id="a_Node000010"><a xlink:title=" ">
<polygon fill="#e0e0e0" stroke="#999999" points="401,-74.5 331.75,-74.5 331.75,-55.25 401,-55.25 401,-74.5"/>
<text text-anchor="middle" x="366.38" y="-61" font-family="Helvetica,sans-Serif" font-size="10.00">fmt/format.h</text>
</a>
</g>
</g>
<!-- Node8&#45;&gt;Node10 -->
<g id="edge10_Node000008_Node000010" class="edge">
<title>Node8&#45;&gt;Node10</title>
<g id="a_edge10_Node000008_Node000010"><a xlink:title=" ">
<path fill="none" stroke="#63b8ff" d="M377.23,-110.33C375.6,-103.67 373.3,-94.24 371.23,-85.78"/>
<polygon fill="#63b8ff" stroke="#63b8ff" points="374.7,-85.21 368.93,-76.33 367.9,-86.87 374.7,-85.21"/>
</a>
</g>
</g>
<!-- Node11 -->
<g id="Node000011" class="node">
<title>Node11</title>
<g id="a_Node000011"><a xlink:title=" ">
<polygon fill="#e0e0e0" stroke="#999999" points="481.25,-74.5 419.5,-74.5 419.5,-55.25 481.25,-55.25 481.25,-74.5"/>
<text text-anchor="middle" x="450.38" y="-61" font-family="Helvetica,sans-Serif" font-size="10.00">fmt/color.h</text>
</a>
</g>
</g>
<!-- Node8&#45;&gt;Node11 -->
<g id="edge11_Node000008_Node000011" class="edge">
<title>Node8&#45;&gt;Node11</title>
<g id="a_edge11_Node000008_Node000011"><a xlink:title=" ">
<path fill="none" stroke="#63b8ff" d="M391.42,-110.09C401.78,-102.32 416.98,-90.92 429.34,-81.65"/>
<polygon fill="#63b8ff" stroke="#63b8ff" points="431.4,-84.48 437.3,-75.68 427.2,-78.88 431.4,-84.48"/>
</a>
</g>
</g>
<!-- Node12 -->
<g id="Node000012" class="node">
<title>Node12</title>
<g id="a_Node000012"><a xlink:title=" ">
<polygon fill="#e0e0e0" stroke="#999999" points="76.75,-74.5 0,-74.5 0,-55.25 76.75,-55.25 76.75,-74.5"/>
<text text-anchor="middle" x="38.38" y="-61" font-family="Helvetica,sans-Serif" font-size="10.00">fmt/ostream.h</text>
</a>
</g>
</g>
<!-- Node8&#45;&gt;Node12 -->
<g id="edge12_Node000008_Node000012" class="edge">
<title>Node8&#45;&gt;Node12</title>
<g id="a_edge12_Node000008_Node000012"><a xlink:title=" ">
<path fill="none" stroke="#63b8ff" d="M326.72,-111.63C270.19,-103.48 177.44,-89.78 88.23,-74.94"/>
<polygon fill="#63b8ff" stroke="#63b8ff" points="89.02,-71.52 78.58,-73.33 87.87,-78.43 89.02,-71.52"/>
</a>
</g>
</g>
<!-- Node13 -->
<g id="Node000013" class="node">
<title>Node13</title>
<g id="a_Node000013"><a xlink:title=" ">
<polygon fill="#e0e0e0" stroke="#999999" points="140,-74.5 94.75,-74.5 94.75,-55.25 140,-55.25 140,-74.5"/>
<text text-anchor="middle" x="117.38" y="-61" font-family="Helvetica,sans-Serif" font-size="10.00">chrono</text>
</a>
</g>
</g>
<!-- Node8&#45;&gt;Node13 -->
<g id="edge14_Node000008_Node000013" class="edge">
<title>Node8&#45;&gt;Node13</title>
<g id="a_edge14_Node000008_Node000013"><a xlink:title=" ">
<path fill="none" stroke="#63b8ff" d="M327.08,-110.08C282.78,-102.17 217.36,-89.91 151.41,-74.84"/>
<polygon fill="#63b8ff" stroke="#63b8ff" points="152.4,-71.47 141.87,-72.63 150.83,-78.29 152.4,-71.47"/>
</a>
</g>
</g>
<!-- Node14 -->
<g id="Node000014" class="node">
<title>Node14</title>
<g id="a_Node000014"><a xlink:title=" ">
<polygon fill="#e0e0e0" stroke="#999999" points="242.5,-74.5 158.25,-74.5 158.25,-55.25 242.5,-55.25 242.5,-74.5"/>
<text text-anchor="middle" x="200.38" y="-61" font-family="Helvetica,sans-Serif" font-size="10.00">source_location</text>
</a>
</g>
</g>
<!-- Node8&#45;&gt;Node14 -->
<g id="edge15_Node000008_Node000014" class="edge">
<title>Node8&#45;&gt;Node14</title>
<g id="a_edge15_Node000008_Node000014"><a xlink:title=" ">
<path fill="none" stroke="#63b8ff" d="M349.01,-110.09C319.57,-101.33 274.67,-87.98 241.92,-78.23"/>
<polygon fill="#63b8ff" stroke="#63b8ff" points="242.92,-74.88 232.34,-75.38 240.93,-81.59 242.92,-74.88"/>
</a>
</g>
</g>
<!-- Node15 -->
<g id="Node000015" class="node">
<title>Node15</title>
<g id="a_Node000015"><a xlink:title=" ">
<polygon fill="#e0e0e0" stroke="#999999" points="1168.88,-74.5 1125.88,-74.5 1125.88,-55.25 1168.88,-55.25 1168.88,-74.5"/>
<text text-anchor="middle" x="1147.38" y="-61" font-family="Helvetica,sans-Serif" font-size="10.00">vector</text>
</a>
</g>
</g>
<!-- Node8&#45;&gt;Node15 -->
<g id="edge16_Node000008_Node000015" class="edge">
<title>Node8&#45;&gt;Node15</title>
<g id="a_edge16_Node000008_Node000015"><a xlink:title=" ">
<path fill="none" stroke="#63b8ff" d="M431.94,-116.22C586.66,-107.62 1033.75,-82.4 1099.38,-74.5 1104.2,-73.92 1109.27,-73.17 1114.24,-72.35"/>
<polygon fill="#63b8ff" stroke="#63b8ff" points="1114.74,-75.81 1123.98,-70.63 1113.52,-68.92 1114.74,-75.81"/>
</a>
</g>
</g>
<!-- Node17&#45;&gt;Node5 -->
<g id="edge23_Node000017_Node000005" class="edge">
<title>Node17&#45;&gt;Node5</title>
<g id="a_edge23_Node000017_Node000005"><a xlink:title=" ">
<path fill="none" stroke="#63b8ff" d="M833.81,-165.52C839.36,-152.17 851.41,-126.74 868.38,-110.5 883.3,-96.21 903.71,-85.15 920.55,-77.62"/>
<polygon fill="#63b8ff" stroke="#63b8ff" points="921.78,-80.9 929.62,-73.77 919.05,-74.46 921.78,-80.9"/>
</a>
</g>
</g>
<!-- Node17&#45;&gt;Node6 -->
<g id="edge40_Node000017_Node000006" class="edge">
<title>Node17&#45;&gt;Node6</title>
<g id="a_edge40_Node000017_Node000006"><a xlink:title=" ">
<path fill="none" stroke="#63b8ff" d="M767.45,-165.28C725.69,-157.88 676.12,-145.99 662.38,-129.75 652.35,-117.9 651.46,-100.03 652.73,-86.2"/>
<polygon fill="#63b8ff" stroke="#63b8ff" points="656.18,-86.81 654.1,-76.42 649.25,-85.84 656.18,-86.81"/>
</a>
</g>
</g>
<!-- Node17&#45;&gt;Node15 -->
<g id="edge24_Node000017_Node000015" class="edge">
<title>Node17&#45;&gt;Node15</title>
<g id="a_edge24_Node000017_Node000015"><a xlink:title=" ">
<path fill="none" stroke="#63b8ff" d="M900.77,-175.16C986.98,-174.43 1125.63,-167.25 1158.38,-129.75 1169,-117.58 1164.25,-98.96 1158.02,-84.96"/>
<polygon fill="#63b8ff" stroke="#63b8ff" points="1161.28,-83.65 1153.66,-76.29 1155.02,-86.79 1161.28,-83.65"/>
</a>
</g>
</g>
<!-- Node17&#45;&gt;Node16 -->
<g id="edge22_Node000017_Node000016" class="edge">
<title>Node17&#45;&gt;Node16</title>
<g id="a_edge22_Node000017_Node000016"><a xlink:title=" ">
<path fill="none" stroke="#63b8ff" d="M789.22,-165.28C743.56,-155.19 670.53,-139.06 626.54,-129.34"/>
<polygon fill="#63b8ff" stroke="#63b8ff" points="627.48,-125.96 616.96,-127.22 625.97,-132.8 627.48,-125.96"/>
</a>
</g>
</g>
<!-- Node18 -->
<g id="Node000018" class="node">
<title>Node18</title>
<g id="a_Node000018"><a xlink:title=" ">
<polygon fill="#e0e0e0" stroke="#999999" points="923,-129.75 877.75,-129.75 877.75,-110.5 923,-110.5 923,-129.75"/>
<text text-anchor="middle" x="900.38" y="-116.25" font-family="Helvetica,sans-Serif" font-size="10.00">variant</text>
</a>
</g>
</g>
<!-- Node17&#45;&gt;Node18 -->
<g id="edge21_Node000017_Node000018" class="edge">
<title>Node17&#45;&gt;Node18</title>
<g id="a_edge21_Node000017_Node000018"><a xlink:title=" ">
<path fill="none" stroke="#63b8ff" d="M842.25,-165.34C852.47,-157.57 867.45,-146.17 879.64,-136.9"/>
<polygon fill="#63b8ff" stroke="#63b8ff" points="881.63,-139.78 887.47,-130.94 877.39,-134.21 881.63,-139.78"/>
</a>
</g>
</g>
<!-- Node19 -->
<g id="Node000019" class="node">
<title>Node19</title>
<g id="a_Node000019"><a xlink:title=" ">
<polygon fill="#e0e0e0" stroke="#999999" points="808.25,-74.5 758.5,-74.5 758.5,-55.25 808.25,-55.25 808.25,-74.5"/>
<text text-anchor="middle" x="783.38" y="-61" font-family="Helvetica,sans-Serif" font-size="10.00">optional</text>
</a>
</g>
</g>
<!-- Node17&#45;&gt;Node19 -->
<g id="edge25_Node000017_Node000019" class="edge">
<title>Node17&#45;&gt;Node19</title>
<g id="a_edge25_Node000017_Node000019"><a xlink:title=" ">
<path fill="none" stroke="#63b8ff" d="M826.53,-165.5C818.99,-148.09 802.11,-109.12 791.84,-85.41"/>
<polygon fill="#63b8ff" stroke="#63b8ff" points="795.06,-84.05 787.88,-76.27 788.64,-86.83 795.06,-84.05"/>
</a>
</g>
</g>
<!-- Node20 -->
<g id="Node000020" class="node">
<title>Node20</title>
<g id="a_Node000020"><a xlink:href="../../da/d33/Namespace_8hpp.html" target="_top" xlink:title=" ">
<polygon fill="white" stroke="#666666" points="1149.25,-129.75 979.5,-129.75 979.5,-110.5 1149.25,-110.5 1149.25,-129.75"/>
<text text-anchor="middle" x="1064.38" y="-116.25" font-family="Helvetica,sans-Serif" font-size="10.00">Ark/Compiler/AST/Namespace.hpp</text>
</a>
</g>
</g>
<!-- Node17&#45;&gt;Node20 -->
<g id="edge26_Node000017_Node000020" class="edge">
<title>Node17&#45;&gt;Node20</title>
<g id="a_edge26_Node000017_Node000020"><a xlink:title=" ">
<path fill="none" stroke="#63b8ff" d="M870.34,-165.28C909.88,-156.28 970.55,-142.48 1013.51,-132.7"/>
<polygon fill="#63b8ff" stroke="#63b8ff" points="1014.13,-136.15 1023.1,-130.52 1012.58,-129.32 1014.13,-136.15"/>
</a>
</g>
</g>
<!-- Node22 -->
<g id="Node000022" class="node">
<title>Node22</title>
<g id="a_Node000022"><a xlink:href="../../d8/ddd/Common_8hpp.html" target="_top" xlink:title="Common code for the compiler.">
<polygon fill="white" stroke="#666666" points="1453.62,-129.75 1319.12,-129.75 1319.12,-110.5 1453.62,-110.5 1453.62,-129.75"/>
<text text-anchor="middle" x="1386.38" y="-116.25" font-family="Helvetica,sans-Serif" font-size="10.00">Ark/Compiler/Common.hpp</text>
</a>
</g>
</g>
<!-- Node17&#45;&gt;Node22 -->
<g id="edge30_Node000017_Node000022" class="edge">
<title>Node17&#45;&gt;Node22</title>
<g id="a_edge30_Node000017_Node000022"><a xlink:title=" ">
<path fill="none" stroke="#63b8ff" d="M900.77,-168.28C992.08,-160.28 1156.61,-145.51 1307.53,-130.03"/>
<polygon fill="#63b8ff" stroke="#63b8ff" points="1307.74,-133.52 1317.33,-129.02 1307.03,-126.56 1307.74,-133.52"/>
</a>
</g>
</g>
<!-- Node29 -->
<g id="Node000029" class="node">
<title>Node29</title>
<g id="a_Node000029"><a xlink:href="../../dc/d58/Position_8hpp.html" target="_top" xlink:title="Defines position utilities (for text in a file) for the parser, formatter, diagnostics.">
<polygon fill="white" stroke="#666666" points="783,-129.75 671.75,-129.75 671.75,-110.5 783,-110.5 783,-129.75"/>
<text text-anchor="middle" x="727.38" y="-116.25" font-family="Helvetica,sans-Serif" font-size="10.00">Ark/Utils/Position.hpp</text>
</a>
</g>
</g>
<!-- Node17&#45;&gt;Node29 -->
<g id="edge41_Node000017_Node000029" class="edge">
<title>Node17&#45;&gt;Node29</title>
<g id="a_edge41_Node000017_Node000029"><a xlink:title=" ">
<path fill="none" stroke="#63b8ff" d="M812.9,-165.34C797.07,-157.16 773.47,-144.96 755.07,-135.44"/>
<polygon fill="#63b8ff" stroke="#63b8ff" points="756.77,-132.38 746.28,-130.9 753.55,-138.6 756.77,-132.38"/>
</a>
</g>
</g>
<!-- Node20&#45;&gt;Node5 -->
<g id="edge27_Node000020_Node000005" class="edge">
<title>Node20&#45;&gt;Node5</title>
<g id="a_edge27_Node000020_Node000005"><a xlink:title=" ">
<path fill="none" stroke="#63b8ff" d="M1045.21,-110.09C1027.59,-101.79 1001.22,-89.36 980.91,-79.79"/>
<polygon fill="#63b8ff" stroke="#63b8ff" points="982.55,-76.69 972.01,-75.6 979.56,-83.03 982.55,-76.69"/>
</a>
</g>
</g>
<!-- Node20&#45;&gt;Node15 -->
<g id="edge28_Node000020_Node000015" class="edge">
<title>Node20&#45;&gt;Node15</title>
<g id="a_edge28_Node000020_Node000015"><a xlink:title=" ">
<path fill="none" stroke="#63b8ff" d="M1078.45,-110.09C1090.86,-102.14 1109.17,-90.39 1123.8,-81"/>
<polygon fill="#63b8ff" stroke="#63b8ff" points="1125.43,-84.12 1131.95,-75.77 1121.65,-78.22 1125.43,-84.12"/>
</a>
</g>
</g>
<!-- Node21 -->
<g id="Node000021" class="node">
<title>Node21</title>
<g id="a_Node000021"><a xlink:title=" ">
<polygon fill="#e0e0e0" stroke="#999999" points="1090,-74.5 1038.75,-74.5 1038.75,-55.25 1090,-55.25 1090,-74.5"/>
<text text-anchor="middle" x="1064.38" y="-61" font-family="Helvetica,sans-Serif" font-size="10.00">memory</text>
</a>
</g>
</g>
<!-- Node20&#45;&gt;Node21 -->
<g id="edge29_Node000020_Node000021" class="edge">
<title>Node20&#45;&gt;Node21</title>
<g id="a_edge29_Node000020_Node000021"><a xlink:title=" ">
<path fill="none" stroke="#63b8ff" d="M1064.38,-110.33C1064.38,-103.82 1064.38,-94.67 1064.38,-86.37"/>
<polygon fill="#63b8ff" stroke="#63b8ff" points="1067.88,-86.37 1064.38,-76.37 1060.88,-86.37 1067.88,-86.37"/>
</a>
</g>
</g>
<!-- Node22&#45;&gt;Node15 -->
<g id="edge33_Node000022_Node000015" class="edge">
<title>Node22&#45;&gt;Node15</title>
<g id="a_edge33_Node000022_Node000015"><a xlink:title=" ">
<path fill="none" stroke="#63b8ff" d="M1339.26,-110.04C1299.25,-102.11 1240.07,-89.86 1180.42,-75.14"/>
<polygon fill="#63b8ff" stroke="#63b8ff" points="1181.3,-71.75 1170.75,-72.73 1179.61,-78.55 1181.3,-71.75"/>
</a>
</g>
</g>
<!-- Node23 -->
<g id="Node000023" class="node">
<title>Node23</title>
<g id="a_Node000023"><a xlink:title=" ">
<polygon fill="#e0e0e0" stroke="#999999" points="1358.25,-74.5 1320.5,-74.5 1320.5,-55.25 1358.25,-55.25 1358.25,-74.5"/>
<text text-anchor="middle" x="1339.38" y="-61" font-family="Helvetica,sans-Serif" font-size="10.00">array</text>
</a>
</g>
</g>
<!-- Node22&#45;&gt;Node23 -->
<g id="edge31_Node000022_Node000023" class="edge">
<title>Node22&#45;&gt;Node23</title>
<g id="a_edge31_Node000022_Node000023"><a xlink:title=" ">
<path fill="none" stroke="#63b8ff" d="M1378.61,-110.33C1372.19,-103.05 1362.86,-92.48 1354.91,-83.48"/>
<polygon fill="#63b8ff" stroke="#63b8ff" points="1357.55,-81.18 1348.31,-75.99 1352.3,-85.81 1357.55,-81.18"/>
</a>
</g>
</g>
<!-- Node24 -->
<g id="Node000024" class="node">
<title>Node24</title>
<g id="a_Node000024"><a xlink:title=" ">
<polygon fill="#e0e0e0" stroke="#999999" points="1404.12,-19.25 1338.62,-19.25 1338.62,0 1404.12,0 1404.12,-19.25"/>
<text text-anchor="middle" x="1371.38" y="-5.75" font-family="Helvetica,sans-Serif" font-size="10.00">string_view</text>
</a>
</g>
</g>
<!-- Node22&#45;&gt;Node24 -->
<g id="edge32_Node000022_Node000024" class="edge">
<title>Node22&#45;&gt;Node24</title>
<g id="a_edge32_Node000022_Node000024"><a xlink:title=" ">
<path fill="none" stroke="#63b8ff" d="M1385.15,-110.25C1382.76,-93 1377.45,-54.58 1374.17,-30.81"/>
<polygon fill="#63b8ff" stroke="#63b8ff" points="1377.66,-30.55 1372.83,-21.13 1370.73,-31.51 1377.66,-30.55"/>
</a>
</g>
</g>
<!-- Node25 -->
<g id="Node000025" class="node">
<title>Node25</title>
<g id="a_Node000025"><a xlink:title=" ">
<polygon fill="#e0e0e0" stroke="#999999" points="1478.25,-19.25 1422.5,-19.25 1422.5,0 1478.25,0 1478.25,-19.25"/>
<text text-anchor="middle" x="1450.38" y="-5.75" font-family="Helvetica,sans-Serif" font-size="10.00">cinttypes</text>
</a>
</g>
</g>
<!-- Node22&#45;&gt;Node25 -->
<g id="edge34_Node000022_Node000025" class="edge">
<title>Node22&#45;&gt;Node25</title>
<g id="a_edge34_Node000022_Node000025"><a xlink:title=" ">
<path fill="none" stroke="#63b8ff" d="M1391.61,-110.25C1401.97,-92.68 1425.29,-53.16 1439.23,-29.52"/>
<polygon fill="#63b8ff" stroke="#63b8ff" points="1442.23,-31.32 1444.3,-20.93 1436.2,-27.77 1442.23,-31.32"/>
</a>
</g>
</g>
<!-- Node26 -->
<g id="Node000026" class="node">
<title>Node26</title>
<g id="a_Node000026"><a xlink:href="../../d6/de9/Constants_8hpp.html" target="_top" xlink:title="Constants used by ArkScript.">
<polygon fill="white" stroke="#666666" points="1550.25,-74.5 1452.5,-74.5 1452.5,-55.25 1550.25,-55.25 1550.25,-74.5"/>
<text text-anchor="middle" x="1501.38" y="-61" font-family="Helvetica,sans-Serif" font-size="10.00">Ark/Constants.hpp</text>
</a>
</g>
</g>
<!-- Node22&#45;&gt;Node26 -->
<g id="edge35_Node000022_Node000026" class="edge">
<title>Node22&#45;&gt;Node26</title>
<g id="a_edge35_Node000022_Node000026"><a xlink:title=" ">
<path fill="none" stroke="#63b8ff" d="M1405.88,-110.09C1423.89,-101.75 1450.9,-89.25 1471.6,-79.66"/>
<polygon fill="#63b8ff" stroke="#63b8ff" points="1472.79,-82.97 1480.4,-75.59 1469.85,-76.61 1472.79,-82.97"/>
</a>
</g>
</g>
<!-- Node26&#45;&gt;Node24 -->
<g id="edge36_Node000026_Node000024" class="edge">
<title>Node26&#45;&gt;Node24</title>
<g id="a_edge36_Node000026_Node000024"><a xlink:title=" ">
<path fill="none" stroke="#63b8ff" d="M1479.32,-54.84C1458.69,-46.39 1427.59,-33.65 1404.07,-24.02"/>
<polygon fill="#63b8ff" stroke="#63b8ff" points="1405.52,-20.83 1394.94,-20.28 1402.86,-27.31 1405.52,-20.83"/>
</a>
</g>
</g>
<!-- Node26&#45;&gt;Node25 -->
<g id="edge38_Node000026_Node000025" class="edge">
<title>Node26&#45;&gt;Node25</title>
<g id="a_edge38_Node000026_Node000025"><a xlink:title=" ">
<path fill="none" stroke="#63b8ff" d="M1492.95,-55.08C1485.84,-47.65 1475.43,-36.79 1466.69,-27.66"/>
<polygon fill="#63b8ff" stroke="#63b8ff" points="1469.47,-25.5 1460.03,-20.7 1464.42,-30.35 1469.47,-25.5"/>
</a>
</g>
</g>
<!-- Node27 -->
<g id="Node000027" class="node">
<title>Node27</title>
<g id="a_Node000027"><a xlink:title=" ">
<polygon fill="#e0e0e0" stroke="#999999" points="1536,-19.25 1496.75,-19.25 1496.75,0 1536,0 1536,-19.25"/>
<text text-anchor="middle" x="1516.38" y="-5.75" font-family="Helvetica,sans-Serif" font-size="10.00">limits</text>
</a>
</g>
</g>
<!-- Node26&#45;&gt;Node27 -->
<g id="edge37_Node000026_Node000027" class="edge">
<title>Node26&#45;&gt;Node27</title>
<g id="a_edge37_Node000026_Node000027"><a xlink:title=" ">
<path fill="none" stroke="#63b8ff" d="M1503.85,-55.08C1505.73,-48.42 1508.38,-38.99 1510.77,-30.53"/>
<polygon fill="#63b8ff" stroke="#63b8ff" points="1514.09,-31.64 1513.43,-21.07 1507.35,-29.74 1514.09,-31.64"/>
</a>
</g>
</g>
<!-- Node28 -->
<g id="Node000028" class="node">
<title>Node28</title>
<g id="a_Node000028"><a xlink:title=" ">
<polygon fill="#e0e0e0" stroke="#999999" points="1602.5,-19.25 1554.25,-19.25 1554.25,0 1602.5,0 1602.5,-19.25"/>
<text text-anchor="middle" x="1578.38" y="-5.75" font-family="Helvetica,sans-Serif" font-size="10.00">cstddef</text>
</a>
</g>
</g>
<!-- Node26&#45;&gt;Node28 -->
<g id="edge39_Node000026_Node000028" class="edge">
<title>Node26&#45;&gt;Node28</title>
<g id="a_edge39_Node000026_Node000028"><a xlink:title=" ">
<path fill="none" stroke="#63b8ff" d="M1514.44,-54.84C1525.83,-46.96 1542.6,-35.36 1556.11,-26.02"/>
<polygon fill="#63b8ff" stroke="#63b8ff" points="1557.77,-29.13 1564,-20.56 1553.79,-23.37 1557.77,-29.13"/>
</a>
</g>
</g>
<!-- Node29&#45;&gt;Node6 -->
<g id="edge43_Node000029_Node000006" class="edge">
<title>Node29&#45;&gt;Node6</title>
<g id="a_edge43_Node000029_Node000006"><a xlink:title=" ">
<path fill="none" stroke="#63b8ff" d="M715.33,-110.09C704.97,-102.32 689.77,-90.92 677.41,-81.65"/>
<polygon fill="#63b8ff" stroke="#63b8ff" points="679.55,-78.88 669.45,-75.68 675.35,-84.48 679.55,-78.88"/>
</a>
</g>
</g>
<!-- Node29&#45;&gt;Node19 -->
<g id="edge42_Node000029_Node000019" class="edge">
<title>Node29&#45;&gt;Node19</title>
<g id="a_edge42_Node000029_Node000019"><a xlink:title=" ">
<path fill="none" stroke="#63b8ff" d="M736.87,-110.09C744.81,-102.55 756.32,-91.6 765.91,-82.48"/>
<polygon fill="#63b8ff" stroke="#63b8ff" points="768.08,-85.24 772.92,-75.82 763.26,-80.17 768.08,-85.24"/>
</a>
</g>
</g>
<!-- Node30&#45;&gt;Node5 -->
<g id="edge47_Node000030_Node000005" class="edge">
<title>Node30&#45;&gt;Node5</title>
<g id="a_edge47_Node000030_Node000005"><a xlink:title=" ">
<path fill="none" stroke="#63b8ff" d="M1204.85,-110.57C1142.38,-99.55 1035.61,-80.73 982.82,-71.42"/>
<polygon fill="#63b8ff" stroke="#63b8ff" points="983.76,-68.03 973.3,-69.74 982.54,-74.92 983.76,-68.03"/>
</a>
</g>
</g>
<!-- Node30&#45;&gt;Node6 -->
<g id="edge45_Node000030_Node000006" class="edge">
<title>Node30&#45;&gt;Node6</title>
<g id="a_edge45_Node000030_Node000006"><a xlink:title=" ">
<path fill="none" stroke="#63b8ff" d="M1205.05,-114.71C1190.09,-113.35 1173.55,-111.86 1158.38,-110.5 976.62,-94.25 931.11,-90.93 749.38,-74.5 741.27,-73.77 732.77,-72.99 724.34,-72.22"/>
<polygon fill="#63b8ff" stroke="#63b8ff" points="724.72,-68.74 714.44,-71.3 724.07,-75.71 724.72,-68.74"/>
</a>
</g>
</g>
<!-- Node30&#45;&gt;Node15 -->
<g id="edge48_Node000030_Node000015" class="edge">
<title>Node30&#45;&gt;Node15</title>
<g id="a_edge48_Node000030_Node000015"><a xlink:title=" ">
<path fill="none" stroke="#63b8ff" d="M1235.39,-110.09C1219.02,-101.87 1194.59,-89.59 1175.61,-80.06"/>
<polygon fill="#63b8ff" stroke="#63b8ff" points="1177.3,-76.99 1166.8,-75.63 1174.16,-83.25 1177.3,-76.99"/>
</a>
</g>
</g>
<!-- Node31 -->
<g id="Node000031" class="node">
<title>Node31</title>
<g id="a_Node000031"><a xlink:title=" ">
<polygon fill="#e0e0e0" stroke="#999999" points="1242.25,-74.5 1186.5,-74.5 1186.5,-55.25 1242.25,-55.25 1242.25,-74.5"/>
<text text-anchor="middle" x="1214.38" y="-61" font-family="Helvetica,sans-Serif" font-size="10.00">algorithm</text>
</a>
</g>
</g>
<!-- Node30&#45;&gt;Node31 -->
<g id="edge46_Node000030_Node000031" class="edge">
<title>Node30&#45;&gt;Node31</title>
<g id="a_edge46_Node000030_Node000031"><a xlink:title=" ">
<path fill="none" stroke="#63b8ff" d="M1246.93,-110.33C1241.72,-103.21 1234.19,-92.93 1227.68,-84.05"/>
<polygon fill="#63b8ff" stroke="#63b8ff" points="1230.58,-82.08 1221.85,-76.08 1224.93,-86.22 1230.58,-82.08"/>
</a>
</g>
</g>
<!-- Node32 -->
<g id="Node000032" class="node">
<title>Node32</title>
<g id="a_Node000032"><a xlink:title=" ">
<polygon fill="#e0e0e0" stroke="#999999" points="1302.88,-74.5 1259.88,-74.5 1259.88,-55.25 1302.88,-55.25 1302.88,-74.5"/>
<text text-anchor="middle" x="1281.38" y="-61" font-family="Helvetica,sans-Serif" font-size="10.00">cmath</text>
</a>
</g>
</g>
<!-- Node30&#45;&gt;Node32 -->
<g id="edge49_Node000030_Node000032" class="edge">
<title>Node30&#45;&gt;Node32</title>
<g id="a_edge49_Node000030_Node000032"><a xlink:title=" ">
<path fill="none" stroke="#63b8ff" d="M1258,-110.33C1261.62,-103.44 1266.8,-93.59 1271.37,-84.91"/>
<polygon fill="#63b8ff" stroke="#63b8ff" points="1274.39,-86.68 1275.95,-76.2 1268.19,-83.42 1274.39,-86.68"/>
</a>
</g>
</g>
</g>
</svg>

<g id="navigator" transform="translate(0 0)" fill="#404254">
  <rect fill="#f2f5e9" fill-opacity="0.5" stroke="#606060" stroke-width=".5" x="0" y="0" width="60" height="60"/>
  <use id="zoomplus" xlink:href="#zoomPlus" x="17" y="9" onmousedown="handleZoom(evt,'in')"/>
  <use id="zoomminus" xlink:href="#zoomMin" x="42" y="9" onmousedown="handleZoom(evt,'out')"/>
  <use id="reset" xlink:href="#resetDef" x="30" y="36" onmousedown="handleReset()"/>
   <use id="arrowup" xlink:href="#arrowUp" x="0" y="0" onmousedown="handlePan(0,-1)"/>
  <use id="arrowright" xlink:href="#arrowRight" x="0" y="0" onmousedown="handlePan(1,0)"/>
  <use id="arrowdown" xlink:href="#arrowDown" x="0" y="0" onmousedown="handlePan(0,1)"/>
  <use id="arrowleft" xlink:href="#arrowLeft" x="0" y="0" onmousedown="handlePan(-1,0)"/>
</g>
<svg viewBox="0 0 15 15" width="100%" height="30px" preserveAspectRatio="xMaxYMin meet">
 <g id="arrow_out" transform="scale(0.3 0.3)">
  <a xlink:href="Optimizer_8cpp__incl_org.svg" target="_base">
   <rect id="button" ry="5" rx="5" y="6" x="6" height="38" width="38"
        fill="#f2f5e9" fill-opacity="0.5" stroke="#606060" stroke-width="1.0"/>
   <path id="arrow"
     d="M 11.500037,31.436501 C 11.940474,20.09759 22.043105,11.32322 32.158766,21.979434 L 37.068811,17.246167 C 37.068811,17.246167 37.088388,32 37.088388,32 L 22.160133,31.978069 C 22.160133,31.978069 26.997745,27.140456 26.997745,27.140456 C 18.528582,18.264221 13.291696,25.230495 11.500037,31.436501 z"
     style="fill:#404040;"/>
  </a>
 </g>
</svg>

<style type='text/css'>
<![CDATA[
[data-mouse-over-selected='false'] { opacity: 0.7; }
[data-mouse-over-selected='true']  { opacity: 1.0; }
]]>
</style>
<script type="application/ecmascript"><![CDATA[
document.addEventListener('DOMContentLoaded', (event) => {
  highlightEdges();
  highlightAdjacentNodes();
});
]]></script>
</svg>
