<?xml version="1.0" encoding="UTF-8" standalone="no"?>
<!DOCTYPE svg PUBLIC "-//W3C//DTD SVG 1.1//EN"
 "http://www.w3.org/Graphics/SVG/1.1/DTD/svg11.dtd">
<!-- Generated by graphviz version 12.2.0 (20241103.1931)
 -->
<!-- Title: /Users/fola/Documents/ArkScript/Ark/include/Ark/VM/ScopeView.hpp Pages: 1 -->
<!--zoomable 216 -->

<svg id="main" version="1.1" xmlns="http://www.w3.org/2000/svg" xmlns:xlink="http://www.w3.org/1999/xlink" xml:space="preserve" onload="init(evt)">

<style type="text/css"><![CDATA[
.node, .edge {opacity: 0.7;}
.node.selected, .edge.selected {opacity: 1;}
.edge:hover path { stroke: red; }
.edge:hover polygon { stroke: red; fill: red; }
]]></style>

<defs>
  <circle id="rim" cx="0" cy="0" r="7"/>
  <circle id="rim2" cx="0" cy="0" r="3.5"/>
  <g id="zoomPlus">
    <use xlink:href="#rim" fill="#404040"><set attributeName="fill" to="#808080" begin="zoomplus.mouseover" end="zoomplus.mouseout"/></use>
    <path d="M-4,0h8M0,-4v8" fill="none" stroke="white" stroke-width="1.5" pointer-events="none"/>
  </g>
  <g id="zoomMin">
    <use xlink:href="#rim" fill="#404040"><set attributeName="fill" to="#808080" begin="zoomminus.mouseover" end="zoomminus.mouseout"/></use>
    <path d="M-4,0h8" fill="none" stroke="white" stroke-width="1.5" pointer-events="none"/>
  </g>
  <g id="arrowUp" transform="translate(30 24)">
    <use xlink:href="#rim"/>
    <path pointer-events="none" fill="none" stroke="white" stroke-width="1.5" d="M0,-3.0v7 M-2.5,-0.5L0,-3.0L2.5,-0.5"/>
  </g>
  <g id="arrowRight" transform="rotate(90) translate(36 -43)">
    <use xlink:href="#rim"/>
    <path pointer-events="none" fill="none" stroke="white" stroke-width="1.5" d="M0,-3.0v7 M-2.5,-0.5L0,-3.0L2.5,-0.5"/>
  </g>
  <g id="arrowDown" transform="rotate(180) translate(-30 -48)">
    <use xlink:href="#rim"/>
    <path pointer-events="none" fill="none" stroke="white" stroke-width="1.5" d="M0,-3.0v7 M-2.5,-0.5L0,-3.0L2.5,-0.5"/>
  </g>
  <g id="arrowLeft" transform="rotate(270) translate(-36 17)">
    <use xlink:href="#rim"/>
    <path pointer-events="none" fill="none" stroke="white" stroke-width="1.5" d="M0,-3.0v7 M-2.5,-0.5L0,-3.0L2.5,-0.5"/>
  </g>
  <g id="resetDef">
    <use xlink:href="#rim2" fill="#404040"><set attributeName="fill" to="#808080" begin="reset.mouseover" end="reset.mouseout"/></use>
  </g>
</defs>
<script type="application/ecmascript">
var viewWidth = 875;
var viewHeight = 216;
var sectionId = 'dynsection-0';
</script>
<script type="application/ecmascript" xlink:href="../../svg.min.js"/>
<svg id="graph" class="graph">
<g id="viewport">
<title>/Users/fola/Documents/ArkScript/Ark/include/Ark/VM/ScopeView.hpp</title>
<!-- Node1 -->
<g id="Node000001" class="node">
<title>Node1</title>
<g id="a_Node000001"><a xlink:title=" ">
<polygon fill="#999999" stroke="#666666" points="394.91,-207.5 273.16,-207.5 273.16,-165.75 394.91,-165.75 394.91,-207.5"/>
<text text-anchor="start" x="281.16" y="-194" font-family="Helvetica,sans-Serif" font-size="10.00">/Users/fola/Documents</text>
<text text-anchor="start" x="281.16" y="-182.75" font-family="Helvetica,sans-Serif" font-size="10.00">/ArkScript/Ark/include</text>
<text text-anchor="middle" x="334.03" y="-171.5" font-family="Helvetica,sans-Serif" font-size="10.00">/Ark/VM/ScopeView.hpp</text>
</a>
</g>
</g>
<!-- Node2 -->
<g id="Node000002" class="node">
<title>Node2</title>
<g id="a_Node000002"><a xlink:title=" ">
<polygon fill="#e0e0e0" stroke="#999999" points="50.91,-74.5 13.16,-74.5 13.16,-55.25 50.91,-55.25 50.91,-74.5"/>
<text text-anchor="middle" x="32.03" y="-61" font-family="Helvetica,sans-Serif" font-size="10.00">array</text>
</a>
</g>
</g>
<!-- Node1&#45;&gt;Node2 -->
<g id="edge1_Node000001_Node000002" class="edge">
<title>Node1&#45;&gt;Node2</title>
<g id="a_edge1_Node000001_Node000002"><a xlink:title=" ">
<path fill="none" stroke="#63b8ff" d="M282.8,-165.31C219.31,-140.13 113.21,-98.06 61.78,-77.67"/>
<polygon fill="#63b8ff" stroke="#63b8ff" points="63.38,-74.54 52.79,-74.11 60.8,-81.04 63.38,-74.54"/>
</a>
</g>
</g>
<!-- Node3 -->
<g id="Node000003" class="node">
<title>Node3</title>
<g id="a_Node000003"><a xlink:title=" ">
<polygon fill="#e0e0e0" stroke="#999999" points="106.91,-19.25 51.16,-19.25 51.16,0 106.91,0 106.91,-19.25"/>
<text text-anchor="middle" x="79.03" y="-5.75" font-family="Helvetica,sans-Serif" font-size="10.00">cinttypes</text>
</a>
</g>
</g>
<!-- Node1&#45;&gt;Node3 -->
<g id="edge2_Node000001_Node000003" class="edge">
<title>Node1&#45;&gt;Node3</title>
<g id="a_edge2_Node000001_Node000003"><a xlink:title=" ">
<path fill="none" stroke="#63b8ff" d="M272.67,-185.53C194.7,-181.65 63.19,-161.66 4.03,-74.5 -10.15,-53.6 16.98,-35.56 42.48,-24.04"/>
<polygon fill="#63b8ff" stroke="#63b8ff" points="43.59,-27.37 51.43,-20.24 40.85,-20.92 43.59,-27.37"/>
</a>
</g>
</g>
<!-- Node4 -->
<g id="Node000004" class="node">
<title>Node4</title>
<g id="a_Node000004"><a xlink:href="../../d5/d40/Platform_8hpp.html" target="_top" xlink:title="ArkScript configuration macros.">
<polygon fill="white" stroke="#666666" points="592.41,-19.25 479.66,-19.25 479.66,0 592.41,0 592.41,-19.25"/>
<text text-anchor="middle" x="536.03" y="-5.75" font-family="Helvetica,sans-Serif" font-size="10.00">Ark/Utils/Platform.hpp</text>
</a>
</g>
</g>
<!-- Node1&#45;&gt;Node4 -->
<g id="edge3_Node000001_Node000004" class="edge">
<title>Node1&#45;&gt;Node4</title>
<g id="a_edge3_Node000001_Node000004"><a xlink:title=" ">
<path fill="none" stroke="#63b8ff" d="M395.16,-183.4C467.27,-177.06 583.93,-154.24 636.03,-74.5 651.93,-50.17 619.95,-33.26 588.03,-22.98"/>
<polygon fill="#63b8ff" stroke="#63b8ff" points="589.3,-19.71 578.72,-20.18 587.29,-26.41 589.3,-19.71"/>
</a>
</g>
</g>
<!-- Node5 -->
<g id="Node000005" class="node">
<title>Node5</title>
<g id="a_Node000005"><a xlink:href="../../de/dfd/Value_8hpp.html" target="_top" xlink:title="Default value type handled by the virtual machine.">
<polygon fill="white" stroke="#666666" points="501.41,-129.75 406.66,-129.75 406.66,-110.5 501.41,-110.5 501.41,-129.75"/>
<text text-anchor="middle" x="454.03" y="-116.25" font-family="Helvetica,sans-Serif" font-size="10.00">Ark/VM/Value.hpp</text>
</a>
</g>
</g>
<!-- Node1&#45;&gt;Node5 -->
<g id="edge4_Node000001_Node000005" class="edge">
<title>Node1&#45;&gt;Node5</title>
<g id="a_edge4_Node000001_Node000005"><a xlink:title=" ">
<path fill="none" stroke="#63b8ff" d="M371.67,-165.39C389.72,-155.7 410.91,-144.31 427.28,-135.51"/>
<polygon fill="#63b8ff" stroke="#63b8ff" points="428.77,-138.68 435.92,-130.86 425.46,-132.51 428.77,-138.68"/>
</a>
</g>
</g>
<!-- Node5&#45;&gt;Node2 -->
<g id="edge9_Node000005_Node000002" class="edge">
<title>Node5&#45;&gt;Node2</title>
<g id="a_edge9_Node000005_Node000002"><a xlink:title=" ">
<path fill="none" stroke="#63b8ff" d="M406.41,-115.84C332.75,-110.28 186.98,-97.31 65.03,-74.5 64.04,-74.31 63.03,-74.11 62.02,-73.9"/>
<polygon fill="#63b8ff" stroke="#63b8ff" points="63.13,-70.57 52.6,-71.7 61.54,-77.39 63.13,-70.57"/>
</a>
</g>
</g>
<!-- Node5&#45;&gt;Node3 -->
<g id="edge8_Node000005_Node000003" class="edge">
<title>Node5&#45;&gt;Node3</title>
<g id="a_edge8_Node000005_Node000003"><a xlink:title=" ">
<path fill="none" stroke="#63b8ff" d="M406.29,-119.4C320.17,-118.91 143.53,-113.07 98.03,-74.5 85.48,-63.85 81.01,-45.3 79.52,-30.93"/>
<polygon fill="#63b8ff" stroke="#63b8ff" points="83.03,-30.96 78.94,-21.18 76.04,-31.38 83.03,-30.96"/>
</a>
</g>
</g>
<!-- Node5&#45;&gt;Node4 -->
<g id="edge24_Node000005_Node000004" class="edge">
<title>Node5&#45;&gt;Node4</title>
<g id="a_edge24_Node000005_Node000004"><a xlink:title=" ">
<path fill="none" stroke="#63b8ff" d="M458.56,-110.01C465.11,-97.21 478,-73.43 492.03,-55.25 499.65,-45.38 509.26,-35.41 517.56,-27.4"/>
<polygon fill="#63b8ff" stroke="#63b8ff" points="519.89,-30.02 524.78,-20.62 515.1,-24.91 519.89,-30.02"/>
</a>
</g>
</g>
<!-- Node6 -->
<g id="Node000006" class="node">
<title>Node6</title>
<g id="a_Node000006"><a xlink:title=" ">
<polygon fill="#e0e0e0" stroke="#999999" points="395.53,-19.25 352.53,-19.25 352.53,0 395.53,0 395.53,-19.25"/>
<text text-anchor="middle" x="374.03" y="-5.75" font-family="Helvetica,sans-Serif" font-size="10.00">vector</text>
</a>
</g>
</g>
<!-- Node5&#45;&gt;Node6 -->
<g id="edge5_Node000005_Node000006" class="edge">
<title>Node5&#45;&gt;Node6</title>
<g id="a_edge5_Node000005_Node000006"><a xlink:title=" ">
<path fill="none" stroke="#63b8ff" d="M449.45,-110.06C442.83,-97.31 429.86,-73.59 416.03,-55.25 408.7,-45.52 399.52,-35.56 391.61,-27.53"/>
<polygon fill="#63b8ff" stroke="#63b8ff" points="394.32,-25.28 384.76,-20.73 389.4,-30.26 394.32,-25.28"/>
</a>
</g>
</g>
<!-- Node7 -->
<g id="Node000007" class="node">
<title>Node7</title>
<g id="a_Node000007"><a xlink:title=" ">
<polygon fill="#e0e0e0" stroke="#999999" points="546.66,-74.5 501.41,-74.5 501.41,-55.25 546.66,-55.25 546.66,-74.5"/>
<text text-anchor="middle" x="524.03" y="-61" font-family="Helvetica,sans-Serif" font-size="10.00">variant</text>
</a>
</g>
</g>
<!-- Node5&#45;&gt;Node7 -->
<g id="edge6_Node000005_Node000007" class="edge">
<title>Node5&#45;&gt;Node7</title>
<g id="a_edge6_Node000005_Node000007"><a xlink:title=" ">
<path fill="none" stroke="#63b8ff" d="M465.91,-110.09C476.13,-102.32 491.11,-90.92 503.3,-81.65"/>
<polygon fill="#63b8ff" stroke="#63b8ff" points="505.29,-84.53 511.13,-75.69 501.05,-78.96 505.29,-84.53"/>
</a>
</g>
</g>
<!-- Node8 -->
<g id="Node000008" class="node">
<title>Node8</title>
<g id="a_Node000008"><a xlink:title=" ">
<polygon fill="#e0e0e0" stroke="#999999" points="751.03,-19.25 711.03,-19.25 711.03,0 751.03,0 751.03,-19.25"/>
<text text-anchor="middle" x="731.03" y="-5.75" font-family="Helvetica,sans-Serif" font-size="10.00">string</text>
</a>
</g>
</g>
<!-- Node5&#45;&gt;Node8 -->
<g id="edge7_Node000005_Node000008" class="edge">
<title>Node5&#45;&gt;Node8</title>
<g id="a_edge7_Node000005_Node000008"><a xlink:title=" ">
<path fill="none" stroke="#63b8ff" d="M501.9,-112.12C539.5,-105.52 592.59,-93.7 636.03,-74.5 664.23,-62.04 693.14,-41.22 711.54,-26.76"/>
<polygon fill="#63b8ff" stroke="#63b8ff" points="713.6,-29.6 719.2,-20.61 709.21,-24.14 713.6,-29.6"/>
</a>
</g>
</g>
<!-- Node9 -->
<g id="Node000009" class="node">
<title>Node9</title>
<g id="a_Node000009"><a xlink:title=" ">
<polygon fill="#e0e0e0" stroke="#999999" points="859.66,-19.25 808.41,-19.25 808.41,0 859.66,0 859.66,-19.25"/>
<text text-anchor="middle" x="834.03" y="-5.75" font-family="Helvetica,sans-Serif" font-size="10.00">memory</text>
</a>
</g>
</g>
<!-- Node5&#45;&gt;Node9 -->
<g id="edge10_Node000005_Node000009" class="edge">
<title>Node5&#45;&gt;Node9</title>
<g id="a_edge10_Node000005_Node000009"><a xlink:title=" ">
<path fill="none" stroke="#63b8ff" d="M501.8,-117.41C604.37,-113.25 838.34,-100.93 862.03,-74.5 874.1,-61.04 862.57,-41.56 850.86,-27.65"/>
<polygon fill="#63b8ff" stroke="#63b8ff" points="853.73,-25.6 844.41,-20.56 848.55,-30.31 853.73,-25.6"/>
</a>
</g>
</g>
<!-- Node10 -->
<g id="Node000010" class="node">
<title>Node10</title>
<g id="a_Node000010"><a xlink:title=" ">
<polygon fill="#e0e0e0" stroke="#999999" points="626.91,-74.5 565.16,-74.5 565.16,-55.25 626.91,-55.25 626.91,-74.5"/>
<text text-anchor="middle" x="596.03" y="-61" font-family="Helvetica,sans-Serif" font-size="10.00">type_traits</text>
</a>
</g>
</g>
<!-- Node5&#45;&gt;Node10 -->
<g id="edge11_Node000005_Node000010" class="edge">
<title>Node5&#45;&gt;Node10</title>
<g id="a_edge11_Node000005_Node000010"><a xlink:title=" ">
<path fill="none" stroke="#63b8ff" d="M478.12,-110.09C500.97,-101.52 535.55,-88.56 561.36,-78.88"/>
<polygon fill="#63b8ff" stroke="#63b8ff" points="562.28,-82.27 570.41,-75.48 559.82,-75.72 562.28,-82.27"/>
</a>
</g>
</g>
<!-- Node11 -->
<g id="Node000011" class="node">
<title>Node11</title>
<g id="a_Node000011"><a xlink:href="../../dc/dd5/Closure_8hpp.html" target="_top" xlink:title="Subtype of the value type, handling closures.">
<polygon fill="white" stroke="#666666" points="852.78,-74.5 721.28,-74.5 721.28,-55.25 852.78,-55.25 852.78,-74.5"/>
<text text-anchor="middle" x="787.03" y="-61" font-family="Helvetica,sans-Serif" font-size="10.00">Ark/VM/Value/Closure.hpp</text>
</a>
</g>
</g>
<!-- Node5&#45;&gt;Node11 -->
<g id="edge12_Node000005_Node000011" class="edge">
<title>Node5&#45;&gt;Node11</title>
<g id="a_edge12_Node000005_Node000011"><a xlink:title=" ">
<path fill="none" stroke="#63b8ff" d="M501.75,-111.5C558.66,-102.39 654.23,-87.11 718.91,-76.77"/>
<polygon fill="#63b8ff" stroke="#63b8ff" points="719.39,-80.24 728.72,-75.2 718.29,-73.32 719.39,-80.24"/>
</a>
</g>
</g>
<!-- Node12 -->
<g id="Node000012" class="node">
<title>Node12</title>
<g id="a_Node000012"><a xlink:href="../../dc/d3d/UserType_8hpp.html" target="_top" xlink:title="Subtype of the value, capable of handling any C++ type.">
<polygon fill="white" stroke="#666666" points="246.91,-74.5 107.16,-74.5 107.16,-55.25 246.91,-55.25 246.91,-74.5"/>
<text text-anchor="middle" x="177.03" y="-61" font-family="Helvetica,sans-Serif" font-size="10.00">Ark/VM/Value/UserType.hpp</text>
</a>
</g>
</g>
<!-- Node5&#45;&gt;Node12 -->
<g id="edge16_Node000005_Node000012" class="edge">
<title>Node5&#45;&gt;Node12</title>
<g id="a_edge16_Node000005_Node000012"><a xlink:title=" ">
<path fill="none" stroke="#63b8ff" d="M406.73,-110.03C359.33,-100.92 286.26,-86.87 235.3,-77.08"/>
<polygon fill="#63b8ff" stroke="#63b8ff" points="236.11,-73.67 225.63,-75.22 234.79,-80.54 236.11,-73.67"/>
</a>
</g>
</g>
<!-- Node15 -->
<g id="Node000015" class="node">
<title>Node15</title>
<g id="a_Node000015"><a xlink:href="../../da/dcf/Procedure_8hpp.html" target="_top" xlink:title="Wrapper object for user&#45;defined functions.">
<polygon fill="white" stroke="#666666" points="407.03,-74.5 265.03,-74.5 265.03,-55.25 407.03,-55.25 407.03,-74.5"/>
<text text-anchor="middle" x="336.03" y="-61" font-family="Helvetica,sans-Serif" font-size="10.00">Ark/VM/Value/Procedure.hpp</text>
</a>
</g>
</g>
<!-- Node5&#45;&gt;Node15 -->
<g id="edge21_Node000005_Node000015" class="edge">
<title>Node5&#45;&gt;Node15</title>
<g id="a_edge21_Node000005_Node000015"><a xlink:title=" ">
<path fill="none" stroke="#63b8ff" d="M434.02,-110.09C415.54,-101.75 387.83,-89.25 366.59,-79.66"/>
<polygon fill="#63b8ff" stroke="#63b8ff" points="368.08,-76.5 357.53,-75.58 365.2,-82.88 368.08,-76.5"/>
</a>
</g>
</g>
<!-- Node11&#45;&gt;Node4 -->
<g id="edge15_Node000011_Node000004" class="edge">
<title>Node11&#45;&gt;Node4</title>
<g id="a_edge15_Node000011_Node000004"><a xlink:title=" ">
<path fill="none" stroke="#63b8ff" d="M744.17,-54.78C701.49,-45.73 635.84,-31.8 589.71,-22.01"/>
<polygon fill="#63b8ff" stroke="#63b8ff" points="590.71,-18.65 580.2,-20 589.26,-25.49 590.71,-18.65"/>
</a>
</g>
</g>
<!-- Node11&#45;&gt;Node8 -->
<g id="edge14_Node000011_Node000008" class="edge">
<title>Node11&#45;&gt;Node8</title>
<g id="a_edge14_Node000011_Node000008"><a xlink:title=" ">
<path fill="none" stroke="#63b8ff" d="M777.54,-54.84C769.6,-47.3 758.09,-36.35 748.5,-27.23"/>
<polygon fill="#63b8ff" stroke="#63b8ff" points="751.15,-24.92 741.49,-20.57 746.33,-29.99 751.15,-24.92"/>
</a>
</g>
</g>
<!-- Node11&#45;&gt;Node9 -->
<g id="edge13_Node000011_Node000009" class="edge">
<title>Node11&#45;&gt;Node9</title>
<g id="a_edge13_Node000011_Node000009"><a xlink:title=" ">
<path fill="none" stroke="#63b8ff" d="M794.8,-55.08C801.22,-47.8 810.55,-37.23 818.5,-28.23"/>
<polygon fill="#63b8ff" stroke="#63b8ff" points="821.11,-30.56 825.1,-20.74 815.86,-25.93 821.11,-30.56"/>
</a>
</g>
</g>
<!-- Node12&#45;&gt;Node3 -->
<g id="edge18_Node000012_Node000003" class="edge">
<title>Node12&#45;&gt;Node3</title>
<g id="a_edge18_Node000012_Node000003"><a xlink:title=" ">
<path fill="none" stroke="#63b8ff" d="M160.41,-54.84C145.35,-46.66 122.89,-34.46 105.38,-24.94"/>
<polygon fill="#63b8ff" stroke="#63b8ff" points="107.53,-22.12 97.07,-20.43 104.19,-28.27 107.53,-22.12"/>
</a>
</g>
</g>
<!-- Node12&#45;&gt;Node4 -->
<g id="edge20_Node000012_Node000004" class="edge">
<title>Node12&#45;&gt;Node4</title>
<g id="a_edge20_Node000012_Node000004"><a xlink:title=" ">
<path fill="none" stroke="#63b8ff" d="M238.34,-54.78C302.23,-45.3 402.09,-30.49 468.28,-20.67"/>
<polygon fill="#63b8ff" stroke="#63b8ff" points="468.54,-24.17 477.92,-19.24 467.52,-17.25 468.54,-24.17"/>
</a>
</g>
</g>
<!-- Node13 -->
<g id="Node000013" class="node">
<title>Node13</title>
<g id="a_Node000013"><a xlink:title=" ">
<polygon fill="#e0e0e0" stroke="#999999" points="203.78,-19.25 150.28,-19.25 150.28,0 203.78,0 203.78,-19.25"/>
<text text-anchor="middle" x="177.03" y="-5.75" font-family="Helvetica,sans-Serif" font-size="10.00">iostream</text>
</a>
</g>
</g>
<!-- Node12&#45;&gt;Node13 -->
<g id="edge17_Node000012_Node000013" class="edge">
<title>Node12&#45;&gt;Node13</title>
<g id="a_edge17_Node000012_Node000013"><a xlink:title=" ">
<path fill="none" stroke="#63b8ff" d="M177.03,-55.08C177.03,-48.57 177.03,-39.42 177.03,-31.12"/>
<polygon fill="#63b8ff" stroke="#63b8ff" points="180.53,-31.12 177.03,-21.12 173.53,-31.12 180.53,-31.12"/>
</a>
</g>
</g>
<!-- Node14 -->
<g id="Node000014" class="node">
<title>Node14</title>
<g id="a_Node000014"><a xlink:title=" ">
<polygon fill="#e0e0e0" stroke="#999999" points="326.03,-19.25 268.03,-19.25 268.03,0 326.03,0 326.03,-19.25"/>
<text text-anchor="middle" x="297.03" y="-5.75" font-family="Helvetica,sans-Serif" font-size="10.00">functional</text>
</a>
</g>
</g>
<!-- Node12&#45;&gt;Node14 -->
<g id="edge19_Node000012_Node000014" class="edge">
<title>Node12&#45;&gt;Node14</title>
<g id="a_edge19_Node000012_Node000014"><a xlink:title=" ">
<path fill="none" stroke="#63b8ff" d="M197.39,-54.84C216.27,-46.47 244.62,-33.88 266.26,-24.28"/>
<polygon fill="#63b8ff" stroke="#63b8ff" points="267.47,-27.57 275.2,-20.32 264.63,-21.17 267.47,-27.57"/>
</a>
</g>
</g>
<!-- Node15&#45;&gt;Node6 -->
<g id="edge23_Node000015_Node000006" class="edge">
<title>Node15&#45;&gt;Node6</title>
<g id="a_edge23_Node000015_Node000006"><a xlink:title=" ">
<path fill="none" stroke="#63b8ff" d="M342.31,-55.08C347.39,-47.96 354.73,-37.68 361.07,-28.8"/>
<polygon fill="#63b8ff" stroke="#63b8ff" points="363.78,-31.01 366.74,-20.84 358.09,-26.95 363.78,-31.01"/>
</a>
</g>
</g>
<!-- Node15&#45;&gt;Node14 -->
<g id="edge22_Node000015_Node000014" class="edge">
<title>Node15&#45;&gt;Node14</title>
<g id="a_edge22_Node000015_Node000014"><a xlink:title=" ">
<path fill="none" stroke="#63b8ff" d="M329.59,-55.08C324.38,-47.96 316.85,-37.68 310.34,-28.8"/>
<polygon fill="#63b8ff" stroke="#63b8ff" points="313.24,-26.83 304.51,-20.83 307.59,-30.97 313.24,-26.83"/>
</a>
</g>
</g>
</g>
</svg>

<g id="navigator" transform="translate(0 0)" fill="#404254">
  <rect fill="#f2f5e9" fill-opacity="0.5" stroke="#606060" stroke-width=".5" x="0" y="0" width="60" height="60"/>
  <use id="zoomplus" xlink:href="#zoomPlus" x="17" y="9" onmousedown="handleZoom(evt,'in')"/>
  <use id="zoomminus" xlink:href="#zoomMin" x="42" y="9" onmousedown="handleZoom(evt,'out')"/>
  <use id="reset" xlink:href="#resetDef" x="30" y="36" onmousedown="handleReset()"/>
   <use id="arrowup" xlink:href="#arrowUp" x="0" y="0" onmousedown="handlePan(0,-1)"/>
  <use id="arrowright" xlink:href="#arrowRight" x="0" y="0" onmousedown="handlePan(1,0)"/>
  <use id="arrowdown" xlink:href="#arrowDown" x="0" y="0" onmousedown="handlePan(0,1)"/>
  <use id="arrowleft" xlink:href="#arrowLeft" x="0" y="0" onmousedown="handlePan(-1,0)"/>
</g>
<svg viewBox="0 0 15 15" width="100%" height="30px" preserveAspectRatio="xMaxYMin meet">
 <g id="arrow_out" transform="scale(0.3 0.3)">
  <a xlink:href="ScopeView_8hpp__incl_org.svg" target="_base">
   <rect id="button" ry="5" rx="5" y="6" x="6" height="38" width="38"
        fill="#f2f5e9" fill-opacity="0.5" stroke="#606060" stroke-width="1.0"/>
   <path id="arrow"
     d="M 11.500037,31.436501 C 11.940474,20.09759 22.043105,11.32322 32.158766,21.979434 L 37.068811,17.246167 C 37.068811,17.246167 37.088388,32 37.088388,32 L 22.160133,31.978069 C 22.160133,31.978069 26.997745,27.140456 26.997745,27.140456 C 18.528582,18.264221 13.291696,25.230495 11.500037,31.436501 z"
     style="fill:#404040;"/>
  </a>
 </g>
</svg>

<style type='text/css'>
<![CDATA[
[data-mouse-over-selected='false'] { opacity: 0.7; }
[data-mouse-over-selected='true']  { opacity: 1.0; }
]]>
</style>
<script type="application/ecmascript"><![CDATA[
document.addEventListener('DOMContentLoaded', (event) => {
  highlightEdges();
  highlightAdjacentNodes();
});
]]></script>
</svg>
