<?xml version="1.0" encoding="UTF-8" standalone="no"?>
<!DOCTYPE svg PUBLIC "-//W3C//DTD SVG 1.1//EN"
 "http://www.w3.org/Graphics/SVG/1.1/DTD/svg11.dtd">
<!-- Generated by graphviz version 12.2.0 (20241103.1931)
 -->
<!-- Title: Ark::UserType Pages: 1 -->
<svg width="152pt" height="340pt"
 viewBox="0.00 0.00 151.50 340.25" xmlns="http://www.w3.org/2000/svg" xmlns:xlink="http://www.w3.org/1999/xlink">
<g id="graph0" class="graph" transform="scale(1 1) rotate(0) translate(4 336.25)">
<title>Ark::UserType</title>
<!-- Node1 -->
<g id="Node000001" class="node">
<title>Node1</title>
<g id="a_Node000001"><a xlink:title="A class to be use C++ objects in ArkScript.">
<polygon fill="#999999" stroke="#666666" points="111.25,-19.25 32.25,-19.25 32.25,0 111.25,0 111.25,-19.25"/>
<text text-anchor="middle" x="71.75" y="-5.75" font-family="Helvetica,sans-Serif" font-size="10.00">Ark::UserType</text>
</a>
</g>
</g>
<!-- Node2 -->
<g id="Node000002" class="node">
<title>Node2</title>
<g id="a_Node000002"><a xlink:href="../../d8/d70/structArk_1_1UserType_1_1ControlFuncs.html" target="_top" xlink:title="A structure holding a bunch of pointers to different useful functions related to this usertype.">
<polygon fill="white" stroke="#666666" points="143.5,-85.75 0,-85.75 0,-66.5 143.5,-66.5 143.5,-85.75"/>
<text text-anchor="middle" x="71.75" y="-72.25" font-family="Helvetica,sans-Serif" font-size="10.00">Ark::UserType::ControlFuncs</text>
</a>
</g>
</g>
<!-- Node2&#45;&gt;Node1 -->
<g id="edge1_Node000001_Node000002" class="edge">
<title>Node2&#45;&gt;Node1</title>
<g id="a_edge1_Node000001_Node000002"><a xlink:title=" ">
<path fill="none" stroke="#9a32cd" stroke-dasharray="5,2" d="M71.75,-54.65C71.75,-42.82 71.75,-28.54 71.75,-19.52"/>
<polygon fill="#9a32cd" stroke="#9a32cd" points="68.25,-54.64 71.75,-64.64 75.25,-54.64 68.25,-54.64"/>
</a>
</g>
<text text-anchor="middle" x="92" y="-39" font-family="Helvetica,sans-Serif" font-size="10.00" fill="grey"> m_funcs</text>
</g>
<!-- Node3 -->
<g id="Node000003" class="node">
<title>Node3</title>
<g id="a_Node000003"><a xlink:title=" ">
<polygon fill="white" stroke="#666666" points="107.12,-152.25 36.38,-152.25 36.38,-133 107.12,-133 107.12,-152.25"/>
<text text-anchor="middle" x="71.75" y="-138.75" font-family="Helvetica,sans-Serif" font-size="10.00">std::ostream</text>
</a>
</g>
</g>
<!-- Node3&#45;&gt;Node2 -->
<g id="edge2_Node000002_Node000003" class="edge">
<title>Node3&#45;&gt;Node2</title>
<g id="a_edge2_Node000002_Node000003"><a xlink:title=" ">
<path fill="none" stroke="#9a32cd" stroke-dasharray="5,2" d="M71.75,-121.15C71.75,-109.32 71.75,-95.04 71.75,-86.02"/>
<polygon fill="#9a32cd" stroke="#9a32cd" points="68.25,-121.14 71.75,-131.14 75.25,-121.14 68.25,-121.14"/>
</a>
</g>
<text text-anchor="middle" x="102.88" y="-105.5" font-family="Helvetica,sans-Serif" font-size="10.00" fill="grey"> ostream_func</text>
</g>
<!-- Node4 -->
<g id="Node000004" class="node">
<title>Node4</title>
<g id="a_Node000004"><a xlink:title=" ">
<polygon fill="white" stroke="#666666" points="121.38,-219.75 22.12,-219.75 22.12,-189.25 121.38,-189.25 121.38,-219.75"/>
<text text-anchor="start" x="30.12" y="-206.25" font-family="Helvetica,sans-Serif" font-size="10.00">std::basic_ostream</text>
<text text-anchor="middle" x="71.75" y="-195" font-family="Helvetica,sans-Serif" font-size="10.00">&lt; Char &gt;</text>
</a>
</g>
</g>
<!-- Node4&#45;&gt;Node3 -->
<g id="edge3_Node000003_Node000004" class="edge">
<title>Node4&#45;&gt;Node3</title>
<g id="a_edge3_Node000003_Node000004"><a xlink:title=" ">
<path fill="none" stroke="#63b8ff" d="M71.75,-177.77C71.75,-168.79 71.75,-159.29 71.75,-152.6"/>
<polygon fill="#63b8ff" stroke="#63b8ff" points="68.25,-177.49 71.75,-187.49 75.25,-177.49 68.25,-177.49"/>
</a>
</g>
</g>
<!-- Node5 -->
<g id="Node000005" class="node">
<title>Node5</title>
<g id="a_Node000005"><a xlink:title=" ">
<polygon fill="white" stroke="#666666" points="129.62,-276 13.88,-276 13.88,-256.75 129.62,-256.75 129.62,-276"/>
<text text-anchor="middle" x="71.75" y="-262.5" font-family="Helvetica,sans-Serif" font-size="10.00">std::basic_ios&lt; Char &gt;</text>
</a>
</g>
</g>
<!-- Node5&#45;&gt;Node4 -->
<g id="edge4_Node000004_Node000005" class="edge">
<title>Node5&#45;&gt;Node4</title>
<g id="a_edge4_Node000004_Node000005"><a xlink:title=" ">
<path fill="none" stroke="#63b8ff" d="M71.75,-244.94C71.75,-236.68 71.75,-227.34 71.75,-219.82"/>
<polygon fill="#63b8ff" stroke="#63b8ff" points="68.25,-244.77 71.75,-254.77 75.25,-244.77 68.25,-244.77"/>
</a>
</g>
</g>
<!-- Node6 -->
<g id="Node000006" class="node">
<title>Node6</title>
<g id="a_Node000006"><a xlink:title=" ">
<polygon fill="white" stroke="#666666" points="109,-332.25 34.5,-332.25 34.5,-313 109,-313 109,-332.25"/>
<text text-anchor="middle" x="71.75" y="-318.75" font-family="Helvetica,sans-Serif" font-size="10.00">std::ios_base</text>
</a>
</g>
</g>
<!-- Node6&#45;&gt;Node5 -->
<g id="edge5_Node000005_Node000006" class="edge">
<title>Node6&#45;&gt;Node5</title>
<g id="a_edge5_Node000005_Node000006"><a xlink:title=" ">
<path fill="none" stroke="#63b8ff" d="M71.75,-301.44C71.75,-292.73 71.75,-282.99 71.75,-276.17"/>
<polygon fill="#63b8ff" stroke="#63b8ff" points="68.25,-301.15 71.75,-311.15 75.25,-301.15 68.25,-301.15"/>
</a>
</g>
</g>
</g>
</svg>
