<?xml version="1.0" encoding="UTF-8" standalone="no"?>
<!DOCTYPE svg PUBLIC "-//W3C//DTD SVG 1.1//EN"
 "http://www.w3.org/Graphics/SVG/1.1/DTD/svg11.dtd">
<!-- Generated by graphviz version 12.2.0 (20241103.1931)
 -->
<!-- Title: /Users/fola/Documents/ArkScript/Ark/include/Ark/VM/State.hpp Pages: 1 -->
<!--zoomable 238 -->

<svg id="main" version="1.1" xmlns="http://www.w3.org/2000/svg" xmlns:xlink="http://www.w3.org/1999/xlink" xml:space="preserve" onload="init(evt)">

<style type="text/css"><![CDATA[
.node, .edge {opacity: 0.7;}
.node.selected, .edge.selected {opacity: 1;}
.edge:hover path { stroke: red; }
.edge:hover polygon { stroke: red; fill: red; }
]]></style>

<defs>
  <circle id="rim" cx="0" cy="0" r="7"/>
  <circle id="rim2" cx="0" cy="0" r="3.5"/>
  <g id="zoomPlus">
    <use xlink:href="#rim" fill="#404040"><set attributeName="fill" to="#808080" begin="zoomplus.mouseover" end="zoomplus.mouseout"/></use>
    <path d="M-4,0h8M0,-4v8" fill="none" stroke="white" stroke-width="1.5" pointer-events="none"/>
  </g>
  <g id="zoomMin">
    <use xlink:href="#rim" fill="#404040"><set attributeName="fill" to="#808080" begin="zoomminus.mouseover" end="zoomminus.mouseout"/></use>
    <path d="M-4,0h8" fill="none" stroke="white" stroke-width="1.5" pointer-events="none"/>
  </g>
  <g id="arrowUp" transform="translate(30 24)">
    <use xlink:href="#rim"/>
    <path pointer-events="none" fill="none" stroke="white" stroke-width="1.5" d="M0,-3.0v7 M-2.5,-0.5L0,-3.0L2.5,-0.5"/>
  </g>
  <g id="arrowRight" transform="rotate(90) translate(36 -43)">
    <use xlink:href="#rim"/>
    <path pointer-events="none" fill="none" stroke="white" stroke-width="1.5" d="M0,-3.0v7 M-2.5,-0.5L0,-3.0L2.5,-0.5"/>
  </g>
  <g id="arrowDown" transform="rotate(180) translate(-30 -48)">
    <use xlink:href="#rim"/>
    <path pointer-events="none" fill="none" stroke="white" stroke-width="1.5" d="M0,-3.0v7 M-2.5,-0.5L0,-3.0L2.5,-0.5"/>
  </g>
  <g id="arrowLeft" transform="rotate(270) translate(-36 17)">
    <use xlink:href="#rim"/>
    <path pointer-events="none" fill="none" stroke="white" stroke-width="1.5" d="M0,-3.0v7 M-2.5,-0.5L0,-3.0L2.5,-0.5"/>
  </g>
  <g id="resetDef">
    <use xlink:href="#rim2" fill="#404040"><set attributeName="fill" to="#808080" begin="reset.mouseover" end="reset.mouseout"/></use>
  </g>
</defs>
<script type="application/ecmascript">
var viewWidth = 1705;
var viewHeight = 238;
var sectionId = 'dynsection-0';
</script>
<script type="application/ecmascript" xlink:href="../../svg.min.js"/>
<svg id="graph" class="graph">
<g id="viewport">
<title>/Users/fola/Documents/ArkScript/Ark/include/Ark/VM/State.hpp</title>
<!-- Node1 -->
<g id="Node000001" class="node">
<title>Node1</title>
<g id="a_Node000001"><a xlink:title="State used by the virtual machine: it loads the bytecode, can compile it if needed,...">
<polygon fill="#999999" stroke="#666666" points="1156.62,-230 1039.38,-230 1039.38,-188.25 1156.62,-188.25 1156.62,-230"/>
<text text-anchor="start" x="1047.38" y="-216.5" font-family="Helvetica,sans-Serif" font-size="10.00">/Users/fola/Documents</text>
<text text-anchor="start" x="1047.38" y="-205.25" font-family="Helvetica,sans-Serif" font-size="10.00">/ArkScript/Ark/include</text>
<text text-anchor="middle" x="1098" y="-194" font-family="Helvetica,sans-Serif" font-size="10.00">/Ark/VM/State.hpp</text>
</a>
</g>
</g>
<!-- Node2 -->
<g id="Node000002" class="node">
<title>Node2</title>
<g id="a_Node000002"><a xlink:title=" ">
<polygon fill="#e0e0e0" stroke="#999999" points="866,-19.25 826,-19.25 826,0 866,0 866,-19.25"/>
<text text-anchor="middle" x="846" y="-5.75" font-family="Helvetica,sans-Serif" font-size="10.00">string</text>
</a>
</g>
</g>
<!-- Node1&#45;&gt;Node2 -->
<g id="edge1_Node000001_Node000002" class="edge">
<title>Node1&#45;&gt;Node2</title>
<g id="a_edge1_Node000001_Node000002"><a xlink:title=" ">
<path fill="none" stroke="#63b8ff" d="M1039.03,-188.69C1016.25,-179.61 990.74,-167.43 970,-152.25 921.14,-116.5 878.06,-58.33 857.98,-28.91"/>
<polygon fill="#63b8ff" stroke="#63b8ff" points="860.97,-27.08 852.5,-20.72 855.16,-30.98 860.97,-27.08"/>
</a>
</g>
</g>
<!-- Node3 -->
<g id="Node000003" class="node">
<title>Node3</title>
<g id="a_Node000003"><a xlink:title=" ">
<polygon fill="#e0e0e0" stroke="#999999" points="229.5,-19.25 186.5,-19.25 186.5,0 229.5,0 229.5,-19.25"/>
<text text-anchor="middle" x="208" y="-5.75" font-family="Helvetica,sans-Serif" font-size="10.00">vector</text>
</a>
</g>
</g>
<!-- Node1&#45;&gt;Node3 -->
<g id="edge2_Node000001_Node000003" class="edge">
<title>Node1&#45;&gt;Node3</title>
<g id="a_edge2_Node000001_Node000003"><a xlink:title=" ">
<path fill="none" stroke="#63b8ff" d="M1039.16,-208.77C861.76,-209.39 337.31,-201.24 223,-85.75 208.91,-71.51 206.21,-48.03 206.37,-31.1"/>
<polygon fill="#63b8ff" stroke="#63b8ff" points="209.86,-31.36 206.84,-21.21 202.87,-31.03 209.86,-31.36"/>
</a>
</g>
</g>
<!-- Node4 -->
<g id="Node000004" class="node">
<title>Node4</title>
<g id="a_Node000004"><a xlink:title=" ">
<polygon fill="#e0e0e0" stroke="#999999" points="1430.38,-146.62 1347.62,-146.62 1347.62,-127.38 1430.38,-127.38 1430.38,-146.62"/>
<text text-anchor="middle" x="1389" y="-133.12" font-family="Helvetica,sans-Serif" font-size="10.00">unordered_map</text>
</a>
</g>
</g>
<!-- Node1&#45;&gt;Node4 -->
<g id="edge3_Node000001_Node000004" class="edge">
<title>Node1&#45;&gt;Node4</title>
<g id="a_edge3_Node000001_Node000004"><a xlink:title=" ">
<path fill="none" stroke="#63b8ff" d="M1156.76,-194.58C1204.56,-183.47 1273.72,-167.19 1334,-152.25 1337.1,-151.48 1340.29,-150.68 1343.5,-149.87"/>
<polygon fill="#63b8ff" stroke="#63b8ff" points="1344.12,-153.32 1352.94,-147.46 1342.39,-146.54 1344.12,-153.32"/>
</a>
</g>
</g>
<!-- Node5 -->
<g id="Node000005" class="node">
<title>Node5</title>
<g id="a_Node000005"><a xlink:title=" ">
<polygon fill="#e0e0e0" stroke="#999999" points="1509.5,-146.62 1448.5,-146.62 1448.5,-127.38 1509.5,-127.38 1509.5,-146.62"/>
<text text-anchor="middle" x="1479" y="-133.12" font-family="Helvetica,sans-Serif" font-size="10.00">filesystem</text>
</a>
</g>
</g>
<!-- Node1&#45;&gt;Node5 -->
<g id="edge4_Node000001_Node000005" class="edge">
<title>Node1&#45;&gt;Node5</title>
<g id="a_edge4_Node000001_Node000005"><a xlink:title=" ">
<path fill="none" stroke="#63b8ff" d="M1156.89,-201.74C1225.39,-193.56 1341.55,-177.37 1439,-152.25 1441,-151.73 1443.04,-151.16 1445.09,-150.55"/>
<polygon fill="#63b8ff" stroke="#63b8ff" points="1446.09,-153.9 1454.51,-147.47 1443.92,-147.25 1446.09,-153.9"/>
</a>
</g>
</g>
<!-- Node6 -->
<g id="Node000006" class="node">
<title>Node6</title>
<g id="a_Node000006"><a xlink:href="../../d6/de9/Constants_8hpp.html" target="_top" xlink:title="Constants used by ArkScript.">
<polygon fill="white" stroke="#666666" points="1566.88,-80.12 1469.12,-80.12 1469.12,-60.88 1566.88,-60.88 1566.88,-80.12"/>
<text text-anchor="middle" x="1518" y="-66.62" font-family="Helvetica,sans-Serif" font-size="10.00">Ark/Constants.hpp</text>
</a>
</g>
</g>
<!-- Node1&#45;&gt;Node6 -->
<g id="edge5_Node000001_Node000006" class="edge">
<title>Node1&#45;&gt;Node6</title>
<g id="a_edge5_Node000001_Node000006"><a xlink:title=" ">
<path fill="none" stroke="#63b8ff" d="M1156.75,-198.54C1198.59,-190.17 1255.27,-175.62 1301,-152.25 1320.28,-142.39 1319.74,-131.65 1339,-121.75 1376.3,-102.57 1421.85,-89.91 1457.66,-82.1"/>
<polygon fill="#63b8ff" stroke="#63b8ff" points="1458.38,-85.53 1467.45,-80.04 1456.94,-78.68 1458.38,-85.53"/>
</a>
</g>
</g>
<!-- Node10 -->
<g id="Node000010" class="node">
<title>Node10</title>
<g id="a_Node000010"><a xlink:href="../../de/dfd/Value_8hpp.html" target="_top" xlink:title="Default value type handled by the virtual machine.">
<polygon fill="white" stroke="#666666" points="642.38,-146.62 547.62,-146.62 547.62,-127.38 642.38,-127.38 642.38,-146.62"/>
<text text-anchor="middle" x="595" y="-133.12" font-family="Helvetica,sans-Serif" font-size="10.00">Ark/VM/Value.hpp</text>
</a>
</g>
</g>
<!-- Node1&#45;&gt;Node10 -->
<g id="edge9_Node000001_Node000010" class="edge">
<title>Node1&#45;&gt;Node10</title>
<g id="a_edge9_Node000001_Node000010"><a xlink:title=" ">
<path fill="none" stroke="#63b8ff" d="M1039.32,-199.94C942.69,-186.47 751.18,-159.77 654.21,-146.25"/>
<polygon fill="#63b8ff" stroke="#63b8ff" points="654.75,-142.8 644.37,-144.88 653.79,-149.73 654.75,-142.8"/>
</a>
</g>
</g>
<!-- Node18 -->
<g id="Node000018" class="node">
<title>Node18</title>
<g id="a_Node000018"><a xlink:href="../../da/dcf/Procedure_8hpp.html" target="_top" xlink:title="Wrapper object for user&#45;defined functions.">
<polygon fill="white" stroke="#666666" points="142,-80.12 0,-80.12 0,-60.88 142,-60.88 142,-80.12"/>
<text text-anchor="middle" x="71" y="-66.62" font-family="Helvetica,sans-Serif" font-size="10.00">Ark/VM/Value/Procedure.hpp</text>
</a>
</g>
</g>
<!-- Node1&#45;&gt;Node18 -->
<g id="edge28_Node000001_Node000018" class="edge">
<title>Node1&#45;&gt;Node18</title>
<g id="a_edge28_Node000001_Node000018"><a xlink:title=" ">
<path fill="none" stroke="#63b8ff" d="M1039.13,-206.98C845.59,-202.87 236.73,-187.29 156,-152.25 125,-138.79 98.45,-108.82 83.62,-89.42"/>
<polygon fill="#63b8ff" stroke="#63b8ff" points="86.62,-87.58 77.87,-81.6 80.98,-91.73 86.62,-87.58"/>
</a>
</g>
</g>
<!-- Node20 -->
<g id="Node000020" class="node">
<title>Node20</title>
<g id="a_Node000020"><a xlink:href="../../d8/ddd/Common_8hpp.html" target="_top" xlink:title="Common code for the compiler.">
<polygon fill="white" stroke="#666666" points="1292.25,-146.62 1157.75,-146.62 1157.75,-127.38 1292.25,-127.38 1292.25,-146.62"/>
<text text-anchor="middle" x="1225" y="-133.12" font-family="Helvetica,sans-Serif" font-size="10.00">Ark/Compiler/Common.hpp</text>
</a>
</g>
</g>
<!-- Node1&#45;&gt;Node20 -->
<g id="edge29_Node000001_Node000020" class="edge">
<title>Node1&#45;&gt;Node20</title>
<g id="a_edge29_Node000001_Node000020"><a xlink:title=" ">
<path fill="none" stroke="#63b8ff" d="M1134.73,-187.84C1155.19,-176.55 1180.18,-162.75 1198.67,-152.54"/>
<polygon fill="#63b8ff" stroke="#63b8ff" points="1200.34,-155.61 1207.4,-147.72 1196.96,-149.49 1200.34,-155.61"/>
</a>
</g>
</g>
<!-- Node21 -->
<g id="Node000021" class="node">
<title>Node21</title>
<g id="a_Node000021"><a xlink:href="../../d2/de9/Exceptions_8hpp.html" target="_top" xlink:title="ArkScript homemade exceptions.">
<polygon fill="white" stroke="#666666" points="1080.75,-146.62 979.25,-146.62 979.25,-127.38 1080.75,-127.38 1080.75,-146.62"/>
<text text-anchor="middle" x="1030" y="-133.12" font-family="Helvetica,sans-Serif" font-size="10.00">Ark/Exceptions.hpp</text>
</a>
</g>
</g>
<!-- Node1&#45;&gt;Node21 -->
<g id="edge35_Node000001_Node000021" class="edge">
<title>Node1&#45;&gt;Node21</title>
<g id="a_edge35_Node000001_Node000021"><a xlink:title=" ">
<path fill="none" stroke="#63b8ff" d="M1078.33,-187.84C1068.24,-177.44 1056.09,-164.9 1046.49,-155.01"/>
<polygon fill="#63b8ff" stroke="#63b8ff" points="1049.06,-152.63 1039.59,-147.89 1044.04,-157.5 1049.06,-152.63"/>
</a>
</g>
</g>
<!-- Node28 -->
<g id="Node000028" class="node">
<title>Node28</title>
<g id="a_Node000028"><a xlink:href="../../d5/d3a/InstLoc_8hpp.html" target="_top" xlink:title=" ">
<polygon fill="white" stroke="#666666" points="1697,-152.25 1561,-152.25 1561,-121.75 1697,-121.75 1697,-152.25"/>
<text text-anchor="start" x="1569" y="-138.75" font-family="Helvetica,sans-Serif" font-size="10.00">Ark/Compiler/Intermediate</text>
<text text-anchor="middle" x="1629" y="-127.5" font-family="Helvetica,sans-Serif" font-size="10.00">Representation/InstLoc.hpp</text>
</a>
</g>
</g>
<!-- Node1&#45;&gt;Node28 -->
<g id="edge48_Node000001_Node000028" class="edge">
<title>Node1&#45;&gt;Node28</title>
<g id="a_edge48_Node000001_Node000028"><a xlink:title=" ">
<path fill="none" stroke="#63b8ff" d="M1157.11,-200.32C1252.93,-187.66 1442.24,-162.66 1549.68,-148.48"/>
<polygon fill="#63b8ff" stroke="#63b8ff" points="1549.81,-151.99 1559.27,-147.21 1548.89,-145.05 1549.81,-151.99"/>
</a>
</g>
</g>
<!-- Node7 -->
<g id="Node000007" class="node">
<title>Node7</title>
<g id="a_Node000007"><a xlink:title=" ">
<polygon fill="#e0e0e0" stroke="#999999" points="1626.75,-19.25 1561.25,-19.25 1561.25,0 1626.75,0 1626.75,-19.25"/>
<text text-anchor="middle" x="1594" y="-5.75" font-family="Helvetica,sans-Serif" font-size="10.00">string_view</text>
</a>
</g>
</g>
<!-- Node6&#45;&gt;Node7 -->
<g id="edge6_Node000006_Node000007" class="edge">
<title>Node6&#45;&gt;Node7</title>
<g id="a_edge6_Node000006_Node000007"><a xlink:title=" ">
<path fill="none" stroke="#63b8ff" d="M1529.54,-60.56C1541.15,-51.57 1559.29,-37.51 1573.38,-26.6"/>
<polygon fill="#63b8ff" stroke="#63b8ff" points="1575.39,-29.47 1581.15,-20.58 1571.1,-23.94 1575.39,-29.47"/>
</a>
</g>
</g>
<!-- Node8 -->
<g id="Node000008" class="node">
<title>Node8</title>
<g id="a_Node000008"><a xlink:title=" ">
<polygon fill="#e0e0e0" stroke="#999999" points="1104.88,-19.25 1049.12,-19.25 1049.12,0 1104.88,0 1104.88,-19.25"/>
<text text-anchor="middle" x="1077" y="-5.75" font-family="Helvetica,sans-Serif" font-size="10.00">cinttypes</text>
</a>
</g>
</g>
<!-- Node6&#45;&gt;Node8 -->
<g id="edge7_Node000006_Node000008" class="edge">
<title>Node6&#45;&gt;Node8</title>
<g id="a_edge7_Node000006_Node000008"><a xlink:title=" ">
<path fill="none" stroke="#63b8ff" d="M1468.69,-62C1453.71,-59.77 1437.19,-57.36 1422,-55.25 1311.34,-39.88 1180.46,-23.42 1116.37,-15.47"/>
<polygon fill="#63b8ff" stroke="#63b8ff" points="1117.05,-12.03 1106.7,-14.28 1116.19,-18.98 1117.05,-12.03"/>
</a>
</g>
</g>
<!-- Node9 -->
<g id="Node000009" class="node">
<title>Node9</title>
<g id="a_Node000009"><a xlink:title=" ">
<polygon fill="#e0e0e0" stroke="#999999" points="1542.12,-19.25 1493.88,-19.25 1493.88,0 1542.12,0 1542.12,-19.25"/>
<text text-anchor="middle" x="1518" y="-5.75" font-family="Helvetica,sans-Serif" font-size="10.00">cstddef</text>
</a>
</g>
</g>
<!-- Node6&#45;&gt;Node9 -->
<g id="edge8_Node000006_Node000009" class="edge">
<title>Node6&#45;&gt;Node9</title>
<g id="a_edge8_Node000006_Node000009"><a xlink:title=" ">
<path fill="none" stroke="#63b8ff" d="M1518,-60.56C1518,-52.78 1518,-41.2 1518,-31.16"/>
<polygon fill="#63b8ff" stroke="#63b8ff" points="1521.5,-31.16 1518,-21.16 1514.5,-31.16 1521.5,-31.16"/>
</a>
</g>
</g>
<!-- Node10&#45;&gt;Node2 -->
<g id="edge12_Node000010_Node000002" class="edge">
<title>Node10&#45;&gt;Node2</title>
<g id="a_edge12_Node000010_Node000002"><a xlink:title=" ">
<path fill="none" stroke="#63b8ff" d="M636.69,-126.89C669.08,-118.81 714.48,-105.25 751,-85.75 780.85,-69.81 810.72,-44.22 828.78,-27.41"/>
<polygon fill="#63b8ff" stroke="#63b8ff" points="831.15,-29.99 835.99,-20.57 826.33,-24.91 831.15,-29.99"/>
</a>
</g>
</g>
<!-- Node10&#45;&gt;Node3 -->
<g id="edge10_Node000010_Node000003" class="edge">
<title>Node10&#45;&gt;Node3</title>
<g id="a_edge10_Node000010_Node000003"><a xlink:title=" ">
<path fill="none" stroke="#63b8ff" d="M547.33,-133.98C464.97,-129.68 300.3,-117.31 253,-85.75 233.38,-72.65 221.01,-47.83 214.31,-30.31"/>
<polygon fill="#63b8ff" stroke="#63b8ff" points="217.66,-29.29 211.06,-21.01 211.05,-31.6 217.66,-29.29"/>
</a>
</g>
</g>
<!-- Node10&#45;&gt;Node8 -->
<g id="edge13_Node000010_Node000008" class="edge">
<title>Node10&#45;&gt;Node8</title>
<g id="a_edge13_Node000010_Node000008"><a xlink:title=" ">
<path fill="none" stroke="#63b8ff" d="M630.05,-126.88C717.72,-104.08 946.03,-44.69 1037.88,-20.8"/>
<polygon fill="#63b8ff" stroke="#63b8ff" points="1038.64,-24.22 1047.43,-18.32 1036.87,-17.45 1038.64,-24.22"/>
</a>
</g>
</g>
<!-- Node11 -->
<g id="Node000011" class="node">
<title>Node11</title>
<g id="a_Node000011"><a xlink:title=" ">
<polygon fill="#e0e0e0" stroke="#999999" points="319.62,-80.12 274.38,-80.12 274.38,-60.88 319.62,-60.88 319.62,-80.12"/>
<text text-anchor="middle" x="297" y="-66.62" font-family="Helvetica,sans-Serif" font-size="10.00">variant</text>
</a>
</g>
</g>
<!-- Node10&#45;&gt;Node11 -->
<g id="edge11_Node000010_Node000011" class="edge">
<title>Node10&#45;&gt;Node11</title>
<g id="a_edge11_Node000010_Node000011"><a xlink:title=" ">
<path fill="none" stroke="#63b8ff" d="M547.25,-129.41C494.46,-121.53 407.2,-106.71 334,-85.75 332.43,-85.3 330.83,-84.81 329.22,-84.29"/>
<polygon fill="#63b8ff" stroke="#63b8ff" points="330.72,-81.11 320.12,-81.09 328.39,-87.71 330.72,-81.11"/>
</a>
</g>
</g>
<!-- Node12 -->
<g id="Node000012" class="node">
<title>Node12</title>
<g id="a_Node000012"><a xlink:title=" ">
<polygon fill="#e0e0e0" stroke="#999999" points="1344.88,-19.25 1307.12,-19.25 1307.12,0 1344.88,0 1344.88,-19.25"/>
<text text-anchor="middle" x="1326" y="-5.75" font-family="Helvetica,sans-Serif" font-size="10.00">array</text>
</a>
</g>
</g>
<!-- Node10&#45;&gt;Node12 -->
<g id="edge14_Node000010_Node000012" class="edge">
<title>Node10&#45;&gt;Node12</title>
<g id="a_edge14_Node000010_Node000012"><a xlink:title=" ">
<path fill="none" stroke="#63b8ff" d="M642.49,-127.71C695.11,-118.33 782.38,-102.22 857,-85.75 911.58,-73.7 924.08,-65.61 979,-55.25 1094.87,-33.39 1234.54,-19.02 1295.29,-13.36"/>
<polygon fill="#63b8ff" stroke="#63b8ff" points="1295.55,-16.85 1305.18,-12.45 1294.91,-9.88 1295.55,-16.85"/>
</a>
</g>
</g>
<!-- Node13 -->
<g id="Node000013" class="node">
<title>Node13</title>
<g id="a_Node000013"><a xlink:href="../../dc/dd5/Closure_8hpp.html" target="_top" xlink:title="Subtype of the value type, handling closures.">
<polygon fill="white" stroke="#666666" points="583.75,-80.12 452.25,-80.12 452.25,-60.88 583.75,-60.88 583.75,-80.12"/>
<text text-anchor="middle" x="518" y="-66.62" font-family="Helvetica,sans-Serif" font-size="10.00">Ark/VM/Value/Closure.hpp</text>
</a>
</g>
</g>
<!-- Node10&#45;&gt;Node13 -->
<g id="edge15_Node000010_Node000013" class="edge">
<title>Node10&#45;&gt;Node13</title>
<g id="a_edge15_Node000010_Node000013"><a xlink:title=" ">
<path fill="none" stroke="#63b8ff" d="M584.29,-127.03C572.11,-116.83 551.98,-99.96 537.09,-87.49"/>
<polygon fill="#63b8ff" stroke="#63b8ff" points="539.69,-85.1 529.78,-81.36 535.19,-90.47 539.69,-85.1"/>
</a>
</g>
</g>
<!-- Node16 -->
<g id="Node000016" class="node">
<title>Node16</title>
<g id="a_Node000016"><a xlink:href="../../d5/d40/Platform_8hpp.html" target="_top" xlink:title="ArkScript configuration macros.">
<polygon fill="white" stroke="#666666" points="471.75,-19.25 382.25,-19.25 382.25,0 471.75,0 471.75,-19.25"/>
<text text-anchor="middle" x="427" y="-5.75" font-family="Helvetica,sans-Serif" font-size="10.00">Ark/Platform.hpp</text>
</a>
</g>
</g>
<!-- Node10&#45;&gt;Node16 -->
<g id="edge27_Node000010_Node000016" class="edge">
<title>Node10&#45;&gt;Node16</title>
<g id="a_edge27_Node000010_Node000016"><a xlink:title=" ">
<path fill="none" stroke="#63b8ff" d="M547.34,-136.02C464.85,-134.94 300.83,-127.45 265,-85.75 231.07,-46.26 311.36,-26.26 370.62,-17.16"/>
<polygon fill="#63b8ff" stroke="#63b8ff" points="370.89,-20.66 380.29,-15.75 369.89,-13.73 370.89,-20.66"/>
</a>
</g>
</g>
<!-- Node17 -->
<g id="Node000017" class="node">
<title>Node17</title>
<g id="a_Node000017"><a xlink:href="../../dc/d3d/UserType_8hpp.html" target="_top" xlink:title="Subtype of the value, capable of handling any C++ type.">
<polygon fill="white" stroke="#666666" points="741.88,-80.12 602.12,-80.12 602.12,-60.88 741.88,-60.88 741.88,-80.12"/>
<text text-anchor="middle" x="672" y="-66.62" font-family="Helvetica,sans-Serif" font-size="10.00">Ark/VM/Value/UserType.hpp</text>
</a>
</g>
</g>
<!-- Node10&#45;&gt;Node17 -->
<g id="edge20_Node000010_Node000017" class="edge">
<title>Node10&#45;&gt;Node17</title>
<g id="a_edge20_Node000010_Node000017"><a xlink:title=" ">
<path fill="none" stroke="#63b8ff" d="M605.71,-127.03C617.89,-116.83 638.02,-99.96 652.91,-87.49"/>
<polygon fill="#63b8ff" stroke="#63b8ff" points="654.81,-90.47 660.22,-81.36 650.31,-85.1 654.81,-90.47"/>
</a>
</g>
</g>
<!-- Node10&#45;&gt;Node18 -->
<g id="edge24_Node000010_Node000018" class="edge">
<title>Node10&#45;&gt;Node18</title>
<g id="a_edge24_Node000010_Node000018"><a xlink:title=" ">
<path fill="none" stroke="#63b8ff" d="M547.57,-130.16C458.31,-119.17 264.35,-95.3 153.35,-81.64"/>
<polygon fill="#63b8ff" stroke="#63b8ff" points="154.07,-78.2 143.72,-80.45 153.22,-85.15 154.07,-78.2"/>
</a>
</g>
</g>
<!-- Node13&#45;&gt;Node2 -->
<g id="edge18_Node000013_Node000002" class="edge">
<title>Node13&#45;&gt;Node2</title>
<g id="a_edge18_Node000013_Node000002"><a xlink:title=" ">
<path fill="none" stroke="#63b8ff" d="M565.19,-60.44C574.41,-58.69 584,-56.9 593,-55.25 672.67,-40.65 766.63,-24.31 814.51,-16.04"/>
<polygon fill="#63b8ff" stroke="#63b8ff" points="814.9,-19.53 824.16,-14.38 813.71,-12.63 814.9,-19.53"/>
</a>
</g>
</g>
<!-- Node14 -->
<g id="Node000014" class="node">
<title>Node14</title>
<g id="a_Node000014"><a xlink:title=" ">
<polygon fill="#e0e0e0" stroke="#999999" points="543.62,-19.25 492.38,-19.25 492.38,0 543.62,0 543.62,-19.25"/>
<text text-anchor="middle" x="518" y="-5.75" font-family="Helvetica,sans-Serif" font-size="10.00">memory</text>
</a>
</g>
</g>
<!-- Node13&#45;&gt;Node14 -->
<g id="edge16_Node000013_Node000014" class="edge">
<title>Node13&#45;&gt;Node14</title>
<g id="a_edge16_Node000013_Node000014"><a xlink:title=" ">
<path fill="none" stroke="#63b8ff" d="M518,-60.56C518,-52.78 518,-41.2 518,-31.16"/>
<polygon fill="#63b8ff" stroke="#63b8ff" points="521.5,-31.16 518,-21.16 514.5,-31.16 521.5,-31.16"/>
</a>
</g>
</g>
<!-- Node15 -->
<g id="Node000015" class="node">
<title>Node15</title>
<g id="a_Node000015"><a xlink:title=" ">
<polygon fill="#e0e0e0" stroke="#999999" points="698.75,-19.25 645.25,-19.25 645.25,0 698.75,0 698.75,-19.25"/>
<text text-anchor="middle" x="672" y="-5.75" font-family="Helvetica,sans-Serif" font-size="10.00">iostream</text>
</a>
</g>
</g>
<!-- Node13&#45;&gt;Node15 -->
<g id="edge17_Node000013_Node000015" class="edge">
<title>Node13&#45;&gt;Node15</title>
<g id="a_edge17_Node000013_Node000015"><a xlink:title=" ">
<path fill="none" stroke="#63b8ff" d="M541.73,-60.43C567.39,-50.62 608.53,-34.89 637.71,-23.73"/>
<polygon fill="#63b8ff" stroke="#63b8ff" points="638.74,-27.09 646.83,-20.25 636.24,-20.55 638.74,-27.09"/>
</a>
</g>
</g>
<!-- Node13&#45;&gt;Node16 -->
<g id="edge19_Node000013_Node000016" class="edge">
<title>Node13&#45;&gt;Node16</title>
<g id="a_edge19_Node000013_Node000016"><a xlink:title=" ">
<path fill="none" stroke="#63b8ff" d="M504.18,-60.56C489.88,-51.31 467.3,-36.7 450.25,-25.67"/>
<polygon fill="#63b8ff" stroke="#63b8ff" points="452.52,-22.97 442.22,-20.47 448.72,-28.84 452.52,-22.97"/>
</a>
</g>
</g>
<!-- Node17&#45;&gt;Node8 -->
<g id="edge22_Node000017_Node000008" class="edge">
<title>Node17&#45;&gt;Node8</title>
<g id="a_edge22_Node000017_Node000008"><a xlink:title=" ">
<path fill="none" stroke="#63b8ff" d="M734.39,-60.43C818.89,-48.15 967.22,-26.58 1037.68,-16.34"/>
<polygon fill="#63b8ff" stroke="#63b8ff" points="1037.81,-19.86 1047.21,-14.96 1036.81,-12.93 1037.81,-19.86"/>
</a>
</g>
</g>
<!-- Node17&#45;&gt;Node15 -->
<g id="edge21_Node000017_Node000015" class="edge">
<title>Node17&#45;&gt;Node15</title>
<g id="a_edge21_Node000017_Node000015"><a xlink:title=" ">
<path fill="none" stroke="#63b8ff" d="M672,-60.56C672,-52.78 672,-41.2 672,-31.16"/>
<polygon fill="#63b8ff" stroke="#63b8ff" points="675.5,-31.16 672,-21.16 668.5,-31.16 675.5,-31.16"/>
</a>
</g>
</g>
<!-- Node17&#45;&gt;Node16 -->
<g id="edge23_Node000017_Node000016" class="edge">
<title>Node17&#45;&gt;Node16</title>
<g id="a_edge23_Node000017_Node000016"><a xlink:title=" ">
<path fill="none" stroke="#63b8ff" d="M634.26,-60.43C591.72,-50.21 522.45,-33.56 475.83,-22.36"/>
<polygon fill="#63b8ff" stroke="#63b8ff" points="476.8,-18.99 466.26,-20.06 475.16,-25.8 476.8,-18.99"/>
</a>
</g>
</g>
<!-- Node18&#45;&gt;Node3 -->
<g id="edge26_Node000018_Node000003" class="edge">
<title>Node18&#45;&gt;Node3</title>
<g id="a_edge26_Node000018_Node000003"><a xlink:title=" ">
<path fill="none" stroke="#63b8ff" d="M92.11,-60.43C114.7,-50.72 150.78,-35.21 176.69,-24.08"/>
<polygon fill="#63b8ff" stroke="#63b8ff" points="177.9,-27.37 185.7,-20.21 175.13,-20.94 177.9,-27.37"/>
</a>
</g>
</g>
<!-- Node19 -->
<g id="Node000019" class="node">
<title>Node19</title>
<g id="a_Node000019"><a xlink:title=" ">
<polygon fill="#e0e0e0" stroke="#999999" points="100,-19.25 42,-19.25 42,0 100,0 100,-19.25"/>
<text text-anchor="middle" x="71" y="-5.75" font-family="Helvetica,sans-Serif" font-size="10.00">functional</text>
</a>
</g>
</g>
<!-- Node18&#45;&gt;Node19 -->
<g id="edge25_Node000018_Node000019" class="edge">
<title>Node18&#45;&gt;Node19</title>
<g id="a_edge25_Node000018_Node000019"><a xlink:title=" ">
<path fill="none" stroke="#63b8ff" d="M71,-60.56C71,-52.78 71,-41.2 71,-31.16"/>
<polygon fill="#63b8ff" stroke="#63b8ff" points="74.5,-31.16 71,-21.16 67.5,-31.16 74.5,-31.16"/>
</a>
</g>
</g>
<!-- Node20&#45;&gt;Node3 -->
<g id="edge32_Node000020_Node000003" class="edge">
<title>Node20&#45;&gt;Node3</title>
<g id="a_edge32_Node000020_Node000003"><a xlink:title=" ">
<path fill="none" stroke="#63b8ff" d="M1157.42,-128.2C1135.89,-125.9 1111.96,-123.52 1090,-121.75 802.93,-98.63 724.55,-146.35 443,-85.75 406.21,-77.83 399.68,-67.22 364,-55.25 321.9,-41.13 272.49,-27.48 240.74,-19.07"/>
<polygon fill="#63b8ff" stroke="#63b8ff" points="241.92,-15.76 231.36,-16.61 240.14,-22.53 241.92,-15.76"/>
</a>
</g>
</g>
<!-- Node20&#45;&gt;Node6 -->
<g id="edge34_Node000020_Node000006" class="edge">
<title>Node20&#45;&gt;Node6</title>
<g id="a_edge34_Node000020_Node000006"><a xlink:title=" ">
<path fill="none" stroke="#63b8ff" d="M1266.99,-126.92C1313.11,-116.93 1389.37,-100.34 1455,-85.75 1458.84,-84.9 1462.81,-84.01 1466.8,-83.11"/>
<polygon fill="#63b8ff" stroke="#63b8ff" points="1467.55,-86.53 1476.54,-80.92 1466.02,-79.7 1467.55,-86.53"/>
</a>
</g>
</g>
<!-- Node20&#45;&gt;Node7 -->
<g id="edge31_Node000020_Node000007" class="edge">
<title>Node20&#45;&gt;Node7</title>
<g id="a_edge31_Node000020_Node000007"><a xlink:title=" ">
<path fill="none" stroke="#63b8ff" d="M1292.66,-127.28C1393.19,-114.2 1570.79,-90.5 1576,-85.75 1591.08,-72.01 1594.6,-48.06 1594.96,-30.9"/>
<polygon fill="#63b8ff" stroke="#63b8ff" points="1598.47,-31.06 1594.81,-21.12 1591.47,-31.18 1598.47,-31.06"/>
</a>
</g>
</g>
<!-- Node20&#45;&gt;Node8 -->
<g id="edge33_Node000020_Node000008" class="edge">
<title>Node20&#45;&gt;Node8</title>
<g id="a_edge33_Node000020_Node000008"><a xlink:title=" ">
<path fill="none" stroke="#63b8ff" d="M1232.53,-127.06C1245.03,-111.1 1267.08,-77.29 1250,-55.25 1233.79,-34.33 1162.32,-21.47 1116.47,-15.22"/>
<polygon fill="#63b8ff" stroke="#63b8ff" points="1117,-11.76 1106.63,-13.94 1116.09,-18.7 1117,-11.76"/>
</a>
</g>
</g>
<!-- Node20&#45;&gt;Node12 -->
<g id="edge30_Node000020_Node000012" class="edge">
<title>Node20&#45;&gt;Node12</title>
<g id="a_edge30_Node000020_Node000012"><a xlink:title=" ">
<path fill="none" stroke="#63b8ff" d="M1273.16,-126.9C1328.45,-115.98 1412.77,-97.63 1422,-85.75 1430.32,-75.05 1429.29,-66.68 1422,-55.25 1414.38,-43.3 1381.12,-29.56 1355.86,-20.52"/>
<polygon fill="#63b8ff" stroke="#63b8ff" points="1357.31,-17.32 1346.71,-17.33 1355.01,-23.93 1357.31,-17.32"/>
</a>
</g>
</g>
<!-- Node21&#45;&gt;Node2 -->
<g id="edge36_Node000021_Node000002" class="edge">
<title>Node21&#45;&gt;Node2</title>
<g id="a_edge36_Node000021_Node000002"><a xlink:title=" ">
<path fill="none" stroke="#63b8ff" d="M1016.77,-126.98C985.6,-105.75 907.3,-52.39 868.51,-25.96"/>
<polygon fill="#63b8ff" stroke="#63b8ff" points="870.6,-23.15 860.36,-20.41 866.66,-28.94 870.6,-23.15"/>
</a>
</g>
</g>
<!-- Node21&#45;&gt;Node3 -->
<g id="edge38_Node000021_Node000003" class="edge">
<title>Node21&#45;&gt;Node3</title>
<g id="a_edge38_Node000021_Node000003"><a xlink:title=" ">
<path fill="none" stroke="#63b8ff" d="M978.86,-133.67C834.14,-126.86 428.5,-106.16 372,-85.75 349.96,-77.79 349.73,-66.18 329,-55.25 300.32,-40.13 265.36,-27.84 240.41,-20.01"/>
<polygon fill="#63b8ff" stroke="#63b8ff" points="241.75,-16.76 231.16,-17.18 239.7,-23.45 241.75,-16.76"/>
</a>
</g>
</g>
<!-- Node21&#45;&gt;Node15 -->
<g id="edge42_Node000021_Node000015" class="edge">
<title>Node21&#45;&gt;Node15</title>
<g id="a_edge42_Node000021_Node000015"><a xlink:title=" ">
<path fill="none" stroke="#63b8ff" d="M1003.97,-126.88C941.19,-104.9 781.34,-48.92 708.8,-23.51"/>
<polygon fill="#63b8ff" stroke="#63b8ff" points="709.96,-20.21 699.37,-20.21 707.65,-26.82 709.96,-20.21"/>
</a>
</g>
</g>
<!-- Node21&#45;&gt;Node16 -->
<g id="edge47_Node000021_Node000016" class="edge">
<title>Node21&#45;&gt;Node16</title>
<g id="a_edge47_Node000021_Node000016"><a xlink:title=" ">
<path fill="none" stroke="#63b8ff" d="M979.06,-135.05C843.72,-132.07 482.78,-120.86 443,-85.75 427.79,-72.32 425.01,-48.32 425.25,-31.06"/>
<polygon fill="#63b8ff" stroke="#63b8ff" points="428.74,-31.37 425.77,-21.2 421.75,-31 428.74,-31.37"/>
</a>
</g>
</g>
<!-- Node22 -->
<g id="Node000022" class="node">
<title>Node22</title>
<g id="a_Node000022"><a xlink:title=" ">
<polygon fill="#e0e0e0" stroke="#999999" points="1096.62,-80.12 1057.38,-80.12 1057.38,-60.88 1096.62,-60.88 1096.62,-80.12"/>
<text text-anchor="middle" x="1077" y="-66.62" font-family="Helvetica,sans-Serif" font-size="10.00">utility</text>
</a>
</g>
</g>
<!-- Node21&#45;&gt;Node22 -->
<g id="edge37_Node000021_Node000022" class="edge">
<title>Node21&#45;&gt;Node22</title>
<g id="a_edge37_Node000021_Node000022"><a xlink:title=" ">
<path fill="none" stroke="#63b8ff" d="M1036.54,-127.03C1043.55,-117.4 1054.88,-101.85 1063.78,-89.65"/>
<polygon fill="#63b8ff" stroke="#63b8ff" points="1066.57,-91.76 1069.63,-81.62 1060.91,-87.64 1066.57,-91.76"/>
</a>
</g>
</g>
<!-- Node23 -->
<g id="Node000023" class="node">
<title>Node23</title>
<g id="a_Node000023"><a xlink:title=" ">
<polygon fill="#e0e0e0" stroke="#999999" points="1173.38,-80.12 1114.62,-80.12 1114.62,-60.88 1173.38,-60.88 1173.38,-80.12"/>
<text text-anchor="middle" x="1144" y="-66.62" font-family="Helvetica,sans-Serif" font-size="10.00">stdexcept</text>
</a>
</g>
</g>
<!-- Node21&#45;&gt;Node23 -->
<g id="edge39_Node000021_Node000023" class="edge">
<title>Node21&#45;&gt;Node23</title>
<g id="a_edge39_Node000021_Node000023"><a xlink:title=" ">
<path fill="none" stroke="#63b8ff" d="M1045.85,-127.03C1064.55,-116.45 1095.89,-98.72 1118.12,-86.14"/>
<polygon fill="#63b8ff" stroke="#63b8ff" points="1119.62,-89.32 1126.6,-81.35 1116.17,-83.22 1119.62,-89.32"/>
</a>
</g>
</g>
<!-- Node24 -->
<g id="Node000024" class="node">
<title>Node24</title>
<g id="a_Node000024"><a xlink:title=" ">
<polygon fill="#e0e0e0" stroke="#999999" points="1240.88,-80.12 1191.12,-80.12 1191.12,-60.88 1240.88,-60.88 1240.88,-80.12"/>
<text text-anchor="middle" x="1216" y="-66.62" font-family="Helvetica,sans-Serif" font-size="10.00">optional</text>
</a>
</g>
</g>
<!-- Node21&#45;&gt;Node24 -->
<g id="edge40_Node000021_Node000024" class="edge">
<title>Node21&#45;&gt;Node24</title>
<g id="a_edge40_Node000021_Node000024"><a xlink:title=" ">
<path fill="none" stroke="#63b8ff" d="M1059.66,-126.94C1090.47,-117.36 1139.96,-101.48 1182,-85.75 1182.94,-85.4 1183.9,-85.03 1184.86,-84.66"/>
<polygon fill="#63b8ff" stroke="#63b8ff" points="1185.86,-88.03 1193.84,-81.06 1183.26,-81.54 1185.86,-88.03"/>
</a>
</g>
</g>
<!-- Node25 -->
<g id="Node000025" class="node">
<title>Node25</title>
<g id="a_Node000025"><a xlink:title=" ">
<polygon fill="#e0e0e0" stroke="#999999" points="1039.62,-80.12 988.38,-80.12 988.38,-60.88 1039.62,-60.88 1039.62,-80.12"/>
<text text-anchor="middle" x="1014" y="-66.62" font-family="Helvetica,sans-Serif" font-size="10.00">ostream</text>
</a>
</g>
</g>
<!-- Node21&#45;&gt;Node25 -->
<g id="edge41_Node000021_Node000025" class="edge">
<title>Node21&#45;&gt;Node25</title>
<g id="a_edge41_Node000021_Node000025"><a xlink:title=" ">
<path fill="none" stroke="#63b8ff" d="M1027.78,-127.03C1025.51,-117.89 1021.91,-103.39 1018.96,-91.5"/>
<polygon fill="#63b8ff" stroke="#63b8ff" points="1022.38,-90.72 1016.57,-81.86 1015.58,-92.41 1022.38,-90.72"/>
</a>
</g>
</g>
<!-- Node26 -->
<g id="Node000026" class="node">
<title>Node26</title>
<g id="a_Node000026"><a xlink:href="../../db/d4e/utf8__char_8hpp.html" target="_top" xlink:title=" ">
<polygon fill="white" stroke="#666666" points="1412.5,-85.75 1297.5,-85.75 1297.5,-55.25 1412.5,-55.25 1412.5,-85.75"/>
<text text-anchor="start" x="1305.5" y="-72.25" font-family="Helvetica,sans-Serif" font-size="10.00">Ark/Compiler/AST/utf8</text>
<text text-anchor="middle" x="1355" y="-61" font-family="Helvetica,sans-Serif" font-size="10.00">_char.hpp</text>
</a>
</g>
</g>
<!-- Node21&#45;&gt;Node26 -->
<g id="edge43_Node000021_Node000026" class="edge">
<title>Node21&#45;&gt;Node26</title>
<g id="a_edge43_Node000021_Node000026"><a xlink:title=" ">
<path fill="none" stroke="#63b8ff" d="M1075.88,-126.9C1130.59,-116.04 1222.6,-97.78 1285.93,-85.21"/>
<polygon fill="#63b8ff" stroke="#63b8ff" points="1286.4,-88.68 1295.53,-83.3 1285.04,-81.82 1286.4,-88.68"/>
</a>
</g>
</g>
<!-- Node26&#45;&gt;Node2 -->
<g id="edge45_Node000026_Node000002" class="edge">
<title>Node26&#45;&gt;Node2</title>
<g id="a_edge45_Node000026_Node000002"><a xlink:title=" ">
<path fill="none" stroke="#63b8ff" d="M1297.27,-61.4C1281.91,-59.32 1265.34,-57.14 1250,-55.25 1111.25,-38.17 945.31,-20.8 877.35,-13.82"/>
<polygon fill="#63b8ff" stroke="#63b8ff" points="878.01,-10.37 867.7,-12.83 877.3,-17.33 878.01,-10.37"/>
</a>
</g>
</g>
<!-- Node26&#45;&gt;Node12 -->
<g id="edge44_Node000026_Node000012" class="edge">
<title>Node26&#45;&gt;Node12</title>
<g id="a_edge44_Node000026_Node000012"><a xlink:title=" ">
<path fill="none" stroke="#63b8ff" d="M1347.83,-54.95C1344.1,-47.36 1339.48,-37.99 1335.45,-29.82"/>
<polygon fill="#63b8ff" stroke="#63b8ff" points="1338.7,-28.48 1331.14,-21.06 1332.42,-31.58 1338.7,-28.48"/>
</a>
</g>
</g>
<!-- Node27 -->
<g id="Node000027" class="node">
<title>Node27</title>
<g id="a_Node000027"><a xlink:title=" ">
<polygon fill="#e0e0e0" stroke="#999999" points="1402.62,-19.25 1363.38,-19.25 1363.38,0 1402.62,0 1402.62,-19.25"/>
<text text-anchor="middle" x="1383" y="-5.75" font-family="Helvetica,sans-Serif" font-size="10.00">limits</text>
</a>
</g>
</g>
<!-- Node26&#45;&gt;Node27 -->
<g id="edge46_Node000026_Node000027" class="edge">
<title>Node26&#45;&gt;Node27</title>
<g id="a_edge46_Node000026_Node000027"><a xlink:title=" ">
<path fill="none" stroke="#63b8ff" d="M1361.92,-54.95C1365.49,-47.45 1369.89,-38.2 1373.74,-30.1"/>
<polygon fill="#63b8ff" stroke="#63b8ff" points="1376.9,-31.6 1378.03,-21.07 1370.58,-28.6 1376.9,-31.6"/>
</a>
</g>
</g>
<!-- Node29 -->
<g id="Node000029" class="node">
<title>Node29</title>
<g id="a_Node000029"><a xlink:title=" ">
<polygon fill="#e0e0e0" stroke="#999999" points="1668.62,-80.12 1623.38,-80.12 1623.38,-60.88 1668.62,-60.88 1668.62,-80.12"/>
<text text-anchor="middle" x="1646" y="-66.62" font-family="Helvetica,sans-Serif" font-size="10.00">cstdint</text>
</a>
</g>
</g>
<!-- Node28&#45;&gt;Node29 -->
<g id="edge49_Node000028_Node000029" class="edge">
<title>Node28&#45;&gt;Node29</title>
<g id="a_edge49_Node000028_Node000029"><a xlink:title=" ">
<path fill="none" stroke="#63b8ff" d="M1632.86,-121.36C1635.2,-112.48 1638.22,-101.02 1640.77,-91.33"/>
<polygon fill="#63b8ff" stroke="#63b8ff" points="1644.12,-92.35 1643.29,-81.79 1637.36,-90.56 1644.12,-92.35"/>
</a>
</g>
</g>
</g>
</svg>

<g id="navigator" transform="translate(0 0)" fill="#404254">
  <rect fill="#f2f5e9" fill-opacity="0.5" stroke="#606060" stroke-width=".5" x="0" y="0" width="60" height="60"/>
  <use id="zoomplus" xlink:href="#zoomPlus" x="17" y="9" onmousedown="handleZoom(evt,'in')"/>
  <use id="zoomminus" xlink:href="#zoomMin" x="42" y="9" onmousedown="handleZoom(evt,'out')"/>
  <use id="reset" xlink:href="#resetDef" x="30" y="36" onmousedown="handleReset()"/>
   <use id="arrowup" xlink:href="#arrowUp" x="0" y="0" onmousedown="handlePan(0,-1)"/>
  <use id="arrowright" xlink:href="#arrowRight" x="0" y="0" onmousedown="handlePan(1,0)"/>
  <use id="arrowdown" xlink:href="#arrowDown" x="0" y="0" onmousedown="handlePan(0,1)"/>
  <use id="arrowleft" xlink:href="#arrowLeft" x="0" y="0" onmousedown="handlePan(-1,0)"/>
</g>
<svg viewBox="0 0 15 15" width="100%" height="30px" preserveAspectRatio="xMaxYMin meet">
 <g id="arrow_out" transform="scale(0.3 0.3)">
  <a xlink:href="State_8hpp__incl_org.svg" target="_base">
   <rect id="button" ry="5" rx="5" y="6" x="6" height="38" width="38"
        fill="#f2f5e9" fill-opacity="0.5" stroke="#606060" stroke-width="1.0"/>
   <path id="arrow"
     d="M 11.500037,31.436501 C 11.940474,20.09759 22.043105,11.32322 32.158766,21.979434 L 37.068811,17.246167 C 37.068811,17.246167 37.088388,32 37.088388,32 L 22.160133,31.978069 C 22.160133,31.978069 26.997745,27.140456 26.997745,27.140456 C 18.528582,18.264221 13.291696,25.230495 11.500037,31.436501 z"
     style="fill:#404040;"/>
  </a>
 </g>
</svg>

<style type='text/css'>
<![CDATA[
[data-mouse-over-selected='false'] { opacity: 0.7; }
[data-mouse-over-selected='true']  { opacity: 1.0; }
]]>
</style>
<script type="application/ecmascript"><![CDATA[
document.addEventListener('DOMContentLoaded', (event) => {
  highlightEdges();
  highlightAdjacentNodes();
});
]]></script>
</svg>
