<?xml version="1.0" encoding="UTF-8" standalone="no"?>
<!DOCTYPE svg PUBLIC "-//W3C//DTD SVG 1.1//EN"
 "http://www.w3.org/Graphics/SVG/1.1/DTD/svg11.dtd">
<!-- Generated by graphviz version 12.2.0 (20241103.1931)
 -->
<!-- Title: Ark::internal::IROptimizer::Rule Pages: 1 -->
<svg width="138pt" height="238pt"
 viewBox="0.00 0.00 138.25 238.00" xmlns="http://www.w3.org/2000/svg" xmlns:xlink="http://www.w3.org/1999/xlink">
<g id="graph0" class="graph" transform="scale(1 1) rotate(0) translate(4 234)">
<title>Ark::internal::IROptimizer::Rule</title>
<!-- Node1 -->
<g id="Node000001" class="node">
<title>Node1</title>
<g id="a_Node000001"><a xlink:title=" ">
<polygon fill="#999999" stroke="#666666" points="127,-30.5 0,-30.5 0,0 127,0 127,-30.5"/>
<text text-anchor="start" x="8" y="-17" font-family="Helvetica,sans-Serif" font-size="10.00">Ark::internal::IROptimizer</text>
<text text-anchor="middle" x="63.5" y="-5.75" font-family="Helvetica,sans-Serif" font-size="10.00">::Rule</text>
</a>
</g>
</g>
<!-- Node2 -->
<g id="Node000002" class="node">
<title>Node2</title>
<g id="a_Node000002"><a xlink:title=" ">
<polygon fill="white" stroke="#666666" points="126.62,-97 0.38,-97 0.38,-77.75 126.62,-77.75 126.62,-97"/>
<text text-anchor="middle" x="63.5" y="-83.5" font-family="Helvetica,sans-Serif" font-size="10.00">std::vector&lt; Instruction &gt;</text>
</a>
</g>
</g>
<!-- Node2&#45;&gt;Node1 -->
<g id="edge1_Node000001_Node000002" class="edge">
<title>Node2&#45;&gt;Node1</title>
<g id="a_edge1_Node000001_Node000002"><a xlink:title=" ">
<path fill="none" stroke="#9a32cd" stroke-dasharray="5,2" d="M63.5,-66.17C63.5,-54.91 63.5,-41.14 63.5,-30.92"/>
<polygon fill="#9a32cd" stroke="#9a32cd" points="60,-65.98 63.5,-75.98 67,-65.98 60,-65.98"/>
</a>
</g>
<text text-anchor="middle" x="84.88" y="-50.25" font-family="Helvetica,sans-Serif" font-size="10.00" fill="grey"> expected</text>
</g>
<!-- Node3 -->
<g id="Node000003" class="node">
<title>Node3</title>
<g id="a_Node000003"><a xlink:title=" ">
<polygon fill="white" stroke="#666666" points="106.75,-163.5 20.25,-163.5 20.25,-144.25 106.75,-144.25 106.75,-163.5"/>
<text text-anchor="middle" x="63.5" y="-150" font-family="Helvetica,sans-Serif" font-size="10.00">std::vector&lt; T &gt;</text>
</a>
</g>
</g>
<!-- Node3&#45;&gt;Node2 -->
<g id="edge2_Node000002_Node000003" class="edge">
<title>Node3&#45;&gt;Node2</title>
<g id="a_edge2_Node000002_Node000003"><a xlink:title=" ">
<path fill="none" stroke="orange" stroke-dasharray="5,2" d="M63.5,-132.4C63.5,-120.57 63.5,-106.29 63.5,-97.27"/>
<polygon fill="orange" stroke="orange" points="60,-132.39 63.5,-142.39 67,-132.39 60,-132.39"/>
</a>
</g>
<text text-anchor="middle" x="96.88" y="-116.75" font-family="Helvetica,sans-Serif" font-size="10.00" fill="grey"> &lt; Instruction &gt;</text>
</g>
<!-- Node4 -->
<g id="Node000004" class="node">
<title>Node4</title>
<g id="a_Node000004"><a xlink:title=" ">
<polygon fill="white" stroke="#666666" points="77.9,-230 49.1,-230 49.1,-210.75 77.9,-210.75 77.9,-230"/>
<text text-anchor="middle" x="63.5" y="-216.5" font-family="Helvetica,sans-Serif" font-size="10.00">T</text>
</a>
</g>
</g>
<!-- Node4&#45;&gt;Node3 -->
<g id="edge3_Node000003_Node000004" class="edge">
<title>Node4&#45;&gt;Node3</title>
<g id="a_edge3_Node000003_Node000004"><a xlink:title=" ">
<path fill="none" stroke="#9a32cd" stroke-dasharray="5,2" d="M63.5,-198.9C63.5,-187.07 63.5,-172.79 63.5,-163.77"/>
<polygon fill="#9a32cd" stroke="#9a32cd" points="60,-198.89 63.5,-208.89 67,-198.89 60,-198.89"/>
</a>
</g>
<text text-anchor="middle" x="84.88" y="-183.25" font-family="Helvetica,sans-Serif" font-size="10.00" fill="grey"> elements</text>
</g>
</g>
</svg>
