<?xml version="1.0" encoding="UTF-8" standalone="no"?>
<!DOCTYPE svg PUBLIC "-//W3C//DTD SVG 1.1//EN"
 "http://www.w3.org/Graphics/SVG/1.1/DTD/svg11.dtd">
<!-- Generated by graphviz version 12.2.0 (20241103.1931)
 -->
<!-- Title: /Users/fola/Documents/ArkScript/Ark/src/arkreactor/VM/Value/ClosureScope.cpp Pages: 1 -->
<!--zoomable 271 -->

<svg id="main" version="1.1" xmlns="http://www.w3.org/2000/svg" xmlns:xlink="http://www.w3.org/1999/xlink" xml:space="preserve" onload="init(evt)">

<style type="text/css"><![CDATA[
.node, .edge {opacity: 0.7;}
.node.selected, .edge.selected {opacity: 1;}
.edge:hover path { stroke: red; }
.edge:hover polygon { stroke: red; fill: red; }
]]></style>

<defs>
  <circle id="rim" cx="0" cy="0" r="7"/>
  <circle id="rim2" cx="0" cy="0" r="3.5"/>
  <g id="zoomPlus">
    <use xlink:href="#rim" fill="#404040"><set attributeName="fill" to="#808080" begin="zoomplus.mouseover" end="zoomplus.mouseout"/></use>
    <path d="M-4,0h8M0,-4v8" fill="none" stroke="white" stroke-width="1.5" pointer-events="none"/>
  </g>
  <g id="zoomMin">
    <use xlink:href="#rim" fill="#404040"><set attributeName="fill" to="#808080" begin="zoomminus.mouseover" end="zoomminus.mouseout"/></use>
    <path d="M-4,0h8" fill="none" stroke="white" stroke-width="1.5" pointer-events="none"/>
  </g>
  <g id="arrowUp" transform="translate(30 24)">
    <use xlink:href="#rim"/>
    <path pointer-events="none" fill="none" stroke="white" stroke-width="1.5" d="M0,-3.0v7 M-2.5,-0.5L0,-3.0L2.5,-0.5"/>
  </g>
  <g id="arrowRight" transform="rotate(90) translate(36 -43)">
    <use xlink:href="#rim"/>
    <path pointer-events="none" fill="none" stroke="white" stroke-width="1.5" d="M0,-3.0v7 M-2.5,-0.5L0,-3.0L2.5,-0.5"/>
  </g>
  <g id="arrowDown" transform="rotate(180) translate(-30 -48)">
    <use xlink:href="#rim"/>
    <path pointer-events="none" fill="none" stroke="white" stroke-width="1.5" d="M0,-3.0v7 M-2.5,-0.5L0,-3.0L2.5,-0.5"/>
  </g>
  <g id="arrowLeft" transform="rotate(270) translate(-36 17)">
    <use xlink:href="#rim"/>
    <path pointer-events="none" fill="none" stroke="white" stroke-width="1.5" d="M0,-3.0v7 M-2.5,-0.5L0,-3.0L2.5,-0.5"/>
  </g>
  <g id="resetDef">
    <use xlink:href="#rim2" fill="#404040"><set attributeName="fill" to="#808080" begin="reset.mouseover" end="reset.mouseout"/></use>
  </g>
</defs>
<script type="application/ecmascript">
var viewWidth = 1011;
var viewHeight = 271;
var sectionId = 'dynsection-0';
</script>
<script type="application/ecmascript" xlink:href="../../svg.min.js"/>
<svg id="graph" class="graph">
<g id="viewport">
<title>/Users/fola/Documents/ArkScript/Ark/src/arkreactor/VM/Value/ClosureScope.cpp</title>
<!-- Node1 -->
<g id="Node000001" class="node">
<title>Node1</title>
<g id="a_Node000001"><a xlink:title=" ">
<polygon fill="#999999" stroke="#666666" points="546.62,-262.75 402.38,-262.75 402.38,-221 546.62,-221 546.62,-262.75"/>
<text text-anchor="start" x="410.38" y="-249.25" font-family="Helvetica,sans-Serif" font-size="10.00">/Users/fola/Documents</text>
<text text-anchor="start" x="410.38" y="-238" font-family="Helvetica,sans-Serif" font-size="10.00">/ArkScript/Ark/src/arkreactor</text>
<text text-anchor="middle" x="474.5" y="-226.75" font-family="Helvetica,sans-Serif" font-size="10.00">/VM/Value/ClosureScope.cpp</text>
</a>
</g>
</g>
<!-- Node2 -->
<g id="Node000002" class="node">
<title>Node2</title>
<g id="a_Node000002"><a xlink:href="../../d1/d71/ClosureScope_8hpp.html" target="_top" xlink:title="Subtype of the value type, handling closures.">
<polygon fill="white" stroke="#666666" points="476.12,-185 316.88,-185 316.88,-165.75 476.12,-165.75 476.12,-185"/>
<text text-anchor="middle" x="396.5" y="-171.5" font-family="Helvetica,sans-Serif" font-size="10.00">Ark/VM/Value/ClosureScope.hpp</text>
</a>
</g>
</g>
<!-- Node1&#45;&gt;Node2 -->
<g id="edge1_Node000001_Node000002" class="edge">
<title>Node1&#45;&gt;Node2</title>
<g id="a_edge1_Node000001_Node000002"><a xlink:title=" ">
<path fill="none" stroke="#63b8ff" d="M450.25,-220.82C439.29,-211.76 426.51,-201.19 416.17,-192.64"/>
<polygon fill="#63b8ff" stroke="#63b8ff" points="418.57,-190.09 408.64,-186.41 414.11,-195.48 418.57,-190.09"/>
</a>
</g>
</g>
<!-- Node18 -->
<g id="Node000018" class="node">
<title>Node18</title>
<g id="a_Node000018"><a xlink:href="../../d8/d45/ScopeView_8hpp.html" target="_top" xlink:title=" ">
<polygon fill="white" stroke="#666666" points="612.88,-185 494.12,-185 494.12,-165.75 612.88,-165.75 612.88,-185"/>
<text text-anchor="middle" x="553.5" y="-171.5" font-family="Helvetica,sans-Serif" font-size="10.00">Ark/VM/ScopeView.hpp</text>
</a>
</g>
</g>
<!-- Node1&#45;&gt;Node18 -->
<g id="edge27_Node000001_Node000018" class="edge">
<title>Node1&#45;&gt;Node18</title>
<g id="a_edge27_Node000001_Node000018"><a xlink:title=" ">
<path fill="none" stroke="#63b8ff" d="M499.06,-220.82C510.16,-211.76 523.1,-201.19 533.58,-192.64"/>
<polygon fill="#63b8ff" stroke="#63b8ff" points="535.69,-195.44 541.22,-186.4 531.26,-190.02 535.69,-195.44"/>
</a>
</g>
</g>
<!-- Node3 -->
<g id="Node000003" class="node">
<title>Node3</title>
<g id="a_Node000003"><a xlink:title=" ">
<polygon fill="#e0e0e0" stroke="#999999" points="43,-19.25 0,-19.25 0,0 43,0 43,-19.25"/>
<text text-anchor="middle" x="21.5" y="-5.75" font-family="Helvetica,sans-Serif" font-size="10.00">vector</text>
</a>
</g>
</g>
<!-- Node2&#45;&gt;Node3 -->
<g id="edge2_Node000002_Node000003" class="edge">
<title>Node2&#45;&gt;Node3</title>
<g id="a_edge2_Node000002_Node000003"><a xlink:title=" ">
<path fill="none" stroke="#63b8ff" d="M316.54,-172.59C232.04,-169.15 105.92,-159.1 68.5,-129.75 37.54,-105.47 26.92,-57.83 23.32,-30.73"/>
<polygon fill="#63b8ff" stroke="#63b8ff" points="26.83,-30.63 22.25,-21.08 19.87,-31.41 26.83,-30.63"/>
</a>
</g>
</g>
<!-- Node4 -->
<g id="Node000004" class="node">
<title>Node4</title>
<g id="a_Node000004"><a xlink:title=" ">
<polygon fill="#e0e0e0" stroke="#999999" points="464.12,-129.75 424.88,-129.75 424.88,-110.5 464.12,-110.5 464.12,-129.75"/>
<text text-anchor="middle" x="444.5" y="-116.25" font-family="Helvetica,sans-Serif" font-size="10.00">utility</text>
</a>
</g>
</g>
<!-- Node2&#45;&gt;Node4 -->
<g id="edge3_Node000002_Node000004" class="edge">
<title>Node2&#45;&gt;Node4</title>
<g id="a_edge3_Node000002_Node000004"><a xlink:title=" ">
<path fill="none" stroke="#63b8ff" d="M404.43,-165.58C411.06,-158.23 420.72,-147.51 428.89,-138.44"/>
<polygon fill="#63b8ff" stroke="#63b8ff" points="431.29,-141 435.39,-131.23 426.09,-136.32 431.29,-141"/>
</a>
</g>
</g>
<!-- Node5 -->
<g id="Node000005" class="node">
<title>Node5</title>
<g id="a_Node000005"><a xlink:title=" ">
<polygon fill="#e0e0e0" stroke="#999999" points="167.38,-19.25 111.62,-19.25 111.62,0 167.38,0 167.38,-19.25"/>
<text text-anchor="middle" x="139.5" y="-5.75" font-family="Helvetica,sans-Serif" font-size="10.00">cinttypes</text>
</a>
</g>
</g>
<!-- Node2&#45;&gt;Node5 -->
<g id="edge4_Node000002_Node000005" class="edge">
<title>Node2&#45;&gt;Node5</title>
<g id="a_edge4_Node000002_Node000005"><a xlink:title=" ">
<path fill="none" stroke="#63b8ff" d="M316.46,-174.42C233.89,-172.55 113.09,-163.85 83.5,-129.75 61.8,-104.74 69.13,-85.08 83.5,-55.25 89.41,-42.99 100.5,-33.05 111.27,-25.7"/>
<polygon fill="#63b8ff" stroke="#63b8ff" points="113,-28.74 119.63,-20.47 109.29,-22.81 113,-28.74"/>
</a>
</g>
</g>
<!-- Node6 -->
<g id="Node000006" class="node">
<title>Node6</title>
<g id="a_Node000006"><a xlink:href="../../d5/d40/Platform_8hpp.html" target="_top" xlink:title="ArkScript configuration macros.">
<polygon fill="white" stroke="#666666" points="585.88,-19.25 473.12,-19.25 473.12,0 585.88,0 585.88,-19.25"/>
<text text-anchor="middle" x="529.5" y="-5.75" font-family="Helvetica,sans-Serif" font-size="10.00">Ark/Utils/Platform.hpp</text>
</a>
</g>
</g>
<!-- Node2&#45;&gt;Node6 -->
<g id="edge5_Node000002_Node000006" class="edge">
<title>Node2&#45;&gt;Node6</title>
<g id="a_edge5_Node000002_Node000006"><a xlink:title=" ">
<path fill="none" stroke="#63b8ff" d="M397.16,-165.66C398.55,-152.49 402.79,-127.28 415.5,-110.5 433.59,-86.62 449.64,-93.87 472.5,-74.5 488.93,-60.59 505.01,-41.97 515.88,-28.43"/>
<polygon fill="#63b8ff" stroke="#63b8ff" points="518.46,-30.82 521.88,-20.79 512.95,-26.5 518.46,-30.82"/>
</a>
</g>
</g>
<!-- Node7 -->
<g id="Node000007" class="node">
<title>Node7</title>
<g id="a_Node000007"><a xlink:href="../../de/dfd/Value_8hpp.html" target="_top" xlink:title="Default value type handled by the virtual machine.">
<polygon fill="white" stroke="#666666" points="576.88,-129.75 482.12,-129.75 482.12,-110.5 576.88,-110.5 576.88,-129.75"/>
<text text-anchor="middle" x="529.5" y="-116.25" font-family="Helvetica,sans-Serif" font-size="10.00">Ark/VM/Value.hpp</text>
</a>
</g>
</g>
<!-- Node2&#45;&gt;Node7 -->
<g id="edge6_Node000002_Node000007" class="edge">
<title>Node2&#45;&gt;Node7</title>
<g id="a_edge6_Node000002_Node000007"><a xlink:title=" ">
<path fill="none" stroke="#63b8ff" d="M419.06,-165.34C440.27,-156.85 472.27,-144.04 496.38,-134.39"/>
<polygon fill="#63b8ff" stroke="#63b8ff" points="497.44,-137.73 505.42,-130.77 494.84,-131.23 497.44,-137.73"/>
</a>
</g>
</g>
<!-- Node7&#45;&gt;Node3 -->
<g id="edge7_Node000007_Node000003" class="edge">
<title>Node7&#45;&gt;Node3</title>
<g id="a_edge7_Node000007_Node000003"><a xlink:title=" ">
<path fill="none" stroke="#63b8ff" d="M481.87,-111.61C479.04,-111.22 476.23,-110.85 473.5,-110.5 315.31,-90.36 266.51,-128.62 116.5,-74.5 86.89,-63.82 57.55,-41.9 39.49,-26.74"/>
<polygon fill="#63b8ff" stroke="#63b8ff" points="42.13,-24.4 32.27,-20.52 37.55,-29.7 42.13,-24.4"/>
</a>
</g>
</g>
<!-- Node7&#45;&gt;Node5 -->
<g id="edge10_Node000007_Node000005" class="edge">
<title>Node7&#45;&gt;Node5</title>
<g id="a_edge10_Node000007_Node000005"><a xlink:title=" ">
<path fill="none" stroke="#63b8ff" d="M481.94,-110.77C428.37,-101.09 344.81,-85.11 314.5,-74.5 296.63,-68.24 294,-62.48 276.5,-55.25 244.19,-41.9 206.33,-29.83 178.61,-21.61"/>
<polygon fill="#63b8ff" stroke="#63b8ff" points="179.8,-18.32 169.22,-18.87 177.84,-25.04 179.8,-18.32"/>
</a>
</g>
</g>
<!-- Node7&#45;&gt;Node6 -->
<g id="edge26_Node000007_Node000006" class="edge">
<title>Node7&#45;&gt;Node6</title>
<g id="a_edge26_Node000007_Node000006"><a xlink:title=" ">
<path fill="none" stroke="#63b8ff" d="M529.5,-110.25C529.5,-93 529.5,-54.58 529.5,-30.81"/>
<polygon fill="#63b8ff" stroke="#63b8ff" points="533,-31.14 529.5,-21.14 526,-31.14 533,-31.14"/>
</a>
</g>
</g>
<!-- Node8 -->
<g id="Node000008" class="node">
<title>Node8</title>
<g id="a_Node000008"><a xlink:title=" ">
<polygon fill="#e0e0e0" stroke="#999999" points="867.12,-74.5 821.88,-74.5 821.88,-55.25 867.12,-55.25 867.12,-74.5"/>
<text text-anchor="middle" x="844.5" y="-61" font-family="Helvetica,sans-Serif" font-size="10.00">variant</text>
</a>
</g>
</g>
<!-- Node7&#45;&gt;Node8 -->
<g id="edge8_Node000007_Node000008" class="edge">
<title>Node7&#45;&gt;Node8</title>
<g id="a_edge8_Node000007_Node000008"><a xlink:title=" ">
<path fill="none" stroke="#63b8ff" d="M576.9,-112.55C632.38,-104.61 726.92,-90.34 807.5,-74.5 808.49,-74.31 809.5,-74.1 810.51,-73.89"/>
<polygon fill="#63b8ff" stroke="#63b8ff" points="810.96,-77.38 819.98,-71.83 809.47,-70.54 810.96,-77.38"/>
</a>
</g>
</g>
<!-- Node9 -->
<g id="Node000009" class="node">
<title>Node9</title>
<g id="a_Node000009"><a xlink:title=" ">
<polygon fill="#e0e0e0" stroke="#999999" points="698.5,-19.25 658.5,-19.25 658.5,0 698.5,0 698.5,-19.25"/>
<text text-anchor="middle" x="678.5" y="-5.75" font-family="Helvetica,sans-Serif" font-size="10.00">string</text>
</a>
</g>
</g>
<!-- Node7&#45;&gt;Node9 -->
<g id="edge9_Node000007_Node000009" class="edge">
<title>Node7&#45;&gt;Node9</title>
<g id="a_edge9_Node000007_Node000009"><a xlink:title=" ">
<path fill="none" stroke="#63b8ff" d="M577.24,-115.63C632.03,-110.51 716.87,-98.81 736.5,-74.5 750.65,-56.97 728.16,-37.99 707.19,-25.32"/>
<polygon fill="#63b8ff" stroke="#63b8ff" points="708.93,-22.28 698.51,-20.38 705.47,-28.37 708.93,-22.28"/>
</a>
</g>
</g>
<!-- Node10 -->
<g id="Node000010" class="node">
<title>Node10</title>
<g id="a_Node000010"><a xlink:title=" ">
<polygon fill="#e0e0e0" stroke="#999999" points="1003.38,-74.5 965.62,-74.5 965.62,-55.25 1003.38,-55.25 1003.38,-74.5"/>
<text text-anchor="middle" x="984.5" y="-61" font-family="Helvetica,sans-Serif" font-size="10.00">array</text>
</a>
</g>
</g>
<!-- Node7&#45;&gt;Node10 -->
<g id="edge11_Node000007_Node000010" class="edge">
<title>Node7&#45;&gt;Node10</title>
<g id="a_edge11_Node000007_Node000010"><a xlink:title=" ">
<path fill="none" stroke="#63b8ff" d="M577.35,-117.16C654.79,-113.33 812.4,-102.8 954.29,-74.56"/>
<polygon fill="#63b8ff" stroke="#63b8ff" points="954.76,-78.03 963.86,-72.61 953.37,-71.17 954.76,-78.03"/>
</a>
</g>
</g>
<!-- Node11 -->
<g id="Node000011" class="node">
<title>Node11</title>
<g id="a_Node000011"><a xlink:title=" ">
<polygon fill="#e0e0e0" stroke="#999999" points="802.12,-19.25 750.88,-19.25 750.88,0 802.12,0 802.12,-19.25"/>
<text text-anchor="middle" x="776.5" y="-5.75" font-family="Helvetica,sans-Serif" font-size="10.00">memory</text>
</a>
</g>
</g>
<!-- Node7&#45;&gt;Node11 -->
<g id="edge12_Node000007_Node000011" class="edge">
<title>Node7&#45;&gt;Node11</title>
<g id="a_edge12_Node000007_Node000011"><a xlink:title=" ">
<path fill="none" stroke="#63b8ff" d="M576.92,-115.02C634.32,-109.15 726.55,-96.55 752.5,-74.5 765.35,-63.58 771.33,-45.06 774.1,-30.77"/>
<polygon fill="#63b8ff" stroke="#63b8ff" points="777.53,-31.5 775.59,-21.09 770.61,-30.44 777.53,-31.5"/>
</a>
</g>
</g>
<!-- Node12 -->
<g id="Node000012" class="node">
<title>Node12</title>
<g id="a_Node000012"><a xlink:title=" ">
<polygon fill="#e0e0e0" stroke="#999999" points="947.38,-74.5 885.62,-74.5 885.62,-55.25 947.38,-55.25 947.38,-74.5"/>
<text text-anchor="middle" x="916.5" y="-61" font-family="Helvetica,sans-Serif" font-size="10.00">type_traits</text>
</a>
</g>
</g>
<!-- Node7&#45;&gt;Node12 -->
<g id="edge13_Node000007_Node000012" class="edge">
<title>Node7&#45;&gt;Node12</title>
<g id="a_edge13_Node000007_Node000012"><a xlink:title=" ">
<path fill="none" stroke="#63b8ff" d="M577.12,-114.29C642,-107.42 762.04,-93.7 874.35,-74.73"/>
<polygon fill="#63b8ff" stroke="#63b8ff" points="874.78,-78.21 884.05,-73.08 873.6,-71.31 874.78,-78.21"/>
</a>
</g>
</g>
<!-- Node13 -->
<g id="Node000013" class="node">
<title>Node13</title>
<g id="a_Node000013"><a xlink:href="../../dc/dd5/Closure_8hpp.html" target="_top" xlink:title="Subtype of the value type, handling closures.">
<polygon fill="white" stroke="#666666" points="727.25,-74.5 595.75,-74.5 595.75,-55.25 727.25,-55.25 727.25,-74.5"/>
<text text-anchor="middle" x="661.5" y="-61" font-family="Helvetica,sans-Serif" font-size="10.00">Ark/VM/Value/Closure.hpp</text>
</a>
</g>
</g>
<!-- Node7&#45;&gt;Node13 -->
<g id="edge14_Node000007_Node000013" class="edge">
<title>Node7&#45;&gt;Node13</title>
<g id="a_edge14_Node000007_Node000013"><a xlink:title=" ">
<path fill="none" stroke="#63b8ff" d="M551.89,-110.09C572.94,-101.6 604.7,-88.79 628.62,-79.14"/>
<polygon fill="#63b8ff" stroke="#63b8ff" points="629.63,-82.51 637.59,-75.52 627.01,-76.01 629.63,-82.51"/>
</a>
</g>
</g>
<!-- Node14 -->
<g id="Node000014" class="node">
<title>Node14</title>
<g id="a_Node000014"><a xlink:href="../../dc/d3d/UserType_8hpp.html" target="_top" xlink:title="Subtype of the value, capable of handling any C++ type.">
<polygon fill="white" stroke="#666666" points="463.38,-74.5 323.62,-74.5 323.62,-55.25 463.38,-55.25 463.38,-74.5"/>
<text text-anchor="middle" x="393.5" y="-61" font-family="Helvetica,sans-Serif" font-size="10.00">Ark/VM/Value/UserType.hpp</text>
</a>
</g>
</g>
<!-- Node7&#45;&gt;Node14 -->
<g id="edge18_Node000007_Node000014" class="edge">
<title>Node7&#45;&gt;Node14</title>
<g id="a_edge18_Node000007_Node000014"><a xlink:title=" ">
<path fill="none" stroke="#63b8ff" d="M506.43,-110.09C484.74,-101.6 452.02,-88.79 427.37,-79.14"/>
<polygon fill="#63b8ff" stroke="#63b8ff" points="428.68,-75.89 418.09,-75.5 426.13,-82.41 428.68,-75.89"/>
</a>
</g>
</g>
<!-- Node17 -->
<g id="Node000017" class="node">
<title>Node17</title>
<g id="a_Node000017"><a xlink:href="../../da/dcf/Procedure_8hpp.html" target="_top" xlink:title="Wrapper object for user&#45;defined functions.">
<polygon fill="white" stroke="#666666" points="267.5,-74.5 125.5,-74.5 125.5,-55.25 267.5,-55.25 267.5,-74.5"/>
<text text-anchor="middle" x="196.5" y="-61" font-family="Helvetica,sans-Serif" font-size="10.00">Ark/VM/Value/Procedure.hpp</text>
</a>
</g>
</g>
<!-- Node7&#45;&gt;Node17 -->
<g id="edge23_Node000007_Node000017" class="edge">
<title>Node7&#45;&gt;Node17</title>
<g id="a_edge23_Node000007_Node000017"><a xlink:title=" ">
<path fill="none" stroke="#63b8ff" d="M481.79,-111.5C424.87,-102.39 329.31,-87.11 264.63,-76.77"/>
<polygon fill="#63b8ff" stroke="#63b8ff" points="265.25,-73.32 254.82,-75.2 264.14,-80.24 265.25,-73.32"/>
</a>
</g>
</g>
<!-- Node13&#45;&gt;Node6 -->
<g id="edge17_Node000013_Node000006" class="edge">
<title>Node13&#45;&gt;Node6</title>
<g id="a_edge17_Node000013_Node000006"><a xlink:title=" ">
<path fill="none" stroke="#63b8ff" d="M639.11,-54.84C618.06,-46.35 586.3,-33.54 562.38,-23.89"/>
<polygon fill="#63b8ff" stroke="#63b8ff" points="563.99,-20.76 553.41,-20.27 561.37,-27.26 563.99,-20.76"/>
</a>
</g>
</g>
<!-- Node13&#45;&gt;Node9 -->
<g id="edge16_Node000013_Node000009" class="edge">
<title>Node13&#45;&gt;Node9</title>
<g id="a_edge16_Node000013_Node000009"><a xlink:title=" ">
<path fill="none" stroke="#63b8ff" d="M664.31,-55.08C666.44,-48.42 669.44,-38.99 672.14,-30.53"/>
<polygon fill="#63b8ff" stroke="#63b8ff" points="675.46,-31.64 675.17,-21.05 668.8,-29.51 675.46,-31.64"/>
</a>
</g>
</g>
<!-- Node13&#45;&gt;Node11 -->
<g id="edge15_Node000013_Node000011" class="edge">
<title>Node13&#45;&gt;Node11</title>
<g id="a_edge15_Node000013_Node000011"><a xlink:title=" ">
<path fill="none" stroke="#63b8ff" d="M681.01,-54.84C699.02,-46.5 726.02,-34 746.73,-24.41"/>
<polygon fill="#63b8ff" stroke="#63b8ff" points="747.92,-27.72 755.52,-20.34 744.98,-21.36 747.92,-27.72"/>
</a>
</g>
</g>
<!-- Node14&#45;&gt;Node5 -->
<g id="edge20_Node000014_Node000005" class="edge">
<title>Node14&#45;&gt;Node5</title>
<g id="a_edge20_Node000014_Node000005"><a xlink:title=" ">
<path fill="none" stroke="#63b8ff" d="M350.12,-54.78C302.06,-44.7 225.22,-28.59 178.84,-18.87"/>
<polygon fill="#63b8ff" stroke="#63b8ff" points="179.72,-15.48 169.22,-16.86 178.29,-22.33 179.72,-15.48"/>
</a>
</g>
</g>
<!-- Node14&#45;&gt;Node6 -->
<g id="edge22_Node000014_Node000006" class="edge">
<title>Node14&#45;&gt;Node6</title>
<g id="a_edge22_Node000014_Node000006"><a xlink:title=" ">
<path fill="none" stroke="#63b8ff" d="M416.57,-54.84C438.26,-46.35 470.98,-33.54 495.63,-23.89"/>
<polygon fill="#63b8ff" stroke="#63b8ff" points="496.87,-27.16 504.91,-20.25 494.32,-20.64 496.87,-27.16"/>
</a>
</g>
</g>
<!-- Node15 -->
<g id="Node000015" class="node">
<title>Node15</title>
<g id="a_Node000015"><a xlink:title=" ">
<polygon fill="#e0e0e0" stroke="#999999" points="420.25,-19.25 366.75,-19.25 366.75,0 420.25,0 420.25,-19.25"/>
<text text-anchor="middle" x="393.5" y="-5.75" font-family="Helvetica,sans-Serif" font-size="10.00">iostream</text>
</a>
</g>
</g>
<!-- Node14&#45;&gt;Node15 -->
<g id="edge19_Node000014_Node000015" class="edge">
<title>Node14&#45;&gt;Node15</title>
<g id="a_edge19_Node000014_Node000015"><a xlink:title=" ">
<path fill="none" stroke="#63b8ff" d="M393.5,-55.08C393.5,-48.57 393.5,-39.42 393.5,-31.12"/>
<polygon fill="#63b8ff" stroke="#63b8ff" points="397,-31.12 393.5,-21.12 390,-31.12 397,-31.12"/>
</a>
</g>
</g>
<!-- Node16 -->
<g id="Node000016" class="node">
<title>Node16</title>
<g id="a_Node000016"><a xlink:title=" ">
<polygon fill="#e0e0e0" stroke="#999999" points="286.5,-19.25 228.5,-19.25 228.5,0 286.5,0 286.5,-19.25"/>
<text text-anchor="middle" x="257.5" y="-5.75" font-family="Helvetica,sans-Serif" font-size="10.00">functional</text>
</a>
</g>
</g>
<!-- Node14&#45;&gt;Node16 -->
<g id="edge21_Node000014_Node000016" class="edge">
<title>Node14&#45;&gt;Node16</title>
<g id="a_edge21_Node000014_Node000016"><a xlink:title=" ">
<path fill="none" stroke="#63b8ff" d="M370.43,-54.84C348.74,-46.35 316.02,-33.54 291.37,-23.89"/>
<polygon fill="#63b8ff" stroke="#63b8ff" points="292.68,-20.64 282.09,-20.25 290.13,-27.16 292.68,-20.64"/>
</a>
</g>
</g>
<!-- Node17&#45;&gt;Node3 -->
<g id="edge25_Node000017_Node000003" class="edge">
<title>Node17&#45;&gt;Node3</title>
<g id="a_edge25_Node000017_Node000003"><a xlink:title=" ">
<path fill="none" stroke="#63b8ff" d="M166.81,-54.84C135.5,-45.31 86.3,-30.34 53.97,-20.51"/>
<polygon fill="#63b8ff" stroke="#63b8ff" points="55.33,-17.26 44.74,-17.7 53.29,-23.96 55.33,-17.26"/>
</a>
</g>
</g>
<!-- Node17&#45;&gt;Node16 -->
<g id="edge24_Node000017_Node000016" class="edge">
<title>Node17&#45;&gt;Node16</title>
<g id="a_edge24_Node000017_Node000016"><a xlink:title=" ">
<path fill="none" stroke="#63b8ff" d="M206.85,-54.84C215.58,-47.22 228.29,-36.12 238.8,-26.95"/>
<polygon fill="#63b8ff" stroke="#63b8ff" points="240.93,-29.73 246.16,-20.52 236.33,-24.46 240.93,-29.73"/>
</a>
</g>
</g>
<!-- Node18&#45;&gt;Node5 -->
<g id="edge29_Node000018_Node000005" class="edge">
<title>Node18&#45;&gt;Node5</title>
<g id="a_edge29_Node000018_Node000005"><a xlink:title=" ">
<path fill="none" stroke="#63b8ff" d="M495.79,-165.26C382.56,-146.8 140.21,-104.24 116.5,-74.5 105.74,-61 114.82,-42.04 124.56,-28.29"/>
<polygon fill="#63b8ff" stroke="#63b8ff" points="127.2,-30.59 130.57,-20.54 121.67,-26.3 127.2,-30.59"/>
</a>
</g>
</g>
<!-- Node18&#45;&gt;Node6 -->
<g id="edge30_Node000018_Node000006" class="edge">
<title>Node18&#45;&gt;Node6</title>
<g id="a_edge30_Node000018_Node000006"><a xlink:title=" ">
<path fill="none" stroke="#63b8ff" d="M562.55,-165.42C570.34,-157.04 581.01,-143.73 585.5,-129.75 588.12,-121.61 587.66,-118.78 585.5,-110.5 577.37,-79.36 557.12,-47.66 543.34,-28.57"/>
<polygon fill="#63b8ff" stroke="#63b8ff" points="546.32,-26.71 537.55,-20.78 540.71,-30.89 546.32,-26.71"/>
</a>
</g>
</g>
<!-- Node18&#45;&gt;Node7 -->
<g id="edge31_Node000018_Node000007" class="edge">
<title>Node18&#45;&gt;Node7</title>
<g id="a_edge31_Node000018_Node000007"><a xlink:title=" ">
<path fill="none" stroke="#63b8ff" d="M549.54,-165.58C546.46,-158.76 542.09,-149.06 538.21,-140.45"/>
<polygon fill="#63b8ff" stroke="#63b8ff" points="541.47,-139.17 534.17,-131.49 535.09,-142.04 541.47,-139.17"/>
</a>
</g>
</g>
<!-- Node18&#45;&gt;Node10 -->
<g id="edge28_Node000018_Node000010" class="edge">
<title>Node18&#45;&gt;Node10</title>
<g id="a_edge28_Node000018_Node000010"><a xlink:title=" ">
<path fill="none" stroke="#63b8ff" d="M593.45,-165.26C664.21,-148.93 816.38,-113.08 954.5,-74.94"/>
<polygon fill="#63b8ff" stroke="#63b8ff" points="955.1,-78.41 963.8,-72.36 953.23,-71.66 955.1,-78.41"/>
</a>
</g>
</g>
</g>
</svg>

<g id="navigator" transform="translate(0 0)" fill="#404254">
  <rect fill="#f2f5e9" fill-opacity="0.5" stroke="#606060" stroke-width=".5" x="0" y="0" width="60" height="60"/>
  <use id="zoomplus" xlink:href="#zoomPlus" x="17" y="9" onmousedown="handleZoom(evt,'in')"/>
  <use id="zoomminus" xlink:href="#zoomMin" x="42" y="9" onmousedown="handleZoom(evt,'out')"/>
  <use id="reset" xlink:href="#resetDef" x="30" y="36" onmousedown="handleReset()"/>
   <use id="arrowup" xlink:href="#arrowUp" x="0" y="0" onmousedown="handlePan(0,-1)"/>
  <use id="arrowright" xlink:href="#arrowRight" x="0" y="0" onmousedown="handlePan(1,0)"/>
  <use id="arrowdown" xlink:href="#arrowDown" x="0" y="0" onmousedown="handlePan(0,1)"/>
  <use id="arrowleft" xlink:href="#arrowLeft" x="0" y="0" onmousedown="handlePan(-1,0)"/>
</g>
<svg viewBox="0 0 15 15" width="100%" height="30px" preserveAspectRatio="xMaxYMin meet">
 <g id="arrow_out" transform="scale(0.3 0.3)">
  <a xlink:href="ClosureScope_8cpp__incl_org.svg" target="_base">
   <rect id="button" ry="5" rx="5" y="6" x="6" height="38" width="38"
        fill="#f2f5e9" fill-opacity="0.5" stroke="#606060" stroke-width="1.0"/>
   <path id="arrow"
     d="M 11.500037,31.436501 C 11.940474,20.09759 22.043105,11.32322 32.158766,21.979434 L 37.068811,17.246167 C 37.068811,17.246167 37.088388,32 37.088388,32 L 22.160133,31.978069 C 22.160133,31.978069 26.997745,27.140456 26.997745,27.140456 C 18.528582,18.264221 13.291696,25.230495 11.500037,31.436501 z"
     style="fill:#404040;"/>
  </a>
 </g>
</svg>

<style type='text/css'>
<![CDATA[
[data-mouse-over-selected='false'] { opacity: 0.7; }
[data-mouse-over-selected='true']  { opacity: 1.0; }
]]>
</style>
<script type="application/ecmascript"><![CDATA[
document.addEventListener('DOMContentLoaded', (event) => {
  highlightEdges();
  highlightAdjacentNodes();
});
]]></script>
</svg>
