<?xml version="1.0" encoding="UTF-8" standalone="no"?>
<!DOCTYPE svg PUBLIC "-//W3C//DTD SVG 1.1//EN"
 "http://www.w3.org/Graphics/SVG/1.1/DTD/svg11.dtd">
<!-- Generated by graphviz version 12.2.0 (20241103.1931)
 -->
<!-- Title: /Users/fola/Documents/ArkScript/Ark/include/Ark/VM/Future.hpp Pages: 1 -->
<!--zoomable 283 -->

<svg id="main" version="1.1" xmlns="http://www.w3.org/2000/svg" xmlns:xlink="http://www.w3.org/1999/xlink" xml:space="preserve" onload="init(evt)">

<style type="text/css"><![CDATA[
.node, .edge {opacity: 0.7;}
.node.selected, .edge.selected {opacity: 1;}
.edge:hover path { stroke: red; }
.edge:hover polygon { stroke: red; fill: red; }
]]></style>

<defs>
  <circle id="rim" cx="0" cy="0" r="7"/>
  <circle id="rim2" cx="0" cy="0" r="3.5"/>
  <g id="zoomPlus">
    <use xlink:href="#rim" fill="#404040"><set attributeName="fill" to="#808080" begin="zoomplus.mouseover" end="zoomplus.mouseout"/></use>
    <path d="M-4,0h8M0,-4v8" fill="none" stroke="white" stroke-width="1.5" pointer-events="none"/>
  </g>
  <g id="zoomMin">
    <use xlink:href="#rim" fill="#404040"><set attributeName="fill" to="#808080" begin="zoomminus.mouseover" end="zoomminus.mouseout"/></use>
    <path d="M-4,0h8" fill="none" stroke="white" stroke-width="1.5" pointer-events="none"/>
  </g>
  <g id="arrowUp" transform="translate(30 24)">
    <use xlink:href="#rim"/>
    <path pointer-events="none" fill="none" stroke="white" stroke-width="1.5" d="M0,-3.0v7 M-2.5,-0.5L0,-3.0L2.5,-0.5"/>
  </g>
  <g id="arrowRight" transform="rotate(90) translate(36 -43)">
    <use xlink:href="#rim"/>
    <path pointer-events="none" fill="none" stroke="white" stroke-width="1.5" d="M0,-3.0v7 M-2.5,-0.5L0,-3.0L2.5,-0.5"/>
  </g>
  <g id="arrowDown" transform="rotate(180) translate(-30 -48)">
    <use xlink:href="#rim"/>
    <path pointer-events="none" fill="none" stroke="white" stroke-width="1.5" d="M0,-3.0v7 M-2.5,-0.5L0,-3.0L2.5,-0.5"/>
  </g>
  <g id="arrowLeft" transform="rotate(270) translate(-36 17)">
    <use xlink:href="#rim"/>
    <path pointer-events="none" fill="none" stroke="white" stroke-width="1.5" d="M0,-3.0v7 M-2.5,-0.5L0,-3.0L2.5,-0.5"/>
  </g>
  <g id="resetDef">
    <use xlink:href="#rim2" fill="#404040"><set attributeName="fill" to="#808080" begin="reset.mouseover" end="reset.mouseout"/></use>
  </g>
</defs>
<script type="application/ecmascript">
var viewWidth = 1223;
var viewHeight = 283;
var sectionId = 'dynsection-1';
</script>
<script type="application/ecmascript" xlink:href="../../svg.min.js"/>
<svg id="graph" class="graph">
<g id="viewport">
<title>/Users/fola/Documents/ArkScript/Ark/include/Ark/VM/Future.hpp</title>
<!-- Node1 -->
<g id="Node000001" class="node">
<title>Node1</title>
<g id="a_Node000001"><a xlink:title="Internal object to resolve asynchronously a function call in ArkScript.">
<polygon fill="#999999" stroke="#666666" points="780.88,-275 663.62,-275 663.62,-233.25 780.88,-233.25 780.88,-275"/>
<text text-anchor="start" x="671.62" y="-261.5" font-family="Helvetica,sans-Serif" font-size="10.00">/Users/fola/Documents</text>
<text text-anchor="start" x="671.62" y="-250.25" font-family="Helvetica,sans-Serif" font-size="10.00">/ArkScript/Ark/include</text>
<text text-anchor="middle" x="722.25" y="-239" font-family="Helvetica,sans-Serif" font-size="10.00">/Ark/VM/Future.hpp</text>
</a>
</g>
</g>
<!-- Node2 -->
<g id="Node000002" class="node">
<title>Node2</title>
<g id="a_Node000002"><a xlink:href="../../d1/d91/VM_8hpp.html" target="_top" xlink:title="The ArkScript virtual machine.">
<polygon fill="white" stroke="#666666" points="737.88,-197.25 620.62,-197.25 620.62,-155.5 737.88,-155.5 737.88,-197.25"/>
<text text-anchor="start" x="628.62" y="-183.75" font-family="Helvetica,sans-Serif" font-size="10.00">/Users/fola/Documents</text>
<text text-anchor="start" x="628.62" y="-172.5" font-family="Helvetica,sans-Serif" font-size="10.00">/ArkScript/Ark/include</text>
<text text-anchor="middle" x="679.25" y="-161.25" font-family="Helvetica,sans-Serif" font-size="10.00">/Ark/VM/VM.hpp</text>
</a>
</g>
</g>
<!-- Node1&#45;&gt;Node2 -->
<g id="edge1_Node000001_Node000002" class="edge">
<title>Node1&#45;&gt;Node2</title>
<g id="a_edge1_Node000001_Node000002"><a xlink:title=" ">
<path fill="none" stroke="#63b8ff" d="M705.09,-222.9C700.29,-214.45 695.19,-205.46 690.81,-197.73"/>
<polygon fill="#63b8ff" stroke="#63b8ff" points="702,-224.54 709.98,-231.51 708.09,-221.08 702,-224.54"/>
</a>
</g>
</g>
<!-- Node13 -->
<g id="Node000013" class="node">
<title>Node13</title>
<g id="a_Node000013"><a xlink:href="../../d4/dc9/Future_8cpp.html" target="_top" xlink:title=" ">
<polygon fill="white" stroke="#666666" points="1214.5,-119.5 1074,-119.5 1074,-77.75 1214.5,-77.75 1214.5,-119.5"/>
<text text-anchor="start" x="1082" y="-106" font-family="Helvetica,sans-Serif" font-size="10.00">/Users/fola/Documents</text>
<text text-anchor="start" x="1082" y="-94.75" font-family="Helvetica,sans-Serif" font-size="10.00">/ArkScript/Ark/src/arkreactor</text>
<text text-anchor="middle" x="1144.25" y="-83.5" font-family="Helvetica,sans-Serif" font-size="10.00">/VM/Future.cpp</text>
</a>
</g>
</g>
<!-- Node1&#45;&gt;Node13 -->
<g id="edge16_Node000001_Node000013" class="edge">
<title>Node1&#45;&gt;Node13</title>
<g id="a_edge16_Node000001_Node000013"><a xlink:title=" ">
<path fill="none" stroke="#63b8ff" d="M788.64,-228.98C871.33,-198.9 1011.13,-148.05 1088.52,-119.9"/>
<polygon fill="#63b8ff" stroke="#63b8ff" points="787.48,-225.67 779.28,-232.38 789.87,-232.25 787.48,-225.67"/>
</a>
</g>
</g>
<!-- Node3 -->
<g id="Node000003" class="node">
<title>Node3</title>
<g id="a_Node000003"><a xlink:href="../../d3/d7e/Ark_8hpp.html" target="_top" xlink:title="Includes the needed files to start using ArkScript.">
<polygon fill="white" stroke="#666666" points="305.88,-119.5 188.62,-119.5 188.62,-77.75 305.88,-77.75 305.88,-119.5"/>
<text text-anchor="start" x="196.62" y="-106" font-family="Helvetica,sans-Serif" font-size="10.00">/Users/fola/Documents</text>
<text text-anchor="start" x="196.62" y="-94.75" font-family="Helvetica,sans-Serif" font-size="10.00">/ArkScript/Ark/include</text>
<text text-anchor="middle" x="247.25" y="-83.5" font-family="Helvetica,sans-Serif" font-size="10.00">/Ark/Ark.hpp</text>
</a>
</g>
</g>
<!-- Node2&#45;&gt;Node3 -->
<g id="edge2_Node000002_Node000003" class="edge">
<title>Node2&#45;&gt;Node3</title>
<g id="a_edge2_Node000002_Node000003"><a xlink:title=" ">
<path fill="none" stroke="#63b8ff" d="M609.29,-163.11C525.07,-148.34 385.14,-123.8 306.18,-109.96"/>
<polygon fill="#63b8ff" stroke="#63b8ff" points="608.59,-166.54 619.05,-164.82 609.8,-159.64 608.59,-166.54"/>
</a>
</g>
</g>
<!-- Node6 -->
<g id="Node000006" class="node">
<title>Node6</title>
<g id="a_Node000006"><a xlink:href="../../d5/d44/Module_8hpp.html" target="_top" xlink:title=" ">
<polygon fill="white" stroke="#666666" points="452.88,-41.75 335.62,-41.75 335.62,0 452.88,0 452.88,-41.75"/>
<text text-anchor="start" x="343.62" y="-28.25" font-family="Helvetica,sans-Serif" font-size="10.00">/Users/fola/Documents</text>
<text text-anchor="start" x="343.62" y="-17" font-family="Helvetica,sans-Serif" font-size="10.00">/ArkScript/Ark/include</text>
<text text-anchor="middle" x="394.25" y="-5.75" font-family="Helvetica,sans-Serif" font-size="10.00">/Ark/Module.hpp</text>
</a>
</g>
</g>
<!-- Node2&#45;&gt;Node6 -->
<g id="edge5_Node000002_Node000006" class="edge">
<title>Node2&#45;&gt;Node6</title>
<g id="a_edge5_Node000002_Node000006"><a xlink:title=" ">
<path fill="none" stroke="#63b8ff" d="M609.13,-169.35C539.74,-161.91 440.11,-146.76 413.25,-119.5 393.13,-99.08 391.12,-64.1 392.18,-42.02"/>
<polygon fill="#63b8ff" stroke="#63b8ff" points="608.6,-172.81 618.91,-170.37 609.33,-165.85 608.6,-172.81"/>
</a>
</g>
</g>
<!-- Node7 -->
<g id="Node000007" class="node">
<title>Node7</title>
<g id="a_Node000007"><a xlink:href="../../d2/d33/ModuleMapping_8hpp.html" target="_top" xlink:title=" ">
<polygon fill="white" stroke="#666666" points="564.25,-119.5 422.25,-119.5 422.25,-77.75 564.25,-77.75 564.25,-119.5"/>
<text text-anchor="start" x="430.25" y="-106" font-family="Helvetica,sans-Serif" font-size="10.00">/Users/fola/Documents</text>
<text text-anchor="start" x="430.25" y="-94.75" font-family="Helvetica,sans-Serif" font-size="10.00">/ArkScript/Ark/include</text>
<text text-anchor="middle" x="493.25" y="-83.5" font-family="Helvetica,sans-Serif" font-size="10.00">/Ark/VM/ModuleMapping.hpp</text>
</a>
</g>
</g>
<!-- Node2&#45;&gt;Node7 -->
<g id="edge6_Node000002_Node000007" class="edge">
<title>Node2&#45;&gt;Node7</title>
<g id="a_edge6_Node000002_Node000007"><a xlink:title=" ">
<path fill="none" stroke="#63b8ff" d="M618.81,-150.76C594.37,-140.81 566.5,-129.46 543.23,-119.98"/>
<polygon fill="#63b8ff" stroke="#63b8ff" points="617.42,-153.97 628,-154.5 620.06,-147.49 617.42,-153.97"/>
</a>
</g>
</g>
<!-- Node8 -->
<g id="Node000008" class="node">
<title>Node8</title>
<g id="a_Node000008"><a xlink:href="../../d2/d27/VM_8cpp.html" target="_top" xlink:title=" ">
<polygon fill="white" stroke="#666666" points="611.5,-41.75 471,-41.75 471,0 611.5,0 611.5,-41.75"/>
<text text-anchor="start" x="479" y="-28.25" font-family="Helvetica,sans-Serif" font-size="10.00">/Users/fola/Documents</text>
<text text-anchor="start" x="479" y="-17" font-family="Helvetica,sans-Serif" font-size="10.00">/ArkScript/Ark/src/arkreactor</text>
<text text-anchor="middle" x="541.25" y="-5.75" font-family="Helvetica,sans-Serif" font-size="10.00">/VM/VM.cpp</text>
</a>
</g>
</g>
<!-- Node2&#45;&gt;Node8 -->
<g id="edge14_Node000002_Node000008" class="edge">
<title>Node2&#45;&gt;Node8</title>
<g id="a_edge14_Node000002_Node000008"><a xlink:title=" ">
<path fill="none" stroke="#63b8ff" d="M642.63,-148.2C632,-139.56 620.71,-129.61 611.25,-119.5 588.3,-94.99 566.53,-62.7 553.53,-42.1"/>
<polygon fill="#63b8ff" stroke="#63b8ff" points="640.16,-150.71 650.17,-154.19 644.51,-145.23 640.16,-150.71"/>
</a>
</g>
</g>
<!-- Node9 -->
<g id="Node000009" class="node">
<title>Node9</title>
<g id="a_Node000009"><a xlink:href="../../d5/da5/Repl_8hpp.html" target="_top" xlink:title="ArkScript REPL &#45; Read Eval Print Loop.">
<polygon fill="white" stroke="#666666" points="737.88,-119.5 620.62,-119.5 620.62,-77.75 737.88,-77.75 737.88,-119.5"/>
<text text-anchor="start" x="628.62" y="-106" font-family="Helvetica,sans-Serif" font-size="10.00">/Users/fola/Documents</text>
<text text-anchor="start" x="628.62" y="-94.75" font-family="Helvetica,sans-Serif" font-size="10.00">/ArkScript/Ark/include</text>
<text text-anchor="middle" x="679.25" y="-83.5" font-family="Helvetica,sans-Serif" font-size="10.00">/CLI/REPL/Repl.hpp</text>
</a>
</g>
</g>
<!-- Node2&#45;&gt;Node9 -->
<g id="edge9_Node000002_Node000009" class="edge">
<title>Node2&#45;&gt;Node9</title>
<g id="a_edge9_Node000002_Node000009"><a xlink:title=" ">
<path fill="none" stroke="#63b8ff" d="M679.25,-143.75C679.25,-135.71 679.25,-127.29 679.25,-119.98"/>
<polygon fill="#63b8ff" stroke="#63b8ff" points="675.75,-143.56 679.25,-153.56 682.75,-143.56 675.75,-143.56"/>
</a>
</g>
</g>
<!-- Node12 -->
<g id="Node000012" class="node">
<title>Node12</title>
<g id="a_Node000012"><a xlink:href="../../d6/d9a/TypeChecker_8cpp.html" target="_top" xlink:title=" ">
<polygon fill="white" stroke="#666666" points="896.5,-119.5 756,-119.5 756,-77.75 896.5,-77.75 896.5,-119.5"/>
<text text-anchor="start" x="764" y="-106" font-family="Helvetica,sans-Serif" font-size="10.00">/Users/fola/Documents</text>
<text text-anchor="start" x="764" y="-94.75" font-family="Helvetica,sans-Serif" font-size="10.00">/ArkScript/Ark/src/arkreactor</text>
<text text-anchor="middle" x="826.25" y="-83.5" font-family="Helvetica,sans-Serif" font-size="10.00">/TypeChecker.cpp</text>
</a>
</g>
</g>
<!-- Node2&#45;&gt;Node12 -->
<g id="edge12_Node000002_Node000012" class="edge">
<title>Node2&#45;&gt;Node12</title>
<g id="a_edge12_Node000002_Node000012"><a xlink:title=" ">
<path fill="none" stroke="#63b8ff" d="M728.85,-149.82C747.71,-140.1 768.94,-129.16 786.75,-119.98"/>
<polygon fill="#63b8ff" stroke="#63b8ff" points="727.27,-146.69 719.99,-154.38 730.48,-152.91 727.27,-146.69"/>
</a>
</g>
</g>
<!-- Node2&#45;&gt;Node13 -->
<g id="edge13_Node000002_Node000013" class="edge">
<title>Node2&#45;&gt;Node13</title>
<g id="a_edge13_Node000002_Node000013"><a xlink:title=" ">
<path fill="none" stroke="#63b8ff" d="M749.31,-167.33C826.74,-157.95 954.97,-140.95 1064.25,-119.5 1067.34,-118.89 1070.49,-118.24 1073.66,-117.56"/>
<polygon fill="#63b8ff" stroke="#63b8ff" points="749.27,-163.81 739.76,-168.48 750.11,-170.76 749.27,-163.81"/>
</a>
</g>
</g>
<!-- Node14 -->
<g id="Node000014" class="node">
<title>Node14</title>
<g id="a_Node000014"><a xlink:href="../../d1/db2/Closure_8cpp.html" target="_top" xlink:title=" ">
<polygon fill="white" stroke="#666666" points="1055.5,-119.5 915,-119.5 915,-77.75 1055.5,-77.75 1055.5,-119.5"/>
<text text-anchor="start" x="923" y="-106" font-family="Helvetica,sans-Serif" font-size="10.00">/Users/fola/Documents</text>
<text text-anchor="start" x="923" y="-94.75" font-family="Helvetica,sans-Serif" font-size="10.00">/ArkScript/Ark/src/arkreactor</text>
<text text-anchor="middle" x="985.25" y="-83.5" font-family="Helvetica,sans-Serif" font-size="10.00">/VM/Value/Closure.cpp</text>
</a>
</g>
</g>
<!-- Node2&#45;&gt;Node14 -->
<g id="edge15_Node000002_Node000014" class="edge">
<title>Node2&#45;&gt;Node14</title>
<g id="a_edge15_Node000002_Node000014"><a xlink:title=" ">
<path fill="none" stroke="#63b8ff" d="M749.29,-158.08C793.92,-147.05 852.99,-132.45 905.25,-119.5 908.31,-118.74 911.43,-117.97 914.58,-117.19"/>
<polygon fill="#63b8ff" stroke="#63b8ff" points="748.6,-154.65 739.73,-160.44 750.28,-161.44 748.6,-154.65"/>
</a>
</g>
</g>
<!-- Node4 -->
<g id="Node000004" class="node">
<title>Node4</title>
<g id="a_Node000004"><a xlink:href="../../d1/d95/arkemscripten_2main_8cpp.html" target="_top" xlink:title=" ">
<polygon fill="white" stroke="#666666" points="158.5,-41.75 0,-41.75 0,0 158.5,0 158.5,-41.75"/>
<text text-anchor="start" x="8" y="-28.25" font-family="Helvetica,sans-Serif" font-size="10.00">/Users/fola/Documents</text>
<text text-anchor="start" x="8" y="-17" font-family="Helvetica,sans-Serif" font-size="10.00">/ArkScript/Ark/src/arkemscripten</text>
<text text-anchor="middle" x="79.25" y="-5.75" font-family="Helvetica,sans-Serif" font-size="10.00">/main.cpp</text>
</a>
</g>
</g>
<!-- Node3&#45;&gt;Node4 -->
<g id="edge3_Node000003_Node000004" class="edge">
<title>Node3&#45;&gt;Node4</title>
<g id="a_edge3_Node000003_Node000004"><a xlink:title=" ">
<path fill="none" stroke="#63b8ff" d="M191.76,-72.61C169.91,-62.75 145.13,-51.58 124.4,-42.23"/>
<polygon fill="#63b8ff" stroke="#63b8ff" points="190.29,-75.78 200.85,-76.7 193.17,-69.4 190.29,-75.78"/>
</a>
</g>
</g>
<!-- Node5 -->
<g id="Node000005" class="node">
<title>Node5</title>
<g id="a_Node000005"><a xlink:href="../../dc/d32/Ark_8cpp.html" target="_top" xlink:title=" ">
<polygon fill="white" stroke="#666666" points="317.5,-41.75 177,-41.75 177,0 317.5,0 317.5,-41.75"/>
<text text-anchor="start" x="185" y="-28.25" font-family="Helvetica,sans-Serif" font-size="10.00">/Users/fola/Documents</text>
<text text-anchor="start" x="185" y="-17" font-family="Helvetica,sans-Serif" font-size="10.00">/ArkScript/Ark/src/arkreactor</text>
<text text-anchor="middle" x="247.25" y="-5.75" font-family="Helvetica,sans-Serif" font-size="10.00">/Ark.cpp</text>
</a>
</g>
</g>
<!-- Node3&#45;&gt;Node5 -->
<g id="edge4_Node000003_Node000005" class="edge">
<title>Node3&#45;&gt;Node5</title>
<g id="a_edge4_Node000003_Node000005"><a xlink:title=" ">
<path fill="none" stroke="#63b8ff" d="M247.25,-66C247.25,-57.96 247.25,-49.54 247.25,-42.23"/>
<polygon fill="#63b8ff" stroke="#63b8ff" points="243.75,-65.81 247.25,-75.81 250.75,-65.81 243.75,-65.81"/>
</a>
</g>
</g>
<!-- Node7&#45;&gt;Node6 -->
<g id="edge7_Node000007_Node000006" class="edge">
<title>Node7&#45;&gt;Node6</title>
<g id="a_edge7_Node000007_Node000006"><a xlink:title=" ">
<path fill="none" stroke="#63b8ff" d="M457.72,-70.44C445.56,-61.14 432.18,-50.9 420.85,-42.23"/>
<polygon fill="#63b8ff" stroke="#63b8ff" points="455.45,-73.11 465.52,-76.41 459.7,-67.55 455.45,-73.11"/>
</a>
</g>
</g>
<!-- Node7&#45;&gt;Node8 -->
<g id="edge8_Node000007_Node000008" class="edge">
<title>Node7&#45;&gt;Node8</title>
<g id="a_edge8_Node000007_Node000008"><a xlink:title=" ">
<path fill="none" stroke="#63b8ff" d="M512.23,-67.68C517.63,-59.14 523.4,-50.05 528.35,-42.23"/>
<polygon fill="#63b8ff" stroke="#63b8ff" points="509.32,-65.73 506.92,-76.05 515.23,-69.47 509.32,-65.73"/>
</a>
</g>
</g>
<!-- Node10 -->
<g id="Node000010" class="node">
<title>Node10</title>
<g id="a_Node000010"><a xlink:href="../../d7/d46/Repl_8cpp.html" target="_top" xlink:title=" ">
<polygon fill="white" stroke="#666666" points="764.5,-41.75 630,-41.75 630,0 764.5,0 764.5,-41.75"/>
<text text-anchor="start" x="638" y="-28.25" font-family="Helvetica,sans-Serif" font-size="10.00">/Users/fola/Documents</text>
<text text-anchor="start" x="638" y="-17" font-family="Helvetica,sans-Serif" font-size="10.00">/ArkScript/Ark/src/arkscript</text>
<text text-anchor="middle" x="697.25" y="-5.75" font-family="Helvetica,sans-Serif" font-size="10.00">/REPL/Repl.cpp</text>
</a>
</g>
</g>
<!-- Node9&#45;&gt;Node10 -->
<g id="edge10_Node000009_Node000010" class="edge">
<title>Node9&#45;&gt;Node10</title>
<g id="a_edge10_Node000009_Node000010"><a xlink:title=" ">
<path fill="none" stroke="#63b8ff" d="M686.7,-66.28C688.63,-58.16 690.66,-49.62 692.41,-42.23"/>
<polygon fill="#63b8ff" stroke="#63b8ff" points="683.33,-65.31 684.42,-75.85 690.14,-66.93 683.33,-65.31"/>
</a>
</g>
</g>
<!-- Node11 -->
<g id="Node000011" class="node">
<title>Node11</title>
<g id="a_Node000011"><a xlink:href="../../d0/d46/arkscript_2main_8cpp.html" target="_top" xlink:title=" ">
<polygon fill="white" stroke="#666666" points="917.5,-41.75 783,-41.75 783,0 917.5,0 917.5,-41.75"/>
<text text-anchor="start" x="791" y="-28.25" font-family="Helvetica,sans-Serif" font-size="10.00">/Users/fola/Documents</text>
<text text-anchor="start" x="791" y="-17" font-family="Helvetica,sans-Serif" font-size="10.00">/ArkScript/Ark/src/arkscript</text>
<text text-anchor="middle" x="850.25" y="-5.75" font-family="Helvetica,sans-Serif" font-size="10.00">/main.cpp</text>
</a>
</g>
</g>
<!-- Node9&#45;&gt;Node11 -->
<g id="edge11_Node000009_Node000011" class="edge">
<title>Node9&#45;&gt;Node11</title>
<g id="a_edge11_Node000009_Node000011"><a xlink:title=" ">
<path fill="none" stroke="#63b8ff" d="M735.42,-72.74C757.75,-62.85 783.1,-51.62 804.3,-42.23"/>
<polygon fill="#63b8ff" stroke="#63b8ff" points="734.18,-69.46 726.46,-76.71 737.02,-75.86 734.18,-69.46"/>
</a>
</g>
</g>
</g>
</svg>

<g id="navigator" transform="translate(0 0)" fill="#404254">
  <rect fill="#f2f5e9" fill-opacity="0.5" stroke="#606060" stroke-width=".5" x="0" y="0" width="60" height="60"/>
  <use id="zoomplus" xlink:href="#zoomPlus" x="17" y="9" onmousedown="handleZoom(evt,'in')"/>
  <use id="zoomminus" xlink:href="#zoomMin" x="42" y="9" onmousedown="handleZoom(evt,'out')"/>
  <use id="reset" xlink:href="#resetDef" x="30" y="36" onmousedown="handleReset()"/>
   <use id="arrowup" xlink:href="#arrowUp" x="0" y="0" onmousedown="handlePan(0,-1)"/>
  <use id="arrowright" xlink:href="#arrowRight" x="0" y="0" onmousedown="handlePan(1,0)"/>
  <use id="arrowdown" xlink:href="#arrowDown" x="0" y="0" onmousedown="handlePan(0,1)"/>
  <use id="arrowleft" xlink:href="#arrowLeft" x="0" y="0" onmousedown="handlePan(-1,0)"/>
</g>
<svg viewBox="0 0 15 15" width="100%" height="30px" preserveAspectRatio="xMaxYMin meet">
 <g id="arrow_out" transform="scale(0.3 0.3)">
  <a xlink:href="Future_8hpp__dep__incl_org.svg" target="_base">
   <rect id="button" ry="5" rx="5" y="6" x="6" height="38" width="38"
        fill="#f2f5e9" fill-opacity="0.5" stroke="#606060" stroke-width="1.0"/>
   <path id="arrow"
     d="M 11.500037,31.436501 C 11.940474,20.09759 22.043105,11.32322 32.158766,21.979434 L 37.068811,17.246167 C 37.068811,17.246167 37.088388,32 37.088388,32 L 22.160133,31.978069 C 22.160133,31.978069 26.997745,27.140456 26.997745,27.140456 C 18.528582,18.264221 13.291696,25.230495 11.500037,31.436501 z"
     style="fill:#404040;"/>
  </a>
 </g>
</svg>

<style type='text/css'>
<![CDATA[
[data-mouse-over-selected='false'] { opacity: 0.7; }
[data-mouse-over-selected='true']  { opacity: 1.0; }
]]>
</style>
<script type="application/ecmascript"><![CDATA[
document.addEventListener('DOMContentLoaded', (event) => {
  highlightEdges();
  highlightAdjacentNodes();
});
]]></script>
</svg>
