<?xml version="1.0" encoding="UTF-8" standalone="no"?>
<!DOCTYPE svg PUBLIC "-//W3C//DTD SVG 1.1//EN"
 "http://www.w3.org/Graphics/SVG/1.1/DTD/svg11.dtd">
<!-- Generated by graphviz version 12.2.0 (20241103.1931)
 -->
<!-- Title: Formatter Pages: 1 -->
<svg width="1621pt" height="687pt"
 viewBox="0.00 0.00 1620.75 686.64" xmlns="http://www.w3.org/2000/svg" xmlns:xlink="http://www.w3.org/1999/xlink">
<g id="graph0" class="graph" transform="scale(1 1) rotate(0) translate(4 682.64)">
<title>Formatter</title>
<!-- Node1 -->
<g id="Node000001" class="node">
<title>Node1</title>
<g id="a_Node000001"><a xlink:title=" ">
<polygon fill="#999999" stroke="#666666" points="1612.75,-211.88 1554.75,-211.88 1554.75,-192.62 1612.75,-192.62 1612.75,-211.88"/>
<text text-anchor="middle" x="1583.75" y="-198.38" font-family="Helvetica,sans-Serif" font-size="10.00">Formatter</text>
</a>
</g>
</g>
<!-- Node2 -->
<g id="Node000002" class="node">
<title>Node2</title>
<g id="a_Node000002"><a xlink:title=" ">
<polygon fill="white" stroke="#666666" points="407.88,-223.88 348.38,-223.88 348.38,-204.62 407.88,-204.62 407.88,-223.88"/>
<text text-anchor="middle" x="378.12" y="-210.38" font-family="Helvetica,sans-Serif" font-size="10.00">std::string</text>
</a>
</g>
</g>
<!-- Node2&#45;&gt;Node1 -->
<g id="edge1_Node000001_Node000002" class="edge">
<title>Node2&#45;&gt;Node1</title>
<g id="a_edge1_Node000001_Node000002"><a xlink:title=" ">
<path fill="none" stroke="#9a32cd" stroke-dasharray="5,2" d="M419.49,-212.94C519.08,-209.83 784.51,-202.25 1006,-202.25 1006,-202.25 1006,-202.25 1424.75,-202.25 1470.15,-202.25 1522.88,-202.25 1554.49,-202.25"/>
<polygon fill="#9a32cd" stroke="#9a32cd" points="419.58,-209.44 409.69,-213.25 419.8,-216.43 419.58,-209.44"/>
</a>
</g>
<text text-anchor="middle" x="1115.88" y="-215.25" font-family="Helvetica,sans-Serif" font-size="10.00" fill="grey"> m_filename</text>
<text text-anchor="middle" x="1115.88" y="-204" font-family="Helvetica,sans-Serif" font-size="10.00" fill="grey">m_output</text>
</g>
<!-- Node5 -->
<g id="Node000005" class="node">
<title>Node5</title>
<g id="a_Node000005"><a xlink:href="../../d8/d00/classArk_1_1internal_1_1BaseParser.html" target="_top" xlink:title=" ">
<polygon fill="white" stroke="#666666" points="1287.5,-488.88 1162,-488.88 1162,-469.62 1287.5,-469.62 1287.5,-488.88"/>
<text text-anchor="middle" x="1224.75" y="-475.38" font-family="Helvetica,sans-Serif" font-size="10.00">Ark::internal::BaseParser</text>
</a>
</g>
</g>
<!-- Node2&#45;&gt;Node5 -->
<g id="edge5_Node000005_Node000002" class="edge">
<title>Node2&#45;&gt;Node5</title>
<g id="a_edge5_Node000005_Node000002"><a xlink:title=" ">
<path fill="none" stroke="#9a32cd" stroke-dasharray="5,2" d="M381.59,-235.2C387.07,-271.13 403.89,-343.65 452.5,-375.25 463.53,-382.42 913.27,-377.57 926.25,-379.75 1032.87,-397.63 1153.01,-447.6 1201.6,-469.15"/>
<polygon fill="#9a32cd" stroke="#9a32cd" points="385.11,-235.09 380.3,-225.65 378.17,-236.03 385.11,-235.09"/>
</a>
</g>
<text text-anchor="middle" x="833.88" y="-392.75" font-family="Helvetica,sans-Serif" font-size="10.00" fill="grey"> m_filename</text>
<text text-anchor="middle" x="833.88" y="-381.5" font-family="Helvetica,sans-Serif" font-size="10.00" fill="grey">m_str</text>
</g>
<!-- Node18 -->
<g id="Node000018" class="node">
<title>Node18</title>
<g id="a_Node000018"><a xlink:href="../../d6/d2f/classArk_1_1internal_1_1Logger.html" target="_top" xlink:title=" ">
<polygon fill="white" stroke="#666666" points="1058.88,-152.88 955.12,-152.88 955.12,-133.62 1058.88,-133.62 1058.88,-152.88"/>
<text text-anchor="middle" x="1007" y="-139.38" font-family="Helvetica,sans-Serif" font-size="10.00">Ark::internal::Logger</text>
</a>
</g>
</g>
<!-- Node2&#45;&gt;Node18 -->
<g id="edge21_Node000018_Node000002" class="edge">
<title>Node2&#45;&gt;Node18</title>
<g id="a_edge21_Node000018_Node000002"><a xlink:title=" ">
<path fill="none" stroke="#9a32cd" stroke-dasharray="5,2" d="M399.67,-197.55C413.67,-187.17 433.12,-174.63 452.5,-168.25 544.78,-137.86 836.05,-139.86 954.82,-142.06"/>
<polygon fill="#9a32cd" stroke="#9a32cd" points="397.91,-194.49 392.12,-203.36 402.18,-200.04 397.91,-194.49"/>
</a>
</g>
<text text-anchor="middle" x="661.5" y="-149.04" font-family="Helvetica,sans-Serif" font-size="10.00" fill="grey"> m_name</text>
</g>
<!-- Node19 -->
<g id="Node000019" class="node">
<title>Node19</title>
<g id="a_Node000019"><a xlink:title=" ">
<polygon fill="white" stroke="#666666" points="722.75,-107.38 600.25,-107.38 600.25,-43.12 722.75,-43.12 722.75,-107.38"/>
<text text-anchor="start" x="608.25" y="-93.88" font-family="Helvetica,sans-Serif" font-size="10.00">std::unordered_map</text>
<text text-anchor="start" x="608.25" y="-82.62" font-family="Helvetica,sans-Serif" font-size="10.00">&lt; std::string, std::</text>
<text text-anchor="start" x="608.25" y="-71.38" font-family="Helvetica,sans-Serif" font-size="10.00">chrono::time_point&lt; std</text>
<text text-anchor="start" x="608.25" y="-60.12" font-family="Helvetica,sans-Serif" font-size="10.00">::chrono::high_resolution</text>
<text text-anchor="middle" x="661.5" y="-48.88" font-family="Helvetica,sans-Serif" font-size="10.00">_clock &gt; &gt;</text>
</a>
</g>
</g>
<!-- Node2&#45;&gt;Node19 -->
<g id="edge23_Node000019_Node000002" class="edge">
<title>Node2&#45;&gt;Node19</title>
<g id="a_edge23_Node000019_Node000002"><a xlink:title=" ">
<path fill="none" stroke="#9a32cd" stroke-dasharray="5,2" d="M393.64,-195.56C404.86,-181.06 420.75,-160.45 434.5,-142.25 442.59,-131.54 441.08,-125.05 452.5,-118 502.03,-87.4 524.58,-107.46 581.5,-95.25 587.45,-93.97 593.63,-92.56 599.79,-91.1"/>
<polygon fill="#9a32cd" stroke="#9a32cd" points="390.99,-193.26 387.63,-203.31 396.52,-197.55 390.99,-193.26"/>
</a>
</g>
<text text-anchor="middle" x="517" y="-119.75" font-family="Helvetica,sans-Serif" font-size="10.00" fill="grey"> keys</text>
</g>
<!-- Node22 -->
<g id="Node000022" class="node">
<title>Node22</title>
<g id="a_Node000022"><a xlink:title=" ">
<polygon fill="white" stroke="#666666" points="723.5,-276.88 599.5,-276.88 599.5,-257.62 723.5,-257.62 723.5,-276.88"/>
<text text-anchor="middle" x="661.5" y="-263.38" font-family="Helvetica,sans-Serif" font-size="10.00">std::vector&lt; std::string &gt;</text>
</a>
</g>
</g>
<!-- Node2&#45;&gt;Node22 -->
<g id="edge28_Node000022_Node000002" class="edge">
<title>Node2&#45;&gt;Node22</title>
<g id="a_edge28_Node000022_Node000002"><a xlink:title=" ">
<path fill="none" stroke="#9a32cd" stroke-dasharray="5,2" d="M419.53,-220.63C469.39,-228.56 551.3,-241.81 581.5,-248 594.64,-250.69 608.9,-254.04 621.65,-257.18"/>
<polygon fill="#9a32cd" stroke="#9a32cd" points="420.11,-217.17 409.69,-219.06 419.02,-224.09 420.11,-217.17"/>
</a>
</g>
<text text-anchor="middle" x="517" y="-249.75" font-family="Helvetica,sans-Serif" font-size="10.00" fill="grey"> elements</text>
</g>
<!-- Node27 -->
<g id="Node000027" class="node">
<title>Node27</title>
<g id="a_Node000027"><a xlink:href="../../dc/d9e/classArk_1_1internal_1_1Node.html" target="_top" xlink:title="A node of an Abstract Syntax Tree for ArkScript.">
<polygon fill="white" stroke="#666666" points="710.38,-354.88 612.62,-354.88 612.62,-335.62 710.38,-335.62 710.38,-354.88"/>
<text text-anchor="middle" x="661.5" y="-341.38" font-family="Helvetica,sans-Serif" font-size="10.00">Ark::internal::Node</text>
</a>
</g>
</g>
<!-- Node2&#45;&gt;Node27 -->
<g id="edge37_Node000027_Node000002" class="edge">
<title>Node2&#45;&gt;Node27</title>
<g id="a_edge37_Node000027_Node000002"><a xlink:title=" ">
<path fill="none" stroke="#9a32cd" stroke-dasharray="5,2" d="M391.11,-233.76C403.92,-252.91 426,-281.48 452.5,-297.25 502.02,-326.72 568.13,-338.1 612.4,-342.49"/>
<polygon fill="#9a32cd" stroke="#9a32cd" points="394.15,-232.02 385.8,-225.5 388.26,-235.81 394.15,-232.02"/>
</a>
</g>
<text text-anchor="middle" x="517" y="-362.15" font-family="Helvetica,sans-Serif" font-size="10.00" fill="grey"> m_after_comment</text>
<text text-anchor="middle" x="517" y="-350.9" font-family="Helvetica,sans-Serif" font-size="10.00" fill="grey">m_comment</text>
<text text-anchor="middle" x="517" y="-339.65" font-family="Helvetica,sans-Serif" font-size="10.00" fill="grey">m_filename</text>
</g>
<!-- Node31 -->
<g id="Node000031" class="node">
<title>Node31</title>
<g id="a_Node000031"><a xlink:href="../../da/d03/structArk_1_1internal_1_1Import.html" target="_top" xlink:title=" ">
<polygon fill="white" stroke="#666666" points="1058.12,-270.88 955.88,-270.88 955.88,-251.62 1058.12,-251.62 1058.12,-270.88"/>
<text text-anchor="middle" x="1007" y="-257.38" font-family="Helvetica,sans-Serif" font-size="10.00">Ark::internal::Import</text>
</a>
</g>
</g>
<!-- Node2&#45;&gt;Node31 -->
<g id="edge40_Node000031_Node000002" class="edge">
<title>Node2&#45;&gt;Node31</title>
<g id="a_edge40_Node000031_Node000002"><a xlink:title=" ">
<path fill="none" stroke="#9a32cd" stroke-dasharray="5,2" d="M419.39,-216.65C483.7,-220.55 613.54,-228.65 723.5,-237 804.73,-243.17 899,-251.5 955.5,-256.61"/>
<polygon fill="#9a32cd" stroke="#9a32cd" points="419.87,-213.18 409.68,-216.07 419.45,-220.16 419.87,-213.18"/>
</a>
</g>
<text text-anchor="middle" x="661.5" y="-238.75" font-family="Helvetica,sans-Serif" font-size="10.00" fill="grey"> prefix</text>
</g>
<!-- Node3 -->
<g id="Node000003" class="node">
<title>Node3</title>
<g id="a_Node000003"><a xlink:title=" ">
<polygon fill="white" stroke="#666666" points="216.38,-229.5 122.38,-229.5 122.38,-199 216.38,-199 216.38,-229.5"/>
<text text-anchor="start" x="130.38" y="-216" font-family="Helvetica,sans-Serif" font-size="10.00">std::basic_string&lt;</text>
<text text-anchor="middle" x="169.38" y="-204.75" font-family="Helvetica,sans-Serif" font-size="10.00"> Char &gt;</text>
</a>
</g>
</g>
<!-- Node3&#45;&gt;Node2 -->
<g id="edge2_Node000002_Node000003" class="edge">
<title>Node3&#45;&gt;Node2</title>
<g id="a_edge2_Node000002_Node000003"><a xlink:title=" ">
<path fill="none" stroke="#63b8ff" d="M228.25,-214.25C267.29,-214.25 317.14,-214.25 348.1,-214.25"/>
<polygon fill="#63b8ff" stroke="#63b8ff" points="228.29,-210.75 218.29,-214.25 228.29,-217.75 228.29,-210.75"/>
</a>
</g>
</g>
<!-- Node4 -->
<g id="Node000004" class="node">
<title>Node4</title>
<g id="a_Node000004"><a xlink:href="../../d9/d0c/classArk_1_1internal_1_1Parser.html" target="_top" xlink:title=" ">
<polygon fill="white" stroke="#666666" points="1475.25,-336.88 1372.25,-336.88 1372.25,-317.62 1475.25,-317.62 1475.25,-336.88"/>
<text text-anchor="middle" x="1423.75" y="-323.38" font-family="Helvetica,sans-Serif" font-size="10.00">Ark::internal::Parser</text>
</a>
</g>
</g>
<!-- Node4&#45;&gt;Node1 -->
<g id="edge3_Node000001_Node000004" class="edge">
<title>Node4&#45;&gt;Node1</title>
<g id="a_edge3_Node000001_Node000004"><a xlink:title=" ">
<path fill="none" stroke="#9a32cd" stroke-dasharray="5,2" d="M1446.38,-310.13C1479.83,-283.67 1543.05,-233.66 1570.03,-212.32"/>
<polygon fill="#9a32cd" stroke="#9a32cd" points="1444.27,-307.34 1438.6,-316.29 1448.61,-312.83 1444.27,-307.34"/>
</a>
</g>
<text text-anchor="middle" x="1515" y="-273.98" font-family="Helvetica,sans-Serif" font-size="10.00" fill="grey"> m_parser</text>
</g>
<!-- Node5&#45;&gt;Node4 -->
<g id="edge4_Node000004_Node000005" class="edge">
<title>Node5&#45;&gt;Node4</title>
<g id="a_edge4_Node000004_Node000005"><a xlink:title=" ">
<path fill="none" stroke="#63b8ff" d="M1258.73,-464.4C1285.9,-451.29 1324.64,-430.51 1354.25,-406.25 1380.22,-384.96 1404.43,-353.19 1415.86,-337.2"/>
<polygon fill="#63b8ff" stroke="#63b8ff" points="1257.48,-461.12 1249.93,-468.56 1260.47,-467.45 1257.48,-461.12"/>
</a>
</g>
</g>
<!-- Node6 -->
<g id="Node000006" class="node">
<title>Node6</title>
<g id="a_Node000006"><a xlink:title=" ">
<polygon fill="white" stroke="#666666" points="1060.38,-578.12 953.62,-578.12 953.62,-536.38 1060.38,-536.38 1060.38,-578.12"/>
<text text-anchor="start" x="961.62" y="-564.62" font-family="Helvetica,sans-Serif" font-size="10.00">std::vector&lt; std::pair</text>
<text text-anchor="start" x="961.62" y="-553.38" font-family="Helvetica,sans-Serif" font-size="10.00">&lt; std::string::iterator,</text>
<text text-anchor="middle" x="1007" y="-542.12" font-family="Helvetica,sans-Serif" font-size="10.00"> std::size_t &gt; &gt;</text>
</a>
</g>
</g>
<!-- Node6&#45;&gt;Node5 -->
<g id="edge6_Node000005_Node000006" class="edge">
<title>Node6&#45;&gt;Node5</title>
<g id="a_edge6_Node000005_Node000006"><a xlink:title=" ">
<path fill="none" stroke="#9a32cd" stroke-dasharray="5,2" d="M1071.36,-535.19C1094.28,-527.13 1120.34,-517.87 1144,-509.25 1161.93,-502.71 1182.04,-495.15 1197.58,-489.25"/>
<polygon fill="#9a32cd" stroke="#9a32cd" points="1070.43,-531.81 1062.15,-538.42 1072.75,-538.41 1070.43,-531.81"/>
</a>
</g>
<text text-anchor="middle" x="1115.88" y="-531.05" font-family="Helvetica,sans-Serif" font-size="10.00" fill="grey"> m_it_to_row</text>
</g>
<!-- Node7 -->
<g id="Node000007" class="node">
<title>Node7</title>
<g id="a_Node000007"><a xlink:title=" ">
<polygon fill="white" stroke="#666666" points="717.5,-636.5 605.5,-636.5 605.5,-606 717.5,-606 717.5,-636.5"/>
<text text-anchor="start" x="613.5" y="-623" font-family="Helvetica,sans-Serif" font-size="10.00">std::pair&lt; std::string</text>
<text text-anchor="middle" x="661.5" y="-611.75" font-family="Helvetica,sans-Serif" font-size="10.00">::iterator, std::size_t &gt;</text>
</a>
</g>
</g>
<!-- Node7&#45;&gt;Node6 -->
<g id="edge7_Node000006_Node000007" class="edge">
<title>Node7&#45;&gt;Node6</title>
<g id="a_edge7_Node000006_Node000007"><a xlink:title=" ">
<path fill="none" stroke="#9a32cd" stroke-dasharray="5,2" d="M728.69,-608.92C794.11,-596.73 892.89,-578.32 953.2,-567.09"/>
<polygon fill="#9a32cd" stroke="#9a32cd" points="728.37,-605.42 719.18,-610.69 729.65,-612.3 728.37,-605.42"/>
</a>
</g>
<text text-anchor="middle" x="833.88" y="-607.53" font-family="Helvetica,sans-Serif" font-size="10.00" fill="grey"> elements</text>
</g>
<!-- Node8 -->
<g id="Node000008" class="node">
<title>Node8</title>
<g id="a_Node000008"><a xlink:title=" ">
<polygon fill="white" stroke="#666666" points="425.88,-660.88 330.38,-660.88 330.38,-641.62 425.88,-641.62 425.88,-660.88"/>
<text text-anchor="middle" x="378.12" y="-647.38" font-family="Helvetica,sans-Serif" font-size="10.00">std::string::iterator</text>
</a>
</g>
</g>
<!-- Node8&#45;&gt;Node5 -->
<g id="edge14_Node000005_Node000008" class="edge">
<title>Node8&#45;&gt;Node5</title>
<g id="a_edge14_Node000005_Node000008"><a xlink:title=" ">
<path fill="none" stroke="#9a32cd" stroke-dasharray="5,2" d="M437.33,-656.61C559.49,-665.59 849.46,-674.93 1069.75,-587.25 1130.13,-563.22 1189.69,-511.29 1213.23,-489.35"/>
<polygon fill="#9a32cd" stroke="#9a32cd" points="437.79,-653.14 427.55,-655.86 437.26,-660.12 437.79,-653.14"/>
</a>
</g>
<text text-anchor="middle" x="833.88" y="-669.14" font-family="Helvetica,sans-Serif" font-size="10.00" fill="grey"> m_it</text>
<text text-anchor="middle" x="833.88" y="-657.89" font-family="Helvetica,sans-Serif" font-size="10.00" fill="grey">m_next_it</text>
</g>
<!-- Node8&#45;&gt;Node7 -->
<g id="edge8_Node000007_Node000008" class="edge">
<title>Node8&#45;&gt;Node7</title>
<g id="a_edge8_Node000007_Node000008"><a xlink:title=" ">
<path fill="none" stroke="#9a32cd" stroke-dasharray="5,2" d="M437.24,-641.11C442.4,-640.34 447.54,-639.63 452.5,-639 504.1,-632.5 563.21,-627.71 605.19,-624.76"/>
<polygon fill="#9a32cd" stroke="#9a32cd" points="436.86,-637.63 427.51,-642.61 437.93,-644.54 436.86,-637.63"/>
</a>
</g>
<text text-anchor="middle" x="517" y="-640.75" font-family="Helvetica,sans-Serif" font-size="10.00" fill="grey"> first_type</text>
</g>
<!-- Node9 -->
<g id="Node000009" class="node">
<title>Node9</title>
<g id="a_Node000009"><a xlink:title=" ">
<polygon fill="white" stroke="#666666" points="427,-601.88 329.25,-601.88 329.25,-582.62 427,-582.62 427,-601.88"/>
<text text-anchor="middle" x="378.12" y="-588.38" font-family="Helvetica,sans-Serif" font-size="10.00">std::pair&lt; T1, T2 &gt;</text>
</a>
</g>
</g>
<!-- Node9&#45;&gt;Node7 -->
<g id="edge9_Node000007_Node000009" class="edge">
<title>Node9&#45;&gt;Node7</title>
<g id="a_edge9_Node000007_Node000009"><a xlink:title=" ">
<path fill="none" stroke="orange" stroke-dasharray="5,2" d="M438.67,-587.62C479.23,-585.7 533.97,-585.53 581.5,-593.75 595.52,-596.17 610.39,-600.77 623.39,-605.53"/>
<polygon fill="orange" stroke="orange" points="438.67,-584.11 428.87,-588.13 439.04,-591.1 438.67,-584.11"/>
</a>
</g>
<text text-anchor="start" x="470.12" y="-606.75" font-family="Helvetica,sans-Serif" font-size="10.00" fill="grey"> &lt; std::string::iterator,</text>
<text text-anchor="middle" x="517" y="-595.5" font-family="Helvetica,sans-Serif" font-size="10.00" fill="grey"> std::size_t &gt;</text>
</g>
<!-- Node10 -->
<g id="Node000010" class="node">
<title>Node10</title>
<g id="a_Node000010"><a xlink:title=" ">
<polygon fill="white" stroke="#666666" points="183.78,-619.88 154.97,-619.88 154.97,-600.62 183.78,-600.62 183.78,-619.88"/>
<text text-anchor="middle" x="169.38" y="-606.38" font-family="Helvetica,sans-Serif" font-size="10.00">T1</text>
</a>
</g>
</g>
<!-- Node10&#45;&gt;Node9 -->
<g id="edge10_Node000009_Node000010" class="edge">
<title>Node10&#45;&gt;Node9</title>
<g id="a_edge10_Node000009_Node000010"><a xlink:title=" ">
<path fill="none" stroke="#9a32cd" stroke-dasharray="5,2" d="M195.57,-608.06C228.55,-605.18 287.08,-600.09 328.76,-596.46"/>
<polygon fill="#9a32cd" stroke="#9a32cd" points="195.43,-604.56 185.77,-608.91 196.04,-611.53 195.43,-604.56"/>
</a>
</g>
<text text-anchor="middle" x="274.5" y="-605.14" font-family="Helvetica,sans-Serif" font-size="10.00" fill="grey"> first_type</text>
</g>
<!-- Node11 -->
<g id="Node000011" class="node">
<title>Node11</title>
<g id="a_Node000011"><a xlink:title=" ">
<polygon fill="white" stroke="#666666" points="183.78,-582.88 154.97,-582.88 154.97,-563.62 183.78,-563.62 183.78,-582.88"/>
<text text-anchor="middle" x="169.38" y="-569.38" font-family="Helvetica,sans-Serif" font-size="10.00">T2</text>
</a>
</g>
</g>
<!-- Node11&#45;&gt;Node9 -->
<g id="edge11_Node000009_Node000011" class="edge">
<title>Node11&#45;&gt;Node9</title>
<g id="a_edge11_Node000009_Node000011"><a xlink:title=" ">
<path fill="none" stroke="#9a32cd" stroke-dasharray="5,2" d="M195.39,-575.03C222.21,-576.99 266.02,-580.36 303.75,-584 311.92,-584.79 320.59,-585.7 329,-586.62"/>
<polygon fill="#9a32cd" stroke="#9a32cd" points="195.76,-571.55 185.53,-574.32 195.25,-578.53 195.76,-571.55"/>
</a>
</g>
<text text-anchor="middle" x="274.5" y="-585.75" font-family="Helvetica,sans-Serif" font-size="10.00" fill="grey"> second_type</text>
</g>
<!-- Node12 -->
<g id="Node000012" class="node">
<title>Node12</title>
<g id="a_Node000012"><a xlink:title=" ">
<polygon fill="white" stroke="#666666" points="421.38,-396.88 334.88,-396.88 334.88,-377.62 421.38,-377.62 421.38,-396.88"/>
<text text-anchor="middle" x="378.12" y="-383.38" font-family="Helvetica,sans-Serif" font-size="10.00">std::vector&lt; T &gt;</text>
</a>
</g>
</g>
<!-- Node12&#45;&gt;Node6 -->
<g id="edge12_Node000006_Node000012" class="edge">
<title>Node12&#45;&gt;Node6</title>
<g id="a_edge12_Node000006_Node000012"><a xlink:title=" ">
<path fill="none" stroke="orange" stroke-dasharray="5,2" d="M392.3,-406.55C403.72,-423.45 420.56,-448.74 434.5,-471.25 442.89,-484.8 439.05,-493.71 452.5,-502.25 503.53,-534.65 663.35,-519.79 723.5,-525.75 803.67,-533.69 896.47,-544.32 953.19,-550.97"/>
<polygon fill="orange" stroke="orange" points="395.32,-404.78 386.81,-398.47 389.53,-408.71 395.32,-404.78"/>
</a>
</g>
<text text-anchor="start" x="609" y="-538.75" font-family="Helvetica,sans-Serif" font-size="10.00" fill="grey"> &lt; std::pair&lt; std::string</text>
<text text-anchor="middle" x="661.5" y="-527.5" font-family="Helvetica,sans-Serif" font-size="10.00" fill="grey">::iterator, std::size_t &gt; &gt;</text>
</g>
<!-- Node12&#45;&gt;Node22 -->
<g id="edge29_Node000022_Node000012" class="edge">
<title>Node12&#45;&gt;Node22</title>
<g id="a_edge29_Node000022_Node000012"><a xlink:title=" ">
<path fill="none" stroke="orange" stroke-dasharray="5,2" d="M386.92,-366.71C397.57,-341.83 419.22,-300.89 452.5,-282 476.7,-268.26 546.86,-265.7 599.04,-265.85"/>
<polygon fill="orange" stroke="orange" points="383.76,-365.19 383.25,-375.77 390.25,-367.81 383.76,-365.19"/>
</a>
</g>
<text text-anchor="middle" x="517" y="-283.75" font-family="Helvetica,sans-Serif" font-size="10.00" fill="grey"> &lt; std::string &gt;</text>
</g>
<!-- Node30 -->
<g id="Node000030" class="node">
<title>Node30</title>
<g id="a_Node000030"><a xlink:title=" ">
<polygon fill="white" stroke="#666666" points="1286.38,-317.5 1163.12,-317.5 1163.12,-287 1286.38,-287 1286.38,-317.5"/>
<text text-anchor="start" x="1171.12" y="-304" font-family="Helvetica,sans-Serif" font-size="10.00">std::vector&lt; Ark::internal</text>
<text text-anchor="middle" x="1224.75" y="-292.75" font-family="Helvetica,sans-Serif" font-size="10.00">::Import &gt;</text>
</a>
</g>
</g>
<!-- Node12&#45;&gt;Node30 -->
<g id="edge42_Node000030_Node000012" class="edge">
<title>Node12&#45;&gt;Node30</title>
<g id="a_edge42_Node000030_Node000012"><a xlink:title=" ">
<path fill="none" stroke="orange" stroke-dasharray="5,2" d="M393.16,-368.75C406.46,-352.85 428.01,-330.99 452.5,-321.25 581,-270.14 1004.02,-289.12 1162.81,-298.37"/>
<polygon fill="orange" stroke="orange" points="390.79,-366.12 387.27,-376.11 396.25,-370.49 390.79,-366.12"/>
</a>
</g>
<text text-anchor="middle" x="833.88" y="-290.23" font-family="Helvetica,sans-Serif" font-size="10.00" fill="grey"> &lt; Ark::internal::Import &gt;</text>
</g>
<!-- Node32 -->
<g id="Node000032" class="node">
<title>Node32</title>
<g id="a_Node000032"><a xlink:title=" ">
<polygon fill="white" stroke="#666666" points="926.25,-453.12 741.5,-453.12 741.5,-411.38 926.25,-411.38 926.25,-453.12"/>
<text text-anchor="start" x="749.5" y="-439.62" font-family="Helvetica,sans-Serif" font-size="10.00">std::vector&lt; std::function</text>
<text text-anchor="start" x="749.5" y="-428.38" font-family="Helvetica,sans-Serif" font-size="10.00">&lt; std::optional&lt; Ark::internal</text>
<text text-anchor="middle" x="833.88" y="-417.12" font-family="Helvetica,sans-Serif" font-size="10.00">::Node &gt;(Ark::internal::FilePosition)&gt; &gt;</text>
</a>
</g>
</g>
<!-- Node12&#45;&gt;Node32 -->
<g id="edge44_Node000032_Node000012" class="edge">
<title>Node12&#45;&gt;Node32</title>
<g id="a_edge44_Node000032_Node000012"><a xlink:title=" ">
<path fill="none" stroke="orange" stroke-dasharray="5,2" d="M432.75,-397.33C439.39,-398.41 446.09,-399.41 452.5,-400.25 550.74,-413.06 663.96,-421.82 741.16,-426.89"/>
<polygon fill="orange" stroke="orange" points="433.64,-393.93 423.2,-395.72 432.47,-400.84 433.64,-393.93"/>
</a>
</g>
<text text-anchor="start" x="466.75" y="-449.66" font-family="Helvetica,sans-Serif" font-size="10.00" fill="grey"> &lt; std::function&lt; std</text>
<text text-anchor="start" x="466.75" y="-438.41" font-family="Helvetica,sans-Serif" font-size="10.00" fill="grey">::optional&lt; Ark::internal</text>
<text text-anchor="start" x="466.75" y="-427.16" font-family="Helvetica,sans-Serif" font-size="10.00" fill="grey">::Node &gt;(Ark::internal::</text>
<text text-anchor="middle" x="517" y="-415.91" font-family="Helvetica,sans-Serif" font-size="10.00" fill="grey">FilePosition)&gt; &gt;</text>
</g>
<!-- Node13 -->
<g id="Node000013" class="node">
<title>Node13</title>
<g id="a_Node000013"><a xlink:title=" ">
<polygon fill="white" stroke="#666666" points="183.78,-396.88 154.97,-396.88 154.97,-377.62 183.78,-377.62 183.78,-396.88"/>
<text text-anchor="middle" x="169.38" y="-383.38" font-family="Helvetica,sans-Serif" font-size="10.00">T</text>
</a>
</g>
</g>
<!-- Node13&#45;&gt;Node12 -->
<g id="edge13_Node000012_Node000013" class="edge">
<title>Node13&#45;&gt;Node12</title>
<g id="a_edge13_Node000012_Node000013"><a xlink:title=" ">
<path fill="none" stroke="#9a32cd" stroke-dasharray="5,2" d="M195.66,-387.25C230.29,-387.25 292.94,-387.25 334.79,-387.25"/>
<polygon fill="#9a32cd" stroke="#9a32cd" points="195.78,-383.75 185.78,-387.25 195.78,-390.75 195.78,-383.75"/>
</a>
</g>
<text text-anchor="middle" x="274.5" y="-389" font-family="Helvetica,sans-Serif" font-size="10.00" fill="grey"> elements</text>
</g>
<!-- Node16 -->
<g id="Node000016" class="node">
<title>Node16</title>
<g id="a_Node000016"><a xlink:title=" ">
<polygon fill="white" stroke="#666666" points="418.75,-550.88 337.5,-550.88 337.5,-531.62 418.75,-531.62 418.75,-550.88"/>
<text text-anchor="middle" x="378.12" y="-537.38" font-family="Helvetica,sans-Serif" font-size="10.00">std::array&lt; T &gt;</text>
</a>
</g>
</g>
<!-- Node13&#45;&gt;Node16 -->
<g id="edge18_Node000016_Node000013" class="edge">
<title>Node13&#45;&gt;Node16</title>
<g id="a_edge18_Node000016_Node000013"><a xlink:title=" ">
<path fill="none" stroke="#9a32cd" stroke-dasharray="5,2" d="M194.13,-398.2C223.02,-412.48 271.89,-439.86 303.75,-475 315.3,-487.74 309.84,-496.85 321.75,-509.25 330.6,-518.46 342.67,-525.85 353.28,-531.2"/>
<polygon fill="#9a32cd" stroke="#9a32cd" points="196,-395.22 185.47,-394.03 192.96,-401.52 196,-395.22"/>
</a>
</g>
<text text-anchor="middle" x="274.5" y="-476.75" font-family="Helvetica,sans-Serif" font-size="10.00" fill="grey"> elements</text>
</g>
<!-- Node20 -->
<g id="Node000020" class="node">
<title>Node20</title>
<g id="a_Node000020"><a xlink:title=" ">
<polygon fill="white" stroke="#666666" points="429.25,-133.5 327,-133.5 327,-103 429.25,-103 429.25,-133.5"/>
<text text-anchor="start" x="335" y="-120" font-family="Helvetica,sans-Serif" font-size="10.00">std::unordered_map</text>
<text text-anchor="middle" x="378.12" y="-108.75" font-family="Helvetica,sans-Serif" font-size="10.00">&lt; K, T &gt;</text>
</a>
</g>
</g>
<!-- Node13&#45;&gt;Node20 -->
<g id="edge26_Node000020_Node000013" class="edge">
<title>Node13&#45;&gt;Node20</title>
<g id="a_edge26_Node000020_Node000013"><a xlink:title=" ">
<path fill="none" stroke="#9a32cd" stroke-dasharray="5,2" d="M184.79,-368.5C223.49,-318.14 329.21,-180.59 365.05,-133.96"/>
<polygon fill="#9a32cd" stroke="#9a32cd" points="182.22,-366.1 178.9,-376.16 187.77,-370.36 182.22,-366.1"/>
</a>
</g>
<text text-anchor="middle" x="274.5" y="-286.5" font-family="Helvetica,sans-Serif" font-size="10.00" fill="grey"> elements</text>
</g>
<!-- Node14 -->
<g id="Node000014" class="node">
<title>Node14</title>
<g id="a_Node000014"><a xlink:href="../../df/d83/classArk_1_1internal_1_1utf8__char__t.html" target="_top" xlink:title=" ">
<polygon fill="white" stroke="#666666" points="1052.5,-518.5 961.5,-518.5 961.5,-488 1052.5,-488 1052.5,-518.5"/>
<text text-anchor="start" x="969.5" y="-505" font-family="Helvetica,sans-Serif" font-size="10.00">Ark::internal::utf8</text>
<text text-anchor="middle" x="1007" y="-493.75" font-family="Helvetica,sans-Serif" font-size="10.00">_char_t</text>
</a>
</g>
</g>
<!-- Node14&#45;&gt;Node5 -->
<g id="edge15_Node000005_Node000014" class="edge">
<title>Node14&#45;&gt;Node5</title>
<g id="a_edge15_Node000005_Node000014"><a xlink:title=" ">
<path fill="none" stroke="#9a32cd" stroke-dasharray="5,2" d="M1064.06,-497.01C1093.98,-493.69 1130.88,-489.58 1161.66,-486.16"/>
<polygon fill="#9a32cd" stroke="#9a32cd" points="1064.02,-493.5 1054.47,-498.08 1064.8,-500.45 1064.02,-493.5"/>
</a>
</g>
<text text-anchor="middle" x="1115.88" y="-495.86" font-family="Helvetica,sans-Serif" font-size="10.00" fill="grey"> m_sym</text>
</g>
<!-- Node15 -->
<g id="Node000015" class="node">
<title>Node15</title>
<g id="a_Node000015"><a xlink:title=" ">
<polygon fill="white" stroke="#666666" points="714.12,-587.5 608.88,-587.5 608.88,-557 714.12,-557 714.12,-587.5"/>
<text text-anchor="start" x="616.88" y="-574" font-family="Helvetica,sans-Serif" font-size="10.00">std::array&lt; unsigned</text>
<text text-anchor="middle" x="661.5" y="-562.75" font-family="Helvetica,sans-Serif" font-size="10.00"> char, 5 &gt;</text>
</a>
</g>
</g>
<!-- Node15&#45;&gt;Node14 -->
<g id="edge16_Node000014_Node000015" class="edge">
<title>Node15&#45;&gt;Node14</title>
<g id="a_edge16_Node000014_Node000015"><a xlink:title=" ">
<path fill="none" stroke="#9a32cd" stroke-dasharray="5,2" d="M725.32,-559.63C793.59,-545.92 900.95,-524.35 961.18,-512.25"/>
<polygon fill="#9a32cd" stroke="#9a32cd" points="724.9,-556.15 715.78,-561.55 726.27,-563.01 724.9,-556.15"/>
</a>
</g>
<text text-anchor="middle" x="833.88" y="-557.33" font-family="Helvetica,sans-Serif" font-size="10.00" fill="grey"> m_repr</text>
</g>
<!-- Node16&#45;&gt;Node15 -->
<g id="edge17_Node000015_Node000016" class="edge">
<title>Node16&#45;&gt;Node15</title>
<g id="a_edge17_Node000015_Node000016"><a xlink:title=" ">
<path fill="none" stroke="orange" stroke-dasharray="5,2" d="M430.44,-546.9C480.94,-552.47 557.66,-560.92 608.42,-566.51"/>
<polygon fill="orange" stroke="orange" points="430.97,-543.44 420.64,-545.82 430.2,-550.4 430.97,-543.44"/>
</a>
</g>
<text text-anchor="middle" x="517" y="-564.84" font-family="Helvetica,sans-Serif" font-size="10.00" fill="grey"> &lt; unsigned char, 5 &gt;</text>
</g>
<!-- Node17 -->
<g id="Node000017" class="node">
<title>Node17</title>
<g id="a_Node000017"><a xlink:href="../../dd/d0e/structArk_1_1internal_1_1FilePosition.html" target="_top" xlink:title="Describe a position in a given file ; handled by the BaseParser.">
<polygon fill="white" stroke="#666666" points="1069.75,-469.88 944.25,-469.88 944.25,-450.62 1069.75,-450.62 1069.75,-469.88"/>
<text text-anchor="middle" x="1007" y="-456.38" font-family="Helvetica,sans-Serif" font-size="10.00">Ark::internal::FilePosition</text>
</a>
</g>
</g>
<!-- Node17&#45;&gt;Node5 -->
<g id="edge19_Node000005_Node000017" class="edge">
<title>Node17&#45;&gt;Node5</title>
<g id="a_edge19_Node000005_Node000017"><a xlink:title=" ">
<path fill="none" stroke="#9a32cd" stroke-dasharray="5,2" d="M1081.46,-461.71C1101.76,-462.56 1123.77,-463.9 1144,-466 1151.96,-466.83 1160.32,-467.94 1168.53,-469.18"/>
<polygon fill="#9a32cd" stroke="#9a32cd" points="1081.7,-458.22 1071.58,-461.33 1081.44,-465.21 1081.7,-458.22"/>
</a>
</g>
<text text-anchor="middle" x="1115.88" y="-467.75" font-family="Helvetica,sans-Serif" font-size="10.00" fill="grey"> m_filepos</text>
</g>
<!-- Node18&#45;&gt;Node1 -->
<g id="edge45_Node000001_Node000018" class="edge">
<title>Node18&#45;&gt;Node1</title>
<g id="a_edge45_Node000001_Node000018"><a xlink:title=" ">
<path fill="none" stroke="#9a32cd" stroke-dasharray="5,2" d="M1070.5,-144.32C1170.04,-146.98 1370.32,-156.21 1536.75,-188.25 1542.49,-189.35 1548.53,-190.9 1554.27,-192.57"/>
<polygon fill="#9a32cd" stroke="#9a32cd" points="1070.76,-140.83 1060.67,-144.08 1070.58,-147.83 1070.76,-140.83"/>
</a>
</g>
<text text-anchor="middle" x="1329.88" y="-163.87" font-family="Helvetica,sans-Serif" font-size="10.00" fill="grey"> m_logger</text>
</g>
<!-- Node18&#45;&gt;Node4 -->
<g id="edge20_Node000004_Node000018" class="edge">
<title>Node18&#45;&gt;Node4</title>
<g id="a_edge20_Node000004_Node000018"><a xlink:title=" ">
<path fill="none" stroke="#9a32cd" stroke-dasharray="5,2" d="M1060.72,-156.24C1086.26,-163.16 1117.14,-172.48 1144,-183.25 1247.39,-224.72 1363.47,-291.82 1406,-317.15"/>
<polygon fill="#9a32cd" stroke="#9a32cd" points="1061.79,-152.9 1051.22,-153.71 1059.99,-159.66 1061.79,-152.9"/>
</a>
</g>
<text text-anchor="middle" x="1224.75" y="-251.79" font-family="Helvetica,sans-Serif" font-size="10.00" fill="grey"> m_logger</text>
</g>
<!-- Node19&#45;&gt;Node18 -->
<g id="edge22_Node000018_Node000019" class="edge">
<title>Node19&#45;&gt;Node18</title>
<g id="a_edge22_Node000018_Node000019"><a xlink:title=" ">
<path fill="none" stroke="#9a32cd" stroke-dasharray="5,2" d="M734.62,-84.05C787.95,-91.25 862.14,-102.74 926.25,-118 943.63,-122.14 962.72,-128.13 977.86,-133.23"/>
<polygon fill="#9a32cd" stroke="#9a32cd" points="735.1,-80.58 724.73,-82.73 734.18,-87.52 735.1,-80.58"/>
</a>
</g>
<text text-anchor="middle" x="833.88" y="-119.75" font-family="Helvetica,sans-Serif" font-size="10.00" fill="grey"> m_trace_starts</text>
</g>
<!-- Node20&#45;&gt;Node19 -->
<g id="edge24_Node000019_Node000020" class="edge">
<title>Node20&#45;&gt;Node19</title>
<g id="a_edge24_Node000019_Node000020"><a xlink:title=" ">
<path fill="none" stroke="orange" stroke-dasharray="5,2" d="M397.32,-93.78C410.63,-78.06 430.2,-59 452.5,-50.25 499.74,-31.73 557.26,-40.82 599.82,-52.92"/>
<polygon fill="orange" stroke="orange" points="394.75,-91.39 391.19,-101.37 400.19,-95.79 394.75,-91.39"/>
</a>
</g>
<text text-anchor="start" x="452.5" y="-85.75" font-family="Helvetica,sans-Serif" font-size="10.00" fill="grey"> &lt; std::string, std</text>
<text text-anchor="start" x="452.5" y="-74.5" font-family="Helvetica,sans-Serif" font-size="10.00" fill="grey">::chrono::time_point</text>
<text text-anchor="start" x="452.5" y="-63.25" font-family="Helvetica,sans-Serif" font-size="10.00" fill="grey">&lt; std::chrono::high_resolution</text>
<text text-anchor="middle" x="517" y="-52" font-family="Helvetica,sans-Serif" font-size="10.00" fill="grey">_clock &gt; &gt;</text>
</g>
<!-- Node21 -->
<g id="Node000021" class="node">
<title>Node21</title>
<g id="a_Node000021"><a xlink:title=" ">
<polygon fill="white" stroke="#666666" points="183.78,-127.88 154.97,-127.88 154.97,-108.62 183.78,-108.62 183.78,-127.88"/>
<text text-anchor="middle" x="169.38" y="-114.38" font-family="Helvetica,sans-Serif" font-size="10.00">K</text>
</a>
</g>
</g>
<!-- Node21&#45;&gt;Node20 -->
<g id="edge25_Node000020_Node000021" class="edge">
<title>Node21&#45;&gt;Node20</title>
<g id="a_edge25_Node000020_Node000021"><a xlink:title=" ">
<path fill="none" stroke="#9a32cd" stroke-dasharray="5,2" d="M195.37,-118.25C227.74,-118.25 284.95,-118.25 326.55,-118.25"/>
<polygon fill="#9a32cd" stroke="#9a32cd" points="195.78,-114.75 185.78,-118.25 195.78,-121.75 195.78,-114.75"/>
</a>
</g>
<text text-anchor="middle" x="274.5" y="-120" font-family="Helvetica,sans-Serif" font-size="10.00" fill="grey"> keys</text>
</g>
<!-- Node22&#45;&gt;Node18 -->
<g id="edge27_Node000018_Node000022" class="edge">
<title>Node22&#45;&gt;Node18</title>
<g id="a_edge27_Node000018_Node000022"><a xlink:title=" ">
<path fill="none" stroke="#9a32cd" stroke-dasharray="5,2" d="M700.86,-253.4C770.77,-228.16 917.36,-175.25 978.4,-153.21"/>
<polygon fill="#9a32cd" stroke="#9a32cd" points="699.96,-250.01 691.74,-256.69 702.34,-256.59 699.96,-250.01"/>
</a>
</g>
<text text-anchor="middle" x="833.88" y="-239.03" font-family="Helvetica,sans-Serif" font-size="10.00" fill="grey"> m_active_traces</text>
</g>
<!-- Node22&#45;&gt;Node31 -->
<g id="edge41_Node000031_Node000022" class="edge">
<title>Node22&#45;&gt;Node31</title>
<g id="a_edge41_Node000031_Node000022"><a xlink:title=" ">
<path fill="none" stroke="#9a32cd" stroke-dasharray="5,2" d="M735.2,-262.97C737.32,-262.89 739.43,-262.81 741.5,-262.75 816.08,-260.42 902.56,-260.44 955.77,-260.77"/>
<polygon fill="#9a32cd" stroke="#9a32cd" points="735.08,-259.47 725.24,-263.39 735.38,-266.46 735.08,-259.47"/>
</a>
</g>
<text text-anchor="middle" x="833.88" y="-275.75" font-family="Helvetica,sans-Serif" font-size="10.00" fill="grey"> package</text>
<text text-anchor="middle" x="833.88" y="-264.5" font-family="Helvetica,sans-Serif" font-size="10.00" fill="grey">symbols</text>
</g>
<!-- Node23 -->
<g id="Node000023" class="node">
<title>Node23</title>
<g id="a_Node000023"><a xlink:title=" ">
<polygon fill="white" stroke="#666666" points="696.88,-24.88 626.12,-24.88 626.12,-5.62 696.88,-5.62 696.88,-24.88"/>
<text text-anchor="middle" x="661.5" y="-11.38" font-family="Helvetica,sans-Serif" font-size="10.00">std::ostream</text>
</a>
</g>
</g>
<!-- Node23&#45;&gt;Node18 -->
<g id="edge30_Node000018_Node000023" class="edge">
<title>Node23&#45;&gt;Node18</title>
<g id="a_edge30_Node000018_Node000023"><a xlink:title=" ">
<path fill="none" stroke="#9a32cd" stroke-dasharray="5,2" d="M708.72,-17.42C763.4,-21.62 855.88,-33.92 926.25,-70 957.2,-85.87 985.06,-117.06 998.14,-133.13"/>
<polygon fill="#9a32cd" stroke="#9a32cd" points="709.05,-13.93 698.83,-16.73 708.56,-20.92 709.05,-13.93"/>
</a>
</g>
<text text-anchor="middle" x="833.88" y="-71.75" font-family="Helvetica,sans-Serif" font-size="10.00" fill="grey"> m_stream</text>
</g>
<!-- Node24 -->
<g id="Node000024" class="node">
<title>Node24</title>
<g id="a_Node000024"><a xlink:title=" ">
<polygon fill="white" stroke="#666666" points="427.75,-30.5 328.5,-30.5 328.5,0 427.75,0 427.75,-30.5"/>
<text text-anchor="start" x="336.5" y="-17" font-family="Helvetica,sans-Serif" font-size="10.00">std::basic_ostream</text>
<text text-anchor="middle" x="378.12" y="-5.75" font-family="Helvetica,sans-Serif" font-size="10.00">&lt; Char &gt;</text>
</a>
</g>
</g>
<!-- Node24&#45;&gt;Node23 -->
<g id="edge31_Node000023_Node000024" class="edge">
<title>Node24&#45;&gt;Node23</title>
<g id="a_edge31_Node000023_Node000024"><a xlink:title=" ">
<path fill="none" stroke="#63b8ff" d="M439.48,-15.25C496.28,-15.25 579.36,-15.25 625.8,-15.25"/>
<polygon fill="#63b8ff" stroke="#63b8ff" points="439.65,-11.75 429.65,-15.25 439.65,-18.75 439.65,-11.75"/>
</a>
</g>
</g>
<!-- Node25 -->
<g id="Node000025" class="node">
<title>Node25</title>
<g id="a_Node000025"><a xlink:title=" ">
<polygon fill="white" stroke="#666666" points="227.25,-24.88 111.5,-24.88 111.5,-5.62 227.25,-5.62 227.25,-24.88"/>
<text text-anchor="middle" x="169.38" y="-11.38" font-family="Helvetica,sans-Serif" font-size="10.00">std::basic_ios&lt; Char &gt;</text>
</a>
</g>
</g>
<!-- Node25&#45;&gt;Node24 -->
<g id="edge32_Node000024_Node000025" class="edge">
<title>Node25&#45;&gt;Node24</title>
<g id="a_edge32_Node000024_Node000025"><a xlink:title=" ">
<path fill="none" stroke="#63b8ff" d="M239.05,-15.25C268.2,-15.25 301.52,-15.25 328.12,-15.25"/>
<polygon fill="#63b8ff" stroke="#63b8ff" points="239.21,-11.75 229.21,-15.25 239.21,-18.75 239.21,-11.75"/>
</a>
</g>
</g>
<!-- Node26 -->
<g id="Node000026" class="node">
<title>Node26</title>
<g id="a_Node000026"><a xlink:title=" ">
<polygon fill="white" stroke="#666666" points="74.5,-24.88 0,-24.88 0,-5.62 74.5,-5.62 74.5,-24.88"/>
<text text-anchor="middle" x="37.25" y="-11.38" font-family="Helvetica,sans-Serif" font-size="10.00">std::ios_base</text>
</a>
</g>
</g>
<!-- Node26&#45;&gt;Node25 -->
<g id="edge33_Node000025_Node000026" class="edge">
<title>Node26&#45;&gt;Node25</title>
<g id="a_edge33_Node000025_Node000026"><a xlink:title=" ">
<path fill="none" stroke="#63b8ff" d="M86.34,-15.25C94.41,-15.25 102.86,-15.25 111.13,-15.25"/>
<polygon fill="#63b8ff" stroke="#63b8ff" points="86.36,-11.75 76.36,-15.25 86.36,-18.75 86.36,-11.75"/>
</a>
</g>
</g>
<!-- Node27&#45;&gt;Node4 -->
<g id="edge34_Node000004_Node000027" class="edge">
<title>Node27&#45;&gt;Node4</title>
<g id="a_edge34_Node000004_Node000027"><a xlink:title=" ">
<path fill="none" stroke="#9a32cd" stroke-dasharray="5,2" d="M722.18,-344.81C842.02,-343.75 1120.48,-340.44 1354.25,-331.25 1359.96,-331.03 1365.94,-330.74 1371.89,-330.44"/>
<polygon fill="#9a32cd" stroke="#9a32cd" points="722.22,-341.31 712.25,-344.89 722.28,-348.31 722.22,-341.31"/>
</a>
</g>
<text text-anchor="middle" x="1115.88" y="-340.87" font-family="Helvetica,sans-Serif" font-size="10.00" fill="grey"> m_ast</text>
</g>
<!-- Node28 -->
<g id="Node000028" class="node">
<title>Node28</title>
<g id="a_Node000028"><a xlink:href="../../dc/dda/structArk_1_1internal_1_1FileSpan.html" target="_top" xlink:title="Describes a span for a node/atom in a file, its start position and end position.">
<polygon fill="white" stroke="#666666" points="434.5,-499.88 321.75,-499.88 321.75,-480.62 434.5,-480.62 434.5,-499.88"/>
<text text-anchor="middle" x="378.12" y="-486.38" font-family="Helvetica,sans-Serif" font-size="10.00">Ark::internal::FileSpan</text>
</a>
</g>
</g>
<!-- Node28&#45;&gt;Node27 -->
<g id="edge35_Node000027_Node000028" class="edge">
<title>Node28&#45;&gt;Node27</title>
<g id="a_edge35_Node000027_Node000028"><a xlink:title=" ">
<path fill="none" stroke="#9a32cd" stroke-dasharray="5,2" d="M446.28,-497.01C488.1,-497.99 541.39,-493.07 581.5,-468.25 625.53,-441.01 649.55,-379.08 657.5,-355.04"/>
<polygon fill="#9a32cd" stroke="#9a32cd" points="446.44,-493.52 436.32,-496.65 446.18,-500.51 446.44,-493.52"/>
</a>
</g>
<text text-anchor="middle" x="517" y="-498.88" font-family="Helvetica,sans-Serif" font-size="10.00" fill="grey"> m_pos</text>
</g>
<!-- Node29 -->
<g id="Node000029" class="node">
<title>Node29</title>
<g id="a_Node000029"><a xlink:href="../../d7/df6/structArk_1_1internal_1_1FilePos.html" target="_top" xlink:title=" ">
<polygon fill="white" stroke="#666666" points="223.12,-499.88 115.62,-499.88 115.62,-480.62 223.12,-480.62 223.12,-499.88"/>
<text text-anchor="middle" x="169.38" y="-486.38" font-family="Helvetica,sans-Serif" font-size="10.00">Ark::internal::FilePos</text>
</a>
</g>
</g>
<!-- Node29&#45;&gt;Node28 -->
<g id="edge36_Node000028_Node000029" class="edge">
<title>Node29&#45;&gt;Node28</title>
<g id="a_edge36_Node000028_Node000029"><a xlink:title=" ">
<path fill="none" stroke="#9a32cd" stroke-dasharray="5,2" d="M234.83,-490.25C262.62,-490.25 294.81,-490.25 321.53,-490.25"/>
<polygon fill="#9a32cd" stroke="#9a32cd" points="235.13,-486.75 225.13,-490.25 235.13,-493.75 235.13,-486.75"/>
</a>
</g>
<text text-anchor="middle" x="274.5" y="-492" font-family="Helvetica,sans-Serif" font-size="10.00" fill="grey"> start</text>
</g>
<!-- Node30&#45;&gt;Node4 -->
<g id="edge38_Node000004_Node000030" class="edge">
<title>Node30&#45;&gt;Node4</title>
<g id="a_edge38_Node000004_Node000030"><a xlink:title=" ">
<path fill="none" stroke="#9a32cd" stroke-dasharray="5,2" d="M1297.84,-311.4C1322.44,-314.52 1349.42,-317.94 1371.98,-320.81"/>
<polygon fill="#9a32cd" stroke="#9a32cd" points="1298.6,-307.97 1288.23,-310.18 1297.71,-314.91 1298.6,-307.97"/>
</a>
</g>
<text text-anchor="middle" x="1329.88" y="-320.2" font-family="Helvetica,sans-Serif" font-size="10.00" fill="grey"> m_imports</text>
</g>
<!-- Node31&#45;&gt;Node30 -->
<g id="edge39_Node000030_Node000031" class="edge">
<title>Node31&#45;&gt;Node30</title>
<g id="a_edge39_Node000030_Node000031"><a xlink:title=" ">
<path fill="none" stroke="#9a32cd" stroke-dasharray="5,2" d="M1069.75,-269.38C1093.1,-272.79 1119.86,-277.11 1144,-282 1150.72,-283.36 1157.72,-284.93 1164.67,-286.57"/>
<polygon fill="#9a32cd" stroke="#9a32cd" points="1070.48,-265.94 1060.08,-267.99 1069.48,-272.87 1070.48,-265.94"/>
</a>
</g>
<text text-anchor="middle" x="1115.88" y="-283.75" font-family="Helvetica,sans-Serif" font-size="10.00" fill="grey"> elements</text>
</g>
<!-- Node32&#45;&gt;Node4 -->
<g id="edge43_Node000004_Node000032" class="edge">
<title>Node32&#45;&gt;Node4</title>
<g id="a_edge43_Node000004_Node000032"><a xlink:title=" ">
<path fill="none" stroke="#9a32cd" stroke-dasharray="5,2" d="M938.04,-426.79C1044.24,-419.09 1213.59,-400.97 1354.25,-359.25 1372.25,-353.91 1391.51,-344.55 1405.01,-337.33"/>
<polygon fill="#9a32cd" stroke="#9a32cd" points="937.93,-423.29 928.2,-427.49 938.42,-430.27 937.93,-423.29"/>
</a>
</g>
<text text-anchor="middle" x="1115.88" y="-413.03" font-family="Helvetica,sans-Serif" font-size="10.00" fill="grey"> m_parsers</text>
</g>
</g>
</svg>
