<?xml version="1.0" encoding="UTF-8" standalone="no"?>
<!DOCTYPE svg PUBLIC "-//W3C//DTD SVG 1.1//EN"
 "http://www.w3.org/Graphics/SVG/1.1/DTD/svg11.dtd">
<!-- Generated by graphviz version 12.2.0 (20241103.1931)
 -->
<!-- Title: /Users/fola/Documents/ArkScript/Ark/include/Ark/Compiler/IntermediateRepresentation/InstLoc.hpp Pages: 1 -->
<svg width="1064pt" height="383pt"
 viewBox="0.00 0.00 1063.50 383.25" xmlns="http://www.w3.org/2000/svg" xmlns:xlink="http://www.w3.org/1999/xlink">
<g id="graph0" class="graph" transform="scale(1 1) rotate(0) translate(4 379.25)">
<title>/Users/fola/Documents/ArkScript/Ark/include/Ark/Compiler/IntermediateRepresentation/InstLoc.hpp</title>
<!-- Node1 -->
<g id="Node000001" class="node">
<title>Node1</title>
<g id="a_Node000001"><a xlink:title=" ">
<polygon fill="#999999" stroke="#666666" points="483.75,-375.25 284.75,-375.25 284.75,-322.25 483.75,-322.25 483.75,-375.25"/>
<text text-anchor="start" x="292.75" y="-361.75" font-family="Helvetica,sans-Serif" font-size="10.00">/Users/fola/Documents</text>
<text text-anchor="start" x="292.75" y="-350.5" font-family="Helvetica,sans-Serif" font-size="10.00">/ArkScript/Ark/include</text>
<text text-anchor="start" x="292.75" y="-339.25" font-family="Helvetica,sans-Serif" font-size="10.00">/Ark/Compiler/IntermediateRepresentation</text>
<text text-anchor="middle" x="384.25" y="-328" font-family="Helvetica,sans-Serif" font-size="10.00">/InstLoc.hpp</text>
</a>
</g>
</g>
<!-- Node2 -->
<g id="Node000002" class="node">
<title>Node2</title>
<g id="a_Node000002"><a xlink:href="../../d1/d84/BytecodeReader_8hpp.html" target="_top" xlink:title="A bytecode disassembler for ArkScript.">
<polygon fill="white" stroke="#666666" points="306.12,-280.62 136.38,-280.62 136.38,-238.88 306.12,-238.88 306.12,-280.62"/>
<text text-anchor="start" x="144.38" y="-267.12" font-family="Helvetica,sans-Serif" font-size="10.00">/Users/fola/Documents</text>
<text text-anchor="start" x="144.38" y="-255.88" font-family="Helvetica,sans-Serif" font-size="10.00">/ArkScript/Ark/include</text>
<text text-anchor="middle" x="221.25" y="-244.62" font-family="Helvetica,sans-Serif" font-size="10.00">/Ark/Compiler/BytecodeReader.hpp</text>
</a>
</g>
</g>
<!-- Node1&#45;&gt;Node2 -->
<g id="edge1_Node000001_Node000002" class="edge">
<title>Node1&#45;&gt;Node2</title>
<g id="a_edge1_Node000001_Node000002"><a xlink:title=" ">
<path fill="none" stroke="#63b8ff" d="M325.8,-316.55C303.63,-304.72 278.98,-291.56 259.18,-281"/>
<polygon fill="#63b8ff" stroke="#63b8ff" points="323.98,-319.55 334.45,-321.17 327.28,-313.37 323.98,-319.55"/>
</a>
</g>
</g>
<!-- Node6 -->
<g id="Node000006" class="node">
<title>Node6</title>
<g id="a_Node000006"><a xlink:href="../../d0/db5/State_8hpp.html" target="_top" xlink:title="State used by the virtual machine: it loads the bytecode, can compile it if needed,...">
<polygon fill="white" stroke="#666666" points="442.88,-280.62 325.62,-280.62 325.62,-238.88 442.88,-238.88 442.88,-280.62"/>
<text text-anchor="start" x="333.62" y="-267.12" font-family="Helvetica,sans-Serif" font-size="10.00">/Users/fola/Documents</text>
<text text-anchor="start" x="333.62" y="-255.88" font-family="Helvetica,sans-Serif" font-size="10.00">/ArkScript/Ark/include</text>
<text text-anchor="middle" x="384.25" y="-244.62" font-family="Helvetica,sans-Serif" font-size="10.00">/Ark/VM/State.hpp</text>
</a>
</g>
</g>
<!-- Node1&#45;&gt;Node6 -->
<g id="edge5_Node000001_Node000006" class="edge">
<title>Node1&#45;&gt;Node6</title>
<g id="a_edge5_Node000001_Node000006"><a xlink:title=" ">
<path fill="none" stroke="#63b8ff" d="M384.25,-310.88C384.25,-300.63 384.25,-289.87 384.25,-280.96"/>
<polygon fill="#63b8ff" stroke="#63b8ff" points="380.75,-310.6 384.25,-320.6 387.75,-310.6 380.75,-310.6"/>
</a>
</g>
</g>
<!-- Node18 -->
<g id="Node000018" class="node">
<title>Node18</title>
<g id="a_Node000018"><a xlink:href="../../d1/dfa/IRCompiler_8cpp.html" target="_top" xlink:title=" ">
<polygon fill="white" stroke="#666666" points="641.75,-286.25 460.75,-286.25 460.75,-233.25 641.75,-233.25 641.75,-286.25"/>
<text text-anchor="start" x="468.75" y="-272.75" font-family="Helvetica,sans-Serif" font-size="10.00">/Users/fola/Documents</text>
<text text-anchor="start" x="468.75" y="-261.5" font-family="Helvetica,sans-Serif" font-size="10.00">/ArkScript/Ark/src/arkreactor</text>
<text text-anchor="start" x="468.75" y="-250.25" font-family="Helvetica,sans-Serif" font-size="10.00">/Compiler/IntermediateRepresentation</text>
<text text-anchor="middle" x="551.25" y="-239" font-family="Helvetica,sans-Serif" font-size="10.00">/IRCompiler.cpp</text>
</a>
</g>
</g>
<!-- Node1&#45;&gt;Node18 -->
<g id="edge22_Node000001_Node000018" class="edge">
<title>Node1&#45;&gt;Node18</title>
<g id="a_edge22_Node000001_Node000018"><a xlink:title=" ">
<path fill="none" stroke="#63b8ff" d="M443.88,-316.68C462.75,-306.85 483.4,-296.1 501.5,-286.67"/>
<polygon fill="#63b8ff" stroke="#63b8ff" points="442.5,-313.46 435.25,-321.18 445.73,-319.67 442.5,-313.46"/>
</a>
</g>
</g>
<!-- Node3 -->
<g id="Node000003" class="node">
<title>Node3</title>
<g id="a_Node000003"><a xlink:href="../../d5/d36/BytecodeReader_8cpp.html" target="_top" xlink:title=" ">
<polygon fill="white" stroke="#666666" points="247.12,-197.25 95.38,-197.25 95.38,-155.5 247.12,-155.5 247.12,-197.25"/>
<text text-anchor="start" x="103.38" y="-183.75" font-family="Helvetica,sans-Serif" font-size="10.00">/Users/fola/Documents</text>
<text text-anchor="start" x="103.38" y="-172.5" font-family="Helvetica,sans-Serif" font-size="10.00">/ArkScript/Ark/src/arkreactor</text>
<text text-anchor="middle" x="171.25" y="-161.25" font-family="Helvetica,sans-Serif" font-size="10.00">/Compiler/BytecodeReader.cpp</text>
</a>
</g>
</g>
<!-- Node2&#45;&gt;Node3 -->
<g id="edge2_Node000002_Node000003" class="edge">
<title>Node2&#45;&gt;Node3</title>
<g id="a_edge2_Node000002_Node000003"><a xlink:title=" ">
<path fill="none" stroke="#63b8ff" d="M202.98,-229.02C196.55,-218.55 189.47,-207.04 183.64,-197.54"/>
<polygon fill="#63b8ff" stroke="#63b8ff" points="199.88,-230.66 208.1,-237.35 205.84,-226.99 199.88,-230.66"/>
</a>
</g>
</g>
<!-- Node4 -->
<g id="Node000004" class="node">
<title>Node4</title>
<g id="a_Node000004"><a xlink:href="../../d0/da0/State_8cpp.html" target="_top" xlink:title=" ">
<polygon fill="white" stroke="#666666" points="405.5,-197.25 265,-197.25 265,-155.5 405.5,-155.5 405.5,-197.25"/>
<text text-anchor="start" x="273" y="-183.75" font-family="Helvetica,sans-Serif" font-size="10.00">/Users/fola/Documents</text>
<text text-anchor="start" x="273" y="-172.5" font-family="Helvetica,sans-Serif" font-size="10.00">/ArkScript/Ark/src/arkreactor</text>
<text text-anchor="middle" x="335.25" y="-161.25" font-family="Helvetica,sans-Serif" font-size="10.00">/VM/State.cpp</text>
</a>
</g>
</g>
<!-- Node2&#45;&gt;Node4 -->
<g id="edge3_Node000002_Node000004" class="edge">
<title>Node2&#45;&gt;Node4</title>
<g id="a_edge3_Node000002_Node000004"><a xlink:title=" ">
<path fill="none" stroke="#63b8ff" d="M259.08,-231.75C274.62,-220.65 292.32,-208.02 306.74,-197.72"/>
<polygon fill="#63b8ff" stroke="#63b8ff" points="257.06,-228.89 250.95,-237.55 261.13,-234.59 257.06,-228.89"/>
</a>
</g>
</g>
<!-- Node5 -->
<g id="Node000005" class="node">
<title>Node5</title>
<g id="a_Node000005"><a xlink:href="../../d0/d46/arkscript_2main_8cpp.html" target="_top" xlink:title=" ">
<polygon fill="white" stroke="#666666" points="134.5,-41.75 0,-41.75 0,0 134.5,0 134.5,-41.75"/>
<text text-anchor="start" x="8" y="-28.25" font-family="Helvetica,sans-Serif" font-size="10.00">/Users/fola/Documents</text>
<text text-anchor="start" x="8" y="-17" font-family="Helvetica,sans-Serif" font-size="10.00">/ArkScript/Ark/src/arkscript</text>
<text text-anchor="middle" x="67.25" y="-5.75" font-family="Helvetica,sans-Serif" font-size="10.00">/main.cpp</text>
</a>
</g>
</g>
<!-- Node2&#45;&gt;Node5 -->
<g id="edge4_Node000002_Node000005" class="edge">
<title>Node2&#45;&gt;Node5</title>
<g id="a_edge4_Node000002_Node000005"><a xlink:title=" ">
<path fill="none" stroke="#63b8ff" d="M131.35,-233.56C113.93,-224.74 97.6,-212.96 86.25,-197.25 52.35,-150.33 58.15,-77.1 63.51,-41.98"/>
<polygon fill="#63b8ff" stroke="#63b8ff" points="129.79,-236.69 140.33,-237.77 132.76,-230.35 129.79,-236.69"/>
</a>
</g>
</g>
<!-- Node6&#45;&gt;Node4 -->
<g id="edge21_Node000006_Node000004" class="edge">
<title>Node6&#45;&gt;Node4</title>
<g id="a_edge21_Node000006_Node000004"><a xlink:title=" ">
<path fill="none" stroke="#63b8ff" d="M366.35,-229.02C360.04,-218.55 353.11,-207.04 347.39,-197.54"/>
<polygon fill="#63b8ff" stroke="#63b8ff" points="363.2,-230.58 371.36,-237.34 369.2,-226.97 363.2,-230.58"/>
</a>
</g>
</g>
<!-- Node7 -->
<g id="Node000007" class="node">
<title>Node7</title>
<g id="a_Node000007"><a xlink:href="../../d1/d91/VM_8hpp.html" target="_top" xlink:title="The ArkScript virtual machine.">
<polygon fill="white" stroke="#666666" points="600.88,-197.25 483.62,-197.25 483.62,-155.5 600.88,-155.5 600.88,-197.25"/>
<text text-anchor="start" x="491.62" y="-183.75" font-family="Helvetica,sans-Serif" font-size="10.00">/Users/fola/Documents</text>
<text text-anchor="start" x="491.62" y="-172.5" font-family="Helvetica,sans-Serif" font-size="10.00">/ArkScript/Ark/include</text>
<text text-anchor="middle" x="542.25" y="-161.25" font-family="Helvetica,sans-Serif" font-size="10.00">/Ark/VM/VM.hpp</text>
</a>
</g>
</g>
<!-- Node6&#45;&gt;Node7 -->
<g id="edge6_Node000006_Node000007" class="edge">
<title>Node6&#45;&gt;Node7</title>
<g id="a_edge6_Node000006_Node000007"><a xlink:title=" ">
<path fill="none" stroke="#63b8ff" d="M433.95,-233.15C456.13,-221.73 481.9,-208.45 502.74,-197.72"/>
<polygon fill="#63b8ff" stroke="#63b8ff" points="432.35,-230.04 425.06,-237.73 435.55,-236.27 432.35,-230.04"/>
</a>
</g>
</g>
<!-- Node14 -->
<g id="Node000014" class="node">
<title>Node14</title>
<g id="a_Node000014"><a xlink:href="../../d5/da5/Repl_8hpp.html" target="_top" xlink:title="ArkScript REPL &#45; Read Eval Print Loop.">
<polygon fill="white" stroke="#666666" points="270.88,-119.5 153.62,-119.5 153.62,-77.75 270.88,-77.75 270.88,-119.5"/>
<text text-anchor="start" x="161.62" y="-106" font-family="Helvetica,sans-Serif" font-size="10.00">/Users/fola/Documents</text>
<text text-anchor="start" x="161.62" y="-94.75" font-family="Helvetica,sans-Serif" font-size="10.00">/ArkScript/Ark/include</text>
<text text-anchor="middle" x="212.25" y="-83.5" font-family="Helvetica,sans-Serif" font-size="10.00">/CLI/REPL/Repl.hpp</text>
</a>
</g>
</g>
<!-- Node6&#45;&gt;Node14 -->
<g id="edge20_Node000006_Node000014" class="edge">
<title>Node6&#45;&gt;Node14</title>
<g id="a_edge20_Node000006_Node000014"><a xlink:title=" ">
<path fill="none" stroke="#63b8ff" d="M405.81,-229.02C419.01,-206.87 430.52,-176.88 414.25,-155.5 405.37,-143.83 327.53,-124.69 271.13,-112.12"/>
<polygon fill="#63b8ff" stroke="#63b8ff" points="402.95,-226.99 400.54,-237.31 408.86,-230.75 402.95,-226.99"/>
</a>
</g>
</g>
<!-- Node8 -->
<g id="Node000008" class="node">
<title>Node8</title>
<g id="a_Node000008"><a xlink:href="../../d3/d7e/Ark_8hpp.html" target="_top" xlink:title="Includes the needed files to start using ArkScript.">
<polygon fill="white" stroke="#666666" points="959.88,-119.5 842.62,-119.5 842.62,-77.75 959.88,-77.75 959.88,-119.5"/>
<text text-anchor="start" x="850.62" y="-106" font-family="Helvetica,sans-Serif" font-size="10.00">/Users/fola/Documents</text>
<text text-anchor="start" x="850.62" y="-94.75" font-family="Helvetica,sans-Serif" font-size="10.00">/ArkScript/Ark/include</text>
<text text-anchor="middle" x="901.25" y="-83.5" font-family="Helvetica,sans-Serif" font-size="10.00">/Ark/Ark.hpp</text>
</a>
</g>
</g>
<!-- Node7&#45;&gt;Node8 -->
<g id="edge7_Node000007_Node000008" class="edge">
<title>Node7&#45;&gt;Node8</title>
<g id="a_edge7_Node000007_Node000008"><a xlink:title=" ">
<path fill="none" stroke="#63b8ff" d="M612.38,-163.15C670.46,-152.67 755.04,-136.59 828.25,-119.5 832.85,-118.42 837.61,-117.26 842.38,-116.05"/>
<polygon fill="#63b8ff" stroke="#63b8ff" points="611.84,-159.69 602.62,-164.9 613.08,-166.58 611.84,-159.69"/>
</a>
</g>
</g>
<!-- Node11 -->
<g id="Node000011" class="node">
<title>Node11</title>
<g id="a_Node000011"><a xlink:href="../../d5/d44/Module_8hpp.html" target="_top" xlink:title=" ">
<polygon fill="white" stroke="#666666" points="703.88,-41.75 586.62,-41.75 586.62,0 703.88,0 703.88,-41.75"/>
<text text-anchor="start" x="594.62" y="-28.25" font-family="Helvetica,sans-Serif" font-size="10.00">/Users/fola/Documents</text>
<text text-anchor="start" x="594.62" y="-17" font-family="Helvetica,sans-Serif" font-size="10.00">/ArkScript/Ark/include</text>
<text text-anchor="middle" x="645.25" y="-5.75" font-family="Helvetica,sans-Serif" font-size="10.00">/Ark/Module.hpp</text>
</a>
</g>
</g>
<!-- Node7&#45;&gt;Node11 -->
<g id="edge10_Node000007_Node000011" class="edge">
<title>Node7&#45;&gt;Node11</title>
<g id="a_edge10_Node000007_Node000011"><a xlink:title=" ">
<path fill="none" stroke="#63b8ff" d="M612.51,-169.56C679.25,-162.41 772.68,-147.6 795.25,-119.5 806.87,-105.03 805.84,-92.99 795.25,-77.75 784.27,-61.94 741.27,-46.89 704.1,-36.39"/>
<polygon fill="#63b8ff" stroke="#63b8ff" points="612.3,-166.06 602.71,-170.57 613.02,-173.03 612.3,-166.06"/>
</a>
</g>
</g>
<!-- Node12 -->
<g id="Node000012" class="node">
<title>Node12</title>
<g id="a_Node000012"><a xlink:href="../../d2/d33/ModuleMapping_8hpp.html" target="_top" xlink:title=" ">
<polygon fill="white" stroke="#666666" points="469.25,-119.5 327.25,-119.5 327.25,-77.75 469.25,-77.75 469.25,-119.5"/>
<text text-anchor="start" x="335.25" y="-106" font-family="Helvetica,sans-Serif" font-size="10.00">/Users/fola/Documents</text>
<text text-anchor="start" x="335.25" y="-94.75" font-family="Helvetica,sans-Serif" font-size="10.00">/ArkScript/Ark/include</text>
<text text-anchor="middle" x="398.25" y="-83.5" font-family="Helvetica,sans-Serif" font-size="10.00">/Ark/VM/ModuleMapping.hpp</text>
</a>
</g>
</g>
<!-- Node7&#45;&gt;Node12 -->
<g id="edge11_Node000007_Node000012" class="edge">
<title>Node7&#45;&gt;Node12</title>
<g id="a_edge11_Node000007_Node000012"><a xlink:title=" ">
<path fill="none" stroke="#63b8ff" d="M493.67,-149.82C475.18,-140.1 454.39,-129.16 436.95,-119.98"/>
<polygon fill="#63b8ff" stroke="#63b8ff" points="491.84,-152.81 502.32,-154.37 495.1,-146.62 491.84,-152.81"/>
</a>
</g>
</g>
<!-- Node13 -->
<g id="Node000013" class="node">
<title>Node13</title>
<g id="a_Node000013"><a xlink:href="../../d2/d27/VM_8cpp.html" target="_top" xlink:title=" ">
<polygon fill="white" stroke="#666666" points="461.5,-41.75 321,-41.75 321,0 461.5,0 461.5,-41.75"/>
<text text-anchor="start" x="329" y="-28.25" font-family="Helvetica,sans-Serif" font-size="10.00">/Users/fola/Documents</text>
<text text-anchor="start" x="329" y="-17" font-family="Helvetica,sans-Serif" font-size="10.00">/ArkScript/Ark/src/arkreactor</text>
<text text-anchor="middle" x="391.25" y="-5.75" font-family="Helvetica,sans-Serif" font-size="10.00">/VM/VM.cpp</text>
</a>
</g>
</g>
<!-- Node7&#45;&gt;Node13 -->
<g id="edge18_Node000007_Node000013" class="edge">
<title>Node7&#45;&gt;Node13</title>
<g id="a_edge18_Node000007_Node000013"><a xlink:title=" ">
<path fill="none" stroke="#63b8ff" d="M472.31,-160.11C408.43,-145.82 323.16,-125.78 318.25,-119.5 306.83,-104.88 310.03,-94.39 318.25,-77.75 325.53,-63.01 338.77,-51.09 351.99,-42.1"/>
<polygon fill="#63b8ff" stroke="#63b8ff" points="471.17,-163.44 481.69,-162.19 472.69,-156.6 471.17,-163.44"/>
</a>
</g>
</g>
<!-- Node7&#45;&gt;Node14 -->
<g id="edge14_Node000007_Node000014" class="edge">
<title>Node7&#45;&gt;Node14</title>
<g id="a_edge14_Node000007_Node000014"><a xlink:title=" ">
<path fill="none" stroke="#63b8ff" d="M472.09,-160.55C408.65,-147.06 320.03,-128.01 285.25,-119.5 280.66,-118.38 275.91,-117.18 271.15,-115.94"/>
<polygon fill="#63b8ff" stroke="#63b8ff" points="471.24,-163.95 481.75,-162.6 472.69,-157.1 471.24,-163.95"/>
</a>
</g>
</g>
<!-- Node16 -->
<g id="Node000016" class="node">
<title>Node16</title>
<g id="a_Node000016"><a xlink:href="../../d4/dc9/Future_8cpp.html" target="_top" xlink:title=" ">
<polygon fill="white" stroke="#666666" points="627.5,-119.5 487,-119.5 487,-77.75 627.5,-77.75 627.5,-119.5"/>
<text text-anchor="start" x="495" y="-106" font-family="Helvetica,sans-Serif" font-size="10.00">/Users/fola/Documents</text>
<text text-anchor="start" x="495" y="-94.75" font-family="Helvetica,sans-Serif" font-size="10.00">/ArkScript/Ark/src/arkreactor</text>
<text text-anchor="middle" x="557.25" y="-83.5" font-family="Helvetica,sans-Serif" font-size="10.00">/VM/Future.cpp</text>
</a>
</g>
</g>
<!-- Node7&#45;&gt;Node16 -->
<g id="edge17_Node000007_Node000016" class="edge">
<title>Node7&#45;&gt;Node16</title>
<g id="a_edge17_Node000007_Node000016"><a xlink:title=" ">
<path fill="none" stroke="#63b8ff" d="M548.46,-144.03C550.07,-135.91 551.76,-127.37 553.22,-119.98"/>
<polygon fill="#63b8ff" stroke="#63b8ff" points="545.07,-143.1 546.56,-153.59 551.94,-144.46 545.07,-143.1"/>
</a>
</g>
</g>
<!-- Node17 -->
<g id="Node000017" class="node">
<title>Node17</title>
<g id="a_Node000017"><a xlink:href="../../d1/db2/Closure_8cpp.html" target="_top" xlink:title=" ">
<polygon fill="white" stroke="#666666" points="786.5,-119.5 646,-119.5 646,-77.75 786.5,-77.75 786.5,-119.5"/>
<text text-anchor="start" x="654" y="-106" font-family="Helvetica,sans-Serif" font-size="10.00">/Users/fola/Documents</text>
<text text-anchor="start" x="654" y="-94.75" font-family="Helvetica,sans-Serif" font-size="10.00">/ArkScript/Ark/src/arkreactor</text>
<text text-anchor="middle" x="716.25" y="-83.5" font-family="Helvetica,sans-Serif" font-size="10.00">/VM/Value/Closure.cpp</text>
</a>
</g>
</g>
<!-- Node7&#45;&gt;Node17 -->
<g id="edge19_Node000007_Node000017" class="edge">
<title>Node7&#45;&gt;Node17</title>
<g id="a_edge19_Node000007_Node000017"><a xlink:title=" ">
<path fill="none" stroke="#63b8ff" d="M599.41,-150.49C622.12,-140.6 647.92,-129.37 669.49,-119.98"/>
<polygon fill="#63b8ff" stroke="#63b8ff" points="598.04,-147.27 590.27,-154.47 600.83,-153.69 598.04,-147.27"/>
</a>
</g>
</g>
<!-- Node9 -->
<g id="Node000009" class="node">
<title>Node9</title>
<g id="a_Node000009"><a xlink:href="../../d1/d95/arkemscripten_2main_8cpp.html" target="_top" xlink:title=" ">
<polygon fill="white" stroke="#666666" points="896.5,-41.75 738,-41.75 738,0 896.5,0 896.5,-41.75"/>
<text text-anchor="start" x="746" y="-28.25" font-family="Helvetica,sans-Serif" font-size="10.00">/Users/fola/Documents</text>
<text text-anchor="start" x="746" y="-17" font-family="Helvetica,sans-Serif" font-size="10.00">/ArkScript/Ark/src/arkemscripten</text>
<text text-anchor="middle" x="817.25" y="-5.75" font-family="Helvetica,sans-Serif" font-size="10.00">/main.cpp</text>
</a>
</g>
</g>
<!-- Node8&#45;&gt;Node9 -->
<g id="edge8_Node000008_Node000009" class="edge">
<title>Node8&#45;&gt;Node9</title>
<g id="a_edge8_Node000008_Node000009"><a xlink:title=" ">
<path fill="none" stroke="#63b8ff" d="M870.49,-69.89C860.34,-60.73 849.25,-50.73 839.82,-42.23"/>
<polygon fill="#63b8ff" stroke="#63b8ff" points="867.85,-72.21 877.62,-76.31 872.53,-67.02 867.85,-72.21"/>
</a>
</g>
</g>
<!-- Node10 -->
<g id="Node000010" class="node">
<title>Node10</title>
<g id="a_Node000010"><a xlink:href="../../dc/d32/Ark_8cpp.html" target="_top" xlink:title=" ">
<polygon fill="white" stroke="#666666" points="1055.5,-41.75 915,-41.75 915,0 1055.5,0 1055.5,-41.75"/>
<text text-anchor="start" x="923" y="-28.25" font-family="Helvetica,sans-Serif" font-size="10.00">/Users/fola/Documents</text>
<text text-anchor="start" x="923" y="-17" font-family="Helvetica,sans-Serif" font-size="10.00">/ArkScript/Ark/src/arkreactor</text>
<text text-anchor="middle" x="985.25" y="-5.75" font-family="Helvetica,sans-Serif" font-size="10.00">/Ark.cpp</text>
</a>
</g>
</g>
<!-- Node8&#45;&gt;Node10 -->
<g id="edge9_Node000008_Node000010" class="edge">
<title>Node8&#45;&gt;Node10</title>
<g id="a_edge9_Node000008_Node000010"><a xlink:title=" ">
<path fill="none" stroke="#63b8ff" d="M932.01,-69.89C942.16,-60.73 953.25,-50.73 962.68,-42.23"/>
<polygon fill="#63b8ff" stroke="#63b8ff" points="929.97,-67.02 924.88,-76.31 934.65,-72.21 929.97,-67.02"/>
</a>
</g>
</g>
<!-- Node12&#45;&gt;Node11 -->
<g id="edge12_Node000012_Node000011" class="edge">
<title>Node12&#45;&gt;Node11</title>
<g id="a_edge12_Node000012_Node000011"><a xlink:title=" ">
<path fill="none" stroke="#63b8ff" d="M475.36,-73.98C511.23,-62.98 553.21,-50.1 586.46,-39.9"/>
<polygon fill="#63b8ff" stroke="#63b8ff" points="474.42,-70.6 465.89,-76.88 476.48,-77.3 474.42,-70.6"/>
</a>
</g>
</g>
<!-- Node12&#45;&gt;Node13 -->
<g id="edge13_Node000012_Node000013" class="edge">
<title>Node12&#45;&gt;Node13</title>
<g id="a_edge13_Node000012_Node000013"><a xlink:title=" ">
<path fill="none" stroke="#63b8ff" d="M395.33,-66C394.58,-57.96 393.81,-49.54 393.13,-42.23"/>
<polygon fill="#63b8ff" stroke="#63b8ff" points="391.83,-66.18 396.23,-75.82 398.8,-65.54 391.83,-66.18"/>
</a>
</g>
</g>
<!-- Node14&#45;&gt;Node5 -->
<g id="edge16_Node000014_Node000005" class="edge">
<title>Node14&#45;&gt;Node5</title>
<g id="a_edge16_Node000014_Node000005"><a xlink:title=" ">
<path fill="none" stroke="#63b8ff" d="M163.33,-72.07C144.72,-62.35 123.78,-51.41 106.21,-42.23"/>
<polygon fill="#63b8ff" stroke="#63b8ff" points="161.57,-75.1 172.05,-76.62 164.81,-68.89 161.57,-75.1"/>
</a>
</g>
</g>
<!-- Node15 -->
<g id="Node000015" class="node">
<title>Node15</title>
<g id="a_Node000015"><a xlink:href="../../d7/d46/Repl_8cpp.html" target="_top" xlink:title=" ">
<polygon fill="white" stroke="#666666" points="287.5,-41.75 153,-41.75 153,0 287.5,0 287.5,-41.75"/>
<text text-anchor="start" x="161" y="-28.25" font-family="Helvetica,sans-Serif" font-size="10.00">/Users/fola/Documents</text>
<text text-anchor="start" x="161" y="-17" font-family="Helvetica,sans-Serif" font-size="10.00">/ArkScript/Ark/src/arkscript</text>
<text text-anchor="middle" x="220.25" y="-5.75" font-family="Helvetica,sans-Serif" font-size="10.00">/REPL/Repl.cpp</text>
</a>
</g>
</g>
<!-- Node14&#45;&gt;Node15 -->
<g id="edge15_Node000014_Node000015" class="edge">
<title>Node14&#45;&gt;Node15</title>
<g id="a_edge15_Node000014_Node000015"><a xlink:title=" ">
<path fill="none" stroke="#63b8ff" d="M215.59,-66C216.44,-57.96 217.33,-49.54 218.1,-42.23"/>
<polygon fill="#63b8ff" stroke="#63b8ff" points="212.12,-65.51 214.55,-75.82 219.08,-66.24 212.12,-65.51"/>
</a>
</g>
</g>
</g>
</svg>
