<?xml version="1.0" encoding="UTF-8" standalone="no"?>
<!DOCTYPE svg PUBLIC "-//W3C//DTD SVG 1.1//EN"
 "http://www.w3.org/Graphics/SVG/1.1/DTD/svg11.dtd">
<!-- Generated by graphviz version 12.2.0 (20241103.1931)
 -->
<!-- Title: /Users/fola/Documents/ArkScript/Ark/include/Ark/Compiler/IntermediateRepresentation/InstLoc.hpp Pages: 1 -->
<svg width="1517pt" height="383pt"
 viewBox="0.00 0.00 1516.75 383.25" xmlns="http://www.w3.org/2000/svg" xmlns:xlink="http://www.w3.org/1999/xlink">
<g id="graph0" class="graph" transform="scale(1 1) rotate(0) translate(4 379.25)">
<title>/Users/fola/Documents/ArkScript/Ark/include/Ark/Compiler/IntermediateRepresentation/InstLoc.hpp</title>
<!-- Node1 -->
<g id="Node000001" class="node">
<title>Node1</title>
<g id="a_Node000001"><a xlink:title=" ">
<polygon fill="#999999" stroke="#666666" points="1324.75,-375.25 1125.75,-375.25 1125.75,-322.25 1324.75,-322.25 1324.75,-375.25"/>
<text text-anchor="start" x="1133.75" y="-361.75" font-family="Helvetica,sans-Serif" font-size="10.00">/Users/fola/Documents</text>
<text text-anchor="start" x="1133.75" y="-350.5" font-family="Helvetica,sans-Serif" font-size="10.00">/ArkScript/Ark/include</text>
<text text-anchor="start" x="1133.75" y="-339.25" font-family="Helvetica,sans-Serif" font-size="10.00">/Ark/Compiler/IntermediateRepresentation</text>
<text text-anchor="middle" x="1225.25" y="-328" font-family="Helvetica,sans-Serif" font-size="10.00">/InstLoc.hpp</text>
</a>
</g>
</g>
<!-- Node2 -->
<g id="Node000002" class="node">
<title>Node2</title>
<g id="a_Node000002"><a xlink:href="../../d1/d84/BytecodeReader_8hpp.html" target="_top" xlink:title="A bytecode disassembler for ArkScript.">
<polygon fill="white" stroke="#666666" points="1310.12,-280.62 1140.38,-280.62 1140.38,-238.88 1310.12,-238.88 1310.12,-280.62"/>
<text text-anchor="start" x="1148.38" y="-267.12" font-family="Helvetica,sans-Serif" font-size="10.00">/Users/fola/Documents</text>
<text text-anchor="start" x="1148.38" y="-255.88" font-family="Helvetica,sans-Serif" font-size="10.00">/ArkScript/Ark/include</text>
<text text-anchor="middle" x="1225.25" y="-244.62" font-family="Helvetica,sans-Serif" font-size="10.00">/Ark/Compiler/BytecodeReader.hpp</text>
</a>
</g>
</g>
<!-- Node1&#45;&gt;Node2 -->
<g id="edge1_Node000001_Node000002" class="edge">
<title>Node1&#45;&gt;Node2</title>
<g id="a_edge1_Node000001_Node000002"><a xlink:title=" ">
<path fill="none" stroke="#63b8ff" d="M1225.25,-310.88C1225.25,-300.63 1225.25,-289.87 1225.25,-280.96"/>
<polygon fill="#63b8ff" stroke="#63b8ff" points="1221.75,-310.6 1225.25,-320.6 1228.75,-310.6 1221.75,-310.6"/>
</a>
</g>
</g>
<!-- Node7 -->
<g id="Node000007" class="node">
<title>Node7</title>
<g id="a_Node000007"><a xlink:href="../../d0/db5/State_8hpp.html" target="_top" xlink:title="State used by the virtual machine: it loads the bytecode, can compile it if needed,...">
<polygon fill="white" stroke="#666666" points="1002.88,-280.62 885.62,-280.62 885.62,-238.88 1002.88,-238.88 1002.88,-280.62"/>
<text text-anchor="start" x="893.62" y="-267.12" font-family="Helvetica,sans-Serif" font-size="10.00">/Users/fola/Documents</text>
<text text-anchor="start" x="893.62" y="-255.88" font-family="Helvetica,sans-Serif" font-size="10.00">/ArkScript/Ark/include</text>
<text text-anchor="middle" x="944.25" y="-244.62" font-family="Helvetica,sans-Serif" font-size="10.00">/Ark/State.hpp</text>
</a>
</g>
</g>
<!-- Node1&#45;&gt;Node7 -->
<g id="edge6_Node000001_Node000007" class="edge">
<title>Node1&#45;&gt;Node7</title>
<g id="a_edge6_Node000001_Node000007"><a xlink:title=" ">
<path fill="none" stroke="#63b8ff" d="M1130.47,-318.41C1088.36,-305.37 1040.09,-290.42 1003.25,-279.02"/>
<polygon fill="#63b8ff" stroke="#63b8ff" points="1129.29,-321.7 1139.88,-321.32 1131.36,-315.02 1129.29,-321.7"/>
</a>
</g>
</g>
<!-- Node21 -->
<g id="Node000021" class="node">
<title>Node21</title>
<g id="a_Node000021"><a xlink:href="../../d1/dfa/IRCompiler_8cpp.html" target="_top" xlink:title=" ">
<polygon fill="white" stroke="#666666" points="1508.75,-286.25 1327.75,-286.25 1327.75,-233.25 1508.75,-233.25 1508.75,-286.25"/>
<text text-anchor="start" x="1335.75" y="-272.75" font-family="Helvetica,sans-Serif" font-size="10.00">/Users/fola/Documents</text>
<text text-anchor="start" x="1335.75" y="-261.5" font-family="Helvetica,sans-Serif" font-size="10.00">/ArkScript/Ark/src/arkreactor</text>
<text text-anchor="start" x="1335.75" y="-250.25" font-family="Helvetica,sans-Serif" font-size="10.00">/Compiler/IntermediateRepresentation</text>
<text text-anchor="middle" x="1418.25" y="-239" font-family="Helvetica,sans-Serif" font-size="10.00">/IRCompiler.cpp</text>
</a>
</g>
</g>
<!-- Node1&#45;&gt;Node21 -->
<g id="edge29_Node000001_Node000021" class="edge">
<title>Node1&#45;&gt;Node21</title>
<g id="a_edge29_Node000001_Node000021"><a xlink:title=" ">
<path fill="none" stroke="#63b8ff" d="M1293.22,-317.11C1315.33,-307.14 1339.64,-296.18 1360.9,-286.6"/>
<polygon fill="#63b8ff" stroke="#63b8ff" points="1291.95,-313.84 1284.27,-321.14 1294.83,-320.22 1291.95,-313.84"/>
</a>
</g>
</g>
<!-- Node3 -->
<g id="Node000003" class="node">
<title>Node3</title>
<g id="a_Node000003"><a xlink:href="../../d5/d36/BytecodeReader_8cpp.html" target="_top" xlink:title=" ">
<polygon fill="white" stroke="#666666" points="1301.12,-197.25 1149.38,-197.25 1149.38,-155.5 1301.12,-155.5 1301.12,-197.25"/>
<text text-anchor="start" x="1157.38" y="-183.75" font-family="Helvetica,sans-Serif" font-size="10.00">/Users/fola/Documents</text>
<text text-anchor="start" x="1157.38" y="-172.5" font-family="Helvetica,sans-Serif" font-size="10.00">/ArkScript/Ark/src/arkreactor</text>
<text text-anchor="middle" x="1225.25" y="-161.25" font-family="Helvetica,sans-Serif" font-size="10.00">/Compiler/BytecodeReader.cpp</text>
</a>
</g>
</g>
<!-- Node2&#45;&gt;Node3 -->
<g id="edge2_Node000002_Node000003" class="edge">
<title>Node2&#45;&gt;Node3</title>
<g id="a_edge2_Node000002_Node000003"><a xlink:title=" ">
<path fill="none" stroke="#63b8ff" d="M1225.25,-227.39C1225.25,-217.37 1225.25,-206.55 1225.25,-197.54"/>
<polygon fill="#63b8ff" stroke="#63b8ff" points="1221.75,-227.12 1225.25,-237.12 1228.75,-227.12 1221.75,-227.12"/>
</a>
</g>
</g>
<!-- Node4 -->
<g id="Node000004" class="node">
<title>Node4</title>
<g id="a_Node000004"><a xlink:href="../../d0/da0/State_8cpp.html" target="_top" xlink:title=" ">
<polygon fill="white" stroke="#666666" points="1131.5,-197.25 991,-197.25 991,-155.5 1131.5,-155.5 1131.5,-197.25"/>
<text text-anchor="start" x="999" y="-183.75" font-family="Helvetica,sans-Serif" font-size="10.00">/Users/fola/Documents</text>
<text text-anchor="start" x="999" y="-172.5" font-family="Helvetica,sans-Serif" font-size="10.00">/ArkScript/Ark/src/arkreactor</text>
<text text-anchor="middle" x="1061.25" y="-161.25" font-family="Helvetica,sans-Serif" font-size="10.00">/State.cpp</text>
</a>
</g>
</g>
<!-- Node2&#45;&gt;Node4 -->
<g id="edge3_Node000002_Node000004" class="edge">
<title>Node2&#45;&gt;Node4</title>
<g id="a_edge3_Node000002_Node000004"><a xlink:title=" ">
<path fill="none" stroke="#63b8ff" d="M1173.98,-233.31C1150.88,-221.85 1123.98,-208.5 1102.26,-197.72"/>
<polygon fill="#63b8ff" stroke="#63b8ff" points="1172.42,-236.44 1182.93,-237.75 1175.53,-230.17 1172.42,-236.44"/>
</a>
</g>
</g>
<!-- Node5 -->
<g id="Node000005" class="node">
<title>Node5</title>
<g id="a_Node000005"><a xlink:href="../../db/d7b/Debugger_8cpp.html" target="_top" xlink:title=" ">
<polygon fill="white" stroke="#666666" points="1363.5,-119.5 1223,-119.5 1223,-77.75 1363.5,-77.75 1363.5,-119.5"/>
<text text-anchor="start" x="1231" y="-106" font-family="Helvetica,sans-Serif" font-size="10.00">/Users/fola/Documents</text>
<text text-anchor="start" x="1231" y="-94.75" font-family="Helvetica,sans-Serif" font-size="10.00">/ArkScript/Ark/src/arkreactor</text>
<text text-anchor="middle" x="1293.25" y="-83.5" font-family="Helvetica,sans-Serif" font-size="10.00">/VM/Debugger.cpp</text>
</a>
</g>
</g>
<!-- Node2&#45;&gt;Node5 -->
<g id="edge4_Node000002_Node000005" class="edge">
<title>Node2&#45;&gt;Node5</title>
<g id="a_edge4_Node000002_Node000005"><a xlink:title=" ">
<path fill="none" stroke="#63b8ff" d="M1278.09,-232.15C1290.94,-222.96 1303.05,-211.35 1310.25,-197.25 1322.85,-172.58 1312.88,-140.33 1303.74,-119.79"/>
<polygon fill="#63b8ff" stroke="#63b8ff" points="1276.31,-229.13 1269.92,-237.58 1280.18,-234.96 1276.31,-229.13"/>
</a>
</g>
</g>
<!-- Node6 -->
<g id="Node000006" class="node">
<title>Node6</title>
<g id="a_Node000006"><a xlink:href="../../d0/d46/arkscript_2main_8cpp.html" target="_top" xlink:title=" ">
<polygon fill="white" stroke="#666666" points="1412.5,-41.75 1278,-41.75 1278,0 1412.5,0 1412.5,-41.75"/>
<text text-anchor="start" x="1286" y="-28.25" font-family="Helvetica,sans-Serif" font-size="10.00">/Users/fola/Documents</text>
<text text-anchor="start" x="1286" y="-17" font-family="Helvetica,sans-Serif" font-size="10.00">/ArkScript/Ark/src/arkscript</text>
<text text-anchor="middle" x="1345.25" y="-5.75" font-family="Helvetica,sans-Serif" font-size="10.00">/main.cpp</text>
</a>
</g>
</g>
<!-- Node2&#45;&gt;Node6 -->
<g id="edge5_Node000002_Node000006" class="edge">
<title>Node2&#45;&gt;Node6</title>
<g id="a_edge5_Node000002_Node000006"><a xlink:title=" ">
<path fill="none" stroke="#63b8ff" d="M1279.05,-233.09C1295.78,-223.42 1313.44,-211.31 1327.25,-197.25 1355.23,-168.77 1361.9,-158.06 1372.25,-119.5 1377.06,-101.58 1376.39,-95.84 1372.25,-77.75 1369.39,-65.25 1363.35,-52.3 1357.71,-42.02"/>
<polygon fill="#63b8ff" stroke="#63b8ff" points="1277.69,-229.84 1270.66,-237.76 1281.1,-235.95 1277.69,-229.84"/>
</a>
</g>
</g>
<!-- Node7&#45;&gt;Node4 -->
<g id="edge27_Node000007_Node000004" class="edge">
<title>Node7&#45;&gt;Node4</title>
<g id="a_edge27_Node000007_Node000004"><a xlink:title=" ">
<path fill="none" stroke="#63b8ff" d="M982.62,-232.06C998.68,-220.89 1017.05,-208.11 1031.99,-197.72"/>
<polygon fill="#63b8ff" stroke="#63b8ff" points="980.93,-228.98 974.71,-237.56 984.92,-234.72 980.93,-228.98"/>
</a>
</g>
</g>
<!-- Node7&#45;&gt;Node5 -->
<g id="edge28_Node000007_Node000005" class="edge">
<title>Node7&#45;&gt;Node5</title>
<g id="a_edge28_Node000007_Node000005"><a xlink:title=" ">
<path fill="none" stroke="#63b8ff" d="M947.36,-227.45C951.42,-204.02 960.76,-173.1 982.25,-155.5 1062.99,-89.4 1111.99,-140.25 1214.25,-119.5 1217.02,-118.94 1219.84,-118.34 1222.69,-117.72"/>
<polygon fill="#63b8ff" stroke="#63b8ff" points="943.94,-226.69 945.95,-237.09 950.86,-227.7 943.94,-226.69"/>
</a>
</g>
</g>
<!-- Node8 -->
<g id="Node000008" class="node">
<title>Node8</title>
<g id="a_Node000008"><a xlink:href="../../d3/d7e/Ark_8hpp.html" target="_top" xlink:title="Includes the needed files to start using ArkScript.">
<polygon fill="white" stroke="#666666" points="221.88,-119.5 104.62,-119.5 104.62,-77.75 221.88,-77.75 221.88,-119.5"/>
<text text-anchor="start" x="112.62" y="-106" font-family="Helvetica,sans-Serif" font-size="10.00">/Users/fola/Documents</text>
<text text-anchor="start" x="112.62" y="-94.75" font-family="Helvetica,sans-Serif" font-size="10.00">/ArkScript/Ark/include</text>
<text text-anchor="middle" x="163.25" y="-83.5" font-family="Helvetica,sans-Serif" font-size="10.00">/Ark/Ark.hpp</text>
</a>
</g>
</g>
<!-- Node7&#45;&gt;Node8 -->
<g id="edge7_Node000007_Node000008" class="edge">
<title>Node7&#45;&gt;Node8</title>
<g id="a_edge7_Node000007_Node000008"><a xlink:title=" ">
<path fill="none" stroke="#63b8ff" d="M873.96,-247.22C745.54,-225.67 464.71,-176.29 231.25,-119.5 228.26,-118.77 225.21,-118 222.13,-117.19"/>
<polygon fill="#63b8ff" stroke="#63b8ff" points="873.23,-250.65 883.67,-248.85 874.39,-243.74 873.23,-250.65"/>
</a>
</g>
</g>
<!-- Node11 -->
<g id="Node000011" class="node">
<title>Node11</title>
<g id="a_Node000011"><a xlink:href="../../d1/d91/VM_8hpp.html" target="_top" xlink:title="The ArkScript virtual machine.">
<polygon fill="white" stroke="#666666" points="872.88,-197.25 755.62,-197.25 755.62,-155.5 872.88,-155.5 872.88,-197.25"/>
<text text-anchor="start" x="763.62" y="-183.75" font-family="Helvetica,sans-Serif" font-size="10.00">/Users/fola/Documents</text>
<text text-anchor="start" x="763.62" y="-172.5" font-family="Helvetica,sans-Serif" font-size="10.00">/ArkScript/Ark/include</text>
<text text-anchor="middle" x="814.25" y="-161.25" font-family="Helvetica,sans-Serif" font-size="10.00">/Ark/VM/VM.hpp</text>
</a>
</g>
</g>
<!-- Node7&#45;&gt;Node11 -->
<g id="edge10_Node000007_Node000011" class="edge">
<title>Node7&#45;&gt;Node11</title>
<g id="a_edge10_Node000007_Node000011"><a xlink:title=" ">
<path fill="none" stroke="#63b8ff" d="M902.12,-232.38C884.15,-221.13 863.51,-208.21 846.76,-197.72"/>
<polygon fill="#63b8ff" stroke="#63b8ff" points="900.16,-235.28 910.5,-237.62 903.88,-229.35 900.16,-235.28"/>
</a>
</g>
</g>
<!-- Node16 -->
<g id="Node000016" class="node">
<title>Node16</title>
<g id="a_Node000016"><a xlink:href="../../d5/da5/Repl_8hpp.html" target="_top" xlink:title="ArkScript REPL &#45; Read Eval Print Loop.">
<polygon fill="white" stroke="#666666" points="1204.88,-119.5 1087.62,-119.5 1087.62,-77.75 1204.88,-77.75 1204.88,-119.5"/>
<text text-anchor="start" x="1095.62" y="-106" font-family="Helvetica,sans-Serif" font-size="10.00">/Users/fola/Documents</text>
<text text-anchor="start" x="1095.62" y="-94.75" font-family="Helvetica,sans-Serif" font-size="10.00">/ArkScript/Ark/include</text>
<text text-anchor="middle" x="1146.25" y="-83.5" font-family="Helvetica,sans-Serif" font-size="10.00">/CLI/REPL/Repl.hpp</text>
</a>
</g>
</g>
<!-- Node7&#45;&gt;Node16 -->
<g id="edge26_Node000007_Node000016" class="edge">
<title>Node7&#45;&gt;Node16</title>
<g id="a_edge26_Node000007_Node000016"><a xlink:title=" ">
<path fill="none" stroke="#63b8ff" d="M936.85,-227.2C933.55,-204.82 933.4,-175.36 949.25,-155.5 986.38,-108.97 1021.02,-135.85 1078.25,-119.5 1081.21,-118.66 1084.23,-117.79 1087.29,-116.91"/>
<polygon fill="#63b8ff" stroke="#63b8ff" points="933.4,-227.76 938.6,-236.99 940.29,-226.53 933.4,-227.76"/>
</a>
</g>
</g>
<!-- Node9 -->
<g id="Node000009" class="node">
<title>Node9</title>
<g id="a_Node000009"><a xlink:href="../../d1/d95/arkemscripten_2main_8cpp.html" target="_top" xlink:title=" ">
<polygon fill="white" stroke="#666666" points="158.5,-41.75 0,-41.75 0,0 158.5,0 158.5,-41.75"/>
<text text-anchor="start" x="8" y="-28.25" font-family="Helvetica,sans-Serif" font-size="10.00">/Users/fola/Documents</text>
<text text-anchor="start" x="8" y="-17" font-family="Helvetica,sans-Serif" font-size="10.00">/ArkScript/Ark/src/arkemscripten</text>
<text text-anchor="middle" x="79.25" y="-5.75" font-family="Helvetica,sans-Serif" font-size="10.00">/main.cpp</text>
</a>
</g>
</g>
<!-- Node8&#45;&gt;Node9 -->
<g id="edge8_Node000008_Node000009" class="edge">
<title>Node8&#45;&gt;Node9</title>
<g id="a_edge8_Node000008_Node000009"><a xlink:title=" ">
<path fill="none" stroke="#63b8ff" d="M132.49,-69.89C122.34,-60.73 111.25,-50.73 101.82,-42.23"/>
<polygon fill="#63b8ff" stroke="#63b8ff" points="129.85,-72.21 139.62,-76.31 134.53,-67.02 129.85,-72.21"/>
</a>
</g>
</g>
<!-- Node10 -->
<g id="Node000010" class="node">
<title>Node10</title>
<g id="a_Node000010"><a xlink:href="../../dc/d32/Ark_8cpp.html" target="_top" xlink:title=" ">
<polygon fill="white" stroke="#666666" points="317.5,-41.75 177,-41.75 177,0 317.5,0 317.5,-41.75"/>
<text text-anchor="start" x="185" y="-28.25" font-family="Helvetica,sans-Serif" font-size="10.00">/Users/fola/Documents</text>
<text text-anchor="start" x="185" y="-17" font-family="Helvetica,sans-Serif" font-size="10.00">/ArkScript/Ark/src/arkreactor</text>
<text text-anchor="middle" x="247.25" y="-5.75" font-family="Helvetica,sans-Serif" font-size="10.00">/Ark.cpp</text>
</a>
</g>
</g>
<!-- Node8&#45;&gt;Node10 -->
<g id="edge9_Node000008_Node000010" class="edge">
<title>Node8&#45;&gt;Node10</title>
<g id="a_edge9_Node000008_Node000010"><a xlink:title=" ">
<path fill="none" stroke="#63b8ff" d="M194.01,-69.89C204.16,-60.73 215.25,-50.73 224.68,-42.23"/>
<polygon fill="#63b8ff" stroke="#63b8ff" points="191.97,-67.02 186.88,-76.31 196.65,-72.21 191.97,-67.02"/>
</a>
</g>
</g>
<!-- Node11&#45;&gt;Node5 -->
<g id="edge22_Node000011_Node000005" class="edge">
<title>Node11&#45;&gt;Node5</title>
<g id="a_edge22_Node000011_Node000005"><a xlink:title=" ">
<path fill="none" stroke="#63b8ff" d="M884.69,-164.85C905.47,-161.79 928.27,-158.47 949.25,-155.5 1066.94,-138.84 1097.55,-142.03 1214.25,-119.5 1217.03,-118.96 1219.85,-118.39 1222.7,-117.79"/>
<polygon fill="#63b8ff" stroke="#63b8ff" points="884.25,-161.38 874.87,-166.3 885.27,-168.3 884.25,-161.38"/>
</a>
</g>
</g>
<!-- Node11&#45;&gt;Node8 -->
<g id="edge11_Node000011_Node000008" class="edge">
<title>Node11&#45;&gt;Node8</title>
<g id="a_edge11_Node000011_Node000008"><a xlink:title=" ">
<path fill="none" stroke="#63b8ff" d="M744.12,-172.93C634.01,-168.13 414.24,-154.68 231.25,-119.5 228.23,-118.92 225.15,-118.26 222.06,-117.55"/>
<polygon fill="#63b8ff" stroke="#63b8ff" points="743.74,-176.41 753.88,-173.34 744.04,-169.42 743.74,-176.41"/>
</a>
</g>
</g>
<!-- Node12 -->
<g id="Node000012" class="node">
<title>Node12</title>
<g id="a_Node000012"><a xlink:href="../../d5/d44/Module_8hpp.html" target="_top" xlink:title=" ">
<polygon fill="white" stroke="#666666" points="674.88,-41.75 557.62,-41.75 557.62,0 674.88,0 674.88,-41.75"/>
<text text-anchor="start" x="565.62" y="-28.25" font-family="Helvetica,sans-Serif" font-size="10.00">/Users/fola/Documents</text>
<text text-anchor="start" x="565.62" y="-17" font-family="Helvetica,sans-Serif" font-size="10.00">/ArkScript/Ark/include</text>
<text text-anchor="middle" x="616.25" y="-5.75" font-family="Helvetica,sans-Serif" font-size="10.00">/Ark/Module.hpp</text>
</a>
</g>
</g>
<!-- Node11&#45;&gt;Node12 -->
<g id="edge12_Node000011_Node000012" class="edge">
<title>Node11&#45;&gt;Node12</title>
<g id="a_edge12_Node000011_Node000012"><a xlink:title=" ">
<path fill="none" stroke="#63b8ff" d="M744.09,-167.64C684.5,-159.45 605.66,-144.24 586.25,-119.5 568.41,-96.76 585.45,-63.4 600.19,-42.16"/>
<polygon fill="#63b8ff" stroke="#63b8ff" points="743.47,-171.09 753.84,-168.94 744.39,-164.15 743.47,-171.09"/>
</a>
</g>
</g>
<!-- Node13 -->
<g id="Node000013" class="node">
<title>Node13</title>
<g id="a_Node000013"><a xlink:href="../../d7/dd7/Helpers_8hpp.html" target="_top" xlink:title="Helpers for the VM.">
<polygon fill="white" stroke="#666666" points="872.88,-119.5 755.62,-119.5 755.62,-77.75 872.88,-77.75 872.88,-119.5"/>
<text text-anchor="start" x="763.62" y="-106" font-family="Helvetica,sans-Serif" font-size="10.00">/Users/fola/Documents</text>
<text text-anchor="start" x="763.62" y="-94.75" font-family="Helvetica,sans-Serif" font-size="10.00">/ArkScript/Ark/include</text>
<text text-anchor="middle" x="814.25" y="-83.5" font-family="Helvetica,sans-Serif" font-size="10.00">/Ark/VM/Helpers.hpp</text>
</a>
</g>
</g>
<!-- Node11&#45;&gt;Node13 -->
<g id="edge13_Node000011_Node000013" class="edge">
<title>Node11&#45;&gt;Node13</title>
<g id="a_edge13_Node000011_Node000013"><a xlink:title=" ">
<path fill="none" stroke="#63b8ff" d="M814.25,-143.75C814.25,-135.71 814.25,-127.29 814.25,-119.98"/>
<polygon fill="#63b8ff" stroke="#63b8ff" points="810.75,-143.56 814.25,-153.56 817.75,-143.56 810.75,-143.56"/>
</a>
</g>
</g>
<!-- Node14 -->
<g id="Node000014" class="node">
<title>Node14</title>
<g id="a_Node000014"><a xlink:href="../../d2/d27/VM_8cpp.html" target="_top" xlink:title=" ">
<polygon fill="white" stroke="#666666" points="884.5,-41.75 744,-41.75 744,0 884.5,0 884.5,-41.75"/>
<text text-anchor="start" x="752" y="-28.25" font-family="Helvetica,sans-Serif" font-size="10.00">/Users/fola/Documents</text>
<text text-anchor="start" x="752" y="-17" font-family="Helvetica,sans-Serif" font-size="10.00">/ArkScript/Ark/src/arkreactor</text>
<text text-anchor="middle" x="814.25" y="-5.75" font-family="Helvetica,sans-Serif" font-size="10.00">/VM/VM.cpp</text>
</a>
</g>
</g>
<!-- Node11&#45;&gt;Node14 -->
<g id="edge23_Node000011_Node000014" class="edge">
<title>Node11&#45;&gt;Node14</title>
<g id="a_edge23_Node000011_Node000014"><a xlink:title=" ">
<path fill="none" stroke="#63b8ff" d="M858.94,-148.25C868.34,-140.25 877,-130.61 882.25,-119.5 890.18,-102.72 890.18,-94.53 882.25,-77.75 875.39,-63.24 862.72,-51.24 850.16,-42.12"/>
<polygon fill="#63b8ff" stroke="#63b8ff" points="857.06,-145.27 851.35,-154.19 861.38,-150.78 857.06,-145.27"/>
</a>
</g>
</g>
<!-- Node15 -->
<g id="Node000015" class="node">
<title>Node15</title>
<g id="a_Node000015"><a xlink:href="../../d2/d33/ModuleMapping_8hpp.html" target="_top" xlink:title=" ">
<polygon fill="white" stroke="#666666" points="737.25,-119.5 595.25,-119.5 595.25,-77.75 737.25,-77.75 737.25,-119.5"/>
<text text-anchor="start" x="603.25" y="-106" font-family="Helvetica,sans-Serif" font-size="10.00">/Users/fola/Documents</text>
<text text-anchor="start" x="603.25" y="-94.75" font-family="Helvetica,sans-Serif" font-size="10.00">/ArkScript/Ark/include</text>
<text text-anchor="middle" x="666.25" y="-83.5" font-family="Helvetica,sans-Serif" font-size="10.00">/Ark/VM/ModuleMapping.hpp</text>
</a>
</g>
</g>
<!-- Node11&#45;&gt;Node15 -->
<g id="edge15_Node000011_Node000015" class="edge">
<title>Node11&#45;&gt;Node15</title>
<g id="a_edge15_Node000011_Node000015"><a xlink:title=" ">
<path fill="none" stroke="#63b8ff" d="M764.58,-149.95C745.52,-140.2 724.03,-129.2 706.02,-119.98"/>
<polygon fill="#63b8ff" stroke="#63b8ff" points="762.74,-152.95 773.24,-154.39 765.93,-146.71 762.74,-152.95"/>
</a>
</g>
</g>
<!-- Node11&#45;&gt;Node16 -->
<g id="edge18_Node000011_Node000016" class="edge">
<title>Node11&#45;&gt;Node16</title>
<g id="a_edge18_Node000011_Node000016"><a xlink:title=" ">
<path fill="none" stroke="#63b8ff" d="M884.53,-160.79C956.25,-145.86 1059.6,-124.19 1078.25,-119.5 1081.23,-118.75 1084.28,-117.96 1087.35,-117.14"/>
<polygon fill="#63b8ff" stroke="#63b8ff" points="883.87,-157.35 874.79,-162.81 885.3,-164.2 883.87,-157.35"/>
</a>
</g>
</g>
<!-- Node18 -->
<g id="Node000018" class="node">
<title>Node18</title>
<g id="a_Node000018"><a xlink:href="../../d6/d9a/TypeChecker_8cpp.html" target="_top" xlink:title=" ">
<polygon fill="white" stroke="#666666" points="1069.5,-119.5 929,-119.5 929,-77.75 1069.5,-77.75 1069.5,-119.5"/>
<text text-anchor="start" x="937" y="-106" font-family="Helvetica,sans-Serif" font-size="10.00">/Users/fola/Documents</text>
<text text-anchor="start" x="937" y="-94.75" font-family="Helvetica,sans-Serif" font-size="10.00">/ArkScript/Ark/src/arkreactor</text>
<text text-anchor="middle" x="999.25" y="-83.5" font-family="Helvetica,sans-Serif" font-size="10.00">/TypeChecker.cpp</text>
</a>
</g>
</g>
<!-- Node11&#45;&gt;Node18 -->
<g id="edge21_Node000011_Node000018" class="edge">
<title>Node11&#45;&gt;Node18</title>
<g id="a_edge21_Node000011_Node000018"><a xlink:title=" ">
<path fill="none" stroke="#63b8ff" d="M874.37,-150.76C898.67,-140.81 926.4,-129.46 949.54,-119.98"/>
<polygon fill="#63b8ff" stroke="#63b8ff" points="873.16,-147.47 865.23,-154.5 875.81,-153.95 873.16,-147.47"/>
</a>
</g>
</g>
<!-- Node19 -->
<g id="Node000019" class="node">
<title>Node19</title>
<g id="a_Node000019"><a xlink:href="../../d1/db2/Closure_8cpp.html" target="_top" xlink:title=" ">
<polygon fill="white" stroke="#666666" points="380.5,-119.5 240,-119.5 240,-77.75 380.5,-77.75 380.5,-119.5"/>
<text text-anchor="start" x="248" y="-106" font-family="Helvetica,sans-Serif" font-size="10.00">/Users/fola/Documents</text>
<text text-anchor="start" x="248" y="-94.75" font-family="Helvetica,sans-Serif" font-size="10.00">/ArkScript/Ark/src/arkreactor</text>
<text text-anchor="middle" x="310.25" y="-83.5" font-family="Helvetica,sans-Serif" font-size="10.00">/VM/Value/Closure.cpp</text>
</a>
</g>
</g>
<!-- Node11&#45;&gt;Node19 -->
<g id="edge24_Node000011_Node000019" class="edge">
<title>Node11&#45;&gt;Node19</title>
<g id="a_edge24_Node000011_Node000019"><a xlink:title=" ">
<path fill="none" stroke="#63b8ff" d="M744.03,-168.57C659.62,-159.82 513.87,-142.92 390.25,-119.5 387.16,-118.91 384,-118.28 380.83,-117.62"/>
<polygon fill="#63b8ff" stroke="#63b8ff" points="743.46,-172.03 753.77,-169.57 744.18,-165.06 743.46,-172.03"/>
</a>
</g>
</g>
<!-- Node20 -->
<g id="Node000020" class="node">
<title>Node20</title>
<g id="a_Node000020"><a xlink:href="../../d4/dc9/Future_8cpp.html" target="_top" xlink:title=" ">
<polygon fill="white" stroke="#666666" points="539.5,-119.5 399,-119.5 399,-77.75 539.5,-77.75 539.5,-119.5"/>
<text text-anchor="start" x="407" y="-106" font-family="Helvetica,sans-Serif" font-size="10.00">/Users/fola/Documents</text>
<text text-anchor="start" x="407" y="-94.75" font-family="Helvetica,sans-Serif" font-size="10.00">/ArkScript/Ark/src/arkreactor</text>
<text text-anchor="middle" x="469.25" y="-83.5" font-family="Helvetica,sans-Serif" font-size="10.00">/VM/Value/Future.cpp</text>
</a>
</g>
</g>
<!-- Node11&#45;&gt;Node20 -->
<g id="edge25_Node000011_Node000020" class="edge">
<title>Node11&#45;&gt;Node20</title>
<g id="a_edge25_Node000011_Node000020"><a xlink:title=" ">
<path fill="none" stroke="#63b8ff" d="M744.12,-160.79C691.52,-149.74 617.79,-134.04 553.25,-119.5 548.86,-118.51 544.35,-117.48 539.81,-116.43"/>
<polygon fill="#63b8ff" stroke="#63b8ff" points="743.36,-164.2 753.86,-162.83 744.79,-157.35 743.36,-164.2"/>
</a>
</g>
</g>
<!-- Node13&#45;&gt;Node14 -->
<g id="edge14_Node000013_Node000014" class="edge">
<title>Node13&#45;&gt;Node14</title>
<g id="a_edge14_Node000013_Node000014"><a xlink:title=" ">
<path fill="none" stroke="#63b8ff" d="M814.25,-66C814.25,-57.96 814.25,-49.54 814.25,-42.23"/>
<polygon fill="#63b8ff" stroke="#63b8ff" points="810.75,-65.81 814.25,-75.81 817.75,-65.81 810.75,-65.81"/>
</a>
</g>
</g>
<!-- Node15&#45;&gt;Node12 -->
<g id="edge16_Node000015_Node000012" class="edge">
<title>Node15&#45;&gt;Node12</title>
<g id="a_edge16_Node000015_Node000012"><a xlink:title=" ">
<path fill="none" stroke="#63b8ff" d="M646.67,-67.95C640.98,-59.34 634.9,-50.13 629.69,-42.23"/>
<polygon fill="#63b8ff" stroke="#63b8ff" points="643.59,-69.64 652.02,-76.06 649.43,-65.79 643.59,-69.64"/>
</a>
</g>
</g>
<!-- Node15&#45;&gt;Node14 -->
<g id="edge17_Node000015_Node000014" class="edge">
<title>Node15&#45;&gt;Node14</title>
<g id="a_edge17_Node000015_Node000014"><a xlink:title=" ">
<path fill="none" stroke="#63b8ff" d="M715.92,-72.2C734.98,-62.45 756.47,-51.45 774.48,-42.23"/>
<polygon fill="#63b8ff" stroke="#63b8ff" points="714.57,-68.96 707.26,-76.64 717.76,-75.2 714.57,-68.96"/>
</a>
</g>
</g>
<!-- Node16&#45;&gt;Node6 -->
<g id="edge20_Node000016_Node000006" class="edge">
<title>Node16&#45;&gt;Node6</title>
<g id="a_edge20_Node000016_Node000006"><a xlink:title=" ">
<path fill="none" stroke="#63b8ff" d="M1210.21,-73.28C1236.53,-63.26 1266.66,-51.79 1291.77,-42.23"/>
<polygon fill="#63b8ff" stroke="#63b8ff" points="1209.09,-69.96 1200.99,-76.79 1211.58,-76.5 1209.09,-69.96"/>
</a>
</g>
</g>
<!-- Node17 -->
<g id="Node000017" class="node">
<title>Node17</title>
<g id="a_Node000017"><a xlink:href="../../d7/d46/Repl_8cpp.html" target="_top" xlink:title=" ">
<polygon fill="white" stroke="#666666" points="1213.5,-41.75 1079,-41.75 1079,0 1213.5,0 1213.5,-41.75"/>
<text text-anchor="start" x="1087" y="-28.25" font-family="Helvetica,sans-Serif" font-size="10.00">/Users/fola/Documents</text>
<text text-anchor="start" x="1087" y="-17" font-family="Helvetica,sans-Serif" font-size="10.00">/ArkScript/Ark/src/arkscript</text>
<text text-anchor="middle" x="1146.25" y="-5.75" font-family="Helvetica,sans-Serif" font-size="10.00">/REPL/Repl.cpp</text>
</a>
</g>
</g>
<!-- Node16&#45;&gt;Node17 -->
<g id="edge19_Node000016_Node000017" class="edge">
<title>Node16&#45;&gt;Node17</title>
<g id="a_edge19_Node000016_Node000017"><a xlink:title=" ">
<path fill="none" stroke="#63b8ff" d="M1146.25,-66C1146.25,-57.96 1146.25,-49.54 1146.25,-42.23"/>
<polygon fill="#63b8ff" stroke="#63b8ff" points="1142.75,-65.81 1146.25,-75.81 1149.75,-65.81 1142.75,-65.81"/>
</a>
</g>
</g>
</g>
</svg>
