<?xml version="1.0" encoding="UTF-8" standalone="no"?>
<!DOCTYPE svg PUBLIC "-//W3C//DTD SVG 1.1//EN"
 "http://www.w3.org/Graphics/SVG/1.1/DTD/svg11.dtd">
<!-- Generated by graphviz version 12.2.0 (20241103.1931)
 -->
<!-- Title: /Users/fola/Documents/ArkScript/Ark/include/Ark/Error/Exceptions.hpp Pages: 1 -->
<!--zoomable 227 -->

<svg id="main" version="1.1" xmlns="http://www.w3.org/2000/svg" xmlns:xlink="http://www.w3.org/1999/xlink" xml:space="preserve" onload="init(evt)">

<style type="text/css"><![CDATA[
.node, .edge {opacity: 0.7;}
.node.selected, .edge.selected {opacity: 1;}
.edge:hover path { stroke: red; }
.edge:hover polygon { stroke: red; fill: red; }
]]></style>

<defs>
  <circle id="rim" cx="0" cy="0" r="7"/>
  <circle id="rim2" cx="0" cy="0" r="3.5"/>
  <g id="zoomPlus">
    <use xlink:href="#rim" fill="#404040"><set attributeName="fill" to="#808080" begin="zoomplus.mouseover" end="zoomplus.mouseout"/></use>
    <path d="M-4,0h8M0,-4v8" fill="none" stroke="white" stroke-width="1.5" pointer-events="none"/>
  </g>
  <g id="zoomMin">
    <use xlink:href="#rim" fill="#404040"><set attributeName="fill" to="#808080" begin="zoomminus.mouseover" end="zoomminus.mouseout"/></use>
    <path d="M-4,0h8" fill="none" stroke="white" stroke-width="1.5" pointer-events="none"/>
  </g>
  <g id="arrowUp" transform="translate(30 24)">
    <use xlink:href="#rim"/>
    <path pointer-events="none" fill="none" stroke="white" stroke-width="1.5" d="M0,-3.0v7 M-2.5,-0.5L0,-3.0L2.5,-0.5"/>
  </g>
  <g id="arrowRight" transform="rotate(90) translate(36 -43)">
    <use xlink:href="#rim"/>
    <path pointer-events="none" fill="none" stroke="white" stroke-width="1.5" d="M0,-3.0v7 M-2.5,-0.5L0,-3.0L2.5,-0.5"/>
  </g>
  <g id="arrowDown" transform="rotate(180) translate(-30 -48)">
    <use xlink:href="#rim"/>
    <path pointer-events="none" fill="none" stroke="white" stroke-width="1.5" d="M0,-3.0v7 M-2.5,-0.5L0,-3.0L2.5,-0.5"/>
  </g>
  <g id="arrowLeft" transform="rotate(270) translate(-36 17)">
    <use xlink:href="#rim"/>
    <path pointer-events="none" fill="none" stroke="white" stroke-width="1.5" d="M0,-3.0v7 M-2.5,-0.5L0,-3.0L2.5,-0.5"/>
  </g>
  <g id="resetDef">
    <use xlink:href="#rim2" fill="#404040"><set attributeName="fill" to="#808080" begin="reset.mouseover" end="reset.mouseout"/></use>
  </g>
</defs>
<script type="application/ecmascript">
var viewWidth = 535;
var viewHeight = 227;
var sectionId = 'dynsection-0';
</script>
<script type="application/ecmascript" xlink:href="../../svg.min.js"/>
<svg id="graph" class="graph">
<g id="viewport">
<title>/Users/fola/Documents/ArkScript/Ark/include/Ark/Error/Exceptions.hpp</title>
<!-- Node1 -->
<g id="Node000001" class="node">
<title>Node1</title>
<g id="a_Node000001"><a xlink:title="ArkScript homemade exceptions.">
<polygon fill="#999999" stroke="#666666" points="275.21,-218.75 146.71,-218.75 146.71,-177 275.21,-177 275.21,-218.75"/>
<text text-anchor="start" x="154.71" y="-205.25" font-family="Helvetica,sans-Serif" font-size="10.00">/Users/fola/Documents</text>
<text text-anchor="start" x="154.71" y="-194" font-family="Helvetica,sans-Serif" font-size="10.00">/ArkScript/Ark/include</text>
<text text-anchor="middle" x="210.96" y="-182.75" font-family="Helvetica,sans-Serif" font-size="10.00">/Ark/Error/Exceptions.hpp</text>
</a>
</g>
</g>
<!-- Node2 -->
<g id="Node000002" class="node">
<title>Node2</title>
<g id="a_Node000002"><a xlink:title=" ">
<polygon fill="#e0e0e0" stroke="#999999" points="312.96,-74.5 272.96,-74.5 272.96,-55.25 312.96,-55.25 312.96,-74.5"/>
<text text-anchor="middle" x="292.96" y="-61" font-family="Helvetica,sans-Serif" font-size="10.00">string</text>
</a>
</g>
</g>
<!-- Node1&#45;&gt;Node2 -->
<g id="edge1_Node000001_Node000002" class="edge">
<title>Node1&#45;&gt;Node2</title>
<g id="a_edge1_Node000001_Node000002"><a xlink:title=" ">
<path fill="none" stroke="#63b8ff" d="M243.87,-176.54C256.37,-167.2 269.6,-155.06 277.96,-141 287.94,-124.22 291.41,-101.99 292.55,-86.07"/>
<polygon fill="#63b8ff" stroke="#63b8ff" points="296.03,-86.54 292.98,-76.4 289.04,-86.23 296.03,-86.54"/>
</a>
</g>
</g>
<!-- Node3 -->
<g id="Node000003" class="node">
<title>Node3</title>
<g id="a_Node000003"><a xlink:title=" ">
<polygon fill="#e0e0e0" stroke="#999999" points="58.59,-135.38 19.34,-135.38 19.34,-116.12 58.59,-116.12 58.59,-135.38"/>
<text text-anchor="middle" x="38.96" y="-121.88" font-family="Helvetica,sans-Serif" font-size="10.00">utility</text>
</a>
</g>
</g>
<!-- Node1&#45;&gt;Node3 -->
<g id="edge2_Node000001_Node000003" class="edge">
<title>Node1&#45;&gt;Node3</title>
<g id="a_edge2_Node000001_Node000003"><a xlink:title=" ">
<path fill="none" stroke="#63b8ff" d="M155.86,-176.59C129.11,-166.42 96.63,-153.62 67.96,-141 67.62,-140.85 67.27,-140.69 66.92,-140.54"/>
<polygon fill="#63b8ff" stroke="#63b8ff" points="68.55,-137.44 58.01,-136.37 65.59,-143.78 68.55,-137.44"/>
</a>
</g>
</g>
<!-- Node4 -->
<g id="Node000004" class="node">
<title>Node4</title>
<g id="a_Node000004"><a xlink:title=" ">
<polygon fill="#e0e0e0" stroke="#999999" points="135.34,-135.38 76.59,-135.38 76.59,-116.12 135.34,-116.12 135.34,-135.38"/>
<text text-anchor="middle" x="105.96" y="-121.88" font-family="Helvetica,sans-Serif" font-size="10.00">stdexcept</text>
</a>
</g>
</g>
<!-- Node1&#45;&gt;Node4 -->
<g id="edge3_Node000001_Node000004" class="edge">
<title>Node1&#45;&gt;Node4</title>
<g id="a_edge3_Node000001_Node000004"><a xlink:title=" ">
<path fill="none" stroke="#63b8ff" d="M180.59,-176.59C164,-165.51 143.79,-152.02 128.59,-141.86"/>
<polygon fill="#63b8ff" stroke="#63b8ff" points="130.93,-139.22 120.68,-136.58 127.05,-145.04 130.93,-139.22"/>
</a>
</g>
</g>
<!-- Node5 -->
<g id="Node000005" class="node">
<title>Node5</title>
<g id="a_Node000005"><a xlink:title=" ">
<polygon fill="#e0e0e0" stroke="#999999" points="206.84,-19.25 157.09,-19.25 157.09,0 206.84,0 206.84,-19.25"/>
<text text-anchor="middle" x="181.96" y="-5.75" font-family="Helvetica,sans-Serif" font-size="10.00">optional</text>
</a>
</g>
</g>
<!-- Node1&#45;&gt;Node5 -->
<g id="edge4_Node000001_Node000005" class="edge">
<title>Node1&#45;&gt;Node5</title>
<g id="a_edge4_Node000001_Node000005"><a xlink:title=" ">
<path fill="none" stroke="#63b8ff" d="M146.39,-187.51C94.13,-178.45 26.59,-162.88 9.96,-141 -33.36,-83.99 83.85,-39.44 146.06,-20.52"/>
<polygon fill="#63b8ff" stroke="#63b8ff" points="146.93,-23.91 155.53,-17.72 144.95,-17.2 146.93,-23.91"/>
</a>
</g>
</g>
<!-- Node6 -->
<g id="Node000006" class="node">
<title>Node6</title>
<g id="a_Node000006"><a xlink:href="../../db/d4e/utf8__char_8hpp.html" target="_top" xlink:title=" ">
<polygon fill="white" stroke="#666666" points="268.46,-141 153.46,-141 153.46,-110.5 268.46,-110.5 268.46,-141"/>
<text text-anchor="start" x="161.46" y="-127.5" font-family="Helvetica,sans-Serif" font-size="10.00">Ark/Compiler/AST/utf8</text>
<text text-anchor="middle" x="210.96" y="-116.25" font-family="Helvetica,sans-Serif" font-size="10.00">_char.hpp</text>
</a>
</g>
</g>
<!-- Node1&#45;&gt;Node6 -->
<g id="edge5_Node000001_Node000006" class="edge">
<title>Node1&#45;&gt;Node6</title>
<g id="a_edge5_Node000001_Node000006"><a xlink:title=" ">
<path fill="none" stroke="#63b8ff" d="M210.96,-176.59C210.96,-169.07 210.96,-160.44 210.96,-152.5"/>
<polygon fill="#63b8ff" stroke="#63b8ff" points="214.46,-152.71 210.96,-142.71 207.46,-152.71 214.46,-152.71"/>
</a>
</g>
</g>
<!-- Node9 -->
<g id="Node000009" class="node">
<title>Node9</title>
<g id="a_Node000009"><a xlink:href="../../d5/d40/Platform_8hpp.html" target="_top" xlink:title="ArkScript configuration macros.">
<polygon fill="white" stroke="#666666" points="527.34,-19.25 414.59,-19.25 414.59,0 527.34,0 527.34,-19.25"/>
<text text-anchor="middle" x="470.96" y="-5.75" font-family="Helvetica,sans-Serif" font-size="10.00">Ark/Utils/Platform.hpp</text>
</a>
</g>
</g>
<!-- Node1&#45;&gt;Node9 -->
<g id="edge9_Node000001_Node000009" class="edge">
<title>Node1&#45;&gt;Node9</title>
<g id="a_edge9_Node000001_Node000009"><a xlink:title=" ">
<path fill="none" stroke="#63b8ff" d="M275.58,-193.16C349.38,-187.42 463.39,-173.43 489.96,-141 516.21,-108.97 495.83,-57.03 481.64,-29.37"/>
<polygon fill="#63b8ff" stroke="#63b8ff" points="484.83,-27.9 476.99,-20.76 478.67,-31.22 484.83,-27.9"/>
</a>
</g>
</g>
<!-- Node10 -->
<g id="Node000010" class="node">
<title>Node10</title>
<g id="a_Node000010"><a xlink:href="../../dc/d73/CodeErrorContext_8hpp.html" target="_top" xlink:title="Defines a code error context.">
<polygon fill="white" stroke="#666666" points="480.71,-135.38 325.21,-135.38 325.21,-116.12 480.71,-116.12 480.71,-135.38"/>
<text text-anchor="middle" x="402.96" y="-121.88" font-family="Helvetica,sans-Serif" font-size="10.00">Ark/Error/CodeErrorContext.hpp</text>
</a>
</g>
</g>
<!-- Node1&#45;&gt;Node10 -->
<g id="edge10_Node000001_Node000010" class="edge">
<title>Node1&#45;&gt;Node10</title>
<g id="a_edge10_Node000001_Node000010"><a xlink:title=" ">
<path fill="none" stroke="#63b8ff" d="M266.5,-176.59C299.06,-164.7 339.22,-150.03 367.51,-139.7"/>
<polygon fill="#63b8ff" stroke="#63b8ff" points="368.5,-143.06 376.69,-136.35 366.09,-136.49 368.5,-143.06"/>
</a>
</g>
</g>
<!-- Node6&#45;&gt;Node2 -->
<g id="edge7_Node000006_Node000002" class="edge">
<title>Node6&#45;&gt;Node2</title>
<g id="a_edge7_Node000006_Node000002"><a xlink:title=" ">
<path fill="none" stroke="#63b8ff" d="M231.23,-110.2C243.36,-101.49 258.77,-90.43 271.15,-81.53"/>
<polygon fill="#63b8ff" stroke="#63b8ff" points="273.01,-84.51 279.09,-75.83 268.93,-78.82 273.01,-84.51"/>
</a>
</g>
</g>
<!-- Node7 -->
<g id="Node000007" class="node">
<title>Node7</title>
<g id="a_Node000007"><a xlink:title=" ">
<polygon fill="#e0e0e0" stroke="#999999" points="184.84,-74.5 147.09,-74.5 147.09,-55.25 184.84,-55.25 184.84,-74.5"/>
<text text-anchor="middle" x="165.96" y="-61" font-family="Helvetica,sans-Serif" font-size="10.00">array</text>
</a>
</g>
</g>
<!-- Node6&#45;&gt;Node7 -->
<g id="edge6_Node000006_Node000007" class="edge">
<title>Node6&#45;&gt;Node7</title>
<g id="a_edge6_Node000006_Node000007"><a xlink:title=" ">
<path fill="none" stroke="#63b8ff" d="M199.84,-110.2C193.78,-102.27 186.22,-92.38 179.79,-83.96"/>
<polygon fill="#63b8ff" stroke="#63b8ff" points="182.67,-81.97 173.82,-76.15 177.11,-86.22 182.67,-81.97"/>
</a>
</g>
</g>
<!-- Node8 -->
<g id="Node000008" class="node">
<title>Node8</title>
<g id="a_Node000008"><a xlink:title=" ">
<polygon fill="#e0e0e0" stroke="#999999" points="242.59,-74.5 203.34,-74.5 203.34,-55.25 242.59,-55.25 242.59,-74.5"/>
<text text-anchor="middle" x="222.96" y="-61" font-family="Helvetica,sans-Serif" font-size="10.00">limits</text>
</a>
</g>
</g>
<!-- Node6&#45;&gt;Node8 -->
<g id="edge8_Node000006_Node000008" class="edge">
<title>Node6&#45;&gt;Node8</title>
<g id="a_edge8_Node000006_Node000008"><a xlink:title=" ">
<path fill="none" stroke="#63b8ff" d="M213.93,-110.2C215.41,-102.96 217.21,-94.09 218.82,-86.19"/>
<polygon fill="#63b8ff" stroke="#63b8ff" points="222.24,-86.93 220.81,-76.43 215.38,-85.53 222.24,-86.93"/>
</a>
</g>
</g>
<!-- Node10&#45;&gt;Node2 -->
<g id="edge11_Node000010_Node000002" class="edge">
<title>Node10&#45;&gt;Node2</title>
<g id="a_edge11_Node000010_Node000002"><a xlink:title=" ">
<path fill="none" stroke="#63b8ff" d="M386.26,-115.81C368.65,-106.38 340.65,-91.4 319.92,-80.3"/>
<polygon fill="#63b8ff" stroke="#63b8ff" points="321.63,-77.25 311.16,-75.62 318.33,-83.42 321.63,-77.25"/>
</a>
</g>
</g>
<!-- Node10&#45;&gt;Node9 -->
<g id="edge12_Node000010_Node000009" class="edge">
<title>Node10&#45;&gt;Node9</title>
<g id="a_edge12_Node000010_Node000009"><a xlink:title=" ">
<path fill="none" stroke="#63b8ff" d="M414.3,-115.94C425.42,-106.74 442.09,-91.31 451.96,-74.5 459.95,-60.89 464.82,-43.65 467.63,-30.51"/>
<polygon fill="#63b8ff" stroke="#63b8ff" points="471.03,-31.39 469.44,-20.91 464.15,-30.09 471.03,-31.39"/>
</a>
</g>
</g>
<!-- Node11 -->
<g id="Node000011" class="node">
<title>Node11</title>
<g id="a_Node000011"><a xlink:href="../../dc/d58/Position_8hpp.html" target="_top" xlink:title="Defines position utilities (for text in a file) for the parser, formatter, diagnostics.">
<polygon fill="white" stroke="#666666" points="442.59,-74.5 331.34,-74.5 331.34,-55.25 442.59,-55.25 442.59,-74.5"/>
<text text-anchor="middle" x="386.96" y="-61" font-family="Helvetica,sans-Serif" font-size="10.00">Ark/Utils/Position.hpp</text>
</a>
</g>
</g>
<!-- Node10&#45;&gt;Node11 -->
<g id="edge13_Node000010_Node000011" class="edge">
<title>Node10&#45;&gt;Node11</title>
<g id="a_edge13_Node000010_Node000011"><a xlink:title=" ">
<path fill="none" stroke="#63b8ff" d="M400.53,-115.81C398.37,-107.85 395.13,-95.94 392.36,-85.74"/>
<polygon fill="#63b8ff" stroke="#63b8ff" points="395.81,-85.09 389.81,-76.36 389.06,-86.93 395.81,-85.09"/>
</a>
</g>
</g>
<!-- Node11&#45;&gt;Node5 -->
<g id="edge14_Node000011_Node000005" class="edge">
<title>Node11&#45;&gt;Node5</title>
<g id="a_edge14_Node000011_Node000005"><a xlink:title=" ">
<path fill="none" stroke="#63b8ff" d="M352.19,-54.84C314.92,-45.16 256.03,-29.86 218.2,-20.04"/>
<polygon fill="#63b8ff" stroke="#63b8ff" points="219.21,-16.68 208.65,-17.56 217.45,-23.46 219.21,-16.68"/>
</a>
</g>
</g>
<!-- Node11&#45;&gt;Node9 -->
<g id="edge15_Node000011_Node000009" class="edge">
<title>Node11&#45;&gt;Node9</title>
<g id="a_edge15_Node000011_Node000009"><a xlink:title=" ">
<path fill="none" stroke="#63b8ff" d="M401.21,-54.84C413.76,-46.89 432.3,-35.14 447.11,-25.75"/>
<polygon fill="#63b8ff" stroke="#63b8ff" points="448.79,-28.82 455.37,-20.51 445.05,-22.91 448.79,-28.82"/>
</a>
</g>
</g>
</g>
</svg>

<g id="navigator" transform="translate(0 0)" fill="#404254">
  <rect fill="#f2f5e9" fill-opacity="0.5" stroke="#606060" stroke-width=".5" x="0" y="0" width="60" height="60"/>
  <use id="zoomplus" xlink:href="#zoomPlus" x="17" y="9" onmousedown="handleZoom(evt,'in')"/>
  <use id="zoomminus" xlink:href="#zoomMin" x="42" y="9" onmousedown="handleZoom(evt,'out')"/>
  <use id="reset" xlink:href="#resetDef" x="30" y="36" onmousedown="handleReset()"/>
   <use id="arrowup" xlink:href="#arrowUp" x="0" y="0" onmousedown="handlePan(0,-1)"/>
  <use id="arrowright" xlink:href="#arrowRight" x="0" y="0" onmousedown="handlePan(1,0)"/>
  <use id="arrowdown" xlink:href="#arrowDown" x="0" y="0" onmousedown="handlePan(0,1)"/>
  <use id="arrowleft" xlink:href="#arrowLeft" x="0" y="0" onmousedown="handlePan(-1,0)"/>
</g>
<svg viewBox="0 0 15 15" width="100%" height="30px" preserveAspectRatio="xMaxYMin meet">
 <g id="arrow_out" transform="scale(0.3 0.3)">
  <a xlink:href="Exceptions_8hpp__incl_org.svg" target="_base">
   <rect id="button" ry="5" rx="5" y="6" x="6" height="38" width="38"
        fill="#f2f5e9" fill-opacity="0.5" stroke="#606060" stroke-width="1.0"/>
   <path id="arrow"
     d="M 11.500037,31.436501 C 11.940474,20.09759 22.043105,11.32322 32.158766,21.979434 L 37.068811,17.246167 C 37.068811,17.246167 37.088388,32 37.088388,32 L 22.160133,31.978069 C 22.160133,31.978069 26.997745,27.140456 26.997745,27.140456 C 18.528582,18.264221 13.291696,25.230495 11.500037,31.436501 z"
     style="fill:#404040;"/>
  </a>
 </g>
</svg>

<style type='text/css'>
<![CDATA[
[data-mouse-over-selected='false'] { opacity: 0.7; }
[data-mouse-over-selected='true']  { opacity: 1.0; }
]]>
</style>
<script type="application/ecmascript"><![CDATA[
document.addEventListener('DOMContentLoaded', (event) => {
  highlightEdges();
  highlightAdjacentNodes();
});
]]></script>
</svg>
