<?xml version="1.0" encoding="UTF-8" standalone="no"?>
<!DOCTYPE svg PUBLIC "-//W3C//DTD SVG 1.1//EN"
 "http://www.w3.org/Graphics/SVG/1.1/DTD/svg11.dtd">
<!-- Generated by graphviz version 12.2.0 (20241103.1931)
 -->
<!-- Title: /Users/fola/Documents/ArkScript/Ark/include/Ark/Compiler/Serialization/IntegerSerializer.hpp Pages: 1 -->
<svg width="179pt" height="116pt"
 viewBox="0.00 0.00 179.38 116.25" xmlns="http://www.w3.org/2000/svg" xmlns:xlink="http://www.w3.org/1999/xlink">
<g id="graph0" class="graph" transform="scale(1 1) rotate(0) translate(4 112.25)">
<title>/Users/fola/Documents/ArkScript/Ark/include/Ark/Compiler/Serialization/IntegerSerializer.hpp</title>
<!-- Node1 -->
<g id="Node000001" class="node">
<title>Node1</title>
<g id="a_Node000001"><a xlink:title=" ">
<polygon fill="#999999" stroke="#666666" points="142.62,-108.25 10.38,-108.25 10.38,-55.25 142.62,-55.25 142.62,-108.25"/>
<text text-anchor="start" x="18.38" y="-94.75" font-family="Helvetica,sans-Serif" font-size="10.00">/Users/fola/Documents</text>
<text text-anchor="start" x="18.38" y="-83.5" font-family="Helvetica,sans-Serif" font-size="10.00">/ArkScript/Ark/include</text>
<text text-anchor="start" x="18.38" y="-72.25" font-family="Helvetica,sans-Serif" font-size="10.00">/Ark/Compiler/Serialization</text>
<text text-anchor="middle" x="76.5" y="-61" font-family="Helvetica,sans-Serif" font-size="10.00">/IntegerSerializer.hpp</text>
</a>
</g>
</g>
<!-- Node2 -->
<g id="Node000002" class="node">
<title>Node2</title>
<g id="a_Node000002"><a xlink:title=" ">
<polygon fill="#e0e0e0" stroke="#999999" points="37,-19.25 0,-19.25 0,0 37,0 37,-19.25"/>
<text text-anchor="middle" x="18.5" y="-5.75" font-family="Helvetica,sans-Serif" font-size="10.00">span</text>
</a>
</g>
</g>
<!-- Node1&#45;&gt;Node2 -->
<g id="edge1_Node000001_Node000002" class="edge">
<title>Node1&#45;&gt;Node2</title>
<g id="a_edge1_Node000001_Node000002"><a xlink:title=" ">
<path fill="none" stroke="#63b8ff" d="M55.23,-55.04C47.97,-46.25 40.01,-36.63 33.36,-28.59"/>
<polygon fill="#63b8ff" stroke="#63b8ff" points="36.07,-26.38 27,-20.9 30.68,-30.84 36.07,-26.38"/>
</a>
</g>
</g>
<!-- Node3 -->
<g id="Node000003" class="node">
<title>Node3</title>
<g id="a_Node000003"><a xlink:title=" ">
<polygon fill="#e0e0e0" stroke="#999999" points="98,-19.25 55,-19.25 55,0 98,0 98,-19.25"/>
<text text-anchor="middle" x="76.5" y="-5.75" font-family="Helvetica,sans-Serif" font-size="10.00">vector</text>
</a>
</g>
</g>
<!-- Node1&#45;&gt;Node3 -->
<g id="edge2_Node000001_Node000003" class="edge">
<title>Node1&#45;&gt;Node3</title>
<g id="a_edge2_Node000001_Node000003"><a xlink:title=" ">
<path fill="none" stroke="#63b8ff" d="M76.5,-55.04C76.5,-47.12 76.5,-38.52 76.5,-31.02"/>
<polygon fill="#63b8ff" stroke="#63b8ff" points="80,-31.25 76.5,-21.25 73,-31.25 80,-31.25"/>
</a>
</g>
</g>
<!-- Node4 -->
<g id="Node000004" class="node">
<title>Node4</title>
<g id="a_Node000004"><a xlink:title=" ">
<polygon fill="#e0e0e0" stroke="#999999" points="171.38,-19.25 115.62,-19.25 115.62,0 171.38,0 171.38,-19.25"/>
<text text-anchor="middle" x="143.5" y="-5.75" font-family="Helvetica,sans-Serif" font-size="10.00">concepts</text>
</a>
</g>
</g>
<!-- Node1&#45;&gt;Node4 -->
<g id="edge3_Node000001_Node000004" class="edge">
<title>Node1&#45;&gt;Node4</title>
<g id="a_edge3_Node000001_Node000004"><a xlink:title=" ">
<path fill="none" stroke="#63b8ff" d="M101.07,-55.04C109.73,-45.97 119.26,-35.99 127.09,-27.8"/>
<polygon fill="#63b8ff" stroke="#63b8ff" points="129.37,-30.48 133.75,-20.83 124.31,-25.64 129.37,-30.48"/>
</a>
</g>
</g>
</g>
</svg>
