<?xml version="1.0" encoding="UTF-8" standalone="no"?>
<!DOCTYPE svg PUBLIC "-//W3C//DTD SVG 1.1//EN"
 "http://www.w3.org/Graphics/SVG/1.1/DTD/svg11.dtd">
<!-- Generated by graphviz version 12.2.0 (20241103.1931)
 -->
<!-- Title: /Users/fola/Documents/ArkScript/Ark/src/arkreactor/Compiler/BytecodeReader.cpp Pages: 1 -->
<svg width="1742pt" height="305pt"
 viewBox="0.00 0.00 1741.62 304.50" xmlns="http://www.w3.org/2000/svg" xmlns:xlink="http://www.w3.org/1999/xlink">
<g id="graph0" class="graph" transform="scale(1 1) rotate(0) translate(4 300.5)">
<title>/Users/fola/Documents/ArkScript/Ark/src/arkreactor/Compiler/BytecodeReader.cpp</title>
<!-- Node1 -->
<g id="Node000001" class="node">
<title>Node1</title>
<g id="a_Node000001"><a xlink:title=" ">
<polygon fill="#999999" stroke="#666666" points="1413.62,-296.5 1261.88,-296.5 1261.88,-254.75 1413.62,-254.75 1413.62,-296.5"/>
<text text-anchor="start" x="1269.88" y="-283" font-family="Helvetica,sans-Serif" font-size="10.00">/Users/fola/Documents</text>
<text text-anchor="start" x="1269.88" y="-271.75" font-family="Helvetica,sans-Serif" font-size="10.00">/ArkScript/Ark/src/arkreactor</text>
<text text-anchor="middle" x="1337.75" y="-260.5" font-family="Helvetica,sans-Serif" font-size="10.00">/Compiler/BytecodeReader.cpp</text>
</a>
</g>
</g>
<!-- Node2 -->
<g id="Node000002" class="node">
<title>Node2</title>
<g id="a_Node000002"><a xlink:href="../../d1/d84/BytecodeReader_8hpp.html" target="_top" xlink:title="A bytecode disassembler for ArkScript.">
<polygon fill="white" stroke="#666666" points="509.12,-213.12 342.38,-213.12 342.38,-193.88 509.12,-193.88 509.12,-213.12"/>
<text text-anchor="middle" x="425.75" y="-199.62" font-family="Helvetica,sans-Serif" font-size="10.00">Ark/Compiler/BytecodeReader.hpp</text>
</a>
</g>
</g>
<!-- Node1&#45;&gt;Node2 -->
<g id="edge1_Node000001_Node000002" class="edge">
<title>Node1&#45;&gt;Node2</title>
<g id="a_edge1_Node000001_Node000002"><a xlink:title=" ">
<path fill="none" stroke="#63b8ff" d="M1261.56,-268.77C1095.8,-256.02 702.75,-225.8 520.98,-211.82"/>
<polygon fill="#63b8ff" stroke="#63b8ff" points="521.33,-208.34 511.09,-211.06 520.79,-215.32 521.33,-208.34"/>
</a>
</g>
</g>
<!-- Node25 -->
<g id="Node000025" class="node">
<title>Node25</title>
<g id="a_Node000025"><a xlink:href="../../d8/daa/Instructions_8hpp.html" target="_top" xlink:title="The different instructions used by the compiler and virtual machine.">
<polygon fill="white" stroke="#666666" points="748.62,-146.62 602.88,-146.62 602.88,-127.38 748.62,-127.38 748.62,-146.62"/>
<text text-anchor="middle" x="675.75" y="-133.12" font-family="Helvetica,sans-Serif" font-size="10.00">Ark/Compiler/Instructions.hpp</text>
</a>
</g>
</g>
<!-- Node1&#45;&gt;Node25 -->
<g id="edge40_Node000001_Node000025" class="edge">
<title>Node1&#45;&gt;Node25</title>
<g id="a_edge40_Node000001_Node000025"><a xlink:title=" ">
<path fill="none" stroke="#63b8ff" d="M1261.47,-261.19C1200.75,-250.3 1113.66,-234.28 1037.75,-218.75 925.85,-195.86 795.23,-165.92 725.55,-149.69"/>
<polygon fill="#63b8ff" stroke="#63b8ff" points="726.5,-146.32 715.97,-147.46 724.91,-153.14 726.5,-146.32"/>
</a>
</g>
</g>
<!-- Node26 -->
<g id="Node000026" class="node">
<title>Node26</title>
<g id="a_Node000026"><a xlink:href="../../da/d84/Builtins_8hpp.html" target="_top" xlink:title="Host the declaration of all the ArkScript builtins.">
<polygon fill="white" stroke="#666666" points="1166.88,-213.12 1046.62,-213.12 1046.62,-193.88 1166.88,-193.88 1166.88,-213.12"/>
<text text-anchor="middle" x="1106.75" y="-199.62" font-family="Helvetica,sans-Serif" font-size="10.00">Ark/Builtins/Builtins.hpp</text>
</a>
</g>
</g>
<!-- Node1&#45;&gt;Node26 -->
<g id="edge42_Node000001_Node000026" class="edge">
<title>Node1&#45;&gt;Node26</title>
<g id="a_edge42_Node000001_Node000026"><a xlink:title=" ">
<path fill="none" stroke="#63b8ff" d="M1270.94,-254.34C1231.07,-242.24 1181.73,-227.26 1147.61,-216.9"/>
<polygon fill="#63b8ff" stroke="#63b8ff" points="1148.69,-213.57 1138.1,-214.02 1146.65,-220.27 1148.69,-213.57"/>
</a>
</g>
</g>
<!-- Node27 -->
<g id="Node000027" class="node">
<title>Node27</title>
<g id="a_Node000027"><a xlink:title=" ">
<polygon fill="#e0e0e0" stroke="#999999" points="1268.12,-213.12 1185.38,-213.12 1185.38,-193.88 1268.12,-193.88 1268.12,-213.12"/>
<text text-anchor="middle" x="1226.75" y="-199.62" font-family="Helvetica,sans-Serif" font-size="10.00">unordered_map</text>
</a>
</g>
</g>
<!-- Node1&#45;&gt;Node27 -->
<g id="edge45_Node000001_Node000027" class="edge">
<title>Node1&#45;&gt;Node27</title>
<g id="a_edge45_Node000001_Node000027"><a xlink:title=" ">
<path fill="none" stroke="#63b8ff" d="M1305.64,-254.34C1288.1,-243.26 1266.74,-229.77 1250.67,-219.61"/>
<polygon fill="#63b8ff" stroke="#63b8ff" points="1252.58,-216.68 1242.25,-214.29 1248.84,-222.59 1252.58,-216.68"/>
</a>
</g>
</g>
<!-- Node28 -->
<g id="Node000028" class="node">
<title>Node28</title>
<g id="a_Node000028"><a xlink:href="../../db/d7c/Picosha2_8hpp.html" target="_top" xlink:title=" ">
<polygon fill="white" stroke="#666666" points="1389.62,-213.12 1285.88,-213.12 1285.88,-193.88 1389.62,-193.88 1389.62,-213.12"/>
<text text-anchor="middle" x="1337.75" y="-199.62" font-family="Helvetica,sans-Serif" font-size="10.00">Proxy/Picosha2.hpp</text>
</a>
</g>
</g>
<!-- Node1&#45;&gt;Node28 -->
<g id="edge46_Node000001_Node000028" class="edge">
<title>Node1&#45;&gt;Node28</title>
<g id="a_edge46_Node000001_Node000028"><a xlink:title=" ">
<path fill="none" stroke="#63b8ff" d="M1337.75,-254.34C1337.75,-245 1337.75,-233.94 1337.75,-224.62"/>
<polygon fill="#63b8ff" stroke="#63b8ff" points="1341.25,-224.82 1337.75,-214.82 1334.25,-224.82 1341.25,-224.82"/>
</a>
</g>
</g>
<!-- Node30 -->
<g id="Node000030" class="node">
<title>Node30</title>
<g id="a_Node000030"><a xlink:href="../../d1/d61/IEEE754Serializer_8hpp.html" target="_top" xlink:title=" ">
<polygon fill="white" stroke="#666666" points="1553.38,-85.75 1424.12,-85.75 1424.12,-55.25 1553.38,-55.25 1553.38,-85.75"/>
<text text-anchor="start" x="1432.12" y="-72.25" font-family="Helvetica,sans-Serif" font-size="10.00">Ark/Compiler/Serialization</text>
<text text-anchor="middle" x="1488.75" y="-61" font-family="Helvetica,sans-Serif" font-size="10.00">/IEEE754Serializer.hpp</text>
</a>
</g>
</g>
<!-- Node1&#45;&gt;Node30 -->
<g id="edge48_Node000001_Node000030" class="edge">
<title>Node1&#45;&gt;Node30</title>
<g id="a_edge48_Node000001_Node000030"><a xlink:title=" ">
<path fill="none" stroke="#63b8ff" d="M1363.02,-254.31C1374.64,-244.29 1388.16,-231.61 1398.75,-218.75 1431.32,-179.2 1460.53,-126.79 1476.34,-96.34"/>
<polygon fill="#63b8ff" stroke="#63b8ff" points="1479.41,-98.03 1480.85,-87.53 1473.18,-94.84 1479.41,-98.03"/>
</a>
</g>
</g>
<!-- Node34 -->
<g id="Node000034" class="node">
<title>Node34</title>
<g id="a_Node000034"><a xlink:href="../../d9/d94/IntegerSerializer_8hpp.html" target="_top" xlink:title=" ">
<polygon fill="white" stroke="#666666" points="1575.38,-218.75 1446.12,-218.75 1446.12,-188.25 1575.38,-188.25 1575.38,-218.75"/>
<text text-anchor="start" x="1454.12" y="-205.25" font-family="Helvetica,sans-Serif" font-size="10.00">Ark/Compiler/Serialization</text>
<text text-anchor="middle" x="1510.75" y="-194" font-family="Helvetica,sans-Serif" font-size="10.00">/IntegerSerializer.hpp</text>
</a>
</g>
</g>
<!-- Node1&#45;&gt;Node34 -->
<g id="edge54_Node000001_Node000034" class="edge">
<title>Node1&#45;&gt;Node34</title>
<g id="a_edge54_Node000001_Node000034"><a xlink:title=" ">
<path fill="none" stroke="#63b8ff" d="M1387.79,-254.34C1411.85,-244.59 1440.51,-232.97 1464.11,-223.41"/>
<polygon fill="#63b8ff" stroke="#63b8ff" points="1465.2,-226.74 1473.16,-219.74 1462.57,-220.25 1465.2,-226.74"/>
</a>
</g>
</g>
<!-- Node37 -->
<g id="Node000037" class="node">
<title>Node37</title>
<g id="a_Node000037"><a xlink:title=" ">
<polygon fill="#e0e0e0" stroke="#999999" points="1653.88,-213.12 1593.62,-213.12 1593.62,-193.88 1653.88,-193.88 1653.88,-213.12"/>
<text text-anchor="middle" x="1623.75" y="-199.62" font-family="Helvetica,sans-Serif" font-size="10.00">fmt/core.h</text>
</a>
</g>
</g>
<!-- Node1&#45;&gt;Node37 -->
<g id="edge58_Node000001_Node000037" class="edge">
<title>Node1&#45;&gt;Node37</title>
<g id="a_edge58_Node000001_Node000037"><a xlink:title=" ">
<path fill="none" stroke="#63b8ff" d="M1414.07,-259.99C1463.21,-249.92 1528.24,-235.39 1584.75,-218.75 1586.35,-218.28 1587.98,-217.78 1589.62,-217.25"/>
<polygon fill="#63b8ff" stroke="#63b8ff" points="1590.63,-220.61 1598.97,-214.07 1588.37,-213.98 1590.63,-220.61"/>
</a>
</g>
</g>
<!-- Node38 -->
<g id="Node000038" class="node">
<title>Node38</title>
<g id="a_Node000038"><a xlink:title=" ">
<polygon fill="#e0e0e0" stroke="#999999" points="1733.62,-213.12 1671.88,-213.12 1671.88,-193.88 1733.62,-193.88 1733.62,-213.12"/>
<text text-anchor="middle" x="1702.75" y="-199.62" font-family="Helvetica,sans-Serif" font-size="10.00">fmt/color.h</text>
</a>
</g>
</g>
<!-- Node1&#45;&gt;Node38 -->
<g id="edge59_Node000001_Node000038" class="edge">
<title>Node1&#45;&gt;Node38</title>
<g id="a_edge59_Node000001_Node000038"><a xlink:title=" ">
<path fill="none" stroke="#63b8ff" d="M1414.06,-265.28C1480.43,-256.27 1578.85,-240.73 1662.75,-218.75 1664.61,-218.26 1666.51,-217.72 1668.42,-217.15"/>
<polygon fill="#63b8ff" stroke="#63b8ff" points="1669.41,-220.51 1677.83,-214.09 1667.24,-213.86 1669.41,-220.51"/>
</a>
</g>
</g>
<!-- Node3 -->
<g id="Node000003" class="node">
<title>Node3</title>
<g id="a_Node000003"><a xlink:title=" ">
<polygon fill="#e0e0e0" stroke="#999999" points="1281.25,-19.25 1238.25,-19.25 1238.25,0 1281.25,0 1281.25,-19.25"/>
<text text-anchor="middle" x="1259.75" y="-5.75" font-family="Helvetica,sans-Serif" font-size="10.00">vector</text>
</a>
</g>
</g>
<!-- Node2&#45;&gt;Node3 -->
<g id="edge2_Node000002_Node000003" class="edge">
<title>Node2&#45;&gt;Node3</title>
<g id="a_edge2_Node000002_Node000003"><a xlink:title=" ">
<path fill="none" stroke="#63b8ff" d="M509.55,-201.32C693.51,-197.05 1124.86,-177.27 1232.75,-85.75 1248.83,-72.11 1255.33,-48.15 1257.96,-30.95"/>
<polygon fill="#63b8ff" stroke="#63b8ff" points="1261.43,-31.48 1259.12,-21.14 1254.47,-30.66 1261.43,-31.48"/>
</a>
</g>
</g>
<!-- Node4 -->
<g id="Node000004" class="node">
<title>Node4</title>
<g id="a_Node000004"><a xlink:title=" ">
<polygon fill="#e0e0e0" stroke="#999999" points="439.75,-19.25 399.75,-19.25 399.75,0 439.75,0 439.75,-19.25"/>
<text text-anchor="middle" x="419.75" y="-5.75" font-family="Helvetica,sans-Serif" font-size="10.00">string</text>
</a>
</g>
</g>
<!-- Node2&#45;&gt;Node4 -->
<g id="edge3_Node000002_Node000004" class="edge">
<title>Node2&#45;&gt;Node4</title>
<g id="a_edge3_Node000002_Node000004"><a xlink:title=" ">
<path fill="none" stroke="#63b8ff" d="M426.24,-193.5C426.62,-177.13 425.06,-142.28 406.75,-121.75 375.31,-86.49 333.91,-124.4 306.75,-85.75 298.96,-74.66 299.13,-66.46 306.75,-55.25 324.94,-28.51 361.87,-17.79 388.57,-13.5"/>
<polygon fill="#63b8ff" stroke="#63b8ff" points="388.73,-17.01 398.16,-12.19 387.78,-10.08 388.73,-17.01"/>
</a>
</g>
</g>
<!-- Node5 -->
<g id="Node000005" class="node">
<title>Node5</title>
<g id="a_Node000005"><a xlink:title=" ">
<polygon fill="#e0e0e0" stroke="#999999" points="213.62,-19.25 157.88,-19.25 157.88,0 213.62,0 213.62,-19.25"/>
<text text-anchor="middle" x="185.75" y="-5.75" font-family="Helvetica,sans-Serif" font-size="10.00">cinttypes</text>
</a>
</g>
</g>
<!-- Node2&#45;&gt;Node5 -->
<g id="edge4_Node000002_Node000005" class="edge">
<title>Node2&#45;&gt;Node5</title>
<g id="a_edge4_Node000002_Node000005"><a xlink:title=" ">
<path fill="none" stroke="#63b8ff" d="M342.32,-197.62C233.03,-190.37 52.86,-175.1 32.75,-152.25 14.91,-131.98 37.99,-68.73 50.75,-55.25 64.07,-41.18 111.83,-27.58 146.78,-19.17"/>
<polygon fill="#63b8ff" stroke="#63b8ff" points="147.2,-22.66 156.14,-16.97 145.61,-15.85 147.2,-22.66"/>
</a>
</g>
</g>
<!-- Node6 -->
<g id="Node000006" class="node">
<title>Node6</title>
<g id="a_Node000006"><a xlink:title=" ">
<polygon fill="#e0e0e0" stroke="#999999" points="243.62,-146.62 193.88,-146.62 193.88,-127.38 243.62,-127.38 243.62,-146.62"/>
<text text-anchor="middle" x="218.75" y="-133.12" font-family="Helvetica,sans-Serif" font-size="10.00">optional</text>
</a>
</g>
</g>
<!-- Node2&#45;&gt;Node6 -->
<g id="edge5_Node000002_Node000006" class="edge">
<title>Node2&#45;&gt;Node6</title>
<g id="a_edge5_Node000002_Node000006"><a xlink:title=" ">
<path fill="none" stroke="#63b8ff" d="M390.25,-193.46C355.02,-184.19 299.64,-168.82 252.75,-152.25 251.8,-151.91 250.84,-151.57 249.87,-151.21"/>
<polygon fill="#63b8ff" stroke="#63b8ff" points="251.46,-148.07 240.87,-147.68 248.9,-154.59 251.46,-148.07"/>
</a>
</g>
</g>
<!-- Node7 -->
<g id="Node000007" class="node">
<title>Node7</title>
<g id="a_Node000007"><a xlink:href="../../d5/d40/Platform_8hpp.html" target="_top" xlink:title="ArkScript configuration macros.">
<polygon fill="white" stroke="#666666" points="704.12,-19.25 591.38,-19.25 591.38,0 704.12,0 704.12,-19.25"/>
<text text-anchor="middle" x="647.75" y="-5.75" font-family="Helvetica,sans-Serif" font-size="10.00">Ark/Utils/Platform.hpp</text>
</a>
</g>
</g>
<!-- Node2&#45;&gt;Node7 -->
<g id="edge6_Node000002_Node000007" class="edge">
<title>Node2&#45;&gt;Node7</title>
<g id="a_edge6_Node000002_Node000007"><a xlink:title=" ">
<path fill="none" stroke="#63b8ff" d="M441.22,-193.49C471.51,-175.41 539.96,-132.43 588.75,-85.75 607.03,-68.26 624.48,-44.93 635.59,-28.94"/>
<polygon fill="#63b8ff" stroke="#63b8ff" points="638.35,-31.11 641.08,-20.87 632.56,-27.17 638.35,-31.11"/>
</a>
</g>
</g>
<!-- Node8 -->
<g id="Node000008" class="node">
<title>Node8</title>
<g id="a_Node000008"><a xlink:href="../../d8/ddd/Common_8hpp.html" target="_top" xlink:title="Common code for the compiler.">
<polygon fill="white" stroke="#666666" points="176,-146.62 41.5,-146.62 41.5,-127.38 176,-127.38 176,-146.62"/>
<text text-anchor="middle" x="108.75" y="-133.12" font-family="Helvetica,sans-Serif" font-size="10.00">Ark/Compiler/Common.hpp</text>
</a>
</g>
</g>
<!-- Node2&#45;&gt;Node8 -->
<g id="edge7_Node000002_Node000008" class="edge">
<title>Node2&#45;&gt;Node8</title>
<g id="a_edge7_Node000002_Node000008"><a xlink:title=" ">
<path fill="none" stroke="#63b8ff" d="M381,-193.4C324.21,-181.84 226.23,-161.9 164.59,-149.36"/>
<polygon fill="#63b8ff" stroke="#63b8ff" points="165.5,-145.98 155.01,-147.41 164.11,-152.84 165.5,-145.98"/>
</a>
</g>
</g>
<!-- Node14 -->
<g id="Node000014" class="node">
<title>Node14</title>
<g id="a_Node000014"><a xlink:href="../../de/dfd/Value_8hpp.html" target="_top" xlink:title="Default value type handled by the virtual machine.">
<polygon fill="white" stroke="#666666" points="861.12,-146.62 766.38,-146.62 766.38,-127.38 861.12,-127.38 861.12,-146.62"/>
<text text-anchor="middle" x="813.75" y="-133.12" font-family="Helvetica,sans-Serif" font-size="10.00">Ark/VM/Value.hpp</text>
</a>
</g>
</g>
<!-- Node2&#45;&gt;Node14 -->
<g id="edge17_Node000002_Node000014" class="edge">
<title>Node2&#45;&gt;Node14</title>
<g id="a_edge17_Node000002_Node000014"><a xlink:title=" ">
<path fill="none" stroke="#63b8ff" d="M499.96,-193.41C567.49,-184.63 669.76,-170.06 757.75,-152.25 761.55,-151.48 765.48,-150.62 769.42,-149.71"/>
<polygon fill="#63b8ff" stroke="#63b8ff" points="770.04,-153.16 778.94,-147.41 768.4,-146.35 770.04,-153.16"/>
</a>
</g>
</g>
<!-- Node23 -->
<g id="Node000023" class="node">
<title>Node23</title>
<g id="a_Node000023"><a xlink:href="../../d5/d3a/InstLoc_8hpp.html" target="_top" xlink:title=" ">
<polygon fill="white" stroke="#666666" points="397.75,-152.25 261.75,-152.25 261.75,-121.75 397.75,-121.75 397.75,-152.25"/>
<text text-anchor="start" x="269.75" y="-138.75" font-family="Helvetica,sans-Serif" font-size="10.00">Ark/Compiler/Intermediate</text>
<text text-anchor="middle" x="329.75" y="-127.5" font-family="Helvetica,sans-Serif" font-size="10.00">Representation/InstLoc.hpp</text>
</a>
</g>
</g>
<!-- Node2&#45;&gt;Node23 -->
<g id="edge38_Node000002_Node000023" class="edge">
<title>Node2&#45;&gt;Node23</title>
<g id="a_edge38_Node000002_Node000023"><a xlink:title=" ">
<path fill="none" stroke="#63b8ff" d="M412.4,-193.53C399.1,-184.59 378.2,-170.55 360.74,-158.82"/>
<polygon fill="#63b8ff" stroke="#63b8ff" points="362.98,-156.11 352.72,-153.43 359.07,-161.92 362.98,-156.11"/>
</a>
</g>
</g>
<!-- Node8&#45;&gt;Node3 -->
<g id="edge10_Node000008_Node000003" class="edge">
<title>Node8&#45;&gt;Node3</title>
<g id="a_edge10_Node000008_Node000003"><a xlink:title=" ">
<path fill="none" stroke="#63b8ff" d="M151.6,-126.94C162.38,-124.95 173.95,-123.04 184.75,-121.75 334.12,-103.85 720.21,-139.42 860.75,-85.75 880.98,-78.02 878.75,-63.55 898.75,-55.25 1033.4,0.6 1081.23,-44.74 1224.75,-19.25 1225.42,-19.13 1226.1,-19.01 1226.79,-18.88"/>
<polygon fill="#63b8ff" stroke="#63b8ff" points="1227.48,-22.31 1236.52,-16.77 1226.01,-15.46 1227.48,-22.31"/>
</a>
</g>
</g>
<!-- Node8&#45;&gt;Node5 -->
<g id="edge11_Node000008_Node000005" class="edge">
<title>Node8&#45;&gt;Node5</title>
<g id="a_edge11_Node000008_Node000005"><a xlink:title=" ">
<path fill="none" stroke="#63b8ff" d="M123.65,-126.92C136.94,-118.04 155.92,-103.33 166.75,-85.75 177.11,-68.94 181.84,-46.71 183.98,-30.81"/>
<polygon fill="#63b8ff" stroke="#63b8ff" points="187.43,-31.45 185.04,-21.13 180.47,-30.69 187.43,-31.45"/>
</a>
</g>
</g>
<!-- Node9 -->
<g id="Node000009" class="node">
<title>Node9</title>
<g id="a_Node000009"><a xlink:title=" ">
<polygon fill="#e0e0e0" stroke="#999999" points="353.62,-80.12 315.88,-80.12 315.88,-60.88 353.62,-60.88 353.62,-80.12"/>
<text text-anchor="middle" x="334.75" y="-66.62" font-family="Helvetica,sans-Serif" font-size="10.00">array</text>
</a>
</g>
</g>
<!-- Node8&#45;&gt;Node9 -->
<g id="edge8_Node000008_Node000009" class="edge">
<title>Node8&#45;&gt;Node9</title>
<g id="a_edge8_Node000008_Node000009"><a xlink:title=" ">
<path fill="none" stroke="#63b8ff" d="M140.65,-126.9C184.25,-114.45 261.89,-92.3 304.57,-80.11"/>
<polygon fill="#63b8ff" stroke="#63b8ff" points="305.51,-83.48 314.17,-77.37 303.59,-76.75 305.51,-83.48"/>
</a>
</g>
</g>
<!-- Node10 -->
<g id="Node000010" class="node">
<title>Node10</title>
<g id="a_Node000010"><a xlink:title=" ">
<polygon fill="#e0e0e0" stroke="#999999" points="65.5,-19.25 0,-19.25 0,0 65.5,0 65.5,-19.25"/>
<text text-anchor="middle" x="32.75" y="-5.75" font-family="Helvetica,sans-Serif" font-size="10.00">string_view</text>
</a>
</g>
</g>
<!-- Node8&#45;&gt;Node10 -->
<g id="edge9_Node000008_Node000010" class="edge">
<title>Node8&#45;&gt;Node10</title>
<g id="a_edge9_Node000008_Node000010"><a xlink:title=" ">
<path fill="none" stroke="#63b8ff" d="M93.8,-126.95C80.47,-118.1 61.47,-103.4 50.75,-85.75 40.53,-68.93 36.11,-46.7 34.2,-30.8"/>
<polygon fill="#63b8ff" stroke="#63b8ff" points="37.71,-30.76 33.29,-21.13 30.74,-31.41 37.71,-30.76"/>
</a>
</g>
</g>
<!-- Node11 -->
<g id="Node000011" class="node">
<title>Node11</title>
<g id="a_Node000011"><a xlink:href="../../d6/de9/Constants_8hpp.html" target="_top" xlink:title="Constants used by ArkScript.">
<polygon fill="white" stroke="#666666" points="157.62,-80.12 59.88,-80.12 59.88,-60.88 157.62,-60.88 157.62,-80.12"/>
<text text-anchor="middle" x="108.75" y="-66.62" font-family="Helvetica,sans-Serif" font-size="10.00">Ark/Constants.hpp</text>
</a>
</g>
</g>
<!-- Node8&#45;&gt;Node11 -->
<g id="edge12_Node000008_Node000011" class="edge">
<title>Node8&#45;&gt;Node11</title>
<g id="a_edge12_Node000008_Node000011"><a xlink:title=" ">
<path fill="none" stroke="#63b8ff" d="M108.75,-127.03C108.75,-117.98 108.75,-103.7 108.75,-91.88"/>
<polygon fill="#63b8ff" stroke="#63b8ff" points="112.25,-91.91 108.75,-81.91 105.25,-91.91 112.25,-91.91"/>
</a>
</g>
</g>
<!-- Node11&#45;&gt;Node5 -->
<g id="edge15_Node000011_Node000005" class="edge">
<title>Node11&#45;&gt;Node5</title>
<g id="a_edge15_Node000011_Node000005"><a xlink:title=" ">
<path fill="none" stroke="#63b8ff" d="M120.44,-60.56C132.2,-51.57 150.59,-37.51 164.86,-26.6"/>
<polygon fill="#63b8ff" stroke="#63b8ff" points="166.92,-29.42 172.74,-20.57 162.67,-23.86 166.92,-29.42"/>
</a>
</g>
</g>
<!-- Node11&#45;&gt;Node10 -->
<g id="edge13_Node000011_Node000010" class="edge">
<title>Node11&#45;&gt;Node10</title>
<g id="a_edge13_Node000011_Node000010"><a xlink:title=" ">
<path fill="none" stroke="#63b8ff" d="M97.21,-60.56C85.6,-51.57 67.46,-37.51 53.37,-26.6"/>
<polygon fill="#63b8ff" stroke="#63b8ff" points="55.65,-23.94 45.6,-20.58 51.36,-29.47 55.65,-23.94"/>
</a>
</g>
</g>
<!-- Node12 -->
<g id="Node000012" class="node">
<title>Node12</title>
<g id="a_Node000012"><a xlink:title=" ">
<polygon fill="#e0e0e0" stroke="#999999" points="1215.38,-19.25 1176.12,-19.25 1176.12,0 1215.38,0 1215.38,-19.25"/>
<text text-anchor="middle" x="1195.75" y="-5.75" font-family="Helvetica,sans-Serif" font-size="10.00">limits</text>
</a>
</g>
</g>
<!-- Node11&#45;&gt;Node12 -->
<g id="edge14_Node000011_Node000012" class="edge">
<title>Node11&#45;&gt;Node12</title>
<g id="a_edge14_Node000011_Node000012"><a xlink:title=" ">
<path fill="none" stroke="#63b8ff" d="M157.96,-61.19C172.94,-58.94 189.49,-56.71 204.75,-55.25 569.21,-20.32 662.04,-36.64 1027.75,-19.25 1075.43,-16.98 1130.7,-14.1 1164.44,-12.3"/>
<polygon fill="#63b8ff" stroke="#63b8ff" points="1164.53,-15.8 1174.33,-11.78 1164.16,-8.81 1164.53,-15.8"/>
</a>
</g>
</g>
<!-- Node13 -->
<g id="Node000013" class="node">
<title>Node13</title>
<g id="a_Node000013"><a xlink:title=" ">
<polygon fill="#e0e0e0" stroke="#999999" points="132.88,-19.25 84.62,-19.25 84.62,0 132.88,0 132.88,-19.25"/>
<text text-anchor="middle" x="108.75" y="-5.75" font-family="Helvetica,sans-Serif" font-size="10.00">cstddef</text>
</a>
</g>
</g>
<!-- Node11&#45;&gt;Node13 -->
<g id="edge16_Node000011_Node000013" class="edge">
<title>Node11&#45;&gt;Node13</title>
<g id="a_edge16_Node000011_Node000013"><a xlink:title=" ">
<path fill="none" stroke="#63b8ff" d="M108.75,-60.56C108.75,-52.78 108.75,-41.2 108.75,-31.16"/>
<polygon fill="#63b8ff" stroke="#63b8ff" points="112.25,-31.16 108.75,-21.16 105.25,-31.16 112.25,-31.16"/>
</a>
</g>
</g>
<!-- Node14&#45;&gt;Node3 -->
<g id="edge18_Node000014_Node000003" class="edge">
<title>Node14&#45;&gt;Node3</title>
<g id="a_edge18_Node000014_Node000003"><a xlink:title=" ">
<path fill="none" stroke="#63b8ff" d="M861.44,-134.4C952.17,-130.62 1145.67,-118.82 1202.75,-85.75 1224.95,-72.89 1241.32,-47.63 1250.69,-29.97"/>
<polygon fill="#63b8ff" stroke="#63b8ff" points="1253.82,-31.53 1255.15,-21.02 1247.56,-28.41 1253.82,-31.53"/>
</a>
</g>
</g>
<!-- Node14&#45;&gt;Node4 -->
<g id="edge20_Node000014_Node000004" class="edge">
<title>Node14&#45;&gt;Node4</title>
<g id="a_edge20_Node000014_Node000004"><a xlink:title=" ">
<path fill="none" stroke="#63b8ff" d="M781.05,-126.88C773.44,-124.98 765.35,-123.14 757.75,-121.75 687.57,-108.92 492.49,-132.67 438.75,-85.75 423.33,-72.29 419.53,-48.29 418.98,-31.04"/>
<polygon fill="#63b8ff" stroke="#63b8ff" points="422.48,-31.21 419.04,-21.19 415.48,-31.17 422.48,-31.21"/>
</a>
</g>
</g>
<!-- Node14&#45;&gt;Node5 -->
<g id="edge21_Node000014_Node000005" class="edge">
<title>Node14&#45;&gt;Node5</title>
<g id="a_edge21_Node000014_Node000005"><a xlink:title=" ">
<path fill="none" stroke="#63b8ff" d="M781.35,-126.91C773.66,-124.99 765.45,-123.13 757.75,-121.75 608.18,-94.94 562.65,-131.51 417.75,-85.75 391.1,-77.33 388.74,-65.53 362.75,-55.25 317.01,-37.16 261.68,-24.6 225.19,-17.52"/>
<polygon fill="#63b8ff" stroke="#63b8ff" points="226.01,-14.11 215.53,-15.69 224.71,-20.99 226.01,-14.11"/>
</a>
</g>
</g>
<!-- Node14&#45;&gt;Node7 -->
<g id="edge37_Node000014_Node000007" class="edge">
<title>Node14&#45;&gt;Node7</title>
<g id="a_edge37_Node000014_Node000007"><a xlink:title=" ">
<path fill="none" stroke="#63b8ff" d="M783.16,-126.92C759.46,-118.82 726.73,-105.22 702.75,-85.75 683.4,-70.04 667.4,-45.99 657.74,-29.36"/>
<polygon fill="#63b8ff" stroke="#63b8ff" points="661,-28.01 653.07,-20.98 654.88,-31.42 661,-28.01"/>
</a>
</g>
</g>
<!-- Node14&#45;&gt;Node9 -->
<g id="edge22_Node000014_Node000009" class="edge">
<title>Node14&#45;&gt;Node9</title>
<g id="a_edge22_Node000014_Node000009"><a xlink:title=" ">
<path fill="none" stroke="#63b8ff" d="M781.66,-126.91C773.88,-124.97 765.56,-123.1 757.75,-121.75 586.21,-92.2 536.42,-128.79 367.75,-85.75 366.36,-85.39 364.94,-84.99 363.53,-84.54"/>
<polygon fill="#63b8ff" stroke="#63b8ff" points="364.9,-81.32 354.31,-81.08 362.44,-87.87 364.9,-81.32"/>
</a>
</g>
</g>
<!-- Node15 -->
<g id="Node000015" class="node">
<title>Node15</title>
<g id="a_Node000015"><a xlink:title=" ">
<polygon fill="#e0e0e0" stroke="#999999" points="953.38,-80.12 908.12,-80.12 908.12,-60.88 953.38,-60.88 953.38,-80.12"/>
<text text-anchor="middle" x="930.75" y="-66.62" font-family="Helvetica,sans-Serif" font-size="10.00">variant</text>
</a>
</g>
</g>
<!-- Node14&#45;&gt;Node15 -->
<g id="edge19_Node000014_Node000015" class="edge">
<title>Node14&#45;&gt;Node15</title>
<g id="a_edge19_Node000014_Node000015"><a xlink:title=" ">
<path fill="none" stroke="#63b8ff" d="M830.27,-126.9C849.52,-116.28 881.58,-98.6 904.31,-86.07"/>
<polygon fill="#63b8ff" stroke="#63b8ff" points="905.93,-89.18 912.99,-81.29 902.55,-83.05 905.93,-89.18"/>
</a>
</g>
</g>
<!-- Node16 -->
<g id="Node000016" class="node">
<title>Node16</title>
<g id="a_Node000016"><a xlink:title=" ">
<polygon fill="#e0e0e0" stroke="#999999" points="556.38,-19.25 505.12,-19.25 505.12,0 556.38,0 556.38,-19.25"/>
<text text-anchor="middle" x="530.75" y="-5.75" font-family="Helvetica,sans-Serif" font-size="10.00">memory</text>
</a>
</g>
</g>
<!-- Node14&#45;&gt;Node16 -->
<g id="edge23_Node000014_Node000016" class="edge">
<title>Node14&#45;&gt;Node16</title>
<g id="a_edge23_Node000014_Node000016"><a xlink:title=" ">
<path fill="none" stroke="#63b8ff" d="M783.65,-126.92C754.35,-117.73 708.79,-102.52 670.75,-85.75 628.9,-67.3 582.53,-41.23 555.05,-25.16"/>
<polygon fill="#63b8ff" stroke="#63b8ff" points="557.19,-22.35 546.8,-20.29 553.63,-28.38 557.19,-22.35"/>
</a>
</g>
</g>
<!-- Node17 -->
<g id="Node000017" class="node">
<title>Node17</title>
<g id="a_Node000017"><a xlink:title=" ">
<polygon fill="#e0e0e0" stroke="#999999" points="1033.62,-80.12 971.88,-80.12 971.88,-60.88 1033.62,-60.88 1033.62,-80.12"/>
<text text-anchor="middle" x="1002.75" y="-66.62" font-family="Helvetica,sans-Serif" font-size="10.00">type_traits</text>
</a>
</g>
</g>
<!-- Node14&#45;&gt;Node17 -->
<g id="edge24_Node000014_Node000017" class="edge">
<title>Node14&#45;&gt;Node17</title>
<g id="a_edge24_Node000014_Node000017"><a xlink:title=" ">
<path fill="none" stroke="#63b8ff" d="M841.26,-126.88C871.2,-116.91 920.45,-100.42 962.75,-85.75 964.08,-85.29 965.44,-84.82 966.81,-84.34"/>
<polygon fill="#63b8ff" stroke="#63b8ff" points="967.68,-87.74 975.95,-81.11 965.36,-81.14 967.68,-87.74"/>
</a>
</g>
</g>
<!-- Node18 -->
<g id="Node000018" class="node">
<title>Node18</title>
<g id="a_Node000018"><a xlink:href="../../dc/dd5/Closure_8hpp.html" target="_top" xlink:title="Subtype of the value type, handling closures.">
<polygon fill="white" stroke="#666666" points="579.5,-80.12 448,-80.12 448,-60.88 579.5,-60.88 579.5,-80.12"/>
<text text-anchor="middle" x="513.75" y="-66.62" font-family="Helvetica,sans-Serif" font-size="10.00">Ark/VM/Value/Closure.hpp</text>
</a>
</g>
</g>
<!-- Node14&#45;&gt;Node18 -->
<g id="edge25_Node000014_Node000018" class="edge">
<title>Node14&#45;&gt;Node18</title>
<g id="a_edge25_Node000014_Node000018"><a xlink:title=" ">
<path fill="none" stroke="#63b8ff" d="M779.16,-126.93C772.09,-125.15 764.69,-123.35 757.75,-121.75 694.6,-107.22 621.79,-92.49 572.26,-82.76"/>
<polygon fill="#63b8ff" stroke="#63b8ff" points="573.09,-79.36 562.61,-80.88 571.75,-86.23 573.09,-79.36"/>
</a>
</g>
</g>
<!-- Node19 -->
<g id="Node000019" class="node">
<title>Node19</title>
<g id="a_Node000019"><a xlink:href="../../dc/d3d/UserType_8hpp.html" target="_top" xlink:title="Subtype of the value, capable of handling any C++ type.">
<polygon fill="white" stroke="#666666" points="851.62,-80.12 711.88,-80.12 711.88,-60.88 851.62,-60.88 851.62,-80.12"/>
<text text-anchor="middle" x="781.75" y="-66.62" font-family="Helvetica,sans-Serif" font-size="10.00">Ark/VM/Value/UserType.hpp</text>
</a>
</g>
</g>
<!-- Node14&#45;&gt;Node19 -->
<g id="edge29_Node000014_Node000019" class="edge">
<title>Node14&#45;&gt;Node19</title>
<g id="a_edge29_Node000014_Node000019"><a xlink:title=" ">
<path fill="none" stroke="#63b8ff" d="M809.3,-127.03C804.62,-117.6 797.11,-102.47 791.12,-90.38"/>
<polygon fill="#63b8ff" stroke="#63b8ff" points="794.41,-89.15 786.83,-81.75 788.14,-92.26 794.41,-89.15"/>
</a>
</g>
</g>
<!-- Node22 -->
<g id="Node000022" class="node">
<title>Node22</title>
<g id="a_Node000022"><a xlink:href="../../da/dcf/Procedure_8hpp.html" target="_top" xlink:title="Wrapper object for user&#45;defined functions.">
<polygon fill="white" stroke="#666666" points="1193.75,-80.12 1051.75,-80.12 1051.75,-60.88 1193.75,-60.88 1193.75,-80.12"/>
<text text-anchor="middle" x="1122.75" y="-66.62" font-family="Helvetica,sans-Serif" font-size="10.00">Ark/VM/Value/Procedure.hpp</text>
</a>
</g>
</g>
<!-- Node14&#45;&gt;Node22 -->
<g id="edge34_Node000014_Node000022" class="edge">
<title>Node14&#45;&gt;Node22</title>
<g id="a_edge34_Node000014_Node000022"><a xlink:title=" ">
<path fill="none" stroke="#63b8ff" d="M857.37,-126.9C912.69,-115.35 1008.11,-95.43 1068.2,-82.89"/>
<polygon fill="#63b8ff" stroke="#63b8ff" points="1068.8,-86.34 1077.87,-80.87 1067.37,-79.48 1068.8,-86.34"/>
</a>
</g>
</g>
<!-- Node18&#45;&gt;Node4 -->
<g id="edge27_Node000018_Node000004" class="edge">
<title>Node18&#45;&gt;Node4</title>
<g id="a_edge27_Node000018_Node000004"><a xlink:title=" ">
<path fill="none" stroke="#63b8ff" d="M499.47,-60.56C484.7,-51.31 461.38,-36.7 443.76,-25.67"/>
<polygon fill="#63b8ff" stroke="#63b8ff" points="445.78,-22.8 435.44,-20.45 442.06,-28.73 445.78,-22.8"/>
</a>
</g>
</g>
<!-- Node18&#45;&gt;Node7 -->
<g id="edge28_Node000018_Node000007" class="edge">
<title>Node18&#45;&gt;Node7</title>
<g id="a_edge28_Node000018_Node000007"><a xlink:title=" ">
<path fill="none" stroke="#63b8ff" d="M534.39,-60.43C556.39,-50.76 591.47,-35.35 616.78,-24.23"/>
<polygon fill="#63b8ff" stroke="#63b8ff" points="618.17,-27.44 625.92,-20.22 615.35,-21.04 618.17,-27.44"/>
</a>
</g>
</g>
<!-- Node18&#45;&gt;Node16 -->
<g id="edge26_Node000018_Node000016" class="edge">
<title>Node18&#45;&gt;Node16</title>
<g id="a_edge26_Node000018_Node000016"><a xlink:title=" ">
<path fill="none" stroke="#63b8ff" d="M516.33,-60.56C518.63,-52.6 522.07,-40.69 525.01,-30.49"/>
<polygon fill="#63b8ff" stroke="#63b8ff" points="528.31,-31.68 527.72,-21.11 521.59,-29.74 528.31,-31.68"/>
</a>
</g>
</g>
<!-- Node19&#45;&gt;Node5 -->
<g id="edge31_Node000019_Node000005" class="edge">
<title>Node19&#45;&gt;Node5</title>
<g id="a_edge31_Node000019_Node000005"><a xlink:title=" ">
<path fill="none" stroke="#63b8ff" d="M711.63,-62.57C585.52,-50.12 324.35,-24.32 225.14,-14.52"/>
<polygon fill="#63b8ff" stroke="#63b8ff" points="225.67,-11.05 215.37,-13.55 224.98,-18.02 225.67,-11.05"/>
</a>
</g>
</g>
<!-- Node19&#45;&gt;Node7 -->
<g id="edge33_Node000019_Node000007" class="edge">
<title>Node19&#45;&gt;Node7</title>
<g id="a_edge33_Node000019_Node000007"><a xlink:title=" ">
<path fill="none" stroke="#63b8ff" d="M761.11,-60.43C739.11,-50.76 704.03,-35.35 678.72,-24.23"/>
<polygon fill="#63b8ff" stroke="#63b8ff" points="680.15,-21.04 669.58,-20.22 677.33,-27.44 680.15,-21.04"/>
</a>
</g>
</g>
<!-- Node20 -->
<g id="Node000020" class="node">
<title>Node20</title>
<g id="a_Node000020"><a xlink:title=" ">
<polygon fill="#e0e0e0" stroke="#999999" points="808.5,-19.25 755,-19.25 755,0 808.5,0 808.5,-19.25"/>
<text text-anchor="middle" x="781.75" y="-5.75" font-family="Helvetica,sans-Serif" font-size="10.00">iostream</text>
</a>
</g>
</g>
<!-- Node19&#45;&gt;Node20 -->
<g id="edge30_Node000019_Node000020" class="edge">
<title>Node19&#45;&gt;Node20</title>
<g id="a_edge30_Node000019_Node000020"><a xlink:title=" ">
<path fill="none" stroke="#63b8ff" d="M781.75,-60.56C781.75,-52.78 781.75,-41.2 781.75,-31.16"/>
<polygon fill="#63b8ff" stroke="#63b8ff" points="785.25,-31.16 781.75,-21.16 778.25,-31.16 785.25,-31.16"/>
</a>
</g>
</g>
<!-- Node21 -->
<g id="Node000021" class="node">
<title>Node21</title>
<g id="a_Node000021"><a xlink:title=" ">
<polygon fill="#e0e0e0" stroke="#999999" points="1018.75,-19.25 960.75,-19.25 960.75,0 1018.75,0 1018.75,-19.25"/>
<text text-anchor="middle" x="989.75" y="-5.75" font-family="Helvetica,sans-Serif" font-size="10.00">functional</text>
</a>
</g>
</g>
<!-- Node19&#45;&gt;Node21 -->
<g id="edge32_Node000019_Node000021" class="edge">
<title>Node19&#45;&gt;Node21</title>
<g id="a_edge32_Node000019_Node000021"><a xlink:title=" ">
<path fill="none" stroke="#63b8ff" d="M813.79,-60.43C850.28,-50.1 909.93,-33.22 949.52,-22.01"/>
<polygon fill="#63b8ff" stroke="#63b8ff" points="950.24,-25.45 958.91,-19.36 948.33,-18.71 950.24,-25.45"/>
</a>
</g>
</g>
<!-- Node22&#45;&gt;Node3 -->
<g id="edge36_Node000022_Node000003" class="edge">
<title>Node22&#45;&gt;Node3</title>
<g id="a_edge36_Node000022_Node000003"><a xlink:title=" ">
<path fill="none" stroke="#63b8ff" d="M1143.86,-60.43C1166.45,-50.72 1202.53,-35.21 1228.44,-24.08"/>
<polygon fill="#63b8ff" stroke="#63b8ff" points="1229.65,-27.37 1237.45,-20.21 1226.88,-20.94 1229.65,-27.37"/>
</a>
</g>
</g>
<!-- Node22&#45;&gt;Node21 -->
<g id="edge35_Node000022_Node000021" class="edge">
<title>Node22&#45;&gt;Node21</title>
<g id="a_edge35_Node000022_Node000021"><a xlink:title=" ">
<path fill="none" stroke="#63b8ff" d="M1102.26,-60.43C1080.43,-50.76 1045.61,-35.35 1020.49,-24.23"/>
<polygon fill="#63b8ff" stroke="#63b8ff" points="1021.99,-21.07 1011.43,-20.22 1019.16,-27.47 1021.99,-21.07"/>
</a>
</g>
</g>
<!-- Node24 -->
<g id="Node000024" class="node">
<title>Node24</title>
<g id="a_Node000024"><a xlink:title=" ">
<polygon fill="#e0e0e0" stroke="#999999" points="259.38,-80.12 214.12,-80.12 214.12,-60.88 259.38,-60.88 259.38,-80.12"/>
<text text-anchor="middle" x="236.75" y="-66.62" font-family="Helvetica,sans-Serif" font-size="10.00">cstdint</text>
</a>
</g>
</g>
<!-- Node23&#45;&gt;Node24 -->
<g id="edge39_Node000023_Node000024" class="edge">
<title>Node23&#45;&gt;Node24</title>
<g id="a_edge39_Node000023_Node000024"><a xlink:title=" ">
<path fill="none" stroke="#63b8ff" d="M308.65,-121.36C293.79,-111.06 273.94,-97.29 258.86,-86.83"/>
<polygon fill="#63b8ff" stroke="#63b8ff" points="261.2,-84.2 250.98,-81.37 257.21,-89.95 261.2,-84.2"/>
</a>
</g>
</g>
<!-- Node25&#45;&gt;Node9 -->
<g id="edge41_Node000025_Node000009" class="edge">
<title>Node25&#45;&gt;Node9</title>
<g id="a_edge41_Node000025_Node000009"><a xlink:title=" ">
<path fill="none" stroke="#63b8ff" d="M602.44,-129.17C539.32,-122.08 446.27,-108.73 367.75,-85.75 366.58,-85.41 365.4,-85.04 364.21,-84.64"/>
<polygon fill="#63b8ff" stroke="#63b8ff" points="365.66,-81.44 355.06,-81.14 363.16,-87.98 365.66,-81.44"/>
</a>
</g>
</g>
<!-- Node26&#45;&gt;Node3 -->
<g id="edge43_Node000026_Node000003" class="edge">
<title>Node26&#45;&gt;Node3</title>
<g id="a_edge43_Node000026_Node000003"><a xlink:title=" ">
<path fill="none" stroke="#63b8ff" d="M1145.57,-193.39C1192.42,-182.01 1265.94,-162.76 1273.75,-152.25 1300.69,-116.01 1282.03,-59.34 1269.15,-29.88"/>
<polygon fill="#63b8ff" stroke="#63b8ff" points="1272.45,-28.68 1265.08,-21.07 1266.1,-31.61 1272.45,-28.68"/>
</a>
</g>
</g>
<!-- Node26&#45;&gt;Node14 -->
<g id="edge44_Node000026_Node000014" class="edge">
<title>Node26&#45;&gt;Node14</title>
<g id="a_edge44_Node000026_Node000014"><a xlink:title=" ">
<path fill="none" stroke="#63b8ff" d="M1065.39,-193.4C1013.04,-181.87 922.83,-162.01 865.83,-149.47"/>
<polygon fill="#63b8ff" stroke="#63b8ff" points="866.89,-146.12 856.38,-147.38 865.39,-152.95 866.89,-146.12"/>
</a>
</g>
</g>
<!-- Node29 -->
<g id="Node000029" class="node">
<title>Node29</title>
<g id="a_Node000029"><a xlink:title=" ">
<polygon fill="#e0e0e0" stroke="#999999" points="1389.38,-146.62 1326.12,-146.62 1326.12,-127.38 1389.38,-127.38 1389.38,-146.62"/>
<text text-anchor="middle" x="1357.75" y="-133.12" font-family="Helvetica,sans-Serif" font-size="10.00">picosha2.h</text>
</a>
</g>
</g>
<!-- Node28&#45;&gt;Node29 -->
<g id="edge47_Node000028_Node000029" class="edge">
<title>Node28&#45;&gt;Node29</title>
<g id="a_edge47_Node000028_Node000029"><a xlink:title=" ">
<path fill="none" stroke="#63b8ff" d="M1340.53,-193.53C1343.4,-184.29 1347.96,-169.58 1351.66,-157.63"/>
<polygon fill="#63b8ff" stroke="#63b8ff" points="1354.93,-158.93 1354.54,-148.34 1348.24,-156.85 1354.93,-158.93"/>
</a>
</g>
</g>
<!-- Node30&#45;&gt;Node3 -->
<g id="edge52_Node000030_Node000003" class="edge">
<title>Node30&#45;&gt;Node3</title>
<g id="a_edge52_Node000030_Node000003"><a xlink:title=" ">
<path fill="none" stroke="#63b8ff" d="M1431.55,-54.8C1387.68,-43.52 1328.69,-28.35 1292.49,-19.04"/>
<polygon fill="#63b8ff" stroke="#63b8ff" points="1293.61,-15.72 1283.05,-16.62 1291.86,-22.5 1293.61,-15.72"/>
</a>
</g>
</g>
<!-- Node30&#45;&gt;Node12 -->
<g id="edge51_Node000030_Node000012" class="edge">
<title>Node30&#45;&gt;Node12</title>
<g id="a_edge51_Node000030_Node000012"><a xlink:title=" ">
<path fill="none" stroke="#63b8ff" d="M1423.88,-57.97C1371.36,-48.38 1295.57,-33.97 1229.75,-19.25 1228.76,-19.03 1227.76,-18.8 1226.75,-18.57"/>
<polygon fill="#63b8ff" stroke="#63b8ff" points="1227.85,-15.23 1217.31,-16.28 1226.21,-22.04 1227.85,-15.23"/>
</a>
</g>
</g>
<!-- Node31 -->
<g id="Node000031" class="node">
<title>Node31</title>
<g id="a_Node000031"><a xlink:title=" ">
<polygon fill="#e0e0e0" stroke="#999999" points="1566,-19.25 1521.5,-19.25 1521.5,0 1566,0 1566,-19.25"/>
<text text-anchor="middle" x="1543.75" y="-5.75" font-family="Helvetica,sans-Serif" font-size="10.00">climits</text>
</a>
</g>
</g>
<!-- Node30&#45;&gt;Node31 -->
<g id="edge49_Node000030_Node000031" class="edge">
<title>Node30&#45;&gt;Node31</title>
<g id="a_edge49_Node000030_Node000031"><a xlink:title=" ">
<path fill="none" stroke="#63b8ff" d="M1502.35,-54.95C1509.99,-46.76 1519.59,-36.48 1527.62,-27.89"/>
<polygon fill="#63b8ff" stroke="#63b8ff" points="1529.97,-30.5 1534.24,-20.81 1524.85,-25.73 1529.97,-30.5"/>
</a>
</g>
</g>
<!-- Node32 -->
<g id="Node000032" class="node">
<title>Node32</title>
<g id="a_Node000032"><a xlink:title=" ">
<polygon fill="#e0e0e0" stroke="#999999" points="1456.25,-19.25 1413.25,-19.25 1413.25,0 1456.25,0 1456.25,-19.25"/>
<text text-anchor="middle" x="1434.75" y="-5.75" font-family="Helvetica,sans-Serif" font-size="10.00">cmath</text>
</a>
</g>
</g>
<!-- Node30&#45;&gt;Node32 -->
<g id="edge50_Node000030_Node000032" class="edge">
<title>Node30&#45;&gt;Node32</title>
<g id="a_edge50_Node000030_Node000032"><a xlink:title=" ">
<path fill="none" stroke="#63b8ff" d="M1475.4,-54.95C1467.97,-46.84 1458.67,-36.7 1450.84,-28.16"/>
<polygon fill="#63b8ff" stroke="#63b8ff" points="1453.44,-25.82 1444.1,-20.82 1448.28,-30.55 1453.44,-25.82"/>
</a>
</g>
</g>
<!-- Node33 -->
<g id="Node000033" class="node">
<title>Node33</title>
<g id="a_Node000033"><a xlink:title=" ">
<polygon fill="#e0e0e0" stroke="#999999" points="1503.15,-19.25 1474.35,-19.25 1474.35,0 1503.15,0 1503.15,-19.25"/>
<text text-anchor="middle" x="1488.75" y="-5.75" font-family="Helvetica,sans-Serif" font-size="10.00">bit</text>
</a>
</g>
</g>
<!-- Node30&#45;&gt;Node33 -->
<g id="edge53_Node000030_Node000033" class="edge">
<title>Node30&#45;&gt;Node33</title>
<g id="a_edge53_Node000030_Node000033"><a xlink:title=" ">
<path fill="none" stroke="#63b8ff" d="M1488.75,-54.95C1488.75,-47.71 1488.75,-38.84 1488.75,-30.94"/>
<polygon fill="#63b8ff" stroke="#63b8ff" points="1492.25,-31.21 1488.75,-21.21 1485.25,-31.21 1492.25,-31.21"/>
</a>
</g>
</g>
<!-- Node34&#45;&gt;Node3 -->
<g id="edge56_Node000034_Node000003" class="edge">
<title>Node34&#45;&gt;Node3</title>
<g id="a_edge56_Node000034_Node000003"><a xlink:title=" ">
<path fill="none" stroke="#63b8ff" d="M1491.47,-187.76C1445.28,-152.45 1328.57,-63.24 1280.72,-26.65"/>
<polygon fill="#63b8ff" stroke="#63b8ff" points="1282.87,-23.89 1272.8,-20.6 1278.62,-29.46 1282.87,-23.89"/>
</a>
</g>
</g>
<!-- Node35 -->
<g id="Node000035" class="node">
<title>Node35</title>
<g id="a_Node000035"><a xlink:title=" ">
<polygon fill="#e0e0e0" stroke="#999999" points="1525.25,-146.62 1488.25,-146.62 1488.25,-127.38 1525.25,-127.38 1525.25,-146.62"/>
<text text-anchor="middle" x="1506.75" y="-133.12" font-family="Helvetica,sans-Serif" font-size="10.00">span</text>
</a>
</g>
</g>
<!-- Node34&#45;&gt;Node35 -->
<g id="edge55_Node000034_Node000035" class="edge">
<title>Node34&#45;&gt;Node35</title>
<g id="a_edge55_Node000034_Node000035"><a xlink:title=" ">
<path fill="none" stroke="#63b8ff" d="M1509.84,-187.86C1509.3,-179.08 1508.6,-167.77 1508,-158.15"/>
<polygon fill="#63b8ff" stroke="#63b8ff" points="1511.5,-158.1 1507.39,-148.33 1504.52,-158.53 1511.5,-158.1"/>
</a>
</g>
</g>
<!-- Node36 -->
<g id="Node000036" class="node">
<title>Node36</title>
<g id="a_Node000036"><a xlink:title=" ">
<polygon fill="#e0e0e0" stroke="#999999" points="1598.62,-146.62 1542.88,-146.62 1542.88,-127.38 1598.62,-127.38 1598.62,-146.62"/>
<text text-anchor="middle" x="1570.75" y="-133.12" font-family="Helvetica,sans-Serif" font-size="10.00">concepts</text>
</a>
</g>
</g>
<!-- Node34&#45;&gt;Node36 -->
<g id="edge57_Node000034_Node000036" class="edge">
<title>Node34&#45;&gt;Node36</title>
<g id="a_edge57_Node000034_Node000036"><a xlink:title=" ">
<path fill="none" stroke="#63b8ff" d="M1524.36,-187.86C1533.46,-178.09 1545.45,-165.2 1554.96,-154.98"/>
<polygon fill="#63b8ff" stroke="#63b8ff" points="1557.26,-157.64 1561.51,-147.93 1552.14,-152.87 1557.26,-157.64"/>
</a>
</g>
</g>
</g>
</svg>
