<?xml version="1.0" encoding="UTF-8" standalone="no"?>
<!DOCTYPE svg PUBLIC "-//W3C//DTD SVG 1.1//EN"
 "http://www.w3.org/Graphics/SVG/1.1/DTD/svg11.dtd">
<!-- Generated by graphviz version 12.2.0 (20241103.1931)
 -->
<!-- Title: /Users/fola/Documents/ArkScript/Ark/src/arkreactor/VM/Plugin.cpp Pages: 1 -->
<svg width="363pt" height="160pt"
 viewBox="0.00 0.00 362.50 160.25" xmlns="http://www.w3.org/2000/svg" xmlns:xlink="http://www.w3.org/1999/xlink">

<svg id="main" version="1.1" xmlns="http://www.w3.org/2000/svg" xmlns:xlink="http://www.w3.org/1999/xlink" xml:space="preserve">

<style type="text/css"><![CDATA[
.node, .edge {opacity: 0.7;}
.node.selected, .edge.selected {opacity: 1;}
.edge:hover path { stroke: red; }
.edge:hover polygon { stroke: red; fill: red; }
]]></style>
<script type="application/ecmascript" xlink:href="../../svg.min.js"/>
<svg id="graph" class="graph">
<g id="graph0" class="graph" transform="scale(1 1) rotate(0) translate(4 156.25)">
<title>/Users/fola/Documents/ArkScript/Ark/src/arkreactor/VM/Plugin.cpp</title>
<!-- Node1 -->
<g id="Node000001" class="node">
<title>Node1</title>
<g id="a_Node000001"><a xlink:title=" ">
<polygon fill="#999999" stroke="#666666" points="328,-152.25 187.5,-152.25 187.5,-110.5 328,-110.5 328,-152.25"/>
<text text-anchor="start" x="195.5" y="-138.75" font-family="Helvetica,sans-Serif" font-size="10.00">/Users/fola/Documents</text>
<text text-anchor="start" x="195.5" y="-127.5" font-family="Helvetica,sans-Serif" font-size="10.00">/ArkScript/Ark/src/arkreactor</text>
<text text-anchor="middle" x="257.75" y="-116.25" font-family="Helvetica,sans-Serif" font-size="10.00">/VM/Plugin.cpp</text>
</a>
</g>
</g>
<!-- Node2 -->
<g id="Node000002" class="node">
<title>Node2</title>
<g id="a_Node000002"><a xlink:href="../../db/d0e/Plugin_8hpp.html" target="_top" xlink:title="Loads .dll/.so/.dynlib files.">
<polygon fill="white" stroke="#666666" points="213.62,-74.5 115.88,-74.5 115.88,-55.25 213.62,-55.25 213.62,-74.5"/>
<text text-anchor="middle" x="164.75" y="-61" font-family="Helvetica,sans-Serif" font-size="10.00">Ark/VM/Plugin.hpp</text>
</a>
</g>
</g>
<!-- Node1&#45;&gt;Node2 -->
<g id="edge1_Node000001_Node000002" class="edge">
<title>Node1&#45;&gt;Node2</title>
<g id="a_edge1_Node000001_Node000002"><a xlink:title=" ">
<path fill="none" stroke="#63b8ff" d="M228.58,-110.14C215.13,-100.82 199.42,-89.92 186.95,-81.27"/>
<polygon fill="#63b8ff" stroke="#63b8ff" points="189.21,-78.58 179,-75.76 185.22,-84.33 189.21,-78.58"/>
</a>
</g>
</g>
<!-- Node7 -->
<g id="Node000007" class="node">
<title>Node7</title>
<g id="a_Node000007"><a xlink:title=" ">
<polygon fill="#e0e0e0" stroke="#999999" points="283.38,-74.5 232.12,-74.5 232.12,-55.25 283.38,-55.25 283.38,-74.5"/>
<text text-anchor="middle" x="257.75" y="-61" font-family="Helvetica,sans-Serif" font-size="10.00">sstream</text>
</a>
</g>
</g>
<!-- Node1&#45;&gt;Node7 -->
<g id="edge6_Node000001_Node000007" class="edge">
<title>Node1&#45;&gt;Node7</title>
<g id="a_edge6_Node000001_Node000007"><a xlink:title=" ">
<path fill="none" stroke="#63b8ff" d="M257.75,-110.32C257.75,-102.65 257.75,-93.89 257.75,-86.2"/>
<polygon fill="#63b8ff" stroke="#63b8ff" points="261.25,-86.46 257.75,-76.46 254.25,-86.46 261.25,-86.46"/>
</a>
</g>
</g>
<!-- Node8 -->
<g id="Node000008" class="node">
<title>Node8</title>
<g id="a_Node000008"><a xlink:title=" ">
<polygon fill="#e0e0e0" stroke="#999999" points="354.5,-74.5 301,-74.5 301,-55.25 354.5,-55.25 354.5,-74.5"/>
<text text-anchor="middle" x="327.75" y="-61" font-family="Helvetica,sans-Serif" font-size="10.00">iostream</text>
</a>
</g>
</g>
<!-- Node1&#45;&gt;Node8 -->
<g id="edge7_Node000001_Node000008" class="edge">
<title>Node1&#45;&gt;Node8</title>
<g id="a_edge7_Node000001_Node000008"><a xlink:title=" ">
<path fill="none" stroke="#63b8ff" d="M279.51,-110.32C289.15,-101.44 300.35,-91.12 309.53,-82.66"/>
<polygon fill="#63b8ff" stroke="#63b8ff" points="311.81,-85.32 316.79,-75.97 307.07,-80.17 311.81,-85.32"/>
</a>
</g>
</g>
<!-- Node3 -->
<g id="Node000003" class="node">
<title>Node3</title>
<g id="a_Node000003"><a xlink:href="../../d5/d40/Platform_8hpp.html" target="_top" xlink:title="ArkScript configuration macros.">
<polygon fill="white" stroke="#666666" points="89.5,-19.25 0,-19.25 0,0 89.5,0 89.5,-19.25"/>
<text text-anchor="middle" x="44.75" y="-5.75" font-family="Helvetica,sans-Serif" font-size="10.00">Ark/Platform.hpp</text>
</a>
</g>
</g>
<!-- Node2&#45;&gt;Node3 -->
<g id="edge2_Node000002_Node000003" class="edge">
<title>Node2&#45;&gt;Node3</title>
<g id="a_edge2_Node000002_Node000003"><a xlink:title=" ">
<path fill="none" stroke="#63b8ff" d="M144.39,-54.84C125.52,-46.47 97.16,-33.88 75.52,-24.28"/>
<polygon fill="#63b8ff" stroke="#63b8ff" points="77.15,-21.17 66.59,-20.32 74.31,-27.57 77.15,-21.17"/>
</a>
</g>
</g>
<!-- Node4 -->
<g id="Node000004" class="node">
<title>Node4</title>
<g id="a_Node000004"><a xlink:title=" ">
<polygon fill="#e0e0e0" stroke="#999999" points="147.75,-19.25 107.75,-19.25 107.75,0 147.75,0 147.75,-19.25"/>
<text text-anchor="middle" x="127.75" y="-5.75" font-family="Helvetica,sans-Serif" font-size="10.00">string</text>
</a>
</g>
</g>
<!-- Node2&#45;&gt;Node4 -->
<g id="edge3_Node000002_Node000004" class="edge">
<title>Node2&#45;&gt;Node4</title>
<g id="a_edge3_Node000002_Node000004"><a xlink:title=" ">
<path fill="none" stroke="#63b8ff" d="M158.64,-55.08C153.69,-47.96 146.55,-37.68 140.38,-28.8"/>
<polygon fill="#63b8ff" stroke="#63b8ff" points="143.44,-27.07 134.86,-20.85 137.69,-31.06 143.44,-27.07"/>
</a>
</g>
</g>
<!-- Node5 -->
<g id="Node000005" class="node">
<title>Node5</title>
<g id="a_Node000005"><a xlink:title=" ">
<polygon fill="#e0e0e0" stroke="#999999" points="239.25,-19.25 166.25,-19.25 166.25,0 239.25,0 239.25,-19.25"/>
<text text-anchor="middle" x="202.75" y="-5.75" font-family="Helvetica,sans-Serif" font-size="10.00">system_error</text>
</a>
</g>
</g>
<!-- Node2&#45;&gt;Node5 -->
<g id="edge4_Node000002_Node000005" class="edge">
<title>Node2&#45;&gt;Node5</title>
<g id="a_edge4_Node000002_Node000005"><a xlink:title=" ">
<path fill="none" stroke="#63b8ff" d="M171.02,-55.08C176.11,-47.96 183.45,-37.68 189.78,-28.8"/>
<polygon fill="#63b8ff" stroke="#63b8ff" points="192.5,-31.01 195.46,-20.84 186.8,-26.95 192.5,-31.01"/>
</a>
</g>
</g>
<!-- Node6 -->
<g id="Node000006" class="node">
<title>Node6</title>
<g id="a_Node000006"><a xlink:title=" ">
<polygon fill="#e0e0e0" stroke="#999999" points="317.88,-19.25 257.62,-19.25 257.62,0 317.88,0 317.88,-19.25"/>
<text text-anchor="middle" x="287.75" y="-5.75" font-family="Helvetica,sans-Serif" font-size="10.00">fmt/core.h</text>
</a>
</g>
</g>
<!-- Node2&#45;&gt;Node6 -->
<g id="edge5_Node000002_Node000006" class="edge">
<title>Node2&#45;&gt;Node6</title>
<g id="a_edge5_Node000002_Node000006"><a xlink:title=" ">
<path fill="none" stroke="#63b8ff" d="M185.62,-54.84C205.05,-46.43 234.29,-33.77 256.51,-24.15"/>
<polygon fill="#63b8ff" stroke="#63b8ff" points="257.61,-27.49 265.39,-20.3 254.83,-21.06 257.61,-27.49"/>
</a>
</g>
</g>
</g>
</svg>
</svg>

<style type='text/css'>
<![CDATA[
[data-mouse-over-selected='false'] { opacity: 0.7; }
[data-mouse-over-selected='true']  { opacity: 1.0; }
]]>
</style>
<script type="application/ecmascript"><![CDATA[
document.addEventListener('DOMContentLoaded', (event) => {
  highlightEdges();
  highlightAdjacentNodes();
});
]]></script>
</svg>
