<?xml version="1.0" encoding="UTF-8" standalone="no"?>
<!DOCTYPE svg PUBLIC "-//W3C//DTD SVG 1.1//EN"
 "http://www.w3.org/Graphics/SVG/1.1/DTD/svg11.dtd">
<!-- Generated by graphviz version 12.2.0 (20241103.1931)
 -->
<!-- Title: Ark::types::Contract Pages: 1 -->
<svg width="353pt" height="382pt"
 viewBox="0.00 0.00 352.79 382.25" xmlns="http://www.w3.org/2000/svg" xmlns:xlink="http://www.w3.org/1999/xlink">

<svg id="main" version="1.1" xmlns="http://www.w3.org/2000/svg" xmlns:xlink="http://www.w3.org/1999/xlink" xml:space="preserve">

<style type="text/css"><![CDATA[
.node, .edge {opacity: 0.7;}
.node.selected, .edge.selected {opacity: 1;}
.edge:hover path { stroke: red; }
.edge:hover polygon { stroke: red; fill: red; }
]]></style>
<script type="application/ecmascript" xlink:href="../../svg.min.js"/>
<svg id="graph" class="graph">
<g id="graph0" class="graph" transform="scale(1 1) rotate(0) translate(4 378.25)">
<title>Ark::types::Contract</title>
<!-- Node1 -->
<g id="Node000001" class="node">
<title>Node1</title>
<g id="a_Node000001"><a xlink:title="A contract is a list of typed arguments that a function can follow.">
<polygon fill="#999999" stroke="#666666" points="256.25,-19.25 151.75,-19.25 151.75,0 256.25,0 256.25,-19.25"/>
<text text-anchor="middle" x="204" y="-5.75" font-family="Helvetica,sans-Serif" font-size="10.00">Ark::types::Contract</text>
</a>
</g>
</g>
<!-- Node2 -->
<g id="Node000002" class="node">
<title>Node2</title>
<g id="a_Node000002"><a xlink:title=" ">
<polygon fill="white" stroke="#666666" points="261.88,-97 146.12,-97 146.12,-66.5 261.88,-66.5 261.88,-97"/>
<text text-anchor="start" x="154.12" y="-83.5" font-family="Helvetica,sans-Serif" font-size="10.00">std::vector&lt; Ark::types</text>
<text text-anchor="middle" x="204" y="-72.25" font-family="Helvetica,sans-Serif" font-size="10.00">::Typedef &gt;</text>
</a>
</g>
</g>
<!-- Node2&#45;&gt;Node1 -->
<g id="edge1_Node000001_Node000002" class="edge">
<title>Node2&#45;&gt;Node1</title>
<g id="a_edge1_Node000001_Node000002"><a xlink:title=" ">
<path fill="none" stroke="#9a32cd" stroke-dasharray="5,2" d="M204,-54.98C204,-42.48 204,-28.27 204,-19.38"/>
<polygon fill="#9a32cd" stroke="#9a32cd" points="200.5,-54.71 204,-64.71 207.5,-54.71 200.5,-54.71"/>
</a>
</g>
<text text-anchor="middle" x="228.38" y="-39" font-family="Helvetica,sans-Serif" font-size="10.00" fill="grey"> arguments</text>
</g>
<!-- Node3 -->
<g id="Node000003" class="node">
<title>Node3</title>
<g id="a_Node000003"><a xlink:href="../../d9/dbf/structArk_1_1types_1_1Typedef.html" target="_top" xlink:title="A type definition within a contract.">
<polygon fill="white" stroke="#666666" points="208.75,-163.5 107.25,-163.5 107.25,-144.25 208.75,-144.25 208.75,-163.5"/>
<text text-anchor="middle" x="158" y="-150" font-family="Helvetica,sans-Serif" font-size="10.00">Ark::types::Typedef</text>
</a>
</g>
</g>
<!-- Node3&#45;&gt;Node2 -->
<g id="edge2_Node000002_Node000003" class="edge">
<title>Node3&#45;&gt;Node2</title>
<g id="a_edge2_Node000002_Node000003"><a xlink:title=" ">
<path fill="none" stroke="#9a32cd" stroke-dasharray="5,2" d="M170.08,-134.46C177.66,-122.9 187.31,-108.19 194.38,-97.42"/>
<polygon fill="#9a32cd" stroke="#9a32cd" points="167.21,-132.45 164.66,-142.73 173.07,-136.29 167.21,-132.45"/>
</a>
</g>
<text text-anchor="middle" x="203.75" y="-116.75" font-family="Helvetica,sans-Serif" font-size="10.00" fill="grey"> elements</text>
</g>
<!-- Node4 -->
<g id="Node000004" class="node">
<title>Node4</title>
<g id="a_Node000004"><a xlink:title=" ">
<polygon fill="white" stroke="#666666" points="76.75,-230 17.25,-230 17.25,-210.75 76.75,-210.75 76.75,-230"/>
<text text-anchor="middle" x="47" y="-216.5" font-family="Helvetica,sans-Serif" font-size="10.00">std::string</text>
</a>
</g>
</g>
<!-- Node4&#45;&gt;Node3 -->
<g id="edge3_Node000003_Node000004" class="edge">
<title>Node4&#45;&gt;Node3</title>
<g id="a_edge3_Node000003_Node000004"><a xlink:title=" ">
<path fill="none" stroke="#9a32cd" stroke-dasharray="5,2" d="M72.22,-204.72C93.78,-192.19 124.12,-174.56 142.34,-163.98"/>
<polygon fill="#9a32cd" stroke="#9a32cd" points="70.63,-201.6 63.74,-209.65 74.15,-207.65 70.63,-201.6"/>
</a>
</g>
<text text-anchor="middle" x="122.65" y="-183.25" font-family="Helvetica,sans-Serif" font-size="10.00" fill="grey"> name</text>
</g>
<!-- Node5 -->
<g id="Node000005" class="node">
<title>Node5</title>
<g id="a_Node000005"><a xlink:title=" ">
<polygon fill="white" stroke="#666666" points="94,-307.75 0,-307.75 0,-277.25 94,-277.25 94,-307.75"/>
<text text-anchor="start" x="8" y="-294.25" font-family="Helvetica,sans-Serif" font-size="10.00">std::basic_string&lt;</text>
<text text-anchor="middle" x="47" y="-283" font-family="Helvetica,sans-Serif" font-size="10.00"> Char &gt;</text>
</a>
</g>
</g>
<!-- Node5&#45;&gt;Node4 -->
<g id="edge4_Node000004_Node000005" class="edge">
<title>Node5&#45;&gt;Node4</title>
<g id="a_edge4_Node000004_Node000005"><a xlink:title=" ">
<path fill="none" stroke="#63b8ff" d="M47,-265.73C47,-253.23 47,-239.02 47,-230.13"/>
<polygon fill="#63b8ff" stroke="#63b8ff" points="43.5,-265.46 47,-275.46 50.5,-265.46 43.5,-265.46"/>
</a>
</g>
</g>
<!-- Node6 -->
<g id="Node000006" class="node">
<title>Node6</title>
<g id="a_Node000006"><a xlink:title=" ">
<polygon fill="white" stroke="#666666" points="220.75,-230 95.25,-230 95.25,-210.75 220.75,-210.75 220.75,-230"/>
<text text-anchor="middle" x="158" y="-216.5" font-family="Helvetica,sans-Serif" font-size="10.00">std::vector&lt; ValueType &gt;</text>
</a>
</g>
</g>
<!-- Node6&#45;&gt;Node3 -->
<g id="edge5_Node000003_Node000006" class="edge">
<title>Node6&#45;&gt;Node3</title>
<g id="a_edge5_Node000003_Node000006"><a xlink:title=" ">
<path fill="none" stroke="#9a32cd" stroke-dasharray="5,2" d="M158,-198.9C158,-187.07 158,-172.79 158,-163.77"/>
<polygon fill="#9a32cd" stroke="#9a32cd" points="154.5,-198.89 158,-208.89 161.5,-198.89 154.5,-198.89"/>
</a>
</g>
<text text-anchor="middle" x="171.5" y="-183.25" font-family="Helvetica,sans-Serif" font-size="10.00" fill="grey"> types</text>
</g>
<!-- Node7 -->
<g id="Node000007" class="node">
<title>Node7</title>
<g id="a_Node000007"><a xlink:title=" ">
<polygon fill="white" stroke="#666666" points="251.25,-302.12 164.75,-302.12 164.75,-282.88 251.25,-282.88 251.25,-302.12"/>
<text text-anchor="middle" x="208" y="-288.62" font-family="Helvetica,sans-Serif" font-size="10.00">std::vector&lt; T &gt;</text>
</a>
</g>
</g>
<!-- Node7&#45;&gt;Node2 -->
<g id="edge8_Node000002_Node000007" class="edge">
<title>Node7&#45;&gt;Node2</title>
<g id="a_edge8_Node000002_Node000007"><a xlink:title=" ">
<path fill="none" stroke="orange" stroke-dasharray="5,2" d="M226.13,-274.24C229.76,-269.74 233.05,-264.63 235,-259.25 236.71,-254.55 235.11,-253 235,-248 233.67,-188.84 249.42,-170.54 229,-115 226.65,-108.62 222.55,-102.49 218.34,-97.32"/>
<polygon fill="orange" stroke="orange" points="223.75,-271.66 219.57,-281.39 228.91,-276.39 223.75,-271.66"/>
</a>
</g>
<text text-anchor="middle" x="291.91" y="-183.25" font-family="Helvetica,sans-Serif" font-size="10.00" fill="grey"> &lt; Ark::types::Typedef &gt;</text>
</g>
<!-- Node7&#45;&gt;Node6 -->
<g id="edge6_Node000006_Node000007" class="edge">
<title>Node7&#45;&gt;Node6</title>
<g id="a_edge6_Node000006_Node000007"><a xlink:title=" ">
<path fill="none" stroke="orange" stroke-dasharray="5,2" d="M184.33,-275.74C178.64,-271.01 173.05,-265.42 169,-259.25 163.21,-250.44 160.41,-238.52 159.09,-230.42"/>
<polygon fill="orange" stroke="orange" points="181.84,-278.25 191.93,-281.51 186.08,-272.67 181.84,-278.25"/>
</a>
</g>
<text text-anchor="middle" x="202" y="-249.75" font-family="Helvetica,sans-Serif" font-size="10.00" fill="grey"> &lt; ValueType &gt;</text>
</g>
<!-- Node8 -->
<g id="Node000008" class="node">
<title>Node8</title>
<g id="a_Node000008"><a xlink:title=" ">
<polygon fill="white" stroke="#666666" points="222.4,-374.25 193.6,-374.25 193.6,-355 222.4,-355 222.4,-374.25"/>
<text text-anchor="middle" x="208" y="-360.75" font-family="Helvetica,sans-Serif" font-size="10.00">T</text>
</a>
</g>
</g>
<!-- Node8&#45;&gt;Node7 -->
<g id="edge7_Node000007_Node000008" class="edge">
<title>Node8&#45;&gt;Node7</title>
<g id="a_edge7_Node000007_Node000008"><a xlink:title=" ">
<path fill="none" stroke="#9a32cd" stroke-dasharray="5,2" d="M208,-343.24C208,-329.77 208,-312.76 208,-302.53"/>
<polygon fill="#9a32cd" stroke="#9a32cd" points="204.5,-343.23 208,-353.23 211.5,-343.23 204.5,-343.23"/>
</a>
</g>
<text text-anchor="middle" x="229.38" y="-327.5" font-family="Helvetica,sans-Serif" font-size="10.00" fill="grey"> elements</text>
</g>
</g>
</svg>
</svg>

<style type='text/css'>
<![CDATA[
[data-mouse-over-selected='false'] { opacity: 0.7; }
[data-mouse-over-selected='true']  { opacity: 1.0; }
]]>
</style>
<script type="application/ecmascript"><![CDATA[
document.addEventListener('DOMContentLoaded', (event) => {
  highlightEdges();
  highlightAdjacentNodes();
});
]]></script>
</svg>
