<?xml version="1.0" encoding="UTF-8" standalone="no"?>
<!DOCTYPE svg PUBLIC "-//W3C//DTD SVG 1.1//EN"
 "http://www.w3.org/Graphics/SVG/1.1/DTD/svg11.dtd">
<!-- Generated by graphviz version 12.2.0 (20241103.1931)
 -->
<!-- Title: /Users/fola/Documents/ArkScript/Ark/include/Ark/Compiler/Pass.hpp Pages: 1 -->
<!--zoomable 383 -->

<svg id="main" version="1.1" xmlns="http://www.w3.org/2000/svg" xmlns:xlink="http://www.w3.org/1999/xlink" xml:space="preserve" onload="init(evt)">

<style type="text/css"><![CDATA[
.node, .edge {opacity: 0.7;}
.node.selected, .edge.selected {opacity: 1;}
.edge:hover path { stroke: red; }
.edge:hover polygon { stroke: red; fill: red; }
]]></style>

<defs>
  <circle id="rim" cx="0" cy="0" r="7"/>
  <circle id="rim2" cx="0" cy="0" r="3.5"/>
  <g id="zoomPlus">
    <use xlink:href="#rim" fill="#404040"><set attributeName="fill" to="#808080" begin="zoomplus.mouseover" end="zoomplus.mouseout"/></use>
    <path d="M-4,0h8M0,-4v8" fill="none" stroke="white" stroke-width="1.5" pointer-events="none"/>
  </g>
  <g id="zoomMin">
    <use xlink:href="#rim" fill="#404040"><set attributeName="fill" to="#808080" begin="zoomminus.mouseover" end="zoomminus.mouseout"/></use>
    <path d="M-4,0h8" fill="none" stroke="white" stroke-width="1.5" pointer-events="none"/>
  </g>
  <g id="arrowUp" transform="translate(30 24)">
    <use xlink:href="#rim"/>
    <path pointer-events="none" fill="none" stroke="white" stroke-width="1.5" d="M0,-3.0v7 M-2.5,-0.5L0,-3.0L2.5,-0.5"/>
  </g>
  <g id="arrowRight" transform="rotate(90) translate(36 -43)">
    <use xlink:href="#rim"/>
    <path pointer-events="none" fill="none" stroke="white" stroke-width="1.5" d="M0,-3.0v7 M-2.5,-0.5L0,-3.0L2.5,-0.5"/>
  </g>
  <g id="arrowDown" transform="rotate(180) translate(-30 -48)">
    <use xlink:href="#rim"/>
    <path pointer-events="none" fill="none" stroke="white" stroke-width="1.5" d="M0,-3.0v7 M-2.5,-0.5L0,-3.0L2.5,-0.5"/>
  </g>
  <g id="arrowLeft" transform="rotate(270) translate(-36 17)">
    <use xlink:href="#rim"/>
    <path pointer-events="none" fill="none" stroke="white" stroke-width="1.5" d="M0,-3.0v7 M-2.5,-0.5L0,-3.0L2.5,-0.5"/>
  </g>
  <g id="resetDef">
    <use xlink:href="#rim2" fill="#404040"><set attributeName="fill" to="#808080" begin="reset.mouseover" end="reset.mouseout"/></use>
  </g>
</defs>
<script type="application/ecmascript">
var viewWidth = 1794;
var viewHeight = 383;
var sectionId = 'dynsection-1';
</script>
<script type="application/ecmascript" xlink:href="../../svg.min.js"/>
<svg id="graph" class="graph">
<g id="viewport">
<title>/Users/fola/Documents/ArkScript/Ark/include/Ark/Compiler/Pass.hpp</title>
<!-- Node1 -->
<g id="Node000001" class="node">
<title>Node1</title>
<g id="a_Node000001"><a xlink:title="Interface for a compiler pass.">
<polygon fill="#999999" stroke="#666666" points="995.62,-375.25 875.38,-375.25 875.38,-333.5 995.62,-333.5 995.62,-375.25"/>
<text text-anchor="start" x="883.38" y="-361.75" font-family="Helvetica,sans-Serif" font-size="10.00">/Users/fola/Documents</text>
<text text-anchor="start" x="883.38" y="-350.5" font-family="Helvetica,sans-Serif" font-size="10.00">/ArkScript/Ark/include</text>
<text text-anchor="middle" x="935.5" y="-339.25" font-family="Helvetica,sans-Serif" font-size="10.00">/Ark/Compiler/Pass.hpp</text>
</a>
</g>
</g>
<!-- Node2 -->
<g id="Node000002" class="node">
<title>Node2</title>
<g id="a_Node000002"><a xlink:href="../../db/d93/Optimizer_8hpp.html" target="_top" xlink:title="Optimizes a given ArkScript AST.">
<polygon fill="white" stroke="#666666" points="923.25,-291.88 761.75,-291.88 761.75,-250.12 923.25,-250.12 923.25,-291.88"/>
<text text-anchor="start" x="769.75" y="-278.38" font-family="Helvetica,sans-Serif" font-size="10.00">/Users/fola/Documents</text>
<text text-anchor="start" x="769.75" y="-267.12" font-family="Helvetica,sans-Serif" font-size="10.00">/ArkScript/Ark/include</text>
<text text-anchor="middle" x="842.5" y="-255.88" font-family="Helvetica,sans-Serif" font-size="10.00">/Ark/Compiler/AST/Optimizer.hpp</text>
</a>
</g>
</g>
<!-- Node1&#45;&gt;Node2 -->
<g id="edge1_Node000001_Node000002" class="edge">
<title>Node1&#45;&gt;Node2</title>
<g id="a_edge1_Node000001_Node000002"><a xlink:title=" ">
<path fill="none" stroke="#63b8ff" d="M904.09,-325.89C891.47,-314.85 877.18,-302.35 865.55,-292.17"/>
<polygon fill="#63b8ff" stroke="#63b8ff" points="901.54,-328.31 911.37,-332.26 906.15,-323.04 901.54,-328.31"/>
</a>
</g>
</g>
<!-- Node14 -->
<g id="Node000014" class="node">
<title>Node14</title>
<g id="a_Node000014"><a xlink:href="../../df/d86/IRCompiler_8hpp.html" target="_top" xlink:title="Compile the intermediate representation to bytecode.">
<polygon fill="white" stroke="#666666" points="320,-297.5 121,-297.5 121,-244.5 320,-244.5 320,-297.5"/>
<text text-anchor="start" x="129" y="-284" font-family="Helvetica,sans-Serif" font-size="10.00">/Users/fola/Documents</text>
<text text-anchor="start" x="129" y="-272.75" font-family="Helvetica,sans-Serif" font-size="10.00">/ArkScript/Ark/include</text>
<text text-anchor="start" x="129" y="-261.5" font-family="Helvetica,sans-Serif" font-size="10.00">/Ark/Compiler/IntermediateRepresentation</text>
<text text-anchor="middle" x="220.5" y="-250.25" font-family="Helvetica,sans-Serif" font-size="10.00">/IRCompiler.hpp</text>
</a>
</g>
</g>
<!-- Node1&#45;&gt;Node14 -->
<g id="edge14_Node000001_Node000014" class="edge">
<title>Node1&#45;&gt;Node14</title>
<g id="a_edge14_Node000001_Node000014"><a xlink:title=" ">
<path fill="none" stroke="#63b8ff" d="M863.62,-349.96C749.73,-343.83 521.07,-328.59 329.5,-297.5 326.53,-297.02 323.51,-296.5 320.48,-295.95"/>
<polygon fill="#63b8ff" stroke="#63b8ff" points="863.26,-353.45 873.43,-350.48 863.63,-346.46 863.26,-353.45"/>
</a>
</g>
</g>
<!-- Node16 -->
<g id="Node000016" class="node">
<title>Node16</title>
<g id="a_Node000016"><a xlink:href="../../d0/de2/IROptimizer_8hpp.html" target="_top" xlink:title="Optimize IR based on IR entity grouped by 2 (or more)">
<polygon fill="white" stroke="#666666" points="537,-297.5 338,-297.5 338,-244.5 537,-244.5 537,-297.5"/>
<text text-anchor="start" x="346" y="-284" font-family="Helvetica,sans-Serif" font-size="10.00">/Users/fola/Documents</text>
<text text-anchor="start" x="346" y="-272.75" font-family="Helvetica,sans-Serif" font-size="10.00">/ArkScript/Ark/include</text>
<text text-anchor="start" x="346" y="-261.5" font-family="Helvetica,sans-Serif" font-size="10.00">/Ark/Compiler/IntermediateRepresentation</text>
<text text-anchor="middle" x="437.5" y="-250.25" font-family="Helvetica,sans-Serif" font-size="10.00">/IROptimizer.hpp</text>
</a>
</g>
</g>
<!-- Node1&#45;&gt;Node16 -->
<g id="edge17_Node000001_Node000016" class="edge">
<title>Node1&#45;&gt;Node16</title>
<g id="a_edge17_Node000001_Node000016"><a xlink:title=" ">
<path fill="none" stroke="#63b8ff" d="M863.75,-344.97C785.45,-335.36 656.58,-318.24 546.5,-297.5 543.44,-296.92 540.34,-296.32 537.22,-295.7"/>
<polygon fill="#63b8ff" stroke="#63b8ff" points="863.07,-348.41 873.42,-346.15 863.92,-341.47 863.07,-348.41"/>
</a>
</g>
</g>
<!-- Node18 -->
<g id="Node000018" class="node">
<title>Node18</title>
<g id="a_Node000018"><a xlink:href="../../db/d08/ASTLowerer_8hpp.html" target="_top" xlink:title=" ">
<polygon fill="white" stroke="#666666" points="743.75,-291.88 555.25,-291.88 555.25,-250.12 743.75,-250.12 743.75,-291.88"/>
<text text-anchor="start" x="563.25" y="-278.38" font-family="Helvetica,sans-Serif" font-size="10.00">/Users/fola/Documents</text>
<text text-anchor="start" x="563.25" y="-267.12" font-family="Helvetica,sans-Serif" font-size="10.00">/ArkScript/Ark/include</text>
<text text-anchor="middle" x="649.5" y="-255.88" font-family="Helvetica,sans-Serif" font-size="10.00">/Ark/Compiler/Lowerer/ASTLowerer.hpp</text>
</a>
</g>
</g>
<!-- Node1&#45;&gt;Node18 -->
<g id="edge20_Node000001_Node000018" class="edge">
<title>Node1&#45;&gt;Node18</title>
<g id="a_edge20_Node000001_Node000018"><a xlink:title=" ">
<path fill="none" stroke="#63b8ff" d="M864.36,-333.13C820.67,-320.7 764.88,-304.83 721.1,-292.37"/>
<polygon fill="#63b8ff" stroke="#63b8ff" points="863.16,-336.43 873.74,-335.8 865.08,-329.7 863.16,-336.43"/>
</a>
</g>
</g>
<!-- Node20 -->
<g id="Node000020" class="node">
<title>Node20</title>
<g id="a_Node000020"><a xlink:href="../../de/db1/Processor_8hpp.html" target="_top" xlink:title="Handles the macros and their expansion in ArkScript source code.">
<polygon fill="white" stroke="#666666" points="1117.75,-291.88 941.25,-291.88 941.25,-250.12 1117.75,-250.12 1117.75,-291.88"/>
<text text-anchor="start" x="949.25" y="-278.38" font-family="Helvetica,sans-Serif" font-size="10.00">/Users/fola/Documents</text>
<text text-anchor="start" x="949.25" y="-267.12" font-family="Helvetica,sans-Serif" font-size="10.00">/ArkScript/Ark/include</text>
<text text-anchor="middle" x="1029.5" y="-255.88" font-family="Helvetica,sans-Serif" font-size="10.00">/Ark/Compiler/Macros/Processor.hpp</text>
</a>
</g>
</g>
<!-- Node1&#45;&gt;Node20 -->
<g id="edge23_Node000001_Node000020" class="edge">
<title>Node1&#45;&gt;Node20</title>
<g id="a_edge23_Node000001_Node000020"><a xlink:title=" ">
<path fill="none" stroke="#63b8ff" d="M967.25,-325.89C980.01,-314.85 994.45,-302.35 1006.21,-292.17"/>
<polygon fill="#63b8ff" stroke="#63b8ff" points="965.15,-323.08 959.88,-332.27 969.73,-328.37 965.15,-323.08"/>
</a>
</g>
</g>
<!-- Node23 -->
<g id="Node000023" class="node">
<title>Node23</title>
<g id="a_Node000023"><a xlink:href="../../d4/de8/NameResolutionPass_8hpp.html" target="_top" xlink:title="Resolves names and fully qualify them in the AST (prefixing them with the package they are from)">
<polygon fill="white" stroke="#666666" points="1287.38,-297.5 1135.62,-297.5 1135.62,-244.5 1287.38,-244.5 1287.38,-297.5"/>
<text text-anchor="start" x="1143.62" y="-284" font-family="Helvetica,sans-Serif" font-size="10.00">/Users/fola/Documents</text>
<text text-anchor="start" x="1143.62" y="-272.75" font-family="Helvetica,sans-Serif" font-size="10.00">/ArkScript/Ark/include</text>
<text text-anchor="start" x="1143.62" y="-261.5" font-family="Helvetica,sans-Serif" font-size="10.00">/Ark/Compiler/NameResolution</text>
<text text-anchor="middle" x="1211.5" y="-250.25" font-family="Helvetica,sans-Serif" font-size="10.00">/NameResolutionPass.hpp</text>
</a>
</g>
</g>
<!-- Node1&#45;&gt;Node23 -->
<g id="edge28_Node000001_Node000023" class="edge">
<title>Node1&#45;&gt;Node23</title>
<g id="a_edge28_Node000001_Node000023"><a xlink:title=" ">
<path fill="none" stroke="#63b8ff" d="M1006.62,-332.69C1042.57,-322.21 1086.87,-309.24 1126.5,-297.5 1129.45,-296.62 1132.47,-295.73 1135.51,-294.83"/>
<polygon fill="#63b8ff" stroke="#63b8ff" points="1005.82,-329.28 997.2,-335.44 1007.78,-336 1005.82,-329.28"/>
</a>
</g>
</g>
<!-- Node25 -->
<g id="Node000025" class="node">
<title>Node25</title>
<g id="a_Node000025"><a xlink:href="../../d1/db0/ImportSolver_8hpp.html" target="_top" xlink:title="Handle imports, resolve them with modules and everything.">
<polygon fill="white" stroke="#666666" points="1499.38,-291.88 1305.62,-291.88 1305.62,-250.12 1499.38,-250.12 1499.38,-291.88"/>
<text text-anchor="start" x="1313.62" y="-278.38" font-family="Helvetica,sans-Serif" font-size="10.00">/Users/fola/Documents</text>
<text text-anchor="start" x="1313.62" y="-267.12" font-family="Helvetica,sans-Serif" font-size="10.00">/ArkScript/Ark/include</text>
<text text-anchor="middle" x="1402.5" y="-255.88" font-family="Helvetica,sans-Serif" font-size="10.00">/Ark/Compiler/Package/ImportSolver.hpp</text>
</a>
</g>
</g>
<!-- Node1&#45;&gt;Node25 -->
<g id="edge32_Node000001_Node000025" class="edge">
<title>Node1&#45;&gt;Node25</title>
<g id="a_edge32_Node000001_Node000025"><a xlink:title=" ">
<path fill="none" stroke="#63b8ff" d="M1007.15,-344.06C1080.21,-334.15 1196.69,-317.2 1296.5,-297.5 1304.48,-295.92 1312.78,-294.16 1321.05,-292.31"/>
<polygon fill="#63b8ff" stroke="#63b8ff" points="1006.75,-340.58 997.31,-345.39 1007.69,-347.52 1006.75,-340.58"/>
</a>
</g>
</g>
<!-- Node27 -->
<g id="Node000027" class="node">
<title>Node27</title>
<g id="a_Node000027"><a xlink:href="../../d8/d54/Pass_8cpp.html" target="_top" xlink:title=" ">
<polygon fill="white" stroke="#666666" points="1657.75,-291.88 1517.25,-291.88 1517.25,-250.12 1657.75,-250.12 1657.75,-291.88"/>
<text text-anchor="start" x="1525.25" y="-278.38" font-family="Helvetica,sans-Serif" font-size="10.00">/Users/fola/Documents</text>
<text text-anchor="start" x="1525.25" y="-267.12" font-family="Helvetica,sans-Serif" font-size="10.00">/ArkScript/Ark/src/arkreactor</text>
<text text-anchor="middle" x="1587.5" y="-255.88" font-family="Helvetica,sans-Serif" font-size="10.00">/Compiler/Pass.cpp</text>
</a>
</g>
</g>
<!-- Node1&#45;&gt;Node27 -->
<g id="edge36_Node000001_Node000027" class="edge">
<title>Node1&#45;&gt;Node27</title>
<g id="a_edge36_Node000001_Node000027"><a xlink:title=" ">
<path fill="none" stroke="#63b8ff" d="M1007.14,-351.32C1116.35,-347.09 1330.57,-334.44 1508.5,-297.5 1515.27,-296.09 1522.28,-294.32 1529.2,-292.36"/>
<polygon fill="#63b8ff" stroke="#63b8ff" points="1007.32,-347.82 997.46,-351.69 1007.58,-354.81 1007.32,-347.82"/>
</a>
</g>
</g>
<!-- Node3 -->
<g id="Node000003" class="node">
<title>Node3</title>
<g id="a_Node000003"><a xlink:href="../../de/d8e/Welder_8hpp.html" target="_top" xlink:title="In charge of welding everything needed to compile code.">
<polygon fill="white" stroke="#666666" points="714,-202.88 587,-202.88 587,-161.12 714,-161.12 714,-202.88"/>
<text text-anchor="start" x="595" y="-189.38" font-family="Helvetica,sans-Serif" font-size="10.00">/Users/fola/Documents</text>
<text text-anchor="start" x="595" y="-178.12" font-family="Helvetica,sans-Serif" font-size="10.00">/ArkScript/Ark/include</text>
<text text-anchor="middle" x="650.5" y="-166.88" font-family="Helvetica,sans-Serif" font-size="10.00">/Ark/Compiler/Welder.hpp</text>
</a>
</g>
</g>
<!-- Node2&#45;&gt;Node3 -->
<g id="edge2_Node000002_Node000003" class="edge">
<title>Node2&#45;&gt;Node3</title>
<g id="a_edge2_Node000002_Node000003"><a xlink:title=" ">
<path fill="none" stroke="#63b8ff" d="M787.53,-245.09C758.36,-231.87 722.96,-215.84 695.45,-203.37"/>
<polygon fill="#63b8ff" stroke="#63b8ff" points="786.04,-248.26 796.59,-249.2 788.93,-241.88 786.04,-248.26"/>
</a>
</g>
</g>
<!-- Node10 -->
<g id="Node000010" class="node">
<title>Node10</title>
<g id="a_Node000010"><a xlink:href="../../d3/df1/Welder_8cpp.html" target="_top" xlink:title=" ">
<polygon fill="white" stroke="#666666" points="1359.75,-119.5 1219.25,-119.5 1219.25,-77.75 1359.75,-77.75 1359.75,-119.5"/>
<text text-anchor="start" x="1227.25" y="-106" font-family="Helvetica,sans-Serif" font-size="10.00">/Users/fola/Documents</text>
<text text-anchor="start" x="1227.25" y="-94.75" font-family="Helvetica,sans-Serif" font-size="10.00">/ArkScript/Ark/src/arkreactor</text>
<text text-anchor="middle" x="1289.5" y="-83.5" font-family="Helvetica,sans-Serif" font-size="10.00">/Compiler/Welder.cpp</text>
</a>
</g>
</g>
<!-- Node2&#45;&gt;Node10 -->
<g id="edge13_Node000002_Node000010" class="edge">
<title>Node2&#45;&gt;Node10</title>
<g id="a_edge13_Node000002_Node000010"><a xlink:title=" ">
<path fill="none" stroke="#63b8ff" d="M792.78,-243.45C780.28,-234.17 768.45,-222.5 761.5,-208.5 751.03,-187.4 745.74,-173.01 761.5,-155.5 776.62,-138.7 1078.47,-114.85 1218.84,-104.61"/>
<polygon fill="#63b8ff" stroke="#63b8ff" points="790.48,-246.11 800.69,-248.92 794.46,-240.36 790.48,-246.11"/>
</a>
</g>
</g>
<!-- Node13 -->
<g id="Node000013" class="node">
<title>Node13</title>
<g id="a_Node000013"><a xlink:href="../../d2/dc5/Optimizer_8cpp.html" target="_top" xlink:title=" ">
<polygon fill="white" stroke="#666666" points="914.25,-202.88 770.75,-202.88 770.75,-161.12 914.25,-161.12 914.25,-202.88"/>
<text text-anchor="start" x="778.75" y="-189.38" font-family="Helvetica,sans-Serif" font-size="10.00">/Users/fola/Documents</text>
<text text-anchor="start" x="778.75" y="-178.12" font-family="Helvetica,sans-Serif" font-size="10.00">/ArkScript/Ark/src/arkreactor</text>
<text text-anchor="middle" x="842.5" y="-166.88" font-family="Helvetica,sans-Serif" font-size="10.00">/Compiler/AST/Optimizer.cpp</text>
</a>
</g>
</g>
<!-- Node2&#45;&gt;Node13 -->
<g id="edge12_Node000002_Node000013" class="edge">
<title>Node2&#45;&gt;Node13</title>
<g id="a_edge12_Node000002_Node000013"><a xlink:title=" ">
<path fill="none" stroke="#63b8ff" d="M842.5,-238.64C842.5,-226.9 842.5,-213.87 842.5,-203.37"/>
<polygon fill="#63b8ff" stroke="#63b8ff" points="839,-238.31 842.5,-248.31 846,-238.31 839,-238.31"/>
</a>
</g>
</g>
<!-- Node4 -->
<g id="Node000004" class="node">
<title>Node4</title>
<g id="a_Node000004"><a xlink:href="../../d3/d7e/Ark_8hpp.html" target="_top" xlink:title="Includes the needed files to start using ArkScript.">
<polygon fill="white" stroke="#666666" points="636.12,-119.5 518.88,-119.5 518.88,-77.75 636.12,-77.75 636.12,-119.5"/>
<text text-anchor="start" x="526.88" y="-106" font-family="Helvetica,sans-Serif" font-size="10.00">/Users/fola/Documents</text>
<text text-anchor="start" x="526.88" y="-94.75" font-family="Helvetica,sans-Serif" font-size="10.00">/ArkScript/Ark/include</text>
<text text-anchor="middle" x="577.5" y="-83.5" font-family="Helvetica,sans-Serif" font-size="10.00">/Ark/Ark.hpp</text>
</a>
</g>
</g>
<!-- Node3&#45;&gt;Node4 -->
<g id="edge3_Node000003_Node000004" class="edge">
<title>Node3&#45;&gt;Node4</title>
<g id="a_edge3_Node000003_Node000004"><a xlink:title=" ">
<path fill="none" stroke="#63b8ff" d="M624.99,-152.56C615.29,-141.75 604.46,-129.68 595.59,-119.79"/>
<polygon fill="#63b8ff" stroke="#63b8ff" points="622.16,-154.65 631.44,-159.76 627.37,-149.98 622.16,-154.65"/>
</a>
</g>
</g>
<!-- Node7 -->
<g id="Node000007" class="node">
<title>Node7</title>
<g id="a_Node000007"><a xlink:href="../../dc/dfd/JsonCompiler_8hpp.html" target="_top" xlink:title=" ">
<polygon fill="white" stroke="#666666" points="781.12,-119.5 663.88,-119.5 663.88,-77.75 781.12,-77.75 781.12,-119.5"/>
<text text-anchor="start" x="671.88" y="-106" font-family="Helvetica,sans-Serif" font-size="10.00">/Users/fola/Documents</text>
<text text-anchor="start" x="671.88" y="-94.75" font-family="Helvetica,sans-Serif" font-size="10.00">/ArkScript/Ark/include</text>
<text text-anchor="middle" x="722.5" y="-83.5" font-family="Helvetica,sans-Serif" font-size="10.00">/CLI/JsonCompiler.hpp</text>
</a>
</g>
</g>
<!-- Node3&#45;&gt;Node7 -->
<g id="edge6_Node000003_Node000007" class="edge">
<title>Node3&#45;&gt;Node7</title>
<g id="a_edge6_Node000003_Node000007"><a xlink:title=" ">
<path fill="none" stroke="#63b8ff" d="M675.67,-152.56C685.23,-141.75 695.91,-129.68 704.66,-119.79"/>
<polygon fill="#63b8ff" stroke="#63b8ff" points="673.31,-149.94 669.3,-159.75 678.55,-154.58 673.31,-149.94"/>
</a>
</g>
</g>
<!-- Node3&#45;&gt;Node10 -->
<g id="edge9_Node000003_Node000010" class="edge">
<title>Node3&#45;&gt;Node10</title>
<g id="a_edge9_Node000003_Node000010"><a xlink:title=" ">
<path fill="none" stroke="#63b8ff" d="M718.97,-157.71C722.18,-156.9 725.36,-156.16 728.5,-155.5 902.33,-118.88 1111.67,-106.1 1218.79,-101.76"/>
<polygon fill="#63b8ff" stroke="#63b8ff" points="718.26,-154.27 709.51,-160.25 720.08,-161.03 718.26,-154.27"/>
</a>
</g>
</g>
<!-- Node11 -->
<g id="Node000011" class="node">
<title>Node11</title>
<g id="a_Node000011"><a xlink:href="../../d0/da0/State_8cpp.html" target="_top" xlink:title=" ">
<polygon fill="white" stroke="#666666" points="939.75,-119.5 799.25,-119.5 799.25,-77.75 939.75,-77.75 939.75,-119.5"/>
<text text-anchor="start" x="807.25" y="-106" font-family="Helvetica,sans-Serif" font-size="10.00">/Users/fola/Documents</text>
<text text-anchor="start" x="807.25" y="-94.75" font-family="Helvetica,sans-Serif" font-size="10.00">/ArkScript/Ark/src/arkreactor</text>
<text text-anchor="middle" x="869.5" y="-83.5" font-family="Helvetica,sans-Serif" font-size="10.00">/State.cpp</text>
</a>
</g>
</g>
<!-- Node3&#45;&gt;Node11 -->
<g id="edge10_Node000003_Node000011" class="edge">
<title>Node3&#45;&gt;Node11</title>
<g id="a_edge10_Node000003_Node000011"><a xlink:title=" ">
<path fill="none" stroke="#63b8ff" d="M715.65,-156.79C747.21,-145.06 784.68,-131.14 814.74,-119.97"/>
<polygon fill="#63b8ff" stroke="#63b8ff" points="714.77,-153.38 706.62,-160.15 717.21,-159.95 714.77,-153.38"/>
</a>
</g>
</g>
<!-- Node12 -->
<g id="Node000012" class="node">
<title>Node12</title>
<g id="a_Node000012"><a xlink:href="../../db/d7b/Debugger_8cpp.html" target="_top" xlink:title=" ">
<polygon fill="white" stroke="#666666" points="500.75,-119.5 360.25,-119.5 360.25,-77.75 500.75,-77.75 500.75,-119.5"/>
<text text-anchor="start" x="368.25" y="-106" font-family="Helvetica,sans-Serif" font-size="10.00">/Users/fola/Documents</text>
<text text-anchor="start" x="368.25" y="-94.75" font-family="Helvetica,sans-Serif" font-size="10.00">/ArkScript/Ark/src/arkreactor</text>
<text text-anchor="middle" x="430.5" y="-83.5" font-family="Helvetica,sans-Serif" font-size="10.00">/VM/Debugger.cpp</text>
</a>
</g>
</g>
<!-- Node3&#45;&gt;Node12 -->
<g id="edge11_Node000003_Node000012" class="edge">
<title>Node3&#45;&gt;Node12</title>
<g id="a_edge11_Node000003_Node000012"><a xlink:title=" ">
<path fill="none" stroke="#63b8ff" d="M585.05,-156.79C553.35,-145.06 515.71,-131.14 485.51,-119.97"/>
<polygon fill="#63b8ff" stroke="#63b8ff" points="583.54,-159.96 594.13,-160.15 585.97,-153.4 583.54,-159.96"/>
</a>
</g>
</g>
<!-- Node5 -->
<g id="Node000005" class="node">
<title>Node5</title>
<g id="a_Node000005"><a xlink:href="../../d1/d95/arkemscripten_2main_8cpp.html" target="_top" xlink:title=" ">
<polygon fill="white" stroke="#666666" points="483.75,-41.75 325.25,-41.75 325.25,0 483.75,0 483.75,-41.75"/>
<text text-anchor="start" x="333.25" y="-28.25" font-family="Helvetica,sans-Serif" font-size="10.00">/Users/fola/Documents</text>
<text text-anchor="start" x="333.25" y="-17" font-family="Helvetica,sans-Serif" font-size="10.00">/ArkScript/Ark/src/arkemscripten</text>
<text text-anchor="middle" x="404.5" y="-5.75" font-family="Helvetica,sans-Serif" font-size="10.00">/main.cpp</text>
</a>
</g>
</g>
<!-- Node4&#45;&gt;Node5 -->
<g id="edge4_Node000004_Node000005" class="edge">
<title>Node4&#45;&gt;Node5</title>
<g id="a_edge4_Node000004_Node000005"><a xlink:title=" ">
<path fill="none" stroke="#63b8ff" d="M520.67,-72.74C498.09,-62.85 472.43,-51.62 450.99,-42.23"/>
<polygon fill="#63b8ff" stroke="#63b8ff" points="519.19,-75.91 529.75,-76.72 522,-69.5 519.19,-75.91"/>
</a>
</g>
</g>
<!-- Node6 -->
<g id="Node000006" class="node">
<title>Node6</title>
<g id="a_Node000006"><a xlink:href="../../dc/d32/Ark_8cpp.html" target="_top" xlink:title=" ">
<polygon fill="white" stroke="#666666" points="642.75,-41.75 502.25,-41.75 502.25,0 642.75,0 642.75,-41.75"/>
<text text-anchor="start" x="510.25" y="-28.25" font-family="Helvetica,sans-Serif" font-size="10.00">/Users/fola/Documents</text>
<text text-anchor="start" x="510.25" y="-17" font-family="Helvetica,sans-Serif" font-size="10.00">/ArkScript/Ark/src/arkreactor</text>
<text text-anchor="middle" x="572.5" y="-5.75" font-family="Helvetica,sans-Serif" font-size="10.00">/Ark.cpp</text>
</a>
</g>
</g>
<!-- Node4&#45;&gt;Node6 -->
<g id="edge5_Node000004_Node000006" class="edge">
<title>Node4&#45;&gt;Node6</title>
<g id="a_edge5_Node000004_Node000006"><a xlink:title=" ">
<path fill="none" stroke="#63b8ff" d="M575.41,-66C574.88,-57.96 574.33,-49.54 573.84,-42.23"/>
<polygon fill="#63b8ff" stroke="#63b8ff" points="571.91,-66.07 576.06,-75.82 578.89,-65.61 571.91,-66.07"/>
</a>
</g>
</g>
<!-- Node8 -->
<g id="Node000008" class="node">
<title>Node8</title>
<g id="a_Node000008"><a xlink:href="../../db/d71/JsonCompiler_8cpp.html" target="_top" xlink:title=" ">
<polygon fill="white" stroke="#666666" points="795.75,-41.75 661.25,-41.75 661.25,0 795.75,0 795.75,-41.75"/>
<text text-anchor="start" x="669.25" y="-28.25" font-family="Helvetica,sans-Serif" font-size="10.00">/Users/fola/Documents</text>
<text text-anchor="start" x="669.25" y="-17" font-family="Helvetica,sans-Serif" font-size="10.00">/ArkScript/Ark/src/arkscript</text>
<text text-anchor="middle" x="728.5" y="-5.75" font-family="Helvetica,sans-Serif" font-size="10.00">/JsonCompiler.cpp</text>
</a>
</g>
</g>
<!-- Node7&#45;&gt;Node8 -->
<g id="edge7_Node000007_Node000008" class="edge">
<title>Node7&#45;&gt;Node8</title>
<g id="a_edge7_Node000007_Node000008"><a xlink:title=" ">
<path fill="none" stroke="#63b8ff" d="M725,-66C725.64,-57.96 726.31,-49.54 726.89,-42.23"/>
<polygon fill="#63b8ff" stroke="#63b8ff" points="721.53,-65.57 724.23,-75.82 728.51,-66.12 721.53,-65.57"/>
</a>
</g>
</g>
<!-- Node9 -->
<g id="Node000009" class="node">
<title>Node9</title>
<g id="a_Node000009"><a xlink:href="../../d0/d46/arkscript_2main_8cpp.html" target="_top" xlink:title=" ">
<polygon fill="white" stroke="#666666" points="948.75,-41.75 814.25,-41.75 814.25,0 948.75,0 948.75,-41.75"/>
<text text-anchor="start" x="822.25" y="-28.25" font-family="Helvetica,sans-Serif" font-size="10.00">/Users/fola/Documents</text>
<text text-anchor="start" x="822.25" y="-17" font-family="Helvetica,sans-Serif" font-size="10.00">/ArkScript/Ark/src/arkscript</text>
<text text-anchor="middle" x="881.5" y="-5.75" font-family="Helvetica,sans-Serif" font-size="10.00">/main.cpp</text>
</a>
</g>
</g>
<!-- Node7&#45;&gt;Node9 -->
<g id="edge8_Node000007_Node000009" class="edge">
<title>Node7&#45;&gt;Node9</title>
<g id="a_edge8_Node000007_Node000009"><a xlink:title=" ">
<path fill="none" stroke="#63b8ff" d="M775.3,-72.47C795.91,-62.65 819.24,-51.54 838.77,-42.23"/>
<polygon fill="#63b8ff" stroke="#63b8ff" points="774,-69.21 766.48,-76.67 777.01,-75.53 774,-69.21"/>
</a>
</g>
</g>
<!-- Node14&#45;&gt;Node3 -->
<g id="edge15_Node000014_Node000003" class="edge">
<title>Node14&#45;&gt;Node3</title>
<g id="a_edge15_Node000014_Node000003"><a xlink:title=" ">
<path fill="none" stroke="#63b8ff" d="M331.43,-244.24C440.98,-224.48 472.8,-234.13 577.5,-208.5 583.5,-207.03 589.7,-205.27 595.83,-203.36"/>
<polygon fill="#63b8ff" stroke="#63b8ff" points="330.9,-240.77 321.71,-246.04 332.18,-247.66 330.9,-240.77"/>
</a>
</g>
</g>
<!-- Node15 -->
<g id="Node000015" class="node">
<title>Node15</title>
<g id="a_Node000015"><a xlink:href="../../d1/dfa/IRCompiler_8cpp.html" target="_top" xlink:title=" ">
<polygon fill="white" stroke="#666666" points="181,-208.5 0,-208.5 0,-155.5 181,-155.5 181,-208.5"/>
<text text-anchor="start" x="8" y="-195" font-family="Helvetica,sans-Serif" font-size="10.00">/Users/fola/Documents</text>
<text text-anchor="start" x="8" y="-183.75" font-family="Helvetica,sans-Serif" font-size="10.00">/ArkScript/Ark/src/arkreactor</text>
<text text-anchor="start" x="8" y="-172.5" font-family="Helvetica,sans-Serif" font-size="10.00">/Compiler/IntermediateRepresentation</text>
<text text-anchor="middle" x="90.5" y="-161.25" font-family="Helvetica,sans-Serif" font-size="10.00">/IRCompiler.cpp</text>
</a>
</g>
</g>
<!-- Node14&#45;&gt;Node15 -->
<g id="edge16_Node000014_Node000015" class="edge">
<title>Node14&#45;&gt;Node15</title>
<g id="a_edge16_Node000014_Node000015"><a xlink:title=" ">
<path fill="none" stroke="#63b8ff" d="M172.66,-237.98C158.36,-228.41 142.86,-218.04 129.23,-208.92"/>
<polygon fill="#63b8ff" stroke="#63b8ff" points="170.33,-240.64 180.59,-243.29 174.23,-234.82 170.33,-240.64"/>
</a>
</g>
</g>
<!-- Node16&#45;&gt;Node3 -->
<g id="edge18_Node000016_Node000003" class="edge">
<title>Node16&#45;&gt;Node3</title>
<g id="a_edge18_Node000016_Node000003"><a xlink:title=" ">
<path fill="none" stroke="#63b8ff" d="M511.39,-239.82C540.92,-227.76 574.15,-214.19 600.72,-203.33"/>
<polygon fill="#63b8ff" stroke="#63b8ff" points="510.45,-236.42 502.52,-243.44 513.1,-242.9 510.45,-236.42"/>
</a>
</g>
</g>
<!-- Node17 -->
<g id="Node000017" class="node">
<title>Node17</title>
<g id="a_Node000017"><a xlink:href="../../d0/da9/IROptimizer_8cpp.html" target="_top" xlink:title=" ">
<polygon fill="white" stroke="#666666" points="380,-208.5 199,-208.5 199,-155.5 380,-155.5 380,-208.5"/>
<text text-anchor="start" x="207" y="-195" font-family="Helvetica,sans-Serif" font-size="10.00">/Users/fola/Documents</text>
<text text-anchor="start" x="207" y="-183.75" font-family="Helvetica,sans-Serif" font-size="10.00">/ArkScript/Ark/src/arkreactor</text>
<text text-anchor="start" x="207" y="-172.5" font-family="Helvetica,sans-Serif" font-size="10.00">/Compiler/IntermediateRepresentation</text>
<text text-anchor="middle" x="289.5" y="-161.25" font-family="Helvetica,sans-Serif" font-size="10.00">/IROptimizer.cpp</text>
</a>
</g>
</g>
<!-- Node16&#45;&gt;Node17 -->
<g id="edge19_Node000016_Node000017" class="edge">
<title>Node16&#45;&gt;Node17</title>
<g id="a_edge19_Node000016_Node000017"><a xlink:title=" ">
<path fill="none" stroke="#63b8ff" d="M383.96,-238.53C367.42,-228.81 349.41,-218.22 333.59,-208.92"/>
<polygon fill="#63b8ff" stroke="#63b8ff" points="381.8,-241.32 392.19,-243.37 385.34,-235.28 381.8,-241.32"/>
</a>
</g>
</g>
<!-- Node18&#45;&gt;Node3 -->
<g id="edge21_Node000018_Node000003" class="edge">
<title>Node18&#45;&gt;Node3</title>
<g id="a_edge21_Node000018_Node000003"><a xlink:title=" ">
<path fill="none" stroke="#63b8ff" d="M649.86,-238.64C650,-226.9 650.15,-213.87 650.27,-203.37"/>
<polygon fill="#63b8ff" stroke="#63b8ff" points="646.36,-238.27 649.75,-248.31 653.36,-238.35 646.36,-238.27"/>
</a>
</g>
</g>
<!-- Node19 -->
<g id="Node000019" class="node">
<title>Node19</title>
<g id="a_Node000019"><a xlink:href="../../d2/d5e/ASTLowerer_8cpp.html" target="_top" xlink:title=" ">
<polygon fill="white" stroke="#666666" points="568.75,-202.88 398.25,-202.88 398.25,-161.12 568.75,-161.12 568.75,-202.88"/>
<text text-anchor="start" x="406.25" y="-189.38" font-family="Helvetica,sans-Serif" font-size="10.00">/Users/fola/Documents</text>
<text text-anchor="start" x="406.25" y="-178.12" font-family="Helvetica,sans-Serif" font-size="10.00">/ArkScript/Ark/src/arkreactor</text>
<text text-anchor="middle" x="483.5" y="-166.88" font-family="Helvetica,sans-Serif" font-size="10.00">/Compiler/Lowerer/ASTLowerer.cpp</text>
</a>
</g>
</g>
<!-- Node18&#45;&gt;Node19 -->
<g id="edge22_Node000018_Node000019" class="edge">
<title>Node18&#45;&gt;Node19</title>
<g id="a_edge22_Node000018_Node000019"><a xlink:title=" ">
<path fill="none" stroke="#63b8ff" d="M600.98,-244.57C575.95,-231.45 545.84,-215.67 522.37,-203.37"/>
<polygon fill="#63b8ff" stroke="#63b8ff" points="599.18,-247.58 609.66,-249.12 602.43,-241.38 599.18,-247.58"/>
</a>
</g>
</g>
<!-- Node20&#45;&gt;Node3 -->
<g id="edge24_Node000020_Node000003" class="edge">
<title>Node20&#45;&gt;Node3</title>
<g id="a_edge24_Node000020_Node000003"><a xlink:title=" ">
<path fill="none" stroke="#63b8ff" d="M942.62,-246.94C939.21,-246.1 935.82,-245.29 932.5,-244.5 856.92,-226.62 837.35,-225.2 761.5,-208.5 746.24,-205.14 729.83,-201.43 714.43,-197.9"/>
<polygon fill="#63b8ff" stroke="#63b8ff" points="941.59,-250.29 952.14,-249.3 943.27,-243.49 941.59,-250.29"/>
</a>
</g>
</g>
<!-- Node20&#45;&gt;Node10 -->
<g id="edge27_Node000020_Node000010" class="edge">
<title>Node20&#45;&gt;Node10</title>
<g id="a_edge27_Node000020_Node000010"><a xlink:title=" ">
<path fill="none" stroke="#63b8ff" d="M1117.54,-246.8C1120.57,-246.02 1123.56,-245.25 1126.5,-244.5 1190.4,-228.11 1225.57,-256.8 1270.5,-208.5 1292.85,-184.48 1293.82,-143.97 1292,-119.72"/>
<polygon fill="#63b8ff" stroke="#63b8ff" points="1116.78,-243.39 1107.98,-249.28 1118.54,-250.16 1116.78,-243.39"/>
</a>
</g>
</g>
<!-- Node21 -->
<g id="Node000021" class="node">
<title>Node21</title>
<g id="a_Node000021"><a xlink:href="../../d1/da9/Executor_8cpp.html" target="_top" xlink:title=" ">
<polygon fill="white" stroke="#666666" points="1085.12,-202.88 931.88,-202.88 931.88,-161.12 1085.12,-161.12 1085.12,-202.88"/>
<text text-anchor="start" x="939.88" y="-189.38" font-family="Helvetica,sans-Serif" font-size="10.00">/Users/fola/Documents</text>
<text text-anchor="start" x="939.88" y="-178.12" font-family="Helvetica,sans-Serif" font-size="10.00">/ArkScript/Ark/src/arkreactor</text>
<text text-anchor="middle" x="1008.5" y="-166.88" font-family="Helvetica,sans-Serif" font-size="10.00">/Compiler/Macros/Executor.cpp</text>
</a>
</g>
</g>
<!-- Node20&#45;&gt;Node21 -->
<g id="edge25_Node000020_Node000021" class="edge">
<title>Node20&#45;&gt;Node21</title>
<g id="a_edge25_Node000020_Node000021"><a xlink:title=" ">
<path fill="none" stroke="#63b8ff" d="M1021.93,-238.64C1019.1,-226.9 1015.95,-213.87 1013.42,-203.37"/>
<polygon fill="#63b8ff" stroke="#63b8ff" points="1018.53,-239.45 1024.27,-248.35 1025.33,-237.81 1018.53,-239.45"/>
</a>
</g>
</g>
<!-- Node22 -->
<g id="Node000022" class="node">
<title>Node22</title>
<g id="a_Node000022"><a xlink:href="../../d6/d69/Processor_8cpp.html" target="_top" xlink:title=" ">
<polygon fill="white" stroke="#666666" points="1261.75,-202.88 1103.25,-202.88 1103.25,-161.12 1261.75,-161.12 1261.75,-202.88"/>
<text text-anchor="start" x="1111.25" y="-189.38" font-family="Helvetica,sans-Serif" font-size="10.00">/Users/fola/Documents</text>
<text text-anchor="start" x="1111.25" y="-178.12" font-family="Helvetica,sans-Serif" font-size="10.00">/ArkScript/Ark/src/arkreactor</text>
<text text-anchor="middle" x="1182.5" y="-166.88" font-family="Helvetica,sans-Serif" font-size="10.00">/Compiler/Macros/Processor.cpp</text>
</a>
</g>
</g>
<!-- Node20&#45;&gt;Node22 -->
<g id="edge26_Node000020_Node000022" class="edge">
<title>Node20&#45;&gt;Node22</title>
<g id="a_edge26_Node000020_Node000022"><a xlink:title=" ">
<path fill="none" stroke="#63b8ff" d="M1074.84,-244.22C1097.78,-231.17 1125.24,-215.56 1146.68,-203.37"/>
<polygon fill="#63b8ff" stroke="#63b8ff" points="1073.26,-241.09 1066.3,-249.07 1076.72,-247.17 1073.26,-241.09"/>
</a>
</g>
</g>
<!-- Node23&#45;&gt;Node3 -->
<g id="edge29_Node000023_Node000003" class="edge">
<title>Node23&#45;&gt;Node3</title>
<g id="a_edge29_Node000023_Node000003"><a xlink:title=" ">
<path fill="none" stroke="#63b8ff" d="M1124.04,-244.19C964.53,-213.89 918.76,-234.21 761.5,-208.5 746.18,-206 729.82,-202.63 714.5,-199.17"/>
<polygon fill="#63b8ff" stroke="#63b8ff" points="1123.25,-247.6 1133.73,-246.07 1124.58,-240.73 1123.25,-247.6"/>
</a>
</g>
</g>
<!-- Node23&#45;&gt;Node10 -->
<g id="edge31_Node000023_Node000010" class="edge">
<title>Node23&#45;&gt;Node10</title>
<g id="a_edge31_Node000023_Node000010"><a xlink:title=" ">
<path fill="none" stroke="#63b8ff" d="M1299.07,-244.47C1365.99,-234.42 1503.3,-247.05 1536.5,-208.5 1551.87,-190.65 1551.2,-173.9 1536.5,-155.5 1514.75,-128.28 1425.25,-113.35 1360.23,-105.92"/>
<polygon fill="#63b8ff" stroke="#63b8ff" points="1298.51,-241.02 1289.31,-246.27 1299.78,-247.9 1298.51,-241.02"/>
</a>
</g>
</g>
<!-- Node24 -->
<g id="Node000024" class="node">
<title>Node24</title>
<g id="a_Node000024"><a xlink:href="../../de/dd7/NameResolutionPass_8cpp.html" target="_top" xlink:title=" ">
<polygon fill="white" stroke="#666666" points="1527.25,-208.5 1317.75,-208.5 1317.75,-155.5 1527.25,-155.5 1527.25,-208.5"/>
<text text-anchor="start" x="1325.75" y="-195" font-family="Helvetica,sans-Serif" font-size="10.00">/Users/fola/Documents</text>
<text text-anchor="start" x="1325.75" y="-183.75" font-family="Helvetica,sans-Serif" font-size="10.00">/ArkScript/Ark/src/arkreactor</text>
<text text-anchor="start" x="1325.75" y="-172.5" font-family="Helvetica,sans-Serif" font-size="10.00">/Compiler/NameResolution/NameResolution</text>
<text text-anchor="middle" x="1422.5" y="-161.25" font-family="Helvetica,sans-Serif" font-size="10.00">Pass.cpp</text>
</a>
</g>
</g>
<!-- Node23&#45;&gt;Node24 -->
<g id="edge30_Node000023_Node000024" class="edge">
<title>Node23&#45;&gt;Node24</title>
<g id="a_edge30_Node000023_Node000024"><a xlink:title=" ">
<path fill="none" stroke="#63b8ff" d="M1285.15,-239.63C1309.5,-229.59 1336.35,-218.52 1359.8,-208.85"/>
<polygon fill="#63b8ff" stroke="#63b8ff" points="1283.83,-236.39 1275.92,-243.44 1286.5,-242.86 1283.83,-236.39"/>
</a>
</g>
</g>
<!-- Node25&#45;&gt;Node3 -->
<g id="edge33_Node000025_Node000003" class="edge">
<title>Node25&#45;&gt;Node3</title>
<g id="a_edge33_Node000025_Node000003"><a xlink:title=" ">
<path fill="none" stroke="#63b8ff" d="M1313.39,-247.42C1307.7,-246.33 1302.03,-245.35 1296.5,-244.5 1060.92,-208.5 997.26,-243.29 761.5,-208.5 746.14,-206.23 729.77,-202.96 714.44,-199.51"/>
<polygon fill="#63b8ff" stroke="#63b8ff" points="1312.38,-250.79 1322.87,-249.33 1313.76,-243.93 1312.38,-250.79"/>
</a>
</g>
</g>
<!-- Node25&#45;&gt;Node10 -->
<g id="edge35_Node000025_Node000010" class="edge">
<title>Node25&#45;&gt;Node10</title>
<g id="a_edge35_Node000025_Node000010"><a xlink:title=" ">
<path fill="none" stroke="#63b8ff" d="M1494.45,-247.3C1499.19,-246.31 1503.9,-245.37 1508.5,-244.5 1628.51,-221.81 1849.71,-246.73 1768.5,-155.5 1741.81,-125.52 1486.37,-109.1 1359.83,-102.75"/>
<polygon fill="#63b8ff" stroke="#63b8ff" points="1493.87,-243.84 1484.83,-249.37 1495.34,-250.69 1493.87,-243.84"/>
</a>
</g>
</g>
<!-- Node26 -->
<g id="Node000026" class="node">
<title>Node26</title>
<g id="a_Node000026"><a xlink:href="../../d6/d41/ImportSolver_8cpp.html" target="_top" xlink:title=" ">
<polygon fill="white" stroke="#666666" points="1759.38,-202.88 1583.62,-202.88 1583.62,-161.12 1759.38,-161.12 1759.38,-202.88"/>
<text text-anchor="start" x="1591.62" y="-189.38" font-family="Helvetica,sans-Serif" font-size="10.00">/Users/fola/Documents</text>
<text text-anchor="start" x="1591.62" y="-178.12" font-family="Helvetica,sans-Serif" font-size="10.00">/ArkScript/Ark/src/arkreactor</text>
<text text-anchor="middle" x="1671.5" y="-166.88" font-family="Helvetica,sans-Serif" font-size="10.00">/Compiler/Package/ImportSolver.cpp</text>
</a>
</g>
</g>
<!-- Node25&#45;&gt;Node26 -->
<g id="edge34_Node000025_Node000026" class="edge">
<title>Node25&#45;&gt;Node26</title>
<g id="a_edge34_Node000025_Node000026"><a xlink:title=" ">
<path fill="none" stroke="#63b8ff" d="M1476.12,-246.19C1517.66,-232.75 1569.03,-216.14 1608.67,-203.32"/>
<polygon fill="#63b8ff" stroke="#63b8ff" points="1475.11,-242.84 1466.67,-249.25 1477.26,-249.5 1475.11,-242.84"/>
</a>
</g>
</g>
</g>
</svg>

<g id="navigator" transform="translate(0 0)" fill="#404254">
  <rect fill="#f2f5e9" fill-opacity="0.5" stroke="#606060" stroke-width=".5" x="0" y="0" width="60" height="60"/>
  <use id="zoomplus" xlink:href="#zoomPlus" x="17" y="9" onmousedown="handleZoom(evt,'in')"/>
  <use id="zoomminus" xlink:href="#zoomMin" x="42" y="9" onmousedown="handleZoom(evt,'out')"/>
  <use id="reset" xlink:href="#resetDef" x="30" y="36" onmousedown="handleReset()"/>
   <use id="arrowup" xlink:href="#arrowUp" x="0" y="0" onmousedown="handlePan(0,-1)"/>
  <use id="arrowright" xlink:href="#arrowRight" x="0" y="0" onmousedown="handlePan(1,0)"/>
  <use id="arrowdown" xlink:href="#arrowDown" x="0" y="0" onmousedown="handlePan(0,1)"/>
  <use id="arrowleft" xlink:href="#arrowLeft" x="0" y="0" onmousedown="handlePan(-1,0)"/>
</g>
<svg viewBox="0 0 15 15" width="100%" height="30px" preserveAspectRatio="xMaxYMin meet">
 <g id="arrow_out" transform="scale(0.3 0.3)">
  <a xlink:href="Pass_8hpp__dep__incl_org.svg" target="_base">
   <rect id="button" ry="5" rx="5" y="6" x="6" height="38" width="38"
        fill="#f2f5e9" fill-opacity="0.5" stroke="#606060" stroke-width="1.0"/>
   <path id="arrow"
     d="M 11.500037,31.436501 C 11.940474,20.09759 22.043105,11.32322 32.158766,21.979434 L 37.068811,17.246167 C 37.068811,17.246167 37.088388,32 37.088388,32 L 22.160133,31.978069 C 22.160133,31.978069 26.997745,27.140456 26.997745,27.140456 C 18.528582,18.264221 13.291696,25.230495 11.500037,31.436501 z"
     style="fill:#404040;"/>
  </a>
 </g>
</svg>

<style type='text/css'>
<![CDATA[
[data-mouse-over-selected='false'] { opacity: 0.7; }
[data-mouse-over-selected='true']  { opacity: 1.0; }
]]>
</style>
<script type="application/ecmascript"><![CDATA[
document.addEventListener('DOMContentLoaded', (event) => {
  highlightEdges();
  highlightAdjacentNodes();
});
]]></script>
</svg>
