<?xml version="1.0" encoding="UTF-8" standalone="no"?>
<!DOCTYPE svg PUBLIC "-//W3C//DTD SVG 1.1//EN"
 "http://www.w3.org/Graphics/SVG/1.1/DTD/svg11.dtd">
<!-- Generated by graphviz version 12.2.0 (20241103.1931)
 -->
<!-- Title: /Users/fola/Documents/ArkScript/Ark/include/Ark/Compiler/Pass.hpp Pages: 1 -->
<!--zoomable 383 -->

<svg id="main" version="1.1" xmlns="http://www.w3.org/2000/svg" xmlns:xlink="http://www.w3.org/1999/xlink" xml:space="preserve" onload="init(evt)">

<style type="text/css"><![CDATA[
.node, .edge {opacity: 0.7;}
.node.selected, .edge.selected {opacity: 1;}
.edge:hover path { stroke: red; }
.edge:hover polygon { stroke: red; fill: red; }
]]></style>

<defs>
  <circle id="rim" cx="0" cy="0" r="7"/>
  <circle id="rim2" cx="0" cy="0" r="3.5"/>
  <g id="zoomPlus">
    <use xlink:href="#rim" fill="#404040"><set attributeName="fill" to="#808080" begin="zoomplus.mouseover" end="zoomplus.mouseout"/></use>
    <path d="M-4,0h8M0,-4v8" fill="none" stroke="white" stroke-width="1.5" pointer-events="none"/>
  </g>
  <g id="zoomMin">
    <use xlink:href="#rim" fill="#404040"><set attributeName="fill" to="#808080" begin="zoomminus.mouseover" end="zoomminus.mouseout"/></use>
    <path d="M-4,0h8" fill="none" stroke="white" stroke-width="1.5" pointer-events="none"/>
  </g>
  <g id="arrowUp" transform="translate(30 24)">
    <use xlink:href="#rim"/>
    <path pointer-events="none" fill="none" stroke="white" stroke-width="1.5" d="M0,-3.0v7 M-2.5,-0.5L0,-3.0L2.5,-0.5"/>
  </g>
  <g id="arrowRight" transform="rotate(90) translate(36 -43)">
    <use xlink:href="#rim"/>
    <path pointer-events="none" fill="none" stroke="white" stroke-width="1.5" d="M0,-3.0v7 M-2.5,-0.5L0,-3.0L2.5,-0.5"/>
  </g>
  <g id="arrowDown" transform="rotate(180) translate(-30 -48)">
    <use xlink:href="#rim"/>
    <path pointer-events="none" fill="none" stroke="white" stroke-width="1.5" d="M0,-3.0v7 M-2.5,-0.5L0,-3.0L2.5,-0.5"/>
  </g>
  <g id="arrowLeft" transform="rotate(270) translate(-36 17)">
    <use xlink:href="#rim"/>
    <path pointer-events="none" fill="none" stroke="white" stroke-width="1.5" d="M0,-3.0v7 M-2.5,-0.5L0,-3.0L2.5,-0.5"/>
  </g>
  <g id="resetDef">
    <use xlink:href="#rim2" fill="#404040"><set attributeName="fill" to="#808080" begin="reset.mouseover" end="reset.mouseout"/></use>
  </g>
</defs>
<script type="application/ecmascript">
var viewWidth = 1293;
var viewHeight = 383;
var sectionId = 'dynsection-1';
</script>
<script type="application/ecmascript" xlink:href="../../svg.min.js"/>
<svg id="graph" class="graph">
<g id="viewport">
<title>/Users/fola/Documents/ArkScript/Ark/include/Ark/Compiler/Pass.hpp</title>
<!-- Node1 -->
<g id="Node000001" class="node">
<title>Node1</title>
<g id="a_Node000001"><a xlink:title="Interface for a compiler pass (take in an AST, output an AST)">
<polygon fill="#999999" stroke="#666666" points="807.38,-375.25 687.12,-375.25 687.12,-333.5 807.38,-333.5 807.38,-375.25"/>
<text text-anchor="start" x="695.12" y="-361.75" font-family="Helvetica,sans-Serif" font-size="10.00">/Users/fola/Documents</text>
<text text-anchor="start" x="695.12" y="-350.5" font-family="Helvetica,sans-Serif" font-size="10.00">/ArkScript/Ark/include</text>
<text text-anchor="middle" x="747.25" y="-339.25" font-family="Helvetica,sans-Serif" font-size="10.00">/Ark/Compiler/Pass.hpp</text>
</a>
</g>
</g>
<!-- Node2 -->
<g id="Node000002" class="node">
<title>Node2</title>
<g id="a_Node000002"><a xlink:href="../../db/d93/Optimizer_8hpp.html" target="_top" xlink:title="Optimizes a given ArkScript AST.">
<polygon fill="white" stroke="#666666" points="399,-291.88 237.5,-291.88 237.5,-250.12 399,-250.12 399,-291.88"/>
<text text-anchor="start" x="245.5" y="-278.38" font-family="Helvetica,sans-Serif" font-size="10.00">/Users/fola/Documents</text>
<text text-anchor="start" x="245.5" y="-267.12" font-family="Helvetica,sans-Serif" font-size="10.00">/ArkScript/Ark/include</text>
<text text-anchor="middle" x="318.25" y="-255.88" font-family="Helvetica,sans-Serif" font-size="10.00">/Ark/Compiler/AST/Optimizer.hpp</text>
</a>
</g>
</g>
<!-- Node1&#45;&gt;Node2 -->
<g id="edge1_Node000001_Node000002" class="edge">
<title>Node1&#45;&gt;Node2</title>
<g id="a_edge1_Node000001_Node000002"><a xlink:title=" ">
<path fill="none" stroke="#63b8ff" d="M675.78,-339.82C599.57,-325.36 479.09,-302.51 399.37,-287.39"/>
<polygon fill="#63b8ff" stroke="#63b8ff" points="674.73,-343.18 685.21,-341.61 676.04,-336.3 674.73,-343.18"/>
</a>
</g>
</g>
<!-- Node13 -->
<g id="Node000013" class="node">
<title>Node13</title>
<g id="a_Node000013"><a xlink:href="../../de/db1/Processor_8hpp.html" target="_top" xlink:title="Handles the macros and their expansion in ArkScript source code.">
<polygon fill="white" stroke="#666666" points="835.5,-291.88 659,-291.88 659,-250.12 835.5,-250.12 835.5,-291.88"/>
<text text-anchor="start" x="667" y="-278.38" font-family="Helvetica,sans-Serif" font-size="10.00">/Users/fola/Documents</text>
<text text-anchor="start" x="667" y="-267.12" font-family="Helvetica,sans-Serif" font-size="10.00">/ArkScript/Ark/include</text>
<text text-anchor="middle" x="747.25" y="-255.88" font-family="Helvetica,sans-Serif" font-size="10.00">/Ark/Compiler/Macros/Processor.hpp</text>
</a>
</g>
</g>
<!-- Node1&#45;&gt;Node13 -->
<g id="edge13_Node000001_Node000013" class="edge">
<title>Node1&#45;&gt;Node13</title>
<g id="a_edge13_Node000001_Node000013"><a xlink:title=" ">
<path fill="none" stroke="#63b8ff" d="M747.25,-322.02C747.25,-311.99 747.25,-301.17 747.25,-292.17"/>
<polygon fill="#63b8ff" stroke="#63b8ff" points="743.75,-321.75 747.25,-331.75 750.75,-321.75 743.75,-321.75"/>
</a>
</g>
</g>
<!-- Node16 -->
<g id="Node000016" class="node">
<title>Node16</title>
<g id="a_Node000016"><a xlink:href="../../d4/de8/NameResolutionPass_8hpp.html" target="_top" xlink:title="Resolves names and fully qualify them in the AST (prefixing them with the package they are from)">
<polygon fill="white" stroke="#666666" points="641.12,-297.5 489.38,-297.5 489.38,-244.5 641.12,-244.5 641.12,-297.5"/>
<text text-anchor="start" x="497.38" y="-284" font-family="Helvetica,sans-Serif" font-size="10.00">/Users/fola/Documents</text>
<text text-anchor="start" x="497.38" y="-272.75" font-family="Helvetica,sans-Serif" font-size="10.00">/ArkScript/Ark/include</text>
<text text-anchor="start" x="497.38" y="-261.5" font-family="Helvetica,sans-Serif" font-size="10.00">/Ark/Compiler/NameResolution</text>
<text text-anchor="middle" x="565.25" y="-250.25" font-family="Helvetica,sans-Serif" font-size="10.00">/NameResolutionPass.hpp</text>
</a>
</g>
</g>
<!-- Node1&#45;&gt;Node16 -->
<g id="edge18_Node000001_Node000016" class="edge">
<title>Node1&#45;&gt;Node16</title>
<g id="a_edge18_Node000001_Node000016"><a xlink:title=" ">
<path fill="none" stroke="#63b8ff" d="M691.45,-328.43C669.81,-318.75 645.03,-307.67 623.19,-297.91"/>
<polygon fill="#63b8ff" stroke="#63b8ff" points="689.85,-331.55 700.41,-332.43 692.71,-325.16 689.85,-331.55"/>
</a>
</g>
</g>
<!-- Node18 -->
<g id="Node000018" class="node">
<title>Node18</title>
<g id="a_Node000018"><a xlink:href="../../d1/db0/ImportSolver_8hpp.html" target="_top" xlink:title="Handle imports, resolve them with modules and everything.">
<polygon fill="white" stroke="#666666" points="1047.12,-291.88 853.38,-291.88 853.38,-250.12 1047.12,-250.12 1047.12,-291.88"/>
<text text-anchor="start" x="861.38" y="-278.38" font-family="Helvetica,sans-Serif" font-size="10.00">/Users/fola/Documents</text>
<text text-anchor="start" x="861.38" y="-267.12" font-family="Helvetica,sans-Serif" font-size="10.00">/ArkScript/Ark/include</text>
<text text-anchor="middle" x="950.25" y="-255.88" font-family="Helvetica,sans-Serif" font-size="10.00">/Ark/Compiler/Package/ImportSolver.hpp</text>
</a>
</g>
</g>
<!-- Node1&#45;&gt;Node18 -->
<g id="edge22_Node000001_Node000018" class="edge">
<title>Node1&#45;&gt;Node18</title>
<g id="a_edge22_Node000001_Node000018"><a xlink:title=" ">
<path fill="none" stroke="#63b8ff" d="M808.41,-328.86C837.5,-317.2 871.87,-303.42 899.49,-292.35"/>
<polygon fill="#63b8ff" stroke="#63b8ff" points="807.34,-325.52 799.36,-332.49 809.94,-332.02 807.34,-325.52"/>
</a>
</g>
</g>
<!-- Node20 -->
<g id="Node000020" class="node">
<title>Node20</title>
<g id="a_Node000020"><a xlink:href="../../d8/d54/Pass_8cpp.html" target="_top" xlink:title=" ">
<polygon fill="white" stroke="#666666" points="1205.5,-291.88 1065,-291.88 1065,-250.12 1205.5,-250.12 1205.5,-291.88"/>
<text text-anchor="start" x="1073" y="-278.38" font-family="Helvetica,sans-Serif" font-size="10.00">/Users/fola/Documents</text>
<text text-anchor="start" x="1073" y="-267.12" font-family="Helvetica,sans-Serif" font-size="10.00">/ArkScript/Ark/src/arkreactor</text>
<text text-anchor="middle" x="1135.25" y="-255.88" font-family="Helvetica,sans-Serif" font-size="10.00">/Compiler/Pass.cpp</text>
</a>
</g>
</g>
<!-- Node1&#45;&gt;Node20 -->
<g id="edge26_Node000001_Node000020" class="edge">
<title>Node1&#45;&gt;Node20</title>
<g id="a_edge26_Node000001_Node000020"><a xlink:title=" ">
<path fill="none" stroke="#63b8ff" d="M818.86,-343.2C881.86,-333.59 975.81,-317.66 1056.25,-297.5 1062.4,-295.96 1068.77,-294.19 1075.1,-292.33"/>
<polygon fill="#63b8ff" stroke="#63b8ff" points="818.72,-339.68 809.36,-344.63 819.77,-346.6 818.72,-339.68"/>
</a>
</g>
</g>
<!-- Node3 -->
<g id="Node000003" class="node">
<title>Node3</title>
<g id="a_Node000003"><a xlink:href="../../de/d8e/Welder_8hpp.html" target="_top" xlink:title="In charge of welding everything needed to compile code.">
<polygon fill="white" stroke="#666666" points="628.75,-202.88 501.75,-202.88 501.75,-161.12 628.75,-161.12 628.75,-202.88"/>
<text text-anchor="start" x="509.75" y="-189.38" font-family="Helvetica,sans-Serif" font-size="10.00">/Users/fola/Documents</text>
<text text-anchor="start" x="509.75" y="-178.12" font-family="Helvetica,sans-Serif" font-size="10.00">/ArkScript/Ark/include</text>
<text text-anchor="middle" x="565.25" y="-166.88" font-family="Helvetica,sans-Serif" font-size="10.00">/Ark/Compiler/Welder.hpp</text>
</a>
</g>
</g>
<!-- Node2&#45;&gt;Node3 -->
<g id="edge2_Node000002_Node000003" class="edge">
<title>Node2&#45;&gt;Node3</title>
<g id="a_edge2_Node000002_Node000003"><a xlink:title=" ">
<path fill="none" stroke="#63b8ff" d="M386.87,-245.93C419.16,-234.59 458.19,-220.87 493.25,-208.5 498,-206.82 502.93,-205.08 507.88,-203.33"/>
<polygon fill="#63b8ff" stroke="#63b8ff" points="385.9,-242.56 377.63,-249.17 388.22,-249.16 385.9,-242.56"/>
</a>
</g>
</g>
<!-- Node10 -->
<g id="Node000010" class="node">
<title>Node10</title>
<g id="a_Node000010"><a xlink:href="../../d3/df1/Welder_8cpp.html" target="_top" xlink:title=" ">
<polygon fill="white" stroke="#666666" points="779.5,-119.5 639,-119.5 639,-77.75 779.5,-77.75 779.5,-119.5"/>
<text text-anchor="start" x="647" y="-106" font-family="Helvetica,sans-Serif" font-size="10.00">/Users/fola/Documents</text>
<text text-anchor="start" x="647" y="-94.75" font-family="Helvetica,sans-Serif" font-size="10.00">/ArkScript/Ark/src/arkreactor</text>
<text text-anchor="middle" x="709.25" y="-83.5" font-family="Helvetica,sans-Serif" font-size="10.00">/Compiler/Welder.cpp</text>
</a>
</g>
</g>
<!-- Node2&#45;&gt;Node10 -->
<g id="edge12_Node000002_Node000010" class="edge">
<title>Node2&#45;&gt;Node10</title>
<g id="a_edge12_Node000002_Node000010"><a xlink:title=" ">
<path fill="none" stroke="#63b8ff" d="M288.47,-241.35C266.06,-216.37 242.75,-180.33 265.25,-155.5 319.82,-95.26 549.15,-133.34 629.25,-119.5 632.35,-118.96 635.51,-118.37 638.7,-117.74"/>
<polygon fill="#63b8ff" stroke="#63b8ff" points="285.86,-243.68 295.25,-248.59 290.97,-238.9 285.86,-243.68"/>
</a>
</g>
</g>
<!-- Node12 -->
<g id="Node000012" class="node">
<title>Node12</title>
<g id="a_Node000012"><a xlink:href="../../d2/dc5/Optimizer_8cpp.html" target="_top" xlink:title=" ">
<polygon fill="white" stroke="#666666" points="218,-202.88 74.5,-202.88 74.5,-161.12 218,-161.12 218,-202.88"/>
<text text-anchor="start" x="82.5" y="-189.38" font-family="Helvetica,sans-Serif" font-size="10.00">/Users/fola/Documents</text>
<text text-anchor="start" x="82.5" y="-178.12" font-family="Helvetica,sans-Serif" font-size="10.00">/ArkScript/Ark/src/arkreactor</text>
<text text-anchor="middle" x="146.25" y="-166.88" font-family="Helvetica,sans-Serif" font-size="10.00">/Compiler/AST/Optimizer.cpp</text>
</a>
</g>
</g>
<!-- Node2&#45;&gt;Node12 -->
<g id="edge11_Node000002_Node000012" class="edge">
<title>Node2&#45;&gt;Node12</title>
<g id="a_edge11_Node000002_Node000012"><a xlink:title=" ">
<path fill="none" stroke="#63b8ff" d="M268.32,-244.74C242.32,-231.59 210.95,-215.73 186.52,-203.37"/>
<polygon fill="#63b8ff" stroke="#63b8ff" points="266.5,-247.75 277.01,-249.14 269.66,-241.5 266.5,-247.75"/>
</a>
</g>
</g>
<!-- Node4 -->
<g id="Node000004" class="node">
<title>Node4</title>
<g id="a_Node000004"><a xlink:href="../../d3/d7e/Ark_8hpp.html" target="_top" xlink:title="Includes the needed files to start using ArkScript.">
<polygon fill="white" stroke="#666666" points="305.88,-119.5 188.62,-119.5 188.62,-77.75 305.88,-77.75 305.88,-119.5"/>
<text text-anchor="start" x="196.62" y="-106" font-family="Helvetica,sans-Serif" font-size="10.00">/Users/fola/Documents</text>
<text text-anchor="start" x="196.62" y="-94.75" font-family="Helvetica,sans-Serif" font-size="10.00">/ArkScript/Ark/include</text>
<text text-anchor="middle" x="247.25" y="-83.5" font-family="Helvetica,sans-Serif" font-size="10.00">/Ark/Ark.hpp</text>
</a>
</g>
</g>
<!-- Node3&#45;&gt;Node4 -->
<g id="edge3_Node000003_Node000004" class="edge">
<title>Node3&#45;&gt;Node4</title>
<g id="a_edge3_Node000003_Node000004"><a xlink:title=" ">
<path fill="none" stroke="#63b8ff" d="M499.22,-157.28C497.21,-156.66 495.22,-156.07 493.25,-155.5 490.96,-154.84 378.14,-129.26 306.1,-112.95"/>
<polygon fill="#63b8ff" stroke="#63b8ff" points="498,-160.56 508.59,-160.25 500.12,-153.89 498,-160.56"/>
</a>
</g>
</g>
<!-- Node7 -->
<g id="Node000007" class="node">
<title>Node7</title>
<g id="a_Node000007"><a xlink:href="../../dc/dfd/JsonCompiler_8hpp.html" target="_top" xlink:title=" ">
<polygon fill="white" stroke="#666666" points="461.88,-119.5 344.62,-119.5 344.62,-77.75 461.88,-77.75 461.88,-119.5"/>
<text text-anchor="start" x="352.62" y="-106" font-family="Helvetica,sans-Serif" font-size="10.00">/Users/fola/Documents</text>
<text text-anchor="start" x="352.62" y="-94.75" font-family="Helvetica,sans-Serif" font-size="10.00">/ArkScript/Ark/include</text>
<text text-anchor="middle" x="403.25" y="-83.5" font-family="Helvetica,sans-Serif" font-size="10.00">/CLI/JsonCompiler.hpp</text>
</a>
</g>
</g>
<!-- Node3&#45;&gt;Node7 -->
<g id="edge6_Node000003_Node000007" class="edge">
<title>Node3&#45;&gt;Node7</title>
<g id="a_edge6_Node000003_Node000007"><a xlink:title=" ">
<path fill="none" stroke="#63b8ff" d="M514.6,-155.56C491.79,-144.1 465.22,-130.75 443.76,-119.97"/>
<polygon fill="#63b8ff" stroke="#63b8ff" points="512.93,-158.64 523.44,-160 516.07,-152.38 512.93,-158.64"/>
</a>
</g>
</g>
<!-- Node3&#45;&gt;Node10 -->
<g id="edge9_Node000003_Node000010" class="edge">
<title>Node3&#45;&gt;Node10</title>
<g id="a_edge9_Node000003_Node000010"><a xlink:title=" ">
<path fill="none" stroke="#63b8ff" d="M611.09,-155.09C631.19,-143.74 654.42,-130.61 673.24,-119.97"/>
<polygon fill="#63b8ff" stroke="#63b8ff" points="609.52,-151.96 602.53,-159.93 612.96,-158.06 609.52,-151.96"/>
</a>
</g>
</g>
<!-- Node11 -->
<g id="Node000011" class="node">
<title>Node11</title>
<g id="a_Node000011"><a xlink:href="../../d0/da0/State_8cpp.html" target="_top" xlink:title=" ">
<polygon fill="white" stroke="#666666" points="620.5,-119.5 480,-119.5 480,-77.75 620.5,-77.75 620.5,-119.5"/>
<text text-anchor="start" x="488" y="-106" font-family="Helvetica,sans-Serif" font-size="10.00">/Users/fola/Documents</text>
<text text-anchor="start" x="488" y="-94.75" font-family="Helvetica,sans-Serif" font-size="10.00">/ArkScript/Ark/src/arkreactor</text>
<text text-anchor="middle" x="550.25" y="-83.5" font-family="Helvetica,sans-Serif" font-size="10.00">/VM/State.cpp</text>
</a>
</g>
</g>
<!-- Node3&#45;&gt;Node11 -->
<g id="edge10_Node000003_Node000011" class="edge">
<title>Node3&#45;&gt;Node11</title>
<g id="a_edge10_Node000003_Node000011"><a xlink:title=" ">
<path fill="none" stroke="#63b8ff" d="M559.47,-149.64C557.62,-139.62 555.63,-128.8 553.97,-119.79"/>
<polygon fill="#63b8ff" stroke="#63b8ff" points="556.01,-150.2 561.27,-159.4 562.9,-148.93 556.01,-150.2"/>
</a>
</g>
</g>
<!-- Node5 -->
<g id="Node000005" class="node">
<title>Node5</title>
<g id="a_Node000005"><a xlink:href="../../d1/d95/arkemscripten_2main_8cpp.html" target="_top" xlink:title=" ">
<polygon fill="white" stroke="#666666" points="158.5,-41.75 0,-41.75 0,0 158.5,0 158.5,-41.75"/>
<text text-anchor="start" x="8" y="-28.25" font-family="Helvetica,sans-Serif" font-size="10.00">/Users/fola/Documents</text>
<text text-anchor="start" x="8" y="-17" font-family="Helvetica,sans-Serif" font-size="10.00">/ArkScript/Ark/src/arkemscripten</text>
<text text-anchor="middle" x="79.25" y="-5.75" font-family="Helvetica,sans-Serif" font-size="10.00">/main.cpp</text>
</a>
</g>
</g>
<!-- Node4&#45;&gt;Node5 -->
<g id="edge4_Node000004_Node000005" class="edge">
<title>Node4&#45;&gt;Node5</title>
<g id="a_edge4_Node000004_Node000005"><a xlink:title=" ">
<path fill="none" stroke="#63b8ff" d="M191.76,-72.61C169.91,-62.75 145.13,-51.58 124.4,-42.23"/>
<polygon fill="#63b8ff" stroke="#63b8ff" points="190.29,-75.78 200.85,-76.7 193.17,-69.4 190.29,-75.78"/>
</a>
</g>
</g>
<!-- Node6 -->
<g id="Node000006" class="node">
<title>Node6</title>
<g id="a_Node000006"><a xlink:href="../../dc/d32/Ark_8cpp.html" target="_top" xlink:title=" ">
<polygon fill="white" stroke="#666666" points="317.5,-41.75 177,-41.75 177,0 317.5,0 317.5,-41.75"/>
<text text-anchor="start" x="185" y="-28.25" font-family="Helvetica,sans-Serif" font-size="10.00">/Users/fola/Documents</text>
<text text-anchor="start" x="185" y="-17" font-family="Helvetica,sans-Serif" font-size="10.00">/ArkScript/Ark/src/arkreactor</text>
<text text-anchor="middle" x="247.25" y="-5.75" font-family="Helvetica,sans-Serif" font-size="10.00">/Ark.cpp</text>
</a>
</g>
</g>
<!-- Node4&#45;&gt;Node6 -->
<g id="edge5_Node000004_Node000006" class="edge">
<title>Node4&#45;&gt;Node6</title>
<g id="a_edge5_Node000004_Node000006"><a xlink:title=" ">
<path fill="none" stroke="#63b8ff" d="M247.25,-66C247.25,-57.96 247.25,-49.54 247.25,-42.23"/>
<polygon fill="#63b8ff" stroke="#63b8ff" points="243.75,-65.81 247.25,-75.81 250.75,-65.81 243.75,-65.81"/>
</a>
</g>
</g>
<!-- Node8 -->
<g id="Node000008" class="node">
<title>Node8</title>
<g id="a_Node000008"><a xlink:href="../../db/d71/JsonCompiler_8cpp.html" target="_top" xlink:title=" ">
<polygon fill="white" stroke="#666666" points="470.5,-41.75 336,-41.75 336,0 470.5,0 470.5,-41.75"/>
<text text-anchor="start" x="344" y="-28.25" font-family="Helvetica,sans-Serif" font-size="10.00">/Users/fola/Documents</text>
<text text-anchor="start" x="344" y="-17" font-family="Helvetica,sans-Serif" font-size="10.00">/ArkScript/Ark/src/arkscript</text>
<text text-anchor="middle" x="403.25" y="-5.75" font-family="Helvetica,sans-Serif" font-size="10.00">/JsonCompiler.cpp</text>
</a>
</g>
</g>
<!-- Node7&#45;&gt;Node8 -->
<g id="edge7_Node000007_Node000008" class="edge">
<title>Node7&#45;&gt;Node8</title>
<g id="a_edge7_Node000007_Node000008"><a xlink:title=" ">
<path fill="none" stroke="#63b8ff" d="M403.25,-66C403.25,-57.96 403.25,-49.54 403.25,-42.23"/>
<polygon fill="#63b8ff" stroke="#63b8ff" points="399.75,-65.81 403.25,-75.81 406.75,-65.81 399.75,-65.81"/>
</a>
</g>
</g>
<!-- Node9 -->
<g id="Node000009" class="node">
<title>Node9</title>
<g id="a_Node000009"><a xlink:href="../../d0/d46/arkscript_2main_8cpp.html" target="_top" xlink:title=" ">
<polygon fill="white" stroke="#666666" points="623.5,-41.75 489,-41.75 489,0 623.5,0 623.5,-41.75"/>
<text text-anchor="start" x="497" y="-28.25" font-family="Helvetica,sans-Serif" font-size="10.00">/Users/fola/Documents</text>
<text text-anchor="start" x="497" y="-17" font-family="Helvetica,sans-Serif" font-size="10.00">/ArkScript/Ark/src/arkscript</text>
<text text-anchor="middle" x="556.25" y="-5.75" font-family="Helvetica,sans-Serif" font-size="10.00">/main.cpp</text>
</a>
</g>
</g>
<!-- Node7&#45;&gt;Node9 -->
<g id="edge8_Node000007_Node000009" class="edge">
<title>Node7&#45;&gt;Node9</title>
<g id="a_edge8_Node000007_Node000009"><a xlink:title=" ">
<path fill="none" stroke="#63b8ff" d="M454.33,-72.34C474.1,-62.55 496.43,-51.49 515.14,-42.23"/>
<polygon fill="#63b8ff" stroke="#63b8ff" points="453.02,-69.08 445.61,-76.65 456.12,-75.35 453.02,-69.08"/>
</a>
</g>
</g>
<!-- Node13&#45;&gt;Node3 -->
<g id="edge14_Node000013_Node000003" class="edge">
<title>Node13&#45;&gt;Node3</title>
<g id="a_edge14_Node000013_Node000003"><a xlink:title=" ">
<path fill="none" stroke="#63b8ff" d="M694.78,-244.92C667.2,-231.73 633.83,-215.78 607.86,-203.37"/>
<polygon fill="#63b8ff" stroke="#63b8ff" points="693.14,-248.01 703.67,-249.17 696.16,-241.7 693.14,-248.01"/>
</a>
</g>
</g>
<!-- Node13&#45;&gt;Node10 -->
<g id="edge17_Node000013_Node000010" class="edge">
<title>Node13&#45;&gt;Node10</title>
<g id="a_edge17_Node000013_Node000010"><a xlink:title=" ">
<path fill="none" stroke="#63b8ff" d="M727.59,-239.79C722.29,-230.16 717.21,-219.22 714.25,-208.5 705.95,-178.4 706.27,-141.87 707.55,-119.71"/>
<polygon fill="#63b8ff" stroke="#63b8ff" points="724.51,-241.46 732.57,-248.33 730.56,-237.93 724.51,-241.46"/>
</a>
</g>
</g>
<!-- Node14 -->
<g id="Node000014" class="node">
<title>Node14</title>
<g id="a_Node000014"><a xlink:href="../../d1/da9/Executor_8cpp.html" target="_top" xlink:title=" ">
<polygon fill="white" stroke="#666666" points="1052.88,-202.88 899.62,-202.88 899.62,-161.12 1052.88,-161.12 1052.88,-202.88"/>
<text text-anchor="start" x="907.62" y="-189.38" font-family="Helvetica,sans-Serif" font-size="10.00">/Users/fola/Documents</text>
<text text-anchor="start" x="907.62" y="-178.12" font-family="Helvetica,sans-Serif" font-size="10.00">/ArkScript/Ark/src/arkreactor</text>
<text text-anchor="middle" x="976.25" y="-166.88" font-family="Helvetica,sans-Serif" font-size="10.00">/Compiler/Macros/Executor.cpp</text>
</a>
</g>
</g>
<!-- Node13&#45;&gt;Node14 -->
<g id="edge15_Node000013_Node000014" class="edge">
<title>Node13&#45;&gt;Node14</title>
<g id="a_edge15_Node000013_Node000014"><a xlink:title=" ">
<path fill="none" stroke="#63b8ff" d="M811.28,-245.67C846.4,-232.33 889.45,-215.98 922.76,-203.32"/>
<polygon fill="#63b8ff" stroke="#63b8ff" points="810.17,-242.35 802.07,-249.17 812.66,-248.89 810.17,-242.35"/>
</a>
</g>
</g>
<!-- Node15 -->
<g id="Node000015" class="node">
<title>Node15</title>
<g id="a_Node000015"><a xlink:href="../../d6/d69/Processor_8cpp.html" target="_top" xlink:title=" ">
<polygon fill="white" stroke="#666666" points="881.5,-202.88 723,-202.88 723,-161.12 881.5,-161.12 881.5,-202.88"/>
<text text-anchor="start" x="731" y="-189.38" font-family="Helvetica,sans-Serif" font-size="10.00">/Users/fola/Documents</text>
<text text-anchor="start" x="731" y="-178.12" font-family="Helvetica,sans-Serif" font-size="10.00">/ArkScript/Ark/src/arkreactor</text>
<text text-anchor="middle" x="802.25" y="-166.88" font-family="Helvetica,sans-Serif" font-size="10.00">/Compiler/Macros/Processor.cpp</text>
</a>
</g>
</g>
<!-- Node13&#45;&gt;Node15 -->
<g id="edge16_Node000013_Node000015" class="edge">
<title>Node13&#45;&gt;Node15</title>
<g id="a_edge16_Node000013_Node000015"><a xlink:title=" ">
<path fill="none" stroke="#63b8ff" d="M766.15,-240.11C773.81,-227.99 782.46,-214.3 789.37,-203.37"/>
<polygon fill="#63b8ff" stroke="#63b8ff" points="763.2,-238.22 760.82,-248.54 769.12,-241.96 763.2,-238.22"/>
</a>
</g>
</g>
<!-- Node16&#45;&gt;Node3 -->
<g id="edge19_Node000016_Node000003" class="edge">
<title>Node16&#45;&gt;Node3</title>
<g id="a_edge19_Node000016_Node000003"><a xlink:title=" ">
<path fill="none" stroke="#63b8ff" d="M565.25,-233.13C565.25,-222.88 565.25,-212.12 565.25,-203.21"/>
<polygon fill="#63b8ff" stroke="#63b8ff" points="561.75,-232.85 565.25,-242.85 568.75,-232.85 561.75,-232.85"/>
</a>
</g>
</g>
<!-- Node16&#45;&gt;Node10 -->
<g id="edge21_Node000016_Node000010" class="edge">
<title>Node16&#45;&gt;Node10</title>
<g id="a_edge21_Node000016_Node000010"><a xlink:title=" ">
<path fill="none" stroke="#63b8ff" d="M608.99,-236.73C619.13,-228.08 629.5,-218.39 638.25,-208.5 663.22,-180.27 685.83,-142.54 698.53,-119.72"/>
<polygon fill="#63b8ff" stroke="#63b8ff" points="606.8,-234 601.35,-243.09 611.28,-239.38 606.8,-234"/>
</a>
</g>
</g>
<!-- Node17 -->
<g id="Node000017" class="node">
<title>Node17</title>
<g id="a_Node000017"><a xlink:href="../../de/dd7/NameResolutionPass_8cpp.html" target="_top" xlink:title=" ">
<polygon fill="white" stroke="#666666" points="484,-208.5 274.5,-208.5 274.5,-155.5 484,-155.5 484,-208.5"/>
<text text-anchor="start" x="282.5" y="-195" font-family="Helvetica,sans-Serif" font-size="10.00">/Users/fola/Documents</text>
<text text-anchor="start" x="282.5" y="-183.75" font-family="Helvetica,sans-Serif" font-size="10.00">/ArkScript/Ark/src/arkreactor</text>
<text text-anchor="start" x="282.5" y="-172.5" font-family="Helvetica,sans-Serif" font-size="10.00">/Compiler/NameResolution/NameResolution</text>
<text text-anchor="middle" x="379.25" y="-161.25" font-family="Helvetica,sans-Serif" font-size="10.00">Pass.cpp</text>
</a>
</g>
</g>
<!-- Node16&#45;&gt;Node17 -->
<g id="edge20_Node000016_Node000017" class="edge">
<title>Node16&#45;&gt;Node17</title>
<g id="a_edge20_Node000016_Node000017"><a xlink:title=" ">
<path fill="none" stroke="#63b8ff" d="M499.46,-239.23C478.22,-229.29 454.91,-218.39 434.52,-208.85"/>
<polygon fill="#63b8ff" stroke="#63b8ff" points="497.78,-242.31 508.32,-243.37 500.75,-235.97 497.78,-242.31"/>
</a>
</g>
</g>
<!-- Node18&#45;&gt;Node3 -->
<g id="edge23_Node000018_Node000003" class="edge">
<title>Node18&#45;&gt;Node3</title>
<g id="a_edge23_Node000018_Node000003"><a xlink:title=" ">
<path fill="none" stroke="#63b8ff" d="M855.21,-247.04C851.51,-246.18 847.85,-245.33 844.25,-244.5 770.54,-227.51 685.64,-208.94 629.04,-196.7"/>
<polygon fill="#63b8ff" stroke="#63b8ff" points="854.38,-250.44 864.91,-249.32 855.98,-243.63 854.38,-250.44"/>
</a>
</g>
</g>
<!-- Node18&#45;&gt;Node10 -->
<g id="edge25_Node000018_Node000010" class="edge">
<title>Node18&#45;&gt;Node10</title>
<g id="a_edge25_Node000018_Node000010"><a xlink:title=" ">
<path fill="none" stroke="#63b8ff" d="M1023.27,-244.53C1038.77,-235.6 1053.18,-223.84 1062.25,-208.5 1074.25,-188.23 1077.55,-173.41 1062.25,-155.5 1026.69,-113.86 872.36,-103.08 779.95,-100.4"/>
<polygon fill="#63b8ff" stroke="#63b8ff" points="1022.03,-241.22 1014.85,-249.02 1025.32,-247.4 1022.03,-241.22"/>
</a>
</g>
</g>
<!-- Node19 -->
<g id="Node000019" class="node">
<title>Node19</title>
<g id="a_Node000019"><a xlink:href="../../d6/d41/ImportSolver_8cpp.html" target="_top" xlink:title=" ">
<polygon fill="white" stroke="#666666" points="1285.12,-202.88 1109.38,-202.88 1109.38,-161.12 1285.12,-161.12 1285.12,-202.88"/>
<text text-anchor="start" x="1117.38" y="-189.38" font-family="Helvetica,sans-Serif" font-size="10.00">/Users/fola/Documents</text>
<text text-anchor="start" x="1117.38" y="-178.12" font-family="Helvetica,sans-Serif" font-size="10.00">/ArkScript/Ark/src/arkreactor</text>
<text text-anchor="middle" x="1197.25" y="-166.88" font-family="Helvetica,sans-Serif" font-size="10.00">/Compiler/Package/ImportSolver.cpp</text>
</a>
</g>
</g>
<!-- Node18&#45;&gt;Node19 -->
<g id="edge24_Node000018_Node000019" class="edge">
<title>Node18&#45;&gt;Node19</title>
<g id="a_edge24_Node000018_Node000019"><a xlink:title=" ">
<path fill="none" stroke="#63b8ff" d="M1018.33,-246.02C1056.4,-232.61 1103.32,-216.09 1139.56,-203.32"/>
<polygon fill="#63b8ff" stroke="#63b8ff" points="1017.55,-242.59 1009.28,-249.21 1019.87,-249.19 1017.55,-242.59"/>
</a>
</g>
</g>
</g>
</svg>

<g id="navigator" transform="translate(0 0)" fill="#404254">
  <rect fill="#f2f5e9" fill-opacity="0.5" stroke="#606060" stroke-width=".5" x="0" y="0" width="60" height="60"/>
  <use id="zoomplus" xlink:href="#zoomPlus" x="17" y="9" onmousedown="handleZoom(evt,'in')"/>
  <use id="zoomminus" xlink:href="#zoomMin" x="42" y="9" onmousedown="handleZoom(evt,'out')"/>
  <use id="reset" xlink:href="#resetDef" x="30" y="36" onmousedown="handleReset()"/>
   <use id="arrowup" xlink:href="#arrowUp" x="0" y="0" onmousedown="handlePan(0,-1)"/>
  <use id="arrowright" xlink:href="#arrowRight" x="0" y="0" onmousedown="handlePan(1,0)"/>
  <use id="arrowdown" xlink:href="#arrowDown" x="0" y="0" onmousedown="handlePan(0,1)"/>
  <use id="arrowleft" xlink:href="#arrowLeft" x="0" y="0" onmousedown="handlePan(-1,0)"/>
</g>
<svg viewBox="0 0 15 15" width="100%" height="30px" preserveAspectRatio="xMaxYMin meet">
 <g id="arrow_out" transform="scale(0.3 0.3)">
  <a xlink:href="Pass_8hpp__dep__incl_org.svg" target="_base">
   <rect id="button" ry="5" rx="5" y="6" x="6" height="38" width="38"
        fill="#f2f5e9" fill-opacity="0.5" stroke="#606060" stroke-width="1.0"/>
   <path id="arrow"
     d="M 11.500037,31.436501 C 11.940474,20.09759 22.043105,11.32322 32.158766,21.979434 L 37.068811,17.246167 C 37.068811,17.246167 37.088388,32 37.088388,32 L 22.160133,31.978069 C 22.160133,31.978069 26.997745,27.140456 26.997745,27.140456 C 18.528582,18.264221 13.291696,25.230495 11.500037,31.436501 z"
     style="fill:#404040;"/>
  </a>
 </g>
</svg>

<style type='text/css'>
<![CDATA[
[data-mouse-over-selected='false'] { opacity: 0.7; }
[data-mouse-over-selected='true']  { opacity: 1.0; }
]]>
</style>
<script type="application/ecmascript"><![CDATA[
document.addEventListener('DOMContentLoaded', (event) => {
  highlightEdges();
  highlightAdjacentNodes();
});
]]></script>
</svg>
