<?xml version="1.0" encoding="UTF-8" standalone="no"?>
<!DOCTYPE svg PUBLIC "-//W3C//DTD SVG 1.1//EN"
 "http://www.w3.org/Graphics/SVG/1.1/DTD/svg11.dtd">
<!-- Generated by graphviz version 12.2.0 (20241103.1931)
 -->
<!-- Title: /Users/fola/Documents/ArkScript/Ark/src/arkreactor/Compiler/NameResolution/ScopeResolver.cpp Pages: 1 -->
<svg width="603pt" height="238pt"
 viewBox="0.00 0.00 603.25 238.00" xmlns="http://www.w3.org/2000/svg" xmlns:xlink="http://www.w3.org/1999/xlink">
<g id="graph0" class="graph" transform="scale(1 1) rotate(0) translate(4 234)">
<title>/Users/fola/Documents/ArkScript/Ark/src/arkreactor/Compiler/NameResolution/ScopeResolver.cpp</title>
<!-- Node1 -->
<g id="Node000001" class="node">
<title>Node1</title>
<g id="a_Node000001"><a xlink:title=" ">
<polygon fill="#999999" stroke="#666666" points="595.25,-230 373.75,-230 373.75,-188.25 595.25,-188.25 595.25,-230"/>
<text text-anchor="start" x="381.75" y="-216.5" font-family="Helvetica,sans-Serif" font-size="10.00">/Users/fola/Documents</text>
<text text-anchor="start" x="381.75" y="-205.25" font-family="Helvetica,sans-Serif" font-size="10.00">/ArkScript/Ark/src/arkreactor</text>
<text text-anchor="middle" x="484.5" y="-194" font-family="Helvetica,sans-Serif" font-size="10.00">/Compiler/NameResolution/ScopeResolver.cpp</text>
</a>
</g>
</g>
<!-- Node2 -->
<g id="Node000002" class="node">
<title>Node2</title>
<g id="a_Node000002"><a xlink:href="../../db/d5b/ScopeResolver_8hpp.html" target="_top" xlink:title="Handle scope resolution at compile time.">
<polygon fill="white" stroke="#666666" points="343.88,-152.25 195.12,-152.25 195.12,-121.75 343.88,-121.75 343.88,-152.25"/>
<text text-anchor="start" x="203.12" y="-138.75" font-family="Helvetica,sans-Serif" font-size="10.00">Ark/Compiler/NameResolution</text>
<text text-anchor="middle" x="269.5" y="-127.5" font-family="Helvetica,sans-Serif" font-size="10.00">/ScopeResolver.hpp</text>
</a>
</g>
</g>
<!-- Node1&#45;&gt;Node2 -->
<g id="edge1_Node000001_Node000002" class="edge">
<title>Node1&#45;&gt;Node2</title>
<g id="a_edge1_Node000001_Node000002"><a xlink:title=" ">
<path fill="none" stroke="#63b8ff" d="M422.31,-187.84C391.61,-177.83 354.86,-165.84 325.1,-156.14"/>
<polygon fill="#63b8ff" stroke="#63b8ff" points="326.51,-152.91 315.92,-153.14 324.34,-159.57 326.51,-152.91"/>
</a>
</g>
</g>
<!-- Node9 -->
<g id="Node000009" class="node">
<title>Node9</title>
<g id="a_Node000009"><a xlink:title=" ">
<polygon fill="#e0e0e0" stroke="#999999" points="528.12,-19.25 482.88,-19.25 482.88,0 528.12,0 528.12,-19.25"/>
<text text-anchor="middle" x="505.5" y="-5.75" font-family="Helvetica,sans-Serif" font-size="10.00">ranges</text>
</a>
</g>
</g>
<!-- Node1&#45;&gt;Node9 -->
<g id="edge15_Node000001_Node000009" class="edge">
<title>Node1&#45;&gt;Node9</title>
<g id="a_edge15_Node000001_Node000009"><a xlink:title=" ">
<path fill="none" stroke="#63b8ff" d="M486.63,-188.1C490.66,-150.21 499.35,-68.46 503.38,-30.61"/>
<polygon fill="#63b8ff" stroke="#63b8ff" points="506.81,-31.4 504.39,-21.08 499.85,-30.66 506.81,-31.4"/>
</a>
</g>
</g>
<!-- Node12 -->
<g id="Node000012" class="node">
<title>Node12</title>
<g id="a_Node000012"><a xlink:title=" ">
<polygon fill="#e0e0e0" stroke="#999999" points="568.38,-146.62 512.62,-146.62 512.62,-127.38 568.38,-127.38 568.38,-146.62"/>
<text text-anchor="middle" x="540.5" y="-133.12" font-family="Helvetica,sans-Serif" font-size="10.00">algorithm</text>
</a>
</g>
</g>
<!-- Node1&#45;&gt;Node12 -->
<g id="edge16_Node000001_Node000012" class="edge">
<title>Node1&#45;&gt;Node12</title>
<g id="a_edge16_Node000001_Node000012"><a xlink:title=" ">
<path fill="none" stroke="#63b8ff" d="M500.7,-187.84C508.84,-177.65 518.61,-165.42 526.43,-155.62"/>
<polygon fill="#63b8ff" stroke="#63b8ff" points="529.02,-157.98 532.53,-147.98 523.55,-153.61 529.02,-157.98"/>
</a>
</g>
</g>
<!-- Node3 -->
<g id="Node000003" class="node">
<title>Node3</title>
<g id="a_Node000003"><a xlink:title=" ">
<polygon fill="#e0e0e0" stroke="#999999" points="101.5,-19.25 61.5,-19.25 61.5,0 101.5,0 101.5,-19.25"/>
<text text-anchor="middle" x="81.5" y="-5.75" font-family="Helvetica,sans-Serif" font-size="10.00">string</text>
</a>
</g>
</g>
<!-- Node2&#45;&gt;Node3 -->
<g id="edge2_Node000002_Node000003" class="edge">
<title>Node2&#45;&gt;Node3</title>
<g id="a_edge2_Node000002_Node000003"><a xlink:title=" ">
<path fill="none" stroke="#63b8ff" d="M200.24,-121.35C175.74,-113.71 149.16,-102.36 128.5,-85.75 109.99,-70.87 96.71,-46.62 89.09,-29.71"/>
<polygon fill="#63b8ff" stroke="#63b8ff" points="92.43,-28.62 85.31,-20.77 85.98,-31.35 92.43,-28.62"/>
</a>
</g>
</g>
<!-- Node4 -->
<g id="Node000004" class="node">
<title>Node4</title>
<g id="a_Node000004"><a xlink:title=" ">
<polygon fill="#e0e0e0" stroke="#999999" points="395.38,-19.25 345.62,-19.25 345.62,0 395.38,0 395.38,-19.25"/>
<text text-anchor="middle" x="370.5" y="-5.75" font-family="Helvetica,sans-Serif" font-size="10.00">optional</text>
</a>
</g>
</g>
<!-- Node2&#45;&gt;Node4 -->
<g id="edge3_Node000002_Node000004" class="edge">
<title>Node2&#45;&gt;Node4</title>
<g id="a_edge3_Node000002_Node000004"><a xlink:title=" ">
<path fill="none" stroke="#63b8ff" d="M306.9,-121.3C323.17,-113.12 341.08,-101.39 352.5,-85.75 364.23,-69.68 368.41,-47.01 369.85,-30.78"/>
<polygon fill="#63b8ff" stroke="#63b8ff" points="373.34,-31.1 370.42,-20.91 366.35,-30.69 373.34,-31.1"/>
</a>
</g>
</g>
<!-- Node5 -->
<g id="Node000005" class="node">
<title>Node5</title>
<g id="a_Node000005"><a xlink:title=" ">
<polygon fill="#e0e0e0" stroke="#999999" points="465.12,-19.25 413.88,-19.25 413.88,0 465.12,0 465.12,-19.25"/>
<text text-anchor="middle" x="439.5" y="-5.75" font-family="Helvetica,sans-Serif" font-size="10.00">memory</text>
</a>
</g>
</g>
<!-- Node2&#45;&gt;Node5 -->
<g id="edge4_Node000002_Node000005" class="edge">
<title>Node2&#45;&gt;Node5</title>
<g id="a_edge4_Node000002_Node000005"><a xlink:title=" ">
<path fill="none" stroke="#63b8ff" d="M309.15,-121.28C329.49,-112.66 354.02,-100.56 373.5,-85.75 395.02,-69.39 414.77,-45.15 426.95,-28.65"/>
<polygon fill="#63b8ff" stroke="#63b8ff" points="429.63,-30.92 432.62,-20.76 423.95,-26.84 429.63,-30.92"/>
</a>
</g>
</g>
<!-- Node6 -->
<g id="Node000006" class="node">
<title>Node6</title>
<g id="a_Node000006"><a xlink:title=" ">
<polygon fill="#e0e0e0" stroke="#999999" points="43,-19.25 0,-19.25 0,0 43,0 43,-19.25"/>
<text text-anchor="middle" x="21.5" y="-5.75" font-family="Helvetica,sans-Serif" font-size="10.00">vector</text>
</a>
</g>
</g>
<!-- Node2&#45;&gt;Node6 -->
<g id="edge5_Node000002_Node000006" class="edge">
<title>Node2&#45;&gt;Node6</title>
<g id="a_edge5_Node000002_Node000006"><a xlink:title=" ">
<path fill="none" stroke="#63b8ff" d="M194.82,-122.12C163.94,-114.34 128.63,-102.7 99.5,-85.75 73.59,-70.67 49.69,-45.23 35.35,-28.18"/>
<polygon fill="#63b8ff" stroke="#63b8ff" points="38.42,-26.4 29.38,-20.87 32.99,-30.83 38.42,-26.4"/>
</a>
</g>
</g>
<!-- Node7 -->
<g id="Node000007" class="node">
<title>Node7</title>
<g id="a_Node000007"><a xlink:title=" ">
<polygon fill="#e0e0e0" stroke="#999999" points="177.12,-80.12 137.88,-80.12 137.88,-60.88 177.12,-60.88 177.12,-80.12"/>
<text text-anchor="middle" x="157.5" y="-66.62" font-family="Helvetica,sans-Serif" font-size="10.00">utility</text>
</a>
</g>
</g>
<!-- Node2&#45;&gt;Node7 -->
<g id="edge6_Node000002_Node000007" class="edge">
<title>Node2&#45;&gt;Node7</title>
<g id="a_edge6_Node000002_Node000007"><a xlink:title=" ">
<path fill="none" stroke="#63b8ff" d="M244.09,-121.36C225.85,-110.86 201.37,-96.77 183.1,-86.24"/>
<polygon fill="#63b8ff" stroke="#63b8ff" points="184.87,-83.22 174.46,-81.27 181.38,-89.29 184.87,-83.22"/>
</a>
</g>
</g>
<!-- Node8 -->
<g id="Node000008" class="node">
<title>Node8</title>
<g id="a_Node000008"><a xlink:href="../../df/db8/StaticScope_8hpp.html" target="_top" xlink:title="Static scopes (for functions, loops) and namespace scopes (for packages) definitions,...">
<polygon fill="white" stroke="#666666" points="343.88,-85.75 195.12,-85.75 195.12,-55.25 343.88,-55.25 343.88,-85.75"/>
<text text-anchor="start" x="203.12" y="-72.25" font-family="Helvetica,sans-Serif" font-size="10.00">Ark/Compiler/NameResolution</text>
<text text-anchor="middle" x="269.5" y="-61" font-family="Helvetica,sans-Serif" font-size="10.00">/StaticScope.hpp</text>
</a>
</g>
</g>
<!-- Node2&#45;&gt;Node8 -->
<g id="edge7_Node000002_Node000008" class="edge">
<title>Node2&#45;&gt;Node8</title>
<g id="a_edge7_Node000002_Node000008"><a xlink:title=" ">
<path fill="none" stroke="#63b8ff" d="M269.5,-121.36C269.5,-114.27 269.5,-105.54 269.5,-97.38"/>
<polygon fill="#63b8ff" stroke="#63b8ff" points="273,-97.59 269.5,-87.59 266,-97.59 273,-97.59"/>
</a>
</g>
</g>
<!-- Node8&#45;&gt;Node3 -->
<g id="edge8_Node000008_Node000003" class="edge">
<title>Node8&#45;&gt;Node3</title>
<g id="a_edge8_Node000008_Node000003"><a xlink:title=" ">
<path fill="none" stroke="#63b8ff" d="M222.54,-54.8C188.02,-43.98 142.09,-29.6 112.16,-20.23"/>
<polygon fill="#63b8ff" stroke="#63b8ff" points="113.57,-17 102.98,-17.35 111.48,-23.68 113.57,-17"/>
</a>
</g>
</g>
<!-- Node8&#45;&gt;Node4 -->
<g id="edge9_Node000008_Node000004" class="edge">
<title>Node8&#45;&gt;Node4</title>
<g id="a_edge9_Node000008_Node000004"><a xlink:title=" ">
<path fill="none" stroke="#63b8ff" d="M294.73,-54.8C310.11,-45.83 329.7,-34.41 345.11,-25.42"/>
<polygon fill="#63b8ff" stroke="#63b8ff" points="346.83,-28.48 353.7,-20.42 343.3,-22.43 346.83,-28.48"/>
</a>
</g>
</g>
<!-- Node8&#45;&gt;Node5 -->
<g id="edge10_Node000008_Node000005" class="edge">
<title>Node8&#45;&gt;Node5</title>
<g id="a_edge10_Node000008_Node000005"><a xlink:title=" ">
<path fill="none" stroke="#63b8ff" d="M311.96,-54.8C339.84,-45.14 375.95,-32.63 402.63,-23.4"/>
<polygon fill="#63b8ff" stroke="#63b8ff" points="403.69,-26.73 412,-20.15 401.4,-20.11 403.69,-26.73"/>
</a>
</g>
</g>
<!-- Node8&#45;&gt;Node6 -->
<g id="edge11_Node000008_Node000006" class="edge">
<title>Node8&#45;&gt;Node6</title>
<g id="a_edge11_Node000008_Node000006"><a xlink:title=" ">
<path fill="none" stroke="#63b8ff" d="M202.84,-54.86C162.5,-45.81 109.8,-33.68 54.56,-19.69"/>
<polygon fill="#63b8ff" stroke="#63b8ff" points="55.5,-16.32 44.95,-17.24 53.78,-23.1 55.5,-16.32"/>
</a>
</g>
</g>
<!-- Node8&#45;&gt;Node9 -->
<g id="edge12_Node000008_Node000009" class="edge">
<title>Node8&#45;&gt;Node9</title>
<g id="a_edge12_Node000008_Node000009"><a xlink:title=" ">
<path fill="none" stroke="#63b8ff" d="M331.52,-54.83C369.55,-45.71 419.48,-33.52 471.39,-20.01"/>
<polygon fill="#63b8ff" stroke="#63b8ff" points="472.24,-23.41 481.03,-17.49 470.47,-16.63 472.24,-23.41"/>
</a>
</g>
</g>
<!-- Node10 -->
<g id="Node000010" class="node">
<title>Node10</title>
<g id="a_Node000010"><a xlink:title=" ">
<polygon fill="#e0e0e0" stroke="#999999" points="197.25,-19.25 119.75,-19.25 119.75,0 197.25,0 197.25,-19.25"/>
<text text-anchor="middle" x="158.5" y="-5.75" font-family="Helvetica,sans-Serif" font-size="10.00">unordered_set</text>
</a>
</g>
</g>
<!-- Node8&#45;&gt;Node10 -->
<g id="edge13_Node000008_Node000010" class="edge">
<title>Node8&#45;&gt;Node10</title>
<g id="a_edge13_Node000008_Node000010"><a xlink:title=" ">
<path fill="none" stroke="#63b8ff" d="M241.78,-54.8C224.55,-45.66 202.51,-33.97 185.43,-24.91"/>
<polygon fill="#63b8ff" stroke="#63b8ff" points="187.33,-21.96 176.86,-20.36 184.05,-28.14 187.33,-21.96"/>
</a>
</g>
</g>
<!-- Node11 -->
<g id="Node000011" class="node">
<title>Node11</title>
<g id="a_Node000011"><a xlink:href="../../d5/d40/Platform_8hpp.html" target="_top" xlink:title="ArkScript configuration macros.">
<polygon fill="white" stroke="#666666" points="327.88,-19.25 215.12,-19.25 215.12,0 327.88,0 327.88,-19.25"/>
<text text-anchor="middle" x="271.5" y="-5.75" font-family="Helvetica,sans-Serif" font-size="10.00">Ark/Utils/Platform.hpp</text>
</a>
</g>
</g>
<!-- Node8&#45;&gt;Node11 -->
<g id="edge14_Node000008_Node000011" class="edge">
<title>Node8&#45;&gt;Node11</title>
<g id="a_edge14_Node000008_Node000011"><a xlink:title=" ">
<path fill="none" stroke="#63b8ff" d="M269.99,-54.95C270.24,-47.71 270.54,-38.84 270.81,-30.94"/>
<polygon fill="#63b8ff" stroke="#63b8ff" points="274.3,-31.33 271.14,-21.21 267.3,-31.09 274.3,-31.33"/>
</a>
</g>
</g>
</g>
</svg>
