<?xml version="1.0" encoding="UTF-8" standalone="no"?>
<!DOCTYPE svg PUBLIC "-//W3C//DTD SVG 1.1//EN"
 "http://www.w3.org/Graphics/SVG/1.1/DTD/svg11.dtd">
<!-- Generated by graphviz version 12.2.0 (20241103.1931)
 -->
<!-- Title: /Users/fola/Documents/ArkScript/Ark/include/Ark/VM/Value.hpp Pages: 1 -->
<svg width="726pt" height="160pt"
 viewBox="0.00 0.00 726.38 160.25" xmlns="http://www.w3.org/2000/svg" xmlns:xlink="http://www.w3.org/1999/xlink">
<g id="graph0" class="graph" transform="scale(1 1) rotate(0) translate(4 156.25)">
<title>/Users/fola/Documents/ArkScript/Ark/include/Ark/VM/Value.hpp</title>
<!-- Node1 -->
<g id="Node000001" class="node">
<title>Node1</title>
<g id="a_Node000001"><a xlink:title="Default value type handled by the virtual machine.">
<polygon fill="#999999" stroke="#666666" points="421.12,-152.25 303.88,-152.25 303.88,-110.5 421.12,-110.5 421.12,-152.25"/>
<text text-anchor="start" x="311.88" y="-138.75" font-family="Helvetica,sans-Serif" font-size="10.00">/Users/fola/Documents</text>
<text text-anchor="start" x="311.88" y="-127.5" font-family="Helvetica,sans-Serif" font-size="10.00">/ArkScript/Ark/include</text>
<text text-anchor="middle" x="362.5" y="-116.25" font-family="Helvetica,sans-Serif" font-size="10.00">/Ark/VM/Value.hpp</text>
</a>
</g>
</g>
<!-- Node2 -->
<g id="Node000002" class="node">
<title>Node2</title>
<g id="a_Node000002"><a xlink:title=" ">
<polygon fill="#e0e0e0" stroke="#999999" points="43,-19.25 0,-19.25 0,0 43,0 43,-19.25"/>
<text text-anchor="middle" x="21.5" y="-5.75" font-family="Helvetica,sans-Serif" font-size="10.00">vector</text>
</a>
</g>
</g>
<!-- Node1&#45;&gt;Node2 -->
<g id="edge1_Node000001_Node000002" class="edge">
<title>Node1&#45;&gt;Node2</title>
<g id="a_edge1_Node000001_Node000002"><a xlink:title=" ">
<path fill="none" stroke="#63b8ff" d="M303.73,-129.12C217.17,-125.93 61.72,-114.61 25.5,-74.5 14.9,-62.76 14.85,-44.34 16.9,-30.28"/>
<polygon fill="#63b8ff" stroke="#63b8ff" points="20.26,-31.31 18.73,-20.83 13.39,-29.98 20.26,-31.31"/>
</a>
</g>
</g>
<!-- Node3 -->
<g id="Node000003" class="node">
<title>Node3</title>
<g id="a_Node000003"><a xlink:title=" ">
<polygon fill="#e0e0e0" stroke="#999999" points="240.12,-74.5 194.88,-74.5 194.88,-55.25 240.12,-55.25 240.12,-74.5"/>
<text text-anchor="middle" x="217.5" y="-61" font-family="Helvetica,sans-Serif" font-size="10.00">variant</text>
</a>
</g>
</g>
<!-- Node1&#45;&gt;Node3 -->
<g id="edge2_Node000001_Node000003" class="edge">
<title>Node1&#45;&gt;Node3</title>
<g id="a_edge2_Node000001_Node000003"><a xlink:title=" ">
<path fill="none" stroke="#63b8ff" d="M317.02,-110.14C294.59,-100.17 268.15,-88.4 248.15,-79.51"/>
<polygon fill="#63b8ff" stroke="#63b8ff" points="249.72,-76.38 239.16,-75.51 246.87,-82.77 249.72,-76.38"/>
</a>
</g>
</g>
<!-- Node4 -->
<g id="Node000004" class="node">
<title>Node4</title>
<g id="a_Node000004"><a xlink:title=" ">
<polygon fill="#e0e0e0" stroke="#999999" points="300.5,-19.25 260.5,-19.25 260.5,0 300.5,0 300.5,-19.25"/>
<text text-anchor="middle" x="280.5" y="-5.75" font-family="Helvetica,sans-Serif" font-size="10.00">string</text>
</a>
</g>
</g>
<!-- Node1&#45;&gt;Node4 -->
<g id="edge3_Node000001_Node000004" class="edge">
<title>Node1&#45;&gt;Node4</title>
<g id="a_edge3_Node000001_Node000004"><a xlink:title=" ">
<path fill="none" stroke="#63b8ff" d="M323.45,-110.17C309.84,-101.13 295.89,-89.16 287.5,-74.5 279.94,-61.29 278.45,-44.03 278.71,-30.77"/>
<polygon fill="#63b8ff" stroke="#63b8ff" points="282.18,-31.26 279.26,-21.07 275.2,-30.86 282.18,-31.26"/>
</a>
</g>
</g>
<!-- Node5 -->
<g id="Node000005" class="node">
<title>Node5</title>
<g id="a_Node000005"><a xlink:title=" ">
<polygon fill="#e0e0e0" stroke="#999999" points="660.38,-19.25 604.62,-19.25 604.62,0 660.38,0 660.38,-19.25"/>
<text text-anchor="middle" x="632.5" y="-5.75" font-family="Helvetica,sans-Serif" font-size="10.00">cinttypes</text>
</a>
</g>
</g>
<!-- Node1&#45;&gt;Node5 -->
<g id="edge4_Node000001_Node000005" class="edge">
<title>Node1&#45;&gt;Node5</title>
<g id="a_edge4_Node000001_Node000005"><a xlink:title=" ">
<path fill="none" stroke="#63b8ff" d="M421.35,-123.9C485.9,-115.66 584.02,-99.44 611.5,-74.5 623.8,-63.34 628.92,-44.84 631.03,-30.62"/>
<polygon fill="#63b8ff" stroke="#63b8ff" points="634.48,-31.34 632.06,-21.02 627.52,-30.59 634.48,-31.34"/>
</a>
</g>
</g>
<!-- Node6 -->
<g id="Node000006" class="node">
<title>Node6</title>
<g id="a_Node000006"><a xlink:title=" ">
<polygon fill="#e0e0e0" stroke="#999999" points="718.38,-74.5 680.62,-74.5 680.62,-55.25 718.38,-55.25 718.38,-74.5"/>
<text text-anchor="middle" x="699.5" y="-61" font-family="Helvetica,sans-Serif" font-size="10.00">array</text>
</a>
</g>
</g>
<!-- Node1&#45;&gt;Node6 -->
<g id="edge5_Node000001_Node000006" class="edge">
<title>Node1&#45;&gt;Node6</title>
<g id="a_edge5_Node000001_Node000006"><a xlink:title=" ">
<path fill="none" stroke="#63b8ff" d="M421.61,-120.84C483.05,-110.62 581.9,-93.3 666.5,-74.5 667.49,-74.28 668.49,-74.05 669.5,-73.82"/>
<polygon fill="#63b8ff" stroke="#63b8ff" points="670.03,-77.29 678.89,-71.5 668.35,-70.5 670.03,-77.29"/>
</a>
</g>
</g>
<!-- Node7 -->
<g id="Node000007" class="node">
<title>Node7</title>
<g id="a_Node000007"><a xlink:href="../../dc/dd5/Closure_8hpp.html" target="_top" xlink:title="Subtype of the value type, handling closures.">
<polygon fill="white" stroke="#666666" points="428.25,-74.5 296.75,-74.5 296.75,-55.25 428.25,-55.25 428.25,-74.5"/>
<text text-anchor="middle" x="362.5" y="-61" font-family="Helvetica,sans-Serif" font-size="10.00">Ark/VM/Value/Closure.hpp</text>
</a>
</g>
</g>
<!-- Node1&#45;&gt;Node7 -->
<g id="edge6_Node000001_Node000007" class="edge">
<title>Node1&#45;&gt;Node7</title>
<g id="a_edge6_Node000001_Node000007"><a xlink:title=" ">
<path fill="none" stroke="#63b8ff" d="M362.5,-110.32C362.5,-102.65 362.5,-93.89 362.5,-86.2"/>
<polygon fill="#63b8ff" stroke="#63b8ff" points="366,-86.46 362.5,-76.46 359,-86.46 366,-86.46"/>
</a>
</g>
</g>
<!-- Node10 -->
<g id="Node000010" class="node">
<title>Node10</title>
<g id="a_Node000010"><a xlink:href="../../d5/d40/Platform_8hpp.html" target="_top" xlink:title="ArkScript configuration macros.">
<polygon fill="white" stroke="#666666" points="564.25,-19.25 474.75,-19.25 474.75,0 564.25,0 564.25,-19.25"/>
<text text-anchor="middle" x="519.5" y="-5.75" font-family="Helvetica,sans-Serif" font-size="10.00">Ark/Platform.hpp</text>
</a>
</g>
</g>
<!-- Node1&#45;&gt;Node10 -->
<g id="edge18_Node000001_Node000010" class="edge">
<title>Node1&#45;&gt;Node10</title>
<g id="a_edge18_Node000001_Node000010"><a xlink:title=" ">
<path fill="none" stroke="#63b8ff" d="M421.56,-124.46C483.32,-116.92 574.22,-101.49 595.5,-74.5 611.47,-54.25 582.8,-35.85 556.23,-24.05"/>
<polygon fill="#63b8ff" stroke="#63b8ff" points="557.84,-20.93 547.26,-20.3 555.13,-27.39 557.84,-20.93"/>
</a>
</g>
</g>
<!-- Node11 -->
<g id="Node000011" class="node">
<title>Node11</title>
<g id="a_Node000011"><a xlink:href="../../dc/d3d/UserType_8hpp.html" target="_top" xlink:title="Subtype of the value, capable of handling any C++ type.">
<polygon fill="white" stroke="#666666" points="586.38,-74.5 446.62,-74.5 446.62,-55.25 586.38,-55.25 586.38,-74.5"/>
<text text-anchor="middle" x="516.5" y="-61" font-family="Helvetica,sans-Serif" font-size="10.00">Ark/VM/Value/UserType.hpp</text>
</a>
</g>
</g>
<!-- Node1&#45;&gt;Node11 -->
<g id="edge11_Node000001_Node000011" class="edge">
<title>Node1&#45;&gt;Node11</title>
<g id="a_edge11_Node000001_Node000011"><a xlink:title=" ">
<path fill="none" stroke="#63b8ff" d="M410.8,-110.14C434.84,-100.08 463.23,-88.19 484.53,-79.26"/>
<polygon fill="#63b8ff" stroke="#63b8ff" points="485.7,-82.57 493.57,-75.48 482.99,-76.11 485.7,-82.57"/>
</a>
</g>
</g>
<!-- Node12 -->
<g id="Node000012" class="node">
<title>Node12</title>
<g id="a_Node000012"><a xlink:href="../../da/dcf/Procedure_8hpp.html" target="_top" xlink:title="Wrapper object for user&#45;defined functions.">
<polygon fill="white" stroke="#666666" points="176.5,-74.5 34.5,-74.5 34.5,-55.25 176.5,-55.25 176.5,-74.5"/>
<text text-anchor="middle" x="105.5" y="-61" font-family="Helvetica,sans-Serif" font-size="10.00">Ark/VM/Value/Procedure.hpp</text>
</a>
</g>
</g>
<!-- Node1&#45;&gt;Node12 -->
<g id="edge15_Node000001_Node000012" class="edge">
<title>Node1&#45;&gt;Node12</title>
<g id="a_edge15_Node000001_Node000012"><a xlink:title=" ">
<path fill="none" stroke="#63b8ff" d="M303.54,-115.58C257.79,-104.1 195.22,-88.39 152.74,-77.73"/>
<polygon fill="#63b8ff" stroke="#63b8ff" points="153.61,-74.34 143.06,-75.3 151.9,-81.13 153.61,-74.34"/>
</a>
</g>
</g>
<!-- Node7&#45;&gt;Node4 -->
<g id="edge9_Node000007_Node000004" class="edge">
<title>Node7&#45;&gt;Node4</title>
<g id="a_edge9_Node000007_Node000004"><a xlink:title=" ">
<path fill="none" stroke="#63b8ff" d="M348.59,-54.84C336.34,-46.89 318.25,-35.14 303.79,-25.75"/>
<polygon fill="#63b8ff" stroke="#63b8ff" points="306.04,-23.04 295.75,-20.53 302.23,-28.91 306.04,-23.04"/>
</a>
</g>
</g>
<!-- Node8 -->
<g id="Node000008" class="node">
<title>Node8</title>
<g id="a_Node000008"><a xlink:title=" ">
<polygon fill="#e0e0e0" stroke="#999999" points="385.12,-19.25 333.88,-19.25 333.88,0 385.12,0 385.12,-19.25"/>
<text text-anchor="middle" x="359.5" y="-5.75" font-family="Helvetica,sans-Serif" font-size="10.00">memory</text>
</a>
</g>
</g>
<!-- Node7&#45;&gt;Node8 -->
<g id="edge7_Node000007_Node000008" class="edge">
<title>Node7&#45;&gt;Node8</title>
<g id="a_edge7_Node000007_Node000008"><a xlink:title=" ">
<path fill="none" stroke="#63b8ff" d="M362,-55.08C361.63,-48.49 361.11,-39.21 360.64,-30.82"/>
<polygon fill="#63b8ff" stroke="#63b8ff" points="364.15,-30.91 360.09,-21.12 357.16,-31.3 364.15,-30.91"/>
</a>
</g>
</g>
<!-- Node9 -->
<g id="Node000009" class="node">
<title>Node9</title>
<g id="a_Node000009"><a xlink:title=" ">
<polygon fill="#e0e0e0" stroke="#999999" points="456.25,-19.25 402.75,-19.25 402.75,0 456.25,0 456.25,-19.25"/>
<text text-anchor="middle" x="429.5" y="-5.75" font-family="Helvetica,sans-Serif" font-size="10.00">iostream</text>
</a>
</g>
</g>
<!-- Node7&#45;&gt;Node9 -->
<g id="edge8_Node000007_Node000009" class="edge">
<title>Node7&#45;&gt;Node9</title>
<g id="a_edge8_Node000007_Node000009"><a xlink:title=" ">
<path fill="none" stroke="#63b8ff" d="M373.87,-54.84C383.55,-47.15 397.7,-35.9 409.31,-26.68"/>
<polygon fill="#63b8ff" stroke="#63b8ff" points="411.47,-29.43 417.12,-20.47 407.11,-23.95 411.47,-29.43"/>
</a>
</g>
</g>
<!-- Node7&#45;&gt;Node10 -->
<g id="edge10_Node000007_Node000010" class="edge">
<title>Node7&#45;&gt;Node10</title>
<g id="a_edge10_Node000007_Node000010"><a xlink:title=" ">
<path fill="none" stroke="#63b8ff" d="M389.13,-54.84C414.62,-46.2 453.31,-33.07 481.93,-23.37"/>
<polygon fill="#63b8ff" stroke="#63b8ff" points="482.96,-26.72 491.3,-20.19 480.71,-20.09 482.96,-26.72"/>
</a>
</g>
</g>
<!-- Node11&#45;&gt;Node5 -->
<g id="edge13_Node000011_Node000005" class="edge">
<title>Node11&#45;&gt;Node5</title>
<g id="a_edge13_Node000011_Node000005"><a xlink:title=" ">
<path fill="none" stroke="#63b8ff" d="M536.18,-54.84C554.34,-46.5 581.58,-34 602.47,-24.41"/>
<polygon fill="#63b8ff" stroke="#63b8ff" points="603.72,-27.69 611.35,-20.33 600.8,-21.33 603.72,-27.69"/>
</a>
</g>
</g>
<!-- Node11&#45;&gt;Node9 -->
<g id="edge12_Node000011_Node000009" class="edge">
<title>Node11&#45;&gt;Node9</title>
<g id="a_edge12_Node000011_Node000009"><a xlink:title=" ">
<path fill="none" stroke="#63b8ff" d="M501.74,-54.84C488.62,-46.81 469.18,-34.91 453.77,-25.48"/>
<polygon fill="#63b8ff" stroke="#63b8ff" points="455.98,-22.73 445.62,-20.49 452.32,-28.7 455.98,-22.73"/>
</a>
</g>
</g>
<!-- Node11&#45;&gt;Node10 -->
<g id="edge14_Node000011_Node000010" class="edge">
<title>Node11&#45;&gt;Node10</title>
<g id="a_edge14_Node000011_Node000010"><a xlink:title=" ">
<path fill="none" stroke="#63b8ff" d="M517,-55.08C517.37,-48.49 517.89,-39.21 518.36,-30.82"/>
<polygon fill="#63b8ff" stroke="#63b8ff" points="521.84,-31.3 518.91,-21.12 514.85,-30.91 521.84,-31.3"/>
</a>
</g>
</g>
<!-- Node12&#45;&gt;Node2 -->
<g id="edge17_Node000012_Node000002" class="edge">
<title>Node12&#45;&gt;Node2</title>
<g id="a_edge17_Node000012_Node000002"><a xlink:title=" ">
<path fill="none" stroke="#63b8ff" d="M91.25,-54.84C78.7,-46.89 60.17,-35.14 45.36,-25.75"/>
<polygon fill="#63b8ff" stroke="#63b8ff" points="47.42,-22.91 37.1,-20.51 43.67,-28.82 47.42,-22.91"/>
</a>
</g>
</g>
<!-- Node13 -->
<g id="Node000013" class="node">
<title>Node13</title>
<g id="a_Node000013"><a xlink:title=" ">
<polygon fill="#e0e0e0" stroke="#999999" points="134.5,-19.25 76.5,-19.25 76.5,0 134.5,0 134.5,-19.25"/>
<text text-anchor="middle" x="105.5" y="-5.75" font-family="Helvetica,sans-Serif" font-size="10.00">functional</text>
</a>
</g>
</g>
<!-- Node12&#45;&gt;Node13 -->
<g id="edge16_Node000012_Node000013" class="edge">
<title>Node12&#45;&gt;Node13</title>
<g id="a_edge16_Node000012_Node000013"><a xlink:title=" ">
<path fill="none" stroke="#63b8ff" d="M105.5,-55.08C105.5,-48.57 105.5,-39.42 105.5,-31.12"/>
<polygon fill="#63b8ff" stroke="#63b8ff" points="109,-31.12 105.5,-21.12 102,-31.12 109,-31.12"/>
</a>
</g>
</g>
</g>
</svg>
