<?xml version="1.0" encoding="UTF-8" standalone="no"?>
<!DOCTYPE svg PUBLIC "-//W3C//DTD SVG 1.1//EN"
 "http://www.w3.org/Graphics/SVG/1.1/DTD/svg11.dtd">
<!-- Generated by graphviz version 12.2.0 (20241103.1931)
 -->
<!-- Title: /Users/fola/Documents/ArkScript/Ark/include/Ark/VM/Value.hpp Pages: 1 -->
<svg width="832pt" height="160pt"
 viewBox="0.00 0.00 832.38 160.25" xmlns="http://www.w3.org/2000/svg" xmlns:xlink="http://www.w3.org/1999/xlink">
<g id="graph0" class="graph" transform="scale(1 1) rotate(0) translate(4 156.25)">
<title>/Users/fola/Documents/ArkScript/Ark/include/Ark/VM/Value.hpp</title>
<!-- Node1 -->
<g id="Node000001" class="node">
<title>Node1</title>
<g id="a_Node000001"><a xlink:title="Default value type handled by the virtual machine.">
<polygon fill="#999999" stroke="#666666" points="485.12,-152.25 367.88,-152.25 367.88,-110.5 485.12,-110.5 485.12,-152.25"/>
<text text-anchor="start" x="375.88" y="-138.75" font-family="Helvetica,sans-Serif" font-size="10.00">/Users/fola/Documents</text>
<text text-anchor="start" x="375.88" y="-127.5" font-family="Helvetica,sans-Serif" font-size="10.00">/ArkScript/Ark/include</text>
<text text-anchor="middle" x="426.5" y="-116.25" font-family="Helvetica,sans-Serif" font-size="10.00">/Ark/VM/Value.hpp</text>
</a>
</g>
</g>
<!-- Node2 -->
<g id="Node000002" class="node">
<title>Node2</title>
<g id="a_Node000002"><a xlink:title=" ">
<polygon fill="#e0e0e0" stroke="#999999" points="43,-19.25 0,-19.25 0,0 43,0 43,-19.25"/>
<text text-anchor="middle" x="21.5" y="-5.75" font-family="Helvetica,sans-Serif" font-size="10.00">vector</text>
</a>
</g>
</g>
<!-- Node1&#45;&gt;Node2 -->
<g id="edge1_Node000001_Node000002" class="edge">
<title>Node1&#45;&gt;Node2</title>
<g id="a_edge1_Node000001_Node000002"><a xlink:title=" ">
<path fill="none" stroke="#63b8ff" d="M367.53,-126.64C258.97,-119.15 36.44,-100.75 13.5,-74.5 3.04,-62.53 6.67,-44.16 11.96,-30.18"/>
<polygon fill="#63b8ff" stroke="#63b8ff" points="15.13,-31.66 15.92,-21.1 8.72,-28.87 15.13,-31.66"/>
</a>
</g>
</g>
<!-- Node3 -->
<g id="Node000003" class="node">
<title>Node3</title>
<g id="a_Node000003"><a xlink:title=" ">
<polygon fill="#e0e0e0" stroke="#999999" points="688.12,-74.5 642.88,-74.5 642.88,-55.25 688.12,-55.25 688.12,-74.5"/>
<text text-anchor="middle" x="665.5" y="-61" font-family="Helvetica,sans-Serif" font-size="10.00">variant</text>
</a>
</g>
</g>
<!-- Node1&#45;&gt;Node3 -->
<g id="edge2_Node000001_Node000003" class="edge">
<title>Node1&#45;&gt;Node3</title>
<g id="a_edge2_Node000001_Node000003"><a xlink:title=" ">
<path fill="none" stroke="#63b8ff" d="M485.58,-114.43C531.55,-102.02 593.72,-85.25 631.64,-75.01"/>
<polygon fill="#63b8ff" stroke="#63b8ff" points="632.38,-78.44 641.13,-72.45 630.56,-71.68 632.38,-78.44"/>
</a>
</g>
</g>
<!-- Node4 -->
<g id="Node000004" class="node">
<title>Node4</title>
<g id="a_Node000004"><a xlink:title=" ">
<polygon fill="#e0e0e0" stroke="#999999" points="522.5,-19.25 482.5,-19.25 482.5,0 522.5,0 522.5,-19.25"/>
<text text-anchor="middle" x="502.5" y="-5.75" font-family="Helvetica,sans-Serif" font-size="10.00">string</text>
</a>
</g>
</g>
<!-- Node1&#45;&gt;Node4 -->
<g id="edge3_Node000001_Node000004" class="edge">
<title>Node1&#45;&gt;Node4</title>
<g id="a_edge3_Node000001_Node000004"><a xlink:title=" ">
<path fill="none" stroke="#63b8ff" d="M428.03,-110.13C430.05,-94.13 434.71,-71.82 445.5,-55.25 453.17,-43.48 465,-33.48 475.91,-25.95"/>
<polygon fill="#63b8ff" stroke="#63b8ff" points="477.74,-28.93 484.25,-20.57 473.95,-23.05 477.74,-28.93"/>
</a>
</g>
</g>
<!-- Node5 -->
<g id="Node000005" class="node">
<title>Node5</title>
<g id="a_Node000005"><a xlink:title=" ">
<polygon fill="#e0e0e0" stroke="#999999" points="231.38,-19.25 175.62,-19.25 175.62,0 231.38,0 231.38,-19.25"/>
<text text-anchor="middle" x="203.5" y="-5.75" font-family="Helvetica,sans-Serif" font-size="10.00">cinttypes</text>
</a>
</g>
</g>
<!-- Node1&#45;&gt;Node5 -->
<g id="edge4_Node000001_Node000005" class="edge">
<title>Node1&#45;&gt;Node5</title>
<g id="a_edge4_Node000001_Node000005"><a xlink:title=" ">
<path fill="none" stroke="#63b8ff" d="M367.59,-122.56C311.25,-113.81 231.92,-97.76 211.5,-74.5 201.22,-62.8 199.77,-44.91 200.57,-31.04"/>
<polygon fill="#63b8ff" stroke="#63b8ff" points="204.04,-31.54 201.6,-21.22 197.07,-30.81 204.04,-31.54"/>
</a>
</g>
</g>
<!-- Node6 -->
<g id="Node000006" class="node">
<title>Node6</title>
<g id="a_Node000006"><a xlink:title=" ">
<polygon fill="#e0e0e0" stroke="#999999" points="744.38,-74.5 706.62,-74.5 706.62,-55.25 744.38,-55.25 744.38,-74.5"/>
<text text-anchor="middle" x="725.5" y="-61" font-family="Helvetica,sans-Serif" font-size="10.00">array</text>
</a>
</g>
</g>
<!-- Node1&#45;&gt;Node6 -->
<g id="edge5_Node000001_Node000006" class="edge">
<title>Node1&#45;&gt;Node6</title>
<g id="a_edge5_Node000001_Node000006"><a xlink:title=" ">
<path fill="none" stroke="#63b8ff" d="M485.55,-119.88C538.22,-110.15 617.62,-94.54 695.34,-74.86"/>
<polygon fill="#63b8ff" stroke="#63b8ff" points="696,-78.3 704.82,-72.43 694.27,-71.52 696,-78.3"/>
</a>
</g>
</g>
<!-- Node7 -->
<g id="Node000007" class="node">
<title>Node7</title>
<g id="a_Node000007"><a xlink:title=" ">
<polygon fill="#e0e0e0" stroke="#999999" points="616.12,-19.25 564.88,-19.25 564.88,0 616.12,0 616.12,-19.25"/>
<text text-anchor="middle" x="590.5" y="-5.75" font-family="Helvetica,sans-Serif" font-size="10.00">memory</text>
</a>
</g>
</g>
<!-- Node1&#45;&gt;Node7 -->
<g id="edge6_Node000001_Node000007" class="edge">
<title>Node1&#45;&gt;Node7</title>
<g id="a_edge6_Node000001_Node000007"><a xlink:title=" ">
<path fill="none" stroke="#63b8ff" d="M485.61,-127.68C523.71,-122.5 570.61,-108.94 595.5,-74.5 604.67,-61.81 602.24,-43.76 598.2,-30.09"/>
<polygon fill="#63b8ff" stroke="#63b8ff" points="601.58,-29.15 594.98,-20.87 594.97,-31.46 601.58,-29.15"/>
</a>
</g>
</g>
<!-- Node8 -->
<g id="Node000008" class="node">
<title>Node8</title>
<g id="a_Node000008"><a xlink:title=" ">
<polygon fill="#e0e0e0" stroke="#999999" points="824.38,-74.5 762.62,-74.5 762.62,-55.25 824.38,-55.25 824.38,-74.5"/>
<text text-anchor="middle" x="793.5" y="-61" font-family="Helvetica,sans-Serif" font-size="10.00">type_traits</text>
</a>
</g>
</g>
<!-- Node1&#45;&gt;Node8 -->
<g id="edge7_Node000001_Node000008" class="edge">
<title>Node1&#45;&gt;Node8</title>
<g id="a_edge7_Node000001_Node000008"><a xlink:title=" ">
<path fill="none" stroke="#63b8ff" d="M485.41,-121.09C548.62,-110.96 652.23,-93.84 751.39,-74.84"/>
<polygon fill="#63b8ff" stroke="#63b8ff" points="751.87,-78.31 761.03,-72.98 750.55,-71.44 751.87,-78.31"/>
</a>
</g>
</g>
<!-- Node9 -->
<g id="Node000009" class="node">
<title>Node9</title>
<g id="a_Node000009"><a xlink:href="../../dc/dd5/Closure_8hpp.html" target="_top" xlink:title="Subtype of the value type, handling closures.">
<polygon fill="white" stroke="#666666" points="586.25,-74.5 454.75,-74.5 454.75,-55.25 586.25,-55.25 586.25,-74.5"/>
<text text-anchor="middle" x="520.5" y="-61" font-family="Helvetica,sans-Serif" font-size="10.00">Ark/VM/Value/Closure.hpp</text>
</a>
</g>
</g>
<!-- Node1&#45;&gt;Node9 -->
<g id="edge8_Node000001_Node000009" class="edge">
<title>Node1&#45;&gt;Node9</title>
<g id="a_edge8_Node000001_Node000009"><a xlink:title=" ">
<path fill="none" stroke="#63b8ff" d="M455.98,-110.14C469.58,-100.82 485.46,-89.92 498.06,-81.27"/>
<polygon fill="#63b8ff" stroke="#63b8ff" points="499.84,-84.29 506.11,-75.75 495.88,-78.52 499.84,-84.29"/>
</a>
</g>
</g>
<!-- Node10 -->
<g id="Node000010" class="node">
<title>Node10</title>
<g id="a_Node000010"><a xlink:href="../../d5/d40/Platform_8hpp.html" target="_top" xlink:title="ArkScript configuration macros.">
<polygon fill="white" stroke="#666666" points="445.88,-19.25 333.12,-19.25 333.12,0 445.88,0 445.88,-19.25"/>
<text text-anchor="middle" x="389.5" y="-5.75" font-family="Helvetica,sans-Serif" font-size="10.00">Ark/Utils/Platform.hpp</text>
</a>
</g>
</g>
<!-- Node1&#45;&gt;Node10 -->
<g id="edge20_Node000001_Node000010" class="edge">
<title>Node1&#45;&gt;Node10</title>
<g id="a_edge20_Node000001_Node000010"><a xlink:title=" ">
<path fill="none" stroke="#63b8ff" d="M420.22,-110.06C413.37,-87.87 402.45,-52.55 395.65,-30.52"/>
<polygon fill="#63b8ff" stroke="#63b8ff" points="399,-29.52 392.71,-21 392.31,-31.59 399,-29.52"/>
</a>
</g>
</g>
<!-- Node11 -->
<g id="Node000011" class="node">
<title>Node11</title>
<g id="a_Node000011"><a xlink:href="../../dc/d3d/UserType_8hpp.html" target="_top" xlink:title="Subtype of the value, capable of handling any C++ type.">
<polygon fill="white" stroke="#666666" points="360.38,-74.5 220.62,-74.5 220.62,-55.25 360.38,-55.25 360.38,-74.5"/>
<text text-anchor="middle" x="290.5" y="-61" font-family="Helvetica,sans-Serif" font-size="10.00">Ark/VM/Value/UserType.hpp</text>
</a>
</g>
</g>
<!-- Node1&#45;&gt;Node11 -->
<g id="edge12_Node000001_Node000011" class="edge">
<title>Node1&#45;&gt;Node11</title>
<g id="a_edge12_Node000001_Node000011"><a xlink:title=" ">
<path fill="none" stroke="#63b8ff" d="M383.84,-110.14C363,-100.26 338.46,-88.62 319.77,-79.76"/>
<polygon fill="#63b8ff" stroke="#63b8ff" points="321.42,-76.67 310.89,-75.54 318.42,-82.99 321.42,-76.67"/>
</a>
</g>
</g>
<!-- Node14 -->
<g id="Node000014" class="node">
<title>Node14</title>
<g id="a_Node000014"><a xlink:href="../../da/dcf/Procedure_8hpp.html" target="_top" xlink:title="Wrapper object for user&#45;defined functions.">
<polygon fill="white" stroke="#666666" points="164.5,-74.5 22.5,-74.5 22.5,-55.25 164.5,-55.25 164.5,-74.5"/>
<text text-anchor="middle" x="93.5" y="-61" font-family="Helvetica,sans-Serif" font-size="10.00">Ark/VM/Value/Procedure.hpp</text>
</a>
</g>
</g>
<!-- Node1&#45;&gt;Node14 -->
<g id="edge17_Node000001_Node000014" class="edge">
<title>Node1&#45;&gt;Node14</title>
<g id="a_edge17_Node000001_Node000014"><a xlink:title=" ">
<path fill="none" stroke="#63b8ff" d="M367.73,-118.99C306.87,-107.2 212.34,-88.89 151.69,-77.15"/>
<polygon fill="#63b8ff" stroke="#63b8ff" points="152.37,-73.71 141.88,-75.25 151.04,-80.58 152.37,-73.71"/>
</a>
</g>
</g>
<!-- Node9&#45;&gt;Node4 -->
<g id="edge10_Node000009_Node000004" class="edge">
<title>Node9&#45;&gt;Node4</title>
<g id="a_edge10_Node000009_Node000004"><a xlink:title=" ">
<path fill="none" stroke="#63b8ff" d="M517.53,-55.08C515.25,-48.34 512.01,-38.77 509.13,-30.24"/>
<polygon fill="#63b8ff" stroke="#63b8ff" points="512.54,-29.4 506.02,-21.04 505.91,-31.64 512.54,-29.4"/>
</a>
</g>
</g>
<!-- Node9&#45;&gt;Node7 -->
<g id="edge9_Node000009_Node000007" class="edge">
<title>Node9&#45;&gt;Node7</title>
<g id="a_edge9_Node000009_Node000007"><a xlink:title=" ">
<path fill="none" stroke="#63b8ff" d="M532.37,-54.84C542.59,-47.07 557.57,-35.67 569.76,-26.4"/>
<polygon fill="#63b8ff" stroke="#63b8ff" points="571.76,-29.28 577.6,-20.44 567.52,-23.71 571.76,-29.28"/>
</a>
</g>
</g>
<!-- Node9&#45;&gt;Node10 -->
<g id="edge11_Node000009_Node000010" class="edge">
<title>Node9&#45;&gt;Node10</title>
<g id="a_edge11_Node000009_Node000010"><a xlink:title=" ">
<path fill="none" stroke="#63b8ff" d="M498.28,-54.84C477.48,-46.39 446.15,-33.65 422.45,-24.02"/>
<polygon fill="#63b8ff" stroke="#63b8ff" points="423.82,-20.8 413.23,-20.27 421.18,-27.28 423.82,-20.8"/>
</a>
</g>
</g>
<!-- Node11&#45;&gt;Node5 -->
<g id="edge14_Node000011_Node000005" class="edge">
<title>Node11&#45;&gt;Node5</title>
<g id="a_edge14_Node000011_Node000005"><a xlink:title=" ">
<path fill="none" stroke="#63b8ff" d="M275.74,-54.84C262.62,-46.81 243.18,-34.91 227.77,-25.48"/>
<polygon fill="#63b8ff" stroke="#63b8ff" points="229.98,-22.73 219.62,-20.49 226.32,-28.7 229.98,-22.73"/>
</a>
</g>
</g>
<!-- Node11&#45;&gt;Node10 -->
<g id="edge16_Node000011_Node000010" class="edge">
<title>Node11&#45;&gt;Node10</title>
<g id="a_edge16_Node000011_Node000010"><a xlink:title=" ">
<path fill="none" stroke="#63b8ff" d="M307.29,-54.84C322.51,-46.66 345.2,-34.46 362.88,-24.94"/>
<polygon fill="#63b8ff" stroke="#63b8ff" points="364.14,-28.24 371.29,-20.42 360.83,-22.07 364.14,-28.24"/>
</a>
</g>
</g>
<!-- Node12 -->
<g id="Node000012" class="node">
<title>Node12</title>
<g id="a_Node000012"><a xlink:title=" ">
<polygon fill="#e0e0e0" stroke="#999999" points="315.25,-19.25 261.75,-19.25 261.75,0 315.25,0 315.25,-19.25"/>
<text text-anchor="middle" x="288.5" y="-5.75" font-family="Helvetica,sans-Serif" font-size="10.00">iostream</text>
</a>
</g>
</g>
<!-- Node11&#45;&gt;Node12 -->
<g id="edge13_Node000011_Node000012" class="edge">
<title>Node11&#45;&gt;Node12</title>
<g id="a_edge13_Node000011_Node000012"><a xlink:title=" ">
<path fill="none" stroke="#63b8ff" d="M290.17,-55.08C289.92,-48.49 289.57,-39.21 289.26,-30.82"/>
<polygon fill="#63b8ff" stroke="#63b8ff" points="292.77,-30.98 288.89,-21.12 285.77,-31.25 292.77,-30.98"/>
</a>
</g>
</g>
<!-- Node13 -->
<g id="Node000013" class="node">
<title>Node13</title>
<g id="a_Node000013"><a xlink:title=" ">
<polygon fill="#e0e0e0" stroke="#999999" points="134.5,-19.25 76.5,-19.25 76.5,0 134.5,0 134.5,-19.25"/>
<text text-anchor="middle" x="105.5" y="-5.75" font-family="Helvetica,sans-Serif" font-size="10.00">functional</text>
</a>
</g>
</g>
<!-- Node11&#45;&gt;Node13 -->
<g id="edge15_Node000011_Node000013" class="edge">
<title>Node11&#45;&gt;Node13</title>
<g id="a_edge15_Node000011_Node000013"><a xlink:title=" ">
<path fill="none" stroke="#63b8ff" d="M259.12,-54.84C227.9,-45.86 179.89,-32.04 145.86,-22.24"/>
<polygon fill="#63b8ff" stroke="#63b8ff" points="146.93,-18.91 136.35,-19.5 144.99,-25.63 146.93,-18.91"/>
</a>
</g>
</g>
<!-- Node14&#45;&gt;Node2 -->
<g id="edge19_Node000014_Node000002" class="edge">
<title>Node14&#45;&gt;Node2</title>
<g id="a_edge19_Node000014_Node000002"><a xlink:title=" ">
<path fill="none" stroke="#63b8ff" d="M81.29,-54.84C70.67,-46.99 55.06,-35.45 42.46,-26.12"/>
<polygon fill="#63b8ff" stroke="#63b8ff" points="44.87,-23.56 34.75,-20.42 40.71,-29.19 44.87,-23.56"/>
</a>
</g>
</g>
<!-- Node14&#45;&gt;Node13 -->
<g id="edge18_Node000014_Node000013" class="edge">
<title>Node14&#45;&gt;Node13</title>
<g id="a_edge18_Node000014_Node000013"><a xlink:title=" ">
<path fill="none" stroke="#63b8ff" d="M95.48,-55.08C96.97,-48.49 99.06,-39.21 100.95,-30.82"/>
<polygon fill="#63b8ff" stroke="#63b8ff" points="104.36,-31.61 103.14,-21.09 97.53,-30.07 104.36,-31.61"/>
</a>
</g>
</g>
</g>
</svg>
