<?xml version="1.0" encoding="UTF-8" standalone="no"?>
<!DOCTYPE svg PUBLIC "-//W3C//DTD SVG 1.1//EN"
 "http://www.w3.org/Graphics/SVG/1.1/DTD/svg11.dtd">
<!-- Generated by graphviz version 12.2.0 (20241103.1931)
 -->
<!-- Title: /Users/fola/Documents/ArkScript/Ark/src/arkreactor/Compiler/Pass.cpp Pages: 1 -->
<!--zoomable 326 -->

<svg id="main" version="1.1" xmlns="http://www.w3.org/2000/svg" xmlns:xlink="http://www.w3.org/1999/xlink" xml:space="preserve" onload="init(evt)">

<style type="text/css"><![CDATA[
.node, .edge {opacity: 0.7;}
.node.selected, .edge.selected {opacity: 1;}
.edge:hover path { stroke: red; }
.edge:hover polygon { stroke: red; fill: red; }
]]></style>

<defs>
  <circle id="rim" cx="0" cy="0" r="7"/>
  <circle id="rim2" cx="0" cy="0" r="3.5"/>
  <g id="zoomPlus">
    <use xlink:href="#rim" fill="#404040"><set attributeName="fill" to="#808080" begin="zoomplus.mouseover" end="zoomplus.mouseout"/></use>
    <path d="M-4,0h8M0,-4v8" fill="none" stroke="white" stroke-width="1.5" pointer-events="none"/>
  </g>
  <g id="zoomMin">
    <use xlink:href="#rim" fill="#404040"><set attributeName="fill" to="#808080" begin="zoomminus.mouseover" end="zoomminus.mouseout"/></use>
    <path d="M-4,0h8" fill="none" stroke="white" stroke-width="1.5" pointer-events="none"/>
  </g>
  <g id="arrowUp" transform="translate(30 24)">
    <use xlink:href="#rim"/>
    <path pointer-events="none" fill="none" stroke="white" stroke-width="1.5" d="M0,-3.0v7 M-2.5,-0.5L0,-3.0L2.5,-0.5"/>
  </g>
  <g id="arrowRight" transform="rotate(90) translate(36 -43)">
    <use xlink:href="#rim"/>
    <path pointer-events="none" fill="none" stroke="white" stroke-width="1.5" d="M0,-3.0v7 M-2.5,-0.5L0,-3.0L2.5,-0.5"/>
  </g>
  <g id="arrowDown" transform="rotate(180) translate(-30 -48)">
    <use xlink:href="#rim"/>
    <path pointer-events="none" fill="none" stroke="white" stroke-width="1.5" d="M0,-3.0v7 M-2.5,-0.5L0,-3.0L2.5,-0.5"/>
  </g>
  <g id="arrowLeft" transform="rotate(270) translate(-36 17)">
    <use xlink:href="#rim"/>
    <path pointer-events="none" fill="none" stroke="white" stroke-width="1.5" d="M0,-3.0v7 M-2.5,-0.5L0,-3.0L2.5,-0.5"/>
  </g>
  <g id="resetDef">
    <use xlink:href="#rim2" fill="#404040"><set attributeName="fill" to="#808080" begin="reset.mouseover" end="reset.mouseout"/></use>
  </g>
</defs>
<script type="application/ecmascript">
var viewWidth = 1068;
var viewHeight = 326;
var sectionId = 'dynsection-0';
</script>
<script type="application/ecmascript" xlink:href="../../svg.min.js"/>
<svg id="graph" class="graph">
<g id="viewport">
<title>/Users/fola/Documents/ArkScript/Ark/src/arkreactor/Compiler/Pass.cpp</title>
<!-- Node1 -->
<g id="Node000001" class="node">
<title>Node1</title>
<g id="a_Node000001"><a xlink:title=" ">
<polygon fill="#999999" stroke="#666666" points="439,-318 298.5,-318 298.5,-276.25 439,-276.25 439,-318"/>
<text text-anchor="start" x="306.5" y="-304.5" font-family="Helvetica,sans-Serif" font-size="10.00">/Users/fola/Documents</text>
<text text-anchor="start" x="306.5" y="-293.25" font-family="Helvetica,sans-Serif" font-size="10.00">/ArkScript/Ark/src/arkreactor</text>
<text text-anchor="middle" x="368.75" y="-282" font-family="Helvetica,sans-Serif" font-size="10.00">/Compiler/Pass.cpp</text>
</a>
</g>
</g>
<!-- Node2 -->
<g id="Node000002" class="node">
<title>Node2</title>
<g id="a_Node000002"><a xlink:href="../../df/d5f/Pass_8hpp.html" target="_top" xlink:title="Interface for a compiler pass (take in an AST, output an AST)">
<polygon fill="white" stroke="#666666" points="379.38,-240.25 262.12,-240.25 262.12,-221 379.38,-221 379.38,-240.25"/>
<text text-anchor="middle" x="320.75" y="-226.75" font-family="Helvetica,sans-Serif" font-size="10.00">Ark/Compiler/Pass.hpp</text>
</a>
</g>
</g>
<!-- Node1&#45;&gt;Node2 -->
<g id="edge1_Node000001_Node000002" class="edge">
<title>Node1&#45;&gt;Node2</title>
<g id="a_edge1_Node000001_Node000002"><a xlink:title=" ">
<path fill="none" stroke="#63b8ff" d="M353.83,-276.07C347.56,-267.66 340.34,-257.95 334.24,-249.75"/>
<polygon fill="#63b8ff" stroke="#63b8ff" points="337.18,-247.84 328.4,-241.91 331.57,-252.02 337.18,-247.84"/>
</a>
</g>
</g>
<!-- Node24 -->
<g id="Node000024" class="node">
<title>Node24</title>
<g id="a_Node000024"><a xlink:title=" ">
<polygon fill="#e0e0e0" stroke="#999999" points="436.38,-240.25 397.12,-240.25 397.12,-221 436.38,-221 436.38,-240.25"/>
<text text-anchor="middle" x="416.75" y="-226.75" font-family="Helvetica,sans-Serif" font-size="10.00">utility</text>
</a>
</g>
</g>
<!-- Node1&#45;&gt;Node24 -->
<g id="edge31_Node000001_Node000024" class="edge">
<title>Node1&#45;&gt;Node24</title>
<g id="a_edge31_Node000001_Node000024"><a xlink:title=" ">
<path fill="none" stroke="#63b8ff" d="M383.67,-276.07C389.94,-267.66 397.16,-257.95 403.26,-249.75"/>
<polygon fill="#63b8ff" stroke="#63b8ff" points="405.93,-252.02 409.1,-241.91 400.32,-247.84 405.93,-252.02"/>
</a>
</g>
</g>
<!-- Node3 -->
<g id="Node000003" class="node">
<title>Node3</title>
<g id="a_Node000003"><a xlink:href="../../d5/d40/Platform_8hpp.html" target="_top" xlink:title="ArkScript configuration macros.">
<polygon fill="white" stroke="#666666" points="89.5,-129.75 0,-129.75 0,-110.5 89.5,-110.5 89.5,-129.75"/>
<text text-anchor="middle" x="44.75" y="-116.25" font-family="Helvetica,sans-Serif" font-size="10.00">Ark/Platform.hpp</text>
</a>
</g>
</g>
<!-- Node2&#45;&gt;Node3 -->
<g id="edge2_Node000002_Node000003" class="edge">
<title>Node2&#45;&gt;Node3</title>
<g id="a_edge2_Node000002_Node000003"><a xlink:title=" ">
<path fill="none" stroke="#63b8ff" d="M297.69,-220.56C248.99,-201.41 135.44,-156.78 78.53,-134.4"/>
<polygon fill="#63b8ff" stroke="#63b8ff" points="79.93,-131.19 69.34,-130.79 77.37,-137.71 79.93,-131.19"/>
</a>
</g>
</g>
<!-- Node4 -->
<g id="Node000004" class="node">
<title>Node4</title>
<g id="a_Node000004"><a xlink:href="../../d7/dc6/Node_8hpp.html" target="_top" xlink:title="AST node used by the parser, optimizer and compiler.">
<polygon fill="white" stroke="#666666" points="391,-185 250.5,-185 250.5,-165.75 391,-165.75 391,-185"/>
<text text-anchor="middle" x="320.75" y="-171.5" font-family="Helvetica,sans-Serif" font-size="10.00">Ark/Compiler/AST/Node.hpp</text>
</a>
</g>
</g>
<!-- Node2&#45;&gt;Node4 -->
<g id="edge3_Node000002_Node000004" class="edge">
<title>Node2&#45;&gt;Node4</title>
<g id="a_edge3_Node000002_Node000004"><a xlink:title=" ">
<path fill="none" stroke="#63b8ff" d="M320.75,-220.83C320.75,-214.32 320.75,-205.17 320.75,-196.87"/>
<polygon fill="#63b8ff" stroke="#63b8ff" points="324.25,-196.87 320.75,-186.87 317.25,-196.87 324.25,-196.87"/>
</a>
</g>
</g>
<!-- Node17 -->
<g id="Node000017" class="node">
<title>Node17</title>
<g id="a_Node000017"><a xlink:href="../../d9/d11/Logger_8hpp.html" target="_top" xlink:title="Internal logger.">
<polygon fill="white" stroke="#666666" points="738.38,-129.75 657.12,-129.75 657.12,-110.5 738.38,-110.5 738.38,-129.75"/>
<text text-anchor="middle" x="697.75" y="-116.25" font-family="Helvetica,sans-Serif" font-size="10.00">Ark/Logger.hpp</text>
</a>
</g>
</g>
<!-- Node2&#45;&gt;Node17 -->
<g id="edge22_Node000002_Node000017" class="edge">
<title>Node2&#45;&gt;Node17</title>
<g id="a_edge22_Node000002_Node000017"><a xlink:title=" ">
<path fill="none" stroke="#63b8ff" d="M352.24,-220.56C419.88,-201.09 579.07,-155.28 655.43,-133.3"/>
<polygon fill="#63b8ff" stroke="#63b8ff" points="655.98,-136.79 664.63,-130.66 654.05,-130.06 655.98,-136.79"/>
</a>
</g>
</g>
<!-- Node4&#45;&gt;Node3 -->
<g id="edge21_Node000004_Node000003" class="edge">
<title>Node4&#45;&gt;Node3</title>
<g id="a_edge21_Node000004_Node000003"><a xlink:title=" ">
<path fill="none" stroke="#63b8ff" d="M273.62,-165.28C225.81,-156.06 151.81,-141.78 100.97,-131.97"/>
<polygon fill="#63b8ff" stroke="#63b8ff" points="101.82,-128.57 91.34,-130.11 100.5,-135.45 101.82,-128.57"/>
</a>
</g>
</g>
<!-- Node5 -->
<g id="Node000005" class="node">
<title>Node5</title>
<g id="a_Node000005"><a xlink:title=" ">
<polygon fill="#e0e0e0" stroke="#999999" points="343.38,-129.75 298.12,-129.75 298.12,-110.5 343.38,-110.5 343.38,-129.75"/>
<text text-anchor="middle" x="320.75" y="-116.25" font-family="Helvetica,sans-Serif" font-size="10.00">variant</text>
</a>
</g>
</g>
<!-- Node4&#45;&gt;Node5 -->
<g id="edge4_Node000004_Node000005" class="edge">
<title>Node4&#45;&gt;Node5</title>
<g id="a_edge4_Node000004_Node000005"><a xlink:title=" ">
<path fill="none" stroke="#63b8ff" d="M320.75,-165.58C320.75,-159.07 320.75,-149.92 320.75,-141.62"/>
<polygon fill="#63b8ff" stroke="#63b8ff" points="324.25,-141.62 320.75,-131.62 317.25,-141.62 324.25,-141.62"/>
</a>
</g>
</g>
<!-- Node6 -->
<g id="Node000006" class="node">
<title>Node6</title>
<g id="a_Node000006"><a xlink:title=" ">
<polygon fill="#e0e0e0" stroke="#999999" points="412.38,-129.75 361.12,-129.75 361.12,-110.5 412.38,-110.5 412.38,-129.75"/>
<text text-anchor="middle" x="386.75" y="-116.25" font-family="Helvetica,sans-Serif" font-size="10.00">ostream</text>
</a>
</g>
</g>
<!-- Node4&#45;&gt;Node6 -->
<g id="edge5_Node000004_Node000006" class="edge">
<title>Node4&#45;&gt;Node6</title>
<g id="a_edge5_Node000004_Node000006"><a xlink:title=" ">
<path fill="none" stroke="#63b8ff" d="M331.95,-165.34C341.49,-157.65 355.42,-146.4 366.86,-137.18"/>
<polygon fill="#63b8ff" stroke="#63b8ff" points="368.96,-139.98 374.54,-130.98 364.56,-134.53 368.96,-139.98"/>
</a>
</g>
</g>
<!-- Node7 -->
<g id="Node000007" class="node">
<title>Node7</title>
<g id="a_Node000007"><a xlink:title=" ">
<polygon fill="#e0e0e0" stroke="#999999" points="554.75,-74.5 514.75,-74.5 514.75,-55.25 554.75,-55.25 554.75,-74.5"/>
<text text-anchor="middle" x="534.75" y="-61" font-family="Helvetica,sans-Serif" font-size="10.00">string</text>
</a>
</g>
</g>
<!-- Node4&#45;&gt;Node7 -->
<g id="edge6_Node000004_Node000007" class="edge">
<title>Node4&#45;&gt;Node7</title>
<g id="a_edge6_Node000004_Node000007"><a xlink:title=" ">
<path fill="none" stroke="#63b8ff" d="M391.25,-173.61C467.58,-171.12 582.16,-161.93 609.75,-129.75 627.64,-108.89 593.53,-89.05 565.64,-77.17"/>
<polygon fill="#63b8ff" stroke="#63b8ff" points="566.99,-73.94 556.41,-73.44 564.37,-80.43 566.99,-73.94"/>
</a>
</g>
</g>
<!-- Node8 -->
<g id="Node000008" class="node">
<title>Node8</title>
<g id="a_Node000008"><a xlink:title=" ">
<polygon fill="#e0e0e0" stroke="#999999" points="385.25,-74.5 342.25,-74.5 342.25,-55.25 385.25,-55.25 385.25,-74.5"/>
<text text-anchor="middle" x="363.75" y="-61" font-family="Helvetica,sans-Serif" font-size="10.00">vector</text>
</a>
</g>
</g>
<!-- Node4&#45;&gt;Node8 -->
<g id="edge7_Node000004_Node000008" class="edge">
<title>Node4&#45;&gt;Node8</title>
<g id="a_edge7_Node000004_Node000008"><a xlink:title=" ">
<path fill="none" stroke="#63b8ff" d="M310.61,-165.54C297.57,-153.08 277.84,-129.69 288.75,-110.5 297.94,-94.34 315.55,-83.42 331.39,-76.43"/>
<polygon fill="#63b8ff" stroke="#63b8ff" points="332.57,-79.73 340.55,-72.76 329.97,-73.23 332.57,-79.73"/>
</a>
</g>
</g>
<!-- Node9 -->
<g id="Node000009" class="node">
<title>Node9</title>
<g id="a_Node000009"><a xlink:href="../../da/d33/Namespace_8hpp.html" target="_top" xlink:title=" ">
<polygon fill="white" stroke="#666666" points="600.62,-129.75 430.88,-129.75 430.88,-110.5 600.62,-110.5 600.62,-129.75"/>
<text text-anchor="middle" x="515.75" y="-116.25" font-family="Helvetica,sans-Serif" font-size="10.00">Ark/Compiler/AST/Namespace.hpp</text>
</a>
</g>
</g>
<!-- Node4&#45;&gt;Node9 -->
<g id="edge8_Node000004_Node000009" class="edge">
<title>Node4&#45;&gt;Node9</title>
<g id="a_edge8_Node000004_Node000009"><a xlink:title=" ">
<path fill="none" stroke="#63b8ff" d="M353.83,-165.34C386.19,-156.51 435.67,-142.99 471.42,-133.23"/>
<polygon fill="#63b8ff" stroke="#63b8ff" points="472.32,-136.61 481.05,-130.6 470.48,-129.86 472.32,-136.61"/>
</a>
</g>
</g>
<!-- Node11 -->
<g id="Node000011" class="node">
<title>Node11</title>
<g id="a_Node000011"><a xlink:href="../../d8/ddd/Common_8hpp.html" target="_top" xlink:title="Common code for the compiler.">
<polygon fill="white" stroke="#666666" points="242,-129.75 107.5,-129.75 107.5,-110.5 242,-110.5 242,-129.75"/>
<text text-anchor="middle" x="174.75" y="-116.25" font-family="Helvetica,sans-Serif" font-size="10.00">Ark/Compiler/Common.hpp</text>
</a>
</g>
</g>
<!-- Node4&#45;&gt;Node11 -->
<g id="edge12_Node000004_Node000011" class="edge">
<title>Node4&#45;&gt;Node11</title>
<g id="a_edge12_Node000004_Node000011"><a xlink:title=" ">
<path fill="none" stroke="#63b8ff" d="M295.98,-165.34C272.49,-156.77 236.94,-143.81 210.4,-134.13"/>
<polygon fill="#63b8ff" stroke="#63b8ff" points="211.65,-130.86 201.06,-130.72 209.26,-137.44 211.65,-130.86"/>
</a>
</g>
</g>
<!-- Node9&#45;&gt;Node7 -->
<g id="edge9_Node000009_Node000007" class="edge">
<title>Node9&#45;&gt;Node7</title>
<g id="a_edge9_Node000009_Node000007"><a xlink:title=" ">
<path fill="none" stroke="#63b8ff" d="M518.89,-110.33C521.29,-103.59 524.71,-94.02 527.75,-85.49"/>
<polygon fill="#63b8ff" stroke="#63b8ff" points="530.97,-86.88 531.04,-76.28 524.38,-84.53 530.97,-86.88"/>
</a>
</g>
</g>
<!-- Node9&#45;&gt;Node8 -->
<g id="edge10_Node000009_Node000008" class="edge">
<title>Node9&#45;&gt;Node8</title>
<g id="a_edge10_Node000009_Node000008"><a xlink:title=" ">
<path fill="none" stroke="#63b8ff" d="M489.97,-110.09C464.21,-101.07 424.52,-87.17 396.54,-77.36"/>
<polygon fill="#63b8ff" stroke="#63b8ff" points="397.73,-74.07 387.14,-74.07 395.42,-80.68 397.73,-74.07"/>
</a>
</g>
</g>
<!-- Node10 -->
<g id="Node000010" class="node">
<title>Node10</title>
<g id="a_Node000010"><a xlink:title=" ">
<polygon fill="#e0e0e0" stroke="#999999" points="496.38,-74.5 445.12,-74.5 445.12,-55.25 496.38,-55.25 496.38,-74.5"/>
<text text-anchor="middle" x="470.75" y="-61" font-family="Helvetica,sans-Serif" font-size="10.00">memory</text>
</a>
</g>
</g>
<!-- Node9&#45;&gt;Node10 -->
<g id="edge11_Node000009_Node000010" class="edge">
<title>Node9&#45;&gt;Node10</title>
<g id="a_edge11_Node000009_Node000010"><a xlink:title=" ">
<path fill="none" stroke="#63b8ff" d="M508.32,-110.33C502.17,-103.05 493.24,-92.48 485.62,-83.48"/>
<polygon fill="#63b8ff" stroke="#63b8ff" points="488.45,-81.39 479.32,-76.02 483.1,-85.91 488.45,-81.39"/>
</a>
</g>
</g>
<!-- Node11&#45;&gt;Node8 -->
<g id="edge15_Node000011_Node000008" class="edge">
<title>Node11&#45;&gt;Node8</title>
<g id="a_edge15_Node000011_Node000008"><a xlink:title=" ">
<path fill="none" stroke="#63b8ff" d="M206.81,-110.09C241.35,-100.36 296.02,-84.96 330.87,-75.14"/>
<polygon fill="#63b8ff" stroke="#63b8ff" points="331.74,-78.53 340.42,-72.45 329.84,-71.79 331.74,-78.53"/>
</a>
</g>
</g>
<!-- Node12 -->
<g id="Node000012" class="node">
<title>Node12</title>
<g id="a_Node000012"><a xlink:title=" ">
<polygon fill="#e0e0e0" stroke="#999999" points="138.62,-74.5 100.88,-74.5 100.88,-55.25 138.62,-55.25 138.62,-74.5"/>
<text text-anchor="middle" x="119.75" y="-61" font-family="Helvetica,sans-Serif" font-size="10.00">array</text>
</a>
</g>
</g>
<!-- Node11&#45;&gt;Node12 -->
<g id="edge13_Node000011_Node000012" class="edge">
<title>Node11&#45;&gt;Node12</title>
<g id="a_edge13_Node000011_Node000012"><a xlink:title=" ">
<path fill="none" stroke="#63b8ff" d="M165.67,-110.33C157.91,-102.82 146.54,-91.81 137.05,-82.63"/>
<polygon fill="#63b8ff" stroke="#63b8ff" points="139.74,-80.35 130.12,-75.91 134.87,-85.38 139.74,-80.35"/>
</a>
</g>
</g>
<!-- Node13 -->
<g id="Node000013" class="node">
<title>Node13</title>
<g id="a_Node000013"><a xlink:title=" ">
<polygon fill="#e0e0e0" stroke="#999999" points="314.5,-19.25 249,-19.25 249,0 314.5,0 314.5,-19.25"/>
<text text-anchor="middle" x="281.75" y="-5.75" font-family="Helvetica,sans-Serif" font-size="10.00">string_view</text>
</a>
</g>
</g>
<!-- Node11&#45;&gt;Node13 -->
<g id="edge14_Node000011_Node000013" class="edge">
<title>Node11&#45;&gt;Node13</title>
<g id="a_edge14_Node000011_Node000013"><a xlink:title=" ">
<path fill="none" stroke="#63b8ff" d="M207.37,-110.08C226.36,-103.23 249.33,-91.96 263.75,-74.5 273.97,-62.12 278.4,-44.29 280.31,-30.62"/>
<polygon fill="#63b8ff" stroke="#63b8ff" points="283.76,-31.31 281.3,-21 276.8,-30.59 283.76,-31.31"/>
</a>
</g>
</g>
<!-- Node14 -->
<g id="Node000014" class="node">
<title>Node14</title>
<g id="a_Node000014"><a xlink:title=" ">
<polygon fill="#e0e0e0" stroke="#999999" points="132.62,-19.25 76.88,-19.25 76.88,0 132.62,0 132.62,-19.25"/>
<text text-anchor="middle" x="104.75" y="-5.75" font-family="Helvetica,sans-Serif" font-size="10.00">cinttypes</text>
</a>
</g>
</g>
<!-- Node11&#45;&gt;Node14 -->
<g id="edge16_Node000011_Node000014" class="edge">
<title>Node11&#45;&gt;Node14</title>
<g id="a_edge16_Node000011_Node000014"><a xlink:title=" ">
<path fill="none" stroke="#63b8ff" d="M140.88,-110.14C122.92,-103.46 102.41,-92.33 91.75,-74.5 83.59,-60.84 88.31,-42.91 94.23,-29.53"/>
<polygon fill="#63b8ff" stroke="#63b8ff" points="97.21,-31.41 98.55,-20.9 90.95,-28.28 97.21,-31.41"/>
</a>
</g>
</g>
<!-- Node15 -->
<g id="Node000015" class="node">
<title>Node15</title>
<g id="a_Node000015"><a xlink:href="../../d6/de9/Constants_8hpp.html" target="_top" xlink:title="Constants used by ArkScript.">
<polygon fill="white" stroke="#666666" points="254.62,-74.5 156.88,-74.5 156.88,-55.25 254.62,-55.25 254.62,-74.5"/>
<text text-anchor="middle" x="205.75" y="-61" font-family="Helvetica,sans-Serif" font-size="10.00">Ark/Constants.hpp</text>
</a>
</g>
</g>
<!-- Node11&#45;&gt;Node15 -->
<g id="edge17_Node000011_Node000015" class="edge">
<title>Node11&#45;&gt;Node15</title>
<g id="a_edge17_Node000011_Node000015"><a xlink:title=" ">
<path fill="none" stroke="#63b8ff" d="M179.87,-110.33C183.93,-103.36 189.74,-93.37 194.84,-84.62"/>
<polygon fill="#63b8ff" stroke="#63b8ff" points="197.75,-86.57 199.76,-76.17 191.7,-83.05 197.75,-86.57"/>
</a>
</g>
</g>
<!-- Node15&#45;&gt;Node13 -->
<g id="edge18_Node000015_Node000013" class="edge">
<title>Node15&#45;&gt;Node13</title>
<g id="a_edge18_Node000015_Node000013"><a xlink:title=" ">
<path fill="none" stroke="#63b8ff" d="M218.64,-54.84C229.78,-47.04 246.12,-35.59 259.39,-26.29"/>
<polygon fill="#63b8ff" stroke="#63b8ff" points="261.37,-29.18 267.55,-20.57 257.36,-23.44 261.37,-29.18"/>
</a>
</g>
</g>
<!-- Node15&#45;&gt;Node14 -->
<g id="edge19_Node000015_Node000014" class="edge">
<title>Node15&#45;&gt;Node14</title>
<g id="a_edge19_Node000015_Node000014"><a xlink:title=" ">
<path fill="none" stroke="#63b8ff" d="M188.62,-54.84C173.09,-46.66 149.95,-34.46 131.91,-24.94"/>
<polygon fill="#63b8ff" stroke="#63b8ff" points="133.78,-21.98 123.31,-20.41 130.52,-28.17 133.78,-21.98"/>
</a>
</g>
</g>
<!-- Node16 -->
<g id="Node000016" class="node">
<title>Node16</title>
<g id="a_Node000016"><a xlink:title=" ">
<polygon fill="#e0e0e0" stroke="#999999" points="229.88,-19.25 181.62,-19.25 181.62,0 229.88,0 229.88,-19.25"/>
<text text-anchor="middle" x="205.75" y="-5.75" font-family="Helvetica,sans-Serif" font-size="10.00">cstddef</text>
</a>
</g>
</g>
<!-- Node15&#45;&gt;Node16 -->
<g id="edge20_Node000015_Node000016" class="edge">
<title>Node15&#45;&gt;Node16</title>
<g id="a_edge20_Node000015_Node000016"><a xlink:title=" ">
<path fill="none" stroke="#63b8ff" d="M205.75,-55.08C205.75,-48.57 205.75,-39.42 205.75,-31.12"/>
<polygon fill="#63b8ff" stroke="#63b8ff" points="209.25,-31.12 205.75,-21.12 202.25,-31.12 209.25,-31.12"/>
</a>
</g>
</g>
<!-- Node17&#45;&gt;Node7 -->
<g id="edge25_Node000017_Node000007" class="edge">
<title>Node17&#45;&gt;Node7</title>
<g id="a_edge25_Node000017_Node000007"><a xlink:title=" ">
<path fill="none" stroke="#63b8ff" d="M670.1,-110.09C641.1,-100.62 595.65,-85.77 565.53,-75.93"/>
<polygon fill="#63b8ff" stroke="#63b8ff" points="566.84,-72.68 556.25,-72.9 564.67,-79.33 566.84,-72.68"/>
</a>
</g>
</g>
<!-- Node17&#45;&gt;Node8 -->
<g id="edge28_Node000017_Node000008" class="edge">
<title>Node17&#45;&gt;Node8</title>
<g id="a_edge28_Node000017_Node000008"><a xlink:title=" ">
<path fill="none" stroke="#63b8ff" d="M656.8,-112.6C589.84,-101.92 458.26,-80.94 396.82,-71.15"/>
<polygon fill="#63b8ff" stroke="#63b8ff" points="397.42,-67.7 387,-69.58 396.32,-74.61 397.42,-67.7"/>
</a>
</g>
</g>
<!-- Node18 -->
<g id="Node000018" class="node">
<title>Node18</title>
<g id="a_Node000018"><a xlink:title=" ">
<polygon fill="#e0e0e0" stroke="#999999" points="973.5,-74.5 920,-74.5 920,-55.25 973.5,-55.25 973.5,-74.5"/>
<text text-anchor="middle" x="946.75" y="-61" font-family="Helvetica,sans-Serif" font-size="10.00">iostream</text>
</a>
</g>
</g>
<!-- Node17&#45;&gt;Node18 -->
<g id="edge23_Node000017_Node000018" class="edge">
<title>Node17&#45;&gt;Node18</title>
<g id="a_edge23_Node000017_Node000018"><a xlink:title=" ">
<path fill="none" stroke="#63b8ff" d="M738.66,-110.92C779.33,-102.67 843.78,-89.4 908.78,-74.89"/>
<polygon fill="#63b8ff" stroke="#63b8ff" points="909.17,-78.39 918.17,-72.79 907.64,-71.56 909.17,-78.39"/>
</a>
</g>
</g>
<!-- Node19 -->
<g id="Node000019" class="node">
<title>Node19</title>
<g id="a_Node000019"><a xlink:title=" ">
<polygon fill="#e0e0e0" stroke="#999999" points="1060.38,-74.5 991.12,-74.5 991.12,-55.25 1060.38,-55.25 1060.38,-74.5"/>
<text text-anchor="middle" x="1025.75" y="-61" font-family="Helvetica,sans-Serif" font-size="10.00">fmt/format.h</text>
</a>
</g>
</g>
<!-- Node17&#45;&gt;Node19 -->
<g id="edge24_Node000017_Node000019" class="edge">
<title>Node17&#45;&gt;Node19</title>
<g id="a_edge24_Node000017_Node000019"><a xlink:title=" ">
<path fill="none" stroke="#63b8ff" d="M738.43,-113.31C791.65,-105.59 888.07,-91.17 979.87,-74.96"/>
<polygon fill="#63b8ff" stroke="#63b8ff" points="980.32,-78.43 989.55,-73.23 979.09,-71.54 980.32,-78.43"/>
</a>
</g>
</g>
<!-- Node20 -->
<g id="Node000020" class="node">
<title>Node20</title>
<g id="a_Node000020"><a xlink:title=" ">
<polygon fill="#e0e0e0" stroke="#999999" points="618.38,-74.5 573.12,-74.5 573.12,-55.25 618.38,-55.25 618.38,-74.5"/>
<text text-anchor="middle" x="595.75" y="-61" font-family="Helvetica,sans-Serif" font-size="10.00">chrono</text>
</a>
</g>
</g>
<!-- Node17&#45;&gt;Node20 -->
<g id="edge26_Node000017_Node000020" class="edge">
<title>Node17&#45;&gt;Node20</title>
<g id="a_edge26_Node000017_Node000020"><a xlink:title=" ">
<path fill="none" stroke="#63b8ff" d="M680.45,-110.09C664.77,-101.91 641.4,-89.71 623.17,-80.19"/>
<polygon fill="#63b8ff" stroke="#63b8ff" points="624.96,-77.18 614.48,-75.65 621.72,-83.38 624.96,-77.18"/>
</a>
</g>
</g>
<!-- Node21 -->
<g id="Node000021" class="node">
<title>Node21</title>
<g id="a_Node000021"><a xlink:title=" ">
<polygon fill="#e0e0e0" stroke="#999999" points="720.88,-74.5 636.62,-74.5 636.62,-55.25 720.88,-55.25 720.88,-74.5"/>
<text text-anchor="middle" x="678.75" y="-61" font-family="Helvetica,sans-Serif" font-size="10.00">source_location</text>
</a>
</g>
</g>
<!-- Node17&#45;&gt;Node21 -->
<g id="edge27_Node000017_Node000021" class="edge">
<title>Node17&#45;&gt;Node21</title>
<g id="a_edge27_Node000017_Node000021"><a xlink:title=" ">
<path fill="none" stroke="#63b8ff" d="M694.61,-110.33C692.21,-103.59 688.79,-94.02 685.75,-85.49"/>
<polygon fill="#63b8ff" stroke="#63b8ff" points="689.12,-84.53 682.46,-76.28 682.53,-86.88 689.12,-84.53"/>
</a>
</g>
</g>
<!-- Node22 -->
<g id="Node000022" class="node">
<title>Node22</title>
<g id="a_Node000022"><a xlink:title=" ">
<polygon fill="#e0e0e0" stroke="#999999" points="822.12,-74.5 739.38,-74.5 739.38,-55.25 822.12,-55.25 822.12,-74.5"/>
<text text-anchor="middle" x="780.75" y="-61" font-family="Helvetica,sans-Serif" font-size="10.00">unordered_map</text>
</a>
</g>
</g>
<!-- Node17&#45;&gt;Node22 -->
<g id="edge29_Node000017_Node000022" class="edge">
<title>Node17&#45;&gt;Node22</title>
<g id="a_edge29_Node000017_Node000022"><a xlink:title=" ">
<path fill="none" stroke="#63b8ff" d="M711.83,-110.09C724.23,-102.14 742.54,-90.39 757.18,-81"/>
<polygon fill="#63b8ff" stroke="#63b8ff" points="758.8,-84.12 765.33,-75.77 755.02,-78.22 758.8,-84.12"/>
</a>
</g>
</g>
<!-- Node23 -->
<g id="Node000023" class="node">
<title>Node23</title>
<g id="a_Node000023"><a xlink:title=" ">
<polygon fill="#e0e0e0" stroke="#999999" points="901.62,-74.5 839.88,-74.5 839.88,-55.25 901.62,-55.25 901.62,-74.5"/>
<text text-anchor="middle" x="870.75" y="-61" font-family="Helvetica,sans-Serif" font-size="10.00">fmt/color.h</text>
</a>
</g>
</g>
<!-- Node17&#45;&gt;Node23 -->
<g id="edge30_Node000017_Node000023" class="edge">
<title>Node17&#45;&gt;Node23</title>
<g id="a_edge30_Node000017_Node000023"><a xlink:title=" ">
<path fill="none" stroke="#63b8ff" d="M727.1,-110.09C755.55,-101.33 798.95,-87.98 830.6,-78.23"/>
<polygon fill="#63b8ff" stroke="#63b8ff" points="831.28,-81.68 839.81,-75.4 829.23,-74.99 831.28,-81.68"/>
</a>
</g>
</g>
</g>
</svg>

<g id="navigator" transform="translate(0 0)" fill="#404254">
  <rect fill="#f2f5e9" fill-opacity="0.5" stroke="#606060" stroke-width=".5" x="0" y="0" width="60" height="60"/>
  <use id="zoomplus" xlink:href="#zoomPlus" x="17" y="9" onmousedown="handleZoom(evt,'in')"/>
  <use id="zoomminus" xlink:href="#zoomMin" x="42" y="9" onmousedown="handleZoom(evt,'out')"/>
  <use id="reset" xlink:href="#resetDef" x="30" y="36" onmousedown="handleReset()"/>
   <use id="arrowup" xlink:href="#arrowUp" x="0" y="0" onmousedown="handlePan(0,-1)"/>
  <use id="arrowright" xlink:href="#arrowRight" x="0" y="0" onmousedown="handlePan(1,0)"/>
  <use id="arrowdown" xlink:href="#arrowDown" x="0" y="0" onmousedown="handlePan(0,1)"/>
  <use id="arrowleft" xlink:href="#arrowLeft" x="0" y="0" onmousedown="handlePan(-1,0)"/>
</g>
<svg viewBox="0 0 15 15" width="100%" height="30px" preserveAspectRatio="xMaxYMin meet">
 <g id="arrow_out" transform="scale(0.3 0.3)">
  <a xlink:href="Pass_8cpp__incl_org.svg" target="_base">
   <rect id="button" ry="5" rx="5" y="6" x="6" height="38" width="38"
        fill="#f2f5e9" fill-opacity="0.5" stroke="#606060" stroke-width="1.0"/>
   <path id="arrow"
     d="M 11.500037,31.436501 C 11.940474,20.09759 22.043105,11.32322 32.158766,21.979434 L 37.068811,17.246167 C 37.068811,17.246167 37.088388,32 37.088388,32 L 22.160133,31.978069 C 22.160133,31.978069 26.997745,27.140456 26.997745,27.140456 C 18.528582,18.264221 13.291696,25.230495 11.500037,31.436501 z"
     style="fill:#404040;"/>
  </a>
 </g>
</svg>

<style type='text/css'>
<![CDATA[
[data-mouse-over-selected='false'] { opacity: 0.7; }
[data-mouse-over-selected='true']  { opacity: 1.0; }
]]>
</style>
<script type="application/ecmascript"><![CDATA[
document.addEventListener('DOMContentLoaded', (event) => {
  highlightEdges();
  highlightAdjacentNodes();
});
]]></script>
</svg>
