<?xml version="1.0" encoding="UTF-8" standalone="no"?>
<!DOCTYPE svg PUBLIC "-//W3C//DTD SVG 1.1//EN"
 "http://www.w3.org/Graphics/SVG/1.1/DTD/svg11.dtd">
<!-- Generated by graphviz version 12.2.0 (20241103.1931)
 -->
<!-- Title: /Users/fola/Documents/ArkScript/Ark/src/arkreactor/Compiler/Macros/Executors/Function.cpp Pages: 1 -->
<svg width="811pt" height="415pt"
 viewBox="0.00 0.00 810.62 415.00" xmlns="http://www.w3.org/2000/svg" xmlns:xlink="http://www.w3.org/1999/xlink">
<g id="graph0" class="graph" transform="scale(1 1) rotate(0) translate(4 411)">
<title>/Users/fola/Documents/ArkScript/Ark/src/arkreactor/Compiler/Macros/Executors/Function.cpp</title>
<!-- Node1 -->
<g id="Node000001" class="node">
<title>Node1</title>
<g id="a_Node000001"><a xlink:title=" ">
<polygon fill="#999999" stroke="#666666" points="721.25,-407 580.75,-407 580.75,-354 721.25,-354 721.25,-407"/>
<text text-anchor="start" x="588.75" y="-393.5" font-family="Helvetica,sans-Serif" font-size="10.00">/Users/fola/Documents</text>
<text text-anchor="start" x="588.75" y="-382.25" font-family="Helvetica,sans-Serif" font-size="10.00">/ArkScript/Ark/src/arkreactor</text>
<text text-anchor="start" x="588.75" y="-371" font-family="Helvetica,sans-Serif" font-size="10.00">/Compiler/Macros/Executors</text>
<text text-anchor="middle" x="651" y="-359.75" font-family="Helvetica,sans-Serif" font-size="10.00">/Function.cpp</text>
</a>
</g>
</g>
<!-- Node2 -->
<g id="Node000002" class="node">
<title>Node2</title>
<g id="a_Node000002"><a xlink:title=" ">
<polygon fill="#e0e0e0" stroke="#999999" points="438.12,-312.38 389.88,-312.38 389.88,-293.12 438.12,-293.12 438.12,-312.38"/>
<text text-anchor="middle" x="414" y="-298.88" font-family="Helvetica,sans-Serif" font-size="10.00">cassert</text>
</a>
</g>
</g>
<!-- Node1&#45;&gt;Node2 -->
<g id="edge1_Node000001_Node000002" class="edge">
<title>Node1&#45;&gt;Node2</title>
<g id="a_edge1_Node000001_Node000002"><a xlink:title=" ">
<path fill="none" stroke="#63b8ff" d="M580.48,-360.4C540.88,-349.14 490.78,-333.99 447,-318 446.21,-317.71 445.41,-317.41 444.6,-317.11"/>
<polygon fill="#63b8ff" stroke="#63b8ff" points="446.08,-313.93 435.5,-313.43 443.46,-320.42 446.08,-313.93"/>
</a>
</g>
</g>
<!-- Node3 -->
<g id="Node000003" class="node">
<title>Node3</title>
<g id="a_Node000003"><a xlink:href="../../d4/d59/Function_8hpp.html" target="_top" xlink:title="Executor for List Macros.">
<polygon fill="white" stroke="#666666" points="578.25,-318 455.75,-318 455.75,-287.5 578.25,-287.5 578.25,-318"/>
<text text-anchor="start" x="463.75" y="-304.5" font-family="Helvetica,sans-Serif" font-size="10.00">Ark/Compiler/Macros</text>
<text text-anchor="middle" x="517" y="-293.25" font-family="Helvetica,sans-Serif" font-size="10.00">/Executors/Function.hpp</text>
</a>
</g>
</g>
<!-- Node1&#45;&gt;Node3 -->
<g id="edge2_Node000001_Node000003" class="edge">
<title>Node1&#45;&gt;Node3</title>
<g id="a_edge2_Node000001_Node000003"><a xlink:title=" ">
<path fill="none" stroke="#63b8ff" d="M605.26,-353.64C588.06,-343.92 568.77,-333.01 552.62,-323.88"/>
<polygon fill="#63b8ff" stroke="#63b8ff" points="554.76,-321.08 544.33,-319.2 551.32,-327.17 554.76,-321.08"/>
</a>
</g>
</g>
<!-- Node18 -->
<g id="Node000018" class="node">
<title>Node18</title>
<g id="a_Node000018"><a xlink:href="../../d6/de9/Constants_8hpp.html" target="_top" xlink:title="Constants used by ArkScript.">
<polygon fill="white" stroke="#666666" points="484.88,-74.5 387.12,-74.5 387.12,-55.25 484.88,-55.25 484.88,-74.5"/>
<text text-anchor="middle" x="436" y="-61" font-family="Helvetica,sans-Serif" font-size="10.00">Ark/Constants.hpp</text>
</a>
</g>
</g>
<!-- Node1&#45;&gt;Node18 -->
<g id="edge28_Node000001_Node000018" class="edge">
<title>Node1&#45;&gt;Node18</title>
<g id="a_edge28_Node000001_Node000018"><a xlink:title=" ">
<path fill="none" stroke="#63b8ff" d="M651,-353.54C651,-325.03 651,-277.88 651,-237.25 651,-237.25 651,-237.25 651,-174.38 651,-144.76 653.62,-130.75 632,-110.5 612.57,-92.29 546.65,-79.94 496.57,-72.92"/>
<polygon fill="#63b8ff" stroke="#63b8ff" points="497.07,-69.46 486.69,-71.58 496.13,-76.4 497.07,-69.46"/>
</a>
</g>
</g>
<!-- Node21 -->
<g id="Node000021" class="node">
<title>Node21</title>
<g id="a_Node000021"><a xlink:title=" ">
<polygon fill="#e0e0e0" stroke="#999999" points="739.12,-312.38 678.88,-312.38 678.88,-293.12 739.12,-293.12 739.12,-312.38"/>
<text text-anchor="middle" x="709" y="-298.88" font-family="Helvetica,sans-Serif" font-size="10.00">fmt/core.h</text>
</a>
</g>
</g>
<!-- Node1&#45;&gt;Node21 -->
<g id="edge26_Node000001_Node000021" class="edge">
<title>Node1&#45;&gt;Node21</title>
<g id="a_edge26_Node000001_Node000021"><a xlink:title=" ">
<path fill="none" stroke="#63b8ff" d="M670.64,-353.85C678.73,-343.28 687.92,-331.28 695.28,-321.67"/>
<polygon fill="#63b8ff" stroke="#63b8ff" points="697.93,-323.96 701.23,-313.89 692.38,-319.7 697.93,-323.96"/>
</a>
</g>
</g>
<!-- Node22 -->
<g id="Node000022" class="node">
<title>Node22</title>
<g id="a_Node000022"><a xlink:title=" ">
<polygon fill="#e0e0e0" stroke="#999999" points="802.62,-312.38 757.38,-312.38 757.38,-293.12 802.62,-293.12 802.62,-312.38"/>
<text text-anchor="middle" x="780" y="-298.88" font-family="Helvetica,sans-Serif" font-size="10.00">ranges</text>
</a>
</g>
</g>
<!-- Node1&#45;&gt;Node22 -->
<g id="edge27_Node000001_Node000022" class="edge">
<title>Node1&#45;&gt;Node22</title>
<g id="a_edge27_Node000001_Node000022"><a xlink:title=" ">
<path fill="none" stroke="#63b8ff" d="M695.03,-353.64C714.98,-341.93 737.84,-328.51 754.82,-318.54"/>
<polygon fill="#63b8ff" stroke="#63b8ff" points="756.4,-321.67 763.25,-313.59 752.85,-315.63 756.4,-321.67"/>
</a>
</g>
</g>
<!-- Node4 -->
<g id="Node000004" class="node">
<title>Node4</title>
<g id="a_Node000004"><a xlink:href="../../d4/d1a/Executor_8hpp.html" target="_top" xlink:title="The base class for all MacroExecutors.">
<polygon fill="white" stroke="#666666" points="444.12,-251.5 335.88,-251.5 335.88,-221 444.12,-221 444.12,-251.5"/>
<text text-anchor="start" x="343.88" y="-238" font-family="Helvetica,sans-Serif" font-size="10.00">Ark/Compiler/Macros</text>
<text text-anchor="middle" x="390" y="-226.75" font-family="Helvetica,sans-Serif" font-size="10.00">/Executor.hpp</text>
</a>
</g>
</g>
<!-- Node3&#45;&gt;Node4 -->
<g id="edge3_Node000003_Node000004" class="edge">
<title>Node3&#45;&gt;Node4</title>
<g id="a_edge3_Node000003_Node000004"><a xlink:title=" ">
<path fill="none" stroke="#63b8ff" d="M488.18,-287.11C470.64,-278.21 448.02,-266.72 428.91,-257.01"/>
<polygon fill="#63b8ff" stroke="#63b8ff" points="430.55,-253.92 420.05,-252.51 427.38,-260.16 430.55,-253.92"/>
</a>
</g>
</g>
<!-- Node7 -->
<g id="Node000007" class="node">
<title>Node7</title>
<g id="a_Node000007"><a xlink:href="../../d7/dc6/Node_8hpp.html" target="_top" xlink:title="AST node used by the parser, optimizer and compiler.">
<polygon fill="white" stroke="#666666" points="516.25,-185 375.75,-185 375.75,-165.75 516.25,-165.75 516.25,-185"/>
<text text-anchor="middle" x="446" y="-171.5" font-family="Helvetica,sans-Serif" font-size="10.00">Ark/Compiler/AST/Node.hpp</text>
</a>
</g>
</g>
<!-- Node3&#45;&gt;Node7 -->
<g id="edge25_Node000003_Node000007" class="edge">
<title>Node3&#45;&gt;Node7</title>
<g id="a_edge25_Node000003_Node000007"><a xlink:title=" ">
<path fill="none" stroke="#63b8ff" d="M508.86,-287.37C495.97,-264.62 470.9,-220.34 456.62,-195.13"/>
<polygon fill="#63b8ff" stroke="#63b8ff" points="459.78,-193.61 451.81,-186.64 453.69,-197.06 459.78,-193.61"/>
</a>
</g>
</g>
<!-- Node5 -->
<g id="Node000005" class="node">
<title>Node5</title>
<g id="a_Node000005"><a xlink:title=" ">
<polygon fill="#e0e0e0" stroke="#999999" points="357.88,-185 308.12,-185 308.12,-165.75 357.88,-165.75 357.88,-185"/>
<text text-anchor="middle" x="333" y="-171.5" font-family="Helvetica,sans-Serif" font-size="10.00">optional</text>
</a>
</g>
</g>
<!-- Node4&#45;&gt;Node5 -->
<g id="edge4_Node000004_Node000005" class="edge">
<title>Node4&#45;&gt;Node5</title>
<g id="a_edge4_Node000004_Node000005"><a xlink:title=" ">
<path fill="none" stroke="#63b8ff" d="M375.91,-220.7C367.98,-212.51 358.04,-202.23 349.72,-193.64"/>
<polygon fill="#63b8ff" stroke="#63b8ff" points="352.31,-191.29 342.84,-186.54 347.28,-196.16 352.31,-191.29"/>
</a>
</g>
</g>
<!-- Node6 -->
<g id="Node000006" class="node">
<title>Node6</title>
<g id="a_Node000006"><a xlink:title=" ">
<polygon fill="#e0e0e0" stroke="#999999" points="290.38,-185 207.62,-185 207.62,-165.75 290.38,-165.75 290.38,-185"/>
<text text-anchor="middle" x="249" y="-171.5" font-family="Helvetica,sans-Serif" font-size="10.00">unordered_map</text>
</a>
</g>
</g>
<!-- Node4&#45;&gt;Node6 -->
<g id="edge5_Node000004_Node000006" class="edge">
<title>Node4&#45;&gt;Node6</title>
<g id="a_edge5_Node000004_Node000006"><a xlink:title=" ">
<path fill="none" stroke="#63b8ff" d="M354.78,-220.55C332.17,-211.1 303.04,-198.94 281.08,-189.77"/>
<polygon fill="#63b8ff" stroke="#63b8ff" points="282.6,-186.61 272.02,-185.99 279.9,-193.07 282.6,-186.61"/>
</a>
</g>
</g>
<!-- Node4&#45;&gt;Node7 -->
<g id="edge6_Node000004_Node000007" class="edge">
<title>Node4&#45;&gt;Node7</title>
<g id="a_edge6_Node000004_Node000007"><a xlink:title=" ">
<path fill="none" stroke="#63b8ff" d="M403.84,-220.7C411.63,-212.51 421.4,-202.23 429.58,-193.64"/>
<polygon fill="#63b8ff" stroke="#63b8ff" points="431.97,-196.21 436.32,-186.55 426.9,-191.38 431.97,-196.21"/>
</a>
</g>
</g>
<!-- Node8 -->
<g id="Node000008" class="node">
<title>Node8</title>
<g id="a_Node000008"><a xlink:title=" ">
<polygon fill="#e0e0e0" stroke="#999999" points="553.62,-129.75 508.38,-129.75 508.38,-110.5 553.62,-110.5 553.62,-129.75"/>
<text text-anchor="middle" x="531" y="-116.25" font-family="Helvetica,sans-Serif" font-size="10.00">variant</text>
</a>
</g>
</g>
<!-- Node7&#45;&gt;Node8 -->
<g id="edge7_Node000007_Node000008" class="edge">
<title>Node7&#45;&gt;Node8</title>
<g id="a_edge7_Node000007_Node000008"><a xlink:title=" ">
<path fill="none" stroke="#63b8ff" d="M460.42,-165.34C473.12,-157.39 491.87,-145.64 506.86,-136.25"/>
<polygon fill="#63b8ff" stroke="#63b8ff" points="508.61,-139.28 515.23,-131.01 504.9,-133.35 508.61,-139.28"/>
</a>
</g>
</g>
<!-- Node9 -->
<g id="Node000009" class="node">
<title>Node9</title>
<g id="a_Node000009"><a xlink:title=" ">
<polygon fill="#e0e0e0" stroke="#999999" points="622.62,-129.75 571.38,-129.75 571.38,-110.5 622.62,-110.5 622.62,-129.75"/>
<text text-anchor="middle" x="597" y="-116.25" font-family="Helvetica,sans-Serif" font-size="10.00">ostream</text>
</a>
</g>
</g>
<!-- Node7&#45;&gt;Node9 -->
<g id="edge8_Node000007_Node000009" class="edge">
<title>Node7&#45;&gt;Node9</title>
<g id="a_edge8_Node000007_Node000009"><a xlink:title=" ">
<path fill="none" stroke="#63b8ff" d="M471.62,-165.34C496.02,-156.74 533.01,-143.69 560.5,-134"/>
<polygon fill="#63b8ff" stroke="#63b8ff" points="561.57,-137.33 569.83,-130.71 559.24,-130.73 561.57,-137.33"/>
</a>
</g>
</g>
<!-- Node10 -->
<g id="Node000010" class="node">
<title>Node10</title>
<g id="a_Node000010"><a xlink:title=" ">
<polygon fill="#e0e0e0" stroke="#999999" points="40,-74.5 0,-74.5 0,-55.25 40,-55.25 40,-74.5"/>
<text text-anchor="middle" x="20" y="-61" font-family="Helvetica,sans-Serif" font-size="10.00">string</text>
</a>
</g>
</g>
<!-- Node7&#45;&gt;Node10 -->
<g id="edge9_Node000007_Node000010" class="edge">
<title>Node7&#45;&gt;Node10</title>
<g id="a_edge9_Node000007_Node000010"><a xlink:title=" ">
<path fill="none" stroke="#63b8ff" d="M375.37,-166.64C372.54,-166.34 369.74,-166.04 367,-165.75 327.79,-161.61 40.43,-159.01 14,-129.75 3.27,-117.87 6.48,-99.19 11.36,-85.09"/>
<polygon fill="#63b8ff" stroke="#63b8ff" points="14.54,-86.57 15.02,-75.99 8.04,-83.96 14.54,-86.57"/>
</a>
</g>
</g>
<!-- Node11 -->
<g id="Node000011" class="node">
<title>Node11</title>
<g id="a_Node000011"><a xlink:title=" ">
<polygon fill="#e0e0e0" stroke="#999999" points="237.5,-74.5 194.5,-74.5 194.5,-55.25 237.5,-55.25 237.5,-74.5"/>
<text text-anchor="middle" x="216" y="-61" font-family="Helvetica,sans-Serif" font-size="10.00">vector</text>
</a>
</g>
</g>
<!-- Node7&#45;&gt;Node11 -->
<g id="edge10_Node000007_Node000011" class="edge">
<title>Node7&#45;&gt;Node11</title>
<g id="a_edge10_Node000007_Node000011"><a xlink:title=" ">
<path fill="none" stroke="#63b8ff" d="M375.25,-166.34C323.94,-159.19 260.15,-147.15 240,-129.75 227.24,-118.73 221.25,-100.22 218.45,-85.96"/>
<polygon fill="#63b8ff" stroke="#63b8ff" points="221.94,-85.65 216.95,-76.31 215.02,-86.72 221.94,-85.65"/>
</a>
</g>
</g>
<!-- Node12 -->
<g id="Node000012" class="node">
<title>Node12</title>
<g id="a_Node000012"><a xlink:href="../../da/d33/Namespace_8hpp.html" target="_top" xlink:title=" ">
<polygon fill="white" stroke="#666666" points="192.88,-129.75 23.12,-129.75 23.12,-110.5 192.88,-110.5 192.88,-129.75"/>
<text text-anchor="middle" x="108" y="-116.25" font-family="Helvetica,sans-Serif" font-size="10.00">Ark/Compiler/AST/Namespace.hpp</text>
</a>
</g>
</g>
<!-- Node7&#45;&gt;Node12 -->
<g id="edge11_Node000007_Node000012" class="edge">
<title>Node7&#45;&gt;Node12</title>
<g id="a_edge11_Node000007_Node000012"><a xlink:title=" ">
<path fill="none" stroke="#63b8ff" d="M388.28,-165.28C329.79,-156.07 239.3,-141.81 177.05,-132"/>
<polygon fill="#63b8ff" stroke="#63b8ff" points="177.68,-128.56 167.26,-130.46 176.59,-135.47 177.68,-128.56"/>
</a>
</g>
</g>
<!-- Node14 -->
<g id="Node000014" class="node">
<title>Node14</title>
<g id="a_Node000014"><a xlink:href="../../d8/ddd/Common_8hpp.html" target="_top" xlink:title="Common code for the compiler.">
<polygon fill="white" stroke="#666666" points="383.25,-129.75 248.75,-129.75 248.75,-110.5 383.25,-110.5 383.25,-129.75"/>
<text text-anchor="middle" x="316" y="-116.25" font-family="Helvetica,sans-Serif" font-size="10.00">Ark/Compiler/Common.hpp</text>
</a>
</g>
</g>
<!-- Node7&#45;&gt;Node14 -->
<g id="edge15_Node000007_Node000014" class="edge">
<title>Node7&#45;&gt;Node14</title>
<g id="a_edge15_Node000007_Node000014"><a xlink:title=" ">
<path fill="none" stroke="#63b8ff" d="M423.95,-165.34C403.31,-156.89 372.22,-144.15 348.7,-134.52"/>
<polygon fill="#63b8ff" stroke="#63b8ff" points="350.14,-131.33 339.56,-130.78 347.49,-137.81 350.14,-131.33"/>
</a>
</g>
</g>
<!-- Node20 -->
<g id="Node000020" class="node">
<title>Node20</title>
<g id="a_Node000020"><a xlink:href="../../d5/d40/Platform_8hpp.html" target="_top" xlink:title="ArkScript configuration macros.">
<polygon fill="white" stroke="#666666" points="490.75,-129.75 401.25,-129.75 401.25,-110.5 490.75,-110.5 490.75,-129.75"/>
<text text-anchor="middle" x="446" y="-116.25" font-family="Helvetica,sans-Serif" font-size="10.00">Ark/Platform.hpp</text>
</a>
</g>
</g>
<!-- Node7&#45;&gt;Node20 -->
<g id="edge24_Node000007_Node000020" class="edge">
<title>Node7&#45;&gt;Node20</title>
<g id="a_edge24_Node000007_Node000020"><a xlink:title=" ">
<path fill="none" stroke="#63b8ff" d="M446,-165.58C446,-159.07 446,-149.92 446,-141.62"/>
<polygon fill="#63b8ff" stroke="#63b8ff" points="449.5,-141.62 446,-131.62 442.5,-141.62 449.5,-141.62"/>
</a>
</g>
</g>
<!-- Node12&#45;&gt;Node10 -->
<g id="edge12_Node000012_Node000010" class="edge">
<title>Node12&#45;&gt;Node10</title>
<g id="a_edge12_Node000012_Node000010"><a xlink:title=" ">
<path fill="none" stroke="#63b8ff" d="M93.07,-110.09C79.8,-102.06 60.13,-90.16 44.55,-80.73"/>
<polygon fill="#63b8ff" stroke="#63b8ff" points="46.66,-77.92 36.3,-75.74 43.04,-83.91 46.66,-77.92"/>
</a>
</g>
</g>
<!-- Node12&#45;&gt;Node11 -->
<g id="edge13_Node000012_Node000011" class="edge">
<title>Node12&#45;&gt;Node11</title>
<g id="a_edge13_Node000012_Node000011"><a xlink:title=" ">
<path fill="none" stroke="#63b8ff" d="M126.32,-110.09C143.08,-101.83 168.13,-89.48 187.5,-79.93"/>
<polygon fill="#63b8ff" stroke="#63b8ff" points="188.81,-83.18 196.23,-75.62 185.72,-76.9 188.81,-83.18"/>
</a>
</g>
</g>
<!-- Node13 -->
<g id="Node000013" class="node">
<title>Node13</title>
<g id="a_Node000013"><a xlink:title=" ">
<polygon fill="#e0e0e0" stroke="#999999" points="133.62,-74.5 82.38,-74.5 82.38,-55.25 133.62,-55.25 133.62,-74.5"/>
<text text-anchor="middle" x="108" y="-61" font-family="Helvetica,sans-Serif" font-size="10.00">memory</text>
</a>
</g>
</g>
<!-- Node12&#45;&gt;Node13 -->
<g id="edge14_Node000012_Node000013" class="edge">
<title>Node12&#45;&gt;Node13</title>
<g id="a_edge14_Node000012_Node000013"><a xlink:title=" ">
<path fill="none" stroke="#63b8ff" d="M108,-110.33C108,-103.82 108,-94.67 108,-86.37"/>
<polygon fill="#63b8ff" stroke="#63b8ff" points="111.5,-86.37 108,-76.37 104.5,-86.37 111.5,-86.37"/>
</a>
</g>
</g>
<!-- Node14&#45;&gt;Node11 -->
<g id="edge18_Node000014_Node000011" class="edge">
<title>Node14&#45;&gt;Node11</title>
<g id="a_edge18_Node000014_Node000011"><a xlink:title=" ">
<path fill="none" stroke="#63b8ff" d="M299.04,-110.09C283.74,-101.94 260.97,-89.82 243.14,-80.33"/>
<polygon fill="#63b8ff" stroke="#63b8ff" points="244.85,-77.27 234.38,-75.66 241.56,-83.45 244.85,-77.27"/>
</a>
</g>
</g>
<!-- Node15 -->
<g id="Node000015" class="node">
<title>Node15</title>
<g id="a_Node000015"><a xlink:title=" ">
<polygon fill="#e0e0e0" stroke="#999999" points="292.88,-74.5 255.12,-74.5 255.12,-55.25 292.88,-55.25 292.88,-74.5"/>
<text text-anchor="middle" x="274" y="-61" font-family="Helvetica,sans-Serif" font-size="10.00">array</text>
</a>
</g>
</g>
<!-- Node14&#45;&gt;Node15 -->
<g id="edge16_Node000014_Node000015" class="edge">
<title>Node14&#45;&gt;Node15</title>
<g id="a_edge16_Node000014_Node000015"><a xlink:title=" ">
<path fill="none" stroke="#63b8ff" d="M309.06,-110.33C303.38,-103.13 295.16,-92.71 288.11,-83.76"/>
<polygon fill="#63b8ff" stroke="#63b8ff" points="290.96,-81.73 282.02,-76.05 285.47,-86.07 290.96,-81.73"/>
</a>
</g>
</g>
<!-- Node16 -->
<g id="Node000016" class="node">
<title>Node16</title>
<g id="a_Node000016"><a xlink:title=" ">
<polygon fill="#e0e0e0" stroke="#999999" points="432.75,-19.25 367.25,-19.25 367.25,0 432.75,0 432.75,-19.25"/>
<text text-anchor="middle" x="400" y="-5.75" font-family="Helvetica,sans-Serif" font-size="10.00">string_view</text>
</a>
</g>
</g>
<!-- Node14&#45;&gt;Node16 -->
<g id="edge17_Node000014_Node000016" class="edge">
<title>Node14&#45;&gt;Node16</title>
<g id="a_edge17_Node000014_Node000016"><a xlink:title=" ">
<path fill="none" stroke="#63b8ff" d="M322.87,-110.25C336.66,-92.44 367.9,-52.08 386.11,-28.56"/>
<polygon fill="#63b8ff" stroke="#63b8ff" points="388.75,-30.87 392.1,-20.82 383.22,-26.59 388.75,-30.87"/>
</a>
</g>
</g>
<!-- Node17 -->
<g id="Node000017" class="node">
<title>Node17</title>
<g id="a_Node000017"><a xlink:title=" ">
<polygon fill="#e0e0e0" stroke="#999999" points="348.88,-19.25 293.12,-19.25 293.12,0 348.88,0 348.88,-19.25"/>
<text text-anchor="middle" x="321" y="-5.75" font-family="Helvetica,sans-Serif" font-size="10.00">cinttypes</text>
</a>
</g>
</g>
<!-- Node14&#45;&gt;Node17 -->
<g id="edge19_Node000014_Node000017" class="edge">
<title>Node14&#45;&gt;Node17</title>
<g id="a_edge19_Node000014_Node000017"><a xlink:title=" ">
<path fill="none" stroke="#63b8ff" d="M316.41,-110.25C317.2,-93 318.97,-54.58 320.07,-30.81"/>
<polygon fill="#63b8ff" stroke="#63b8ff" points="323.55,-31.29 320.52,-21.14 316.56,-30.97 323.55,-31.29"/>
</a>
</g>
</g>
<!-- Node14&#45;&gt;Node18 -->
<g id="edge20_Node000014_Node000018" class="edge">
<title>Node14&#45;&gt;Node18</title>
<g id="a_edge20_Node000014_Node000018"><a xlink:title=" ">
<path fill="none" stroke="#63b8ff" d="M336.36,-110.09C355.23,-101.72 383.59,-89.13 405.23,-79.53"/>
<polygon fill="#63b8ff" stroke="#63b8ff" points="406.44,-82.82 414.16,-75.57 403.6,-76.42 406.44,-82.82"/>
</a>
</g>
</g>
<!-- Node18&#45;&gt;Node16 -->
<g id="edge21_Node000018_Node000016" class="edge">
<title>Node18&#45;&gt;Node16</title>
<g id="a_edge21_Node000018_Node000016"><a xlink:title=" ">
<path fill="none" stroke="#63b8ff" d="M430.06,-55.08C425.29,-48.03 418.44,-37.9 412.48,-29.08"/>
<polygon fill="#63b8ff" stroke="#63b8ff" points="415.42,-27.19 406.92,-20.86 409.62,-31.11 415.42,-27.19"/>
</a>
</g>
</g>
<!-- Node18&#45;&gt;Node17 -->
<g id="edge22_Node000018_Node000017" class="edge">
<title>Node18&#45;&gt;Node17</title>
<g id="a_edge22_Node000018_Node000017"><a xlink:title=" ">
<path fill="none" stroke="#63b8ff" d="M416.49,-54.84C398.48,-46.5 371.48,-34 350.77,-24.41"/>
<polygon fill="#63b8ff" stroke="#63b8ff" points="352.52,-21.36 341.98,-20.34 349.58,-27.72 352.52,-21.36"/>
</a>
</g>
</g>
<!-- Node19 -->
<g id="Node000019" class="node">
<title>Node19</title>
<g id="a_Node000019"><a xlink:title=" ">
<polygon fill="#e0e0e0" stroke="#999999" points="499.12,-19.25 450.88,-19.25 450.88,0 499.12,0 499.12,-19.25"/>
<text text-anchor="middle" x="475" y="-5.75" font-family="Helvetica,sans-Serif" font-size="10.00">cstddef</text>
</a>
</g>
</g>
<!-- Node18&#45;&gt;Node19 -->
<g id="edge23_Node000018_Node000019" class="edge">
<title>Node18&#45;&gt;Node19</title>
<g id="a_edge23_Node000018_Node000019"><a xlink:title=" ">
<path fill="none" stroke="#63b8ff" d="M442.44,-55.08C447.66,-47.96 455.19,-37.68 461.69,-28.8"/>
<polygon fill="#63b8ff" stroke="#63b8ff" points="464.44,-30.97 467.53,-20.83 458.79,-26.83 464.44,-30.97"/>
</a>
</g>
</g>
</g>
</svg>
