<?xml version="1.0" encoding="UTF-8" standalone="no"?>
<!DOCTYPE svg PUBLIC "-//W3C//DTD SVG 1.1//EN"
 "http://www.w3.org/Graphics/SVG/1.1/DTD/svg11.dtd">
<!-- Generated by graphviz version 12.2.0 (20241103.1931)
 -->
<!-- Title: /Users/fola/Documents/ArkScript/Ark/src/arkreactor/Compiler/Macros/Executors/Function.cpp Pages: 1 -->
<!--zoomable 415 -->

<svg id="main" version="1.1" xmlns="http://www.w3.org/2000/svg" xmlns:xlink="http://www.w3.org/1999/xlink" xml:space="preserve" onload="init(evt)">

<style type="text/css"><![CDATA[
.node, .edge {opacity: 0.7;}
.node.selected, .edge.selected {opacity: 1;}
.edge:hover path { stroke: red; }
.edge:hover polygon { stroke: red; fill: red; }
]]></style>

<defs>
  <circle id="rim" cx="0" cy="0" r="7"/>
  <circle id="rim2" cx="0" cy="0" r="3.5"/>
  <g id="zoomPlus">
    <use xlink:href="#rim" fill="#404040"><set attributeName="fill" to="#808080" begin="zoomplus.mouseover" end="zoomplus.mouseout"/></use>
    <path d="M-4,0h8M0,-4v8" fill="none" stroke="white" stroke-width="1.5" pointer-events="none"/>
  </g>
  <g id="zoomMin">
    <use xlink:href="#rim" fill="#404040"><set attributeName="fill" to="#808080" begin="zoomminus.mouseover" end="zoomminus.mouseout"/></use>
    <path d="M-4,0h8" fill="none" stroke="white" stroke-width="1.5" pointer-events="none"/>
  </g>
  <g id="arrowUp" transform="translate(30 24)">
    <use xlink:href="#rim"/>
    <path pointer-events="none" fill="none" stroke="white" stroke-width="1.5" d="M0,-3.0v7 M-2.5,-0.5L0,-3.0L2.5,-0.5"/>
  </g>
  <g id="arrowRight" transform="rotate(90) translate(36 -43)">
    <use xlink:href="#rim"/>
    <path pointer-events="none" fill="none" stroke="white" stroke-width="1.5" d="M0,-3.0v7 M-2.5,-0.5L0,-3.0L2.5,-0.5"/>
  </g>
  <g id="arrowDown" transform="rotate(180) translate(-30 -48)">
    <use xlink:href="#rim"/>
    <path pointer-events="none" fill="none" stroke="white" stroke-width="1.5" d="M0,-3.0v7 M-2.5,-0.5L0,-3.0L2.5,-0.5"/>
  </g>
  <g id="arrowLeft" transform="rotate(270) translate(-36 17)">
    <use xlink:href="#rim"/>
    <path pointer-events="none" fill="none" stroke="white" stroke-width="1.5" d="M0,-3.0v7 M-2.5,-0.5L0,-3.0L2.5,-0.5"/>
  </g>
  <g id="resetDef">
    <use xlink:href="#rim2" fill="#404040"><set attributeName="fill" to="#808080" begin="reset.mouseover" end="reset.mouseout"/></use>
  </g>
</defs>
<script type="application/ecmascript">
var viewWidth = 826;
var viewHeight = 415;
var sectionId = 'dynsection-0';
</script>
<script type="application/ecmascript" xlink:href="../../svg.min.js"/>
<svg id="graph" class="graph">
<g id="viewport">
<title>/Users/fola/Documents/ArkScript/Ark/src/arkreactor/Compiler/Macros/Executors/Function.cpp</title>
<!-- Node1 -->
<g id="Node000001" class="node">
<title>Node1</title>
<g id="a_Node000001"><a xlink:title=" ">
<polygon fill="#999999" stroke="#666666" points="310.38,-407 169.88,-407 169.88,-354 310.38,-354 310.38,-407"/>
<text text-anchor="start" x="177.88" y="-393.5" font-family="Helvetica,sans-Serif" font-size="10.00">/Users/fola/Documents</text>
<text text-anchor="start" x="177.88" y="-382.25" font-family="Helvetica,sans-Serif" font-size="10.00">/ArkScript/Ark/src/arkreactor</text>
<text text-anchor="start" x="177.88" y="-371" font-family="Helvetica,sans-Serif" font-size="10.00">/Compiler/Macros/Executors</text>
<text text-anchor="middle" x="240.12" y="-359.75" font-family="Helvetica,sans-Serif" font-size="10.00">/Function.cpp</text>
</a>
</g>
</g>
<!-- Node2 -->
<g id="Node000002" class="node">
<title>Node2</title>
<g id="a_Node000002"><a xlink:title=" ">
<polygon fill="#e0e0e0" stroke="#999999" points="48.25,-312.38 0,-312.38 0,-293.12 48.25,-293.12 48.25,-312.38"/>
<text text-anchor="middle" x="24.12" y="-298.88" font-family="Helvetica,sans-Serif" font-size="10.00">cassert</text>
</a>
</g>
</g>
<!-- Node1&#45;&gt;Node2 -->
<g id="edge1_Node000001_Node000002" class="edge">
<title>Node1&#45;&gt;Node2</title>
<g id="a_edge1_Node000001_Node000002"><a xlink:title=" ">
<path fill="none" stroke="#63b8ff" d="M169.38,-355.53C136.67,-344.33 97.35,-330.69 62.12,-318 60.96,-317.58 59.79,-317.15 58.6,-316.72"/>
<polygon fill="#63b8ff" stroke="#63b8ff" points="59.82,-313.44 49.23,-313.26 57.4,-320.01 59.82,-313.44"/>
</a>
</g>
</g>
<!-- Node3 -->
<g id="Node000003" class="node">
<title>Node3</title>
<g id="a_Node000003"><a xlink:href="../../d4/d59/Function_8hpp.html" target="_top" xlink:title="Executor for List Macros.">
<polygon fill="white" stroke="#666666" points="301.38,-318 178.88,-318 178.88,-287.5 301.38,-287.5 301.38,-318"/>
<text text-anchor="start" x="186.88" y="-304.5" font-family="Helvetica,sans-Serif" font-size="10.00">Ark/Compiler/Macros</text>
<text text-anchor="middle" x="240.12" y="-293.25" font-family="Helvetica,sans-Serif" font-size="10.00">/Executors/Function.hpp</text>
</a>
</g>
</g>
<!-- Node1&#45;&gt;Node3 -->
<g id="edge2_Node000001_Node000003" class="edge">
<title>Node1&#45;&gt;Node3</title>
<g id="a_edge2_Node000001_Node000003"><a xlink:title=" ">
<path fill="none" stroke="#63b8ff" d="M240.12,-353.85C240.12,-346.08 240.12,-337.54 240.12,-329.74"/>
<polygon fill="#63b8ff" stroke="#63b8ff" points="243.63,-329.84 240.13,-319.84 236.63,-329.84 243.63,-329.84"/>
</a>
</g>
</g>
<!-- Node18 -->
<g id="Node000018" class="node">
<title>Node18</title>
<g id="a_Node000018"><a xlink:href="../../d6/de9/Constants_8hpp.html" target="_top" xlink:title="Constants used by ArkScript.">
<polygon fill="white" stroke="#666666" points="191,-74.5 93.25,-74.5 93.25,-55.25 191,-55.25 191,-74.5"/>
<text text-anchor="middle" x="142.12" y="-61" font-family="Helvetica,sans-Serif" font-size="10.00">Ark/Constants.hpp</text>
</a>
</g>
</g>
<!-- Node1&#45;&gt;Node18 -->
<g id="edge33_Node000001_Node000018" class="edge">
<title>Node1&#45;&gt;Node18</title>
<g id="a_edge33_Node000001_Node000018"><a xlink:title=" ">
<path fill="none" stroke="#63b8ff" d="M174.84,-353.52C129.1,-330.54 76.12,-292.09 76.12,-237.25 76.12,-237.25 76.12,-237.25 76.12,-174.38 76.12,-144.76 79.64,-135.75 95.12,-110.5 101.76,-99.68 111.68,-89.73 120.69,-81.99"/>
<polygon fill="#63b8ff" stroke="#63b8ff" points="122.85,-84.74 128.41,-75.72 118.44,-79.31 122.85,-84.74"/>
</a>
</g>
</g>
<!-- Node23 -->
<g id="Node000023" class="node">
<title>Node23</title>
<g id="a_Node000023"><a xlink:title=" ">
<polygon fill="#e0e0e0" stroke="#999999" points="379.25,-312.38 319,-312.38 319,-293.12 379.25,-293.12 379.25,-312.38"/>
<text text-anchor="middle" x="349.12" y="-298.88" font-family="Helvetica,sans-Serif" font-size="10.00">fmt/core.h</text>
</a>
</g>
</g>
<!-- Node1&#45;&gt;Node23 -->
<g id="edge31_Node000001_Node000023" class="edge">
<title>Node1&#45;&gt;Node23</title>
<g id="a_edge31_Node000001_Node000023"><a xlink:title=" ">
<path fill="none" stroke="#63b8ff" d="M277.33,-353.64C293.87,-342.15 312.77,-329.01 327.03,-319.1"/>
<polygon fill="#63b8ff" stroke="#63b8ff" points="328.62,-322.26 334.83,-313.68 324.62,-316.52 328.62,-322.26"/>
</a>
</g>
</g>
<!-- Node24 -->
<g id="Node000024" class="node">
<title>Node24</title>
<g id="a_Node000024"><a xlink:title=" ">
<polygon fill="#e0e0e0" stroke="#999999" points="442.75,-312.38 397.5,-312.38 397.5,-293.12 442.75,-293.12 442.75,-312.38"/>
<text text-anchor="middle" x="420.12" y="-298.88" font-family="Helvetica,sans-Serif" font-size="10.00">ranges</text>
</a>
</g>
</g>
<!-- Node1&#45;&gt;Node24 -->
<g id="edge32_Node000001_Node000024" class="edge">
<title>Node1&#45;&gt;Node24</title>
<g id="a_edge32_Node000001_Node000024"><a xlink:title=" ">
<path fill="none" stroke="#63b8ff" d="M303.65,-353.51C329.87,-342.68 360.52,-329.88 388.12,-318 388.6,-317.8 389.08,-317.59 389.56,-317.38"/>
<polygon fill="#63b8ff" stroke="#63b8ff" points="390.7,-320.7 398.46,-313.48 387.89,-314.29 390.7,-320.7"/>
</a>
</g>
</g>
<!-- Node4 -->
<g id="Node000004" class="node">
<title>Node4</title>
<g id="a_Node000004"><a xlink:href="../../d4/d1a/Executor_8hpp.html" target="_top" xlink:title="The base class for all MacroExecutors.">
<polygon fill="white" stroke="#666666" points="563.25,-251.5 455,-251.5 455,-221 563.25,-221 563.25,-251.5"/>
<text text-anchor="start" x="463" y="-238" font-family="Helvetica,sans-Serif" font-size="10.00">Ark/Compiler/Macros</text>
<text text-anchor="middle" x="509.12" y="-226.75" font-family="Helvetica,sans-Serif" font-size="10.00">/Executor.hpp</text>
</a>
</g>
</g>
<!-- Node3&#45;&gt;Node4 -->
<g id="edge3_Node000003_Node000004" class="edge">
<title>Node3&#45;&gt;Node4</title>
<g id="a_edge3_Node000003_Node000004"><a xlink:title=" ">
<path fill="none" stroke="#63b8ff" d="M301.5,-287.03C344.01,-276.84 400.52,-263.29 443.85,-252.9"/>
<polygon fill="#63b8ff" stroke="#63b8ff" points="444.47,-256.35 453.38,-250.62 442.84,-249.55 444.47,-256.35"/>
</a>
</g>
</g>
<!-- Node7 -->
<g id="Node000007" class="node">
<title>Node7</title>
<g id="a_Node000007"><a xlink:href="../../d7/dc6/Node_8hpp.html" target="_top" xlink:title="AST node used by the parser, optimizer and compiler.">
<polygon fill="white" stroke="#666666" points="514.38,-185 373.88,-185 373.88,-165.75 514.38,-165.75 514.38,-185"/>
<text text-anchor="middle" x="444.12" y="-171.5" font-family="Helvetica,sans-Serif" font-size="10.00">Ark/Compiler/AST/Node.hpp</text>
</a>
</g>
</g>
<!-- Node3&#45;&gt;Node7 -->
<g id="edge30_Node000003_Node000007" class="edge">
<title>Node3&#45;&gt;Node7</title>
<g id="a_edge30_Node000003_Node000007"><a xlink:title=" ">
<path fill="none" stroke="#63b8ff" d="M263.93,-287.12C303,-263.11 380.34,-215.58 419.77,-191.34"/>
<polygon fill="#63b8ff" stroke="#63b8ff" points="421.4,-194.45 428.09,-186.23 417.74,-188.48 421.4,-194.45"/>
</a>
</g>
</g>
<!-- Node5 -->
<g id="Node000005" class="node">
<title>Node5</title>
<g id="a_Node000005"><a xlink:title=" ">
<polygon fill="#e0e0e0" stroke="#999999" points="685,-74.5 635.25,-74.5 635.25,-55.25 685,-55.25 685,-74.5"/>
<text text-anchor="middle" x="660.12" y="-61" font-family="Helvetica,sans-Serif" font-size="10.00">optional</text>
</a>
</g>
</g>
<!-- Node4&#45;&gt;Node5 -->
<g id="edge4_Node000004_Node000005" class="edge">
<title>Node4&#45;&gt;Node5</title>
<g id="a_edge4_Node000004_Node000005"><a xlink:title=" ">
<path fill="none" stroke="#63b8ff" d="M563.67,-234.13C634.45,-229.39 755.58,-209.32 812.12,-129.75 842.64,-86.82 750.76,-72.6 696.67,-68"/>
<polygon fill="#63b8ff" stroke="#63b8ff" points="697.19,-64.53 686.95,-67.25 696.65,-71.51 697.19,-64.53"/>
</a>
</g>
</g>
<!-- Node6 -->
<g id="Node000006" class="node">
<title>Node6</title>
<g id="a_Node000006"><a xlink:title=" ">
<polygon fill="#e0e0e0" stroke="#999999" points="615.5,-185 532.75,-185 532.75,-165.75 615.5,-165.75 615.5,-185"/>
<text text-anchor="middle" x="574.12" y="-171.5" font-family="Helvetica,sans-Serif" font-size="10.00">unordered_map</text>
</a>
</g>
</g>
<!-- Node4&#45;&gt;Node6 -->
<g id="edge5_Node000004_Node000006" class="edge">
<title>Node4&#45;&gt;Node6</title>
<g id="a_edge5_Node000004_Node000006"><a xlink:title=" ">
<path fill="none" stroke="#63b8ff" d="M525.19,-220.7C534.42,-212.34 546.05,-201.8 555.66,-193.1"/>
<polygon fill="#63b8ff" stroke="#63b8ff" points="557.92,-195.77 562.98,-186.47 553.22,-190.59 557.92,-195.77"/>
</a>
</g>
</g>
<!-- Node4&#45;&gt;Node7 -->
<g id="edge6_Node000004_Node000007" class="edge">
<title>Node4&#45;&gt;Node7</title>
<g id="a_edge6_Node000004_Node000007"><a xlink:title=" ">
<path fill="none" stroke="#63b8ff" d="M493.06,-220.7C483.83,-212.34 472.2,-201.8 462.59,-193.1"/>
<polygon fill="#63b8ff" stroke="#63b8ff" points="465.03,-190.59 455.27,-186.47 460.33,-195.77 465.03,-190.59"/>
</a>
</g>
</g>
<!-- Node7&#45;&gt;Node5 -->
<g id="edge11_Node000007_Node000005" class="edge">
<title>Node7&#45;&gt;Node5</title>
<g id="a_edge11_Node000007_Node000005"><a xlink:title=" ">
<path fill="none" stroke="#63b8ff" d="M514.69,-165.98C563.49,-158.8 622.82,-146.88 641.12,-129.75 653.15,-118.5 657.67,-100.02 659.32,-85.82"/>
<polygon fill="#63b8ff" stroke="#63b8ff" points="662.79,-86.48 660.04,-76.25 655.8,-85.96 662.79,-86.48"/>
</a>
</g>
</g>
<!-- Node8 -->
<g id="Node000008" class="node">
<title>Node8</title>
<g id="a_Node000008"><a xlink:title=" ">
<polygon fill="#e0e0e0" stroke="#999999" points="733.75,-129.75 688.5,-129.75 688.5,-110.5 733.75,-110.5 733.75,-129.75"/>
<text text-anchor="middle" x="711.12" y="-116.25" font-family="Helvetica,sans-Serif" font-size="10.00">variant</text>
</a>
</g>
</g>
<!-- Node7&#45;&gt;Node8 -->
<g id="edge7_Node000007_Node000008" class="edge">
<title>Node7&#45;&gt;Node8</title>
<g id="a_edge7_Node000007_Node000008"><a xlink:title=" ">
<path fill="none" stroke="#63b8ff" d="M493.59,-165.33C540.24,-156.67 612.07,-143 674.12,-129.75 675.11,-129.54 676.11,-129.32 677.13,-129.1"/>
<polygon fill="#63b8ff" stroke="#63b8ff" points="677.6,-132.58 686.59,-126.97 676.06,-125.75 677.6,-132.58"/>
</a>
</g>
</g>
<!-- Node9 -->
<g id="Node000009" class="node">
<title>Node9</title>
<g id="a_Node000009"><a xlink:title=" ">
<polygon fill="#e0e0e0" stroke="#999999" points="802.75,-129.75 751.5,-129.75 751.5,-110.5 802.75,-110.5 802.75,-129.75"/>
<text text-anchor="middle" x="777.12" y="-116.25" font-family="Helvetica,sans-Serif" font-size="10.00">ostream</text>
</a>
</g>
</g>
<!-- Node7&#45;&gt;Node9 -->
<g id="edge8_Node000007_Node000009" class="edge">
<title>Node7&#45;&gt;Node9</title>
<g id="a_edge8_Node000007_Node000009"><a xlink:title=" ">
<path fill="none" stroke="#63b8ff" d="M514.85,-165.85C573.05,-158.38 657.88,-146.42 740.14,-130.2"/>
<polygon fill="#63b8ff" stroke="#63b8ff" points="740.59,-133.68 749.71,-128.28 739.22,-126.81 740.59,-133.68"/>
</a>
</g>
</g>
<!-- Node10 -->
<g id="Node000010" class="node">
<title>Node10</title>
<g id="a_Node000010"><a xlink:title=" ">
<polygon fill="#e0e0e0" stroke="#999999" points="67.12,-74.5 27.12,-74.5 27.12,-55.25 67.12,-55.25 67.12,-74.5"/>
<text text-anchor="middle" x="47.12" y="-61" font-family="Helvetica,sans-Serif" font-size="10.00">string</text>
</a>
</g>
</g>
<!-- Node7&#45;&gt;Node10 -->
<g id="edge9_Node000007_Node000010" class="edge">
<title>Node7&#45;&gt;Node10</title>
<g id="a_edge9_Node000007_Node000010"><a xlink:title=" ">
<path fill="none" stroke="#63b8ff" d="M373.4,-171.78C285.37,-167.45 141,-156.43 95.12,-129.75 77.35,-119.41 64.07,-99.63 56.03,-84.81"/>
<polygon fill="#63b8ff" stroke="#63b8ff" points="59.24,-83.39 51.61,-76.03 52.99,-86.54 59.24,-83.39"/>
</a>
</g>
</g>
<!-- Node11 -->
<g id="Node000011" class="node">
<title>Node11</title>
<g id="a_Node000011"><a xlink:title=" ">
<polygon fill="#e0e0e0" stroke="#999999" points="321.62,-74.5 278.62,-74.5 278.62,-55.25 321.62,-55.25 321.62,-74.5"/>
<text text-anchor="middle" x="300.12" y="-61" font-family="Helvetica,sans-Serif" font-size="10.00">vector</text>
</a>
</g>
</g>
<!-- Node7&#45;&gt;Node11 -->
<g id="edge10_Node000007_Node000011" class="edge">
<title>Node7&#45;&gt;Node11</title>
<g id="a_edge10_Node000007_Node000011"><a xlink:title=" ">
<path fill="none" stroke="#63b8ff" d="M388.28,-165.32C364.83,-158.93 338.92,-148.09 321.12,-129.75 309.8,-118.07 304.58,-100.18 302.18,-86.3"/>
<polygon fill="#63b8ff" stroke="#63b8ff" points="305.66,-85.93 300.87,-76.48 298.72,-86.85 305.66,-85.93"/>
</a>
</g>
</g>
<!-- Node12 -->
<g id="Node000012" class="node">
<title>Node12</title>
<g id="a_Node000012"><a xlink:href="../../da/d33/Namespace_8hpp.html" target="_top" xlink:title=" ">
<polygon fill="white" stroke="#666666" points="274,-129.75 104.25,-129.75 104.25,-110.5 274,-110.5 274,-129.75"/>
<text text-anchor="middle" x="189.12" y="-116.25" font-family="Helvetica,sans-Serif" font-size="10.00">Ark/Compiler/AST/Namespace.hpp</text>
</a>
</g>
</g>
<!-- Node7&#45;&gt;Node12 -->
<g id="edge12_Node000007_Node000012" class="edge">
<title>Node7&#45;&gt;Node12</title>
<g id="a_edge12_Node000007_Node000012"><a xlink:title=" ">
<path fill="none" stroke="#63b8ff" d="M400.58,-165.28C357.21,-156.23 290.52,-142.3 243.66,-132.51"/>
<polygon fill="#63b8ff" stroke="#63b8ff" points="244.48,-129.11 233.97,-130.49 243.05,-135.96 244.48,-129.11"/>
</a>
</g>
</g>
<!-- Node14 -->
<g id="Node000014" class="node">
<title>Node14</title>
<g id="a_Node000014"><a xlink:href="../../d8/ddd/Common_8hpp.html" target="_top" xlink:title="Common code for the compiler.">
<polygon fill="white" stroke="#666666" points="464.38,-129.75 329.88,-129.75 329.88,-110.5 464.38,-110.5 464.38,-129.75"/>
<text text-anchor="middle" x="397.12" y="-116.25" font-family="Helvetica,sans-Serif" font-size="10.00">Ark/Compiler/Common.hpp</text>
</a>
</g>
</g>
<!-- Node7&#45;&gt;Node14 -->
<g id="edge16_Node000007_Node000014" class="edge">
<title>Node7&#45;&gt;Node14</title>
<g id="a_edge16_Node000007_Node000014"><a xlink:title=" ">
<path fill="none" stroke="#63b8ff" d="M436.36,-165.58C429.94,-158.3 420.61,-147.73 412.66,-138.73"/>
<polygon fill="#63b8ff" stroke="#63b8ff" points="415.3,-136.43 406.06,-131.24 410.05,-141.06 415.3,-136.43"/>
</a>
</g>
</g>
<!-- Node21 -->
<g id="Node000021" class="node">
<title>Node21</title>
<g id="a_Node000021"><a xlink:href="../../d5/d40/Platform_8hpp.html" target="_top" xlink:title="ArkScript configuration macros.">
<polygon fill="white" stroke="#666666" points="601.5,-74.5 488.75,-74.5 488.75,-55.25 601.5,-55.25 601.5,-74.5"/>
<text text-anchor="middle" x="545.12" y="-61" font-family="Helvetica,sans-Serif" font-size="10.00">Ark/Utils/Platform.hpp</text>
</a>
</g>
</g>
<!-- Node7&#45;&gt;Node21 -->
<g id="edge26_Node000007_Node000021" class="edge">
<title>Node7&#45;&gt;Node21</title>
<g id="a_edge26_Node000007_Node000021"><a xlink:title=" ">
<path fill="none" stroke="#63b8ff" d="M452.39,-165.5C469.11,-147.53 507.21,-106.61 529.01,-83.19"/>
<polygon fill="#63b8ff" stroke="#63b8ff" points="531.46,-85.69 535.71,-75.98 526.34,-80.92 531.46,-85.69"/>
</a>
</g>
</g>
<!-- Node22 -->
<g id="Node000022" class="node">
<title>Node22</title>
<g id="a_Node000022"><a xlink:href="../../dc/d58/Position_8hpp.html" target="_top" xlink:title="Defines position utilities (for text in a file) for the parser, formatter, diagnostics.">
<polygon fill="white" stroke="#666666" points="631.75,-129.75 520.5,-129.75 520.5,-110.5 631.75,-110.5 631.75,-129.75"/>
<text text-anchor="middle" x="576.12" y="-116.25" font-family="Helvetica,sans-Serif" font-size="10.00">Ark/Utils/Position.hpp</text>
</a>
</g>
</g>
<!-- Node7&#45;&gt;Node22 -->
<g id="edge27_Node000007_Node000022" class="edge">
<title>Node7&#45;&gt;Node22</title>
<g id="a_edge27_Node000007_Node000022"><a xlink:title=" ">
<path fill="none" stroke="#63b8ff" d="M466.52,-165.34C487.57,-156.85 519.33,-144.04 543.25,-134.39"/>
<polygon fill="#63b8ff" stroke="#63b8ff" points="544.26,-137.76 552.22,-130.77 541.64,-131.26 544.26,-137.76"/>
</a>
</g>
</g>
<!-- Node12&#45;&gt;Node10 -->
<g id="edge13_Node000012_Node000010" class="edge">
<title>Node12&#45;&gt;Node10</title>
<g id="a_edge13_Node000012_Node000010"><a xlink:title=" ">
<path fill="none" stroke="#63b8ff" d="M165.04,-110.09C140.94,-101.06 103.8,-87.13 77.66,-77.32"/>
<polygon fill="#63b8ff" stroke="#63b8ff" points="79.2,-74.17 68.61,-73.93 76.74,-80.72 79.2,-74.17"/>
</a>
</g>
</g>
<!-- Node12&#45;&gt;Node11 -->
<g id="edge14_Node000012_Node000011" class="edge">
<title>Node12&#45;&gt;Node11</title>
<g id="a_edge14_Node000012_Node000011"><a xlink:title=" ">
<path fill="none" stroke="#63b8ff" d="M207.95,-110.09C225.18,-101.83 250.93,-89.48 270.83,-79.93"/>
<polygon fill="#63b8ff" stroke="#63b8ff" points="272.34,-83.09 279.84,-75.61 269.31,-76.78 272.34,-83.09"/>
</a>
</g>
</g>
<!-- Node13 -->
<g id="Node000013" class="node">
<title>Node13</title>
<g id="a_Node000013"><a xlink:title=" ">
<polygon fill="#e0e0e0" stroke="#999999" points="260.75,-74.5 209.5,-74.5 209.5,-55.25 260.75,-55.25 260.75,-74.5"/>
<text text-anchor="middle" x="235.12" y="-61" font-family="Helvetica,sans-Serif" font-size="10.00">memory</text>
</a>
</g>
</g>
<!-- Node12&#45;&gt;Node13 -->
<g id="edge15_Node000012_Node000013" class="edge">
<title>Node12&#45;&gt;Node13</title>
<g id="a_edge15_Node000012_Node000013"><a xlink:title=" ">
<path fill="none" stroke="#63b8ff" d="M196.72,-110.33C203.01,-103.05 212.14,-92.48 219.92,-83.48"/>
<polygon fill="#63b8ff" stroke="#63b8ff" points="222.49,-85.86 226.37,-76 217.19,-81.28 222.49,-85.86"/>
</a>
</g>
</g>
<!-- Node14&#45;&gt;Node11 -->
<g id="edge19_Node000014_Node000011" class="edge">
<title>Node14&#45;&gt;Node11</title>
<g id="a_edge19_Node000014_Node000011"><a xlink:title=" ">
<path fill="none" stroke="#63b8ff" d="M380.67,-110.09C365.9,-101.98 343.95,-89.93 326.69,-80.46"/>
<polygon fill="#63b8ff" stroke="#63b8ff" points="328.44,-77.43 317.99,-75.68 325.07,-83.56 328.44,-77.43"/>
</a>
</g>
</g>
<!-- Node15 -->
<g id="Node000015" class="node">
<title>Node15</title>
<g id="a_Node000015"><a xlink:title=" ">
<polygon fill="#e0e0e0" stroke="#999999" points="416,-74.5 378.25,-74.5 378.25,-55.25 416,-55.25 416,-74.5"/>
<text text-anchor="middle" x="397.12" y="-61" font-family="Helvetica,sans-Serif" font-size="10.00">array</text>
</a>
</g>
</g>
<!-- Node14&#45;&gt;Node15 -->
<g id="edge17_Node000014_Node000015" class="edge">
<title>Node14&#45;&gt;Node15</title>
<g id="a_edge17_Node000014_Node000015"><a xlink:title=" ">
<path fill="none" stroke="#63b8ff" d="M397.12,-110.33C397.12,-103.82 397.12,-94.67 397.12,-86.37"/>
<polygon fill="#63b8ff" stroke="#63b8ff" points="400.63,-86.37 397.13,-76.37 393.63,-86.37 400.63,-86.37"/>
</a>
</g>
</g>
<!-- Node16 -->
<g id="Node000016" class="node">
<title>Node16</title>
<g id="a_Node000016"><a xlink:title=" ">
<polygon fill="#e0e0e0" stroke="#999999" points="455.88,-19.25 390.38,-19.25 390.38,0 455.88,0 455.88,-19.25"/>
<text text-anchor="middle" x="423.12" y="-5.75" font-family="Helvetica,sans-Serif" font-size="10.00">string_view</text>
</a>
</g>
</g>
<!-- Node14&#45;&gt;Node16 -->
<g id="edge18_Node000014_Node000016" class="edge">
<title>Node14&#45;&gt;Node16</title>
<g id="a_edge18_Node000014_Node000016"><a xlink:title=" ">
<path fill="none" stroke="#63b8ff" d="M404.8,-110.29C411.65,-101.78 421.18,-88.21 425.12,-74.5 429.22,-60.27 428.5,-43.51 426.87,-30.73"/>
<polygon fill="#63b8ff" stroke="#63b8ff" points="430.36,-30.34 425.33,-21.01 423.44,-31.44 430.36,-30.34"/>
</a>
</g>
</g>
<!-- Node17 -->
<g id="Node000017" class="node">
<title>Node17</title>
<g id="a_Node000017"><a xlink:title=" ">
<polygon fill="#e0e0e0" stroke="#999999" points="330,-19.25 274.25,-19.25 274.25,0 330,0 330,-19.25"/>
<text text-anchor="middle" x="302.12" y="-5.75" font-family="Helvetica,sans-Serif" font-size="10.00">cinttypes</text>
</a>
</g>
</g>
<!-- Node14&#45;&gt;Node17 -->
<g id="edge20_Node000014_Node000017" class="edge">
<title>Node14&#45;&gt;Node17</title>
<g id="a_edge20_Node000014_Node000017"><a xlink:title=" ">
<path fill="none" stroke="#63b8ff" d="M389.35,-110.25C373.69,-92.36 338.11,-51.72 317.55,-28.25"/>
<polygon fill="#63b8ff" stroke="#63b8ff" points="320.22,-25.98 311,-20.77 314.96,-30.59 320.22,-25.98"/>
</a>
</g>
</g>
<!-- Node14&#45;&gt;Node18 -->
<g id="edge21_Node000014_Node000018" class="edge">
<title>Node14&#45;&gt;Node18</title>
<g id="a_edge21_Node000014_Node000018"><a xlink:title=" ">
<path fill="none" stroke="#63b8ff" d="M353.58,-110.03C310.21,-100.98 243.52,-87.05 196.66,-77.26"/>
<polygon fill="#63b8ff" stroke="#63b8ff" points="197.48,-73.86 186.97,-75.24 196.05,-80.71 197.48,-73.86"/>
</a>
</g>
</g>
<!-- Node18&#45;&gt;Node16 -->
<g id="edge22_Node000018_Node000016" class="edge">
<title>Node18&#45;&gt;Node16</title>
<g id="a_edge22_Node000018_Node000016"><a xlink:title=" ">
<path fill="none" stroke="#63b8ff" d="M190.11,-54.78C243.16,-44.73 327.87,-28.68 379.22,-18.94"/>
<polygon fill="#63b8ff" stroke="#63b8ff" points="379.61,-22.43 388.79,-17.13 378.31,-15.56 379.61,-22.43"/>
</a>
</g>
</g>
<!-- Node18&#45;&gt;Node17 -->
<g id="edge24_Node000018_Node000017" class="edge">
<title>Node18&#45;&gt;Node17</title>
<g id="a_edge24_Node000018_Node000017"><a xlink:title=" ">
<path fill="none" stroke="#63b8ff" d="M169.27,-54.84C195.36,-46.16 235.02,-32.96 264.22,-23.24"/>
<polygon fill="#63b8ff" stroke="#63b8ff" points="265.03,-26.66 273.41,-20.18 262.82,-20.02 265.03,-26.66"/>
</a>
</g>
</g>
<!-- Node19 -->
<g id="Node000019" class="node">
<title>Node19</title>
<g id="a_Node000019"><a xlink:title=" ">
<polygon fill="#e0e0e0" stroke="#999999" points="120.75,-19.25 81.5,-19.25 81.5,0 120.75,0 120.75,-19.25"/>
<text text-anchor="middle" x="101.12" y="-5.75" font-family="Helvetica,sans-Serif" font-size="10.00">limits</text>
</a>
</g>
</g>
<!-- Node18&#45;&gt;Node19 -->
<g id="edge23_Node000018_Node000019" class="edge">
<title>Node18&#45;&gt;Node19</title>
<g id="a_edge23_Node000018_Node000019"><a xlink:title=" ">
<path fill="none" stroke="#63b8ff" d="M135.35,-55.08C129.81,-47.88 121.78,-37.46 114.9,-28.51"/>
<polygon fill="#63b8ff" stroke="#63b8ff" points="117.84,-26.6 108.97,-20.81 112.29,-30.87 117.84,-26.6"/>
</a>
</g>
</g>
<!-- Node20 -->
<g id="Node000020" class="node">
<title>Node20</title>
<g id="a_Node000020"><a xlink:title=" ">
<polygon fill="#e0e0e0" stroke="#999999" points="187.25,-19.25 139,-19.25 139,0 187.25,0 187.25,-19.25"/>
<text text-anchor="middle" x="163.12" y="-5.75" font-family="Helvetica,sans-Serif" font-size="10.00">cstddef</text>
</a>
</g>
</g>
<!-- Node18&#45;&gt;Node20 -->
<g id="edge25_Node000018_Node000020" class="edge">
<title>Node18&#45;&gt;Node20</title>
<g id="a_edge25_Node000018_Node000020"><a xlink:title=" ">
<path fill="none" stroke="#63b8ff" d="M145.59,-55.08C148.25,-48.34 152.02,-38.77 155.39,-30.24"/>
<polygon fill="#63b8ff" stroke="#63b8ff" points="158.61,-31.6 159.03,-21.02 152.1,-29.04 158.61,-31.6"/>
</a>
</g>
</g>
<!-- Node22&#45;&gt;Node5 -->
<g id="edge28_Node000022_Node000005" class="edge">
<title>Node22&#45;&gt;Node5</title>
<g id="a_edge28_Node000022_Node000005"><a xlink:title=" ">
<path fill="none" stroke="#63b8ff" d="M590.37,-110.09C602.92,-102.14 621.46,-90.39 636.27,-81"/>
<polygon fill="#63b8ff" stroke="#63b8ff" points="637.96,-84.07 644.53,-75.76 634.21,-78.16 637.96,-84.07"/>
</a>
</g>
</g>
<!-- Node22&#45;&gt;Node21 -->
<g id="edge29_Node000022_Node000021" class="edge">
<title>Node22&#45;&gt;Node21</title>
<g id="a_edge29_Node000022_Node000021"><a xlink:title=" ">
<path fill="none" stroke="#63b8ff" d="M571.01,-110.33C566.95,-103.36 561.13,-93.37 556.04,-84.62"/>
<polygon fill="#63b8ff" stroke="#63b8ff" points="559.17,-83.05 551.12,-76.17 553.12,-86.57 559.17,-83.05"/>
</a>
</g>
</g>
</g>
</svg>

<g id="navigator" transform="translate(0 0)" fill="#404254">
  <rect fill="#f2f5e9" fill-opacity="0.5" stroke="#606060" stroke-width=".5" x="0" y="0" width="60" height="60"/>
  <use id="zoomplus" xlink:href="#zoomPlus" x="17" y="9" onmousedown="handleZoom(evt,'in')"/>
  <use id="zoomminus" xlink:href="#zoomMin" x="42" y="9" onmousedown="handleZoom(evt,'out')"/>
  <use id="reset" xlink:href="#resetDef" x="30" y="36" onmousedown="handleReset()"/>
   <use id="arrowup" xlink:href="#arrowUp" x="0" y="0" onmousedown="handlePan(0,-1)"/>
  <use id="arrowright" xlink:href="#arrowRight" x="0" y="0" onmousedown="handlePan(1,0)"/>
  <use id="arrowdown" xlink:href="#arrowDown" x="0" y="0" onmousedown="handlePan(0,1)"/>
  <use id="arrowleft" xlink:href="#arrowLeft" x="0" y="0" onmousedown="handlePan(-1,0)"/>
</g>
<svg viewBox="0 0 15 15" width="100%" height="30px" preserveAspectRatio="xMaxYMin meet">
 <g id="arrow_out" transform="scale(0.3 0.3)">
  <a xlink:href="Function_8cpp__incl_org.svg" target="_base">
   <rect id="button" ry="5" rx="5" y="6" x="6" height="38" width="38"
        fill="#f2f5e9" fill-opacity="0.5" stroke="#606060" stroke-width="1.0"/>
   <path id="arrow"
     d="M 11.500037,31.436501 C 11.940474,20.09759 22.043105,11.32322 32.158766,21.979434 L 37.068811,17.246167 C 37.068811,17.246167 37.088388,32 37.088388,32 L 22.160133,31.978069 C 22.160133,31.978069 26.997745,27.140456 26.997745,27.140456 C 18.528582,18.264221 13.291696,25.230495 11.500037,31.436501 z"
     style="fill:#404040;"/>
  </a>
 </g>
</svg>

<style type='text/css'>
<![CDATA[
[data-mouse-over-selected='false'] { opacity: 0.7; }
[data-mouse-over-selected='true']  { opacity: 1.0; }
]]>
</style>
<script type="application/ecmascript"><![CDATA[
document.addEventListener('DOMContentLoaded', (event) => {
  highlightEdges();
  highlightAdjacentNodes();
});
]]></script>
</svg>
