<?xml version="1.0" encoding="UTF-8" standalone="no"?>
<!DOCTYPE svg PUBLIC "-//W3C//DTD SVG 1.1//EN"
 "http://www.w3.org/Graphics/SVG/1.1/DTD/svg11.dtd">
<!-- Generated by graphviz version 12.2.0 (20241103.1931)
 -->
<!-- Title: /Users/fola/Documents/ArkScript/Ark/src/arkreactor/TypeChecker.cpp Pages: 1 -->
<!--zoomable 337 -->

<svg id="main" version="1.1" xmlns="http://www.w3.org/2000/svg" xmlns:xlink="http://www.w3.org/1999/xlink" xml:space="preserve" onload="init(evt)">

<style type="text/css"><![CDATA[
.node, .edge {opacity: 0.7;}
.node.selected, .edge.selected {opacity: 1;}
.edge:hover path { stroke: red; }
.edge:hover polygon { stroke: red; fill: red; }
]]></style>

<defs>
  <circle id="rim" cx="0" cy="0" r="7"/>
  <circle id="rim2" cx="0" cy="0" r="3.5"/>
  <g id="zoomPlus">
    <use xlink:href="#rim" fill="#404040"><set attributeName="fill" to="#808080" begin="zoomplus.mouseover" end="zoomplus.mouseout"/></use>
    <path d="M-4,0h8M0,-4v8" fill="none" stroke="white" stroke-width="1.5" pointer-events="none"/>
  </g>
  <g id="zoomMin">
    <use xlink:href="#rim" fill="#404040"><set attributeName="fill" to="#808080" begin="zoomminus.mouseover" end="zoomminus.mouseout"/></use>
    <path d="M-4,0h8" fill="none" stroke="white" stroke-width="1.5" pointer-events="none"/>
  </g>
  <g id="arrowUp" transform="translate(30 24)">
    <use xlink:href="#rim"/>
    <path pointer-events="none" fill="none" stroke="white" stroke-width="1.5" d="M0,-3.0v7 M-2.5,-0.5L0,-3.0L2.5,-0.5"/>
  </g>
  <g id="arrowRight" transform="rotate(90) translate(36 -43)">
    <use xlink:href="#rim"/>
    <path pointer-events="none" fill="none" stroke="white" stroke-width="1.5" d="M0,-3.0v7 M-2.5,-0.5L0,-3.0L2.5,-0.5"/>
  </g>
  <g id="arrowDown" transform="rotate(180) translate(-30 -48)">
    <use xlink:href="#rim"/>
    <path pointer-events="none" fill="none" stroke="white" stroke-width="1.5" d="M0,-3.0v7 M-2.5,-0.5L0,-3.0L2.5,-0.5"/>
  </g>
  <g id="arrowLeft" transform="rotate(270) translate(-36 17)">
    <use xlink:href="#rim"/>
    <path pointer-events="none" fill="none" stroke="white" stroke-width="1.5" d="M0,-3.0v7 M-2.5,-0.5L0,-3.0L2.5,-0.5"/>
  </g>
  <g id="resetDef">
    <use xlink:href="#rim2" fill="#404040"><set attributeName="fill" to="#808080" begin="reset.mouseover" end="reset.mouseout"/></use>
  </g>
</defs>
<script type="application/ecmascript">
var viewWidth = 1587;
var viewHeight = 337;
var sectionId = 'dynsection-0';
</script>
<script type="application/ecmascript" xlink:href="../../svg.min.js"/>
<svg id="graph" class="graph">
<g id="viewport">
<title>/Users/fola/Documents/ArkScript/Ark/src/arkreactor/TypeChecker.cpp</title>
<!-- Node1 -->
<g id="Node000001" class="node">
<title>Node1</title>
<g id="a_Node000001"><a xlink:title=" ">
<polygon fill="#999999" stroke="#666666" points="1367.36,-329.25 1226.86,-329.25 1226.86,-287.5 1367.36,-287.5 1367.36,-329.25"/>
<text text-anchor="start" x="1234.86" y="-315.75" font-family="Helvetica,sans-Serif" font-size="10.00">/Users/fola/Documents</text>
<text text-anchor="start" x="1234.86" y="-304.5" font-family="Helvetica,sans-Serif" font-size="10.00">/ArkScript/Ark/src/arkreactor</text>
<text text-anchor="middle" x="1297.11" y="-293.25" font-family="Helvetica,sans-Serif" font-size="10.00">/TypeChecker.cpp</text>
</a>
</g>
</g>
<!-- Node2 -->
<g id="Node000002" class="node">
<title>Node2</title>
<g id="a_Node000002"><a xlink:href="../../db/d5e/TypeChecker_8hpp.html" target="_top" xlink:title=" ">
<polygon fill="white" stroke="#666666" points="1058.99,-251.5 949.24,-251.5 949.24,-232.25 1058.99,-232.25 1058.99,-251.5"/>
<text text-anchor="middle" x="1004.11" y="-238" font-family="Helvetica,sans-Serif" font-size="10.00">Ark/TypeChecker.hpp</text>
</a>
</g>
</g>
<!-- Node1&#45;&gt;Node2 -->
<g id="edge1_Node000001_Node000002" class="edge">
<title>Node1&#45;&gt;Node2</title>
<g id="a_edge1_Node000001_Node000002"><a xlink:title=" ">
<path fill="none" stroke="#63b8ff" d="M1226.56,-291.84C1174.15,-280.31 1103.83,-264.83 1056.39,-254.38"/>
<polygon fill="#63b8ff" stroke="#63b8ff" points="1057.14,-250.97 1046.63,-252.23 1055.64,-257.8 1057.14,-250.97"/>
</a>
</g>
</g>
<!-- Node13 -->
<g id="Node000013" class="node">
<title>Node13</title>
<g id="a_Node000013"><a xlink:title=" ">
<polygon fill="#e0e0e0" stroke="#999999" points="1064.74,-74.5 1025.49,-74.5 1025.49,-55.25 1064.74,-55.25 1064.74,-74.5"/>
<text text-anchor="middle" x="1045.11" y="-61" font-family="Helvetica,sans-Serif" font-size="10.00">limits</text>
</a>
</g>
</g>
<!-- Node1&#45;&gt;Node13 -->
<g id="edge43_Node000001_Node000013" class="edge">
<title>Node1&#45;&gt;Node13</title>
<g id="a_edge43_Node000001_Node000013"><a xlink:title=" ">
<path fill="none" stroke="#63b8ff" d="M1243.42,-287.06C1223.55,-278 1201.61,-266.05 1184.11,-251.5 1152.93,-225.57 1084.74,-125.49 1057.1,-84.03"/>
<polygon fill="#63b8ff" stroke="#63b8ff" points="1060.14,-82.28 1051.7,-75.88 1054.31,-86.15 1060.14,-82.28"/>
</a>
</g>
</g>
<!-- Node27 -->
<g id="Node000027" class="node">
<title>Node27</title>
<g id="a_Node000027"><a xlink:title=" ">
<polygon fill="#e0e0e0" stroke="#999999" points="1248.99,-251.5 1193.24,-251.5 1193.24,-232.25 1248.99,-232.25 1248.99,-251.5"/>
<text text-anchor="middle" x="1221.11" y="-238" font-family="Helvetica,sans-Serif" font-size="10.00">algorithm</text>
</a>
</g>
</g>
<!-- Node1&#45;&gt;Node27 -->
<g id="edge44_Node000001_Node000027" class="edge">
<title>Node1&#45;&gt;Node27</title>
<g id="a_edge44_Node000001_Node000027"><a xlink:title=" ">
<path fill="none" stroke="#63b8ff" d="M1273.48,-287.32C1262.81,-278.26 1250.36,-267.69 1240.27,-259.14"/>
<polygon fill="#63b8ff" stroke="#63b8ff" points="1242.84,-256.73 1232.95,-252.92 1238.31,-262.06 1242.84,-256.73"/>
</a>
</g>
</g>
<!-- Node28 -->
<g id="Node000028" class="node">
<title>Node28</title>
<g id="a_Node000028"><a xlink:title=" ">
<polygon fill="#e0e0e0" stroke="#999999" points="1327.24,-251.5 1266.99,-251.5 1266.99,-232.25 1327.24,-232.25 1327.24,-251.5"/>
<text text-anchor="middle" x="1297.11" y="-238" font-family="Helvetica,sans-Serif" font-size="10.00">fmt/core.h</text>
</a>
</g>
</g>
<!-- Node1&#45;&gt;Node28 -->
<g id="edge45_Node000001_Node000028" class="edge">
<title>Node1&#45;&gt;Node28</title>
<g id="a_edge45_Node000001_Node000028"><a xlink:title=" ">
<path fill="none" stroke="#63b8ff" d="M1297.11,-287.32C1297.11,-279.65 1297.11,-270.89 1297.11,-263.2"/>
<polygon fill="#63b8ff" stroke="#63b8ff" points="1300.61,-263.46 1297.11,-253.46 1293.61,-263.46 1300.61,-263.46"/>
</a>
</g>
</g>
<!-- Node29 -->
<g id="Node000029" class="node">
<title>Node29</title>
<g id="a_Node000029"><a xlink:title=" ">
<polygon fill="#e0e0e0" stroke="#999999" points="1405.24,-251.5 1344.99,-251.5 1344.99,-232.25 1405.24,-232.25 1405.24,-251.5"/>
<text text-anchor="middle" x="1375.11" y="-238" font-family="Helvetica,sans-Serif" font-size="10.00">fmt/args.h</text>
</a>
</g>
</g>
<!-- Node1&#45;&gt;Node29 -->
<g id="edge46_Node000001_Node000029" class="edge">
<title>Node1&#45;&gt;Node29</title>
<g id="a_edge46_Node000001_Node000029"><a xlink:title=" ">
<path fill="none" stroke="#63b8ff" d="M1321.37,-287.32C1332.32,-278.26 1345.1,-267.69 1355.45,-259.14"/>
<polygon fill="#63b8ff" stroke="#63b8ff" points="1357.5,-261.98 1362.98,-252.91 1353.04,-256.59 1357.5,-261.98"/>
</a>
</g>
</g>
<!-- Node30 -->
<g id="Node000030" class="node">
<title>Node30</title>
<g id="a_Node000030"><a xlink:title=" ">
<polygon fill="#e0e0e0" stroke="#999999" points="1484.99,-251.5 1423.24,-251.5 1423.24,-232.25 1484.99,-232.25 1484.99,-251.5"/>
<text text-anchor="middle" x="1454.11" y="-238" font-family="Helvetica,sans-Serif" font-size="10.00">fmt/color.h</text>
</a>
</g>
</g>
<!-- Node1&#45;&gt;Node30 -->
<g id="edge47_Node000001_Node000030" class="edge">
<title>Node1&#45;&gt;Node30</title>
<g id="a_edge47_Node000001_Node000030"><a xlink:title=" ">
<path fill="none" stroke="#63b8ff" d="M1346.36,-287.14C1370.86,-277.08 1399.81,-265.19 1421.52,-256.26"/>
<polygon fill="#63b8ff" stroke="#63b8ff" points="1422.84,-259.51 1430.76,-252.47 1420.18,-253.03 1422.84,-259.51"/>
</a>
</g>
</g>
<!-- Node31 -->
<g id="Node000031" class="node">
<title>Node31</title>
<g id="a_Node000031"><a xlink:title=" ">
<polygon fill="#e0e0e0" stroke="#999999" points="1579.49,-251.5 1502.74,-251.5 1502.74,-232.25 1579.49,-232.25 1579.49,-251.5"/>
<text text-anchor="middle" x="1541.11" y="-238" font-family="Helvetica,sans-Serif" font-size="10.00">fmt/ostream.h</text>
</a>
</g>
</g>
<!-- Node1&#45;&gt;Node31 -->
<g id="edge48_Node000001_Node000031" class="edge">
<title>Node1&#45;&gt;Node31</title>
<g id="a_edge48_Node000001_Node000031"><a xlink:title=" ">
<path fill="none" stroke="#63b8ff" d="M1367.69,-288.72C1408.96,-277.81 1459.85,-264.36 1495.8,-254.85"/>
<polygon fill="#63b8ff" stroke="#63b8ff" points="1496.68,-258.24 1505.45,-252.3 1494.89,-251.47 1496.68,-258.24"/>
</a>
</g>
</g>
<!-- Node3 -->
<g id="Node000003" class="node">
<title>Node3</title>
<g id="a_Node000003"><a xlink:title=" ">
<polygon fill="#e0e0e0" stroke="#999999" points="386.11,-74.5 346.11,-74.5 346.11,-55.25 386.11,-55.25 386.11,-74.5"/>
<text text-anchor="middle" x="366.11" y="-61" font-family="Helvetica,sans-Serif" font-size="10.00">string</text>
</a>
</g>
</g>
<!-- Node2&#45;&gt;Node3 -->
<g id="edge2_Node000002_Node000003" class="edge">
<title>Node2&#45;&gt;Node3</title>
<g id="a_edge2_Node000002_Node000003"><a xlink:title=" ">
<path fill="none" stroke="#63b8ff" d="M948.97,-239.5C784.26,-235.14 305.85,-220.44 283.11,-196.25 248.84,-159.79 308.53,-107.28 343.49,-81.44"/>
<polygon fill="#63b8ff" stroke="#63b8ff" points="345.28,-84.45 351.36,-75.77 341.2,-78.77 345.28,-84.45"/>
</a>
</g>
</g>
<!-- Node4 -->
<g id="Node000004" class="node">
<title>Node4</title>
<g id="a_Node000004"><a xlink:title=" ">
<polygon fill="#e0e0e0" stroke="#999999" points="1210.61,-74.5 1167.61,-74.5 1167.61,-55.25 1210.61,-55.25 1210.61,-74.5"/>
<text text-anchor="middle" x="1189.11" y="-61" font-family="Helvetica,sans-Serif" font-size="10.00">vector</text>
</a>
</g>
</g>
<!-- Node2&#45;&gt;Node4 -->
<g id="edge3_Node000002_Node000004" class="edge">
<title>Node2&#45;&gt;Node4</title>
<g id="a_edge3_Node000002_Node000004"><a xlink:title=" ">
<path fill="none" stroke="#63b8ff" d="M1059.23,-237.82C1122.22,-231.04 1222.71,-209.43 1270.11,-141 1277.83,-129.86 1277.01,-122.17 1270.11,-110.5 1264.47,-100.95 1241.32,-88.71 1221.21,-79.46"/>
<polygon fill="#63b8ff" stroke="#63b8ff" points="1222.72,-76.31 1212.16,-75.42 1219.86,-82.7 1222.72,-76.31"/>
</a>
</g>
</g>
<!-- Node5 -->
<g id="Node000005" class="node">
<title>Node5</title>
<g id="a_Node000005"><a xlink:title=" ">
<polygon fill="#e0e0e0" stroke="#999999" points="1029.74,-196.25 978.49,-196.25 978.49,-177 1029.74,-177 1029.74,-196.25"/>
<text text-anchor="middle" x="1004.11" y="-182.75" font-family="Helvetica,sans-Serif" font-size="10.00">ostream</text>
</a>
</g>
</g>
<!-- Node2&#45;&gt;Node5 -->
<g id="edge4_Node000002_Node000005" class="edge">
<title>Node2&#45;&gt;Node5</title>
<g id="a_edge4_Node000002_Node000005"><a xlink:title=" ">
<path fill="none" stroke="#63b8ff" d="M1004.11,-232.08C1004.11,-225.57 1004.11,-216.42 1004.11,-208.12"/>
<polygon fill="#63b8ff" stroke="#63b8ff" points="1007.61,-208.12 1004.11,-198.12 1000.61,-208.12 1007.61,-208.12"/>
</a>
</g>
</g>
<!-- Node6 -->
<g id="Node000006" class="node">
<title>Node6</title>
<g id="a_Node000006"><a xlink:title=" ">
<polygon fill="#e0e0e0" stroke="#999999" points="1098.74,-196.25 1047.49,-196.25 1047.49,-177 1098.74,-177 1098.74,-196.25"/>
<text text-anchor="middle" x="1073.11" y="-182.75" font-family="Helvetica,sans-Serif" font-size="10.00">sstream</text>
</a>
</g>
</g>
<!-- Node2&#45;&gt;Node6 -->
<g id="edge5_Node000002_Node000006" class="edge">
<title>Node2&#45;&gt;Node6</title>
<g id="a_edge5_Node000002_Node000006"><a xlink:title=" ">
<path fill="none" stroke="#63b8ff" d="M1015.82,-231.84C1025.89,-224.07 1040.66,-212.67 1052.67,-203.4"/>
<polygon fill="#63b8ff" stroke="#63b8ff" points="1054.6,-206.33 1060.38,-197.45 1050.33,-200.79 1054.6,-206.33"/>
</a>
</g>
</g>
<!-- Node7 -->
<g id="Node000007" class="node">
<title>Node7</title>
<g id="a_Node000007"><a xlink:href="../../d2/de9/Exceptions_8hpp.html" target="_top" xlink:title="ArkScript homemade exceptions.">
<polygon fill="white" stroke="#666666" points="417.86,-196.25 292.36,-196.25 292.36,-177 417.86,-177 417.86,-196.25"/>
<text text-anchor="middle" x="355.11" y="-182.75" font-family="Helvetica,sans-Serif" font-size="10.00">Ark/Error/Exceptions.hpp</text>
</a>
</g>
</g>
<!-- Node2&#45;&gt;Node7 -->
<g id="edge6_Node000002_Node000007" class="edge">
<title>Node2&#45;&gt;Node7</title>
<g id="a_edge6_Node000002_Node000007"><a xlink:title=" ">
<path fill="none" stroke="#63b8ff" d="M948.78,-236.33C832.17,-226.77 561.11,-204.53 429.49,-193.73"/>
<polygon fill="#63b8ff" stroke="#63b8ff" points="430.1,-190.27 419.85,-192.94 429.53,-197.24 430.1,-190.27"/>
</a>
</g>
</g>
<!-- Node17 -->
<g id="Node000017" class="node">
<title>Node17</title>
<g id="a_Node000017"><a xlink:href="../../de/dfd/Value_8hpp.html" target="_top" xlink:title="Default value type handled by the virtual machine.">
<polygon fill="white" stroke="#666666" points="960.49,-196.25 865.74,-196.25 865.74,-177 960.49,-177 960.49,-196.25"/>
<text text-anchor="middle" x="913.11" y="-182.75" font-family="Helvetica,sans-Serif" font-size="10.00">Ark/VM/Value.hpp</text>
</a>
</g>
</g>
<!-- Node2&#45;&gt;Node17 -->
<g id="edge22_Node000002_Node000017" class="edge">
<title>Node2&#45;&gt;Node17</title>
<g id="a_edge22_Node000002_Node000017"><a xlink:title=" ">
<path fill="none" stroke="#63b8ff" d="M988.68,-231.84C974.95,-223.81 954.61,-211.91 938.5,-202.48"/>
<polygon fill="#63b8ff" stroke="#63b8ff" points="940.33,-199.5 929.93,-197.47 936.8,-205.54 940.33,-199.5"/>
</a>
</g>
</g>
<!-- Node7&#45;&gt;Node3 -->
<g id="edge7_Node000007_Node000003" class="edge">
<title>Node7&#45;&gt;Node3</title>
<g id="a_edge7_Node000007_Node000003"><a xlink:title=" ">
<path fill="none" stroke="#63b8ff" d="M345.51,-176.79C337.24,-168.47 325.91,-155.21 321.11,-141 316.78,-128.16 315.9,-123.01 321.11,-110.5 325.76,-99.34 334.71,-89.55 343.4,-81.99"/>
<polygon fill="#63b8ff" stroke="#63b8ff" points="345.38,-84.9 351.01,-75.92 341.01,-79.43 345.38,-84.9"/>
</a>
</g>
</g>
<!-- Node8 -->
<g id="Node000008" class="node">
<title>Node8</title>
<g id="a_Node000008"><a xlink:title=" ">
<polygon fill="#e0e0e0" stroke="#999999" points="369.74,-135.38 330.49,-135.38 330.49,-116.12 369.74,-116.12 369.74,-135.38"/>
<text text-anchor="middle" x="350.11" y="-121.88" font-family="Helvetica,sans-Serif" font-size="10.00">utility</text>
</a>
</g>
</g>
<!-- Node7&#45;&gt;Node8 -->
<g id="edge8_Node000007_Node000008" class="edge">
<title>Node7&#45;&gt;Node8</title>
<g id="a_edge8_Node000007_Node000008"><a xlink:title=" ">
<path fill="none" stroke="#63b8ff" d="M354.35,-176.68C353.69,-168.82 352.69,-157.07 351.83,-146.95"/>
<polygon fill="#63b8ff" stroke="#63b8ff" points="355.34,-146.95 351.01,-137.28 348.37,-147.54 355.34,-146.95"/>
</a>
</g>
</g>
<!-- Node9 -->
<g id="Node000009" class="node">
<title>Node9</title>
<g id="a_Node000009"><a xlink:title=" ">
<polygon fill="#e0e0e0" stroke="#999999" points="446.49,-135.38 387.74,-135.38 387.74,-116.12 446.49,-116.12 446.49,-135.38"/>
<text text-anchor="middle" x="417.11" y="-121.88" font-family="Helvetica,sans-Serif" font-size="10.00">stdexcept</text>
</a>
</g>
</g>
<!-- Node7&#45;&gt;Node9 -->
<g id="edge9_Node000007_Node000009" class="edge">
<title>Node7&#45;&gt;Node9</title>
<g id="a_edge9_Node000007_Node000009"><a xlink:title=" ">
<path fill="none" stroke="#63b8ff" d="M364.53,-176.68C373.72,-167.95 387.95,-154.44 399.29,-143.68"/>
<polygon fill="#63b8ff" stroke="#63b8ff" points="401.67,-146.24 406.51,-136.82 396.85,-141.17 401.67,-146.24"/>
</a>
</g>
</g>
<!-- Node10 -->
<g id="Node000010" class="node">
<title>Node10</title>
<g id="a_Node000010"><a xlink:title=" ">
<polygon fill="#e0e0e0" stroke="#999999" points="49.99,-19.25 0.24,-19.25 0.24,0 49.99,0 49.99,-19.25"/>
<text text-anchor="middle" x="25.11" y="-5.75" font-family="Helvetica,sans-Serif" font-size="10.00">optional</text>
</a>
</g>
</g>
<!-- Node7&#45;&gt;Node10 -->
<g id="edge10_Node000007_Node000010" class="edge">
<title>Node7&#45;&gt;Node10</title>
<g id="a_edge10_Node000007_Node000010"><a xlink:title=" ">
<path fill="none" stroke="#63b8ff" d="M291.9,-181.08C217.7,-174.87 99.84,-162.05 61.11,-141 26.4,-122.13 16.14,-111.44 2.11,-74.5 -3.7,-59.18 3.58,-41.65 11.46,-28.84"/>
<polygon fill="#63b8ff" stroke="#63b8ff" points="14.34,-30.82 17.08,-20.59 8.56,-26.88 14.34,-30.82"/>
</a>
</g>
</g>
<!-- Node11 -->
<g id="Node000011" class="node">
<title>Node11</title>
<g id="a_Node000011"><a xlink:href="../../db/d4e/utf8__char_8hpp.html" target="_top" xlink:title=" ">
<polygon fill="white" stroke="#666666" points="805.61,-141 690.61,-141 690.61,-110.5 805.61,-110.5 805.61,-141"/>
<text text-anchor="start" x="698.61" y="-127.5" font-family="Helvetica,sans-Serif" font-size="10.00">Ark/Compiler/AST/utf8</text>
<text text-anchor="middle" x="748.11" y="-116.25" font-family="Helvetica,sans-Serif" font-size="10.00">_char.hpp</text>
</a>
</g>
</g>
<!-- Node7&#45;&gt;Node11 -->
<g id="edge11_Node000007_Node000011" class="edge">
<title>Node7&#45;&gt;Node11</title>
<g id="a_edge11_Node000007_Node000011"><a xlink:title=" ">
<path fill="none" stroke="#63b8ff" d="M415.66,-176.55C486.83,-165.89 604.66,-148.24 679.25,-137.07"/>
<polygon fill="#63b8ff" stroke="#63b8ff" points="679.51,-140.57 688.88,-135.62 678.48,-133.64 679.51,-140.57"/>
</a>
</g>
</g>
<!-- Node14 -->
<g id="Node000014" class="node">
<title>Node14</title>
<g id="a_Node000014"><a xlink:href="../../d5/d40/Platform_8hpp.html" target="_top" xlink:title="ArkScript configuration macros.">
<polygon fill="white" stroke="#666666" points="406.49,-19.25 293.74,-19.25 293.74,0 406.49,0 406.49,-19.25"/>
<text text-anchor="middle" x="350.11" y="-5.75" font-family="Helvetica,sans-Serif" font-size="10.00">Ark/Utils/Platform.hpp</text>
</a>
</g>
</g>
<!-- Node7&#45;&gt;Node14 -->
<g id="edge15_Node000007_Node000014" class="edge">
<title>Node7&#45;&gt;Node14</title>
<g id="a_edge15_Node000007_Node000014"><a xlink:title=" ">
<path fill="none" stroke="#63b8ff" d="M292.13,-184.89C217.28,-182.53 98.97,-173.57 71.11,-141 62.3,-130.7 63.31,-121.58 71.11,-110.5 85.24,-90.44 233.15,-44.84 307.68,-22.89"/>
<polygon fill="#63b8ff" stroke="#63b8ff" points="308.49,-26.3 317.1,-20.13 306.52,-19.58 308.49,-26.3"/>
</a>
</g>
</g>
<!-- Node15 -->
<g id="Node000015" class="node">
<title>Node15</title>
<g id="a_Node000015"><a xlink:href="../../dc/d73/CodeErrorContext_8hpp.html" target="_top" xlink:title="Defines a code error context.">
<polygon fill="white" stroke="#666666" points="235.86,-135.38 80.36,-135.38 80.36,-116.12 235.86,-116.12 235.86,-135.38"/>
<text text-anchor="middle" x="158.11" y="-121.88" font-family="Helvetica,sans-Serif" font-size="10.00">Ark/Error/CodeErrorContext.hpp</text>
</a>
</g>
</g>
<!-- Node7&#45;&gt;Node15 -->
<g id="edge16_Node000007_Node000015" class="edge">
<title>Node7&#45;&gt;Node15</title>
<g id="a_edge16_Node000007_Node000015"><a xlink:title=" ">
<path fill="none" stroke="#63b8ff" d="M324.76,-176.55C291.07,-166.49 236.51,-150.18 199.05,-138.99"/>
<polygon fill="#63b8ff" stroke="#63b8ff" points="200.53,-135.77 189.95,-136.26 198.53,-142.48 200.53,-135.77"/>
</a>
</g>
</g>
<!-- Node11&#45;&gt;Node3 -->
<g id="edge13_Node000011_Node000003" class="edge">
<title>Node11&#45;&gt;Node3</title>
<g id="a_edge13_Node000011_Node000003"><a xlink:title=" ">
<path fill="none" stroke="#63b8ff" d="M690.51,-115.87C608.69,-103.26 461.63,-80.6 397.48,-70.71"/>
<polygon fill="#63b8ff" stroke="#63b8ff" points="398.41,-67.31 387.99,-69.25 397.34,-74.23 398.41,-67.31"/>
</a>
</g>
</g>
<!-- Node12 -->
<g id="Node000012" class="node">
<title>Node12</title>
<g id="a_Node000012"><a xlink:title=" ">
<polygon fill="#e0e0e0" stroke="#999999" points="844.99,-74.5 807.24,-74.5 807.24,-55.25 844.99,-55.25 844.99,-74.5"/>
<text text-anchor="middle" x="826.11" y="-61" font-family="Helvetica,sans-Serif" font-size="10.00">array</text>
</a>
</g>
</g>
<!-- Node11&#45;&gt;Node12 -->
<g id="edge12_Node000011_Node000012" class="edge">
<title>Node11&#45;&gt;Node12</title>
<g id="a_edge12_Node000011_Node000012"><a xlink:title=" ">
<path fill="none" stroke="#63b8ff" d="M767.39,-110.2C778.81,-101.58 793.29,-90.65 805.02,-81.8"/>
<polygon fill="#63b8ff" stroke="#63b8ff" points="807.01,-84.68 812.88,-75.86 802.79,-79.09 807.01,-84.68"/>
</a>
</g>
</g>
<!-- Node11&#45;&gt;Node13 -->
<g id="edge14_Node000011_Node000013" class="edge">
<title>Node11&#45;&gt;Node13</title>
<g id="a_edge14_Node000011_Node000013"><a xlink:title=" ">
<path fill="none" stroke="#63b8ff" d="M806.05,-112.17C808.77,-111.6 811.47,-111.04 814.11,-110.5 885.41,-95.92 969.35,-80.02 1013.81,-71.7"/>
<polygon fill="#63b8ff" stroke="#63b8ff" points="1014.32,-75.16 1023.51,-69.89 1013.04,-68.28 1014.32,-75.16"/>
</a>
</g>
</g>
<!-- Node15&#45;&gt;Node3 -->
<g id="edge17_Node000015_Node000003" class="edge">
<title>Node15&#45;&gt;Node3</title>
<g id="a_edge17_Node000015_Node000003"><a xlink:title=" ">
<path fill="none" stroke="#63b8ff" d="M190.16,-115.68C229.49,-104.55 295.74,-85.79 334.75,-74.75"/>
<polygon fill="#63b8ff" stroke="#63b8ff" points="335.57,-78.16 344.24,-72.07 333.66,-71.42 335.57,-78.16"/>
</a>
</g>
</g>
<!-- Node15&#45;&gt;Node14 -->
<g id="edge18_Node000015_Node000014" class="edge">
<title>Node15&#45;&gt;Node14</title>
<g id="a_edge18_Node000015_Node000014"><a xlink:title=" ">
<path fill="none" stroke="#63b8ff" d="M173.18,-115.79C206.05,-96.26 284.47,-49.64 324.96,-25.57"/>
<polygon fill="#63b8ff" stroke="#63b8ff" points="326.74,-28.59 333.55,-20.47 323.17,-22.57 326.74,-28.59"/>
</a>
</g>
</g>
<!-- Node16 -->
<g id="Node000016" class="node">
<title>Node16</title>
<g id="a_Node000016"><a xlink:href="../../dc/d58/Position_8hpp.html" target="_top" xlink:title="Defines position utilities (for text in a file) for the parser, formatter, diagnostics.">
<polygon fill="white" stroke="#666666" points="122.74,-74.5 11.49,-74.5 11.49,-55.25 122.74,-55.25 122.74,-74.5"/>
<text text-anchor="middle" x="67.11" y="-61" font-family="Helvetica,sans-Serif" font-size="10.00">Ark/Utils/Position.hpp</text>
</a>
</g>
</g>
<!-- Node15&#45;&gt;Node16 -->
<g id="edge19_Node000015_Node000016" class="edge">
<title>Node15&#45;&gt;Node16</title>
<g id="a_edge19_Node000015_Node000016"><a xlink:title=" ">
<path fill="none" stroke="#63b8ff" d="M144.29,-115.81C129.99,-106.56 107.41,-91.95 90.36,-80.92"/>
<polygon fill="#63b8ff" stroke="#63b8ff" points="92.63,-78.22 82.33,-75.72 88.83,-84.09 92.63,-78.22"/>
</a>
</g>
</g>
<!-- Node16&#45;&gt;Node10 -->
<g id="edge20_Node000016_Node000010" class="edge">
<title>Node16&#45;&gt;Node10</title>
<g id="a_edge20_Node000016_Node000010"><a xlink:title=" ">
<path fill="none" stroke="#63b8ff" d="M60.18,-55.08C54.5,-47.88 46.28,-37.46 39.22,-28.51"/>
<polygon fill="#63b8ff" stroke="#63b8ff" points="42.08,-26.48 33.14,-20.8 36.58,-30.82 42.08,-26.48"/>
</a>
</g>
</g>
<!-- Node16&#45;&gt;Node14 -->
<g id="edge21_Node000016_Node000014" class="edge">
<title>Node16&#45;&gt;Node14</title>
<g id="a_edge21_Node000016_Node000014"><a xlink:title=" ">
<path fill="none" stroke="#63b8ff" d="M115.44,-54.78C163.98,-45.65 238.84,-31.56 290.91,-21.76"/>
<polygon fill="#63b8ff" stroke="#63b8ff" points="291.32,-25.25 300.5,-19.96 290.02,-18.37 291.32,-25.25"/>
</a>
</g>
</g>
<!-- Node17&#45;&gt;Node3 -->
<g id="edge25_Node000017_Node000003" class="edge">
<title>Node17&#45;&gt;Node3</title>
<g id="a_edge25_Node000017_Node000003"><a xlink:title=" ">
<path fill="none" stroke="#63b8ff" d="M865.3,-183.92C769.91,-179.97 559.46,-168.36 493.11,-141 473.09,-132.74 473.34,-122.2 455.11,-110.5 436.56,-98.59 414.41,-87.48 396.84,-79.32"/>
<polygon fill="#63b8ff" stroke="#63b8ff" points="398.5,-76.22 387.95,-75.26 395.6,-82.59 398.5,-76.22"/>
</a>
</g>
</g>
<!-- Node17&#45;&gt;Node4 -->
<g id="edge23_Node000017_Node000004" class="edge">
<title>Node17&#45;&gt;Node4</title>
<g id="a_edge23_Node000017_Node000004"><a xlink:title=" ">
<path fill="none" stroke="#63b8ff" d="M923.27,-176.67C943.75,-158.79 989.61,-119.56 1008.11,-110.5 1056.5,-86.8 1118.5,-75.05 1155.95,-69.74"/>
<polygon fill="#63b8ff" stroke="#63b8ff" points="1156.25,-73.23 1165.69,-68.43 1155.32,-66.29 1156.25,-73.23"/>
</a>
</g>
</g>
<!-- Node17&#45;&gt;Node12 -->
<g id="edge27_Node000017_Node000012" class="edge">
<title>Node17&#45;&gt;Node12</title>
<g id="a_edge27_Node000017_Node000012"><a xlink:title=" ">
<path fill="none" stroke="#63b8ff" d="M912.91,-176.9C912.15,-161.96 908.79,-131.1 894.11,-110.5 884.39,-96.84 869.05,-86.26 855.41,-78.83"/>
<polygon fill="#63b8ff" stroke="#63b8ff" points="857.28,-75.85 846.77,-74.45 854.11,-82.09 857.28,-75.85"/>
</a>
</g>
</g>
<!-- Node17&#45;&gt;Node14 -->
<g id="edge42_Node000017_Node000014" class="edge">
<title>Node17&#45;&gt;Node14</title>
<g id="a_edge42_Node000017_Node000014"><a xlink:title=" ">
<path fill="none" stroke="#63b8ff" d="M915.48,-176.83C918.91,-162.31 923.86,-132.72 914.11,-110.5 899.55,-77.3 887.27,-69.91 854.11,-55.25 777.82,-21.52 537.32,-13.28 418.26,-11.27"/>
<polygon fill="#63b8ff" stroke="#63b8ff" points="418.35,-7.77 408.29,-11.11 418.24,-14.77 418.35,-7.77"/>
</a>
</g>
</g>
<!-- Node18 -->
<g id="Node000018" class="node">
<title>Node18</title>
<g id="a_Node000018"><a xlink:title=" ">
<polygon fill="#e0e0e0" stroke="#999999" points="1062.74,-135.38 1017.49,-135.38 1017.49,-116.12 1062.74,-116.12 1062.74,-135.38"/>
<text text-anchor="middle" x="1040.11" y="-121.88" font-family="Helvetica,sans-Serif" font-size="10.00">variant</text>
</a>
</g>
</g>
<!-- Node17&#45;&gt;Node18 -->
<g id="edge24_Node000017_Node000018" class="edge">
<title>Node17&#45;&gt;Node18</title>
<g id="a_edge24_Node000017_Node000018"><a xlink:title=" ">
<path fill="none" stroke="#63b8ff" d="M932.68,-176.55C953.43,-166.93 986.48,-151.62 1010.44,-140.51"/>
<polygon fill="#63b8ff" stroke="#63b8ff" points="1011.76,-143.75 1019.36,-136.37 1008.82,-137.4 1011.76,-143.75"/>
</a>
</g>
</g>
<!-- Node19 -->
<g id="Node000019" class="node">
<title>Node19</title>
<g id="a_Node000019"><a xlink:title=" ">
<polygon fill="#e0e0e0" stroke="#999999" points="1491.99,-74.5 1436.24,-74.5 1436.24,-55.25 1491.99,-55.25 1491.99,-74.5"/>
<text text-anchor="middle" x="1464.11" y="-61" font-family="Helvetica,sans-Serif" font-size="10.00">cinttypes</text>
</a>
</g>
</g>
<!-- Node17&#45;&gt;Node19 -->
<g id="edge26_Node000017_Node000019" class="edge">
<title>Node17&#45;&gt;Node19</title>
<g id="a_edge26_Node000017_Node000019"><a xlink:title=" ">
<path fill="none" stroke="#63b8ff" d="M960.74,-178.02C963.57,-177.65 966.38,-177.31 969.11,-177 1024.13,-170.78 1428.4,-181.54 1466.11,-141 1479.7,-126.39 1476.34,-102.44 1471.44,-85.51"/>
<polygon fill="#63b8ff" stroke="#63b8ff" points="1474.78,-84.47 1468.29,-76.1 1468.14,-86.69 1474.78,-84.47"/>
</a>
</g>
</g>
<!-- Node20 -->
<g id="Node000020" class="node">
<title>Node20</title>
<g id="a_Node000020"><a xlink:title=" ">
<polygon fill="#e0e0e0" stroke="#999999" points="640.74,-74.5 589.49,-74.5 589.49,-55.25 640.74,-55.25 640.74,-74.5"/>
<text text-anchor="middle" x="615.11" y="-61" font-family="Helvetica,sans-Serif" font-size="10.00">memory</text>
</a>
</g>
</g>
<!-- Node17&#45;&gt;Node20 -->
<g id="edge28_Node000017_Node000020" class="edge">
<title>Node17&#45;&gt;Node20</title>
<g id="a_edge28_Node000017_Node000020"><a xlink:title=" ">
<path fill="none" stroke="#63b8ff" d="M865.37,-185.19C816.39,-182.82 739.47,-173.59 682.11,-141 658.08,-127.35 638.17,-101.88 626.46,-84.42"/>
<polygon fill="#63b8ff" stroke="#63b8ff" points="629.42,-82.56 621.08,-76.03 623.53,-86.34 629.42,-82.56"/>
</a>
</g>
</g>
<!-- Node21 -->
<g id="Node000021" class="node">
<title>Node21</title>
<g id="a_Node000021"><a xlink:title=" ">
<polygon fill="#e0e0e0" stroke="#999999" points="884.99,-135.38 823.24,-135.38 823.24,-116.12 884.99,-116.12 884.99,-135.38"/>
<text text-anchor="middle" x="854.11" y="-121.88" font-family="Helvetica,sans-Serif" font-size="10.00">type_traits</text>
</a>
</g>
</g>
<!-- Node17&#45;&gt;Node21 -->
<g id="edge29_Node000017_Node000021" class="edge">
<title>Node17&#45;&gt;Node21</title>
<g id="a_edge29_Node000017_Node000021"><a xlink:title=" ">
<path fill="none" stroke="#63b8ff" d="M904.15,-176.68C895.4,-167.95 881.87,-154.44 871.08,-143.68"/>
<polygon fill="#63b8ff" stroke="#63b8ff" points="873.78,-141.43 864.23,-136.85 868.84,-146.39 873.78,-141.43"/>
</a>
</g>
</g>
<!-- Node22 -->
<g id="Node000022" class="node">
<title>Node22</title>
<g id="a_Node000022"><a xlink:href="../../dc/dd5/Closure_8hpp.html" target="_top" xlink:title="Subtype of the value type, handling closures.">
<polygon fill="white" stroke="#666666" points="633.86,-135.38 502.36,-135.38 502.36,-116.12 633.86,-116.12 633.86,-135.38"/>
<text text-anchor="middle" x="568.11" y="-121.88" font-family="Helvetica,sans-Serif" font-size="10.00">Ark/VM/Value/Closure.hpp</text>
</a>
</g>
</g>
<!-- Node17&#45;&gt;Node22 -->
<g id="edge30_Node000017_Node000022" class="edge">
<title>Node17&#45;&gt;Node22</title>
<g id="a_edge30_Node000017_Node000022"><a xlink:title=" ">
<path fill="none" stroke="#63b8ff" d="M865.7,-177.78C812.66,-168.97 724.19,-154.18 648.11,-141 642.21,-139.98 636.05,-138.9 629.9,-137.82"/>
<polygon fill="#63b8ff" stroke="#63b8ff" points="630.83,-134.43 620.38,-136.13 629.61,-141.32 630.83,-134.43"/>
</a>
</g>
</g>
<!-- Node23 -->
<g id="Node000023" class="node">
<title>Node23</title>
<g id="a_Node000023"><a xlink:href="../../dc/d3d/UserType_8hpp.html" target="_top" xlink:title="Subtype of the value, capable of handling any C++ type.">
<polygon fill="white" stroke="#666666" points="1456.99,-135.38 1317.24,-135.38 1317.24,-116.12 1456.99,-116.12 1456.99,-135.38"/>
<text text-anchor="middle" x="1387.11" y="-121.88" font-family="Helvetica,sans-Serif" font-size="10.00">Ark/VM/Value/UserType.hpp</text>
</a>
</g>
</g>
<!-- Node17&#45;&gt;Node23 -->
<g id="edge34_Node000017_Node000023" class="edge">
<title>Node17&#45;&gt;Node23</title>
<g id="a_edge34_Node000017_Node000023"><a xlink:title=" ">
<path fill="none" stroke="#63b8ff" d="M960.76,-178.18C963.58,-177.77 966.38,-177.37 969.11,-177 1102.6,-158.74 1136.35,-157.14 1270.11,-141 1281.58,-139.62 1293.68,-138.15 1305.58,-136.7"/>
<polygon fill="#63b8ff" stroke="#63b8ff" points="1305.89,-140.19 1315.39,-135.51 1305.04,-133.24 1305.89,-140.19"/>
</a>
</g>
</g>
<!-- Node26 -->
<g id="Node000026" class="node">
<title>Node26</title>
<g id="a_Node000026"><a xlink:href="../../da/dcf/Procedure_8hpp.html" target="_top" xlink:title="Wrapper object for user&#45;defined functions.">
<polygon fill="white" stroke="#666666" points="1261.11,-135.38 1119.11,-135.38 1119.11,-116.12 1261.11,-116.12 1261.11,-135.38"/>
<text text-anchor="middle" x="1190.11" y="-121.88" font-family="Helvetica,sans-Serif" font-size="10.00">Ark/VM/Value/Procedure.hpp</text>
</a>
</g>
</g>
<!-- Node17&#45;&gt;Node26 -->
<g id="edge39_Node000017_Node000026" class="edge">
<title>Node17&#45;&gt;Node26</title>
<g id="a_edge39_Node000017_Node000026"><a xlink:title=" ">
<path fill="none" stroke="#63b8ff" d="M955.79,-176.55C1004.28,-166.25 1083.52,-149.41 1136.24,-138.2"/>
<polygon fill="#63b8ff" stroke="#63b8ff" points="1136.86,-141.65 1145.91,-136.15 1135.4,-134.8 1136.86,-141.65"/>
</a>
</g>
</g>
<!-- Node22&#45;&gt;Node3 -->
<g id="edge32_Node000022_Node000003" class="edge">
<title>Node22&#45;&gt;Node3</title>
<g id="a_edge32_Node000022_Node000003"><a xlink:title=" ">
<path fill="none" stroke="#63b8ff" d="M536.99,-115.68C499.08,-104.63 435.41,-86.07 397.41,-75"/>
<polygon fill="#63b8ff" stroke="#63b8ff" points="398.54,-71.68 387.96,-72.24 396.58,-78.4 398.54,-71.68"/>
</a>
</g>
</g>
<!-- Node22&#45;&gt;Node14 -->
<g id="edge33_Node000022_Node000014" class="edge">
<title>Node22&#45;&gt;Node14</title>
<g id="a_edge33_Node000022_Node000014"><a xlink:title=" ">
<path fill="none" stroke="#63b8ff" d="M551.01,-115.79C513.37,-96.09 423.12,-48.85 377.5,-24.96"/>
<polygon fill="#63b8ff" stroke="#63b8ff" points="379.26,-21.94 368.78,-20.4 376.02,-28.14 379.26,-21.94"/>
</a>
</g>
</g>
<!-- Node22&#45;&gt;Node20 -->
<g id="edge31_Node000022_Node000020" class="edge">
<title>Node22&#45;&gt;Node20</title>
<g id="a_edge31_Node000022_Node000020"><a xlink:title=" ">
<path fill="none" stroke="#63b8ff" d="M575.25,-115.81C582.01,-107.34 592.37,-94.37 600.83,-83.77"/>
<polygon fill="#63b8ff" stroke="#63b8ff" points="603.46,-86.08 606.96,-76.08 597.99,-81.72 603.46,-86.08"/>
</a>
</g>
</g>
<!-- Node23&#45;&gt;Node14 -->
<g id="edge38_Node000023_Node000014" class="edge">
<title>Node23&#45;&gt;Node14</title>
<g id="a_edge38_Node000023_Node000014"><a xlink:title=" ">
<path fill="none" stroke="#63b8ff" d="M1387.69,-115.75C1388.12,-100.53 1386.49,-69.92 1368.11,-55.25 1331.02,-25.63 640.37,-14.31 418.28,-11.42"/>
<polygon fill="#63b8ff" stroke="#63b8ff" points="418.37,-7.92 408.33,-11.3 418.28,-14.92 418.37,-7.92"/>
</a>
</g>
</g>
<!-- Node23&#45;&gt;Node19 -->
<g id="edge36_Node000023_Node000019" class="edge">
<title>Node23&#45;&gt;Node19</title>
<g id="a_edge36_Node000023_Node000019"><a xlink:title=" ">
<path fill="none" stroke="#63b8ff" d="M1398.81,-115.81C1410.57,-106.82 1428.95,-92.76 1443.22,-81.85"/>
<polygon fill="#63b8ff" stroke="#63b8ff" points="1445.29,-84.67 1451.11,-75.82 1441.04,-79.11 1445.29,-84.67"/>
</a>
</g>
</g>
<!-- Node24 -->
<g id="Node000024" class="node">
<title>Node24</title>
<g id="a_Node000024"><a xlink:title=" ">
<polygon fill="#e0e0e0" stroke="#999999" points="1358.86,-74.5 1305.36,-74.5 1305.36,-55.25 1358.86,-55.25 1358.86,-74.5"/>
<text text-anchor="middle" x="1332.11" y="-61" font-family="Helvetica,sans-Serif" font-size="10.00">iostream</text>
</a>
</g>
</g>
<!-- Node23&#45;&gt;Node24 -->
<g id="edge35_Node000023_Node000024" class="edge">
<title>Node23&#45;&gt;Node24</title>
<g id="a_edge35_Node000023_Node000024"><a xlink:title=" ">
<path fill="none" stroke="#63b8ff" d="M1378.76,-115.81C1370.68,-107.16 1358.23,-93.84 1348.23,-83.12"/>
<polygon fill="#63b8ff" stroke="#63b8ff" points="1350.96,-80.93 1341.58,-76.01 1345.85,-85.7 1350.96,-80.93"/>
</a>
</g>
</g>
<!-- Node25 -->
<g id="Node000025" class="node">
<title>Node25</title>
<g id="a_Node000025"><a xlink:title=" ">
<polygon fill="#e0e0e0" stroke="#999999" points="1287.11,-74.5 1229.11,-74.5 1229.11,-55.25 1287.11,-55.25 1287.11,-74.5"/>
<text text-anchor="middle" x="1258.11" y="-61" font-family="Helvetica,sans-Serif" font-size="10.00">functional</text>
</a>
</g>
</g>
<!-- Node23&#45;&gt;Node25 -->
<g id="edge37_Node000023_Node000025" class="edge">
<title>Node23&#45;&gt;Node25</title>
<g id="a_edge37_Node000023_Node000025"><a xlink:title=" ">
<path fill="none" stroke="#63b8ff" d="M1367.24,-115.68C1346.16,-106.06 1312.6,-90.74 1288.25,-79.63"/>
<polygon fill="#63b8ff" stroke="#63b8ff" points="1289.72,-76.46 1279.17,-75.49 1286.82,-82.82 1289.72,-76.46"/>
</a>
</g>
</g>
<!-- Node26&#45;&gt;Node4 -->
<g id="edge41_Node000026_Node000004" class="edge">
<title>Node26&#45;&gt;Node4</title>
<g id="a_edge41_Node000026_Node000004"><a xlink:title=" ">
<path fill="none" stroke="#63b8ff" d="M1189.96,-115.81C1189.83,-108.03 1189.63,-96.45 1189.46,-86.41"/>
<polygon fill="#63b8ff" stroke="#63b8ff" points="1192.96,-86.35 1189.29,-76.41 1185.96,-86.47 1192.96,-86.35"/>
</a>
</g>
</g>
<!-- Node26&#45;&gt;Node25 -->
<g id="edge40_Node000026_Node000025" class="edge">
<title>Node26&#45;&gt;Node25</title>
<g id="a_edge40_Node000026_Node000025"><a xlink:title=" ">
<path fill="none" stroke="#63b8ff" d="M1200.44,-115.81C1210.73,-106.9 1226.75,-93.03 1239.3,-82.17"/>
<polygon fill="#63b8ff" stroke="#63b8ff" points="1241.27,-85.08 1246.54,-75.89 1236.69,-79.79 1241.27,-85.08"/>
</a>
</g>
</g>
</g>
</svg>

<g id="navigator" transform="translate(0 0)" fill="#404254">
  <rect fill="#f2f5e9" fill-opacity="0.5" stroke="#606060" stroke-width=".5" x="0" y="0" width="60" height="60"/>
  <use id="zoomplus" xlink:href="#zoomPlus" x="17" y="9" onmousedown="handleZoom(evt,'in')"/>
  <use id="zoomminus" xlink:href="#zoomMin" x="42" y="9" onmousedown="handleZoom(evt,'out')"/>
  <use id="reset" xlink:href="#resetDef" x="30" y="36" onmousedown="handleReset()"/>
   <use id="arrowup" xlink:href="#arrowUp" x="0" y="0" onmousedown="handlePan(0,-1)"/>
  <use id="arrowright" xlink:href="#arrowRight" x="0" y="0" onmousedown="handlePan(1,0)"/>
  <use id="arrowdown" xlink:href="#arrowDown" x="0" y="0" onmousedown="handlePan(0,1)"/>
  <use id="arrowleft" xlink:href="#arrowLeft" x="0" y="0" onmousedown="handlePan(-1,0)"/>
</g>
<svg viewBox="0 0 15 15" width="100%" height="30px" preserveAspectRatio="xMaxYMin meet">
 <g id="arrow_out" transform="scale(0.3 0.3)">
  <a xlink:href="TypeChecker_8cpp__incl_org.svg" target="_base">
   <rect id="button" ry="5" rx="5" y="6" x="6" height="38" width="38"
        fill="#f2f5e9" fill-opacity="0.5" stroke="#606060" stroke-width="1.0"/>
   <path id="arrow"
     d="M 11.500037,31.436501 C 11.940474,20.09759 22.043105,11.32322 32.158766,21.979434 L 37.068811,17.246167 C 37.068811,17.246167 37.088388,32 37.088388,32 L 22.160133,31.978069 C 22.160133,31.978069 26.997745,27.140456 26.997745,27.140456 C 18.528582,18.264221 13.291696,25.230495 11.500037,31.436501 z"
     style="fill:#404040;"/>
  </a>
 </g>
</svg>

<style type='text/css'>
<![CDATA[
[data-mouse-over-selected='false'] { opacity: 0.7; }
[data-mouse-over-selected='true']  { opacity: 1.0; }
]]>
</style>
<script type="application/ecmascript"><![CDATA[
document.addEventListener('DOMContentLoaded', (event) => {
  highlightEdges();
  highlightAdjacentNodes();
});
]]></script>
</svg>
