<?xml version="1.0" encoding="UTF-8" standalone="no"?>
<!DOCTYPE svg PUBLIC "-//W3C//DTD SVG 1.1//EN"
 "http://www.w3.org/Graphics/SVG/1.1/DTD/svg11.dtd">
<!-- Generated by graphviz version 12.2.0 (20241103.1931)
 -->
<!-- Title: /Users/fola/Documents/ArkScript/Ark/src/arkreactor/TypeChecker.cpp Pages: 1 -->
<svg width="1786pt" height="282pt"
 viewBox="0.00 0.00 1786.38 282.00" xmlns="http://www.w3.org/2000/svg" xmlns:xlink="http://www.w3.org/1999/xlink">
<g id="graph0" class="graph" transform="scale(1 1) rotate(0) translate(4 278)">
<title>/Users/fola/Documents/ArkScript/Ark/src/arkreactor/TypeChecker.cpp</title>
<!-- Node1 -->
<g id="Node000001" class="node">
<title>Node1</title>
<g id="a_Node000001"><a xlink:title=" ">
<polygon fill="#999999" stroke="#666666" points="1566.25,-274 1425.75,-274 1425.75,-232.25 1566.25,-232.25 1566.25,-274"/>
<text text-anchor="start" x="1433.75" y="-260.5" font-family="Helvetica,sans-Serif" font-size="10.00">/Users/fola/Documents</text>
<text text-anchor="start" x="1433.75" y="-249.25" font-family="Helvetica,sans-Serif" font-size="10.00">/ArkScript/Ark/src/arkreactor</text>
<text text-anchor="middle" x="1496" y="-238" font-family="Helvetica,sans-Serif" font-size="10.00">/TypeChecker.cpp</text>
</a>
</g>
</g>
<!-- Node2 -->
<g id="Node000002" class="node">
<title>Node2</title>
<g id="a_Node000002"><a xlink:href="../../db/d5e/TypeChecker_8hpp.html" target="_top" xlink:title=" ">
<polygon fill="white" stroke="#666666" points="1002.88,-196.25 893.12,-196.25 893.12,-177 1002.88,-177 1002.88,-196.25"/>
<text text-anchor="middle" x="948" y="-182.75" font-family="Helvetica,sans-Serif" font-size="10.00">Ark/TypeChecker.hpp</text>
</a>
</g>
</g>
<!-- Node1&#45;&gt;Node2 -->
<g id="edge1_Node000001_Node000002" class="edge">
<title>Node1&#45;&gt;Node2</title>
<g id="a_edge1_Node000001_Node000002"><a xlink:title=" ">
<path fill="none" stroke="#63b8ff" d="M1425.48,-243.82C1319.04,-231.3 1118.76,-207.72 1014.65,-195.47"/>
<polygon fill="#63b8ff" stroke="#63b8ff" points="1015.2,-192.01 1004.86,-194.32 1014.38,-198.96 1015.2,-192.01"/>
</a>
</g>
</g>
<!-- Node14 -->
<g id="Node000014" class="node">
<title>Node14</title>
<g id="a_Node000014"><a xlink:title=" ">
<polygon fill="#e0e0e0" stroke="#999999" points="1305.62,-19.25 1266.38,-19.25 1266.38,0 1305.62,0 1305.62,-19.25"/>
<text text-anchor="middle" x="1286" y="-5.75" font-family="Helvetica,sans-Serif" font-size="10.00">limits</text>
</a>
</g>
</g>
<!-- Node1&#45;&gt;Node14 -->
<g id="edge38_Node000001_Node000014" class="edge">
<title>Node1&#45;&gt;Node14</title>
<g id="a_edge38_Node000001_Node000014"><a xlink:title=" ">
<path fill="none" stroke="#63b8ff" d="M1432.02,-231.87C1413.96,-223.4 1395.78,-211.81 1383,-196.25 1341.82,-146.09 1381.28,-109.06 1345,-55.25 1336.89,-43.23 1324.46,-33.13 1313.09,-25.59"/>
<polygon fill="#63b8ff" stroke="#63b8ff" points="1315.14,-22.75 1304.8,-20.45 1311.45,-28.69 1315.14,-22.75"/>
</a>
</g>
</g>
<!-- Node24 -->
<g id="Node000024" class="node">
<title>Node24</title>
<g id="a_Node000024"><a xlink:title=" ">
<polygon fill="#e0e0e0" stroke="#999999" points="1447.88,-196.25 1392.12,-196.25 1392.12,-177 1447.88,-177 1447.88,-196.25"/>
<text text-anchor="middle" x="1420" y="-182.75" font-family="Helvetica,sans-Serif" font-size="10.00">algorithm</text>
</a>
</g>
</g>
<!-- Node1&#45;&gt;Node24 -->
<g id="edge39_Node000001_Node000024" class="edge">
<title>Node1&#45;&gt;Node24</title>
<g id="a_edge39_Node000001_Node000024"><a xlink:title=" ">
<path fill="none" stroke="#63b8ff" d="M1472.37,-232.07C1461.69,-223.01 1449.24,-212.44 1439.16,-203.89"/>
<polygon fill="#63b8ff" stroke="#63b8ff" points="1441.73,-201.48 1431.84,-197.67 1437.2,-206.81 1441.73,-201.48"/>
</a>
</g>
</g>
<!-- Node25 -->
<g id="Node000025" class="node">
<title>Node25</title>
<g id="a_Node000025"><a xlink:title=" ">
<polygon fill="#e0e0e0" stroke="#999999" points="1526.12,-196.25 1465.88,-196.25 1465.88,-177 1526.12,-177 1526.12,-196.25"/>
<text text-anchor="middle" x="1496" y="-182.75" font-family="Helvetica,sans-Serif" font-size="10.00">fmt/core.h</text>
</a>
</g>
</g>
<!-- Node1&#45;&gt;Node25 -->
<g id="edge40_Node000001_Node000025" class="edge">
<title>Node1&#45;&gt;Node25</title>
<g id="a_edge40_Node000001_Node000025"><a xlink:title=" ">
<path fill="none" stroke="#63b8ff" d="M1496,-232.07C1496,-224.4 1496,-215.64 1496,-207.95"/>
<polygon fill="#63b8ff" stroke="#63b8ff" points="1499.5,-208.21 1496,-198.21 1492.5,-208.21 1499.5,-208.21"/>
</a>
</g>
</g>
<!-- Node26 -->
<g id="Node000026" class="node">
<title>Node26</title>
<g id="a_Node000026"><a xlink:title=" ">
<polygon fill="#e0e0e0" stroke="#999999" points="1604.12,-196.25 1543.88,-196.25 1543.88,-177 1604.12,-177 1604.12,-196.25"/>
<text text-anchor="middle" x="1574" y="-182.75" font-family="Helvetica,sans-Serif" font-size="10.00">fmt/args.h</text>
</a>
</g>
</g>
<!-- Node1&#45;&gt;Node26 -->
<g id="edge41_Node000001_Node000026" class="edge">
<title>Node1&#45;&gt;Node26</title>
<g id="a_edge41_Node000001_Node000026"><a xlink:title=" ">
<path fill="none" stroke="#63b8ff" d="M1520.25,-232.07C1531.21,-223.01 1543.99,-212.44 1554.33,-203.89"/>
<polygon fill="#63b8ff" stroke="#63b8ff" points="1556.39,-206.73 1561.86,-197.66 1551.93,-201.34 1556.39,-206.73"/>
</a>
</g>
</g>
<!-- Node27 -->
<g id="Node000027" class="node">
<title>Node27</title>
<g id="a_Node000027"><a xlink:title=" ">
<polygon fill="#e0e0e0" stroke="#999999" points="1683.88,-196.25 1622.12,-196.25 1622.12,-177 1683.88,-177 1683.88,-196.25"/>
<text text-anchor="middle" x="1653" y="-182.75" font-family="Helvetica,sans-Serif" font-size="10.00">fmt/color.h</text>
</a>
</g>
</g>
<!-- Node1&#45;&gt;Node27 -->
<g id="edge42_Node000001_Node000027" class="edge">
<title>Node1&#45;&gt;Node27</title>
<g id="a_edge42_Node000001_Node000027"><a xlink:title=" ">
<path fill="none" stroke="#63b8ff" d="M1545.25,-231.89C1569.75,-221.83 1598.69,-209.94 1620.41,-201.01"/>
<polygon fill="#63b8ff" stroke="#63b8ff" points="1621.73,-204.26 1629.65,-197.22 1619.07,-197.78 1621.73,-204.26"/>
</a>
</g>
</g>
<!-- Node28 -->
<g id="Node000028" class="node">
<title>Node28</title>
<g id="a_Node000028"><a xlink:title=" ">
<polygon fill="#e0e0e0" stroke="#999999" points="1778.38,-196.25 1701.62,-196.25 1701.62,-177 1778.38,-177 1778.38,-196.25"/>
<text text-anchor="middle" x="1740" y="-182.75" font-family="Helvetica,sans-Serif" font-size="10.00">fmt/ostream.h</text>
</a>
</g>
</g>
<!-- Node1&#45;&gt;Node28 -->
<g id="edge43_Node000001_Node000028" class="edge">
<title>Node1&#45;&gt;Node28</title>
<g id="a_edge43_Node000001_Node000028"><a xlink:title=" ">
<path fill="none" stroke="#63b8ff" d="M1566.57,-233.47C1607.85,-222.56 1658.74,-209.11 1694.69,-199.6"/>
<polygon fill="#63b8ff" stroke="#63b8ff" points="1695.57,-202.99 1704.34,-197.05 1693.78,-196.22 1695.57,-202.99"/>
</a>
</g>
</g>
<!-- Node3 -->
<g id="Node000003" class="node">
<title>Node3</title>
<g id="a_Node000003"><a xlink:title=" ">
<polygon fill="#e0e0e0" stroke="#999999" points="866,-19.25 826,-19.25 826,0 866,0 866,-19.25"/>
<text text-anchor="middle" x="846" y="-5.75" font-family="Helvetica,sans-Serif" font-size="10.00">string</text>
</a>
</g>
</g>
<!-- Node2&#45;&gt;Node3 -->
<g id="edge2_Node000002_Node000003" class="edge">
<title>Node2&#45;&gt;Node3</title>
<g id="a_edge2_Node000002_Node000003"><a xlink:title=" ">
<path fill="none" stroke="#63b8ff" d="M930.4,-176.52C917,-168.76 899.04,-156.41 888,-141 863.62,-106.95 852.9,-58.05 848.59,-30.84"/>
<polygon fill="#63b8ff" stroke="#63b8ff" points="852.09,-30.6 847.21,-21.19 845.17,-31.59 852.09,-30.6"/>
</a>
</g>
</g>
<!-- Node4 -->
<g id="Node000004" class="node">
<title>Node4</title>
<g id="a_Node000004"><a xlink:title=" ">
<polygon fill="#e0e0e0" stroke="#999999" points="210.5,-19.25 167.5,-19.25 167.5,0 210.5,0 210.5,-19.25"/>
<text text-anchor="middle" x="189" y="-5.75" font-family="Helvetica,sans-Serif" font-size="10.00">vector</text>
</a>
</g>
</g>
<!-- Node2&#45;&gt;Node4 -->
<g id="edge3_Node000002_Node000004" class="edge">
<title>Node2&#45;&gt;Node4</title>
<g id="a_edge3_Node000002_Node000004"><a xlink:title=" ">
<path fill="none" stroke="#63b8ff" d="M892.87,-182.23C727.92,-171.54 246.67,-136.26 199,-85.75 185.33,-71.26 184.33,-47.63 185.8,-30.74"/>
<polygon fill="#63b8ff" stroke="#63b8ff" points="189.26,-31.27 187.04,-20.91 182.31,-30.39 189.26,-31.27"/>
</a>
</g>
</g>
<!-- Node5 -->
<g id="Node000005" class="node">
<title>Node5</title>
<g id="a_Node000005"><a xlink:title=" ">
<polygon fill="#e0e0e0" stroke="#999999" points="1335.62,-80.12 1284.38,-80.12 1284.38,-60.88 1335.62,-60.88 1335.62,-80.12"/>
<text text-anchor="middle" x="1310" y="-66.62" font-family="Helvetica,sans-Serif" font-size="10.00">ostream</text>
</a>
</g>
</g>
<!-- Node2&#45;&gt;Node5 -->
<g id="edge4_Node000002_Node000005" class="edge">
<title>Node2&#45;&gt;Node5</title>
<g id="a_edge4_Node000002_Node000005"><a xlink:title=" ">
<path fill="none" stroke="#63b8ff" d="M960.24,-176.71C982.25,-160.84 1027.89,-128.7 1046,-121.75 1142.6,-84.68 1176.45,-113.95 1276,-85.75 1277.35,-85.37 1278.72,-84.95 1280.09,-84.49"/>
<polygon fill="#63b8ff" stroke="#63b8ff" points="1280.94,-87.91 1289.09,-81.14 1278.5,-81.35 1280.94,-87.91"/>
</a>
</g>
</g>
<!-- Node6 -->
<g id="Node000006" class="node">
<title>Node6</title>
<g id="a_Node000006"><a xlink:title=" ">
<polygon fill="#e0e0e0" stroke="#999999" points="1106.62,-141 1055.38,-141 1055.38,-121.75 1106.62,-121.75 1106.62,-141"/>
<text text-anchor="middle" x="1081" y="-127.5" font-family="Helvetica,sans-Serif" font-size="10.00">sstream</text>
</a>
</g>
</g>
<!-- Node2&#45;&gt;Node6 -->
<g id="edge5_Node000002_Node000006" class="edge">
<title>Node2&#45;&gt;Node6</title>
<g id="a_edge5_Node000002_Node000006"><a xlink:title=" ">
<path fill="none" stroke="#63b8ff" d="M970.56,-176.59C991.77,-168.1 1023.77,-155.29 1047.88,-145.64"/>
<polygon fill="#63b8ff" stroke="#63b8ff" points="1048.94,-148.98 1056.92,-142.02 1046.34,-142.48 1048.94,-148.98"/>
</a>
</g>
</g>
<!-- Node7 -->
<g id="Node000007" class="node">
<title>Node7</title>
<g id="a_Node000007"><a xlink:href="../../d2/de9/Exceptions_8hpp.html" target="_top" xlink:title="ArkScript homemade exceptions.">
<polygon fill="white" stroke="#666666" points="998.75,-141 897.25,-141 897.25,-121.75 998.75,-121.75 998.75,-141"/>
<text text-anchor="middle" x="948" y="-127.5" font-family="Helvetica,sans-Serif" font-size="10.00">Ark/Exceptions.hpp</text>
</a>
</g>
</g>
<!-- Node2&#45;&gt;Node7 -->
<g id="edge6_Node000002_Node000007" class="edge">
<title>Node2&#45;&gt;Node7</title>
<g id="a_edge6_Node000002_Node000007"><a xlink:title=" ">
<path fill="none" stroke="#63b8ff" d="M948,-176.83C948,-170.32 948,-161.17 948,-152.87"/>
<polygon fill="#63b8ff" stroke="#63b8ff" points="951.5,-152.87 948,-142.87 944.5,-152.87 951.5,-152.87"/>
</a>
</g>
</g>
<!-- Node16 -->
<g id="Node000016" class="node">
<title>Node16</title>
<g id="a_Node000016"><a xlink:href="../../de/dfd/Value_8hpp.html" target="_top" xlink:title="Default value type handled by the virtual machine.">
<polygon fill="white" stroke="#666666" points="589.38,-141 494.62,-141 494.62,-121.75 589.38,-121.75 589.38,-141"/>
<text text-anchor="middle" x="542" y="-127.5" font-family="Helvetica,sans-Serif" font-size="10.00">Ark/VM/Value.hpp</text>
</a>
</g>
</g>
<!-- Node2&#45;&gt;Node16 -->
<g id="edge19_Node000002_Node000016" class="edge">
<title>Node2&#45;&gt;Node16</title>
<g id="a_edge19_Node000002_Node000016"><a xlink:title=" ">
<path fill="none" stroke="#63b8ff" d="M892.82,-178.39C816.47,-168.37 679.17,-150.37 600.89,-140.1"/>
<polygon fill="#63b8ff" stroke="#63b8ff" points="601.65,-136.67 591.28,-138.84 600.74,-143.61 601.65,-136.67"/>
</a>
</g>
</g>
<!-- Node7&#45;&gt;Node3 -->
<g id="edge7_Node000007_Node000003" class="edge">
<title>Node7&#45;&gt;Node3</title>
<g id="a_edge7_Node000007_Node000003"><a xlink:title=" ">
<path fill="none" stroke="#63b8ff" d="M940.33,-121.37C923.5,-101.61 883.04,-54.12 860.98,-28.21"/>
<polygon fill="#63b8ff" stroke="#63b8ff" points="863.89,-26.23 854.74,-20.88 858.56,-30.76 863.89,-26.23"/>
</a>
</g>
</g>
<!-- Node7&#45;&gt;Node4 -->
<g id="edge9_Node000007_Node000004" class="edge">
<title>Node7&#45;&gt;Node4</title>
<g id="a_edge9_Node000007_Node000004"><a xlink:title=" ">
<path fill="none" stroke="#63b8ff" d="M896.89,-128.56C774.41,-123.87 466.91,-109.99 367,-85.75 359.44,-83.92 269.4,-45.31 220.37,-24.17"/>
<polygon fill="#63b8ff" stroke="#63b8ff" points="221.95,-21.05 211.39,-20.3 219.18,-27.47 221.95,-21.05"/>
</a>
</g>
</g>
<!-- Node7&#45;&gt;Node5 -->
<g id="edge12_Node000007_Node000005" class="edge">
<title>Node7&#45;&gt;Node5</title>
<g id="a_edge12_Node000007_Node000005"><a xlink:title=" ">
<path fill="none" stroke="#63b8ff" d="M999.06,-123.6C1089.59,-111.57 1269.37,-87.56 1276,-85.75 1277.39,-85.37 1278.8,-84.95 1280.21,-84.49"/>
<polygon fill="#63b8ff" stroke="#63b8ff" points="1281.31,-87.82 1289.47,-81.06 1278.88,-81.25 1281.31,-87.82"/>
</a>
</g>
</g>
<!-- Node8 -->
<g id="Node000008" class="node">
<title>Node8</title>
<g id="a_Node000008"><a xlink:title=" ">
<polygon fill="#e0e0e0" stroke="#999999" points="989.62,-80.12 950.38,-80.12 950.38,-60.88 989.62,-60.88 989.62,-80.12"/>
<text text-anchor="middle" x="970" y="-66.62" font-family="Helvetica,sans-Serif" font-size="10.00">utility</text>
</a>
</g>
</g>
<!-- Node7&#45;&gt;Node8 -->
<g id="edge8_Node000007_Node000008" class="edge">
<title>Node7&#45;&gt;Node8</title>
<g id="a_edge8_Node000007_Node000008"><a xlink:title=" ">
<path fill="none" stroke="#63b8ff" d="M951.34,-121.43C954.35,-113.39 958.86,-101.3 962.7,-91.03"/>
<polygon fill="#63b8ff" stroke="#63b8ff" points="965.88,-92.54 966.1,-81.94 959.32,-90.09 965.88,-92.54"/>
</a>
</g>
</g>
<!-- Node9 -->
<g id="Node000009" class="node">
<title>Node9</title>
<g id="a_Node000009"><a xlink:title=" ">
<polygon fill="#e0e0e0" stroke="#999999" points="1066.38,-80.12 1007.62,-80.12 1007.62,-60.88 1066.38,-60.88 1066.38,-80.12"/>
<text text-anchor="middle" x="1037" y="-66.62" font-family="Helvetica,sans-Serif" font-size="10.00">stdexcept</text>
</a>
</g>
</g>
<!-- Node7&#45;&gt;Node9 -->
<g id="edge10_Node000007_Node000009" class="edge">
<title>Node7&#45;&gt;Node9</title>
<g id="a_edge10_Node000007_Node000009"><a xlink:title=" ">
<path fill="none" stroke="#63b8ff" d="M961.52,-121.43C975.37,-112.27 997.18,-97.84 1013.8,-86.85"/>
<polygon fill="#63b8ff" stroke="#63b8ff" points="1015.68,-89.8 1022.09,-81.36 1011.82,-83.96 1015.68,-89.8"/>
</a>
</g>
</g>
<!-- Node10 -->
<g id="Node000010" class="node">
<title>Node10</title>
<g id="a_Node000010"><a xlink:title=" ">
<polygon fill="#e0e0e0" stroke="#999999" points="1133.88,-80.12 1084.12,-80.12 1084.12,-60.88 1133.88,-60.88 1133.88,-80.12"/>
<text text-anchor="middle" x="1109" y="-66.62" font-family="Helvetica,sans-Serif" font-size="10.00">optional</text>
</a>
</g>
</g>
<!-- Node7&#45;&gt;Node10 -->
<g id="edge11_Node000007_Node000010" class="edge">
<title>Node7&#45;&gt;Node10</title>
<g id="a_edge11_Node000007_Node000010"><a xlink:title=" ">
<path fill="none" stroke="#63b8ff" d="M975.42,-121.26C1001.26,-112.55 1040.98,-98.84 1075,-85.75 1075.78,-85.45 1076.58,-85.14 1077.38,-84.83"/>
<polygon fill="#63b8ff" stroke="#63b8ff" points="1078.5,-88.15 1086.45,-81.16 1075.87,-81.66 1078.5,-88.15"/>
</a>
</g>
</g>
<!-- Node11 -->
<g id="Node000011" class="node">
<title>Node11</title>
<g id="a_Node000011"><a xlink:title=" ">
<polygon fill="#e0e0e0" stroke="#999999" points="570.75,-19.25 517.25,-19.25 517.25,0 570.75,0 570.75,-19.25"/>
<text text-anchor="middle" x="544" y="-5.75" font-family="Helvetica,sans-Serif" font-size="10.00">iostream</text>
</a>
</g>
</g>
<!-- Node7&#45;&gt;Node11 -->
<g id="edge13_Node000007_Node000011" class="edge">
<title>Node7&#45;&gt;Node11</title>
<g id="a_edge13_Node000007_Node000011"><a xlink:title=" ">
<path fill="none" stroke="#63b8ff" d="M897.04,-127.66C798.14,-121.94 587.68,-107.36 563,-85.75 547.6,-72.26 543.79,-48.27 543.24,-31.03"/>
<polygon fill="#63b8ff" stroke="#63b8ff" points="546.74,-31.2 543.29,-21.19 539.74,-31.17 546.74,-31.2"/>
</a>
</g>
</g>
<!-- Node12 -->
<g id="Node000012" class="node">
<title>Node12</title>
<g id="a_Node000012"><a xlink:href="../../db/d4e/utf8__char_8hpp.html" target="_top" xlink:title=" ">
<polygon fill="white" stroke="#666666" points="1266.5,-85.75 1151.5,-85.75 1151.5,-55.25 1266.5,-55.25 1266.5,-85.75"/>
<text text-anchor="start" x="1159.5" y="-72.25" font-family="Helvetica,sans-Serif" font-size="10.00">Ark/Compiler/AST/utf8</text>
<text text-anchor="middle" x="1209" y="-61" font-family="Helvetica,sans-Serif" font-size="10.00">_char.hpp</text>
</a>
</g>
</g>
<!-- Node7&#45;&gt;Node12 -->
<g id="edge14_Node000007_Node000012" class="edge">
<title>Node7&#45;&gt;Node12</title>
<g id="a_edge14_Node000007_Node000012"><a xlink:title=" ">
<path fill="none" stroke="#63b8ff" d="M988.21,-121.3C1028.67,-112.18 1091.84,-97.93 1140.27,-87"/>
<polygon fill="#63b8ff" stroke="#63b8ff" points="1140.84,-90.46 1149.82,-84.85 1139.3,-83.64 1140.84,-90.46"/>
</a>
</g>
</g>
<!-- Node15 -->
<g id="Node000015" class="node">
<title>Node15</title>
<g id="a_Node000015"><a xlink:href="../../d5/d40/Platform_8hpp.html" target="_top" xlink:title="ArkScript configuration macros.">
<polygon fill="white" stroke="#666666" points="773.75,-19.25 684.25,-19.25 684.25,0 773.75,0 773.75,-19.25"/>
<text text-anchor="middle" x="729" y="-5.75" font-family="Helvetica,sans-Serif" font-size="10.00">Ark/Platform.hpp</text>
</a>
</g>
</g>
<!-- Node7&#45;&gt;Node15 -->
<g id="edge18_Node000007_Node000015" class="edge">
<title>Node7&#45;&gt;Node15</title>
<g id="a_edge18_Node000007_Node000015"><a xlink:title=" ">
<path fill="none" stroke="#63b8ff" d="M931.54,-121.37C893.97,-100.83 801.6,-50.32 755.73,-25.24"/>
<polygon fill="#63b8ff" stroke="#63b8ff" points="757.43,-22.18 746.98,-20.46 754.07,-28.32 757.43,-22.18"/>
</a>
</g>
</g>
<!-- Node12&#45;&gt;Node3 -->
<g id="edge16_Node000012_Node000003" class="edge">
<title>Node12&#45;&gt;Node3</title>
<g id="a_edge16_Node000012_Node000003"><a xlink:title=" ">
<path fill="none" stroke="#63b8ff" d="M1151.09,-56.78C1148.36,-56.25 1145.65,-55.74 1143,-55.25 1046.68,-37.63 931.85,-21.85 877.5,-14.69"/>
<polygon fill="#63b8ff" stroke="#63b8ff" points="878.11,-11.24 867.74,-13.41 877.2,-18.18 878.11,-11.24"/>
</a>
</g>
</g>
<!-- Node13 -->
<g id="Node000013" class="node">
<title>Node13</title>
<g id="a_Node000013"><a xlink:title=" ">
<polygon fill="#e0e0e0" stroke="#999999" points="1123.88,-19.25 1086.12,-19.25 1086.12,0 1123.88,0 1123.88,-19.25"/>
<text text-anchor="middle" x="1105" y="-5.75" font-family="Helvetica,sans-Serif" font-size="10.00">array</text>
</a>
</g>
</g>
<!-- Node12&#45;&gt;Node13 -->
<g id="edge15_Node000012_Node000013" class="edge">
<title>Node12&#45;&gt;Node13</title>
<g id="a_edge15_Node000012_Node000013"><a xlink:title=" ">
<path fill="none" stroke="#63b8ff" d="M1183.02,-54.8C1167.03,-45.74 1146.62,-34.19 1130.68,-25.16"/>
<polygon fill="#63b8ff" stroke="#63b8ff" points="1132.69,-22.28 1122.27,-20.4 1129.24,-28.37 1132.69,-22.28"/>
</a>
</g>
</g>
<!-- Node12&#45;&gt;Node14 -->
<g id="edge17_Node000012_Node000014" class="edge">
<title>Node12&#45;&gt;Node14</title>
<g id="a_edge17_Node000012_Node000014"><a xlink:title=" ">
<path fill="none" stroke="#63b8ff" d="M1228.03,-54.95C1239.31,-46.33 1253.6,-35.4 1265.17,-26.55"/>
<polygon fill="#63b8ff" stroke="#63b8ff" points="1267.11,-29.48 1272.93,-20.62 1262.86,-23.91 1267.11,-29.48"/>
</a>
</g>
</g>
<!-- Node16&#45;&gt;Node3 -->
<g id="edge22_Node000016_Node000003" class="edge">
<title>Node16&#45;&gt;Node3</title>
<g id="a_edge22_Node000016_Node000003"><a xlink:title=" ">
<path fill="none" stroke="#63b8ff" d="M589.67,-124.21C629.47,-117.92 687.07,-106.12 734,-85.75 769.2,-70.47 805.24,-43.96 826.61,-26.87"/>
<polygon fill="#63b8ff" stroke="#63b8ff" points="828.63,-29.73 834.17,-20.7 824.21,-24.31 828.63,-29.73"/>
</a>
</g>
</g>
<!-- Node16&#45;&gt;Node4 -->
<g id="edge20_Node000016_Node000004" class="edge">
<title>Node16&#45;&gt;Node4</title>
<g id="a_edge20_Node000016_Node000004"><a xlink:title=" ">
<path fill="none" stroke="#63b8ff" d="M494.21,-128.93C416.92,-125.72 268.87,-115.74 227,-85.75 208.65,-72.6 198.61,-47.98 193.53,-30.51"/>
<polygon fill="#63b8ff" stroke="#63b8ff" points="196.97,-29.83 191.09,-21.02 190.19,-31.57 196.97,-29.83"/>
</a>
</g>
</g>
<!-- Node16&#45;&gt;Node13 -->
<g id="edge24_Node000016_Node000013" class="edge">
<title>Node16&#45;&gt;Node13</title>
<g id="a_edge24_Node000016_Node000013"><a xlink:title=" ">
<path fill="none" stroke="#63b8ff" d="M589.64,-121.69C636.6,-113.01 710.37,-99.09 774,-85.75 885.15,-62.45 1016.54,-31.66 1074.7,-17.86"/>
<polygon fill="#63b8ff" stroke="#63b8ff" points="1075.26,-21.32 1084.18,-15.6 1073.64,-14.51 1075.26,-21.32"/>
</a>
</g>
</g>
<!-- Node16&#45;&gt;Node15 -->
<g id="edge37_Node000016_Node000015" class="edge">
<title>Node16&#45;&gt;Node15</title>
<g id="a_edge37_Node000016_Node000015"><a xlink:title=" ">
<path fill="none" stroke="#63b8ff" d="M589.79,-123.61C634.27,-116.33 696.15,-103.39 713,-85.75 726.95,-71.15 729.99,-47.54 730.16,-30.69"/>
<polygon fill="#63b8ff" stroke="#63b8ff" points="733.66,-30.79 729.89,-20.89 726.66,-30.98 733.66,-30.79"/>
</a>
</g>
</g>
<!-- Node17 -->
<g id="Node000017" class="node">
<title>Node17</title>
<g id="a_Node000017"><a xlink:title=" ">
<polygon fill="#e0e0e0" stroke="#999999" points="281.62,-80.12 236.38,-80.12 236.38,-60.88 281.62,-60.88 281.62,-80.12"/>
<text text-anchor="middle" x="259" y="-66.62" font-family="Helvetica,sans-Serif" font-size="10.00">variant</text>
</a>
</g>
</g>
<!-- Node16&#45;&gt;Node17 -->
<g id="edge21_Node000016_Node000017" class="edge">
<title>Node16&#45;&gt;Node17</title>
<g id="a_edge21_Node000016_Node000017"><a xlink:title=" ">
<path fill="none" stroke="#63b8ff" d="M494.24,-124.43C444.23,-117.57 363.7,-104.75 296,-85.75 294.38,-85.3 292.74,-84.8 291.09,-84.27"/>
<polygon fill="#63b8ff" stroke="#63b8ff" points="292.31,-80.99 281.72,-80.99 290,-87.6 292.31,-80.99"/>
</a>
</g>
</g>
<!-- Node18 -->
<g id="Node000018" class="node">
<title>Node18</title>
<g id="a_Node000018"><a xlink:title=" ">
<polygon fill="#e0e0e0" stroke="#999999" points="424.88,-19.25 369.12,-19.25 369.12,0 424.88,0 424.88,-19.25"/>
<text text-anchor="middle" x="397" y="-5.75" font-family="Helvetica,sans-Serif" font-size="10.00">cinttypes</text>
</a>
</g>
</g>
<!-- Node16&#45;&gt;Node18 -->
<g id="edge23_Node000016_Node000018" class="edge">
<title>Node16&#45;&gt;Node18</title>
<g id="a_edge23_Node000016_Node000018"><a xlink:title=" ">
<path fill="none" stroke="#63b8ff" d="M494.42,-124.79C448.12,-118.27 382.53,-105.74 367,-85.75 353.46,-68.32 367.85,-43.98 380.98,-27.78"/>
<polygon fill="#63b8ff" stroke="#63b8ff" points="383.44,-30.29 387.35,-20.44 378.15,-25.7 383.44,-30.29"/>
</a>
</g>
</g>
<!-- Node19 -->
<g id="Node000019" class="node">
<title>Node19</title>
<g id="a_Node000019"><a xlink:href="../../dc/dd5/Closure_8hpp.html" target="_top" xlink:title="Subtype of the value type, handling closures.">
<polygon fill="white" stroke="#666666" points="703.75,-80.12 572.25,-80.12 572.25,-60.88 703.75,-60.88 703.75,-80.12"/>
<text text-anchor="middle" x="638" y="-66.62" font-family="Helvetica,sans-Serif" font-size="10.00">Ark/VM/Value/Closure.hpp</text>
</a>
</g>
</g>
<!-- Node16&#45;&gt;Node19 -->
<g id="edge25_Node000016_Node000019" class="edge">
<title>Node16&#45;&gt;Node19</title>
<g id="a_edge25_Node000016_Node000019"><a xlink:title=" ">
<path fill="none" stroke="#63b8ff" d="M556.58,-121.43C571.66,-112.18 595.49,-97.57 613.48,-86.54"/>
<polygon fill="#63b8ff" stroke="#63b8ff" points="615.3,-89.53 621.99,-81.32 611.64,-83.56 615.3,-89.53"/>
</a>
</g>
</g>
<!-- Node21 -->
<g id="Node000021" class="node">
<title>Node21</title>
<g id="a_Node000021"><a xlink:href="../../dc/d3d/UserType_8hpp.html" target="_top" xlink:title="Subtype of the value, capable of handling any C++ type.">
<polygon fill="white" stroke="#666666" points="515.88,-80.12 376.12,-80.12 376.12,-60.88 515.88,-60.88 515.88,-80.12"/>
<text text-anchor="middle" x="446" y="-66.62" font-family="Helvetica,sans-Serif" font-size="10.00">Ark/VM/Value/UserType.hpp</text>
</a>
</g>
</g>
<!-- Node16&#45;&gt;Node21 -->
<g id="edge30_Node000016_Node000021" class="edge">
<title>Node16&#45;&gt;Node21</title>
<g id="a_edge30_Node000016_Node000021"><a xlink:title=" ">
<path fill="none" stroke="#63b8ff" d="M527.42,-121.43C512.34,-112.18 488.51,-97.57 470.52,-86.54"/>
<polygon fill="#63b8ff" stroke="#63b8ff" points="472.36,-83.56 462.01,-81.32 468.7,-89.53 472.36,-83.56"/>
</a>
</g>
</g>
<!-- Node22 -->
<g id="Node000022" class="node">
<title>Node22</title>
<g id="a_Node000022"><a xlink:href="../../da/dcf/Procedure_8hpp.html" target="_top" xlink:title="Wrapper object for user&#45;defined functions.">
<polygon fill="white" stroke="#666666" points="142,-80.12 0,-80.12 0,-60.88 142,-60.88 142,-80.12"/>
<text text-anchor="middle" x="71" y="-66.62" font-family="Helvetica,sans-Serif" font-size="10.00">Ark/VM/Value/Procedure.hpp</text>
</a>
</g>
</g>
<!-- Node16&#45;&gt;Node22 -->
<g id="edge34_Node000016_Node000022" class="edge">
<title>Node16&#45;&gt;Node22</title>
<g id="a_edge34_Node000016_Node000022"><a xlink:title=" ">
<path fill="none" stroke="#63b8ff" d="M494.25,-124.41C414.27,-114.41 252.32,-94.17 153.58,-81.82"/>
<polygon fill="#63b8ff" stroke="#63b8ff" points="154.01,-78.35 143.66,-80.58 153.14,-85.3 154.01,-78.35"/>
</a>
</g>
</g>
<!-- Node19&#45;&gt;Node3 -->
<g id="edge28_Node000019_Node000003" class="edge">
<title>Node19&#45;&gt;Node3</title>
<g id="a_edge28_Node000019_Node000003"><a xlink:title=" ">
<path fill="none" stroke="#63b8ff" d="M670.04,-60.43C709.37,-49.3 775.63,-30.54 814.64,-19.5"/>
<polygon fill="#63b8ff" stroke="#63b8ff" points="815.45,-22.91 824.12,-16.82 813.55,-16.17 815.45,-22.91"/>
</a>
</g>
</g>
<!-- Node19&#45;&gt;Node11 -->
<g id="edge27_Node000019_Node000011" class="edge">
<title>Node19&#45;&gt;Node11</title>
<g id="a_edge27_Node000019_Node000011"><a xlink:title=" ">
<path fill="none" stroke="#63b8ff" d="M623.72,-60.56C608.95,-51.31 585.63,-36.7 568.01,-25.67"/>
<polygon fill="#63b8ff" stroke="#63b8ff" points="570.03,-22.8 559.69,-20.45 566.31,-28.73 570.03,-22.8"/>
</a>
</g>
</g>
<!-- Node19&#45;&gt;Node15 -->
<g id="edge29_Node000019_Node000015" class="edge">
<title>Node19&#45;&gt;Node15</title>
<g id="a_edge29_Node000019_Node000015"><a xlink:title=" ">
<path fill="none" stroke="#63b8ff" d="M651.82,-60.56C666.12,-51.31 688.7,-36.7 705.75,-25.67"/>
<polygon fill="#63b8ff" stroke="#63b8ff" points="707.28,-28.84 713.78,-20.47 703.48,-22.97 707.28,-28.84"/>
</a>
</g>
</g>
<!-- Node20 -->
<g id="Node000020" class="node">
<title>Node20</title>
<g id="a_Node000020"><a xlink:title=" ">
<polygon fill="#e0e0e0" stroke="#999999" points="663.62,-19.25 612.38,-19.25 612.38,0 663.62,0 663.62,-19.25"/>
<text text-anchor="middle" x="638" y="-5.75" font-family="Helvetica,sans-Serif" font-size="10.00">memory</text>
</a>
</g>
</g>
<!-- Node19&#45;&gt;Node20 -->
<g id="edge26_Node000019_Node000020" class="edge">
<title>Node19&#45;&gt;Node20</title>
<g id="a_edge26_Node000019_Node000020"><a xlink:title=" ">
<path fill="none" stroke="#63b8ff" d="M638,-60.56C638,-52.78 638,-41.2 638,-31.16"/>
<polygon fill="#63b8ff" stroke="#63b8ff" points="641.5,-31.16 638,-21.16 634.5,-31.16 641.5,-31.16"/>
</a>
</g>
</g>
<!-- Node21&#45;&gt;Node11 -->
<g id="edge31_Node000021_Node000011" class="edge">
<title>Node21&#45;&gt;Node11</title>
<g id="a_edge31_Node000021_Node000011"><a xlink:title=" ">
<path fill="none" stroke="#63b8ff" d="M460.88,-60.56C476.35,-51.26 500.83,-36.56 519.22,-25.51"/>
<polygon fill="#63b8ff" stroke="#63b8ff" points="520.91,-28.58 527.68,-20.43 517.3,-22.58 520.91,-28.58"/>
</a>
</g>
</g>
<!-- Node21&#45;&gt;Node15 -->
<g id="edge33_Node000021_Node000015" class="edge">
<title>Node21&#45;&gt;Node15</title>
<g id="a_edge33_Node000021_Node000015"><a xlink:title=" ">
<path fill="none" stroke="#63b8ff" d="M489.6,-60.43C539.25,-50.1 620.44,-33.21 674.3,-22.01"/>
<polygon fill="#63b8ff" stroke="#63b8ff" points="674.79,-25.48 683.87,-20.01 673.37,-18.62 674.79,-25.48"/>
</a>
</g>
</g>
<!-- Node21&#45;&gt;Node18 -->
<g id="edge32_Node000021_Node000018" class="edge">
<title>Node21&#45;&gt;Node18</title>
<g id="a_edge32_Node000021_Node000018"><a xlink:title=" ">
<path fill="none" stroke="#63b8ff" d="M438.56,-60.56C431.43,-52 420.49,-38.85 411.62,-28.2"/>
<polygon fill="#63b8ff" stroke="#63b8ff" points="414.57,-26.26 405.48,-20.81 409.19,-30.74 414.57,-26.26"/>
</a>
</g>
</g>
<!-- Node22&#45;&gt;Node4 -->
<g id="edge36_Node000022_Node000004" class="edge">
<title>Node22&#45;&gt;Node4</title>
<g id="a_edge36_Node000022_Node000004"><a xlink:title=" ">
<path fill="none" stroke="#63b8ff" d="M89.18,-60.43C108.29,-50.89 138.61,-35.77 160.82,-24.68"/>
<polygon fill="#63b8ff" stroke="#63b8ff" points="162.25,-27.88 169.64,-20.28 159.13,-21.62 162.25,-27.88"/>
</a>
</g>
</g>
<!-- Node23 -->
<g id="Node000023" class="node">
<title>Node23</title>
<g id="a_Node000023"><a xlink:title=" ">
<polygon fill="#e0e0e0" stroke="#999999" points="100,-19.25 42,-19.25 42,0 100,0 100,-19.25"/>
<text text-anchor="middle" x="71" y="-5.75" font-family="Helvetica,sans-Serif" font-size="10.00">functional</text>
</a>
</g>
</g>
<!-- Node22&#45;&gt;Node23 -->
<g id="edge35_Node000022_Node000023" class="edge">
<title>Node22&#45;&gt;Node23</title>
<g id="a_edge35_Node000022_Node000023"><a xlink:title=" ">
<path fill="none" stroke="#63b8ff" d="M71,-60.56C71,-52.78 71,-41.2 71,-31.16"/>
<polygon fill="#63b8ff" stroke="#63b8ff" points="74.5,-31.16 71,-21.16 67.5,-31.16 74.5,-31.16"/>
</a>
</g>
</g>
</g>
</svg>
