<?xml version="1.0" encoding="UTF-8" standalone="no"?>
<!DOCTYPE svg PUBLIC "-//W3C//DTD SVG 1.1//EN"
 "http://www.w3.org/Graphics/SVG/1.1/DTD/svg11.dtd">
<!-- Generated by graphviz version 12.2.0 (20241103.1931)
 -->
<!-- Title: Ark::Error Pages: 1 -->
<svg width="473pt" height="187pt"
 viewBox="0.00 0.00 473.25 186.88" xmlns="http://www.w3.org/2000/svg" xmlns:xlink="http://www.w3.org/1999/xlink">

<svg id="main" version="1.1" xmlns="http://www.w3.org/2000/svg" xmlns:xlink="http://www.w3.org/1999/xlink" xml:space="preserve">

<style type="text/css"><![CDATA[
.node, .edge {opacity: 0.7;}
.node.selected, .edge.selected {opacity: 1;}
.edge:hover path { stroke: red; }
.edge:hover polygon { stroke: red; fill: red; }
]]></style>
<script type="application/ecmascript" xlink:href="../../svg.min.js"/>
<svg id="graph" class="graph">
<g id="graph0" class="graph" transform="scale(1 1) rotate(0) translate(4 182.88)">
<title>Ark::Error</title>
<!-- Node1 -->
<g id="Node000001" class="node">
<title>Node1</title>
<g id="a_Node000001"><a xlink:title=" ">
<polygon fill="#999999" stroke="#666666" points="300,-104.88 242,-104.88 242,-85.62 300,-85.62 300,-104.88"/>
<text text-anchor="middle" x="271" y="-91.38" font-family="Helvetica,sans-Serif" font-size="10.00">Ark::Error</text>
</a>
</g>
</g>
<!-- Node4 -->
<g id="Node000004" class="node">
<title>Node4</title>
<g id="a_Node000004"><a xlink:href="../../d3/df9/classArk_1_1AssertionFailed.html" target="_top" xlink:title="An assertion error, only triggered from ArkScript code through (assert expr error&#45;message)">
<polygon fill="white" stroke="#666666" points="452.88,-178.88 348.38,-178.88 348.38,-159.62 452.88,-159.62 452.88,-178.88"/>
<text text-anchor="middle" x="400.62" y="-165.38" font-family="Helvetica,sans-Serif" font-size="10.00">Ark::AssertionFailed</text>
</a>
</g>
</g>
<!-- Node1&#45;&gt;Node4 -->
<g id="edge3_Node000001_Node000004" class="edge">
<title>Node1&#45;&gt;Node4</title>
<g id="a_edge3_Node000001_Node000004"><a xlink:title=" ">
<path fill="none" stroke="#63b8ff" d="M288.32,-113.25C300.39,-125.56 317.83,-141.39 336,-151.25 341.75,-154.37 348.1,-157 354.48,-159.19"/>
<polygon fill="#63b8ff" stroke="#63b8ff" points="291,-110.99 281.58,-106.13 285.92,-115.8 291,-110.99"/>
</a>
</g>
</g>
<!-- Node5 -->
<g id="Node000005" class="node">
<title>Node5</title>
<g id="a_Node000005"><a xlink:href="../../d4/d0b/structArk_1_1CodeError.html" target="_top" xlink:title="CodeError thrown by the compiler (parser, macro processor, optimizer, and compiler itself)">
<polygon fill="white" stroke="#666666" points="441.25,-141.88 360,-141.88 360,-122.62 441.25,-122.62 441.25,-141.88"/>
<text text-anchor="middle" x="400.62" y="-128.38" font-family="Helvetica,sans-Serif" font-size="10.00">Ark::CodeError</text>
</a>
</g>
</g>
<!-- Node1&#45;&gt;Node5 -->
<g id="edge4_Node000001_Node000005" class="edge">
<title>Node1&#45;&gt;Node5</title>
<g id="a_edge4_Node000001_Node000005"><a xlink:title=" ">
<path fill="none" stroke="#63b8ff" d="M311.17,-106.97C319.37,-109.39 327.96,-111.92 336,-114.25 344.93,-116.84 354.58,-119.59 363.6,-122.15"/>
<polygon fill="#63b8ff" stroke="#63b8ff" points="312.37,-103.67 301.78,-104.18 310.37,-110.38 312.37,-103.67"/>
</a>
</g>
</g>
<!-- Node6 -->
<g id="Node000006" class="node">
<title>Node6</title>
<g id="a_Node000006"><a xlink:href="../../db/ddb/classArk_1_1NestedError.html" target="_top" xlink:title=" ">
<polygon fill="white" stroke="#666666" points="445.38,-104.88 355.88,-104.88 355.88,-85.62 445.38,-85.62 445.38,-104.88"/>
<text text-anchor="middle" x="400.62" y="-91.38" font-family="Helvetica,sans-Serif" font-size="10.00">Ark::NestedError</text>
</a>
</g>
</g>
<!-- Node1&#45;&gt;Node6 -->
<g id="edge5_Node000001_Node000006" class="edge">
<title>Node1&#45;&gt;Node6</title>
<g id="a_edge5_Node000001_Node000006"><a xlink:title=" ">
<path fill="none" stroke="#63b8ff" d="M311.6,-95.25C325.62,-95.25 341.48,-95.25 355.83,-95.25"/>
<polygon fill="#63b8ff" stroke="#63b8ff" points="311.84,-91.75 301.84,-95.25 311.84,-98.75 311.84,-91.75"/>
</a>
</g>
</g>
<!-- Node7 -->
<g id="Node000007" class="node">
<title>Node7</title>
<g id="a_Node000007"><a xlink:href="../../d2/d26/classArk_1_1TypeError.html" target="_top" xlink:title="A type error triggered when types don&#39;t match.">
<polygon fill="white" stroke="#666666" points="440.12,-67.88 361.12,-67.88 361.12,-48.62 440.12,-48.62 440.12,-67.88"/>
<text text-anchor="middle" x="400.62" y="-54.38" font-family="Helvetica,sans-Serif" font-size="10.00">Ark::TypeError</text>
</a>
</g>
</g>
<!-- Node1&#45;&gt;Node7 -->
<g id="edge6_Node000001_Node000007" class="edge">
<title>Node1&#45;&gt;Node7</title>
<g id="a_edge6_Node000001_Node000007"><a xlink:title=" ">
<path fill="none" stroke="#63b8ff" d="M311.17,-83.53C319.37,-81.11 327.96,-78.58 336,-76.25 344.93,-73.66 354.58,-70.91 363.6,-68.35"/>
<polygon fill="#63b8ff" stroke="#63b8ff" points="310.37,-80.12 301.78,-86.32 312.37,-86.83 310.37,-80.12"/>
</a>
</g>
</g>
<!-- Node8 -->
<g id="Node000008" class="node">
<title>Node8</title>
<g id="a_Node000008"><a xlink:href="../../dd/d29/classArk_1_1types_1_1TypeCheckingError.html" target="_top" xlink:title=" ">
<polygon fill="white" stroke="#666666" points="465.25,-30.5 336,-30.5 336,0 465.25,0 465.25,-30.5"/>
<text text-anchor="start" x="344" y="-17" font-family="Helvetica,sans-Serif" font-size="10.00">Ark::types::TypeChecking</text>
<text text-anchor="middle" x="400.62" y="-5.75" font-family="Helvetica,sans-Serif" font-size="10.00">Error</text>
</a>
</g>
</g>
<!-- Node1&#45;&gt;Node8 -->
<g id="edge7_Node000001_Node000008" class="edge">
<title>Node1&#45;&gt;Node8</title>
<g id="a_edge7_Node000001_Node000008"><a xlink:title=" ">
<path fill="none" stroke="#63b8ff" d="M289.01,-77.3C301.19,-65.27 318.47,-49.75 336,-39.25 341.06,-36.22 346.58,-33.45 352.17,-30.97"/>
<polygon fill="#63b8ff" stroke="#63b8ff" points="286.69,-74.67 282.18,-84.26 291.68,-79.58 286.69,-74.67"/>
</a>
</g>
</g>
<!-- Node2 -->
<g id="Node000002" class="node">
<title>Node2</title>
<g id="a_Node000002"><a xlink:title=" ">
<polygon fill="white" stroke="#666666" points="206,-104.88 113.5,-104.88 113.5,-85.62 206,-85.62 206,-104.88"/>
<text text-anchor="middle" x="159.75" y="-91.38" font-family="Helvetica,sans-Serif" font-size="10.00">std::runtime_error</text>
</a>
</g>
</g>
<!-- Node2&#45;&gt;Node1 -->
<g id="edge1_Node000001_Node000002" class="edge">
<title>Node2&#45;&gt;Node1</title>
<g id="a_edge1_Node000001_Node000002"><a xlink:title=" ">
<path fill="none" stroke="#63b8ff" d="M217.73,-95.25C226.02,-95.25 234.24,-95.25 241.63,-95.25"/>
<polygon fill="#63b8ff" stroke="#63b8ff" points="217.96,-91.75 207.96,-95.25 217.96,-98.75 217.96,-91.75"/>
</a>
</g>
</g>
<!-- Node3 -->
<g id="Node000003" class="node">
<title>Node3</title>
<g id="a_Node000003"><a xlink:title=" ">
<polygon fill="white" stroke="#666666" points="77.5,-104.88 0,-104.88 0,-85.62 77.5,-85.62 77.5,-104.88"/>
<text text-anchor="middle" x="38.75" y="-91.38" font-family="Helvetica,sans-Serif" font-size="10.00">std::exception</text>
</a>
</g>
</g>
<!-- Node3&#45;&gt;Node2 -->
<g id="edge2_Node000002_Node000003" class="edge">
<title>Node3&#45;&gt;Node2</title>
<g id="a_edge2_Node000002_Node000003"><a xlink:title=" ">
<path fill="none" stroke="#63b8ff" d="M89.16,-95.25C97.13,-95.25 105.35,-95.25 113.23,-95.25"/>
<polygon fill="#63b8ff" stroke="#63b8ff" points="89.24,-91.75 79.24,-95.25 89.24,-98.75 89.24,-91.75"/>
</a>
</g>
</g>
</g>
</svg>
</svg>

<style type='text/css'>
<![CDATA[
[data-mouse-over-selected='false'] { opacity: 0.7; }
[data-mouse-over-selected='true']  { opacity: 1.0; }
]]>
</style>
<script type="application/ecmascript"><![CDATA[
document.addEventListener('DOMContentLoaded', (event) => {
  highlightEdges();
  highlightAdjacentNodes();
});
]]></script>
</svg>
