<?xml version="1.0" encoding="UTF-8" standalone="no"?>
<!DOCTYPE svg PUBLIC "-//W3C//DTD SVG 1.1//EN"
 "http://www.w3.org/Graphics/SVG/1.1/DTD/svg11.dtd">
<!-- Generated by graphviz version 12.2.0 (20241103.1931)
 -->
<!-- Title: /Users/fola/Documents/ArkScript/Ark/include/Ark/VM/Value/ClosureScope.hpp Pages: 1 -->
<svg width="998pt" height="439pt"
 viewBox="0.00 0.00 998.38 438.50" xmlns="http://www.w3.org/2000/svg" xmlns:xlink="http://www.w3.org/1999/xlink">
<g id="graph0" class="graph" transform="scale(1 1) rotate(0) translate(4 434.5)">
<title>/Users/fola/Documents/ArkScript/Ark/include/Ark/VM/Value/ClosureScope.hpp</title>
<!-- Node1 -->
<g id="Node000001" class="node">
<title>Node1</title>
<g id="a_Node000001"><a xlink:title="Subtype of the value type, handling closures.">
<polygon fill="#999999" stroke="#666666" points="899.38,-430.5 737.12,-430.5 737.12,-388.75 899.38,-388.75 899.38,-430.5"/>
<text text-anchor="start" x="745.12" y="-417" font-family="Helvetica,sans-Serif" font-size="10.00">/Users/fola/Documents</text>
<text text-anchor="start" x="745.12" y="-405.75" font-family="Helvetica,sans-Serif" font-size="10.00">/ArkScript/Ark/include</text>
<text text-anchor="middle" x="818.25" y="-394.5" font-family="Helvetica,sans-Serif" font-size="10.00">/Ark/VM/Value/ClosureScope.hpp</text>
</a>
</g>
</g>
<!-- Node2 -->
<g id="Node000002" class="node">
<title>Node2</title>
<g id="a_Node000002"><a xlink:href="../../db/df6/ExecutionContext_8hpp.html" target="_top" xlink:title="Keeping track of the internal data needed by the VM.">
<polygon fill="white" stroke="#666666" points="597.12,-352.75 445.38,-352.75 445.38,-311 597.12,-311 597.12,-352.75"/>
<text text-anchor="start" x="453.38" y="-339.25" font-family="Helvetica,sans-Serif" font-size="10.00">/Users/fola/Documents</text>
<text text-anchor="start" x="453.38" y="-328" font-family="Helvetica,sans-Serif" font-size="10.00">/ArkScript/Ark/include</text>
<text text-anchor="middle" x="521.25" y="-316.75" font-family="Helvetica,sans-Serif" font-size="10.00">/Ark/VM/ExecutionContext.hpp</text>
</a>
</g>
</g>
<!-- Node1&#45;&gt;Node2 -->
<g id="edge1_Node000001_Node000002" class="edge">
<title>Node1&#45;&gt;Node2</title>
<g id="a_edge1_Node000001_Node000002"><a xlink:title=" ">
<path fill="none" stroke="#63b8ff" d="M727.68,-385.53C686.04,-374.91 637.19,-362.45 597.47,-352.32"/>
<polygon fill="#63b8ff" stroke="#63b8ff" points="726.64,-388.87 737.19,-387.95 728.37,-382.09 726.64,-388.87"/>
</a>
</g>
</g>
<!-- Node16 -->
<g id="Node000016" class="node">
<title>Node16</title>
<g id="a_Node000016"><a xlink:href="../../d1/db2/Closure_8cpp.html" target="_top" xlink:title=" ">
<polygon fill="white" stroke="#666666" points="964.5,-119.5 824,-119.5 824,-77.75 964.5,-77.75 964.5,-119.5"/>
<text text-anchor="start" x="832" y="-106" font-family="Helvetica,sans-Serif" font-size="10.00">/Users/fola/Documents</text>
<text text-anchor="start" x="832" y="-94.75" font-family="Helvetica,sans-Serif" font-size="10.00">/ArkScript/Ark/src/arkreactor</text>
<text text-anchor="middle" x="894.25" y="-83.5" font-family="Helvetica,sans-Serif" font-size="10.00">/VM/Value/Closure.cpp</text>
</a>
</g>
</g>
<!-- Node1&#45;&gt;Node16 -->
<g id="edge20_Node000001_Node000016" class="edge">
<title>Node1&#45;&gt;Node16</title>
<g id="a_edge20_Node000001_Node000016"><a xlink:title=" ">
<path fill="none" stroke="#63b8ff" d="M823.77,-377.22C827.3,-358.02 832.15,-333.01 837.25,-311 853.65,-240.28 877.31,-157.42 888.26,-119.91"/>
<polygon fill="#63b8ff" stroke="#63b8ff" points="820.37,-376.39 822.03,-386.85 827.26,-377.64 820.37,-376.39"/>
</a>
</g>
</g>
<!-- Node17 -->
<g id="Node000017" class="node">
<title>Node17</title>
<g id="a_Node000017"><a xlink:href="../../d6/d49/ClosureScope_8cpp.html" target="_top" xlink:title=" ">
<polygon fill="white" stroke="#666666" points="990.38,-352.75 846.12,-352.75 846.12,-311 990.38,-311 990.38,-352.75"/>
<text text-anchor="start" x="854.12" y="-339.25" font-family="Helvetica,sans-Serif" font-size="10.00">/Users/fola/Documents</text>
<text text-anchor="start" x="854.12" y="-328" font-family="Helvetica,sans-Serif" font-size="10.00">/ArkScript/Ark/src/arkreactor</text>
<text text-anchor="middle" x="918.25" y="-316.75" font-family="Helvetica,sans-Serif" font-size="10.00">/VM/Value/ClosureScope.cpp</text>
</a>
</g>
</g>
<!-- Node1&#45;&gt;Node17 -->
<g id="edge21_Node000001_Node000017" class="edge">
<title>Node1&#45;&gt;Node17</title>
<g id="a_edge21_Node000001_Node000017"><a xlink:title=" ">
<path fill="none" stroke="#63b8ff" d="M854.14,-381.44C866.42,-372.14 879.94,-361.9 891.38,-353.23"/>
<polygon fill="#63b8ff" stroke="#63b8ff" points="852.11,-378.58 846.25,-387.41 856.34,-384.16 852.11,-378.58"/>
</a>
</g>
</g>
<!-- Node3 -->
<g id="Node000003" class="node">
<title>Node3</title>
<g id="a_Node000003"><a xlink:href="../../d0/dda/Future_8hpp.html" target="_top" xlink:title="Internal object to resolve asynchronously a function call in ArkScript.">
<polygon fill="white" stroke="#666666" points="492.88,-275 375.62,-275 375.62,-233.25 492.88,-233.25 492.88,-275"/>
<text text-anchor="start" x="383.62" y="-261.5" font-family="Helvetica,sans-Serif" font-size="10.00">/Users/fola/Documents</text>
<text text-anchor="start" x="383.62" y="-250.25" font-family="Helvetica,sans-Serif" font-size="10.00">/ArkScript/Ark/include</text>
<text text-anchor="middle" x="434.25" y="-239" font-family="Helvetica,sans-Serif" font-size="10.00">/Ark/VM/Future.hpp</text>
</a>
</g>
</g>
<!-- Node2&#45;&gt;Node3 -->
<g id="edge2_Node000002_Node000003" class="edge">
<title>Node2&#45;&gt;Node3</title>
<g id="a_edge2_Node000002_Node000003"><a xlink:title=" ">
<path fill="none" stroke="#63b8ff" d="M489.39,-303.14C478.88,-293.98 467.39,-283.98 457.63,-275.48"/>
<polygon fill="#63b8ff" stroke="#63b8ff" points="486.95,-305.65 496.79,-309.58 491.55,-300.38 486.95,-305.65"/>
</a>
</g>
</g>
<!-- Node4 -->
<g id="Node000004" class="node">
<title>Node4</title>
<g id="a_Node000004"><a xlink:href="../../d1/d91/VM_8hpp.html" target="_top" xlink:title="The ArkScript virtual machine.">
<polygon fill="white" stroke="#666666" points="536.88,-197.25 419.62,-197.25 419.62,-155.5 536.88,-155.5 536.88,-197.25"/>
<text text-anchor="start" x="427.62" y="-183.75" font-family="Helvetica,sans-Serif" font-size="10.00">/Users/fola/Documents</text>
<text text-anchor="start" x="427.62" y="-172.5" font-family="Helvetica,sans-Serif" font-size="10.00">/ArkScript/Ark/include</text>
<text text-anchor="middle" x="478.25" y="-161.25" font-family="Helvetica,sans-Serif" font-size="10.00">/Ark/VM/VM.hpp</text>
</a>
</g>
</g>
<!-- Node2&#45;&gt;Node4 -->
<g id="edge19_Node000002_Node000004" class="edge">
<title>Node2&#45;&gt;Node4</title>
<g id="a_edge19_Node000002_Node000004"><a xlink:title=" ">
<path fill="none" stroke="#63b8ff" d="M516.9,-299.54C513.78,-280.18 508.95,-254.98 502.25,-233.25 498.52,-221.14 493.01,-208.11 488.21,-197.68"/>
<polygon fill="#63b8ff" stroke="#63b8ff" points="513.41,-299.9 518.39,-309.25 520.33,-298.84 513.41,-299.9"/>
</a>
</g>
</g>
<!-- Node3&#45;&gt;Node4 -->
<g id="edge3_Node000003_Node000004" class="edge">
<title>Node3&#45;&gt;Node4</title>
<g id="a_edge3_Node000003_Node000004"><a xlink:title=" ">
<path fill="none" stroke="#63b8ff" d="M451.81,-222.9C456.72,-214.45 461.93,-205.46 466.43,-197.73"/>
<polygon fill="#63b8ff" stroke="#63b8ff" points="448.8,-221.11 446.8,-231.52 454.85,-224.63 448.8,-221.11"/>
</a>
</g>
</g>
<!-- Node15 -->
<g id="Node000015" class="node">
<title>Node15</title>
<g id="a_Node000015"><a xlink:href="../../d4/dc9/Future_8cpp.html" target="_top" xlink:title=" ">
<polygon fill="white" stroke="#666666" points="140.5,-119.5 0,-119.5 0,-77.75 140.5,-77.75 140.5,-119.5"/>
<text text-anchor="start" x="8" y="-106" font-family="Helvetica,sans-Serif" font-size="10.00">/Users/fola/Documents</text>
<text text-anchor="start" x="8" y="-94.75" font-family="Helvetica,sans-Serif" font-size="10.00">/ArkScript/Ark/src/arkreactor</text>
<text text-anchor="middle" x="70.25" y="-83.5" font-family="Helvetica,sans-Serif" font-size="10.00">/VM/Future.cpp</text>
</a>
</g>
</g>
<!-- Node3&#45;&gt;Node15 -->
<g id="edge18_Node000003_Node000015" class="edge">
<title>Node3&#45;&gt;Node15</title>
<g id="a_edge18_Node000003_Node000015"><a xlink:title=" ">
<path fill="none" stroke="#63b8ff" d="M376.11,-228.61C304.68,-198.48 184.8,-147.93 118.32,-119.9"/>
<polygon fill="#63b8ff" stroke="#63b8ff" points="374.32,-231.65 384.89,-232.31 377.04,-225.2 374.32,-231.65"/>
</a>
</g>
</g>
<!-- Node5 -->
<g id="Node000005" class="node">
<title>Node5</title>
<g id="a_Node000005"><a xlink:href="../../d3/d7e/Ark_8hpp.html" target="_top" xlink:title="Includes the needed files to start using ArkScript.">
<polygon fill="white" stroke="#666666" points="805.88,-119.5 688.62,-119.5 688.62,-77.75 805.88,-77.75 805.88,-119.5"/>
<text text-anchor="start" x="696.62" y="-106" font-family="Helvetica,sans-Serif" font-size="10.00">/Users/fola/Documents</text>
<text text-anchor="start" x="696.62" y="-94.75" font-family="Helvetica,sans-Serif" font-size="10.00">/ArkScript/Ark/include</text>
<text text-anchor="middle" x="747.25" y="-83.5" font-family="Helvetica,sans-Serif" font-size="10.00">/Ark/Ark.hpp</text>
</a>
</g>
</g>
<!-- Node4&#45;&gt;Node5 -->
<g id="edge4_Node000004_Node000005" class="edge">
<title>Node4&#45;&gt;Node5</title>
<g id="a_edge4_Node000004_Node000005"><a xlink:title=" ">
<path fill="none" stroke="#63b8ff" d="M548.36,-155.63C591.86,-143.38 647.13,-127.82 688.35,-116.21"/>
<polygon fill="#63b8ff" stroke="#63b8ff" points="547.42,-152.26 538.74,-158.34 549.31,-159 547.42,-152.26"/>
</a>
</g>
</g>
<!-- Node8 -->
<g id="Node000008" class="node">
<title>Node8</title>
<g id="a_Node000008"><a xlink:href="../../d5/d44/Module_8hpp.html" target="_top" xlink:title=" ">
<polygon fill="white" stroke="#666666" points="628.88,-41.75 511.62,-41.75 511.62,0 628.88,0 628.88,-41.75"/>
<text text-anchor="start" x="519.62" y="-28.25" font-family="Helvetica,sans-Serif" font-size="10.00">/Users/fola/Documents</text>
<text text-anchor="start" x="519.62" y="-17" font-family="Helvetica,sans-Serif" font-size="10.00">/ArkScript/Ark/include</text>
<text text-anchor="middle" x="570.25" y="-5.75" font-family="Helvetica,sans-Serif" font-size="10.00">/Ark/Module.hpp</text>
</a>
</g>
</g>
<!-- Node4&#45;&gt;Node8 -->
<g id="edge7_Node000004_Node000008" class="edge">
<title>Node4&#45;&gt;Node8</title>
<g id="a_edge7_Node000004_Node000008"><a xlink:title=" ">
<path fill="none" stroke="#63b8ff" d="M548.63,-169.77C582.46,-163.12 620.16,-149.02 641.25,-119.5 652.04,-104.4 649.35,-94.44 641.25,-77.75 634.12,-63.08 621.07,-51.1 608.08,-42.06"/>
<polygon fill="#63b8ff" stroke="#63b8ff" points="548.07,-166.31 538.83,-171.49 549.28,-173.21 548.07,-166.31"/>
</a>
</g>
</g>
<!-- Node9 -->
<g id="Node000009" class="node">
<title>Node9</title>
<g id="a_Node000009"><a xlink:href="../../d2/d33/ModuleMapping_8hpp.html" target="_top" xlink:title=" ">
<polygon fill="white" stroke="#666666" points="474.25,-119.5 332.25,-119.5 332.25,-77.75 474.25,-77.75 474.25,-119.5"/>
<text text-anchor="start" x="340.25" y="-106" font-family="Helvetica,sans-Serif" font-size="10.00">/Users/fola/Documents</text>
<text text-anchor="start" x="340.25" y="-94.75" font-family="Helvetica,sans-Serif" font-size="10.00">/ArkScript/Ark/include</text>
<text text-anchor="middle" x="403.25" y="-83.5" font-family="Helvetica,sans-Serif" font-size="10.00">/Ark/VM/ModuleMapping.hpp</text>
</a>
</g>
</g>
<!-- Node4&#45;&gt;Node9 -->
<g id="edge8_Node000004_Node000009" class="edge">
<title>Node4&#45;&gt;Node9</title>
<g id="a_edge8_Node000004_Node000009"><a xlink:title=" ">
<path fill="none" stroke="#63b8ff" d="M450.24,-147.09C441.33,-138.09 431.65,-128.31 423.4,-119.98"/>
<polygon fill="#63b8ff" stroke="#63b8ff" points="447.56,-149.36 457.09,-154 452.54,-144.43 447.56,-149.36"/>
</a>
</g>
</g>
<!-- Node10 -->
<g id="Node000010" class="node">
<title>Node10</title>
<g id="a_Node000010"><a xlink:href="../../d2/d27/VM_8cpp.html" target="_top" xlink:title=" ">
<polygon fill="white" stroke="#666666" points="465.5,-41.75 325,-41.75 325,0 465.5,0 465.5,-41.75"/>
<text text-anchor="start" x="333" y="-28.25" font-family="Helvetica,sans-Serif" font-size="10.00">/Users/fola/Documents</text>
<text text-anchor="start" x="333" y="-17" font-family="Helvetica,sans-Serif" font-size="10.00">/ArkScript/Ark/src/arkreactor</text>
<text text-anchor="middle" x="395.25" y="-5.75" font-family="Helvetica,sans-Serif" font-size="10.00">/VM/VM.cpp</text>
</a>
</g>
</g>
<!-- Node4&#45;&gt;Node10 -->
<g id="edge16_Node000004_Node000010" class="edge">
<title>Node4&#45;&gt;Node10</title>
<g id="a_edge16_Node000004_Node000010"><a xlink:title=" ">
<path fill="none" stroke="#63b8ff" d="M408.31,-168.18C376.89,-161.06 342.59,-147.03 323.25,-119.5 312.58,-104.32 315.09,-94.41 323.25,-77.75 330.42,-63.11 343.47,-51.21 356.52,-42.21"/>
<polygon fill="#63b8ff" stroke="#63b8ff" points="407.29,-171.55 417.79,-170.12 408.69,-164.69 407.29,-171.55"/>
</a>
</g>
</g>
<!-- Node11 -->
<g id="Node000011" class="node">
<title>Node11</title>
<g id="a_Node000011"><a xlink:href="../../d5/da5/Repl_8hpp.html" target="_top" xlink:title="ArkScript REPL &#45; Read Eval Print Loop.">
<polygon fill="white" stroke="#666666" points="275.88,-119.5 158.62,-119.5 158.62,-77.75 275.88,-77.75 275.88,-119.5"/>
<text text-anchor="start" x="166.62" y="-106" font-family="Helvetica,sans-Serif" font-size="10.00">/Users/fola/Documents</text>
<text text-anchor="start" x="166.62" y="-94.75" font-family="Helvetica,sans-Serif" font-size="10.00">/ArkScript/Ark/include</text>
<text text-anchor="middle" x="217.25" y="-83.5" font-family="Helvetica,sans-Serif" font-size="10.00">/CLI/REPL/Repl.hpp</text>
</a>
</g>
</g>
<!-- Node4&#45;&gt;Node11 -->
<g id="edge11_Node000004_Node000011" class="edge">
<title>Node4&#45;&gt;Node11</title>
<g id="a_edge11_Node000004_Node000011"><a xlink:title=" ">
<path fill="none" stroke="#63b8ff" d="M408.52,-155.14C367.12,-143.12 315.22,-128.06 275.93,-116.66"/>
<polygon fill="#63b8ff" stroke="#63b8ff" points="407.32,-158.43 417.9,-157.86 409.27,-151.71 407.32,-158.43"/>
</a>
</g>
</g>
<!-- Node14 -->
<g id="Node000014" class="node">
<title>Node14</title>
<g id="a_Node000014"><a xlink:href="../../d6/d9a/TypeChecker_8cpp.html" target="_top" xlink:title=" ">
<polygon fill="white" stroke="#666666" points="632.5,-119.5 492,-119.5 492,-77.75 632.5,-77.75 632.5,-119.5"/>
<text text-anchor="start" x="500" y="-106" font-family="Helvetica,sans-Serif" font-size="10.00">/Users/fola/Documents</text>
<text text-anchor="start" x="500" y="-94.75" font-family="Helvetica,sans-Serif" font-size="10.00">/ArkScript/Ark/src/arkreactor</text>
<text text-anchor="middle" x="562.25" y="-83.5" font-family="Helvetica,sans-Serif" font-size="10.00">/TypeChecker.cpp</text>
</a>
</g>
</g>
<!-- Node4&#45;&gt;Node14 -->
<g id="edge14_Node000004_Node000014" class="edge">
<title>Node4&#45;&gt;Node14</title>
<g id="a_edge14_Node000004_Node000014"><a xlink:title=" ">
<path fill="none" stroke="#63b8ff" d="M509.01,-147.64C519.16,-138.48 530.25,-128.48 539.68,-119.98"/>
<polygon fill="#63b8ff" stroke="#63b8ff" points="506.97,-144.77 501.88,-154.06 511.65,-149.96 506.97,-144.77"/>
</a>
</g>
</g>
<!-- Node4&#45;&gt;Node15 -->
<g id="edge15_Node000004_Node000015" class="edge">
<title>Node4&#45;&gt;Node15</title>
<g id="a_edge15_Node000004_Node000015"><a xlink:title=" ">
<path fill="none" stroke="#63b8ff" d="M407.93,-165.06C341.11,-154.88 237.95,-138.16 149.25,-119.5 146.48,-118.92 143.66,-118.31 140.82,-117.67"/>
<polygon fill="#63b8ff" stroke="#63b8ff" points="407.24,-168.5 417.65,-166.54 408.29,-161.58 407.24,-168.5"/>
</a>
</g>
</g>
<!-- Node4&#45;&gt;Node16 -->
<g id="edge17_Node000004_Node000016" class="edge">
<title>Node4&#45;&gt;Node16</title>
<g id="a_edge17_Node000004_Node000016"><a xlink:title=" ">
<path fill="none" stroke="#63b8ff" d="M548.32,-165.47C616.71,-155.41 723.54,-138.61 815.25,-119.5 818.02,-118.92 820.84,-118.32 823.68,-117.68"/>
<polygon fill="#63b8ff" stroke="#63b8ff" points="548.16,-161.96 538.77,-166.87 549.17,-168.89 548.16,-161.96"/>
</a>
</g>
</g>
<!-- Node6 -->
<g id="Node000006" class="node">
<title>Node6</title>
<g id="a_Node000006"><a xlink:href="../../d1/d95/arkemscripten_2main_8cpp.html" target="_top" xlink:title=" ">
<polygon fill="white" stroke="#666666" points="819.5,-41.75 661,-41.75 661,0 819.5,0 819.5,-41.75"/>
<text text-anchor="start" x="669" y="-28.25" font-family="Helvetica,sans-Serif" font-size="10.00">/Users/fola/Documents</text>
<text text-anchor="start" x="669" y="-17" font-family="Helvetica,sans-Serif" font-size="10.00">/ArkScript/Ark/src/arkemscripten</text>
<text text-anchor="middle" x="740.25" y="-5.75" font-family="Helvetica,sans-Serif" font-size="10.00">/main.cpp</text>
</a>
</g>
</g>
<!-- Node5&#45;&gt;Node6 -->
<g id="edge5_Node000005_Node000006" class="edge">
<title>Node5&#45;&gt;Node6</title>
<g id="a_edge5_Node000005_Node000006"><a xlink:title=" ">
<path fill="none" stroke="#63b8ff" d="M744.33,-66C743.58,-57.96 742.81,-49.54 742.13,-42.23"/>
<polygon fill="#63b8ff" stroke="#63b8ff" points="740.83,-66.18 745.23,-75.82 747.8,-65.54 740.83,-66.18"/>
</a>
</g>
</g>
<!-- Node7 -->
<g id="Node000007" class="node">
<title>Node7</title>
<g id="a_Node000007"><a xlink:href="../../dc/d32/Ark_8cpp.html" target="_top" xlink:title=" ">
<polygon fill="white" stroke="#666666" points="978.5,-41.75 838,-41.75 838,0 978.5,0 978.5,-41.75"/>
<text text-anchor="start" x="846" y="-28.25" font-family="Helvetica,sans-Serif" font-size="10.00">/Users/fola/Documents</text>
<text text-anchor="start" x="846" y="-17" font-family="Helvetica,sans-Serif" font-size="10.00">/ArkScript/Ark/src/arkreactor</text>
<text text-anchor="middle" x="908.25" y="-5.75" font-family="Helvetica,sans-Serif" font-size="10.00">/Ark.cpp</text>
</a>
</g>
</g>
<!-- Node5&#45;&gt;Node7 -->
<g id="edge6_Node000005_Node000007" class="edge">
<title>Node5&#45;&gt;Node7</title>
<g id="a_edge6_Node000005_Node000007"><a xlink:title=" ">
<path fill="none" stroke="#63b8ff" d="M800.71,-72.47C821.59,-62.65 845.21,-51.54 864.99,-42.23"/>
<polygon fill="#63b8ff" stroke="#63b8ff" points="799.32,-69.26 791.76,-76.68 802.3,-75.59 799.32,-69.26"/>
</a>
</g>
</g>
<!-- Node9&#45;&gt;Node8 -->
<g id="edge9_Node000009_Node000008" class="edge">
<title>Node9&#45;&gt;Node8</title>
<g id="a_edge9_Node000009_Node000008"><a xlink:title=" ">
<path fill="none" stroke="#63b8ff" d="M458.41,-72.61C480.13,-62.75 504.77,-51.58 525.37,-42.23"/>
<polygon fill="#63b8ff" stroke="#63b8ff" points="457.04,-69.38 449.38,-76.7 459.93,-75.76 457.04,-69.38"/>
</a>
</g>
</g>
<!-- Node9&#45;&gt;Node10 -->
<g id="edge10_Node000009_Node000010" class="edge">
<title>Node9&#45;&gt;Node10</title>
<g id="a_edge10_Node000009_Node000010"><a xlink:title=" ">
<path fill="none" stroke="#63b8ff" d="M399.91,-66C399.06,-57.96 398.17,-49.54 397.4,-42.23"/>
<polygon fill="#63b8ff" stroke="#63b8ff" points="396.42,-66.24 400.95,-75.82 403.38,-65.51 396.42,-66.24"/>
</a>
</g>
</g>
<!-- Node12 -->
<g id="Node000012" class="node">
<title>Node12</title>
<g id="a_Node000012"><a xlink:href="../../d7/d46/Repl_8cpp.html" target="_top" xlink:title=" ">
<polygon fill="white" stroke="#666666" points="291.5,-41.75 157,-41.75 157,0 291.5,0 291.5,-41.75"/>
<text text-anchor="start" x="165" y="-28.25" font-family="Helvetica,sans-Serif" font-size="10.00">/Users/fola/Documents</text>
<text text-anchor="start" x="165" y="-17" font-family="Helvetica,sans-Serif" font-size="10.00">/ArkScript/Ark/src/arkscript</text>
<text text-anchor="middle" x="224.25" y="-5.75" font-family="Helvetica,sans-Serif" font-size="10.00">/REPL/Repl.cpp</text>
</a>
</g>
</g>
<!-- Node11&#45;&gt;Node12 -->
<g id="edge12_Node000011_Node000012" class="edge">
<title>Node11&#45;&gt;Node12</title>
<g id="a_edge12_Node000011_Node000012"><a xlink:title=" ">
<path fill="none" stroke="#63b8ff" d="M220.17,-66C220.92,-57.96 221.69,-49.54 222.37,-42.23"/>
<polygon fill="#63b8ff" stroke="#63b8ff" points="216.7,-65.54 219.27,-75.82 223.67,-66.18 216.7,-65.54"/>
</a>
</g>
</g>
<!-- Node13 -->
<g id="Node000013" class="node">
<title>Node13</title>
<g id="a_Node000013"><a xlink:href="../../d0/d46/arkscript_2main_8cpp.html" target="_top" xlink:title=" ">
<polygon fill="white" stroke="#666666" points="138.5,-41.75 4,-41.75 4,0 138.5,0 138.5,-41.75"/>
<text text-anchor="start" x="12" y="-28.25" font-family="Helvetica,sans-Serif" font-size="10.00">/Users/fola/Documents</text>
<text text-anchor="start" x="12" y="-17" font-family="Helvetica,sans-Serif" font-size="10.00">/ArkScript/Ark/src/arkscript</text>
<text text-anchor="middle" x="71.25" y="-5.75" font-family="Helvetica,sans-Serif" font-size="10.00">/main.cpp</text>
</a>
</g>
</g>
<!-- Node11&#45;&gt;Node13 -->
<g id="edge13_Node000011_Node000013" class="edge">
<title>Node11&#45;&gt;Node13</title>
<g id="a_edge13_Node000011_Node000013"><a xlink:title=" ">
<path fill="none" stroke="#63b8ff" d="M167.99,-72.07C149.25,-62.35 128.17,-51.41 110.48,-42.23"/>
<polygon fill="#63b8ff" stroke="#63b8ff" points="166.29,-75.13 176.78,-76.63 169.52,-68.92 166.29,-75.13"/>
</a>
</g>
</g>
</g>
</svg>
