<?xml version="1.0" encoding="UTF-8" standalone="no"?>
<!DOCTYPE svg PUBLIC "-//W3C//DTD SVG 1.1//EN"
 "http://www.w3.org/Graphics/SVG/1.1/DTD/svg11.dtd">
<!-- Generated by graphviz version 12.2.0 (20241103.1931)
 -->
<!-- Title: /Users/fola/Documents/ArkScript/Ark/include/Ark/Compiler/BytecodeReader.hpp Pages: 1 -->
<svg width="1474pt" height="227pt"
 viewBox="0.00 0.00 1473.75 226.75" xmlns="http://www.w3.org/2000/svg" xmlns:xlink="http://www.w3.org/1999/xlink">
<g id="graph0" class="graph" transform="scale(1 1) rotate(0) translate(4 222.75)">
<title>/Users/fola/Documents/ArkScript/Ark/include/Ark/Compiler/BytecodeReader.hpp</title>
<!-- Node1 -->
<g id="Node000001" class="node">
<title>Node1</title>
<g id="a_Node000001"><a xlink:title="A bytecode disassembler for ArkScript.">
<polygon fill="#999999" stroke="#666666" points="1116.62,-218.75 946.88,-218.75 946.88,-177 1116.62,-177 1116.62,-218.75"/>
<text text-anchor="start" x="954.88" y="-205.25" font-family="Helvetica,sans-Serif" font-size="10.00">/Users/fola/Documents</text>
<text text-anchor="start" x="954.88" y="-194" font-family="Helvetica,sans-Serif" font-size="10.00">/ArkScript/Ark/include</text>
<text text-anchor="middle" x="1031.75" y="-182.75" font-family="Helvetica,sans-Serif" font-size="10.00">/Ark/Compiler/BytecodeReader.hpp</text>
</a>
</g>
</g>
<!-- Node2 -->
<g id="Node000002" class="node">
<title>Node2</title>
<g id="a_Node000002"><a xlink:title=" ">
<polygon fill="#e0e0e0" stroke="#999999" points="435.25,-19.25 392.25,-19.25 392.25,0 435.25,0 435.25,-19.25"/>
<text text-anchor="middle" x="413.75" y="-5.75" font-family="Helvetica,sans-Serif" font-size="10.00">vector</text>
</a>
</g>
</g>
<!-- Node1&#45;&gt;Node2 -->
<g id="edge1_Node000001_Node000002" class="edge">
<title>Node1&#45;&gt;Node2</title>
<g id="a_edge1_Node000001_Node000002"><a xlink:title=" ">
<path fill="none" stroke="#63b8ff" d="M946.65,-190.6C798.73,-177.97 502.93,-144.47 429.75,-74.5 417.99,-63.26 414.36,-44.77 413.46,-30.58"/>
<polygon fill="#63b8ff" stroke="#63b8ff" points="416.96,-30.93 413.26,-21 409.97,-31.07 416.96,-30.93"/>
</a>
</g>
</g>
<!-- Node3 -->
<g id="Node000003" class="node">
<title>Node3</title>
<g id="a_Node000003"><a xlink:title=" ">
<polygon fill="#e0e0e0" stroke="#999999" points="1177.75,-19.25 1137.75,-19.25 1137.75,0 1177.75,0 1177.75,-19.25"/>
<text text-anchor="middle" x="1157.75" y="-5.75" font-family="Helvetica,sans-Serif" font-size="10.00">string</text>
</a>
</g>
</g>
<!-- Node1&#45;&gt;Node3 -->
<g id="edge2_Node000001_Node000003" class="edge">
<title>Node1&#45;&gt;Node3</title>
<g id="a_edge2_Node000001_Node000003"><a xlink:title=" ">
<path fill="none" stroke="#63b8ff" d="M1065.51,-176.7C1079.12,-167.24 1094.1,-154.96 1104.75,-141 1130.85,-106.79 1146.12,-57.95 1153.11,-30.8"/>
<polygon fill="#63b8ff" stroke="#63b8ff" points="1156.5,-31.69 1155.46,-21.14 1149.7,-30.03 1156.5,-31.69"/>
</a>
</g>
</g>
<!-- Node4 -->
<g id="Node000004" class="node">
<title>Node4</title>
<g id="a_Node000004"><a xlink:title=" ">
<polygon fill="#e0e0e0" stroke="#999999" points="262.62,-19.25 206.88,-19.25 206.88,0 262.62,0 262.62,-19.25"/>
<text text-anchor="middle" x="234.75" y="-5.75" font-family="Helvetica,sans-Serif" font-size="10.00">cinttypes</text>
</a>
</g>
</g>
<!-- Node1&#45;&gt;Node4 -->
<g id="edge3_Node000001_Node000004" class="edge">
<title>Node1&#45;&gt;Node4</title>
<g id="a_edge3_Node000001_Node000004"><a xlink:title=" ">
<path fill="none" stroke="#63b8ff" d="M946.6,-197.53C745.76,-198.2 255.56,-194.29 205.75,-141 176.83,-110.06 203.94,-56.89 221.85,-28.97"/>
<polygon fill="#63b8ff" stroke="#63b8ff" points="224.63,-31.12 227.29,-20.87 218.81,-27.22 224.63,-31.12"/>
</a>
</g>
</g>
<!-- Node5 -->
<g id="Node000005" class="node">
<title>Node5</title>
<g id="a_Node000005"><a xlink:title=" ">
<polygon fill="#e0e0e0" stroke="#999999" points="1311.62,-135.38 1261.88,-135.38 1261.88,-116.12 1311.62,-116.12 1311.62,-135.38"/>
<text text-anchor="middle" x="1286.75" y="-121.88" font-family="Helvetica,sans-Serif" font-size="10.00">optional</text>
</a>
</g>
</g>
<!-- Node1&#45;&gt;Node5 -->
<g id="edge4_Node000001_Node000005" class="edge">
<title>Node1&#45;&gt;Node5</title>
<g id="a_edge4_Node000001_Node000005"><a xlink:title=" ">
<path fill="none" stroke="#63b8ff" d="M1116.92,-176.87C1156.89,-166.97 1205.03,-154.29 1247.75,-141 1249.3,-140.52 1250.88,-140.01 1252.47,-139.49"/>
<polygon fill="#63b8ff" stroke="#63b8ff" points="1253.21,-142.93 1261.52,-136.36 1250.92,-136.32 1253.21,-142.93"/>
</a>
</g>
</g>
<!-- Node6 -->
<g id="Node000006" class="node">
<title>Node6</title>
<g id="a_Node000006"><a xlink:href="../../d5/d40/Platform_8hpp.html" target="_top" xlink:title="ArkScript configuration macros.">
<polygon fill="white" stroke="#666666" points="1101.12,-19.25 988.38,-19.25 988.38,0 1101.12,0 1101.12,-19.25"/>
<text text-anchor="middle" x="1044.75" y="-5.75" font-family="Helvetica,sans-Serif" font-size="10.00">Ark/Utils/Platform.hpp</text>
</a>
</g>
</g>
<!-- Node1&#45;&gt;Node6 -->
<g id="edge5_Node000001_Node000006" class="edge">
<title>Node1&#45;&gt;Node6</title>
<g id="a_edge5_Node000001_Node000006"><a xlink:title=" ">
<path fill="none" stroke="#63b8ff" d="M1051.88,-176.51C1072.75,-153.82 1104.07,-114.98 1116.75,-74.5 1119.31,-66.34 1120.91,-62.73 1116.75,-55.25 1109.11,-41.53 1095.32,-31.49 1081.83,-24.45"/>
<polygon fill="#63b8ff" stroke="#63b8ff" points="1083.59,-21.41 1073.06,-20.29 1080.59,-27.73 1083.59,-21.41"/>
</a>
</g>
</g>
<!-- Node7 -->
<g id="Node000007" class="node">
<title>Node7</title>
<g id="a_Node000007"><a xlink:href="../../d8/ddd/Common_8hpp.html" target="_top" xlink:title="Common code for the compiler.">
<polygon fill="white" stroke="#666666" points="349,-135.38 214.5,-135.38 214.5,-116.12 349,-116.12 349,-135.38"/>
<text text-anchor="middle" x="281.75" y="-121.88" font-family="Helvetica,sans-Serif" font-size="10.00">Ark/Compiler/Common.hpp</text>
</a>
</g>
</g>
<!-- Node1&#45;&gt;Node7 -->
<g id="edge6_Node000001_Node000007" class="edge">
<title>Node1&#45;&gt;Node7</title>
<g id="a_edge6_Node000001_Node000007"><a xlink:title=" ">
<path fill="none" stroke="#63b8ff" d="M946.55,-191.13C822.04,-182.37 583.18,-164.24 380.75,-141 371.51,-139.94 361.81,-138.7 352.24,-137.4"/>
<polygon fill="#63b8ff" stroke="#63b8ff" points="352.98,-133.97 342.6,-136.06 352.02,-140.9 352.98,-133.97"/>
</a>
</g>
</g>
<!-- Node13 -->
<g id="Node000013" class="node">
<title>Node13</title>
<g id="a_Node000013"><a xlink:href="../../de/dfd/Value_8hpp.html" target="_top" xlink:title="Default value type handled by the virtual machine.">
<polygon fill="white" stroke="#666666" points="867.12,-135.38 772.38,-135.38 772.38,-116.12 867.12,-116.12 867.12,-135.38"/>
<text text-anchor="middle" x="819.75" y="-121.88" font-family="Helvetica,sans-Serif" font-size="10.00">Ark/VM/Value.hpp</text>
</a>
</g>
</g>
<!-- Node1&#45;&gt;Node13 -->
<g id="edge16_Node000001_Node000013" class="edge">
<title>Node1&#45;&gt;Node13</title>
<g id="a_edge16_Node000001_Node000013"><a xlink:title=" ">
<path fill="none" stroke="#63b8ff" d="M970.43,-176.59C934.16,-164.6 889.35,-149.77 858.07,-139.42"/>
<polygon fill="#63b8ff" stroke="#63b8ff" points="859.22,-136.12 848.63,-136.3 857.02,-142.77 859.22,-136.12"/>
</a>
</g>
</g>
<!-- Node22 -->
<g id="Node000022" class="node">
<title>Node22</title>
<g id="a_Node000022"><a xlink:href="../../d5/d3a/InstLoc_8hpp.html" target="_top" xlink:title=" ">
<polygon fill="white" stroke="#666666" points="1465.75,-141 1329.75,-141 1329.75,-110.5 1465.75,-110.5 1465.75,-141"/>
<text text-anchor="start" x="1337.75" y="-127.5" font-family="Helvetica,sans-Serif" font-size="10.00">Ark/Compiler/Intermediate</text>
<text text-anchor="middle" x="1397.75" y="-116.25" font-family="Helvetica,sans-Serif" font-size="10.00">Representation/InstLoc.hpp</text>
</a>
</g>
</g>
<!-- Node1&#45;&gt;Node22 -->
<g id="edge37_Node000001_Node000022" class="edge">
<title>Node1&#45;&gt;Node22</title>
<g id="a_edge37_Node000001_Node000022"><a xlink:title=" ">
<path fill="none" stroke="#63b8ff" d="M1117.1,-180.52C1177.82,-168.89 1258.83,-153.37 1318.2,-141.99"/>
<polygon fill="#63b8ff" stroke="#63b8ff" points="1318.75,-145.45 1327.92,-140.13 1317.44,-138.57 1318.75,-145.45"/>
</a>
</g>
</g>
<!-- Node7&#45;&gt;Node2 -->
<g id="edge9_Node000007_Node000002" class="edge">
<title>Node7&#45;&gt;Node2</title>
<g id="a_edge9_Node000007_Node000002"><a xlink:title=" ">
<path fill="none" stroke="#63b8ff" d="M278.68,-115.63C274.47,-101.3 268.81,-73.29 281.75,-55.25 304.13,-24.05 349.5,-14.39 380.75,-11.55"/>
<polygon fill="#63b8ff" stroke="#63b8ff" points="380.72,-15.06 390.45,-10.87 380.23,-8.07 380.72,-15.06"/>
</a>
</g>
</g>
<!-- Node7&#45;&gt;Node4 -->
<g id="edge10_Node000007_Node000004" class="edge">
<title>Node7&#45;&gt;Node4</title>
<g id="a_edge10_Node000007_Node000004"><a xlink:title=" ">
<path fill="none" stroke="#63b8ff" d="M274.32,-115.7C266.78,-106.07 255.31,-90.08 248.75,-74.5 242.87,-60.53 239.32,-43.76 237.26,-30.91"/>
<polygon fill="#63b8ff" stroke="#63b8ff" points="240.74,-30.53 235.88,-21.11 233.81,-31.5 240.74,-30.53"/>
</a>
</g>
</g>
<!-- Node8 -->
<g id="Node000008" class="node">
<title>Node8</title>
<g id="a_Node000008"><a xlink:title=" ">
<polygon fill="#e0e0e0" stroke="#999999" points="328.62,-74.5 290.88,-74.5 290.88,-55.25 328.62,-55.25 328.62,-74.5"/>
<text text-anchor="middle" x="309.75" y="-61" font-family="Helvetica,sans-Serif" font-size="10.00">array</text>
</a>
</g>
</g>
<!-- Node7&#45;&gt;Node8 -->
<g id="edge7_Node000007_Node000008" class="edge">
<title>Node7&#45;&gt;Node8</title>
<g id="a_edge7_Node000007_Node000008"><a xlink:title=" ">
<path fill="none" stroke="#63b8ff" d="M286,-115.81C289.87,-107.68 295.7,-95.42 300.62,-85.08"/>
<polygon fill="#63b8ff" stroke="#63b8ff" points="303.67,-86.8 304.81,-76.27 297.35,-83.8 303.67,-86.8"/>
</a>
</g>
</g>
<!-- Node9 -->
<g id="Node000009" class="node">
<title>Node9</title>
<g id="a_Node000009"><a xlink:title=" ">
<polygon fill="#e0e0e0" stroke="#999999" points="65.5,-19.25 0,-19.25 0,0 65.5,0 65.5,-19.25"/>
<text text-anchor="middle" x="32.75" y="-5.75" font-family="Helvetica,sans-Serif" font-size="10.00">string_view</text>
</a>
</g>
</g>
<!-- Node7&#45;&gt;Node9 -->
<g id="edge8_Node000007_Node000009" class="edge">
<title>Node7&#45;&gt;Node9</title>
<g id="a_edge8_Node000007_Node000009"><a xlink:title=" ">
<path fill="none" stroke="#63b8ff" d="M214.01,-117.6C154.89,-110.02 75.04,-96.12 51.75,-74.5 39.68,-63.3 35.16,-44.81 33.52,-30.6"/>
<polygon fill="#63b8ff" stroke="#63b8ff" points="37.04,-30.73 32.82,-21.01 30.06,-31.24 37.04,-30.73"/>
</a>
</g>
</g>
<!-- Node10 -->
<g id="Node000010" class="node">
<title>Node10</title>
<g id="a_Node000010"><a xlink:href="../../d6/de9/Constants_8hpp.html" target="_top" xlink:title="Constants used by ArkScript.">
<polygon fill="white" stroke="#666666" points="158.62,-74.5 60.88,-74.5 60.88,-55.25 158.62,-55.25 158.62,-74.5"/>
<text text-anchor="middle" x="109.75" y="-61" font-family="Helvetica,sans-Serif" font-size="10.00">Ark/Constants.hpp</text>
</a>
</g>
</g>
<!-- Node7&#45;&gt;Node10 -->
<g id="edge11_Node000007_Node000010" class="edge">
<title>Node7&#45;&gt;Node10</title>
<g id="a_edge11_Node000007_Node000010"><a xlink:title=" ">
<path fill="none" stroke="#63b8ff" d="M255.25,-115.68C226.21,-105.74 179.42,-89.72 146.76,-78.54"/>
<polygon fill="#63b8ff" stroke="#63b8ff" points="148.3,-75.37 137.71,-75.45 146.04,-82 148.3,-75.37"/>
</a>
</g>
</g>
<!-- Node10&#45;&gt;Node4 -->
<g id="edge14_Node000010_Node000004" class="edge">
<title>Node10&#45;&gt;Node4</title>
<g id="a_edge14_Node000010_Node000004"><a xlink:title=" ">
<path fill="none" stroke="#63b8ff" d="M130.95,-54.84C150.71,-46.43 180.42,-33.77 203,-24.15"/>
<polygon fill="#63b8ff" stroke="#63b8ff" points="204.22,-27.43 212.05,-20.3 201.48,-20.99 204.22,-27.43"/>
</a>
</g>
</g>
<!-- Node10&#45;&gt;Node9 -->
<g id="edge12_Node000010_Node000009" class="edge">
<title>Node10&#45;&gt;Node9</title>
<g id="a_edge12_Node000010_Node000009"><a xlink:title=" ">
<path fill="none" stroke="#63b8ff" d="M96.69,-54.84C85.29,-46.96 68.52,-35.36 55.01,-26.02"/>
<polygon fill="#63b8ff" stroke="#63b8ff" points="57.34,-23.37 47.12,-20.56 53.35,-29.13 57.34,-23.37"/>
</a>
</g>
</g>
<!-- Node11 -->
<g id="Node000011" class="node">
<title>Node11</title>
<g id="a_Node000011"><a xlink:title=" ">
<polygon fill="#e0e0e0" stroke="#999999" points="122.38,-19.25 83.12,-19.25 83.12,0 122.38,0 122.38,-19.25"/>
<text text-anchor="middle" x="102.75" y="-5.75" font-family="Helvetica,sans-Serif" font-size="10.00">limits</text>
</a>
</g>
</g>
<!-- Node10&#45;&gt;Node11 -->
<g id="edge13_Node000010_Node000011" class="edge">
<title>Node10&#45;&gt;Node11</title>
<g id="a_edge13_Node000010_Node000011"><a xlink:title=" ">
<path fill="none" stroke="#63b8ff" d="M108.59,-55.08C107.73,-48.49 106.51,-39.21 105.41,-30.82"/>
<polygon fill="#63b8ff" stroke="#63b8ff" points="108.9,-30.57 104.13,-21.11 101.96,-31.48 108.9,-30.57"/>
</a>
</g>
</g>
<!-- Node12 -->
<g id="Node000012" class="node">
<title>Node12</title>
<g id="a_Node000012"><a xlink:title=" ">
<polygon fill="#e0e0e0" stroke="#999999" points="188.88,-19.25 140.62,-19.25 140.62,0 188.88,0 188.88,-19.25"/>
<text text-anchor="middle" x="164.75" y="-5.75" font-family="Helvetica,sans-Serif" font-size="10.00">cstddef</text>
</a>
</g>
</g>
<!-- Node10&#45;&gt;Node12 -->
<g id="edge15_Node000010_Node000012" class="edge">
<title>Node10&#45;&gt;Node12</title>
<g id="a_edge15_Node000010_Node000012"><a xlink:title=" ">
<path fill="none" stroke="#63b8ff" d="M118.83,-55.08C126.59,-47.57 137.96,-36.56 147.45,-27.38"/>
<polygon fill="#63b8ff" stroke="#63b8ff" points="149.63,-30.13 154.38,-20.66 144.76,-25.1 149.63,-30.13"/>
</a>
</g>
</g>
<!-- Node13&#45;&gt;Node2 -->
<g id="edge17_Node000013_Node000002" class="edge">
<title>Node13&#45;&gt;Node2</title>
<g id="a_edge17_Node000013_Node000002"><a xlink:title=" ">
<path fill="none" stroke="#63b8ff" d="M771.93,-123.31C684.56,-119.85 503.36,-108.68 451.75,-74.5 435.96,-64.04 425.79,-44.58 419.98,-29.88"/>
<polygon fill="#63b8ff" stroke="#63b8ff" points="423.39,-29.04 416.74,-20.79 416.8,-31.39 423.39,-29.04"/>
</a>
</g>
</g>
<!-- Node13&#45;&gt;Node3 -->
<g id="edge19_Node000013_Node000003" class="edge">
<title>Node13&#45;&gt;Node3</title>
<g id="a_edge19_Node000013_Node000003"><a xlink:title=" ">
<path fill="none" stroke="#63b8ff" d="M867.49,-121.36C940.74,-115.38 1076.61,-101.02 1116.75,-74.5 1132.89,-63.84 1144,-44.41 1150.54,-29.77"/>
<polygon fill="#63b8ff" stroke="#63b8ff" points="1153.7,-31.29 1154.24,-20.71 1147.22,-28.64 1153.7,-31.29"/>
</a>
</g>
</g>
<!-- Node13&#45;&gt;Node4 -->
<g id="edge20_Node000013_Node000004" class="edge">
<title>Node13&#45;&gt;Node4</title>
<g id="a_edge20_Node000013_Node000004"><a xlink:title=" ">
<path fill="none" stroke="#63b8ff" d="M772.12,-121.52C698.13,-115.85 551.44,-102.01 429.75,-74.5 371.88,-61.42 306.76,-38.32 268.33,-23.78"/>
<polygon fill="#63b8ff" stroke="#63b8ff" points="269.77,-20.58 259.18,-20.28 267.27,-27.12 269.77,-20.58"/>
</a>
</g>
</g>
<!-- Node13&#45;&gt;Node6 -->
<g id="edge36_Node000013_Node000006" class="edge">
<title>Node13&#45;&gt;Node6</title>
<g id="a_edge36_Node000013_Node000006"><a xlink:title=" ">
<path fill="none" stroke="#63b8ff" d="M867.57,-123.33C939.84,-120.07 1071.56,-109.37 1100.75,-74.5 1115.07,-57.4 1092.92,-38.21 1072.4,-25.37"/>
<polygon fill="#63b8ff" stroke="#63b8ff" points="1074.32,-22.43 1063.92,-20.38 1070.77,-28.47 1074.32,-22.43"/>
</a>
</g>
</g>
<!-- Node13&#45;&gt;Node8 -->
<g id="edge21_Node000013_Node000008" class="edge">
<title>Node13&#45;&gt;Node8</title>
<g id="a_edge21_Node000013_Node000008"><a xlink:title=" ">
<path fill="none" stroke="#63b8ff" d="M772.02,-122.11C685.76,-116.81 498.4,-102.87 342.75,-74.5 341.76,-74.32 340.75,-74.12 339.73,-73.92"/>
<polygon fill="#63b8ff" stroke="#63b8ff" points="340.84,-70.58 330.31,-71.73 339.26,-77.4 340.84,-70.58"/>
</a>
</g>
</g>
<!-- Node14 -->
<g id="Node000014" class="node">
<title>Node14</title>
<g id="a_Node000014"><a xlink:title=" ">
<polygon fill="#e0e0e0" stroke="#999999" points="942.38,-74.5 897.12,-74.5 897.12,-55.25 942.38,-55.25 942.38,-74.5"/>
<text text-anchor="middle" x="919.75" y="-61" font-family="Helvetica,sans-Serif" font-size="10.00">variant</text>
</a>
</g>
</g>
<!-- Node13&#45;&gt;Node14 -->
<g id="edge18_Node000013_Node000014" class="edge">
<title>Node13&#45;&gt;Node14</title>
<g id="a_edge18_Node000013_Node000014"><a xlink:title=" ">
<path fill="none" stroke="#63b8ff" d="M834.94,-115.81C850.8,-106.47 875.93,-91.67 894.73,-80.61"/>
<polygon fill="#63b8ff" stroke="#63b8ff" points="896.27,-83.76 903.11,-75.67 892.72,-77.73 896.27,-83.76"/>
</a>
</g>
</g>
<!-- Node15 -->
<g id="Node000015" class="node">
<title>Node15</title>
<g id="a_Node000015"><a xlink:title=" ">
<polygon fill="#e0e0e0" stroke="#999999" points="922.38,-19.25 871.12,-19.25 871.12,0 922.38,0 922.38,-19.25"/>
<text text-anchor="middle" x="896.75" y="-5.75" font-family="Helvetica,sans-Serif" font-size="10.00">memory</text>
</a>
</g>
</g>
<!-- Node13&#45;&gt;Node15 -->
<g id="edge22_Node000013_Node000015" class="edge">
<title>Node13&#45;&gt;Node15</title>
<g id="a_edge22_Node000013_Node000015"><a xlink:title=" ">
<path fill="none" stroke="#63b8ff" d="M825.79,-115.79C838.39,-97.13 867.66,-53.73 884.41,-28.91"/>
<polygon fill="#63b8ff" stroke="#63b8ff" points="887.2,-31.04 889.89,-20.79 881.4,-27.13 887.2,-31.04"/>
</a>
</g>
</g>
<!-- Node16 -->
<g id="Node000016" class="node">
<title>Node16</title>
<g id="a_Node000016"><a xlink:title=" ">
<polygon fill="#e0e0e0" stroke="#999999" points="682.62,-74.5 620.88,-74.5 620.88,-55.25 682.62,-55.25 682.62,-74.5"/>
<text text-anchor="middle" x="651.75" y="-61" font-family="Helvetica,sans-Serif" font-size="10.00">type_traits</text>
</a>
</g>
</g>
<!-- Node13&#45;&gt;Node16 -->
<g id="edge23_Node000013_Node000016" class="edge">
<title>Node13&#45;&gt;Node16</title>
<g id="a_edge23_Node000013_Node000016"><a xlink:title=" ">
<path fill="none" stroke="#63b8ff" d="M793.87,-115.68C765.63,-105.78 720.2,-89.86 688.32,-78.69"/>
<polygon fill="#63b8ff" stroke="#63b8ff" points="689.68,-75.46 679.09,-75.46 687.37,-82.07 689.68,-75.46"/>
</a>
</g>
</g>
<!-- Node17 -->
<g id="Node000017" class="node">
<title>Node17</title>
<g id="a_Node000017"><a xlink:href="../../dc/dd5/Closure_8hpp.html" target="_top" xlink:title="Subtype of the value type, handling closures.">
<polygon fill="white" stroke="#666666" points="1091.5,-74.5 960,-74.5 960,-55.25 1091.5,-55.25 1091.5,-74.5"/>
<text text-anchor="middle" x="1025.75" y="-61" font-family="Helvetica,sans-Serif" font-size="10.00">Ark/VM/Value/Closure.hpp</text>
</a>
</g>
</g>
<!-- Node13&#45;&gt;Node17 -->
<g id="edge24_Node000013_Node000017" class="edge">
<title>Node13&#45;&gt;Node17</title>
<g id="a_edge24_Node000013_Node000017"><a xlink:title=" ">
<path fill="none" stroke="#63b8ff" d="M851.49,-115.68C886.72,-105.61 943.77,-89.3 982.94,-78.11"/>
<polygon fill="#63b8ff" stroke="#63b8ff" points="983.87,-81.48 992.52,-75.37 981.95,-74.75 983.87,-81.48"/>
</a>
</g>
</g>
<!-- Node18 -->
<g id="Node000018" class="node">
<title>Node18</title>
<g id="a_Node000018"><a xlink:href="../../dc/d3d/UserType_8hpp.html" target="_top" xlink:title="Subtype of the value, capable of handling any C++ type.">
<polygon fill="white" stroke="#666666" points="840.62,-74.5 700.88,-74.5 700.88,-55.25 840.62,-55.25 840.62,-74.5"/>
<text text-anchor="middle" x="770.75" y="-61" font-family="Helvetica,sans-Serif" font-size="10.00">Ark/VM/Value/UserType.hpp</text>
</a>
</g>
</g>
<!-- Node13&#45;&gt;Node18 -->
<g id="edge28_Node000013_Node000018" class="edge">
<title>Node13&#45;&gt;Node18</title>
<g id="a_edge28_Node000013_Node000018"><a xlink:title=" ">
<path fill="none" stroke="#63b8ff" d="M812.31,-115.81C805.18,-107.25 794.24,-94.1 785.37,-83.45"/>
<polygon fill="#63b8ff" stroke="#63b8ff" points="788.32,-81.51 779.23,-76.06 782.94,-85.99 788.32,-81.51"/>
</a>
</g>
</g>
<!-- Node21 -->
<g id="Node000021" class="node">
<title>Node21</title>
<g id="a_Node000021"><a xlink:href="../../da/dcf/Procedure_8hpp.html" target="_top" xlink:title="Wrapper object for user&#45;defined functions.">
<polygon fill="white" stroke="#666666" points="602.75,-74.5 460.75,-74.5 460.75,-55.25 602.75,-55.25 602.75,-74.5"/>
<text text-anchor="middle" x="531.75" y="-61" font-family="Helvetica,sans-Serif" font-size="10.00">Ark/VM/Value/Procedure.hpp</text>
</a>
</g>
</g>
<!-- Node13&#45;&gt;Node21 -->
<g id="edge33_Node000013_Node000021" class="edge">
<title>Node13&#45;&gt;Node21</title>
<g id="a_edge33_Node000013_Node000021"><a xlink:title=" ">
<path fill="none" stroke="#63b8ff" d="M775.38,-115.68C724.85,-105.35 642.23,-88.46 587.42,-77.26"/>
<polygon fill="#63b8ff" stroke="#63b8ff" points="588.15,-73.83 577.65,-75.26 586.75,-80.69 588.15,-73.83"/>
</a>
</g>
</g>
<!-- Node17&#45;&gt;Node3 -->
<g id="edge26_Node000017_Node000003" class="edge">
<title>Node17&#45;&gt;Node3</title>
<g id="a_edge26_Node000017_Node000003"><a xlink:title=" ">
<path fill="none" stroke="#63b8ff" d="M1048.14,-54.84C1069.83,-46.09 1102.89,-32.76 1127.03,-23.02"/>
<polygon fill="#63b8ff" stroke="#63b8ff" points="1128.05,-26.38 1136.02,-19.39 1125.43,-19.89 1128.05,-26.38"/>
</a>
</g>
</g>
<!-- Node17&#45;&gt;Node6 -->
<g id="edge27_Node000017_Node000006" class="edge">
<title>Node17&#45;&gt;Node6</title>
<g id="a_edge27_Node000017_Node000006"><a xlink:title=" ">
<path fill="none" stroke="#63b8ff" d="M1028.89,-55.08C1031.29,-48.34 1034.71,-38.77 1037.75,-30.24"/>
<polygon fill="#63b8ff" stroke="#63b8ff" points="1040.97,-31.63 1041.04,-21.03 1034.38,-29.28 1040.97,-31.63"/>
</a>
</g>
</g>
<!-- Node17&#45;&gt;Node15 -->
<g id="edge25_Node000017_Node000015" class="edge">
<title>Node17&#45;&gt;Node15</title>
<g id="a_edge25_Node000017_Node000015"><a xlink:title=" ">
<path fill="none" stroke="#63b8ff" d="M1003.87,-54.84C983.39,-46.39 952.54,-33.65 929.19,-24.02"/>
<polygon fill="#63b8ff" stroke="#63b8ff" points="930.72,-20.86 920.14,-20.28 928.05,-27.33 930.72,-20.86"/>
</a>
</g>
</g>
<!-- Node18&#45;&gt;Node4 -->
<g id="edge30_Node000018_Node000004" class="edge">
<title>Node18&#45;&gt;Node4</title>
<g id="a_edge30_Node000018_Node000004"><a xlink:title=" ">
<path fill="none" stroke="#63b8ff" d="M700.54,-56.17C697.57,-55.86 694.63,-55.55 691.75,-55.25 537.51,-39.3 353.82,-21.83 274.48,-14.35"/>
<polygon fill="#63b8ff" stroke="#63b8ff" points="274.9,-10.87 264.61,-13.42 274.24,-17.84 274.9,-10.87"/>
</a>
</g>
</g>
<!-- Node18&#45;&gt;Node6 -->
<g id="edge32_Node000018_Node000006" class="edge">
<title>Node18&#45;&gt;Node6</title>
<g id="a_edge32_Node000018_Node000006"><a xlink:title=" ">
<path fill="none" stroke="#63b8ff" d="M817.54,-54.78C864.43,-45.67 936.71,-31.62 987.11,-21.83"/>
<polygon fill="#63b8ff" stroke="#63b8ff" points="987.52,-25.31 996.67,-19.97 986.18,-18.44 987.52,-25.31"/>
</a>
</g>
</g>
<!-- Node19 -->
<g id="Node000019" class="node">
<title>Node19</title>
<g id="a_Node000019"><a xlink:title=" ">
<polygon fill="#e0e0e0" stroke="#999999" points="797.5,-19.25 744,-19.25 744,0 797.5,0 797.5,-19.25"/>
<text text-anchor="middle" x="770.75" y="-5.75" font-family="Helvetica,sans-Serif" font-size="10.00">iostream</text>
</a>
</g>
</g>
<!-- Node18&#45;&gt;Node19 -->
<g id="edge29_Node000018_Node000019" class="edge">
<title>Node18&#45;&gt;Node19</title>
<g id="a_edge29_Node000018_Node000019"><a xlink:title=" ">
<path fill="none" stroke="#63b8ff" d="M770.75,-55.08C770.75,-48.57 770.75,-39.42 770.75,-31.12"/>
<polygon fill="#63b8ff" stroke="#63b8ff" points="774.25,-31.12 770.75,-21.12 767.25,-31.12 774.25,-31.12"/>
</a>
</g>
</g>
<!-- Node20 -->
<g id="Node000020" class="node">
<title>Node20</title>
<g id="a_Node000020"><a xlink:title=" ">
<polygon fill="#e0e0e0" stroke="#999999" points="642.75,-19.25 584.75,-19.25 584.75,0 642.75,0 642.75,-19.25"/>
<text text-anchor="middle" x="613.75" y="-5.75" font-family="Helvetica,sans-Serif" font-size="10.00">functional</text>
</a>
</g>
</g>
<!-- Node18&#45;&gt;Node20 -->
<g id="edge31_Node000018_Node000020" class="edge">
<title>Node18&#45;&gt;Node20</title>
<g id="a_edge31_Node000018_Node000020"><a xlink:title=" ">
<path fill="none" stroke="#63b8ff" d="M744.12,-54.84C718.63,-46.2 679.94,-33.07 651.32,-23.37"/>
<polygon fill="#63b8ff" stroke="#63b8ff" points="652.54,-20.09 641.95,-20.19 650.29,-26.72 652.54,-20.09"/>
</a>
</g>
</g>
<!-- Node21&#45;&gt;Node2 -->
<g id="edge35_Node000021_Node000002" class="edge">
<title>Node21&#45;&gt;Node2</title>
<g id="a_edge35_Node000021_Node000002"><a xlink:title=" ">
<path fill="none" stroke="#63b8ff" d="M511.73,-54.84C493.26,-46.5 465.54,-34 444.3,-24.41"/>
<polygon fill="#63b8ff" stroke="#63b8ff" points="445.8,-21.25 435.24,-20.33 442.92,-27.63 445.8,-21.25"/>
</a>
</g>
</g>
<!-- Node21&#45;&gt;Node20 -->
<g id="edge34_Node000021_Node000020" class="edge">
<title>Node21&#45;&gt;Node20</title>
<g id="a_edge34_Node000021_Node000020"><a xlink:title=" ">
<path fill="none" stroke="#63b8ff" d="M545.66,-54.84C557.91,-46.89 576,-35.14 590.46,-25.75"/>
<polygon fill="#63b8ff" stroke="#63b8ff" points="592.02,-28.91 598.5,-20.53 588.21,-23.04 592.02,-28.91"/>
</a>
</g>
</g>
<!-- Node23 -->
<g id="Node000023" class="node">
<title>Node23</title>
<g id="a_Node000023"><a xlink:title=" ">
<polygon fill="#e0e0e0" stroke="#999999" points="1420.38,-74.5 1375.12,-74.5 1375.12,-55.25 1420.38,-55.25 1420.38,-74.5"/>
<text text-anchor="middle" x="1397.75" y="-61" font-family="Helvetica,sans-Serif" font-size="10.00">cstdint</text>
</a>
</g>
</g>
<!-- Node22&#45;&gt;Node23 -->
<g id="edge38_Node000022_Node000023" class="edge">
<title>Node22&#45;&gt;Node23</title>
<g id="a_edge38_Node000022_Node000023"><a xlink:title=" ">
<path fill="none" stroke="#63b8ff" d="M1397.75,-110.2C1397.75,-102.96 1397.75,-94.09 1397.75,-86.19"/>
<polygon fill="#63b8ff" stroke="#63b8ff" points="1401.25,-86.46 1397.75,-76.46 1394.25,-86.46 1401.25,-86.46"/>
</a>
</g>
</g>
</g>
</svg>
