<?xml version="1.0" encoding="UTF-8" standalone="no"?>
<!DOCTYPE svg PUBLIC "-//W3C//DTD SVG 1.1//EN"
 "http://www.w3.org/Graphics/SVG/1.1/DTD/svg11.dtd">
<!-- Generated by graphviz version 12.2.0 (20241103.1931)
 -->
<!-- Title: /Users/fola/Documents/ArkScript/Ark/include/Ark/Compiler/BytecodeReader.hpp Pages: 1 -->
<!--zoomable 227 -->

<svg id="main" version="1.1" xmlns="http://www.w3.org/2000/svg" xmlns:xlink="http://www.w3.org/1999/xlink" xml:space="preserve" onload="init(evt)">

<style type="text/css"><![CDATA[
.node, .edge {opacity: 0.7;}
.node.selected, .edge.selected {opacity: 1;}
.edge:hover path { stroke: red; }
.edge:hover polygon { stroke: red; fill: red; }
]]></style>

<defs>
  <circle id="rim" cx="0" cy="0" r="7"/>
  <circle id="rim2" cx="0" cy="0" r="3.5"/>
  <g id="zoomPlus">
    <use xlink:href="#rim" fill="#404040"><set attributeName="fill" to="#808080" begin="zoomplus.mouseover" end="zoomplus.mouseout"/></use>
    <path d="M-4,0h8M0,-4v8" fill="none" stroke="white" stroke-width="1.5" pointer-events="none"/>
  </g>
  <g id="zoomMin">
    <use xlink:href="#rim" fill="#404040"><set attributeName="fill" to="#808080" begin="zoomminus.mouseover" end="zoomminus.mouseout"/></use>
    <path d="M-4,0h8" fill="none" stroke="white" stroke-width="1.5" pointer-events="none"/>
  </g>
  <g id="arrowUp" transform="translate(30 24)">
    <use xlink:href="#rim"/>
    <path pointer-events="none" fill="none" stroke="white" stroke-width="1.5" d="M0,-3.0v7 M-2.5,-0.5L0,-3.0L2.5,-0.5"/>
  </g>
  <g id="arrowRight" transform="rotate(90) translate(36 -43)">
    <use xlink:href="#rim"/>
    <path pointer-events="none" fill="none" stroke="white" stroke-width="1.5" d="M0,-3.0v7 M-2.5,-0.5L0,-3.0L2.5,-0.5"/>
  </g>
  <g id="arrowDown" transform="rotate(180) translate(-30 -48)">
    <use xlink:href="#rim"/>
    <path pointer-events="none" fill="none" stroke="white" stroke-width="1.5" d="M0,-3.0v7 M-2.5,-0.5L0,-3.0L2.5,-0.5"/>
  </g>
  <g id="arrowLeft" transform="rotate(270) translate(-36 17)">
    <use xlink:href="#rim"/>
    <path pointer-events="none" fill="none" stroke="white" stroke-width="1.5" d="M0,-3.0v7 M-2.5,-0.5L0,-3.0L2.5,-0.5"/>
  </g>
  <g id="resetDef">
    <use xlink:href="#rim2" fill="#404040"><set attributeName="fill" to="#808080" begin="reset.mouseover" end="reset.mouseout"/></use>
  </g>
</defs>
<script type="application/ecmascript">
var viewWidth = 1293;
var viewHeight = 227;
var sectionId = 'dynsection-0';
</script>
<script type="application/ecmascript" xlink:href="../../svg.min.js"/>
<svg id="graph" class="graph">
<g id="viewport">
<title>/Users/fola/Documents/ArkScript/Ark/include/Ark/Compiler/BytecodeReader.hpp</title>
<!-- Node1 -->
<g id="Node000001" class="node">
<title>Node1</title>
<g id="a_Node000001"><a xlink:title="A bytecode disassembler for ArkScript.">
<polygon fill="#999999" stroke="#666666" points="690.62,-218.75 520.88,-218.75 520.88,-177 690.62,-177 690.62,-218.75"/>
<text text-anchor="start" x="528.88" y="-205.25" font-family="Helvetica,sans-Serif" font-size="10.00">/Users/fola/Documents</text>
<text text-anchor="start" x="528.88" y="-194" font-family="Helvetica,sans-Serif" font-size="10.00">/ArkScript/Ark/include</text>
<text text-anchor="middle" x="605.75" y="-182.75" font-family="Helvetica,sans-Serif" font-size="10.00">/Ark/Compiler/BytecodeReader.hpp</text>
</a>
</g>
</g>
<!-- Node2 -->
<g id="Node000002" class="node">
<title>Node2</title>
<g id="a_Node000002"><a xlink:title=" ">
<polygon fill="#e0e0e0" stroke="#999999" points="940.25,-19.25 897.25,-19.25 897.25,0 940.25,0 940.25,-19.25"/>
<text text-anchor="middle" x="918.75" y="-5.75" font-family="Helvetica,sans-Serif" font-size="10.00">vector</text>
</a>
</g>
</g>
<!-- Node1&#45;&gt;Node2 -->
<g id="edge1_Node000001_Node000002" class="edge">
<title>Node1&#45;&gt;Node2</title>
<g id="a_edge1_Node000001_Node000002"><a xlink:title=" ">
<path fill="none" stroke="#63b8ff" d="M691.01,-188.34C819.12,-173.57 1051.64,-138.48 1101.75,-74.5 1107.03,-67.76 1107.03,-61.98 1101.75,-55.25 1092.45,-43.41 1001.76,-25.5 951.64,-16.39"/>
<polygon fill="#63b8ff" stroke="#63b8ff" points="952.38,-12.97 941.92,-14.64 951.15,-19.85 952.38,-12.97"/>
</a>
</g>
</g>
<!-- Node3 -->
<g id="Node000003" class="node">
<title>Node3</title>
<g id="a_Node000003"><a xlink:title=" ">
<polygon fill="#e0e0e0" stroke="#999999" points="802.75,-19.25 762.75,-19.25 762.75,0 802.75,0 802.75,-19.25"/>
<text text-anchor="middle" x="782.75" y="-5.75" font-family="Helvetica,sans-Serif" font-size="10.00">string</text>
</a>
</g>
</g>
<!-- Node1&#45;&gt;Node3 -->
<g id="edge2_Node000001_Node000003" class="edge">
<title>Node1&#45;&gt;Node3</title>
<g id="a_edge2_Node000001_Node000003"><a xlink:title=" ">
<path fill="none" stroke="#63b8ff" d="M690.98,-181.52C751.15,-165.75 827.59,-134.63 865.75,-74.5 881.64,-49.45 843.57,-30.39 813.85,-19.85"/>
<polygon fill="#63b8ff" stroke="#63b8ff" points="815.04,-16.56 804.44,-16.72 812.82,-23.2 815.04,-16.56"/>
</a>
</g>
</g>
<!-- Node4 -->
<g id="Node000004" class="node">
<title>Node4</title>
<g id="a_Node000004"><a xlink:title=" ">
<polygon fill="#e0e0e0" stroke="#999999" points="256.62,-19.25 200.88,-19.25 200.88,0 256.62,0 256.62,-19.25"/>
<text text-anchor="middle" x="228.75" y="-5.75" font-family="Helvetica,sans-Serif" font-size="10.00">cinttypes</text>
</a>
</g>
</g>
<!-- Node1&#45;&gt;Node4 -->
<g id="edge3_Node000001_Node000004" class="edge">
<title>Node1&#45;&gt;Node4</title>
<g id="a_edge3_Node000001_Node000004"><a xlink:title=" ">
<path fill="none" stroke="#63b8ff" d="M520.62,-197.61C414.78,-196.5 243.11,-187.34 202.75,-141 175.18,-109.35 199.9,-56.87 216.53,-29.13"/>
<polygon fill="#63b8ff" stroke="#63b8ff" points="219.43,-31.11 221.78,-20.78 213.5,-27.39 219.43,-31.11"/>
</a>
</g>
</g>
<!-- Node5 -->
<g id="Node000005" class="node">
<title>Node5</title>
<g id="a_Node000005"><a xlink:title=" ">
<polygon fill="#e0e0e0" stroke="#999999" points="585.62,-135.38 535.88,-135.38 535.88,-116.12 585.62,-116.12 585.62,-135.38"/>
<text text-anchor="middle" x="560.75" y="-121.88" font-family="Helvetica,sans-Serif" font-size="10.00">optional</text>
</a>
</g>
</g>
<!-- Node1&#45;&gt;Node5 -->
<g id="edge4_Node000001_Node000005" class="edge">
<title>Node1&#45;&gt;Node5</title>
<g id="a_edge4_Node000001_Node000005"><a xlink:title=" ">
<path fill="none" stroke="#63b8ff" d="M592.73,-176.59C586.33,-166.61 578.67,-154.67 572.45,-144.98"/>
<polygon fill="#63b8ff" stroke="#63b8ff" points="575.56,-143.35 567.22,-136.83 569.67,-147.13 575.56,-143.35"/>
</a>
</g>
</g>
<!-- Node6 -->
<g id="Node000006" class="node">
<title>Node6</title>
<g id="a_Node000006"><a xlink:href="../../d5/d40/Platform_8hpp.html" target="_top" xlink:title="ArkScript configuration macros.">
<polygon fill="white" stroke="#666666" points="511.5,-19.25 422,-19.25 422,0 511.5,0 511.5,-19.25"/>
<text text-anchor="middle" x="466.75" y="-5.75" font-family="Helvetica,sans-Serif" font-size="10.00">Ark/Platform.hpp</text>
</a>
</g>
</g>
<!-- Node1&#45;&gt;Node6 -->
<g id="edge5_Node000001_Node000006" class="edge">
<title>Node1&#45;&gt;Node6</title>
<g id="a_edge5_Node000001_Node000006"><a xlink:title=" ">
<path fill="none" stroke="#63b8ff" d="M526.05,-176.56C474.47,-158.83 411.26,-127.4 379.75,-74.5 366.02,-51.45 394.87,-34.2 422.97,-23.47"/>
<polygon fill="#63b8ff" stroke="#63b8ff" points="423.93,-26.84 432.18,-20.19 421.59,-20.25 423.93,-26.84"/>
</a>
</g>
</g>
<!-- Node7 -->
<g id="Node000007" class="node">
<title>Node7</title>
<g id="a_Node000007"><a xlink:href="../../d8/ddd/Common_8hpp.html" target="_top" xlink:title="Common code for the compiler.">
<polygon fill="white" stroke="#666666" points="346,-135.38 211.5,-135.38 211.5,-116.12 346,-116.12 346,-135.38"/>
<text text-anchor="middle" x="278.75" y="-121.88" font-family="Helvetica,sans-Serif" font-size="10.00">Ark/Compiler/Common.hpp</text>
</a>
</g>
</g>
<!-- Node1&#45;&gt;Node7 -->
<g id="edge6_Node000001_Node000007" class="edge">
<title>Node1&#45;&gt;Node7</title>
<g id="a_edge6_Node000001_Node000007"><a xlink:title=" ">
<path fill="none" stroke="#63b8ff" d="M520.69,-178.63C461.05,-165.84 383.16,-149.14 332.09,-138.19"/>
<polygon fill="#63b8ff" stroke="#63b8ff" points="332.97,-134.8 322.46,-136.12 331.5,-141.64 332.97,-134.8"/>
</a>
</g>
</g>
<!-- Node12 -->
<g id="Node000012" class="node">
<title>Node12</title>
<g id="a_Node000012"><a xlink:href="../../de/dfd/Value_8hpp.html" target="_top" xlink:title="Default value type handled by the virtual machine.">
<polygon fill="white" stroke="#666666" points="698.12,-135.38 603.38,-135.38 603.38,-116.12 698.12,-116.12 698.12,-135.38"/>
<text text-anchor="middle" x="650.75" y="-121.88" font-family="Helvetica,sans-Serif" font-size="10.00">Ark/VM/Value.hpp</text>
</a>
</g>
</g>
<!-- Node1&#45;&gt;Node12 -->
<g id="edge15_Node000001_Node000012" class="edge">
<title>Node1&#45;&gt;Node12</title>
<g id="a_edge15_Node000001_Node000012"><a xlink:title=" ">
<path fill="none" stroke="#63b8ff" d="M618.77,-176.59C625.17,-166.61 632.83,-154.67 639.05,-144.98"/>
<polygon fill="#63b8ff" stroke="#63b8ff" points="641.83,-147.13 644.28,-136.83 635.94,-143.35 641.83,-147.13"/>
</a>
</g>
</g>
<!-- Node20 -->
<g id="Node000020" class="node">
<title>Node20</title>
<g id="a_Node000020"><a xlink:href="../../d5/d3a/InstLoc_8hpp.html" target="_top" xlink:title=" ">
<polygon fill="white" stroke="#666666" points="1284.75,-141 1148.75,-141 1148.75,-110.5 1284.75,-110.5 1284.75,-141"/>
<text text-anchor="start" x="1156.75" y="-127.5" font-family="Helvetica,sans-Serif" font-size="10.00">Ark/Compiler/Intermediate</text>
<text text-anchor="middle" x="1216.75" y="-116.25" font-family="Helvetica,sans-Serif" font-size="10.00">Representation/InstLoc.hpp</text>
</a>
</g>
</g>
<!-- Node1&#45;&gt;Node20 -->
<g id="edge34_Node000001_Node000020" class="edge">
<title>Node1&#45;&gt;Node20</title>
<g id="a_edge34_Node000001_Node000020"><a xlink:title=" ">
<path fill="none" stroke="#63b8ff" d="M690.71,-189.66C795.39,-180.37 978.57,-162.79 1134.75,-141 1135.58,-140.88 1136.42,-140.77 1137.26,-140.65"/>
<polygon fill="#63b8ff" stroke="#63b8ff" points="1137.48,-144.15 1146.85,-139.21 1136.44,-137.23 1137.48,-144.15"/>
</a>
</g>
</g>
<!-- Node7&#45;&gt;Node2 -->
<g id="edge9_Node000007_Node000002" class="edge">
<title>Node7&#45;&gt;Node2</title>
<g id="a_edge9_Node000007_Node000002"><a xlink:title=" ">
<path fill="none" stroke="#63b8ff" d="M346.48,-121.52C434.67,-116.32 593.21,-103.55 725.75,-74.5 783.64,-61.81 848.63,-38.28 886.49,-23.6"/>
<polygon fill="#63b8ff" stroke="#63b8ff" points="887.44,-26.99 895.47,-20.08 884.88,-20.47 887.44,-26.99"/>
</a>
</g>
</g>
<!-- Node7&#45;&gt;Node4 -->
<g id="edge10_Node000007_Node000004" class="edge">
<title>Node7&#45;&gt;Node4</title>
<g id="a_edge10_Node000007_Node000004"><a xlink:title=" ">
<path fill="none" stroke="#63b8ff" d="M272.28,-115.89C265.41,-106.15 254.62,-89.84 247.75,-74.5 241.37,-60.26 236.44,-43.29 233.2,-30.42"/>
<polygon fill="#63b8ff" stroke="#63b8ff" points="236.69,-29.96 230.97,-21.04 229.88,-31.58 236.69,-29.96"/>
</a>
</g>
</g>
<!-- Node8 -->
<g id="Node000008" class="node">
<title>Node8</title>
<g id="a_Node000008"><a xlink:title=" ">
<polygon fill="#e0e0e0" stroke="#999999" points="294.62,-74.5 256.88,-74.5 256.88,-55.25 294.62,-55.25 294.62,-74.5"/>
<text text-anchor="middle" x="275.75" y="-61" font-family="Helvetica,sans-Serif" font-size="10.00">array</text>
</a>
</g>
</g>
<!-- Node7&#45;&gt;Node8 -->
<g id="edge7_Node000007_Node000008" class="edge">
<title>Node7&#45;&gt;Node8</title>
<g id="a_edge7_Node000007_Node000008"><a xlink:title=" ">
<path fill="none" stroke="#63b8ff" d="M278.29,-115.81C277.89,-107.94 277.3,-96.2 276.78,-86.07"/>
<polygon fill="#63b8ff" stroke="#63b8ff" points="280.29,-86.22 276.29,-76.41 273.3,-86.58 280.29,-86.22"/>
</a>
</g>
</g>
<!-- Node9 -->
<g id="Node000009" class="node">
<title>Node9</title>
<g id="a_Node000009"><a xlink:title=" ">
<polygon fill="#e0e0e0" stroke="#999999" points="65.5,-19.25 0,-19.25 0,0 65.5,0 65.5,-19.25"/>
<text text-anchor="middle" x="32.75" y="-5.75" font-family="Helvetica,sans-Serif" font-size="10.00">string_view</text>
</a>
</g>
</g>
<!-- Node7&#45;&gt;Node9 -->
<g id="edge8_Node000007_Node000009" class="edge">
<title>Node7&#45;&gt;Node9</title>
<g id="a_edge8_Node000007_Node000009"><a xlink:title=" ">
<path fill="none" stroke="#63b8ff" d="M211.24,-117.56C152.61,-109.98 73.63,-96.1 50.75,-74.5 38.83,-63.25 34.6,-44.76 33.19,-30.57"/>
<polygon fill="#63b8ff" stroke="#63b8ff" points="36.71,-30.78 32.65,-21 29.72,-31.18 36.71,-30.78"/>
</a>
</g>
</g>
<!-- Node10 -->
<g id="Node000010" class="node">
<title>Node10</title>
<g id="a_Node000010"><a xlink:href="../../d6/de9/Constants_8hpp.html" target="_top" xlink:title="Constants used by ArkScript.">
<polygon fill="white" stroke="#666666" points="157.62,-74.5 59.88,-74.5 59.88,-55.25 157.62,-55.25 157.62,-74.5"/>
<text text-anchor="middle" x="108.75" y="-61" font-family="Helvetica,sans-Serif" font-size="10.00">Ark/Constants.hpp</text>
</a>
</g>
</g>
<!-- Node7&#45;&gt;Node10 -->
<g id="edge11_Node000007_Node000010" class="edge">
<title>Node7&#45;&gt;Node10</title>
<g id="a_edge11_Node000007_Node000010"><a xlink:title=" ">
<path fill="none" stroke="#63b8ff" d="M252.56,-115.68C223.98,-105.78 178.01,-89.86 145.76,-78.69"/>
<polygon fill="#63b8ff" stroke="#63b8ff" points="146.99,-75.42 136.4,-75.45 144.7,-82.03 146.99,-75.42"/>
</a>
</g>
</g>
<!-- Node10&#45;&gt;Node4 -->
<g id="edge13_Node000010_Node000004" class="edge">
<title>Node10&#45;&gt;Node4</title>
<g id="a_edge13_Node000010_Node000004"><a xlink:title=" ">
<path fill="none" stroke="#63b8ff" d="M129.11,-54.84C147.98,-46.47 176.34,-33.88 197.98,-24.28"/>
<polygon fill="#63b8ff" stroke="#63b8ff" points="199.19,-27.57 206.91,-20.32 196.35,-21.17 199.19,-27.57"/>
</a>
</g>
</g>
<!-- Node10&#45;&gt;Node9 -->
<g id="edge12_Node000010_Node000009" class="edge">
<title>Node10&#45;&gt;Node9</title>
<g id="a_edge12_Node000010_Node000009"><a xlink:title=" ">
<path fill="none" stroke="#63b8ff" d="M95.86,-54.84C84.72,-47.04 68.38,-35.59 55.11,-26.29"/>
<polygon fill="#63b8ff" stroke="#63b8ff" points="57.14,-23.44 46.95,-20.57 53.13,-29.18 57.14,-23.44"/>
</a>
</g>
</g>
<!-- Node11 -->
<g id="Node000011" class="node">
<title>Node11</title>
<g id="a_Node000011"><a xlink:title=" ">
<polygon fill="#e0e0e0" stroke="#999999" points="132.88,-19.25 84.62,-19.25 84.62,0 132.88,0 132.88,-19.25"/>
<text text-anchor="middle" x="108.75" y="-5.75" font-family="Helvetica,sans-Serif" font-size="10.00">cstddef</text>
</a>
</g>
</g>
<!-- Node10&#45;&gt;Node11 -->
<g id="edge14_Node000010_Node000011" class="edge">
<title>Node10&#45;&gt;Node11</title>
<g id="a_edge14_Node000010_Node000011"><a xlink:title=" ">
<path fill="none" stroke="#63b8ff" d="M108.75,-55.08C108.75,-48.57 108.75,-39.42 108.75,-31.12"/>
<polygon fill="#63b8ff" stroke="#63b8ff" points="112.25,-31.12 108.75,-21.12 105.25,-31.12 112.25,-31.12"/>
</a>
</g>
</g>
<!-- Node12&#45;&gt;Node2 -->
<g id="edge16_Node000012_Node000002" class="edge">
<title>Node12&#45;&gt;Node2</title>
<g id="a_edge16_Node000012_Node000002"><a xlink:title=" ">
<path fill="none" stroke="#63b8ff" d="M698.5,-122.3C744.42,-118.03 814.24,-106.36 865.75,-74.5 883.9,-63.28 898.78,-43.67 908.11,-29.13"/>
<polygon fill="#63b8ff" stroke="#63b8ff" points="910.89,-31.29 913.1,-20.92 904.91,-27.65 910.89,-31.29"/>
</a>
</g>
</g>
<!-- Node12&#45;&gt;Node3 -->
<g id="edge18_Node000012_Node000003" class="edge">
<title>Node12&#45;&gt;Node3</title>
<g id="a_edge18_Node000012_Node000003"><a xlink:title=" ">
<path fill="none" stroke="#63b8ff" d="M666.5,-115.8C682.27,-106.48 706.84,-90.96 725.75,-74.5 741.99,-60.37 758.1,-41.78 769.03,-28.3"/>
<polygon fill="#63b8ff" stroke="#63b8ff" points="771.58,-30.72 775.06,-20.71 766.09,-26.36 771.58,-30.72"/>
</a>
</g>
</g>
<!-- Node12&#45;&gt;Node4 -->
<g id="edge19_Node000012_Node000004" class="edge">
<title>Node12&#45;&gt;Node4</title>
<g id="a_edge19_Node000012_Node000004"><a xlink:title=" ">
<path fill="none" stroke="#63b8ff" d="M616.8,-115.63C609.55,-113.82 601.92,-112.01 594.75,-110.5 499.94,-90.54 472.78,-101.56 379.75,-74.5 335.2,-61.54 286.17,-39.19 256.43,-24.66"/>
<polygon fill="#63b8ff" stroke="#63b8ff" points="258.25,-21.66 247.74,-20.37 255.15,-27.94 258.25,-21.66"/>
</a>
</g>
</g>
<!-- Node12&#45;&gt;Node6 -->
<g id="edge33_Node000012_Node000006" class="edge">
<title>Node12&#45;&gt;Node6</title>
<g id="a_edge33_Node000012_Node000006"><a xlink:title=" ">
<path fill="none" stroke="#63b8ff" d="M636.31,-115.79C604.82,-96.26 529.66,-49.64 490.85,-25.57"/>
<polygon fill="#63b8ff" stroke="#63b8ff" points="493,-22.79 482.66,-20.49 489.32,-28.74 493,-22.79"/>
</a>
</g>
</g>
<!-- Node12&#45;&gt;Node8 -->
<g id="edge20_Node000012_Node000008" class="edge">
<title>Node12&#45;&gt;Node8</title>
<g id="a_edge20_Node000012_Node000008"><a xlink:title=" ">
<path fill="none" stroke="#63b8ff" d="M617.74,-115.63C610.22,-113.75 602.24,-111.92 594.75,-110.5 468.87,-86.66 434.55,-98.75 308.75,-74.5 307.76,-74.31 306.75,-74.1 305.74,-73.89"/>
<polygon fill="#63b8ff" stroke="#63b8ff" points="306.86,-70.56 296.32,-71.67 305.25,-77.37 306.86,-70.56"/>
</a>
</g>
</g>
<!-- Node13 -->
<g id="Node000013" class="node">
<title>Node13</title>
<g id="a_Node000013"><a xlink:title=" ">
<polygon fill="#e0e0e0" stroke="#999999" points="856.38,-74.5 811.12,-74.5 811.12,-55.25 856.38,-55.25 856.38,-74.5"/>
<text text-anchor="middle" x="833.75" y="-61" font-family="Helvetica,sans-Serif" font-size="10.00">variant</text>
</a>
</g>
</g>
<!-- Node12&#45;&gt;Node13 -->
<g id="edge17_Node000012_Node000013" class="edge">
<title>Node12&#45;&gt;Node13</title>
<g id="a_edge17_Node000012_Node000013"><a xlink:title=" ">
<path fill="none" stroke="#63b8ff" d="M678.94,-115.68C711.6,-105.17 765.37,-87.88 800.16,-76.68"/>
<polygon fill="#63b8ff" stroke="#63b8ff" points="800.85,-80.14 809.3,-73.74 798.71,-73.47 800.85,-80.14"/>
</a>
</g>
</g>
<!-- Node14 -->
<g id="Node000014" class="node">
<title>Node14</title>
<g id="a_Node000014"><a xlink:href="../../dc/dd5/Closure_8hpp.html" target="_top" xlink:title="Subtype of the value type, handling closures.">
<polygon fill="white" stroke="#666666" points="716.5,-74.5 585,-74.5 585,-55.25 716.5,-55.25 716.5,-74.5"/>
<text text-anchor="middle" x="650.75" y="-61" font-family="Helvetica,sans-Serif" font-size="10.00">Ark/VM/Value/Closure.hpp</text>
</a>
</g>
</g>
<!-- Node12&#45;&gt;Node14 -->
<g id="edge21_Node000012_Node000014" class="edge">
<title>Node12&#45;&gt;Node14</title>
<g id="a_edge21_Node000012_Node000014"><a xlink:title=" ">
<path fill="none" stroke="#63b8ff" d="M650.75,-115.81C650.75,-108.03 650.75,-96.45 650.75,-86.41"/>
<polygon fill="#63b8ff" stroke="#63b8ff" points="654.25,-86.41 650.75,-76.41 647.25,-86.41 654.25,-86.41"/>
</a>
</g>
</g>
<!-- Node17 -->
<g id="Node000017" class="node">
<title>Node17</title>
<g id="a_Node000017"><a xlink:href="../../dc/d3d/UserType_8hpp.html" target="_top" xlink:title="Subtype of the value, capable of handling any C++ type.">
<polygon fill="white" stroke="#666666" points="528.62,-74.5 388.88,-74.5 388.88,-55.25 528.62,-55.25 528.62,-74.5"/>
<text text-anchor="middle" x="458.75" y="-61" font-family="Helvetica,sans-Serif" font-size="10.00">Ark/VM/Value/UserType.hpp</text>
</a>
</g>
</g>
<!-- Node12&#45;&gt;Node17 -->
<g id="edge26_Node000012_Node000017" class="edge">
<title>Node12&#45;&gt;Node17</title>
<g id="a_edge26_Node000012_Node000017"><a xlink:title=" ">
<path fill="none" stroke="#63b8ff" d="M621.17,-115.68C588.47,-105.65 535.61,-89.44 499.12,-78.25"/>
<polygon fill="#63b8ff" stroke="#63b8ff" points="500.4,-74.98 489.81,-75.4 498.34,-81.68 500.4,-74.98"/>
</a>
</g>
</g>
<!-- Node18 -->
<g id="Node000018" class="node">
<title>Node18</title>
<g id="a_Node000018"><a xlink:href="../../da/dcf/Procedure_8hpp.html" target="_top" xlink:title="Wrapper object for user&#45;defined functions.">
<polygon fill="white" stroke="#666666" points="1092.75,-74.5 950.75,-74.5 950.75,-55.25 1092.75,-55.25 1092.75,-74.5"/>
<text text-anchor="middle" x="1021.75" y="-61" font-family="Helvetica,sans-Serif" font-size="10.00">Ark/VM/Value/Procedure.hpp</text>
</a>
</g>
</g>
<!-- Node12&#45;&gt;Node18 -->
<g id="edge30_Node000012_Node000018" class="edge">
<title>Node12&#45;&gt;Node18</title>
<g id="a_edge30_Node000012_Node000018"><a xlink:title=" ">
<path fill="none" stroke="#63b8ff" d="M698.49,-117.17C763.27,-106.89 879.4,-88.46 953.41,-76.72"/>
<polygon fill="#63b8ff" stroke="#63b8ff" points="953.64,-80.23 962.97,-75.2 952.54,-73.31 953.64,-80.23"/>
</a>
</g>
</g>
<!-- Node14&#45;&gt;Node3 -->
<g id="edge24_Node000014_Node000003" class="edge">
<title>Node14&#45;&gt;Node3</title>
<g id="a_edge24_Node000014_Node000003"><a xlink:title=" ">
<path fill="none" stroke="#63b8ff" d="M673.14,-54.84C694.83,-46.09 727.89,-32.76 752.03,-23.02"/>
<polygon fill="#63b8ff" stroke="#63b8ff" points="753.05,-26.38 761.02,-19.39 750.43,-19.89 753.05,-26.38"/>
</a>
</g>
</g>
<!-- Node14&#45;&gt;Node6 -->
<g id="edge25_Node000014_Node000006" class="edge">
<title>Node14&#45;&gt;Node6</title>
<g id="a_edge25_Node000014_Node000006"><a xlink:title=" ">
<path fill="none" stroke="#63b8ff" d="M619.54,-54.84C589.14,-46.04 542.71,-32.61 509.01,-22.86"/>
<polygon fill="#63b8ff" stroke="#63b8ff" points="510.15,-19.54 499.57,-20.12 508.2,-26.27 510.15,-19.54"/>
</a>
</g>
</g>
<!-- Node15 -->
<g id="Node000015" class="node">
<title>Node15</title>
<g id="a_Node000015"><a xlink:title=" ">
<polygon fill="#e0e0e0" stroke="#999999" points="676.38,-19.25 625.12,-19.25 625.12,0 676.38,0 676.38,-19.25"/>
<text text-anchor="middle" x="650.75" y="-5.75" font-family="Helvetica,sans-Serif" font-size="10.00">memory</text>
</a>
</g>
</g>
<!-- Node14&#45;&gt;Node15 -->
<g id="edge22_Node000014_Node000015" class="edge">
<title>Node14&#45;&gt;Node15</title>
<g id="a_edge22_Node000014_Node000015"><a xlink:title=" ">
<path fill="none" stroke="#63b8ff" d="M650.75,-55.08C650.75,-48.57 650.75,-39.42 650.75,-31.12"/>
<polygon fill="#63b8ff" stroke="#63b8ff" points="654.25,-31.12 650.75,-21.12 647.25,-31.12 654.25,-31.12"/>
</a>
</g>
</g>
<!-- Node16 -->
<g id="Node000016" class="node">
<title>Node16</title>
<g id="a_Node000016"><a xlink:title=" ">
<polygon fill="#e0e0e0" stroke="#999999" points="591.5,-19.25 538,-19.25 538,0 591.5,0 591.5,-19.25"/>
<text text-anchor="middle" x="564.75" y="-5.75" font-family="Helvetica,sans-Serif" font-size="10.00">iostream</text>
</a>
</g>
</g>
<!-- Node14&#45;&gt;Node16 -->
<g id="edge23_Node000014_Node000016" class="edge">
<title>Node14&#45;&gt;Node16</title>
<g id="a_edge23_Node000014_Node000016"><a xlink:title=" ">
<path fill="none" stroke="#63b8ff" d="M636.16,-54.84C623.31,-46.89 604.34,-35.14 589.18,-25.75"/>
<polygon fill="#63b8ff" stroke="#63b8ff" points="591.04,-22.79 580.7,-20.5 587.36,-28.74 591.04,-22.79"/>
</a>
</g>
</g>
<!-- Node17&#45;&gt;Node4 -->
<g id="edge28_Node000017_Node000004" class="edge">
<title>Node17&#45;&gt;Node4</title>
<g id="a_edge28_Node000017_Node000004"><a xlink:title=" ">
<path fill="none" stroke="#63b8ff" d="M419.47,-54.78C377.16,-44.99 310.24,-29.49 267.96,-19.7"/>
<polygon fill="#63b8ff" stroke="#63b8ff" points="268.99,-16.35 258.46,-17.5 267.41,-23.17 268.99,-16.35"/>
</a>
</g>
</g>
<!-- Node17&#45;&gt;Node6 -->
<g id="edge29_Node000017_Node000006" class="edge">
<title>Node17&#45;&gt;Node6</title>
<g id="a_edge29_Node000017_Node000006"><a xlink:title=" ">
<path fill="none" stroke="#63b8ff" d="M460.07,-55.08C461.06,-48.49 462.46,-39.21 463.72,-30.82"/>
<polygon fill="#63b8ff" stroke="#63b8ff" points="467.15,-31.51 465.18,-21.11 460.23,-30.47 467.15,-31.51"/>
</a>
</g>
</g>
<!-- Node17&#45;&gt;Node16 -->
<g id="edge27_Node000017_Node000016" class="edge">
<title>Node17&#45;&gt;Node16</title>
<g id="a_edge27_Node000017_Node000016"><a xlink:title=" ">
<path fill="none" stroke="#63b8ff" d="M476.73,-54.84C493.1,-46.62 517.54,-34.34 536.51,-24.81"/>
<polygon fill="#63b8ff" stroke="#63b8ff" points="537.96,-28 545.33,-20.38 534.82,-21.74 537.96,-28"/>
</a>
</g>
</g>
<!-- Node18&#45;&gt;Node2 -->
<g id="edge32_Node000018_Node000002" class="edge">
<title>Node18&#45;&gt;Node2</title>
<g id="a_edge32_Node000018_Node000002"><a xlink:title=" ">
<path fill="none" stroke="#63b8ff" d="M1004.28,-54.84C988.44,-46.66 964.84,-34.46 946.44,-24.94"/>
<polygon fill="#63b8ff" stroke="#63b8ff" points="948.14,-21.88 937.65,-20.4 944.93,-28.1 948.14,-21.88"/>
</a>
</g>
</g>
<!-- Node19 -->
<g id="Node000019" class="node">
<title>Node19</title>
<g id="a_Node000019"><a xlink:title=" ">
<polygon fill="#e0e0e0" stroke="#999999" points="1050.75,-19.25 992.75,-19.25 992.75,0 1050.75,0 1050.75,-19.25"/>
<text text-anchor="middle" x="1021.75" y="-5.75" font-family="Helvetica,sans-Serif" font-size="10.00">functional</text>
</a>
</g>
</g>
<!-- Node18&#45;&gt;Node19 -->
<g id="edge31_Node000018_Node000019" class="edge">
<title>Node18&#45;&gt;Node19</title>
<g id="a_edge31_Node000018_Node000019"><a xlink:title=" ">
<path fill="none" stroke="#63b8ff" d="M1021.75,-55.08C1021.75,-48.57 1021.75,-39.42 1021.75,-31.12"/>
<polygon fill="#63b8ff" stroke="#63b8ff" points="1025.25,-31.12 1021.75,-21.12 1018.25,-31.12 1025.25,-31.12"/>
</a>
</g>
</g>
<!-- Node21 -->
<g id="Node000021" class="node">
<title>Node21</title>
<g id="a_Node000021"><a xlink:title=" ">
<polygon fill="#e0e0e0" stroke="#999999" points="1239.38,-74.5 1194.12,-74.5 1194.12,-55.25 1239.38,-55.25 1239.38,-74.5"/>
<text text-anchor="middle" x="1216.75" y="-61" font-family="Helvetica,sans-Serif" font-size="10.00">cstdint</text>
</a>
</g>
</g>
<!-- Node20&#45;&gt;Node21 -->
<g id="edge35_Node000020_Node000021" class="edge">
<title>Node20&#45;&gt;Node21</title>
<g id="a_edge35_Node000020_Node000021"><a xlink:title=" ">
<path fill="none" stroke="#63b8ff" d="M1216.75,-110.2C1216.75,-102.96 1216.75,-94.09 1216.75,-86.19"/>
<polygon fill="#63b8ff" stroke="#63b8ff" points="1220.25,-86.46 1216.75,-76.46 1213.25,-86.46 1220.25,-86.46"/>
</a>
</g>
</g>
</g>
</svg>

<g id="navigator" transform="translate(0 0)" fill="#404254">
  <rect fill="#f2f5e9" fill-opacity="0.5" stroke="#606060" stroke-width=".5" x="0" y="0" width="60" height="60"/>
  <use id="zoomplus" xlink:href="#zoomPlus" x="17" y="9" onmousedown="handleZoom(evt,'in')"/>
  <use id="zoomminus" xlink:href="#zoomMin" x="42" y="9" onmousedown="handleZoom(evt,'out')"/>
  <use id="reset" xlink:href="#resetDef" x="30" y="36" onmousedown="handleReset()"/>
   <use id="arrowup" xlink:href="#arrowUp" x="0" y="0" onmousedown="handlePan(0,-1)"/>
  <use id="arrowright" xlink:href="#arrowRight" x="0" y="0" onmousedown="handlePan(1,0)"/>
  <use id="arrowdown" xlink:href="#arrowDown" x="0" y="0" onmousedown="handlePan(0,1)"/>
  <use id="arrowleft" xlink:href="#arrowLeft" x="0" y="0" onmousedown="handlePan(-1,0)"/>
</g>
<svg viewBox="0 0 15 15" width="100%" height="30px" preserveAspectRatio="xMaxYMin meet">
 <g id="arrow_out" transform="scale(0.3 0.3)">
  <a xlink:href="BytecodeReader_8hpp__incl_org.svg" target="_base">
   <rect id="button" ry="5" rx="5" y="6" x="6" height="38" width="38"
        fill="#f2f5e9" fill-opacity="0.5" stroke="#606060" stroke-width="1.0"/>
   <path id="arrow"
     d="M 11.500037,31.436501 C 11.940474,20.09759 22.043105,11.32322 32.158766,21.979434 L 37.068811,17.246167 C 37.068811,17.246167 37.088388,32 37.088388,32 L 22.160133,31.978069 C 22.160133,31.978069 26.997745,27.140456 26.997745,27.140456 C 18.528582,18.264221 13.291696,25.230495 11.500037,31.436501 z"
     style="fill:#404040;"/>
  </a>
 </g>
</svg>

<style type='text/css'>
<![CDATA[
[data-mouse-over-selected='false'] { opacity: 0.7; }
[data-mouse-over-selected='true']  { opacity: 1.0; }
]]>
</style>
<script type="application/ecmascript"><![CDATA[
document.addEventListener('DOMContentLoaded', (event) => {
  highlightEdges();
  highlightAdjacentNodes();
});
]]></script>
</svg>
