<?xml version="1.0" encoding="UTF-8" standalone="no"?>
<!DOCTYPE svg PUBLIC "-//W3C//DTD SVG 1.1//EN"
 "http://www.w3.org/Graphics/SVG/1.1/DTD/svg11.dtd">
<!-- Generated by graphviz version 12.2.0 (20241103.1931)
 -->
<!-- Title: Ark::internal::Optimizer Pages: 1 -->
<!--zoomable 320 -->

<svg id="main" version="1.1" xmlns="http://www.w3.org/2000/svg" xmlns:xlink="http://www.w3.org/1999/xlink" xml:space="preserve" onload="init(evt)">

<style type="text/css"><![CDATA[
.node, .edge {opacity: 0.7;}
.node.selected, .edge.selected {opacity: 1;}
.edge:hover path { stroke: red; }
.edge:hover polygon { stroke: red; fill: red; }
]]></style>

<defs>
  <circle id="rim" cx="0" cy="0" r="7"/>
  <circle id="rim2" cx="0" cy="0" r="3.5"/>
  <g id="zoomPlus">
    <use xlink:href="#rim" fill="#404040"><set attributeName="fill" to="#808080" begin="zoomplus.mouseover" end="zoomplus.mouseout"/></use>
    <path d="M-4,0h8M0,-4v8" fill="none" stroke="white" stroke-width="1.5" pointer-events="none"/>
  </g>
  <g id="zoomMin">
    <use xlink:href="#rim" fill="#404040"><set attributeName="fill" to="#808080" begin="zoomminus.mouseover" end="zoomminus.mouseout"/></use>
    <path d="M-4,0h8" fill="none" stroke="white" stroke-width="1.5" pointer-events="none"/>
  </g>
  <g id="arrowUp" transform="translate(30 24)">
    <use xlink:href="#rim"/>
    <path pointer-events="none" fill="none" stroke="white" stroke-width="1.5" d="M0,-3.0v7 M-2.5,-0.5L0,-3.0L2.5,-0.5"/>
  </g>
  <g id="arrowRight" transform="rotate(90) translate(36 -43)">
    <use xlink:href="#rim"/>
    <path pointer-events="none" fill="none" stroke="white" stroke-width="1.5" d="M0,-3.0v7 M-2.5,-0.5L0,-3.0L2.5,-0.5"/>
  </g>
  <g id="arrowDown" transform="rotate(180) translate(-30 -48)">
    <use xlink:href="#rim"/>
    <path pointer-events="none" fill="none" stroke="white" stroke-width="1.5" d="M0,-3.0v7 M-2.5,-0.5L0,-3.0L2.5,-0.5"/>
  </g>
  <g id="arrowLeft" transform="rotate(270) translate(-36 17)">
    <use xlink:href="#rim"/>
    <path pointer-events="none" fill="none" stroke="white" stroke-width="1.5" d="M0,-3.0v7 M-2.5,-0.5L0,-3.0L2.5,-0.5"/>
  </g>
  <g id="resetDef">
    <use xlink:href="#rim2" fill="#404040"><set attributeName="fill" to="#808080" begin="reset.mouseover" end="reset.mouseout"/></use>
  </g>
</defs>
<script type="application/ecmascript">
var viewWidth = 1192;
var viewHeight = 320;
var sectionId = 'dynsection-1';
</script>
<script type="application/ecmascript" xlink:href="../../svg.min.js"/>
<svg id="graph" class="graph">
<g id="viewport">
<title>Ark::internal::Optimizer</title>
<!-- Node1 -->
<g id="Node000001" class="node">
<title>Node1</title>
<g id="a_Node000001"><a xlink:title="The ArkScript AST optimizer.">
<polygon fill="#999999" stroke="#666666" points="1184,-122.06 1067.5,-122.06 1067.5,-102.81 1184,-102.81 1184,-122.06"/>
<text text-anchor="middle" x="1125.75" y="-108.56" font-family="Helvetica,sans-Serif" font-size="10.00">Ark::internal::Optimizer</text>
</a>
</g>
</g>
<!-- Node2 -->
<g id="Node000002" class="node">
<title>Node2</title>
<g id="a_Node000002"><a xlink:href="../../da/d7b/classArk_1_1internal_1_1Pass.html" target="_top" xlink:title="An interface to describe compiler passes.">
<polygon fill="white" stroke="#666666" points="1030.5,-122.06 933.5,-122.06 933.5,-102.81 1030.5,-102.81 1030.5,-122.06"/>
<text text-anchor="middle" x="982" y="-108.56" font-family="Helvetica,sans-Serif" font-size="10.00">Ark::internal::Pass</text>
</a>
</g>
</g>
<!-- Node2&#45;&gt;Node1 -->
<g id="edge1_Node000001_Node000002" class="edge">
<title>Node2&#45;&gt;Node1</title>
<g id="a_edge1_Node000001_Node000002"><a xlink:title=" ">
<path fill="none" stroke="#63b8ff" d="M1042.5,-112.43C1050.77,-112.43 1059.26,-112.43 1067.49,-112.43"/>
<polygon fill="#63b8ff" stroke="#63b8ff" points="1042.5,-108.93 1032.5,-112.43 1042.5,-115.93 1042.5,-108.93"/>
</a>
</g>
</g>
<!-- Node3 -->
<g id="Node000003" class="node">
<title>Node3</title>
<g id="a_Node000003"><a xlink:href="../../d6/d2f/classArk_1_1internal_1_1Logger.html" target="_top" xlink:title=" ">
<polygon fill="white" stroke="#666666" points="801.5,-122.06 697.75,-122.06 697.75,-102.81 801.5,-102.81 801.5,-122.06"/>
<text text-anchor="middle" x="749.62" y="-108.56" font-family="Helvetica,sans-Serif" font-size="10.00">Ark::internal::Logger</text>
</a>
</g>
</g>
<!-- Node3&#45;&gt;Node2 -->
<g id="edge2_Node000002_Node000003" class="edge">
<title>Node3&#45;&gt;Node2</title>
<g id="a_edge2_Node000002_Node000003"><a xlink:title=" ">
<path fill="none" stroke="#9a32cd" stroke-dasharray="5,2" d="M813.15,-112.43C850.94,-112.43 898.37,-112.43 933.16,-112.43"/>
<polygon fill="#9a32cd" stroke="#9a32cd" points="813.27,-108.93 803.27,-112.43 813.27,-115.93 813.27,-108.93"/>
</a>
</g>
<text text-anchor="middle" x="867.5" y="-114.18" font-family="Helvetica,sans-Serif" font-size="10.00" fill="grey"> m_logger</text>
</g>
<!-- Node4 -->
<g id="Node000004" class="node">
<title>Node4</title>
<g id="a_Node000004"><a xlink:title=" ">
<polygon fill="white" stroke="#666666" points="253.62,-116.06 194.12,-116.06 194.12,-96.81 253.62,-96.81 253.62,-116.06"/>
<text text-anchor="middle" x="223.88" y="-102.56" font-family="Helvetica,sans-Serif" font-size="10.00">std::string</text>
</a>
</g>
</g>
<!-- Node4&#45;&gt;Node3 -->
<g id="edge3_Node000003_Node000004" class="edge">
<title>Node4&#45;&gt;Node3</title>
<g id="a_edge3_Node000003_Node000004"><a xlink:title=" ">
<path fill="none" stroke="#9a32cd" stroke-dasharray="5,2" d="M265.01,-99.6C328.51,-89.68 456,-73.39 564,-82.18 610.78,-85.99 663.57,-95.14 700.69,-102.38"/>
<polygon fill="#9a32cd" stroke="#9a32cd" points="264.74,-96.1 255.42,-101.13 265.84,-103.01 264.74,-96.1"/>
</a>
</g>
<text text-anchor="middle" x="502" y="-83.93" font-family="Helvetica,sans-Serif" font-size="10.00" fill="grey"> m_name</text>
</g>
<!-- Node6 -->
<g id="Node000006" class="node">
<title>Node6</title>
<g id="a_Node000006"><a xlink:title=" ">
<polygon fill="white" stroke="#666666" points="563.25,-204.56 440.75,-204.56 440.75,-140.31 563.25,-140.31 563.25,-204.56"/>
<text text-anchor="start" x="448.75" y="-191.06" font-family="Helvetica,sans-Serif" font-size="10.00">std::unordered_map</text>
<text text-anchor="start" x="448.75" y="-179.81" font-family="Helvetica,sans-Serif" font-size="10.00">&lt; std::string, std::</text>
<text text-anchor="start" x="448.75" y="-168.56" font-family="Helvetica,sans-Serif" font-size="10.00">chrono::time_point&lt; std</text>
<text text-anchor="start" x="448.75" y="-157.31" font-family="Helvetica,sans-Serif" font-size="10.00">::chrono::high_resolution</text>
<text text-anchor="middle" x="502" y="-146.06" font-family="Helvetica,sans-Serif" font-size="10.00">_clock &gt; &gt;</text>
</a>
</g>
</g>
<!-- Node4&#45;&gt;Node6 -->
<g id="edge6_Node000006_Node000004" class="edge">
<title>Node4&#45;&gt;Node6</title>
<g id="a_edge6_Node000006_Node000004"><a xlink:title=" ">
<path fill="none" stroke="#9a32cd" stroke-dasharray="5,2" d="M265.23,-113.64C274.36,-115.24 284.01,-116.92 293,-118.43 350.26,-128.08 366.17,-123.19 422,-139.18 428.01,-140.9 434.17,-142.95 440.28,-145.18"/>
<polygon fill="#9a32cd" stroke="#9a32cd" points="265.98,-110.22 255.52,-111.93 264.76,-117.11 265.98,-110.22"/>
</a>
</g>
<text text-anchor="middle" x="357.5" y="-140.93" font-family="Helvetica,sans-Serif" font-size="10.00" fill="grey"> keys</text>
</g>
<!-- Node10 -->
<g id="Node000010" class="node">
<title>Node10</title>
<g id="a_Node000010"><a xlink:title=" ">
<polygon fill="white" stroke="#666666" points="564,-122.06 440,-122.06 440,-102.81 564,-102.81 564,-122.06"/>
<text text-anchor="middle" x="502" y="-108.56" font-family="Helvetica,sans-Serif" font-size="10.00">std::vector&lt; std::string &gt;</text>
</a>
</g>
</g>
<!-- Node4&#45;&gt;Node10 -->
<g id="edge11_Node000010_Node000004" class="edge">
<title>Node4&#45;&gt;Node10</title>
<g id="a_edge11_Node000010_Node000004"><a xlink:title=" ">
<path fill="none" stroke="#9a32cd" stroke-dasharray="5,2" d="M265.3,-105.85C305.16,-105.45 367.8,-105.28 422,-107.18 427.77,-107.38 433.77,-107.66 439.78,-107.98"/>
<polygon fill="#9a32cd" stroke="#9a32cd" points="265.42,-102.35 255.46,-105.96 265.5,-109.35 265.42,-102.35"/>
</a>
</g>
<text text-anchor="middle" x="357.5" y="-108.93" font-family="Helvetica,sans-Serif" font-size="10.00" fill="grey"> elements</text>
</g>
<!-- Node12 -->
<g id="Node000012" class="node">
<title>Node12</title>
<g id="a_Node000012"><a xlink:href="../../dc/d9e/classArk_1_1internal_1_1Node.html" target="_top" xlink:title="A node of an Abstract Syntax Tree for ArkScript.">
<polygon fill="white" stroke="#666666" points="679.75,-46.06 582,-46.06 582,-26.81 679.75,-26.81 679.75,-46.06"/>
<text text-anchor="middle" x="630.88" y="-32.56" font-family="Helvetica,sans-Serif" font-size="10.00">Ark::internal::Node</text>
</a>
</g>
</g>
<!-- Node4&#45;&gt;Node12 -->
<g id="edge15_Node000012_Node000004" class="edge">
<title>Node4&#45;&gt;Node12</title>
<g id="a_edge15_Node000012_Node000004"><a xlink:title=" ">
<path fill="none" stroke="#9a32cd" stroke-dasharray="5,2" d="M235.12,-86.25C246.33,-66.65 266.32,-38.08 293,-25.68 395.95,22.16 536.33,-8.68 598.28,-26.43"/>
<polygon fill="#9a32cd" stroke="#9a32cd" points="232.07,-84.52 230.4,-94.98 238.23,-87.85 232.07,-84.52"/>
</a>
</g>
<text text-anchor="middle" x="357.5" y="-49.93" font-family="Helvetica,sans-Serif" font-size="10.00" fill="grey"> m_after_comment</text>
<text text-anchor="middle" x="357.5" y="-38.68" font-family="Helvetica,sans-Serif" font-size="10.00" fill="grey">m_comment</text>
<text text-anchor="middle" x="357.5" y="-27.43" font-family="Helvetica,sans-Serif" font-size="10.00" fill="grey">m_filename</text>
</g>
<!-- Node13 -->
<g id="Node000013" class="node">
<title>Node13</title>
<g id="a_Node000013"><a xlink:title=" ">
<polygon fill="white" stroke="#666666" points="563.25,-252.68 440.75,-252.68 440.75,-222.18 563.25,-222.18 563.25,-252.68"/>
<text text-anchor="start" x="448.75" y="-239.18" font-family="Helvetica,sans-Serif" font-size="10.00">std::unordered_map</text>
<text text-anchor="middle" x="502" y="-227.93" font-family="Helvetica,sans-Serif" font-size="10.00">&lt; std::string, unsigned &gt;</text>
</a>
</g>
</g>
<!-- Node4&#45;&gt;Node13 -->
<g id="edge17_Node000013_Node000004" class="edge">
<title>Node4&#45;&gt;Node13</title>
<g id="a_edge17_Node000013_Node000004"><a xlink:title=" ">
<path fill="none" stroke="#9a32cd" stroke-dasharray="5,2" d="M245.2,-123.94C254.86,-132.82 266.19,-144.11 275,-155.43 284.79,-168 279.87,-177.41 293,-186.43 340.86,-219.32 365.92,-192.11 422,-207.18 426.22,-208.32 443.59,-214.93 460.97,-221.69"/>
<polygon fill="#9a32cd" stroke="#9a32cd" points="247.84,-121.6 238.05,-117.54 243.17,-126.81 247.84,-121.6"/>
</a>
</g>
<text text-anchor="middle" x="357.5" y="-208.93" font-family="Helvetica,sans-Serif" font-size="10.00" fill="grey"> keys</text>
</g>
<!-- Node5 -->
<g id="Node000005" class="node">
<title>Node5</title>
<g id="a_Node000005"><a xlink:title=" ">
<polygon fill="white" stroke="#666666" points="94,-121.68 0,-121.68 0,-91.18 94,-91.18 94,-121.68"/>
<text text-anchor="start" x="8" y="-108.18" font-family="Helvetica,sans-Serif" font-size="10.00">std::basic_string&lt;</text>
<text text-anchor="middle" x="47" y="-96.93" font-family="Helvetica,sans-Serif" font-size="10.00"> Char &gt;</text>
</a>
</g>
</g>
<!-- Node5&#45;&gt;Node4 -->
<g id="edge4_Node000004_Node000005" class="edge">
<title>Node5&#45;&gt;Node4</title>
<g id="a_edge4_Node000004_Node000005"><a xlink:title=" ">
<path fill="none" stroke="#63b8ff" d="M105.85,-106.43C135.35,-106.43 169.95,-106.43 193.83,-106.43"/>
<polygon fill="#63b8ff" stroke="#63b8ff" points="105.92,-102.93 95.92,-106.43 105.92,-109.93 105.92,-102.93"/>
</a>
</g>
</g>
<!-- Node6&#45;&gt;Node3 -->
<g id="edge5_Node000003_Node000006" class="edge">
<title>Node6&#45;&gt;Node3</title>
<g id="a_edge5_Node000003_Node000006"><a xlink:title=" ">
<path fill="none" stroke="#9a32cd" stroke-dasharray="5,2" d="M574.74,-154.91C617.89,-144.37 671.29,-131.32 707.44,-122.49"/>
<polygon fill="#9a32cd" stroke="#9a32cd" points="574.07,-151.47 565.19,-157.24 575.73,-158.27 574.07,-151.47"/>
</a>
</g>
<text text-anchor="middle" x="630.88" y="-154.77" font-family="Helvetica,sans-Serif" font-size="10.00" fill="grey"> m_trace_starts</text>
</g>
<!-- Node7 -->
<g id="Node000007" class="node">
<title>Node7</title>
<g id="a_Node000007"><a xlink:title=" ">
<polygon fill="white" stroke="#666666" points="275,-257.68 172.75,-257.68 172.75,-227.18 275,-227.18 275,-257.68"/>
<text text-anchor="start" x="180.75" y="-244.18" font-family="Helvetica,sans-Serif" font-size="10.00">std::unordered_map</text>
<text text-anchor="middle" x="223.88" y="-232.93" font-family="Helvetica,sans-Serif" font-size="10.00">&lt; K, T &gt;</text>
</a>
</g>
</g>
<!-- Node7&#45;&gt;Node6 -->
<g id="edge7_Node000006_Node000007" class="edge">
<title>Node7&#45;&gt;Node6</title>
<g id="a_edge7_Node000006_Node000007"><a xlink:title=" ">
<path fill="none" stroke="orange" stroke-dasharray="5,2" d="M286.62,-238.46C334.88,-234.81 397.71,-228.71 422,-220.43 433.24,-216.6 444.58,-210.97 455.03,-204.91"/>
<polygon fill="orange" stroke="orange" points="286.55,-234.95 276.84,-239.18 287.07,-241.93 286.55,-234.95"/>
</a>
</g>
<text text-anchor="start" x="293" y="-273.12" font-family="Helvetica,sans-Serif" font-size="10.00" fill="grey"> &lt; std::string, std</text>
<text text-anchor="start" x="293" y="-261.87" font-family="Helvetica,sans-Serif" font-size="10.00" fill="grey">::chrono::time_point</text>
<text text-anchor="start" x="293" y="-250.62" font-family="Helvetica,sans-Serif" font-size="10.00" fill="grey">&lt; std::chrono::high_resolution</text>
<text text-anchor="middle" x="357.5" y="-239.37" font-family="Helvetica,sans-Serif" font-size="10.00" fill="grey">_clock &gt; &gt;</text>
</g>
<!-- Node7&#45;&gt;Node13 -->
<g id="edge18_Node000013_Node000007" class="edge">
<title>Node7&#45;&gt;Node13</title>
<g id="a_edge18_Node000013_Node000007"><a xlink:title=" ">
<path fill="none" stroke="orange" stroke-dasharray="5,2" d="M250.77,-265.27C262.75,-274.36 277.71,-283.75 293,-288.43 347.82,-305.21 367.01,-304.64 422,-288.43 445.33,-281.56 468.27,-265.41 483.36,-253.11"/>
<polygon fill="orange" stroke="orange" points="253.02,-262.59 243.03,-259.09 248.66,-268.06 253.02,-262.59"/>
</a>
</g>
<text text-anchor="middle" x="357.5" y="-302.55" font-family="Helvetica,sans-Serif" font-size="10.00" fill="grey"> &lt; std::string, unsigned &gt;</text>
</g>
<!-- Node8 -->
<g id="Node000008" class="node">
<title>Node8</title>
<g id="a_Node000008"><a xlink:title=" ">
<polygon fill="white" stroke="#666666" points="61.4,-252.06 32.6,-252.06 32.6,-232.81 61.4,-232.81 61.4,-252.06"/>
<text text-anchor="middle" x="47" y="-238.56" font-family="Helvetica,sans-Serif" font-size="10.00">K</text>
</a>
</g>
</g>
<!-- Node8&#45;&gt;Node7 -->
<g id="edge8_Node000007_Node000008" class="edge">
<title>Node8&#45;&gt;Node7</title>
<g id="a_edge8_Node000007_Node000008"><a xlink:title=" ">
<path fill="none" stroke="#9a32cd" stroke-dasharray="5,2" d="M73.1,-242.43C98.97,-242.43 140.01,-242.43 172.59,-242.43"/>
<polygon fill="#9a32cd" stroke="#9a32cd" points="73.24,-238.93 63.24,-242.43 73.24,-245.93 73.24,-238.93"/>
</a>
</g>
<text text-anchor="middle" x="133.38" y="-244.18" font-family="Helvetica,sans-Serif" font-size="10.00" fill="grey"> keys</text>
</g>
<!-- Node9 -->
<g id="Node000009" class="node">
<title>Node9</title>
<g id="a_Node000009"><a xlink:title=" ">
<polygon fill="white" stroke="#666666" points="61.4,-200.06 32.6,-200.06 32.6,-180.81 61.4,-180.81 61.4,-200.06"/>
<text text-anchor="middle" x="47" y="-186.56" font-family="Helvetica,sans-Serif" font-size="10.00">T</text>
</a>
</g>
</g>
<!-- Node9&#45;&gt;Node7 -->
<g id="edge9_Node000007_Node000009" class="edge">
<title>Node9&#45;&gt;Node7</title>
<g id="a_edge9_Node000007_Node000009"><a xlink:title=" ">
<path fill="none" stroke="#9a32cd" stroke-dasharray="5,2" d="M72.75,-197.79C98.6,-205.48 139.86,-217.75 172.59,-227.48"/>
<polygon fill="#9a32cd" stroke="#9a32cd" points="73.76,-194.44 63.17,-194.94 71.76,-201.15 73.76,-194.44"/>
</a>
</g>
<text text-anchor="middle" x="133.38" y="-222.84" font-family="Helvetica,sans-Serif" font-size="10.00" fill="grey"> elements</text>
</g>
<!-- Node11 -->
<g id="Node000011" class="node">
<title>Node11</title>
<g id="a_Node000011"><a xlink:title=" ">
<polygon fill="white" stroke="#666666" points="267.12,-184.06 180.62,-184.06 180.62,-164.81 267.12,-164.81 267.12,-184.06"/>
<text text-anchor="middle" x="223.88" y="-170.56" font-family="Helvetica,sans-Serif" font-size="10.00">std::vector&lt; T &gt;</text>
</a>
</g>
</g>
<!-- Node9&#45;&gt;Node11 -->
<g id="edge13_Node000011_Node000009" class="edge">
<title>Node9&#45;&gt;Node11</title>
<g id="a_edge13_Node000011_Node000009"><a xlink:title=" ">
<path fill="none" stroke="#9a32cd" stroke-dasharray="5,2" d="M72.38,-183.25C84.22,-180.11 98.73,-176.79 112,-175.18 134.45,-172.47 159.65,-172.09 180.35,-172.47"/>
<polygon fill="#9a32cd" stroke="#9a32cd" points="71.73,-179.79 63.03,-185.84 73.6,-186.54 71.73,-179.79"/>
</a>
</g>
<text text-anchor="middle" x="133.38" y="-176.93" font-family="Helvetica,sans-Serif" font-size="10.00" fill="grey"> elements</text>
</g>
<!-- Node10&#45;&gt;Node3 -->
<g id="edge10_Node000003_Node000010" class="edge">
<title>Node10&#45;&gt;Node3</title>
<g id="a_edge10_Node000003_Node000010"><a xlink:title=" ">
<path fill="none" stroke="#9a32cd" stroke-dasharray="5,2" d="M575.7,-112.43C614.89,-112.43 662.31,-112.43 697.57,-112.43"/>
<polygon fill="#9a32cd" stroke="#9a32cd" points="575.86,-108.93 565.86,-112.43 575.86,-115.93 575.86,-108.93"/>
</a>
</g>
<text text-anchor="middle" x="630.88" y="-114.18" font-family="Helvetica,sans-Serif" font-size="10.00" fill="grey"> m_active_traces</text>
</g>
<!-- Node11&#45;&gt;Node10 -->
<g id="edge12_Node000010_Node000011" class="edge">
<title>Node11&#45;&gt;Node10</title>
<g id="a_edge12_Node000010_Node000011"><a xlink:title=" ">
<path fill="none" stroke="orange" stroke-dasharray="5,2" d="M278.68,-172.83C328.34,-170.57 397.93,-165.17 422,-152.43 432.87,-146.68 429.73,-138.19 440,-131.43 445.47,-127.83 451.65,-124.89 457.94,-122.48"/>
<polygon fill="orange" stroke="orange" points="278.82,-169.32 268.98,-173.24 279.12,-176.31 278.82,-169.32"/>
</a>
</g>
<text text-anchor="middle" x="357.5" y="-173.86" font-family="Helvetica,sans-Serif" font-size="10.00" fill="grey"> &lt; std::string &gt;</text>
</g>
<!-- Node12&#45;&gt;Node1 -->
<g id="edge14_Node000001_Node000012" class="edge">
<title>Node12&#45;&gt;Node1</title>
<g id="a_edge14_Node000001_Node000012"><a xlink:title=" ">
<path fill="none" stroke="#9a32cd" stroke-dasharray="5,2" d="M691.23,-43.85C769.25,-53.84 910.49,-72.77 1030.5,-93.43 1045.8,-96.07 1062.42,-99.29 1077.38,-102.34"/>
<polygon fill="#9a32cd" stroke="#9a32cd" points="692.05,-40.42 681.68,-42.63 691.16,-47.37 692.05,-40.42"/>
</a>
</g>
<text text-anchor="middle" x="867.5" y="-76.08" font-family="Helvetica,sans-Serif" font-size="10.00" fill="grey"> m_ast</text>
</g>
<!-- Node13&#45;&gt;Node1 -->
<g id="edge16_Node000001_Node000013" class="edge">
<title>Node13&#45;&gt;Node1</title>
<g id="a_edge16_Node000001_Node000013"><a xlink:title=" ">
<path fill="none" stroke="#9a32cd" stroke-dasharray="5,2" d="M574.55,-223.07C675.99,-202.7 867.43,-164.25 1030.5,-131.43 1044.9,-128.53 1060.54,-125.38 1074.86,-122.5"/>
<polygon fill="#9a32cd" stroke="#9a32cd" points="574.12,-219.58 565.01,-224.98 575.5,-226.45 574.12,-219.58"/>
</a>
</g>
<text text-anchor="middle" x="867.5" y="-174.67" font-family="Helvetica,sans-Serif" font-size="10.00" fill="grey"> m_sym_appearances</text>
</g>
</g>
</svg>

<g id="navigator" transform="translate(0 0)" fill="#404254">
  <rect fill="#f2f5e9" fill-opacity="0.5" stroke="#606060" stroke-width=".5" x="0" y="0" width="60" height="60"/>
  <use id="zoomplus" xlink:href="#zoomPlus" x="17" y="9" onmousedown="handleZoom(evt,'in')"/>
  <use id="zoomminus" xlink:href="#zoomMin" x="42" y="9" onmousedown="handleZoom(evt,'out')"/>
  <use id="reset" xlink:href="#resetDef" x="30" y="36" onmousedown="handleReset()"/>
   <use id="arrowup" xlink:href="#arrowUp" x="0" y="0" onmousedown="handlePan(0,-1)"/>
  <use id="arrowright" xlink:href="#arrowRight" x="0" y="0" onmousedown="handlePan(1,0)"/>
  <use id="arrowdown" xlink:href="#arrowDown" x="0" y="0" onmousedown="handlePan(0,1)"/>
  <use id="arrowleft" xlink:href="#arrowLeft" x="0" y="0" onmousedown="handlePan(-1,0)"/>
</g>
<svg viewBox="0 0 15 15" width="100%" height="30px" preserveAspectRatio="xMaxYMin meet">
 <g id="arrow_out" transform="scale(0.3 0.3)">
  <a xlink:href="classArk_1_1internal_1_1Optimizer__coll__graph_org.svg" target="_base">
   <rect id="button" ry="5" rx="5" y="6" x="6" height="38" width="38"
        fill="#f2f5e9" fill-opacity="0.5" stroke="#606060" stroke-width="1.0"/>
   <path id="arrow"
     d="M 11.500037,31.436501 C 11.940474,20.09759 22.043105,11.32322 32.158766,21.979434 L 37.068811,17.246167 C 37.068811,17.246167 37.088388,32 37.088388,32 L 22.160133,31.978069 C 22.160133,31.978069 26.997745,27.140456 26.997745,27.140456 C 18.528582,18.264221 13.291696,25.230495 11.500037,31.436501 z"
     style="fill:#404040;"/>
  </a>
 </g>
</svg>

<style type='text/css'>
<![CDATA[
[data-mouse-over-selected='false'] { opacity: 0.7; }
[data-mouse-over-selected='true']  { opacity: 1.0; }
]]>
</style>
<script type="application/ecmascript"><![CDATA[
document.addEventListener('DOMContentLoaded', (event) => {
  highlightEdges();
  highlightAdjacentNodes();
});
]]></script>
</svg>
