<?xml version="1.0" encoding="UTF-8" standalone="no"?>
<!DOCTYPE svg PUBLIC "-//W3C//DTD SVG 1.1//EN"
 "http://www.w3.org/Graphics/SVG/1.1/DTD/svg11.dtd">
<!-- Generated by graphviz version 12.2.0 (20241103.1931)
 -->
<!-- Title: Ark::internal::Optimizer Pages: 1 -->
<!--zoomable 338 -->

<svg id="main" version="1.1" xmlns="http://www.w3.org/2000/svg" xmlns:xlink="http://www.w3.org/1999/xlink" xml:space="preserve" onload="init(evt)">

<style type="text/css"><![CDATA[
.node, .edge {opacity: 0.7;}
.node.selected, .edge.selected {opacity: 1;}
.edge:hover path { stroke: red; }
.edge:hover polygon { stroke: red; fill: red; }
]]></style>

<defs>
  <circle id="rim" cx="0" cy="0" r="7"/>
  <circle id="rim2" cx="0" cy="0" r="3.5"/>
  <g id="zoomPlus">
    <use xlink:href="#rim" fill="#404040"><set attributeName="fill" to="#808080" begin="zoomplus.mouseover" end="zoomplus.mouseout"/></use>
    <path d="M-4,0h8M0,-4v8" fill="none" stroke="white" stroke-width="1.5" pointer-events="none"/>
  </g>
  <g id="zoomMin">
    <use xlink:href="#rim" fill="#404040"><set attributeName="fill" to="#808080" begin="zoomminus.mouseover" end="zoomminus.mouseout"/></use>
    <path d="M-4,0h8" fill="none" stroke="white" stroke-width="1.5" pointer-events="none"/>
  </g>
  <g id="arrowUp" transform="translate(30 24)">
    <use xlink:href="#rim"/>
    <path pointer-events="none" fill="none" stroke="white" stroke-width="1.5" d="M0,-3.0v7 M-2.5,-0.5L0,-3.0L2.5,-0.5"/>
  </g>
  <g id="arrowRight" transform="rotate(90) translate(36 -43)">
    <use xlink:href="#rim"/>
    <path pointer-events="none" fill="none" stroke="white" stroke-width="1.5" d="M0,-3.0v7 M-2.5,-0.5L0,-3.0L2.5,-0.5"/>
  </g>
  <g id="arrowDown" transform="rotate(180) translate(-30 -48)">
    <use xlink:href="#rim"/>
    <path pointer-events="none" fill="none" stroke="white" stroke-width="1.5" d="M0,-3.0v7 M-2.5,-0.5L0,-3.0L2.5,-0.5"/>
  </g>
  <g id="arrowLeft" transform="rotate(270) translate(-36 17)">
    <use xlink:href="#rim"/>
    <path pointer-events="none" fill="none" stroke="white" stroke-width="1.5" d="M0,-3.0v7 M-2.5,-0.5L0,-3.0L2.5,-0.5"/>
  </g>
  <g id="resetDef">
    <use xlink:href="#rim2" fill="#404040"><set attributeName="fill" to="#808080" begin="reset.mouseover" end="reset.mouseout"/></use>
  </g>
</defs>
<script type="application/ecmascript">
var viewWidth = 1193;
var viewHeight = 338;
var sectionId = 'dynsection-1';
</script>
<script type="application/ecmascript" xlink:href="../../svg.min.js"/>
<svg id="graph" class="graph">
<g id="viewport">
<title>Ark::internal::Optimizer</title>
<!-- Node1 -->
<g id="Node000001" class="node">
<title>Node1</title>
<g id="a_Node000001"><a xlink:title="The ArkScript AST optimizer.">
<polygon fill="#999999" stroke="#666666" points="1185.25,-174.1 1068.75,-174.1 1068.75,-154.85 1185.25,-154.85 1185.25,-174.1"/>
<text text-anchor="middle" x="1127" y="-160.6" font-family="Helvetica,sans-Serif" font-size="10.00">Ark::internal::Optimizer</text>
</a>
</g>
</g>
<!-- Node2 -->
<g id="Node000002" class="node">
<title>Node2</title>
<g id="a_Node000002"><a xlink:href="../../da/d7b/classArk_1_1internal_1_1Pass.html" target="_top" xlink:title="An interface to describe compiler passes.">
<polygon fill="white" stroke="#666666" points="1031.75,-174.1 934.75,-174.1 934.75,-154.85 1031.75,-154.85 1031.75,-174.1"/>
<text text-anchor="middle" x="983.25" y="-160.6" font-family="Helvetica,sans-Serif" font-size="10.00">Ark::internal::Pass</text>
</a>
</g>
</g>
<!-- Node2&#45;&gt;Node1 -->
<g id="edge1_Node000001_Node000002" class="edge">
<title>Node2&#45;&gt;Node1</title>
<g id="a_edge1_Node000001_Node000002"><a xlink:title=" ">
<path fill="none" stroke="#63b8ff" d="M1043.75,-164.47C1052.02,-164.47 1060.51,-164.47 1068.74,-164.47"/>
<polygon fill="#63b8ff" stroke="#63b8ff" points="1043.75,-160.97 1033.75,-164.47 1043.75,-167.97 1043.75,-160.97"/>
</a>
</g>
</g>
<!-- Node3 -->
<g id="Node000003" class="node">
<title>Node3</title>
<g id="a_Node000003"><a xlink:href="../../d6/d2f/classArk_1_1internal_1_1Logger.html" target="_top" xlink:title=" ">
<polygon fill="white" stroke="#666666" points="802.75,-174.1 699,-174.1 699,-154.85 802.75,-154.85 802.75,-174.1"/>
<text text-anchor="middle" x="750.88" y="-160.6" font-family="Helvetica,sans-Serif" font-size="10.00">Ark::internal::Logger</text>
</a>
</g>
</g>
<!-- Node3&#45;&gt;Node2 -->
<g id="edge2_Node000002_Node000003" class="edge">
<title>Node3&#45;&gt;Node2</title>
<g id="a_edge2_Node000002_Node000003"><a xlink:title=" ">
<path fill="none" stroke="#9a32cd" stroke-dasharray="5,2" d="M814.4,-164.47C852.19,-164.47 899.62,-164.47 934.41,-164.47"/>
<polygon fill="#9a32cd" stroke="#9a32cd" points="814.52,-160.97 804.52,-164.47 814.52,-167.97 814.52,-160.97"/>
</a>
</g>
<text text-anchor="middle" x="868.75" y="-166.22" font-family="Helvetica,sans-Serif" font-size="10.00" fill="grey"> m_logger</text>
</g>
<!-- Node4 -->
<g id="Node000004" class="node">
<title>Node4</title>
<g id="a_Node000004"><a xlink:title=" ">
<polygon fill="white" stroke="#666666" points="272.38,-174.1 212.88,-174.1 212.88,-154.85 272.38,-154.85 272.38,-174.1"/>
<text text-anchor="middle" x="242.62" y="-160.6" font-family="Helvetica,sans-Serif" font-size="10.00">std::string</text>
</a>
</g>
</g>
<!-- Node4&#45;&gt;Node3 -->
<g id="edge3_Node000003_Node000004" class="edge">
<title>Node4&#45;&gt;Node3</title>
<g id="a_edge3_Node000003_Node000004"><a xlink:title=" ">
<path fill="none" stroke="#9a32cd" stroke-dasharray="5,2" d="M284.17,-164.47C375.65,-164.47 597.94,-164.47 698.71,-164.47"/>
<polygon fill="#9a32cd" stroke="#9a32cd" points="284.18,-160.97 274.18,-164.47 284.18,-167.97 284.18,-160.97"/>
</a>
</g>
<text text-anchor="middle" x="526" y="-166.22" font-family="Helvetica,sans-Serif" font-size="10.00" fill="grey"> m_name</text>
</g>
<!-- Node6 -->
<g id="Node000006" class="node">
<title>Node6</title>
<g id="a_Node000006"><a xlink:title=" ">
<polygon fill="white" stroke="#666666" points="587.25,-257.6 464.75,-257.6 464.75,-193.35 587.25,-193.35 587.25,-257.6"/>
<text text-anchor="start" x="472.75" y="-244.1" font-family="Helvetica,sans-Serif" font-size="10.00">std::unordered_map</text>
<text text-anchor="start" x="472.75" y="-232.85" font-family="Helvetica,sans-Serif" font-size="10.00">&lt; std::string, std::</text>
<text text-anchor="start" x="472.75" y="-221.6" font-family="Helvetica,sans-Serif" font-size="10.00">chrono::time_point&lt; std</text>
<text text-anchor="start" x="472.75" y="-210.35" font-family="Helvetica,sans-Serif" font-size="10.00">::chrono::high_resolution</text>
<text text-anchor="middle" x="526" y="-199.1" font-family="Helvetica,sans-Serif" font-size="10.00">_clock &gt; &gt;</text>
</a>
</g>
</g>
<!-- Node4&#45;&gt;Node6 -->
<g id="edge6_Node000006_Node000004" class="edge">
<title>Node4&#45;&gt;Node6</title>
<g id="a_edge6_Node000006_Node000004"><a xlink:title=" ">
<path fill="none" stroke="#9a32cd" stroke-dasharray="5,2" d="M283.88,-170.82C338.38,-179.46 430.6,-194.31 446,-198.22 452.05,-199.76 458.29,-201.55 464.5,-203.46"/>
<polygon fill="#9a32cd" stroke="#9a32cd" points="284.46,-167.36 274.04,-169.26 283.37,-174.28 284.46,-167.36"/>
</a>
</g>
<text text-anchor="middle" x="381.5" y="-199.97" font-family="Helvetica,sans-Serif" font-size="10.00" fill="grey"> keys</text>
</g>
<!-- Node10 -->
<g id="Node000010" class="node">
<title>Node10</title>
<g id="a_Node000010"><a xlink:title=" ">
<polygon fill="white" stroke="#666666" points="588,-128.1 464,-128.1 464,-108.85 588,-108.85 588,-128.1"/>
<text text-anchor="middle" x="526" y="-114.6" font-family="Helvetica,sans-Serif" font-size="10.00">std::vector&lt; std::string &gt;</text>
</a>
</g>
</g>
<!-- Node4&#45;&gt;Node10 -->
<g id="edge11_Node000010_Node000004" class="edge">
<title>Node4&#45;&gt;Node10</title>
<g id="a_edge11_Node000010_Node000004"><a xlink:title=" ">
<path fill="none" stroke="#9a32cd" stroke-dasharray="5,2" d="M278.8,-150.51C290.76,-146.27 304.3,-142 317,-139.22 365.75,-128.56 422.13,-123.36 463.89,-120.84"/>
<polygon fill="#9a32cd" stroke="#9a32cd" points="277.94,-147.1 269.76,-153.84 280.36,-153.67 277.94,-147.1"/>
</a>
</g>
<text text-anchor="middle" x="381.5" y="-140.97" font-family="Helvetica,sans-Serif" font-size="10.00" fill="grey"> elements</text>
</g>
<!-- Node12 -->
<g id="Node000012" class="node">
<title>Node12</title>
<g id="a_Node000012"><a xlink:href="../../dc/d9e/classArk_1_1internal_1_1Node.html" target="_top" xlink:title="A node of an Abstract Syntax Tree for ArkScript.">
<polygon fill="white" stroke="#666666" points="574.88,-91.1 477.12,-91.1 477.12,-71.85 574.88,-71.85 574.88,-91.1"/>
<text text-anchor="middle" x="526" y="-77.6" font-family="Helvetica,sans-Serif" font-size="10.00">Ark::internal::Node</text>
</a>
</g>
</g>
<!-- Node4&#45;&gt;Node12 -->
<g id="edge17_Node000012_Node000004" class="edge">
<title>Node4&#45;&gt;Node12</title>
<g id="a_edge17_Node000012_Node000004"><a xlink:title=" ">
<path fill="none" stroke="#9a32cd" stroke-dasharray="5,2" d="M262.35,-146.74C273.39,-136 287.41,-121.84 299,-108.47 307.68,-98.46 305.19,-90.71 317,-84.72 368.39,-58.69 436.48,-63.83 480.52,-71.41"/>
<polygon fill="#9a32cd" stroke="#9a32cd" points="260.12,-144.03 255.34,-153.49 264.97,-149.08 260.12,-144.03"/>
</a>
</g>
<text text-anchor="middle" x="381.5" y="-108.97" font-family="Helvetica,sans-Serif" font-size="10.00" fill="grey"> m_after_comment</text>
<text text-anchor="middle" x="381.5" y="-97.72" font-family="Helvetica,sans-Serif" font-size="10.00" fill="grey">m_comment</text>
<text text-anchor="middle" x="381.5" y="-86.47" font-family="Helvetica,sans-Serif" font-size="10.00" fill="grey">m_filename</text>
</g>
<!-- Node15 -->
<g id="Node000015" class="node">
<title>Node15</title>
<g id="a_Node000015"><a xlink:title=" ">
<polygon fill="white" stroke="#666666" points="587.25,-305.72 464.75,-305.72 464.75,-275.22 587.25,-275.22 587.25,-305.72"/>
<text text-anchor="start" x="472.75" y="-292.22" font-family="Helvetica,sans-Serif" font-size="10.00">std::unordered_map</text>
<text text-anchor="middle" x="526" y="-280.97" font-family="Helvetica,sans-Serif" font-size="10.00">&lt; std::string, unsigned &gt;</text>
</a>
</g>
</g>
<!-- Node4&#45;&gt;Node15 -->
<g id="edge19_Node000015_Node000004" class="edge">
<title>Node4&#45;&gt;Node15</title>
<g id="a_edge19_Node000015_Node000004"><a xlink:title=" ">
<path fill="none" stroke="#9a32cd" stroke-dasharray="5,2" d="M265.58,-181.1C279.58,-190.88 298.51,-202.62 317,-209.47 371.45,-229.65 399.24,-195.79 446,-230.22 460.48,-240.89 450.75,-254.31 464,-266.47 467.44,-269.63 471.34,-272.39 475.47,-274.8"/>
<polygon fill="#9a32cd" stroke="#9a32cd" points="267.72,-178.33 257.57,-175.32 263.63,-184.01 267.72,-178.33"/>
</a>
</g>
<text text-anchor="middle" x="381.5" y="-231.97" font-family="Helvetica,sans-Serif" font-size="10.00" fill="grey"> keys</text>
</g>
<!-- Node5 -->
<g id="Node000005" class="node">
<title>Node5</title>
<g id="a_Node000005"><a xlink:title=" ">
<polygon fill="white" stroke="#666666" points="100.75,-179.72 6.75,-179.72 6.75,-149.22 100.75,-149.22 100.75,-179.72"/>
<text text-anchor="start" x="14.75" y="-166.22" font-family="Helvetica,sans-Serif" font-size="10.00">std::basic_string&lt;</text>
<text text-anchor="middle" x="53.75" y="-154.97" font-family="Helvetica,sans-Serif" font-size="10.00"> Char &gt;</text>
</a>
</g>
</g>
<!-- Node5&#45;&gt;Node4 -->
<g id="edge4_Node000004_Node000005" class="edge">
<title>Node5&#45;&gt;Node4</title>
<g id="a_edge4_Node000004_Node000005"><a xlink:title=" ">
<path fill="none" stroke="#63b8ff" d="M112.35,-164.47C145.55,-164.47 185.85,-164.47 212.54,-164.47"/>
<polygon fill="#63b8ff" stroke="#63b8ff" points="112.46,-160.97 102.46,-164.47 112.46,-167.97 112.46,-160.97"/>
</a>
</g>
</g>
<!-- Node6&#45;&gt;Node3 -->
<g id="edge5_Node000003_Node000006" class="edge">
<title>Node6&#45;&gt;Node3</title>
<g id="a_edge5_Node000003_Node000006"><a xlink:title=" ">
<path fill="none" stroke="#9a32cd" stroke-dasharray="5,2" d="M598.66,-205.86C636.77,-195.43 682.01,-183.05 713.02,-174.56"/>
<polygon fill="#9a32cd" stroke="#9a32cd" points="597.79,-202.47 589.07,-208.49 599.64,-209.22 597.79,-202.47"/>
</a>
</g>
<text text-anchor="middle" x="643.5" y="-203.98" font-family="Helvetica,sans-Serif" font-size="10.00" fill="grey"> m_trace_starts</text>
</g>
<!-- Node7 -->
<g id="Node000007" class="node">
<title>Node7</title>
<g id="a_Node000007"><a xlink:title=" ">
<polygon fill="white" stroke="#666666" points="293.75,-280.72 191.5,-280.72 191.5,-250.22 293.75,-250.22 293.75,-280.72"/>
<text text-anchor="start" x="199.5" y="-267.22" font-family="Helvetica,sans-Serif" font-size="10.00">std::unordered_map</text>
<text text-anchor="middle" x="242.62" y="-255.97" font-family="Helvetica,sans-Serif" font-size="10.00">&lt; K, T &gt;</text>
</a>
</g>
</g>
<!-- Node7&#45;&gt;Node6 -->
<g id="edge7_Node000006_Node000007" class="edge">
<title>Node7&#45;&gt;Node6</title>
<g id="a_edge7_Node000006_Node000007"><a xlink:title=" ">
<path fill="none" stroke="orange" stroke-dasharray="5,2" d="M305.4,-260.63C345.61,-257.01 399.11,-251.34 446,-243.47 451.97,-242.47 458.16,-241.3 464.33,-240.04"/>
<polygon fill="orange" stroke="orange" points="305.33,-257.12 295.67,-261.48 305.94,-264.09 305.33,-257.12"/>
</a>
</g>
<text text-anchor="start" x="317" y="-294.68" font-family="Helvetica,sans-Serif" font-size="10.00" fill="grey"> &lt; std::string, std</text>
<text text-anchor="start" x="317" y="-283.43" font-family="Helvetica,sans-Serif" font-size="10.00" fill="grey">::chrono::time_point</text>
<text text-anchor="start" x="317" y="-272.18" font-family="Helvetica,sans-Serif" font-size="10.00" fill="grey">&lt; std::chrono::high_resolution</text>
<text text-anchor="middle" x="381.5" y="-260.93" font-family="Helvetica,sans-Serif" font-size="10.00" fill="grey">_clock &gt; &gt;</text>
</g>
<!-- Node7&#45;&gt;Node15 -->
<g id="edge20_Node000015_Node000007" class="edge">
<title>Node7&#45;&gt;Node15</title>
<g id="a_edge20_Node000015_Node000007"><a xlink:title=" ">
<path fill="none" stroke="orange" stroke-dasharray="5,2" d="M271.01,-287.79C284.1,-297.05 300.49,-306.72 317,-311.47 369.15,-326.47 431.32,-316.79 474.03,-306.14"/>
<polygon fill="orange" stroke="orange" points="273.45,-285.24 263.33,-282.1 269.28,-290.87 273.45,-285.24"/>
</a>
</g>
<text text-anchor="middle" x="381.5" y="-320.93" font-family="Helvetica,sans-Serif" font-size="10.00" fill="grey"> &lt; std::string, unsigned &gt;</text>
</g>
<!-- Node8 -->
<g id="Node000008" class="node">
<title>Node8</title>
<g id="a_Node000008"><a xlink:title=" ">
<polygon fill="white" stroke="#666666" points="68.15,-275.1 39.35,-275.1 39.35,-255.85 68.15,-255.85 68.15,-275.1"/>
<text text-anchor="middle" x="53.75" y="-261.6" font-family="Helvetica,sans-Serif" font-size="10.00">K</text>
</a>
</g>
</g>
<!-- Node8&#45;&gt;Node7 -->
<g id="edge8_Node000007_Node000008" class="edge">
<title>Node8&#45;&gt;Node7</title>
<g id="a_edge8_Node000007_Node000008"><a xlink:title=" ">
<path fill="none" stroke="#9a32cd" stroke-dasharray="5,2" d="M79.79,-265.47C108.21,-265.47 155.32,-265.47 191.4,-265.47"/>
<polygon fill="#9a32cd" stroke="#9a32cd" points="80,-261.97 70,-265.47 80,-268.97 80,-261.97"/>
</a>
</g>
<text text-anchor="middle" x="146.88" y="-267.22" font-family="Helvetica,sans-Serif" font-size="10.00" fill="grey"> keys</text>
</g>
<!-- Node9 -->
<g id="Node000009" class="node">
<title>Node9</title>
<g id="a_Node000009"><a xlink:title=" ">
<polygon fill="white" stroke="#666666" points="68.15,-228.1 39.35,-228.1 39.35,-208.85 68.15,-208.85 68.15,-228.1"/>
<text text-anchor="middle" x="53.75" y="-214.6" font-family="Helvetica,sans-Serif" font-size="10.00">T</text>
</a>
</g>
</g>
<!-- Node9&#45;&gt;Node7 -->
<g id="edge9_Node000007_Node000009" class="edge">
<title>Node9&#45;&gt;Node7</title>
<g id="a_edge9_Node000007_Node000009"><a xlink:title=" ">
<path fill="none" stroke="#9a32cd" stroke-dasharray="5,2" d="M79.41,-224.67C107.79,-231.81 155.16,-243.72 191.4,-252.84"/>
<polygon fill="#9a32cd" stroke="#9a32cd" points="80.51,-221.34 69.96,-222.3 78.8,-228.13 80.51,-221.34"/>
</a>
</g>
<text text-anchor="middle" x="146.88" y="-247.93" font-family="Helvetica,sans-Serif" font-size="10.00" fill="grey"> elements</text>
</g>
<!-- Node11 -->
<g id="Node000011" class="node">
<title>Node11</title>
<g id="a_Node000011"><a xlink:title=" ">
<polygon fill="white" stroke="#666666" points="285.88,-99.1 199.38,-99.1 199.38,-79.85 285.88,-79.85 285.88,-99.1"/>
<text text-anchor="middle" x="242.62" y="-85.6" font-family="Helvetica,sans-Serif" font-size="10.00">std::vector&lt; T &gt;</text>
</a>
</g>
</g>
<!-- Node9&#45;&gt;Node11 -->
<g id="edge13_Node000011_Node000009" class="edge">
<title>Node9&#45;&gt;Node11</title>
<g id="a_edge13_Node000011_Node000009"><a xlink:title=" ">
<path fill="none" stroke="#9a32cd" stroke-dasharray="5,2" d="M78.49,-205.76C87.7,-200.63 98.23,-194.5 107.5,-188.47 153.85,-158.34 205.7,-118.06 229.04,-99.55"/>
<polygon fill="#9a32cd" stroke="#9a32cd" points="76.87,-202.66 69.78,-210.53 80.23,-208.79 76.87,-202.66"/>
</a>
</g>
<text text-anchor="middle" x="146.88" y="-177.64" font-family="Helvetica,sans-Serif" font-size="10.00" fill="grey"> elements</text>
</g>
<!-- Node10&#45;&gt;Node3 -->
<g id="edge10_Node000003_Node000010" class="edge">
<title>Node10&#45;&gt;Node3</title>
<g id="a_edge10_Node000003_Node000010"><a xlink:title=" ">
<path fill="none" stroke="#9a32cd" stroke-dasharray="5,2" d="M599.55,-124.96C625.48,-128.14 654.77,-132.73 681,-139.22 696.45,-143.05 713.24,-149.16 726.37,-154.41"/>
<polygon fill="#9a32cd" stroke="#9a32cd" points="600.13,-121.5 589.79,-123.81 599.31,-128.45 600.13,-121.5"/>
</a>
</g>
<text text-anchor="middle" x="643.5" y="-140.97" font-family="Helvetica,sans-Serif" font-size="10.00" fill="grey"> m_active_traces</text>
</g>
<!-- Node11&#45;&gt;Node10 -->
<g id="edge12_Node000010_Node000011" class="edge">
<title>Node11&#45;&gt;Node10</title>
<g id="a_edge12_Node000010_Node000011"><a xlink:title=" ">
<path fill="none" stroke="orange" stroke-dasharray="5,2" d="M265.72,-73.08C279.65,-63.79 298.46,-53.08 317,-48.22 372.46,-33.7 399.32,-14.93 446,-48.22 466,-62.48 446.25,-83.5 464,-100.47 467.35,-103.68 471.25,-106.32 475.41,-108.49"/>
<polygon fill="orange" stroke="orange" points="263.97,-70.03 257.76,-78.62 267.97,-75.78 263.97,-70.03"/>
</a>
</g>
<text text-anchor="middle" x="381.5" y="-49.97" font-family="Helvetica,sans-Serif" font-size="10.00" fill="grey"> &lt; std::string &gt;</text>
</g>
<!-- Node12&#45;&gt;Node1 -->
<g id="edge14_Node000001_Node000012" class="edge">
<title>Node12&#45;&gt;Node1</title>
<g id="a_edge14_Node000001_Node000012"><a xlink:title=" ">
<path fill="none" stroke="#9a32cd" stroke-dasharray="5,2" d="M586.52,-87.6C681.12,-97.66 871.51,-119.2 1031.75,-145.47 1047.4,-148.04 1064.41,-151.32 1079.62,-154.42"/>
<polygon fill="#9a32cd" stroke="#9a32cd" points="587.01,-84.13 576.69,-86.56 586.27,-91.09 587.01,-84.13"/>
</a>
</g>
<text text-anchor="middle" x="868.75" y="-129.52" font-family="Helvetica,sans-Serif" font-size="10.00" fill="grey"> m_ast</text>
</g>
<!-- Node13 -->
<g id="Node000013" class="node">
<title>Node13</title>
<g id="a_Node000013"><a xlink:href="../../dc/dda/structArk_1_1internal_1_1FileSpan.html" target="_top" xlink:title="Describes a span for a node/atom in a file, its start position and end position.">
<polygon fill="white" stroke="#666666" points="299,-23.1 186.25,-23.1 186.25,-3.85 299,-3.85 299,-23.1"/>
<text text-anchor="middle" x="242.62" y="-9.6" font-family="Helvetica,sans-Serif" font-size="10.00">Ark::internal::FileSpan</text>
</a>
</g>
</g>
<!-- Node13&#45;&gt;Node12 -->
<g id="edge15_Node000012_Node000013" class="edge">
<title>Node13&#45;&gt;Node12</title>
<g id="a_edge15_Node000012_Node000013"><a xlink:title=" ">
<path fill="none" stroke="#9a32cd" stroke-dasharray="5,2" d="M310.49,-2.4C350.94,1.58 402.87,1.74 446,-14.22 477.25,-25.79 504.59,-55.76 517.35,-71.49"/>
<polygon fill="#9a32cd" stroke="#9a32cd" points="310.19,1.09 300.63,-3.48 310.95,-5.87 310.19,1.09"/>
</a>
</g>
<text text-anchor="middle" x="381.5" y="-15.97" font-family="Helvetica,sans-Serif" font-size="10.00" fill="grey"> m_pos</text>
</g>
<!-- Node14 -->
<g id="Node000014" class="node">
<title>Node14</title>
<g id="a_Node000014"><a xlink:href="../../d7/df6/structArk_1_1internal_1_1FilePos.html" target="_top" xlink:title=" ">
<polygon fill="white" stroke="#666666" points="107.5,-23.1 0,-23.1 0,-3.85 107.5,-3.85 107.5,-23.1"/>
<text text-anchor="middle" x="53.75" y="-9.6" font-family="Helvetica,sans-Serif" font-size="10.00">Ark::internal::FilePos</text>
</a>
</g>
</g>
<!-- Node14&#45;&gt;Node13 -->
<g id="edge16_Node000013_Node000014" class="edge">
<title>Node14&#45;&gt;Node13</title>
<g id="a_edge16_Node000013_Node000014"><a xlink:title=" ">
<path fill="none" stroke="#9a32cd" stroke-dasharray="5,2" d="M119.23,-13.47C140.91,-13.47 164.88,-13.47 185.83,-13.47"/>
<polygon fill="#9a32cd" stroke="#9a32cd" points="119.31,-9.97 109.31,-13.47 119.31,-16.97 119.31,-9.97"/>
</a>
</g>
<text text-anchor="middle" x="146.88" y="-15.22" font-family="Helvetica,sans-Serif" font-size="10.00" fill="grey"> start</text>
</g>
<!-- Node15&#45;&gt;Node1 -->
<g id="edge18_Node000001_Node000015" class="edge">
<title>Node15&#45;&gt;Node1</title>
<g id="a_edge18_Node000001_Node000015"><a xlink:title=" ">
<path fill="none" stroke="#9a32cd" stroke-dasharray="5,2" d="M598.95,-275.34C722.76,-249.29 972.9,-196.68 1077.89,-174.59"/>
<polygon fill="#9a32cd" stroke="#9a32cd" points="598.28,-271.9 589.21,-277.39 599.72,-278.75 598.28,-271.9"/>
</a>
</g>
<text text-anchor="middle" x="868.75" y="-229.22" font-family="Helvetica,sans-Serif" font-size="10.00" fill="grey"> m_sym_appearances</text>
</g>
</g>
</svg>

<g id="navigator" transform="translate(0 0)" fill="#404254">
  <rect fill="#f2f5e9" fill-opacity="0.5" stroke="#606060" stroke-width=".5" x="0" y="0" width="60" height="60"/>
  <use id="zoomplus" xlink:href="#zoomPlus" x="17" y="9" onmousedown="handleZoom(evt,'in')"/>
  <use id="zoomminus" xlink:href="#zoomMin" x="42" y="9" onmousedown="handleZoom(evt,'out')"/>
  <use id="reset" xlink:href="#resetDef" x="30" y="36" onmousedown="handleReset()"/>
   <use id="arrowup" xlink:href="#arrowUp" x="0" y="0" onmousedown="handlePan(0,-1)"/>
  <use id="arrowright" xlink:href="#arrowRight" x="0" y="0" onmousedown="handlePan(1,0)"/>
  <use id="arrowdown" xlink:href="#arrowDown" x="0" y="0" onmousedown="handlePan(0,1)"/>
  <use id="arrowleft" xlink:href="#arrowLeft" x="0" y="0" onmousedown="handlePan(-1,0)"/>
</g>
<svg viewBox="0 0 15 15" width="100%" height="30px" preserveAspectRatio="xMaxYMin meet">
 <g id="arrow_out" transform="scale(0.3 0.3)">
  <a xlink:href="classArk_1_1internal_1_1Optimizer__coll__graph_org.svg" target="_base">
   <rect id="button" ry="5" rx="5" y="6" x="6" height="38" width="38"
        fill="#f2f5e9" fill-opacity="0.5" stroke="#606060" stroke-width="1.0"/>
   <path id="arrow"
     d="M 11.500037,31.436501 C 11.940474,20.09759 22.043105,11.32322 32.158766,21.979434 L 37.068811,17.246167 C 37.068811,17.246167 37.088388,32 37.088388,32 L 22.160133,31.978069 C 22.160133,31.978069 26.997745,27.140456 26.997745,27.140456 C 18.528582,18.264221 13.291696,25.230495 11.500037,31.436501 z"
     style="fill:#404040;"/>
  </a>
 </g>
</svg>

<style type='text/css'>
<![CDATA[
[data-mouse-over-selected='false'] { opacity: 0.7; }
[data-mouse-over-selected='true']  { opacity: 1.0; }
]]>
</style>
<script type="application/ecmascript"><![CDATA[
document.addEventListener('DOMContentLoaded', (event) => {
  highlightEdges();
  highlightAdjacentNodes();
});
]]></script>
</svg>
