<?xml version="1.0" encoding="UTF-8" standalone="no"?>
<!DOCTYPE svg PUBLIC "-//W3C//DTD SVG 1.1//EN"
 "http://www.w3.org/Graphics/SVG/1.1/DTD/svg11.dtd">
<!-- Generated by graphviz version 12.2.0 (20241103.1931)
 -->
<!-- Title: Ark::internal::Optimizer Pages: 1 -->
<svg width="1313pt" height="389pt"
 viewBox="0.00 0.00 1313.00 388.88" xmlns="http://www.w3.org/2000/svg" xmlns:xlink="http://www.w3.org/1999/xlink">
<g id="graph0" class="graph" transform="scale(1 1) rotate(0) translate(4 384.88)">
<title>Ark::internal::Optimizer</title>
<!-- Node1 -->
<g id="Node000001" class="node">
<title>Node1</title>
<g id="a_Node000001"><a xlink:title="The ArkScript AST optimizer.">
<polygon fill="#999999" stroke="#666666" points="1305,-85.25 1188.5,-85.25 1188.5,-66 1305,-66 1305,-85.25"/>
<text text-anchor="middle" x="1246.75" y="-71.75" font-family="Helvetica,sans-Serif" font-size="10.00">Ark::internal::Optimizer</text>
</a>
</g>
</g>
<!-- Node2 -->
<g id="Node000002" class="node">
<title>Node2</title>
<g id="a_Node000002"><a xlink:href="../../da/d7b/classArk_1_1internal_1_1Pass.html" target="_top" xlink:title="An interface to describe compiler passes.">
<polygon fill="white" stroke="#666666" points="1151.5,-160.25 1054.5,-160.25 1054.5,-141 1151.5,-141 1151.5,-160.25"/>
<text text-anchor="middle" x="1103" y="-146.75" font-family="Helvetica,sans-Serif" font-size="10.00">Ark::internal::Pass</text>
</a>
</g>
</g>
<!-- Node2&#45;&gt;Node1 -->
<g id="edge1_Node000001_Node000002" class="edge">
<title>Node2&#45;&gt;Node1</title>
<g id="a_edge1_Node000001_Node000002"><a xlink:title=" ">
<path fill="none" stroke="#63b8ff" d="M1133.16,-135.2C1161.26,-120.33 1202.96,-98.26 1226.94,-85.58"/>
<polygon fill="#63b8ff" stroke="#63b8ff" points="1131.66,-132.03 1124.45,-139.8 1134.93,-138.22 1131.66,-132.03"/>
</a>
</g>
</g>
<!-- Node3 -->
<g id="Node000003" class="node">
<title>Node3</title>
<g id="a_Node000003"><a xlink:href="../../d6/d2f/classArk_1_1internal_1_1Logger.html" target="_top" xlink:title=" ">
<polygon fill="white" stroke="#666666" points="922.5,-197.25 818.75,-197.25 818.75,-178 922.5,-178 922.5,-197.25"/>
<text text-anchor="middle" x="870.62" y="-183.75" font-family="Helvetica,sans-Serif" font-size="10.00">Ark::internal::Logger</text>
</a>
</g>
</g>
<!-- Node3&#45;&gt;Node2 -->
<g id="edge2_Node000002_Node000003" class="edge">
<title>Node3&#45;&gt;Node2</title>
<g id="a_edge2_Node000002_Node000003"><a xlink:title=" ">
<path fill="none" stroke="#9a32cd" stroke-dasharray="5,2" d="M933.66,-177.66C971.53,-171.58 1019.22,-163.92 1054.16,-158.31"/>
<polygon fill="#9a32cd" stroke="#9a32cd" points="933.57,-174.13 924.25,-179.17 934.68,-181.04 933.57,-174.13"/>
</a>
</g>
<text text-anchor="middle" x="988.5" y="-177.41" font-family="Helvetica,sans-Serif" font-size="10.00" fill="grey"> m_logger</text>
</g>
<!-- Node4 -->
<g id="Node000004" class="node">
<title>Node4</title>
<g id="a_Node000004"><a xlink:title=" ">
<polygon fill="white" stroke="#666666" points="392.12,-136.25 332.62,-136.25 332.62,-117 392.12,-117 392.12,-136.25"/>
<text text-anchor="middle" x="362.38" y="-122.75" font-family="Helvetica,sans-Serif" font-size="10.00">std::string</text>
</a>
</g>
</g>
<!-- Node4&#45;&gt;Node3 -->
<g id="edge3_Node000003_Node000004" class="edge">
<title>Node4&#45;&gt;Node3</title>
<g id="a_edge3_Node000003_Node000004"><a xlink:title=" ">
<path fill="none" stroke="#9a32cd" stroke-dasharray="5,2" d="M403.49,-123.95C468.09,-120.47 598.97,-116.83 707.75,-135.38 758.26,-143.98 814.66,-164.92 845.76,-177.53"/>
<polygon fill="#9a32cd" stroke="#9a32cd" points="403.51,-120.45 393.73,-124.51 403.91,-127.44 403.51,-120.45"/>
</a>
</g>
<text text-anchor="middle" x="645.75" y="-137.12" font-family="Helvetica,sans-Serif" font-size="10.00" fill="grey"> m_name</text>
</g>
<!-- Node6 -->
<g id="Node000006" class="node">
<title>Node6</title>
<g id="a_Node000006"><a xlink:title=" ">
<polygon fill="white" stroke="#666666" points="707,-219.75 584.5,-219.75 584.5,-155.5 707,-155.5 707,-219.75"/>
<text text-anchor="start" x="592.5" y="-206.25" font-family="Helvetica,sans-Serif" font-size="10.00">std::unordered_map</text>
<text text-anchor="start" x="592.5" y="-195" font-family="Helvetica,sans-Serif" font-size="10.00">&lt; std::string, std::</text>
<text text-anchor="start" x="592.5" y="-183.75" font-family="Helvetica,sans-Serif" font-size="10.00">chrono::time_point&lt; std</text>
<text text-anchor="start" x="592.5" y="-172.5" font-family="Helvetica,sans-Serif" font-size="10.00">::chrono::high_resolution</text>
<text text-anchor="middle" x="645.75" y="-161.25" font-family="Helvetica,sans-Serif" font-size="10.00">_clock &gt; &gt;</text>
</a>
</g>
</g>
<!-- Node4&#45;&gt;Node6 -->
<g id="edge6_Node000006_Node000004" class="edge">
<title>Node4&#45;&gt;Node6</title>
<g id="a_edge6_Node000006_Node000004"><a xlink:title=" ">
<path fill="none" stroke="#9a32cd" stroke-dasharray="5,2" d="M403.63,-132.97C458.13,-141.61 550.35,-156.46 565.75,-160.38 571.8,-161.91 578.04,-163.7 584.25,-165.61"/>
<polygon fill="#9a32cd" stroke="#9a32cd" points="404.21,-129.52 393.79,-131.41 403.12,-136.43 404.21,-129.52"/>
</a>
</g>
<text text-anchor="middle" x="501.25" y="-162.12" font-family="Helvetica,sans-Serif" font-size="10.00" fill="grey"> keys</text>
</g>
<!-- Node10 -->
<g id="Node000010" class="node">
<title>Node10</title>
<g id="a_Node000010"><a xlink:title=" ">
<polygon fill="white" stroke="#666666" points="707.75,-257.25 583.75,-257.25 583.75,-238 707.75,-238 707.75,-257.25"/>
<text text-anchor="middle" x="645.75" y="-243.75" font-family="Helvetica,sans-Serif" font-size="10.00">std::vector&lt; std::string &gt;</text>
</a>
</g>
</g>
<!-- Node4&#45;&gt;Node10 -->
<g id="edge11_Node000010_Node000004" class="edge">
<title>Node4&#45;&gt;Node10</title>
<g id="a_edge11_Node000010_Node000004"><a xlink:title=" ">
<path fill="none" stroke="#9a32cd" stroke-dasharray="5,2" d="M375.76,-146.11C388.63,-164.61 410.55,-191.62 436.75,-205.62 487.96,-233 508.97,-214.21 565.75,-226.38 580.47,-229.53 596.55,-233.72 610.33,-237.54"/>
<polygon fill="#9a32cd" stroke="#9a32cd" points="378.71,-144.23 370.25,-137.86 372.89,-148.12 378.71,-144.23"/>
</a>
</g>
<text text-anchor="middle" x="501.25" y="-228.12" font-family="Helvetica,sans-Serif" font-size="10.00" fill="grey"> elements</text>
</g>
<!-- Node16 -->
<g id="Node000016" class="node">
<title>Node16</title>
<g id="a_Node000016"><a xlink:href="../../dc/d9e/classArk_1_1internal_1_1Node.html" target="_top" xlink:title="A node of an Abstract Syntax Tree for ArkScript.">
<polygon fill="white" stroke="#666666" points="694.62,-42.25 596.88,-42.25 596.88,-23 694.62,-23 694.62,-42.25"/>
<text text-anchor="middle" x="645.75" y="-28.75" font-family="Helvetica,sans-Serif" font-size="10.00">Ark::internal::Node</text>
</a>
</g>
</g>
<!-- Node4&#45;&gt;Node16 -->
<g id="edge21_Node000016_Node000004" class="edge">
<title>Node4&#45;&gt;Node16</title>
<g id="a_edge21_Node000016_Node000004"><a xlink:title=" ">
<path fill="none" stroke="#9a32cd" stroke-dasharray="5,2" d="M374.46,-106.82C386.8,-86.94 408.74,-57.4 436.75,-43.88 487.23,-19.51 552.83,-20.52 596.74,-25.12"/>
<polygon fill="#9a32cd" stroke="#9a32cd" points="371.46,-105.01 369.39,-115.4 377.49,-108.57 371.46,-105.01"/>
</a>
</g>
<text text-anchor="middle" x="501.25" y="-68.12" font-family="Helvetica,sans-Serif" font-size="10.00" fill="grey"> m_after_comment</text>
<text text-anchor="middle" x="501.25" y="-56.88" font-family="Helvetica,sans-Serif" font-size="10.00" fill="grey">m_comment</text>
<text text-anchor="middle" x="501.25" y="-45.62" font-family="Helvetica,sans-Serif" font-size="10.00" fill="grey">m_filename</text>
</g>
<!-- Node19 -->
<g id="Node000019" class="node">
<title>Node19</title>
<g id="a_Node000019"><a xlink:title=" ">
<polygon fill="white" stroke="#666666" points="707,-90.88 584.5,-90.88 584.5,-60.38 707,-60.38 707,-90.88"/>
<text text-anchor="start" x="592.5" y="-77.38" font-family="Helvetica,sans-Serif" font-size="10.00">std::unordered_map</text>
<text text-anchor="middle" x="645.75" y="-66.12" font-family="Helvetica,sans-Serif" font-size="10.00">&lt; std::string, unsigned &gt;</text>
</a>
</g>
</g>
<!-- Node4&#45;&gt;Node19 -->
<g id="edge23_Node000019_Node000004" class="edge">
<title>Node4&#45;&gt;Node19</title>
<g id="a_edge23_Node000019_Node000004"><a xlink:title=" ">
<path fill="none" stroke="#9a32cd" stroke-dasharray="5,2" d="M399.24,-112.61C411.04,-108.46 424.32,-104.25 436.75,-101.38 485.67,-90.06 542.29,-83.46 584.1,-79.78"/>
<polygon fill="#9a32cd" stroke="#9a32cd" points="398.08,-109.31 389.89,-116.02 400.48,-115.89 398.08,-109.31"/>
</a>
</g>
<text text-anchor="middle" x="501.25" y="-103.12" font-family="Helvetica,sans-Serif" font-size="10.00" fill="grey"> keys</text>
</g>
<!-- Node5 -->
<g id="Node000005" class="node">
<title>Node5</title>
<g id="a_Node000005"><a xlink:title=" ">
<polygon fill="white" stroke="#666666" points="216.38,-141.88 122.38,-141.88 122.38,-111.38 216.38,-111.38 216.38,-141.88"/>
<text text-anchor="start" x="130.38" y="-128.38" font-family="Helvetica,sans-Serif" font-size="10.00">std::basic_string&lt;</text>
<text text-anchor="middle" x="169.38" y="-117.12" font-family="Helvetica,sans-Serif" font-size="10.00"> Char &gt;</text>
</a>
</g>
</g>
<!-- Node5&#45;&gt;Node4 -->
<g id="edge4_Node000004_Node000005" class="edge">
<title>Node5&#45;&gt;Node4</title>
<g id="a_edge4_Node000004_Node000005"><a xlink:title=" ">
<path fill="none" stroke="#63b8ff" d="M227.94,-126.62C262.34,-126.62 304.57,-126.62 332.19,-126.62"/>
<polygon fill="#63b8ff" stroke="#63b8ff" points="228.12,-123.13 218.12,-126.63 228.12,-130.13 228.12,-123.13"/>
</a>
</g>
</g>
<!-- Node6&#45;&gt;Node3 -->
<g id="edge5_Node000003_Node000006" class="edge">
<title>Node6&#45;&gt;Node3</title>
<g id="a_edge5_Node000003_Node000006"><a xlink:title=" ">
<path fill="none" stroke="#9a32cd" stroke-dasharray="5,2" d="M718.63,-187.62C751.17,-187.62 788.87,-187.62 818.47,-187.62"/>
<polygon fill="#9a32cd" stroke="#9a32cd" points="718.87,-184.13 708.87,-187.63 718.87,-191.13 718.87,-184.13"/>
</a>
</g>
<text text-anchor="middle" x="763.25" y="-189.38" font-family="Helvetica,sans-Serif" font-size="10.00" fill="grey"> m_trace_starts</text>
</g>
<!-- Node7 -->
<g id="Node000007" class="node">
<title>Node7</title>
<g id="a_Node000007"><a xlink:title=" ">
<polygon fill="white" stroke="#666666" points="413.5,-273.88 311.25,-273.88 311.25,-243.38 413.5,-243.38 413.5,-273.88"/>
<text text-anchor="start" x="319.25" y="-260.38" font-family="Helvetica,sans-Serif" font-size="10.00">std::unordered_map</text>
<text text-anchor="middle" x="362.38" y="-249.12" font-family="Helvetica,sans-Serif" font-size="10.00">&lt; K, T &gt;</text>
</a>
</g>
</g>
<!-- Node7&#45;&gt;Node6 -->
<g id="edge7_Node000006_Node000007" class="edge">
<title>Node7&#45;&gt;Node6</title>
<g id="a_edge7_Node000006_Node000007"><a xlink:title=" ">
<path fill="none" stroke="orange" stroke-dasharray="5,2" d="M425.33,-260.5C466.26,-259.9 520.5,-255.52 565.75,-239.62 567.76,-238.92 581.18,-230.2 596.4,-220.1"/>
<polygon fill="orange" stroke="orange" points="425.37,-257 415.4,-260.57 425.42,-264 425.37,-257"/>
</a>
</g>
<text text-anchor="start" x="436.75" y="-295.72" font-family="Helvetica,sans-Serif" font-size="10.00" fill="grey"> &lt; std::string, std</text>
<text text-anchor="start" x="436.75" y="-284.47" font-family="Helvetica,sans-Serif" font-size="10.00" fill="grey">::chrono::time_point</text>
<text text-anchor="start" x="436.75" y="-273.22" font-family="Helvetica,sans-Serif" font-size="10.00" fill="grey">&lt; std::chrono::high_resolution</text>
<text text-anchor="middle" x="501.25" y="-261.97" font-family="Helvetica,sans-Serif" font-size="10.00" fill="grey">_clock &gt; &gt;</text>
</g>
<!-- Node7&#45;&gt;Node19 -->
<g id="edge24_Node000019_Node000007" class="edge">
<title>Node7&#45;&gt;Node19</title>
<g id="a_edge24_Node000019_Node000007"><a xlink:title=" ">
<path fill="none" stroke="orange" stroke-dasharray="5,2" d="M383.56,-234.38C397.07,-219.82 416.11,-202.27 436.75,-192.38 489.12,-167.28 522.63,-210.52 565.75,-171.62 588.65,-150.97 564.01,-128.31 583.75,-104.62 588.18,-99.31 593.81,-94.9 599.85,-91.27"/>
<polygon fill="orange" stroke="orange" points="380.95,-232.04 376.9,-241.83 386.17,-236.7 380.95,-232.04"/>
</a>
</g>
<text text-anchor="middle" x="501.25" y="-194.12" font-family="Helvetica,sans-Serif" font-size="10.00" fill="grey"> &lt; std::string, unsigned &gt;</text>
</g>
<!-- Node8 -->
<g id="Node000008" class="node">
<title>Node8</title>
<g id="a_Node000008"><a xlink:title=" ">
<polygon fill="white" stroke="#666666" points="183.78,-264.25 154.97,-264.25 154.97,-245 183.78,-245 183.78,-264.25"/>
<text text-anchor="middle" x="169.38" y="-250.75" font-family="Helvetica,sans-Serif" font-size="10.00">K</text>
</a>
</g>
</g>
<!-- Node8&#45;&gt;Node7 -->
<g id="edge8_Node000007_Node000008" class="edge">
<title>Node8&#45;&gt;Node7</title>
<g id="a_edge8_Node000007_Node000008"><a xlink:title=" ">
<path fill="none" stroke="#9a32cd" stroke-dasharray="5,2" d="M195.63,-254.51C219.46,-254.47 256.16,-254.57 288,-255.38 295.39,-255.56 303.2,-255.83 310.86,-256.14"/>
<polygon fill="#9a32cd" stroke="#9a32cd" points="195.64,-251.01 185.65,-254.54 195.66,-258.01 195.64,-251.01"/>
</a>
</g>
<text text-anchor="middle" x="266.62" y="-257.12" font-family="Helvetica,sans-Serif" font-size="10.00" fill="grey"> keys</text>
</g>
<!-- Node9 -->
<g id="Node000009" class="node">
<title>Node9</title>
<g id="a_Node000009"><a xlink:title=" ">
<polygon fill="white" stroke="#666666" points="183.78,-317.25 154.97,-317.25 154.97,-298 183.78,-298 183.78,-317.25"/>
<text text-anchor="middle" x="169.38" y="-303.75" font-family="Helvetica,sans-Serif" font-size="10.00">T</text>
</a>
</g>
</g>
<!-- Node9&#45;&gt;Node7 -->
<g id="edge9_Node000007_Node000009" class="edge">
<title>Node9&#45;&gt;Node7</title>
<g id="a_edge9_Node000007_Node000009"><a xlink:title=" ">
<path fill="none" stroke="#9a32cd" stroke-dasharray="5,2" d="M194.94,-301.32C224.15,-293.83 273.65,-281.13 311.09,-271.53"/>
<polygon fill="#9a32cd" stroke="#9a32cd" points="194.39,-297.85 185.58,-303.72 196.13,-304.63 194.39,-297.85"/>
</a>
</g>
<text text-anchor="middle" x="266.62" y="-289.26" font-family="Helvetica,sans-Serif" font-size="10.00" fill="grey"> elements</text>
</g>
<!-- Node11 -->
<g id="Node000011" class="node">
<title>Node11</title>
<g id="a_Node000011"><a xlink:title=" ">
<polygon fill="white" stroke="#666666" points="405.62,-332.25 319.12,-332.25 319.12,-313 405.62,-313 405.62,-332.25"/>
<text text-anchor="middle" x="362.38" y="-318.75" font-family="Helvetica,sans-Serif" font-size="10.00">std::vector&lt; T &gt;</text>
</a>
</g>
</g>
<!-- Node9&#45;&gt;Node11 -->
<g id="edge13_Node000011_Node000009" class="edge">
<title>Node9&#45;&gt;Node11</title>
<g id="a_edge13_Node000011_Node000009"><a xlink:title=" ">
<path fill="none" stroke="#9a32cd" stroke-dasharray="5,2" d="M195.28,-309.58C226.61,-312.04 280.88,-316.3 318.83,-319.28"/>
<polygon fill="#9a32cd" stroke="#9a32cd" points="195.86,-306.12 185.62,-308.82 195.32,-313.09 195.86,-306.12"/>
</a>
</g>
<text text-anchor="middle" x="266.62" y="-318.22" font-family="Helvetica,sans-Serif" font-size="10.00" fill="grey"> elements</text>
</g>
<!-- Node10&#45;&gt;Node3 -->
<g id="edge10_Node000003_Node000010" class="edge">
<title>Node10&#45;&gt;Node3</title>
<g id="a_edge10_Node000003_Node000010"><a xlink:title=" ">
<path fill="none" stroke="#9a32cd" stroke-dasharray="5,2" d="M695.17,-234.59C736.35,-223.5 794.64,-207.81 832.29,-197.68"/>
<polygon fill="#9a32cd" stroke="#9a32cd" points="694.51,-231.14 685.77,-237.12 696.33,-237.9 694.51,-231.14"/>
</a>
</g>
<text text-anchor="middle" x="763.25" y="-226.51" font-family="Helvetica,sans-Serif" font-size="10.00" fill="grey"> m_active_traces</text>
</g>
<!-- Node11&#45;&gt;Node10 -->
<g id="edge12_Node000010_Node000011" class="edge">
<title>Node11&#45;&gt;Node10</title>
<g id="a_edge12_Node000010_Node000011"><a xlink:title=" ">
<path fill="none" stroke="orange" stroke-dasharray="5,2" d="M417.28,-326.8C459.12,-328.13 517.86,-325.75 565.75,-307.62 594.74,-296.65 622.02,-271.45 635.66,-257.45"/>
<polygon fill="orange" stroke="orange" points="417.6,-323.31 407.47,-326.4 417.32,-330.3 417.6,-323.31"/>
</a>
</g>
<text text-anchor="middle" x="501.25" y="-328.85" font-family="Helvetica,sans-Serif" font-size="10.00" fill="grey"> &lt; std::string &gt;</text>
</g>
<!-- Node12 -->
<g id="Node000012" class="node">
<title>Node12</title>
<g id="a_Node000012"><a xlink:title=" ">
<polygon fill="white" stroke="#666666" points="681.12,-329.25 610.38,-329.25 610.38,-310 681.12,-310 681.12,-329.25"/>
<text text-anchor="middle" x="645.75" y="-315.75" font-family="Helvetica,sans-Serif" font-size="10.00">std::ostream</text>
</a>
</g>
</g>
<!-- Node12&#45;&gt;Node3 -->
<g id="edge14_Node000003_Node000012" class="edge">
<title>Node12&#45;&gt;Node3</title>
<g id="a_edge14_Node000003_Node000012"><a xlink:title=" ">
<path fill="none" stroke="#9a32cd" stroke-dasharray="5,2" d="M678.86,-304.89C710.63,-289.87 760.23,-265.19 800.75,-239.62 821.78,-226.35 844.5,-208.43 857.87,-197.47"/>
<polygon fill="#9a32cd" stroke="#9a32cd" points="677.75,-301.54 670.18,-308.96 680.72,-307.88 677.75,-301.54"/>
</a>
</g>
<text text-anchor="middle" x="763.25" y="-283.22" font-family="Helvetica,sans-Serif" font-size="10.00" fill="grey"> m_stream</text>
</g>
<!-- Node13 -->
<g id="Node000013" class="node">
<title>Node13</title>
<g id="a_Node000013"><a xlink:title=" ">
<polygon fill="white" stroke="#666666" points="412,-380.88 312.75,-380.88 312.75,-350.38 412,-350.38 412,-380.88"/>
<text text-anchor="start" x="320.75" y="-367.38" font-family="Helvetica,sans-Serif" font-size="10.00">std::basic_ostream</text>
<text text-anchor="middle" x="362.38" y="-356.12" font-family="Helvetica,sans-Serif" font-size="10.00">&lt; Char &gt;</text>
</a>
</g>
</g>
<!-- Node13&#45;&gt;Node12 -->
<g id="edge15_Node000012_Node000013" class="edge">
<title>Node13&#45;&gt;Node12</title>
<g id="a_edge15_Node000012_Node000013"><a xlink:title=" ">
<path fill="none" stroke="#63b8ff" d="M423.76,-362.58C464.25,-359.75 518.59,-354.43 565.75,-344.62 583.36,-340.97 602.6,-334.92 617.69,-329.69"/>
<polygon fill="#63b8ff" stroke="#63b8ff" points="423.72,-359.07 413.97,-363.23 424.18,-366.05 423.72,-359.07"/>
</a>
</g>
</g>
<!-- Node14 -->
<g id="Node000014" class="node">
<title>Node14</title>
<g id="a_Node000014"><a xlink:title=" ">
<polygon fill="white" stroke="#666666" points="227.25,-375.25 111.5,-375.25 111.5,-356 227.25,-356 227.25,-375.25"/>
<text text-anchor="middle" x="169.38" y="-361.75" font-family="Helvetica,sans-Serif" font-size="10.00">std::basic_ios&lt; Char &gt;</text>
</a>
</g>
</g>
<!-- Node14&#45;&gt;Node13 -->
<g id="edge16_Node000013_Node000014" class="edge">
<title>Node14&#45;&gt;Node13</title>
<g id="a_edge16_Node000013_Node000014"><a xlink:title=" ">
<path fill="none" stroke="#63b8ff" d="M239.01,-365.62C263.33,-365.62 290.17,-365.62 312.5,-365.62"/>
<polygon fill="#63b8ff" stroke="#63b8ff" points="239.19,-362.13 229.19,-365.63 239.19,-369.13 239.19,-362.13"/>
</a>
</g>
</g>
<!-- Node15 -->
<g id="Node000015" class="node">
<title>Node15</title>
<g id="a_Node000015"><a xlink:title=" ">
<polygon fill="white" stroke="#666666" points="74.5,-375.25 0,-375.25 0,-356 74.5,-356 74.5,-375.25"/>
<text text-anchor="middle" x="37.25" y="-361.75" font-family="Helvetica,sans-Serif" font-size="10.00">std::ios_base</text>
</a>
</g>
</g>
<!-- Node15&#45;&gt;Node14 -->
<g id="edge17_Node000014_Node000015" class="edge">
<title>Node15&#45;&gt;Node14</title>
<g id="a_edge17_Node000014_Node000015"><a xlink:title=" ">
<path fill="none" stroke="#63b8ff" d="M86.34,-365.62C94.41,-365.62 102.86,-365.62 111.13,-365.62"/>
<polygon fill="#63b8ff" stroke="#63b8ff" points="86.36,-362.13 76.36,-365.63 86.36,-369.13 86.36,-362.13"/>
</a>
</g>
</g>
<!-- Node16&#45;&gt;Node1 -->
<g id="edge18_Node000001_Node000016" class="edge">
<title>Node16&#45;&gt;Node1</title>
<g id="a_edge18_Node000001_Node000016"><a xlink:title=" ">
<path fill="none" stroke="#9a32cd" stroke-dasharray="5,2" d="M706.34,-36.84C782.8,-42.25 919.53,-51.95 1036.5,-60.38 1087.73,-64.07 1146,-68.32 1188.02,-71.39"/>
<polygon fill="#9a32cd" stroke="#9a32cd" points="706.79,-33.36 696.57,-36.15 706.29,-40.34 706.79,-33.36"/>
</a>
</g>
<text text-anchor="middle" x="988.5" y="-62.12" font-family="Helvetica,sans-Serif" font-size="10.00" fill="grey"> m_ast</text>
</g>
<!-- Node17 -->
<g id="Node000017" class="node">
<title>Node17</title>
<g id="a_Node000017"><a xlink:href="../../dc/dda/structArk_1_1internal_1_1FileSpan.html" target="_top" xlink:title="Describes a span for a node/atom in a file, its start position and end position.">
<polygon fill="white" stroke="#666666" points="418.75,-19.25 306,-19.25 306,0 418.75,0 418.75,-19.25"/>
<text text-anchor="middle" x="362.38" y="-5.75" font-family="Helvetica,sans-Serif" font-size="10.00">Ark::internal::FileSpan</text>
</a>
</g>
</g>
<!-- Node17&#45;&gt;Node16 -->
<g id="edge19_Node000016_Node000017" class="edge">
<title>Node17&#45;&gt;Node16</title>
<g id="a_edge19_Node000016_Node000017"><a xlink:title=" ">
<path fill="none" stroke="#9a32cd" stroke-dasharray="5,2" d="M430.43,-5.35C470,-3.95 520.94,-4.1 565.75,-10.38 582.82,-12.77 601.41,-17.87 616.26,-22.58"/>
<polygon fill="#9a32cd" stroke="#9a32cd" points="430.43,-1.85 420.58,-5.74 430.71,-8.84 430.43,-1.85"/>
</a>
</g>
<text text-anchor="middle" x="501.25" y="-12.12" font-family="Helvetica,sans-Serif" font-size="10.00" fill="grey"> m_pos</text>
</g>
<!-- Node18 -->
<g id="Node000018" class="node">
<title>Node18</title>
<g id="a_Node000018"><a xlink:href="../../d7/df6/structArk_1_1internal_1_1FilePos.html" target="_top" xlink:title=" ">
<polygon fill="white" stroke="#666666" points="223.12,-19.25 115.62,-19.25 115.62,0 223.12,0 223.12,-19.25"/>
<text text-anchor="middle" x="169.38" y="-5.75" font-family="Helvetica,sans-Serif" font-size="10.00">Ark::internal::FilePos</text>
</a>
</g>
</g>
<!-- Node18&#45;&gt;Node17 -->
<g id="edge20_Node000017_Node000018" class="edge">
<title>Node18&#45;&gt;Node17</title>
<g id="a_edge20_Node000017_Node000018"><a xlink:title=" ">
<path fill="none" stroke="#9a32cd" stroke-dasharray="5,2" d="M234.97,-9.62C257.96,-9.62 283.63,-9.62 305.79,-9.62"/>
<polygon fill="#9a32cd" stroke="#9a32cd" points="235.09,-6.13 225.09,-9.63 235.09,-13.13 235.09,-6.13"/>
</a>
</g>
<text text-anchor="middle" x="266.62" y="-11.38" font-family="Helvetica,sans-Serif" font-size="10.00" fill="grey"> start</text>
</g>
<!-- Node19&#45;&gt;Node1 -->
<g id="edge22_Node000001_Node000019" class="edge">
<title>Node19&#45;&gt;Node1</title>
<g id="a_edge22_Node000001_Node000019"><a xlink:title=" ">
<path fill="none" stroke="#9a32cd" stroke-dasharray="5,2" d="M718.75,-75.62C839.07,-75.62 1078.61,-75.62 1188.39,-75.62"/>
<polygon fill="#9a32cd" stroke="#9a32cd" points="719,-72.13 709,-75.63 719,-79.13 719,-72.13"/>
</a>
</g>
<text text-anchor="middle" x="988.5" y="-77.38" font-family="Helvetica,sans-Serif" font-size="10.00" fill="grey"> m_sym_appearances</text>
</g>
</g>
</svg>
