<?xml version="1.0" encoding="UTF-8" standalone="no"?>
<!DOCTYPE svg PUBLIC "-//W3C//DTD SVG 1.1//EN"
 "http://www.w3.org/Graphics/SVG/1.1/DTD/svg11.dtd">
<!-- Generated by graphviz version 12.2.0 (20241103.1931)
 -->
<!-- Title: Ark::internal::Package Pages: 1 -->
<svg width="322pt" height="338pt"
 viewBox="0.00 0.00 322.38 338.25" xmlns="http://www.w3.org/2000/svg" xmlns:xlink="http://www.w3.org/1999/xlink">

<svg id="main" version="1.1" xmlns="http://www.w3.org/2000/svg" xmlns:xlink="http://www.w3.org/1999/xlink" xml:space="preserve">

<style type="text/css"><![CDATA[
.node, .edge {opacity: 0.7;}
.node.selected, .edge.selected {opacity: 1;}
.edge:hover path { stroke: red; }
.edge:hover polygon { stroke: red; fill: red; }
]]></style>
<script type="application/ecmascript" xlink:href="../../svg.min.js"/>
<svg id="graph" class="graph">
<g id="graph0" class="graph" transform="scale(1 1) rotate(0) translate(4 334.25)">
<title>Ark::internal::Package</title>
<!-- Node1 -->
<g id="Node000001" class="node">
<title>Node1</title>
<g id="a_Node000001"><a xlink:title=" ">
<polygon fill="#999999" stroke="#666666" points="126.25,-19.25 13.5,-19.25 13.5,0 126.25,0 126.25,-19.25"/>
<text text-anchor="middle" x="69.88" y="-5.75" font-family="Helvetica,sans-Serif" font-size="10.00">Ark::internal::Package</text>
</a>
</g>
</g>
<!-- Node2 -->
<g id="Node000002" class="node">
<title>Node2</title>
<g id="a_Node000002"><a xlink:href="../../dc/d9e/classArk_1_1internal_1_1Node.html" target="_top" xlink:title="A node of an Abstract Syntax Tree for ArkScript.">
<polygon fill="white" stroke="#666666" points="97.75,-124.62 0,-124.62 0,-105.38 97.75,-105.38 97.75,-124.62"/>
<text text-anchor="middle" x="48.88" y="-111.12" font-family="Helvetica,sans-Serif" font-size="10.00">Ark::internal::Node</text>
</a>
</g>
</g>
<!-- Node2&#45;&gt;Node1 -->
<g id="edge1_Node000001_Node000002" class="edge">
<title>Node2&#45;&gt;Node1</title>
<g id="a_edge1_Node000001_Node000002"><a xlink:title=" ">
<path fill="none" stroke="#9a32cd" stroke-dasharray="5,2" d="M52.94,-94C57.49,-71.59 64.67,-36.24 68.03,-19.71"/>
<polygon fill="#9a32cd" stroke="#9a32cd" points="49.53,-93.21 50.97,-103.7 56.39,-94.6 49.53,-93.21"/>
</a>
</g>
<text text-anchor="middle" x="66.73" y="-72.25" font-family="Helvetica,sans-Serif" font-size="10.00" fill="grey"> ast</text>
</g>
<!-- Node3 -->
<g id="Node000003" class="node">
<title>Node3</title>
<g id="a_Node000003"><a xlink:title=" ">
<polygon fill="white" stroke="#666666" points="172.62,-252.5 113.12,-252.5 113.12,-233.25 172.62,-233.25 172.62,-252.5"/>
<text text-anchor="middle" x="142.88" y="-239" font-family="Helvetica,sans-Serif" font-size="10.00">std::string</text>
</a>
</g>
</g>
<!-- Node3&#45;&gt;Node2 -->
<g id="edge2_Node000002_Node000003" class="edge">
<title>Node3&#45;&gt;Node2</title>
<g id="a_edge2_Node000002_Node000003"><a xlink:title=" ">
<path fill="none" stroke="#9a32cd" stroke-dasharray="5,2" d="M101.72,-241.35C81.91,-238.75 59.78,-231.9 47.12,-215.25 26.58,-188.22 38.69,-144.02 45.37,-125.08"/>
<polygon fill="#9a32cd" stroke="#9a32cd" points="101.22,-244.82 111.51,-242.29 101.89,-237.85 101.22,-244.82"/>
</a>
</g>
<text text-anchor="middle" x="88" y="-205.75" font-family="Helvetica,sans-Serif" font-size="10.00" fill="grey"> m_after_comment</text>
<text text-anchor="middle" x="88" y="-194.5" font-family="Helvetica,sans-Serif" font-size="10.00" fill="grey">m_comment</text>
<text text-anchor="middle" x="88" y="-183.25" font-family="Helvetica,sans-Serif" font-size="10.00" fill="grey">m_filename</text>
</g>
<!-- Node5 -->
<g id="Node000005" class="node">
<title>Node5</title>
<g id="a_Node000005"><a xlink:href="../../da/d03/structArk_1_1internal_1_1Import.html" target="_top" xlink:title=" ">
<polygon fill="white" stroke="#666666" points="194,-85.75 91.75,-85.75 91.75,-66.5 194,-66.5 194,-85.75"/>
<text text-anchor="middle" x="142.88" y="-72.25" font-family="Helvetica,sans-Serif" font-size="10.00">Ark::internal::Import</text>
</a>
</g>
</g>
<!-- Node3&#45;&gt;Node5 -->
<g id="edge5_Node000005_Node000003" class="edge">
<title>Node3&#45;&gt;Node5</title>
<g id="a_edge5_Node000005_Node000003"><a xlink:title=" ">
<path fill="none" stroke="#9a32cd" stroke-dasharray="5,2" d="M142.88,-221.6C142.88,-185.52 142.88,-111.56 142.88,-86.03"/>
<polygon fill="#9a32cd" stroke="#9a32cd" points="139.38,-221.5 142.88,-231.5 146.38,-221.5 139.38,-221.5"/>
</a>
</g>
<text text-anchor="middle" x="156.38" y="-150" font-family="Helvetica,sans-Serif" font-size="10.00" fill="grey"> prefix</text>
</g>
<!-- Node6 -->
<g id="Node000006" class="node">
<title>Node6</title>
<g id="a_Node000006"><a xlink:title=" ">
<polygon fill="white" stroke="#666666" points="311.88,-163.5 187.88,-163.5 187.88,-144.25 311.88,-144.25 311.88,-163.5"/>
<text text-anchor="middle" x="249.88" y="-150" font-family="Helvetica,sans-Serif" font-size="10.00">std::vector&lt; std::string &gt;</text>
</a>
</g>
</g>
<!-- Node3&#45;&gt;Node6 -->
<g id="edge7_Node000006_Node000003" class="edge">
<title>Node3&#45;&gt;Node6</title>
<g id="a_edge7_Node000006_Node000003"><a xlink:title=" ">
<path fill="none" stroke="#9a32cd" stroke-dasharray="5,2" d="M157.83,-224.54C169.41,-211.74 186.27,-194.37 203.12,-181.5 211.89,-174.81 222.5,-168.63 231.4,-163.91"/>
<polygon fill="#9a32cd" stroke="#9a32cd" points="155.42,-221.99 151.41,-231.8 160.66,-226.63 155.42,-221.99"/>
</a>
</g>
<text text-anchor="middle" x="224.5" y="-194.5" font-family="Helvetica,sans-Serif" font-size="10.00" fill="grey"> elements</text>
</g>
<!-- Node4 -->
<g id="Node000004" class="node">
<title>Node4</title>
<g id="a_Node000004"><a xlink:title=" ">
<polygon fill="white" stroke="#666666" points="189.88,-330.25 95.88,-330.25 95.88,-299.75 189.88,-299.75 189.88,-330.25"/>
<text text-anchor="start" x="103.88" y="-316.75" font-family="Helvetica,sans-Serif" font-size="10.00">std::basic_string&lt;</text>
<text text-anchor="middle" x="142.88" y="-305.5" font-family="Helvetica,sans-Serif" font-size="10.00"> Char &gt;</text>
</a>
</g>
</g>
<!-- Node4&#45;&gt;Node3 -->
<g id="edge3_Node000003_Node000004" class="edge">
<title>Node4&#45;&gt;Node3</title>
<g id="a_edge3_Node000003_Node000004"><a xlink:title=" ">
<path fill="none" stroke="#63b8ff" d="M142.88,-288.23C142.88,-275.73 142.88,-261.52 142.88,-252.63"/>
<polygon fill="#63b8ff" stroke="#63b8ff" points="139.38,-287.96 142.88,-297.96 146.38,-287.96 139.38,-287.96"/>
</a>
</g>
</g>
<!-- Node5&#45;&gt;Node1 -->
<g id="edge4_Node000001_Node000005" class="edge">
<title>Node5&#45;&gt;Node1</title>
<g id="a_edge4_Node000001_Node000005"><a xlink:title=" ">
<path fill="none" stroke="#9a32cd" stroke-dasharray="5,2" d="M124.27,-58.69C110.17,-46.23 91.34,-29.59 79.94,-19.52"/>
<polygon fill="#9a32cd" stroke="#9a32cd" points="121.78,-61.16 131.59,-65.15 126.41,-55.91 121.78,-61.16"/>
</a>
</g>
<text text-anchor="middle" x="125.75" y="-39" font-family="Helvetica,sans-Serif" font-size="10.00" fill="grey"> import</text>
</g>
<!-- Node6&#45;&gt;Node5 -->
<g id="edge6_Node000005_Node000006" class="edge">
<title>Node6&#45;&gt;Node5</title>
<g id="a_edge6_Node000005_Node000006"><a xlink:title=" ">
<path fill="none" stroke="#9a32cd" stroke-dasharray="5,2" d="M228.02,-137.4C206.19,-121.95 173.4,-98.74 155.55,-86.1"/>
<polygon fill="#9a32cd" stroke="#9a32cd" points="225.76,-140.09 235.95,-143.01 229.81,-134.38 225.76,-140.09"/>
</a>
</g>
<text text-anchor="middle" x="232.09" y="-116.75" font-family="Helvetica,sans-Serif" font-size="10.00" fill="grey"> package</text>
<text text-anchor="middle" x="232.09" y="-105.5" font-family="Helvetica,sans-Serif" font-size="10.00" fill="grey">symbols</text>
</g>
<!-- Node7 -->
<g id="Node000007" class="node">
<title>Node7</title>
<g id="a_Node000007"><a xlink:title=" ">
<polygon fill="white" stroke="#666666" points="293.12,-252.5 206.62,-252.5 206.62,-233.25 293.12,-233.25 293.12,-252.5"/>
<text text-anchor="middle" x="249.88" y="-239" font-family="Helvetica,sans-Serif" font-size="10.00">std::vector&lt; T &gt;</text>
</a>
</g>
</g>
<!-- Node7&#45;&gt;Node6 -->
<g id="edge8_Node000006_Node000007" class="edge">
<title>Node7&#45;&gt;Node6</title>
<g id="a_edge8_Node000006_Node000007"><a xlink:title=" ">
<path fill="none" stroke="orange" stroke-dasharray="5,2" d="M249.88,-221.51C249.88,-203.3 249.88,-177.47 249.88,-163.94"/>
<polygon fill="orange" stroke="orange" points="246.38,-221.38 249.88,-231.38 253.38,-221.38 246.38,-221.38"/>
</a>
</g>
<text text-anchor="middle" x="282.12" y="-194.5" font-family="Helvetica,sans-Serif" font-size="10.00" fill="grey"> &lt; std::string &gt;</text>
</g>
<!-- Node8 -->
<g id="Node000008" class="node">
<title>Node8</title>
<g id="a_Node000008"><a xlink:title=" ">
<polygon fill="white" stroke="#666666" points="264.27,-324.62 235.47,-324.62 235.47,-305.38 264.27,-305.38 264.27,-324.62"/>
<text text-anchor="middle" x="249.88" y="-311.12" font-family="Helvetica,sans-Serif" font-size="10.00">T</text>
</a>
</g>
</g>
<!-- Node8&#45;&gt;Node7 -->
<g id="edge9_Node000007_Node000008" class="edge">
<title>Node8&#45;&gt;Node7</title>
<g id="a_edge9_Node000007_Node000008"><a xlink:title=" ">
<path fill="none" stroke="#9a32cd" stroke-dasharray="5,2" d="M249.88,-293.62C249.88,-280.14 249.88,-263.14 249.88,-252.91"/>
<polygon fill="#9a32cd" stroke="#9a32cd" points="246.38,-293.61 249.88,-303.61 253.38,-293.61 246.38,-293.61"/>
</a>
</g>
<text text-anchor="middle" x="271.25" y="-272.25" font-family="Helvetica,sans-Serif" font-size="10.00" fill="grey"> elements</text>
</g>
</g>
</svg>
</svg>

<style type='text/css'>
<![CDATA[
[data-mouse-over-selected='false'] { opacity: 0.7; }
[data-mouse-over-selected='true']  { opacity: 1.0; }
]]>
</style>
<script type="application/ecmascript"><![CDATA[
document.addEventListener('DOMContentLoaded', (event) => {
  highlightEdges();
  highlightAdjacentNodes();
});
]]></script>
</svg>
