<?xml version="1.0" encoding="UTF-8" standalone="no"?>
<!DOCTYPE svg PUBLIC "-//W3C//DTD SVG 1.1//EN"
 "http://www.w3.org/Graphics/SVG/1.1/DTD/svg11.dtd">
<!-- Generated by graphviz version 12.2.0 (20241103.1931)
 -->
<!-- Title: Ark::internal::NamespaceScope Pages: 1 -->
<!--zoomable 276 -->

<svg id="main" version="1.1" xmlns="http://www.w3.org/2000/svg" xmlns:xlink="http://www.w3.org/1999/xlink" xml:space="preserve" onload="init(evt)">

<style type="text/css"><![CDATA[
.node, .edge {opacity: 0.7;}
.node.selected, .edge.selected {opacity: 1;}
.edge:hover path { stroke: red; }
.edge:hover polygon { stroke: red; fill: red; }
]]></style>

<defs>
  <circle id="rim" cx="0" cy="0" r="7"/>
  <circle id="rim2" cx="0" cy="0" r="3.5"/>
  <g id="zoomPlus">
    <use xlink:href="#rim" fill="#404040"><set attributeName="fill" to="#808080" begin="zoomplus.mouseover" end="zoomplus.mouseout"/></use>
    <path d="M-4,0h8M0,-4v8" fill="none" stroke="white" stroke-width="1.5" pointer-events="none"/>
  </g>
  <g id="zoomMin">
    <use xlink:href="#rim" fill="#404040"><set attributeName="fill" to="#808080" begin="zoomminus.mouseover" end="zoomminus.mouseout"/></use>
    <path d="M-4,0h8" fill="none" stroke="white" stroke-width="1.5" pointer-events="none"/>
  </g>
  <g id="arrowUp" transform="translate(30 24)">
    <use xlink:href="#rim"/>
    <path pointer-events="none" fill="none" stroke="white" stroke-width="1.5" d="M0,-3.0v7 M-2.5,-0.5L0,-3.0L2.5,-0.5"/>
  </g>
  <g id="arrowRight" transform="rotate(90) translate(36 -43)">
    <use xlink:href="#rim"/>
    <path pointer-events="none" fill="none" stroke="white" stroke-width="1.5" d="M0,-3.0v7 M-2.5,-0.5L0,-3.0L2.5,-0.5"/>
  </g>
  <g id="arrowDown" transform="rotate(180) translate(-30 -48)">
    <use xlink:href="#rim"/>
    <path pointer-events="none" fill="none" stroke="white" stroke-width="1.5" d="M0,-3.0v7 M-2.5,-0.5L0,-3.0L2.5,-0.5"/>
  </g>
  <g id="arrowLeft" transform="rotate(270) translate(-36 17)">
    <use xlink:href="#rim"/>
    <path pointer-events="none" fill="none" stroke="white" stroke-width="1.5" d="M0,-3.0v7 M-2.5,-0.5L0,-3.0L2.5,-0.5"/>
  </g>
  <g id="resetDef">
    <use xlink:href="#rim2" fill="#404040"><set attributeName="fill" to="#808080" begin="reset.mouseover" end="reset.mouseout"/></use>
  </g>
</defs>
<script type="application/ecmascript">
var viewWidth = 1761;
var viewHeight = 276;
var sectionId = 'dynsection-1';
</script>
<script type="application/ecmascript" xlink:href="../../svg.min.js"/>
<svg id="graph" class="graph">
<g id="viewport">
<title>Ark::internal::NamespaceScope</title>
<!-- Node1 -->
<g id="Node000001" class="node">
<title>Node1</title>
<g id="a_Node000001"><a xlink:title=" ">
<polygon fill="#999999" stroke="#666666" points="1753.25,-173.25 1626.25,-173.25 1626.25,-142.75 1753.25,-142.75 1753.25,-173.25"/>
<text text-anchor="start" x="1634.25" y="-159.75" font-family="Helvetica,sans-Serif" font-size="10.00">Ark::internal::Namespace</text>
<text text-anchor="middle" x="1689.75" y="-148.5" font-family="Helvetica,sans-Serif" font-size="10.00">Scope</text>
</a>
</g>
</g>
<!-- Node2 -->
<g id="Node000002" class="node">
<title>Node2</title>
<g id="a_Node000002"><a xlink:href="../../d3/d8e/classArk_1_1internal_1_1StaticScope.html" target="_top" xlink:title=" ">
<polygon fill="white" stroke="#666666" points="922.5,-220.62 794.75,-220.62 794.75,-201.38 922.5,-201.38 922.5,-220.62"/>
<text text-anchor="middle" x="858.62" y="-207.12" font-family="Helvetica,sans-Serif" font-size="10.00">Ark::internal::StaticScope</text>
</a>
</g>
</g>
<!-- Node2&#45;&gt;Node1 -->
<g id="edge1_Node000001_Node000002" class="edge">
<title>Node2&#45;&gt;Node1</title>
<g id="a_edge1_Node000001_Node000002"><a xlink:title=" ">
<path fill="none" stroke="#63b8ff" d="M934.33,-210.08C1069.29,-207.75 1362.57,-199.66 1608.25,-172 1614.03,-171.35 1620.02,-170.55 1626.01,-169.66"/>
<polygon fill="#63b8ff" stroke="#63b8ff" points="934.39,-206.57 924.45,-210.24 934.5,-213.57 934.39,-206.57"/>
</a>
</g>
</g>
<!-- Node13 -->
<g id="Node000013" class="node">
<title>Node13</title>
<g id="a_Node000013"><a xlink:title=" ">
<polygon fill="white" stroke="#666666" points="1217.38,-130.25 1095.62,-130.25 1095.62,-99.75 1217.38,-99.75 1217.38,-130.25"/>
<text text-anchor="start" x="1103.62" y="-116.75" font-family="Helvetica,sans-Serif" font-size="10.00">std::unique_ptr&lt; Ark</text>
<text text-anchor="middle" x="1156.5" y="-105.5" font-family="Helvetica,sans-Serif" font-size="10.00">::internal::StaticScope &gt;</text>
</a>
</g>
</g>
<!-- Node2&#45;&gt;Node13 -->
<g id="edge16_Node000013_Node000002" class="edge">
<title>Node2&#45;&gt;Node13</title>
<g id="a_edge16_Node000013_Node000002"><a xlink:title=" ">
<path fill="none" stroke="#9a32cd" stroke-dasharray="5,2" d="M901.66,-197.36C955.85,-179.78 1049.89,-149.27 1107.03,-130.73"/>
<polygon fill="#9a32cd" stroke="#9a32cd" points="900.6,-194.03 892.17,-200.44 902.76,-200.68 900.6,-194.03"/>
</a>
</g>
<text text-anchor="middle" x="1006.5" y="-184.38" font-family="Helvetica,sans-Serif" font-size="10.00" fill="grey"> ptr</text>
</g>
<!-- Node3 -->
<g id="Node000003" class="node">
<title>Node3</title>
<g id="a_Node000003"><a xlink:title=" ">
<polygon fill="white" stroke="#666666" points="716,-240.25 574.75,-240.25 574.75,-209.75 716,-209.75 716,-240.25"/>
<text text-anchor="start" x="582.75" y="-226.75" font-family="Helvetica,sans-Serif" font-size="10.00">std::unordered_set</text>
<text text-anchor="middle" x="645.38" y="-215.5" font-family="Helvetica,sans-Serif" font-size="10.00">&lt; Ark::internal::Declaration &gt;</text>
</a>
</g>
</g>
<!-- Node3&#45;&gt;Node1 -->
<g id="edge13_Node000001_Node000003" class="edge">
<title>Node3&#45;&gt;Node1</title>
<g id="a_edge13_Node000001_Node000003"><a xlink:title=" ">
<path fill="none" stroke="#9a32cd" stroke-dasharray="5,2" d="M726.08,-242.85C765.46,-250.19 813.81,-257 857.62,-257 857.62,-257 857.62,-257 1387.5,-257 1492.92,-257 1609.2,-201.6 1661.09,-173.69"/>
<polygon fill="#9a32cd" stroke="#9a32cd" points="726.92,-239.45 716.44,-241 725.6,-246.32 726.92,-239.45"/>
</a>
</g>
<text text-anchor="middle" x="1156.5" y="-258.75" font-family="Helvetica,sans-Serif" font-size="10.00" fill="grey"> m_vars</text>
</g>
<!-- Node3&#45;&gt;Node2 -->
<g id="edge2_Node000002_Node000003" class="edge">
<title>Node3&#45;&gt;Node2</title>
<g id="a_edge2_Node000002_Node000003"><a xlink:title=" ">
<path fill="none" stroke="#9a32cd" stroke-dasharray="5,2" d="M727.84,-219.6C749.96,-218.14 773.58,-216.57 794.53,-215.18"/>
<polygon fill="#9a32cd" stroke="#9a32cd" points="727.68,-216.1 717.93,-220.26 728.14,-223.09 727.68,-216.1"/>
</a>
</g>
<text text-anchor="middle" x="755.38" y="-220.59" font-family="Helvetica,sans-Serif" font-size="10.00" fill="grey"> m_vars</text>
</g>
<!-- Node4 -->
<g id="Node000004" class="node">
<title>Node4</title>
<g id="a_Node000004"><a xlink:href="../../d1/dcf/structArk_1_1internal_1_1Declaration.html" target="_top" xlink:title=" ">
<polygon fill="white" stroke="#666666" points="410.5,-201.62 286.5,-201.62 286.5,-182.38 410.5,-182.38 410.5,-201.62"/>
<text text-anchor="middle" x="348.5" y="-188.12" font-family="Helvetica,sans-Serif" font-size="10.00">Ark::internal::Declaration</text>
</a>
</g>
</g>
<!-- Node4&#45;&gt;Node3 -->
<g id="edge3_Node000003_Node000004" class="edge">
<title>Node4&#45;&gt;Node3</title>
<g id="a_edge3_Node000003_Node000004"><a xlink:title=" ">
<path fill="none" stroke="#9a32cd" stroke-dasharray="5,2" d="M422.27,-197.95C462.06,-201.45 512.18,-206.26 556.75,-211.75 562.55,-212.46 568.56,-213.26 574.59,-214.09"/>
<polygon fill="#9a32cd" stroke="#9a32cd" points="422.58,-194.46 412.32,-197.08 421.98,-201.44 422.58,-194.46"/>
</a>
</g>
<text text-anchor="middle" x="492.62" y="-213.5" font-family="Helvetica,sans-Serif" font-size="10.00" fill="grey"> keys</text>
</g>
<!-- Node5 -->
<g id="Node000005" class="node">
<title>Node5</title>
<g id="a_Node000005"><a xlink:title=" ">
<polygon fill="white" stroke="#666666" points="190.5,-161.62 131,-161.62 131,-142.38 190.5,-142.38 190.5,-161.62"/>
<text text-anchor="middle" x="160.75" y="-148.12" font-family="Helvetica,sans-Serif" font-size="10.00">std::string</text>
</a>
</g>
</g>
<!-- Node5&#45;&gt;Node1 -->
<g id="edge8_Node000001_Node000005" class="edge">
<title>Node5&#45;&gt;Node1</title>
<g id="a_edge8_Node000001_Node000005"><a xlink:title=" ">
<path fill="none" stroke="#9a32cd" stroke-dasharray="5,2" d="M202.19,-152C239.81,-152 297.45,-152 347.5,-152 347.5,-152 347.5,-152 859.62,-152 1145.72,-152 1487.34,-155.62 1625.82,-157.23"/>
<polygon fill="#9a32cd" stroke="#9a32cd" points="202.22,-148.5 192.22,-152 202.22,-155.5 202.22,-148.5"/>
</a>
</g>
<text text-anchor="middle" x="858.62" y="-153.75" font-family="Helvetica,sans-Serif" font-size="10.00" fill="grey"> m_namespace</text>
</g>
<!-- Node5&#45;&gt;Node4 -->
<g id="edge4_Node000004_Node000005" class="edge">
<title>Node5&#45;&gt;Node4</title>
<g id="a_edge4_Node000004_Node000005"><a xlink:title=" ">
<path fill="none" stroke="#9a32cd" stroke-dasharray="5,2" d="M201.96,-161.53C204.17,-162.03 206.36,-162.53 208.5,-163 237.98,-169.54 271.08,-176.46 297.57,-181.9"/>
<polygon fill="#9a32cd" stroke="#9a32cd" points="202.91,-158.16 192.38,-159.32 201.33,-164.98 202.91,-158.16"/>
</a>
</g>
<text text-anchor="middle" x="238.5" y="-188.29" font-family="Helvetica,sans-Serif" font-size="10.00" fill="grey"> name</text>
<text text-anchor="middle" x="238.5" y="-177.04" font-family="Helvetica,sans-Serif" font-size="10.00" fill="grey">original_name</text>
</g>
<!-- Node9 -->
<g id="Node000009" class="node">
<title>Node9</title>
<g id="a_Node000009"><a xlink:title=" ">
<polygon fill="white" stroke="#666666" points="1218.5,-22.62 1094.5,-22.62 1094.5,-3.38 1218.5,-3.38 1218.5,-22.62"/>
<text text-anchor="middle" x="1156.5" y="-9.12" font-family="Helvetica,sans-Serif" font-size="10.00">std::vector&lt; std::string &gt;</text>
</a>
</g>
</g>
<!-- Node5&#45;&gt;Node9 -->
<g id="edge10_Node000009_Node000005" class="edge">
<title>Node5&#45;&gt;Node9</title>
<g id="a_edge10_Node000009_Node000005"><a xlink:title=" ">
<path fill="none" stroke="#9a32cd" stroke-dasharray="5,2" d="M173.22,-132.3C198.81,-91.19 264.88,0 347.5,0 347.5,0 347.5,0 859.62,0 940.73,0 1034.23,-4.94 1094.05,-8.73"/>
<polygon fill="#9a32cd" stroke="#9a32cd" points="170.3,-130.36 168.13,-140.73 176.29,-133.98 170.3,-130.36"/>
</a>
</g>
<text text-anchor="middle" x="645.38" y="-1.75" font-family="Helvetica,sans-Serif" font-size="10.00" fill="grey"> elements</text>
</g>
<!-- Node6 -->
<g id="Node000006" class="node">
<title>Node6</title>
<g id="a_Node000006"><a xlink:title=" ">
<polygon fill="white" stroke="#666666" points="94,-167.25 0,-167.25 0,-136.75 94,-136.75 94,-167.25"/>
<text text-anchor="start" x="8" y="-153.75" font-family="Helvetica,sans-Serif" font-size="10.00">std::basic_string&lt;</text>
<text text-anchor="middle" x="47" y="-142.5" font-family="Helvetica,sans-Serif" font-size="10.00"> Char &gt;</text>
</a>
</g>
</g>
<!-- Node6&#45;&gt;Node5 -->
<g id="edge5_Node000005_Node000006" class="edge">
<title>Node6&#45;&gt;Node5</title>
<g id="a_edge5_Node000005_Node000006"><a xlink:title=" ">
<path fill="none" stroke="#63b8ff" d="M105.71,-152C114.32,-152 122.87,-152 130.55,-152"/>
<polygon fill="#63b8ff" stroke="#63b8ff" points="105.93,-148.5 95.93,-152 105.93,-155.5 105.93,-148.5"/>
</a>
</g>
</g>
<!-- Node7 -->
<g id="Node000007" class="node">
<title>Node7</title>
<g id="a_Node000007"><a xlink:title=" ">
<polygon fill="white" stroke="#666666" points="409.38,-240.62 287.62,-240.62 287.62,-221.38 409.38,-221.38 409.38,-240.62"/>
<text text-anchor="middle" x="348.5" y="-227.12" font-family="Helvetica,sans-Serif" font-size="10.00">std::unordered_set&lt; K &gt;</text>
</a>
</g>
</g>
<!-- Node7&#45;&gt;Node3 -->
<g id="edge6_Node000003_Node000007" class="edge">
<title>Node7&#45;&gt;Node3</title>
<g id="a_edge6_Node000003_Node000007"><a xlink:title=" ">
<path fill="none" stroke="orange" stroke-dasharray="5,2" d="M420.75,-229.55C467.36,-228.6 527.96,-227.37 574.32,-226.43"/>
<polygon fill="orange" stroke="orange" points="420.97,-226.04 411.04,-229.75 421.11,-233.04 420.97,-226.04"/>
</a>
</g>
<text text-anchor="middle" x="492.62" y="-231.14" font-family="Helvetica,sans-Serif" font-size="10.00" fill="grey"> &lt; Ark::internal::Declaration &gt;</text>
</g>
<!-- Node8 -->
<g id="Node000008" class="node">
<title>Node8</title>
<g id="a_Node000008"><a xlink:title=" ">
<polygon fill="white" stroke="#666666" points="175.15,-240.62 146.35,-240.62 146.35,-221.38 175.15,-221.38 175.15,-240.62"/>
<text text-anchor="middle" x="160.75" y="-227.12" font-family="Helvetica,sans-Serif" font-size="10.00">K</text>
</a>
</g>
</g>
<!-- Node8&#45;&gt;Node7 -->
<g id="edge7_Node000007_Node000008" class="edge">
<title>Node8&#45;&gt;Node7</title>
<g id="a_edge7_Node000007_Node000008"><a xlink:title=" ">
<path fill="none" stroke="#9a32cd" stroke-dasharray="5,2" d="M186.69,-231C212.38,-231 253.38,-231 287.54,-231"/>
<polygon fill="#9a32cd" stroke="#9a32cd" points="186.92,-227.5 176.92,-231 186.92,-234.5 186.92,-227.5"/>
</a>
</g>
<text text-anchor="middle" x="238.5" y="-232.75" font-family="Helvetica,sans-Serif" font-size="10.00" fill="grey"> keys</text>
</g>
<!-- Node9&#45;&gt;Node1 -->
<g id="edge9_Node000001_Node000009" class="edge">
<title>Node9&#45;&gt;Node1</title>
<g id="a_edge9_Node000001_Node000009"><a xlink:title=" ">
<path fill="none" stroke="#9a32cd" stroke-dasharray="5,2" d="M1230.25,-22.63C1321.03,-36.18 1479.93,-64.98 1608.25,-115 1627.44,-122.48 1647.9,-133.45 1663.39,-142.44"/>
<polygon fill="#9a32cd" stroke="#9a32cd" points="1230.89,-19.19 1220.49,-21.2 1229.87,-26.11 1230.89,-19.19"/>
</a>
</g>
<text text-anchor="middle" x="1386.5" y="-71.99" font-family="Helvetica,sans-Serif" font-size="10.00" fill="grey"> m_symbols</text>
</g>
<!-- Node10 -->
<g id="Node000010" class="node">
<title>Node10</title>
<g id="a_Node000010"><a xlink:title=" ">
<polygon fill="white" stroke="#666666" points="901.88,-68.62 815.38,-68.62 815.38,-49.38 901.88,-49.38 901.88,-68.62"/>
<text text-anchor="middle" x="858.62" y="-55.12" font-family="Helvetica,sans-Serif" font-size="10.00">std::vector&lt; T &gt;</text>
</a>
</g>
</g>
<!-- Node10&#45;&gt;Node9 -->
<g id="edge11_Node000009_Node000010" class="edge">
<title>Node10&#45;&gt;Node9</title>
<g id="a_edge11_Node000009_Node000010"><a xlink:title=" ">
<path fill="none" stroke="orange" stroke-dasharray="5,2" d="M897.69,-45.34C911.07,-41.01 926.31,-36.62 940.5,-33.75 991.78,-23.39 1051.01,-18.16 1094.31,-15.54"/>
<polygon fill="orange" stroke="orange" points="896.77,-41.96 888.39,-48.44 898.99,-48.6 896.77,-41.96"/>
</a>
</g>
<text text-anchor="middle" x="1006.5" y="-35.5" font-family="Helvetica,sans-Serif" font-size="10.00" fill="grey"> &lt; std::string &gt;</text>
</g>
<!-- Node12 -->
<g id="Node000012" class="node">
<title>Node12</title>
<g id="a_Node000012"><a xlink:title=" ">
<polygon fill="white" stroke="#666666" points="1471.75,-130.25 1301.25,-130.25 1301.25,-99.75 1471.75,-99.75 1471.75,-130.25"/>
<text text-anchor="start" x="1309.25" y="-116.75" font-family="Helvetica,sans-Serif" font-size="10.00">std::vector&lt; std::unique</text>
<text text-anchor="middle" x="1386.5" y="-105.5" font-family="Helvetica,sans-Serif" font-size="10.00">_ptr&lt; Ark::internal::StaticScope &gt; &gt;</text>
</a>
</g>
</g>
<!-- Node10&#45;&gt;Node12 -->
<g id="edge19_Node000012_Node000010" class="edge">
<title>Node10&#45;&gt;Node12</title>
<g id="a_edge19_Node000012_Node000010"><a xlink:title=" ">
<path fill="none" stroke="orange" stroke-dasharray="5,2" d="M913.45,-56.21C984.63,-53.48 1113.78,-51.84 1222.5,-68.5 1263.81,-74.83 1309.44,-88.44 1341.89,-99.31"/>
<polygon fill="orange" stroke="orange" points="913.47,-52.71 903.63,-56.61 913.76,-59.7 913.47,-52.71"/>
</a>
</g>
<text text-anchor="start" x="1090.5" y="-81.5" font-family="Helvetica,sans-Serif" font-size="10.00" fill="grey"> &lt; std::unique_ptr&lt;</text>
<text text-anchor="middle" x="1156.5" y="-70.25" font-family="Helvetica,sans-Serif" font-size="10.00" fill="grey"> Ark::internal::StaticScope &gt; &gt;</text>
</g>
<!-- Node11 -->
<g id="Node000011" class="node">
<title>Node11</title>
<g id="a_Node000011"><a xlink:title=" ">
<polygon fill="white" stroke="#666666" points="659.77,-89.62 630.98,-89.62 630.98,-70.38 659.77,-70.38 659.77,-89.62"/>
<text text-anchor="middle" x="645.38" y="-76.12" font-family="Helvetica,sans-Serif" font-size="10.00">T</text>
</a>
</g>
</g>
<!-- Node11&#45;&gt;Node10 -->
<g id="edge12_Node000010_Node000011" class="edge">
<title>Node11&#45;&gt;Node10</title>
<g id="a_edge12_Node000010_Node000011"><a xlink:title=" ">
<path fill="none" stroke="#9a32cd" stroke-dasharray="5,2" d="M671.48,-75.19C688.95,-72.02 712.81,-68.04 734,-65.75 760.82,-62.85 791.05,-61.17 814.91,-60.21"/>
<polygon fill="#9a32cd" stroke="#9a32cd" points="670.96,-71.72 661.76,-76.99 672.23,-78.61 670.96,-71.72"/>
</a>
</g>
<text text-anchor="middle" x="755.38" y="-67.5" font-family="Helvetica,sans-Serif" font-size="10.00" fill="grey"> elements</text>
</g>
<!-- Node14 -->
<g id="Node000014" class="node">
<title>Node14</title>
<g id="a_Node000014"><a xlink:title=" ">
<polygon fill="white" stroke="#666666" points="910.88,-110.62 806.38,-110.62 806.38,-91.38 910.88,-91.38 910.88,-110.62"/>
<text text-anchor="middle" x="858.62" y="-97.12" font-family="Helvetica,sans-Serif" font-size="10.00">std::unique_ptr&lt; T &gt;</text>
</a>
</g>
</g>
<!-- Node11&#45;&gt;Node14 -->
<g id="edge18_Node000014_Node000011" class="edge">
<title>Node11&#45;&gt;Node14</title>
<g id="a_edge18_Node000014_Node000011"><a xlink:title=" ">
<path fill="none" stroke="#9a32cd" stroke-dasharray="5,2" d="M671.56,-82.5C704.64,-85.79 763.52,-91.65 806.2,-95.89"/>
<polygon fill="#9a32cd" stroke="#9a32cd" points="672.04,-79.03 661.74,-81.53 671.35,-86 672.04,-79.03"/>
</a>
</g>
<text text-anchor="middle" x="755.38" y="-94.13" font-family="Helvetica,sans-Serif" font-size="10.00" fill="grey"> ptr</text>
</g>
<!-- Node12&#45;&gt;Node1 -->
<g id="edge14_Node000001_Node000012" class="edge">
<title>Node12&#45;&gt;Node1</title>
<g id="a_edge14_Node000001_Node000012"><a xlink:title=" ">
<path fill="none" stroke="#9a32cd" stroke-dasharray="5,2" d="M1483.57,-118.05C1522.53,-120.49 1567.8,-124.88 1608.25,-132.75 1620.33,-135.1 1633.15,-138.62 1644.92,-142.3"/>
<polygon fill="#9a32cd" stroke="#9a32cd" points="1483.92,-114.56 1473.73,-117.47 1483.51,-121.55 1483.92,-114.56"/>
</a>
</g>
<text text-anchor="middle" x="1549" y="-134.5" font-family="Helvetica,sans-Serif" font-size="10.00" fill="grey"> m_additional_namespaces</text>
</g>
<!-- Node13&#45;&gt;Node12 -->
<g id="edge15_Node000012_Node000013" class="edge">
<title>Node13&#45;&gt;Node12</title>
<g id="a_edge15_Node000012_Node000013"><a xlink:title=" ">
<path fill="none" stroke="#9a32cd" stroke-dasharray="5,2" d="M1229.01,-115C1251.82,-115 1277.27,-115 1300.91,-115"/>
<polygon fill="#9a32cd" stroke="#9a32cd" points="1229.22,-111.5 1219.22,-115 1229.22,-118.5 1229.22,-111.5"/>
</a>
</g>
<text text-anchor="middle" x="1261.88" y="-116.75" font-family="Helvetica,sans-Serif" font-size="10.00" fill="grey"> elements</text>
</g>
<!-- Node14&#45;&gt;Node13 -->
<g id="edge17_Node000013_Node000014" class="edge">
<title>Node14&#45;&gt;Node13</title>
<g id="a_edge17_Node000013_Node000014"><a xlink:title=" ">
<path fill="none" stroke="orange" stroke-dasharray="5,2" d="M922.38,-103.97C973.44,-106.39 1045.04,-109.77 1095.38,-112.16"/>
<polygon fill="orange" stroke="orange" points="922.83,-100.49 912.67,-103.51 922.5,-107.48 922.83,-100.49"/>
</a>
</g>
<text text-anchor="middle" x="1006.5" y="-112.61" font-family="Helvetica,sans-Serif" font-size="10.00" fill="grey"> &lt; Ark::internal::StaticScope &gt;</text>
</g>
</g>
</svg>

<g id="navigator" transform="translate(0 0)" fill="#404254">
  <rect fill="#f2f5e9" fill-opacity="0.5" stroke="#606060" stroke-width=".5" x="0" y="0" width="60" height="60"/>
  <use id="zoomplus" xlink:href="#zoomPlus" x="17" y="9" onmousedown="handleZoom(evt,'in')"/>
  <use id="zoomminus" xlink:href="#zoomMin" x="42" y="9" onmousedown="handleZoom(evt,'out')"/>
  <use id="reset" xlink:href="#resetDef" x="30" y="36" onmousedown="handleReset()"/>
   <use id="arrowup" xlink:href="#arrowUp" x="0" y="0" onmousedown="handlePan(0,-1)"/>
  <use id="arrowright" xlink:href="#arrowRight" x="0" y="0" onmousedown="handlePan(1,0)"/>
  <use id="arrowdown" xlink:href="#arrowDown" x="0" y="0" onmousedown="handlePan(0,1)"/>
  <use id="arrowleft" xlink:href="#arrowLeft" x="0" y="0" onmousedown="handlePan(-1,0)"/>
</g>
<svg viewBox="0 0 15 15" width="100%" height="30px" preserveAspectRatio="xMaxYMin meet">
 <g id="arrow_out" transform="scale(0.3 0.3)">
  <a xlink:href="classArk_1_1internal_1_1NamespaceScope__coll__graph_org.svg" target="_base">
   <rect id="button" ry="5" rx="5" y="6" x="6" height="38" width="38"
        fill="#f2f5e9" fill-opacity="0.5" stroke="#606060" stroke-width="1.0"/>
   <path id="arrow"
     d="M 11.500037,31.436501 C 11.940474,20.09759 22.043105,11.32322 32.158766,21.979434 L 37.068811,17.246167 C 37.068811,17.246167 37.088388,32 37.088388,32 L 22.160133,31.978069 C 22.160133,31.978069 26.997745,27.140456 26.997745,27.140456 C 18.528582,18.264221 13.291696,25.230495 11.500037,31.436501 z"
     style="fill:#404040;"/>
  </a>
 </g>
</svg>

<style type='text/css'>
<![CDATA[
[data-mouse-over-selected='false'] { opacity: 0.7; }
[data-mouse-over-selected='true']  { opacity: 1.0; }
]]>
</style>
<script type="application/ecmascript"><![CDATA[
document.addEventListener('DOMContentLoaded', (event) => {
  highlightEdges();
  highlightAdjacentNodes();
});
]]></script>
</svg>
