<?xml version="1.0" encoding="UTF-8" standalone="no"?>
<!DOCTYPE svg PUBLIC "-//W3C//DTD SVG 1.1//EN"
 "http://www.w3.org/Graphics/SVG/1.1/DTD/svg11.dtd">
<!-- Generated by graphviz version 12.2.0 (20241103.1931)
 -->
<!-- Title: /Users/fola/Documents/ArkScript/Ark/include/Ark/Error/Exceptions.hpp Pages: 1 -->
<svg width="2456pt" height="450pt"
 viewBox="0.00 0.00 2455.75 449.75" xmlns="http://www.w3.org/2000/svg" xmlns:xlink="http://www.w3.org/1999/xlink">
<g id="graph0" class="graph" transform="scale(1 1) rotate(0) translate(4 445.75)">
<title>/Users/fola/Documents/ArkScript/Ark/include/Ark/Error/Exceptions.hpp</title>
<!-- Node1 -->
<g id="Node000001" class="node">
<title>Node1</title>
<g id="a_Node000001"><a xlink:title="ArkScript homemade exceptions.">
<polygon fill="#999999" stroke="#666666" points="1694.25,-441.75 1565.75,-441.75 1565.75,-400 1694.25,-400 1694.25,-441.75"/>
<text text-anchor="start" x="1573.75" y="-428.25" font-family="Helvetica,sans-Serif" font-size="10.00">/Users/fola/Documents</text>
<text text-anchor="start" x="1573.75" y="-417" font-family="Helvetica,sans-Serif" font-size="10.00">/ArkScript/Ark/include</text>
<text text-anchor="middle" x="1630" y="-405.75" font-family="Helvetica,sans-Serif" font-size="10.00">/Ark/Error/Exceptions.hpp</text>
</a>
</g>
</g>
<!-- Node2 -->
<g id="Node000002" class="node">
<title>Node2</title>
<g id="a_Node000002"><a xlink:href="../../d3/d7e/Ark_8hpp.html" target="_top" xlink:title="Includes the needed files to start using ArkScript.">
<polygon fill="white" stroke="#666666" points="346.62,-119.5 229.38,-119.5 229.38,-77.75 346.62,-77.75 346.62,-119.5"/>
<text text-anchor="start" x="237.38" y="-106" font-family="Helvetica,sans-Serif" font-size="10.00">/Users/fola/Documents</text>
<text text-anchor="start" x="237.38" y="-94.75" font-family="Helvetica,sans-Serif" font-size="10.00">/ArkScript/Ark/include</text>
<text text-anchor="middle" x="288" y="-83.5" font-family="Helvetica,sans-Serif" font-size="10.00">/Ark/Ark.hpp</text>
</a>
</g>
</g>
<!-- Node1&#45;&gt;Node2 -->
<g id="edge1_Node000001_Node000002" class="edge">
<title>Node1&#45;&gt;Node2</title>
<g id="a_edge1_Node000001_Node000002"><a xlink:title=" ">
<path fill="none" stroke="#63b8ff" d="M1553.89,-418.37C1344.78,-413.85 764.65,-398.47 577,-364 338.29,-320.15 200.03,-393.33 57,-197.25 46.06,-182.26 45.38,-169.97 57,-155.5 103.46,-97.66 148.13,-137.92 220,-119.5 222.98,-118.74 226.02,-117.93 229.09,-117.1"/>
<polygon fill="#63b8ff" stroke="#63b8ff" points="1553.76,-421.87 1563.83,-418.59 1553.91,-414.87 1553.76,-421.87"/>
</a>
</g>
</g>
<!-- Node5 -->
<g id="Node000005" class="node">
<title>Node5</title>
<g id="a_Node000005"><a xlink:href="../../d3/d70/BaseParser_8hpp.html" target="_top" xlink:title=" ">
<polygon fill="white" stroke="#666666" points="1545.25,-358.38 1374.75,-358.38 1374.75,-316.62 1545.25,-316.62 1545.25,-358.38"/>
<text text-anchor="start" x="1382.75" y="-344.88" font-family="Helvetica,sans-Serif" font-size="10.00">/Users/fola/Documents</text>
<text text-anchor="start" x="1382.75" y="-333.62" font-family="Helvetica,sans-Serif" font-size="10.00">/ArkScript/Ark/include</text>
<text text-anchor="middle" x="1460" y="-322.38" font-family="Helvetica,sans-Serif" font-size="10.00">/Ark/Compiler/AST/BaseParser.hpp</text>
</a>
</g>
</g>
<!-- Node1&#45;&gt;Node5 -->
<g id="edge4_Node000001_Node000005" class="edge">
<title>Node1&#45;&gt;Node5</title>
<g id="a_edge4_Node000001_Node000005"><a xlink:title=" ">
<path fill="none" stroke="#63b8ff" d="M1577.17,-394.59C1553.16,-383.09 1525.13,-369.68 1502.51,-358.85"/>
<polygon fill="#63b8ff" stroke="#63b8ff" points="1575.64,-397.74 1586.18,-398.9 1578.67,-391.42 1575.64,-397.74"/>
</a>
</g>
</g>
<!-- Node9 -->
<g id="Node000009" class="node">
<title>Node9</title>
<g id="a_Node000009"><a xlink:href="../../db/d71/JsonCompiler_8cpp.html" target="_top" xlink:title=" ">
<polygon fill="white" stroke="#666666" points="350.25,-41.75 215.75,-41.75 215.75,0 350.25,0 350.25,-41.75"/>
<text text-anchor="start" x="223.75" y="-28.25" font-family="Helvetica,sans-Serif" font-size="10.00">/Users/fola/Documents</text>
<text text-anchor="start" x="223.75" y="-17" font-family="Helvetica,sans-Serif" font-size="10.00">/ArkScript/Ark/src/arkscript</text>
<text text-anchor="middle" x="283" y="-5.75" font-family="Helvetica,sans-Serif" font-size="10.00">/JsonCompiler.cpp</text>
</a>
</g>
</g>
<!-- Node1&#45;&gt;Node9 -->
<g id="edge55_Node000001_Node000009" class="edge">
<title>Node1&#45;&gt;Node9</title>
<g id="a_edge55_Node000001_Node000009"><a xlink:title=" ">
<path fill="none" stroke="#63b8ff" d="M1554.32,-419.14C1275.45,-416.11 314.67,-402.95 183,-364 92.25,-337.15 0,-349.76 0,-255.12 0,-255.12 0,-255.12 0,-175.38 0,-125.35 15.96,-107.73 56,-77.75 110.88,-36.65 139.47,-58.32 206,-41.75 209.08,-40.98 212.23,-40.19 215.41,-39.39"/>
<polygon fill="#63b8ff" stroke="#63b8ff" points="1553.97,-422.63 1564,-419.24 1554.04,-415.63 1553.97,-422.63"/>
</a>
</g>
</g>
<!-- Node11 -->
<g id="Node000011" class="node">
<title>Node11</title>
<g id="a_Node000011"><a xlink:href="../../d3/df1/Welder_8cpp.html" target="_top" xlink:title=" ">
<polygon fill="white" stroke="#666666" points="1654.25,-119.5 1513.75,-119.5 1513.75,-77.75 1654.25,-77.75 1654.25,-119.5"/>
<text text-anchor="start" x="1521.75" y="-106" font-family="Helvetica,sans-Serif" font-size="10.00">/Users/fola/Documents</text>
<text text-anchor="start" x="1521.75" y="-94.75" font-family="Helvetica,sans-Serif" font-size="10.00">/ArkScript/Ark/src/arkreactor</text>
<text text-anchor="middle" x="1584" y="-83.5" font-family="Helvetica,sans-Serif" font-size="10.00">/Compiler/Welder.cpp</text>
</a>
</g>
</g>
<!-- Node1&#45;&gt;Node11 -->
<g id="edge53_Node000001_Node000011" class="edge">
<title>Node1&#45;&gt;Node11</title>
<g id="a_edge53_Node000001_Node000011"><a xlink:title=" ">
<path fill="none" stroke="#63b8ff" d="M1673.5,-393.46C1747.74,-345.12 1884.74,-239.64 1818,-155.5 1774.32,-100.43 1732.33,-135.97 1664,-119.5 1660.94,-118.76 1657.81,-118 1654.66,-117.24"/>
<polygon fill="#63b8ff" stroke="#63b8ff" points="1671.7,-390.46 1665.17,-398.8 1675.48,-396.35 1671.7,-390.46"/>
</a>
</g>
</g>
<!-- Node14 -->
<g id="Node000014" class="node">
<title>Node14</title>
<g id="a_Node000014"><a xlink:href="../../d2/d56/Formatter_8cpp.html" target="_top" xlink:title=" ">
<polygon fill="white" stroke="#666666" points="1495.25,-119.5 1360.75,-119.5 1360.75,-77.75 1495.25,-77.75 1495.25,-119.5"/>
<text text-anchor="start" x="1368.75" y="-106" font-family="Helvetica,sans-Serif" font-size="10.00">/Users/fola/Documents</text>
<text text-anchor="start" x="1368.75" y="-94.75" font-family="Helvetica,sans-Serif" font-size="10.00">/ArkScript/Ark/src/arkscript</text>
<text text-anchor="middle" x="1428" y="-83.5" font-family="Helvetica,sans-Serif" font-size="10.00">/Formatter.cpp</text>
</a>
</g>
</g>
<!-- Node1&#45;&gt;Node14 -->
<g id="edge54_Node000001_Node000014" class="edge">
<title>Node1&#45;&gt;Node14</title>
<g id="a_edge54_Node000001_Node000014"><a xlink:title=" ">
<path fill="none" stroke="#63b8ff" d="M1641.11,-388.74C1658.17,-334.88 1683.54,-223.56 1630,-155.5 1627.81,-152.72 1553.51,-132.64 1495.66,-117.34"/>
<polygon fill="#63b8ff" stroke="#63b8ff" points="1637.81,-387.6 1638,-398.2 1644.45,-389.79 1637.81,-387.6"/>
</a>
</g>
</g>
<!-- Node16 -->
<g id="Node000016" class="node">
<title>Node16</title>
<g id="a_Node000016"><a xlink:href="../../d6/d41/ImportSolver_8cpp.html" target="_top" xlink:title=" ">
<polygon fill="white" stroke="#666666" points="1620.88,-197.25 1445.12,-197.25 1445.12,-155.5 1620.88,-155.5 1620.88,-197.25"/>
<text text-anchor="start" x="1453.12" y="-183.75" font-family="Helvetica,sans-Serif" font-size="10.00">/Users/fola/Documents</text>
<text text-anchor="start" x="1453.12" y="-172.5" font-family="Helvetica,sans-Serif" font-size="10.00">/ArkScript/Ark/src/arkreactor</text>
<text text-anchor="middle" x="1533" y="-161.25" font-family="Helvetica,sans-Serif" font-size="10.00">/Compiler/Package/ImportSolver.cpp</text>
</a>
</g>
</g>
<!-- Node1&#45;&gt;Node16 -->
<g id="edge52_Node000001_Node000016" class="edge">
<title>Node1&#45;&gt;Node16</title>
<g id="a_edge52_Node000001_Node000016"><a xlink:title=" ">
<path fill="none" stroke="#63b8ff" d="M1629.3,-388.41C1627.21,-349.63 1619.5,-282.79 1592,-233.25 1584.4,-219.56 1572.3,-207.24 1561.03,-197.67"/>
<polygon fill="#63b8ff" stroke="#63b8ff" points="1625.8,-388.38 1629.73,-398.22 1632.79,-388.07 1625.8,-388.38"/>
</a>
</g>
</g>
<!-- Node17 -->
<g id="Node000017" class="node">
<title>Node17</title>
<g id="a_Node000017"><a xlink:href="../../d9/d79/BaseParser_8cpp.html" target="_top" xlink:title=" ">
<polygon fill="white" stroke="#666666" points="1583.25,-275 1430.75,-275 1430.75,-233.25 1583.25,-233.25 1583.25,-275"/>
<text text-anchor="start" x="1438.75" y="-261.5" font-family="Helvetica,sans-Serif" font-size="10.00">/Users/fola/Documents</text>
<text text-anchor="start" x="1438.75" y="-250.25" font-family="Helvetica,sans-Serif" font-size="10.00">/ArkScript/Ark/src/arkreactor</text>
<text text-anchor="middle" x="1507" y="-239" font-family="Helvetica,sans-Serif" font-size="10.00">/Compiler/AST/BaseParser.cpp</text>
</a>
</g>
</g>
<!-- Node1&#45;&gt;Node17 -->
<g id="edge47_Node000001_Node000017" class="edge">
<title>Node1&#45;&gt;Node17</title>
<g id="a_edge47_Node000001_Node000017"><a xlink:title=" ">
<path fill="none" stroke="#63b8ff" d="M1610.4,-390.29C1595.45,-368.1 1574.08,-337.17 1554,-311 1544.74,-298.93 1533.84,-285.9 1524.86,-275.46"/>
<polygon fill="#63b8ff" stroke="#63b8ff" points="1607.48,-392.21 1615.95,-398.57 1613.29,-388.31 1607.48,-392.21"/>
</a>
</g>
</g>
<!-- Node18 -->
<g id="Node000018" class="node">
<title>Node18</title>
<g id="a_Node000018"><a xlink:href="../../db/dfe/Diagnostics_8hpp.html" target="_top" xlink:title="Tools to report code errors nicely to the user.">
<polygon fill="white" stroke="#666666" points="1808.75,-197.25 1677.25,-197.25 1677.25,-155.5 1808.75,-155.5 1808.75,-197.25"/>
<text text-anchor="start" x="1685.25" y="-183.75" font-family="Helvetica,sans-Serif" font-size="10.00">/Users/fola/Documents</text>
<text text-anchor="start" x="1685.25" y="-172.5" font-family="Helvetica,sans-Serif" font-size="10.00">/ArkScript/Ark/include</text>
<text text-anchor="middle" x="1743" y="-161.25" font-family="Helvetica,sans-Serif" font-size="10.00">/Ark/Error/Diagnostics.hpp</text>
</a>
</g>
</g>
<!-- Node1&#45;&gt;Node18 -->
<g id="edge19_Node000001_Node000018" class="edge">
<title>Node1&#45;&gt;Node18</title>
<g id="a_edge19_Node000001_Node000018"><a xlink:title=" ">
<path fill="none" stroke="#63b8ff" d="M1648.65,-389.91C1653.54,-381.64 1658.65,-372.57 1663,-364 1692.89,-305.05 1721.91,-232.34 1735.3,-197.65"/>
<polygon fill="#63b8ff" stroke="#63b8ff" points="1645.8,-387.86 1643.65,-398.23 1651.8,-391.47 1645.8,-387.86"/>
</a>
</g>
</g>
<!-- Node19 -->
<g id="Node000019" class="node">
<title>Node19</title>
<g id="a_Node000019"><a xlink:href="../../d2/d5e/ASTLowerer_8cpp.html" target="_top" xlink:title=" ">
<polygon fill="white" stroke="#666666" points="2002.25,-119.5 1831.75,-119.5 1831.75,-77.75 2002.25,-77.75 2002.25,-119.5"/>
<text text-anchor="start" x="1839.75" y="-106" font-family="Helvetica,sans-Serif" font-size="10.00">/Users/fola/Documents</text>
<text text-anchor="start" x="1839.75" y="-94.75" font-family="Helvetica,sans-Serif" font-size="10.00">/ArkScript/Ark/src/arkreactor</text>
<text text-anchor="middle" x="1917" y="-83.5" font-family="Helvetica,sans-Serif" font-size="10.00">/Compiler/Lowerer/ASTLowerer.cpp</text>
</a>
</g>
</g>
<!-- Node1&#45;&gt;Node19 -->
<g id="edge49_Node000001_Node000019" class="edge">
<title>Node1&#45;&gt;Node19</title>
<g id="a_edge49_Node000001_Node000019"><a xlink:title=" ">
<path fill="none" stroke="#63b8ff" d="M1704.9,-395.21C1724.19,-386.96 1744.23,-376.58 1761,-364 1847.97,-298.77 1895.39,-169.62 1911.07,-119.84"/>
<polygon fill="#63b8ff" stroke="#63b8ff" points="1703.6,-391.96 1695.68,-399 1706.26,-398.43 1703.6,-391.96"/>
</a>
</g>
</g>
<!-- Node22 -->
<g id="Node000022" class="node">
<title>Node22</title>
<g id="a_Node000022"><a xlink:href="../../db/d5e/TypeChecker_8hpp.html" target="_top" xlink:title=" ">
<polygon fill="white" stroke="#666666" points="357.62,-197.25 240.38,-197.25 240.38,-155.5 357.62,-155.5 357.62,-197.25"/>
<text text-anchor="start" x="248.38" y="-183.75" font-family="Helvetica,sans-Serif" font-size="10.00">/Users/fola/Documents</text>
<text text-anchor="start" x="248.38" y="-172.5" font-family="Helvetica,sans-Serif" font-size="10.00">/ArkScript/Ark/include</text>
<text text-anchor="middle" x="299" y="-161.25" font-family="Helvetica,sans-Serif" font-size="10.00">/Ark/TypeChecker.hpp</text>
</a>
</g>
</g>
<!-- Node1&#45;&gt;Node22 -->
<g id="edge25_Node000001_Node000022" class="edge">
<title>Node1&#45;&gt;Node22</title>
<g id="a_edge25_Node000001_Node000022"><a xlink:title=" ">
<path fill="none" stroke="#63b8ff" d="M1554.23,-418.36C1368.67,-414.14 895.46,-400.06 742,-364 583.37,-326.73 409.02,-237.75 335.2,-197.62"/>
<polygon fill="#63b8ff" stroke="#63b8ff" points="1553.91,-421.86 1563.99,-418.58 1554.07,-414.86 1553.91,-421.86"/>
</a>
</g>
</g>
<!-- Node26 -->
<g id="Node000026" class="node">
<title>Node26</title>
<g id="a_Node000026"><a xlink:href="../../d0/db5/State_8hpp.html" target="_top" xlink:title="State used by the virtual machine: it loads the bytecode, can compile it if needed,...">
<polygon fill="white" stroke="#666666" points="868.62,-358.38 751.38,-358.38 751.38,-316.62 868.62,-316.62 868.62,-358.38"/>
<text text-anchor="start" x="759.38" y="-344.88" font-family="Helvetica,sans-Serif" font-size="10.00">/Users/fola/Documents</text>
<text text-anchor="start" x="759.38" y="-333.62" font-family="Helvetica,sans-Serif" font-size="10.00">/ArkScript/Ark/include</text>
<text text-anchor="middle" x="810" y="-322.38" font-family="Helvetica,sans-Serif" font-size="10.00">/Ark/VM/State.hpp</text>
</a>
</g>
</g>
<!-- Node1&#45;&gt;Node26 -->
<g id="edge31_Node000001_Node000026" class="edge">
<title>Node1&#45;&gt;Node26</title>
<g id="a_edge31_Node000001_Node000026"><a xlink:title=" ">
<path fill="none" stroke="#63b8ff" d="M1554.01,-412.33C1391.84,-396.24 1014.74,-358.82 868.98,-344.35"/>
<polygon fill="#63b8ff" stroke="#63b8ff" points="1553.51,-415.8 1563.81,-413.31 1554.2,-408.84 1553.51,-415.8"/>
</a>
</g>
</g>
<!-- Node32 -->
<g id="Node000032" class="node">
<title>Node32</title>
<g id="a_Node000032"><a xlink:href="../../dc/d73/Node_8cpp.html" target="_top" xlink:title=" ">
<polygon fill="white" stroke="#666666" points="2043.25,-358.38 1902.75,-358.38 1902.75,-316.62 2043.25,-316.62 2043.25,-358.38"/>
<text text-anchor="start" x="1910.75" y="-344.88" font-family="Helvetica,sans-Serif" font-size="10.00">/Users/fola/Documents</text>
<text text-anchor="start" x="1910.75" y="-333.62" font-family="Helvetica,sans-Serif" font-size="10.00">/ArkScript/Ark/src/arkreactor</text>
<text text-anchor="middle" x="1973" y="-322.38" font-family="Helvetica,sans-Serif" font-size="10.00">/Compiler/AST/Node.cpp</text>
</a>
</g>
</g>
<!-- Node1&#45;&gt;Node32 -->
<g id="edge48_Node000001_Node000032" class="edge">
<title>Node1&#45;&gt;Node32</title>
<g id="a_edge48_Node000001_Node000032"><a xlink:title=" ">
<path fill="none" stroke="#63b8ff" d="M1705.85,-405.22C1757.68,-394.79 1827.81,-379.86 1889,-364 1895.2,-362.39 1901.62,-360.63 1908.03,-358.8"/>
<polygon fill="#63b8ff" stroke="#63b8ff" points="1705.35,-401.75 1696.23,-407.15 1706.72,-408.62 1705.35,-401.75"/>
</a>
</g>
</g>
<!-- Node33 -->
<g id="Node000033" class="node">
<title>Node33</title>
<g id="a_Node000033"><a xlink:href="../../d6/d69/Processor_8cpp.html" target="_top" xlink:title=" ">
<polygon fill="white" stroke="#666666" points="2220.25,-358.38 2061.75,-358.38 2061.75,-316.62 2220.25,-316.62 2220.25,-358.38"/>
<text text-anchor="start" x="2069.75" y="-344.88" font-family="Helvetica,sans-Serif" font-size="10.00">/Users/fola/Documents</text>
<text text-anchor="start" x="2069.75" y="-333.62" font-family="Helvetica,sans-Serif" font-size="10.00">/ArkScript/Ark/src/arkreactor</text>
<text text-anchor="middle" x="2141" y="-322.38" font-family="Helvetica,sans-Serif" font-size="10.00">/Compiler/Macros/Processor.cpp</text>
</a>
</g>
</g>
<!-- Node1&#45;&gt;Node33 -->
<g id="edge50_Node000001_Node000033" class="edge">
<title>Node1&#45;&gt;Node33</title>
<g id="a_edge50_Node000001_Node000033"><a xlink:title=" ">
<path fill="none" stroke="#63b8ff" d="M1705.83,-413.23C1790.74,-405.01 1932.16,-388.96 2052,-364 2059.24,-362.49 2066.75,-360.7 2074.2,-358.78"/>
<polygon fill="#63b8ff" stroke="#63b8ff" points="1705.61,-409.74 1695.99,-414.17 1706.28,-416.71 1705.61,-409.74"/>
</a>
</g>
</g>
<!-- Node34 -->
<g id="Node000034" class="node">
<title>Node34</title>
<g id="a_Node000034"><a xlink:href="../../de/dd7/NameResolutionPass_8cpp.html" target="_top" xlink:title=" ">
<polygon fill="white" stroke="#666666" points="2447.75,-364 2238.25,-364 2238.25,-311 2447.75,-311 2447.75,-364"/>
<text text-anchor="start" x="2246.25" y="-350.5" font-family="Helvetica,sans-Serif" font-size="10.00">/Users/fola/Documents</text>
<text text-anchor="start" x="2246.25" y="-339.25" font-family="Helvetica,sans-Serif" font-size="10.00">/ArkScript/Ark/src/arkreactor</text>
<text text-anchor="start" x="2246.25" y="-328" font-family="Helvetica,sans-Serif" font-size="10.00">/Compiler/NameResolution/NameResolution</text>
<text text-anchor="middle" x="2343" y="-316.75" font-family="Helvetica,sans-Serif" font-size="10.00">Pass.cpp</text>
</a>
</g>
</g>
<!-- Node1&#45;&gt;Node34 -->
<g id="edge51_Node000001_Node000034" class="edge">
<title>Node1&#45;&gt;Node34</title>
<g id="a_edge51_Node000001_Node000034"><a xlink:title=" ">
<path fill="none" stroke="#63b8ff" d="M1705.97,-415.89C1820.07,-409.21 2042.23,-393.48 2229,-364 2231.9,-363.54 2234.85,-363.05 2237.81,-362.54"/>
<polygon fill="#63b8ff" stroke="#63b8ff" points="1705.89,-412.39 1696.11,-416.46 1706.3,-419.38 1705.89,-412.39"/>
</a>
</g>
</g>
<!-- Node3 -->
<g id="Node000003" class="node">
<title>Node3</title>
<g id="a_Node000003"><a xlink:href="../../d1/d95/arkemscripten_2main_8cpp.html" target="_top" xlink:title=" ">
<polygon fill="white" stroke="#666666" points="527.25,-41.75 368.75,-41.75 368.75,0 527.25,0 527.25,-41.75"/>
<text text-anchor="start" x="376.75" y="-28.25" font-family="Helvetica,sans-Serif" font-size="10.00">/Users/fola/Documents</text>
<text text-anchor="start" x="376.75" y="-17" font-family="Helvetica,sans-Serif" font-size="10.00">/ArkScript/Ark/src/arkemscripten</text>
<text text-anchor="middle" x="448" y="-5.75" font-family="Helvetica,sans-Serif" font-size="10.00">/main.cpp</text>
</a>
</g>
</g>
<!-- Node2&#45;&gt;Node3 -->
<g id="edge2_Node000002_Node000003" class="edge">
<title>Node2&#45;&gt;Node3</title>
<g id="a_edge2_Node000002_Node000003"><a xlink:title=" ">
<path fill="none" stroke="#63b8ff" d="M341.13,-72.47C361.88,-62.65 385.35,-51.54 405,-42.23"/>
<polygon fill="#63b8ff" stroke="#63b8ff" points="339.79,-69.24 332.25,-76.68 342.78,-75.56 339.79,-69.24"/>
</a>
</g>
</g>
<!-- Node4 -->
<g id="Node000004" class="node">
<title>Node4</title>
<g id="a_Node000004"><a xlink:href="../../dc/d32/Ark_8cpp.html" target="_top" xlink:title=" ">
<polygon fill="white" stroke="#666666" points="197.25,-41.75 56.75,-41.75 56.75,0 197.25,0 197.25,-41.75"/>
<text text-anchor="start" x="64.75" y="-28.25" font-family="Helvetica,sans-Serif" font-size="10.00">/Users/fola/Documents</text>
<text text-anchor="start" x="64.75" y="-17" font-family="Helvetica,sans-Serif" font-size="10.00">/ArkScript/Ark/src/arkreactor</text>
<text text-anchor="middle" x="127" y="-5.75" font-family="Helvetica,sans-Serif" font-size="10.00">/Ark.cpp</text>
</a>
</g>
</g>
<!-- Node2&#45;&gt;Node4 -->
<g id="edge3_Node000002_Node000004" class="edge">
<title>Node2&#45;&gt;Node4</title>
<g id="a_edge3_Node000002_Node000004"><a xlink:title=" ">
<path fill="none" stroke="#63b8ff" d="M234.54,-72.47C213.66,-62.65 190.04,-51.54 170.26,-42.23"/>
<polygon fill="#63b8ff" stroke="#63b8ff" points="232.95,-75.59 243.49,-76.68 235.93,-69.26 232.95,-75.59"/>
</a>
</g>
</g>
<!-- Node6 -->
<g id="Node000006" class="node">
<title>Node6</title>
<g id="a_Node000006"><a xlink:href="../../d7/ddd/Parser_8hpp.html" target="_top" xlink:title="Parse ArkScript code, but do not handle any import declarations.">
<polygon fill="white" stroke="#666666" points="1413,-275 1265,-275 1265,-233.25 1413,-233.25 1413,-275"/>
<text text-anchor="start" x="1273" y="-261.5" font-family="Helvetica,sans-Serif" font-size="10.00">/Users/fola/Documents</text>
<text text-anchor="start" x="1273" y="-250.25" font-family="Helvetica,sans-Serif" font-size="10.00">/ArkScript/Ark/include</text>
<text text-anchor="middle" x="1339" y="-239" font-family="Helvetica,sans-Serif" font-size="10.00">/Ark/Compiler/AST/Parser.hpp</text>
</a>
</g>
</g>
<!-- Node5&#45;&gt;Node6 -->
<g id="edge5_Node000005_Node000006" class="edge">
<title>Node5&#45;&gt;Node6</title>
<g id="a_edge5_Node000005_Node000006"><a xlink:title=" ">
<path fill="none" stroke="#63b8ff" d="M1420.32,-309.81C1403.71,-298.64 1384.71,-285.86 1369.26,-275.47"/>
<polygon fill="#63b8ff" stroke="#63b8ff" points="1418.27,-312.65 1428.52,-315.33 1422.18,-306.85 1418.27,-312.65"/>
</a>
</g>
</g>
<!-- Node5&#45;&gt;Node17 -->
<g id="edge18_Node000005_Node000017" class="edge">
<title>Node5&#45;&gt;Node17</title>
<g id="a_edge18_Node000005_Node000017"><a xlink:title=" ">
<path fill="none" stroke="#63b8ff" d="M1477.36,-306.44C1483.36,-296.06 1489.93,-284.69 1495.35,-275.29"/>
<polygon fill="#63b8ff" stroke="#63b8ff" points="1474.35,-304.66 1472.37,-315.07 1480.41,-308.17 1474.35,-304.66"/>
</a>
</g>
</g>
<!-- Node7 -->
<g id="Node000007" class="node">
<title>Node7</title>
<g id="a_Node000007"><a xlink:href="../../de/d8e/Welder_8hpp.html" target="_top" xlink:title="In charge of welding everything needed to compile code.">
<polygon fill="white" stroke="#666666" points="1132.5,-197.25 1005.5,-197.25 1005.5,-155.5 1132.5,-155.5 1132.5,-197.25"/>
<text text-anchor="start" x="1013.5" y="-183.75" font-family="Helvetica,sans-Serif" font-size="10.00">/Users/fola/Documents</text>
<text text-anchor="start" x="1013.5" y="-172.5" font-family="Helvetica,sans-Serif" font-size="10.00">/ArkScript/Ark/include</text>
<text text-anchor="middle" x="1069" y="-161.25" font-family="Helvetica,sans-Serif" font-size="10.00">/Ark/Compiler/Welder.hpp</text>
</a>
</g>
</g>
<!-- Node6&#45;&gt;Node7 -->
<g id="edge6_Node000006_Node000007" class="edge">
<title>Node6&#45;&gt;Node7</title>
<g id="a_edge6_Node000006_Node000007"><a xlink:title=" ">
<path fill="none" stroke="#63b8ff" d="M1255.68,-229.75C1216.1,-218.64 1169.53,-205.58 1132.81,-195.28"/>
<polygon fill="#63b8ff" stroke="#63b8ff" points="1254.61,-233.09 1265.19,-232.42 1256.5,-226.35 1254.61,-233.09"/>
</a>
</g>
</g>
<!-- Node13 -->
<g id="Node000013" class="node">
<title>Node13</title>
<g id="a_Node000013"><a xlink:href="../../d9/d2e/Formatter_8hpp.html" target="_top" xlink:title=" ">
<polygon fill="white" stroke="#666666" points="1426.62,-197.25 1309.38,-197.25 1309.38,-155.5 1426.62,-155.5 1426.62,-197.25"/>
<text text-anchor="start" x="1317.38" y="-183.75" font-family="Helvetica,sans-Serif" font-size="10.00">/Users/fola/Documents</text>
<text text-anchor="start" x="1317.38" y="-172.5" font-family="Helvetica,sans-Serif" font-size="10.00">/ArkScript/Ark/include</text>
<text text-anchor="middle" x="1368" y="-161.25" font-family="Helvetica,sans-Serif" font-size="10.00">/CLI/Formatter.hpp</text>
</a>
</g>
</g>
<!-- Node6&#45;&gt;Node13 -->
<g id="edge13_Node000006_Node000013" class="edge">
<title>Node6&#45;&gt;Node13</title>
<g id="a_edge13_Node000006_Node000013"><a xlink:title=" ">
<path fill="none" stroke="#63b8ff" d="M1350.79,-222.34C1353.96,-214.05 1357.31,-205.29 1360.21,-197.73"/>
<polygon fill="#63b8ff" stroke="#63b8ff" points="1347.62,-220.82 1347.31,-231.41 1354.16,-223.32 1347.62,-220.82"/>
</a>
</g>
</g>
<!-- Node15 -->
<g id="Node000015" class="node">
<title>Node15</title>
<g id="a_Node000015"><a xlink:href="../../dc/df5/Parser_8cpp.html" target="_top" xlink:title=" ">
<polygon fill="white" stroke="#666666" points="1291.25,-197.25 1150.75,-197.25 1150.75,-155.5 1291.25,-155.5 1291.25,-197.25"/>
<text text-anchor="start" x="1158.75" y="-183.75" font-family="Helvetica,sans-Serif" font-size="10.00">/Users/fola/Documents</text>
<text text-anchor="start" x="1158.75" y="-172.5" font-family="Helvetica,sans-Serif" font-size="10.00">/ArkScript/Ark/src/arkreactor</text>
<text text-anchor="middle" x="1221" y="-161.25" font-family="Helvetica,sans-Serif" font-size="10.00">/Compiler/AST/Parser.cpp</text>
</a>
</g>
</g>
<!-- Node6&#45;&gt;Node15 -->
<g id="edge16_Node000006_Node000015" class="edge">
<title>Node6&#45;&gt;Node15</title>
<g id="a_edge16_Node000006_Node000015"><a xlink:title=" ">
<path fill="none" stroke="#63b8ff" d="M1297.92,-226.76C1283.1,-217.24 1266.61,-206.65 1252.71,-197.73"/>
<polygon fill="#63b8ff" stroke="#63b8ff" points="1295.8,-229.55 1306.1,-232.01 1299.58,-223.66 1295.8,-229.55"/>
</a>
</g>
</g>
<!-- Node6&#45;&gt;Node16 -->
<g id="edge17_Node000006_Node000016" class="edge">
<title>Node6&#45;&gt;Node16</title>
<g id="a_edge17_Node000006_Node000016"><a xlink:title=" ">
<path fill="none" stroke="#63b8ff" d="M1401.7,-228.64C1427.27,-218.66 1456.49,-207.25 1480.87,-197.73"/>
<polygon fill="#63b8ff" stroke="#63b8ff" points="1400.44,-225.38 1392.4,-232.27 1402.99,-231.9 1400.44,-225.38"/>
</a>
</g>
</g>
<!-- Node7&#45;&gt;Node2 -->
<g id="edge7_Node000007_Node000002" class="edge">
<title>Node7&#45;&gt;Node2</title>
<g id="a_edge7_Node000007_Node000002"><a xlink:title=" ">
<path fill="none" stroke="#63b8ff" d="M993.94,-164.34C970.32,-161.14 944.1,-157.87 920,-155.5 670.03,-130.88 603.38,-163 356,-119.5 352.97,-118.97 349.89,-118.35 346.78,-117.67"/>
<polygon fill="#63b8ff" stroke="#63b8ff" points="993.42,-167.8 1003.81,-165.69 994.38,-160.86 993.42,-167.8"/>
</a>
</g>
</g>
<!-- Node8 -->
<g id="Node000008" class="node">
<title>Node8</title>
<g id="a_Node000008"><a xlink:href="../../dc/dfd/JsonCompiler_8hpp.html" target="_top" xlink:title=" ">
<polygon fill="white" stroke="#666666" points="1204.62,-119.5 1087.38,-119.5 1087.38,-77.75 1204.62,-77.75 1204.62,-119.5"/>
<text text-anchor="start" x="1095.38" y="-106" font-family="Helvetica,sans-Serif" font-size="10.00">/Users/fola/Documents</text>
<text text-anchor="start" x="1095.38" y="-94.75" font-family="Helvetica,sans-Serif" font-size="10.00">/ArkScript/Ark/include</text>
<text text-anchor="middle" x="1146" y="-83.5" font-family="Helvetica,sans-Serif" font-size="10.00">/CLI/JsonCompiler.hpp</text>
</a>
</g>
</g>
<!-- Node7&#45;&gt;Node8 -->
<g id="edge8_Node000007_Node000008" class="edge">
<title>Node7&#45;&gt;Node8</title>
<g id="a_edge8_Node000007_Node000008"><a xlink:title=" ">
<path fill="none" stroke="#63b8ff" d="M1097.75,-147.09C1106.91,-138.09 1116.84,-128.31 1125.31,-119.98"/>
<polygon fill="#63b8ff" stroke="#63b8ff" points="1095.39,-144.51 1090.71,-154.01 1100.3,-149.5 1095.39,-144.51"/>
</a>
</g>
</g>
<!-- Node7&#45;&gt;Node11 -->
<g id="edge11_Node000007_Node000011" class="edge">
<title>Node7&#45;&gt;Node11</title>
<g id="a_edge11_Node000007_Node000011"><a xlink:title=" ">
<path fill="none" stroke="#63b8ff" d="M1144.09,-155.29C1303.02,-127.08 1348.26,-146.44 1504,-119.5 1507.1,-118.96 1510.26,-118.37 1513.45,-117.74"/>
<polygon fill="#63b8ff" stroke="#63b8ff" points="1143.66,-151.81 1134.44,-157.04 1144.91,-158.7 1143.66,-151.81"/>
</a>
</g>
</g>
<!-- Node12 -->
<g id="Node000012" class="node">
<title>Node12</title>
<g id="a_Node000012"><a xlink:href="../../d0/da0/State_8cpp.html" target="_top" xlink:title=" ">
<polygon fill="white" stroke="#666666" points="1069.25,-119.5 928.75,-119.5 928.75,-77.75 1069.25,-77.75 1069.25,-119.5"/>
<text text-anchor="start" x="936.75" y="-106" font-family="Helvetica,sans-Serif" font-size="10.00">/Users/fola/Documents</text>
<text text-anchor="start" x="936.75" y="-94.75" font-family="Helvetica,sans-Serif" font-size="10.00">/ArkScript/Ark/src/arkreactor</text>
<text text-anchor="middle" x="999" y="-83.5" font-family="Helvetica,sans-Serif" font-size="10.00">/VM/State.cpp</text>
</a>
</g>
</g>
<!-- Node7&#45;&gt;Node12 -->
<g id="edge12_Node000007_Node000012" class="edge">
<title>Node7&#45;&gt;Node12</title>
<g id="a_edge12_Node000007_Node000012"><a xlink:title=" ">
<path fill="none" stroke="#63b8ff" d="M1042.61,-146.81C1034.36,-137.89 1025.43,-128.22 1017.81,-119.98"/>
<polygon fill="#63b8ff" stroke="#63b8ff" points="1039.86,-148.99 1049.21,-153.96 1045,-144.24 1039.86,-148.99"/>
</a>
</g>
</g>
<!-- Node8&#45;&gt;Node9 -->
<g id="edge9_Node000008_Node000009" class="edge">
<title>Node8&#45;&gt;Node9</title>
<g id="a_edge9_Node000008_Node000009"><a xlink:title=" ">
<path fill="none" stroke="#63b8ff" d="M1075.92,-77.65C760.87,-26.08 672.16,-89.36 360,-41.75 356.86,-41.27 353.66,-40.72 350.45,-40.11"/>
<polygon fill="#63b8ff" stroke="#63b8ff" points="1075.29,-81.09 1085.73,-79.28 1076.44,-74.19 1075.29,-81.09"/>
</a>
</g>
</g>
<!-- Node10 -->
<g id="Node000010" class="node">
<title>Node10</title>
<g id="a_Node000010"><a xlink:href="../../d0/d46/arkscript_2main_8cpp.html" target="_top" xlink:title=" ">
<polygon fill="white" stroke="#666666" points="1213.25,-41.75 1078.75,-41.75 1078.75,0 1213.25,0 1213.25,-41.75"/>
<text text-anchor="start" x="1086.75" y="-28.25" font-family="Helvetica,sans-Serif" font-size="10.00">/Users/fola/Documents</text>
<text text-anchor="start" x="1086.75" y="-17" font-family="Helvetica,sans-Serif" font-size="10.00">/ArkScript/Ark/src/arkscript</text>
<text text-anchor="middle" x="1146" y="-5.75" font-family="Helvetica,sans-Serif" font-size="10.00">/main.cpp</text>
</a>
</g>
</g>
<!-- Node8&#45;&gt;Node10 -->
<g id="edge10_Node000008_Node000010" class="edge">
<title>Node8&#45;&gt;Node10</title>
<g id="a_edge10_Node000008_Node000010"><a xlink:title=" ">
<path fill="none" stroke="#63b8ff" d="M1146,-66C1146,-57.96 1146,-49.54 1146,-42.23"/>
<polygon fill="#63b8ff" stroke="#63b8ff" points="1142.5,-65.81 1146,-75.81 1149.5,-65.81 1142.5,-65.81"/>
</a>
</g>
</g>
<!-- Node13&#45;&gt;Node10 -->
<g id="edge15_Node000013_Node000010" class="edge">
<title>Node13&#45;&gt;Node10</title>
<g id="a_edge15_Node000013_Node000010"><a xlink:title=" ">
<path fill="none" stroke="#63b8ff" d="M1329.52,-148.77C1285.68,-118.46 1215.02,-69.6 1175.38,-42.19"/>
<polygon fill="#63b8ff" stroke="#63b8ff" points="1327.52,-151.64 1337.73,-154.45 1331.5,-145.88 1327.52,-151.64"/>
</a>
</g>
</g>
<!-- Node13&#45;&gt;Node14 -->
<g id="edge14_Node000013_Node000014" class="edge">
<title>Node13&#45;&gt;Node14</title>
<g id="a_edge14_Node000013_Node000014"><a xlink:title=" ">
<path fill="none" stroke="#63b8ff" d="M1391.06,-146.26C1398.01,-137.49 1405.48,-128.05 1411.88,-119.98"/>
<polygon fill="#63b8ff" stroke="#63b8ff" points="1388.48,-143.88 1385.02,-153.89 1393.97,-148.22 1388.48,-143.88"/>
</a>
</g>
</g>
<!-- Node18&#45;&gt;Node11 -->
<g id="edge21_Node000018_Node000011" class="edge">
<title>Node18&#45;&gt;Node11</title>
<g id="a_edge21_Node000018_Node000011"><a xlink:title=" ">
<path fill="none" stroke="#63b8ff" d="M1690.2,-150.22C1669.59,-140.4 1646.26,-129.29 1626.73,-119.98"/>
<polygon fill="#63b8ff" stroke="#63b8ff" points="1688.49,-153.28 1699.02,-154.42 1691.5,-146.96 1688.49,-153.28"/>
</a>
</g>
</g>
<!-- Node18&#45;&gt;Node14 -->
<g id="edge24_Node000018_Node000014" class="edge">
<title>Node18&#45;&gt;Node14</title>
<g id="a_edge24_Node000018_Node000014"><a xlink:title=" ">
<path fill="none" stroke="#63b8ff" d="M1666.03,-156.22C1665.02,-155.98 1664,-155.74 1663,-155.5 1592.94,-138.82 1574.99,-136.5 1505,-119.5 1501.91,-118.75 1498.76,-117.98 1495.58,-117.18"/>
<polygon fill="#63b8ff" stroke="#63b8ff" points="1665.09,-159.6 1675.63,-158.54 1666.73,-152.79 1665.09,-159.6"/>
</a>
</g>
</g>
<!-- Node18&#45;&gt;Node19 -->
<g id="edge20_Node000018_Node000019" class="edge">
<title>Node18&#45;&gt;Node19</title>
<g id="a_edge20_Node000018_Node000019"><a xlink:title=" ">
<path fill="none" stroke="#63b8ff" d="M1800.16,-150.49C1822.87,-140.6 1848.67,-129.37 1870.24,-119.98"/>
<polygon fill="#63b8ff" stroke="#63b8ff" points="1798.79,-147.27 1791.02,-154.47 1801.58,-153.69 1798.79,-147.27"/>
</a>
</g>
</g>
<!-- Node20 -->
<g id="Node000020" class="node">
<title>Node20</title>
<g id="a_Node000020"><a xlink:href="../../de/d66/Diagnostics_8cpp.html" target="_top" xlink:title=" ">
<polygon fill="white" stroke="#666666" points="1813.25,-119.5 1672.75,-119.5 1672.75,-77.75 1813.25,-77.75 1813.25,-119.5"/>
<text text-anchor="start" x="1680.75" y="-106" font-family="Helvetica,sans-Serif" font-size="10.00">/Users/fola/Documents</text>
<text text-anchor="start" x="1680.75" y="-94.75" font-family="Helvetica,sans-Serif" font-size="10.00">/ArkScript/Ark/src/arkreactor</text>
<text text-anchor="middle" x="1743" y="-83.5" font-family="Helvetica,sans-Serif" font-size="10.00">/Error/Diagnostics.cpp</text>
</a>
</g>
</g>
<!-- Node18&#45;&gt;Node20 -->
<g id="edge22_Node000018_Node000020" class="edge">
<title>Node18&#45;&gt;Node20</title>
<g id="a_edge22_Node000018_Node000020"><a xlink:title=" ">
<path fill="none" stroke="#63b8ff" d="M1743,-143.75C1743,-135.71 1743,-127.29 1743,-119.98"/>
<polygon fill="#63b8ff" stroke="#63b8ff" points="1739.5,-143.56 1743,-153.56 1746.5,-143.56 1739.5,-143.56"/>
</a>
</g>
</g>
<!-- Node21 -->
<g id="Node000021" class="node">
<title>Node21</title>
<g id="a_Node000021"><a xlink:href="../../d2/d27/VM_8cpp.html" target="_top" xlink:title=" ">
<polygon fill="white" stroke="#666666" points="910.25,-119.5 769.75,-119.5 769.75,-77.75 910.25,-77.75 910.25,-119.5"/>
<text text-anchor="start" x="777.75" y="-106" font-family="Helvetica,sans-Serif" font-size="10.00">/Users/fola/Documents</text>
<text text-anchor="start" x="777.75" y="-94.75" font-family="Helvetica,sans-Serif" font-size="10.00">/ArkScript/Ark/src/arkreactor</text>
<text text-anchor="middle" x="840" y="-83.5" font-family="Helvetica,sans-Serif" font-size="10.00">/VM/VM.cpp</text>
</a>
</g>
</g>
<!-- Node18&#45;&gt;Node21 -->
<g id="edge23_Node000018_Node000021" class="edge">
<title>Node18&#45;&gt;Node21</title>
<g id="a_edge23_Node000018_Node000021"><a xlink:title=" ">
<path fill="none" stroke="#63b8ff" d="M1665.59,-160.46C1653.71,-158.55 1641.55,-156.8 1630,-155.5 1316.03,-120.07 1232.55,-165.81 920,-119.5 916.89,-119.04 913.72,-118.51 910.52,-117.93"/>
<polygon fill="#63b8ff" stroke="#63b8ff" points="1664.94,-163.9 1675.38,-162.09 1666.09,-156.99 1664.94,-163.9"/>
</a>
</g>
</g>
<!-- Node22&#45;&gt;Node2 -->
<g id="edge26_Node000022_Node000002" class="edge">
<title>Node22&#45;&gt;Node2</title>
<g id="a_edge26_Node000022_Node000002"><a xlink:title=" ">
<path fill="none" stroke="#63b8ff" d="M294.41,-143.75C293.24,-135.71 292.02,-127.29 290.96,-119.98"/>
<polygon fill="#63b8ff" stroke="#63b8ff" points="290.93,-144.18 295.83,-153.58 297.86,-143.18 290.93,-144.18"/>
</a>
</g>
</g>
<!-- Node22&#45;&gt;Node21 -->
<g id="edge29_Node000022_Node000021" class="edge">
<title>Node22&#45;&gt;Node21</title>
<g id="a_edge29_Node000022_Node000021"><a xlink:title=" ">
<path fill="none" stroke="#63b8ff" d="M369.27,-161.34C381.16,-159.21 393.41,-157.17 405,-155.5 562.4,-132.83 604.36,-146.97 761,-119.5 763.79,-119.01 766.62,-118.48 769.47,-117.91"/>
<polygon fill="#63b8ff" stroke="#63b8ff" points="368.7,-157.88 359.49,-163.12 369.96,-164.77 368.7,-157.88"/>
</a>
</g>
</g>
<!-- Node23 -->
<g id="Node000023" class="node">
<title>Node23</title>
<g id="a_Node000023"><a xlink:href="../../d5/d44/Module_8hpp.html" target="_top" xlink:title=" ">
<polygon fill="white" stroke="#666666" points="751.62,-119.5 634.38,-119.5 634.38,-77.75 751.62,-77.75 751.62,-119.5"/>
<text text-anchor="start" x="642.38" y="-106" font-family="Helvetica,sans-Serif" font-size="10.00">/Users/fola/Documents</text>
<text text-anchor="start" x="642.38" y="-94.75" font-family="Helvetica,sans-Serif" font-size="10.00">/ArkScript/Ark/include</text>
<text text-anchor="middle" x="693" y="-83.5" font-family="Helvetica,sans-Serif" font-size="10.00">/Ark/Module.hpp</text>
</a>
</g>
</g>
<!-- Node22&#45;&gt;Node23 -->
<g id="edge27_Node000022_Node000023" class="edge">
<title>Node22&#45;&gt;Node23</title>
<g id="a_edge27_Node000022_Node000023"><a xlink:title=" ">
<path fill="none" stroke="#63b8ff" d="M369.25,-161.87C444.66,-147.37 563.14,-124.59 633.93,-110.98"/>
<polygon fill="#63b8ff" stroke="#63b8ff" points="368.63,-158.42 359.47,-163.75 369.95,-165.3 368.63,-158.42"/>
</a>
</g>
</g>
<!-- Node24 -->
<g id="Node000024" class="node">
<title>Node24</title>
<g id="a_Node000024"><a xlink:href="../../d6/d9a/TypeChecker_8cpp.html" target="_top" xlink:title=" ">
<polygon fill="white" stroke="#666666" points="505.25,-119.5 364.75,-119.5 364.75,-77.75 505.25,-77.75 505.25,-119.5"/>
<text text-anchor="start" x="372.75" y="-106" font-family="Helvetica,sans-Serif" font-size="10.00">/Users/fola/Documents</text>
<text text-anchor="start" x="372.75" y="-94.75" font-family="Helvetica,sans-Serif" font-size="10.00">/ArkScript/Ark/src/arkreactor</text>
<text text-anchor="middle" x="435" y="-83.5" font-family="Helvetica,sans-Serif" font-size="10.00">/TypeChecker.cpp</text>
</a>
</g>
</g>
<!-- Node22&#45;&gt;Node24 -->
<g id="edge28_Node000022_Node000024" class="edge">
<title>Node22&#45;&gt;Node24</title>
<g id="a_edge28_Node000022_Node000024"><a xlink:title=" ">
<path fill="none" stroke="#63b8ff" d="M345.37,-149.55C362.7,-139.89 382.13,-129.07 398.45,-119.98"/>
<polygon fill="#63b8ff" stroke="#63b8ff" points="343.8,-146.42 336.77,-154.34 347.21,-152.53 343.8,-146.42"/>
</a>
</g>
</g>
<!-- Node25 -->
<g id="Node000025" class="node">
<title>Node25</title>
<g id="a_Node000025"><a xlink:href="../../d7/d46/Repl_8cpp.html" target="_top" xlink:title=" ">
<polygon fill="white" stroke="#666666" points="211.25,-119.5 76.75,-119.5 76.75,-77.75 211.25,-77.75 211.25,-119.5"/>
<text text-anchor="start" x="84.75" y="-106" font-family="Helvetica,sans-Serif" font-size="10.00">/Users/fola/Documents</text>
<text text-anchor="start" x="84.75" y="-94.75" font-family="Helvetica,sans-Serif" font-size="10.00">/ArkScript/Ark/src/arkscript</text>
<text text-anchor="middle" x="144" y="-83.5" font-family="Helvetica,sans-Serif" font-size="10.00">/REPL/Repl.cpp</text>
</a>
</g>
</g>
<!-- Node22&#45;&gt;Node25 -->
<g id="edge30_Node000022_Node000025" class="edge">
<title>Node22&#45;&gt;Node25</title>
<g id="a_edge30_Node000022_Node000025"><a xlink:title=" ">
<path fill="none" stroke="#63b8ff" d="M247.26,-150.09C227.23,-140.3 204.6,-129.24 185.65,-119.98"/>
<polygon fill="#63b8ff" stroke="#63b8ff" points="245.58,-153.16 256.1,-154.41 248.66,-146.88 245.58,-153.16"/>
</a>
</g>
</g>
<!-- Node26&#45;&gt;Node12 -->
<g id="edge46_Node000026_Node000012" class="edge">
<title>Node26&#45;&gt;Node12</title>
<g id="a_edge46_Node000026_Node000012"><a xlink:title=" ">
<path fill="none" stroke="#63b8ff" d="M838.72,-308.42C865.81,-281.22 906.81,-238.21 938,-197.25 957.37,-171.81 976.36,-140.04 987.87,-119.78"/>
<polygon fill="#63b8ff" stroke="#63b8ff" points="836.47,-305.72 831.86,-315.26 841.41,-310.68 836.47,-305.72"/>
</a>
</g>
</g>
<!-- Node27 -->
<g id="Node000027" class="node">
<title>Node27</title>
<g id="a_Node000027"><a xlink:href="../../d1/d91/VM_8hpp.html" target="_top" xlink:title="The ArkScript virtual machine.">
<polygon fill="white" stroke="#666666" points="701.62,-275 584.38,-275 584.38,-233.25 701.62,-233.25 701.62,-275"/>
<text text-anchor="start" x="592.38" y="-261.5" font-family="Helvetica,sans-Serif" font-size="10.00">/Users/fola/Documents</text>
<text text-anchor="start" x="592.38" y="-250.25" font-family="Helvetica,sans-Serif" font-size="10.00">/ArkScript/Ark/include</text>
<text text-anchor="middle" x="643" y="-239" font-family="Helvetica,sans-Serif" font-size="10.00">/Ark/VM/VM.hpp</text>
</a>
</g>
</g>
<!-- Node26&#45;&gt;Node27 -->
<g id="edge32_Node000026_Node000027" class="edge">
<title>Node26&#45;&gt;Node27</title>
<g id="a_edge32_Node000026_Node000027"><a xlink:title=" ">
<path fill="none" stroke="#63b8ff" d="M758.11,-311.21C734.52,-299.72 706.98,-286.3 684.76,-275.47"/>
<polygon fill="#63b8ff" stroke="#63b8ff" points="756.41,-314.28 766.93,-315.51 759.47,-307.99 756.41,-314.28"/>
</a>
</g>
</g>
<!-- Node29 -->
<g id="Node000029" class="node">
<title>Node29</title>
<g id="a_Node000029"><a xlink:href="../../d5/da5/Repl_8hpp.html" target="_top" xlink:title="ArkScript REPL &#45; Read Eval Print Loop.">
<polygon fill="white" stroke="#666666" points="183.62,-197.25 66.38,-197.25 66.38,-155.5 183.62,-155.5 183.62,-197.25"/>
<text text-anchor="start" x="74.38" y="-183.75" font-family="Helvetica,sans-Serif" font-size="10.00">/Users/fola/Documents</text>
<text text-anchor="start" x="74.38" y="-172.5" font-family="Helvetica,sans-Serif" font-size="10.00">/ArkScript/Ark/include</text>
<text text-anchor="middle" x="125" y="-161.25" font-family="Helvetica,sans-Serif" font-size="10.00">/CLI/REPL/Repl.hpp</text>
</a>
</g>
</g>
<!-- Node26&#45;&gt;Node29 -->
<g id="edge45_Node000026_Node000029" class="edge">
<title>Node26&#45;&gt;Node29</title>
<g id="a_edge45_Node000026_Node000029"><a xlink:title=" ">
<path fill="none" stroke="#63b8ff" d="M739.99,-320.24C604.82,-288.84 310.13,-220.38 184.1,-191.1"/>
<polygon fill="#63b8ff" stroke="#63b8ff" points="739,-323.6 749.53,-322.45 740.58,-316.78 739,-323.6"/>
</a>
</g>
</g>
<!-- Node27&#45;&gt;Node2 -->
<g id="edge33_Node000027_Node000002" class="edge">
<title>Node27&#45;&gt;Node2</title>
<g id="a_edge33_Node000027_Node000002"><a xlink:title=" ">
<path fill="none" stroke="#63b8ff" d="M572.93,-241.88C554.13,-238.97 533.81,-235.9 515,-233.25 452.01,-224.37 273.06,-244.98 231,-197.25 209.98,-173.4 238.39,-140.64 262.09,-119.8"/>
<polygon fill="#63b8ff" stroke="#63b8ff" points="572.19,-245.31 582.61,-243.39 573.27,-238.39 572.19,-245.31"/>
</a>
</g>
</g>
<!-- Node27&#45;&gt;Node21 -->
<g id="edge43_Node000027_Node000021" class="edge">
<title>Node27&#45;&gt;Node21</title>
<g id="a_edge43_Node000027_Node000021"><a xlink:title=" ">
<path fill="none" stroke="#63b8ff" d="M713.5,-248.83C786.8,-242.72 894.38,-228.56 920,-197.25 931.75,-182.89 928.58,-171.95 920,-155.5 912.17,-140.48 898.25,-128.67 884.19,-119.85"/>
<polygon fill="#63b8ff" stroke="#63b8ff" points="713.25,-245.34 703.56,-249.62 713.8,-252.32 713.25,-245.34"/>
</a>
</g>
</g>
<!-- Node27&#45;&gt;Node23 -->
<g id="edge34_Node000027_Node000023" class="edge">
<title>Node27&#45;&gt;Node23</title>
<g id="a_edge34_Node000027_Node000023"><a xlink:title=" ">
<path fill="none" stroke="#63b8ff" d="M696,-226.33C706.45,-218.46 716.03,-208.79 722,-197.25 735,-172.13 720.42,-140.27 707.66,-119.92"/>
<polygon fill="#63b8ff" stroke="#63b8ff" points="694.13,-223.36 687.9,-231.93 698.11,-229.12 694.13,-223.36"/>
</a>
</g>
</g>
<!-- Node27&#45;&gt;Node24 -->
<g id="edge41_Node000027_Node000024" class="edge">
<title>Node27&#45;&gt;Node24</title>
<g id="a_edge41_Node000027_Node000024"><a xlink:title=" ">
<path fill="none" stroke="#63b8ff" d="M572.72,-241.16C506.4,-229.16 415.57,-210.59 405,-197.25 387.05,-174.6 404.12,-141.21 418.89,-119.95"/>
<polygon fill="#63b8ff" stroke="#63b8ff" points="572.02,-244.59 582.48,-242.91 573.25,-237.7 572.02,-244.59"/>
</a>
</g>
</g>
<!-- Node28 -->
<g id="Node000028" class="node">
<title>Node28</title>
<g id="a_Node000028"><a xlink:href="../../d2/d33/ModuleMapping_8hpp.html" target="_top" xlink:title=" ">
<polygon fill="white" stroke="#666666" points="911,-197.25 769,-197.25 769,-155.5 911,-155.5 911,-197.25"/>
<text text-anchor="start" x="777" y="-183.75" font-family="Helvetica,sans-Serif" font-size="10.00">/Users/fola/Documents</text>
<text text-anchor="start" x="777" y="-172.5" font-family="Helvetica,sans-Serif" font-size="10.00">/ArkScript/Ark/include</text>
<text text-anchor="middle" x="840" y="-161.25" font-family="Helvetica,sans-Serif" font-size="10.00">/Ark/VM/ModuleMapping.hpp</text>
</a>
</g>
</g>
<!-- Node27&#45;&gt;Node28 -->
<g id="edge35_Node000027_Node000028" class="edge">
<title>Node27&#45;&gt;Node28</title>
<g id="a_edge35_Node000027_Node000028"><a xlink:title=" ">
<path fill="none" stroke="#63b8ff" d="M706.32,-228.78C732.37,-218.76 762.2,-207.29 787.06,-197.73"/>
<polygon fill="#63b8ff" stroke="#63b8ff" points="705.28,-225.43 697.21,-232.28 707.8,-231.96 705.28,-225.43"/>
</a>
</g>
</g>
<!-- Node27&#45;&gt;Node29 -->
<g id="edge38_Node000027_Node000029" class="edge">
<title>Node27&#45;&gt;Node29</title>
<g id="a_edge38_Node000027_Node000029"><a xlink:title=" ">
<path fill="none" stroke="#63b8ff" d="M572.96,-241.72C554.16,-238.8 533.82,-235.78 515,-233.25 374.47,-214.37 337.26,-223.95 198,-197.25 193.36,-196.36 188.57,-195.33 183.79,-194.21"/>
<polygon fill="#63b8ff" stroke="#63b8ff" points="572.21,-245.14 582.63,-243.23 573.29,-238.23 572.21,-245.14"/>
</a>
</g>
</g>
<!-- Node30 -->
<g id="Node000030" class="node">
<title>Node30</title>
<g id="a_Node000030"><a xlink:href="../../d4/dc9/Future_8cpp.html" target="_top" xlink:title=" ">
<polygon fill="white" stroke="#666666" points="554.25,-197.25 413.75,-197.25 413.75,-155.5 554.25,-155.5 554.25,-197.25"/>
<text text-anchor="start" x="421.75" y="-183.75" font-family="Helvetica,sans-Serif" font-size="10.00">/Users/fola/Documents</text>
<text text-anchor="start" x="421.75" y="-172.5" font-family="Helvetica,sans-Serif" font-size="10.00">/ArkScript/Ark/src/arkreactor</text>
<text text-anchor="middle" x="484" y="-161.25" font-family="Helvetica,sans-Serif" font-size="10.00">/VM/Future.cpp</text>
</a>
</g>
</g>
<!-- Node27&#45;&gt;Node30 -->
<g id="edge42_Node000027_Node000030" class="edge">
<title>Node27&#45;&gt;Node30</title>
<g id="a_edge42_Node000027_Node000030"><a xlink:title=" ">
<path fill="none" stroke="#63b8ff" d="M590.2,-227.97C569.59,-218.15 546.26,-207.04 526.73,-197.73"/>
<polygon fill="#63b8ff" stroke="#63b8ff" points="588.49,-231.03 599.02,-232.17 591.5,-224.71 588.49,-231.03"/>
</a>
</g>
</g>
<!-- Node31 -->
<g id="Node000031" class="node">
<title>Node31</title>
<g id="a_Node000031"><a xlink:href="../../d1/db2/Closure_8cpp.html" target="_top" xlink:title=" ">
<polygon fill="white" stroke="#666666" points="713.25,-197.25 572.75,-197.25 572.75,-155.5 713.25,-155.5 713.25,-197.25"/>
<text text-anchor="start" x="580.75" y="-183.75" font-family="Helvetica,sans-Serif" font-size="10.00">/Users/fola/Documents</text>
<text text-anchor="start" x="580.75" y="-172.5" font-family="Helvetica,sans-Serif" font-size="10.00">/ArkScript/Ark/src/arkreactor</text>
<text text-anchor="middle" x="643" y="-161.25" font-family="Helvetica,sans-Serif" font-size="10.00">/VM/Value/Closure.cpp</text>
</a>
</g>
</g>
<!-- Node27&#45;&gt;Node31 -->
<g id="edge44_Node000027_Node000031" class="edge">
<title>Node27&#45;&gt;Node31</title>
<g id="a_edge44_Node000027_Node000031"><a xlink:title=" ">
<path fill="none" stroke="#63b8ff" d="M643,-221.5C643,-213.46 643,-205.04 643,-197.73"/>
<polygon fill="#63b8ff" stroke="#63b8ff" points="639.5,-221.31 643,-231.31 646.5,-221.31 639.5,-221.31"/>
</a>
</g>
</g>
<!-- Node28&#45;&gt;Node21 -->
<g id="edge37_Node000028_Node000021" class="edge">
<title>Node28&#45;&gt;Node21</title>
<g id="a_edge37_Node000028_Node000021"><a xlink:title=" ">
<path fill="none" stroke="#63b8ff" d="M840,-143.75C840,-135.71 840,-127.29 840,-119.98"/>
<polygon fill="#63b8ff" stroke="#63b8ff" points="836.5,-143.56 840,-153.56 843.5,-143.56 836.5,-143.56"/>
</a>
</g>
</g>
<!-- Node28&#45;&gt;Node23 -->
<g id="edge36_Node000028_Node000023" class="edge">
<title>Node28&#45;&gt;Node23</title>
<g id="a_edge36_Node000028_Node000023"><a xlink:title=" ">
<path fill="none" stroke="#63b8ff" d="M790.4,-149.82C771.54,-140.1 750.31,-129.16 732.5,-119.98"/>
<polygon fill="#63b8ff" stroke="#63b8ff" points="788.77,-152.91 799.26,-154.38 791.98,-146.69 788.77,-152.91"/>
</a>
</g>
</g>
<!-- Node29&#45;&gt;Node10 -->
<g id="edge40_Node000029_Node000010" class="edge">
<title>Node29&#45;&gt;Node10</title>
<g id="a_edge40_Node000029_Node000010"><a xlink:title=" ">
<path fill="none" stroke="#63b8ff" d="M90.88,-147.67C69.16,-126.78 48.47,-98.32 68,-77.75 85.47,-59.35 845.27,-32.08 1078.58,-24.13"/>
<polygon fill="#63b8ff" stroke="#63b8ff" points="88.32,-150.07 98.06,-154.25 93.05,-144.91 88.32,-150.07"/>
</a>
</g>
</g>
<!-- Node29&#45;&gt;Node25 -->
<g id="edge39_Node000029_Node000025" class="edge">
<title>Node29&#45;&gt;Node25</title>
<g id="a_edge39_Node000029_Node000025"><a xlink:title=" ">
<path fill="none" stroke="#63b8ff" d="M132.86,-144.03C134.9,-135.91 137.04,-127.37 138.89,-119.98"/>
<polygon fill="#63b8ff" stroke="#63b8ff" points="129.5,-143.06 130.46,-153.61 136.29,-144.76 129.5,-143.06"/>
</a>
</g>
</g>
</g>
</svg>
