<?xml version="1.0" encoding="UTF-8" standalone="no"?>
<!DOCTYPE svg PUBLIC "-//W3C//DTD SVG 1.1//EN"
 "http://www.w3.org/Graphics/SVG/1.1/DTD/svg11.dtd">
<!-- Generated by graphviz version 12.2.0 (20241103.1931)
 -->
<!-- Title: Ark::BytecodeReader Pages: 1 -->
<svg width="119pt" height="227pt"
 viewBox="0.00 0.00 119.12 226.75" xmlns="http://www.w3.org/2000/svg" xmlns:xlink="http://www.w3.org/1999/xlink">
<g id="graph0" class="graph" transform="scale(1 1) rotate(0) translate(4 222.75)">
<title>Ark::BytecodeReader</title>
<!-- Node1 -->
<g id="Node000001" class="node">
<title>Node1</title>
<g id="a_Node000001"><a xlink:title="This class is just a helper to.">
<polygon fill="#999999" stroke="#666666" points="109.75,-19.25 0,-19.25 0,0 109.75,0 109.75,-19.25"/>
<text text-anchor="middle" x="54.88" y="-5.75" font-family="Helvetica,sans-Serif" font-size="10.00">Ark::BytecodeReader</text>
</a>
</g>
</g>
<!-- Node2 -->
<g id="Node000002" class="node">
<title>Node2</title>
<g id="a_Node000002"><a xlink:title=" ">
<polygon fill="white" stroke="#666666" points="109.75,-85.75 0,-85.75 0,-66.5 109.75,-66.5 109.75,-85.75"/>
<text text-anchor="middle" x="54.88" y="-72.25" font-family="Helvetica,sans-Serif" font-size="10.00">std::vector&lt; uint8_t &gt;</text>
</a>
</g>
</g>
<!-- Node2&#45;&gt;Node1 -->
<g id="edge1_Node000001_Node000002" class="edge">
<title>Node2&#45;&gt;Node1</title>
<g id="a_edge1_Node000001_Node000002"><a xlink:title=" ">
<path fill="none" stroke="#9a32cd" stroke-dasharray="5,2" d="M54.88,-54.65C54.88,-42.82 54.88,-28.54 54.88,-19.52"/>
<polygon fill="#9a32cd" stroke="#9a32cd" points="51.38,-54.64 54.88,-64.64 58.38,-54.64 51.38,-54.64"/>
</a>
</g>
<text text-anchor="middle" x="83" y="-39" font-family="Helvetica,sans-Serif" font-size="10.00" fill="grey"> m_bytecode</text>
</g>
<!-- Node3 -->
<g id="Node000003" class="node">
<title>Node3</title>
<g id="a_Node000003"><a xlink:title=" ">
<polygon fill="white" stroke="#666666" points="98.12,-152.25 11.62,-152.25 11.62,-133 98.12,-133 98.12,-152.25"/>
<text text-anchor="middle" x="54.88" y="-138.75" font-family="Helvetica,sans-Serif" font-size="10.00">std::vector&lt; T &gt;</text>
</a>
</g>
</g>
<!-- Node3&#45;&gt;Node2 -->
<g id="edge2_Node000002_Node000003" class="edge">
<title>Node3&#45;&gt;Node2</title>
<g id="a_edge2_Node000002_Node000003"><a xlink:title=" ">
<path fill="none" stroke="orange" stroke-dasharray="5,2" d="M54.88,-121.15C54.88,-109.32 54.88,-95.04 54.88,-86.02"/>
<polygon fill="orange" stroke="orange" points="51.38,-121.14 54.88,-131.14 58.38,-121.14 51.38,-121.14"/>
</a>
</g>
<text text-anchor="middle" x="80" y="-105.5" font-family="Helvetica,sans-Serif" font-size="10.00" fill="grey"> &lt; uint8_t &gt;</text>
</g>
<!-- Node4 -->
<g id="Node000004" class="node">
<title>Node4</title>
<g id="a_Node000004"><a xlink:title=" ">
<polygon fill="white" stroke="#666666" points="69.28,-218.75 40.48,-218.75 40.48,-199.5 69.28,-199.5 69.28,-218.75"/>
<text text-anchor="middle" x="54.88" y="-205.25" font-family="Helvetica,sans-Serif" font-size="10.00">T</text>
</a>
</g>
</g>
<!-- Node4&#45;&gt;Node3 -->
<g id="edge3_Node000003_Node000004" class="edge">
<title>Node4&#45;&gt;Node3</title>
<g id="a_edge3_Node000003_Node000004"><a xlink:title=" ">
<path fill="none" stroke="#9a32cd" stroke-dasharray="5,2" d="M54.88,-187.65C54.88,-175.82 54.88,-161.54 54.88,-152.52"/>
<polygon fill="#9a32cd" stroke="#9a32cd" points="51.38,-187.64 54.88,-197.64 58.38,-187.64 51.38,-187.64"/>
</a>
</g>
<text text-anchor="middle" x="76.25" y="-172" font-family="Helvetica,sans-Serif" font-size="10.00" fill="grey"> elements</text>
</g>
</g>
</svg>
