<?xml version="1.0" encoding="UTF-8" standalone="no"?>
<!DOCTYPE svg PUBLIC "-//W3C//DTD SVG 1.1//EN"
 "http://www.w3.org/Graphics/SVG/1.1/DTD/svg11.dtd">
<!-- Generated by graphviz version 12.2.0 (20241103.1931)
 -->
<!-- Title: Ark::internal::Node Pages: 1 -->
<svg width="139pt" height="184pt"
 viewBox="0.00 0.00 138.62 183.75" xmlns="http://www.w3.org/2000/svg" xmlns:xlink="http://www.w3.org/1999/xlink">
<g id="graph0" class="graph" transform="scale(1 1) rotate(0) translate(4 179.75)">
<title>Ark::internal::Node</title>
<!-- Node1 -->
<g id="Node000001" class="node">
<title>Node1</title>
<g id="a_Node000001"><a xlink:title="A node of an Abstract Syntax Tree for ArkScript.">
<polygon fill="#999999" stroke="#666666" points="97.75,-19.25 0,-19.25 0,0 97.75,0 97.75,-19.25"/>
<text text-anchor="middle" x="48.88" y="-5.75" font-family="Helvetica,sans-Serif" font-size="10.00">Ark::internal::Node</text>
</a>
</g>
</g>
<!-- Node2 -->
<g id="Node000002" class="node">
<title>Node2</title>
<g id="a_Node000002"><a xlink:title=" ">
<polygon fill="white" stroke="#666666" points="78.62,-108.25 19.12,-108.25 19.12,-89 78.62,-89 78.62,-108.25"/>
<text text-anchor="middle" x="48.88" y="-94.75" font-family="Helvetica,sans-Serif" font-size="10.00">std::string</text>
</a>
</g>
</g>
<!-- Node2&#45;&gt;Node1 -->
<g id="edge1_Node000001_Node000002" class="edge">
<title>Node2&#45;&gt;Node1</title>
<g id="a_edge1_Node000001_Node000002"><a xlink:title=" ">
<path fill="none" stroke="#9a32cd" stroke-dasharray="5,2" d="M48.88,-77.26C48.88,-59.05 48.88,-33.22 48.88,-19.69"/>
<polygon fill="#9a32cd" stroke="#9a32cd" points="45.38,-77.13 48.88,-87.13 52.38,-77.13 45.38,-77.13"/>
</a>
</g>
<text text-anchor="middle" x="89.75" y="-61.5" font-family="Helvetica,sans-Serif" font-size="10.00" fill="grey"> m_after_comment</text>
<text text-anchor="middle" x="89.75" y="-50.25" font-family="Helvetica,sans-Serif" font-size="10.00" fill="grey">m_comment</text>
<text text-anchor="middle" x="89.75" y="-39" font-family="Helvetica,sans-Serif" font-size="10.00" fill="grey">m_filename</text>
</g>
<!-- Node3 -->
<g id="Node000003" class="node">
<title>Node3</title>
<g id="a_Node000003"><a xlink:title=" ">
<polygon fill="white" stroke="#666666" points="95.88,-175.75 1.87,-175.75 1.87,-145.25 95.88,-145.25 95.88,-175.75"/>
<text text-anchor="start" x="9.88" y="-162.25" font-family="Helvetica,sans-Serif" font-size="10.00">std::basic_string&lt;</text>
<text text-anchor="middle" x="48.88" y="-151" font-family="Helvetica,sans-Serif" font-size="10.00"> Char &gt;</text>
</a>
</g>
</g>
<!-- Node3&#45;&gt;Node2 -->
<g id="edge2_Node000002_Node000003" class="edge">
<title>Node3&#45;&gt;Node2</title>
<g id="a_edge2_Node000002_Node000003"><a xlink:title=" ">
<path fill="none" stroke="#63b8ff" d="M48.88,-133.77C48.88,-124.79 48.88,-115.29 48.88,-108.6"/>
<polygon fill="#63b8ff" stroke="#63b8ff" points="45.38,-133.49 48.88,-143.49 52.38,-133.49 45.38,-133.49"/>
</a>
</g>
</g>
</g>
</svg>
