<?xml version="1.0" encoding="UTF-8" standalone="no"?>
<!DOCTYPE svg PUBLIC "-//W3C//DTD SVG 1.1//EN"
 "http://www.w3.org/Graphics/SVG/1.1/DTD/svg11.dtd">
<!-- Generated by graphviz version 12.2.0 (20241103.1931)
 -->
<!-- Title: Ark::internal::ExecutionContext Pages: 1 -->
<!--zoomable 307 -->

<svg id="main" version="1.1" xmlns="http://www.w3.org/2000/svg" xmlns:xlink="http://www.w3.org/1999/xlink" xml:space="preserve" onload="init(evt)">

<style type="text/css"><![CDATA[
.node, .edge {opacity: 0.7;}
.node.selected, .edge.selected {opacity: 1;}
.edge:hover path { stroke: red; }
.edge:hover polygon { stroke: red; fill: red; }
]]></style>

<defs>
  <circle id="rim" cx="0" cy="0" r="7"/>
  <circle id="rim2" cx="0" cy="0" r="3.5"/>
  <g id="zoomPlus">
    <use xlink:href="#rim" fill="#404040"><set attributeName="fill" to="#808080" begin="zoomplus.mouseover" end="zoomplus.mouseout"/></use>
    <path d="M-4,0h8M0,-4v8" fill="none" stroke="white" stroke-width="1.5" pointer-events="none"/>
  </g>
  <g id="zoomMin">
    <use xlink:href="#rim" fill="#404040"><set attributeName="fill" to="#808080" begin="zoomminus.mouseover" end="zoomminus.mouseout"/></use>
    <path d="M-4,0h8" fill="none" stroke="white" stroke-width="1.5" pointer-events="none"/>
  </g>
  <g id="arrowUp" transform="translate(30 24)">
    <use xlink:href="#rim"/>
    <path pointer-events="none" fill="none" stroke="white" stroke-width="1.5" d="M0,-3.0v7 M-2.5,-0.5L0,-3.0L2.5,-0.5"/>
  </g>
  <g id="arrowRight" transform="rotate(90) translate(36 -43)">
    <use xlink:href="#rim"/>
    <path pointer-events="none" fill="none" stroke="white" stroke-width="1.5" d="M0,-3.0v7 M-2.5,-0.5L0,-3.0L2.5,-0.5"/>
  </g>
  <g id="arrowDown" transform="rotate(180) translate(-30 -48)">
    <use xlink:href="#rim"/>
    <path pointer-events="none" fill="none" stroke="white" stroke-width="1.5" d="M0,-3.0v7 M-2.5,-0.5L0,-3.0L2.5,-0.5"/>
  </g>
  <g id="arrowLeft" transform="rotate(270) translate(-36 17)">
    <use xlink:href="#rim"/>
    <path pointer-events="none" fill="none" stroke="white" stroke-width="1.5" d="M0,-3.0v7 M-2.5,-0.5L0,-3.0L2.5,-0.5"/>
  </g>
  <g id="resetDef">
    <use xlink:href="#rim2" fill="#404040"><set attributeName="fill" to="#808080" begin="reset.mouseover" end="reset.mouseout"/></use>
  </g>
</defs>
<script type="application/ecmascript">
var viewWidth = 1778;
var viewHeight = 307;
var sectionId = 'dynsection-0';
</script>
<script type="application/ecmascript" xlink:href="../../svg.min.js"/>
<svg id="graph" class="graph">
<g id="viewport">
<title>Ark::internal::ExecutionContext</title>
<!-- Node1 -->
<g id="Node000001" class="node">
<title>Node1</title>
<g id="a_Node000001"><a xlink:title=" ">
<polygon fill="#999999" stroke="#666666" points="1770.3,-207.81 1652.3,-207.81 1652.3,-177.31 1770.3,-177.31 1770.3,-207.81"/>
<text text-anchor="start" x="1660.3" y="-194.31" font-family="Helvetica,sans-Serif" font-size="10.00">Ark::internal::Execution</text>
<text text-anchor="middle" x="1711.3" y="-183.06" font-family="Helvetica,sans-Serif" font-size="10.00">Context</text>
</a>
</g>
</g>
<!-- Node2 -->
<g id="Node000002" class="node">
<title>Node2</title>
<g id="a_Node000002"><a xlink:title=" ">
<polygon fill="white" stroke="#666666" points="1505.3,-148.81 1326.55,-148.81 1326.55,-118.31 1505.3,-118.31 1505.3,-148.81"/>
<text text-anchor="start" x="1334.55" y="-135.31" font-family="Helvetica,sans-Serif" font-size="10.00">std::vector&lt; std::shared</text>
<text text-anchor="middle" x="1415.93" y="-124.06" font-family="Helvetica,sans-Serif" font-size="10.00">_ptr&lt; Ark::internal::ClosureScope &gt; &gt;</text>
</a>
</g>
</g>
<!-- Node2&#45;&gt;Node1 -->
<g id="edge1_Node000001_Node000002" class="edge">
<title>Node2&#45;&gt;Node1</title>
<g id="a_edge1_Node000001_Node000002"><a xlink:title=" ">
<path fill="none" stroke="#9a32cd" stroke-dasharray="5,2" d="M1516.99,-151.23C1553.94,-158.04 1596.1,-166.15 1634.3,-174.31 1640.01,-175.53 1645.94,-176.86 1651.86,-178.22"/>
<polygon fill="#9a32cd" stroke="#9a32cd" points="1517.66,-147.8 1507.19,-149.43 1516.4,-154.68 1517.66,-147.8"/>
</a>
</g>
<text text-anchor="middle" x="1578.8" y="-176.06" font-family="Helvetica,sans-Serif" font-size="10.00" fill="grey"> stacked_closure_scopes</text>
</g>
<!-- Node3 -->
<g id="Node000003" class="node">
<title>Node3</title>
<g id="a_Node000003"><a xlink:title=" ">
<polygon fill="white" stroke="#666666" points="1247.8,-148.81 1117.8,-148.81 1117.8,-118.31 1247.8,-118.31 1247.8,-148.81"/>
<text text-anchor="start" x="1125.8" y="-135.31" font-family="Helvetica,sans-Serif" font-size="10.00">std::shared_ptr&lt; Ark</text>
<text text-anchor="middle" x="1182.8" y="-124.06" font-family="Helvetica,sans-Serif" font-size="10.00">::internal::ClosureScope &gt;</text>
</a>
</g>
</g>
<!-- Node3&#45;&gt;Node2 -->
<g id="edge2_Node000002_Node000003" class="edge">
<title>Node3&#45;&gt;Node2</title>
<g id="a_edge2_Node000002_Node000003"><a xlink:title=" ">
<path fill="none" stroke="#9a32cd" stroke-dasharray="5,2" d="M1259.47,-133.56C1280.82,-133.56 1304.24,-133.56 1326.28,-133.56"/>
<polygon fill="#9a32cd" stroke="#9a32cd" points="1259.69,-130.06 1249.69,-133.56 1259.69,-137.06 1259.69,-130.06"/>
</a>
</g>
<text text-anchor="middle" x="1287.18" y="-135.31" font-family="Helvetica,sans-Serif" font-size="10.00" fill="grey"> elements</text>
</g>
<!-- Node4 -->
<g id="Node000004" class="node">
<title>Node4</title>
<g id="a_Node000004"><a xlink:href="../../d9/d6c/classArk_1_1internal_1_1ClosureScope.html" target="_top" xlink:title="A class to store fields captured by a closure.">
<polygon fill="white" stroke="#666666" points="1065.43,-129.19 929.43,-129.19 929.43,-109.94 1065.43,-109.94 1065.43,-129.19"/>
<text text-anchor="middle" x="997.43" y="-115.69" font-family="Helvetica,sans-Serif" font-size="10.00">Ark::internal::ClosureScope</text>
</a>
</g>
</g>
<!-- Node4&#45;&gt;Node3 -->
<g id="edge3_Node000003_Node000004" class="edge">
<title>Node4&#45;&gt;Node3</title>
<g id="a_edge3_Node000003_Node000004"><a xlink:title=" ">
<path fill="none" stroke="#9a32cd" stroke-dasharray="5,2" d="M1076.88,-125.55C1090.37,-126.58 1104.25,-127.64 1117.32,-128.64"/>
<polygon fill="#9a32cd" stroke="#9a32cd" points="1077.41,-122.08 1067.17,-124.81 1076.88,-129.06 1077.41,-122.08"/>
</a>
</g>
<text text-anchor="middle" x="1092.68" y="-128.73" font-family="Helvetica,sans-Serif" font-size="10.00" fill="grey"> ptr</text>
</g>
<!-- Node5 -->
<g id="Node000005" class="node">
<title>Node5</title>
<g id="a_Node000005"><a xlink:title=" ">
<polygon fill="white" stroke="#666666" points="784.8,-131.81 657.05,-131.81 657.05,-101.31 784.8,-101.31 784.8,-131.81"/>
<text text-anchor="start" x="665.05" y="-118.31" font-family="Helvetica,sans-Serif" font-size="10.00">std::vector&lt; std::pair</text>
<text text-anchor="middle" x="720.93" y="-107.06" font-family="Helvetica,sans-Serif" font-size="10.00">&lt; uint16_t, Ark::Value &gt; &gt;</text>
</a>
</g>
</g>
<!-- Node5&#45;&gt;Node4 -->
<g id="edge4_Node000004_Node000005" class="edge">
<title>Node5&#45;&gt;Node4</title>
<g id="a_edge4_Node000004_Node000005"><a xlink:title=" ">
<path fill="none" stroke="#9a32cd" stroke-dasharray="5,2" d="M796.64,-117.38C838,-117.83 888.99,-118.39 929.11,-118.83"/>
<polygon fill="#9a32cd" stroke="#9a32cd" points="796.8,-113.88 786.76,-117.27 796.72,-120.88 796.8,-113.88"/>
</a>
</g>
<text text-anchor="middle" x="857.55" y="-120.34" font-family="Helvetica,sans-Serif" font-size="10.00" fill="grey"> m_data</text>
</g>
<!-- Node6 -->
<g id="Node000006" class="node">
<title>Node6</title>
<g id="a_Node000006"><a xlink:title=" ">
<polygon fill="white" stroke="#666666" points="473.68,-120.81 375.93,-120.81 375.93,-90.31 473.68,-90.31 473.68,-120.81"/>
<text text-anchor="start" x="383.93" y="-107.31" font-family="Helvetica,sans-Serif" font-size="10.00">std::pair&lt; uint16_t,</text>
<text text-anchor="middle" x="424.8" y="-96.06" font-family="Helvetica,sans-Serif" font-size="10.00"> Ark::Value &gt;</text>
</a>
</g>
</g>
<!-- Node6&#45;&gt;Node5 -->
<g id="edge5_Node000005_Node000006" class="edge">
<title>Node6&#45;&gt;Node5</title>
<g id="a_edge5_Node000005_Node000006"><a xlink:title=" ">
<path fill="none" stroke="#9a32cd" stroke-dasharray="5,2" d="M485.13,-117.23C491.74,-118.19 498.4,-119 504.8,-119.56 555.78,-124.05 613.8,-122.87 656.73,-120.81"/>
<polygon fill="#9a32cd" stroke="#9a32cd" points="486,-113.82 475.58,-115.74 484.92,-120.74 486,-113.82"/>
</a>
</g>
<text text-anchor="middle" x="570.43" y="-124.39" font-family="Helvetica,sans-Serif" font-size="10.00" fill="grey"> elements</text>
</g>
<!-- Node7 -->
<g id="Node000007" class="node">
<title>Node7</title>
<g id="a_Node000007"><a xlink:href="../../d3/d90/classArk_1_1Value.html" target="_top" xlink:title=" ">
<polygon fill="white" stroke="#666666" points="202.68,-293.19 141.68,-293.19 141.68,-273.94 202.68,-273.94 202.68,-293.19"/>
<text text-anchor="middle" x="172.18" y="-279.69" font-family="Helvetica,sans-Serif" font-size="10.00">Ark::Value</text>
</a>
</g>
</g>
<!-- Node7&#45;&gt;Node6 -->
<g id="edge6_Node000006_Node000007" class="edge">
<title>Node7&#45;&gt;Node6</title>
<g id="a_edge6_Node000006_Node000007"><a xlink:title=" ">
<path fill="none" stroke="#9a32cd" stroke-dasharray="5,2" d="M214.36,-277.03C262.1,-269.1 335.47,-255.65 344.8,-246.56 369.05,-222.95 346.91,-202.45 362.8,-172.56 373.51,-152.42 391.65,-133.6 405.38,-121.07"/>
<polygon fill="#9a32cd" stroke="#9a32cd" points="213.92,-273.55 204.62,-278.63 215.05,-280.46 213.92,-273.55"/>
</a>
</g>
<text text-anchor="middle" x="291.93" y="-274.55" font-family="Helvetica,sans-Serif" font-size="10.00" fill="grey"> second_type</text>
</g>
<!-- Node18 -->
<g id="Node000018" class="node">
<title>Node18</title>
<g id="a_Node000018"><a xlink:title=" ">
<polygon fill="white" stroke="#666666" points="777.68,-288.81 664.18,-288.81 664.18,-258.31 777.68,-258.31 777.68,-288.81"/>
<text text-anchor="start" x="672.18" y="-275.31" font-family="Helvetica,sans-Serif" font-size="10.00">std::array&lt; Ark::Value,</text>
<text text-anchor="middle" x="720.93" y="-264.06" font-family="Helvetica,sans-Serif" font-size="10.00"> VMStackSize &gt;</text>
</a>
</g>
</g>
<!-- Node7&#45;&gt;Node18 -->
<g id="edge24_Node000018_Node000007" class="edge">
<title>Node7&#45;&gt;Node18</title>
<g id="a_edge24_Node000018_Node000007"><a xlink:title=" ">
<path fill="none" stroke="#9a32cd" stroke-dasharray="5,2" d="M214.28,-285C222.49,-285.24 231.04,-285.44 239.05,-285.56 415.48,-288.24 459.86,-291.16 636.05,-281.56 645.11,-281.07 654.69,-280.35 664.03,-279.53"/>
<polygon fill="#9a32cd" stroke="#9a32cd" points="214.63,-281.51 204.53,-284.71 214.41,-288.51 214.63,-281.51"/>
</a>
</g>
<text text-anchor="middle" x="424.8" y="-289.93" font-family="Helvetica,sans-Serif" font-size="10.00" fill="grey"> elements</text>
</g>
<!-- Node8 -->
<g id="Node000008" class="node">
<title>Node8</title>
<g id="a_Node000008"><a xlink:title=" ">
<polygon fill="white" stroke="#666666" points="221.05,-90.19 123.3,-90.19 123.3,-70.94 221.05,-70.94 221.05,-90.19"/>
<text text-anchor="middle" x="172.18" y="-76.69" font-family="Helvetica,sans-Serif" font-size="10.00">std::pair&lt; T1, T2 &gt;</text>
</a>
</g>
</g>
<!-- Node8&#45;&gt;Node6 -->
<g id="edge7_Node000006_Node000008" class="edge">
<title>Node8&#45;&gt;Node6</title>
<g id="a_edge7_Node000006_Node000008"><a xlink:title=" ">
<path fill="none" stroke="orange" stroke-dasharray="5,2" d="M232.54,-76.57C265.74,-75.39 307.78,-75.68 344.8,-81.31 356.71,-83.13 369.32,-86.36 380.87,-89.89"/>
<polygon fill="orange" stroke="orange" points="232.54,-73.06 222.7,-76.97 232.83,-80.06 232.54,-73.06"/>
</a>
</g>
<text text-anchor="middle" x="291.93" y="-83.06" font-family="Helvetica,sans-Serif" font-size="10.00" fill="grey"> &lt; uint16_t, Ark::Value &gt;</text>
</g>
<!-- Node15 -->
<g id="Node000015" class="node">
<title>Node15</title>
<g id="a_Node000015"><a xlink:href="../../d2/ddd/classArk_1_1internal_1_1ScopeView.html" target="_top" xlink:title="A class to handle the VM scope more efficiently.">
<polygon fill="white" stroke="#666666" points="486.8,-24.19 362.8,-24.19 362.8,-4.94 486.8,-4.94 486.8,-24.19"/>
<text text-anchor="middle" x="424.8" y="-10.69" font-family="Helvetica,sans-Serif" font-size="10.00">Ark::internal::ScopeView</text>
</a>
</g>
</g>
<!-- Node8&#45;&gt;Node15 -->
<g id="edge17_Node000015_Node000008" class="edge">
<title>Node8&#45;&gt;Node15</title>
<g id="a_edge17_Node000015_Node000008"><a xlink:title=" ">
<path fill="none" stroke="#9a32cd" stroke-dasharray="5,2" d="M215.38,-67.21C223.23,-64.83 231.37,-62.44 239.05,-60.31 287.13,-46.98 342.77,-33.46 380.32,-24.61"/>
<polygon fill="#9a32cd" stroke="#9a32cd" points="214.55,-63.8 206.01,-70.08 216.6,-70.5 214.55,-63.8"/>
</a>
</g>
<text text-anchor="middle" x="291.93" y="-62.06" font-family="Helvetica,sans-Serif" font-size="10.00" fill="grey"> m_storage</text>
</g>
<!-- Node16 -->
<g id="Node000016" class="node">
<title>Node16</title>
<g id="a_Node000016"><a xlink:title=" ">
<polygon fill="white" stroke="#666666" points="787.8,-217.81 654.05,-217.81 654.05,-187.31 787.8,-187.31 787.8,-217.81"/>
<text text-anchor="start" x="662.05" y="-204.31" font-family="Helvetica,sans-Serif" font-size="10.00">std::array&lt; ScopeView</text>
<text text-anchor="middle" x="720.93" y="-193.06" font-family="Helvetica,sans-Serif" font-size="10.00">::pair_t, ScopeStackSize &gt;</text>
</a>
</g>
</g>
<!-- Node8&#45;&gt;Node16 -->
<g id="edge20_Node000016_Node000008" class="edge">
<title>Node8&#45;&gt;Node16</title>
<g id="a_edge20_Node000016_Node000008"><a xlink:title=" ">
<path fill="none" stroke="#9a32cd" stroke-dasharray="5,2" d="M193.42,-98.05C202.71,-106.82 213.34,-118.02 221.05,-129.56 232.34,-146.45 222.46,-159.84 239.05,-171.56 272.1,-194.92 529.92,-200.68 653.84,-202.1"/>
<polygon fill="#9a32cd" stroke="#9a32cd" points="195.94,-95.61 186.19,-91.47 191.23,-100.79 195.94,-95.61"/>
</a>
</g>
<text text-anchor="middle" x="424.8" y="-199.86" font-family="Helvetica,sans-Serif" font-size="10.00" fill="grey"> elements</text>
</g>
<!-- Node9 -->
<g id="Node000009" class="node">
<title>Node9</title>
<g id="a_Node000009"><a xlink:title=" ">
<polygon fill="white" stroke="#666666" points="28.8,-109.19 0,-109.19 0,-89.94 28.8,-89.94 28.8,-109.19"/>
<text text-anchor="middle" x="14.4" y="-95.69" font-family="Helvetica,sans-Serif" font-size="10.00">T1</text>
</a>
</g>
</g>
<!-- Node9&#45;&gt;Node8 -->
<g id="edge8_Node000008_Node000009" class="edge">
<title>Node9&#45;&gt;Node8</title>
<g id="a_edge8_Node000008_Node000009"><a xlink:title=" ">
<path fill="none" stroke="#9a32cd" stroke-dasharray="5,2" d="M40.64,-96.48C62.84,-93.78 95.76,-89.76 122.99,-86.44"/>
<polygon fill="#9a32cd" stroke="#9a32cd" points="40.23,-93.01 30.73,-97.69 41.08,-99.96 40.23,-93.01"/>
</a>
</g>
<text text-anchor="middle" x="76.05" y="-97.21" font-family="Helvetica,sans-Serif" font-size="10.00" fill="grey"> first_type</text>
</g>
<!-- Node10 -->
<g id="Node000010" class="node">
<title>Node10</title>
<g id="a_Node000010"><a xlink:title=" ">
<polygon fill="white" stroke="#666666" points="28.8,-72.19 0,-72.19 0,-52.94 28.8,-52.94 28.8,-72.19"/>
<text text-anchor="middle" x="14.4" y="-58.69" font-family="Helvetica,sans-Serif" font-size="10.00">T2</text>
</a>
</g>
</g>
<!-- Node10&#45;&gt;Node8 -->
<g id="edge9_Node000008_Node000010" class="edge">
<title>Node10&#45;&gt;Node8</title>
<g id="a_edge9_Node000008_Node000010"><a xlink:title=" ">
<path fill="none" stroke="#9a32cd" stroke-dasharray="5,2" d="M40.47,-62.46C58.55,-62.67 83.52,-63.52 105.3,-66.31 113.31,-67.34 121.79,-68.85 129.9,-70.5"/>
<polygon fill="#9a32cd" stroke="#9a32cd" points="40.7,-58.96 30.68,-62.41 40.67,-65.96 40.7,-58.96"/>
</a>
</g>
<text text-anchor="middle" x="76.05" y="-68.06" font-family="Helvetica,sans-Serif" font-size="10.00" fill="grey"> second_type</text>
</g>
<!-- Node11 -->
<g id="Node000011" class="node">
<title>Node11</title>
<g id="a_Node000011"><a xlink:title=" ">
<polygon fill="white" stroke="#666666" points="468.05,-72.19 381.55,-72.19 381.55,-52.94 468.05,-52.94 468.05,-72.19"/>
<text text-anchor="middle" x="424.8" y="-58.69" font-family="Helvetica,sans-Serif" font-size="10.00">std::vector&lt; T &gt;</text>
</a>
</g>
</g>
<!-- Node11&#45;&gt;Node2 -->
<g id="edge14_Node000002_Node000011" class="edge">
<title>Node11&#45;&gt;Node2</title>
<g id="a_edge14_Node000002_Node000011"><a xlink:title=" ">
<path fill="none" stroke="orange" stroke-dasharray="5,2" d="M479.44,-62.56C538.4,-62.56 635.91,-62.56 719.93,-62.56 719.93,-62.56 719.93,-62.56 1183.8,-62.56 1258.73,-62.56 1341.53,-97.08 1384.8,-117.98"/>
<polygon fill="orange" stroke="orange" points="479.69,-59.06 469.69,-62.56 479.69,-66.06 479.69,-59.06"/>
</a>
</g>
<text text-anchor="start" x="927.3" y="-75.56" font-family="Helvetica,sans-Serif" font-size="10.00" fill="grey"> &lt; std::shared_ptr&lt;</text>
<text text-anchor="middle" x="997.43" y="-64.31" font-family="Helvetica,sans-Serif" font-size="10.00" fill="grey"> Ark::internal::ClosureScope &gt; &gt;</text>
</g>
<!-- Node11&#45;&gt;Node5 -->
<g id="edge10_Node000005_Node000011" class="edge">
<title>Node11&#45;&gt;Node5</title>
<g id="a_edge10_Node000005_Node000011"><a xlink:title=" ">
<path fill="none" stroke="orange" stroke-dasharray="5,2" d="M479.39,-70.16C539.13,-78.66 628.42,-91.45 636.05,-93.06 646.41,-95.26 657.37,-98.01 667.83,-100.85"/>
<polygon fill="orange" stroke="orange" points="480.13,-66.73 469.74,-68.79 479.15,-73.66 480.13,-66.73"/>
</a>
</g>
<text text-anchor="start" x="529.18" y="-106.06" font-family="Helvetica,sans-Serif" font-size="10.00" fill="grey"> &lt; std::pair&lt; uint16</text>
<text text-anchor="middle" x="570.43" y="-94.81" font-family="Helvetica,sans-Serif" font-size="10.00" fill="grey">_t, Ark::Value &gt; &gt;</text>
</g>
<!-- Node14 -->
<g id="Node000014" class="node">
<title>Node14</title>
<g id="a_Node000014"><a xlink:title=" ">
<polygon fill="white" stroke="#666666" points="782.55,-31.81 659.3,-31.81 659.3,-1.31 782.55,-1.31 782.55,-31.81"/>
<text text-anchor="start" x="667.3" y="-18.31" font-family="Helvetica,sans-Serif" font-size="10.00">std::vector&lt; Ark::internal</text>
<text text-anchor="middle" x="720.93" y="-7.06" font-family="Helvetica,sans-Serif" font-size="10.00">::ScopeView &gt;</text>
</a>
</g>
</g>
<!-- Node11&#45;&gt;Node14 -->
<g id="edge18_Node000014_Node000011" class="edge">
<title>Node11&#45;&gt;Node14</title>
<g id="a_edge18_Node000014_Node000011"><a xlink:title=" ">
<path fill="none" stroke="orange" stroke-dasharray="5,2" d="M463.36,-48.76C476.33,-44.47 491.06,-40.14 504.8,-37.31 556.25,-26.74 615.77,-21.52 659.14,-18.97"/>
<polygon fill="orange" stroke="orange" points="462.24,-45.44 453.91,-51.98 464.5,-52.06 462.24,-45.44"/>
</a>
</g>
<text text-anchor="middle" x="570.43" y="-39.06" font-family="Helvetica,sans-Serif" font-size="10.00" fill="grey"> &lt; Ark::internal::ScopeView &gt;</text>
</g>
<!-- Node12 -->
<g id="Node000012" class="node">
<title>Node12</title>
<g id="a_Node000012"><a xlink:title=" ">
<polygon fill="white" stroke="#666666" points="186.58,-158.19 157.78,-158.19 157.78,-138.94 186.58,-138.94 186.58,-158.19"/>
<text text-anchor="middle" x="172.18" y="-144.69" font-family="Helvetica,sans-Serif" font-size="10.00">T</text>
</a>
</g>
</g>
<!-- Node12&#45;&gt;Node11 -->
<g id="edge11_Node000011_Node000012" class="edge">
<title>Node12&#45;&gt;Node11</title>
<g id="a_edge11_Node000011_Node000012"><a xlink:title=" ">
<path fill="none" stroke="#9a32cd" stroke-dasharray="5,2" d="M196.72,-134.83C209.01,-128.14 224.48,-120.46 239.05,-115.31 284.38,-99.3 300.16,-110.41 344.8,-92.56 353.51,-89.08 354.26,-85.43 362.8,-81.56 370.28,-78.18 378.53,-75.16 386.48,-72.58"/>
<polygon fill="#9a32cd" stroke="#9a32cd" points="195.19,-131.68 188.17,-139.61 198.61,-137.78 195.19,-131.68"/>
</a>
</g>
<text text-anchor="middle" x="291.93" y="-117.06" font-family="Helvetica,sans-Serif" font-size="10.00" fill="grey"> elements</text>
</g>
<!-- Node13 -->
<g id="Node000013" class="node">
<title>Node13</title>
<g id="a_Node000013"><a xlink:title=" ">
<polygon fill="white" stroke="#666666" points="623.05,-177.19 517.8,-177.19 517.8,-157.94 623.05,-157.94 623.05,-177.19"/>
<text text-anchor="middle" x="570.43" y="-163.69" font-family="Helvetica,sans-Serif" font-size="10.00">std::shared_ptr&lt; T &gt;</text>
</a>
</g>
</g>
<!-- Node12&#45;&gt;Node13 -->
<g id="edge13_Node000013_Node000012" class="edge">
<title>Node12&#45;&gt;Node13</title>
<g id="a_edge13_Node000013_Node000012"><a xlink:title=" ">
<path fill="none" stroke="#9a32cd" stroke-dasharray="5,2" d="M198.08,-149.76C261.73,-152.81 431.45,-160.95 517.65,-165.08"/>
<polygon fill="#9a32cd" stroke="#9a32cd" points="198.48,-146.27 188.33,-149.29 198.15,-153.26 198.48,-146.27"/>
</a>
</g>
<text text-anchor="middle" x="291.93" y="-158.19" font-family="Helvetica,sans-Serif" font-size="10.00" fill="grey"> ptr</text>
</g>
<!-- Node17 -->
<g id="Node000017" class="node">
<title>Node17</title>
<g id="a_Node000017"><a xlink:title=" ">
<polygon fill="white" stroke="#666666" points="465.43,-243.19 384.18,-243.19 384.18,-223.94 465.43,-223.94 465.43,-243.19"/>
<text text-anchor="middle" x="424.8" y="-229.69" font-family="Helvetica,sans-Serif" font-size="10.00">std::array&lt; T &gt;</text>
</a>
</g>
</g>
<!-- Node12&#45;&gt;Node17 -->
<g id="edge22_Node000017_Node000012" class="edge">
<title>Node12&#45;&gt;Node17</title>
<g id="a_edge22_Node000017_Node000012"><a xlink:title=" ">
<path fill="none" stroke="#9a32cd" stroke-dasharray="5,2" d="M188.22,-167.38C200.38,-181.18 218.78,-199.1 239.05,-208.56 285.39,-230.19 344.91,-234.64 383.68,-234.88"/>
<polygon fill="#9a32cd" stroke="#9a32cd" points="190.94,-165.18 181.82,-159.79 185.59,-169.69 190.94,-165.18"/>
</a>
</g>
<text text-anchor="middle" x="291.93" y="-234.69" font-family="Helvetica,sans-Serif" font-size="10.00" fill="grey"> elements</text>
</g>
<!-- Node13&#45;&gt;Node3 -->
<g id="edge12_Node000003_Node000013" class="edge">
<title>Node13&#45;&gt;Node3</title>
<g id="a_edge12_Node000003_Node000013"><a xlink:title=" ">
<path fill="none" stroke="orange" stroke-dasharray="5,2" d="M634.55,-165.84C733.72,-162.85 932.03,-155.73 1099.8,-142.56 1105.51,-142.12 1111.44,-141.59 1117.38,-141.02"/>
<polygon fill="orange" stroke="orange" points="634.65,-162.34 624.75,-166.13 634.85,-169.33 634.65,-162.34"/>
</a>
</g>
<text text-anchor="start" x="805.8" y="-172.57" font-family="Helvetica,sans-Serif" font-size="10.00" fill="grey"> &lt; Ark::internal::Closure</text>
<text text-anchor="middle" x="857.55" y="-161.32" font-family="Helvetica,sans-Serif" font-size="10.00" fill="grey">Scope &gt;</text>
</g>
<!-- Node14&#45;&gt;Node1 -->
<g id="edge15_Node000001_Node000014" class="edge">
<title>Node14&#45;&gt;Node1</title>
<g id="a_edge15_Node000001_Node000014"><a xlink:title=" ">
<path fill="none" stroke="#9a32cd" stroke-dasharray="5,2" d="M794.43,-16.56C849.77,-16.56 927.91,-16.56 996.43,-16.56 996.43,-16.56 996.43,-16.56 1416.93,-16.56 1541.06,-16.56 1658.05,-133.87 1696.82,-176.94"/>
<polygon fill="#9a32cd" stroke="#9a32cd" points="794.49,-13.06 784.49,-16.56 794.49,-20.06 794.49,-13.06"/>
</a>
</g>
<text text-anchor="middle" x="1182.8" y="-18.31" font-family="Helvetica,sans-Serif" font-size="10.00" fill="grey"> locals</text>
</g>
<!-- Node15&#45;&gt;Node14 -->
<g id="edge16_Node000014_Node000015" class="edge">
<title>Node15&#45;&gt;Node14</title>
<g id="a_edge16_Node000014_Node000015"><a xlink:title=" ">
<path fill="none" stroke="#9a32cd" stroke-dasharray="5,2" d="M498.19,-3.84C500.42,-3.65 502.62,-3.47 504.8,-3.31 562.99,0.81 577.9,1.25 636.05,-3.31 643.55,-3.9 651.38,-4.78 659.13,-5.81"/>
<polygon fill="#9a32cd" stroke="#9a32cd" points="498.05,-0.34 488.46,-4.83 498.76,-7.3 498.05,-0.34"/>
</a>
</g>
<text text-anchor="middle" x="570.43" y="-5.06" font-family="Helvetica,sans-Serif" font-size="10.00" fill="grey"> elements</text>
</g>
<!-- Node16&#45;&gt;Node1 -->
<g id="edge19_Node000001_Node000016" class="edge">
<title>Node16&#45;&gt;Node1</title>
<g id="a_edge19_Node000001_Node000016"><a xlink:title=" ">
<path fill="none" stroke="#9a32cd" stroke-dasharray="5,2" d="M799.61,-201.26C854.58,-200.45 930.02,-199.56 996.43,-199.56 996.43,-199.56 996.43,-199.56 1416.93,-199.56 1498.44,-199.56 1592.66,-196.83 1651.86,-194.78"/>
<polygon fill="#9a32cd" stroke="#9a32cd" points="799.66,-197.76 789.72,-201.41 799.77,-204.76 799.66,-197.76"/>
</a>
</g>
<text text-anchor="middle" x="1182.8" y="-201.31" font-family="Helvetica,sans-Serif" font-size="10.00" fill="grey"> scopes_storage</text>
</g>
<!-- Node17&#45;&gt;Node16 -->
<g id="edge21_Node000016_Node000017" class="edge">
<title>Node17&#45;&gt;Node16</title>
<g id="a_edge21_Node000016_Node000017"><a xlink:title=" ">
<path fill="none" stroke="orange" stroke-dasharray="5,2" d="M477.06,-228.16C526.1,-222.99 600.32,-215.17 653.79,-209.53"/>
<polygon fill="orange" stroke="orange" points="476.86,-224.66 467.28,-229.19 477.59,-231.62 476.86,-224.66"/>
</a>
</g>
<text text-anchor="start" x="523.18" y="-237.4" font-family="Helvetica,sans-Serif" font-size="10.00" fill="grey"> &lt; ScopeView::pair_t,</text>
<text text-anchor="middle" x="570.43" y="-226.15" font-family="Helvetica,sans-Serif" font-size="10.00" fill="grey"> ScopeStackSize &gt;</text>
</g>
<!-- Node17&#45;&gt;Node18 -->
<g id="edge25_Node000018_Node000017" class="edge">
<title>Node17&#45;&gt;Node18</title>
<g id="a_edge25_Node000018_Node000017"><a xlink:title=" ">
<path fill="none" stroke="orange" stroke-dasharray="5,2" d="M476.9,-245.38C486.15,-247.29 495.74,-249.11 504.8,-250.56 558.57,-259.2 620.45,-265.43 663.99,-269.21"/>
<polygon fill="orange" stroke="orange" points="477.82,-242 467.32,-243.35 476.37,-248.85 477.82,-242"/>
</a>
</g>
<text text-anchor="middle" x="570.43" y="-268.06" font-family="Helvetica,sans-Serif" font-size="10.00" fill="grey"> &lt; Ark::Value, VMStackSize &gt;</text>
</g>
<!-- Node18&#45;&gt;Node1 -->
<g id="edge23_Node000001_Node000018" class="edge">
<title>Node18&#45;&gt;Node1</title>
<g id="a_edge23_Node000001_Node000018"><a xlink:title=" ">
<path fill="none" stroke="#9a32cd" stroke-dasharray="5,2" d="M789.57,-267.04C845.08,-262.24 925.77,-256.56 996.43,-256.56 996.43,-256.56 996.43,-256.56 1416.93,-256.56 1507.37,-256.56 1609.98,-227.17 1666.71,-208.22"/>
<polygon fill="#9a32cd" stroke="#9a32cd" points="789.28,-263.55 779.62,-267.91 789.89,-270.52 789.28,-263.55"/>
</a>
</g>
<text text-anchor="middle" x="1182.8" y="-258.31" font-family="Helvetica,sans-Serif" font-size="10.00" fill="grey"> stack</text>
</g>
</g>
</svg>

<g id="navigator" transform="translate(0 0)" fill="#404254">
  <rect fill="#f2f5e9" fill-opacity="0.5" stroke="#606060" stroke-width=".5" x="0" y="0" width="60" height="60"/>
  <use id="zoomplus" xlink:href="#zoomPlus" x="17" y="9" onmousedown="handleZoom(evt,'in')"/>
  <use id="zoomminus" xlink:href="#zoomMin" x="42" y="9" onmousedown="handleZoom(evt,'out')"/>
  <use id="reset" xlink:href="#resetDef" x="30" y="36" onmousedown="handleReset()"/>
   <use id="arrowup" xlink:href="#arrowUp" x="0" y="0" onmousedown="handlePan(0,-1)"/>
  <use id="arrowright" xlink:href="#arrowRight" x="0" y="0" onmousedown="handlePan(1,0)"/>
  <use id="arrowdown" xlink:href="#arrowDown" x="0" y="0" onmousedown="handlePan(0,1)"/>
  <use id="arrowleft" xlink:href="#arrowLeft" x="0" y="0" onmousedown="handlePan(-1,0)"/>
</g>
<svg viewBox="0 0 15 15" width="100%" height="30px" preserveAspectRatio="xMaxYMin meet">
 <g id="arrow_out" transform="scale(0.3 0.3)">
  <a xlink:href="structArk_1_1internal_1_1ExecutionContext__coll__graph_org.svg" target="_base">
   <rect id="button" ry="5" rx="5" y="6" x="6" height="38" width="38"
        fill="#f2f5e9" fill-opacity="0.5" stroke="#606060" stroke-width="1.0"/>
   <path id="arrow"
     d="M 11.500037,31.436501 C 11.940474,20.09759 22.043105,11.32322 32.158766,21.979434 L 37.068811,17.246167 C 37.068811,17.246167 37.088388,32 37.088388,32 L 22.160133,31.978069 C 22.160133,31.978069 26.997745,27.140456 26.997745,27.140456 C 18.528582,18.264221 13.291696,25.230495 11.500037,31.436501 z"
     style="fill:#404040;"/>
  </a>
 </g>
</svg>

<style type='text/css'>
<![CDATA[
[data-mouse-over-selected='false'] { opacity: 0.7; }
[data-mouse-over-selected='true']  { opacity: 1.0; }
]]>
</style>
<script type="application/ecmascript"><![CDATA[
document.addEventListener('DOMContentLoaded', (event) => {
  highlightEdges();
  highlightAdjacentNodes();
});
]]></script>
</svg>
