<?xml version="1.0" encoding="UTF-8" standalone="no"?>
<!DOCTYPE svg PUBLIC "-//W3C//DTD SVG 1.1//EN"
 "http://www.w3.org/Graphics/SVG/1.1/DTD/svg11.dtd">
<!-- Generated by graphviz version 12.2.0 (20241103.1931)
 -->
<!-- Title: Ark::internal::Logger::MessageAndLocation Pages: 1 -->
<svg width="124pt" height="173pt"
 viewBox="0.00 0.00 123.75 172.50" xmlns="http://www.w3.org/2000/svg" xmlns:xlink="http://www.w3.org/1999/xlink">
<g id="graph0" class="graph" transform="scale(1 1) rotate(0) translate(4 168.5)">
<title>Ark::internal::Logger::MessageAndLocation</title>
<!-- Node1 -->
<g id="Node000001" class="node">
<title>Node1</title>
<g id="a_Node000001"><a xlink:title=" ">
<polygon fill="#999999" stroke="#666666" points="115.75,-30.5 0,-30.5 0,0 115.75,0 115.75,-30.5"/>
<text text-anchor="start" x="8" y="-17" font-family="Helvetica,sans-Serif" font-size="10.00">Ark::internal::Logger</text>
<text text-anchor="middle" x="57.88" y="-5.75" font-family="Helvetica,sans-Serif" font-size="10.00">::MessageAndLocation</text>
</a>
</g>
</g>
<!-- Node2 -->
<g id="Node000002" class="node">
<title>Node2</title>
<g id="a_Node000002"><a xlink:title=" ">
<polygon fill="white" stroke="#666666" points="100.38,-97 15.38,-97 15.38,-77.75 100.38,-77.75 100.38,-97"/>
<text text-anchor="middle" x="57.88" y="-83.5" font-family="Helvetica,sans-Serif" font-size="10.00">std::string_view</text>
</a>
</g>
</g>
<!-- Node2&#45;&gt;Node1 -->
<g id="edge1_Node000001_Node000002" class="edge">
<title>Node2&#45;&gt;Node1</title>
<g id="a_edge1_Node000001_Node000002"><a xlink:title=" ">
<path fill="none" stroke="#9a32cd" stroke-dasharray="5,2" d="M57.88,-66.17C57.88,-54.91 57.88,-41.14 57.88,-30.92"/>
<polygon fill="#9a32cd" stroke="#9a32cd" points="54.38,-65.98 57.88,-75.98 61.38,-65.98 54.38,-65.98"/>
</a>
</g>
<text text-anchor="middle" x="79.25" y="-50.25" font-family="Helvetica,sans-Serif" font-size="10.00" fill="grey"> message</text>
</g>
<!-- Node3 -->
<g id="Node000003" class="node">
<title>Node3</title>
<g id="a_Node000003"><a xlink:title=" ">
<polygon fill="white" stroke="#666666" points="114.62,-164.5 1.12,-164.5 1.12,-134 114.62,-134 114.62,-164.5"/>
<text text-anchor="start" x="9.12" y="-151" font-family="Helvetica,sans-Serif" font-size="10.00">std::basic_string_view</text>
<text text-anchor="middle" x="57.88" y="-139.75" font-family="Helvetica,sans-Serif" font-size="10.00">&lt; Char &gt;</text>
</a>
</g>
</g>
<!-- Node3&#45;&gt;Node2 -->
<g id="edge2_Node000002_Node000003" class="edge">
<title>Node3&#45;&gt;Node2</title>
<g id="a_edge2_Node000002_Node000003"><a xlink:title=" ">
<path fill="none" stroke="#63b8ff" d="M57.88,-122.52C57.88,-113.54 57.88,-104.04 57.88,-97.35"/>
<polygon fill="#63b8ff" stroke="#63b8ff" points="54.38,-122.24 57.88,-132.24 61.38,-122.24 54.38,-122.24"/>
</a>
</g>
</g>
</g>
</svg>
