<?xml version="1.0" encoding="UTF-8" standalone="no"?>
<!DOCTYPE svg PUBLIC "-//W3C//DTD SVG 1.1//EN"
 "http://www.w3.org/Graphics/SVG/1.1/DTD/svg11.dtd">
<!-- Generated by graphviz version 12.2.0 (20241103.1931)
 -->
<!-- Title: Ark::internal::IsInlineSpace Pages: 1 -->
<svg width="142pt" height="218pt"
 viewBox="0.00 0.00 141.75 217.50" xmlns="http://www.w3.org/2000/svg" xmlns:xlink="http://www.w3.org/1999/xlink">
<g id="graph0" class="graph" transform="scale(1 1) rotate(0) translate(4 213.5)">
<title>Ark::internal::IsInlineSpace</title>
<!-- Node1 -->
<g id="Node000001" class="node">
<title>Node1</title>
<g id="a_Node000001"><a xlink:title=" ">
<polygon fill="#999999" stroke="#666666" points="133.75,-19.25 0,-19.25 0,0 133.75,0 133.75,-19.25"/>
<text text-anchor="middle" x="66.88" y="-5.75" font-family="Helvetica,sans-Serif" font-size="10.00">Ark::internal::IsInlineSpace</text>
</a>
</g>
</g>
<!-- Node2 -->
<g id="Node000002" class="node">
<title>Node2</title>
<g id="a_Node000002"><a xlink:href="../../d0/d86/structArk_1_1internal_1_1CharPred.html" target="_top" xlink:title=" ">
<polygon fill="white" stroke="#666666" points="124.75,-75.5 9,-75.5 9,-56.25 124.75,-56.25 124.75,-75.5"/>
<text text-anchor="middle" x="66.88" y="-62" font-family="Helvetica,sans-Serif" font-size="10.00">Ark::internal::CharPred</text>
</a>
</g>
</g>
<!-- Node2&#45;&gt;Node1 -->
<g id="edge1_Node000001_Node000002" class="edge">
<title>Node2&#45;&gt;Node1</title>
<g id="a_edge1_Node000001_Node000002"><a xlink:title=" ">
<path fill="none" stroke="#63b8ff" d="M66.88,-44.69C66.88,-35.98 66.88,-26.24 66.88,-19.42"/>
<polygon fill="#63b8ff" stroke="#63b8ff" points="63.38,-44.4 66.88,-54.4 70.38,-44.4 63.38,-44.4"/>
</a>
</g>
</g>
<!-- Node3 -->
<g id="Node000003" class="node">
<title>Node3</title>
<g id="a_Node000003"><a xlink:title=" ">
<polygon fill="white" stroke="#666666" points="96.62,-142 37.12,-142 37.12,-122.75 96.62,-122.75 96.62,-142"/>
<text text-anchor="middle" x="66.88" y="-128.5" font-family="Helvetica,sans-Serif" font-size="10.00">std::string</text>
</a>
</g>
</g>
<!-- Node3&#45;&gt;Node2 -->
<g id="edge2_Node000002_Node000003" class="edge">
<title>Node3&#45;&gt;Node2</title>
<g id="a_edge2_Node000002_Node000003"><a xlink:title=" ">
<path fill="none" stroke="#9a32cd" stroke-dasharray="5,2" d="M66.88,-110.9C66.88,-99.07 66.88,-84.79 66.88,-75.77"/>
<polygon fill="#9a32cd" stroke="#9a32cd" points="63.38,-110.89 66.88,-120.89 70.38,-110.89 63.38,-110.89"/>
</a>
</g>
<text text-anchor="middle" x="80.38" y="-95.25" font-family="Helvetica,sans-Serif" font-size="10.00" fill="grey"> name</text>
</g>
<!-- Node4 -->
<g id="Node000004" class="node">
<title>Node4</title>
<g id="a_Node000004"><a xlink:title=" ">
<polygon fill="white" stroke="#666666" points="113.88,-209.5 19.87,-209.5 19.87,-179 113.88,-179 113.88,-209.5"/>
<text text-anchor="start" x="27.88" y="-196" font-family="Helvetica,sans-Serif" font-size="10.00">std::basic_string&lt;</text>
<text text-anchor="middle" x="66.88" y="-184.75" font-family="Helvetica,sans-Serif" font-size="10.00"> Char &gt;</text>
</a>
</g>
</g>
<!-- Node4&#45;&gt;Node3 -->
<g id="edge3_Node000003_Node000004" class="edge">
<title>Node4&#45;&gt;Node3</title>
<g id="a_edge3_Node000003_Node000004"><a xlink:title=" ">
<path fill="none" stroke="#63b8ff" d="M66.88,-167.52C66.88,-158.54 66.88,-149.04 66.88,-142.35"/>
<polygon fill="#63b8ff" stroke="#63b8ff" points="63.38,-167.24 66.88,-177.24 70.38,-167.24 63.38,-167.24"/>
</a>
</g>
</g>
</g>
</svg>
