<?xml version="1.0" encoding="UTF-8" standalone="no"?>
<!DOCTYPE svg PUBLIC "-//W3C//DTD SVG 1.1//EN"
 "http://www.w3.org/Graphics/SVG/1.1/DTD/svg11.dtd">
<!-- Generated by graphviz version 12.2.0 (20241103.1931)
 -->
<!-- Title: /Users/fola/Documents/ArkScript/Ark/include/Ark/Utils/Position.hpp Pages: 1 -->
<svg width="188pt" height="105pt"
 viewBox="0.00 0.00 188.25 105.00" xmlns="http://www.w3.org/2000/svg" xmlns:xlink="http://www.w3.org/1999/xlink">
<g id="graph0" class="graph" transform="scale(1 1) rotate(0) translate(4 101)">
<title>/Users/fola/Documents/ArkScript/Ark/include/Ark/Utils/Position.hpp</title>
<!-- Node1 -->
<g id="Node000001" class="node">
<title>Node1</title>
<g id="a_Node000001"><a xlink:title="Defines position utilities (for text in a file) for the parser, formatter, diagnostics.">
<polygon fill="#999999" stroke="#666666" points="132.5,-97 15.25,-97 15.25,-55.25 132.5,-55.25 132.5,-97"/>
<text text-anchor="start" x="23.25" y="-83.5" font-family="Helvetica,sans-Serif" font-size="10.00">/Users/fola/Documents</text>
<text text-anchor="start" x="23.25" y="-72.25" font-family="Helvetica,sans-Serif" font-size="10.00">/ArkScript/Ark/include</text>
<text text-anchor="middle" x="73.88" y="-61" font-family="Helvetica,sans-Serif" font-size="10.00">/Ark/Utils/Position.hpp</text>
</a>
</g>
</g>
<!-- Node2 -->
<g id="Node000002" class="node">
<title>Node2</title>
<g id="a_Node000002"><a xlink:title=" ">
<polygon fill="#e0e0e0" stroke="#999999" points="49.75,-19.25 0,-19.25 0,0 49.75,0 49.75,-19.25"/>
<text text-anchor="middle" x="24.88" y="-5.75" font-family="Helvetica,sans-Serif" font-size="10.00">optional</text>
</a>
</g>
</g>
<!-- Node1&#45;&gt;Node2 -->
<g id="edge1_Node000001_Node000002" class="edge">
<title>Node1&#45;&gt;Node2</title>
<g id="a_edge1_Node000001_Node000002"><a xlink:title=" ">
<path fill="none" stroke="#63b8ff" d="M58.64,-55.07C52.25,-46.66 44.87,-36.95 38.64,-28.75"/>
<polygon fill="#63b8ff" stroke="#63b8ff" points="41.52,-26.75 32.68,-20.9 35.94,-30.98 41.52,-26.75"/>
</a>
</g>
</g>
<!-- Node3 -->
<g id="Node000003" class="node">
<title>Node3</title>
<g id="a_Node000003"><a xlink:href="../../d5/d40/Platform_8hpp.html" target="_top" xlink:title="ArkScript configuration macros.">
<polygon fill="white" stroke="#666666" points="180.25,-19.25 67.5,-19.25 67.5,0 180.25,0 180.25,-19.25"/>
<text text-anchor="middle" x="123.88" y="-5.75" font-family="Helvetica,sans-Serif" font-size="10.00">Ark/Utils/Platform.hpp</text>
</a>
</g>
</g>
<!-- Node1&#45;&gt;Node3 -->
<g id="edge2_Node000001_Node000003" class="edge">
<title>Node1&#45;&gt;Node3</title>
<g id="a_edge2_Node000001_Node000003"><a xlink:title=" ">
<path fill="none" stroke="#63b8ff" d="M89.42,-55.07C95.94,-46.66 103.47,-36.95 109.82,-28.75"/>
<polygon fill="#63b8ff" stroke="#63b8ff" points="112.56,-30.94 115.92,-20.89 107.02,-26.65 112.56,-30.94"/>
</a>
</g>
</g>
</g>
</svg>
