<?xml version="1.0" encoding="UTF-8" standalone="no"?>
<!DOCTYPE svg PUBLIC "-//W3C//DTD SVG 1.1//EN"
 "http://www.w3.org/Graphics/SVG/1.1/DTD/svg11.dtd">
<!-- Generated by graphviz version 12.2.0 (20241103.1931)
 -->
<!-- Title: /Users/fola/Documents/ArkScript/Ark/include/Ark/Compiler/Macros/MacroScope.hpp Pages: 1 -->
<svg width="737pt" height="271pt"
 viewBox="0.00 0.00 737.15 270.75" xmlns="http://www.w3.org/2000/svg" xmlns:xlink="http://www.w3.org/1999/xlink">
<g id="graph0" class="graph" transform="scale(1 1) rotate(0) translate(4 266.75)">
<title>/Users/fola/Documents/ArkScript/Ark/include/Ark/Compiler/Macros/MacroScope.hpp</title>
<!-- Node1 -->
<g id="Node000001" class="node">
<title>Node1</title>
<g id="a_Node000001"><a xlink:title="Defines tools to handle macro definitions.">
<polygon fill="#999999" stroke="#666666" points="356.15,-262.75 168.4,-262.75 168.4,-221 356.15,-221 356.15,-262.75"/>
<text text-anchor="start" x="176.4" y="-249.25" font-family="Helvetica,sans-Serif" font-size="10.00">/Users/fola/Documents</text>
<text text-anchor="start" x="176.4" y="-238" font-family="Helvetica,sans-Serif" font-size="10.00">/ArkScript/Ark/include</text>
<text text-anchor="middle" x="262.27" y="-226.75" font-family="Helvetica,sans-Serif" font-size="10.00">/Ark/Compiler/Macros/MacroScope.hpp</text>
</a>
</g>
</g>
<!-- Node2 -->
<g id="Node000002" class="node">
<title>Node2</title>
<g id="a_Node000002"><a xlink:href="../../d7/dc6/Node_8hpp.html" target="_top" xlink:title="AST node used by the parser, optimizer and compiler.">
<polygon fill="white" stroke="#666666" points="332.52,-185 192.02,-185 192.02,-165.75 332.52,-165.75 332.52,-185"/>
<text text-anchor="middle" x="262.27" y="-171.5" font-family="Helvetica,sans-Serif" font-size="10.00">Ark/Compiler/AST/Node.hpp</text>
</a>
</g>
</g>
<!-- Node1&#45;&gt;Node2 -->
<g id="edge1_Node000001_Node000002" class="edge">
<title>Node1&#45;&gt;Node2</title>
<g id="a_edge1_Node000001_Node000002"><a xlink:title=" ">
<path fill="none" stroke="#63b8ff" d="M262.27,-220.82C262.27,-213.15 262.27,-204.39 262.27,-196.7"/>
<polygon fill="#63b8ff" stroke="#63b8ff" points="265.77,-196.96 262.27,-186.96 258.77,-196.96 265.77,-196.96"/>
</a>
</g>
</g>
<!-- Node5 -->
<g id="Node000005" class="node">
<title>Node5</title>
<g id="a_Node000005"><a xlink:title=" ">
<polygon fill="#e0e0e0" stroke="#999999" points="113.27,-74.5 73.27,-74.5 73.27,-55.25 113.27,-55.25 113.27,-74.5"/>
<text text-anchor="middle" x="93.27" y="-61" font-family="Helvetica,sans-Serif" font-size="10.00">string</text>
</a>
</g>
</g>
<!-- Node1&#45;&gt;Node5 -->
<g id="edge21_Node000001_Node000005" class="edge">
<title>Node1&#45;&gt;Node5</title>
<g id="a_edge21_Node000001_Node000005"><a xlink:title=" ">
<path fill="none" stroke="#63b8ff" d="M168.1,-226.73C110.23,-212.64 40.47,-184.75 4.27,-129.75 -13.17,-103.25 29.92,-84.16 62.05,-74.08"/>
<polygon fill="#63b8ff" stroke="#63b8ff" points="62.79,-77.51 71.39,-71.32 60.81,-70.8 62.79,-77.51"/>
</a>
</g>
</g>
<!-- Node16 -->
<g id="Node000016" class="node">
<title>Node16</title>
<g id="a_Node000016"><a xlink:title=" ">
<polygon fill="#e0e0e0" stroke="#999999" points="433.65,-185 350.9,-185 350.9,-165.75 433.65,-165.75 433.65,-185"/>
<text text-anchor="middle" x="392.27" y="-171.5" font-family="Helvetica,sans-Serif" font-size="10.00">unordered_map</text>
</a>
</g>
</g>
<!-- Node1&#45;&gt;Node16 -->
<g id="edge20_Node000001_Node000016" class="edge">
<title>Node1&#45;&gt;Node16</title>
<g id="a_edge20_Node000001_Node000016"><a xlink:title=" ">
<path fill="none" stroke="#63b8ff" d="M303.05,-220.64C322.78,-210.85 345.99,-199.34 363.79,-190.51"/>
<polygon fill="#63b8ff" stroke="#63b8ff" points="365.33,-193.65 372.74,-186.07 362.22,-187.38 365.33,-193.65"/>
</a>
</g>
</g>
<!-- Node3 -->
<g id="Node000003" class="node">
<title>Node3</title>
<g id="a_Node000003"><a xlink:title=" ">
<polygon fill="#e0e0e0" stroke="#999999" points="499.9,-129.75 454.65,-129.75 454.65,-110.5 499.9,-110.5 499.9,-129.75"/>
<text text-anchor="middle" x="477.27" y="-116.25" font-family="Helvetica,sans-Serif" font-size="10.00">variant</text>
</a>
</g>
</g>
<!-- Node2&#45;&gt;Node3 -->
<g id="edge2_Node000002_Node000003" class="edge">
<title>Node2&#45;&gt;Node3</title>
<g id="a_edge2_Node000002_Node000003"><a xlink:title=" ">
<path fill="none" stroke="#63b8ff" d="M301.49,-165.26C336.48,-157.05 389.36,-144.41 443.44,-130.43"/>
<polygon fill="#63b8ff" stroke="#63b8ff" points="444.01,-133.9 452.81,-128 442.25,-127.12 444.01,-133.9"/>
</a>
</g>
</g>
<!-- Node4 -->
<g id="Node000004" class="node">
<title>Node4</title>
<g id="a_Node000004"><a xlink:title=" ">
<polygon fill="#e0e0e0" stroke="#999999" points="64.9,-129.75 13.65,-129.75 13.65,-110.5 64.9,-110.5 64.9,-129.75"/>
<text text-anchor="middle" x="39.27" y="-116.25" font-family="Helvetica,sans-Serif" font-size="10.00">ostream</text>
</a>
</g>
</g>
<!-- Node2&#45;&gt;Node4 -->
<g id="edge3_Node000002_Node000004" class="edge">
<title>Node2&#45;&gt;Node4</title>
<g id="a_edge3_Node000002_Node000004"><a xlink:title=" ">
<path fill="none" stroke="#63b8ff" d="M224.19,-165.28C182.89,-155.42 117.39,-139.78 76.45,-130"/>
<polygon fill="#63b8ff" stroke="#63b8ff" points="77.35,-126.62 66.81,-127.7 75.73,-133.43 77.35,-126.62"/>
</a>
</g>
</g>
<!-- Node2&#45;&gt;Node5 -->
<g id="edge4_Node000002_Node000005" class="edge">
<title>Node2&#45;&gt;Node5</title>
<g id="a_edge4_Node000002_Node000005"><a xlink:title=" ">
<path fill="none" stroke="#63b8ff" d="M191.79,-167.93C163.79,-161.99 133.31,-150.79 112.27,-129.75 100.75,-118.22 96.15,-100.04 94.35,-86.02"/>
<polygon fill="#63b8ff" stroke="#63b8ff" points="97.84,-85.79 93.49,-76.13 90.87,-86.39 97.84,-85.79"/>
</a>
</g>
</g>
<!-- Node6 -->
<g id="Node000006" class="node">
<title>Node6</title>
<g id="a_Node000006"><a xlink:title=" ">
<polygon fill="#e0e0e0" stroke="#999999" points="340.77,-74.5 297.77,-74.5 297.77,-55.25 340.77,-55.25 340.77,-74.5"/>
<text text-anchor="middle" x="319.27" y="-61" font-family="Helvetica,sans-Serif" font-size="10.00">vector</text>
</a>
</g>
</g>
<!-- Node2&#45;&gt;Node6 -->
<g id="edge5_Node000002_Node000006" class="edge">
<title>Node2&#45;&gt;Node6</title>
<g id="a_edge5_Node000002_Node000006"><a xlink:title=" ">
<path fill="none" stroke="#63b8ff" d="M272,-165.33C280.56,-156.87 292.8,-143.52 300.27,-129.75 307.8,-115.88 312.7,-98.66 315.63,-85.59"/>
<polygon fill="#63b8ff" stroke="#63b8ff" points="319.01,-86.56 317.57,-76.07 312.15,-85.17 319.01,-86.56"/>
</a>
</g>
</g>
<!-- Node7 -->
<g id="Node000007" class="node">
<title>Node7</title>
<g id="a_Node000007"><a xlink:href="../../da/d33/Namespace_8hpp.html" target="_top" xlink:title=" ">
<polygon fill="white" stroke="#666666" points="291.15,-129.75 121.4,-129.75 121.4,-110.5 291.15,-110.5 291.15,-129.75"/>
<text text-anchor="middle" x="206.27" y="-116.25" font-family="Helvetica,sans-Serif" font-size="10.00">Ark/Compiler/AST/Namespace.hpp</text>
</a>
</g>
</g>
<!-- Node2&#45;&gt;Node7 -->
<g id="edge6_Node000002_Node000007" class="edge">
<title>Node2&#45;&gt;Node7</title>
<g id="a_edge6_Node000002_Node000007"><a xlink:title=" ">
<path fill="none" stroke="#63b8ff" d="M252.77,-165.34C244.84,-157.8 233.32,-146.85 223.74,-137.73"/>
<polygon fill="#63b8ff" stroke="#63b8ff" points="226.39,-135.42 216.73,-131.07 221.56,-140.49 226.39,-135.42"/>
</a>
</g>
</g>
<!-- Node9 -->
<g id="Node000009" class="node">
<title>Node9</title>
<g id="a_Node000009"><a xlink:href="../../d8/ddd/Common_8hpp.html" target="_top" xlink:title="Common code for the compiler.">
<polygon fill="white" stroke="#666666" points="652.52,-129.75 518.02,-129.75 518.02,-110.5 652.52,-110.5 652.52,-129.75"/>
<text text-anchor="middle" x="585.27" y="-116.25" font-family="Helvetica,sans-Serif" font-size="10.00">Ark/Compiler/Common.hpp</text>
</a>
</g>
</g>
<!-- Node2&#45;&gt;Node9 -->
<g id="edge10_Node000002_Node000009" class="edge">
<title>Node2&#45;&gt;Node9</title>
<g id="a_edge10_Node000002_Node000009"><a xlink:title=" ">
<path fill="none" stroke="#63b8ff" d="M317.43,-165.28C373.21,-156.09 459.44,-141.87 518.92,-132.06"/>
<polygon fill="#63b8ff" stroke="#63b8ff" points="519.28,-135.55 528.58,-130.47 518.14,-128.65 519.28,-135.55"/>
</a>
</g>
</g>
<!-- Node15 -->
<g id="Node000015" class="node">
<title>Node15</title>
<g id="a_Node000015"><a xlink:href="../../d5/d40/Platform_8hpp.html" target="_top" xlink:title="ArkScript configuration macros.">
<polygon fill="white" stroke="#666666" points="437.02,-129.75 347.52,-129.75 347.52,-110.5 437.02,-110.5 437.02,-129.75"/>
<text text-anchor="middle" x="392.27" y="-116.25" font-family="Helvetica,sans-Serif" font-size="10.00">Ark/Platform.hpp</text>
</a>
</g>
</g>
<!-- Node2&#45;&gt;Node15 -->
<g id="edge19_Node000002_Node000015" class="edge">
<title>Node2&#45;&gt;Node15</title>
<g id="a_edge19_Node000002_Node000015"><a xlink:title=" ">
<path fill="none" stroke="#63b8ff" d="M284.32,-165.34C304.96,-156.89 336.05,-144.15 359.58,-134.52"/>
<polygon fill="#63b8ff" stroke="#63b8ff" points="360.78,-137.81 368.71,-130.78 358.13,-131.33 360.78,-137.81"/>
</a>
</g>
</g>
<!-- Node7&#45;&gt;Node5 -->
<g id="edge7_Node000007_Node000005" class="edge">
<title>Node7&#45;&gt;Node5</title>
<g id="a_edge7_Node000007_Node000005"><a xlink:title=" ">
<path fill="none" stroke="#63b8ff" d="M187.1,-110.09C169.49,-101.79 143.11,-89.36 122.81,-79.79"/>
<polygon fill="#63b8ff" stroke="#63b8ff" points="124.44,-76.69 113.9,-75.6 121.46,-83.03 124.44,-76.69"/>
</a>
</g>
</g>
<!-- Node7&#45;&gt;Node6 -->
<g id="edge8_Node000007_Node000006" class="edge">
<title>Node7&#45;&gt;Node6</title>
<g id="a_edge8_Node000007_Node000006"><a xlink:title=" ">
<path fill="none" stroke="#63b8ff" d="M225.44,-110.09C243.05,-101.79 269.43,-89.36 289.73,-79.79"/>
<polygon fill="#63b8ff" stroke="#63b8ff" points="291.09,-83.03 298.64,-75.6 288.1,-76.69 291.09,-83.03"/>
</a>
</g>
</g>
<!-- Node8 -->
<g id="Node000008" class="node">
<title>Node8</title>
<g id="a_Node000008"><a xlink:title=" ">
<polygon fill="#e0e0e0" stroke="#999999" points="231.9,-74.5 180.65,-74.5 180.65,-55.25 231.9,-55.25 231.9,-74.5"/>
<text text-anchor="middle" x="206.27" y="-61" font-family="Helvetica,sans-Serif" font-size="10.00">memory</text>
</a>
</g>
</g>
<!-- Node7&#45;&gt;Node8 -->
<g id="edge9_Node000007_Node000008" class="edge">
<title>Node7&#45;&gt;Node8</title>
<g id="a_edge9_Node000007_Node000008"><a xlink:title=" ">
<path fill="none" stroke="#63b8ff" d="M206.27,-110.33C206.27,-103.82 206.27,-94.67 206.27,-86.37"/>
<polygon fill="#63b8ff" stroke="#63b8ff" points="209.77,-86.37 206.27,-76.37 202.77,-86.37 209.77,-86.37"/>
</a>
</g>
</g>
<!-- Node9&#45;&gt;Node6 -->
<g id="edge13_Node000009_Node000006" class="edge">
<title>Node9&#45;&gt;Node6</title>
<g id="a_edge13_Node000009_Node000006"><a xlink:title=" ">
<path fill="none" stroke="#63b8ff" d="M539.85,-110.03C486.5,-99.35 399.31,-81.9 352.11,-72.45"/>
<polygon fill="#63b8ff" stroke="#63b8ff" points="352.99,-69.06 342.5,-70.53 351.62,-75.92 352.99,-69.06"/>
</a>
</g>
</g>
<!-- Node10 -->
<g id="Node000010" class="node">
<title>Node10</title>
<g id="a_Node000010"><a xlink:title=" ">
<polygon fill="#e0e0e0" stroke="#999999" points="561.15,-74.5 523.4,-74.5 523.4,-55.25 561.15,-55.25 561.15,-74.5"/>
<text text-anchor="middle" x="542.27" y="-61" font-family="Helvetica,sans-Serif" font-size="10.00">array</text>
</a>
</g>
</g>
<!-- Node9&#45;&gt;Node10 -->
<g id="edge11_Node000009_Node000010" class="edge">
<title>Node9&#45;&gt;Node10</title>
<g id="a_edge11_Node000009_Node000010"><a xlink:title=" ">
<path fill="none" stroke="#63b8ff" d="M578.17,-110.33C572.36,-103.13 563.94,-92.71 556.72,-83.76"/>
<polygon fill="#63b8ff" stroke="#63b8ff" points="559.48,-81.62 550.48,-76.04 554.04,-86.02 559.48,-81.62"/>
</a>
</g>
</g>
<!-- Node11 -->
<g id="Node000011" class="node">
<title>Node11</title>
<g id="a_Node000011"><a xlink:title=" ">
<polygon fill="#e0e0e0" stroke="#999999" points="557.02,-19.25 491.52,-19.25 491.52,0 557.02,0 557.02,-19.25"/>
<text text-anchor="middle" x="524.27" y="-5.75" font-family="Helvetica,sans-Serif" font-size="10.00">string_view</text>
</a>
</g>
</g>
<!-- Node9&#45;&gt;Node11 -->
<g id="edge12_Node000009_Node000011" class="edge">
<title>Node9&#45;&gt;Node11</title>
<g id="a_edge12_Node000009_Node000011"><a xlink:title=" ">
<path fill="none" stroke="#63b8ff" d="M558.69,-110.01C542.72,-103 523.71,-91.58 514.27,-74.5 506.71,-60.82 510.33,-43.13 515.21,-29.84"/>
<polygon fill="#63b8ff" stroke="#63b8ff" points="518.32,-31.46 518.98,-20.89 511.87,-28.75 518.32,-31.46"/>
</a>
</g>
</g>
<!-- Node12 -->
<g id="Node000012" class="node">
<title>Node12</title>
<g id="a_Node000012"><a xlink:title=" ">
<polygon fill="#e0e0e0" stroke="#999999" points="729.15,-19.25 673.4,-19.25 673.4,0 729.15,0 729.15,-19.25"/>
<text text-anchor="middle" x="701.27" y="-5.75" font-family="Helvetica,sans-Serif" font-size="10.00">cinttypes</text>
</a>
</g>
</g>
<!-- Node9&#45;&gt;Node12 -->
<g id="edge14_Node000009_Node000012" class="edge">
<title>Node9&#45;&gt;Node12</title>
<g id="a_edge14_Node000009_Node000012"><a xlink:title=" ">
<path fill="none" stroke="#63b8ff" d="M627.04,-110.04C647.7,-103.48 671.34,-92.5 686.27,-74.5 696.41,-62.29 699.95,-44.44 701.08,-30.72"/>
<polygon fill="#63b8ff" stroke="#63b8ff" points="704.56,-31.2 701.49,-21.06 697.57,-30.91 704.56,-31.2"/>
</a>
</g>
</g>
<!-- Node13 -->
<g id="Node000013" class="node">
<title>Node13</title>
<g id="a_Node000013"><a xlink:href="../../d6/de9/Constants_8hpp.html" target="_top" xlink:title="Constants used by ArkScript.">
<polygon fill="white" stroke="#666666" points="677.15,-74.5 579.4,-74.5 579.4,-55.25 677.15,-55.25 677.15,-74.5"/>
<text text-anchor="middle" x="628.27" y="-61" font-family="Helvetica,sans-Serif" font-size="10.00">Ark/Constants.hpp</text>
</a>
</g>
</g>
<!-- Node9&#45;&gt;Node13 -->
<g id="edge15_Node000009_Node000013" class="edge">
<title>Node9&#45;&gt;Node13</title>
<g id="a_edge15_Node000009_Node000013"><a xlink:title=" ">
<path fill="none" stroke="#63b8ff" d="M592.37,-110.33C598.19,-103.13 606.61,-92.71 613.83,-83.76"/>
<polygon fill="#63b8ff" stroke="#63b8ff" points="616.51,-86.02 620.07,-76.04 611.06,-81.62 616.51,-86.02"/>
</a>
</g>
</g>
<!-- Node13&#45;&gt;Node11 -->
<g id="edge16_Node000013_Node000011" class="edge">
<title>Node13&#45;&gt;Node11</title>
<g id="a_edge16_Node000013_Node000011"><a xlink:title=" ">
<path fill="none" stroke="#63b8ff" d="M610.63,-54.84C594.64,-46.66 570.81,-34.46 552.23,-24.94"/>
<polygon fill="#63b8ff" stroke="#63b8ff" points="553.84,-21.83 543.35,-20.39 550.65,-28.07 553.84,-21.83"/>
</a>
</g>
</g>
<!-- Node13&#45;&gt;Node12 -->
<g id="edge17_Node000013_Node000012" class="edge">
<title>Node13&#45;&gt;Node12</title>
<g id="a_edge17_Node000013_Node000012"><a xlink:title=" ">
<path fill="none" stroke="#63b8ff" d="M640.66,-54.84C651.42,-46.99 667.24,-35.45 680.02,-26.12"/>
<polygon fill="#63b8ff" stroke="#63b8ff" points="681.83,-29.14 687.85,-20.42 677.71,-23.48 681.83,-29.14"/>
</a>
</g>
</g>
<!-- Node14 -->
<g id="Node000014" class="node">
<title>Node14</title>
<g id="a_Node000014"><a xlink:title=" ">
<polygon fill="#e0e0e0" stroke="#999999" points="652.4,-19.25 604.15,-19.25 604.15,0 652.4,0 652.4,-19.25"/>
<text text-anchor="middle" x="628.27" y="-5.75" font-family="Helvetica,sans-Serif" font-size="10.00">cstddef</text>
</a>
</g>
</g>
<!-- Node13&#45;&gt;Node14 -->
<g id="edge18_Node000013_Node000014" class="edge">
<title>Node13&#45;&gt;Node14</title>
<g id="a_edge18_Node000013_Node000014"><a xlink:title=" ">
<path fill="none" stroke="#63b8ff" d="M628.27,-55.08C628.27,-48.57 628.27,-39.42 628.27,-31.12"/>
<polygon fill="#63b8ff" stroke="#63b8ff" points="631.77,-31.12 628.27,-21.12 624.77,-31.12 631.77,-31.12"/>
</a>
</g>
</g>
</g>
</svg>
