<?xml version="1.0" encoding="UTF-8" standalone="no"?>
<!DOCTYPE svg PUBLIC "-//W3C//DTD SVG 1.1//EN"
 "http://www.w3.org/Graphics/SVG/1.1/DTD/svg11.dtd">
<!-- Generated by graphviz version 12.2.0 (20241103.1931)
 -->
<!-- Title: Ark::internal::ClosureScope Pages: 1 -->
<svg width="307pt" height="327pt"
 viewBox="0.00 0.00 307.04 327.00" xmlns="http://www.w3.org/2000/svg" xmlns:xlink="http://www.w3.org/1999/xlink">

<svg id="main" version="1.1" xmlns="http://www.w3.org/2000/svg" xmlns:xlink="http://www.w3.org/1999/xlink" xml:space="preserve">

<style type="text/css"><![CDATA[
.node, .edge {opacity: 0.7;}
.node.selected, .edge.selected {opacity: 1;}
.edge:hover path { stroke: red; }
.edge:hover polygon { stroke: red; fill: red; }
]]></style>
<script type="application/ecmascript" xlink:href="../../svg.min.js"/>
<svg id="graph" class="graph">
<g id="graph0" class="graph" transform="scale(1 1) rotate(0) translate(4 323)">
<title>Ark::internal::ClosureScope</title>
<!-- Node1 -->
<g id="Node000001" class="node">
<title>Node1</title>
<g id="a_Node000001"><a xlink:title="A class to store fields captured by a closure.">
<polygon fill="#999999" stroke="#666666" points="242.5,-19.25 106.5,-19.25 106.5,0 242.5,0 242.5,-19.25"/>
<text text-anchor="middle" x="174.5" y="-5.75" font-family="Helvetica,sans-Serif" font-size="10.00">Ark::internal::ClosureScope</text>
</a>
</g>
</g>
<!-- Node2 -->
<g id="Node000002" class="node">
<title>Node2</title>
<g id="a_Node000002"><a xlink:title=" ">
<polygon fill="white" stroke="#666666" points="238.38,-97 110.62,-97 110.62,-66.5 238.38,-66.5 238.38,-97"/>
<text text-anchor="start" x="118.62" y="-83.5" font-family="Helvetica,sans-Serif" font-size="10.00">std::vector&lt; std::pair</text>
<text text-anchor="middle" x="174.5" y="-72.25" font-family="Helvetica,sans-Serif" font-size="10.00">&lt; uint16_t, Ark::Value &gt; &gt;</text>
</a>
</g>
</g>
<!-- Node2&#45;&gt;Node1 -->
<g id="edge1_Node000001_Node000002" class="edge">
<title>Node2&#45;&gt;Node1</title>
<g id="a_edge1_Node000001_Node000002"><a xlink:title=" ">
<path fill="none" stroke="#9a32cd" stroke-dasharray="5,2" d="M174.5,-54.98C174.5,-42.48 174.5,-28.27 174.5,-19.38"/>
<polygon fill="#9a32cd" stroke="#9a32cd" points="171,-54.71 174.5,-64.71 178,-54.71 171,-54.71"/>
</a>
</g>
<text text-anchor="middle" x="192.12" y="-39" font-family="Helvetica,sans-Serif" font-size="10.00" fill="grey"> m_data</text>
</g>
<!-- Node3 -->
<g id="Node000003" class="node">
<title>Node3</title>
<g id="a_Node000003"><a xlink:title=" ">
<polygon fill="white" stroke="#666666" points="168.38,-186 70.62,-186 70.62,-155.5 168.38,-155.5 168.38,-186"/>
<text text-anchor="start" x="78.62" y="-172.5" font-family="Helvetica,sans-Serif" font-size="10.00">std::pair&lt; uint16_t,</text>
<text text-anchor="middle" x="119.5" y="-161.25" font-family="Helvetica,sans-Serif" font-size="10.00"> Ark::Value &gt;</text>
</a>
</g>
</g>
<!-- Node3&#45;&gt;Node2 -->
<g id="edge2_Node000002_Node000003" class="edge">
<title>Node3&#45;&gt;Node2</title>
<g id="a_edge2_Node000002_Node000003"><a xlink:title=" ">
<path fill="none" stroke="#9a32cd" stroke-dasharray="5,2" d="M134.57,-145.91C144.37,-130.41 156.85,-110.68 165.22,-97.43"/>
<polygon fill="#9a32cd" stroke="#9a32cd" points="131.78,-143.78 129.39,-154.1 137.69,-147.52 131.78,-143.78"/>
</a>
</g>
<text text-anchor="middle" x="174.92" y="-122.38" font-family="Helvetica,sans-Serif" font-size="10.00" fill="grey"> elements</text>
</g>
<!-- Node4 -->
<g id="Node000004" class="node">
<title>Node4</title>
<g id="a_Node000004"><a xlink:href="../../d3/d90/classArk_1_1Value.html" target="_top" xlink:title=" ">
<polygon fill="white" stroke="#666666" points="61,-252.5 0,-252.5 0,-233.25 61,-233.25 61,-252.5"/>
<text text-anchor="middle" x="30.5" y="-239" font-family="Helvetica,sans-Serif" font-size="10.00">Ark::Value</text>
</a>
</g>
</g>
<!-- Node4&#45;&gt;Node3 -->
<g id="edge3_Node000003_Node000004" class="edge">
<title>Node4&#45;&gt;Node3</title>
<g id="a_edge3_Node000003_Node000004"><a xlink:title=" ">
<path fill="none" stroke="#9a32cd" stroke-dasharray="5,2" d="M40.99,-223.17C45.34,-216.55 50.81,-209.41 57,-204 64.91,-197.09 74.55,-191.18 83.88,-186.38"/>
<polygon fill="#9a32cd" stroke="#9a32cd" points="38.12,-221.16 35.94,-231.53 44.11,-224.78 38.12,-221.16"/>
</a>
</g>
<text text-anchor="middle" x="86.25" y="-205.75" font-family="Helvetica,sans-Serif" font-size="10.00" fill="grey"> second_type</text>
</g>
<!-- Node5 -->
<g id="Node000005" class="node">
<title>Node5</title>
<g id="a_Node000005"><a xlink:title=" ">
<polygon fill="white" stroke="#666666" points="176.38,-252.5 78.62,-252.5 78.62,-233.25 176.38,-233.25 176.38,-252.5"/>
<text text-anchor="middle" x="127.5" y="-239" font-family="Helvetica,sans-Serif" font-size="10.00">std::pair&lt; T1, T2 &gt;</text>
</a>
</g>
</g>
<!-- Node5&#45;&gt;Node3 -->
<g id="edge4_Node000003_Node000005" class="edge">
<title>Node5&#45;&gt;Node3</title>
<g id="a_edge4_Node000003_Node000005"><a xlink:title=" ">
<path fill="none" stroke="orange" stroke-dasharray="5,2" d="M122,-222.2C121.5,-219.87 121.07,-217.52 120.75,-215.25 119.41,-205.67 119.1,-194.8 119.12,-186.32"/>
<polygon fill="orange" stroke="orange" points="118.54,-222.79 124.39,-231.63 125.33,-221.08 118.54,-222.79"/>
</a>
</g>
<text text-anchor="middle" x="173.62" y="-205.75" font-family="Helvetica,sans-Serif" font-size="10.00" fill="grey"> &lt; uint16_t, Ark::Value &gt;</text>
</g>
<!-- Node6 -->
<g id="Node000006" class="node">
<title>Node6</title>
<g id="a_Node000006"><a xlink:title=" ">
<polygon fill="white" stroke="#666666" points="107.9,-319 79.1,-319 79.1,-299.75 107.9,-299.75 107.9,-319"/>
<text text-anchor="middle" x="93.5" y="-305.5" font-family="Helvetica,sans-Serif" font-size="10.00">T1</text>
</a>
</g>
</g>
<!-- Node6&#45;&gt;Node5 -->
<g id="edge5_Node000005_Node000006" class="edge">
<title>Node6&#45;&gt;Node5</title>
<g id="a_edge5_Node000005_Node000006"><a xlink:title=" ">
<path fill="none" stroke="#9a32cd" stroke-dasharray="5,2" d="M91.24,-288.22C91.36,-282.26 92.32,-275.89 95,-270.5 98.58,-263.32 105.08,-257.39 111.33,-252.97"/>
<polygon fill="#9a32cd" stroke="#9a32cd" points="87.73,-288.15 91.79,-297.94 94.72,-287.76 87.73,-288.15"/>
</a>
</g>
<text text-anchor="middle" x="116.75" y="-272.25" font-family="Helvetica,sans-Serif" font-size="10.00" fill="grey"> first_type</text>
</g>
<!-- Node7 -->
<g id="Node000007" class="node">
<title>Node7</title>
<g id="a_Node000007"><a xlink:title=" ">
<polygon fill="white" stroke="#666666" points="174.9,-319 146.1,-319 146.1,-299.75 174.9,-299.75 174.9,-319"/>
<text text-anchor="middle" x="160.5" y="-305.5" font-family="Helvetica,sans-Serif" font-size="10.00">T2</text>
</a>
</g>
</g>
<!-- Node7&#45;&gt;Node5 -->
<g id="edge6_Node000005_Node000007" class="edge">
<title>Node7&#45;&gt;Node5</title>
<g id="a_edge6_Node000005_Node000007"><a xlink:title=" ">
<path fill="none" stroke="#9a32cd" stroke-dasharray="5,2" d="M150.79,-289.39C144.6,-277.29 136.86,-262.17 132.05,-252.77"/>
<polygon fill="#9a32cd" stroke="#9a32cd" points="147.55,-290.75 155.22,-298.06 153.78,-287.56 147.55,-290.75"/>
</a>
</g>
<text text-anchor="middle" x="175.23" y="-272.25" font-family="Helvetica,sans-Serif" font-size="10.00" fill="grey"> second_type</text>
</g>
<!-- Node8 -->
<g id="Node000008" class="node">
<title>Node8</title>
<g id="a_Node000008"><a xlink:title=" ">
<polygon fill="white" stroke="#666666" points="281.75,-180.38 195.25,-180.38 195.25,-161.12 281.75,-161.12 281.75,-180.38"/>
<text text-anchor="middle" x="238.5" y="-166.88" font-family="Helvetica,sans-Serif" font-size="10.00">std::vector&lt; T &gt;</text>
</a>
</g>
</g>
<!-- Node8&#45;&gt;Node2 -->
<g id="edge7_Node000002_Node000008" class="edge">
<title>Node8&#45;&gt;Node2</title>
<g id="a_edge7_Node000002_Node000008"><a xlink:title=" ">
<path fill="none" stroke="orange" stroke-dasharray="5,2" d="M226.3,-151.47C219,-140.72 209.43,-126.93 200.5,-115 196.1,-109.13 191.08,-102.81 186.63,-97.35"/>
<polygon fill="orange" stroke="orange" points="223.17,-153.1 231.66,-159.44 228.98,-149.19 223.17,-153.1"/>
</a>
</g>
<text text-anchor="start" x="216.54" y="-128" font-family="Helvetica,sans-Serif" font-size="10.00" fill="grey"> &lt; std::pair&lt; uint16</text>
<text text-anchor="middle" x="257.79" y="-116.75" font-family="Helvetica,sans-Serif" font-size="10.00" fill="grey">_t, Ark::Value &gt; &gt;</text>
</g>
<!-- Node9 -->
<g id="Node000009" class="node">
<title>Node9</title>
<g id="a_Node000009"><a xlink:title=" ">
<polygon fill="white" stroke="#666666" points="262.9,-252.5 234.1,-252.5 234.1,-233.25 262.9,-233.25 262.9,-252.5"/>
<text text-anchor="middle" x="248.5" y="-239" font-family="Helvetica,sans-Serif" font-size="10.00">T</text>
</a>
</g>
</g>
<!-- Node9&#45;&gt;Node8 -->
<g id="edge8_Node000008_Node000009" class="edge">
<title>Node9&#45;&gt;Node8</title>
<g id="a_edge8_Node000008_Node000009"><a xlink:title=" ">
<path fill="none" stroke="#9a32cd" stroke-dasharray="5,2" d="M245.65,-221.91C243.72,-208.37 241.26,-191.12 239.79,-180.78"/>
<polygon fill="#9a32cd" stroke="#9a32cd" points="242.14,-222.09 247.02,-231.5 249.07,-221.1 242.14,-222.09"/>
</a>
</g>
<text text-anchor="middle" x="266.06" y="-205.75" font-family="Helvetica,sans-Serif" font-size="10.00" fill="grey"> elements</text>
</g>
</g>
</svg>
</svg>

<style type='text/css'>
<![CDATA[
[data-mouse-over-selected='false'] { opacity: 0.7; }
[data-mouse-over-selected='true']  { opacity: 1.0; }
]]>
</style>
<script type="application/ecmascript"><![CDATA[
document.addEventListener('DOMContentLoaded', (event) => {
  highlightEdges();
  highlightAdjacentNodes();
});
]]></script>
</svg>
