<?xml version="1.0" encoding="UTF-8" standalone="no"?>
<!DOCTYPE svg PUBLIC "-//W3C//DTD SVG 1.1//EN"
 "http://www.w3.org/Graphics/SVG/1.1/DTD/svg11.dtd">
<!-- Generated by graphviz version 12.2.0 (20241103.1931)
 -->
<!-- Title: /Users/fola/Documents/ArkScript/Ark/include/Ark/Compiler/AST/Optimizer.hpp Pages: 1 -->
<!--zoomable 326 -->

<svg id="main" version="1.1" xmlns="http://www.w3.org/2000/svg" xmlns:xlink="http://www.w3.org/1999/xlink" xml:space="preserve" onload="init(evt)">

<style type="text/css"><![CDATA[
.node, .edge {opacity: 0.7;}
.node.selected, .edge.selected {opacity: 1;}
.edge:hover path { stroke: red; }
.edge:hover polygon { stroke: red; fill: red; }
]]></style>

<defs>
  <circle id="rim" cx="0" cy="0" r="7"/>
  <circle id="rim2" cx="0" cy="0" r="3.5"/>
  <g id="zoomPlus">
    <use xlink:href="#rim" fill="#404040"><set attributeName="fill" to="#808080" begin="zoomplus.mouseover" end="zoomplus.mouseout"/></use>
    <path d="M-4,0h8M0,-4v8" fill="none" stroke="white" stroke-width="1.5" pointer-events="none"/>
  </g>
  <g id="zoomMin">
    <use xlink:href="#rim" fill="#404040"><set attributeName="fill" to="#808080" begin="zoomminus.mouseover" end="zoomminus.mouseout"/></use>
    <path d="M-4,0h8" fill="none" stroke="white" stroke-width="1.5" pointer-events="none"/>
  </g>
  <g id="arrowUp" transform="translate(30 24)">
    <use xlink:href="#rim"/>
    <path pointer-events="none" fill="none" stroke="white" stroke-width="1.5" d="M0,-3.0v7 M-2.5,-0.5L0,-3.0L2.5,-0.5"/>
  </g>
  <g id="arrowRight" transform="rotate(90) translate(36 -43)">
    <use xlink:href="#rim"/>
    <path pointer-events="none" fill="none" stroke="white" stroke-width="1.5" d="M0,-3.0v7 M-2.5,-0.5L0,-3.0L2.5,-0.5"/>
  </g>
  <g id="arrowDown" transform="rotate(180) translate(-30 -48)">
    <use xlink:href="#rim"/>
    <path pointer-events="none" fill="none" stroke="white" stroke-width="1.5" d="M0,-3.0v7 M-2.5,-0.5L0,-3.0L2.5,-0.5"/>
  </g>
  <g id="arrowLeft" transform="rotate(270) translate(-36 17)">
    <use xlink:href="#rim"/>
    <path pointer-events="none" fill="none" stroke="white" stroke-width="1.5" d="M0,-3.0v7 M-2.5,-0.5L0,-3.0L2.5,-0.5"/>
  </g>
  <g id="resetDef">
    <use xlink:href="#rim2" fill="#404040"><set attributeName="fill" to="#808080" begin="reset.mouseover" end="reset.mouseout"/></use>
  </g>
</defs>
<script type="application/ecmascript">
var viewWidth = 1470;
var viewHeight = 326;
var sectionId = 'dynsection-0';
</script>
<script type="application/ecmascript" xlink:href="../../svg.min.js"/>
<svg id="graph" class="graph">
<g id="viewport">
<title>/Users/fola/Documents/ArkScript/Ark/include/Ark/Compiler/AST/Optimizer.hpp</title>
<!-- Node1 -->
<g id="Node000001" class="node">
<title>Node1</title>
<g id="a_Node000001"><a xlink:title="Optimizes a given ArkScript AST.">
<polygon fill="#999999" stroke="#666666" points="456.75,-318 295.25,-318 295.25,-276.25 456.75,-276.25 456.75,-318"/>
<text text-anchor="start" x="303.25" y="-304.5" font-family="Helvetica,sans-Serif" font-size="10.00">/Users/fola/Documents</text>
<text text-anchor="start" x="303.25" y="-293.25" font-family="Helvetica,sans-Serif" font-size="10.00">/ArkScript/Ark/include</text>
<text text-anchor="middle" x="376" y="-282" font-family="Helvetica,sans-Serif" font-size="10.00">/Ark/Compiler/AST/Optimizer.hpp</text>
</a>
</g>
</g>
<!-- Node2 -->
<g id="Node000002" class="node">
<title>Node2</title>
<g id="a_Node000002"><a xlink:title=" ">
<polygon fill="#e0e0e0" stroke="#999999" points="58,-240.25 0,-240.25 0,-221 58,-221 58,-240.25"/>
<text text-anchor="middle" x="29" y="-226.75" font-family="Helvetica,sans-Serif" font-size="10.00">functional</text>
</a>
</g>
</g>
<!-- Node1&#45;&gt;Node2 -->
<g id="edge1_Node000001_Node000002" class="edge">
<title>Node1&#45;&gt;Node2</title>
<g id="a_edge1_Node000001_Node000002"><a xlink:title=" ">
<path fill="none" stroke="#63b8ff" d="M294.97,-281.6C233.68,-270.52 147.49,-254.76 72,-240.25 71.02,-240.06 70.02,-239.87 69.02,-239.68"/>
<polygon fill="#63b8ff" stroke="#63b8ff" points="70.1,-236.32 59.62,-237.83 68.75,-243.19 70.1,-236.32"/>
</a>
</g>
</g>
<!-- Node3 -->
<g id="Node000003" class="node">
<title>Node3</title>
<g id="a_Node000003"><a xlink:title=" ">
<polygon fill="#e0e0e0" stroke="#999999" points="234.38,-129.75 151.62,-129.75 151.62,-110.5 234.38,-110.5 234.38,-129.75"/>
<text text-anchor="middle" x="193" y="-116.25" font-family="Helvetica,sans-Serif" font-size="10.00">unordered_map</text>
</a>
</g>
</g>
<!-- Node1&#45;&gt;Node3 -->
<g id="edge2_Node000001_Node000003" class="edge">
<title>Node1&#45;&gt;Node3</title>
<g id="a_edge2_Node000001_Node000003"><a xlink:title=" ">
<path fill="none" stroke="#63b8ff" d="M355.01,-276.05C318.47,-241.11 243.86,-169.76 210.18,-137.55"/>
<polygon fill="#63b8ff" stroke="#63b8ff" points="212.92,-135.34 203.28,-130.95 208.09,-140.4 212.92,-135.34"/>
</a>
</g>
</g>
<!-- Node4 -->
<g id="Node000004" class="node">
<title>Node4</title>
<g id="a_Node000004"><a xlink:title=" ">
<polygon fill="#e0e0e0" stroke="#999999" points="1393,-74.5 1353,-74.5 1353,-55.25 1393,-55.25 1393,-74.5"/>
<text text-anchor="middle" x="1373" y="-61" font-family="Helvetica,sans-Serif" font-size="10.00">string</text>
</a>
</g>
</g>
<!-- Node1&#45;&gt;Node4 -->
<g id="edge3_Node000001_Node000004" class="edge">
<title>Node1&#45;&gt;Node4</title>
<g id="a_edge3_Node000001_Node000004"><a xlink:title=" ">
<path fill="none" stroke="#63b8ff" d="M457.22,-296.59C685.99,-296.02 1327.49,-280.71 1457,-129.75 1476.85,-106.61 1435.41,-86.57 1403.97,-75.37"/>
<polygon fill="#63b8ff" stroke="#63b8ff" points="1405.41,-72.16 1394.82,-72.27 1403.17,-78.8 1405.41,-72.16"/>
</a>
</g>
</g>
<!-- Node5 -->
<g id="Node000005" class="node">
<title>Node5</title>
<g id="a_Node000005"><a xlink:href="../../d5/d40/Platform_8hpp.html" target="_top" xlink:title="ArkScript configuration macros.">
<polygon fill="white" stroke="#666666" points="452.38,-74.5 339.62,-74.5 339.62,-55.25 452.38,-55.25 452.38,-74.5"/>
<text text-anchor="middle" x="396" y="-61" font-family="Helvetica,sans-Serif" font-size="10.00">Ark/Utils/Platform.hpp</text>
</a>
</g>
</g>
<!-- Node1&#45;&gt;Node5 -->
<g id="edge4_Node000001_Node000005" class="edge">
<title>Node1&#45;&gt;Node5</title>
<g id="a_edge4_Node000001_Node000005"><a xlink:title=" ">
<path fill="none" stroke="#63b8ff" d="M305.95,-275.86C212.84,-245.51 66.87,-183.88 129,-110.5 153.99,-80.98 257.21,-70.98 327.74,-67.59"/>
<polygon fill="#63b8ff" stroke="#63b8ff" points="327.85,-71.09 337.68,-67.15 327.54,-64.1 327.85,-71.09"/>
</a>
</g>
</g>
<!-- Node6 -->
<g id="Node000006" class="node">
<title>Node6</title>
<g id="a_Node000006"><a xlink:href="../../df/d5f/Pass_8hpp.html" target="_top" xlink:title="Interface for a compiler pass (take in an AST, output an AST)">
<polygon fill="white" stroke="#666666" points="465.62,-240.25 348.38,-240.25 348.38,-221 465.62,-221 465.62,-240.25"/>
<text text-anchor="middle" x="407" y="-226.75" font-family="Helvetica,sans-Serif" font-size="10.00">Ark/Compiler/Pass.hpp</text>
</a>
</g>
</g>
<!-- Node1&#45;&gt;Node6 -->
<g id="edge5_Node000001_Node000006" class="edge">
<title>Node1&#45;&gt;Node6</title>
<g id="a_edge5_Node000001_Node000006"><a xlink:title=" ">
<path fill="none" stroke="#63b8ff" d="M385.64,-276.07C389.5,-268.03 393.94,-258.8 397.77,-250.84"/>
<polygon fill="#63b8ff" stroke="#63b8ff" points="400.81,-252.59 401.98,-242.06 394.5,-249.56 400.81,-252.59"/>
</a>
</g>
</g>
<!-- Node7 -->
<g id="Node000007" class="node">
<title>Node7</title>
<g id="a_Node000007"><a xlink:href="../../d7/dc6/Node_8hpp.html" target="_top" xlink:title="AST node used by the parser, optimizer and compiler.">
<polygon fill="white" stroke="#666666" points="999.25,-185 858.75,-185 858.75,-165.75 999.25,-165.75 999.25,-185"/>
<text text-anchor="middle" x="929" y="-171.5" font-family="Helvetica,sans-Serif" font-size="10.00">Ark/Compiler/AST/Node.hpp</text>
</a>
</g>
</g>
<!-- Node1&#45;&gt;Node7 -->
<g id="edge40_Node000001_Node000007" class="edge">
<title>Node1&#45;&gt;Node7</title>
<g id="a_edge40_Node000001_Node000007"><a xlink:title=" ">
<path fill="none" stroke="#63b8ff" d="M457,-278.58C571.86,-253.71 778.85,-208.89 875.97,-187.86"/>
<polygon fill="#63b8ff" stroke="#63b8ff" points="876.47,-191.33 885.5,-185.79 874.99,-184.49 876.47,-191.33"/>
</a>
</g>
</g>
<!-- Node6&#45;&gt;Node5 -->
<g id="edge6_Node000006_Node000005" class="edge">
<title>Node6&#45;&gt;Node5</title>
<g id="a_edge6_Node000006_Node000005"><a xlink:title=" ">
<path fill="none" stroke="#63b8ff" d="M348.15,-224.2C253.1,-213.22 82.24,-182.92 143,-110.5 166.2,-82.84 261.23,-72.32 327.97,-68.32"/>
<polygon fill="#63b8ff" stroke="#63b8ff" points="327.95,-71.83 337.73,-67.77 327.55,-64.84 327.95,-71.83"/>
</a>
</g>
</g>
<!-- Node6&#45;&gt;Node7 -->
<g id="edge7_Node000006_Node000007" class="edge">
<title>Node6&#45;&gt;Node7</title>
<g id="a_edge7_Node000006_Node000007"><a xlink:title=" ">
<path fill="none" stroke="#63b8ff" d="M466.12,-223.59C559.48,-214.07 741.29,-195.52 847.14,-184.73"/>
<polygon fill="#63b8ff" stroke="#63b8ff" points="847.3,-188.23 856.9,-183.73 846.59,-181.26 847.3,-188.23"/>
</a>
</g>
</g>
<!-- Node22 -->
<g id="Node000022" class="node">
<title>Node22</title>
<g id="a_Node000022"><a xlink:href="../../d9/d11/Logger_8hpp.html" target="_top" xlink:title="Internal logger.">
<polygon fill="white" stroke="#666666" points="490.25,-185 385.75,-185 385.75,-165.75 490.25,-165.75 490.25,-185"/>
<text text-anchor="middle" x="438" y="-171.5" font-family="Helvetica,sans-Serif" font-size="10.00">Ark/Utils/Logger.hpp</text>
</a>
</g>
</g>
<!-- Node6&#45;&gt;Node22 -->
<g id="edge31_Node000006_Node000022" class="edge">
<title>Node6&#45;&gt;Node22</title>
<g id="a_edge31_Node000006_Node000022"><a xlink:title=" ">
<path fill="none" stroke="#63b8ff" d="M412.12,-220.83C416.18,-213.86 421.99,-203.87 427.09,-195.12"/>
<polygon fill="#63b8ff" stroke="#63b8ff" points="430,-197.07 432.01,-186.67 423.95,-193.55 430,-197.07"/>
</a>
</g>
</g>
<!-- Node7&#45;&gt;Node4 -->
<g id="edge10_Node000007_Node000004" class="edge">
<title>Node7&#45;&gt;Node4</title>
<g id="a_edge10_Node000007_Node000004"><a xlink:title=" ">
<path fill="none" stroke="#63b8ff" d="M999.52,-173.39C1132.77,-170.79 1410.84,-161.57 1440,-129.75 1456.91,-111.3 1428.45,-91.65 1403.56,-79.1"/>
<polygon fill="#63b8ff" stroke="#63b8ff" points="1405.15,-75.98 1394.62,-74.83 1402.13,-82.3 1405.15,-75.98"/>
</a>
</g>
</g>
<!-- Node7&#45;&gt;Node5 -->
<g id="edge27_Node000007_Node000005" class="edge">
<title>Node7&#45;&gt;Node5</title>
<g id="a_edge27_Node000007_Node000005"><a xlink:title=" ">
<path fill="none" stroke="#63b8ff" d="M858.5,-166.94C809.03,-160.41 741.83,-148.89 685,-129.75 667.06,-123.71 664.96,-116.5 647,-110.5 586.8,-90.39 515.28,-78.81 464.02,-72.51"/>
<polygon fill="#63b8ff" stroke="#63b8ff" points="464.59,-69.05 454.25,-71.35 463.77,-76 464.59,-69.05"/>
</a>
</g>
</g>
<!-- Node8 -->
<g id="Node000008" class="node">
<title>Node8</title>
<g id="a_Node000008"><a xlink:title=" ">
<polygon fill="#e0e0e0" stroke="#999999" points="1361.62,-129.75 1316.38,-129.75 1316.38,-110.5 1361.62,-110.5 1361.62,-129.75"/>
<text text-anchor="middle" x="1339" y="-116.25" font-family="Helvetica,sans-Serif" font-size="10.00">variant</text>
</a>
</g>
</g>
<!-- Node7&#45;&gt;Node8 -->
<g id="edge8_Node000007_Node000008" class="edge">
<title>Node7&#45;&gt;Node8</title>
<g id="a_edge8_Node000007_Node000008"><a xlink:title=" ">
<path fill="none" stroke="#63b8ff" d="M999.46,-168.27C1074.71,-161.22 1197.3,-148.16 1302,-129.75 1302.99,-129.58 1304,-129.39 1305.02,-129.2"/>
<polygon fill="#63b8ff" stroke="#63b8ff" points="1305.44,-132.69 1314.51,-127.21 1304,-125.83 1305.44,-132.69"/>
</a>
</g>
</g>
<!-- Node9 -->
<g id="Node000009" class="node">
<title>Node9</title>
<g id="a_Node000009"><a xlink:title=" ">
<polygon fill="#e0e0e0" stroke="#999999" points="1430.62,-129.75 1379.38,-129.75 1379.38,-110.5 1430.62,-110.5 1430.62,-129.75"/>
<text text-anchor="middle" x="1405" y="-116.25" font-family="Helvetica,sans-Serif" font-size="10.00">ostream</text>
</a>
</g>
</g>
<!-- Node7&#45;&gt;Node9 -->
<g id="edge9_Node000007_Node000009" class="edge">
<title>Node7&#45;&gt;Node9</title>
<g id="a_edge9_Node000007_Node000009"><a xlink:title=" ">
<path fill="none" stroke="#63b8ff" d="M999.49,-170.48C1084.78,-165.05 1232.86,-153.32 1368.14,-130.03"/>
<polygon fill="#63b8ff" stroke="#63b8ff" points="1368.36,-133.55 1377.61,-128.38 1367.15,-126.65 1368.36,-133.55"/>
</a>
</g>
</g>
<!-- Node10 -->
<g id="Node000010" class="node">
<title>Node10</title>
<g id="a_Node000010"><a xlink:title=" ">
<polygon fill="#e0e0e0" stroke="#999999" points="1099.5,-74.5 1056.5,-74.5 1056.5,-55.25 1099.5,-55.25 1099.5,-74.5"/>
<text text-anchor="middle" x="1078" y="-61" font-family="Helvetica,sans-Serif" font-size="10.00">vector</text>
</a>
</g>
</g>
<!-- Node7&#45;&gt;Node10 -->
<g id="edge11_Node000007_Node000010" class="edge">
<title>Node7&#45;&gt;Node10</title>
<g id="a_edge11_Node000007_Node000010"><a xlink:title=" ">
<path fill="none" stroke="#63b8ff" d="M966.67,-165.27C989.23,-158.37 1017.43,-147.07 1038,-129.75 1052.23,-117.77 1062.99,-99.39 1069.75,-85.42"/>
<polygon fill="#63b8ff" stroke="#63b8ff" points="1072.92,-86.89 1073.85,-76.34 1066.54,-84.01 1072.92,-86.89"/>
</a>
</g>
</g>
<!-- Node11 -->
<g id="Node000011" class="node">
<title>Node11</title>
<g id="a_Node000011"><a xlink:title=" ">
<polygon fill="#e0e0e0" stroke="#999999" points="782.88,-74.5 733.12,-74.5 733.12,-55.25 782.88,-55.25 782.88,-74.5"/>
<text text-anchor="middle" x="758" y="-61" font-family="Helvetica,sans-Serif" font-size="10.00">optional</text>
</a>
</g>
</g>
<!-- Node7&#45;&gt;Node11 -->
<g id="edge12_Node000007_Node000011" class="edge">
<title>Node7&#45;&gt;Node11</title>
<g id="a_edge12_Node000007_Node000011"><a xlink:title=" ">
<path fill="none" stroke="#63b8ff" d="M912.82,-165.25C897.31,-156.43 873.33,-142.54 853,-129.75 827.62,-113.78 799.15,-94.45 780.06,-81.26"/>
<polygon fill="#63b8ff" stroke="#63b8ff" points="782.2,-78.49 771.99,-75.67 778.21,-84.24 782.2,-78.49"/>
</a>
</g>
</g>
<!-- Node12 -->
<g id="Node000012" class="node">
<title>Node12</title>
<g id="a_Node000012"><a xlink:href="../../da/d33/Namespace_8hpp.html" target="_top" xlink:title=" ">
<polygon fill="white" stroke="#666666" points="1259.88,-129.75 1090.12,-129.75 1090.12,-110.5 1259.88,-110.5 1259.88,-129.75"/>
<text text-anchor="middle" x="1175" y="-116.25" font-family="Helvetica,sans-Serif" font-size="10.00">Ark/Compiler/AST/Namespace.hpp</text>
</a>
</g>
</g>
<!-- Node7&#45;&gt;Node12 -->
<g id="edge13_Node000007_Node000012" class="edge">
<title>Node7&#45;&gt;Node12</title>
<g id="a_edge13_Node000007_Node000012"><a xlink:title=" ">
<path fill="none" stroke="#63b8ff" d="M971.01,-165.28C1012.76,-156.24 1076.91,-142.36 1122.11,-132.57"/>
<polygon fill="#63b8ff" stroke="#63b8ff" points="1122.65,-136.04 1131.68,-130.5 1121.17,-129.2 1122.65,-136.04"/>
</a>
</g>
</g>
<!-- Node14 -->
<g id="Node000014" class="node">
<title>Node14</title>
<g id="a_Node000014"><a xlink:href="../../d8/ddd/Common_8hpp.html" target="_top" xlink:title="Common code for the compiler.">
<polygon fill="white" stroke="#666666" points="996.25,-129.75 861.75,-129.75 861.75,-110.5 996.25,-110.5 996.25,-129.75"/>
<text text-anchor="middle" x="929" y="-116.25" font-family="Helvetica,sans-Serif" font-size="10.00">Ark/Compiler/Common.hpp</text>
</a>
</g>
</g>
<!-- Node7&#45;&gt;Node14 -->
<g id="edge17_Node000007_Node000014" class="edge">
<title>Node7&#45;&gt;Node14</title>
<g id="a_edge17_Node000007_Node000014"><a xlink:title=" ">
<path fill="none" stroke="#63b8ff" d="M929,-165.58C929,-159.07 929,-149.92 929,-141.62"/>
<polygon fill="#63b8ff" stroke="#63b8ff" points="932.5,-141.62 929,-131.62 925.5,-141.62 932.5,-141.62"/>
</a>
</g>
</g>
<!-- Node21 -->
<g id="Node000021" class="node">
<title>Node21</title>
<g id="a_Node000021"><a xlink:href="../../dc/d58/Position_8hpp.html" target="_top" xlink:title="Defines position utilities (for text in a file) for the parser, formatter, diagnostics.">
<polygon fill="white" stroke="#666666" points="805.62,-129.75 694.38,-129.75 694.38,-110.5 805.62,-110.5 805.62,-129.75"/>
<text text-anchor="middle" x="750" y="-116.25" font-family="Helvetica,sans-Serif" font-size="10.00">Ark/Utils/Position.hpp</text>
</a>
</g>
</g>
<!-- Node7&#45;&gt;Node21 -->
<g id="edge28_Node000007_Node000021" class="edge">
<title>Node7&#45;&gt;Node21</title>
<g id="a_edge28_Node000007_Node000021"><a xlink:title=" ">
<path fill="none" stroke="#63b8ff" d="M898.64,-165.34C869.19,-156.58 824.29,-143.23 791.54,-133.48"/>
<polygon fill="#63b8ff" stroke="#63b8ff" points="792.55,-130.13 781.96,-130.63 790.55,-136.84 792.55,-130.13"/>
</a>
</g>
</g>
<!-- Node12&#45;&gt;Node4 -->
<g id="edge14_Node000012_Node000004" class="edge">
<title>Node12&#45;&gt;Node4</title>
<g id="a_edge14_Node000012_Node000004"><a xlink:title=" ">
<path fill="none" stroke="#63b8ff" d="M1208.59,-110.09C1245.82,-100.08 1305.4,-84.05 1341.69,-74.29"/>
<polygon fill="#63b8ff" stroke="#63b8ff" points="1342.39,-77.73 1351.14,-71.75 1340.57,-70.97 1342.39,-77.73"/>
</a>
</g>
</g>
<!-- Node12&#45;&gt;Node10 -->
<g id="edge15_Node000012_Node000010" class="edge">
<title>Node12&#45;&gt;Node10</title>
<g id="a_edge15_Node000012_Node000010"><a xlink:title=" ">
<path fill="none" stroke="#63b8ff" d="M1158.55,-110.09C1143.77,-101.98 1121.82,-89.93 1104.57,-80.46"/>
<polygon fill="#63b8ff" stroke="#63b8ff" points="1106.31,-77.43 1095.86,-75.68 1102.94,-83.56 1106.31,-77.43"/>
</a>
</g>
</g>
<!-- Node13 -->
<g id="Node000013" class="node">
<title>Node13</title>
<g id="a_Node000013"><a xlink:title=" ">
<polygon fill="#e0e0e0" stroke="#999999" points="1200.62,-74.5 1149.38,-74.5 1149.38,-55.25 1200.62,-55.25 1200.62,-74.5"/>
<text text-anchor="middle" x="1175" y="-61" font-family="Helvetica,sans-Serif" font-size="10.00">memory</text>
</a>
</g>
</g>
<!-- Node12&#45;&gt;Node13 -->
<g id="edge16_Node000012_Node000013" class="edge">
<title>Node12&#45;&gt;Node13</title>
<g id="a_edge16_Node000012_Node000013"><a xlink:title=" ">
<path fill="none" stroke="#63b8ff" d="M1175,-110.33C1175,-103.82 1175,-94.67 1175,-86.37"/>
<polygon fill="#63b8ff" stroke="#63b8ff" points="1178.5,-86.37 1175,-76.37 1171.5,-86.37 1178.5,-86.37"/>
</a>
</g>
</g>
<!-- Node14&#45;&gt;Node10 -->
<g id="edge20_Node000014_Node000010" class="edge">
<title>Node14&#45;&gt;Node10</title>
<g id="a_edge20_Node000014_Node000010"><a xlink:title=" ">
<path fill="none" stroke="#63b8ff" d="M954.28,-110.09C979.38,-101.12 1017.98,-87.33 1045.38,-77.53"/>
<polygon fill="#63b8ff" stroke="#63b8ff" points="1046.34,-80.91 1054.58,-74.25 1043.98,-74.31 1046.34,-80.91"/>
</a>
</g>
</g>
<!-- Node15 -->
<g id="Node000015" class="node">
<title>Node15</title>
<g id="a_Node000015"><a xlink:title=" ">
<polygon fill="#e0e0e0" stroke="#999999" points="846.88,-74.5 809.12,-74.5 809.12,-55.25 846.88,-55.25 846.88,-74.5"/>
<text text-anchor="middle" x="828" y="-61" font-family="Helvetica,sans-Serif" font-size="10.00">array</text>
</a>
</g>
</g>
<!-- Node14&#45;&gt;Node15 -->
<g id="edge18_Node000014_Node000015" class="edge">
<title>Node14&#45;&gt;Node15</title>
<g id="a_edge18_Node000014_Node000015"><a xlink:title=" ">
<path fill="none" stroke="#63b8ff" d="M911.87,-110.09C896.34,-101.91 873.2,-89.71 855.16,-80.19"/>
<polygon fill="#63b8ff" stroke="#63b8ff" points="857.03,-77.23 846.56,-75.66 853.77,-83.42 857.03,-77.23"/>
</a>
</g>
</g>
<!-- Node16 -->
<g id="Node000016" class="node">
<title>Node16</title>
<g id="a_Node000016"><a xlink:title=" ">
<polygon fill="#e0e0e0" stroke="#999999" points="892.75,-19.25 827.25,-19.25 827.25,0 892.75,0 892.75,-19.25"/>
<text text-anchor="middle" x="860" y="-5.75" font-family="Helvetica,sans-Serif" font-size="10.00">string_view</text>
</a>
</g>
</g>
<!-- Node14&#45;&gt;Node16 -->
<g id="edge19_Node000014_Node000016" class="edge">
<title>Node14&#45;&gt;Node16</title>
<g id="a_edge19_Node000014_Node000016"><a xlink:title=" ">
<path fill="none" stroke="#63b8ff" d="M923.35,-110.25C912.13,-92.6 886.82,-52.8 871.81,-29.2"/>
<polygon fill="#63b8ff" stroke="#63b8ff" points="874.86,-27.46 866.54,-20.9 868.95,-31.22 874.86,-27.46"/>
</a>
</g>
</g>
<!-- Node17 -->
<g id="Node000017" class="node">
<title>Node17</title>
<g id="a_Node000017"><a xlink:title=" ">
<polygon fill="#e0e0e0" stroke="#999999" points="966.88,-19.25 911.12,-19.25 911.12,0 966.88,0 966.88,-19.25"/>
<text text-anchor="middle" x="939" y="-5.75" font-family="Helvetica,sans-Serif" font-size="10.00">cinttypes</text>
</a>
</g>
</g>
<!-- Node14&#45;&gt;Node17 -->
<g id="edge21_Node000014_Node000017" class="edge">
<title>Node14&#45;&gt;Node17</title>
<g id="a_edge21_Node000014_Node000017"><a xlink:title=" ">
<path fill="none" stroke="#63b8ff" d="M929.12,-110.01C929.35,-97.59 930.02,-74.69 932,-55.25 932.82,-47.16 934.13,-38.29 935.39,-30.61"/>
<polygon fill="#63b8ff" stroke="#63b8ff" points="938.8,-31.42 937.06,-20.97 931.91,-30.22 938.8,-31.42"/>
</a>
</g>
</g>
<!-- Node18 -->
<g id="Node000018" class="node">
<title>Node18</title>
<g id="a_Node000018"><a xlink:href="../../d6/de9/Constants_8hpp.html" target="_top" xlink:title="Constants used by ArkScript.">
<polygon fill="white" stroke="#666666" points="1038.88,-74.5 941.12,-74.5 941.12,-55.25 1038.88,-55.25 1038.88,-74.5"/>
<text text-anchor="middle" x="990" y="-61" font-family="Helvetica,sans-Serif" font-size="10.00">Ark/Constants.hpp</text>
</a>
</g>
</g>
<!-- Node14&#45;&gt;Node18 -->
<g id="edge22_Node000014_Node000018" class="edge">
<title>Node14&#45;&gt;Node18</title>
<g id="a_edge22_Node000014_Node000018"><a xlink:title=" ">
<path fill="none" stroke="#63b8ff" d="M939.35,-110.09C948.08,-102.47 960.79,-91.37 971.3,-82.2"/>
<polygon fill="#63b8ff" stroke="#63b8ff" points="973.43,-84.98 978.66,-75.77 968.83,-79.71 973.43,-84.98"/>
</a>
</g>
</g>
<!-- Node18&#45;&gt;Node16 -->
<g id="edge23_Node000018_Node000016" class="edge">
<title>Node18&#45;&gt;Node16</title>
<g id="a_edge23_Node000018_Node000016"><a xlink:title=" ">
<path fill="none" stroke="#63b8ff" d="M967.95,-54.84C947.31,-46.39 916.22,-33.65 892.7,-24.02"/>
<polygon fill="#63b8ff" stroke="#63b8ff" points="894.14,-20.83 883.56,-20.28 891.49,-27.31 894.14,-20.83"/>
</a>
</g>
</g>
<!-- Node18&#45;&gt;Node17 -->
<g id="edge25_Node000018_Node000017" class="edge">
<title>Node18&#45;&gt;Node17</title>
<g id="a_edge25_Node000018_Node000017"><a xlink:title=" ">
<path fill="none" stroke="#63b8ff" d="M981.58,-55.08C974.46,-47.65 964.06,-36.79 955.31,-27.66"/>
<polygon fill="#63b8ff" stroke="#63b8ff" points="958.1,-25.5 948.65,-20.7 953.04,-30.35 958.1,-25.5"/>
</a>
</g>
</g>
<!-- Node19 -->
<g id="Node000019" class="node">
<title>Node19</title>
<g id="a_Node000019"><a xlink:title=" ">
<polygon fill="#e0e0e0" stroke="#999999" points="1024.62,-19.25 985.38,-19.25 985.38,0 1024.62,0 1024.62,-19.25"/>
<text text-anchor="middle" x="1005" y="-5.75" font-family="Helvetica,sans-Serif" font-size="10.00">limits</text>
</a>
</g>
</g>
<!-- Node18&#45;&gt;Node19 -->
<g id="edge24_Node000018_Node000019" class="edge">
<title>Node18&#45;&gt;Node19</title>
<g id="a_edge24_Node000018_Node000019"><a xlink:title=" ">
<path fill="none" stroke="#63b8ff" d="M992.48,-55.08C994.35,-48.42 997.01,-38.99 999.39,-30.53"/>
<polygon fill="#63b8ff" stroke="#63b8ff" points="1002.72,-31.64 1002.06,-21.07 995.98,-29.74 1002.72,-31.64"/>
</a>
</g>
</g>
<!-- Node20 -->
<g id="Node000020" class="node">
<title>Node20</title>
<g id="a_Node000020"><a xlink:title=" ">
<polygon fill="#e0e0e0" stroke="#999999" points="1091.12,-19.25 1042.88,-19.25 1042.88,0 1091.12,0 1091.12,-19.25"/>
<text text-anchor="middle" x="1067" y="-5.75" font-family="Helvetica,sans-Serif" font-size="10.00">cstddef</text>
</a>
</g>
</g>
<!-- Node18&#45;&gt;Node20 -->
<g id="edge26_Node000018_Node000020" class="edge">
<title>Node18&#45;&gt;Node20</title>
<g id="a_edge26_Node000018_Node000020"><a xlink:title=" ">
<path fill="none" stroke="#63b8ff" d="M1003.06,-54.84C1014.46,-46.96 1031.23,-35.36 1044.74,-26.02"/>
<polygon fill="#63b8ff" stroke="#63b8ff" points="1046.4,-29.13 1052.63,-20.56 1042.41,-23.37 1046.4,-29.13"/>
</a>
</g>
</g>
<!-- Node21&#45;&gt;Node5 -->
<g id="edge30_Node000021_Node000005" class="edge">
<title>Node21&#45;&gt;Node5</title>
<g id="a_edge30_Node000021_Node000005"><a xlink:title=" ">
<path fill="none" stroke="#63b8ff" d="M693.91,-110.69C631.52,-101.3 530.75,-86.15 463.95,-76.1"/>
<polygon fill="#63b8ff" stroke="#63b8ff" points="464.61,-72.66 454.2,-74.63 463.57,-79.58 464.61,-72.66"/>
</a>
</g>
</g>
<!-- Node21&#45;&gt;Node11 -->
<g id="edge29_Node000021_Node000011" class="edge">
<title>Node21&#45;&gt;Node11</title>
<g id="a_edge29_Node000021_Node000011"><a xlink:title=" ">
<path fill="none" stroke="#63b8ff" d="M751.32,-110.33C752.31,-103.74 753.71,-94.46 754.97,-86.07"/>
<polygon fill="#63b8ff" stroke="#63b8ff" points="758.4,-86.76 756.43,-76.36 751.48,-85.72 758.4,-86.76"/>
</a>
</g>
</g>
<!-- Node22&#45;&gt;Node3 -->
<g id="edge38_Node000022_Node000003" class="edge">
<title>Node22&#45;&gt;Node3</title>
<g id="a_edge38_Node000022_Node000003"><a xlink:title=" ">
<path fill="none" stroke="#63b8ff" d="M396.16,-165.28C354.58,-156.24 290.69,-142.36 245.68,-132.57"/>
<polygon fill="#63b8ff" stroke="#63b8ff" points="246.66,-129.21 236.15,-130.5 245.17,-136.05 246.66,-129.21"/>
</a>
</g>
</g>
<!-- Node22&#45;&gt;Node4 -->
<g id="edge34_Node000022_Node000004" class="edge">
<title>Node22&#45;&gt;Node4</title>
<g id="a_edge34_Node000022_Node000004"><a xlink:title=" ">
<path fill="none" stroke="#63b8ff" d="M490.6,-173.06C661.61,-168.56 1195.03,-152.81 1269,-129.75 1285.98,-124.46 1325.41,-98.64 1350.55,-81.49"/>
<polygon fill="#63b8ff" stroke="#63b8ff" points="1352.52,-84.38 1358.78,-75.83 1348.56,-78.61 1352.52,-84.38"/>
</a>
</g>
</g>
<!-- Node22&#45;&gt;Node10 -->
<g id="edge37_Node000022_Node000010" class="edge">
<title>Node22&#45;&gt;Node10</title>
<g id="a_edge37_Node000022_Node000010"><a xlink:title=" ">
<path fill="none" stroke="#63b8ff" d="M490.32,-174.43C612.46,-173.88 912.98,-168.51 1005,-129.75 1028.9,-119.68 1050.47,-98.6 1063.86,-83.41"/>
<polygon fill="#63b8ff" stroke="#63b8ff" points="1066.33,-85.92 1070.11,-76.02 1060.98,-81.4 1066.33,-85.92"/>
</a>
</g>
</g>
<!-- Node23 -->
<g id="Node000023" class="node">
<title>Node23</title>
<g id="a_Node000023"><a xlink:title=" ">
<polygon fill="#e0e0e0" stroke="#999999" points="385.75,-129.75 332.25,-129.75 332.25,-110.5 385.75,-110.5 385.75,-129.75"/>
<text text-anchor="middle" x="359" y="-116.25" font-family="Helvetica,sans-Serif" font-size="10.00">iostream</text>
</a>
</g>
</g>
<!-- Node22&#45;&gt;Node23 -->
<g id="edge32_Node000022_Node000023" class="edge">
<title>Node22&#45;&gt;Node23</title>
<g id="a_edge32_Node000022_Node000023"><a xlink:title=" ">
<path fill="none" stroke="#63b8ff" d="M424.6,-165.34C412.91,-157.46 395.7,-145.86 381.84,-136.52"/>
<polygon fill="#63b8ff" stroke="#63b8ff" points="383.97,-133.74 373.72,-131.05 380.06,-139.54 383.97,-133.74"/>
</a>
</g>
</g>
<!-- Node24 -->
<g id="Node000024" class="node">
<title>Node24</title>
<g id="a_Node000024"><a xlink:title=" ">
<polygon fill="#e0e0e0" stroke="#999999" points="472.62,-129.75 403.38,-129.75 403.38,-110.5 472.62,-110.5 472.62,-129.75"/>
<text text-anchor="middle" x="438" y="-116.25" font-family="Helvetica,sans-Serif" font-size="10.00">fmt/format.h</text>
</a>
</g>
</g>
<!-- Node22&#45;&gt;Node24 -->
<g id="edge33_Node000022_Node000024" class="edge">
<title>Node22&#45;&gt;Node24</title>
<g id="a_edge33_Node000022_Node000024"><a xlink:title=" ">
<path fill="none" stroke="#63b8ff" d="M438,-165.58C438,-159.07 438,-149.92 438,-141.62"/>
<polygon fill="#63b8ff" stroke="#63b8ff" points="441.5,-141.62 438,-131.62 434.5,-141.62 441.5,-141.62"/>
</a>
</g>
</g>
<!-- Node25 -->
<g id="Node000025" class="node">
<title>Node25</title>
<g id="a_Node000025"><a xlink:title=" ">
<polygon fill="#e0e0e0" stroke="#999999" points="535.62,-129.75 490.38,-129.75 490.38,-110.5 535.62,-110.5 535.62,-129.75"/>
<text text-anchor="middle" x="513" y="-116.25" font-family="Helvetica,sans-Serif" font-size="10.00">chrono</text>
</a>
</g>
</g>
<!-- Node22&#45;&gt;Node25 -->
<g id="edge35_Node000022_Node000025" class="edge">
<title>Node22&#45;&gt;Node25</title>
<g id="a_edge35_Node000022_Node000025"><a xlink:title=" ">
<path fill="none" stroke="#63b8ff" d="M450.72,-165.34C461.71,-157.54 477.84,-146.09 490.93,-136.79"/>
<polygon fill="#63b8ff" stroke="#63b8ff" points="492.85,-139.72 498.98,-131.08 488.8,-134.01 492.85,-139.72"/>
</a>
</g>
</g>
<!-- Node26 -->
<g id="Node000026" class="node">
<title>Node26</title>
<g id="a_Node000026"><a xlink:title=" ">
<polygon fill="#e0e0e0" stroke="#999999" points="638.12,-129.75 553.88,-129.75 553.88,-110.5 638.12,-110.5 638.12,-129.75"/>
<text text-anchor="middle" x="596" y="-116.25" font-family="Helvetica,sans-Serif" font-size="10.00">source_location</text>
</a>
</g>
</g>
<!-- Node22&#45;&gt;Node26 -->
<g id="edge36_Node000022_Node000026" class="edge">
<title>Node22&#45;&gt;Node26</title>
<g id="a_edge36_Node000022_Node000026"><a xlink:title=" ">
<path fill="none" stroke="#63b8ff" d="M464.8,-165.34C490.45,-156.7 529.39,-143.57 558.19,-133.87"/>
<polygon fill="#63b8ff" stroke="#63b8ff" points="559.27,-137.2 567.63,-130.69 557.04,-130.56 559.27,-137.2"/>
</a>
</g>
</g>
<!-- Node27 -->
<g id="Node000027" class="node">
<title>Node27</title>
<g id="a_Node000027"><a xlink:title=" ">
<polygon fill="#e0e0e0" stroke="#999999" points="313.88,-129.75 252.12,-129.75 252.12,-110.5 313.88,-110.5 313.88,-129.75"/>
<text text-anchor="middle" x="283" y="-116.25" font-family="Helvetica,sans-Serif" font-size="10.00">fmt/color.h</text>
</a>
</g>
</g>
<!-- Node22&#45;&gt;Node27 -->
<g id="edge39_Node000022_Node000027" class="edge">
<title>Node22&#45;&gt;Node27</title>
<g id="a_edge39_Node000022_Node000027"><a xlink:title=" ">
<path fill="none" stroke="#63b8ff" d="M411.71,-165.34C386.54,-156.7 348.35,-143.57 320.09,-133.87"/>
<polygon fill="#63b8ff" stroke="#63b8ff" points="321.45,-130.63 310.85,-130.69 319.17,-137.25 321.45,-130.63"/>
</a>
</g>
</g>
</g>
</svg>

<g id="navigator" transform="translate(0 0)" fill="#404254">
  <rect fill="#f2f5e9" fill-opacity="0.5" stroke="#606060" stroke-width=".5" x="0" y="0" width="60" height="60"/>
  <use id="zoomplus" xlink:href="#zoomPlus" x="17" y="9" onmousedown="handleZoom(evt,'in')"/>
  <use id="zoomminus" xlink:href="#zoomMin" x="42" y="9" onmousedown="handleZoom(evt,'out')"/>
  <use id="reset" xlink:href="#resetDef" x="30" y="36" onmousedown="handleReset()"/>
   <use id="arrowup" xlink:href="#arrowUp" x="0" y="0" onmousedown="handlePan(0,-1)"/>
  <use id="arrowright" xlink:href="#arrowRight" x="0" y="0" onmousedown="handlePan(1,0)"/>
  <use id="arrowdown" xlink:href="#arrowDown" x="0" y="0" onmousedown="handlePan(0,1)"/>
  <use id="arrowleft" xlink:href="#arrowLeft" x="0" y="0" onmousedown="handlePan(-1,0)"/>
</g>
<svg viewBox="0 0 15 15" width="100%" height="30px" preserveAspectRatio="xMaxYMin meet">
 <g id="arrow_out" transform="scale(0.3 0.3)">
  <a xlink:href="Optimizer_8hpp__incl_org.svg" target="_base">
   <rect id="button" ry="5" rx="5" y="6" x="6" height="38" width="38"
        fill="#f2f5e9" fill-opacity="0.5" stroke="#606060" stroke-width="1.0"/>
   <path id="arrow"
     d="M 11.500037,31.436501 C 11.940474,20.09759 22.043105,11.32322 32.158766,21.979434 L 37.068811,17.246167 C 37.068811,17.246167 37.088388,32 37.088388,32 L 22.160133,31.978069 C 22.160133,31.978069 26.997745,27.140456 26.997745,27.140456 C 18.528582,18.264221 13.291696,25.230495 11.500037,31.436501 z"
     style="fill:#404040;"/>
  </a>
 </g>
</svg>

<style type='text/css'>
<![CDATA[
[data-mouse-over-selected='false'] { opacity: 0.7; }
[data-mouse-over-selected='true']  { opacity: 1.0; }
]]>
</style>
<script type="application/ecmascript"><![CDATA[
document.addEventListener('DOMContentLoaded', (event) => {
  highlightEdges();
  highlightAdjacentNodes();
});
]]></script>
</svg>
