<?xml version="1.0" encoding="UTF-8" standalone="no"?>
<!DOCTYPE svg PUBLIC "-//W3C//DTD SVG 1.1//EN"
 "http://www.w3.org/Graphics/SVG/1.1/DTD/svg11.dtd">
<!-- Generated by graphviz version 12.2.0 (20241103.1931)
 -->
<!-- Title: /Users/fola/Documents/ArkScript/Ark/include/Ark/Compiler/AST/Optimizer.hpp Pages: 1 -->
<svg width="1414pt" height="271pt"
 viewBox="0.00 0.00 1414.12 270.75" xmlns="http://www.w3.org/2000/svg" xmlns:xlink="http://www.w3.org/1999/xlink">
<g id="graph0" class="graph" transform="scale(1 1) rotate(0) translate(4 266.75)">
<title>/Users/fola/Documents/ArkScript/Ark/include/Ark/Compiler/AST/Optimizer.hpp</title>
<!-- Node1 -->
<g id="Node000001" class="node">
<title>Node1</title>
<g id="a_Node000001"><a xlink:title="Optimizes a given ArkScript AST.">
<polygon fill="#999999" stroke="#666666" points="521.12,-262.75 359.62,-262.75 359.62,-221 521.12,-221 521.12,-262.75"/>
<text text-anchor="start" x="367.62" y="-249.25" font-family="Helvetica,sans-Serif" font-size="10.00">/Users/fola/Documents</text>
<text text-anchor="start" x="367.62" y="-238" font-family="Helvetica,sans-Serif" font-size="10.00">/ArkScript/Ark/include</text>
<text text-anchor="middle" x="440.38" y="-226.75" font-family="Helvetica,sans-Serif" font-size="10.00">/Ark/Compiler/AST/Optimizer.hpp</text>
</a>
</g>
</g>
<!-- Node2 -->
<g id="Node000002" class="node">
<title>Node2</title>
<g id="a_Node000002"><a xlink:title=" ">
<polygon fill="#e0e0e0" stroke="#999999" points="280.38,-185 222.38,-185 222.38,-165.75 280.38,-165.75 280.38,-185"/>
<text text-anchor="middle" x="251.38" y="-171.5" font-family="Helvetica,sans-Serif" font-size="10.00">functional</text>
</a>
</g>
</g>
<!-- Node1&#45;&gt;Node2 -->
<g id="edge1_Node000001_Node000002" class="edge">
<title>Node1&#45;&gt;Node2</title>
<g id="a_edge1_Node000001_Node000002"><a xlink:title=" ">
<path fill="none" stroke="#63b8ff" d="M380.83,-220.56C350.63,-210.25 314.88,-198.05 288.61,-189.08"/>
<polygon fill="#63b8ff" stroke="#63b8ff" points="290.01,-185.86 279.41,-185.94 287.74,-192.49 290.01,-185.86"/>
</a>
</g>
</g>
<!-- Node3 -->
<g id="Node000003" class="node">
<title>Node3</title>
<g id="a_Node000003"><a xlink:title=" ">
<polygon fill="#e0e0e0" stroke="#999999" points="82.75,-74.5 0,-74.5 0,-55.25 82.75,-55.25 82.75,-74.5"/>
<text text-anchor="middle" x="41.38" y="-61" font-family="Helvetica,sans-Serif" font-size="10.00">unordered_map</text>
</a>
</g>
</g>
<!-- Node1&#45;&gt;Node3 -->
<g id="edge2_Node000001_Node000003" class="edge">
<title>Node1&#45;&gt;Node3</title>
<g id="a_edge2_Node000001_Node000003"><a xlink:title=" ">
<path fill="none" stroke="#63b8ff" d="M401.67,-220.57C371.4,-204.94 328.1,-183.15 289.38,-165.75 214.35,-132.04 124.37,-97.15 76.08,-78.86"/>
<polygon fill="#63b8ff" stroke="#63b8ff" points="77.59,-75.69 67,-75.43 75.12,-82.24 77.59,-75.69"/>
</a>
</g>
</g>
<!-- Node4 -->
<g id="Node000004" class="node">
<title>Node4</title>
<g id="a_Node000004"><a xlink:title=" ">
<polygon fill="#e0e0e0" stroke="#999999" points="807.38,-74.5 767.38,-74.5 767.38,-55.25 807.38,-55.25 807.38,-74.5"/>
<text text-anchor="middle" x="787.38" y="-61" font-family="Helvetica,sans-Serif" font-size="10.00">string</text>
</a>
</g>
</g>
<!-- Node1&#45;&gt;Node4 -->
<g id="edge3_Node000001_Node000004" class="edge">
<title>Node1&#45;&gt;Node4</title>
<g id="a_edge3_Node000001_Node000004"><a xlink:title=" ">
<path fill="none" stroke="#63b8ff" d="M505.71,-220.55C523.25,-212.14 540.59,-200.61 552.38,-185 572.68,-158.12 542.71,-134.48 566.38,-110.5 579.59,-97.1 697.68,-78.65 755.61,-70.3"/>
<polygon fill="#63b8ff" stroke="#63b8ff" points="756.09,-73.76 765.5,-68.89 755.1,-66.83 756.09,-73.76"/>
</a>
</g>
</g>
<!-- Node5 -->
<g id="Node000005" class="node">
<title>Node5</title>
<g id="a_Node000005"><a xlink:href="../../d5/d40/Platform_8hpp.html" target="_top" xlink:title="ArkScript configuration macros.">
<polygon fill="white" stroke="#666666" points="712.75,-74.5 600,-74.5 600,-55.25 712.75,-55.25 712.75,-74.5"/>
<text text-anchor="middle" x="656.38" y="-61" font-family="Helvetica,sans-Serif" font-size="10.00">Ark/Utils/Platform.hpp</text>
</a>
</g>
</g>
<!-- Node1&#45;&gt;Node5 -->
<g id="edge4_Node000001_Node000005" class="edge">
<title>Node1&#45;&gt;Node5</title>
<g id="a_edge4_Node000001_Node000005"><a xlink:title=" ">
<path fill="none" stroke="#63b8ff" d="M425.39,-220.79C415.65,-205.1 406.45,-183.1 416.38,-165.75 436.46,-130.64 546.07,-95.74 610,-77.96"/>
<polygon fill="#63b8ff" stroke="#63b8ff" points="610.81,-81.37 619.53,-75.35 608.96,-74.62 610.81,-81.37"/>
</a>
</g>
</g>
<!-- Node6 -->
<g id="Node000006" class="node">
<title>Node6</title>
<g id="a_Node000006"><a xlink:href="../../df/d5f/Pass_8hpp.html" target="_top" xlink:title="Interface for a compiler pass.">
<polygon fill="white" stroke="#666666" points="543,-185 425.75,-185 425.75,-165.75 543,-165.75 543,-185"/>
<text text-anchor="middle" x="484.38" y="-171.5" font-family="Helvetica,sans-Serif" font-size="10.00">Ark/Compiler/Pass.hpp</text>
</a>
</g>
</g>
<!-- Node1&#45;&gt;Node6 -->
<g id="edge5_Node000001_Node000006" class="edge">
<title>Node1&#45;&gt;Node6</title>
<g id="a_edge5_Node000001_Node000006"><a xlink:title=" ">
<path fill="none" stroke="#63b8ff" d="M454.06,-220.82C459.73,-212.5 466.27,-202.91 471.83,-194.77"/>
<polygon fill="#63b8ff" stroke="#63b8ff" points="474.59,-196.93 477.33,-186.7 468.81,-192.98 474.59,-196.93"/>
</a>
</g>
</g>
<!-- Node16 -->
<g id="Node000016" class="node">
<title>Node16</title>
<g id="a_Node000016"><a xlink:href="../../d7/dc6/Node_8hpp.html" target="_top" xlink:title="AST node used by the parser, optimizer and compiler.">
<polygon fill="white" stroke="#666666" points="918.62,-185 778.12,-185 778.12,-165.75 918.62,-165.75 918.62,-185"/>
<text text-anchor="middle" x="848.38" y="-171.5" font-family="Helvetica,sans-Serif" font-size="10.00">Ark/Compiler/AST/Node.hpp</text>
</a>
</g>
</g>
<!-- Node1&#45;&gt;Node16 -->
<g id="edge19_Node000001_Node000016" class="edge">
<title>Node1&#45;&gt;Node16</title>
<g id="a_edge19_Node000001_Node000016"><a xlink:title=" ">
<path fill="none" stroke="#63b8ff" d="M521.47,-228.05C597.02,-216.11 708.43,-198.5 779.7,-187.23"/>
<polygon fill="#63b8ff" stroke="#63b8ff" points="779.96,-190.73 789.29,-185.72 778.86,-183.82 779.96,-190.73"/>
</a>
</g>
</g>
<!-- Node6&#45;&gt;Node5 -->
<g id="edge6_Node000006_Node000005" class="edge">
<title>Node6&#45;&gt;Node5</title>
<g id="a_edge6_Node000006_Node000005"><a xlink:title=" ">
<path fill="none" stroke="#63b8ff" d="M488.9,-165.67C496.39,-152.05 512.63,-125.7 533.38,-110.5 553.85,-95.5 579.88,-85.1 602.71,-78.13"/>
<polygon fill="#63b8ff" stroke="#63b8ff" points="603.54,-81.54 612.18,-75.4 601.6,-74.81 603.54,-81.54"/>
</a>
</g>
</g>
<!-- Node7 -->
<g id="Node000007" class="node">
<title>Node7</title>
<g id="a_Node000007"><a xlink:href="../../d9/d11/Logger_8hpp.html" target="_top" xlink:title="Internal logger.">
<polygon fill="white" stroke="#666666" points="440.62,-129.75 336.12,-129.75 336.12,-110.5 440.62,-110.5 440.62,-129.75"/>
<text text-anchor="middle" x="388.38" y="-116.25" font-family="Helvetica,sans-Serif" font-size="10.00">Ark/Utils/Logger.hpp</text>
</a>
</g>
</g>
<!-- Node6&#45;&gt;Node7 -->
<g id="edge7_Node000006_Node000007" class="edge">
<title>Node6&#45;&gt;Node7</title>
<g id="a_edge7_Node000006_Node000007"><a xlink:title=" ">
<path fill="none" stroke="#63b8ff" d="M468.09,-165.34C453.47,-157.23 431.75,-145.18 414.67,-135.71"/>
<polygon fill="#63b8ff" stroke="#63b8ff" points="416.51,-132.73 406.06,-130.94 413.11,-138.85 416.51,-132.73"/>
</a>
</g>
</g>
<!-- Node15 -->
<g id="Node000015" class="node">
<title>Node15</title>
<g id="a_Node000015"><a xlink:title=" ">
<polygon fill="#e0e0e0" stroke="#999999" points="627,-129.75 575.75,-129.75 575.75,-110.5 627,-110.5 627,-129.75"/>
<text text-anchor="middle" x="601.38" y="-116.25" font-family="Helvetica,sans-Serif" font-size="10.00">ostream</text>
</a>
</g>
</g>
<!-- Node6&#45;&gt;Node15 -->
<g id="edge18_Node000006_Node000015" class="edge">
<title>Node6&#45;&gt;Node15</title>
<g id="a_edge18_Node000006_Node000015"><a xlink:title=" ">
<path fill="none" stroke="#63b8ff" d="M504.22,-165.34C522.54,-157 550.02,-144.5 571.08,-134.91"/>
<polygon fill="#63b8ff" stroke="#63b8ff" points="572.4,-138.16 580.05,-130.83 569.5,-131.79 572.4,-138.16"/>
</a>
</g>
</g>
<!-- Node7&#45;&gt;Node3 -->
<g id="edge16_Node000007_Node000003" class="edge">
<title>Node7&#45;&gt;Node3</title>
<g id="a_edge16_Node000007_Node000003"><a xlink:title=" ">
<path fill="none" stroke="#63b8ff" d="M335.66,-111.47C278.8,-103.15 185.3,-89.27 94.46,-74.81"/>
<polygon fill="#63b8ff" stroke="#63b8ff" points="95.03,-71.36 84.61,-73.23 93.93,-78.27 95.03,-71.36"/>
</a>
</g>
</g>
<!-- Node7&#45;&gt;Node4 -->
<g id="edge12_Node000007_Node000004" class="edge">
<title>Node7&#45;&gt;Node4</title>
<g id="a_edge12_Node000007_Node000004"><a xlink:title=" ">
<path fill="none" stroke="#63b8ff" d="M440.95,-112.11C524.99,-100.89 687.1,-79.26 755.59,-70.12"/>
<polygon fill="#63b8ff" stroke="#63b8ff" points="755.93,-73.6 765.38,-68.81 755,-66.66 755.93,-73.6"/>
</a>
</g>
</g>
<!-- Node7&#45;&gt;Node5 -->
<g id="edge17_Node000007_Node000005" class="edge">
<title>Node7&#45;&gt;Node5</title>
<g id="a_edge17_Node000007_Node000005"><a xlink:title=" ">
<path fill="none" stroke="#63b8ff" d="M434.14,-110.03C479.91,-100.94 550.4,-86.93 599.69,-77.14"/>
<polygon fill="#63b8ff" stroke="#63b8ff" points="600.19,-80.61 609.31,-75.23 598.82,-73.74 600.19,-80.61"/>
</a>
</g>
</g>
<!-- Node8 -->
<g id="Node000008" class="node">
<title>Node8</title>
<g id="a_Node000008"><a xlink:title=" ">
<polygon fill="#e0e0e0" stroke="#999999" points="415.12,-74.5 361.62,-74.5 361.62,-55.25 415.12,-55.25 415.12,-74.5"/>
<text text-anchor="middle" x="388.38" y="-61" font-family="Helvetica,sans-Serif" font-size="10.00">iostream</text>
</a>
</g>
</g>
<!-- Node7&#45;&gt;Node8 -->
<g id="edge8_Node000007_Node000008" class="edge">
<title>Node7&#45;&gt;Node8</title>
<g id="a_edge8_Node000007_Node000008"><a xlink:title=" ">
<path fill="none" stroke="#63b8ff" d="M388.38,-110.33C388.38,-103.82 388.38,-94.67 388.38,-86.37"/>
<polygon fill="#63b8ff" stroke="#63b8ff" points="391.88,-86.37 388.38,-76.37 384.88,-86.37 391.88,-86.37"/>
</a>
</g>
</g>
<!-- Node9 -->
<g id="Node000009" class="node">
<title>Node9</title>
<g id="a_Node000009"><a xlink:title=" ">
<polygon fill="#e0e0e0" stroke="#999999" points="502,-74.5 432.75,-74.5 432.75,-55.25 502,-55.25 502,-74.5"/>
<text text-anchor="middle" x="467.38" y="-61" font-family="Helvetica,sans-Serif" font-size="10.00">fmt/format.h</text>
</a>
</g>
</g>
<!-- Node7&#45;&gt;Node9 -->
<g id="edge9_Node000007_Node000009" class="edge">
<title>Node7&#45;&gt;Node9</title>
<g id="a_edge9_Node000007_Node000009"><a xlink:title=" ">
<path fill="none" stroke="#63b8ff" d="M401.78,-110.09C413.47,-102.21 430.68,-90.61 444.54,-81.27"/>
<polygon fill="#63b8ff" stroke="#63b8ff" points="446.32,-84.29 452.65,-75.8 442.4,-78.49 446.32,-84.29"/>
</a>
</g>
</g>
<!-- Node10 -->
<g id="Node000010" class="node">
<title>Node10</title>
<g id="a_Node000010"><a xlink:title=" ">
<polygon fill="#e0e0e0" stroke="#999999" points="582.25,-74.5 520.5,-74.5 520.5,-55.25 582.25,-55.25 582.25,-74.5"/>
<text text-anchor="middle" x="551.38" y="-61" font-family="Helvetica,sans-Serif" font-size="10.00">fmt/color.h</text>
</a>
</g>
</g>
<!-- Node7&#45;&gt;Node10 -->
<g id="edge10_Node000007_Node000010" class="edge">
<title>Node7&#45;&gt;Node10</title>
<g id="a_edge10_Node000007_Node000010"><a xlink:title=" ">
<path fill="none" stroke="#63b8ff" d="M416.03,-110.09C442.6,-101.41 483.01,-88.21 512.76,-78.49"/>
<polygon fill="#63b8ff" stroke="#63b8ff" points="513.73,-81.85 522.15,-75.42 511.56,-75.2 513.73,-81.85"/>
</a>
</g>
</g>
<!-- Node11 -->
<g id="Node000011" class="node">
<title>Node11</title>
<g id="a_Node000011"><a xlink:title=" ">
<polygon fill="#e0e0e0" stroke="#999999" points="177.75,-74.5 101,-74.5 101,-55.25 177.75,-55.25 177.75,-74.5"/>
<text text-anchor="middle" x="139.38" y="-61" font-family="Helvetica,sans-Serif" font-size="10.00">fmt/ostream.h</text>
</a>
</g>
</g>
<!-- Node7&#45;&gt;Node11 -->
<g id="edge11_Node000007_Node000011" class="edge">
<title>Node7&#45;&gt;Node11</title>
<g id="a_edge11_Node000007_Node000011"><a xlink:title=" ">
<path fill="none" stroke="#63b8ff" d="M345.85,-110.03C302.44,-100.75 235.1,-86.35 189.21,-76.53"/>
<polygon fill="#63b8ff" stroke="#63b8ff" points="190.03,-73.13 179.52,-74.46 188.56,-79.97 190.03,-73.13"/>
</a>
</g>
</g>
<!-- Node12 -->
<g id="Node000012" class="node">
<title>Node12</title>
<g id="a_Node000012"><a xlink:title=" ">
<polygon fill="#e0e0e0" stroke="#999999" points="241,-74.5 195.75,-74.5 195.75,-55.25 241,-55.25 241,-74.5"/>
<text text-anchor="middle" x="218.38" y="-61" font-family="Helvetica,sans-Serif" font-size="10.00">chrono</text>
</a>
</g>
</g>
<!-- Node7&#45;&gt;Node12 -->
<g id="edge13_Node000007_Node000012" class="edge">
<title>Node7&#45;&gt;Node12</title>
<g id="a_edge13_Node000007_Node000012"><a xlink:title=" ">
<path fill="none" stroke="#63b8ff" d="M359.54,-110.09C329.84,-100.79 283.59,-86.3 252.18,-76.47"/>
<polygon fill="#63b8ff" stroke="#63b8ff" points="253.38,-73.17 242.79,-73.52 251.29,-79.85 253.38,-73.17"/>
</a>
</g>
</g>
<!-- Node13 -->
<g id="Node000013" class="node">
<title>Node13</title>
<g id="a_Node000013"><a xlink:title=" ">
<polygon fill="#e0e0e0" stroke="#999999" points="343.5,-74.5 259.25,-74.5 259.25,-55.25 343.5,-55.25 343.5,-74.5"/>
<text text-anchor="middle" x="301.38" y="-61" font-family="Helvetica,sans-Serif" font-size="10.00">source_location</text>
</a>
</g>
</g>
<!-- Node7&#45;&gt;Node13 -->
<g id="edge14_Node000007_Node000013" class="edge">
<title>Node7&#45;&gt;Node13</title>
<g id="a_edge14_Node000007_Node000013"><a xlink:title=" ">
<path fill="none" stroke="#63b8ff" d="M373.62,-110.09C360.49,-102.06 341.05,-90.16 325.64,-80.73"/>
<polygon fill="#63b8ff" stroke="#63b8ff" points="327.85,-77.98 317.5,-75.74 324.2,-83.95 327.85,-77.98"/>
</a>
</g>
</g>
<!-- Node14 -->
<g id="Node000014" class="node">
<title>Node14</title>
<g id="a_Node000014"><a xlink:title=" ">
<polygon fill="#e0e0e0" stroke="#999999" points="1128.88,-74.5 1085.88,-74.5 1085.88,-55.25 1128.88,-55.25 1128.88,-74.5"/>
<text text-anchor="middle" x="1107.38" y="-61" font-family="Helvetica,sans-Serif" font-size="10.00">vector</text>
</a>
</g>
</g>
<!-- Node7&#45;&gt;Node14 -->
<g id="edge15_Node000007_Node000014" class="edge">
<title>Node7&#45;&gt;Node14</title>
<g id="a_edge15_Node000007_Node000014"><a xlink:title=" ">
<path fill="none" stroke="#63b8ff" d="M441.06,-116.25C590.72,-108.01 1011.61,-84.26 1073.38,-74.5 1073.75,-74.44 1074.12,-74.38 1074.5,-74.32"/>
<polygon fill="#63b8ff" stroke="#63b8ff" points="1074.98,-77.79 1084.07,-72.34 1073.57,-70.94 1074.98,-77.79"/>
</a>
</g>
</g>
<!-- Node16&#45;&gt;Node4 -->
<g id="edge22_Node000016_Node000004" class="edge">
<title>Node16&#45;&gt;Node4</title>
<g id="a_edge22_Node000016_Node000004"><a xlink:title=" ">
<path fill="none" stroke="#63b8ff" d="M843.38,-165.5C833.51,-147.93 811.29,-108.41 798,-84.77"/>
<polygon fill="#63b8ff" stroke="#63b8ff" points="801.13,-83.2 793.18,-76.2 795.03,-86.63 801.13,-83.2"/>
</a>
</g>
</g>
<!-- Node16&#45;&gt;Node5 -->
<g id="edge39_Node000016_Node000005" class="edge">
<title>Node16&#45;&gt;Node5</title>
<g id="a_edge39_Node000016_Node000005"><a xlink:title=" ">
<path fill="none" stroke="#63b8ff" d="M777.64,-172.35C742.39,-167.71 701.59,-156.33 674.38,-129.75 662.76,-118.41 658.48,-100.21 656.98,-86.13"/>
<polygon fill="#63b8ff" stroke="#63b8ff" points="660.47,-85.94 656.34,-76.19 653.49,-86.39 660.47,-85.94"/>
</a>
</g>
</g>
<!-- Node16&#45;&gt;Node14 -->
<g id="edge23_Node000016_Node000014" class="edge">
<title>Node16&#45;&gt;Node14</title>
<g id="a_edge23_Node000016_Node000014"><a xlink:title=" ">
<path fill="none" stroke="#63b8ff" d="M919.02,-173.38C994.03,-170.65 1105.45,-161.23 1132.38,-129.75 1143.82,-116.37 1133.7,-97.13 1123.11,-83.27"/>
<polygon fill="#63b8ff" stroke="#63b8ff" points="1126.02,-81.29 1116.93,-75.84 1120.63,-85.76 1126.02,-81.29"/>
</a>
</g>
</g>
<!-- Node16&#45;&gt;Node15 -->
<g id="edge21_Node000016_Node000015" class="edge">
<title>Node16&#45;&gt;Node15</title>
<g id="a_edge21_Node000016_Node000015"><a xlink:title=" ">
<path fill="none" stroke="#63b8ff" d="M806.19,-165.28C759.04,-155.12 683.42,-138.81 638.45,-129.12"/>
<polygon fill="#63b8ff" stroke="#63b8ff" points="639.44,-125.75 628.92,-127.06 637.96,-132.59 639.44,-125.75"/>
</a>
</g>
</g>
<!-- Node17 -->
<g id="Node000017" class="node">
<title>Node17</title>
<g id="a_Node000017"><a xlink:title=" ">
<polygon fill="#e0e0e0" stroke="#999999" points="897,-129.75 851.75,-129.75 851.75,-110.5 897,-110.5 897,-129.75"/>
<text text-anchor="middle" x="874.38" y="-116.25" font-family="Helvetica,sans-Serif" font-size="10.00">variant</text>
</a>
</g>
</g>
<!-- Node16&#45;&gt;Node17 -->
<g id="edge20_Node000016_Node000017" class="edge">
<title>Node16&#45;&gt;Node17</title>
<g id="a_edge20_Node000016_Node000017"><a xlink:title=" ">
<path fill="none" stroke="#63b8ff" d="M852.67,-165.58C856,-158.76 860.74,-149.06 864.94,-140.45"/>
<polygon fill="#63b8ff" stroke="#63b8ff" points="868.08,-141.99 869.32,-131.47 861.79,-138.92 868.08,-141.99"/>
</a>
</g>
</g>
<!-- Node18 -->
<g id="Node000018" class="node">
<title>Node18</title>
<g id="a_Node000018"><a xlink:title=" ">
<polygon fill="#e0e0e0" stroke="#999999" points="913.25,-74.5 863.5,-74.5 863.5,-55.25 913.25,-55.25 913.25,-74.5"/>
<text text-anchor="middle" x="888.38" y="-61" font-family="Helvetica,sans-Serif" font-size="10.00">optional</text>
</a>
</g>
</g>
<!-- Node16&#45;&gt;Node18 -->
<g id="edge24_Node000016_Node000018" class="edge">
<title>Node16&#45;&gt;Node18</title>
<g id="a_edge24_Node000016_Node000018"><a xlink:title=" ">
<path fill="none" stroke="#63b8ff" d="M867.9,-165.34C881.43,-157.9 898.41,-145.94 906.38,-129.75 913.45,-115.38 907.53,-97.77 900.64,-84.68"/>
<polygon fill="#63b8ff" stroke="#63b8ff" points="903.75,-83.07 895.66,-76.23 897.72,-86.62 903.75,-83.07"/>
</a>
</g>
</g>
<!-- Node19 -->
<g id="Node000019" class="node">
<title>Node19</title>
<g id="a_Node000019"><a xlink:href="../../da/d33/Namespace_8hpp.html" target="_top" xlink:title=" ">
<polygon fill="white" stroke="#666666" points="1123.25,-129.75 953.5,-129.75 953.5,-110.5 1123.25,-110.5 1123.25,-129.75"/>
<text text-anchor="middle" x="1038.38" y="-116.25" font-family="Helvetica,sans-Serif" font-size="10.00">Ark/Compiler/AST/Namespace.hpp</text>
</a>
</g>
</g>
<!-- Node16&#45;&gt;Node19 -->
<g id="edge25_Node000016_Node000019" class="edge">
<title>Node16&#45;&gt;Node19</title>
<g id="a_edge25_Node000016_Node000019"><a xlink:title=" ">
<path fill="none" stroke="#63b8ff" d="M880.61,-165.34C912.13,-156.51 960.35,-142.99 995.19,-133.23"/>
<polygon fill="#63b8ff" stroke="#63b8ff" points="995.84,-136.68 1004.53,-130.61 993.96,-129.94 995.84,-136.68"/>
</a>
</g>
</g>
<!-- Node21 -->
<g id="Node000021" class="node">
<title>Node21</title>
<g id="a_Node000021"><a xlink:href="../../d8/ddd/Common_8hpp.html" target="_top" xlink:title="Common code for the compiler.">
<polygon fill="white" stroke="#666666" points="1313.62,-129.75 1179.12,-129.75 1179.12,-110.5 1313.62,-110.5 1313.62,-129.75"/>
<text text-anchor="middle" x="1246.38" y="-116.25" font-family="Helvetica,sans-Serif" font-size="10.00">Ark/Compiler/Common.hpp</text>
</a>
</g>
</g>
<!-- Node16&#45;&gt;Node21 -->
<g id="edge29_Node000016_Node000021" class="edge">
<title>Node16&#45;&gt;Node21</title>
<g id="a_edge29_Node000016_Node000021"><a xlink:title=" ">
<path fill="none" stroke="#63b8ff" d="M916.34,-165.28C986.03,-155.96 1094.31,-141.47 1167.68,-131.65"/>
<polygon fill="#63b8ff" stroke="#63b8ff" points="1167.74,-135.18 1177.19,-130.38 1166.81,-128.24 1167.74,-135.18"/>
</a>
</g>
</g>
<!-- Node28 -->
<g id="Node000028" class="node">
<title>Node28</title>
<g id="a_Node000028"><a xlink:href="../../dc/d58/Position_8hpp.html" target="_top" xlink:title="Defines position utilities (for text in a file) for the parser, formatter, diagnostics.">
<polygon fill="white" stroke="#666666" points="795,-129.75 683.75,-129.75 683.75,-110.5 795,-110.5 795,-129.75"/>
<text text-anchor="middle" x="739.38" y="-116.25" font-family="Helvetica,sans-Serif" font-size="10.00">Ark/Utils/Position.hpp</text>
</a>
</g>
</g>
<!-- Node16&#45;&gt;Node28 -->
<g id="edge40_Node000016_Node000028" class="edge">
<title>Node16&#45;&gt;Node28</title>
<g id="a_edge40_Node000016_Node000028"><a xlink:title=" ">
<path fill="none" stroke="#63b8ff" d="M829.88,-165.34C812.97,-157.08 787.69,-144.73 768.14,-135.18"/>
<polygon fill="#63b8ff" stroke="#63b8ff" points="769.84,-132.11 759.32,-130.87 766.76,-138.4 769.84,-132.11"/>
</a>
</g>
</g>
<!-- Node19&#45;&gt;Node4 -->
<g id="edge26_Node000019_Node000004" class="edge">
<title>Node19&#45;&gt;Node4</title>
<g id="a_edge26_Node000019_Node000004"><a xlink:title=" ">
<path fill="none" stroke="#63b8ff" d="M995.51,-110.03C945.26,-99.37 863.18,-81.96 818.59,-72.5"/>
<polygon fill="#63b8ff" stroke="#63b8ff" points="819.57,-69.13 809.06,-70.48 818.12,-75.98 819.57,-69.13"/>
</a>
</g>
</g>
<!-- Node19&#45;&gt;Node14 -->
<g id="edge27_Node000019_Node000014" class="edge">
<title>Node19&#45;&gt;Node14</title>
<g id="a_edge27_Node000019_Node000014"><a xlink:title=" ">
<path fill="none" stroke="#63b8ff" d="M1050.08,-110.09C1060.15,-102.32 1074.92,-90.92 1086.94,-81.65"/>
<polygon fill="#63b8ff" stroke="#63b8ff" points="1088.87,-84.58 1094.64,-75.7 1084.59,-79.04 1088.87,-84.58"/>
</a>
</g>
</g>
<!-- Node20 -->
<g id="Node000020" class="node">
<title>Node20</title>
<g id="a_Node000020"><a xlink:title=" ">
<polygon fill="#e0e0e0" stroke="#999999" points="1064,-74.5 1012.75,-74.5 1012.75,-55.25 1064,-55.25 1064,-74.5"/>
<text text-anchor="middle" x="1038.38" y="-61" font-family="Helvetica,sans-Serif" font-size="10.00">memory</text>
</a>
</g>
</g>
<!-- Node19&#45;&gt;Node20 -->
<g id="edge28_Node000019_Node000020" class="edge">
<title>Node19&#45;&gt;Node20</title>
<g id="a_edge28_Node000019_Node000020"><a xlink:title=" ">
<path fill="none" stroke="#63b8ff" d="M1038.38,-110.33C1038.38,-103.82 1038.38,-94.67 1038.38,-86.37"/>
<polygon fill="#63b8ff" stroke="#63b8ff" points="1041.88,-86.37 1038.38,-76.37 1034.88,-86.37 1041.88,-86.37"/>
</a>
</g>
</g>
<!-- Node21&#45;&gt;Node14 -->
<g id="edge32_Node000021_Node000014" class="edge">
<title>Node21&#45;&gt;Node14</title>
<g id="a_edge32_Node000021_Node000014"><a xlink:title=" ">
<path fill="none" stroke="#63b8ff" d="M1222.8,-110.09C1199.99,-101.36 1165.25,-88.04 1139.83,-78.31"/>
<polygon fill="#63b8ff" stroke="#63b8ff" points="1141.24,-75.1 1130.65,-74.79 1138.73,-81.64 1141.24,-75.1"/>
</a>
</g>
</g>
<!-- Node22 -->
<g id="Node000022" class="node">
<title>Node22</title>
<g id="a_Node000022"><a xlink:title=" ">
<polygon fill="#e0e0e0" stroke="#999999" points="1347.25,-74.5 1309.5,-74.5 1309.5,-55.25 1347.25,-55.25 1347.25,-74.5"/>
<text text-anchor="middle" x="1328.38" y="-61" font-family="Helvetica,sans-Serif" font-size="10.00">array</text>
</a>
</g>
</g>
<!-- Node21&#45;&gt;Node22 -->
<g id="edge30_Node000021_Node000022" class="edge">
<title>Node21&#45;&gt;Node22</title>
<g id="a_edge30_Node000021_Node000022"><a xlink:title=" ">
<path fill="none" stroke="#63b8ff" d="M1260.29,-110.09C1272.54,-102.14 1290.63,-90.39 1305.09,-81"/>
<polygon fill="#63b8ff" stroke="#63b8ff" points="1306.65,-84.16 1313.13,-75.78 1302.83,-78.29 1306.65,-84.16"/>
</a>
</g>
</g>
<!-- Node23 -->
<g id="Node000023" class="node">
<title>Node23</title>
<g id="a_Node000023"><a xlink:title=" ">
<polygon fill="#e0e0e0" stroke="#999999" points="1406.12,-19.25 1340.62,-19.25 1340.62,0 1406.12,0 1406.12,-19.25"/>
<text text-anchor="middle" x="1373.38" y="-5.75" font-family="Helvetica,sans-Serif" font-size="10.00">string_view</text>
</a>
</g>
</g>
<!-- Node21&#45;&gt;Node23 -->
<g id="edge31_Node000021_Node000023" class="edge">
<title>Node21&#45;&gt;Node23</title>
<g id="a_edge31_Node000021_Node000023"><a xlink:title=" ">
<path fill="none" stroke="#63b8ff" d="M1294.06,-110.02C1315.87,-103.55 1340.36,-92.66 1356.38,-74.5 1366.95,-62.51 1371.05,-44.65 1372.59,-30.86"/>
<polygon fill="#63b8ff" stroke="#63b8ff" points="1376.06,-31.36 1373.29,-21.13 1369.08,-30.86 1376.06,-31.36"/>
</a>
</g>
</g>
<!-- Node24 -->
<g id="Node000024" class="node">
<title>Node24</title>
<g id="a_Node000024"><a xlink:title=" ">
<polygon fill="#e0e0e0" stroke="#999999" points="1196.25,-19.25 1140.5,-19.25 1140.5,0 1196.25,0 1196.25,-19.25"/>
<text text-anchor="middle" x="1168.38" y="-5.75" font-family="Helvetica,sans-Serif" font-size="10.00">cinttypes</text>
</a>
</g>
</g>
<!-- Node21&#45;&gt;Node24 -->
<g id="edge33_Node000021_Node000024" class="edge">
<title>Node21&#45;&gt;Node24</title>
<g id="a_edge33_Node000021_Node000024"><a xlink:title=" ">
<path fill="none" stroke="#63b8ff" d="M1227.31,-110.05C1213.37,-102.45 1195.1,-90.3 1184.38,-74.5 1175.62,-61.6 1171.65,-44.31 1169.86,-30.97"/>
<polygon fill="#63b8ff" stroke="#63b8ff" points="1173.35,-30.77 1168.87,-21.17 1166.39,-31.48 1173.35,-30.77"/>
</a>
</g>
</g>
<!-- Node25 -->
<g id="Node000025" class="node">
<title>Node25</title>
<g id="a_Node000025"><a xlink:href="../../d6/de9/Constants_8hpp.html" target="_top" xlink:title="Constants used by ArkScript.">
<polygon fill="white" stroke="#666666" points="1291.25,-74.5 1193.5,-74.5 1193.5,-55.25 1291.25,-55.25 1291.25,-74.5"/>
<text text-anchor="middle" x="1242.38" y="-61" font-family="Helvetica,sans-Serif" font-size="10.00">Ark/Constants.hpp</text>
</a>
</g>
</g>
<!-- Node21&#45;&gt;Node25 -->
<g id="edge34_Node000021_Node000025" class="edge">
<title>Node21&#45;&gt;Node25</title>
<g id="a_edge34_Node000021_Node000025"><a xlink:title=" ">
<path fill="none" stroke="#63b8ff" d="M1245.71,-110.33C1245.22,-103.74 1244.52,-94.46 1243.89,-86.07"/>
<polygon fill="#63b8ff" stroke="#63b8ff" points="1247.4,-86.08 1243.16,-76.37 1240.42,-86.6 1247.4,-86.08"/>
</a>
</g>
</g>
<!-- Node25&#45;&gt;Node23 -->
<g id="edge35_Node000025_Node000023" class="edge">
<title>Node25&#45;&gt;Node23</title>
<g id="a_edge35_Node000025_Node000023"><a xlink:title=" ">
<path fill="none" stroke="#63b8ff" d="M1264.6,-54.84C1285.39,-46.39 1316.72,-33.65 1340.43,-24.02"/>
<polygon fill="#63b8ff" stroke="#63b8ff" points="1341.7,-27.28 1349.64,-20.27 1339.06,-20.8 1341.7,-27.28"/>
</a>
</g>
</g>
<!-- Node25&#45;&gt;Node24 -->
<g id="edge37_Node000025_Node000024" class="edge">
<title>Node25&#45;&gt;Node24</title>
<g id="a_edge37_Node000025_Node000024"><a xlink:title=" ">
<path fill="none" stroke="#63b8ff" d="M1229.82,-54.84C1218.91,-46.99 1202.87,-35.45 1189.91,-26.12"/>
<polygon fill="#63b8ff" stroke="#63b8ff" points="1192.13,-23.41 1181.97,-20.41 1188.04,-29.09 1192.13,-23.41"/>
</a>
</g>
</g>
<!-- Node26 -->
<g id="Node000026" class="node">
<title>Node26</title>
<g id="a_Node000026"><a xlink:title=" ">
<polygon fill="#e0e0e0" stroke="#999999" points="1322,-19.25 1282.75,-19.25 1282.75,0 1322,0 1322,-19.25"/>
<text text-anchor="middle" x="1302.38" y="-5.75" font-family="Helvetica,sans-Serif" font-size="10.00">limits</text>
</a>
</g>
</g>
<!-- Node25&#45;&gt;Node26 -->
<g id="edge36_Node000025_Node000026" class="edge">
<title>Node25&#45;&gt;Node26</title>
<g id="a_edge36_Node000025_Node000026"><a xlink:title=" ">
<path fill="none" stroke="#63b8ff" d="M1252.55,-54.84C1261.14,-47.22 1273.64,-36.12 1283.98,-26.95"/>
<polygon fill="#63b8ff" stroke="#63b8ff" points="1286.06,-29.79 1291.22,-20.53 1281.41,-24.55 1286.06,-29.79"/>
</a>
</g>
</g>
<!-- Node27 -->
<g id="Node000027" class="node">
<title>Node27</title>
<g id="a_Node000027"><a xlink:title=" ">
<polygon fill="#e0e0e0" stroke="#999999" points="1264.5,-19.25 1216.25,-19.25 1216.25,0 1264.5,0 1264.5,-19.25"/>
<text text-anchor="middle" x="1240.38" y="-5.75" font-family="Helvetica,sans-Serif" font-size="10.00">cstddef</text>
</a>
</g>
</g>
<!-- Node25&#45;&gt;Node27 -->
<g id="edge38_Node000025_Node000027" class="edge">
<title>Node25&#45;&gt;Node27</title>
<g id="a_edge38_Node000025_Node000027"><a xlink:title=" ">
<path fill="none" stroke="#63b8ff" d="M1242.04,-55.08C1241.8,-48.49 1241.45,-39.21 1241.13,-30.82"/>
<polygon fill="#63b8ff" stroke="#63b8ff" points="1244.64,-30.98 1240.77,-21.12 1237.65,-31.25 1244.64,-30.98"/>
</a>
</g>
</g>
<!-- Node28&#45;&gt;Node5 -->
<g id="edge42_Node000028_Node000005" class="edge">
<title>Node28&#45;&gt;Node5</title>
<g id="a_edge42_Node000028_Node000005"><a xlink:title=" ">
<path fill="none" stroke="#63b8ff" d="M725.3,-110.09C712.89,-102.14 694.58,-90.39 679.95,-81"/>
<polygon fill="#63b8ff" stroke="#63b8ff" points="682.1,-78.22 671.8,-75.77 678.32,-84.12 682.1,-78.22"/>
</a>
</g>
</g>
<!-- Node28&#45;&gt;Node18 -->
<g id="edge41_Node000028_Node000018" class="edge">
<title>Node28&#45;&gt;Node18</title>
<g id="a_edge41_Node000028_Node000018"><a xlink:title=" ">
<path fill="none" stroke="#63b8ff" d="M764.65,-110.09C788.88,-101.43 825.68,-88.28 852.85,-78.57"/>
<polygon fill="#63b8ff" stroke="#63b8ff" points="853.81,-81.95 862.05,-75.28 851.45,-75.35 853.81,-81.95"/>
</a>
</g>
</g>
</g>
</svg>
