<?xml version="1.0" encoding="UTF-8" standalone="no"?>
<!DOCTYPE svg PUBLIC "-//W3C//DTD SVG 1.1//EN"
 "http://www.w3.org/Graphics/SVG/1.1/DTD/svg11.dtd">
<!-- Generated by graphviz version 12.2.0 (20241103.1931)
 -->
<!-- Title: Ark::internal::MacroExecutor Pages: 1 -->
<svg width="1617pt" height="550pt"
 viewBox="0.00 0.00 1617.00 549.69" xmlns="http://www.w3.org/2000/svg" xmlns:xlink="http://www.w3.org/1999/xlink">
<g id="graph0" class="graph" transform="scale(1 1) rotate(0) translate(4 545.69)">
<title>Ark::internal::MacroExecutor</title>
<!-- Node1 -->
<g id="Node000001" class="node">
<title>Node1</title>
<g id="a_Node000001"><a xlink:title="A class that applies macros in a Node.">
<polygon fill="#999999" stroke="#666666" points="718.12,-526.19 577.62,-526.19 577.62,-506.94 718.12,-506.94 718.12,-526.19"/>
<text text-anchor="middle" x="647.88" y="-512.69" font-family="Helvetica,sans-Serif" font-size="10.00">Ark::internal::MacroExecutor</text>
</a>
</g>
</g>
<!-- Node18 -->
<g id="Node000018" class="node">
<title>Node18</title>
<g id="a_Node000018"><a xlink:title=" ">
<polygon fill="white" stroke="#666666" points="1035.5,-488.82 901,-488.82 901,-458.32 1035.5,-458.32 1035.5,-488.82"/>
<text text-anchor="start" x="909" y="-475.32" font-family="Helvetica,sans-Serif" font-size="10.00">std::shared_ptr&lt; Ark</text>
<text text-anchor="middle" x="968.25" y="-464.07" font-family="Helvetica,sans-Serif" font-size="10.00">::internal::MacroExecutor &gt;</text>
</a>
</g>
</g>
<!-- Node1&#45;&gt;Node18 -->
<g id="edge28_Node000018_Node000001" class="edge">
<title>Node1&#45;&gt;Node18</title>
<g id="a_edge28_Node000018_Node000001"><a xlink:title=" ">
<path fill="none" stroke="#9a32cd" stroke-dasharray="5,2" d="M716.83,-504.62C724.06,-503.46 731.3,-502.33 738.25,-501.32 792.94,-493.34 855.21,-485.9 901,-480.74"/>
<polygon fill="#9a32cd" stroke="#9a32cd" points="716.34,-501.16 707.04,-506.23 717.47,-508.06 716.34,-501.16"/>
</a>
</g>
<text text-anchor="middle" x="810.62" y="-503.07" font-family="Helvetica,sans-Serif" font-size="10.00" fill="grey"> ptr</text>
</g>
<!-- Node2 -->
<g id="Node000002" class="node">
<title>Node2</title>
<g id="a_Node000002"><a xlink:href="../../d5/db5/classArk_1_1internal_1_1MacroProcessor.html" target="_top" xlink:title="The class handling the macros definitions and calls, given an AST.">
<polygon fill="white" stroke="#666666" points="1609,-379.19 1463.25,-379.19 1463.25,-359.94 1609,-359.94 1609,-379.19"/>
<text text-anchor="middle" x="1536.12" y="-365.69" font-family="Helvetica,sans-Serif" font-size="10.00">Ark::internal::MacroProcessor</text>
</a>
</g>
</g>
<!-- Node2&#45;&gt;Node1 -->
<g id="edge1_Node000001_Node000002" class="edge">
<title>Node2&#45;&gt;Node1</title>
<g id="a_edge1_Node000001_Node000002"><a xlink:title=" ">
<path fill="none" stroke="#9a32cd" stroke-dasharray="5,2" d="M1518.72,-387.59C1491.05,-416.32 1431.86,-470.97 1368,-487.57 1136.27,-547.81 848.53,-534.11 718.47,-523.42"/>
<polygon fill="#9a32cd" stroke="#9a32cd" points="1520.92,-390.35 1525.22,-380.67 1515.82,-385.56 1520.92,-390.35"/>
</a>
</g>
<text text-anchor="middle" x="1110.12" y="-532.19" font-family="Helvetica,sans-Serif" font-size="10.00" fill="grey"> m_processor</text>
</g>
<!-- Node3 -->
<g id="Node000003" class="node">
<title>Node3</title>
<g id="a_Node000003"><a xlink:href="../../da/d7b/classArk_1_1internal_1_1Pass.html" target="_top" xlink:title="An interface to describe compiler passes.">
<polygon fill="white" stroke="#666666" points="1324.88,-286.19 1227.88,-286.19 1227.88,-266.94 1324.88,-266.94 1324.88,-286.19"/>
<text text-anchor="middle" x="1276.38" y="-272.69" font-family="Helvetica,sans-Serif" font-size="10.00">Ark::internal::Pass</text>
</a>
</g>
</g>
<!-- Node3&#45;&gt;Node2 -->
<g id="edge2_Node000002_Node000003" class="edge">
<title>Node3&#45;&gt;Node2</title>
<g id="a_edge2_Node000002_Node000003"><a xlink:title=" ">
<path fill="none" stroke="#63b8ff" d="M1315.5,-290.32C1367.92,-309.24 1461.03,-342.83 1507.35,-359.55"/>
<polygon fill="#63b8ff" stroke="#63b8ff" points="1316.98,-287.14 1306.38,-287.04 1314.6,-293.72 1316.98,-287.14"/>
</a>
</g>
</g>
<!-- Node4 -->
<g id="Node000004" class="node">
<title>Node4</title>
<g id="a_Node000004"><a xlink:href="../../d6/d2f/classArk_1_1internal_1_1Logger.html" target="_top" xlink:title=" ">
<polygon fill="white" stroke="#666666" points="1020.12,-256.19 916.38,-256.19 916.38,-236.94 1020.12,-236.94 1020.12,-256.19"/>
<text text-anchor="middle" x="968.25" y="-242.69" font-family="Helvetica,sans-Serif" font-size="10.00">Ark::internal::Logger</text>
</a>
</g>
</g>
<!-- Node4&#45;&gt;Node3 -->
<g id="edge3_Node000003_Node000004" class="edge">
<title>Node4&#45;&gt;Node3</title>
<g id="a_edge3_Node000003_Node000004"><a xlink:title=" ">
<path fill="none" stroke="#9a32cd" stroke-dasharray="5,2" d="M1031.7,-252.69C1089.67,-258.37 1174.74,-266.71 1227.5,-271.88"/>
<polygon fill="#9a32cd" stroke="#9a32cd" points="1032.29,-249.23 1021.99,-251.74 1031.61,-256.2 1032.29,-249.23"/>
</a>
</g>
<text text-anchor="middle" x="1110.12" y="-266.89" font-family="Helvetica,sans-Serif" font-size="10.00" fill="grey"> m_logger</text>
</g>
<!-- Node5 -->
<g id="Node000005" class="node">
<title>Node5</title>
<g id="a_Node000005"><a xlink:title=" ">
<polygon fill="white" stroke="#666666" points="190.5,-142.19 131,-142.19 131,-122.94 190.5,-122.94 190.5,-142.19"/>
<text text-anchor="middle" x="160.75" y="-128.69" font-family="Helvetica,sans-Serif" font-size="10.00">std::string</text>
</a>
</g>
</g>
<!-- Node5&#45;&gt;Node4 -->
<g id="edge4_Node000004_Node000005" class="edge">
<title>Node5&#45;&gt;Node4</title>
<g id="a_edge4_Node000004_Node000005"><a xlink:title=" ">
<path fill="none" stroke="#9a32cd" stroke-dasharray="5,2" d="M170.66,-112.4C178.39,-97.54 191.07,-78.3 208.5,-68.57 344.11,7.12 406.02,-17.07 557.5,-51.32 723.52,-88.85 901.09,-202.05 952.52,-236.51"/>
<polygon fill="#9a32cd" stroke="#9a32cd" points="167.56,-110.78 166.38,-121.31 173.87,-113.81 167.56,-110.78"/>
</a>
</g>
<text text-anchor="middle" x="493" y="-53.07" font-family="Helvetica,sans-Serif" font-size="10.00" fill="grey"> m_name</text>
</g>
<!-- Node7 -->
<g id="Node000007" class="node">
<title>Node7</title>
<g id="a_Node000007"><a xlink:title=" ">
<polygon fill="white" stroke="#666666" points="709.12,-269.69 586.62,-269.69 586.62,-205.44 709.12,-205.44 709.12,-269.69"/>
<text text-anchor="start" x="594.62" y="-256.19" font-family="Helvetica,sans-Serif" font-size="10.00">std::unordered_map</text>
<text text-anchor="start" x="594.62" y="-244.94" font-family="Helvetica,sans-Serif" font-size="10.00">&lt; std::string, std::</text>
<text text-anchor="start" x="594.62" y="-233.69" font-family="Helvetica,sans-Serif" font-size="10.00">chrono::time_point&lt; std</text>
<text text-anchor="start" x="594.62" y="-222.44" font-family="Helvetica,sans-Serif" font-size="10.00">::chrono::high_resolution</text>
<text text-anchor="middle" x="647.88" y="-211.19" font-family="Helvetica,sans-Serif" font-size="10.00">_clock &gt; &gt;</text>
</a>
</g>
</g>
<!-- Node5&#45;&gt;Node7 -->
<g id="edge7_Node000007_Node000005" class="edge">
<title>Node5&#45;&gt;Node7</title>
<g id="a_edge7_Node000007_Node000005"><a xlink:title=" ">
<path fill="none" stroke="#9a32cd" stroke-dasharray="5,2" d="M198.34,-146.01C201.74,-146.98 205.17,-147.86 208.5,-148.57 252.04,-157.84 263.91,-153.7 308.25,-157.57 363.62,-162.4 507.09,-155.16 557.5,-178.57 567.76,-183.33 566.52,-189.69 575.5,-196.57 579.24,-199.44 583.21,-202.25 587.28,-204.96"/>
<polygon fill="#9a32cd" stroke="#9a32cd" points="199.68,-142.77 189.09,-143.12 197.59,-149.45 199.68,-142.77"/>
</a>
</g>
<text text-anchor="middle" x="359.38" y="-162.12" font-family="Helvetica,sans-Serif" font-size="10.00" fill="grey"> keys</text>
</g>
<!-- Node11 -->
<g id="Node000011" class="node">
<title>Node11</title>
<g id="a_Node000011"><a xlink:title=" ">
<polygon fill="white" stroke="#666666" points="709.88,-355.19 585.88,-355.19 585.88,-335.94 709.88,-335.94 709.88,-355.19"/>
<text text-anchor="middle" x="647.88" y="-341.69" font-family="Helvetica,sans-Serif" font-size="10.00">std::vector&lt; std::string &gt;</text>
</a>
</g>
</g>
<!-- Node5&#45;&gt;Node11 -->
<g id="edge12_Node000011_Node000005" class="edge">
<title>Node5&#45;&gt;Node11</title>
<g id="a_edge12_Node000011_Node000005"><a xlink:title=" ">
<path fill="none" stroke="#9a32cd" stroke-dasharray="5,2" d="M169.05,-153.34C175.36,-171.86 184.4,-199.78 190.5,-224.57 201.19,-267.99 174.89,-294.06 208.5,-323.57 236.16,-347.86 471.87,-348.01 585.76,-346.63"/>
<polygon fill="#9a32cd" stroke="#9a32cd" points="172.42,-152.4 165.85,-144.09 165.81,-154.69 172.42,-152.4"/>
</a>
</g>
<text text-anchor="middle" x="359.38" y="-347.74" font-family="Helvetica,sans-Serif" font-size="10.00" fill="grey"> elements</text>
</g>
<!-- Node13 -->
<g id="Node000013" class="node">
<title>Node13</title>
<g id="a_Node000013"><a xlink:href="../../dc/d9e/classArk_1_1internal_1_1Node.html" target="_top" xlink:title="A node of an Abstract Syntax Tree for ArkScript.">
<polygon fill="white" stroke="#666666" points="408.25,-93.19 310.5,-93.19 310.5,-73.94 408.25,-73.94 408.25,-93.19"/>
<text text-anchor="middle" x="359.38" y="-79.69" font-family="Helvetica,sans-Serif" font-size="10.00">Ark::internal::Node</text>
</a>
</g>
</g>
<!-- Node5&#45;&gt;Node13 -->
<g id="edge16_Node000013_Node000005" class="edge">
<title>Node5&#45;&gt;Node13</title>
<g id="a_edge16_Node000013_Node000005"><a xlink:title=" ">
<path fill="none" stroke="#9a32cd" stroke-dasharray="5,2" d="M174.46,-113.58C182.75,-102.97 194.6,-90.73 208.5,-84.82 240.47,-71.22 279.85,-71.47 310.22,-74.81"/>
<polygon fill="#9a32cd" stroke="#9a32cd" points="171.82,-111.26 168.78,-121.41 177.48,-115.38 171.82,-111.26"/>
</a>
</g>
<text text-anchor="middle" x="249.38" y="-109.07" font-family="Helvetica,sans-Serif" font-size="10.00" fill="grey"> m_after_comment</text>
<text text-anchor="middle" x="249.38" y="-97.82" font-family="Helvetica,sans-Serif" font-size="10.00" fill="grey">m_comment</text>
<text text-anchor="middle" x="249.38" y="-86.57" font-family="Helvetica,sans-Serif" font-size="10.00" fill="grey">m_filename</text>
</g>
<!-- Node16 -->
<g id="Node000016" class="node">
<title>Node16</title>
<g id="a_Node000016"><a xlink:title=" ">
<polygon fill="white" stroke="#666666" points="699,-187.44 596.75,-187.44 596.75,-145.69 699,-145.69 699,-187.44"/>
<text text-anchor="start" x="604.75" y="-173.94" font-family="Helvetica,sans-Serif" font-size="10.00">std::unordered_map</text>
<text text-anchor="start" x="604.75" y="-162.69" font-family="Helvetica,sans-Serif" font-size="10.00">&lt; std::string, Ark::</text>
<text text-anchor="middle" x="647.88" y="-151.44" font-family="Helvetica,sans-Serif" font-size="10.00">internal::Node &gt;</text>
</a>
</g>
</g>
<!-- Node5&#45;&gt;Node16 -->
<g id="edge20_Node000016_Node000005" class="edge">
<title>Node5&#45;&gt;Node16</title>
<g id="a_edge20_Node000016_Node000005"><a xlink:title=" ">
<path fill="none" stroke="#9a32cd" stroke-dasharray="5,2" d="M201.78,-133.48C273.32,-135.39 427.78,-140.72 557.5,-153.57 570.14,-154.82 583.73,-156.58 596.4,-158.41"/>
<polygon fill="#9a32cd" stroke="#9a32cd" points="202.22,-129.99 192.13,-133.24 202.04,-136.99 202.22,-129.99"/>
</a>
</g>
<text text-anchor="middle" x="359.38" y="-143.81" font-family="Helvetica,sans-Serif" font-size="10.00" fill="grey"> keys</text>
</g>
<!-- Node6 -->
<g id="Node000006" class="node">
<title>Node6</title>
<g id="a_Node000006"><a xlink:title=" ">
<polygon fill="white" stroke="#666666" points="94,-147.82 0,-147.82 0,-117.32 94,-117.32 94,-147.82"/>
<text text-anchor="start" x="8" y="-134.32" font-family="Helvetica,sans-Serif" font-size="10.00">std::basic_string&lt;</text>
<text text-anchor="middle" x="47" y="-123.07" font-family="Helvetica,sans-Serif" font-size="10.00"> Char &gt;</text>
</a>
</g>
</g>
<!-- Node6&#45;&gt;Node5 -->
<g id="edge5_Node000005_Node000006" class="edge">
<title>Node6&#45;&gt;Node5</title>
<g id="a_edge5_Node000005_Node000006"><a xlink:title=" ">
<path fill="none" stroke="#63b8ff" d="M105.71,-132.57C114.32,-132.57 122.87,-132.57 130.55,-132.57"/>
<polygon fill="#63b8ff" stroke="#63b8ff" points="105.93,-129.07 95.93,-132.57 105.93,-136.07 105.93,-129.07"/>
</a>
</g>
</g>
<!-- Node7&#45;&gt;Node4 -->
<g id="edge6_Node000004_Node000007" class="edge">
<title>Node7&#45;&gt;Node4</title>
<g id="a_edge6_Node000004_Node000007"><a xlink:title=" ">
<path fill="none" stroke="#9a32cd" stroke-dasharray="5,2" d="M720.97,-237.86C767.27,-238.27 828.7,-239.19 883,-241.32 893.69,-241.74 905.13,-242.34 916.03,-243"/>
<polygon fill="#9a32cd" stroke="#9a32cd" points="721.07,-234.36 711.05,-237.78 721.02,-241.36 721.07,-234.36"/>
</a>
</g>
<text text-anchor="middle" x="810.62" y="-243.07" font-family="Helvetica,sans-Serif" font-size="10.00" fill="grey"> m_trace_starts</text>
</g>
<!-- Node8 -->
<g id="Node000008" class="node">
<title>Node8</title>
<g id="a_Node000008"><a xlink:title=" ">
<polygon fill="white" stroke="#666666" points="410.5,-258.82 308.25,-258.82 308.25,-228.32 410.5,-228.32 410.5,-258.82"/>
<text text-anchor="start" x="316.25" y="-245.32" font-family="Helvetica,sans-Serif" font-size="10.00">std::unordered_map</text>
<text text-anchor="middle" x="359.38" y="-234.07" font-family="Helvetica,sans-Serif" font-size="10.00">&lt; K, T &gt;</text>
</a>
</g>
</g>
<!-- Node8&#45;&gt;Node7 -->
<g id="edge8_Node000007_Node000008" class="edge">
<title>Node8&#45;&gt;Node7</title>
<g id="a_edge8_Node000007_Node000008"><a xlink:title=" ">
<path fill="none" stroke="orange" stroke-dasharray="5,2" d="M422.23,-242.27C470.74,-241.26 537.9,-239.85 586.13,-238.84"/>
<polygon fill="orange" stroke="orange" points="422.37,-238.77 412.45,-242.48 422.52,-245.77 422.37,-238.77"/>
</a>
</g>
<text text-anchor="start" x="428.5" y="-277.62" font-family="Helvetica,sans-Serif" font-size="10.00" fill="grey"> &lt; std::string, std</text>
<text text-anchor="start" x="428.5" y="-266.37" font-family="Helvetica,sans-Serif" font-size="10.00" fill="grey">::chrono::time_point</text>
<text text-anchor="start" x="428.5" y="-255.12" font-family="Helvetica,sans-Serif" font-size="10.00" fill="grey">&lt; std::chrono::high_resolution</text>
<text text-anchor="middle" x="493" y="-243.87" font-family="Helvetica,sans-Serif" font-size="10.00" fill="grey">_clock &gt; &gt;</text>
</g>
<!-- Node8&#45;&gt;Node16 -->
<g id="edge22_Node000016_Node000008" class="edge">
<title>Node8&#45;&gt;Node16</title>
<g id="a_edge22_Node000016_Node000008"><a xlink:title=" ">
<path fill="none" stroke="orange" stroke-dasharray="5,2" d="M401.95,-223.29C410.59,-219.55 419.74,-215.93 428.5,-213.07 484.88,-194.67 551.87,-181.66 596.65,-174.16"/>
<polygon fill="orange" stroke="orange" points="400.79,-219.98 393.09,-227.25 403.65,-226.36 400.79,-219.98"/>
</a>
</g>
<text text-anchor="start" x="455.12" y="-226.07" font-family="Helvetica,sans-Serif" font-size="10.00" fill="grey"> &lt; std::string, Ark</text>
<text text-anchor="middle" x="493" y="-214.82" font-family="Helvetica,sans-Serif" font-size="10.00" fill="grey">::internal::Node &gt;</text>
</g>
<!-- Node9 -->
<g id="Node000009" class="node">
<title>Node9</title>
<g id="a_Node000009"><a xlink:title=" ">
<polygon fill="white" stroke="#666666" points="175.15,-253.19 146.35,-253.19 146.35,-233.94 175.15,-233.94 175.15,-253.19"/>
<text text-anchor="middle" x="160.75" y="-239.69" font-family="Helvetica,sans-Serif" font-size="10.00">K</text>
</a>
</g>
</g>
<!-- Node9&#45;&gt;Node8 -->
<g id="edge9_Node000008_Node000009" class="edge">
<title>Node9&#45;&gt;Node8</title>
<g id="a_edge9_Node000008_Node000009"><a xlink:title=" ">
<path fill="none" stroke="#9a32cd" stroke-dasharray="5,2" d="M186.83,-243.57C217.27,-243.57 269.32,-243.57 308.12,-243.57"/>
<polygon fill="#9a32cd" stroke="#9a32cd" points="187.09,-240.07 177.09,-243.57 187.09,-247.07 187.09,-240.07"/>
</a>
</g>
<text text-anchor="middle" x="249.38" y="-245.32" font-family="Helvetica,sans-Serif" font-size="10.00" fill="grey"> keys</text>
</g>
<!-- Node10 -->
<g id="Node000010" class="node">
<title>Node10</title>
<g id="a_Node000010"><a xlink:title=" ">
<polygon fill="white" stroke="#666666" points="175.15,-396.19 146.35,-396.19 146.35,-376.94 175.15,-376.94 175.15,-396.19"/>
<text text-anchor="middle" x="160.75" y="-382.69" font-family="Helvetica,sans-Serif" font-size="10.00">T</text>
</a>
</g>
</g>
<!-- Node10&#45;&gt;Node8 -->
<g id="edge10_Node000008_Node000010" class="edge">
<title>Node10&#45;&gt;Node8</title>
<g id="a_edge10_Node000008_Node000010"><a xlink:title=" ">
<path fill="none" stroke="#9a32cd" stroke-dasharray="5,2" d="M184.41,-370.09C222.59,-342.32 299.26,-286.56 336.74,-259.3"/>
<polygon fill="#9a32cd" stroke="#9a32cd" points="182.83,-366.91 176.8,-375.62 186.95,-372.57 182.83,-366.91"/>
</a>
</g>
<text text-anchor="middle" x="249.38" y="-353.76" font-family="Helvetica,sans-Serif" font-size="10.00" fill="grey"> elements</text>
</g>
<!-- Node12 -->
<g id="Node000012" class="node">
<title>Node12</title>
<g id="a_Node000012"><a xlink:title=" ">
<polygon fill="white" stroke="#666666" points="402.62,-396.19 316.12,-396.19 316.12,-376.94 402.62,-376.94 402.62,-396.19"/>
<text text-anchor="middle" x="359.38" y="-382.69" font-family="Helvetica,sans-Serif" font-size="10.00">std::vector&lt; T &gt;</text>
</a>
</g>
</g>
<!-- Node10&#45;&gt;Node12 -->
<g id="edge14_Node000012_Node000010" class="edge">
<title>Node10&#45;&gt;Node12</title>
<g id="a_edge14_Node000012_Node000010"><a xlink:title=" ">
<path fill="none" stroke="#9a32cd" stroke-dasharray="5,2" d="M186.71,-386.57C219.13,-386.57 276.24,-386.57 315.63,-386.57"/>
<polygon fill="#9a32cd" stroke="#9a32cd" points="187.09,-383.07 177.09,-386.57 187.09,-390.07 187.09,-383.07"/>
</a>
</g>
<text text-anchor="middle" x="249.38" y="-388.32" font-family="Helvetica,sans-Serif" font-size="10.00" fill="grey"> elements</text>
</g>
<!-- Node19 -->
<g id="Node000019" class="node">
<title>Node19</title>
<g id="a_Node000019"><a xlink:title=" ">
<polygon fill="white" stroke="#666666" points="545.62,-466.19 440.38,-466.19 440.38,-446.94 545.62,-446.94 545.62,-466.19"/>
<text text-anchor="middle" x="493" y="-452.69" font-family="Helvetica,sans-Serif" font-size="10.00">std::shared_ptr&lt; T &gt;</text>
</a>
</g>
</g>
<!-- Node10&#45;&gt;Node19 -->
<g id="edge30_Node000019_Node000010" class="edge">
<title>Node10&#45;&gt;Node19</title>
<g id="a_edge30_Node000019_Node000010"><a xlink:title=" ">
<path fill="none" stroke="#9a32cd" stroke-dasharray="5,2" d="M186.29,-395.05C193.41,-397.34 201.22,-399.7 208.5,-401.57 288.51,-422.09 382.95,-438.98 440.12,-448.41"/>
<polygon fill="#9a32cd" stroke="#9a32cd" points="187.56,-391.78 176.97,-391.95 185.35,-398.42 187.56,-391.78"/>
</a>
</g>
<text text-anchor="middle" x="249.38" y="-421.28" font-family="Helvetica,sans-Serif" font-size="10.00" fill="grey"> ptr</text>
</g>
<!-- Node11&#45;&gt;Node4 -->
<g id="edge11_Node000004_Node000011" class="edge">
<title>Node11&#45;&gt;Node4</title>
<g id="a_edge11_Node000004_Node000011"><a xlink:title=" ">
<path fill="none" stroke="#9a32cd" stroke-dasharray="5,2" d="M697.44,-332.64C710.65,-329.2 724.98,-325.54 738.25,-322.32 802.34,-306.74 820.98,-312.01 883,-289.57 884.69,-288.96 923.44,-269.09 947.79,-256.58"/>
<polygon fill="#9a32cd" stroke="#9a32cd" points="696.89,-329.16 688.11,-335.08 698.67,-335.93 696.89,-329.16"/>
</a>
</g>
<text text-anchor="middle" x="810.62" y="-324.07" font-family="Helvetica,sans-Serif" font-size="10.00" fill="grey"> m_active_traces</text>
</g>
<!-- Node12&#45;&gt;Node11 -->
<g id="edge13_Node000011_Node000012" class="edge">
<title>Node12&#45;&gt;Node11</title>
<g id="a_edge13_Node000011_Node000012"><a xlink:title=" ">
<path fill="none" stroke="orange" stroke-dasharray="5,2" d="M413.43,-374.14C418.51,-373.11 423.6,-372.16 428.5,-371.32 481.19,-362.34 541.56,-355.48 585.45,-351.11"/>
<polygon fill="orange" stroke="orange" points="412.95,-370.66 403.88,-376.14 414.38,-377.51 412.95,-370.66"/>
</a>
</g>
<text text-anchor="middle" x="493" y="-373.07" font-family="Helvetica,sans-Serif" font-size="10.00" fill="grey"> &lt; std::string &gt;</text>
</g>
<!-- Node14 -->
<g id="Node000014" class="node">
<title>Node14</title>
<g id="a_Node000014"><a xlink:title=" ">
<polygon fill="white" stroke="#666666" points="1338,-355.82 1214.75,-355.82 1214.75,-325.32 1338,-325.32 1338,-355.82"/>
<text text-anchor="start" x="1222.75" y="-342.32" font-family="Helvetica,sans-Serif" font-size="10.00">std::vector&lt; Ark::internal</text>
<text text-anchor="middle" x="1276.38" y="-331.07" font-family="Helvetica,sans-Serif" font-size="10.00">::MacroScope &gt;</text>
</a>
</g>
</g>
<!-- Node12&#45;&gt;Node14 -->
<g id="edge23_Node000014_Node000012" class="edge">
<title>Node12&#45;&gt;Node14</title>
<g id="a_edge23_Node000014_Node000012"><a xlink:title=" ">
<path fill="none" stroke="orange" stroke-dasharray="5,2" d="M414.33,-386.03C453.96,-385.5 509.09,-384.48 557.5,-382.57 801.07,-372.98 1090.69,-353.58 1214.43,-344.92"/>
<polygon fill="orange" stroke="orange" points="414.54,-382.53 404.59,-386.15 414.63,-389.53 414.54,-382.53"/>
</a>
</g>
<text text-anchor="middle" x="810.62" y="-375.92" font-family="Helvetica,sans-Serif" font-size="10.00" fill="grey"> &lt; Ark::internal::MacroScope &gt;</text>
</g>
<!-- Node17 -->
<g id="Node000017" class="node">
<title>Node17</title>
<g id="a_Node000017"><a xlink:title=" ">
<polygon fill="white" stroke="#666666" points="709.5,-317.82 586.25,-317.82 586.25,-287.32 709.5,-287.32 709.5,-317.82"/>
<text text-anchor="start" x="594.25" y="-304.32" font-family="Helvetica,sans-Serif" font-size="10.00">std::vector&lt; Ark::internal</text>
<text text-anchor="middle" x="647.88" y="-293.07" font-family="Helvetica,sans-Serif" font-size="10.00">::Node &gt;</text>
</a>
</g>
</g>
<!-- Node12&#45;&gt;Node17 -->
<g id="edge26_Node000017_Node000012" class="edge">
<title>Node12&#45;&gt;Node17</title>
<g id="a_edge26_Node000017_Node000012"><a xlink:title=" ">
<path fill="none" stroke="orange" stroke-dasharray="5,2" d="M384.8,-370.27C393.02,-364.72 402.2,-358.44 410.5,-352.57 418.61,-346.84 419.35,-343.19 428.5,-339.32 478.95,-317.95 540.9,-308.99 585.91,-305.24"/>
<polygon fill="orange" stroke="orange" points="382.99,-367.27 376.65,-375.76 386.9,-373.08 382.99,-367.27"/>
</a>
</g>
<text text-anchor="middle" x="493" y="-341.07" font-family="Helvetica,sans-Serif" font-size="10.00" fill="grey"> &lt; Ark::internal::Node &gt;</text>
</g>
<!-- Node20 -->
<g id="Node000020" class="node">
<title>Node20</title>
<g id="a_Node000020"><a xlink:title=" ">
<polygon fill="white" stroke="#666666" points="1368,-441.82 1184.75,-441.82 1184.75,-411.32 1368,-411.32 1368,-441.82"/>
<text text-anchor="start" x="1192.75" y="-428.32" font-family="Helvetica,sans-Serif" font-size="10.00">std::vector&lt; std::shared</text>
<text text-anchor="middle" x="1276.38" y="-417.07" font-family="Helvetica,sans-Serif" font-size="10.00">_ptr&lt; Ark::internal::MacroExecutor &gt; &gt;</text>
</a>
</g>
</g>
<!-- Node12&#45;&gt;Node20 -->
<g id="edge33_Node000020_Node000012" class="edge">
<title>Node12&#45;&gt;Node20</title>
<g id="a_edge33_Node000020_Node000012"><a xlink:title=" ">
<path fill="none" stroke="orange" stroke-dasharray="5,2" d="M397.57,-400.07C407.49,-403.1 418.29,-405.91 428.5,-407.57 571.58,-430.77 996.45,-429.5 1184.3,-427.7"/>
<polygon fill="orange" stroke="orange" points="398.85,-396.8 388.26,-397.06 396.7,-403.46 398.85,-396.8"/>
</a>
</g>
<text text-anchor="start" x="738.25" y="-441.07" font-family="Helvetica,sans-Serif" font-size="10.00" fill="grey"> &lt; std::shared_ptr&lt;</text>
<text text-anchor="middle" x="810.62" y="-429.82" font-family="Helvetica,sans-Serif" font-size="10.00" fill="grey"> Ark::internal::MacroExecutor &gt; &gt;</text>
</g>
<!-- Node13&#45;&gt;Node2 -->
<g id="edge15_Node000002_Node000013" class="edge">
<title>Node13&#45;&gt;Node2</title>
<g id="a_edge15_Node000002_Node000013"><a xlink:title=" ">
<path fill="none" stroke="#9a32cd" stroke-dasharray="5,2" d="M374.56,-65.09C387.01,-50.43 406.52,-30.89 428.5,-21.57 518.03,16.41 549.62,-7.57 646.88,-7.57 646.88,-7.57 646.88,-7.57 1277.38,-7.57 1455.21,-7.57 1521.76,-301.04 1533.26,-359.51"/>
<polygon fill="#9a32cd" stroke="#9a32cd" points="371.98,-62.72 368.4,-72.7 377.41,-67.13 371.98,-62.72"/>
</a>
</g>
<text text-anchor="middle" x="968.25" y="-9.32" font-family="Helvetica,sans-Serif" font-size="10.00" fill="grey"> m_ast</text>
</g>
<!-- Node13&#45;&gt;Node16 -->
<g id="edge21_Node000016_Node000013" class="edge">
<title>Node13&#45;&gt;Node16</title>
<g id="a_edge21_Node000016_Node000013"><a xlink:title=" ">
<path fill="none" stroke="#9a32cd" stroke-dasharray="5,2" d="M414.99,-71.54C455.77,-65.16 512.05,-61.97 557.5,-80.32 589.89,-93.4 617.08,-124.46 632.68,-145.51"/>
<polygon fill="#9a32cd" stroke="#9a32cd" points="414.43,-68.09 405.15,-73.21 415.6,-74.99 414.43,-68.09"/>
</a>
</g>
<text text-anchor="middle" x="493" y="-82.07" font-family="Helvetica,sans-Serif" font-size="10.00" fill="grey"> elements</text>
</g>
<!-- Node13&#45;&gt;Node17 -->
<g id="edge25_Node000017_Node000013" class="edge">
<title>Node13&#45;&gt;Node17</title>
<g id="a_edge25_Node000017_Node000013"><a xlink:title=" ">
<path fill="none" stroke="#9a32cd" stroke-dasharray="5,2" d="M419.63,-92.65C464.51,-102.76 523.98,-123.68 557.5,-166.32 588.72,-206.04 542.85,-240.01 575.5,-278.57 578.54,-282.16 582.14,-285.22 586.08,-287.82"/>
<polygon fill="#9a32cd" stroke="#9a32cd" points="420.54,-89.27 410.04,-90.62 419.09,-96.12 420.54,-89.27"/>
</a>
</g>
<text text-anchor="middle" x="493" y="-168.07" font-family="Helvetica,sans-Serif" font-size="10.00" fill="grey"> elements</text>
</g>
<!-- Node14&#45;&gt;Node2 -->
<g id="edge17_Node000002_Node000014" class="edge">
<title>Node14&#45;&gt;Node2</title>
<g id="a_edge17_Node000002_Node000014"><a xlink:title=" ">
<path fill="none" stroke="#9a32cd" stroke-dasharray="5,2" d="M1349.52,-347.89C1379.19,-350.98 1413.88,-354.7 1445.25,-358.32 1451.03,-358.99 1457.02,-359.7 1463.03,-360.42"/>
<polygon fill="#9a32cd" stroke="#9a32cd" points="1350.22,-344.45 1339.91,-346.89 1349.5,-351.41 1350.22,-344.45"/>
</a>
</g>
<text text-anchor="middle" x="1415.62" y="-360.07" font-family="Helvetica,sans-Serif" font-size="10.00" fill="grey"> m_macros</text>
</g>
<!-- Node15 -->
<g id="Node000015" class="node">
<title>Node15</title>
<g id="a_Node000015"><a xlink:href="../../d6/d42/classArk_1_1internal_1_1MacroScope.html" target="_top" xlink:title=" ">
<polygon fill="white" stroke="#666666" points="1032.88,-309.19 903.62,-309.19 903.62,-289.94 1032.88,-289.94 1032.88,-309.19"/>
<text text-anchor="middle" x="968.25" y="-295.69" font-family="Helvetica,sans-Serif" font-size="10.00">Ark::internal::MacroScope</text>
</a>
</g>
</g>
<!-- Node15&#45;&gt;Node14 -->
<g id="edge18_Node000014_Node000015" class="edge">
<title>Node15&#45;&gt;Node14</title>
<g id="a_edge18_Node000014_Node000015"><a xlink:title=" ">
<path fill="none" stroke="#9a32cd" stroke-dasharray="5,2" d="M1044.2,-306.03C1081.18,-309.57 1126.4,-314.45 1166.75,-320.32 1182.22,-322.57 1198.85,-325.44 1214.33,-328.31"/>
<polygon fill="#9a32cd" stroke="#9a32cd" points="1044.8,-302.57 1034.51,-305.11 1044.14,-309.54 1044.8,-302.57"/>
</a>
</g>
<text text-anchor="middle" x="1110.12" y="-322.07" font-family="Helvetica,sans-Serif" font-size="10.00" fill="grey"> elements</text>
</g>
<!-- Node16&#45;&gt;Node2 -->
<g id="edge34_Node000002_Node000016" class="edge">
<title>Node16&#45;&gt;Node2</title>
<g id="a_edge34_Node000002_Node000016"><a xlink:title=" ">
<path fill="none" stroke="#9a32cd" stroke-dasharray="5,2" d="M710.55,-164.98C837.79,-163.69 1136.85,-171.05 1368,-257.57 1433.75,-282.18 1499.28,-337.19 1524.4,-359.69"/>
<polygon fill="#9a32cd" stroke="#9a32cd" points="710.61,-161.48 700.66,-165.1 710.7,-168.47 710.61,-161.48"/>
</a>
</g>
<text text-anchor="middle" x="1110.12" y="-203.55" font-family="Helvetica,sans-Serif" font-size="10.00" fill="grey"> m_defined_functions</text>
</g>
<!-- Node16&#45;&gt;Node15 -->
<g id="edge19_Node000015_Node000016" class="edge">
<title>Node16&#45;&gt;Node15</title>
<g id="a_edge19_Node000015_Node000016"><a xlink:title=" ">
<path fill="none" stroke="#9a32cd" stroke-dasharray="5,2" d="M709.17,-187.05C713.22,-189.85 716.98,-193 720.25,-196.57 737.92,-215.84 718.33,-235.64 738.25,-252.57 763.03,-273.64 851.26,-267.22 883,-274.32 901.33,-278.42 921.49,-284.41 937.5,-289.53"/>
<polygon fill="#9a32cd" stroke="#9a32cd" points="710.97,-184.06 700.59,-181.95 707.4,-190.07 710.97,-184.06"/>
</a>
</g>
<text text-anchor="middle" x="810.62" y="-276.07" font-family="Helvetica,sans-Serif" font-size="10.00" fill="grey"> m_macros</text>
</g>
<!-- Node17&#45;&gt;Node2 -->
<g id="edge24_Node000002_Node000017" class="edge">
<title>Node17&#45;&gt;Node2</title>
<g id="a_edge24_Node000002_Node000017"><a xlink:title=" ">
<path fill="none" stroke="#9a32cd" stroke-dasharray="5,2" d="M717.93,-324.53C718.72,-325.19 719.5,-325.87 720.25,-326.57 735.42,-340.68 721,-358.09 738.25,-369.57 797.6,-409.07 1278,-384.96 1462.93,-374.07"/>
<polygon fill="#9a32cd" stroke="#9a32cd" points="720.23,-321.87 710.02,-319.04 716.24,-327.62 720.23,-321.87"/>
</a>
</g>
<text text-anchor="middle" x="1110.12" y="-392.37" font-family="Helvetica,sans-Serif" font-size="10.00" fill="grey"> m_macros_being_applied</text>
</g>
<!-- Node18&#45;&gt;Node2 -->
<g id="edge27_Node000002_Node000018" class="edge">
<title>Node18&#45;&gt;Node2</title>
<g id="a_edge27_Node000002_Node000018"><a xlink:title=" ">
<path fill="none" stroke="#9a32cd" stroke-dasharray="5,2" d="M1047.07,-475.66C1128.07,-476.32 1258.19,-473.06 1368,-450.57 1403.49,-443.3 1412.43,-439.9 1445.25,-424.57 1473.43,-411.41 1503.81,-391.47 1521.05,-379.56"/>
<polygon fill="#9a32cd" stroke="#9a32cd" points="1047.53,-472.17 1037.49,-475.56 1047.45,-479.17 1047.53,-472.17"/>
</a>
</g>
<text text-anchor="middle" x="1276.38" y="-474.11" font-family="Helvetica,sans-Serif" font-size="10.00" fill="grey"> m_conditional_executor</text>
</g>
<!-- Node18&#45;&gt;Node20 -->
<g id="edge32_Node000020_Node000018" class="edge">
<title>Node18&#45;&gt;Node20</title>
<g id="a_edge32_Node000020_Node000018"><a xlink:title=" ">
<path fill="none" stroke="#9a32cd" stroke-dasharray="5,2" d="M1046.95,-456.49C1049.16,-456.08 1051.34,-455.69 1053.5,-455.32 1096.37,-447.91 1144.19,-441.48 1184.44,-436.6"/>
<polygon fill="#9a32cd" stroke="#9a32cd" points="1046.49,-453.01 1037.32,-458.32 1047.8,-459.89 1046.49,-453.01"/>
</a>
</g>
<text text-anchor="middle" x="1110.12" y="-457.07" font-family="Helvetica,sans-Serif" font-size="10.00" fill="grey"> elements</text>
</g>
<!-- Node19&#45;&gt;Node18 -->
<g id="edge29_Node000018_Node000019" class="edge">
<title>Node19&#45;&gt;Node18</title>
<g id="a_edge29_Node000018_Node000019"><a xlink:title=" ">
<path fill="none" stroke="orange" stroke-dasharray="5,2" d="M557.34,-458.84C646.84,-462.06 809.58,-467.91 900.77,-471.18"/>
<polygon fill="orange" stroke="orange" points="557.63,-455.35 547.51,-458.49 557.38,-462.35 557.63,-455.35"/>
</a>
</g>
<text text-anchor="middle" x="647.88" y="-466.09" font-family="Helvetica,sans-Serif" font-size="10.00" fill="grey"> &lt; Ark::internal::MacroExecutor &gt;</text>
</g>
<!-- Node20&#45;&gt;Node2 -->
<g id="edge31_Node000002_Node000020" class="edge">
<title>Node20&#45;&gt;Node2</title>
<g id="a_edge31_Node000002_Node000020"><a xlink:title=" ">
<path fill="none" stroke="#9a32cd" stroke-dasharray="5,2" d="M1379.7,-411.09C1401.45,-407.19 1424.19,-402.65 1445.25,-397.57 1465.9,-392.59 1488.76,-385.45 1506.25,-379.62"/>
<polygon fill="#9a32cd" stroke="#9a32cd" points="1379.16,-407.63 1369.92,-412.81 1380.38,-414.53 1379.16,-407.63"/>
</a>
</g>
<text text-anchor="middle" x="1415.62" y="-410.91" font-family="Helvetica,sans-Serif" font-size="10.00" fill="grey"> m_executors</text>
</g>
</g>
</svg>
