<?xml version="1.0" encoding="UTF-8" standalone="no"?>
<!DOCTYPE svg PUBLIC "-//W3C//DTD SVG 1.1//EN"
 "http://www.w3.org/Graphics/SVG/1.1/DTD/svg11.dtd">
<!-- Generated by graphviz version 12.2.0 (20241103.1931)
 -->
<!-- Title: Ark::internal::MacroExecutor Pages: 1 -->
<!--zoomable 550 -->

<svg id="main" version="1.1" xmlns="http://www.w3.org/2000/svg" xmlns:xlink="http://www.w3.org/1999/xlink" xml:space="preserve" onload="init(evt)">

<style type="text/css"><![CDATA[
.node, .edge {opacity: 0.7;}
.node.selected, .edge.selected {opacity: 1;}
.edge:hover path { stroke: red; }
.edge:hover polygon { stroke: red; fill: red; }
]]></style>

<defs>
  <circle id="rim" cx="0" cy="0" r="7"/>
  <circle id="rim2" cx="0" cy="0" r="3.5"/>
  <g id="zoomPlus">
    <use xlink:href="#rim" fill="#404040"><set attributeName="fill" to="#808080" begin="zoomplus.mouseover" end="zoomplus.mouseout"/></use>
    <path d="M-4,0h8M0,-4v8" fill="none" stroke="white" stroke-width="1.5" pointer-events="none"/>
  </g>
  <g id="zoomMin">
    <use xlink:href="#rim" fill="#404040"><set attributeName="fill" to="#808080" begin="zoomminus.mouseover" end="zoomminus.mouseout"/></use>
    <path d="M-4,0h8" fill="none" stroke="white" stroke-width="1.5" pointer-events="none"/>
  </g>
  <g id="arrowUp" transform="translate(30 24)">
    <use xlink:href="#rim"/>
    <path pointer-events="none" fill="none" stroke="white" stroke-width="1.5" d="M0,-3.0v7 M-2.5,-0.5L0,-3.0L2.5,-0.5"/>
  </g>
  <g id="arrowRight" transform="rotate(90) translate(36 -43)">
    <use xlink:href="#rim"/>
    <path pointer-events="none" fill="none" stroke="white" stroke-width="1.5" d="M0,-3.0v7 M-2.5,-0.5L0,-3.0L2.5,-0.5"/>
  </g>
  <g id="arrowDown" transform="rotate(180) translate(-30 -48)">
    <use xlink:href="#rim"/>
    <path pointer-events="none" fill="none" stroke="white" stroke-width="1.5" d="M0,-3.0v7 M-2.5,-0.5L0,-3.0L2.5,-0.5"/>
  </g>
  <g id="arrowLeft" transform="rotate(270) translate(-36 17)">
    <use xlink:href="#rim"/>
    <path pointer-events="none" fill="none" stroke="white" stroke-width="1.5" d="M0,-3.0v7 M-2.5,-0.5L0,-3.0L2.5,-0.5"/>
  </g>
  <g id="resetDef">
    <use xlink:href="#rim2" fill="#404040"><set attributeName="fill" to="#808080" begin="reset.mouseover" end="reset.mouseout"/></use>
  </g>
</defs>
<script type="application/ecmascript">
var viewWidth = 1705;
var viewHeight = 550;
var sectionId = 'dynsection-1';
</script>
<script type="application/ecmascript" xlink:href="../../svg.min.js"/>
<svg id="graph" class="graph">
<g id="viewport">
<title>Ark::internal::MacroExecutor</title>
<!-- Node1 -->
<g id="Node000001" class="node">
<title>Node1</title>
<g id="a_Node000001"><a xlink:title="A class that applies macros in a Node.">
<polygon fill="#999999" stroke="#666666" points="806.38,-514.14 665.88,-514.14 665.88,-494.89 806.38,-494.89 806.38,-514.14"/>
<text text-anchor="middle" x="736.12" y="-500.64" font-family="Helvetica,sans-Serif" font-size="10.00">Ark::internal::MacroExecutor</text>
</a>
</g>
</g>
<!-- Node20 -->
<g id="Node000020" class="node">
<title>Node20</title>
<g id="a_Node000020"><a xlink:title=" ">
<polygon fill="white" stroke="#666666" points="1123.75,-477.77 989.25,-477.77 989.25,-447.27 1123.75,-447.27 1123.75,-477.77"/>
<text text-anchor="start" x="997.25" y="-464.27" font-family="Helvetica,sans-Serif" font-size="10.00">std::shared_ptr&lt; Ark</text>
<text text-anchor="middle" x="1056.5" y="-453.02" font-family="Helvetica,sans-Serif" font-size="10.00">::internal::MacroExecutor &gt;</text>
</a>
</g>
</g>
<!-- Node1&#45;&gt;Node20 -->
<g id="edge30_Node000020_Node000001" class="edge">
<title>Node1&#45;&gt;Node20</title>
<g id="a_edge30_Node000020_Node000001"><a xlink:title=" ">
<path fill="none" stroke="#9a32cd" stroke-dasharray="5,2" d="M804.5,-492.63C811.91,-491.44 819.36,-490.3 826.5,-489.27 881.18,-481.42 943.45,-474.26 989.24,-469.33"/>
<polygon fill="#9a32cd" stroke="#9a32cd" points="804.11,-489.15 794.81,-494.22 805.24,-496.06 804.11,-489.15"/>
</a>
</g>
<text text-anchor="middle" x="898.88" y="-491.02" font-family="Helvetica,sans-Serif" font-size="10.00" fill="grey"> ptr</text>
</g>
<!-- Node2 -->
<g id="Node000002" class="node">
<title>Node2</title>
<g id="a_Node000002"><a xlink:href="../../d5/db5/classArk_1_1internal_1_1MacroProcessor.html" target="_top" xlink:title="The class handling the macros definitions and calls, given an AST.">
<polygon fill="white" stroke="#666666" points="1697.25,-342.14 1551.5,-342.14 1551.5,-322.89 1697.25,-322.89 1697.25,-342.14"/>
<text text-anchor="middle" x="1624.38" y="-328.64" font-family="Helvetica,sans-Serif" font-size="10.00">Ark::internal::MacroProcessor</text>
</a>
</g>
</g>
<!-- Node2&#45;&gt;Node1 -->
<g id="edge1_Node000001_Node000002" class="edge">
<title>Node2&#45;&gt;Node1</title>
<g id="a_edge1_Node000001_Node000002"><a xlink:title=" ">
<path fill="none" stroke="#9a32cd" stroke-dasharray="5,2" d="M1610.12,-351.55C1584.91,-385.72 1526.3,-456.13 1456.25,-479.52 1227.71,-555.84 935.34,-531.35 805.05,-514.63"/>
<polygon fill="#9a32cd" stroke="#9a32cd" points="1612.7,-353.95 1615.7,-343.79 1607.01,-349.86 1612.7,-353.95"/>
</a>
</g>
<text text-anchor="middle" x="1198.38" y="-532.4" font-family="Helvetica,sans-Serif" font-size="10.00" fill="grey"> m_processor</text>
</g>
<!-- Node3 -->
<g id="Node000003" class="node">
<title>Node3</title>
<g id="a_Node000003"><a xlink:href="../../da/d7b/classArk_1_1internal_1_1Pass.html" target="_top" xlink:title="An interface to describe compiler passes.">
<polygon fill="white" stroke="#666666" points="1413.12,-159.14 1316.12,-159.14 1316.12,-139.89 1413.12,-139.89 1413.12,-159.14"/>
<text text-anchor="middle" x="1364.62" y="-145.64" font-family="Helvetica,sans-Serif" font-size="10.00">Ark::internal::Pass</text>
</a>
</g>
</g>
<!-- Node3&#45;&gt;Node2 -->
<g id="edge2_Node000002_Node000003" class="edge">
<title>Node3&#45;&gt;Node2</title>
<g id="a_edge2_Node000002_Node000003"><a xlink:title=" ">
<path fill="none" stroke="#63b8ff" d="M1424.77,-150.39C1459.21,-153.53 1501.94,-162.21 1533.5,-184.52 1584.56,-220.61 1611.98,-295.76 1620.47,-322.67"/>
<polygon fill="#63b8ff" stroke="#63b8ff" points="1425.18,-146.91 1414.94,-149.64 1424.64,-153.89 1425.18,-146.91"/>
</a>
</g>
</g>
<!-- Node4 -->
<g id="Node000004" class="node">
<title>Node4</title>
<g id="a_Node000004"><a xlink:href="../../d6/d2f/classArk_1_1internal_1_1Logger.html" target="_top" xlink:title=" ">
<polygon fill="white" stroke="#666666" points="1108.38,-88.14 1004.62,-88.14 1004.62,-68.89 1108.38,-68.89 1108.38,-88.14"/>
<text text-anchor="middle" x="1056.5" y="-74.64" font-family="Helvetica,sans-Serif" font-size="10.00">Ark::internal::Logger</text>
</a>
</g>
</g>
<!-- Node4&#45;&gt;Node3 -->
<g id="edge3_Node000003_Node000004" class="edge">
<title>Node4&#45;&gt;Node3</title>
<g id="a_edge3_Node000003_Node000004"><a xlink:title=" ">
<path fill="none" stroke="#9a32cd" stroke-dasharray="5,2" d="M1112.09,-91.18C1171.58,-104.98 1265.57,-126.78 1320.24,-139.46"/>
<polygon fill="#9a32cd" stroke="#9a32cd" points="1113.04,-87.81 1102.51,-88.96 1111.46,-94.63 1113.04,-87.81"/>
</a>
</g>
<text text-anchor="middle" x="1198.38" y="-124.22" font-family="Helvetica,sans-Serif" font-size="10.00" fill="grey"> m_logger</text>
</g>
<!-- Node5 -->
<g id="Node000005" class="node">
<title>Node5</title>
<g id="a_Node000005"><a xlink:title=" ">
<polygon fill="white" stroke="#666666" points="252.12,-124.14 192.62,-124.14 192.62,-104.89 252.12,-104.89 252.12,-124.14"/>
<text text-anchor="middle" x="222.38" y="-110.64" font-family="Helvetica,sans-Serif" font-size="10.00">std::string</text>
</a>
</g>
</g>
<!-- Node5&#45;&gt;Node4 -->
<g id="edge4_Node000004_Node000005" class="edge">
<title>Node5&#45;&gt;Node4</title>
<g id="a_edge4_Node000004_Node000005"><a xlink:title=" ">
<path fill="none" stroke="#9a32cd" stroke-dasharray="5,2" d="M243.28,-97.39C257.39,-86.04 277.2,-71.62 296.75,-62.52 338.28,-43.18 351.66,-45.93 396.5,-36.52 575.99,1.15 626.62,10.01 808.5,-13.52 889.41,-23.99 981.62,-52.99 1027.08,-68.47"/>
<polygon fill="#9a32cd" stroke="#9a32cd" points="241.15,-94.61 235.67,-103.69 245.61,-100.01 241.15,-94.61"/>
</a>
</g>
<text text-anchor="middle" x="581.25" y="-14.18" font-family="Helvetica,sans-Serif" font-size="10.00" fill="grey"> m_name</text>
</g>
<!-- Node7 -->
<g id="Node000007" class="node">
<title>Node7</title>
<g id="a_Node000007"><a xlink:title=" ">
<polygon fill="white" stroke="#666666" points="797.38,-86.64 674.88,-86.64 674.88,-22.39 797.38,-22.39 797.38,-86.64"/>
<text text-anchor="start" x="682.88" y="-73.14" font-family="Helvetica,sans-Serif" font-size="10.00">std::unordered_map</text>
<text text-anchor="start" x="682.88" y="-61.89" font-family="Helvetica,sans-Serif" font-size="10.00">&lt; std::string, std::</text>
<text text-anchor="start" x="682.88" y="-50.64" font-family="Helvetica,sans-Serif" font-size="10.00">chrono::time_point&lt; std</text>
<text text-anchor="start" x="682.88" y="-39.39" font-family="Helvetica,sans-Serif" font-size="10.00">::chrono::high_resolution</text>
<text text-anchor="middle" x="736.12" y="-28.14" font-family="Helvetica,sans-Serif" font-size="10.00">_clock &gt; &gt;</text>
</a>
</g>
</g>
<!-- Node5&#45;&gt;Node7 -->
<g id="edge7_Node000007_Node000005" class="edge">
<title>Node5&#45;&gt;Node7</title>
<g id="a_edge7_Node000007_Node000005"><a xlink:title=" ">
<path fill="none" stroke="#9a32cd" stroke-dasharray="5,2" d="M262.39,-100.84C318,-82.14 423.67,-49.53 516.75,-37.52 573.61,-30.18 588.67,-32.14 645.75,-37.52 655.18,-38.41 665.11,-39.82 674.77,-41.45"/>
<polygon fill="#9a32cd" stroke="#9a32cd" points="261.4,-97.48 253.06,-104.01 263.65,-104.11 261.4,-97.48"/>
</a>
</g>
<text text-anchor="middle" x="447.62" y="-62.4" font-family="Helvetica,sans-Serif" font-size="10.00" fill="grey"> keys</text>
</g>
<!-- Node11 -->
<g id="Node000011" class="node">
<title>Node11</title>
<g id="a_Node000011"><a xlink:title=" ">
<polygon fill="white" stroke="#666666" points="798.12,-124.14 674.12,-124.14 674.12,-104.89 798.12,-104.89 798.12,-124.14"/>
<text text-anchor="middle" x="736.12" y="-110.64" font-family="Helvetica,sans-Serif" font-size="10.00">std::vector&lt; std::string &gt;</text>
</a>
</g>
</g>
<!-- Node5&#45;&gt;Node11 -->
<g id="edge12_Node000011_Node000005" class="edge">
<title>Node5&#45;&gt;Node11</title>
<g id="a_edge12_Node000011_Node000005"><a xlink:title=" ">
<path fill="none" stroke="#9a32cd" stroke-dasharray="5,2" d="M263.6,-114.52C352.88,-114.52 568.07,-114.52 674.05,-114.52"/>
<polygon fill="#9a32cd" stroke="#9a32cd" points="263.87,-111.02 253.87,-114.52 263.87,-118.02 263.87,-111.02"/>
</a>
</g>
<text text-anchor="middle" x="447.62" y="-116.27" font-family="Helvetica,sans-Serif" font-size="10.00" fill="grey"> elements</text>
</g>
<!-- Node13 -->
<g id="Node000013" class="node">
<title>Node13</title>
<g id="a_Node000013"><a xlink:href="../../dc/d9e/classArk_1_1internal_1_1Node.html" target="_top" xlink:title="A node of an Abstract Syntax Tree for ArkScript.">
<polygon fill="white" stroke="#666666" points="496.5,-241.14 398.75,-241.14 398.75,-221.89 496.5,-221.89 496.5,-241.14"/>
<text text-anchor="middle" x="447.62" y="-227.64" font-family="Helvetica,sans-Serif" font-size="10.00">Ark::internal::Node</text>
</a>
</g>
</g>
<!-- Node5&#45;&gt;Node13 -->
<g id="edge18_Node000013_Node000005" class="edge">
<title>Node5&#45;&gt;Node13</title>
<g id="a_edge18_Node000013_Node000005"><a xlink:title=" ">
<path fill="none" stroke="#9a32cd" stroke-dasharray="5,2" d="M237.96,-133.17C251.49,-149.2 273.07,-171.69 296.75,-184.52 329.57,-202.3 342.94,-192.42 378.5,-203.77 394.19,-208.78 411.37,-215.79 424.55,-221.51"/>
<polygon fill="#9a32cd" stroke="#9a32cd" points="240.95,-131.31 231.92,-125.78 235.53,-135.74 240.95,-131.31"/>
</a>
</g>
<text text-anchor="middle" x="337.62" y="-228.02" font-family="Helvetica,sans-Serif" font-size="10.00" fill="grey"> m_after_comment</text>
<text text-anchor="middle" x="337.62" y="-216.77" font-family="Helvetica,sans-Serif" font-size="10.00" fill="grey">m_comment</text>
<text text-anchor="middle" x="337.62" y="-205.52" font-family="Helvetica,sans-Serif" font-size="10.00" fill="grey">m_filename</text>
</g>
<!-- Node18 -->
<g id="Node000018" class="node">
<title>Node18</title>
<g id="a_Node000018"><a xlink:title=" ">
<polygon fill="white" stroke="#666666" points="787.25,-268.39 685,-268.39 685,-226.64 787.25,-226.64 787.25,-268.39"/>
<text text-anchor="start" x="693" y="-254.89" font-family="Helvetica,sans-Serif" font-size="10.00">std::unordered_map</text>
<text text-anchor="start" x="693" y="-243.64" font-family="Helvetica,sans-Serif" font-size="10.00">&lt; std::string, Ark::</text>
<text text-anchor="middle" x="736.12" y="-232.39" font-family="Helvetica,sans-Serif" font-size="10.00">internal::Node &gt;</text>
</a>
</g>
</g>
<!-- Node5&#45;&gt;Node18 -->
<g id="edge22_Node000018_Node000005" class="edge">
<title>Node5&#45;&gt;Node18</title>
<g id="a_edge22_Node000018_Node000005"><a xlink:title=" ">
<path fill="none" stroke="#9a32cd" stroke-dasharray="5,2" d="M263.43,-124.93C355.64,-148.9 582.83,-207.94 684.5,-234.36"/>
<polygon fill="#9a32cd" stroke="#9a32cd" points="264.38,-121.56 253.82,-122.43 262.62,-128.34 264.38,-121.56"/>
</a>
</g>
<text text-anchor="middle" x="447.62" y="-187.2" font-family="Helvetica,sans-Serif" font-size="10.00" fill="grey"> keys</text>
</g>
<!-- Node6 -->
<g id="Node000006" class="node">
<title>Node6</title>
<g id="a_Node000006"><a xlink:title=" ">
<polygon fill="white" stroke="#666666" points="100.75,-129.77 6.75,-129.77 6.75,-99.27 100.75,-99.27 100.75,-129.77"/>
<text text-anchor="start" x="14.75" y="-116.27" font-family="Helvetica,sans-Serif" font-size="10.00">std::basic_string&lt;</text>
<text text-anchor="middle" x="53.75" y="-105.02" font-family="Helvetica,sans-Serif" font-size="10.00"> Char &gt;</text>
</a>
</g>
</g>
<!-- Node6&#45;&gt;Node5 -->
<g id="edge5_Node000005_Node000006" class="edge">
<title>Node6&#45;&gt;Node5</title>
<g id="a_edge5_Node000005_Node000006"><a xlink:title=" ">
<path fill="none" stroke="#63b8ff" d="M112.42,-114.52C139.35,-114.52 170.23,-114.52 192.22,-114.52"/>
<polygon fill="#63b8ff" stroke="#63b8ff" points="112.68,-111.02 102.68,-114.52 112.68,-118.02 112.68,-111.02"/>
</a>
</g>
</g>
<!-- Node7&#45;&gt;Node4 -->
<g id="edge6_Node000004_Node000007" class="edge">
<title>Node7&#45;&gt;Node4</title>
<g id="a_edge6_Node000004_Node000007"><a xlink:title=" ">
<path fill="none" stroke="#9a32cd" stroke-dasharray="5,2" d="M808.94,-59.93C868.39,-64.41 951.38,-70.67 1004.29,-74.66"/>
<polygon fill="#9a32cd" stroke="#9a32cd" points="809.5,-56.47 799.27,-59.2 808.98,-63.45 809.5,-56.47"/>
</a>
</g>
<text text-anchor="middle" x="898.88" y="-73.83" font-family="Helvetica,sans-Serif" font-size="10.00" fill="grey"> m_trace_starts</text>
</g>
<!-- Node8 -->
<g id="Node000008" class="node">
<title>Node8</title>
<g id="a_Node000008"><a xlink:title=" ">
<polygon fill="white" stroke="#666666" points="498.75,-300.77 396.5,-300.77 396.5,-270.27 498.75,-270.27 498.75,-300.77"/>
<text text-anchor="start" x="404.5" y="-287.27" font-family="Helvetica,sans-Serif" font-size="10.00">std::unordered_map</text>
<text text-anchor="middle" x="447.62" y="-276.02" font-family="Helvetica,sans-Serif" font-size="10.00">&lt; K, T &gt;</text>
</a>
</g>
</g>
<!-- Node8&#45;&gt;Node7 -->
<g id="edge8_Node000007_Node000008" class="edge">
<title>Node8&#45;&gt;Node7</title>
<g id="a_edge8_Node000007_Node000008"><a xlink:title=" ">
<path fill="none" stroke="orange" stroke-dasharray="5,2" d="M488.41,-262.98C492.43,-259.29 496.03,-255.13 498.75,-250.52 518.06,-217.81 490.06,-107.56 516.75,-80.52 556.98,-39.76 625.04,-37.84 674.5,-43.24"/>
<polygon fill="orange" stroke="orange" points="486.52,-260.01 480.88,-268.99 490.88,-265.49 486.52,-260.01"/>
</a>
</g>
<text text-anchor="start" x="516.75" y="-116.02" font-family="Helvetica,sans-Serif" font-size="10.00" fill="grey"> &lt; std::string, std</text>
<text text-anchor="start" x="516.75" y="-104.77" font-family="Helvetica,sans-Serif" font-size="10.00" fill="grey">::chrono::time_point</text>
<text text-anchor="start" x="516.75" y="-93.52" font-family="Helvetica,sans-Serif" font-size="10.00" fill="grey">&lt; std::chrono::high_resolution</text>
<text text-anchor="middle" x="581.25" y="-82.27" font-family="Helvetica,sans-Serif" font-size="10.00" fill="grey">_clock &gt; &gt;</text>
</g>
<!-- Node8&#45;&gt;Node18 -->
<g id="edge24_Node000018_Node000008" class="edge">
<title>Node8&#45;&gt;Node18</title>
<g id="a_edge24_Node000018_Node000008"><a xlink:title=" ">
<path fill="none" stroke="orange" stroke-dasharray="5,2" d="M510.16,-268.29C512.38,-267.83 514.58,-267.41 516.75,-267.02 573.89,-256.79 640.44,-251.83 684.92,-249.49"/>
<polygon fill="orange" stroke="orange" points="509.47,-264.86 500.47,-270.45 510.99,-271.69 509.47,-264.86"/>
</a>
</g>
<text text-anchor="start" x="543.38" y="-280.02" font-family="Helvetica,sans-Serif" font-size="10.00" fill="grey"> &lt; std::string, Ark</text>
<text text-anchor="middle" x="581.25" y="-268.77" font-family="Helvetica,sans-Serif" font-size="10.00" fill="grey">::internal::Node &gt;</text>
</g>
<!-- Node9 -->
<g id="Node000009" class="node">
<title>Node9</title>
<g id="a_Node000009"><a xlink:title=" ">
<polygon fill="white" stroke="#666666" points="236.78,-308.14 207.97,-308.14 207.97,-288.89 236.78,-288.89 236.78,-308.14"/>
<text text-anchor="middle" x="222.38" y="-294.64" font-family="Helvetica,sans-Serif" font-size="10.00">K</text>
</a>
</g>
</g>
<!-- Node9&#45;&gt;Node8 -->
<g id="edge9_Node000008_Node000009" class="edge">
<title>Node9&#45;&gt;Node8</title>
<g id="a_edge9_Node000008_Node000009"><a xlink:title=" ">
<path fill="none" stroke="#9a32cd" stroke-dasharray="5,2" d="M248.25,-297.07C283.9,-295 350.32,-291.13 396.42,-288.44"/>
<polygon fill="#9a32cd" stroke="#9a32cd" points="248.29,-293.56 238.52,-297.64 248.7,-300.55 248.29,-293.56"/>
</a>
</g>
<text text-anchor="middle" x="337.62" y="-295.69" font-family="Helvetica,sans-Serif" font-size="10.00" fill="grey"> keys</text>
</g>
<!-- Node10 -->
<g id="Node000010" class="node">
<title>Node10</title>
<g id="a_Node000010"><a xlink:title=" ">
<polygon fill="white" stroke="#666666" points="236.78,-379.14 207.97,-379.14 207.97,-359.89 236.78,-359.89 236.78,-379.14"/>
<text text-anchor="middle" x="222.38" y="-365.64" font-family="Helvetica,sans-Serif" font-size="10.00">T</text>
</a>
</g>
</g>
<!-- Node10&#45;&gt;Node8 -->
<g id="edge10_Node000008_Node000010" class="edge">
<title>Node10&#45;&gt;Node8</title>
<g id="a_edge10_Node000008_Node000010"><a xlink:title=" ">
<path fill="none" stroke="#9a32cd" stroke-dasharray="5,2" d="M247.5,-360.44C285.26,-346.24 358.77,-318.58 405.14,-301.13"/>
<polygon fill="#9a32cd" stroke="#9a32cd" points="246.55,-357.06 238.42,-363.86 249.01,-363.61 246.55,-357.06"/>
</a>
</g>
<text text-anchor="middle" x="337.62" y="-341.7" font-family="Helvetica,sans-Serif" font-size="10.00" fill="grey"> elements</text>
</g>
<!-- Node12 -->
<g id="Node000012" class="node">
<title>Node12</title>
<g id="a_Node000012"><a xlink:title=" ">
<polygon fill="white" stroke="#666666" points="490.88,-379.14 404.38,-379.14 404.38,-359.89 490.88,-359.89 490.88,-379.14"/>
<text text-anchor="middle" x="447.62" y="-365.64" font-family="Helvetica,sans-Serif" font-size="10.00">std::vector&lt; T &gt;</text>
</a>
</g>
</g>
<!-- Node10&#45;&gt;Node12 -->
<g id="edge14_Node000012_Node000010" class="edge">
<title>Node10&#45;&gt;Node12</title>
<g id="a_edge14_Node000012_Node000010"><a xlink:title=" ">
<path fill="none" stroke="#9a32cd" stroke-dasharray="5,2" d="M248.41,-369.52C286.19,-369.52 358.21,-369.52 404.25,-369.52"/>
<polygon fill="#9a32cd" stroke="#9a32cd" points="248.52,-366.02 238.52,-369.52 248.52,-373.02 248.52,-366.02"/>
</a>
</g>
<text text-anchor="middle" x="337.62" y="-371.27" font-family="Helvetica,sans-Serif" font-size="10.00" fill="grey"> elements</text>
</g>
<!-- Node21 -->
<g id="Node000021" class="node">
<title>Node21</title>
<g id="a_Node000021"><a xlink:title=" ">
<polygon fill="white" stroke="#666666" points="633.88,-455.14 528.62,-455.14 528.62,-435.89 633.88,-435.89 633.88,-455.14"/>
<text text-anchor="middle" x="581.25" y="-441.64" font-family="Helvetica,sans-Serif" font-size="10.00">std::shared_ptr&lt; T &gt;</text>
</a>
</g>
</g>
<!-- Node10&#45;&gt;Node21 -->
<g id="edge32_Node000021_Node000010" class="edge">
<title>Node10&#45;&gt;Node21</title>
<g id="a_edge32_Node000021_Node000010"><a xlink:title=" ">
<path fill="none" stroke="#9a32cd" stroke-dasharray="5,2" d="M248.04,-374.77C306.84,-387.29 456.02,-419.06 532.88,-435.43"/>
<polygon fill="#9a32cd" stroke="#9a32cd" points="248.92,-371.38 238.41,-372.72 247.46,-378.23 248.92,-371.38"/>
</a>
</g>
<text text-anchor="middle" x="337.62" y="-402.78" font-family="Helvetica,sans-Serif" font-size="10.00" fill="grey"> ptr</text>
</g>
<!-- Node11&#45;&gt;Node4 -->
<g id="edge11_Node000004_Node000011" class="edge">
<title>Node11&#45;&gt;Node4</title>
<g id="a_edge11_Node000004_Node000011"><a xlink:title=" ">
<path fill="none" stroke="#9a32cd" stroke-dasharray="5,2" d="M809.69,-106.31C869.08,-99.6 951.6,-90.27 1004.28,-84.31"/>
<polygon fill="#9a32cd" stroke="#9a32cd" points="809.56,-102.81 800.01,-107.41 810.34,-109.76 809.56,-102.81"/>
</a>
</g>
<text text-anchor="middle" x="898.88" y="-105.63" font-family="Helvetica,sans-Serif" font-size="10.00" fill="grey"> m_active_traces</text>
</g>
<!-- Node12&#45;&gt;Node11 -->
<g id="edge13_Node000011_Node000012" class="edge">
<title>Node12&#45;&gt;Node11</title>
<g id="a_edge13_Node000011_Node000012"><a xlink:title=" ">
<path fill="none" stroke="orange" stroke-dasharray="5,2" d="M467.78,-351.67C478.54,-340.57 491.26,-325.41 498.75,-309.52 517.3,-270.15 489.88,-247.5 516.75,-213.27 556.83,-162.21 629.15,-136.71 679.54,-124.58"/>
<polygon fill="orange" stroke="orange" points="465.44,-349.06 460.79,-358.58 470.36,-354.04 465.44,-349.06"/>
</a>
</g>
<text text-anchor="middle" x="581.25" y="-215.02" font-family="Helvetica,sans-Serif" font-size="10.00" fill="grey"> &lt; std::string &gt;</text>
</g>
<!-- Node16 -->
<g id="Node000016" class="node">
<title>Node16</title>
<g id="a_Node000016"><a xlink:title=" ">
<polygon fill="white" stroke="#666666" points="1426.25,-369.77 1303,-369.77 1303,-339.27 1426.25,-339.27 1426.25,-369.77"/>
<text text-anchor="start" x="1311" y="-356.27" font-family="Helvetica,sans-Serif" font-size="10.00">std::vector&lt; Ark::internal</text>
<text text-anchor="middle" x="1364.62" y="-345.02" font-family="Helvetica,sans-Serif" font-size="10.00">::MacroScope &gt;</text>
</a>
</g>
</g>
<!-- Node12&#45;&gt;Node16 -->
<g id="edge25_Node000016_Node000012" class="edge">
<title>Node12&#45;&gt;Node16</title>
<g id="a_edge25_Node000016_Node000012"><a xlink:title=" ">
<path fill="none" stroke="orange" stroke-dasharray="5,2" d="M502.16,-368.96C631.52,-367.55 971.35,-363.55 1255,-357.52 1270.47,-357.19 1287.17,-356.77 1302.73,-356.34"/>
<polygon fill="orange" stroke="orange" points="502.51,-365.45 492.55,-369.06 502.58,-372.45 502.51,-365.45"/>
</a>
</g>
<text text-anchor="middle" x="898.88" y="-366.56" font-family="Helvetica,sans-Serif" font-size="10.00" fill="grey"> &lt; Ark::internal::MacroScope &gt;</text>
</g>
<!-- Node19 -->
<g id="Node000019" class="node">
<title>Node19</title>
<g id="a_Node000019"><a xlink:title=" ">
<polygon fill="white" stroke="#666666" points="797.75,-328.77 674.5,-328.77 674.5,-298.27 797.75,-298.27 797.75,-328.77"/>
<text text-anchor="start" x="682.5" y="-315.27" font-family="Helvetica,sans-Serif" font-size="10.00">std::vector&lt; Ark::internal</text>
<text text-anchor="middle" x="736.12" y="-304.02" font-family="Helvetica,sans-Serif" font-size="10.00">::Node &gt;</text>
</a>
</g>
</g>
<!-- Node12&#45;&gt;Node19 -->
<g id="edge28_Node000019_Node000012" class="edge">
<title>Node12&#45;&gt;Node19</title>
<g id="a_edge28_Node000019_Node000012"><a xlink:title=" ">
<path fill="none" stroke="orange" stroke-dasharray="5,2" d="M485.06,-355.73C495.21,-352.26 506.32,-348.81 516.75,-346.27 545.76,-339.21 620.3,-328.62 674.23,-321.4"/>
<polygon fill="orange" stroke="orange" points="484.2,-352.33 475.93,-358.96 486.52,-358.93 484.2,-352.33"/>
</a>
</g>
<text text-anchor="middle" x="581.25" y="-348.02" font-family="Helvetica,sans-Serif" font-size="10.00" fill="grey"> &lt; Ark::internal::Node &gt;</text>
</g>
<!-- Node22 -->
<g id="Node000022" class="node">
<title>Node22</title>
<g id="a_Node000022"><a xlink:title=" ">
<polygon fill="white" stroke="#666666" points="1456.25,-424.77 1273,-424.77 1273,-394.27 1456.25,-394.27 1456.25,-424.77"/>
<text text-anchor="start" x="1281" y="-411.27" font-family="Helvetica,sans-Serif" font-size="10.00">std::vector&lt; std::shared</text>
<text text-anchor="middle" x="1364.62" y="-400.02" font-family="Helvetica,sans-Serif" font-size="10.00">_ptr&lt; Ark::internal::MacroExecutor &gt; &gt;</text>
</a>
</g>
</g>
<!-- Node12&#45;&gt;Node22 -->
<g id="edge35_Node000022_Node000012" class="edge">
<title>Node12&#45;&gt;Node22</title>
<g id="a_edge35_Node000022_Node000012"><a xlink:title=" ">
<path fill="none" stroke="orange" stroke-dasharray="5,2" d="M502.5,-380.6C507.3,-381.35 512.11,-382.01 516.75,-382.52 790.71,-412.84 1117.32,-413.24 1272.74,-411.28"/>
<polygon fill="orange" stroke="orange" points="503.29,-377.19 492.84,-378.98 502.13,-384.09 503.29,-377.19"/>
</a>
</g>
<text text-anchor="start" x="826.5" y="-422.73" font-family="Helvetica,sans-Serif" font-size="10.00" fill="grey"> &lt; std::shared_ptr&lt;</text>
<text text-anchor="middle" x="898.88" y="-411.48" font-family="Helvetica,sans-Serif" font-size="10.00" fill="grey"> Ark::internal::MacroExecutor &gt; &gt;</text>
</g>
<!-- Node13&#45;&gt;Node2 -->
<g id="edge15_Node000002_Node000013" class="edge">
<title>Node13&#45;&gt;Node2</title>
<g id="a_edge15_Node000002_Node000013"><a xlink:title=" ">
<path fill="none" stroke="#9a32cd" stroke-dasharray="5,2" d="M507.95,-220.67C565.73,-211.05 656.15,-198.52 735.12,-198.52 735.12,-198.52 735.12,-198.52 1365.62,-198.52 1473.05,-198.52 1580.15,-291.28 1613.09,-322.45"/>
<polygon fill="#9a32cd" stroke="#9a32cd" points="507.61,-217.17 498.33,-222.29 508.78,-224.08 507.61,-217.17"/>
</a>
</g>
<text text-anchor="middle" x="1056.5" y="-200.27" font-family="Helvetica,sans-Serif" font-size="10.00" fill="grey"> m_ast</text>
</g>
<!-- Node13&#45;&gt;Node18 -->
<g id="edge23_Node000018_Node000013" class="edge">
<title>Node13&#45;&gt;Node18</title>
<g id="a_edge23_Node000018_Node000013"><a xlink:title=" ">
<path fill="none" stroke="#9a32cd" stroke-dasharray="5,2" d="M508.38,-229.19C547.52,-228.29 599.77,-228.29 645.75,-232.27 658.45,-233.37 672.06,-235.3 684.74,-237.43"/>
<polygon fill="#9a32cd" stroke="#9a32cd" points="508.35,-225.69 498.44,-229.45 508.53,-232.69 508.35,-225.69"/>
</a>
</g>
<text text-anchor="middle" x="581.25" y="-234.02" font-family="Helvetica,sans-Serif" font-size="10.00" fill="grey"> elements</text>
</g>
<!-- Node13&#45;&gt;Node19 -->
<g id="edge27_Node000019_Node000013" class="edge">
<title>Node13&#45;&gt;Node19</title>
<g id="a_edge27_Node000019_Node000013"><a xlink:title=" ">
<path fill="none" stroke="#9a32cd" stroke-dasharray="5,2" d="M479.75,-247.11C486.44,-251.26 493.17,-256.12 498.75,-261.52 509.38,-271.81 504.17,-281.73 516.75,-289.52 529.9,-297.66 614.1,-305.13 674.01,-309.5"/>
<polygon fill="#9a32cd" stroke="#9a32cd" points="481.84,-244.27 471.43,-242.3 478.34,-250.33 481.84,-244.27"/>
</a>
</g>
<text text-anchor="middle" x="581.25" y="-308.61" font-family="Helvetica,sans-Serif" font-size="10.00" fill="grey"> elements</text>
</g>
<!-- Node14 -->
<g id="Node000014" class="node">
<title>Node14</title>
<g id="a_Node000014"><a xlink:href="../../dc/dda/structArk_1_1internal_1_1FileSpan.html" target="_top" xlink:title="Describes a span for a node/atom in a file, its start position and end position.">
<polygon fill="white" stroke="#666666" points="278.75,-271.14 166,-271.14 166,-251.89 278.75,-251.89 278.75,-271.14"/>
<text text-anchor="middle" x="222.38" y="-257.64" font-family="Helvetica,sans-Serif" font-size="10.00">Ark::internal::FileSpan</text>
</a>
</g>
</g>
<!-- Node14&#45;&gt;Node13 -->
<g id="edge16_Node000013_Node000014" class="edge">
<title>Node14&#45;&gt;Node13</title>
<g id="a_edge16_Node000013_Node000014"><a xlink:title=" ">
<path fill="none" stroke="#9a32cd" stroke-dasharray="5,2" d="M290.46,-253.13C317.78,-249.65 349.67,-245.49 378.5,-241.52 384.89,-240.64 391.62,-239.68 398.26,-238.73"/>
<polygon fill="#9a32cd" stroke="#9a32cd" points="290.03,-249.66 280.55,-254.39 290.91,-256.6 290.03,-249.66"/>
</a>
</g>
<text text-anchor="middle" x="337.62" y="-253.9" font-family="Helvetica,sans-Serif" font-size="10.00" fill="grey"> m_pos</text>
</g>
<!-- Node15 -->
<g id="Node000015" class="node">
<title>Node15</title>
<g id="a_Node000015"><a xlink:href="../../d7/df6/structArk_1_1internal_1_1FilePos.html" target="_top" xlink:title=" ">
<polygon fill="white" stroke="#666666" points="107.5,-271.14 0,-271.14 0,-251.89 107.5,-251.89 107.5,-271.14"/>
<text text-anchor="middle" x="53.75" y="-257.64" font-family="Helvetica,sans-Serif" font-size="10.00">Ark::internal::FilePos</text>
</a>
</g>
</g>
<!-- Node15&#45;&gt;Node14 -->
<g id="edge17_Node000014_Node000015" class="edge">
<title>Node15&#45;&gt;Node14</title>
<g id="a_edge17_Node000014_Node000015"><a xlink:title=" ">
<path fill="none" stroke="#9a32cd" stroke-dasharray="5,2" d="M119.37,-261.52C134.61,-261.52 150.73,-261.52 165.54,-261.52"/>
<polygon fill="#9a32cd" stroke="#9a32cd" points="119.44,-258.02 109.44,-261.52 119.44,-265.02 119.44,-258.02"/>
</a>
</g>
<text text-anchor="middle" x="136.75" y="-263.27" font-family="Helvetica,sans-Serif" font-size="10.00" fill="grey"> start</text>
</g>
<!-- Node16&#45;&gt;Node2 -->
<g id="edge19_Node000002_Node000016" class="edge">
<title>Node16&#45;&gt;Node2</title>
<g id="a_edge19_Node000002_Node000016"><a xlink:title=" ">
<path fill="none" stroke="#9a32cd" stroke-dasharray="5,2" d="M1437.94,-348.35C1473.36,-345.32 1515.9,-341.69 1551.29,-338.67"/>
<polygon fill="#9a32cd" stroke="#9a32cd" points="1437.88,-344.84 1428.22,-349.18 1438.48,-351.81 1437.88,-344.84"/>
</a>
</g>
<text text-anchor="middle" x="1503.88" y="-346.59" font-family="Helvetica,sans-Serif" font-size="10.00" fill="grey"> m_macros</text>
</g>
<!-- Node17 -->
<g id="Node000017" class="node">
<title>Node17</title>
<g id="a_Node000017"><a xlink:href="../../d6/d42/classArk_1_1internal_1_1MacroScope.html" target="_top" xlink:title=" ">
<polygon fill="white" stroke="#666666" points="1121.12,-285.14 991.88,-285.14 991.88,-265.89 1121.12,-265.89 1121.12,-285.14"/>
<text text-anchor="middle" x="1056.5" y="-271.64" font-family="Helvetica,sans-Serif" font-size="10.00">Ark::internal::MacroScope</text>
</a>
</g>
</g>
<!-- Node17&#45;&gt;Node16 -->
<g id="edge20_Node000016_Node000017" class="edge">
<title>Node17&#45;&gt;Node16</title>
<g id="a_edge20_Node000016_Node000017"><a xlink:title=" ">
<path fill="none" stroke="#9a32cd" stroke-dasharray="5,2" d="M1080.58,-291.87C1096.9,-302.61 1119.71,-316.01 1141.75,-323.52 1170.65,-333.37 1247.55,-342.79 1302.71,-348.61"/>
<polygon fill="#9a32cd" stroke="#9a32cd" points="1082.82,-289.16 1072.57,-286.45 1078.89,-294.96 1082.82,-289.16"/>
</a>
</g>
<text text-anchor="middle" x="1198.38" y="-344.64" font-family="Helvetica,sans-Serif" font-size="10.00" fill="grey"> elements</text>
</g>
<!-- Node18&#45;&gt;Node2 -->
<g id="edge36_Node000002_Node000018" class="edge">
<title>Node18&#45;&gt;Node2</title>
<g id="a_edge36_Node000002_Node000018"><a xlink:title=" ">
<path fill="none" stroke="#9a32cd" stroke-dasharray="5,2" d="M798.63,-248.31C845.86,-248.98 912.68,-250.06 971.25,-251.52 1039.04,-253.21 1056.21,-250.41 1123.75,-256.52 1307.12,-273.12 1351.63,-288.81 1533.5,-317.52 1543.34,-319.07 1553.79,-320.77 1563.94,-322.45"/>
<polygon fill="#9a32cd" stroke="#9a32cd" points="798.93,-244.81 788.88,-248.17 798.83,-251.81 798.93,-244.81"/>
</a>
</g>
<text text-anchor="middle" x="1198.38" y="-272.54" font-family="Helvetica,sans-Serif" font-size="10.00" fill="grey"> m_defined_functions</text>
</g>
<!-- Node18&#45;&gt;Node17 -->
<g id="edge21_Node000017_Node000018" class="edge">
<title>Node18&#45;&gt;Node17</title>
<g id="a_edge21_Node000017_Node000018"><a xlink:title=" ">
<path fill="none" stroke="#9a32cd" stroke-dasharray="5,2" d="M799,-252.96C854.46,-257.84 935.48,-264.96 991.56,-269.9"/>
<polygon fill="#9a32cd" stroke="#9a32cd" points="799.35,-249.48 789.08,-252.09 798.74,-256.45 799.35,-249.48"/>
</a>
</g>
<text text-anchor="middle" x="898.88" y="-269.76" font-family="Helvetica,sans-Serif" font-size="10.00" fill="grey"> m_macros</text>
</g>
<!-- Node19&#45;&gt;Node2 -->
<g id="edge26_Node000002_Node000019" class="edge">
<title>Node19&#45;&gt;Node2</title>
<g id="a_edge26_Node000002_Node000019"><a xlink:title=" ">
<path fill="none" stroke="#9a32cd" stroke-dasharray="5,2" d="M809.62,-311.4C909.78,-308.85 1096.15,-305.48 1255,-310.27 1357.95,-313.38 1476.86,-321.35 1551.09,-326.86"/>
<polygon fill="#9a32cd" stroke="#9a32cd" points="809.55,-307.9 799.64,-311.66 809.73,-314.9 809.55,-307.9"/>
</a>
</g>
<text text-anchor="middle" x="1198.38" y="-312.02" font-family="Helvetica,sans-Serif" font-size="10.00" fill="grey"> m_macros_being_applied</text>
</g>
<!-- Node20&#45;&gt;Node2 -->
<g id="edge29_Node000002_Node000020" class="edge">
<title>Node20&#45;&gt;Node2</title>
<g id="a_edge29_Node000002_Node000020"><a xlink:title=" ">
<path fill="none" stroke="#9a32cd" stroke-dasharray="5,2" d="M1135.5,-466.92C1217.26,-469.22 1348.56,-466.35 1456.25,-433.52 1520.78,-413.84 1585.97,-363.73 1611.81,-342.39"/>
<polygon fill="#9a32cd" stroke="#9a32cd" points="1135.67,-463.42 1125.57,-466.6 1135.45,-470.42 1135.67,-463.42"/>
</a>
</g>
<text text-anchor="middle" x="1364.62" y="-465.82" font-family="Helvetica,sans-Serif" font-size="10.00" fill="grey"> m_conditional_executor</text>
</g>
<!-- Node20&#45;&gt;Node22 -->
<g id="edge34_Node000022_Node000020" class="edge">
<title>Node20&#45;&gt;Node22</title>
<g id="a_edge34_Node000022_Node000020"><a xlink:title=" ">
<path fill="none" stroke="#9a32cd" stroke-dasharray="5,2" d="M1135.21,-444.54C1137.41,-444.11 1139.59,-443.68 1141.75,-443.27 1184.62,-435.12 1232.45,-427.64 1272.69,-421.81"/>
<polygon fill="#9a32cd" stroke="#9a32cd" points="1134.66,-441.08 1125.57,-446.52 1136.07,-447.94 1134.66,-441.08"/>
</a>
</g>
<text text-anchor="middle" x="1198.38" y="-445.02" font-family="Helvetica,sans-Serif" font-size="10.00" fill="grey"> elements</text>
</g>
<!-- Node21&#45;&gt;Node20 -->
<g id="edge31_Node000020_Node000021" class="edge">
<title>Node21&#45;&gt;Node20</title>
<g id="a_edge31_Node000020_Node000021"><a xlink:title=" ">
<path fill="none" stroke="orange" stroke-dasharray="5,2" d="M645.59,-447.79C735.09,-451.01 897.83,-456.86 989.02,-460.13"/>
<polygon fill="orange" stroke="orange" points="645.88,-444.3 635.76,-447.44 645.63,-451.3 645.88,-444.3"/>
</a>
</g>
<text text-anchor="middle" x="736.12" y="-455.04" font-family="Helvetica,sans-Serif" font-size="10.00" fill="grey"> &lt; Ark::internal::MacroExecutor &gt;</text>
</g>
<!-- Node22&#45;&gt;Node2 -->
<g id="edge33_Node000002_Node000022" class="edge">
<title>Node22&#45;&gt;Node2</title>
<g id="a_edge33_Node000002_Node000022"><a xlink:title=" ">
<path fill="none" stroke="#9a32cd" stroke-dasharray="5,2" d="M1430.85,-390.78C1461.97,-381.76 1499.7,-370.72 1533.5,-360.52 1552.75,-354.71 1574.24,-348.02 1591.39,-342.64"/>
<polygon fill="#9a32cd" stroke="#9a32cd" points="1430.22,-387.32 1421.59,-393.46 1432.17,-394.04 1430.22,-387.32"/>
</a>
</g>
<text text-anchor="middle" x="1503.88" y="-378.72" font-family="Helvetica,sans-Serif" font-size="10.00" fill="grey"> m_executors</text>
</g>
</g>
</svg>

<g id="navigator" transform="translate(0 0)" fill="#404254">
  <rect fill="#f2f5e9" fill-opacity="0.5" stroke="#606060" stroke-width=".5" x="0" y="0" width="60" height="60"/>
  <use id="zoomplus" xlink:href="#zoomPlus" x="17" y="9" onmousedown="handleZoom(evt,'in')"/>
  <use id="zoomminus" xlink:href="#zoomMin" x="42" y="9" onmousedown="handleZoom(evt,'out')"/>
  <use id="reset" xlink:href="#resetDef" x="30" y="36" onmousedown="handleReset()"/>
   <use id="arrowup" xlink:href="#arrowUp" x="0" y="0" onmousedown="handlePan(0,-1)"/>
  <use id="arrowright" xlink:href="#arrowRight" x="0" y="0" onmousedown="handlePan(1,0)"/>
  <use id="arrowdown" xlink:href="#arrowDown" x="0" y="0" onmousedown="handlePan(0,1)"/>
  <use id="arrowleft" xlink:href="#arrowLeft" x="0" y="0" onmousedown="handlePan(-1,0)"/>
</g>
<svg viewBox="0 0 15 15" width="100%" height="30px" preserveAspectRatio="xMaxYMin meet">
 <g id="arrow_out" transform="scale(0.3 0.3)">
  <a xlink:href="classArk_1_1internal_1_1MacroExecutor__coll__graph_org.svg" target="_base">
   <rect id="button" ry="5" rx="5" y="6" x="6" height="38" width="38"
        fill="#f2f5e9" fill-opacity="0.5" stroke="#606060" stroke-width="1.0"/>
   <path id="arrow"
     d="M 11.500037,31.436501 C 11.940474,20.09759 22.043105,11.32322 32.158766,21.979434 L 37.068811,17.246167 C 37.068811,17.246167 37.088388,32 37.088388,32 L 22.160133,31.978069 C 22.160133,31.978069 26.997745,27.140456 26.997745,27.140456 C 18.528582,18.264221 13.291696,25.230495 11.500037,31.436501 z"
     style="fill:#404040;"/>
  </a>
 </g>
</svg>

<style type='text/css'>
<![CDATA[
[data-mouse-over-selected='false'] { opacity: 0.7; }
[data-mouse-over-selected='true']  { opacity: 1.0; }
]]>
</style>
<script type="application/ecmascript"><![CDATA[
document.addEventListener('DOMContentLoaded', (event) => {
  highlightEdges();
  highlightAdjacentNodes();
});
]]></script>
</svg>
