<?xml version="1.0" encoding="UTF-8" standalone="no"?>
<!DOCTYPE svg PUBLIC "-//W3C//DTD SVG 1.1//EN"
 "http://www.w3.org/Graphics/SVG/1.1/DTD/svg11.dtd">
<!-- Generated by graphviz version 12.2.0 (20241103.1931)
 -->
<!-- Title: /Users/fola/Documents/ArkScript/Ark/include/Ark/Compiler/AST/Node.hpp Pages: 1 -->
<svg width="795pt" height="216pt"
 viewBox="0.00 0.00 795.00 215.50" xmlns="http://www.w3.org/2000/svg" xmlns:xlink="http://www.w3.org/1999/xlink">
<g id="graph0" class="graph" transform="scale(1 1) rotate(0) translate(4 211.5)">
<title>/Users/fola/Documents/ArkScript/Ark/include/Ark/Compiler/AST/Node.hpp</title>
<!-- Node1 -->
<g id="Node000001" class="node">
<title>Node1</title>
<g id="a_Node000001"><a xlink:title="AST node used by the parser, optimizer and compiler.">
<polygon fill="#999999" stroke="#666666" points="440.38,-207.5 296.88,-207.5 296.88,-165.75 440.38,-165.75 440.38,-207.5"/>
<text text-anchor="start" x="304.88" y="-194" font-family="Helvetica,sans-Serif" font-size="10.00">/Users/fola/Documents</text>
<text text-anchor="start" x="304.88" y="-182.75" font-family="Helvetica,sans-Serif" font-size="10.00">/ArkScript/Ark/include</text>
<text text-anchor="middle" x="368.62" y="-171.5" font-family="Helvetica,sans-Serif" font-size="10.00">/Ark/Compiler/AST/Node.hpp</text>
</a>
</g>
</g>
<!-- Node2 -->
<g id="Node000002" class="node">
<title>Node2</title>
<g id="a_Node000002"><a xlink:title=" ">
<polygon fill="#e0e0e0" stroke="#999999" points="45.25,-129.75 0,-129.75 0,-110.5 45.25,-110.5 45.25,-129.75"/>
<text text-anchor="middle" x="22.62" y="-116.25" font-family="Helvetica,sans-Serif" font-size="10.00">variant</text>
</a>
</g>
</g>
<!-- Node1&#45;&gt;Node2 -->
<g id="edge1_Node000001_Node000002" class="edge">
<title>Node1&#45;&gt;Node2</title>
<g id="a_edge1_Node000001_Node000002"><a xlink:title=" ">
<path fill="none" stroke="#63b8ff" d="M296.61,-174.86C235.14,-165.22 144.19,-149.87 56.78,-130.31"/>
<polygon fill="#63b8ff" stroke="#63b8ff" points="57.59,-126.9 47.06,-128.11 56.04,-133.73 57.59,-126.9"/>
</a>
</g>
</g>
<!-- Node3 -->
<g id="Node000003" class="node">
<title>Node3</title>
<g id="a_Node000003"><a xlink:title=" ">
<polygon fill="#e0e0e0" stroke="#999999" points="114.25,-129.75 63,-129.75 63,-110.5 114.25,-110.5 114.25,-129.75"/>
<text text-anchor="middle" x="88.62" y="-116.25" font-family="Helvetica,sans-Serif" font-size="10.00">ostream</text>
</a>
</g>
</g>
<!-- Node1&#45;&gt;Node3 -->
<g id="edge2_Node000001_Node000003" class="edge">
<title>Node1&#45;&gt;Node3</title>
<g id="a_edge2_Node000001_Node000003"><a xlink:title=" ">
<path fill="none" stroke="#63b8ff" d="M296.52,-169.01C241.9,-156.43 169.08,-139.66 125.71,-129.67"/>
<polygon fill="#63b8ff" stroke="#63b8ff" points="126.56,-126.27 116.03,-127.44 124.99,-133.09 126.56,-126.27"/>
</a>
</g>
</g>
<!-- Node4 -->
<g id="Node000004" class="node">
<title>Node4</title>
<g id="a_Node000004"><a xlink:title=" ">
<polygon fill="#e0e0e0" stroke="#999999" points="188.62,-74.5 148.62,-74.5 148.62,-55.25 188.62,-55.25 188.62,-74.5"/>
<text text-anchor="middle" x="168.62" y="-61" font-family="Helvetica,sans-Serif" font-size="10.00">string</text>
</a>
</g>
</g>
<!-- Node1&#45;&gt;Node4 -->
<g id="edge3_Node000001_Node000004" class="edge">
<title>Node1&#45;&gt;Node4</title>
<g id="a_edge3_Node000001_Node000004"><a xlink:title=" ">
<path fill="none" stroke="#63b8ff" d="M296.51,-175.58C243.6,-166.57 178.2,-151.4 161.62,-129.75 151.98,-117.16 155.21,-98.85 159.99,-85.06"/>
<polygon fill="#63b8ff" stroke="#63b8ff" points="163.08,-86.75 163.55,-76.17 156.58,-84.14 163.08,-86.75"/>
</a>
</g>
</g>
<!-- Node5 -->
<g id="Node000005" class="node">
<title>Node5</title>
<g id="a_Node000005"><a xlink:title=" ">
<polygon fill="#e0e0e0" stroke="#999999" points="340.12,-74.5 297.12,-74.5 297.12,-55.25 340.12,-55.25 340.12,-74.5"/>
<text text-anchor="middle" x="318.62" y="-61" font-family="Helvetica,sans-Serif" font-size="10.00">vector</text>
</a>
</g>
</g>
<!-- Node1&#45;&gt;Node5 -->
<g id="edge4_Node000001_Node000005" class="edge">
<title>Node1&#45;&gt;Node5</title>
<g id="a_edge4_Node000001_Node000005"><a xlink:title=" ">
<path fill="none" stroke="#63b8ff" d="M365.57,-165.51C362.73,-150 357.71,-128.25 349.62,-110.5 345.34,-101.08 339.03,-91.54 333.23,-83.72"/>
<polygon fill="#63b8ff" stroke="#63b8ff" points="336.16,-81.79 327.26,-76.05 330.64,-86.09 336.16,-81.79"/>
</a>
</g>
</g>
<!-- Node6 -->
<g id="Node000006" class="node">
<title>Node6</title>
<g id="a_Node000006"><a xlink:title=" ">
<polygon fill="#e0e0e0" stroke="#999999" points="656.5,-74.5 606.75,-74.5 606.75,-55.25 656.5,-55.25 656.5,-74.5"/>
<text text-anchor="middle" x="631.62" y="-61" font-family="Helvetica,sans-Serif" font-size="10.00">optional</text>
</a>
</g>
</g>
<!-- Node1&#45;&gt;Node6 -->
<g id="edge5_Node000001_Node000006" class="edge">
<title>Node1&#45;&gt;Node6</title>
<g id="a_edge5_Node000001_Node000006"><a xlink:title=" ">
<path fill="none" stroke="#63b8ff" d="M440.76,-167.13C471.98,-157.85 508.44,-145.25 539.62,-129.75 566.36,-116.46 594.13,-96.13 612.07,-81.99"/>
<polygon fill="#63b8ff" stroke="#63b8ff" points="614.17,-84.79 619.77,-75.8 609.78,-79.33 614.17,-84.79"/>
</a>
</g>
</g>
<!-- Node7 -->
<g id="Node000007" class="node">
<title>Node7</title>
<g id="a_Node000007"><a xlink:href="../../da/d33/Namespace_8hpp.html" target="_top" xlink:title=" ">
<polygon fill="white" stroke="#666666" points="340.5,-129.75 170.75,-129.75 170.75,-110.5 340.5,-110.5 340.5,-129.75"/>
<text text-anchor="middle" x="255.62" y="-116.25" font-family="Helvetica,sans-Serif" font-size="10.00">Ark/Compiler/AST/Namespace.hpp</text>
</a>
</g>
</g>
<!-- Node1&#45;&gt;Node7 -->
<g id="edge6_Node000001_Node000007" class="edge">
<title>Node1&#45;&gt;Node7</title>
<g id="a_edge6_Node000001_Node000007"><a xlink:title=" ">
<path fill="none" stroke="#63b8ff" d="M333.18,-165.39C316.35,-155.79 296.62,-144.52 281.26,-135.76"/>
<polygon fill="#63b8ff" stroke="#63b8ff" points="283.16,-132.81 272.74,-130.89 279.69,-138.89 283.16,-132.81"/>
</a>
</g>
</g>
<!-- Node9 -->
<g id="Node000009" class="node">
<title>Node9</title>
<g id="a_Node000009"><a xlink:href="../../d8/ddd/Common_8hpp.html" target="_top" xlink:title="Common code for the compiler.">
<polygon fill="white" stroke="#666666" points="530.88,-129.75 396.38,-129.75 396.38,-110.5 530.88,-110.5 530.88,-129.75"/>
<text text-anchor="middle" x="463.62" y="-116.25" font-family="Helvetica,sans-Serif" font-size="10.00">Ark/Compiler/Common.hpp</text>
</a>
</g>
</g>
<!-- Node1&#45;&gt;Node9 -->
<g id="edge10_Node000001_Node000009" class="edge">
<title>Node1&#45;&gt;Node9</title>
<g id="a_edge10_Node000001_Node000009"><a xlink:title=" ">
<path fill="none" stroke="#63b8ff" d="M398.42,-165.39C412.16,-156.07 428.21,-145.17 440.94,-136.52"/>
<polygon fill="#63b8ff" stroke="#63b8ff" points="442.78,-139.51 449.09,-130.99 438.85,-133.72 442.78,-139.51"/>
</a>
</g>
</g>
<!-- Node16 -->
<g id="Node000016" class="node">
<title>Node16</title>
<g id="a_Node000016"><a xlink:href="../../d5/d40/Platform_8hpp.html" target="_top" xlink:title="ArkScript configuration macros.">
<polygon fill="white" stroke="#666666" points="787,-74.5 674.25,-74.5 674.25,-55.25 787,-55.25 787,-74.5"/>
<text text-anchor="middle" x="730.62" y="-61" font-family="Helvetica,sans-Serif" font-size="10.00">Ark/Utils/Platform.hpp</text>
</a>
</g>
</g>
<!-- Node1&#45;&gt;Node16 -->
<g id="edge20_Node000001_Node000016" class="edge">
<title>Node1&#45;&gt;Node16</title>
<g id="a_edge20_Node000001_Node000016"><a xlink:title=" ">
<path fill="none" stroke="#63b8ff" d="M440.68,-182.18C527.91,-176.59 668.09,-162.67 707.62,-129.75 720.52,-119.02 726.18,-100.48 728.67,-86.13"/>
<polygon fill="#63b8ff" stroke="#63b8ff" points="732.12,-86.77 729.95,-76.4 725.18,-85.86 732.12,-86.77"/>
</a>
</g>
</g>
<!-- Node17 -->
<g id="Node000017" class="node">
<title>Node17</title>
<g id="a_Node000017"><a xlink:href="../../dc/d58/Position_8hpp.html" target="_top" xlink:title="Defines position utilities (for text in a file) for the parser, formatter, diagnostics.">
<polygon fill="white" stroke="#666666" points="698.25,-129.75 587,-129.75 587,-110.5 698.25,-110.5 698.25,-129.75"/>
<text text-anchor="middle" x="642.62" y="-116.25" font-family="Helvetica,sans-Serif" font-size="10.00">Ark/Utils/Position.hpp</text>
</a>
</g>
</g>
<!-- Node1&#45;&gt;Node17 -->
<g id="edge21_Node000001_Node000017" class="edge">
<title>Node1&#45;&gt;Node17</title>
<g id="a_edge21_Node000001_Node000017"><a xlink:title=" ">
<path fill="none" stroke="#63b8ff" d="M440.62,-168.68C488.54,-157.4 550.29,-142.86 592.84,-132.84"/>
<polygon fill="#63b8ff" stroke="#63b8ff" points="593.62,-136.26 602.56,-130.56 592.02,-129.44 593.62,-136.26"/>
</a>
</g>
</g>
<!-- Node7&#45;&gt;Node4 -->
<g id="edge7_Node000007_Node000004" class="edge">
<title>Node7&#45;&gt;Node4</title>
<g id="a_edge7_Node000007_Node000004"><a xlink:title=" ">
<path fill="none" stroke="#63b8ff" d="M240.87,-110.09C227.74,-102.06 208.3,-90.16 192.89,-80.73"/>
<polygon fill="#63b8ff" stroke="#63b8ff" points="195.1,-77.98 184.75,-75.74 191.45,-83.95 195.1,-77.98"/>
</a>
</g>
</g>
<!-- Node7&#45;&gt;Node5 -->
<g id="edge8_Node000007_Node000005" class="edge">
<title>Node7&#45;&gt;Node5</title>
<g id="a_edge8_Node000007_Node000005"><a xlink:title=" ">
<path fill="none" stroke="#63b8ff" d="M266.31,-110.09C275.33,-102.47 288.46,-91.37 299.31,-82.2"/>
<polygon fill="#63b8ff" stroke="#63b8ff" points="301.56,-84.88 306.94,-75.75 297.04,-79.53 301.56,-84.88"/>
</a>
</g>
</g>
<!-- Node8 -->
<g id="Node000008" class="node">
<title>Node8</title>
<g id="a_Node000008"><a xlink:title=" ">
<polygon fill="#e0e0e0" stroke="#999999" points="279.25,-74.5 228,-74.5 228,-55.25 279.25,-55.25 279.25,-74.5"/>
<text text-anchor="middle" x="253.62" y="-61" font-family="Helvetica,sans-Serif" font-size="10.00">memory</text>
</a>
</g>
</g>
<!-- Node7&#45;&gt;Node8 -->
<g id="edge9_Node000007_Node000008" class="edge">
<title>Node7&#45;&gt;Node8</title>
<g id="a_edge9_Node000007_Node000008"><a xlink:title=" ">
<path fill="none" stroke="#63b8ff" d="M255.29,-110.33C255.05,-103.74 254.7,-94.46 254.38,-86.07"/>
<polygon fill="#63b8ff" stroke="#63b8ff" points="257.89,-86.23 254.02,-76.37 250.9,-86.5 257.89,-86.23"/>
</a>
</g>
</g>
<!-- Node9&#45;&gt;Node5 -->
<g id="edge13_Node000009_Node000005" class="edge">
<title>Node9&#45;&gt;Node5</title>
<g id="a_edge13_Node000009_Node000005"><a xlink:title=" ">
<path fill="none" stroke="#63b8ff" d="M439.03,-110.09C414.85,-101.21 377.8,-87.61 351.19,-77.83"/>
<polygon fill="#63b8ff" stroke="#63b8ff" points="352.51,-74.59 341.91,-74.43 350.09,-81.16 352.51,-74.59"/>
</a>
</g>
</g>
<!-- Node10 -->
<g id="Node000010" class="node">
<title>Node10</title>
<g id="a_Node000010"><a xlink:title=" ">
<polygon fill="#e0e0e0" stroke="#999999" points="550.5,-74.5 512.75,-74.5 512.75,-55.25 550.5,-55.25 550.5,-74.5"/>
<text text-anchor="middle" x="531.62" y="-61" font-family="Helvetica,sans-Serif" font-size="10.00">array</text>
</a>
</g>
</g>
<!-- Node9&#45;&gt;Node10 -->
<g id="edge11_Node000009_Node000010" class="edge">
<title>Node9&#45;&gt;Node10</title>
<g id="a_edge11_Node000009_Node000010"><a xlink:title=" ">
<path fill="none" stroke="#63b8ff" d="M475.16,-110.09C485.09,-102.32 499.64,-90.92 511.48,-81.65"/>
<polygon fill="#63b8ff" stroke="#63b8ff" points="513.35,-84.63 519.07,-75.71 509.04,-79.12 513.35,-84.63"/>
</a>
</g>
</g>
<!-- Node11 -->
<g id="Node000011" class="node">
<title>Node11</title>
<g id="a_Node000011"><a xlink:title=" ">
<polygon fill="#e0e0e0" stroke="#999999" points="609.38,-19.25 543.88,-19.25 543.88,0 609.38,0 609.38,-19.25"/>
<text text-anchor="middle" x="576.62" y="-5.75" font-family="Helvetica,sans-Serif" font-size="10.00">string_view</text>
</a>
</g>
</g>
<!-- Node9&#45;&gt;Node11 -->
<g id="edge12_Node000009_Node000011" class="edge">
<title>Node9&#45;&gt;Node11</title>
<g id="a_edge12_Node000009_Node000011"><a xlink:title=" ">
<path fill="none" stroke="#63b8ff" d="M501.24,-110.02C521.26,-103.33 544.74,-92.24 559.62,-74.5 569.9,-62.25 574.03,-44.41 575.65,-30.7"/>
<polygon fill="#63b8ff" stroke="#63b8ff" points="579.12,-31.3 576.43,-21.05 572.14,-30.74 579.12,-31.3"/>
</a>
</g>
</g>
<!-- Node12 -->
<g id="Node000012" class="node">
<title>Node12</title>
<g id="a_Node000012"><a xlink:title=" ">
<polygon fill="#e0e0e0" stroke="#999999" points="399.5,-19.25 343.75,-19.25 343.75,0 399.5,0 399.5,-19.25"/>
<text text-anchor="middle" x="371.62" y="-5.75" font-family="Helvetica,sans-Serif" font-size="10.00">cinttypes</text>
</a>
</g>
</g>
<!-- Node9&#45;&gt;Node12 -->
<g id="edge14_Node000009_Node000012" class="edge">
<title>Node9&#45;&gt;Node12</title>
<g id="a_edge14_Node000009_Node000012"><a xlink:title=" ">
<path fill="none" stroke="#63b8ff" d="M437.77,-110.04C421.07,-102.88 400.19,-91.28 387.62,-74.5 378.18,-61.88 374.26,-44.32 372.67,-30.8"/>
<polygon fill="#63b8ff" stroke="#63b8ff" points="376.16,-30.57 371.86,-20.88 369.18,-31.14 376.16,-30.57"/>
</a>
</g>
</g>
<!-- Node13 -->
<g id="Node000013" class="node">
<title>Node13</title>
<g id="a_Node000013"><a xlink:href="../../d6/de9/Constants_8hpp.html" target="_top" xlink:title="Constants used by ArkScript.">
<polygon fill="white" stroke="#666666" points="494.5,-74.5 396.75,-74.5 396.75,-55.25 494.5,-55.25 494.5,-74.5"/>
<text text-anchor="middle" x="445.62" y="-61" font-family="Helvetica,sans-Serif" font-size="10.00">Ark/Constants.hpp</text>
</a>
</g>
</g>
<!-- Node9&#45;&gt;Node13 -->
<g id="edge15_Node000009_Node000013" class="edge">
<title>Node9&#45;&gt;Node13</title>
<g id="a_edge15_Node000009_Node000013"><a xlink:title=" ">
<path fill="none" stroke="#63b8ff" d="M460.65,-110.33C458.37,-103.59 455.14,-94.02 452.26,-85.49"/>
<polygon fill="#63b8ff" stroke="#63b8ff" points="455.66,-84.65 449.15,-76.29 449.03,-86.89 455.66,-84.65"/>
</a>
</g>
</g>
<!-- Node13&#45;&gt;Node11 -->
<g id="edge16_Node000013_Node000011" class="edge">
<title>Node13&#45;&gt;Node11</title>
<g id="a_edge16_Node000013_Node000011"><a xlink:title=" ">
<path fill="none" stroke="#63b8ff" d="M467.85,-54.84C488.64,-46.39 519.97,-33.65 543.68,-24.02"/>
<polygon fill="#63b8ff" stroke="#63b8ff" points="544.95,-27.28 552.89,-20.27 542.31,-20.8 544.95,-27.28"/>
</a>
</g>
</g>
<!-- Node13&#45;&gt;Node12 -->
<g id="edge18_Node000013_Node000012" class="edge">
<title>Node13&#45;&gt;Node12</title>
<g id="a_edge18_Node000013_Node000012"><a xlink:title=" ">
<path fill="none" stroke="#63b8ff" d="M433.07,-54.84C422.16,-46.99 406.12,-35.45 393.16,-26.12"/>
<polygon fill="#63b8ff" stroke="#63b8ff" points="395.38,-23.41 385.22,-20.41 391.29,-29.09 395.38,-23.41"/>
</a>
</g>
</g>
<!-- Node14 -->
<g id="Node000014" class="node">
<title>Node14</title>
<g id="a_Node000014"><a xlink:title=" ">
<polygon fill="#e0e0e0" stroke="#999999" points="525.25,-19.25 486,-19.25 486,0 525.25,0 525.25,-19.25"/>
<text text-anchor="middle" x="505.62" y="-5.75" font-family="Helvetica,sans-Serif" font-size="10.00">limits</text>
</a>
</g>
</g>
<!-- Node13&#45;&gt;Node14 -->
<g id="edge17_Node000013_Node000014" class="edge">
<title>Node13&#45;&gt;Node14</title>
<g id="a_edge17_Node000013_Node000014"><a xlink:title=" ">
<path fill="none" stroke="#63b8ff" d="M455.8,-54.84C464.39,-47.22 476.89,-36.12 487.23,-26.95"/>
<polygon fill="#63b8ff" stroke="#63b8ff" points="489.31,-29.79 494.47,-20.53 484.66,-24.55 489.31,-29.79"/>
</a>
</g>
</g>
<!-- Node15 -->
<g id="Node000015" class="node">
<title>Node15</title>
<g id="a_Node000015"><a xlink:title=" ">
<polygon fill="#e0e0e0" stroke="#999999" points="467.75,-19.25 419.5,-19.25 419.5,0 467.75,0 467.75,-19.25"/>
<text text-anchor="middle" x="443.62" y="-5.75" font-family="Helvetica,sans-Serif" font-size="10.00">cstddef</text>
</a>
</g>
</g>
<!-- Node13&#45;&gt;Node15 -->
<g id="edge19_Node000013_Node000015" class="edge">
<title>Node13&#45;&gt;Node15</title>
<g id="a_edge19_Node000013_Node000015"><a xlink:title=" ">
<path fill="none" stroke="#63b8ff" d="M445.29,-55.08C445.05,-48.49 444.7,-39.21 444.38,-30.82"/>
<polygon fill="#63b8ff" stroke="#63b8ff" points="447.89,-30.98 444.02,-21.12 440.9,-31.25 447.89,-30.98"/>
</a>
</g>
</g>
<!-- Node17&#45;&gt;Node6 -->
<g id="edge22_Node000017_Node000006" class="edge">
<title>Node17&#45;&gt;Node6</title>
<g id="a_edge22_Node000017_Node000006"><a xlink:title=" ">
<path fill="none" stroke="#63b8ff" d="M640.81,-110.33C639.45,-103.74 637.53,-94.46 635.8,-86.07"/>
<polygon fill="#63b8ff" stroke="#63b8ff" points="639.24,-85.43 633.79,-76.34 632.38,-86.84 639.24,-85.43"/>
</a>
</g>
</g>
<!-- Node17&#45;&gt;Node16 -->
<g id="edge23_Node000017_Node000016" class="edge">
<title>Node17&#45;&gt;Node16</title>
<g id="a_edge23_Node000017_Node000016"><a xlink:title=" ">
<path fill="none" stroke="#63b8ff" d="M657.55,-110.09C670.83,-102.06 690.49,-90.16 706.08,-80.73"/>
<polygon fill="#63b8ff" stroke="#63b8ff" points="707.59,-83.91 714.33,-75.74 703.96,-77.92 707.59,-83.91"/>
</a>
</g>
</g>
</g>
</svg>
