<?xml version="1.0" encoding="UTF-8" standalone="no"?>
<!DOCTYPE svg PUBLIC "-//W3C//DTD SVG 1.1//EN"
 "http://www.w3.org/Graphics/SVG/1.1/DTD/svg11.dtd">
<!-- Generated by graphviz version 12.2.0 (20241103.1931)
 -->
<!-- Title: Ark::internal::Import Pages: 1 -->
<svg width="220pt" height="249pt"
 viewBox="0.00 0.00 220.45 249.25" xmlns="http://www.w3.org/2000/svg" xmlns:xlink="http://www.w3.org/1999/xlink">

<svg id="main" version="1.1" xmlns="http://www.w3.org/2000/svg" xmlns:xlink="http://www.w3.org/1999/xlink" xml:space="preserve">

<style type="text/css"><![CDATA[
.node, .edge {opacity: 0.7;}
.node.selected, .edge.selected {opacity: 1;}
.edge:hover path { stroke: red; }
.edge:hover polygon { stroke: red; fill: red; }
]]></style>
<script type="application/ecmascript" xlink:href="../../svg.min.js"/>
<svg id="graph" class="graph">
<g id="graph0" class="graph" transform="scale(1 1) rotate(0) translate(4 245.25)">
<title>Ark::internal::Import</title>
<!-- Node1 -->
<g id="Node000001" class="node">
<title>Node1</title>
<g id="a_Node000001"><a xlink:title=" ">
<polygon fill="#999999" stroke="#666666" points="191.38,-19.25 89.12,-19.25 89.12,0 191.38,0 191.38,-19.25"/>
<text text-anchor="middle" x="140.25" y="-5.75" font-family="Helvetica,sans-Serif" font-size="10.00">Ark::internal::Import</text>
</a>
</g>
</g>
<!-- Node2 -->
<g id="Node000002" class="node">
<title>Node2</title>
<g id="a_Node000002"><a xlink:title=" ">
<polygon fill="white" stroke="#666666" points="191,-163.5 131.5,-163.5 131.5,-144.25 191,-144.25 191,-163.5"/>
<text text-anchor="middle" x="161.25" y="-150" font-family="Helvetica,sans-Serif" font-size="10.00">std::string</text>
</a>
</g>
</g>
<!-- Node2&#45;&gt;Node1 -->
<g id="edge1_Node000001_Node000002" class="edge">
<title>Node2&#45;&gt;Node1</title>
<g id="a_edge1_Node000001_Node000002"><a xlink:title=" ">
<path fill="none" stroke="#9a32cd" stroke-dasharray="5,2" d="M172.62,-133.88C173.69,-131.38 174.62,-128.8 175.25,-126.25 181.36,-101.52 198.49,-102.35 167.25,-37.25 163.95,-30.37 158.09,-24.25 152.68,-19.63"/>
<polygon fill="#9a32cd" stroke="#9a32cd" points="169.58,-132.13 168.04,-142.61 175.78,-135.38 169.58,-132.13"/>
</a>
</g>
<text text-anchor="middle" x="198.95" y="-83.5" font-family="Helvetica,sans-Serif" font-size="10.00" fill="grey"> prefix</text>
</g>
<!-- Node4 -->
<g id="Node000004" class="node">
<title>Node4</title>
<g id="a_Node000004"><a xlink:title=" ">
<polygon fill="white" stroke="#666666" points="153.25,-97 29.25,-97 29.25,-77.75 153.25,-77.75 153.25,-97"/>
<text text-anchor="middle" x="91.25" y="-83.5" font-family="Helvetica,sans-Serif" font-size="10.00">std::vector&lt; std::string &gt;</text>
</a>
</g>
</g>
<!-- Node2&#45;&gt;Node4 -->
<g id="edge4_Node000004_Node000002" class="edge">
<title>Node2&#45;&gt;Node4</title>
<g id="a_edge4_Node000004_Node000002"><a xlink:title=" ">
<path fill="none" stroke="#9a32cd" stroke-dasharray="5,2" d="M143.41,-136.44C129.89,-123.98 111.84,-107.34 100.9,-97.27"/>
<polygon fill="#9a32cd" stroke="#9a32cd" points="140.68,-138.68 150.4,-142.88 145.42,-133.53 140.68,-138.68"/>
</a>
</g>
<text text-anchor="middle" x="151.82" y="-116.75" font-family="Helvetica,sans-Serif" font-size="10.00" fill="grey"> elements</text>
</g>
<!-- Node3 -->
<g id="Node000003" class="node">
<title>Node3</title>
<g id="a_Node000003"><a xlink:title=" ">
<polygon fill="white" stroke="#666666" points="208.25,-241.25 114.25,-241.25 114.25,-210.75 208.25,-210.75 208.25,-241.25"/>
<text text-anchor="start" x="122.25" y="-227.75" font-family="Helvetica,sans-Serif" font-size="10.00">std::basic_string&lt;</text>
<text text-anchor="middle" x="161.25" y="-216.5" font-family="Helvetica,sans-Serif" font-size="10.00"> Char &gt;</text>
</a>
</g>
</g>
<!-- Node3&#45;&gt;Node2 -->
<g id="edge2_Node000002_Node000003" class="edge">
<title>Node3&#45;&gt;Node2</title>
<g id="a_edge2_Node000002_Node000003"><a xlink:title=" ">
<path fill="none" stroke="#63b8ff" d="M161.25,-199.23C161.25,-186.73 161.25,-172.52 161.25,-163.63"/>
<polygon fill="#63b8ff" stroke="#63b8ff" points="157.75,-198.96 161.25,-208.96 164.75,-198.96 157.75,-198.96"/>
</a>
</g>
</g>
<!-- Node4&#45;&gt;Node1 -->
<g id="edge3_Node000001_Node000004" class="edge">
<title>Node4&#45;&gt;Node1</title>
<g id="a_edge3_Node000001_Node000004"><a xlink:title=" ">
<path fill="none" stroke="#9a32cd" stroke-dasharray="5,2" d="M103.21,-67.89C113.12,-52.56 126.79,-31.44 134.44,-19.6"/>
<polygon fill="#9a32cd" stroke="#9a32cd" points="100.38,-65.82 97.89,-76.12 106.26,-69.62 100.38,-65.82"/>
</a>
</g>
<text text-anchor="middle" x="142.88" y="-50.25" font-family="Helvetica,sans-Serif" font-size="10.00" fill="grey"> package</text>
<text text-anchor="middle" x="142.88" y="-39" font-family="Helvetica,sans-Serif" font-size="10.00" fill="grey">symbols</text>
</g>
<!-- Node5 -->
<g id="Node000005" class="node">
<title>Node5</title>
<g id="a_Node000005"><a xlink:title=" ">
<polygon fill="white" stroke="#666666" points="86.5,-163.5 0,-163.5 0,-144.25 86.5,-144.25 86.5,-163.5"/>
<text text-anchor="middle" x="43.25" y="-150" font-family="Helvetica,sans-Serif" font-size="10.00">std::vector&lt; T &gt;</text>
</a>
</g>
</g>
<!-- Node5&#45;&gt;Node4 -->
<g id="edge5_Node000004_Node000005" class="edge">
<title>Node5&#45;&gt;Node4</title>
<g id="a_edge5_Node000004_Node000005"><a xlink:title=" ">
<path fill="none" stroke="orange" stroke-dasharray="5,2" d="M40.44,-132.42C40.55,-126.45 41.63,-120.14 44.75,-115 49.48,-107.21 57.4,-101.48 65.38,-97.37"/>
<polygon fill="orange" stroke="orange" points="36.94,-132.53 41.16,-142.25 43.92,-132.02 36.94,-132.53"/>
</a>
</g>
<text text-anchor="middle" x="77" y="-116.75" font-family="Helvetica,sans-Serif" font-size="10.00" fill="grey"> &lt; std::string &gt;</text>
</g>
<!-- Node6 -->
<g id="Node000006" class="node">
<title>Node6</title>
<g id="a_Node000006"><a xlink:title=" ">
<polygon fill="white" stroke="#666666" points="57.65,-235.62 28.85,-235.62 28.85,-216.38 57.65,-216.38 57.65,-235.62"/>
<text text-anchor="middle" x="43.25" y="-222.12" font-family="Helvetica,sans-Serif" font-size="10.00">T</text>
</a>
</g>
</g>
<!-- Node6&#45;&gt;Node5 -->
<g id="edge6_Node000005_Node000006" class="edge">
<title>Node6&#45;&gt;Node5</title>
<g id="a_edge6_Node000005_Node000006"><a xlink:title=" ">
<path fill="none" stroke="#9a32cd" stroke-dasharray="5,2" d="M43.25,-204.62C43.25,-191.14 43.25,-174.14 43.25,-163.91"/>
<polygon fill="#9a32cd" stroke="#9a32cd" points="39.75,-204.61 43.25,-214.61 46.75,-204.61 39.75,-204.61"/>
</a>
</g>
<text text-anchor="middle" x="64.62" y="-183.25" font-family="Helvetica,sans-Serif" font-size="10.00" fill="grey"> elements</text>
</g>
</g>
</svg>
</svg>

<style type='text/css'>
<![CDATA[
[data-mouse-over-selected='false'] { opacity: 0.7; }
[data-mouse-over-selected='true']  { opacity: 1.0; }
]]>
</style>
<script type="application/ecmascript"><![CDATA[
document.addEventListener('DOMContentLoaded', (event) => {
  highlightEdges();
  highlightAdjacentNodes();
});
]]></script>
</svg>
