<?xml version="1.0" encoding="UTF-8" standalone="no"?>
<!DOCTYPE svg PUBLIC "-//W3C//DTD SVG 1.1//EN"
 "http://www.w3.org/Graphics/SVG/1.1/DTD/svg11.dtd">
<!-- Generated by graphviz version 12.2.0 (20241103.1931)
 -->
<!-- Title: Ark::internal::ImportSolver Pages: 1 -->
<!--zoomable 457 -->

<svg id="main" version="1.1" xmlns="http://www.w3.org/2000/svg" xmlns:xlink="http://www.w3.org/1999/xlink" xml:space="preserve" onload="init(evt)">

<style type="text/css"><![CDATA[
.node, .edge {opacity: 0.7;}
.node.selected, .edge.selected {opacity: 1;}
.edge:hover path { stroke: red; }
.edge:hover polygon { stroke: red; fill: red; }
]]></style>

<defs>
  <circle id="rim" cx="0" cy="0" r="7"/>
  <circle id="rim2" cx="0" cy="0" r="3.5"/>
  <g id="zoomPlus">
    <use xlink:href="#rim" fill="#404040"><set attributeName="fill" to="#808080" begin="zoomplus.mouseover" end="zoomplus.mouseout"/></use>
    <path d="M-4,0h8M0,-4v8" fill="none" stroke="white" stroke-width="1.5" pointer-events="none"/>
  </g>
  <g id="zoomMin">
    <use xlink:href="#rim" fill="#404040"><set attributeName="fill" to="#808080" begin="zoomminus.mouseover" end="zoomminus.mouseout"/></use>
    <path d="M-4,0h8" fill="none" stroke="white" stroke-width="1.5" pointer-events="none"/>
  </g>
  <g id="arrowUp" transform="translate(30 24)">
    <use xlink:href="#rim"/>
    <path pointer-events="none" fill="none" stroke="white" stroke-width="1.5" d="M0,-3.0v7 M-2.5,-0.5L0,-3.0L2.5,-0.5"/>
  </g>
  <g id="arrowRight" transform="rotate(90) translate(36 -43)">
    <use xlink:href="#rim"/>
    <path pointer-events="none" fill="none" stroke="white" stroke-width="1.5" d="M0,-3.0v7 M-2.5,-0.5L0,-3.0L2.5,-0.5"/>
  </g>
  <g id="arrowDown" transform="rotate(180) translate(-30 -48)">
    <use xlink:href="#rim"/>
    <path pointer-events="none" fill="none" stroke="white" stroke-width="1.5" d="M0,-3.0v7 M-2.5,-0.5L0,-3.0L2.5,-0.5"/>
  </g>
  <g id="arrowLeft" transform="rotate(270) translate(-36 17)">
    <use xlink:href="#rim"/>
    <path pointer-events="none" fill="none" stroke="white" stroke-width="1.5" d="M0,-3.0v7 M-2.5,-0.5L0,-3.0L2.5,-0.5"/>
  </g>
  <g id="resetDef">
    <use xlink:href="#rim2" fill="#404040"><set attributeName="fill" to="#808080" begin="reset.mouseover" end="reset.mouseout"/></use>
  </g>
</defs>
<script type="application/ecmascript">
var viewWidth = 1607;
var viewHeight = 457;
var sectionId = 'dynsection-1';
</script>
<script type="application/ecmascript" xlink:href="../../svg.min.js"/>
<svg id="graph" class="graph">
<g id="viewport">
<title>Ark::internal::ImportSolver</title>
<!-- Node1 -->
<g id="Node000001" class="node">
<title>Node1</title>
<g id="a_Node000001"><a xlink:title=" ">
<polygon fill="#999999" stroke="#666666" points="1598.75,-228.4 1468.75,-228.4 1468.75,-209.15 1598.75,-209.15 1598.75,-228.4"/>
<text text-anchor="middle" x="1533.75" y="-214.9" font-family="Helvetica,sans-Serif" font-size="10.00">Ark::internal::ImportSolver</text>
</a>
</g>
</g>
<!-- Node2 -->
<g id="Node000002" class="node">
<title>Node2</title>
<g id="a_Node000002"><a xlink:href="../../da/d7b/classArk_1_1internal_1_1Pass.html" target="_top" xlink:title="An interface to describe compiler passes.">
<polygon fill="white" stroke="#666666" points="1185,-120.4 1088,-120.4 1088,-101.15 1185,-101.15 1185,-120.4"/>
<text text-anchor="middle" x="1136.5" y="-106.9" font-family="Helvetica,sans-Serif" font-size="10.00">Ark::internal::Pass</text>
</a>
</g>
</g>
<!-- Node2&#45;&gt;Node1 -->
<g id="edge1_Node000001_Node000002" class="edge">
<title>Node2&#45;&gt;Node1</title>
<g id="a_edge1_Node000001_Node000002"><a xlink:title=" ">
<path fill="none" stroke="#63b8ff" d="M1196.66,-116.41C1245.11,-122 1315.07,-132.31 1374.25,-149.78 1426.64,-165.24 1484.65,-193.59 1513.81,-208.69"/>
<polygon fill="#63b8ff" stroke="#63b8ff" points="1197.27,-112.96 1186.94,-115.33 1196.49,-119.92 1197.27,-112.96"/>
</a>
</g>
</g>
<!-- Node3 -->
<g id="Node000003" class="node">
<title>Node3</title>
<g id="a_Node000003"><a xlink:href="../../d6/d2f/classArk_1_1internal_1_1Logger.html" target="_top" xlink:title=" ">
<polygon fill="white" stroke="#666666" points="850.5,-112.4 746.75,-112.4 746.75,-93.15 850.5,-93.15 850.5,-112.4"/>
<text text-anchor="middle" x="798.62" y="-98.9" font-family="Helvetica,sans-Serif" font-size="10.00">Ark::internal::Logger</text>
</a>
</g>
</g>
<!-- Node3&#45;&gt;Node2 -->
<g id="edge2_Node000002_Node000003" class="edge">
<title>Node3&#45;&gt;Node2</title>
<g id="a_edge2_Node000002_Node000003"><a xlink:title=" ">
<path fill="none" stroke="#9a32cd" stroke-dasharray="5,2" d="M861.99,-104.26C927.24,-105.82 1028.27,-108.22 1087.55,-109.64"/>
<polygon fill="#9a32cd" stroke="#9a32cd" points="862.23,-100.77 852.15,-104.03 862.06,-107.77 862.23,-100.77"/>
</a>
</g>
<text text-anchor="middle" x="900.62" y="-107.34" font-family="Helvetica,sans-Serif" font-size="10.00" fill="grey"> m_logger</text>
</g>
<!-- Node4 -->
<g id="Node000004" class="node">
<title>Node4</title>
<g id="a_Node000004"><a xlink:title=" ">
<polygon fill="white" stroke="#666666" points="253.62,-142.4 194.12,-142.4 194.12,-123.15 253.62,-123.15 253.62,-142.4"/>
<text text-anchor="middle" x="223.88" y="-128.9" font-family="Helvetica,sans-Serif" font-size="10.00">std::string</text>
</a>
</g>
</g>
<!-- Node4&#45;&gt;Node3 -->
<g id="edge3_Node000003_Node000004" class="edge">
<title>Node4&#45;&gt;Node3</title>
<g id="a_edge3_Node000003_Node000004"><a xlink:title=" ">
<path fill="none" stroke="#9a32cd" stroke-dasharray="5,2" d="M254.27,-117.56C294.78,-97.52 370.67,-63.33 440,-50.53 562.79,-27.85 710.78,-72 770.59,-92.79"/>
<polygon fill="#9a32cd" stroke="#9a32cd" points="252.77,-114.39 245.4,-122.01 255.91,-120.65 252.77,-114.39"/>
</a>
</g>
<text text-anchor="middle" x="502" y="-52.28" font-family="Helvetica,sans-Serif" font-size="10.00" fill="grey"> m_name</text>
</g>
<!-- Node6 -->
<g id="Node000006" class="node">
<title>Node6</title>
<g id="a_Node000006"><a xlink:title=" ">
<polygon fill="white" stroke="#666666" points="563.25,-134.9 440.75,-134.9 440.75,-70.65 563.25,-70.65 563.25,-134.9"/>
<text text-anchor="start" x="448.75" y="-121.4" font-family="Helvetica,sans-Serif" font-size="10.00">std::unordered_map</text>
<text text-anchor="start" x="448.75" y="-110.15" font-family="Helvetica,sans-Serif" font-size="10.00">&lt; std::string, std::</text>
<text text-anchor="start" x="448.75" y="-98.9" font-family="Helvetica,sans-Serif" font-size="10.00">chrono::time_point&lt; std</text>
<text text-anchor="start" x="448.75" y="-87.65" font-family="Helvetica,sans-Serif" font-size="10.00">::chrono::high_resolution</text>
<text text-anchor="middle" x="502" y="-76.4" font-family="Helvetica,sans-Serif" font-size="10.00">_clock &gt; &gt;</text>
</a>
</g>
</g>
<!-- Node4&#45;&gt;Node6 -->
<g id="edge6_Node000006_Node000004" class="edge">
<title>Node4&#45;&gt;Node6</title>
<g id="a_edge6_Node000006_Node000004"><a xlink:title=" ">
<path fill="none" stroke="#9a32cd" stroke-dasharray="5,2" d="M265.23,-128.39C311.32,-123.39 387.22,-115.14 440.42,-109.36"/>
<polygon fill="#9a32cd" stroke="#9a32cd" points="264.97,-124.9 255.41,-129.46 265.73,-131.86 264.97,-124.9"/>
</a>
</g>
<text text-anchor="middle" x="357.5" y="-126.48" font-family="Helvetica,sans-Serif" font-size="10.00" fill="grey"> keys</text>
</g>
<!-- Node10 -->
<g id="Node000010" class="node">
<title>Node10</title>
<g id="a_Node000010"><a xlink:title=" ">
<polygon fill="white" stroke="#666666" points="564,-264.4 440,-264.4 440,-245.15 564,-245.15 564,-264.4"/>
<text text-anchor="middle" x="502" y="-250.9" font-family="Helvetica,sans-Serif" font-size="10.00">std::vector&lt; std::string &gt;</text>
</a>
</g>
</g>
<!-- Node4&#45;&gt;Node10 -->
<g id="edge11_Node000010_Node000004" class="edge">
<title>Node4&#45;&gt;Node10</title>
<g id="a_edge11_Node000010_Node000004"><a xlink:title=" ">
<path fill="none" stroke="#9a32cd" stroke-dasharray="5,2" d="M237.18,-151.76C249.27,-168.75 269.31,-192.92 293,-205.78 344.17,-233.55 365.56,-214.25 422,-228.53 439.51,-232.96 458.76,-239.32 473.87,-244.67"/>
<polygon fill="#9a32cd" stroke="#9a32cd" points="240.39,-150.26 231.87,-143.97 234.61,-154.2 240.39,-150.26"/>
</a>
</g>
<text text-anchor="middle" x="357.5" y="-230.28" font-family="Helvetica,sans-Serif" font-size="10.00" fill="grey"> elements</text>
</g>
<!-- Node13 -->
<g id="Node000013" class="node">
<title>Node13</title>
<g id="a_Node000013"><a xlink:href="../../dc/d9e/classArk_1_1internal_1_1Node.html" target="_top" xlink:title="A node of an Abstract Syntax Tree for ArkScript.">
<polygon fill="white" stroke="#666666" points="847.5,-45.4 749.75,-45.4 749.75,-26.15 847.5,-26.15 847.5,-45.4"/>
<text text-anchor="middle" x="798.62" y="-31.9" font-family="Helvetica,sans-Serif" font-size="10.00">Ark::internal::Node</text>
</a>
</g>
</g>
<!-- Node4&#45;&gt;Node13 -->
<g id="edge17_Node000013_Node000004" class="edge">
<title>Node4&#45;&gt;Node13</title>
<g id="a_edge17_Node000013_Node000004"><a xlink:title=" ">
<path fill="none" stroke="#9a32cd" stroke-dasharray="5,2" d="M236.48,-113.04C248.4,-94.4 268.65,-66.96 293,-50.78 349.88,-12.98 372.45,-16.08 440,-6.03 552.46,10.71 686.33,-11.53 753.93,-25.69"/>
<polygon fill="#9a32cd" stroke="#9a32cd" points="233.5,-111.2 231.24,-121.56 239.46,-114.87 233.5,-111.2"/>
</a>
</g>
<text text-anchor="middle" x="502" y="-30.28" font-family="Helvetica,sans-Serif" font-size="10.00" fill="grey"> m_after_comment</text>
<text text-anchor="middle" x="502" y="-19.03" font-family="Helvetica,sans-Serif" font-size="10.00" fill="grey">m_comment</text>
<text text-anchor="middle" x="502" y="-7.78" font-family="Helvetica,sans-Serif" font-size="10.00" fill="grey">m_filename</text>
</g>
<!-- Node16 -->
<g id="Node000016" class="node">
<title>Node16</title>
<g id="a_Node000016"><a xlink:href="../../da/d03/structArk_1_1internal_1_1Import.html" target="_top" xlink:title=" ">
<polygon fill="white" stroke="#666666" points="849.75,-215.4 747.5,-215.4 747.5,-196.15 849.75,-196.15 849.75,-215.4"/>
<text text-anchor="middle" x="798.62" y="-201.9" font-family="Helvetica,sans-Serif" font-size="10.00">Ark::internal::Import</text>
</a>
</g>
</g>
<!-- Node4&#45;&gt;Node16 -->
<g id="edge21_Node000016_Node000004" class="edge">
<title>Node4&#45;&gt;Node16</title>
<g id="a_edge21_Node000016_Node000004"><a xlink:title=" ">
<path fill="none" stroke="#9a32cd" stroke-dasharray="5,2" d="M244.82,-149.63C257.7,-159.44 275.29,-171 293,-176.78 303.7,-180.27 621.62,-196.8 747.25,-203.22"/>
<polygon fill="#9a32cd" stroke="#9a32cd" points="247.16,-147.01 237.16,-143.52 242.8,-152.49 247.16,-147.01"/>
</a>
</g>
<text text-anchor="middle" x="502" y="-195.11" font-family="Helvetica,sans-Serif" font-size="10.00" fill="grey"> prefix</text>
</g>
<!-- Node18 -->
<g id="Node000018" class="node">
<title>Node18</title>
<g id="a_Node000018"><a xlink:title=" ">
<polygon fill="white" stroke="#666666" points="1339.75,-200.65 1237.5,-200.65 1237.5,-158.9 1339.75,-158.9 1339.75,-200.65"/>
<text text-anchor="start" x="1245.5" y="-187.15" font-family="Helvetica,sans-Serif" font-size="10.00">std::unordered_map</text>
<text text-anchor="start" x="1245.5" y="-175.9" font-family="Helvetica,sans-Serif" font-size="10.00">&lt; std::string, Ark::</text>
<text text-anchor="middle" x="1288.62" y="-164.65" font-family="Helvetica,sans-Serif" font-size="10.00">internal::Package &gt;</text>
</a>
</g>
</g>
<!-- Node4&#45;&gt;Node18 -->
<g id="edge26_Node000018_Node000004" class="edge">
<title>Node4&#45;&gt;Node18</title>
<g id="a_edge26_Node000018_Node000004"><a xlink:title=" ">
<path fill="none" stroke="#9a32cd" stroke-dasharray="5,2" d="M265.21,-137.34C274.34,-138.26 283.99,-139.13 293,-139.78 654.35,-165.58 1090.83,-175.95 1237.11,-178.86"/>
<polygon fill="#9a32cd" stroke="#9a32cd" points="265.83,-133.89 255.52,-136.33 265.1,-140.85 265.83,-133.89"/>
</a>
</g>
<text text-anchor="middle" x="798.62" y="-170.02" font-family="Helvetica,sans-Serif" font-size="10.00" fill="grey"> keys</text>
</g>
<!-- Node5 -->
<g id="Node000005" class="node">
<title>Node5</title>
<g id="a_Node000005"><a xlink:title=" ">
<polygon fill="white" stroke="#666666" points="94,-148.03 0,-148.03 0,-117.53 94,-117.53 94,-148.03"/>
<text text-anchor="start" x="8" y="-134.53" font-family="Helvetica,sans-Serif" font-size="10.00">std::basic_string&lt;</text>
<text text-anchor="middle" x="47" y="-123.28" font-family="Helvetica,sans-Serif" font-size="10.00"> Char &gt;</text>
</a>
</g>
</g>
<!-- Node5&#45;&gt;Node4 -->
<g id="edge4_Node000004_Node000005" class="edge">
<title>Node5&#45;&gt;Node4</title>
<g id="a_edge4_Node000004_Node000005"><a xlink:title=" ">
<path fill="none" stroke="#63b8ff" d="M105.85,-132.78C135.35,-132.78 169.95,-132.78 193.83,-132.78"/>
<polygon fill="#63b8ff" stroke="#63b8ff" points="105.92,-129.28 95.92,-132.78 105.92,-136.28 105.92,-129.28"/>
</a>
</g>
</g>
<!-- Node6&#45;&gt;Node3 -->
<g id="edge5_Node000003_Node000006" class="edge">
<title>Node6&#45;&gt;Node3</title>
<g id="a_edge5_Node000003_Node000006"><a xlink:title=" ">
<path fill="none" stroke="#9a32cd" stroke-dasharray="5,2" d="M575.06,-102.78C628.12,-102.78 698.97,-102.78 746.35,-102.78"/>
<polygon fill="#9a32cd" stroke="#9a32cd" points="575.2,-99.28 565.2,-102.78 575.2,-106.28 575.2,-99.28"/>
</a>
</g>
<text text-anchor="middle" x="650" y="-104.53" font-family="Helvetica,sans-Serif" font-size="10.00" fill="grey"> m_trace_starts</text>
</g>
<!-- Node7 -->
<g id="Node000007" class="node">
<title>Node7</title>
<g id="a_Node000007"><a xlink:title=" ">
<polygon fill="white" stroke="#666666" points="275,-336.03 172.75,-336.03 172.75,-305.53 275,-305.53 275,-336.03"/>
<text text-anchor="start" x="180.75" y="-322.53" font-family="Helvetica,sans-Serif" font-size="10.00">std::unordered_map</text>
<text text-anchor="middle" x="223.88" y="-311.28" font-family="Helvetica,sans-Serif" font-size="10.00">&lt; K, T &gt;</text>
</a>
</g>
</g>
<!-- Node7&#45;&gt;Node6 -->
<g id="edge7_Node000006_Node000007" class="edge">
<title>Node7&#45;&gt;Node6</title>
<g id="a_edge7_Node000006_Node000007"><a xlink:title=" ">
<path fill="none" stroke="orange" stroke-dasharray="5,2" d="M246.55,-297.07C258.97,-284.93 275.54,-271.02 293,-262.78 345.67,-237.93 377.83,-277.73 422,-239.78 440.87,-223.56 428.56,-208.87 440,-186.78 449.36,-168.69 462.35,-150.21 473.93,-135.2"/>
<polygon fill="orange" stroke="orange" points="244.23,-294.43 239.71,-304.01 249.22,-299.34 244.23,-294.43"/>
</a>
</g>
<text text-anchor="start" x="293" y="-298.28" font-family="Helvetica,sans-Serif" font-size="10.00" fill="grey"> &lt; std::string, std</text>
<text text-anchor="start" x="293" y="-287.03" font-family="Helvetica,sans-Serif" font-size="10.00" fill="grey">::chrono::time_point</text>
<text text-anchor="start" x="293" y="-275.78" font-family="Helvetica,sans-Serif" font-size="10.00" fill="grey">&lt; std::chrono::high_resolution</text>
<text text-anchor="middle" x="357.5" y="-264.53" font-family="Helvetica,sans-Serif" font-size="10.00" fill="grey">_clock &gt; &gt;</text>
</g>
<!-- Node7&#45;&gt;Node18 -->
<g id="edge30_Node000018_Node000007" class="edge">
<title>Node7&#45;&gt;Node18</title>
<g id="a_edge30_Node000018_Node000007"><a xlink:title=" ">
<path fill="none" stroke="orange" stroke-dasharray="5,2" d="M286.75,-321.13C342.71,-321.42 427.38,-321.78 501,-321.78 501,-321.78 501,-321.78 1006,-321.78 1086.52,-321.78 1120.74,-342.3 1185,-293.78 1200.23,-282.27 1191.61,-270.1 1203,-254.78 1218.45,-233.98 1240.47,-214.69 1258.17,-200.88"/>
<polygon fill="orange" stroke="orange" points="286.79,-317.63 276.77,-321.08 286.76,-324.63 286.79,-317.63"/>
</a>
</g>
<text text-anchor="start" x="753.25" y="-334.78" font-family="Helvetica,sans-Serif" font-size="10.00" fill="grey"> &lt; std::string, Ark</text>
<text text-anchor="middle" x="798.62" y="-323.53" font-family="Helvetica,sans-Serif" font-size="10.00" fill="grey">::internal::Package &gt;</text>
</g>
<!-- Node8 -->
<g id="Node000008" class="node">
<title>Node8</title>
<g id="a_Node000008"><a xlink:title=" ">
<polygon fill="white" stroke="#666666" points="61.4,-330.4 32.6,-330.4 32.6,-311.15 61.4,-311.15 61.4,-330.4"/>
<text text-anchor="middle" x="47" y="-316.9" font-family="Helvetica,sans-Serif" font-size="10.00">K</text>
</a>
</g>
</g>
<!-- Node8&#45;&gt;Node7 -->
<g id="edge8_Node000007_Node000008" class="edge">
<title>Node8&#45;&gt;Node7</title>
<g id="a_edge8_Node000007_Node000008"><a xlink:title=" ">
<path fill="none" stroke="#9a32cd" stroke-dasharray="5,2" d="M73.1,-320.78C98.97,-320.78 140.01,-320.78 172.59,-320.78"/>
<polygon fill="#9a32cd" stroke="#9a32cd" points="73.24,-317.28 63.24,-320.78 73.24,-324.28 73.24,-317.28"/>
</a>
</g>
<text text-anchor="middle" x="133.38" y="-322.53" font-family="Helvetica,sans-Serif" font-size="10.00" fill="grey"> keys</text>
</g>
<!-- Node9 -->
<g id="Node000009" class="node">
<title>Node9</title>
<g id="a_Node000009"><a xlink:title=" ">
<polygon fill="white" stroke="#666666" points="61.4,-398.4 32.6,-398.4 32.6,-379.15 61.4,-379.15 61.4,-398.4"/>
<text text-anchor="middle" x="47" y="-384.9" font-family="Helvetica,sans-Serif" font-size="10.00">T</text>
</a>
</g>
</g>
<!-- Node9&#45;&gt;Node7 -->
<g id="edge9_Node000007_Node000009" class="edge">
<title>Node9&#45;&gt;Node7</title>
<g id="a_edge9_Node000007_Node000009"><a xlink:title=" ">
<path fill="none" stroke="#9a32cd" stroke-dasharray="5,2" d="M72.31,-379.32C100.77,-368.26 148.34,-349.76 182.39,-336.52"/>
<polygon fill="#9a32cd" stroke="#9a32cd" points="71.18,-376.01 63.13,-382.89 73.72,-382.53 71.18,-376.01"/>
</a>
</g>
<text text-anchor="middle" x="133.38" y="-364.62" font-family="Helvetica,sans-Serif" font-size="10.00" fill="grey"> elements</text>
</g>
<!-- Node11 -->
<g id="Node000011" class="node">
<title>Node11</title>
<g id="a_Node000011"><a xlink:title=" ">
<polygon fill="white" stroke="#666666" points="267.12,-398.4 180.62,-398.4 180.62,-379.15 267.12,-379.15 267.12,-398.4"/>
<text text-anchor="middle" x="223.88" y="-384.9" font-family="Helvetica,sans-Serif" font-size="10.00">std::vector&lt; T &gt;</text>
</a>
</g>
</g>
<!-- Node9&#45;&gt;Node11 -->
<g id="edge13_Node000011_Node000009" class="edge">
<title>Node9&#45;&gt;Node11</title>
<g id="a_edge13_Node000011_Node000009"><a xlink:title=" ">
<path fill="none" stroke="#9a32cd" stroke-dasharray="5,2" d="M73.21,-388.78C101.15,-388.78 146.67,-388.78 180.19,-388.78"/>
<polygon fill="#9a32cd" stroke="#9a32cd" points="73.24,-385.28 63.24,-388.78 73.24,-392.28 73.24,-385.28"/>
</a>
</g>
<text text-anchor="middle" x="133.38" y="-390.53" font-family="Helvetica,sans-Serif" font-size="10.00" fill="grey"> elements</text>
</g>
<!-- Node17 -->
<g id="Node000017" class="node">
<title>Node17</title>
<g id="a_Node000017"><a xlink:title=" ">
<polygon fill="white" stroke="#666666" points="399.25,-436.4 315.75,-436.4 315.75,-417.15 399.25,-417.15 399.25,-436.4"/>
<text text-anchor="middle" x="357.5" y="-422.9" font-family="Helvetica,sans-Serif" font-size="10.00">std::stack&lt; T &gt;</text>
</a>
</g>
</g>
<!-- Node9&#45;&gt;Node17 -->
<g id="edge24_Node000017_Node000009" class="edge">
<title>Node9&#45;&gt;Node17</title>
<g id="a_edge24_Node000017_Node000009"><a xlink:title=" ">
<path fill="none" stroke="#9a32cd" stroke-dasharray="5,2" d="M72.46,-395.34C84.32,-398.31 98.82,-401.62 112,-403.78 183.11,-415.4 266.89,-421.7 315.62,-424.64"/>
<polygon fill="#9a32cd" stroke="#9a32cd" points="73.65,-392.03 63.09,-392.92 71.9,-398.81 73.65,-392.03"/>
</a>
</g>
<text text-anchor="middle" x="133.38" y="-411.73" font-family="Helvetica,sans-Serif" font-size="10.00" fill="grey"> elements</text>
</g>
<!-- Node10&#45;&gt;Node1 -->
<g id="edge31_Node000001_Node000010" class="edge">
<title>Node10&#45;&gt;Node1</title>
<g id="a_edge31_Node000001_Node000010"><a xlink:title=" ">
<path fill="none" stroke="#9a32cd" stroke-dasharray="5,2" d="M542.8,-268.13C555.21,-271.67 569.04,-275.01 582,-276.78 641.89,-284.96 657.72,-281.27 718,-276.78 817.49,-269.37 840.68,-253.01 940,-243.53 1040.87,-233.9 1336.81,-224.45 1468.4,-220.59"/>
<polygon fill="#9a32cd" stroke="#9a32cd" points="543.9,-264.8 533.32,-265.28 541.89,-271.51 543.9,-264.8"/>
</a>
</g>
<text text-anchor="middle" x="1005" y="-245.28" font-family="Helvetica,sans-Serif" font-size="10.00" fill="grey"> m_imported</text>
</g>
<!-- Node10&#45;&gt;Node3 -->
<g id="edge10_Node000003_Node000010" class="edge">
<title>Node10&#45;&gt;Node3</title>
<g id="a_edge10_Node000003_Node000010"><a xlink:title=" ">
<path fill="none" stroke="#9a32cd" stroke-dasharray="5,2" d="M532.97,-239.6C542.86,-234.58 553.91,-228.95 564,-223.78 643.66,-182.91 738.29,-133.69 778.27,-112.87"/>
<polygon fill="#9a32cd" stroke="#9a32cd" points="531.48,-236.43 524.15,-244.08 534.65,-242.68 531.48,-236.43"/>
</a>
</g>
<text text-anchor="middle" x="650" y="-215.78" font-family="Helvetica,sans-Serif" font-size="10.00" fill="grey"> m_active_traces</text>
</g>
<!-- Node10&#45;&gt;Node16 -->
<g id="edge22_Node000016_Node000010" class="edge">
<title>Node10&#45;&gt;Node16</title>
<g id="a_edge22_Node000016_Node000010"><a xlink:title=" ">
<path fill="none" stroke="#9a32cd" stroke-dasharray="5,2" d="M575.52,-251.43C617.5,-248.48 671.15,-242.98 718,-232.78 736.68,-228.71 757.1,-221.73 772.58,-215.89"/>
<polygon fill="#9a32cd" stroke="#9a32cd" points="575.53,-247.92 565.79,-252.08 576,-254.9 575.53,-247.92"/>
</a>
</g>
<text text-anchor="middle" x="650" y="-263.69" font-family="Helvetica,sans-Serif" font-size="10.00" fill="grey"> package</text>
<text text-anchor="middle" x="650" y="-252.44" font-family="Helvetica,sans-Serif" font-size="10.00" fill="grey">symbols</text>
</g>
<!-- Node11&#45;&gt;Node10 -->
<g id="edge12_Node000010_Node000011" class="edge">
<title>Node11&#45;&gt;Node10</title>
<g id="a_edge12_Node000010_Node000011"><a xlink:title=" ">
<path fill="none" stroke="orange" stroke-dasharray="5,2" d="M254.22,-373.49C266.11,-367.56 280.07,-360.9 293,-355.53 349.04,-332.23 368.04,-338.55 422,-310.78 447.56,-297.62 474.22,-277.06 489.11,-264.85"/>
<polygon fill="orange" stroke="orange" points="252.66,-370.36 245.32,-378.01 255.82,-376.61 252.66,-370.36"/>
</a>
</g>
<text text-anchor="middle" x="357.5" y="-357.28" font-family="Helvetica,sans-Serif" font-size="10.00" fill="grey"> &lt; std::string &gt;</text>
</g>
<!-- Node12 -->
<g id="Node000012" class="node">
<title>Node12</title>
<g id="a_Node000012"><a xlink:title=" ">
<polygon fill="white" stroke="#666666" points="718,-398.03 582,-398.03 582,-367.53 718,-367.53 718,-398.03"/>
<text text-anchor="start" x="590" y="-384.53" font-family="Helvetica,sans-Serif" font-size="10.00">std::vector&lt; std::filesystem</text>
<text text-anchor="middle" x="650" y="-373.28" font-family="Helvetica,sans-Serif" font-size="10.00">::path &gt;</text>
</a>
</g>
</g>
<!-- Node11&#45;&gt;Node12 -->
<g id="edge15_Node000012_Node000011" class="edge">
<title>Node11&#45;&gt;Node12</title>
<g id="a_edge15_Node000012_Node000011"><a xlink:title=" ">
<path fill="none" stroke="orange" stroke-dasharray="5,2" d="M278.65,-385.79C283.5,-385.59 288.34,-385.41 293,-385.28 393.55,-382.34 510.13,-382.13 581.73,-382.36"/>
<polygon fill="orange" stroke="orange" points="278.73,-382.29 268.89,-386.23 279.04,-389.28 278.73,-382.29"/>
</a>
</g>
<text text-anchor="start" x="316.25" y="-398.28" font-family="Helvetica,sans-Serif" font-size="10.00" fill="grey"> &lt; std::filesystem::</text>
<text text-anchor="middle" x="357.5" y="-387.03" font-family="Helvetica,sans-Serif" font-size="10.00" fill="grey">path &gt;</text>
</g>
<!-- Node12&#45;&gt;Node1 -->
<g id="edge14_Node000001_Node000012" class="edge">
<title>Node12&#45;&gt;Node1</title>
<g id="a_edge14_Node000001_Node000012"><a xlink:title=" ">
<path fill="none" stroke="#9a32cd" stroke-dasharray="5,2" d="M729.71,-379.91C778.61,-378.36 842.76,-376.78 899.62,-376.78 899.62,-376.78 899.62,-376.78 1289.62,-376.78 1398.86,-376.78 1497.6,-263.25 1525.15,-228.66"/>
<polygon fill="#9a32cd" stroke="#9a32cd" points="729.66,-376.41 719.77,-380.23 729.88,-383.4 729.66,-376.41"/>
</a>
</g>
<text text-anchor="middle" x="1005" y="-378.53" font-family="Helvetica,sans-Serif" font-size="10.00" fill="grey"> m_libenv</text>
</g>
<!-- Node13&#45;&gt;Node1 -->
<g id="edge16_Node000001_Node000013" class="edge">
<title>Node13&#45;&gt;Node1</title>
<g id="a_edge16_Node000001_Node000013"><a xlink:title=" ">
<path fill="none" stroke="#9a32cd" stroke-dasharray="5,2" d="M859.28,-36.78C965.46,-40.11 1193.1,-54.25 1374.25,-113.78 1410.32,-125.63 1418.85,-131.19 1450.75,-151.78 1478.25,-169.52 1507.15,-194.98 1522.21,-208.85"/>
<polygon fill="#9a32cd" stroke="#9a32cd" points="859.47,-33.29 849.37,-36.49 859.27,-40.28 859.47,-33.29"/>
</a>
</g>
<text text-anchor="middle" x="1136.5" y="-69.91" font-family="Helvetica,sans-Serif" font-size="10.00" fill="grey"> m_ast</text>
</g>
<!-- Node19 -->
<g id="Node000019" class="node">
<title>Node19</title>
<g id="a_Node000019"><a xlink:href="../../dd/d76/structArk_1_1internal_1_1Package.html" target="_top" xlink:title=" ">
<polygon fill="white" stroke="#666666" points="1061.38,-150.4 948.62,-150.4 948.62,-131.15 1061.38,-131.15 1061.38,-150.4"/>
<text text-anchor="middle" x="1005" y="-136.9" font-family="Helvetica,sans-Serif" font-size="10.00">Ark::internal::Package</text>
</a>
</g>
</g>
<!-- Node13&#45;&gt;Node19 -->
<g id="edge28_Node000019_Node000013" class="edge">
<title>Node13&#45;&gt;Node19</title>
<g id="a_edge28_Node000019_Node000013"><a xlink:title=" ">
<path fill="none" stroke="#9a32cd" stroke-dasharray="5,2" d="M858.92,-46.49C879.65,-51.68 902.57,-59.11 922,-69.53 952.42,-85.84 981.25,-115.24 995.22,-130.68"/>
<polygon fill="#9a32cd" stroke="#9a32cd" points="860,-43.15 849.46,-44.26 858.39,-49.97 860,-43.15"/>
</a>
</g>
<text text-anchor="middle" x="900.62" y="-71.28" font-family="Helvetica,sans-Serif" font-size="10.00" fill="grey"> ast</text>
</g>
<!-- Node14 -->
<g id="Node000014" class="node">
<title>Node14</title>
<g id="a_Node000014"><a xlink:title=" ">
<polygon fill="white" stroke="#666666" points="1374.25,-294.03 1203,-294.03 1203,-263.53 1374.25,-263.53 1374.25,-294.03"/>
<text text-anchor="start" x="1211" y="-280.53" font-family="Helvetica,sans-Serif" font-size="10.00">std::stack&lt; Ark::internal</text>
<text text-anchor="middle" x="1288.62" y="-269.28" font-family="Helvetica,sans-Serif" font-size="10.00">::ImportSolver::ImportWithSource &gt;</text>
</a>
</g>
</g>
<!-- Node14&#45;&gt;Node1 -->
<g id="edge18_Node000001_Node000014" class="edge">
<title>Node14&#45;&gt;Node1</title>
<g id="a_edge18_Node000001_Node000014"><a xlink:title=" ">
<path fill="none" stroke="#9a32cd" stroke-dasharray="5,2" d="M1385.77,-262.73C1407.29,-258.46 1429.91,-253.43 1450.75,-247.78 1470.13,-242.52 1491.51,-234.9 1507.57,-228.79"/>
<polygon fill="#9a32cd" stroke="#9a32cd" points="1385.27,-259.26 1376.12,-264.6 1386.6,-266.13 1385.27,-259.26"/>
</a>
</g>
<text text-anchor="middle" x="1421.5" y="-262.88" font-family="Helvetica,sans-Serif" font-size="10.00" fill="grey"> m_imports</text>
</g>
<!-- Node15 -->
<g id="Node000015" class="node">
<title>Node15</title>
<g id="a_Node000015"><a xlink:href="../../d8/dbc/structArk_1_1internal_1_1ImportSolver_1_1ImportWithSource.html" target="_top" xlink:title=" ">
<polygon fill="white" stroke="#666666" points="1070,-294.03 940,-294.03 940,-263.53 1070,-263.53 1070,-294.03"/>
<text text-anchor="start" x="948" y="-280.53" font-family="Helvetica,sans-Serif" font-size="10.00">Ark::internal::ImportSolver</text>
<text text-anchor="middle" x="1005" y="-269.28" font-family="Helvetica,sans-Serif" font-size="10.00">::ImportWithSource</text>
</a>
</g>
</g>
<!-- Node15&#45;&gt;Node14 -->
<g id="edge19_Node000014_Node000015" class="edge">
<title>Node15&#45;&gt;Node14</title>
<g id="a_edge19_Node000014_Node000015"><a xlink:title=" ">
<path fill="none" stroke="#9a32cd" stroke-dasharray="5,2" d="M1081.57,-278.78C1118.88,-278.78 1164.03,-278.78 1202.55,-278.78"/>
<polygon fill="#9a32cd" stroke="#9a32cd" points="1081.77,-275.28 1071.77,-278.78 1081.77,-282.28 1081.77,-275.28"/>
</a>
</g>
<text text-anchor="middle" x="1136.5" y="-280.53" font-family="Helvetica,sans-Serif" font-size="10.00" fill="grey"> elements</text>
</g>
<!-- Node16&#45;&gt;Node15 -->
<g id="edge20_Node000015_Node000016" class="edge">
<title>Node16&#45;&gt;Node15</title>
<g id="a_edge20_Node000015_Node000016"><a xlink:title=" ">
<path fill="none" stroke="#9a32cd" stroke-dasharray="5,2" d="M838.29,-219.59C873.05,-232 924.05,-250.22 960.28,-263.16"/>
<polygon fill="#9a32cd" stroke="#9a32cd" points="839.63,-216.35 829.04,-216.28 837.28,-222.94 839.63,-216.35"/>
</a>
</g>
<text text-anchor="middle" x="900.62" y="-250.57" font-family="Helvetica,sans-Serif" font-size="10.00" fill="grey"> import</text>
</g>
<!-- Node16&#45;&gt;Node19 -->
<g id="edge29_Node000019_Node000016" class="edge">
<title>Node16&#45;&gt;Node19</title>
<g id="a_edge29_Node000019_Node000016"><a xlink:title=" ">
<path fill="none" stroke="#9a32cd" stroke-dasharray="5,2" d="M842.06,-192.28C880.9,-179.93 937.51,-161.92 972.48,-150.8"/>
<polygon fill="#9a32cd" stroke="#9a32cd" points="841.02,-188.94 832.55,-195.3 843.14,-195.61 841.02,-188.94"/>
</a>
</g>
<text text-anchor="middle" x="900.62" y="-180.85" font-family="Helvetica,sans-Serif" font-size="10.00" fill="grey"> import</text>
</g>
<!-- Node17&#45;&gt;Node14 -->
<g id="edge23_Node000014_Node000017" class="edge">
<title>Node17&#45;&gt;Node14</title>
<g id="a_edge23_Node000014_Node000017"><a xlink:title=" ">
<path fill="none" stroke="orange" stroke-dasharray="5,2" d="M410.85,-426.78C469.01,-426.78 565.72,-426.78 649,-426.78 649,-426.78 649,-426.78 1006,-426.78 1118.95,-426.78 1231.16,-332.33 1271.73,-294.34"/>
<polygon fill="orange" stroke="orange" points="410.91,-423.28 400.91,-426.78 410.91,-430.28 410.91,-423.28"/>
</a>
</g>
<text text-anchor="start" x="736" y="-439.78" font-family="Helvetica,sans-Serif" font-size="10.00" fill="grey"> &lt; Ark::internal::ImportSolver</text>
<text text-anchor="middle" x="798.62" y="-428.53" font-family="Helvetica,sans-Serif" font-size="10.00" fill="grey">::ImportWithSource &gt;</text>
</g>
<!-- Node18&#45;&gt;Node1 -->
<g id="edge25_Node000001_Node000018" class="edge">
<title>Node18&#45;&gt;Node1</title>
<g id="a_edge25_Node000001_Node000018"><a xlink:title=" ">
<path fill="none" stroke="#9a32cd" stroke-dasharray="5,2" d="M1350.95,-189.61C1387.3,-195.45 1433.27,-202.82 1469.89,-208.69"/>
<polygon fill="#9a32cd" stroke="#9a32cd" points="1351.92,-186.23 1341.5,-188.1 1350.81,-193.14 1351.92,-186.23"/>
</a>
</g>
<text text-anchor="middle" x="1421.5" y="-206.8" font-family="Helvetica,sans-Serif" font-size="10.00" fill="grey"> m_packages</text>
</g>
<!-- Node19&#45;&gt;Node18 -->
<g id="edge27_Node000018_Node000019" class="edge">
<title>Node19&#45;&gt;Node18</title>
<g id="a_edge27_Node000018_Node000019"><a xlink:title=" ">
<path fill="none" stroke="#9a32cd" stroke-dasharray="5,2" d="M1072.68,-142.68C1106.5,-144.37 1148.11,-147.55 1185,-153.53 1202.15,-156.31 1220.63,-160.61 1237.11,-164.94"/>
<polygon fill="#9a32cd" stroke="#9a32cd" points="1073.2,-139.2 1063.04,-142.24 1072.87,-146.2 1073.2,-139.2"/>
</a>
</g>
<text text-anchor="middle" x="1136.5" y="-155.28" font-family="Helvetica,sans-Serif" font-size="10.00" fill="grey"> elements</text>
</g>
</g>
</svg>

<g id="navigator" transform="translate(0 0)" fill="#404254">
  <rect fill="#f2f5e9" fill-opacity="0.5" stroke="#606060" stroke-width=".5" x="0" y="0" width="60" height="60"/>
  <use id="zoomplus" xlink:href="#zoomPlus" x="17" y="9" onmousedown="handleZoom(evt,'in')"/>
  <use id="zoomminus" xlink:href="#zoomMin" x="42" y="9" onmousedown="handleZoom(evt,'out')"/>
  <use id="reset" xlink:href="#resetDef" x="30" y="36" onmousedown="handleReset()"/>
   <use id="arrowup" xlink:href="#arrowUp" x="0" y="0" onmousedown="handlePan(0,-1)"/>
  <use id="arrowright" xlink:href="#arrowRight" x="0" y="0" onmousedown="handlePan(1,0)"/>
  <use id="arrowdown" xlink:href="#arrowDown" x="0" y="0" onmousedown="handlePan(0,1)"/>
  <use id="arrowleft" xlink:href="#arrowLeft" x="0" y="0" onmousedown="handlePan(-1,0)"/>
</g>
<svg viewBox="0 0 15 15" width="100%" height="30px" preserveAspectRatio="xMaxYMin meet">
 <g id="arrow_out" transform="scale(0.3 0.3)">
  <a xlink:href="classArk_1_1internal_1_1ImportSolver__coll__graph_org.svg" target="_base">
   <rect id="button" ry="5" rx="5" y="6" x="6" height="38" width="38"
        fill="#f2f5e9" fill-opacity="0.5" stroke="#606060" stroke-width="1.0"/>
   <path id="arrow"
     d="M 11.500037,31.436501 C 11.940474,20.09759 22.043105,11.32322 32.158766,21.979434 L 37.068811,17.246167 C 37.068811,17.246167 37.088388,32 37.088388,32 L 22.160133,31.978069 C 22.160133,31.978069 26.997745,27.140456 26.997745,27.140456 C 18.528582,18.264221 13.291696,25.230495 11.500037,31.436501 z"
     style="fill:#404040;"/>
  </a>
 </g>
</svg>

<style type='text/css'>
<![CDATA[
[data-mouse-over-selected='false'] { opacity: 0.7; }
[data-mouse-over-selected='true']  { opacity: 1.0; }
]]>
</style>
<script type="application/ecmascript"><![CDATA[
document.addEventListener('DOMContentLoaded', (event) => {
  highlightEdges();
  highlightAdjacentNodes();
});
]]></script>
</svg>
