<?xml version="1.0" encoding="UTF-8" standalone="no"?>
<!DOCTYPE svg PUBLIC "-//W3C//DTD SVG 1.1//EN"
 "http://www.w3.org/Graphics/SVG/1.1/DTD/svg11.dtd">
<!-- Generated by graphviz version 12.2.0 (20241103.1931)
 -->
<!-- Title: Ark::internal::ImportSolver Pages: 1 -->
<svg width="1612pt" height="515pt"
 viewBox="0.00 0.00 1612.00 515.25" xmlns="http://www.w3.org/2000/svg" xmlns:xlink="http://www.w3.org/1999/xlink">
<g id="graph0" class="graph" transform="scale(1 1) rotate(0) translate(4 511.25)">
<title>Ark::internal::ImportSolver</title>
<!-- Node1 -->
<g id="Node000001" class="node">
<title>Node1</title>
<g id="a_Node000001"><a xlink:title=" ">
<polygon fill="#999999" stroke="#666666" points="1604,-284.62 1474,-284.62 1474,-265.38 1604,-265.38 1604,-284.62"/>
<text text-anchor="middle" x="1539" y="-271.12" font-family="Helvetica,sans-Serif" font-size="10.00">Ark::internal::ImportSolver</text>
</a>
</g>
</g>
<!-- Node2 -->
<g id="Node000002" class="node">
<title>Node2</title>
<g id="a_Node000002"><a xlink:href="../../da/d7b/classArk_1_1internal_1_1Pass.html" target="_top" xlink:title="An interface to describe compiler passes.">
<polygon fill="white" stroke="#666666" points="1190.25,-117.62 1093.25,-117.62 1093.25,-98.38 1190.25,-98.38 1190.25,-117.62"/>
<text text-anchor="middle" x="1141.75" y="-104.12" font-family="Helvetica,sans-Serif" font-size="10.00">Ark::internal::Pass</text>
</a>
</g>
</g>
<!-- Node2&#45;&gt;Node1 -->
<g id="edge1_Node000001_Node000002" class="edge">
<title>Node2&#45;&gt;Node1</title>
<g id="a_edge1_Node000001_Node000002"><a xlink:title=" ">
<path fill="none" stroke="#63b8ff" d="M1202.14,-103C1270.54,-100.47 1382.87,-106.61 1456,-164 1493.32,-193.29 1521.96,-243.67 1533.03,-265"/>
<polygon fill="#63b8ff" stroke="#63b8ff" points="1202.07,-99.5 1192.24,-103.45 1202.39,-106.49 1202.07,-99.5"/>
</a>
</g>
</g>
<!-- Node3 -->
<g id="Node000003" class="node">
<title>Node3</title>
<g id="a_Node000003"><a xlink:href="../../d6/d2f/classArk_1_1internal_1_1Logger.html" target="_top" xlink:title=" ">
<polygon fill="white" stroke="#666666" points="855.75,-116.62 752,-116.62 752,-97.38 855.75,-97.38 855.75,-116.62"/>
<text text-anchor="middle" x="803.88" y="-103.12" font-family="Helvetica,sans-Serif" font-size="10.00">Ark::internal::Logger</text>
</a>
</g>
</g>
<!-- Node3&#45;&gt;Node2 -->
<g id="edge2_Node000002_Node000003" class="edge">
<title>Node3&#45;&gt;Node2</title>
<g id="a_edge2_Node000002_Node000003"><a xlink:title=" ">
<path fill="none" stroke="#9a32cd" stroke-dasharray="5,2" d="M867.24,-107.19C932.49,-107.38 1033.52,-107.68 1092.8,-107.86"/>
<polygon fill="#9a32cd" stroke="#9a32cd" points="867.41,-103.69 857.4,-107.16 867.39,-110.69 867.41,-103.69"/>
</a>
</g>
<text text-anchor="middle" x="905.88" y="-109.1" font-family="Helvetica,sans-Serif" font-size="10.00" fill="grey"> m_logger</text>
</g>
<!-- Node4 -->
<g id="Node000004" class="node">
<title>Node4</title>
<g id="a_Node000004"><a xlink:title=" ">
<polygon fill="white" stroke="#666666" points="256.25,-195.62 196.75,-195.62 196.75,-176.38 256.25,-176.38 256.25,-195.62"/>
<text text-anchor="middle" x="226.5" y="-182.12" font-family="Helvetica,sans-Serif" font-size="10.00">std::string</text>
</a>
</g>
</g>
<!-- Node4&#45;&gt;Node3 -->
<g id="edge3_Node000003_Node000004" class="edge">
<title>Node4&#45;&gt;Node3</title>
<g id="a_edge3_Node000003_Node000004"><a xlink:title=" ">
<path fill="none" stroke="#9a32cd" stroke-dasharray="5,2" d="M254.6,-170.67C267.44,-164.11 283.22,-157.06 298.25,-153 382.76,-130.19 640.81,-115.04 751.53,-109.43"/>
<polygon fill="#9a32cd" stroke="#9a32cd" points="253.13,-167.49 245.93,-175.26 256.41,-173.67 253.13,-167.49"/>
</a>
</g>
<text text-anchor="middle" x="507.25" y="-132.59" font-family="Helvetica,sans-Serif" font-size="10.00" fill="grey"> m_name</text>
</g>
<!-- Node6 -->
<g id="Node000006" class="node">
<title>Node6</title>
<g id="a_Node000006"><a xlink:title=" ">
<polygon fill="white" stroke="#666666" points="568.5,-92.12 446,-92.12 446,-27.88 568.5,-27.88 568.5,-92.12"/>
<text text-anchor="start" x="454" y="-78.62" font-family="Helvetica,sans-Serif" font-size="10.00">std::unordered_map</text>
<text text-anchor="start" x="454" y="-67.38" font-family="Helvetica,sans-Serif" font-size="10.00">&lt; std::string, std::</text>
<text text-anchor="start" x="454" y="-56.12" font-family="Helvetica,sans-Serif" font-size="10.00">chrono::time_point&lt; std</text>
<text text-anchor="start" x="454" y="-44.88" font-family="Helvetica,sans-Serif" font-size="10.00">::chrono::high_resolution</text>
<text text-anchor="middle" x="507.25" y="-33.62" font-family="Helvetica,sans-Serif" font-size="10.00">_clock &gt; &gt;</text>
</a>
</g>
</g>
<!-- Node4&#45;&gt;Node6 -->
<g id="edge6_Node000006_Node000004" class="edge">
<title>Node4&#45;&gt;Node6</title>
<g id="a_edge6_Node000006_Node000004"><a xlink:title=" ">
<path fill="none" stroke="#9a32cd" stroke-dasharray="5,2" d="M238.52,-166.45C250.56,-147 271.73,-117.95 298.25,-102.75 348.76,-73.8 370.33,-92.21 427.25,-80 433.2,-78.72 439.38,-77.31 445.54,-75.85"/>
<polygon fill="#9a32cd" stroke="#9a32cd" points="235.65,-164.42 233.56,-174.81 241.67,-167.99 235.65,-164.42"/>
</a>
</g>
<text text-anchor="middle" x="362.75" y="-104.5" font-family="Helvetica,sans-Serif" font-size="10.00" fill="grey"> keys</text>
</g>
<!-- Node10 -->
<g id="Node000010" class="node">
<title>Node10</title>
<g id="a_Node000010"><a xlink:title=" ">
<polygon fill="white" stroke="#666666" points="569.25,-221.62 445.25,-221.62 445.25,-202.38 569.25,-202.38 569.25,-221.62"/>
<text text-anchor="middle" x="507.25" y="-208.12" font-family="Helvetica,sans-Serif" font-size="10.00">std::vector&lt; std::string &gt;</text>
</a>
</g>
</g>
<!-- Node4&#45;&gt;Node10 -->
<g id="edge11_Node000010_Node000004" class="edge">
<title>Node4&#45;&gt;Node10</title>
<g id="a_edge11_Node000010_Node000004"><a xlink:title=" ">
<path fill="none" stroke="#9a32cd" stroke-dasharray="5,2" d="M267.95,-189.77C314.42,-194.11 391.16,-201.26 444.97,-206.28"/>
<polygon fill="#9a32cd" stroke="#9a32cd" points="268.33,-186.29 258.05,-188.85 267.68,-193.26 268.33,-186.29"/>
</a>
</g>
<text text-anchor="middle" x="362.75" y="-206.07" font-family="Helvetica,sans-Serif" font-size="10.00" fill="grey"> elements</text>
</g>
<!-- Node13 -->
<g id="Node000013" class="node">
<title>Node13</title>
<g id="a_Node000013"><a xlink:href="../../dc/d9e/classArk_1_1internal_1_1Node.html" target="_top" xlink:title="A node of an Abstract Syntax Tree for ArkScript.">
<polygon fill="white" stroke="#666666" points="852.75,-332.62 755,-332.62 755,-313.38 852.75,-313.38 852.75,-332.62"/>
<text text-anchor="middle" x="803.88" y="-319.12" font-family="Helvetica,sans-Serif" font-size="10.00">Ark::internal::Node</text>
</a>
</g>
</g>
<!-- Node4&#45;&gt;Node13 -->
<g id="edge19_Node000013_Node000004" class="edge">
<title>Node4&#45;&gt;Node13</title>
<g id="a_edge19_Node000013_Node000004"><a xlink:title=" ">
<path fill="none" stroke="#9a32cd" stroke-dasharray="5,2" d="M234.46,-206.73C244.25,-232.26 264.74,-274.63 298.25,-294 317.81,-305.31 632.65,-317.2 754.88,-321.41"/>
<polygon fill="#9a32cd" stroke="#9a32cd" points="237.8,-205.67 231.12,-197.45 231.21,-208.04 237.8,-205.67"/>
</a>
</g>
<text text-anchor="middle" x="507.25" y="-338.38" font-family="Helvetica,sans-Serif" font-size="10.00" fill="grey"> m_after_comment</text>
<text text-anchor="middle" x="507.25" y="-327.13" font-family="Helvetica,sans-Serif" font-size="10.00" fill="grey">m_comment</text>
<text text-anchor="middle" x="507.25" y="-315.88" font-family="Helvetica,sans-Serif" font-size="10.00" fill="grey">m_filename</text>
</g>
<!-- Node18 -->
<g id="Node000018" class="node">
<title>Node18</title>
<g id="a_Node000018"><a xlink:href="../../da/d03/structArk_1_1internal_1_1Import.html" target="_top" xlink:title=" ">
<polygon fill="white" stroke="#666666" points="855,-269.62 752.75,-269.62 752.75,-250.38 855,-250.38 855,-269.62"/>
<text text-anchor="middle" x="803.88" y="-256.12" font-family="Helvetica,sans-Serif" font-size="10.00">Ark::internal::Import</text>
</a>
</g>
</g>
<!-- Node4&#45;&gt;Node18 -->
<g id="edge23_Node000018_Node000004" class="edge">
<title>Node4&#45;&gt;Node18</title>
<g id="a_edge23_Node000018_Node000004"><a xlink:title=" ">
<path fill="none" stroke="#9a32cd" stroke-dasharray="5,2" d="M254.97,-201.42C267.78,-208.03 283.44,-215.29 298.25,-220 479.44,-277.64 533.41,-279.69 723.25,-269 732.7,-268.47 742.74,-267.58 752.4,-266.57"/>
<polygon fill="#9a32cd" stroke="#9a32cd" points="256.77,-198.41 246.3,-196.81 253.48,-204.59 256.77,-198.41"/>
</a>
</g>
<text text-anchor="middle" x="507.25" y="-275.61" font-family="Helvetica,sans-Serif" font-size="10.00" fill="grey"> prefix</text>
</g>
<!-- Node20 -->
<g id="Node000020" class="node">
<title>Node20</title>
<g id="a_Node000020"><a xlink:title=" ">
<polygon fill="white" stroke="#666666" points="1345,-182.88 1242.75,-182.88 1242.75,-141.12 1345,-141.12 1345,-182.88"/>
<text text-anchor="start" x="1250.75" y="-169.38" font-family="Helvetica,sans-Serif" font-size="10.00">std::unordered_map</text>
<text text-anchor="start" x="1250.75" y="-158.12" font-family="Helvetica,sans-Serif" font-size="10.00">&lt; std::string, Ark::</text>
<text text-anchor="middle" x="1293.88" y="-146.88" font-family="Helvetica,sans-Serif" font-size="10.00">internal::Package &gt;</text>
</a>
</g>
</g>
<!-- Node4&#45;&gt;Node20 -->
<g id="edge28_Node000020_Node000004" class="edge">
<title>Node4&#45;&gt;Node20</title>
<g id="a_edge28_Node000020_Node000004"><a xlink:title=" ">
<path fill="none" stroke="#9a32cd" stroke-dasharray="5,2" d="M267.57,-183.28C333.98,-178.92 471.07,-170.48 587.25,-167 832.77,-159.65 1126.54,-160.75 1242.38,-161.57"/>
<polygon fill="#9a32cd" stroke="#9a32cd" points="267.65,-179.77 257.9,-183.92 268.11,-186.76 267.65,-179.77"/>
</a>
</g>
<text text-anchor="middle" x="803.88" y="-165.15" font-family="Helvetica,sans-Serif" font-size="10.00" fill="grey"> keys</text>
</g>
<!-- Node5 -->
<g id="Node000005" class="node">
<title>Node5</title>
<g id="a_Node000005"><a xlink:title=" ">
<polygon fill="white" stroke="#666666" points="94,-201.25 0,-201.25 0,-170.75 94,-170.75 94,-201.25"/>
<text text-anchor="start" x="8" y="-187.75" font-family="Helvetica,sans-Serif" font-size="10.00">std::basic_string&lt;</text>
<text text-anchor="middle" x="47" y="-176.5" font-family="Helvetica,sans-Serif" font-size="10.00"> Char &gt;</text>
</a>
</g>
</g>
<!-- Node5&#45;&gt;Node4 -->
<g id="edge4_Node000004_Node000005" class="edge">
<title>Node5&#45;&gt;Node4</title>
<g id="a_edge4_Node000004_Node000005"><a xlink:title=" ">
<path fill="none" stroke="#63b8ff" d="M105.51,-186C135.92,-186 171.92,-186 196.51,-186"/>
<polygon fill="#63b8ff" stroke="#63b8ff" points="105.69,-182.5 95.69,-186 105.69,-189.5 105.69,-182.5"/>
</a>
</g>
</g>
<!-- Node6&#45;&gt;Node3 -->
<g id="edge5_Node000003_Node000006" class="edge">
<title>Node6&#45;&gt;Node3</title>
<g id="a_edge5_Node000003_Node000006"><a xlink:title=" ">
<path fill="none" stroke="#9a32cd" stroke-dasharray="5,2" d="M579.98,-71.44C633.07,-79.91 704.13,-91.25 751.6,-98.82"/>
<polygon fill="#9a32cd" stroke="#9a32cd" points="580.86,-68.04 570.43,-69.92 579.76,-74.95 580.86,-68.04"/>
</a>
</g>
<text text-anchor="middle" x="655.25" y="-94.86" font-family="Helvetica,sans-Serif" font-size="10.00" fill="grey"> m_trace_starts</text>
</g>
<!-- Node7 -->
<g id="Node000007" class="node">
<title>Node7</title>
<g id="a_Node000007"><a xlink:title=" ">
<polygon fill="white" stroke="#666666" points="277.62,-49.25 175.38,-49.25 175.38,-18.75 277.62,-18.75 277.62,-49.25"/>
<text text-anchor="start" x="183.38" y="-35.75" font-family="Helvetica,sans-Serif" font-size="10.00">std::unordered_map</text>
<text text-anchor="middle" x="226.5" y="-24.5" font-family="Helvetica,sans-Serif" font-size="10.00">&lt; K, T &gt;</text>
</a>
</g>
</g>
<!-- Node7&#45;&gt;Node6 -->
<g id="edge7_Node000006_Node000007" class="edge">
<title>Node7&#45;&gt;Node6</title>
<g id="a_edge7_Node000006_Node000007"><a xlink:title=" ">
<path fill="none" stroke="orange" stroke-dasharray="5,2" d="M289.26,-29.55C328.93,-27.86 381.41,-27.8 427.25,-35 433.36,-35.96 439.65,-37.3 445.88,-38.87"/>
<polygon fill="orange" stroke="orange" points="289.24,-26.04 279.42,-30.02 289.58,-33.03 289.24,-26.04"/>
</a>
</g>
<text text-anchor="start" x="298.25" y="-70.5" font-family="Helvetica,sans-Serif" font-size="10.00" fill="grey"> &lt; std::string, std</text>
<text text-anchor="start" x="298.25" y="-59.25" font-family="Helvetica,sans-Serif" font-size="10.00" fill="grey">::chrono::time_point</text>
<text text-anchor="start" x="298.25" y="-48" font-family="Helvetica,sans-Serif" font-size="10.00" fill="grey">&lt; std::chrono::high_resolution</text>
<text text-anchor="middle" x="362.75" y="-36.75" font-family="Helvetica,sans-Serif" font-size="10.00" fill="grey">_clock &gt; &gt;</text>
</g>
<!-- Node7&#45;&gt;Node20 -->
<g id="edge32_Node000020_Node000007" class="edge">
<title>Node7&#45;&gt;Node20</title>
<g id="a_edge32_Node000020_Node000007"><a xlink:title=" ">
<path fill="none" stroke="orange" stroke-dasharray="5,2" d="M289.09,-22.13C345.4,-12.32 431.11,0 506.25,0 506.25,0 506.25,0 1011.25,0 1122.93,0 1230.33,-96.91 1273.26,-140.82"/>
<polygon fill="orange" stroke="orange" points="288.61,-18.66 279.38,-23.86 289.83,-25.56 288.61,-18.66"/>
</a>
</g>
<text text-anchor="start" x="758.5" y="-13" font-family="Helvetica,sans-Serif" font-size="10.00" fill="grey"> &lt; std::string, Ark</text>
<text text-anchor="middle" x="803.88" y="-1.75" font-family="Helvetica,sans-Serif" font-size="10.00" fill="grey">::internal::Package &gt;</text>
</g>
<!-- Node8 -->
<g id="Node000008" class="node">
<title>Node8</title>
<g id="a_Node000008"><a xlink:title=" ">
<polygon fill="white" stroke="#666666" points="61.4,-43.62 32.6,-43.62 32.6,-24.38 61.4,-24.38 61.4,-43.62"/>
<text text-anchor="middle" x="47" y="-30.12" font-family="Helvetica,sans-Serif" font-size="10.00">K</text>
</a>
</g>
</g>
<!-- Node8&#45;&gt;Node7 -->
<g id="edge8_Node000007_Node000008" class="edge">
<title>Node8&#45;&gt;Node7</title>
<g id="a_edge8_Node000007_Node000008"><a xlink:title=" ">
<path fill="none" stroke="#9a32cd" stroke-dasharray="5,2" d="M72.86,-34C99.23,-34 141.63,-34 175.05,-34"/>
<polygon fill="#9a32cd" stroke="#9a32cd" points="73.15,-30.5 63.15,-34 73.15,-37.5 73.15,-30.5"/>
</a>
</g>
<text text-anchor="middle" x="133.38" y="-35.75" font-family="Helvetica,sans-Serif" font-size="10.00" fill="grey"> keys</text>
</g>
<!-- Node9 -->
<g id="Node000009" class="node">
<title>Node9</title>
<g id="a_Node000009"><a xlink:title=" ">
<polygon fill="white" stroke="#666666" points="61.4,-415.62 32.6,-415.62 32.6,-396.38 61.4,-396.38 61.4,-415.62"/>
<text text-anchor="middle" x="47" y="-402.12" font-family="Helvetica,sans-Serif" font-size="10.00">T</text>
</a>
</g>
</g>
<!-- Node9&#45;&gt;Node7 -->
<g id="edge9_Node000007_Node000009" class="edge">
<title>Node9&#45;&gt;Node7</title>
<g id="a_edge9_Node000007_Node000009"><a xlink:title=" ">
<path fill="none" stroke="#9a32cd" stroke-dasharray="5,2" d="M57.69,-385.69C89.43,-319.16 189.85,-108.72 218.06,-49.59"/>
<polygon fill="#9a32cd" stroke="#9a32cd" points="54.55,-384.15 53.4,-394.68 60.86,-387.17 54.55,-384.15"/>
</a>
</g>
<text text-anchor="middle" x="133.38" y="-266.01" font-family="Helvetica,sans-Serif" font-size="10.00" fill="grey"> elements</text>
</g>
<!-- Node11 -->
<g id="Node000011" class="node">
<title>Node11</title>
<g id="a_Node000011"><a xlink:title=" ">
<polygon fill="white" stroke="#666666" points="269.75,-415.62 183.25,-415.62 183.25,-396.38 269.75,-396.38 269.75,-415.62"/>
<text text-anchor="middle" x="226.5" y="-402.12" font-family="Helvetica,sans-Serif" font-size="10.00">std::vector&lt; T &gt;</text>
</a>
</g>
</g>
<!-- Node9&#45;&gt;Node11 -->
<g id="edge13_Node000011_Node000009" class="edge">
<title>Node9&#45;&gt;Node11</title>
<g id="a_edge13_Node000011_Node000009"><a xlink:title=" ">
<path fill="none" stroke="#9a32cd" stroke-dasharray="5,2" d="M72.98,-406C101.55,-406 148.78,-406 183.12,-406"/>
<polygon fill="#9a32cd" stroke="#9a32cd" points="73.15,-402.5 63.15,-406 73.15,-409.5 73.15,-402.5"/>
</a>
</g>
<text text-anchor="middle" x="133.38" y="-407.75" font-family="Helvetica,sans-Serif" font-size="10.00" fill="grey"> elements</text>
</g>
<!-- Node19 -->
<g id="Node000019" class="node">
<title>Node19</title>
<g id="a_Node000019"><a xlink:title=" ">
<polygon fill="white" stroke="#666666" points="404.5,-453.62 321,-453.62 321,-434.38 404.5,-434.38 404.5,-453.62"/>
<text text-anchor="middle" x="362.75" y="-440.12" font-family="Helvetica,sans-Serif" font-size="10.00">std::stack&lt; T &gt;</text>
</a>
</g>
</g>
<!-- Node9&#45;&gt;Node19 -->
<g id="edge26_Node000019_Node000009" class="edge">
<title>Node9&#45;&gt;Node19</title>
<g id="a_edge26_Node000019_Node000009"><a xlink:title=" ">
<path fill="none" stroke="#9a32cd" stroke-dasharray="5,2" d="M72.46,-412.57C84.32,-415.54 98.82,-418.86 112,-421 185.07,-432.87 271.23,-439.12 320.87,-441.98"/>
<polygon fill="#9a32cd" stroke="#9a32cd" points="73.65,-409.26 63.09,-410.15 71.9,-416.04 73.65,-409.26"/>
</a>
</g>
<text text-anchor="middle" x="133.38" y="-428.39" font-family="Helvetica,sans-Serif" font-size="10.00" fill="grey"> elements</text>
</g>
<!-- Node10&#45;&gt;Node1 -->
<g id="edge33_Node000001_Node000010" class="edge">
<title>Node10&#45;&gt;Node1</title>
<g id="a_edge33_Node000001_Node000010"><a xlink:title=" ">
<path fill="none" stroke="#9a32cd" stroke-dasharray="5,2" d="M580.66,-212C640.3,-212 727.07,-212 802.88,-212 802.88,-212 802.88,-212 1294.88,-212 1378.16,-212 1472.5,-247.07 1515.04,-264.88"/>
<polygon fill="#9a32cd" stroke="#9a32cd" points="580.99,-208.5 570.99,-212 580.99,-215.5 580.99,-208.5"/>
</a>
</g>
<text text-anchor="middle" x="1010.25" y="-213.75" font-family="Helvetica,sans-Serif" font-size="10.00" fill="grey"> m_imported</text>
</g>
<!-- Node10&#45;&gt;Node3 -->
<g id="edge10_Node000003_Node000010" class="edge">
<title>Node10&#45;&gt;Node3</title>
<g id="a_edge10_Node000003_Node000010"><a xlink:title=" ">
<path fill="none" stroke="#9a32cd" stroke-dasharray="5,2" d="M550.5,-198.52C610.79,-179.25 715.17,-145.72 723.25,-142 731.77,-138.08 732.85,-135.16 741.25,-131 751.64,-125.85 763.43,-121.03 773.89,-117.08"/>
<polygon fill="#9a32cd" stroke="#9a32cd" points="549.69,-195.11 541.23,-201.48 551.82,-201.78 549.69,-195.11"/>
</a>
</g>
<text text-anchor="middle" x="655.25" y="-186.73" font-family="Helvetica,sans-Serif" font-size="10.00" fill="grey"> m_active_traces</text>
</g>
<!-- Node10&#45;&gt;Node18 -->
<g id="edge24_Node000018_Node000010" class="edge">
<title>Node10&#45;&gt;Node18</title>
<g id="a_edge24_Node000018_Node000010"><a xlink:title=" ">
<path fill="none" stroke="#9a32cd" stroke-dasharray="5,2" d="M580.6,-223.45C622.32,-230.09 675.76,-238.66 723.25,-246.5 732.66,-248.05 742.68,-249.73 752.34,-251.36"/>
<polygon fill="#9a32cd" stroke="#9a32cd" points="581.36,-220.02 570.93,-221.91 580.26,-226.94 581.36,-220.02"/>
</a>
</g>
<text text-anchor="middle" x="655.25" y="-259.5" font-family="Helvetica,sans-Serif" font-size="10.00" fill="grey"> package</text>
<text text-anchor="middle" x="655.25" y="-248.25" font-family="Helvetica,sans-Serif" font-size="10.00" fill="grey">symbols</text>
</g>
<!-- Node11&#45;&gt;Node10 -->
<g id="edge12_Node000010_Node000011" class="edge">
<title>Node11&#45;&gt;Node10</title>
<g id="a_edge12_Node000010_Node000011"><a xlink:title=" ">
<path fill="none" stroke="orange" stroke-dasharray="5,2" d="M277.39,-390.26C278.38,-389.54 279.33,-388.79 280.25,-388 293.31,-376.82 287.25,-366.97 298.25,-353.75 351.43,-289.82 373.71,-280.39 445.25,-238 455.65,-231.84 467.78,-226.36 478.47,-222.03"/>
<polygon fill="orange" stroke="orange" points="275.98,-387.03 269.16,-395.13 279.55,-393.05 275.98,-387.03"/>
</a>
</g>
<text text-anchor="middle" x="362.75" y="-355.5" font-family="Helvetica,sans-Serif" font-size="10.00" fill="grey"> &lt; std::string &gt;</text>
</g>
<!-- Node12 -->
<g id="Node000012" class="node">
<title>Node12</title>
<g id="a_Node000012"><a xlink:title=" ">
<polygon fill="white" stroke="#666666" points="723.25,-426.25 587.25,-426.25 587.25,-395.75 723.25,-395.75 723.25,-426.25"/>
<text text-anchor="start" x="595.25" y="-412.75" font-family="Helvetica,sans-Serif" font-size="10.00">std::vector&lt; std::filesystem</text>
<text text-anchor="middle" x="655.25" y="-401.5" font-family="Helvetica,sans-Serif" font-size="10.00">::path &gt;</text>
</a>
</g>
</g>
<!-- Node11&#45;&gt;Node12 -->
<g id="edge15_Node000012_Node000011" class="edge">
<title>Node11&#45;&gt;Node12</title>
<g id="a_edge15_Node000012_Node000011"><a xlink:title=" ">
<path fill="none" stroke="orange" stroke-dasharray="5,2" d="M281.59,-403.05C287.22,-402.82 292.85,-402.63 298.25,-402.5 398.84,-400.01 515.41,-404.12 586.99,-407.45"/>
<polygon fill="orange" stroke="orange" points="281.49,-399.55 271.65,-403.48 281.79,-406.54 281.49,-399.55"/>
</a>
</g>
<text text-anchor="start" x="321.5" y="-415.5" font-family="Helvetica,sans-Serif" font-size="10.00" fill="grey"> &lt; std::filesystem::</text>
<text text-anchor="middle" x="362.75" y="-404.25" font-family="Helvetica,sans-Serif" font-size="10.00" fill="grey">path &gt;</text>
</g>
<!-- Node12&#45;&gt;Node1 -->
<g id="edge14_Node000001_Node000012" class="edge">
<title>Node12&#45;&gt;Node1</title>
<g id="a_edge14_Node000001_Node000012"><a xlink:title=" ">
<path fill="none" stroke="#9a32cd" stroke-dasharray="5,2" d="M681.39,-433.98C697.37,-447.26 719.15,-463.07 741.25,-472 809.4,-499.54 831.37,-496 904.88,-496 904.88,-496 904.88,-496 1294.88,-496 1422.08,-496 1512.15,-328.3 1533.26,-285.07"/>
<polygon fill="#9a32cd" stroke="#9a32cd" points="683.71,-431.36 673.84,-427.5 679.15,-436.67 683.71,-431.36"/>
</a>
</g>
<text text-anchor="middle" x="1010.25" y="-497.75" font-family="Helvetica,sans-Serif" font-size="10.00" fill="grey"> m_libenv</text>
</g>
<!-- Node13&#45;&gt;Node1 -->
<g id="edge16_Node000001_Node000013" class="edge">
<title>Node13&#45;&gt;Node1</title>
<g id="a_edge16_Node000001_Node000013"><a xlink:title=" ">
<path fill="none" stroke="#9a32cd" stroke-dasharray="5,2" d="M864.47,-322.59C919.26,-322.16 1002.73,-321.35 1075.25,-320 1126.37,-319.05 1139.26,-320.74 1190.25,-317 1289.56,-309.72 1404.11,-294.57 1473.76,-284.6"/>
<polygon fill="#9a32cd" stroke="#9a32cd" points="864.72,-319.09 854.74,-322.67 864.77,-326.09 864.72,-319.09"/>
</a>
</g>
<text text-anchor="middle" x="1141.75" y="-321.49" font-family="Helvetica,sans-Serif" font-size="10.00" fill="grey"> m_ast</text>
</g>
<!-- Node21 -->
<g id="Node000021" class="node">
<title>Node21</title>
<g id="a_Node000021"><a xlink:href="../../dd/d76/structArk_1_1internal_1_1Package.html" target="_top" xlink:title=" ">
<polygon fill="white" stroke="#666666" points="1066.62,-260.62 953.88,-260.62 953.88,-241.38 1066.62,-241.38 1066.62,-260.62"/>
<text text-anchor="middle" x="1010.25" y="-247.12" font-family="Helvetica,sans-Serif" font-size="10.00">Ark::internal::Package</text>
</a>
</g>
</g>
<!-- Node13&#45;&gt;Node21 -->
<g id="edge30_Node000021_Node000013" class="edge">
<title>Node13&#45;&gt;Node21</title>
<g id="a_edge30_Node000021_Node000013"><a xlink:title=" ">
<path fill="none" stroke="#9a32cd" stroke-dasharray="5,2" d="M828.71,-306.89C844.05,-297.18 864.75,-285.27 884.5,-277.75 906.44,-269.39 931.6,-263.37 953.55,-259.18"/>
<polygon fill="#9a32cd" stroke="#9a32cd" points="827.22,-303.69 820.73,-312.06 831.03,-309.56 827.22,-303.69"/>
</a>
</g>
<text text-anchor="middle" x="905.88" y="-279.5" font-family="Helvetica,sans-Serif" font-size="10.00" fill="grey"> ast</text>
</g>
<!-- Node14 -->
<g id="Node000014" class="node">
<title>Node14</title>
<g id="a_Node000014"><a xlink:href="../../dc/dda/structArk_1_1internal_1_1FileSpan.html" target="_top" xlink:title="Describes a span for a node/atom in a file, its start position and end position.">
<polygon fill="white" stroke="#666666" points="563.62,-378.62 450.88,-378.62 450.88,-359.38 563.62,-359.38 563.62,-378.62"/>
<text text-anchor="middle" x="507.25" y="-365.12" font-family="Helvetica,sans-Serif" font-size="10.00">Ark::internal::FileSpan</text>
</a>
</g>
</g>
<!-- Node14&#45;&gt;Node13 -->
<g id="edge17_Node000013_Node000014" class="edge">
<title>Node14&#45;&gt;Node13</title>
<g id="a_edge17_Node000013_Node000014"><a xlink:title=" ">
<path fill="none" stroke="#9a32cd" stroke-dasharray="5,2" d="M575.34,-358.53C629.99,-349.99 705.85,-338.15 754.66,-330.53"/>
<polygon fill="#9a32cd" stroke="#9a32cd" points="574.85,-355.06 565.51,-360.06 575.93,-361.98 574.85,-355.06"/>
</a>
</g>
<text text-anchor="middle" x="655.25" y="-358.41" font-family="Helvetica,sans-Serif" font-size="10.00" fill="grey"> m_pos</text>
</g>
<!-- Node15 -->
<g id="Node000015" class="node">
<title>Node15</title>
<g id="a_Node000015"><a xlink:href="../../d7/df6/structArk_1_1internal_1_1FilePos.html" target="_top" xlink:title=" ">
<polygon fill="white" stroke="#666666" points="280.25,-378.62 172.75,-378.62 172.75,-359.38 280.25,-359.38 280.25,-378.62"/>
<text text-anchor="middle" x="226.5" y="-365.12" font-family="Helvetica,sans-Serif" font-size="10.00">Ark::internal::FilePos</text>
</a>
</g>
</g>
<!-- Node15&#45;&gt;Node14 -->
<g id="edge18_Node000014_Node000015" class="edge">
<title>Node15&#45;&gt;Node14</title>
<g id="a_edge18_Node000014_Node000015"><a xlink:title=" ">
<path fill="none" stroke="#9a32cd" stroke-dasharray="5,2" d="M292.09,-369C340.05,-369 404.79,-369 450.5,-369"/>
<polygon fill="#9a32cd" stroke="#9a32cd" points="292.1,-365.5 282.1,-369 292.1,-372.5 292.1,-365.5"/>
</a>
</g>
<text text-anchor="middle" x="362.75" y="-370.75" font-family="Helvetica,sans-Serif" font-size="10.00" fill="grey"> start</text>
</g>
<!-- Node16 -->
<g id="Node000016" class="node">
<title>Node16</title>
<g id="a_Node000016"><a xlink:title=" ">
<polygon fill="white" stroke="#666666" points="1379.5,-397.25 1208.25,-397.25 1208.25,-366.75 1379.5,-366.75 1379.5,-397.25"/>
<text text-anchor="start" x="1216.25" y="-383.75" font-family="Helvetica,sans-Serif" font-size="10.00">std::stack&lt; Ark::internal</text>
<text text-anchor="middle" x="1293.88" y="-372.5" font-family="Helvetica,sans-Serif" font-size="10.00">::ImportSolver::ImportWithSource &gt;</text>
</a>
</g>
</g>
<!-- Node16&#45;&gt;Node1 -->
<g id="edge20_Node000001_Node000016" class="edge">
<title>Node16&#45;&gt;Node1</title>
<g id="a_edge20_Node000001_Node000016"><a xlink:title=" ">
<path fill="none" stroke="#9a32cd" stroke-dasharray="5,2" d="M1390.97,-374.09C1413.14,-369.75 1436.05,-363.12 1456,-353 1488.95,-336.3 1517.73,-302.06 1530.69,-285.05"/>
<polygon fill="#9a32cd" stroke="#9a32cd" points="1390.52,-370.62 1381.3,-375.83 1391.77,-377.51 1390.52,-370.62"/>
</a>
</g>
<text text-anchor="middle" x="1426.75" y="-373.67" font-family="Helvetica,sans-Serif" font-size="10.00" fill="grey"> m_imports</text>
</g>
<!-- Node17 -->
<g id="Node000017" class="node">
<title>Node17</title>
<g id="a_Node000017"><a xlink:href="../../d8/dbc/structArk_1_1internal_1_1ImportSolver_1_1ImportWithSource.html" target="_top" xlink:title=" ">
<polygon fill="white" stroke="#666666" points="1075.25,-311.25 945.25,-311.25 945.25,-280.75 1075.25,-280.75 1075.25,-311.25"/>
<text text-anchor="start" x="953.25" y="-297.75" font-family="Helvetica,sans-Serif" font-size="10.00">Ark::internal::ImportSolver</text>
<text text-anchor="middle" x="1010.25" y="-286.5" font-family="Helvetica,sans-Serif" font-size="10.00">::ImportWithSource</text>
</a>
</g>
</g>
<!-- Node17&#45;&gt;Node16 -->
<g id="edge21_Node000016_Node000017" class="edge">
<title>Node17&#45;&gt;Node16</title>
<g id="a_edge21_Node000016_Node000017"><a xlink:title=" ">
<path fill="none" stroke="#9a32cd" stroke-dasharray="5,2" d="M1086.88,-290.54C1119.54,-290.6 1157.65,-293.97 1190.25,-305.75 1225.74,-318.57 1259.35,-347.99 1277.93,-366.31"/>
<polygon fill="#9a32cd" stroke="#9a32cd" points="1087.05,-287.04 1077.09,-290.64 1087.12,-294.04 1087.05,-287.04"/>
</a>
</g>
<text text-anchor="middle" x="1141.75" y="-307.5" font-family="Helvetica,sans-Serif" font-size="10.00" fill="grey"> elements</text>
</g>
<!-- Node18&#45;&gt;Node17 -->
<g id="edge22_Node000017_Node000018" class="edge">
<title>Node18&#45;&gt;Node17</title>
<g id="a_edge22_Node000017_Node000018"><a xlink:title=" ">
<path fill="none" stroke="#9a32cd" stroke-dasharray="5,2" d="M835.63,-274.72C850.11,-280.94 867.84,-287.52 884.5,-291 903.91,-295.05 925.39,-296.84 944.97,-297.48"/>
<polygon fill="#9a32cd" stroke="#9a32cd" points="837.2,-271.59 826.64,-270.72 834.35,-277.98 837.2,-271.59"/>
</a>
</g>
<text text-anchor="middle" x="905.88" y="-298.19" font-family="Helvetica,sans-Serif" font-size="10.00" fill="grey"> import</text>
</g>
<!-- Node18&#45;&gt;Node21 -->
<g id="edge31_Node000021_Node000018" class="edge">
<title>Node18&#45;&gt;Node21</title>
<g id="a_edge31_Node000021_Node000018"><a xlink:title=" ">
<path fill="none" stroke="#9a32cd" stroke-dasharray="5,2" d="M864.67,-248.13C871.34,-247.15 878.05,-246.32 884.5,-245.75 907.06,-243.75 931.99,-244.25 953.6,-245.56"/>
<polygon fill="#9a32cd" stroke="#9a32cd" points="864.37,-244.63 855.03,-249.65 865.46,-251.54 864.37,-244.63"/>
</a>
</g>
<text text-anchor="middle" x="905.88" y="-247.5" font-family="Helvetica,sans-Serif" font-size="10.00" fill="grey"> import</text>
</g>
<!-- Node19&#45;&gt;Node16 -->
<g id="edge25_Node000016_Node000019" class="edge">
<title>Node19&#45;&gt;Node16</title>
<g id="a_edge25_Node000016_Node000019"><a xlink:title=" ">
<path fill="none" stroke="orange" stroke-dasharray="5,2" d="M416.1,-444.29C474.26,-444.58 570.97,-445 654.25,-445 654.25,-445 654.25,-445 1011.25,-445 1097.68,-445 1195.5,-416.4 1250.12,-397.74"/>
<polygon fill="orange" stroke="orange" points="416.17,-440.79 406.16,-444.24 416.14,-447.79 416.17,-440.79"/>
</a>
</g>
<text text-anchor="start" x="741.25" y="-458" font-family="Helvetica,sans-Serif" font-size="10.00" fill="grey"> &lt; Ark::internal::ImportSolver</text>
<text text-anchor="middle" x="803.88" y="-446.75" font-family="Helvetica,sans-Serif" font-size="10.00" fill="grey">::ImportWithSource &gt;</text>
</g>
<!-- Node20&#45;&gt;Node1 -->
<g id="edge27_Node000001_Node000020" class="edge">
<title>Node20&#45;&gt;Node1</title>
<g id="a_edge27_Node000001_Node000020"><a xlink:title=" ">
<path fill="none" stroke="#9a32cd" stroke-dasharray="5,2" d="M1356.7,-162.01C1388.01,-164.3 1425.71,-170.7 1456,-186.75 1491.67,-205.65 1520.16,-246.21 1532.03,-265.03"/>
<polygon fill="#9a32cd" stroke="#9a32cd" points="1357.18,-158.53 1346.99,-161.43 1356.76,-165.52 1357.18,-158.53"/>
</a>
</g>
<text text-anchor="middle" x="1426.75" y="-188.5" font-family="Helvetica,sans-Serif" font-size="10.00" fill="grey"> m_packages</text>
</g>
<!-- Node21&#45;&gt;Node20 -->
<g id="edge29_Node000020_Node000021" class="edge">
<title>Node21&#45;&gt;Node20</title>
<g id="a_edge29_Node000020_Node000021"><a xlink:title=" ">
<path fill="none" stroke="#9a32cd" stroke-dasharray="5,2" d="M1054.16,-237.44C1104.74,-221.46 1188.68,-194.93 1242.36,-177.96"/>
<polygon fill="#9a32cd" stroke="#9a32cd" points="1053.21,-234.07 1044.72,-240.42 1055.31,-240.75 1053.21,-234.07"/>
</a>
</g>
<text text-anchor="middle" x="1141.75" y="-226.45" font-family="Helvetica,sans-Serif" font-size="10.00" fill="grey"> elements</text>
</g>
</g>
</svg>
