<?xml version="1.0" encoding="UTF-8" standalone="no"?>
<!DOCTYPE svg PUBLIC "-//W3C//DTD SVG 1.1//EN"
 "http://www.w3.org/Graphics/SVG/1.1/DTD/svg11.dtd">
<!-- Generated by graphviz version 12.2.0 (20241103.1931)
 -->
<!-- Title: Ark::internal::ImportSolver Pages: 1 -->
<!--zoomable 531 -->

<svg id="main" version="1.1" xmlns="http://www.w3.org/2000/svg" xmlns:xlink="http://www.w3.org/1999/xlink" xml:space="preserve" onload="init(evt)">

<style type="text/css"><![CDATA[
.node, .edge {opacity: 0.7;}
.node.selected, .edge.selected {opacity: 1;}
.edge:hover path { stroke: red; }
.edge:hover polygon { stroke: red; fill: red; }
]]></style>

<defs>
  <circle id="rim" cx="0" cy="0" r="7"/>
  <circle id="rim2" cx="0" cy="0" r="3.5"/>
  <g id="zoomPlus">
    <use xlink:href="#rim" fill="#404040"><set attributeName="fill" to="#808080" begin="zoomplus.mouseover" end="zoomplus.mouseout"/></use>
    <path d="M-4,0h8M0,-4v8" fill="none" stroke="white" stroke-width="1.5" pointer-events="none"/>
  </g>
  <g id="zoomMin">
    <use xlink:href="#rim" fill="#404040"><set attributeName="fill" to="#808080" begin="zoomminus.mouseover" end="zoomminus.mouseout"/></use>
    <path d="M-4,0h8" fill="none" stroke="white" stroke-width="1.5" pointer-events="none"/>
  </g>
  <g id="arrowUp" transform="translate(30 24)">
    <use xlink:href="#rim"/>
    <path pointer-events="none" fill="none" stroke="white" stroke-width="1.5" d="M0,-3.0v7 M-2.5,-0.5L0,-3.0L2.5,-0.5"/>
  </g>
  <g id="arrowRight" transform="rotate(90) translate(36 -43)">
    <use xlink:href="#rim"/>
    <path pointer-events="none" fill="none" stroke="white" stroke-width="1.5" d="M0,-3.0v7 M-2.5,-0.5L0,-3.0L2.5,-0.5"/>
  </g>
  <g id="arrowDown" transform="rotate(180) translate(-30 -48)">
    <use xlink:href="#rim"/>
    <path pointer-events="none" fill="none" stroke="white" stroke-width="1.5" d="M0,-3.0v7 M-2.5,-0.5L0,-3.0L2.5,-0.5"/>
  </g>
  <g id="arrowLeft" transform="rotate(270) translate(-36 17)">
    <use xlink:href="#rim"/>
    <path pointer-events="none" fill="none" stroke="white" stroke-width="1.5" d="M0,-3.0v7 M-2.5,-0.5L0,-3.0L2.5,-0.5"/>
  </g>
  <g id="resetDef">
    <use xlink:href="#rim2" fill="#404040"><set attributeName="fill" to="#808080" begin="reset.mouseover" end="reset.mouseout"/></use>
  </g>
</defs>
<script type="application/ecmascript">
var viewWidth = 1745;
var viewHeight = 531;
var sectionId = 'dynsection-1';
</script>
<script type="application/ecmascript" xlink:href="../../svg.min.js"/>
<svg id="graph" class="graph">
<g id="viewport">
<title>Ark::internal::ImportSolver</title>
<!-- Node1 -->
<g id="Node000001" class="node">
<title>Node1</title>
<g id="a_Node000001"><a xlink:title=" ">
<polygon fill="#999999" stroke="#666666" points="1737.25,-180.25 1607.25,-180.25 1607.25,-161 1737.25,-161 1737.25,-180.25"/>
<text text-anchor="middle" x="1672.25" y="-166.75" font-family="Helvetica,sans-Serif" font-size="10.00">Ark::internal::ImportSolver</text>
</a>
</g>
</g>
<!-- Node2 -->
<g id="Node000002" class="node">
<title>Node2</title>
<g id="a_Node000002"><a xlink:href="../../da/d7b/classArk_1_1internal_1_1Pass.html" target="_top" xlink:title="An interface to describe compiler passes.">
<polygon fill="white" stroke="#666666" points="1323.5,-428.25 1226.5,-428.25 1226.5,-409 1323.5,-409 1323.5,-428.25"/>
<text text-anchor="middle" x="1275" y="-414.75" font-family="Helvetica,sans-Serif" font-size="10.00">Ark::internal::Pass</text>
</a>
</g>
</g>
<!-- Node2&#45;&gt;Node1 -->
<g id="edge1_Node000001_Node000002" class="edge">
<title>Node2&#45;&gt;Node1</title>
<g id="a_edge1_Node000001_Node000002"><a xlink:title=" ">
<path fill="none" stroke="#63b8ff" d="M1316.97,-404.46C1319.19,-403.54 1321.38,-402.59 1323.5,-401.62 1446.73,-345.5 1481.31,-334.38 1589.25,-252.62 1619.1,-230.02 1648.86,-196.97 1662.91,-180.59"/>
<polygon fill="#63b8ff" stroke="#63b8ff" points="1315.9,-401.12 1307.87,-408.03 1318.45,-407.64 1315.9,-401.12"/>
</a>
</g>
</g>
<!-- Node3 -->
<g id="Node000003" class="node">
<title>Node3</title>
<g id="a_Node000003"><a xlink:href="../../d6/d2f/classArk_1_1internal_1_1Logger.html" target="_top" xlink:title=" ">
<polygon fill="white" stroke="#666666" points="989,-447.25 885.25,-447.25 885.25,-428 989,-428 989,-447.25"/>
<text text-anchor="middle" x="937.12" y="-433.75" font-family="Helvetica,sans-Serif" font-size="10.00">Ark::internal::Logger</text>
</a>
</g>
</g>
<!-- Node3&#45;&gt;Node2 -->
<g id="edge2_Node000002_Node000003" class="edge">
<title>Node3&#45;&gt;Node2</title>
<g id="a_edge2_Node000002_Node000003"><a xlink:title=" ">
<path fill="none" stroke="#9a32cd" stroke-dasharray="5,2" d="M1000.49,-434.1C1065.74,-430.41 1166.77,-424.69 1226.05,-421.34"/>
<polygon fill="#9a32cd" stroke="#9a32cd" points="1000.43,-430.59 990.65,-434.65 1000.83,-437.58 1000.43,-430.59"/>
</a>
</g>
<text text-anchor="middle" x="1039.12" y="-434.57" font-family="Helvetica,sans-Serif" font-size="10.00" fill="grey"> m_logger</text>
</g>
<!-- Node4 -->
<g id="Node000004" class="node">
<title>Node4</title>
<g id="a_Node000004"><a xlink:title=" ">
<polygon fill="white" stroke="#666666" points="389.5,-281.25 330,-281.25 330,-262 389.5,-262 389.5,-281.25"/>
<text text-anchor="middle" x="359.75" y="-267.75" font-family="Helvetica,sans-Serif" font-size="10.00">std::string</text>
</a>
</g>
</g>
<!-- Node4&#45;&gt;Node3 -->
<g id="edge3_Node000003_Node000004" class="edge">
<title>Node4&#45;&gt;Node3</title>
<g id="a_edge3_Node000003_Node000004"><a xlink:title=" ">
<path fill="none" stroke="#9a32cd" stroke-dasharray="5,2" d="M383.47,-288.11C396.86,-297.14 414.48,-307.83 431.5,-314.62 485.98,-336.38 503.39,-329.21 560.5,-342.62 684.43,-371.74 830.41,-409.72 898.11,-427.55"/>
<polygon fill="#9a32cd" stroke="#9a32cd" points="385.58,-285.32 375.37,-282.5 381.59,-291.07 385.58,-285.32"/>
</a>
</g>
<text text-anchor="middle" x="640.5" y="-377.98" font-family="Helvetica,sans-Serif" font-size="10.00" fill="grey"> m_name</text>
</g>
<!-- Node6 -->
<g id="Node000006" class="node">
<title>Node6</title>
<g id="a_Node000006"><a xlink:title=" ">
<polygon fill="white" stroke="#666666" points="701.75,-479.75 579.25,-479.75 579.25,-415.5 701.75,-415.5 701.75,-479.75"/>
<text text-anchor="start" x="587.25" y="-466.25" font-family="Helvetica,sans-Serif" font-size="10.00">std::unordered_map</text>
<text text-anchor="start" x="587.25" y="-455" font-family="Helvetica,sans-Serif" font-size="10.00">&lt; std::string, std::</text>
<text text-anchor="start" x="587.25" y="-443.75" font-family="Helvetica,sans-Serif" font-size="10.00">chrono::time_point&lt; std</text>
<text text-anchor="start" x="587.25" y="-432.5" font-family="Helvetica,sans-Serif" font-size="10.00">::chrono::high_resolution</text>
<text text-anchor="middle" x="640.5" y="-421.25" font-family="Helvetica,sans-Serif" font-size="10.00">_clock &gt; &gt;</text>
</a>
</g>
</g>
<!-- Node4&#45;&gt;Node6 -->
<g id="edge6_Node000006_Node000004" class="edge">
<title>Node4&#45;&gt;Node6</title>
<g id="a_edge6_Node000006_Node000004"><a xlink:title=" ">
<path fill="none" stroke="#9a32cd" stroke-dasharray="5,2" d="M376.23,-290.21C389.58,-305.24 410.03,-326.06 431.5,-339.62 483.32,-372.36 506.78,-358.86 560.5,-388.38 574.32,-395.97 588.41,-405.76 600.79,-415.18"/>
<polygon fill="#9a32cd" stroke="#9a32cd" points="379.07,-288.14 369.89,-282.86 373.78,-292.72 379.07,-288.14"/>
</a>
</g>
<text text-anchor="middle" x="496" y="-390.12" font-family="Helvetica,sans-Serif" font-size="10.00" fill="grey"> keys</text>
</g>
<!-- Node10 -->
<g id="Node000010" class="node">
<title>Node10</title>
<g id="a_Node000010"><a xlink:title=" ">
<polygon fill="white" stroke="#666666" points="702.5,-120.25 578.5,-120.25 578.5,-101 702.5,-101 702.5,-120.25"/>
<text text-anchor="middle" x="640.5" y="-106.75" font-family="Helvetica,sans-Serif" font-size="10.00">std::vector&lt; std::string &gt;</text>
</a>
</g>
</g>
<!-- Node4&#45;&gt;Node10 -->
<g id="edge11_Node000010_Node000004" class="edge">
<title>Node4&#45;&gt;Node10</title>
<g id="a_edge11_Node000010_Node000004"><a xlink:title=" ">
<path fill="none" stroke="#9a32cd" stroke-dasharray="5,2" d="M374.06,-252.01C385.42,-234.74 401.75,-208.68 413.5,-184.62 423.37,-164.43 413.85,-151.28 431.5,-137.38 453.63,-119.94 525.01,-113.81 578.01,-111.69"/>
<polygon fill="#9a32cd" stroke="#9a32cd" points="371.19,-250 368.55,-260.26 377.01,-253.89 371.19,-250"/>
</a>
</g>
<text text-anchor="middle" x="496" y="-139.12" font-family="Helvetica,sans-Serif" font-size="10.00" fill="grey"> elements</text>
</g>
<!-- Node17 -->
<g id="Node000017" class="node">
<title>Node17</title>
<g id="a_Node000017"><a xlink:href="../../dc/d9e/classArk_1_1internal_1_1Node.html" target="_top" xlink:title="A node of an Abstract Syntax Tree for ArkScript.">
<polygon fill="white" stroke="#666666" points="986,-233.25 888.25,-233.25 888.25,-214 986,-214 986,-233.25"/>
<text text-anchor="middle" x="937.12" y="-219.75" font-family="Helvetica,sans-Serif" font-size="10.00">Ark::internal::Node</text>
</a>
</g>
</g>
<!-- Node4&#45;&gt;Node17 -->
<g id="edge23_Node000017_Node000004" class="edge">
<title>Node4&#45;&gt;Node17</title>
<g id="a_edge23_Node000017_Node000004"><a xlink:title=" ">
<path fill="none" stroke="#9a32cd" stroke-dasharray="5,2" d="M401.1,-268.26C504.15,-259.66 776.71,-236.92 887.88,-227.65"/>
<polygon fill="#9a32cd" stroke="#9a32cd" points="400.86,-264.77 391.19,-269.09 401.44,-271.74 400.86,-264.77"/>
</a>
</g>
<text text-anchor="middle" x="640.5" y="-277.43" font-family="Helvetica,sans-Serif" font-size="10.00" fill="grey"> m_after_comment</text>
<text text-anchor="middle" x="640.5" y="-266.18" font-family="Helvetica,sans-Serif" font-size="10.00" fill="grey">m_comment</text>
<text text-anchor="middle" x="640.5" y="-254.93" font-family="Helvetica,sans-Serif" font-size="10.00" fill="grey">m_filename</text>
</g>
<!-- Node22 -->
<g id="Node000022" class="node">
<title>Node22</title>
<g id="a_Node000022"><a xlink:href="../../da/d03/structArk_1_1internal_1_1Import.html" target="_top" xlink:title=" ">
<polygon fill="white" stroke="#666666" points="988.25,-170.25 886,-170.25 886,-151 988.25,-151 988.25,-170.25"/>
<text text-anchor="middle" x="937.12" y="-156.75" font-family="Helvetica,sans-Serif" font-size="10.00">Ark::internal::Import</text>
</a>
</g>
</g>
<!-- Node4&#45;&gt;Node22 -->
<g id="edge27_Node000022_Node000004" class="edge">
<title>Node4&#45;&gt;Node22</title>
<g id="a_edge27_Node000022_Node000004"><a xlink:title=" ">
<path fill="none" stroke="#9a32cd" stroke-dasharray="5,2" d="M400.72,-259.5C410.72,-256.69 421.46,-253.88 431.5,-251.62 618.37,-209.74 669.03,-219.76 856.5,-180.62 870.31,-177.74 885.35,-174.1 898.6,-170.71"/>
<polygon fill="#9a32cd" stroke="#9a32cd" points="399.93,-256.09 391.28,-262.21 401.86,-262.81 399.93,-256.09"/>
</a>
</g>
<text text-anchor="middle" x="640.5" y="-225.67" font-family="Helvetica,sans-Serif" font-size="10.00" fill="grey"> prefix</text>
</g>
<!-- Node24 -->
<g id="Node000024" class="node">
<title>Node24</title>
<g id="a_Node000024"><a xlink:title=" ">
<polygon fill="white" stroke="#666666" points="1478.25,-284.5 1376,-284.5 1376,-242.75 1478.25,-242.75 1478.25,-284.5"/>
<text text-anchor="start" x="1384" y="-271" font-family="Helvetica,sans-Serif" font-size="10.00">std::unordered_map</text>
<text text-anchor="start" x="1384" y="-259.75" font-family="Helvetica,sans-Serif" font-size="10.00">&lt; std::string, Ark::</text>
<text text-anchor="middle" x="1427.12" y="-248.5" font-family="Helvetica,sans-Serif" font-size="10.00">internal::Package &gt;</text>
</a>
</g>
</g>
<!-- Node4&#45;&gt;Node24 -->
<g id="edge32_Node000024_Node000004" class="edge">
<title>Node4&#45;&gt;Node24</title>
<g id="a_edge32_Node000024_Node000004"><a xlink:title=" ">
<path fill="none" stroke="#9a32cd" stroke-dasharray="5,2" d="M401.22,-275.73C444.9,-279.95 516.55,-286.21 578.5,-288.62 881.18,-300.42 1244.85,-277.11 1375.96,-267.5"/>
<polygon fill="#9a32cd" stroke="#9a32cd" points="401.74,-272.27 391.45,-274.78 401.06,-279.23 401.74,-272.27"/>
</a>
</g>
<text text-anchor="middle" x="937.12" y="-292.48" font-family="Helvetica,sans-Serif" font-size="10.00" fill="grey"> keys</text>
</g>
<!-- Node5 -->
<g id="Node000005" class="node">
<title>Node5</title>
<g id="a_Node000005"><a xlink:title=" ">
<polygon fill="white" stroke="#666666" points="216.38,-286.88 122.38,-286.88 122.38,-256.38 216.38,-256.38 216.38,-286.88"/>
<text text-anchor="start" x="130.38" y="-273.38" font-family="Helvetica,sans-Serif" font-size="10.00">std::basic_string&lt;</text>
<text text-anchor="middle" x="169.38" y="-262.12" font-family="Helvetica,sans-Serif" font-size="10.00"> Char &gt;</text>
</a>
</g>
</g>
<!-- Node5&#45;&gt;Node4 -->
<g id="edge4_Node000004_Node000005" class="edge">
<title>Node5&#45;&gt;Node4</title>
<g id="a_edge4_Node000004_Node000005"><a xlink:title=" ">
<path fill="none" stroke="#63b8ff" d="M227.56,-271.62C261.24,-271.62 302.42,-271.62 329.56,-271.62"/>
<polygon fill="#63b8ff" stroke="#63b8ff" points="227.97,-268.13 217.97,-271.63 227.97,-275.13 227.97,-268.13"/>
</a>
</g>
</g>
<!-- Node6&#45;&gt;Node3 -->
<g id="edge5_Node000003_Node000006" class="edge">
<title>Node6&#45;&gt;Node3</title>
<g id="a_edge5_Node000003_Node000006"><a xlink:title=" ">
<path fill="none" stroke="#9a32cd" stroke-dasharray="5,2" d="M713.56,-445.18C766.62,-443.38 837.47,-440.97 884.85,-439.37"/>
<polygon fill="#9a32cd" stroke="#9a32cd" points="713.58,-441.68 703.7,-445.51 713.81,-448.67 713.58,-441.68"/>
</a>
</g>
<text text-anchor="middle" x="788.5" y="-446.69" font-family="Helvetica,sans-Serif" font-size="10.00" fill="grey"> m_trace_starts</text>
</g>
<!-- Node7 -->
<g id="Node000007" class="node">
<title>Node7</title>
<g id="a_Node000007"><a xlink:title=" ">
<polygon fill="white" stroke="#666666" points="410.88,-402.88 308.62,-402.88 308.62,-372.38 410.88,-372.38 410.88,-402.88"/>
<text text-anchor="start" x="316.62" y="-389.38" font-family="Helvetica,sans-Serif" font-size="10.00">std::unordered_map</text>
<text text-anchor="middle" x="359.75" y="-378.12" font-family="Helvetica,sans-Serif" font-size="10.00">&lt; K, T &gt;</text>
</a>
</g>
</g>
<!-- Node7&#45;&gt;Node6 -->
<g id="edge7_Node000006_Node000007" class="edge">
<title>Node7&#45;&gt;Node6</title>
<g id="a_edge7_Node000006_Node000007"><a xlink:title=" ">
<path fill="none" stroke="orange" stroke-dasharray="5,2" d="M422.41,-400.9C469.09,-410.94 532.87,-424.67 579.21,-434.65"/>
<polygon fill="orange" stroke="orange" points="423.22,-397.49 412.71,-398.81 421.75,-404.34 423.22,-397.49"/>
</a>
</g>
<text text-anchor="start" x="431.5" y="-465.4" font-family="Helvetica,sans-Serif" font-size="10.00" fill="grey"> &lt; std::string, std</text>
<text text-anchor="start" x="431.5" y="-454.15" font-family="Helvetica,sans-Serif" font-size="10.00" fill="grey">::chrono::time_point</text>
<text text-anchor="start" x="431.5" y="-442.9" font-family="Helvetica,sans-Serif" font-size="10.00" fill="grey">&lt; std::chrono::high_resolution</text>
<text text-anchor="middle" x="496" y="-431.65" font-family="Helvetica,sans-Serif" font-size="10.00" fill="grey">_clock &gt; &gt;</text>
</g>
<!-- Node7&#45;&gt;Node24 -->
<g id="edge36_Node000024_Node000007" class="edge">
<title>Node7&#45;&gt;Node24</title>
<g id="a_edge36_Node000024_Node000007"><a xlink:title=" ">
<path fill="none" stroke="orange" stroke-dasharray="5,2" d="M422.6,-387.62C479.09,-387.62 564.91,-387.62 639.5,-387.62 639.5,-387.62 639.5,-387.62 1144.5,-387.62 1157.09,-387.62 1303.83,-320.39 1380.34,-284.94"/>
<polygon fill="orange" stroke="orange" points="422.87,-384.13 412.87,-387.63 422.87,-391.13 422.87,-384.13"/>
</a>
</g>
<text text-anchor="start" x="891.75" y="-400.62" font-family="Helvetica,sans-Serif" font-size="10.00" fill="grey"> &lt; std::string, Ark</text>
<text text-anchor="middle" x="937.12" y="-389.38" font-family="Helvetica,sans-Serif" font-size="10.00" fill="grey">::internal::Package &gt;</text>
</g>
<!-- Node8 -->
<g id="Node000008" class="node">
<title>Node8</title>
<g id="a_Node000008"><a xlink:title=" ">
<polygon fill="white" stroke="#666666" points="183.78,-397.25 154.97,-397.25 154.97,-378 183.78,-378 183.78,-397.25"/>
<text text-anchor="middle" x="169.38" y="-383.75" font-family="Helvetica,sans-Serif" font-size="10.00">K</text>
</a>
</g>
</g>
<!-- Node8&#45;&gt;Node7 -->
<g id="edge8_Node000007_Node000008" class="edge">
<title>Node8&#45;&gt;Node7</title>
<g id="a_edge8_Node000007_Node000008"><a xlink:title=" ">
<path fill="none" stroke="#9a32cd" stroke-dasharray="5,2" d="M195.66,-387.62C224.42,-387.62 272.13,-387.62 308.53,-387.62"/>
<polygon fill="#9a32cd" stroke="#9a32cd" points="195.74,-384.13 185.74,-387.63 195.74,-391.13 195.74,-384.13"/>
</a>
</g>
<text text-anchor="middle" x="266.62" y="-389.38" font-family="Helvetica,sans-Serif" font-size="10.00" fill="grey"> keys</text>
</g>
<!-- Node9 -->
<g id="Node000009" class="node">
<title>Node9</title>
<g id="a_Node000009"><a xlink:title=" ">
<polygon fill="white" stroke="#666666" points="183.78,-95.25 154.97,-95.25 154.97,-76 183.78,-76 183.78,-95.25"/>
<text text-anchor="middle" x="169.38" y="-81.75" font-family="Helvetica,sans-Serif" font-size="10.00">T</text>
</a>
</g>
</g>
<!-- Node9&#45;&gt;Node7 -->
<g id="edge9_Node000007_Node000009" class="edge">
<title>Node9&#45;&gt;Node7</title>
<g id="a_edge9_Node000007_Node000009"><a xlink:title=" ">
<path fill="none" stroke="#9a32cd" stroke-dasharray="5,2" d="M182.55,-105.14C217.46,-161.11 317.46,-321.42 349.06,-372.08"/>
<polygon fill="#9a32cd" stroke="#9a32cd" points="185.71,-103.59 177.44,-96.96 179.77,-107.29 185.71,-103.59"/>
</a>
</g>
<text text-anchor="middle" x="266.62" y="-274.31" font-family="Helvetica,sans-Serif" font-size="10.00" fill="grey"> elements</text>
</g>
<!-- Node11 -->
<g id="Node000011" class="node">
<title>Node11</title>
<g id="a_Node000011"><a xlink:title=" ">
<polygon fill="white" stroke="#666666" points="403,-95.25 316.5,-95.25 316.5,-76 403,-76 403,-95.25"/>
<text text-anchor="middle" x="359.75" y="-81.75" font-family="Helvetica,sans-Serif" font-size="10.00">std::vector&lt; T &gt;</text>
</a>
</g>
</g>
<!-- Node9&#45;&gt;Node11 -->
<g id="edge13_Node000011_Node000009" class="edge">
<title>Node9&#45;&gt;Node11</title>
<g id="a_edge13_Node000011_Node000009"><a xlink:title=" ">
<path fill="none" stroke="#9a32cd" stroke-dasharray="5,2" d="M195.63,-85.62C226.46,-85.62 279.06,-85.62 316.18,-85.62"/>
<polygon fill="#9a32cd" stroke="#9a32cd" points="195.74,-82.13 185.74,-85.63 195.74,-89.13 195.74,-82.13"/>
</a>
</g>
<text text-anchor="middle" x="266.62" y="-87.38" font-family="Helvetica,sans-Serif" font-size="10.00" fill="grey"> elements</text>
</g>
<!-- Node23 -->
<g id="Node000023" class="node">
<title>Node23</title>
<g id="a_Node000023"><a xlink:title=" ">
<polygon fill="white" stroke="#666666" points="537.75,-19.25 454.25,-19.25 454.25,0 537.75,0 537.75,-19.25"/>
<text text-anchor="middle" x="496" y="-5.75" font-family="Helvetica,sans-Serif" font-size="10.00">std::stack&lt; T &gt;</text>
</a>
</g>
</g>
<!-- Node9&#45;&gt;Node23 -->
<g id="edge30_Node000023_Node000009" class="edge">
<title>Node9&#45;&gt;Node23</title>
<g id="a_edge30_Node000023_Node000009"><a xlink:title=" ">
<path fill="none" stroke="#9a32cd" stroke-dasharray="5,2" d="M195.07,-79.84C250.55,-66.86 385.53,-35.25 453.88,-19.25"/>
<polygon fill="#9a32cd" stroke="#9a32cd" points="194.32,-76.42 185.38,-82.11 195.92,-83.24 194.32,-76.42"/>
</a>
</g>
<text text-anchor="middle" x="266.62" y="-69.57" font-family="Helvetica,sans-Serif" font-size="10.00" fill="grey"> elements</text>
</g>
<!-- Node10&#45;&gt;Node1 -->
<g id="edge37_Node000001_Node000010" class="edge">
<title>Node10&#45;&gt;Node1</title>
<g id="a_edge37_Node000001_Node000010"><a xlink:title=" ">
<path fill="none" stroke="#9a32cd" stroke-dasharray="5,2" d="M714.2,-104.89C716.32,-104.79 718.43,-104.7 720.5,-104.62 780.9,-102.33 796.06,-104.3 856.5,-104.62 1012.95,-105.46 1052.15,-102.62 1208.5,-108.38 1259.68,-110.26 1272.62,-109.8 1323.5,-115.62 1331.56,-116.55 1333.49,-117.33 1341.5,-118.62 1433.61,-133.56 1540.28,-150.28 1606.77,-160.63"/>
<polygon fill="#9a32cd" stroke="#9a32cd" points="714.02,-101.4 704.23,-105.43 714.4,-108.39 714.02,-101.4"/>
</a>
</g>
<text text-anchor="middle" x="1143.5" y="-110.12" font-family="Helvetica,sans-Serif" font-size="10.00" fill="grey"> m_imported</text>
</g>
<!-- Node10&#45;&gt;Node3 -->
<g id="edge10_Node000003_Node000010" class="edge">
<title>Node10&#45;&gt;Node3</title>
<g id="a_edge10_Node000003_Node000010"><a xlink:title=" ">
<path fill="none" stroke="#9a32cd" stroke-dasharray="5,2" d="M701.38,-127.46C701.76,-127.84 702.14,-128.23 702.5,-128.62 729.5,-158.03 700.12,-182.3 720.5,-216.62 760.88,-284.63 815.74,-263.6 856.5,-331.38 876.01,-363.82 849.73,-386 874.5,-414.62 879.28,-420.15 885.52,-424.35 892.2,-427.55"/>
<polygon fill="#9a32cd" stroke="#9a32cd" points="703.7,-124.82 693.61,-121.58 699.47,-130.4 703.7,-124.82"/>
</a>
</g>
<text text-anchor="middle" x="788.5" y="-333.12" font-family="Helvetica,sans-Serif" font-size="10.00" fill="grey"> m_active_traces</text>
</g>
<!-- Node10&#45;&gt;Node22 -->
<g id="edge28_Node000022_Node000010" class="edge">
<title>Node10&#45;&gt;Node22</title>
<g id="a_edge28_Node000022_Node000010"><a xlink:title=" ">
<path fill="none" stroke="#9a32cd" stroke-dasharray="5,2" d="M713.94,-108.62C756.12,-109.07 809.98,-112.43 856.5,-124.12 879.21,-129.83 903.41,-141.88 919.09,-150.58"/>
<polygon fill="#9a32cd" stroke="#9a32cd" points="714.18,-105.12 704.16,-108.57 714.14,-112.12 714.18,-105.12"/>
</a>
</g>
<text text-anchor="middle" x="788.5" y="-137.12" font-family="Helvetica,sans-Serif" font-size="10.00" fill="grey"> package</text>
<text text-anchor="middle" x="788.5" y="-125.88" font-family="Helvetica,sans-Serif" font-size="10.00" fill="grey">symbols</text>
</g>
<!-- Node11&#45;&gt;Node10 -->
<g id="edge12_Node000010_Node000011" class="edge">
<title>Node11&#45;&gt;Node10</title>
<g id="a_edge12_Node000010_Node000011"><a xlink:title=" ">
<path fill="none" stroke="orange" stroke-dasharray="5,2" d="M414.75,-87.75C455.01,-89.66 511.3,-93 560.5,-98.38 566.29,-99.01 572.31,-99.76 578.33,-100.58"/>
<polygon fill="orange" stroke="orange" points="414.98,-84.26 404.83,-87.3 414.66,-91.25 414.98,-84.26"/>
</a>
</g>
<text text-anchor="middle" x="496" y="-100.12" font-family="Helvetica,sans-Serif" font-size="10.00" fill="grey"> &lt; std::string &gt;</text>
</g>
<!-- Node16 -->
<g id="Node000016" class="node">
<title>Node16</title>
<g id="a_Node000016"><a xlink:title=" ">
<polygon fill="white" stroke="#666666" points="856.5,-66.88 720.5,-66.88 720.5,-36.38 856.5,-36.38 856.5,-66.88"/>
<text text-anchor="start" x="728.5" y="-53.38" font-family="Helvetica,sans-Serif" font-size="10.00">std::vector&lt; std::filesystem</text>
<text text-anchor="middle" x="788.5" y="-42.12" font-family="Helvetica,sans-Serif" font-size="10.00">::path &gt;</text>
</a>
</g>
</g>
<!-- Node11&#45;&gt;Node16 -->
<g id="edge19_Node000016_Node000011" class="edge">
<title>Node11&#45;&gt;Node16</title>
<g id="a_edge19_Node000016_Node000011"><a xlink:title=" ">
<path fill="none" stroke="orange" stroke-dasharray="5,2" d="M395.86,-71.73C407.07,-67.9 419.65,-64.22 431.5,-62.12 530.9,-44.54 648.29,-45.11 720.31,-47.84"/>
<polygon fill="orange" stroke="orange" points="394.83,-68.37 386.6,-75.04 397.2,-74.96 394.83,-68.37"/>
</a>
</g>
<text text-anchor="start" x="454.75" y="-75.12" font-family="Helvetica,sans-Serif" font-size="10.00" fill="grey"> &lt; std::filesystem::</text>
<text text-anchor="middle" x="496" y="-63.88" font-family="Helvetica,sans-Serif" font-size="10.00" fill="grey">path &gt;</text>
</g>
<!-- Node12 -->
<g id="Node000012" class="node">
<title>Node12</title>
<g id="a_Node000012"><a xlink:title=" ">
<polygon fill="white" stroke="#666666" points="675.88,-517.25 605.12,-517.25 605.12,-498 675.88,-498 675.88,-517.25"/>
<text text-anchor="middle" x="640.5" y="-503.75" font-family="Helvetica,sans-Serif" font-size="10.00">std::ostream</text>
</a>
</g>
</g>
<!-- Node12&#45;&gt;Node3 -->
<g id="edge14_Node000003_Node000012" class="edge">
<title>Node12&#45;&gt;Node3</title>
<g id="a_edge14_Node000003_Node000012"><a xlink:title=" ">
<path fill="none" stroke="#9a32cd" stroke-dasharray="5,2" d="M687.41,-498.5C731.08,-489.61 798.53,-475.32 856.5,-460.62 871.84,-456.74 888.7,-451.94 902.94,-447.74"/>
<polygon fill="#9a32cd" stroke="#9a32cd" points="686.89,-495.04 677.78,-500.45 688.28,-501.9 686.89,-495.04"/>
</a>
</g>
<text text-anchor="middle" x="788.5" y="-492.73" font-family="Helvetica,sans-Serif" font-size="10.00" fill="grey"> m_stream</text>
</g>
<!-- Node13 -->
<g id="Node000013" class="node">
<title>Node13</title>
<g id="a_Node000013"><a xlink:title=" ">
<polygon fill="white" stroke="#666666" points="409.38,-522.88 310.12,-522.88 310.12,-492.38 409.38,-492.38 409.38,-522.88"/>
<text text-anchor="start" x="318.12" y="-509.38" font-family="Helvetica,sans-Serif" font-size="10.00">std::basic_ostream</text>
<text text-anchor="middle" x="359.75" y="-498.12" font-family="Helvetica,sans-Serif" font-size="10.00">&lt; Char &gt;</text>
</a>
</g>
</g>
<!-- Node13&#45;&gt;Node12 -->
<g id="edge15_Node000012_Node000013" class="edge">
<title>Node13&#45;&gt;Node12</title>
<g id="a_edge15_Node000012_Node000013"><a xlink:title=" ">
<path fill="none" stroke="#63b8ff" d="M420.84,-507.62C476.97,-507.62 558.81,-507.62 604.79,-507.62"/>
<polygon fill="#63b8ff" stroke="#63b8ff" points="421.14,-504.13 411.14,-507.63 421.14,-511.13 421.14,-504.13"/>
</a>
</g>
</g>
<!-- Node14 -->
<g id="Node000014" class="node">
<title>Node14</title>
<g id="a_Node000014"><a xlink:title=" ">
<polygon fill="white" stroke="#666666" points="227.25,-517.25 111.5,-517.25 111.5,-498 227.25,-498 227.25,-517.25"/>
<text text-anchor="middle" x="169.38" y="-503.75" font-family="Helvetica,sans-Serif" font-size="10.00">std::basic_ios&lt; Char &gt;</text>
</a>
</g>
</g>
<!-- Node14&#45;&gt;Node13 -->
<g id="edge16_Node000013_Node000014" class="edge">
<title>Node14&#45;&gt;Node13</title>
<g id="a_edge16_Node000013_Node000014"><a xlink:title=" ">
<path fill="none" stroke="#63b8ff" d="M238.95,-507.62C262.38,-507.62 288.11,-507.62 309.69,-507.62"/>
<polygon fill="#63b8ff" stroke="#63b8ff" points="239.17,-504.13 229.17,-507.63 239.17,-511.13 239.17,-504.13"/>
</a>
</g>
</g>
<!-- Node15 -->
<g id="Node000015" class="node">
<title>Node15</title>
<g id="a_Node000015"><a xlink:title=" ">
<polygon fill="white" stroke="#666666" points="74.5,-517.25 0,-517.25 0,-498 74.5,-498 74.5,-517.25"/>
<text text-anchor="middle" x="37.25" y="-503.75" font-family="Helvetica,sans-Serif" font-size="10.00">std::ios_base</text>
</a>
</g>
</g>
<!-- Node15&#45;&gt;Node14 -->
<g id="edge17_Node000014_Node000015" class="edge">
<title>Node15&#45;&gt;Node14</title>
<g id="a_edge17_Node000014_Node000015"><a xlink:title=" ">
<path fill="none" stroke="#63b8ff" d="M86.34,-507.62C94.41,-507.62 102.86,-507.62 111.13,-507.62"/>
<polygon fill="#63b8ff" stroke="#63b8ff" points="86.36,-504.13 76.36,-507.63 86.36,-511.13 86.36,-504.13"/>
</a>
</g>
</g>
<!-- Node16&#45;&gt;Node1 -->
<g id="edge18_Node000001_Node000016" class="edge">
<title>Node16&#45;&gt;Node1</title>
<g id="a_edge18_Node000001_Node000016"><a xlink:title=" ">
<path fill="none" stroke="#9a32cd" stroke-dasharray="5,2" d="M868.23,-51.62C917.13,-51.62 981.28,-51.62 1038.12,-51.62 1038.12,-51.62 1038.12,-51.62 1428.12,-51.62 1502.24,-51.62 1525.14,-57.43 1589.25,-94.62 1620.48,-112.74 1649.61,-144.65 1663.21,-160.75"/>
<polygon fill="#9a32cd" stroke="#9a32cd" points="868.28,-48.13 858.28,-51.63 868.28,-55.13 868.28,-48.13"/>
</a>
</g>
<text text-anchor="middle" x="1143.5" y="-53.38" font-family="Helvetica,sans-Serif" font-size="10.00" fill="grey"> m_libenv</text>
</g>
<!-- Node17&#45;&gt;Node1 -->
<g id="edge20_Node000001_Node000017" class="edge">
<title>Node17&#45;&gt;Node1</title>
<g id="a_edge20_Node000001_Node000017"><a xlink:title=" ">
<path fill="none" stroke="#9a32cd" stroke-dasharray="5,2" d="M997.61,-219.32C1133.61,-209.49 1466.34,-185.44 1606.9,-175.28"/>
<polygon fill="#9a32cd" stroke="#9a32cd" points="997.46,-215.83 987.74,-220.04 997.96,-222.81 997.46,-215.83"/>
</a>
</g>
<text text-anchor="middle" x="1275" y="-204.34" font-family="Helvetica,sans-Serif" font-size="10.00" fill="grey"> m_ast</text>
</g>
<!-- Node25 -->
<g id="Node000025" class="node">
<title>Node25</title>
<g id="a_Node000025"><a xlink:href="../../dd/d76/structArk_1_1internal_1_1Package.html" target="_top" xlink:title=" ">
<polygon fill="white" stroke="#666666" points="1199.88,-251.25 1087.12,-251.25 1087.12,-232 1199.88,-232 1199.88,-251.25"/>
<text text-anchor="middle" x="1143.5" y="-237.75" font-family="Helvetica,sans-Serif" font-size="10.00">Ark::internal::Package</text>
</a>
</g>
</g>
<!-- Node17&#45;&gt;Node25 -->
<g id="edge34_Node000025_Node000017" class="edge">
<title>Node17&#45;&gt;Node25</title>
<g id="a_edge34_Node000025_Node000017"><a xlink:title=" ">
<path fill="none" stroke="#9a32cd" stroke-dasharray="5,2" d="M997.59,-228.86C1025.7,-231.34 1059.06,-234.28 1086.69,-236.71"/>
<polygon fill="#9a32cd" stroke="#9a32cd" points="998.08,-225.39 987.81,-228 997.46,-232.36 998.08,-225.39"/>
</a>
</g>
<text text-anchor="middle" x="1039.12" y="-235.99" font-family="Helvetica,sans-Serif" font-size="10.00" fill="grey"> ast</text>
</g>
<!-- Node18 -->
<g id="Node000018" class="node">
<title>Node18</title>
<g id="a_Node000018"><a xlink:href="../../dc/dda/structArk_1_1internal_1_1FileSpan.html" target="_top" xlink:title="Describes a span for a node/atom in a file, its start position and end position.">
<polygon fill="white" stroke="#666666" points="696.88,-157.25 584.12,-157.25 584.12,-138 696.88,-138 696.88,-157.25"/>
<text text-anchor="middle" x="640.5" y="-143.75" font-family="Helvetica,sans-Serif" font-size="10.00">Ark::internal::FileSpan</text>
</a>
</g>
</g>
<!-- Node18&#45;&gt;Node17 -->
<g id="edge21_Node000017_Node000018" class="edge">
<title>Node18&#45;&gt;Node17</title>
<g id="a_edge21_Node000017_Node000018"><a xlink:title=" ">
<path fill="none" stroke="#9a32cd" stroke-dasharray="5,2" d="M691.75,-160.59C749.93,-175.59 844.49,-199.99 897.31,-213.61"/>
<polygon fill="#9a32cd" stroke="#9a32cd" points="692.65,-157.2 682.09,-158.1 690.9,-163.98 692.65,-157.2"/>
</a>
</g>
<text text-anchor="middle" x="788.5" y="-202.92" font-family="Helvetica,sans-Serif" font-size="10.00" fill="grey"> m_pos</text>
</g>
<!-- Node19 -->
<g id="Node000019" class="node">
<title>Node19</title>
<g id="a_Node000019"><a xlink:href="../../d7/df6/structArk_1_1internal_1_1FilePos.html" target="_top" xlink:title=" ">
<polygon fill="white" stroke="#666666" points="413.5,-175.25 306,-175.25 306,-156 413.5,-156 413.5,-175.25"/>
<text text-anchor="middle" x="359.75" y="-161.75" font-family="Helvetica,sans-Serif" font-size="10.00">Ark::internal::FilePos</text>
</a>
</g>
</g>
<!-- Node19&#45;&gt;Node18 -->
<g id="edge22_Node000018_Node000019" class="edge">
<title>Node19&#45;&gt;Node18</title>
<g id="a_edge22_Node000018_Node000019"><a xlink:title=" ">
<path fill="none" stroke="#9a32cd" stroke-dasharray="5,2" d="M425.03,-161.47C473.02,-158.38 537.94,-154.18 583.75,-151.23"/>
<polygon fill="#9a32cd" stroke="#9a32cd" points="425.1,-157.96 415.35,-162.1 425.55,-164.95 425.1,-157.96"/>
</a>
</g>
<text text-anchor="middle" x="496" y="-162.55" font-family="Helvetica,sans-Serif" font-size="10.00" fill="grey"> start</text>
</g>
<!-- Node20 -->
<g id="Node000020" class="node">
<title>Node20</title>
<g id="a_Node000020"><a xlink:title=" ">
<polygon fill="white" stroke="#666666" points="1512.75,-109.88 1341.5,-109.88 1341.5,-79.38 1512.75,-79.38 1512.75,-109.88"/>
<text text-anchor="start" x="1349.5" y="-96.38" font-family="Helvetica,sans-Serif" font-size="10.00">std::stack&lt; Ark::internal</text>
<text text-anchor="middle" x="1427.12" y="-85.12" font-family="Helvetica,sans-Serif" font-size="10.00">::ImportSolver::ImportWithSource &gt;</text>
</a>
</g>
</g>
<!-- Node20&#45;&gt;Node1 -->
<g id="edge24_Node000001_Node000020" class="edge">
<title>Node20&#45;&gt;Node1</title>
<g id="a_edge24_Node000001_Node000020"><a xlink:title=" ">
<path fill="none" stroke="#9a32cd" stroke-dasharray="5,2" d="M1524.53,-97.21C1546.31,-99.98 1568.98,-104.66 1589.25,-112.38 1618.3,-123.43 1646.6,-147.27 1661.14,-160.78"/>
<polygon fill="#9a32cd" stroke="#9a32cd" points="1525.07,-93.75 1514.74,-96.1 1524.28,-100.7 1525.07,-93.75"/>
</a>
</g>
<text text-anchor="middle" x="1560" y="-114.12" font-family="Helvetica,sans-Serif" font-size="10.00" fill="grey"> m_imports</text>
</g>
<!-- Node21 -->
<g id="Node000021" class="node">
<title>Node21</title>
<g id="a_Node000021"><a xlink:href="../../d8/dbc/structArk_1_1internal_1_1ImportSolver_1_1ImportWithSource.html" target="_top" xlink:title=" ">
<polygon fill="white" stroke="#666666" points="1208.5,-158.88 1078.5,-158.88 1078.5,-128.38 1208.5,-128.38 1208.5,-158.88"/>
<text text-anchor="start" x="1086.5" y="-145.38" font-family="Helvetica,sans-Serif" font-size="10.00">Ark::internal::ImportSolver</text>
<text text-anchor="middle" x="1143.5" y="-134.12" font-family="Helvetica,sans-Serif" font-size="10.00">::ImportWithSource</text>
</a>
</g>
</g>
<!-- Node21&#45;&gt;Node20 -->
<g id="edge25_Node000020_Node000021" class="edge">
<title>Node21&#45;&gt;Node20</title>
<g id="a_edge25_Node000020_Node000021"><a xlink:title=" ">
<path fill="none" stroke="#9a32cd" stroke-dasharray="5,2" d="M1220.07,-130.48C1257.38,-123.99 1302.53,-116.13 1341.05,-109.43"/>
<polygon fill="#9a32cd" stroke="#9a32cd" points="1219.5,-127.02 1210.25,-132.19 1220.7,-133.92 1219.5,-127.02"/>
</a>
</g>
<text text-anchor="middle" x="1275" y="-130.9" font-family="Helvetica,sans-Serif" font-size="10.00" fill="grey"> elements</text>
</g>
<!-- Node22&#45;&gt;Node21 -->
<g id="edge26_Node000021_Node000022" class="edge">
<title>Node22&#45;&gt;Node21</title>
<g id="a_edge26_Node000021_Node000022"><a xlink:title=" ">
<path fill="none" stroke="#9a32cd" stroke-dasharray="5,2" d="M990.76,-148.38C999.72,-146.73 1008.97,-145.29 1017.75,-144.38 1037.35,-142.34 1058.78,-141.65 1078.26,-141.62"/>
<polygon fill="#9a32cd" stroke="#9a32cd" points="990.25,-144.91 981.11,-150.27 991.6,-151.78 990.25,-144.91"/>
</a>
</g>
<text text-anchor="middle" x="1039.12" y="-146.12" font-family="Helvetica,sans-Serif" font-size="10.00" fill="grey"> import</text>
</g>
<!-- Node22&#45;&gt;Node25 -->
<g id="edge35_Node000025_Node000022" class="edge">
<title>Node22&#45;&gt;Node25</title>
<g id="a_edge35_Node000025_Node000022"><a xlink:title=" ">
<path fill="none" stroke="#9a32cd" stroke-dasharray="5,2" d="M974.2,-174.92C1015.2,-191.17 1081.06,-217.27 1117.03,-231.53"/>
<polygon fill="#9a32cd" stroke="#9a32cd" points="975.59,-171.71 965,-171.28 973.01,-178.22 975.59,-171.71"/>
</a>
</g>
<text text-anchor="middle" x="1039.12" y="-210.13" font-family="Helvetica,sans-Serif" font-size="10.00" fill="grey"> import</text>
</g>
<!-- Node23&#45;&gt;Node20 -->
<g id="edge29_Node000020_Node000023" class="edge">
<title>Node23&#45;&gt;Node20</title>
<g id="a_edge29_Node000020_Node000023"><a xlink:title=" ">
<path fill="none" stroke="orange" stroke-dasharray="5,2" d="M549.33,-7.03C607.49,-4.37 704.18,-0.62 787.5,-0.62 787.5,-0.62 787.5,-0.62 1144.5,-0.62 1242.18,-0.62 1349.56,-52.13 1398.76,-78.89"/>
<polygon fill="orange" stroke="orange" points="549.22,-3.53 539.39,-7.49 549.54,-10.52 549.22,-3.53"/>
</a>
</g>
<text text-anchor="start" x="874.5" y="-13.62" font-family="Helvetica,sans-Serif" font-size="10.00" fill="grey"> &lt; Ark::internal::ImportSolver</text>
<text text-anchor="middle" x="937.12" y="-2.38" font-family="Helvetica,sans-Serif" font-size="10.00" fill="grey">::ImportWithSource &gt;</text>
</g>
<!-- Node24&#45;&gt;Node1 -->
<g id="edge31_Node000001_Node000024" class="edge">
<title>Node24&#45;&gt;Node1</title>
<g id="a_edge31_Node000001_Node000024"><a xlink:title=" ">
<path fill="none" stroke="#9a32cd" stroke-dasharray="5,2" d="M1489.5,-249.83C1520.08,-242.03 1557.26,-231.12 1589.25,-217.62 1613.89,-207.23 1640.4,-191.02 1656.4,-180.61"/>
<polygon fill="#9a32cd" stroke="#9a32cd" points="1488.88,-246.38 1480.03,-252.2 1490.58,-253.17 1488.88,-246.38"/>
</a>
</g>
<text text-anchor="middle" x="1560" y="-239.45" font-family="Helvetica,sans-Serif" font-size="10.00" fill="grey"> m_packages</text>
</g>
<!-- Node25&#45;&gt;Node24 -->
<g id="edge33_Node000024_Node000025" class="edge">
<title>Node25&#45;&gt;Node24</title>
<g id="a_edge33_Node000024_Node000025"><a xlink:title=" ">
<path fill="none" stroke="#9a32cd" stroke-dasharray="5,2" d="M1211.58,-246.87C1262,-250.8 1329.98,-256.11 1375.8,-259.69"/>
<polygon fill="#9a32cd" stroke="#9a32cd" points="1211.89,-243.38 1201.65,-246.09 1211.35,-250.36 1211.89,-243.38"/>
</a>
</g>
<text text-anchor="middle" x="1275" y="-256.99" font-family="Helvetica,sans-Serif" font-size="10.00" fill="grey"> elements</text>
</g>
</g>
</svg>

<g id="navigator" transform="translate(0 0)" fill="#404254">
  <rect fill="#f2f5e9" fill-opacity="0.5" stroke="#606060" stroke-width=".5" x="0" y="0" width="60" height="60"/>
  <use id="zoomplus" xlink:href="#zoomPlus" x="17" y="9" onmousedown="handleZoom(evt,'in')"/>
  <use id="zoomminus" xlink:href="#zoomMin" x="42" y="9" onmousedown="handleZoom(evt,'out')"/>
  <use id="reset" xlink:href="#resetDef" x="30" y="36" onmousedown="handleReset()"/>
   <use id="arrowup" xlink:href="#arrowUp" x="0" y="0" onmousedown="handlePan(0,-1)"/>
  <use id="arrowright" xlink:href="#arrowRight" x="0" y="0" onmousedown="handlePan(1,0)"/>
  <use id="arrowdown" xlink:href="#arrowDown" x="0" y="0" onmousedown="handlePan(0,1)"/>
  <use id="arrowleft" xlink:href="#arrowLeft" x="0" y="0" onmousedown="handlePan(-1,0)"/>
</g>
<svg viewBox="0 0 15 15" width="100%" height="30px" preserveAspectRatio="xMaxYMin meet">
 <g id="arrow_out" transform="scale(0.3 0.3)">
  <a xlink:href="classArk_1_1internal_1_1ImportSolver__coll__graph_org.svg" target="_base">
   <rect id="button" ry="5" rx="5" y="6" x="6" height="38" width="38"
        fill="#f2f5e9" fill-opacity="0.5" stroke="#606060" stroke-width="1.0"/>
   <path id="arrow"
     d="M 11.500037,31.436501 C 11.940474,20.09759 22.043105,11.32322 32.158766,21.979434 L 37.068811,17.246167 C 37.068811,17.246167 37.088388,32 37.088388,32 L 22.160133,31.978069 C 22.160133,31.978069 26.997745,27.140456 26.997745,27.140456 C 18.528582,18.264221 13.291696,25.230495 11.500037,31.436501 z"
     style="fill:#404040;"/>
  </a>
 </g>
</svg>

<style type='text/css'>
<![CDATA[
[data-mouse-over-selected='false'] { opacity: 0.7; }
[data-mouse-over-selected='true']  { opacity: 1.0; }
]]>
</style>
<script type="application/ecmascript"><![CDATA[
document.addEventListener('DOMContentLoaded', (event) => {
  highlightEdges();
  highlightAdjacentNodes();
});
]]></script>
</svg>
