<?xml version="1.0" encoding="UTF-8" standalone="no"?>
<!DOCTYPE svg PUBLIC "-//W3C//DTD SVG 1.1//EN"
 "http://www.w3.org/Graphics/SVG/1.1/DTD/svg11.dtd">
<!-- Generated by graphviz version 12.2.0 (20241103.1931)
 -->
<!-- Title: /Users/fola/Documents/ArkScript/Ark/include/Ark/Compiler/Instructions.hpp Pages: 1 -->
<!--zoomable 472 -->

<svg id="main" version="1.1" xmlns="http://www.w3.org/2000/svg" xmlns:xlink="http://www.w3.org/1999/xlink" xml:space="preserve" onload="init(evt)">

<style type="text/css"><![CDATA[
.node, .edge {opacity: 0.7;}
.node.selected, .edge.selected {opacity: 1;}
.edge:hover path { stroke: red; }
.edge:hover polygon { stroke: red; fill: red; }
]]></style>

<defs>
  <circle id="rim" cx="0" cy="0" r="7"/>
  <circle id="rim2" cx="0" cy="0" r="3.5"/>
  <g id="zoomPlus">
    <use xlink:href="#rim" fill="#404040"><set attributeName="fill" to="#808080" begin="zoomplus.mouseover" end="zoomplus.mouseout"/></use>
    <path d="M-4,0h8M0,-4v8" fill="none" stroke="white" stroke-width="1.5" pointer-events="none"/>
  </g>
  <g id="zoomMin">
    <use xlink:href="#rim" fill="#404040"><set attributeName="fill" to="#808080" begin="zoomminus.mouseover" end="zoomminus.mouseout"/></use>
    <path d="M-4,0h8" fill="none" stroke="white" stroke-width="1.5" pointer-events="none"/>
  </g>
  <g id="arrowUp" transform="translate(30 24)">
    <use xlink:href="#rim"/>
    <path pointer-events="none" fill="none" stroke="white" stroke-width="1.5" d="M0,-3.0v7 M-2.5,-0.5L0,-3.0L2.5,-0.5"/>
  </g>
  <g id="arrowRight" transform="rotate(90) translate(36 -43)">
    <use xlink:href="#rim"/>
    <path pointer-events="none" fill="none" stroke="white" stroke-width="1.5" d="M0,-3.0v7 M-2.5,-0.5L0,-3.0L2.5,-0.5"/>
  </g>
  <g id="arrowDown" transform="rotate(180) translate(-30 -48)">
    <use xlink:href="#rim"/>
    <path pointer-events="none" fill="none" stroke="white" stroke-width="1.5" d="M0,-3.0v7 M-2.5,-0.5L0,-3.0L2.5,-0.5"/>
  </g>
  <g id="arrowLeft" transform="rotate(270) translate(-36 17)">
    <use xlink:href="#rim"/>
    <path pointer-events="none" fill="none" stroke="white" stroke-width="1.5" d="M0,-3.0v7 M-2.5,-0.5L0,-3.0L2.5,-0.5"/>
  </g>
  <g id="resetDef">
    <use xlink:href="#rim2" fill="#404040"><set attributeName="fill" to="#808080" begin="reset.mouseover" end="reset.mouseout"/></use>
  </g>
</defs>
<script type="application/ecmascript">
var viewWidth = 1937;
var viewHeight = 472;
var sectionId = 'dynsection-1';
</script>
<script type="application/ecmascript" xlink:href="../../svg.min.js"/>
<svg id="graph" class="graph">
<g id="viewport">
<title>/Users/fola/Documents/ArkScript/Ark/include/Ark/Compiler/Instructions.hpp</title>
<!-- Node1 -->
<g id="Node000001" class="node">
<title>Node1</title>
<g id="a_Node000001"><a xlink:title="The different instructions used by the compiler and virtual machine.">
<polygon fill="#999999" stroke="#666666" points="1273.62,-464.25 1124.88,-464.25 1124.88,-422.5 1273.62,-422.5 1273.62,-464.25"/>
<text text-anchor="start" x="1132.88" y="-450.75" font-family="Helvetica,sans-Serif" font-size="10.00">/Users/fola/Documents</text>
<text text-anchor="start" x="1132.88" y="-439.5" font-family="Helvetica,sans-Serif" font-size="10.00">/ArkScript/Ark/include</text>
<text text-anchor="middle" x="1199.25" y="-428.25" font-family="Helvetica,sans-Serif" font-size="10.00">/Ark/Compiler/Instructions.hpp</text>
</a>
</g>
</g>
<!-- Node2 -->
<g id="Node000002" class="node">
<title>Node2</title>
<g id="a_Node000002"><a xlink:href="../../de/da6/Entity_8hpp.html" target="_top" xlink:title="An entity in the IR is a bundle of information.">
<polygon fill="white" stroke="#666666" points="839.75,-386.5 640.75,-386.5 640.75,-333.5 839.75,-333.5 839.75,-386.5"/>
<text text-anchor="start" x="648.75" y="-373" font-family="Helvetica,sans-Serif" font-size="10.00">/Users/fola/Documents</text>
<text text-anchor="start" x="648.75" y="-361.75" font-family="Helvetica,sans-Serif" font-size="10.00">/ArkScript/Ark/include</text>
<text text-anchor="start" x="648.75" y="-350.5" font-family="Helvetica,sans-Serif" font-size="10.00">/Ark/Compiler/IntermediateRepresentation</text>
<text text-anchor="middle" x="740.25" y="-339.25" font-family="Helvetica,sans-Serif" font-size="10.00">/Entity.hpp</text>
</a>
</g>
</g>
<!-- Node1&#45;&gt;Node2 -->
<g id="edge1_Node000001_Node000002" class="edge">
<title>Node1&#45;&gt;Node2</title>
<g id="a_edge1_Node000001_Node000002"><a xlink:title=" ">
<path fill="none" stroke="#63b8ff" d="M1113.3,-427.14C1035.69,-413.38 921.47,-393.13 839.89,-378.66"/>
<polygon fill="#63b8ff" stroke="#63b8ff" points="1112.53,-430.56 1122.99,-428.86 1113.76,-423.66 1112.53,-430.56"/>
</a>
</g>
</g>
<!-- Node17 -->
<g id="Node000017" class="node">
<title>Node17</title>
<g id="a_Node000017"><a xlink:href="../../db/d08/ASTLowerer_8hpp.html" target="_top" xlink:title=" ">
<polygon fill="white" stroke="#666666" points="1037.5,-291.88 849,-291.88 849,-250.12 1037.5,-250.12 1037.5,-291.88"/>
<text text-anchor="start" x="857" y="-278.38" font-family="Helvetica,sans-Serif" font-size="10.00">/Users/fola/Documents</text>
<text text-anchor="start" x="857" y="-267.12" font-family="Helvetica,sans-Serif" font-size="10.00">/ArkScript/Ark/include</text>
<text text-anchor="middle" x="943.25" y="-255.88" font-family="Helvetica,sans-Serif" font-size="10.00">/Ark/Compiler/Lowerer/ASTLowerer.hpp</text>
</a>
</g>
</g>
<!-- Node1&#45;&gt;Node17 -->
<g id="edge21_Node000001_Node000017" class="edge">
<title>Node1&#45;&gt;Node17</title>
<g id="a_edge21_Node000001_Node000017"><a xlink:title=" ">
<path fill="none" stroke="#63b8ff" d="M1159.43,-415.87C1108.06,-381.69 1019.84,-322.98 973.58,-292.19"/>
<polygon fill="#63b8ff" stroke="#63b8ff" points="1157.35,-418.7 1167.62,-421.32 1161.23,-412.87 1157.35,-418.7"/>
</a>
</g>
</g>
<!-- Node20 -->
<g id="Node000020" class="node">
<title>Node20</title>
<g id="a_Node000020"><a xlink:href="../../d1/d91/VM_8hpp.html" target="_top" xlink:title="The ArkScript virtual machine.">
<polygon fill="white" stroke="#666666" points="1257.88,-202.88 1140.62,-202.88 1140.62,-161.12 1257.88,-161.12 1257.88,-202.88"/>
<text text-anchor="start" x="1148.62" y="-189.38" font-family="Helvetica,sans-Serif" font-size="10.00">/Users/fola/Documents</text>
<text text-anchor="start" x="1148.62" y="-178.12" font-family="Helvetica,sans-Serif" font-size="10.00">/ArkScript/Ark/include</text>
<text text-anchor="middle" x="1199.25" y="-166.88" font-family="Helvetica,sans-Serif" font-size="10.00">/Ark/VM/VM.hpp</text>
</a>
</g>
</g>
<!-- Node1&#45;&gt;Node20 -->
<g id="edge22_Node000001_Node000020" class="edge">
<title>Node1&#45;&gt;Node20</title>
<g id="a_edge22_Node000001_Node000020"><a xlink:title=" ">
<path fill="none" stroke="#63b8ff" d="M1199.25,-410.76C1199.25,-356.76 1199.25,-248.25 1199.25,-203.26"/>
<polygon fill="#63b8ff" stroke="#63b8ff" points="1195.75,-410.51 1199.25,-420.51 1202.75,-410.51 1195.75,-410.51"/>
</a>
</g>
</g>
<!-- Node23 -->
<g id="Node000023" class="node">
<title>Node23</title>
<g id="a_Node000023"><a xlink:href="../../d2/d27/VM_8cpp.html" target="_top" xlink:title=" ">
<polygon fill="white" stroke="#666666" points="1688.5,-41.75 1548,-41.75 1548,0 1688.5,0 1688.5,-41.75"/>
<text text-anchor="start" x="1556" y="-28.25" font-family="Helvetica,sans-Serif" font-size="10.00">/Users/fola/Documents</text>
<text text-anchor="start" x="1556" y="-17" font-family="Helvetica,sans-Serif" font-size="10.00">/ArkScript/Ark/src/arkreactor</text>
<text text-anchor="middle" x="1618.25" y="-5.75" font-family="Helvetica,sans-Serif" font-size="10.00">/VM/VM.cpp</text>
</a>
</g>
</g>
<!-- Node1&#45;&gt;Node23 -->
<g id="edge39_Node000001_Node000023" class="edge">
<title>Node1&#45;&gt;Node23</title>
<g id="a_edge39_Node000001_Node000023"><a xlink:title=" ">
<path fill="none" stroke="#63b8ff" d="M1285.32,-433.73C1440.05,-415.79 1749.25,-367.94 1749.25,-272 1749.25,-272 1749.25,-272 1749.25,-181 1749.25,-134.34 1758.3,-115.04 1730.25,-77.75 1718.49,-62.12 1701.16,-50.58 1683.62,-42.17"/>
<polygon fill="#63b8ff" stroke="#63b8ff" points="1285.04,-430.24 1275.5,-434.85 1285.83,-437.2 1285.04,-430.24"/>
</a>
</g>
</g>
<!-- Node30 -->
<g id="Node000030" class="node">
<title>Node30</title>
<g id="a_Node000030"><a xlink:href="../../d5/d36/BytecodeReader_8cpp.html" target="_top" xlink:title=" ">
<polygon fill="white" stroke="#666666" points="1929.12,-380.88 1777.38,-380.88 1777.38,-339.12 1929.12,-339.12 1929.12,-380.88"/>
<text text-anchor="start" x="1785.38" y="-367.38" font-family="Helvetica,sans-Serif" font-size="10.00">/Users/fola/Documents</text>
<text text-anchor="start" x="1785.38" y="-356.12" font-family="Helvetica,sans-Serif" font-size="10.00">/ArkScript/Ark/src/arkreactor</text>
<text text-anchor="middle" x="1853.25" y="-344.88" font-family="Helvetica,sans-Serif" font-size="10.00">/Compiler/BytecodeReader.cpp</text>
</a>
</g>
</g>
<!-- Node1&#45;&gt;Node30 -->
<g id="edge38_Node000001_Node000030" class="edge">
<title>Node1&#45;&gt;Node30</title>
<g id="a_edge38_Node000001_Node000030"><a xlink:title=" ">
<path fill="none" stroke="#63b8ff" d="M1285.22,-438.6C1396.4,-432.64 1595.65,-418.28 1763.25,-386.5 1770.91,-385.05 1778.86,-383.24 1786.72,-381.27"/>
<polygon fill="#63b8ff" stroke="#63b8ff" points="1285.07,-435.11 1275.27,-439.13 1285.44,-442.1 1285.07,-435.11"/>
</a>
</g>
</g>
<!-- Node3 -->
<g id="Node000003" class="node">
<title>Node3</title>
<g id="a_Node000003"><a xlink:href="../../df/d86/IRCompiler_8hpp.html" target="_top" xlink:title="Compile the intermediate representation to bytecode.">
<polygon fill="white" stroke="#666666" points="414.75,-297.5 215.75,-297.5 215.75,-244.5 414.75,-244.5 414.75,-297.5"/>
<text text-anchor="start" x="223.75" y="-284" font-family="Helvetica,sans-Serif" font-size="10.00">/Users/fola/Documents</text>
<text text-anchor="start" x="223.75" y="-272.75" font-family="Helvetica,sans-Serif" font-size="10.00">/ArkScript/Ark/include</text>
<text text-anchor="start" x="223.75" y="-261.5" font-family="Helvetica,sans-Serif" font-size="10.00">/Ark/Compiler/IntermediateRepresentation</text>
<text text-anchor="middle" x="315.25" y="-250.25" font-family="Helvetica,sans-Serif" font-size="10.00">/IRCompiler.hpp</text>
</a>
</g>
</g>
<!-- Node2&#45;&gt;Node3 -->
<g id="edge2_Node000002_Node000003" class="edge">
<title>Node2&#45;&gt;Node3</title>
<g id="a_edge2_Node000002_Node000003"><a xlink:title=" ">
<path fill="none" stroke="#63b8ff" d="M629.27,-338.6C568.33,-327.12 491.49,-312.17 423.25,-297.5 420.61,-296.93 417.94,-296.35 415.25,-295.76"/>
<polygon fill="#63b8ff" stroke="#63b8ff" points="628.49,-342.02 638.97,-340.42 629.79,-335.14 628.49,-342.02"/>
</a>
</g>
</g>
<!-- Node15 -->
<g id="Node000015" class="node">
<title>Node15</title>
<g id="a_Node000015"><a xlink:href="../../d0/de2/IROptimizer_8hpp.html" target="_top" xlink:title="Optimize IR based on IR entity grouped by 2 (or more)">
<polygon fill="white" stroke="#666666" points="631.75,-297.5 432.75,-297.5 432.75,-244.5 631.75,-244.5 631.75,-297.5"/>
<text text-anchor="start" x="440.75" y="-284" font-family="Helvetica,sans-Serif" font-size="10.00">/Users/fola/Documents</text>
<text text-anchor="start" x="440.75" y="-272.75" font-family="Helvetica,sans-Serif" font-size="10.00">/ArkScript/Ark/include</text>
<text text-anchor="start" x="440.75" y="-261.5" font-family="Helvetica,sans-Serif" font-size="10.00">/Ark/Compiler/IntermediateRepresentation</text>
<text text-anchor="middle" x="532.25" y="-250.25" font-family="Helvetica,sans-Serif" font-size="10.00">/IROptimizer.hpp</text>
</a>
</g>
</g>
<!-- Node2&#45;&gt;Node15 -->
<g id="edge14_Node000002_Node000015" class="edge">
<title>Node2&#45;&gt;Node15</title>
<g id="a_edge14_Node000002_Node000015"><a xlink:title=" ">
<path fill="none" stroke="#63b8ff" d="M667.65,-328.63C643.64,-318.59 617.17,-307.52 594.06,-297.85"/>
<polygon fill="#63b8ff" stroke="#63b8ff" points="666.15,-331.8 676.73,-332.43 668.85,-325.34 666.15,-331.8"/>
</a>
</g>
</g>
<!-- Node2&#45;&gt;Node17 -->
<g id="edge17_Node000002_Node000017" class="edge">
<title>Node2&#45;&gt;Node17</title>
<g id="a_edge17_Node000002_Node000017"><a xlink:title=" ">
<path fill="none" stroke="#63b8ff" d="M811.41,-328.5C839.37,-316.52 870.7,-303.09 895.81,-292.33"/>
<polygon fill="#63b8ff" stroke="#63b8ff" points="810.09,-325.26 802.27,-332.42 812.84,-331.7 810.09,-325.26"/>
</a>
</g>
</g>
<!-- Node19 -->
<g id="Node000019" class="node">
<title>Node19</title>
<g id="a_Node000019"><a xlink:href="../../df/de9/Entity_8cpp.html" target="_top" xlink:title=" ">
<polygon fill="white" stroke="#666666" points="830.75,-297.5 649.75,-297.5 649.75,-244.5 830.75,-244.5 830.75,-297.5"/>
<text text-anchor="start" x="657.75" y="-284" font-family="Helvetica,sans-Serif" font-size="10.00">/Users/fola/Documents</text>
<text text-anchor="start" x="657.75" y="-272.75" font-family="Helvetica,sans-Serif" font-size="10.00">/ArkScript/Ark/src/arkreactor</text>
<text text-anchor="start" x="657.75" y="-261.5" font-family="Helvetica,sans-Serif" font-size="10.00">/Compiler/IntermediateRepresentation</text>
<text text-anchor="middle" x="740.25" y="-250.25" font-family="Helvetica,sans-Serif" font-size="10.00">/Entity.cpp</text>
</a>
</g>
</g>
<!-- Node2&#45;&gt;Node19 -->
<g id="edge20_Node000002_Node000019" class="edge">
<title>Node2&#45;&gt;Node19</title>
<g id="a_edge20_Node000002_Node000019"><a xlink:title=" ">
<path fill="none" stroke="#63b8ff" d="M740.25,-322.11C740.25,-313.91 740.25,-305.39 740.25,-297.75"/>
<polygon fill="#63b8ff" stroke="#63b8ff" points="736.75,-321.85 740.25,-331.85 743.75,-321.85 736.75,-321.85"/>
</a>
</g>
</g>
<!-- Node4 -->
<g id="Node000004" class="node">
<title>Node4</title>
<g id="a_Node000004"><a xlink:href="../../de/d8e/Welder_8hpp.html" target="_top" xlink:title="In charge of welding everything needed to compile code.">
<polygon fill="white" stroke="#666666" points="595.75,-202.88 468.75,-202.88 468.75,-161.12 595.75,-161.12 595.75,-202.88"/>
<text text-anchor="start" x="476.75" y="-189.38" font-family="Helvetica,sans-Serif" font-size="10.00">/Users/fola/Documents</text>
<text text-anchor="start" x="476.75" y="-178.12" font-family="Helvetica,sans-Serif" font-size="10.00">/ArkScript/Ark/include</text>
<text text-anchor="middle" x="532.25" y="-166.88" font-family="Helvetica,sans-Serif" font-size="10.00">/Ark/Compiler/Welder.hpp</text>
</a>
</g>
</g>
<!-- Node3&#45;&gt;Node4 -->
<g id="edge3_Node000003_Node000004" class="edge">
<title>Node3&#45;&gt;Node4</title>
<g id="a_edge3_Node000003_Node000004"><a xlink:title=" ">
<path fill="none" stroke="#63b8ff" d="M390.53,-239.82C420.61,-227.76 454.46,-214.19 481.54,-203.33"/>
<polygon fill="#63b8ff" stroke="#63b8ff" points="389.45,-236.48 381.47,-243.45 392.05,-242.98 389.45,-236.48"/>
</a>
</g>
</g>
<!-- Node14 -->
<g id="Node000014" class="node">
<title>Node14</title>
<g id="a_Node000014"><a xlink:href="../../d1/dfa/IRCompiler_8cpp.html" target="_top" xlink:title=" ">
<polygon fill="white" stroke="#666666" points="251.75,-208.5 70.75,-208.5 70.75,-155.5 251.75,-155.5 251.75,-208.5"/>
<text text-anchor="start" x="78.75" y="-195" font-family="Helvetica,sans-Serif" font-size="10.00">/Users/fola/Documents</text>
<text text-anchor="start" x="78.75" y="-183.75" font-family="Helvetica,sans-Serif" font-size="10.00">/ArkScript/Ark/src/arkreactor</text>
<text text-anchor="start" x="78.75" y="-172.5" font-family="Helvetica,sans-Serif" font-size="10.00">/Compiler/IntermediateRepresentation</text>
<text text-anchor="middle" x="161.25" y="-161.25" font-family="Helvetica,sans-Serif" font-size="10.00">/IRCompiler.cpp</text>
</a>
</g>
</g>
<!-- Node3&#45;&gt;Node14 -->
<g id="edge13_Node000003_Node000014" class="edge">
<title>Node3&#45;&gt;Node14</title>
<g id="a_edge13_Node000003_Node000014"><a xlink:title=" ">
<path fill="none" stroke="#63b8ff" d="M259.54,-238.53C242.33,-228.81 223.59,-218.22 207.13,-208.92"/>
<polygon fill="#63b8ff" stroke="#63b8ff" points="257.72,-241.52 268.14,-243.39 261.16,-235.42 257.72,-241.52"/>
</a>
</g>
</g>
<!-- Node5 -->
<g id="Node000005" class="node">
<title>Node5</title>
<g id="a_Node000005"><a xlink:href="../../d3/d7e/Ark_8hpp.html" target="_top" xlink:title="Includes the needed files to start using ArkScript.">
<polygon fill="white" stroke="#666666" points="737.88,-119.5 620.62,-119.5 620.62,-77.75 737.88,-77.75 737.88,-119.5"/>
<text text-anchor="start" x="628.62" y="-106" font-family="Helvetica,sans-Serif" font-size="10.00">/Users/fola/Documents</text>
<text text-anchor="start" x="628.62" y="-94.75" font-family="Helvetica,sans-Serif" font-size="10.00">/ArkScript/Ark/include</text>
<text text-anchor="middle" x="679.25" y="-83.5" font-family="Helvetica,sans-Serif" font-size="10.00">/Ark/Ark.hpp</text>
</a>
</g>
</g>
<!-- Node4&#45;&gt;Node5 -->
<g id="edge4_Node000004_Node000005" class="edge">
<title>Node4&#45;&gt;Node5</title>
<g id="a_edge4_Node000004_Node000005"><a xlink:title=" ">
<path fill="none" stroke="#63b8ff" d="M578.77,-155.25C599.34,-143.86 623.19,-130.66 642.49,-119.97"/>
<polygon fill="#63b8ff" stroke="#63b8ff" points="577.34,-152.04 570.29,-159.94 580.73,-158.16 577.34,-152.04"/>
</a>
</g>
</g>
<!-- Node8 -->
<g id="Node000008" class="node">
<title>Node8</title>
<g id="a_Node000008"><a xlink:href="../../dc/dfd/JsonCompiler_8hpp.html" target="_top" xlink:title=" ">
<polygon fill="white" stroke="#666666" points="125.88,-119.5 8.62,-119.5 8.62,-77.75 125.88,-77.75 125.88,-119.5"/>
<text text-anchor="start" x="16.62" y="-106" font-family="Helvetica,sans-Serif" font-size="10.00">/Users/fola/Documents</text>
<text text-anchor="start" x="16.62" y="-94.75" font-family="Helvetica,sans-Serif" font-size="10.00">/ArkScript/Ark/include</text>
<text text-anchor="middle" x="67.25" y="-83.5" font-family="Helvetica,sans-Serif" font-size="10.00">/CLI/JsonCompiler.hpp</text>
</a>
</g>
</g>
<!-- Node4&#45;&gt;Node8 -->
<g id="edge7_Node000004_Node000008" class="edge">
<title>Node4&#45;&gt;Node8</title>
<g id="a_edge7_Node000004_Node000008"><a xlink:title=" ">
<path fill="none" stroke="#63b8ff" d="M467.59,-157.57C464.79,-156.82 462,-156.12 459.25,-155.5 317.96,-123.41 277.32,-147.93 135.25,-119.5 132.23,-118.9 129.16,-118.22 126.07,-117.49"/>
<polygon fill="#63b8ff" stroke="#63b8ff" points="466.4,-160.86 476.98,-160.26 468.33,-154.14 466.4,-160.86"/>
</a>
</g>
</g>
<!-- Node11 -->
<g id="Node000011" class="node">
<title>Node11</title>
<g id="a_Node000011"><a xlink:href="../../d3/df1/Welder_8cpp.html" target="_top" xlink:title=" ">
<polygon fill="white" stroke="#666666" points="284.5,-119.5 144,-119.5 144,-77.75 284.5,-77.75 284.5,-119.5"/>
<text text-anchor="start" x="152" y="-106" font-family="Helvetica,sans-Serif" font-size="10.00">/Users/fola/Documents</text>
<text text-anchor="start" x="152" y="-94.75" font-family="Helvetica,sans-Serif" font-size="10.00">/ArkScript/Ark/src/arkreactor</text>
<text text-anchor="middle" x="214.25" y="-83.5" font-family="Helvetica,sans-Serif" font-size="10.00">/Compiler/Welder.cpp</text>
</a>
</g>
</g>
<!-- Node4&#45;&gt;Node11 -->
<g id="edge10_Node000004_Node000011" class="edge">
<title>Node4&#45;&gt;Node11</title>
<g id="a_edge10_Node000004_Node000011"><a xlink:title=" ">
<path fill="none" stroke="#63b8ff" d="M465.3,-157.26C463.27,-156.65 461.25,-156.06 459.25,-155.5 387.02,-135.09 367.35,-136.55 294.25,-119.5 291.18,-118.78 288.05,-118.05 284.89,-117.29"/>
<polygon fill="#63b8ff" stroke="#63b8ff" points="464.24,-160.6 474.83,-160.23 466.32,-153.91 464.24,-160.6"/>
</a>
</g>
</g>
<!-- Node12 -->
<g id="Node000012" class="node">
<title>Node12</title>
<g id="a_Node000012"><a xlink:href="../../d0/da0/State_8cpp.html" target="_top" xlink:title=" ">
<polygon fill="white" stroke="#666666" points="443.5,-119.5 303,-119.5 303,-77.75 443.5,-77.75 443.5,-119.5"/>
<text text-anchor="start" x="311" y="-106" font-family="Helvetica,sans-Serif" font-size="10.00">/Users/fola/Documents</text>
<text text-anchor="start" x="311" y="-94.75" font-family="Helvetica,sans-Serif" font-size="10.00">/ArkScript/Ark/src/arkreactor</text>
<text text-anchor="middle" x="373.25" y="-83.5" font-family="Helvetica,sans-Serif" font-size="10.00">/State.cpp</text>
</a>
</g>
</g>
<!-- Node4&#45;&gt;Node12 -->
<g id="edge11_Node000004_Node000012" class="edge">
<title>Node4&#45;&gt;Node12</title>
<g id="a_edge11_Node000004_Node000012"><a xlink:title=" ">
<path fill="none" stroke="#63b8ff" d="M482.54,-155.56C460.15,-144.1 434.07,-130.75 413.01,-119.97"/>
<polygon fill="#63b8ff" stroke="#63b8ff" points="480.69,-158.55 491.19,-159.99 483.88,-152.31 480.69,-158.55"/>
</a>
</g>
</g>
<!-- Node13 -->
<g id="Node000013" class="node">
<title>Node13</title>
<g id="a_Node000013"><a xlink:href="../../db/d7b/Debugger_8cpp.html" target="_top" xlink:title=" ">
<polygon fill="white" stroke="#666666" points="602.5,-119.5 462,-119.5 462,-77.75 602.5,-77.75 602.5,-119.5"/>
<text text-anchor="start" x="470" y="-106" font-family="Helvetica,sans-Serif" font-size="10.00">/Users/fola/Documents</text>
<text text-anchor="start" x="470" y="-94.75" font-family="Helvetica,sans-Serif" font-size="10.00">/ArkScript/Ark/src/arkreactor</text>
<text text-anchor="middle" x="532.25" y="-83.5" font-family="Helvetica,sans-Serif" font-size="10.00">/VM/Debugger.cpp</text>
</a>
</g>
</g>
<!-- Node4&#45;&gt;Node13 -->
<g id="edge12_Node000004_Node000013" class="edge">
<title>Node4&#45;&gt;Node13</title>
<g id="a_edge12_Node000004_Node000013"><a xlink:title=" ">
<path fill="none" stroke="#63b8ff" d="M532.25,-149.64C532.25,-139.62 532.25,-128.8 532.25,-119.79"/>
<polygon fill="#63b8ff" stroke="#63b8ff" points="528.75,-149.37 532.25,-159.37 535.75,-149.37 528.75,-149.37"/>
</a>
</g>
</g>
<!-- Node6 -->
<g id="Node000006" class="node">
<title>Node6</title>
<g id="a_Node000006"><a xlink:href="../../d1/d95/arkemscripten_2main_8cpp.html" target="_top" xlink:title=" ">
<polygon fill="white" stroke="#666666" points="506.5,-41.75 348,-41.75 348,0 506.5,0 506.5,-41.75"/>
<text text-anchor="start" x="356" y="-28.25" font-family="Helvetica,sans-Serif" font-size="10.00">/Users/fola/Documents</text>
<text text-anchor="start" x="356" y="-17" font-family="Helvetica,sans-Serif" font-size="10.00">/ArkScript/Ark/src/arkemscripten</text>
<text text-anchor="middle" x="427.25" y="-5.75" font-family="Helvetica,sans-Serif" font-size="10.00">/main.cpp</text>
</a>
</g>
</g>
<!-- Node5&#45;&gt;Node6 -->
<g id="edge5_Node000005_Node000006" class="edge">
<title>Node5&#45;&gt;Node6</title>
<g id="a_edge5_Node000005_Node000006"><a xlink:title=" ">
<path fill="none" stroke="#63b8ff" d="M609.33,-76.61C573.59,-65.86 530.28,-52.84 494.87,-42.2"/>
<polygon fill="#63b8ff" stroke="#63b8ff" points="608.13,-79.9 618.72,-79.43 610.15,-73.2 608.13,-79.9"/>
</a>
</g>
</g>
<!-- Node7 -->
<g id="Node000007" class="node">
<title>Node7</title>
<g id="a_Node000007"><a xlink:href="../../dc/d32/Ark_8cpp.html" target="_top" xlink:title=" ">
<polygon fill="white" stroke="#666666" points="818.5,-41.75 678,-41.75 678,0 818.5,0 818.5,-41.75"/>
<text text-anchor="start" x="686" y="-28.25" font-family="Helvetica,sans-Serif" font-size="10.00">/Users/fola/Documents</text>
<text text-anchor="start" x="686" y="-17" font-family="Helvetica,sans-Serif" font-size="10.00">/ArkScript/Ark/src/arkreactor</text>
<text text-anchor="middle" x="748.25" y="-5.75" font-family="Helvetica,sans-Serif" font-size="10.00">/Ark.cpp</text>
</a>
</g>
</g>
<!-- Node5&#45;&gt;Node7 -->
<g id="edge6_Node000005_Node000007" class="edge">
<title>Node5&#45;&gt;Node7</title>
<g id="a_edge6_Node000005_Node000007"><a xlink:title=" ">
<path fill="none" stroke="#63b8ff" d="M705.27,-69.06C713.4,-60.14 722.2,-50.47 729.71,-42.23"/>
<polygon fill="#63b8ff" stroke="#63b8ff" points="702.91,-66.46 698.76,-76.21 708.08,-71.17 702.91,-66.46"/>
</a>
</g>
</g>
<!-- Node9 -->
<g id="Node000009" class="node">
<title>Node9</title>
<g id="a_Node000009"><a xlink:href="../../db/d71/JsonCompiler_8cpp.html" target="_top" xlink:title=" ">
<polygon fill="white" stroke="#666666" points="134.5,-41.75 0,-41.75 0,0 134.5,0 134.5,-41.75"/>
<text text-anchor="start" x="8" y="-28.25" font-family="Helvetica,sans-Serif" font-size="10.00">/Users/fola/Documents</text>
<text text-anchor="start" x="8" y="-17" font-family="Helvetica,sans-Serif" font-size="10.00">/ArkScript/Ark/src/arkscript</text>
<text text-anchor="middle" x="67.25" y="-5.75" font-family="Helvetica,sans-Serif" font-size="10.00">/JsonCompiler.cpp</text>
</a>
</g>
</g>
<!-- Node8&#45;&gt;Node9 -->
<g id="edge8_Node000008_Node000009" class="edge">
<title>Node8&#45;&gt;Node9</title>
<g id="a_edge8_Node000008_Node000009"><a xlink:title=" ">
<path fill="none" stroke="#63b8ff" d="M67.25,-66C67.25,-57.96 67.25,-49.54 67.25,-42.23"/>
<polygon fill="#63b8ff" stroke="#63b8ff" points="63.75,-65.81 67.25,-75.81 70.75,-65.81 63.75,-65.81"/>
</a>
</g>
</g>
<!-- Node10 -->
<g id="Node000010" class="node">
<title>Node10</title>
<g id="a_Node000010"><a xlink:href="../../d0/d46/arkscript_2main_8cpp.html" target="_top" xlink:title=" ">
<polygon fill="white" stroke="#666666" points="659.5,-41.75 525,-41.75 525,0 659.5,0 659.5,-41.75"/>
<text text-anchor="start" x="533" y="-28.25" font-family="Helvetica,sans-Serif" font-size="10.00">/Users/fola/Documents</text>
<text text-anchor="start" x="533" y="-17" font-family="Helvetica,sans-Serif" font-size="10.00">/ArkScript/Ark/src/arkscript</text>
<text text-anchor="middle" x="592.25" y="-5.75" font-family="Helvetica,sans-Serif" font-size="10.00">/main.cpp</text>
</a>
</g>
</g>
<!-- Node8&#45;&gt;Node10 -->
<g id="edge9_Node000008_Node000010" class="edge">
<title>Node8&#45;&gt;Node10</title>
<g id="a_edge9_Node000008_Node000010"><a xlink:title=" ">
<path fill="none" stroke="#63b8ff" d="M137.21,-77.59C303.91,-46.87 351.74,-70.41 515.25,-41.75 518.38,-41.2 521.56,-40.59 524.78,-39.94"/>
<polygon fill="#63b8ff" stroke="#63b8ff" points="136.72,-74.12 127.54,-79.42 138.02,-81 136.72,-74.12"/>
</a>
</g>
</g>
<!-- Node15&#45;&gt;Node4 -->
<g id="edge15_Node000015_Node000004" class="edge">
<title>Node15&#45;&gt;Node4</title>
<g id="a_edge15_Node000015_Node000004"><a xlink:title=" ">
<path fill="none" stroke="#63b8ff" d="M532.25,-233.13C532.25,-222.88 532.25,-212.12 532.25,-203.21"/>
<polygon fill="#63b8ff" stroke="#63b8ff" points="528.75,-232.85 532.25,-242.85 535.75,-232.85 528.75,-232.85"/>
</a>
</g>
</g>
<!-- Node16 -->
<g id="Node000016" class="node">
<title>Node16</title>
<g id="a_Node000016"><a xlink:href="../../d0/da9/IROptimizer_8cpp.html" target="_top" xlink:title=" ">
<polygon fill="white" stroke="#666666" points="450.75,-208.5 269.75,-208.5 269.75,-155.5 450.75,-155.5 450.75,-208.5"/>
<text text-anchor="start" x="277.75" y="-195" font-family="Helvetica,sans-Serif" font-size="10.00">/Users/fola/Documents</text>
<text text-anchor="start" x="277.75" y="-183.75" font-family="Helvetica,sans-Serif" font-size="10.00">/ArkScript/Ark/src/arkreactor</text>
<text text-anchor="start" x="277.75" y="-172.5" font-family="Helvetica,sans-Serif" font-size="10.00">/Compiler/IntermediateRepresentation</text>
<text text-anchor="middle" x="360.25" y="-161.25" font-family="Helvetica,sans-Serif" font-size="10.00">/IROptimizer.cpp</text>
</a>
</g>
</g>
<!-- Node15&#45;&gt;Node16 -->
<g id="edge16_Node000015_Node000016" class="edge">
<title>Node15&#45;&gt;Node16</title>
<g id="a_edge16_Node000015_Node000016"><a xlink:title=" ">
<path fill="none" stroke="#63b8ff" d="M471.1,-239.07C451.59,-229.2 430.22,-218.39 411.49,-208.92"/>
<polygon fill="#63b8ff" stroke="#63b8ff" points="469.26,-242.06 479.76,-243.45 472.42,-235.81 469.26,-242.06"/>
</a>
</g>
</g>
<!-- Node17&#45;&gt;Node4 -->
<g id="edge18_Node000017_Node000004" class="edge">
<title>Node17&#45;&gt;Node4</title>
<g id="a_edge18_Node000017_Node000004"><a xlink:title=" ">
<path fill="none" stroke="#63b8ff" d="M851.69,-247.1C847.83,-246.21 844,-245.34 840.25,-244.5 756.17,-225.71 658.55,-206.69 596.14,-194.88"/>
<polygon fill="#63b8ff" stroke="#63b8ff" points="850.64,-250.45 861.17,-249.33 852.24,-243.64 850.64,-250.45"/>
</a>
</g>
</g>
<!-- Node18 -->
<g id="Node000018" class="node">
<title>Node18</title>
<g id="a_Node000018"><a xlink:href="../../d2/d5e/ASTLowerer_8cpp.html" target="_top" xlink:title=" ">
<polygon fill="white" stroke="#666666" points="1028.5,-202.88 858,-202.88 858,-161.12 1028.5,-161.12 1028.5,-202.88"/>
<text text-anchor="start" x="866" y="-189.38" font-family="Helvetica,sans-Serif" font-size="10.00">/Users/fola/Documents</text>
<text text-anchor="start" x="866" y="-178.12" font-family="Helvetica,sans-Serif" font-size="10.00">/ArkScript/Ark/src/arkreactor</text>
<text text-anchor="middle" x="943.25" y="-166.88" font-family="Helvetica,sans-Serif" font-size="10.00">/Compiler/Lowerer/ASTLowerer.cpp</text>
</a>
</g>
</g>
<!-- Node17&#45;&gt;Node18 -->
<g id="edge19_Node000017_Node000018" class="edge">
<title>Node17&#45;&gt;Node18</title>
<g id="a_edge19_Node000017_Node000018"><a xlink:title=" ">
<path fill="none" stroke="#63b8ff" d="M943.25,-238.64C943.25,-226.9 943.25,-213.87 943.25,-203.37"/>
<polygon fill="#63b8ff" stroke="#63b8ff" points="939.75,-238.31 943.25,-248.31 946.75,-238.31 939.75,-238.31"/>
</a>
</g>
</g>
<!-- Node20&#45;&gt;Node5 -->
<g id="edge23_Node000020_Node000005" class="edge">
<title>Node20&#45;&gt;Node5</title>
<g id="a_edge23_Node000020_Node000005"><a xlink:title=" ">
<path fill="none" stroke="#63b8ff" d="M1129.36,-169.49C1100.83,-164.92 1067.49,-159.76 1037.25,-155.5 908.64,-137.4 874.44,-145.8 747.25,-119.5 744.24,-118.88 741.17,-118.19 738.08,-117.45"/>
<polygon fill="#63b8ff" stroke="#63b8ff" points="1128.53,-172.9 1138.96,-171.03 1129.64,-165.99 1128.53,-172.9"/>
</a>
</g>
</g>
<!-- Node20&#45;&gt;Node13 -->
<g id="edge34_Node000020_Node000013" class="edge">
<title>Node20&#45;&gt;Node13</title>
<g id="a_edge34_Node000020_Node000013"><a xlink:title=" ">
<path fill="none" stroke="#63b8ff" d="M1129.09,-168.83C1100.65,-164.19 1067.44,-159.15 1037.25,-155.5 848.61,-132.71 798.67,-150.78 611.25,-119.5 608.46,-119.03 605.62,-118.52 602.77,-117.97"/>
<polygon fill="#63b8ff" stroke="#63b8ff" points="1128.22,-172.23 1138.65,-170.41 1129.35,-165.33 1128.22,-172.23"/>
</a>
</g>
</g>
<!-- Node21 -->
<g id="Node000021" class="node">
<title>Node21</title>
<g id="a_Node000021"><a xlink:href="../../d5/d44/Module_8hpp.html" target="_top" xlink:title=" ">
<polygon fill="white" stroke="#666666" points="1460.88,-41.75 1343.62,-41.75 1343.62,0 1460.88,0 1460.88,-41.75"/>
<text text-anchor="start" x="1351.62" y="-28.25" font-family="Helvetica,sans-Serif" font-size="10.00">/Users/fola/Documents</text>
<text text-anchor="start" x="1351.62" y="-17" font-family="Helvetica,sans-Serif" font-size="10.00">/ArkScript/Ark/include</text>
<text text-anchor="middle" x="1402.25" y="-5.75" font-family="Helvetica,sans-Serif" font-size="10.00">/Ark/Module.hpp</text>
</a>
</g>
</g>
<!-- Node20&#45;&gt;Node21 -->
<g id="edge24_Node000020_Node000021" class="edge">
<title>Node20&#45;&gt;Node21</title>
<g id="a_edge24_Node000020_Node000021"><a xlink:title=" ">
<path fill="none" stroke="#63b8ff" d="M1269.13,-166.64C1299.54,-157.43 1333.75,-142.7 1358.25,-119.5 1380.52,-98.41 1392.36,-63.95 1397.97,-42.12"/>
<polygon fill="#63b8ff" stroke="#63b8ff" points="1268.23,-163.26 1259.58,-169.37 1270.15,-169.99 1268.23,-163.26"/>
</a>
</g>
</g>
<!-- Node22 -->
<g id="Node000022" class="node">
<title>Node22</title>
<g id="a_Node000022"><a xlink:href="../../d7/dd7/Helpers_8hpp.html" target="_top" xlink:title="Helpers for the VM.">
<polygon fill="white" stroke="#666666" points="1720.88,-119.5 1603.62,-119.5 1603.62,-77.75 1720.88,-77.75 1720.88,-119.5"/>
<text text-anchor="start" x="1611.62" y="-106" font-family="Helvetica,sans-Serif" font-size="10.00">/Users/fola/Documents</text>
<text text-anchor="start" x="1611.62" y="-94.75" font-family="Helvetica,sans-Serif" font-size="10.00">/ArkScript/Ark/include</text>
<text text-anchor="middle" x="1662.25" y="-83.5" font-family="Helvetica,sans-Serif" font-size="10.00">/Ark/VM/Helpers.hpp</text>
</a>
</g>
</g>
<!-- Node20&#45;&gt;Node22 -->
<g id="edge25_Node000020_Node000022" class="edge">
<title>Node20&#45;&gt;Node22</title>
<g id="a_edge25_Node000020_Node000022"><a xlink:title=" ">
<path fill="none" stroke="#63b8ff" d="M1269.27,-172.31C1347.66,-162.03 1478.26,-143.29 1589.25,-119.5 1593.87,-118.51 1598.64,-117.4 1603.42,-116.24"/>
<polygon fill="#63b8ff" stroke="#63b8ff" points="1269.06,-168.81 1259.59,-173.57 1269.96,-175.75 1269.06,-168.81"/>
</a>
</g>
</g>
<!-- Node20&#45;&gt;Node23 -->
<g id="edge35_Node000020_Node000023" class="edge">
<title>Node20&#45;&gt;Node23</title>
<g id="a_edge35_Node000020_Node000023"><a xlink:title=" ">
<path fill="none" stroke="#63b8ff" d="M1269.34,-175.66C1359.6,-167.65 1510.33,-150.1 1556.25,-119.5 1584.32,-100.8 1602.25,-64.6 1611.26,-41.92"/>
<polygon fill="#63b8ff" stroke="#63b8ff" points="1269.27,-172.15 1259.61,-176.5 1269.87,-179.12 1269.27,-172.15"/>
</a>
</g>
</g>
<!-- Node24 -->
<g id="Node000024" class="node">
<title>Node24</title>
<g id="a_Node000024"><a xlink:href="../../d2/d33/ModuleMapping_8hpp.html" target="_top" xlink:title=" ">
<polygon fill="white" stroke="#666666" points="1547.25,-119.5 1405.25,-119.5 1405.25,-77.75 1547.25,-77.75 1547.25,-119.5"/>
<text text-anchor="start" x="1413.25" y="-106" font-family="Helvetica,sans-Serif" font-size="10.00">/Users/fola/Documents</text>
<text text-anchor="start" x="1413.25" y="-94.75" font-family="Helvetica,sans-Serif" font-size="10.00">/ArkScript/Ark/include</text>
<text text-anchor="middle" x="1476.25" y="-83.5" font-family="Helvetica,sans-Serif" font-size="10.00">/Ark/VM/ModuleMapping.hpp</text>
</a>
</g>
</g>
<!-- Node20&#45;&gt;Node24 -->
<g id="edge27_Node000020_Node000024" class="edge">
<title>Node20&#45;&gt;Node24</title>
<g id="a_edge27_Node000020_Node000024"><a xlink:title=" ">
<path fill="none" stroke="#63b8ff" d="M1269.35,-160.41C1311.52,-148.02 1364.97,-132.32 1406.99,-119.97"/>
<polygon fill="#63b8ff" stroke="#63b8ff" points="1268.39,-157.04 1259.79,-163.22 1270.37,-163.76 1268.39,-157.04"/>
</a>
</g>
</g>
<!-- Node25 -->
<g id="Node000025" class="node">
<title>Node25</title>
<g id="a_Node000025"><a xlink:href="../../d5/da5/Repl_8hpp.html" target="_top" xlink:title="ArkScript REPL &#45; Read Eval Print Loop.">
<polygon fill="white" stroke="#666666" points="1031.88,-119.5 914.62,-119.5 914.62,-77.75 1031.88,-77.75 1031.88,-119.5"/>
<text text-anchor="start" x="922.62" y="-106" font-family="Helvetica,sans-Serif" font-size="10.00">/Users/fola/Documents</text>
<text text-anchor="start" x="922.62" y="-94.75" font-family="Helvetica,sans-Serif" font-size="10.00">/ArkScript/Ark/include</text>
<text text-anchor="middle" x="973.25" y="-83.5" font-family="Helvetica,sans-Serif" font-size="10.00">/CLI/REPL/Repl.hpp</text>
</a>
</g>
</g>
<!-- Node20&#45;&gt;Node25 -->
<g id="edge30_Node000020_Node000025" class="edge">
<title>Node20&#45;&gt;Node25</title>
<g id="a_edge30_Node000020_Node000025"><a xlink:title=" ">
<path fill="none" stroke="#63b8ff" d="M1132.01,-156.79C1099.45,-145.06 1060.78,-131.14 1029.76,-119.97"/>
<polygon fill="#63b8ff" stroke="#63b8ff" points="1130.79,-160.07 1141.38,-160.16 1133.16,-153.48 1130.79,-160.07"/>
</a>
</g>
</g>
<!-- Node27 -->
<g id="Node000027" class="node">
<title>Node27</title>
<g id="a_Node000027"><a xlink:href="../../d6/d9a/TypeChecker_8cpp.html" target="_top" xlink:title=" ">
<polygon fill="white" stroke="#666666" points="896.5,-119.5 756,-119.5 756,-77.75 896.5,-77.75 896.5,-119.5"/>
<text text-anchor="start" x="764" y="-106" font-family="Helvetica,sans-Serif" font-size="10.00">/Users/fola/Documents</text>
<text text-anchor="start" x="764" y="-94.75" font-family="Helvetica,sans-Serif" font-size="10.00">/ArkScript/Ark/src/arkreactor</text>
<text text-anchor="middle" x="826.25" y="-83.5" font-family="Helvetica,sans-Serif" font-size="10.00">/TypeChecker.cpp</text>
</a>
</g>
</g>
<!-- Node20&#45;&gt;Node27 -->
<g id="edge33_Node000020_Node000027" class="edge">
<title>Node20&#45;&gt;Node27</title>
<g id="a_edge33_Node000020_Node000027"><a xlink:title=" ">
<path fill="none" stroke="#63b8ff" d="M1129.07,-167.15C1069.4,-155.17 981.51,-137.06 905.25,-119.5 902.49,-118.87 899.69,-118.21 896.85,-117.54"/>
<polygon fill="#63b8ff" stroke="#63b8ff" points="1128.27,-170.56 1138.76,-169.09 1129.65,-163.69 1128.27,-170.56"/>
</a>
</g>
</g>
<!-- Node28 -->
<g id="Node000028" class="node">
<title>Node28</title>
<g id="a_Node000028"><a xlink:href="../../d1/db2/Closure_8cpp.html" target="_top" xlink:title=" ">
<polygon fill="white" stroke="#666666" points="1190.5,-119.5 1050,-119.5 1050,-77.75 1190.5,-77.75 1190.5,-119.5"/>
<text text-anchor="start" x="1058" y="-106" font-family="Helvetica,sans-Serif" font-size="10.00">/Users/fola/Documents</text>
<text text-anchor="start" x="1058" y="-94.75" font-family="Helvetica,sans-Serif" font-size="10.00">/ArkScript/Ark/src/arkreactor</text>
<text text-anchor="middle" x="1120.25" y="-83.5" font-family="Helvetica,sans-Serif" font-size="10.00">/VM/Value/Closure.cpp</text>
</a>
</g>
</g>
<!-- Node20&#45;&gt;Node28 -->
<g id="edge36_Node000020_Node000028" class="edge">
<title>Node20&#45;&gt;Node28</title>
<g id="a_edge36_Node000020_Node000028"><a xlink:title=" ">
<path fill="none" stroke="#63b8ff" d="M1171.95,-152.88C1161.38,-141.99 1149.52,-129.77 1139.83,-119.79"/>
<polygon fill="#63b8ff" stroke="#63b8ff" points="1169.19,-155.06 1178.67,-159.8 1174.21,-150.19 1169.19,-155.06"/>
</a>
</g>
</g>
<!-- Node29 -->
<g id="Node000029" class="node">
<title>Node29</title>
<g id="a_Node000029"><a xlink:href="../../d4/dc9/Future_8cpp.html" target="_top" xlink:title=" ">
<polygon fill="white" stroke="#666666" points="1349.5,-119.5 1209,-119.5 1209,-77.75 1349.5,-77.75 1349.5,-119.5"/>
<text text-anchor="start" x="1217" y="-106" font-family="Helvetica,sans-Serif" font-size="10.00">/Users/fola/Documents</text>
<text text-anchor="start" x="1217" y="-94.75" font-family="Helvetica,sans-Serif" font-size="10.00">/ArkScript/Ark/src/arkreactor</text>
<text text-anchor="middle" x="1279.25" y="-83.5" font-family="Helvetica,sans-Serif" font-size="10.00">/VM/Value/Future.cpp</text>
</a>
</g>
</g>
<!-- Node20&#45;&gt;Node29 -->
<g id="edge37_Node000020_Node000029" class="edge">
<title>Node20&#45;&gt;Node29</title>
<g id="a_edge37_Node000020_Node000029"><a xlink:title=" ">
<path fill="none" stroke="#63b8ff" d="M1226.9,-152.88C1237.6,-141.99 1249.61,-129.77 1259.42,-119.79"/>
<polygon fill="#63b8ff" stroke="#63b8ff" points="1224.6,-150.22 1220.09,-159.81 1229.59,-155.13 1224.6,-150.22"/>
</a>
</g>
</g>
<!-- Node22&#45;&gt;Node23 -->
<g id="edge26_Node000022_Node000023" class="edge">
<title>Node22&#45;&gt;Node23</title>
<g id="a_edge26_Node000022_Node000023"><a xlink:title=" ">
<path fill="none" stroke="#63b8ff" d="M1644.69,-67.4C1639.78,-58.95 1634.57,-49.96 1630.07,-42.23"/>
<polygon fill="#63b8ff" stroke="#63b8ff" points="1641.65,-69.13 1649.7,-76.02 1647.7,-65.61 1641.65,-69.13"/>
</a>
</g>
</g>
<!-- Node24&#45;&gt;Node21 -->
<g id="edge28_Node000024_Node000021" class="edge">
<title>Node24&#45;&gt;Node21</title>
<g id="a_edge28_Node000024_Node000021"><a xlink:title=" ">
<path fill="none" stroke="#63b8ff" d="M1448.62,-69.34C1439.82,-60.34 1430.27,-50.56 1422.14,-42.23"/>
<polygon fill="#63b8ff" stroke="#63b8ff" points="1445.87,-71.54 1455.36,-76.24 1450.88,-66.64 1445.87,-71.54"/>
</a>
</g>
</g>
<!-- Node24&#45;&gt;Node23 -->
<g id="edge29_Node000024_Node000023" class="edge">
<title>Node24&#45;&gt;Node23</title>
<g id="a_edge29_Node000024_Node000023"><a xlink:title=" ">
<path fill="none" stroke="#63b8ff" d="M1524.41,-71.93C1542.57,-62.24 1562.97,-51.37 1580.09,-42.23"/>
<polygon fill="#63b8ff" stroke="#63b8ff" points="1522.81,-68.82 1515.64,-76.61 1526.11,-74.99 1522.81,-68.82"/>
</a>
</g>
</g>
<!-- Node25&#45;&gt;Node10 -->
<g id="edge32_Node000025_Node000010" class="edge">
<title>Node25&#45;&gt;Node10</title>
<g id="a_edge32_Node000025_Node000010"><a xlink:title=" ">
<path fill="none" stroke="#63b8ff" d="M903.44,-77.51C799.68,-55.33 769.74,-62.33 669.25,-41.75 666.14,-41.11 662.97,-40.43 659.77,-39.71"/>
<polygon fill="#63b8ff" stroke="#63b8ff" points="902.41,-80.87 912.92,-79.58 903.9,-74.03 902.41,-80.87"/>
</a>
</g>
</g>
<!-- Node26 -->
<g id="Node000026" class="node">
<title>Node26</title>
<g id="a_Node000026"><a xlink:href="../../d7/d46/Repl_8cpp.html" target="_top" xlink:title=" ">
<polygon fill="white" stroke="#666666" points="1040.5,-41.75 906,-41.75 906,0 1040.5,0 1040.5,-41.75"/>
<text text-anchor="start" x="914" y="-28.25" font-family="Helvetica,sans-Serif" font-size="10.00">/Users/fola/Documents</text>
<text text-anchor="start" x="914" y="-17" font-family="Helvetica,sans-Serif" font-size="10.00">/ArkScript/Ark/src/arkscript</text>
<text text-anchor="middle" x="973.25" y="-5.75" font-family="Helvetica,sans-Serif" font-size="10.00">/REPL/Repl.cpp</text>
</a>
</g>
</g>
<!-- Node25&#45;&gt;Node26 -->
<g id="edge31_Node000025_Node000026" class="edge">
<title>Node25&#45;&gt;Node26</title>
<g id="a_edge31_Node000025_Node000026"><a xlink:title=" ">
<path fill="none" stroke="#63b8ff" d="M973.25,-66C973.25,-57.96 973.25,-49.54 973.25,-42.23"/>
<polygon fill="#63b8ff" stroke="#63b8ff" points="969.75,-65.81 973.25,-75.81 976.75,-65.81 969.75,-65.81"/>
</a>
</g>
</g>
</g>
</svg>

<g id="navigator" transform="translate(0 0)" fill="#404254">
  <rect fill="#f2f5e9" fill-opacity="0.5" stroke="#606060" stroke-width=".5" x="0" y="0" width="60" height="60"/>
  <use id="zoomplus" xlink:href="#zoomPlus" x="17" y="9" onmousedown="handleZoom(evt,'in')"/>
  <use id="zoomminus" xlink:href="#zoomMin" x="42" y="9" onmousedown="handleZoom(evt,'out')"/>
  <use id="reset" xlink:href="#resetDef" x="30" y="36" onmousedown="handleReset()"/>
   <use id="arrowup" xlink:href="#arrowUp" x="0" y="0" onmousedown="handlePan(0,-1)"/>
  <use id="arrowright" xlink:href="#arrowRight" x="0" y="0" onmousedown="handlePan(1,0)"/>
  <use id="arrowdown" xlink:href="#arrowDown" x="0" y="0" onmousedown="handlePan(0,1)"/>
  <use id="arrowleft" xlink:href="#arrowLeft" x="0" y="0" onmousedown="handlePan(-1,0)"/>
</g>
<svg viewBox="0 0 15 15" width="100%" height="30px" preserveAspectRatio="xMaxYMin meet">
 <g id="arrow_out" transform="scale(0.3 0.3)">
  <a xlink:href="Instructions_8hpp__dep__incl_org.svg" target="_base">
   <rect id="button" ry="5" rx="5" y="6" x="6" height="38" width="38"
        fill="#f2f5e9" fill-opacity="0.5" stroke="#606060" stroke-width="1.0"/>
   <path id="arrow"
     d="M 11.500037,31.436501 C 11.940474,20.09759 22.043105,11.32322 32.158766,21.979434 L 37.068811,17.246167 C 37.068811,17.246167 37.088388,32 37.088388,32 L 22.160133,31.978069 C 22.160133,31.978069 26.997745,27.140456 26.997745,27.140456 C 18.528582,18.264221 13.291696,25.230495 11.500037,31.436501 z"
     style="fill:#404040;"/>
  </a>
 </g>
</svg>

<style type='text/css'>
<![CDATA[
[data-mouse-over-selected='false'] { opacity: 0.7; }
[data-mouse-over-selected='true']  { opacity: 1.0; }
]]>
</style>
<script type="application/ecmascript"><![CDATA[
document.addEventListener('DOMContentLoaded', (event) => {
  highlightEdges();
  highlightAdjacentNodes();
});
]]></script>
</svg>
