<?xml version="1.0" encoding="UTF-8" standalone="no"?>
<!DOCTYPE svg PUBLIC "-//W3C//DTD SVG 1.1//EN"
 "http://www.w3.org/Graphics/SVG/1.1/DTD/svg11.dtd">
<!-- Generated by graphviz version 12.2.0 (20241103.1931)
 -->
<!-- Title: /Users/fola/Documents/ArkScript/Ark/include/Ark/VM/ErrorKind.hpp Pages: 1 -->
<svg width="1032pt" height="283pt"
 viewBox="0.00 0.00 1031.50 283.00" xmlns="http://www.w3.org/2000/svg" xmlns:xlink="http://www.w3.org/1999/xlink">
<g id="graph0" class="graph" transform="scale(1 1) rotate(0) translate(4 279)">
<title>/Users/fola/Documents/ArkScript/Ark/include/Ark/VM/ErrorKind.hpp</title>
<!-- Node1 -->
<g id="Node000001" class="node">
<title>Node1</title>
<g id="a_Node000001"><a xlink:title=" ">
<polygon fill="#999999" stroke="#666666" points="619.88,-275 502.62,-275 502.62,-233.25 619.88,-233.25 619.88,-275"/>
<text text-anchor="start" x="510.62" y="-261.5" font-family="Helvetica,sans-Serif" font-size="10.00">/Users/fola/Documents</text>
<text text-anchor="start" x="510.62" y="-250.25" font-family="Helvetica,sans-Serif" font-size="10.00">/ArkScript/Ark/include</text>
<text text-anchor="middle" x="561.25" y="-239" font-family="Helvetica,sans-Serif" font-size="10.00">/Ark/VM/ErrorKind.hpp</text>
</a>
</g>
</g>
<!-- Node2 -->
<g id="Node000002" class="node">
<title>Node2</title>
<g id="a_Node000002"><a xlink:href="../../d1/d91/VM_8hpp.html" target="_top" xlink:title="The ArkScript virtual machine.">
<polygon fill="white" stroke="#666666" points="619.88,-197.25 502.62,-197.25 502.62,-155.5 619.88,-155.5 619.88,-197.25"/>
<text text-anchor="start" x="510.62" y="-183.75" font-family="Helvetica,sans-Serif" font-size="10.00">/Users/fola/Documents</text>
<text text-anchor="start" x="510.62" y="-172.5" font-family="Helvetica,sans-Serif" font-size="10.00">/ArkScript/Ark/include</text>
<text text-anchor="middle" x="561.25" y="-161.25" font-family="Helvetica,sans-Serif" font-size="10.00">/Ark/VM/VM.hpp</text>
</a>
</g>
</g>
<!-- Node1&#45;&gt;Node2 -->
<g id="edge1_Node000001_Node000002" class="edge">
<title>Node1&#45;&gt;Node2</title>
<g id="a_edge1_Node000001_Node000002"><a xlink:title=" ">
<path fill="none" stroke="#63b8ff" d="M561.25,-221.5C561.25,-213.46 561.25,-205.04 561.25,-197.73"/>
<polygon fill="#63b8ff" stroke="#63b8ff" points="557.75,-221.31 561.25,-231.31 564.75,-221.31 557.75,-221.31"/>
</a>
</g>
</g>
<!-- Node3 -->
<g id="Node000003" class="node">
<title>Node3</title>
<g id="a_Node000003"><a xlink:href="../../d3/d7e/Ark_8hpp.html" target="_top" xlink:title="Includes the needed files to start using ArkScript.">
<polygon fill="white" stroke="#666666" points="276.88,-119.5 159.62,-119.5 159.62,-77.75 276.88,-77.75 276.88,-119.5"/>
<text text-anchor="start" x="167.62" y="-106" font-family="Helvetica,sans-Serif" font-size="10.00">/Users/fola/Documents</text>
<text text-anchor="start" x="167.62" y="-94.75" font-family="Helvetica,sans-Serif" font-size="10.00">/ArkScript/Ark/include</text>
<text text-anchor="middle" x="218.25" y="-83.5" font-family="Helvetica,sans-Serif" font-size="10.00">/Ark/Ark.hpp</text>
</a>
</g>
</g>
<!-- Node2&#45;&gt;Node3 -->
<g id="edge2_Node000002_Node000003" class="edge">
<title>Node2&#45;&gt;Node3</title>
<g id="a_edge2_Node000002_Node000003"><a xlink:title=" ">
<path fill="none" stroke="#63b8ff" d="M491.01,-162.93C435,-152.59 354.71,-136.8 285.25,-119.5 282.66,-118.85 280.02,-118.17 277.36,-117.47"/>
<polygon fill="#63b8ff" stroke="#63b8ff" points="490.27,-166.36 500.74,-164.72 491.53,-159.47 490.27,-166.36"/>
</a>
</g>
</g>
<!-- Node6 -->
<g id="Node000006" class="node">
<title>Node6</title>
<g id="a_Node000006"><a xlink:href="../../d5/d44/Module_8hpp.html" target="_top" xlink:title=" ">
<polygon fill="white" stroke="#666666" points="411.88,-119.5 294.62,-119.5 294.62,-77.75 411.88,-77.75 411.88,-119.5"/>
<text text-anchor="start" x="302.62" y="-106" font-family="Helvetica,sans-Serif" font-size="10.00">/Users/fola/Documents</text>
<text text-anchor="start" x="302.62" y="-94.75" font-family="Helvetica,sans-Serif" font-size="10.00">/ArkScript/Ark/include</text>
<text text-anchor="middle" x="353.25" y="-83.5" font-family="Helvetica,sans-Serif" font-size="10.00">/Ark/Module.hpp</text>
</a>
</g>
</g>
<!-- Node2&#45;&gt;Node6 -->
<g id="edge5_Node000002_Node000006" class="edge">
<title>Node2&#45;&gt;Node6</title>
<g id="a_edge5_Node000002_Node000006"><a xlink:title=" ">
<path fill="none" stroke="#63b8ff" d="M494.76,-151.16C467.17,-141.11 435.51,-129.58 409.14,-119.98"/>
<polygon fill="#63b8ff" stroke="#63b8ff" points="493.49,-154.42 504.09,-154.56 495.89,-147.85 493.49,-154.42"/>
</a>
</g>
</g>
<!-- Node7 -->
<g id="Node000007" class="node">
<title>Node7</title>
<g id="a_Node000007"><a xlink:href="../../d5/da5/Repl_8hpp.html" target="_top" xlink:title="ArkScript REPL &#45; Read Eval Print Loop.">
<polygon fill="white" stroke="#666666" points="546.88,-119.5 429.62,-119.5 429.62,-77.75 546.88,-77.75 546.88,-119.5"/>
<text text-anchor="start" x="437.62" y="-106" font-family="Helvetica,sans-Serif" font-size="10.00">/Users/fola/Documents</text>
<text text-anchor="start" x="437.62" y="-94.75" font-family="Helvetica,sans-Serif" font-size="10.00">/ArkScript/Ark/include</text>
<text text-anchor="middle" x="488.25" y="-83.5" font-family="Helvetica,sans-Serif" font-size="10.00">/CLI/REPL/Repl.hpp</text>
</a>
</g>
</g>
<!-- Node2&#45;&gt;Node7 -->
<g id="edge6_Node000002_Node000007" class="edge">
<title>Node2&#45;&gt;Node7</title>
<g id="a_edge6_Node000002_Node000007"><a xlink:title=" ">
<path fill="none" stroke="#63b8ff" d="M533.72,-146.81C525.12,-137.89 515.81,-128.22 507.87,-119.98"/>
<polygon fill="#63b8ff" stroke="#63b8ff" points="531.18,-149.21 540.64,-153.99 536.22,-144.36 531.18,-149.21"/>
</a>
</g>
</g>
<!-- Node10 -->
<g id="Node000010" class="node">
<title>Node10</title>
<g id="a_Node000010"><a xlink:href="../../d4/dc9/Future_8cpp.html" target="_top" xlink:title=" ">
<polygon fill="white" stroke="#666666" points="705.5,-119.5 565,-119.5 565,-77.75 705.5,-77.75 705.5,-119.5"/>
<text text-anchor="start" x="573" y="-106" font-family="Helvetica,sans-Serif" font-size="10.00">/Users/fola/Documents</text>
<text text-anchor="start" x="573" y="-94.75" font-family="Helvetica,sans-Serif" font-size="10.00">/ArkScript/Ark/src/arkreactor</text>
<text text-anchor="middle" x="635.25" y="-83.5" font-family="Helvetica,sans-Serif" font-size="10.00">/VM/Future.cpp</text>
</a>
</g>
</g>
<!-- Node2&#45;&gt;Node10 -->
<g id="edge9_Node000002_Node000010" class="edge">
<title>Node2&#45;&gt;Node10</title>
<g id="a_edge9_Node000002_Node000010"><a xlink:title=" ">
<path fill="none" stroke="#63b8ff" d="M588.88,-147.09C597.68,-138.09 607.23,-128.31 615.36,-119.98"/>
<polygon fill="#63b8ff" stroke="#63b8ff" points="586.62,-144.39 582.14,-153.99 591.63,-149.29 586.62,-144.39"/>
</a>
</g>
</g>
<!-- Node11 -->
<g id="Node000011" class="node">
<title>Node11</title>
<g id="a_Node000011"><a xlink:href="../../d2/d27/VM_8cpp.html" target="_top" xlink:title=" ">
<polygon fill="white" stroke="#666666" points="864.5,-119.5 724,-119.5 724,-77.75 864.5,-77.75 864.5,-119.5"/>
<text text-anchor="start" x="732" y="-106" font-family="Helvetica,sans-Serif" font-size="10.00">/Users/fola/Documents</text>
<text text-anchor="start" x="732" y="-94.75" font-family="Helvetica,sans-Serif" font-size="10.00">/ArkScript/Ark/src/arkreactor</text>
<text text-anchor="middle" x="794.25" y="-83.5" font-family="Helvetica,sans-Serif" font-size="10.00">/VM/VM.cpp</text>
</a>
</g>
</g>
<!-- Node2&#45;&gt;Node11 -->
<g id="edge10_Node000002_Node000011" class="edge">
<title>Node2&#45;&gt;Node11</title>
<g id="a_edge10_Node000002_Node000011"><a xlink:title=" ">
<path fill="none" stroke="#63b8ff" d="M630.99,-152.7C663.08,-142.27 700.84,-129.99 731.96,-119.88"/>
<polygon fill="#63b8ff" stroke="#63b8ff" points="630.21,-149.27 621.79,-155.69 632.38,-155.93 630.21,-149.27"/>
</a>
</g>
</g>
<!-- Node12 -->
<g id="Node000012" class="node">
<title>Node12</title>
<g id="a_Node000012"><a xlink:href="../../d1/db2/Closure_8cpp.html" target="_top" xlink:title=" ">
<polygon fill="white" stroke="#666666" points="1023.5,-119.5 883,-119.5 883,-77.75 1023.5,-77.75 1023.5,-119.5"/>
<text text-anchor="start" x="891" y="-106" font-family="Helvetica,sans-Serif" font-size="10.00">/Users/fola/Documents</text>
<text text-anchor="start" x="891" y="-94.75" font-family="Helvetica,sans-Serif" font-size="10.00">/ArkScript/Ark/src/arkreactor</text>
<text text-anchor="middle" x="953.25" y="-83.5" font-family="Helvetica,sans-Serif" font-size="10.00">/VM/Value/Closure.cpp</text>
</a>
</g>
</g>
<!-- Node2&#45;&gt;Node12 -->
<g id="edge11_Node000002_Node000012" class="edge">
<title>Node2&#45;&gt;Node12</title>
<g id="a_edge11_Node000002_Node000012"><a xlink:title=" ">
<path fill="none" stroke="#63b8ff" d="M631.19,-164.21C694.59,-153.77 790.5,-137.17 873.25,-119.5 876.33,-118.84 879.47,-118.15 882.64,-117.44"/>
<polygon fill="#63b8ff" stroke="#63b8ff" points="630.93,-160.71 621.62,-165.78 632.06,-167.62 630.93,-160.71"/>
</a>
</g>
</g>
<!-- Node4 -->
<g id="Node000004" class="node">
<title>Node4</title>
<g id="a_Node000004"><a xlink:href="../../d1/d95/arkemscripten_2main_8cpp.html" target="_top" xlink:title=" ">
<polygon fill="white" stroke="#666666" points="158.5,-41.75 0,-41.75 0,0 158.5,0 158.5,-41.75"/>
<text text-anchor="start" x="8" y="-28.25" font-family="Helvetica,sans-Serif" font-size="10.00">/Users/fola/Documents</text>
<text text-anchor="start" x="8" y="-17" font-family="Helvetica,sans-Serif" font-size="10.00">/ArkScript/Ark/src/arkemscripten</text>
<text text-anchor="middle" x="79.25" y="-5.75" font-family="Helvetica,sans-Serif" font-size="10.00">/main.cpp</text>
</a>
</g>
</g>
<!-- Node3&#45;&gt;Node4 -->
<g id="edge3_Node000003_Node000004" class="edge">
<title>Node3&#45;&gt;Node4</title>
<g id="a_edge3_Node000003_Node000004"><a xlink:title=" ">
<path fill="none" stroke="#63b8ff" d="M171.35,-72.07C153.51,-62.35 133.44,-51.41 116.6,-42.23"/>
<polygon fill="#63b8ff" stroke="#63b8ff" points="169.22,-74.89 179.67,-76.6 172.57,-68.74 169.22,-74.89"/>
</a>
</g>
</g>
<!-- Node5 -->
<g id="Node000005" class="node">
<title>Node5</title>
<g id="a_Node000005"><a xlink:href="../../dc/d32/Ark_8cpp.html" target="_top" xlink:title=" ">
<polygon fill="white" stroke="#666666" points="317.5,-41.75 177,-41.75 177,0 317.5,0 317.5,-41.75"/>
<text text-anchor="start" x="185" y="-28.25" font-family="Helvetica,sans-Serif" font-size="10.00">/Users/fola/Documents</text>
<text text-anchor="start" x="185" y="-17" font-family="Helvetica,sans-Serif" font-size="10.00">/ArkScript/Ark/src/arkreactor</text>
<text text-anchor="middle" x="247.25" y="-5.75" font-family="Helvetica,sans-Serif" font-size="10.00">/Ark.cpp</text>
</a>
</g>
</g>
<!-- Node3&#45;&gt;Node5 -->
<g id="edge4_Node000003_Node000005" class="edge">
<title>Node3&#45;&gt;Node5</title>
<g id="a_edge4_Node000003_Node000005"><a xlink:title=" ">
<path fill="none" stroke="#63b8ff" d="M230.04,-66.84C233.21,-58.55 236.56,-49.79 239.46,-42.23"/>
<polygon fill="#63b8ff" stroke="#63b8ff" points="226.87,-65.32 226.56,-75.91 233.41,-67.82 226.87,-65.32"/>
</a>
</g>
</g>
<!-- Node8 -->
<g id="Node000008" class="node">
<title>Node8</title>
<g id="a_Node000008"><a xlink:href="../../d7/d46/Repl_8cpp.html" target="_top" xlink:title=" ">
<polygon fill="white" stroke="#666666" points="527.5,-41.75 393,-41.75 393,0 527.5,0 527.5,-41.75"/>
<text text-anchor="start" x="401" y="-28.25" font-family="Helvetica,sans-Serif" font-size="10.00">/Users/fola/Documents</text>
<text text-anchor="start" x="401" y="-17" font-family="Helvetica,sans-Serif" font-size="10.00">/ArkScript/Ark/src/arkscript</text>
<text text-anchor="middle" x="460.25" y="-5.75" font-family="Helvetica,sans-Serif" font-size="10.00">/REPL/Repl.cpp</text>
</a>
</g>
</g>
<!-- Node7&#45;&gt;Node8 -->
<g id="edge7_Node000007_Node000008" class="edge">
<title>Node7&#45;&gt;Node8</title>
<g id="a_edge7_Node000007_Node000008"><a xlink:title=" ">
<path fill="none" stroke="#63b8ff" d="M476.77,-66.56C473.73,-58.36 470.54,-49.71 467.77,-42.23"/>
<polygon fill="#63b8ff" stroke="#63b8ff" points="473.47,-67.74 480.22,-75.91 480.04,-65.31 473.47,-67.74"/>
</a>
</g>
</g>
<!-- Node9 -->
<g id="Node000009" class="node">
<title>Node9</title>
<g id="a_Node000009"><a xlink:href="../../d0/d46/arkscript_2main_8cpp.html" target="_top" xlink:title=" ">
<polygon fill="white" stroke="#666666" points="680.5,-41.75 546,-41.75 546,0 680.5,0 680.5,-41.75"/>
<text text-anchor="start" x="554" y="-28.25" font-family="Helvetica,sans-Serif" font-size="10.00">/Users/fola/Documents</text>
<text text-anchor="start" x="554" y="-17" font-family="Helvetica,sans-Serif" font-size="10.00">/ArkScript/Ark/src/arkscript</text>
<text text-anchor="middle" x="613.25" y="-5.75" font-family="Helvetica,sans-Serif" font-size="10.00">/main.cpp</text>
</a>
</g>
</g>
<!-- Node7&#45;&gt;Node9 -->
<g id="edge8_Node000007_Node000009" class="edge">
<title>Node7&#45;&gt;Node9</title>
<g id="a_edge8_Node000007_Node000009"><a xlink:title=" ">
<path fill="none" stroke="#63b8ff" d="M531.32,-71.53C547.13,-61.94 564.8,-51.24 579.66,-42.23"/>
<polygon fill="#63b8ff" stroke="#63b8ff" points="529.78,-68.37 523.04,-76.54 533.41,-74.35 529.78,-68.37"/>
</a>
</g>
</g>
</g>
</svg>
