<?xml version="1.0" encoding="UTF-8" standalone="no"?>
<!DOCTYPE svg PUBLIC "-//W3C//DTD SVG 1.1//EN"
 "http://www.w3.org/Graphics/SVG/1.1/DTD/svg11.dtd">
<!-- Generated by graphviz version 12.2.0 (20241103.1931)
 -->
<!-- Title: /Users/fola/Documents/ArkScript/Ark/include/Ark/Utils/Utils.hpp Pages: 1 -->
<svg width="2137pt" height="372pt"
 viewBox="0.00 0.00 2136.50 372.00" xmlns="http://www.w3.org/2000/svg" xmlns:xlink="http://www.w3.org/1999/xlink">
<g id="graph0" class="graph" transform="scale(1 1) rotate(0) translate(4 368)">
<title>/Users/fola/Documents/ArkScript/Ark/include/Ark/Utils/Utils.hpp</title>
<!-- Node1 -->
<g id="Node000001" class="node">
<title>Node1</title>
<g id="a_Node000001"><a xlink:title="Lots of utilities about string, filesystem and more.">
<polygon fill="#999999" stroke="#666666" points="1486.88,-364 1369.62,-364 1369.62,-322.25 1486.88,-322.25 1486.88,-364"/>
<text text-anchor="start" x="1377.62" y="-350.5" font-family="Helvetica,sans-Serif" font-size="10.00">/Users/fola/Documents</text>
<text text-anchor="start" x="1377.62" y="-339.25" font-family="Helvetica,sans-Serif" font-size="10.00">/ArkScript/Ark/include</text>
<text text-anchor="middle" x="1428.25" y="-328" font-family="Helvetica,sans-Serif" font-size="10.00">/Ark/Utils/Utils.hpp</text>
</a>
</g>
</g>
<!-- Node2 -->
<g id="Node000002" class="node">
<title>Node2</title>
<g id="a_Node000002"><a xlink:href="../../d3/d7e/Ark_8hpp.html" target="_top" xlink:title="Includes the needed files to start using ArkScript.">
<polygon fill="white" stroke="#666666" points="305.88,-119.5 188.62,-119.5 188.62,-77.75 305.88,-77.75 305.88,-119.5"/>
<text text-anchor="start" x="196.62" y="-106" font-family="Helvetica,sans-Serif" font-size="10.00">/Users/fola/Documents</text>
<text text-anchor="start" x="196.62" y="-94.75" font-family="Helvetica,sans-Serif" font-size="10.00">/ArkScript/Ark/include</text>
<text text-anchor="middle" x="247.25" y="-83.5" font-family="Helvetica,sans-Serif" font-size="10.00">/Ark/Ark.hpp</text>
</a>
</g>
</g>
<!-- Node1&#45;&gt;Node2 -->
<g id="edge1_Node000001_Node000002" class="edge">
<title>Node1&#45;&gt;Node2</title>
<g id="a_edge1_Node000001_Node000002"><a xlink:title=" ">
<path fill="none" stroke="#63b8ff" d="M1358.02,-341.26C1240.11,-338.63 995.4,-328.11 793.25,-286.25 670.35,-260.8 644.02,-237.82 525.25,-197.25 448.53,-171.04 360.24,-139.86 304.12,-119.92"/>
<polygon fill="#63b8ff" stroke="#63b8ff" points="1357.78,-344.76 1367.86,-341.47 1357.93,-337.76 1357.78,-344.76"/>
</a>
</g>
</g>
<!-- Node5 -->
<g id="Node000005" class="node">
<title>Node5</title>
<g id="a_Node000005"><a xlink:href="../../d7/ddd/Parser_8hpp.html" target="_top" xlink:title="Parse ArkScript code, but do not handle any import declarations.">
<polygon fill="white" stroke="#666666" points="950.25,-280.62 802.25,-280.62 802.25,-238.88 950.25,-238.88 950.25,-280.62"/>
<text text-anchor="start" x="810.25" y="-267.12" font-family="Helvetica,sans-Serif" font-size="10.00">/Users/fola/Documents</text>
<text text-anchor="start" x="810.25" y="-255.88" font-family="Helvetica,sans-Serif" font-size="10.00">/ArkScript/Ark/include</text>
<text text-anchor="middle" x="876.25" y="-244.62" font-family="Helvetica,sans-Serif" font-size="10.00">/Ark/Compiler/AST/Parser.hpp</text>
</a>
</g>
</g>
<!-- Node1&#45;&gt;Node5 -->
<g id="edge4_Node000001_Node000005" class="edge">
<title>Node1&#45;&gt;Node5</title>
<g id="a_edge4_Node000001_Node000005"><a xlink:title=" ">
<path fill="none" stroke="#63b8ff" d="M1357.77,-337.69C1265.45,-330.98 1098.89,-315.77 959.25,-286.25 952.32,-284.78 945.13,-283 938.02,-281.06"/>
<polygon fill="#63b8ff" stroke="#63b8ff" points="1357.47,-341.18 1367.69,-338.4 1357.97,-334.19 1357.47,-341.18"/>
</a>
</g>
</g>
<!-- Node17 -->
<g id="Node000017" class="node">
<title>Node17</title>
<g id="a_Node000017"><a xlink:href="../../d2/dc5/Optimizer_8cpp.html" target="_top" xlink:title=" ">
<polygon fill="white" stroke="#666666" points="1112,-280.62 968.5,-280.62 968.5,-238.88 1112,-238.88 1112,-280.62"/>
<text text-anchor="start" x="976.5" y="-267.12" font-family="Helvetica,sans-Serif" font-size="10.00">/Users/fola/Documents</text>
<text text-anchor="start" x="976.5" y="-255.88" font-family="Helvetica,sans-Serif" font-size="10.00">/ArkScript/Ark/src/arkreactor</text>
<text text-anchor="middle" x="1040.25" y="-244.62" font-family="Helvetica,sans-Serif" font-size="10.00">/Compiler/AST/Optimizer.cpp</text>
</a>
</g>
</g>
<!-- Node1&#45;&gt;Node17 -->
<g id="edge18_Node000001_Node000017" class="edge">
<title>Node1&#45;&gt;Node17</title>
<g id="a_edge18_Node000001_Node000017"><a xlink:title=" ">
<path fill="none" stroke="#63b8ff" d="M1357.91,-331.89C1295.34,-322.17 1201.58,-306.12 1121.25,-286.25 1114.95,-284.69 1108.43,-282.92 1101.94,-281.04"/>
<polygon fill="#63b8ff" stroke="#63b8ff" points="1357.31,-335.33 1367.72,-333.4 1358.37,-328.42 1357.31,-335.33"/>
</a>
</g>
</g>
<!-- Node18 -->
<g id="Node000018" class="node">
<title>Node18</title>
<g id="a_Node000018"><a xlink:href="../../de/dd7/NameResolutionPass_8cpp.html" target="_top" xlink:title=" ">
<polygon fill="white" stroke="#666666" points="1340,-286.25 1130.5,-286.25 1130.5,-233.25 1340,-233.25 1340,-286.25"/>
<text text-anchor="start" x="1138.5" y="-272.75" font-family="Helvetica,sans-Serif" font-size="10.00">/Users/fola/Documents</text>
<text text-anchor="start" x="1138.5" y="-261.5" font-family="Helvetica,sans-Serif" font-size="10.00">/ArkScript/Ark/src/arkreactor</text>
<text text-anchor="start" x="1138.5" y="-250.25" font-family="Helvetica,sans-Serif" font-size="10.00">/Compiler/NameResolution/NameResolution</text>
<text text-anchor="middle" x="1235.25" y="-239" font-family="Helvetica,sans-Serif" font-size="10.00">Pass.cpp</text>
</a>
</g>
</g>
<!-- Node1&#45;&gt;Node18 -->
<g id="edge19_Node000001_Node000018" class="edge">
<title>Node1&#45;&gt;Node18</title>
<g id="a_edge19_Node000001_Node000018"><a xlink:title=" ">
<path fill="none" stroke="#63b8ff" d="M1369.7,-317.44C1346.61,-307.7 1320.06,-296.51 1296.7,-286.66"/>
<polygon fill="#63b8ff" stroke="#63b8ff" points="1368.08,-320.55 1378.65,-321.21 1370.8,-314.1 1368.08,-320.55"/>
</a>
</g>
</g>
<!-- Node19 -->
<g id="Node000019" class="node">
<title>Node19</title>
<g id="a_Node000019"><a xlink:href="../../de/d66/Diagnostics_8cpp.html" target="_top" xlink:title=" ">
<polygon fill="white" stroke="#666666" points="1498.5,-280.62 1358,-280.62 1358,-238.88 1498.5,-238.88 1498.5,-280.62"/>
<text text-anchor="start" x="1366" y="-267.12" font-family="Helvetica,sans-Serif" font-size="10.00">/Users/fola/Documents</text>
<text text-anchor="start" x="1366" y="-255.88" font-family="Helvetica,sans-Serif" font-size="10.00">/ArkScript/Ark/src/arkreactor</text>
<text text-anchor="middle" x="1428.25" y="-244.62" font-family="Helvetica,sans-Serif" font-size="10.00">/Error/Diagnostics.cpp</text>
</a>
</g>
</g>
<!-- Node1&#45;&gt;Node19 -->
<g id="edge20_Node000001_Node000019" class="edge">
<title>Node1&#45;&gt;Node19</title>
<g id="a_edge20_Node000001_Node000019"><a xlink:title=" ">
<path fill="none" stroke="#63b8ff" d="M1428.25,-310.77C1428.25,-300.74 1428.25,-289.92 1428.25,-280.92"/>
<polygon fill="#63b8ff" stroke="#63b8ff" points="1424.75,-310.5 1428.25,-320.5 1431.75,-310.5 1424.75,-310.5"/>
</a>
</g>
</g>
<!-- Node20 -->
<g id="Node000020" class="node">
<title>Node20</title>
<g id="a_Node000020"><a xlink:href="../../db/dd8/PrettyPrinting_8cpp.html" target="_top" xlink:title=" ">
<polygon fill="white" stroke="#666666" points="1657.5,-280.62 1517,-280.62 1517,-238.88 1657.5,-238.88 1657.5,-280.62"/>
<text text-anchor="start" x="1525" y="-267.12" font-family="Helvetica,sans-Serif" font-size="10.00">/Users/fola/Documents</text>
<text text-anchor="start" x="1525" y="-255.88" font-family="Helvetica,sans-Serif" font-size="10.00">/ArkScript/Ark/src/arkreactor</text>
<text text-anchor="middle" x="1587.25" y="-244.62" font-family="Helvetica,sans-Serif" font-size="10.00">/Error/PrettyPrinting.cpp</text>
</a>
</g>
</g>
<!-- Node1&#45;&gt;Node20 -->
<g id="edge21_Node000001_Node000020" class="edge">
<title>Node1&#45;&gt;Node20</title>
<g id="a_edge21_Node000001_Node000020"><a xlink:title=" ">
<path fill="none" stroke="#63b8ff" d="M1477.96,-316.68C1500.35,-305.22 1526.43,-291.88 1547.49,-281.1"/>
<polygon fill="#63b8ff" stroke="#63b8ff" points="1476.62,-313.44 1469.31,-321.11 1479.81,-319.67 1476.62,-313.44"/>
</a>
</g>
</g>
<!-- Node21 -->
<g id="Node000021" class="node">
<title>Node21</title>
<g id="a_Node000021"><a xlink:href="../../d1/dae/arkreactor_2Utils_2Utils_8cpp.html" target="_top" xlink:title=" ">
<polygon fill="white" stroke="#666666" points="1816.5,-280.62 1676,-280.62 1676,-238.88 1816.5,-238.88 1816.5,-280.62"/>
<text text-anchor="start" x="1684" y="-267.12" font-family="Helvetica,sans-Serif" font-size="10.00">/Users/fola/Documents</text>
<text text-anchor="start" x="1684" y="-255.88" font-family="Helvetica,sans-Serif" font-size="10.00">/ArkScript/Ark/src/arkreactor</text>
<text text-anchor="middle" x="1746.25" y="-244.62" font-family="Helvetica,sans-Serif" font-size="10.00">/Utils/Utils.cpp</text>
</a>
</g>
</g>
<!-- Node1&#45;&gt;Node21 -->
<g id="edge22_Node000001_Node000021" class="edge">
<title>Node1&#45;&gt;Node21</title>
<g id="a_edge22_Node000001_Node000021"><a xlink:title=" ">
<path fill="none" stroke="#63b8ff" d="M1498.37,-327.17C1545.97,-316.65 1610.2,-301.74 1666.25,-286.25 1672.15,-284.62 1678.27,-282.84 1684.37,-281"/>
<polygon fill="#63b8ff" stroke="#63b8ff" points="1497.75,-323.72 1488.74,-329.29 1499.25,-330.56 1497.75,-323.72"/>
</a>
</g>
</g>
<!-- Node22 -->
<g id="Node000022" class="node">
<title>Node22</title>
<g id="a_Node000022"><a xlink:href="../../d2/d27/VM_8cpp.html" target="_top" xlink:title=" ">
<polygon fill="white" stroke="#666666" points="1975.5,-280.62 1835,-280.62 1835,-238.88 1975.5,-238.88 1975.5,-280.62"/>
<text text-anchor="start" x="1843" y="-267.12" font-family="Helvetica,sans-Serif" font-size="10.00">/Users/fola/Documents</text>
<text text-anchor="start" x="1843" y="-255.88" font-family="Helvetica,sans-Serif" font-size="10.00">/ArkScript/Ark/src/arkreactor</text>
<text text-anchor="middle" x="1905.25" y="-244.62" font-family="Helvetica,sans-Serif" font-size="10.00">/VM/VM.cpp</text>
</a>
</g>
</g>
<!-- Node1&#45;&gt;Node22 -->
<g id="edge23_Node000001_Node000022" class="edge">
<title>Node1&#45;&gt;Node22</title>
<g id="a_edge23_Node000001_Node000022"><a xlink:title=" ">
<path fill="none" stroke="#63b8ff" d="M1498.72,-335.83C1578.6,-327.87 1712.38,-311.99 1825.25,-286.25 1831.79,-284.76 1838.56,-282.98 1845.27,-281.07"/>
<polygon fill="#63b8ff" stroke="#63b8ff" points="1498.45,-332.34 1488.84,-336.8 1499.14,-339.31 1498.45,-332.34"/>
</a>
</g>
</g>
<!-- Node23 -->
<g id="Node000023" class="node">
<title>Node23</title>
<g id="a_Node000023"><a xlink:href="../../d7/d46/Repl_8cpp.html" target="_top" xlink:title=" ">
<polygon fill="white" stroke="#666666" points="2128.5,-280.62 1994,-280.62 1994,-238.88 2128.5,-238.88 2128.5,-280.62"/>
<text text-anchor="start" x="2002" y="-267.12" font-family="Helvetica,sans-Serif" font-size="10.00">/Users/fola/Documents</text>
<text text-anchor="start" x="2002" y="-255.88" font-family="Helvetica,sans-Serif" font-size="10.00">/ArkScript/Ark/src/arkscript</text>
<text text-anchor="middle" x="2061.25" y="-244.62" font-family="Helvetica,sans-Serif" font-size="10.00">/REPL/Repl.cpp</text>
</a>
</g>
</g>
<!-- Node1&#45;&gt;Node23 -->
<g id="edge24_Node000001_Node000023" class="edge">
<title>Node1&#45;&gt;Node23</title>
<g id="a_edge24_Node000001_Node000023"><a xlink:title=" ">
<path fill="none" stroke="#63b8ff" d="M1498.54,-340C1604.79,-335.68 1812.14,-322.93 1984.25,-286.25 1990.86,-284.84 1997.7,-283.06 2004.45,-281.11"/>
<polygon fill="#63b8ff" stroke="#63b8ff" points="1498.71,-336.49 1488.85,-340.38 1498.98,-343.49 1498.71,-336.49"/>
</a>
</g>
</g>
<!-- Node3 -->
<g id="Node000003" class="node">
<title>Node3</title>
<g id="a_Node000003"><a xlink:href="../../d1/d95/arkemscripten_2main_8cpp.html" target="_top" xlink:title=" ">
<polygon fill="white" stroke="#666666" points="158.5,-41.75 0,-41.75 0,0 158.5,0 158.5,-41.75"/>
<text text-anchor="start" x="8" y="-28.25" font-family="Helvetica,sans-Serif" font-size="10.00">/Users/fola/Documents</text>
<text text-anchor="start" x="8" y="-17" font-family="Helvetica,sans-Serif" font-size="10.00">/ArkScript/Ark/src/arkemscripten</text>
<text text-anchor="middle" x="79.25" y="-5.75" font-family="Helvetica,sans-Serif" font-size="10.00">/main.cpp</text>
</a>
</g>
</g>
<!-- Node2&#45;&gt;Node3 -->
<g id="edge2_Node000002_Node000003" class="edge">
<title>Node2&#45;&gt;Node3</title>
<g id="a_edge2_Node000002_Node000003"><a xlink:title=" ">
<path fill="none" stroke="#63b8ff" d="M191.76,-72.61C169.91,-62.75 145.13,-51.58 124.4,-42.23"/>
<polygon fill="#63b8ff" stroke="#63b8ff" points="190.29,-75.78 200.85,-76.7 193.17,-69.4 190.29,-75.78"/>
</a>
</g>
</g>
<!-- Node4 -->
<g id="Node000004" class="node">
<title>Node4</title>
<g id="a_Node000004"><a xlink:href="../../dc/d32/Ark_8cpp.html" target="_top" xlink:title=" ">
<polygon fill="white" stroke="#666666" points="317.5,-41.75 177,-41.75 177,0 317.5,0 317.5,-41.75"/>
<text text-anchor="start" x="185" y="-28.25" font-family="Helvetica,sans-Serif" font-size="10.00">/Users/fola/Documents</text>
<text text-anchor="start" x="185" y="-17" font-family="Helvetica,sans-Serif" font-size="10.00">/ArkScript/Ark/src/arkreactor</text>
<text text-anchor="middle" x="247.25" y="-5.75" font-family="Helvetica,sans-Serif" font-size="10.00">/Ark.cpp</text>
</a>
</g>
</g>
<!-- Node2&#45;&gt;Node4 -->
<g id="edge3_Node000002_Node000004" class="edge">
<title>Node2&#45;&gt;Node4</title>
<g id="a_edge3_Node000002_Node000004"><a xlink:title=" ">
<path fill="none" stroke="#63b8ff" d="M247.25,-66C247.25,-57.96 247.25,-49.54 247.25,-42.23"/>
<polygon fill="#63b8ff" stroke="#63b8ff" points="243.75,-65.81 247.25,-75.81 250.75,-65.81 243.75,-65.81"/>
</a>
</g>
</g>
<!-- Node6 -->
<g id="Node000006" class="node">
<title>Node6</title>
<g id="a_Node000006"><a xlink:href="../../de/d8e/Welder_8hpp.html" target="_top" xlink:title="In charge of welding everything needed to compile code.">
<polygon fill="white" stroke="#666666" points="661.75,-197.25 534.75,-197.25 534.75,-155.5 661.75,-155.5 661.75,-197.25"/>
<text text-anchor="start" x="542.75" y="-183.75" font-family="Helvetica,sans-Serif" font-size="10.00">/Users/fola/Documents</text>
<text text-anchor="start" x="542.75" y="-172.5" font-family="Helvetica,sans-Serif" font-size="10.00">/ArkScript/Ark/include</text>
<text text-anchor="middle" x="598.25" y="-161.25" font-family="Helvetica,sans-Serif" font-size="10.00">/Ark/Compiler/Welder.hpp</text>
</a>
</g>
</g>
<!-- Node5&#45;&gt;Node6 -->
<g id="edge5_Node000005_Node000006" class="edge">
<title>Node5&#45;&gt;Node6</title>
<g id="a_edge5_Node000005_Node000006"><a xlink:title=" ">
<path fill="none" stroke="#63b8ff" d="M795.92,-235.24C753.37,-222.78 701.83,-207.69 662.05,-196.05"/>
<polygon fill="#63b8ff" stroke="#63b8ff" points="794.78,-238.55 805.36,-238 796.75,-231.83 794.78,-238.55"/>
</a>
</g>
</g>
<!-- Node13 -->
<g id="Node000013" class="node">
<title>Node13</title>
<g id="a_Node000013"><a xlink:href="../../d9/d2e/Formatter_8hpp.html" target="_top" xlink:title=" ">
<polygon fill="white" stroke="#666666" points="934.88,-197.25 817.62,-197.25 817.62,-155.5 934.88,-155.5 934.88,-197.25"/>
<text text-anchor="start" x="825.62" y="-183.75" font-family="Helvetica,sans-Serif" font-size="10.00">/Users/fola/Documents</text>
<text text-anchor="start" x="825.62" y="-172.5" font-family="Helvetica,sans-Serif" font-size="10.00">/ArkScript/Ark/include</text>
<text text-anchor="middle" x="876.25" y="-161.25" font-family="Helvetica,sans-Serif" font-size="10.00">/CLI/Formatter.hpp</text>
</a>
</g>
</g>
<!-- Node5&#45;&gt;Node13 -->
<g id="edge13_Node000005_Node000013" class="edge">
<title>Node5&#45;&gt;Node13</title>
<g id="a_edge13_Node000005_Node000013"><a xlink:title=" ">
<path fill="none" stroke="#63b8ff" d="M876.25,-227.39C876.25,-217.37 876.25,-206.55 876.25,-197.54"/>
<polygon fill="#63b8ff" stroke="#63b8ff" points="872.75,-227.12 876.25,-237.12 879.75,-227.12 872.75,-227.12"/>
</a>
</g>
</g>
<!-- Node15 -->
<g id="Node000015" class="node">
<title>Node15</title>
<g id="a_Node000015"><a xlink:href="../../dc/df5/Parser_8cpp.html" target="_top" xlink:title=" ">
<polygon fill="white" stroke="#666666" points="1093.5,-197.25 953,-197.25 953,-155.5 1093.5,-155.5 1093.5,-197.25"/>
<text text-anchor="start" x="961" y="-183.75" font-family="Helvetica,sans-Serif" font-size="10.00">/Users/fola/Documents</text>
<text text-anchor="start" x="961" y="-172.5" font-family="Helvetica,sans-Serif" font-size="10.00">/ArkScript/Ark/src/arkreactor</text>
<text text-anchor="middle" x="1023.25" y="-161.25" font-family="Helvetica,sans-Serif" font-size="10.00">/Compiler/AST/Parser.cpp</text>
</a>
</g>
</g>
<!-- Node5&#45;&gt;Node15 -->
<g id="edge16_Node000005_Node000015" class="edge">
<title>Node5&#45;&gt;Node15</title>
<g id="a_edge16_Node000005_Node000015"><a xlink:title=" ">
<path fill="none" stroke="#63b8ff" d="M922.77,-233C943.34,-221.61 967.19,-208.41 986.49,-197.72"/>
<polygon fill="#63b8ff" stroke="#63b8ff" points="921.34,-229.79 914.29,-237.69 924.73,-235.91 921.34,-229.79"/>
</a>
</g>
</g>
<!-- Node16 -->
<g id="Node000016" class="node">
<title>Node16</title>
<g id="a_Node000016"><a xlink:href="../../d6/d41/ImportSolver_8cpp.html" target="_top" xlink:title=" ">
<polygon fill="white" stroke="#666666" points="1287.12,-197.25 1111.38,-197.25 1111.38,-155.5 1287.12,-155.5 1287.12,-197.25"/>
<text text-anchor="start" x="1119.38" y="-183.75" font-family="Helvetica,sans-Serif" font-size="10.00">/Users/fola/Documents</text>
<text text-anchor="start" x="1119.38" y="-172.5" font-family="Helvetica,sans-Serif" font-size="10.00">/ArkScript/Ark/src/arkreactor</text>
<text text-anchor="middle" x="1199.25" y="-161.25" font-family="Helvetica,sans-Serif" font-size="10.00">/Compiler/Package/ImportSolver.cpp</text>
</a>
</g>
</g>
<!-- Node5&#45;&gt;Node16 -->
<g id="edge17_Node000005_Node000016" class="edge">
<title>Node5&#45;&gt;Node16</title>
<g id="a_edge17_Node000005_Node000016"><a xlink:title=" ">
<path fill="none" stroke="#63b8ff" d="M951.88,-235.27C954.37,-234.58 956.83,-233.9 959.25,-233.25 1009.23,-219.77 1065.58,-206.55 1111.11,-196.36"/>
<polygon fill="#63b8ff" stroke="#63b8ff" points="951.03,-231.88 942.37,-237.99 952.95,-238.61 951.03,-231.88"/>
</a>
</g>
</g>
<!-- Node6&#45;&gt;Node2 -->
<g id="edge6_Node000006_Node000002" class="edge">
<title>Node6&#45;&gt;Node2</title>
<g id="a_edge6_Node000006_Node000002"><a xlink:title=" ">
<path fill="none" stroke="#63b8ff" d="M523.25,-162.61C465.75,-152.34 384.58,-136.81 314.25,-119.5 311.66,-118.86 309.02,-118.19 306.35,-117.49"/>
<polygon fill="#63b8ff" stroke="#63b8ff" points="522.48,-166.03 532.94,-164.33 523.7,-159.13 522.48,-166.03"/>
</a>
</g>
</g>
<!-- Node7 -->
<g id="Node000007" class="node">
<title>Node7</title>
<g id="a_Node000007"><a xlink:href="../../dc/dfd/JsonCompiler_8hpp.html" target="_top" xlink:title=" ">
<polygon fill="white" stroke="#666666" points="440.88,-119.5 323.62,-119.5 323.62,-77.75 440.88,-77.75 440.88,-119.5"/>
<text text-anchor="start" x="331.62" y="-106" font-family="Helvetica,sans-Serif" font-size="10.00">/Users/fola/Documents</text>
<text text-anchor="start" x="331.62" y="-94.75" font-family="Helvetica,sans-Serif" font-size="10.00">/ArkScript/Ark/include</text>
<text text-anchor="middle" x="382.25" y="-83.5" font-family="Helvetica,sans-Serif" font-size="10.00">/CLI/JsonCompiler.hpp</text>
</a>
</g>
</g>
<!-- Node6&#45;&gt;Node7 -->
<g id="edge7_Node000006_Node000007" class="edge">
<title>Node6&#45;&gt;Node7</title>
<g id="a_edge7_Node000006_Node000007"><a xlink:title=" ">
<path fill="none" stroke="#63b8ff" d="M529.58,-151.29C500.84,-141.21 467.8,-129.63 440.29,-119.98"/>
<polygon fill="#63b8ff" stroke="#63b8ff" points="528.34,-154.57 538.94,-154.57 530.66,-147.96 528.34,-154.57"/>
</a>
</g>
</g>
<!-- Node10 -->
<g id="Node000010" class="node">
<title>Node10</title>
<g id="a_Node000010"><a xlink:href="../../d3/df1/Welder_8cpp.html" target="_top" xlink:title=" ">
<polygon fill="white" stroke="#666666" points="599.5,-119.5 459,-119.5 459,-77.75 599.5,-77.75 599.5,-119.5"/>
<text text-anchor="start" x="467" y="-106" font-family="Helvetica,sans-Serif" font-size="10.00">/Users/fola/Documents</text>
<text text-anchor="start" x="467" y="-94.75" font-family="Helvetica,sans-Serif" font-size="10.00">/ArkScript/Ark/src/arkreactor</text>
<text text-anchor="middle" x="529.25" y="-83.5" font-family="Helvetica,sans-Serif" font-size="10.00">/Compiler/Welder.cpp</text>
</a>
</g>
</g>
<!-- Node6&#45;&gt;Node10 -->
<g id="edge10_Node000006_Node000010" class="edge">
<title>Node6&#45;&gt;Node10</title>
<g id="a_edge10_Node000006_Node000010"><a xlink:title=" ">
<path fill="none" stroke="#63b8ff" d="M572.23,-146.81C564.1,-137.89 555.3,-128.22 547.79,-119.98"/>
<polygon fill="#63b8ff" stroke="#63b8ff" points="569.42,-148.92 578.74,-153.96 574.59,-144.21 569.42,-148.92"/>
</a>
</g>
</g>
<!-- Node11 -->
<g id="Node000011" class="node">
<title>Node11</title>
<g id="a_Node000011"><a xlink:href="../../d0/da0/State_8cpp.html" target="_top" xlink:title=" ">
<polygon fill="white" stroke="#666666" points="758.5,-119.5 618,-119.5 618,-77.75 758.5,-77.75 758.5,-119.5"/>
<text text-anchor="start" x="626" y="-106" font-family="Helvetica,sans-Serif" font-size="10.00">/Users/fola/Documents</text>
<text text-anchor="start" x="626" y="-94.75" font-family="Helvetica,sans-Serif" font-size="10.00">/ArkScript/Ark/src/arkreactor</text>
<text text-anchor="middle" x="688.25" y="-83.5" font-family="Helvetica,sans-Serif" font-size="10.00">/State.cpp</text>
</a>
</g>
</g>
<!-- Node6&#45;&gt;Node11 -->
<g id="edge11_Node000006_Node000011" class="edge">
<title>Node6&#45;&gt;Node11</title>
<g id="a_edge11_Node000006_Node000011"><a xlink:title=" ">
<path fill="none" stroke="#63b8ff" d="M630.88,-147.91C641.84,-138.69 653.87,-128.56 664.07,-119.98"/>
<polygon fill="#63b8ff" stroke="#63b8ff" points="628.92,-144.98 623.53,-154.1 633.43,-150.34 628.92,-144.98"/>
</a>
</g>
</g>
<!-- Node12 -->
<g id="Node000012" class="node">
<title>Node12</title>
<g id="a_Node000012"><a xlink:href="../../db/d7b/Debugger_8cpp.html" target="_top" xlink:title=" ">
<polygon fill="white" stroke="#666666" points="917.5,-119.5 777,-119.5 777,-77.75 917.5,-77.75 917.5,-119.5"/>
<text text-anchor="start" x="785" y="-106" font-family="Helvetica,sans-Serif" font-size="10.00">/Users/fola/Documents</text>
<text text-anchor="start" x="785" y="-94.75" font-family="Helvetica,sans-Serif" font-size="10.00">/ArkScript/Ark/src/arkreactor</text>
<text text-anchor="middle" x="847.25" y="-83.5" font-family="Helvetica,sans-Serif" font-size="10.00">/VM/Debugger.cpp</text>
</a>
</g>
</g>
<!-- Node6&#45;&gt;Node12 -->
<g id="edge12_Node000006_Node000012" class="edge">
<title>Node6&#45;&gt;Node12</title>
<g id="a_edge12_Node000006_Node000012"><a xlink:title=" ">
<path fill="none" stroke="#63b8ff" d="M672.93,-152.66C707.15,-142.25 747.38,-130.01 780.57,-119.91"/>
<polygon fill="#63b8ff" stroke="#63b8ff" points="672.05,-149.27 663.5,-155.53 674.08,-155.96 672.05,-149.27"/>
</a>
</g>
</g>
<!-- Node8 -->
<g id="Node000008" class="node">
<title>Node8</title>
<g id="a_Node000008"><a xlink:href="../../db/d71/JsonCompiler_8cpp.html" target="_top" xlink:title=" ">
<polygon fill="white" stroke="#666666" points="470.5,-41.75 336,-41.75 336,0 470.5,0 470.5,-41.75"/>
<text text-anchor="start" x="344" y="-28.25" font-family="Helvetica,sans-Serif" font-size="10.00">/Users/fola/Documents</text>
<text text-anchor="start" x="344" y="-17" font-family="Helvetica,sans-Serif" font-size="10.00">/ArkScript/Ark/src/arkscript</text>
<text text-anchor="middle" x="403.25" y="-5.75" font-family="Helvetica,sans-Serif" font-size="10.00">/JsonCompiler.cpp</text>
</a>
</g>
</g>
<!-- Node7&#45;&gt;Node8 -->
<g id="edge8_Node000007_Node000008" class="edge">
<title>Node7&#45;&gt;Node8</title>
<g id="a_edge8_Node000007_Node000008"><a xlink:title=" ">
<path fill="none" stroke="#63b8ff" d="M390.94,-66.28C393.19,-58.16 395.56,-49.62 397.61,-42.23"/>
<polygon fill="#63b8ff" stroke="#63b8ff" points="387.58,-65.3 388.28,-75.87 394.33,-67.17 387.58,-65.3"/>
</a>
</g>
</g>
<!-- Node9 -->
<g id="Node000009" class="node">
<title>Node9</title>
<g id="a_Node000009"><a xlink:href="../../d0/d46/arkscript_2main_8cpp.html" target="_top" xlink:title=" ">
<polygon fill="white" stroke="#666666" points="817.5,-41.75 683,-41.75 683,0 817.5,0 817.5,-41.75"/>
<text text-anchor="start" x="691" y="-28.25" font-family="Helvetica,sans-Serif" font-size="10.00">/Users/fola/Documents</text>
<text text-anchor="start" x="691" y="-17" font-family="Helvetica,sans-Serif" font-size="10.00">/ArkScript/Ark/src/arkscript</text>
<text text-anchor="middle" x="750.25" y="-5.75" font-family="Helvetica,sans-Serif" font-size="10.00">/main.cpp</text>
</a>
</g>
</g>
<!-- Node7&#45;&gt;Node9 -->
<g id="edge9_Node000007_Node000009" class="edge">
<title>Node7&#45;&gt;Node9</title>
<g id="a_edge9_Node000007_Node000009"><a xlink:title=" ">
<path fill="none" stroke="#63b8ff" d="M452.26,-77.39C537.03,-57.51 624.02,-42.12 682.52,-32.5"/>
<polygon fill="#63b8ff" stroke="#63b8ff" points="451.52,-73.96 442.6,-79.68 453.14,-80.77 451.52,-73.96"/>
</a>
</g>
</g>
<!-- Node13&#45;&gt;Node9 -->
<g id="edge15_Node000013_Node000009" class="edge">
<title>Node13&#45;&gt;Node9</title>
<g id="a_edge15_Node000013_Node000009"><a xlink:title=" ">
<path fill="none" stroke="#63b8ff" d="M907.1,-147.04C925.36,-126.78 942.09,-99.4 926.25,-77.75 901.55,-43.99 856.29,-30.13 817.86,-24.65"/>
<polygon fill="#63b8ff" stroke="#63b8ff" points="904.69,-144.5 900.32,-154.15 909.75,-149.33 904.69,-144.5"/>
</a>
</g>
</g>
<!-- Node14 -->
<g id="Node000014" class="node">
<title>Node14</title>
<g id="a_Node000014"><a xlink:href="../../d2/d56/Formatter_8cpp.html" target="_top" xlink:title=" ">
<polygon fill="white" stroke="#666666" points="1107.5,-119.5 973,-119.5 973,-77.75 1107.5,-77.75 1107.5,-119.5"/>
<text text-anchor="start" x="981" y="-106" font-family="Helvetica,sans-Serif" font-size="10.00">/Users/fola/Documents</text>
<text text-anchor="start" x="981" y="-94.75" font-family="Helvetica,sans-Serif" font-size="10.00">/ArkScript/Ark/src/arkscript</text>
<text text-anchor="middle" x="1040.25" y="-83.5" font-family="Helvetica,sans-Serif" font-size="10.00">/Formatter.cpp</text>
</a>
</g>
</g>
<!-- Node13&#45;&gt;Node14 -->
<g id="edge14_Node000013_Node000014" class="edge">
<title>Node13&#45;&gt;Node14</title>
<g id="a_edge14_Node000013_Node000014"><a xlink:title=" ">
<path fill="none" stroke="#63b8ff" d="M930.41,-150.36C951.75,-140.5 975.94,-129.33 996.18,-119.98"/>
<polygon fill="#63b8ff" stroke="#63b8ff" points="929.18,-147.07 921.57,-154.44 932.12,-153.42 929.18,-147.07"/>
</a>
</g>
</g>
</g>
</svg>
