<?xml version="1.0" encoding="UTF-8" standalone="no"?>
<!DOCTYPE svg PUBLIC "-//W3C//DTD SVG 1.1//EN"
 "http://www.w3.org/Graphics/SVG/1.1/DTD/svg11.dtd">
<!-- Generated by graphviz version 12.2.0 (20241103.1931)
 -->
<!-- Title: Ark::internal::LocalsLocator Pages: 1 -->
<svg width="463pt" height="405pt"
 viewBox="0.00 0.00 463.12 404.75" xmlns="http://www.w3.org/2000/svg" xmlns:xlink="http://www.w3.org/1999/xlink">
<g id="graph0" class="graph" transform="scale(1 1) rotate(0) translate(4 400.75)">
<title>Ark::internal::LocalsLocator</title>
<!-- Node1 -->
<g id="Node000001" class="node">
<title>Node1</title>
<g id="a_Node000001"><a xlink:title=" ">
<polygon fill="#999999" stroke="#666666" points="332.62,-19.25 197.38,-19.25 197.38,0 332.62,0 332.62,-19.25"/>
<text text-anchor="middle" x="265" y="-5.75" font-family="Helvetica,sans-Serif" font-size="10.00">Ark::internal::LocalsLocator</text>
</a>
</g>
</g>
<!-- Node2 -->
<g id="Node000002" class="node">
<title>Node2</title>
<g id="a_Node000002"><a xlink:title=" ">
<polygon fill="white" stroke="#666666" points="255.75,-97 130.25,-97 130.25,-66.5 255.75,-66.5 255.75,-97"/>
<text text-anchor="start" x="138.25" y="-83.5" font-family="Helvetica,sans-Serif" font-size="10.00">std::vector&lt; Ark::internal</text>
<text text-anchor="middle" x="193" y="-72.25" font-family="Helvetica,sans-Serif" font-size="10.00">::LocalsLocator::Scope &gt;</text>
</a>
</g>
</g>
<!-- Node2&#45;&gt;Node1 -->
<g id="edge1_Node000001_Node000002" class="edge">
<title>Node2&#45;&gt;Node1</title>
<g id="a_edge1_Node000001_Node000002"><a xlink:title=" ">
<path fill="none" stroke="#9a32cd" stroke-dasharray="5,2" d="M215.93,-58.41C229.54,-45.16 246.03,-29.1 256.01,-19.38"/>
<polygon fill="#9a32cd" stroke="#9a32cd" points="213.72,-55.68 209,-65.16 218.61,-60.69 213.72,-55.68"/>
</a>
</g>
<text text-anchor="middle" x="261.57" y="-39" font-family="Helvetica,sans-Serif" font-size="10.00" fill="grey"> m_scopes</text>
</g>
<!-- Node3 -->
<g id="Node000003" class="node">
<title>Node3</title>
<g id="a_Node000003"><a xlink:href="../../da/dde/structArk_1_1internal_1_1LocalsLocator_1_1Scope.html" target="_top" xlink:title=" ">
<polygon fill="white" stroke="#666666" points="164.62,-174.75 29.38,-174.75 29.38,-144.25 164.62,-144.25 164.62,-174.75"/>
<text text-anchor="start" x="37.38" y="-161.25" font-family="Helvetica,sans-Serif" font-size="10.00">Ark::internal::LocalsLocator</text>
<text text-anchor="middle" x="97" y="-150" font-family="Helvetica,sans-Serif" font-size="10.00">::Scope</text>
</a>
</g>
</g>
<!-- Node3&#45;&gt;Node2 -->
<g id="edge2_Node000002_Node000003" class="edge">
<title>Node3&#45;&gt;Node2</title>
<g id="a_edge2_Node000002_Node000003"><a xlink:title=" ">
<path fill="none" stroke="#9a32cd" stroke-dasharray="5,2" d="M115.26,-135.53C121.49,-128.48 128.78,-121 136.25,-115 144.38,-108.47 153.99,-102.47 162.98,-97.46"/>
<polygon fill="#9a32cd" stroke="#9a32cd" points="112.78,-133.05 108.98,-142.94 118.12,-137.57 112.78,-133.05"/>
</a>
</g>
<text text-anchor="middle" x="157.62" y="-116.75" font-family="Helvetica,sans-Serif" font-size="10.00" fill="grey"> elements</text>
</g>
<!-- Node4 -->
<g id="Node000004" class="node">
<title>Node4</title>
<g id="a_Node000004"><a xlink:title=" ">
<polygon fill="white" stroke="#666666" points="159,-252.5 35,-252.5 35,-233.25 159,-233.25 159,-252.5"/>
<text text-anchor="middle" x="97" y="-239" font-family="Helvetica,sans-Serif" font-size="10.00">std::vector&lt; std::string &gt;</text>
</a>
</g>
</g>
<!-- Node4&#45;&gt;Node3 -->
<g id="edge3_Node000003_Node000004" class="edge">
<title>Node4&#45;&gt;Node3</title>
<g id="a_edge3_Node000003_Node000004"><a xlink:title=" ">
<path fill="none" stroke="#9a32cd" stroke-dasharray="5,2" d="M97,-221.61C97,-207.14 97,-188.02 97,-175.04"/>
<polygon fill="#9a32cd" stroke="#9a32cd" points="93.5,-221.34 97,-231.34 100.5,-221.34 93.5,-221.34"/>
</a>
</g>
<text text-anchor="middle" x="107.88" y="-200.12" font-family="Helvetica,sans-Serif" font-size="10.00" fill="grey"> data</text>
</g>
<!-- Node5 -->
<g id="Node000005" class="node">
<title>Node5</title>
<g id="a_Node000005"><a xlink:title=" ">
<polygon fill="white" stroke="#666666" points="76.75,-319 17.25,-319 17.25,-299.75 76.75,-299.75 76.75,-319"/>
<text text-anchor="middle" x="47" y="-305.5" font-family="Helvetica,sans-Serif" font-size="10.00">std::string</text>
</a>
</g>
</g>
<!-- Node5&#45;&gt;Node4 -->
<g id="edge4_Node000004_Node000005" class="edge">
<title>Node5&#45;&gt;Node4</title>
<g id="a_edge4_Node000004_Node000005"><a xlink:title=" ">
<path fill="none" stroke="#9a32cd" stroke-dasharray="5,2" d="M43.97,-288.13C44.01,-282.08 45.05,-275.69 48.25,-270.5 53.05,-262.7 61.01,-257.02 69.11,-252.97"/>
<polygon fill="#9a32cd" stroke="#9a32cd" points="40.48,-288.38 44.83,-298.04 47.46,-287.78 40.48,-288.38"/>
</a>
</g>
<text text-anchor="middle" x="69.62" y="-272.25" font-family="Helvetica,sans-Serif" font-size="10.00" fill="grey"> elements</text>
</g>
<!-- Node6 -->
<g id="Node000006" class="node">
<title>Node6</title>
<g id="a_Node000006"><a xlink:title=" ">
<polygon fill="white" stroke="#666666" points="94,-396.75 0,-396.75 0,-366.25 94,-366.25 94,-396.75"/>
<text text-anchor="start" x="8" y="-383.25" font-family="Helvetica,sans-Serif" font-size="10.00">std::basic_string&lt;</text>
<text text-anchor="middle" x="47" y="-372" font-family="Helvetica,sans-Serif" font-size="10.00"> Char &gt;</text>
</a>
</g>
</g>
<!-- Node6&#45;&gt;Node5 -->
<g id="edge5_Node000005_Node000006" class="edge">
<title>Node6&#45;&gt;Node5</title>
<g id="a_edge5_Node000005_Node000006"><a xlink:title=" ">
<path fill="none" stroke="#63b8ff" d="M47,-354.73C47,-342.23 47,-328.02 47,-319.13"/>
<polygon fill="#63b8ff" stroke="#63b8ff" points="43.5,-354.46 47,-364.46 50.5,-354.46 43.5,-354.46"/>
</a>
</g>
</g>
<!-- Node7 -->
<g id="Node000007" class="node">
<title>Node7</title>
<g id="a_Node000007"><a xlink:title=" ">
<polygon fill="white" stroke="#666666" points="236.25,-319 149.75,-319 149.75,-299.75 236.25,-299.75 236.25,-319"/>
<text text-anchor="middle" x="193" y="-305.5" font-family="Helvetica,sans-Serif" font-size="10.00">std::vector&lt; T &gt;</text>
</a>
</g>
</g>
<!-- Node7&#45;&gt;Node2 -->
<g id="edge8_Node000002_Node000007" class="edge">
<title>Node7&#45;&gt;Node2</title>
<g id="a_edge8_Node000002_Node000007"><a xlink:title=" ">
<path fill="none" stroke="orange" stroke-dasharray="5,2" d="M192.02,-288.1C191.16,-269.24 189.97,-240.35 189.5,-215.25 188.7,-172.46 190.91,-121.9 192.18,-97.45"/>
<polygon fill="orange" stroke="orange" points="188.51,-288.05 192.48,-297.88 195.5,-287.72 188.51,-288.05"/>
</a>
</g>
<text text-anchor="start" x="189.5" y="-205.75" font-family="Helvetica,sans-Serif" font-size="10.00" fill="grey"> &lt; Ark::internal::LocalsLocator</text>
<text text-anchor="middle" x="254.75" y="-194.5" font-family="Helvetica,sans-Serif" font-size="10.00" fill="grey">::Scope &gt;</text>
</g>
<!-- Node7&#45;&gt;Node4 -->
<g id="edge6_Node000004_Node000007" class="edge">
<title>Node7&#45;&gt;Node4</title>
<g id="a_edge6_Node000004_Node000007"><a xlink:title=" ">
<path fill="none" stroke="orange" stroke-dasharray="5,2" d="M138.6,-296.42C129.86,-292.76 121.42,-287.98 114.5,-281.75 105.99,-274.1 101.32,-261.46 98.99,-252.91"/>
<polygon fill="orange" stroke="orange" points="137.33,-299.68 147.92,-299.84 139.74,-293.11 137.33,-299.68"/>
</a>
</g>
<text text-anchor="middle" x="146.75" y="-272.25" font-family="Helvetica,sans-Serif" font-size="10.00" fill="grey"> &lt; std::string &gt;</text>
</g>
<!-- Node9 -->
<g id="Node000009" class="node">
<title>Node9</title>
<g id="a_Node000009"><a xlink:title=" ">
<polygon fill="white" stroke="#666666" points="455.12,-213.62 328.88,-213.62 328.88,-194.38 455.12,-194.38 455.12,-213.62"/>
<text text-anchor="middle" x="392" y="-200.12" font-family="Helvetica,sans-Serif" font-size="10.00">std::vector&lt; std::size_t &gt;</text>
</a>
</g>
</g>
<!-- Node7&#45;&gt;Node9 -->
<g id="edge10_Node000009_Node000007" class="edge">
<title>Node7&#45;&gt;Node9</title>
<g id="a_edge10_Node000009_Node000007"><a xlink:title=" ">
<path fill="none" stroke="orange" stroke-dasharray="5,2" d="M220.29,-294.2C261.86,-272.6 339.88,-232.07 374.59,-214.05"/>
<polygon fill="orange" stroke="orange" points="218.92,-290.97 211.65,-298.68 222.14,-297.18 218.92,-290.97"/>
</a>
</g>
<text text-anchor="middle" x="296.42" y="-272.25" font-family="Helvetica,sans-Serif" font-size="10.00" fill="grey"> &lt; std::size_t &gt;</text>
</g>
<!-- Node8 -->
<g id="Node000008" class="node">
<title>Node8</title>
<g id="a_Node000008"><a xlink:title=" ">
<polygon fill="white" stroke="#666666" points="207.4,-391.12 178.6,-391.12 178.6,-371.88 207.4,-371.88 207.4,-391.12"/>
<text text-anchor="middle" x="193" y="-377.62" font-family="Helvetica,sans-Serif" font-size="10.00">T</text>
</a>
</g>
</g>
<!-- Node8&#45;&gt;Node7 -->
<g id="edge7_Node000007_Node000008" class="edge">
<title>Node8&#45;&gt;Node7</title>
<g id="a_edge7_Node000007_Node000008"><a xlink:title=" ">
<path fill="none" stroke="#9a32cd" stroke-dasharray="5,2" d="M193,-360.12C193,-346.64 193,-329.64 193,-319.41"/>
<polygon fill="#9a32cd" stroke="#9a32cd" points="189.5,-360.11 193,-370.11 196.5,-360.11 189.5,-360.11"/>
</a>
</g>
<text text-anchor="middle" x="214.38" y="-338.75" font-family="Helvetica,sans-Serif" font-size="10.00" fill="grey"> elements</text>
</g>
<!-- Node9&#45;&gt;Node1 -->
<g id="edge9_Node000001_Node000009" class="edge">
<title>Node9&#45;&gt;Node1</title>
<g id="a_edge9_Node000001_Node000009"><a xlink:title=" ">
<path fill="none" stroke="#9a32cd" stroke-dasharray="5,2" d="M381.89,-183.87C364.78,-152.15 328.2,-87.21 290,-37.25 285.22,-31 279.21,-24.56 274.28,-19.58"/>
<polygon fill="#9a32cd" stroke="#9a32cd" points="378.77,-185.46 386.57,-192.63 384.95,-182.16 378.77,-185.46"/>
</a>
</g>
<text text-anchor="middle" x="390.23" y="-116.75" font-family="Helvetica,sans-Serif" font-size="10.00" fill="grey"> m_drop_for_conds</text>
</g>
</g>
</svg>
