<?xml version="1.0" encoding="UTF-8" standalone="no"?>
<!DOCTYPE svg PUBLIC "-//W3C//DTD SVG 1.1//EN"
 "http://www.w3.org/Graphics/SVG/1.1/DTD/svg11.dtd">
<!-- Generated by graphviz version 12.2.0 (20241103.1931)
 -->
<!-- Title: /Users/fola/Documents/ArkScript/Ark/include/Ark/Compiler/NameResolution/ScopeResolver.hpp Pages: 1 -->
<svg width="536pt" height="183pt"
 viewBox="0.00 0.00 535.50 182.75" xmlns="http://www.w3.org/2000/svg" xmlns:xlink="http://www.w3.org/1999/xlink">
<g id="graph0" class="graph" transform="scale(1 1) rotate(0) translate(4 178.75)">
<title>/Users/fola/Documents/ArkScript/Ark/include/Ark/Compiler/NameResolution/ScopeResolver.hpp</title>
<!-- Node1 -->
<g id="Node000001" class="node">
<title>Node1</title>
<g id="a_Node000001"><a xlink:title="Handle scope resolution at compile time.">
<polygon fill="#999999" stroke="#666666" points="247.88,-174.75 96.12,-174.75 96.12,-121.75 247.88,-121.75 247.88,-174.75"/>
<text text-anchor="start" x="104.12" y="-161.25" font-family="Helvetica,sans-Serif" font-size="10.00">/Users/fola/Documents</text>
<text text-anchor="start" x="104.12" y="-150" font-family="Helvetica,sans-Serif" font-size="10.00">/ArkScript/Ark/include</text>
<text text-anchor="start" x="104.12" y="-138.75" font-family="Helvetica,sans-Serif" font-size="10.00">/Ark/Compiler/NameResolution</text>
<text text-anchor="middle" x="172" y="-127.5" font-family="Helvetica,sans-Serif" font-size="10.00">/ScopeResolver.hpp</text>
</a>
</g>
</g>
<!-- Node2 -->
<g id="Node000002" class="node">
<title>Node2</title>
<g id="a_Node000002"><a xlink:title=" ">
<polygon fill="#e0e0e0" stroke="#999999" points="40,-19.25 0,-19.25 0,0 40,0 40,-19.25"/>
<text text-anchor="middle" x="20" y="-5.75" font-family="Helvetica,sans-Serif" font-size="10.00">string</text>
</a>
</g>
</g>
<!-- Node1&#45;&gt;Node2 -->
<g id="edge1_Node000001_Node000002" class="edge">
<title>Node1&#45;&gt;Node2</title>
<g id="a_edge1_Node000001_Node000002"><a xlink:title=" ">
<path fill="none" stroke="#63b8ff" d="M143.41,-121.55C112.62,-93.88 64.55,-50.66 38.42,-27.18"/>
<polygon fill="#63b8ff" stroke="#63b8ff" points="40.76,-24.58 30.98,-20.49 36.08,-29.78 40.76,-24.58"/>
</a>
</g>
</g>
<!-- Node3 -->
<g id="Node000003" class="node">
<title>Node3</title>
<g id="a_Node000003"><a xlink:title=" ">
<polygon fill="#e0e0e0" stroke="#999999" points="107.88,-19.25 58.12,-19.25 58.12,0 107.88,0 107.88,-19.25"/>
<text text-anchor="middle" x="83" y="-5.75" font-family="Helvetica,sans-Serif" font-size="10.00">optional</text>
</a>
</g>
</g>
<!-- Node1&#45;&gt;Node3 -->
<g id="edge2_Node000001_Node000003" class="edge">
<title>Node1&#45;&gt;Node3</title>
<g id="a_edge2_Node000001_Node000003"><a xlink:title=" ">
<path fill="none" stroke="#63b8ff" d="M155.26,-121.55C137.71,-94.6 110.56,-52.93 95.02,-29.07"/>
<polygon fill="#63b8ff" stroke="#63b8ff" points="97.99,-27.22 89.6,-20.75 92.12,-31.04 97.99,-27.22"/>
</a>
</g>
</g>
<!-- Node4 -->
<g id="Node000004" class="node">
<title>Node4</title>
<g id="a_Node000004"><a xlink:title=" ">
<polygon fill="#e0e0e0" stroke="#999999" points="177.62,-19.25 126.38,-19.25 126.38,0 177.62,0 177.62,-19.25"/>
<text text-anchor="middle" x="152" y="-5.75" font-family="Helvetica,sans-Serif" font-size="10.00">memory</text>
</a>
</g>
</g>
<!-- Node1&#45;&gt;Node4 -->
<g id="edge3_Node000001_Node000004" class="edge">
<title>Node1&#45;&gt;Node4</title>
<g id="a_edge3_Node000001_Node000004"><a xlink:title=" ">
<path fill="none" stroke="#63b8ff" d="M155.04,-121.41C149.04,-110.82 143.03,-98.14 140,-85.75 135.44,-67.12 139.92,-45.46 144.64,-30.2"/>
<polygon fill="#63b8ff" stroke="#63b8ff" points="147.88,-31.53 147.82,-20.94 141.26,-29.26 147.88,-31.53"/>
</a>
</g>
</g>
<!-- Node5 -->
<g id="Node000005" class="node">
<title>Node5</title>
<g id="a_Node000005"><a xlink:title=" ">
<polygon fill="#e0e0e0" stroke="#999999" points="527.5,-19.25 484.5,-19.25 484.5,0 527.5,0 527.5,-19.25"/>
<text text-anchor="middle" x="506" y="-5.75" font-family="Helvetica,sans-Serif" font-size="10.00">vector</text>
</a>
</g>
</g>
<!-- Node1&#45;&gt;Node5 -->
<g id="edge4_Node000001_Node000005" class="edge">
<title>Node1&#45;&gt;Node5</title>
<g id="a_edge4_Node000001_Node000005"><a xlink:title=" ">
<path fill="none" stroke="#63b8ff" d="M237.05,-121.25C259.52,-111.28 284.44,-99.07 306,-85.75 324.42,-74.37 324.71,-65.1 344,-55.25 394.73,-29.34 414.54,-34.6 473.3,-19.6"/>
<polygon fill="#63b8ff" stroke="#63b8ff" points="474.1,-23.01 482.86,-17.05 472.3,-16.24 474.1,-23.01"/>
</a>
</g>
</g>
<!-- Node6 -->
<g id="Node000006" class="node">
<title>Node6</title>
<g id="a_Node000006"><a xlink:title=" ">
<polygon fill="#e0e0e0" stroke="#999999" points="392.62,-80.12 353.38,-80.12 353.38,-60.88 392.62,-60.88 392.62,-80.12"/>
<text text-anchor="middle" x="373" y="-66.62" font-family="Helvetica,sans-Serif" font-size="10.00">utility</text>
</a>
</g>
</g>
<!-- Node1&#45;&gt;Node6 -->
<g id="edge5_Node000001_Node000006" class="edge">
<title>Node1&#45;&gt;Node6</title>
<g id="a_edge5_Node000001_Node000006"><a xlink:title=" ">
<path fill="none" stroke="#63b8ff" d="M244.6,-121.3C274.01,-110.58 308.24,-97.85 339,-85.75 340.13,-85.3 341.28,-84.85 342.44,-84.38"/>
<polygon fill="#63b8ff" stroke="#63b8ff" points="343.6,-87.69 351.52,-80.66 340.94,-81.21 343.6,-87.69"/>
</a>
</g>
</g>
<!-- Node7 -->
<g id="Node000007" class="node">
<title>Node7</title>
<g id="a_Node000007"><a xlink:href="../../df/db8/StaticScope_8hpp.html" target="_top" xlink:title="Static scopes (for functions, loops) and namespace scopes (for packages) definitions,...">
<polygon fill="white" stroke="#666666" points="297.38,-85.75 148.62,-85.75 148.62,-55.25 297.38,-55.25 297.38,-85.75"/>
<text text-anchor="start" x="156.62" y="-72.25" font-family="Helvetica,sans-Serif" font-size="10.00">Ark/Compiler/NameResolution</text>
<text text-anchor="middle" x="223" y="-61" font-family="Helvetica,sans-Serif" font-size="10.00">/StaticScope.hpp</text>
</a>
</g>
</g>
<!-- Node1&#45;&gt;Node7 -->
<g id="edge6_Node000001_Node000007" class="edge">
<title>Node1&#45;&gt;Node7</title>
<g id="a_edge6_Node000001_Node000007"><a xlink:title=" ">
<path fill="none" stroke="#63b8ff" d="M189.27,-121.6C194.94,-113.18 201.22,-103.86 206.8,-95.56"/>
<polygon fill="#63b8ff" stroke="#63b8ff" points="209.66,-97.58 212.34,-87.33 203.86,-93.67 209.66,-97.58"/>
</a>
</g>
</g>
<!-- Node7&#45;&gt;Node2 -->
<g id="edge7_Node000007_Node000002" class="edge">
<title>Node7&#45;&gt;Node2</title>
<g id="a_edge7_Node000007_Node000002"><a xlink:title=" ">
<path fill="none" stroke="#63b8ff" d="M171.58,-54.77C139.43,-45.53 96.88,-33.25 51.04,-19.83"/>
<polygon fill="#63b8ff" stroke="#63b8ff" points="52.31,-16.56 41.73,-17.1 50.34,-23.27 52.31,-16.56"/>
</a>
</g>
</g>
<!-- Node7&#45;&gt;Node3 -->
<g id="edge8_Node000007_Node000003" class="edge">
<title>Node7&#45;&gt;Node3</title>
<g id="a_edge8_Node000007_Node000003"><a xlink:title=" ">
<path fill="none" stroke="#63b8ff" d="M188.03,-54.8C165.59,-45.35 136.66,-33.19 114.85,-24.02"/>
<polygon fill="#63b8ff" stroke="#63b8ff" points="116.44,-20.89 105.87,-20.24 113.73,-27.34 116.44,-20.89"/>
</a>
</g>
</g>
<!-- Node7&#45;&gt;Node4 -->
<g id="edge9_Node000007_Node000004" class="edge">
<title>Node7&#45;&gt;Node4</title>
<g id="a_edge9_Node000007_Node000004"><a xlink:title=" ">
<path fill="none" stroke="#63b8ff" d="M205.45,-54.95C195.16,-46.41 182.14,-35.62 171.52,-26.81"/>
<polygon fill="#63b8ff" stroke="#63b8ff" points="174.04,-24.36 164.11,-20.67 169.57,-29.74 174.04,-24.36"/>
</a>
</g>
</g>
<!-- Node7&#45;&gt;Node5 -->
<g id="edge10_Node000007_Node000005" class="edge">
<title>Node7&#45;&gt;Node5</title>
<g id="a_edge10_Node000007_Node000005"><a xlink:title=" ">
<path fill="none" stroke="#63b8ff" d="M297.75,-56.11C345.3,-47.24 408.41,-34.82 472.84,-19.62"/>
<polygon fill="#63b8ff" stroke="#63b8ff" points="473.65,-23.03 482.56,-17.3 472.03,-16.22 473.65,-23.03"/>
</a>
</g>
</g>
<!-- Node8 -->
<g id="Node000008" class="node">
<title>Node8</title>
<g id="a_Node000008"><a xlink:title=" ">
<polygon fill="#e0e0e0" stroke="#999999" points="240.62,-19.25 195.38,-19.25 195.38,0 240.62,0 240.62,-19.25"/>
<text text-anchor="middle" x="218" y="-5.75" font-family="Helvetica,sans-Serif" font-size="10.00">ranges</text>
</a>
</g>
</g>
<!-- Node7&#45;&gt;Node8 -->
<g id="edge11_Node000007_Node000008" class="edge">
<title>Node7&#45;&gt;Node8</title>
<g id="a_edge11_Node000007_Node000008"><a xlink:title=" ">
<path fill="none" stroke="#63b8ff" d="M221.76,-54.95C221.15,-47.71 220.4,-38.84 219.73,-30.94"/>
<polygon fill="#63b8ff" stroke="#63b8ff" points="223.23,-30.88 218.9,-21.21 216.26,-31.47 223.23,-30.88"/>
</a>
</g>
</g>
<!-- Node9 -->
<g id="Node000009" class="node">
<title>Node9</title>
<g id="a_Node000009"><a xlink:title=" ">
<polygon fill="#e0e0e0" stroke="#999999" points="335.75,-19.25 258.25,-19.25 258.25,0 335.75,0 335.75,-19.25"/>
<text text-anchor="middle" x="297" y="-5.75" font-family="Helvetica,sans-Serif" font-size="10.00">unordered_set</text>
</a>
</g>
</g>
<!-- Node7&#45;&gt;Node9 -->
<g id="edge12_Node000007_Node000009" class="edge">
<title>Node7&#45;&gt;Node9</title>
<g id="a_edge12_Node000007_Node000009"><a xlink:title=" ">
<path fill="none" stroke="#63b8ff" d="M241.29,-54.95C252.02,-46.41 265.59,-35.62 276.65,-26.81"/>
<polygon fill="#63b8ff" stroke="#63b8ff" points="278.76,-29.61 284.41,-20.64 274.4,-24.13 278.76,-29.61"/>
</a>
</g>
</g>
<!-- Node10 -->
<g id="Node000010" class="node">
<title>Node10</title>
<g id="a_Node000010"><a xlink:href="../../d5/d40/Platform_8hpp.html" target="_top" xlink:title="ArkScript configuration macros.">
<polygon fill="white" stroke="#666666" points="466.38,-19.25 353.62,-19.25 353.62,0 466.38,0 466.38,-19.25"/>
<text text-anchor="middle" x="410" y="-5.75" font-family="Helvetica,sans-Serif" font-size="10.00">Ark/Utils/Platform.hpp</text>
</a>
</g>
</g>
<!-- Node7&#45;&gt;Node10 -->
<g id="edge13_Node000007_Node000010" class="edge">
<title>Node7&#45;&gt;Node10</title>
<g id="a_edge13_Node000007_Node000010"><a xlink:title=" ">
<path fill="none" stroke="#63b8ff" d="M269.71,-54.8C300.69,-45.04 340.91,-32.38 370.34,-23.11"/>
<polygon fill="#63b8ff" stroke="#63b8ff" points="371.12,-26.54 379.6,-20.2 369.01,-19.86 371.12,-26.54"/>
</a>
</g>
</g>
</g>
</svg>
