<?xml version="1.0" encoding="UTF-8" standalone="no"?>
<!DOCTYPE svg PUBLIC "-//W3C//DTD SVG 1.1//EN"
 "http://www.w3.org/Graphics/SVG/1.1/DTD/svg11.dtd">
<!-- Generated by graphviz version 12.2.0 (20241103.1931)
 -->
<!-- Title: Ark::internal::IRCompiler Pages: 1 -->
<!--zoomable 340 -->

<svg id="main" version="1.1" xmlns="http://www.w3.org/2000/svg" xmlns:xlink="http://www.w3.org/1999/xlink" xml:space="preserve" onload="init(evt)">

<style type="text/css"><![CDATA[
.node, .edge {opacity: 0.7;}
.node.selected, .edge.selected {opacity: 1;}
.edge:hover path { stroke: red; }
.edge:hover polygon { stroke: red; fill: red; }
]]></style>

<defs>
  <circle id="rim" cx="0" cy="0" r="7"/>
  <circle id="rim2" cx="0" cy="0" r="3.5"/>
  <g id="zoomPlus">
    <use xlink:href="#rim" fill="#404040"><set attributeName="fill" to="#808080" begin="zoomplus.mouseover" end="zoomplus.mouseout"/></use>
    <path d="M-4,0h8M0,-4v8" fill="none" stroke="white" stroke-width="1.5" pointer-events="none"/>
  </g>
  <g id="zoomMin">
    <use xlink:href="#rim" fill="#404040"><set attributeName="fill" to="#808080" begin="zoomminus.mouseover" end="zoomminus.mouseout"/></use>
    <path d="M-4,0h8" fill="none" stroke="white" stroke-width="1.5" pointer-events="none"/>
  </g>
  <g id="arrowUp" transform="translate(30 24)">
    <use xlink:href="#rim"/>
    <path pointer-events="none" fill="none" stroke="white" stroke-width="1.5" d="M0,-3.0v7 M-2.5,-0.5L0,-3.0L2.5,-0.5"/>
  </g>
  <g id="arrowRight" transform="rotate(90) translate(36 -43)">
    <use xlink:href="#rim"/>
    <path pointer-events="none" fill="none" stroke="white" stroke-width="1.5" d="M0,-3.0v7 M-2.5,-0.5L0,-3.0L2.5,-0.5"/>
  </g>
  <g id="arrowDown" transform="rotate(180) translate(-30 -48)">
    <use xlink:href="#rim"/>
    <path pointer-events="none" fill="none" stroke="white" stroke-width="1.5" d="M0,-3.0v7 M-2.5,-0.5L0,-3.0L2.5,-0.5"/>
  </g>
  <g id="arrowLeft" transform="rotate(270) translate(-36 17)">
    <use xlink:href="#rim"/>
    <path pointer-events="none" fill="none" stroke="white" stroke-width="1.5" d="M0,-3.0v7 M-2.5,-0.5L0,-3.0L2.5,-0.5"/>
  </g>
  <g id="resetDef">
    <use xlink:href="#rim2" fill="#404040"><set attributeName="fill" to="#808080" begin="reset.mouseover" end="reset.mouseout"/></use>
  </g>
</defs>
<script type="application/ecmascript">
var viewWidth = 1307;
var viewHeight = 340;
var sectionId = 'dynsection-1';
</script>
<script type="application/ecmascript" xlink:href="../../svg.min.js"/>
<svg id="graph" class="graph">
<g id="viewport">
<title>Ark::internal::IRCompiler</title>
<!-- Node1 -->
<g id="Node000001" class="node">
<title>Node1</title>
<g id="a_Node000001"><a xlink:title=" ">
<polygon fill="#999999" stroke="#666666" points="1299.25,-222.88 1175.25,-222.88 1175.25,-203.62 1299.25,-203.62 1299.25,-222.88"/>
<text text-anchor="middle" x="1237.25" y="-209.38" font-family="Helvetica,sans-Serif" font-size="10.00">Ark::internal::IRCompiler</text>
</a>
</g>
</g>
<!-- Node2 -->
<g id="Node000002" class="node">
<title>Node2</title>
<g id="a_Node000002"><a xlink:href="../../da/d7b/classArk_1_1internal_1_1Pass.html" target="_top" xlink:title="An interface to describe compiler passes.">
<polygon fill="white" stroke="#666666" points="1138.25,-160.88 1041.25,-160.88 1041.25,-141.62 1138.25,-141.62 1138.25,-160.88"/>
<text text-anchor="middle" x="1089.75" y="-147.38" font-family="Helvetica,sans-Serif" font-size="10.00">Ark::internal::Pass</text>
</a>
</g>
</g>
<!-- Node2&#45;&gt;Node1 -->
<g id="edge1_Node000001_Node000002" class="edge">
<title>Node2&#45;&gt;Node1</title>
<g id="a_edge1_Node000001_Node000002"><a xlink:title=" ">
<path fill="none" stroke="#63b8ff" d="M1124.97,-165.83C1151.92,-177.31 1188.78,-193.02 1212.56,-203.15"/>
<polygon fill="#63b8ff" stroke="#63b8ff" points="1126.41,-162.64 1115.84,-161.94 1123.67,-169.08 1126.41,-162.64"/>
</a>
</g>
</g>
<!-- Node3 -->
<g id="Node000003" class="node">
<title>Node3</title>
<g id="a_Node000003"><a xlink:href="../../d6/d2f/classArk_1_1internal_1_1Logger.html" target="_top" xlink:title=" ">
<polygon fill="white" stroke="#666666" points="946.75,-137.88 843,-137.88 843,-118.62 946.75,-118.62 946.75,-137.88"/>
<text text-anchor="middle" x="894.88" y="-124.38" font-family="Helvetica,sans-Serif" font-size="10.00">Ark::internal::Logger</text>
</a>
</g>
</g>
<!-- Node3&#45;&gt;Node2 -->
<g id="edge2_Node000002_Node000003" class="edge">
<title>Node3&#45;&gt;Node2</title>
<g id="a_edge2_Node000002_Node000003"><a xlink:title=" ">
<path fill="none" stroke="#9a32cd" stroke-dasharray="5,2" d="M958.28,-135.69C985.13,-138.89 1016,-142.58 1040.98,-145.55"/>
<polygon fill="#9a32cd" stroke="#9a32cd" points="958.9,-132.24 948.56,-134.53 958.07,-139.19 958.9,-132.24"/>
</a>
</g>
<text text-anchor="middle" x="994" y="-144.9" font-family="Helvetica,sans-Serif" font-size="10.00" fill="grey"> m_logger</text>
</g>
<!-- Node4 -->
<g id="Node000004" class="node">
<title>Node4</title>
<g id="a_Node000004"><a xlink:title=" ">
<polygon fill="white" stroke="#666666" points="386.88,-103.88 327.38,-103.88 327.38,-84.62 386.88,-84.62 386.88,-103.88"/>
<text text-anchor="middle" x="357.12" y="-90.38" font-family="Helvetica,sans-Serif" font-size="10.00">std::string</text>
</a>
</g>
</g>
<!-- Node4&#45;&gt;Node3 -->
<g id="edge3_Node000003_Node000004" class="edge">
<title>Node4&#45;&gt;Node3</title>
<g id="a_edge3_Node000003_Node000004"><a xlink:title=" ">
<path fill="none" stroke="#9a32cd" stroke-dasharray="5,2" d="M398.39,-86.99C407.53,-85.56 417.2,-84.2 426.25,-83.25 546.08,-70.66 577.78,-60.4 697.25,-76 758.37,-83.98 827.52,-105.36 865.36,-118.16"/>
<polygon fill="#9a32cd" stroke="#9a32cd" points="398,-83.51 388.7,-88.58 399.13,-90.42 398,-83.51"/>
</a>
</g>
<text text-anchor="middle" x="635.25" y="-77.75" font-family="Helvetica,sans-Serif" font-size="10.00" fill="grey"> m_name</text>
</g>
<!-- Node6 -->
<g id="Node000006" class="node">
<title>Node6</title>
<g id="a_Node000006"><a xlink:title=" ">
<polygon fill="white" stroke="#666666" points="696.5,-160.38 574,-160.38 574,-96.12 696.5,-96.12 696.5,-160.38"/>
<text text-anchor="start" x="582" y="-146.88" font-family="Helvetica,sans-Serif" font-size="10.00">std::unordered_map</text>
<text text-anchor="start" x="582" y="-135.62" font-family="Helvetica,sans-Serif" font-size="10.00">&lt; std::string, std::</text>
<text text-anchor="start" x="582" y="-124.38" font-family="Helvetica,sans-Serif" font-size="10.00">chrono::time_point&lt; std</text>
<text text-anchor="start" x="582" y="-113.12" font-family="Helvetica,sans-Serif" font-size="10.00">::chrono::high_resolution</text>
<text text-anchor="middle" x="635.25" y="-101.88" font-family="Helvetica,sans-Serif" font-size="10.00">_clock &gt; &gt;</text>
</a>
</g>
</g>
<!-- Node4&#45;&gt;Node6 -->
<g id="edge6_Node000006_Node000004" class="edge">
<title>Node4&#45;&gt;Node6</title>
<g id="a_edge6_Node000006_Node000004"><a xlink:title=" ">
<path fill="none" stroke="#9a32cd" stroke-dasharray="5,2" d="M398.67,-89.81C438.85,-86.47 501.95,-84.14 555.25,-95 561.37,-96.25 567.61,-97.98 573.77,-100.01"/>
<polygon fill="#9a32cd" stroke="#9a32cd" points="398.37,-86.32 388.72,-90.7 399,-93.29 398.37,-86.32"/>
</a>
</g>
<text text-anchor="middle" x="490.75" y="-96.75" font-family="Helvetica,sans-Serif" font-size="10.00" fill="grey"> keys</text>
</g>
<!-- Node10 -->
<g id="Node000010" class="node">
<title>Node10</title>
<g id="a_Node000010"><a xlink:title=" ">
<polygon fill="white" stroke="#666666" points="697.25,-200.88 573.25,-200.88 573.25,-181.62 697.25,-181.62 697.25,-200.88"/>
<text text-anchor="middle" x="635.25" y="-187.38" font-family="Helvetica,sans-Serif" font-size="10.00">std::vector&lt; std::string &gt;</text>
</a>
</g>
</g>
<!-- Node4&#45;&gt;Node10 -->
<g id="edge11_Node000010_Node000004" class="edge">
<title>Node4&#45;&gt;Node10</title>
<g id="a_edge11_Node000010_Node000004"><a xlink:title=" ">
<path fill="none" stroke="#9a32cd" stroke-dasharray="5,2" d="M398.48,-101.46C407.61,-103.06 417.26,-104.73 426.25,-106.25 483.51,-115.9 509.51,-91.22 555.25,-127 571.33,-139.57 558.41,-155.23 573.25,-169.25 578.57,-174.28 585.12,-178.17 591.93,-181.18"/>
<polygon fill="#9a32cd" stroke="#9a32cd" points="399.23,-98.04 388.77,-99.75 398.01,-104.93 399.23,-98.04"/>
</a>
</g>
<text text-anchor="middle" x="490.75" y="-128.75" font-family="Helvetica,sans-Serif" font-size="10.00" fill="grey"> elements</text>
</g>
<!-- Node5 -->
<g id="Node000005" class="node">
<title>Node5</title>
<g id="a_Node000005"><a xlink:title=" ">
<polygon fill="white" stroke="#666666" points="216.38,-109.5 122.38,-109.5 122.38,-79 216.38,-79 216.38,-109.5"/>
<text text-anchor="start" x="130.38" y="-96" font-family="Helvetica,sans-Serif" font-size="10.00">std::basic_string&lt;</text>
<text text-anchor="middle" x="169.38" y="-84.75" font-family="Helvetica,sans-Serif" font-size="10.00"> Char &gt;</text>
</a>
</g>
</g>
<!-- Node5&#45;&gt;Node4 -->
<g id="edge4_Node000004_Node000005" class="edge">
<title>Node5&#45;&gt;Node4</title>
<g id="a_edge4_Node000004_Node000005"><a xlink:title=" ">
<path fill="none" stroke="#63b8ff" d="M228.07,-94.25C260.93,-94.25 300.68,-94.25 327.09,-94.25"/>
<polygon fill="#63b8ff" stroke="#63b8ff" points="228.28,-90.75 218.28,-94.25 228.28,-97.75 228.28,-90.75"/>
</a>
</g>
</g>
<!-- Node6&#45;&gt;Node3 -->
<g id="edge5_Node000003_Node000006" class="edge">
<title>Node6&#45;&gt;Node3</title>
<g id="a_edge5_Node000003_Node000006"><a xlink:title=" ">
<path fill="none" stroke="#9a32cd" stroke-dasharray="5,2" d="M708.45,-128.25C751.17,-128.25 804.26,-128.25 842.67,-128.25"/>
<polygon fill="#9a32cd" stroke="#9a32cd" points="708.49,-124.75 698.49,-128.25 708.49,-131.75 708.49,-124.75"/>
</a>
</g>
<text text-anchor="middle" x="770.12" y="-130" font-family="Helvetica,sans-Serif" font-size="10.00" fill="grey"> m_trace_starts</text>
</g>
<!-- Node7 -->
<g id="Node000007" class="node">
<title>Node7</title>
<g id="a_Node000007"><a xlink:title=" ">
<polygon fill="white" stroke="#666666" points="408.25,-185.5 306,-185.5 306,-155 408.25,-155 408.25,-185.5"/>
<text text-anchor="start" x="314" y="-172" font-family="Helvetica,sans-Serif" font-size="10.00">std::unordered_map</text>
<text text-anchor="middle" x="357.12" y="-160.75" font-family="Helvetica,sans-Serif" font-size="10.00">&lt; K, T &gt;</text>
</a>
</g>
</g>
<!-- Node7&#45;&gt;Node6 -->
<g id="edge7_Node000006_Node000007" class="edge">
<title>Node7&#45;&gt;Node6</title>
<g id="a_edge7_Node000006_Node000007"><a xlink:title=" ">
<path fill="none" stroke="orange" stroke-dasharray="5,2" d="M419.75,-160.88C465.65,-153.89 528.02,-144.41 573.68,-137.46"/>
<polygon fill="orange" stroke="orange" points="419.31,-157.4 409.95,-162.37 420.36,-164.32 419.31,-157.4"/>
</a>
</g>
<text text-anchor="start" x="426.25" y="-194.49" font-family="Helvetica,sans-Serif" font-size="10.00" fill="grey"> &lt; std::string, std</text>
<text text-anchor="start" x="426.25" y="-183.24" font-family="Helvetica,sans-Serif" font-size="10.00" fill="grey">::chrono::time_point</text>
<text text-anchor="start" x="426.25" y="-171.99" font-family="Helvetica,sans-Serif" font-size="10.00" fill="grey">&lt; std::chrono::high_resolution</text>
<text text-anchor="middle" x="490.75" y="-160.74" font-family="Helvetica,sans-Serif" font-size="10.00" fill="grey">_clock &gt; &gt;</text>
</g>
<!-- Node8 -->
<g id="Node000008" class="node">
<title>Node8</title>
<g id="a_Node000008"><a xlink:title=" ">
<polygon fill="white" stroke="#666666" points="183.78,-179.88 154.97,-179.88 154.97,-160.62 183.78,-160.62 183.78,-179.88"/>
<text text-anchor="middle" x="169.38" y="-166.38" font-family="Helvetica,sans-Serif" font-size="10.00">K</text>
</a>
</g>
</g>
<!-- Node8&#45;&gt;Node7 -->
<g id="edge8_Node000007_Node000008" class="edge">
<title>Node8&#45;&gt;Node7</title>
<g id="a_edge8_Node000007_Node000008"><a xlink:title=" ">
<path fill="none" stroke="#9a32cd" stroke-dasharray="5,2" d="M195.22,-170.25C223.36,-170.25 269.96,-170.25 305.79,-170.25"/>
<polygon fill="#9a32cd" stroke="#9a32cd" points="195.55,-166.75 185.55,-170.25 195.55,-173.75 195.55,-166.75"/>
</a>
</g>
<text text-anchor="middle" x="266.62" y="-172" font-family="Helvetica,sans-Serif" font-size="10.00" fill="grey"> keys</text>
</g>
<!-- Node9 -->
<g id="Node000009" class="node">
<title>Node9</title>
<g id="a_Node000009"><a xlink:title=" ">
<polygon fill="white" stroke="#666666" points="183.78,-240.88 154.97,-240.88 154.97,-221.62 183.78,-221.62 183.78,-240.88"/>
<text text-anchor="middle" x="169.38" y="-227.38" font-family="Helvetica,sans-Serif" font-size="10.00">T</text>
</a>
</g>
</g>
<!-- Node9&#45;&gt;Node7 -->
<g id="edge9_Node000007_Node000009" class="edge">
<title>Node9&#45;&gt;Node7</title>
<g id="a_edge9_Node000007_Node000009"><a xlink:title=" ">
<path fill="none" stroke="#9a32cd" stroke-dasharray="5,2" d="M194.7,-223.26C223.42,-213.83 271.88,-197.92 308.23,-185.98"/>
<polygon fill="#9a32cd" stroke="#9a32cd" points="193.88,-219.85 185.47,-226.29 196.06,-226.5 193.88,-219.85"/>
</a>
</g>
<text text-anchor="middle" x="266.62" y="-207.96" font-family="Helvetica,sans-Serif" font-size="10.00" fill="grey"> elements</text>
</g>
<!-- Node11 -->
<g id="Node000011" class="node">
<title>Node11</title>
<g id="a_Node000011"><a xlink:title=" ">
<polygon fill="white" stroke="#666666" points="400.38,-273.88 313.88,-273.88 313.88,-254.62 400.38,-254.62 400.38,-273.88"/>
<text text-anchor="middle" x="357.12" y="-260.38" font-family="Helvetica,sans-Serif" font-size="10.00">std::vector&lt; T &gt;</text>
</a>
</g>
</g>
<!-- Node9&#45;&gt;Node11 -->
<g id="edge13_Node000011_Node000009" class="edge">
<title>Node9&#45;&gt;Node11</title>
<g id="a_edge13_Node000011_Node000009"><a xlink:title=" ">
<path fill="none" stroke="#9a32cd" stroke-dasharray="5,2" d="M195.24,-235.67C225.53,-241.05 277.16,-250.22 313.76,-256.72"/>
<polygon fill="#9a32cd" stroke="#9a32cd" points="195.98,-232.24 185.52,-233.94 194.76,-239.14 195.98,-232.24"/>
</a>
</g>
<text text-anchor="middle" x="266.62" y="-253.43" font-family="Helvetica,sans-Serif" font-size="10.00" fill="grey"> elements</text>
</g>
<!-- Node10&#45;&gt;Node1 -->
<g id="edge23_Node000001_Node000010" class="edge">
<title>Node10&#45;&gt;Node1</title>
<g id="a_edge23_Node000001_Node000010"><a xlink:title=" ">
<path fill="none" stroke="#9a32cd" stroke-dasharray="5,2" d="M708.81,-193.91C828.09,-198.28 1063.47,-206.91 1174.95,-211"/>
<polygon fill="#9a32cd" stroke="#9a32cd" points="709.27,-190.43 699.15,-193.56 709.02,-197.42 709.27,-190.43"/>
</a>
</g>
<text text-anchor="middle" x="994" y="-207.13" font-family="Helvetica,sans-Serif" font-size="10.00" fill="grey"> m_filenames</text>
</g>
<!-- Node10&#45;&gt;Node3 -->
<g id="edge10_Node000003_Node000010" class="edge">
<title>Node10&#45;&gt;Node3</title>
<g id="a_edge10_Node000003_Node000010"><a xlink:title=" ">
<path fill="none" stroke="#9a32cd" stroke-dasharray="5,2" d="M681.16,-178.18C692.27,-175.06 704.17,-171.82 715.25,-169 740.06,-162.68 804.32,-148.19 848.59,-138.31"/>
<polygon fill="#9a32cd" stroke="#9a32cd" points="680.49,-174.73 671.82,-180.82 682.4,-181.47 680.49,-174.73"/>
</a>
</g>
<text text-anchor="middle" x="770.12" y="-170.75" font-family="Helvetica,sans-Serif" font-size="10.00" fill="grey"> m_active_traces</text>
</g>
<!-- Node11&#45;&gt;Node10 -->
<g id="edge12_Node000010_Node000011" class="edge">
<title>Node11&#45;&gt;Node10</title>
<g id="a_edge12_Node000010_Node000011"><a xlink:title=" ">
<path fill="none" stroke="orange" stroke-dasharray="5,2" d="M385.19,-248.87C397.4,-242.51 412.21,-235.56 426.25,-231 481.62,-213 498.12,-219.43 555.25,-208.25 566.13,-206.12 577.81,-203.69 588.77,-201.34"/>
<polygon fill="orange" stroke="orange" points="383.69,-245.71 376.54,-253.53 387,-251.87 383.69,-245.71"/>
</a>
</g>
<text text-anchor="middle" x="490.75" y="-232.75" font-family="Helvetica,sans-Serif" font-size="10.00" fill="grey"> &lt; std::string &gt;</text>
</g>
<!-- Node16 -->
<g id="Node000016" class="node">
<title>Node16</title>
<g id="a_Node000016"><a xlink:title=" ">
<polygon fill="white" stroke="#666666" points="825,-267.88 715.25,-267.88 715.25,-248.62 825,-248.62 825,-267.88"/>
<text text-anchor="middle" x="770.12" y="-254.38" font-family="Helvetica,sans-Serif" font-size="10.00">std::vector&lt; uint8_t &gt;</text>
</a>
</g>
</g>
<!-- Node11&#45;&gt;Node16 -->
<g id="edge19_Node000016_Node000011" class="edge">
<title>Node11&#45;&gt;Node16</title>
<g id="a_edge19_Node000016_Node000011"><a xlink:title=" ">
<path fill="none" stroke="orange" stroke-dasharray="5,2" d="M411.91,-263.24C416.76,-263.16 421.59,-263.07 426.25,-263 528.19,-261.36 647.18,-259.79 714.79,-258.93"/>
<polygon fill="orange" stroke="orange" points="412.09,-259.74 402.16,-263.41 412.22,-266.74 412.09,-259.74"/>
</a>
</g>
<text text-anchor="middle" x="490.75" y="-264.75" font-family="Helvetica,sans-Serif" font-size="10.00" fill="grey"> &lt; uint8_t &gt;</text>
</g>
<!-- Node17 -->
<g id="Node000017" class="node">
<title>Node17</title>
<g id="a_Node000017"><a xlink:title=" ">
<polygon fill="white" stroke="#666666" points="696.12,-311.88 574.38,-311.88 574.38,-292.62 696.12,-292.62 696.12,-311.88"/>
<text text-anchor="middle" x="635.25" y="-298.38" font-family="Helvetica,sans-Serif" font-size="10.00">std::vector&lt; IR::Block &gt;</text>
</a>
</g>
</g>
<!-- Node11&#45;&gt;Node17 -->
<g id="edge21_Node000017_Node000011" class="edge">
<title>Node11&#45;&gt;Node17</title>
<g id="a_edge21_Node000017_Node000011"><a xlink:title=" ">
<path fill="none" stroke="#9a32cd" stroke-dasharray="5,2" d="M377,-281.54C389.84,-292.09 407.8,-304.6 426.25,-310.25 480.5,-326.85 546.44,-320.08 589.33,-312.36"/>
<polygon fill="#9a32cd" stroke="#9a32cd" points="379.62,-279.19 369.76,-275.32 375.06,-284.49 379.62,-279.19"/>
</a>
</g>
<text text-anchor="middle" x="490.75" y="-322.26" font-family="Helvetica,sans-Serif" font-size="10.00" fill="grey"> elements</text>
</g>
<!-- Node11&#45;&gt;Node17 -->
<g id="edge22_Node000017_Node000011" class="edge">
<title>Node11&#45;&gt;Node17</title>
<g id="a_edge22_Node000017_Node000011"><a xlink:title=" ">
<path fill="none" stroke="orange" stroke-dasharray="5,2" d="M411.87,-273.97C416.72,-274.78 421.57,-275.55 426.25,-276.25 475.91,-283.72 532.47,-290.69 574.07,-295.53"/>
<polygon fill="orange" stroke="orange" points="412.53,-270.54 402.08,-272.32 411.36,-277.44 412.53,-270.54"/>
</a>
</g>
<text text-anchor="middle" x="490.75" y="-295.02" font-family="Helvetica,sans-Serif" font-size="10.00" fill="grey"> &lt; IR::Block &gt;</text>
</g>
<!-- Node12 -->
<g id="Node000012" class="node">
<title>Node12</title>
<g id="a_Node000012"><a xlink:title=" ">
<polygon fill="white" stroke="#666666" points="670.62,-24.88 599.88,-24.88 599.88,-5.63 670.62,-5.63 670.62,-24.88"/>
<text text-anchor="middle" x="635.25" y="-11.38" font-family="Helvetica,sans-Serif" font-size="10.00">std::ostream</text>
</a>
</g>
</g>
<!-- Node12&#45;&gt;Node3 -->
<g id="edge14_Node000003_Node000012" class="edge">
<title>Node12&#45;&gt;Node3</title>
<g id="a_edge14_Node000003_Node000012"><a xlink:title=" ">
<path fill="none" stroke="#9a32cd" stroke-dasharray="5,2" d="M682.14,-10.46C722.42,-8.44 781.24,-10.98 825,-36 858.83,-55.35 881.09,-98.75 889.77,-118.33"/>
<polygon fill="#9a32cd" stroke="#9a32cd" points="682.06,-6.96 672.29,-11.08 682.49,-13.94 682.06,-6.96"/>
</a>
</g>
<text text-anchor="middle" x="770.12" y="-37.75" font-family="Helvetica,sans-Serif" font-size="10.00" fill="grey"> m_stream</text>
</g>
<!-- Node13 -->
<g id="Node000013" class="node">
<title>Node13</title>
<g id="a_Node000013"><a xlink:title=" ">
<polygon fill="white" stroke="#666666" points="406.75,-30.5 307.5,-30.5 307.5,0 406.75,0 406.75,-30.5"/>
<text text-anchor="start" x="315.5" y="-17" font-family="Helvetica,sans-Serif" font-size="10.00">std::basic_ostream</text>
<text text-anchor="middle" x="357.12" y="-5.75" font-family="Helvetica,sans-Serif" font-size="10.00">&lt; Char &gt;</text>
</a>
</g>
</g>
<!-- Node13&#45;&gt;Node12 -->
<g id="edge15_Node000012_Node000013" class="edge">
<title>Node13&#45;&gt;Node12</title>
<g id="a_edge15_Node000012_Node000013"><a xlink:title=" ">
<path fill="none" stroke="#63b8ff" d="M418.61,-15.25C474.09,-15.25 554.3,-15.25 599.63,-15.25"/>
<polygon fill="#63b8ff" stroke="#63b8ff" points="418.69,-11.75 408.69,-15.25 418.69,-18.75 418.69,-11.75"/>
</a>
</g>
</g>
<!-- Node14 -->
<g id="Node000014" class="node">
<title>Node14</title>
<g id="a_Node000014"><a xlink:title=" ">
<polygon fill="white" stroke="#666666" points="227.25,-24.88 111.5,-24.88 111.5,-5.63 227.25,-5.63 227.25,-24.88"/>
<text text-anchor="middle" x="169.38" y="-11.38" font-family="Helvetica,sans-Serif" font-size="10.00">std::basic_ios&lt; Char &gt;</text>
</a>
</g>
</g>
<!-- Node14&#45;&gt;Node13 -->
<g id="edge16_Node000013_Node000014" class="edge">
<title>Node14&#45;&gt;Node13</title>
<g id="a_edge16_Node000013_Node000014"><a xlink:title=" ">
<path fill="none" stroke="#63b8ff" d="M238.9,-15.25C261.57,-15.25 286.32,-15.25 307.21,-15.25"/>
<polygon fill="#63b8ff" stroke="#63b8ff" points="239.14,-11.75 229.14,-15.25 239.14,-18.75 239.14,-11.75"/>
</a>
</g>
</g>
<!-- Node15 -->
<g id="Node000015" class="node">
<title>Node15</title>
<g id="a_Node000015"><a xlink:title=" ">
<polygon fill="white" stroke="#666666" points="74.5,-24.88 0,-24.88 0,-5.63 74.5,-5.63 74.5,-24.88"/>
<text text-anchor="middle" x="37.25" y="-11.38" font-family="Helvetica,sans-Serif" font-size="10.00">std::ios_base</text>
</a>
</g>
</g>
<!-- Node15&#45;&gt;Node14 -->
<g id="edge17_Node000014_Node000015" class="edge">
<title>Node15&#45;&gt;Node14</title>
<g id="a_edge17_Node000014_Node000015"><a xlink:title=" ">
<path fill="none" stroke="#63b8ff" d="M86.34,-15.25C94.41,-15.25 102.86,-15.25 111.13,-15.25"/>
<polygon fill="#63b8ff" stroke="#63b8ff" points="86.36,-11.75 76.36,-15.25 86.36,-18.75 86.36,-11.75"/>
</a>
</g>
</g>
<!-- Node16&#45;&gt;Node1 -->
<g id="edge18_Node000001_Node000016" class="edge">
<title>Node16&#45;&gt;Node1</title>
<g id="a_edge18_Node000001_Node000016"><a xlink:title=" ">
<path fill="none" stroke="#9a32cd" stroke-dasharray="5,2" d="M836.81,-251.9C926.83,-243.19 1087.32,-227.66 1174.97,-219.18"/>
<polygon fill="#9a32cd" stroke="#9a32cd" points="836.51,-248.41 826.9,-252.85 837.19,-255.37 836.51,-248.41"/>
</a>
</g>
<text text-anchor="middle" x="994" y="-241.17" font-family="Helvetica,sans-Serif" font-size="10.00" fill="grey"> m_bytecode</text>
</g>
<!-- Node17&#45;&gt;Node1 -->
<g id="edge20_Node000001_Node000017" class="edge">
<title>Node17&#45;&gt;Node1</title>
<g id="a_edge20_Node000001_Node000017"><a xlink:title=" ">
<path fill="none" stroke="#9a32cd" stroke-dasharray="5,2" d="M707.46,-297.15C805.27,-289.33 986.36,-271.98 1138.25,-241.25 1161.14,-236.62 1186.48,-229.32 1205.66,-223.33"/>
<polygon fill="#9a32cd" stroke="#9a32cd" points="707.44,-293.64 697.75,-297.91 707.99,-300.62 707.44,-293.64"/>
</a>
</g>
<text text-anchor="middle" x="994" y="-270.97" font-family="Helvetica,sans-Serif" font-size="10.00" fill="grey"> m_ir</text>
</g>
</g>
</svg>

<g id="navigator" transform="translate(0 0)" fill="#404254">
  <rect fill="#f2f5e9" fill-opacity="0.5" stroke="#606060" stroke-width=".5" x="0" y="0" width="60" height="60"/>
  <use id="zoomplus" xlink:href="#zoomPlus" x="17" y="9" onmousedown="handleZoom(evt,'in')"/>
  <use id="zoomminus" xlink:href="#zoomMin" x="42" y="9" onmousedown="handleZoom(evt,'out')"/>
  <use id="reset" xlink:href="#resetDef" x="30" y="36" onmousedown="handleReset()"/>
   <use id="arrowup" xlink:href="#arrowUp" x="0" y="0" onmousedown="handlePan(0,-1)"/>
  <use id="arrowright" xlink:href="#arrowRight" x="0" y="0" onmousedown="handlePan(1,0)"/>
  <use id="arrowdown" xlink:href="#arrowDown" x="0" y="0" onmousedown="handlePan(0,1)"/>
  <use id="arrowleft" xlink:href="#arrowLeft" x="0" y="0" onmousedown="handlePan(-1,0)"/>
</g>
<svg viewBox="0 0 15 15" width="100%" height="30px" preserveAspectRatio="xMaxYMin meet">
 <g id="arrow_out" transform="scale(0.3 0.3)">
  <a xlink:href="classArk_1_1internal_1_1IRCompiler__coll__graph_org.svg" target="_base">
   <rect id="button" ry="5" rx="5" y="6" x="6" height="38" width="38"
        fill="#f2f5e9" fill-opacity="0.5" stroke="#606060" stroke-width="1.0"/>
   <path id="arrow"
     d="M 11.500037,31.436501 C 11.940474,20.09759 22.043105,11.32322 32.158766,21.979434 L 37.068811,17.246167 C 37.068811,17.246167 37.088388,32 37.088388,32 L 22.160133,31.978069 C 22.160133,31.978069 26.997745,27.140456 26.997745,27.140456 C 18.528582,18.264221 13.291696,25.230495 11.500037,31.436501 z"
     style="fill:#404040;"/>
  </a>
 </g>
</svg>

<style type='text/css'>
<![CDATA[
[data-mouse-over-selected='false'] { opacity: 0.7; }
[data-mouse-over-selected='true']  { opacity: 1.0; }
]]>
</style>
<script type="application/ecmascript"><![CDATA[
document.addEventListener('DOMContentLoaded', (event) => {
  highlightEdges();
  highlightAdjacentNodes();
});
]]></script>
</svg>
