<?xml version="1.0" encoding="UTF-8" standalone="no"?>
<!DOCTYPE svg PUBLIC "-//W3C//DTD SVG 1.1//EN"
 "http://www.w3.org/Graphics/SVG/1.1/DTD/svg11.dtd">
<!-- Generated by graphviz version 12.2.0 (20241103.1931)
 -->
<!-- Title: Ark::internal::Parser Pages: 1 -->
<svg width="1483pt" height="685pt"
 viewBox="0.00 0.00 1483.25 684.88" xmlns="http://www.w3.org/2000/svg" xmlns:xlink="http://www.w3.org/1999/xlink">
<g id="graph0" class="graph" transform="scale(1 1) rotate(0) translate(4 680.88)">
<title>Ark::internal::Parser</title>
<!-- Node1 -->
<g id="Node000001" class="node">
<title>Node1</title>
<g id="a_Node000001"><a xlink:title=" ">
<polygon fill="#999999" stroke="#666666" points="1475.25,-355.25 1372.25,-355.25 1372.25,-336 1475.25,-336 1475.25,-355.25"/>
<text text-anchor="middle" x="1423.75" y="-341.75" font-family="Helvetica,sans-Serif" font-size="10.00">Ark::internal::Parser</text>
</a>
</g>
</g>
<!-- Node2 -->
<g id="Node000002" class="node">
<title>Node2</title>
<g id="a_Node000002"><a xlink:href="../../d8/d00/classArk_1_1internal_1_1BaseParser.html" target="_top" xlink:title=" ">
<polygon fill="white" stroke="#666666" points="1287.5,-172.25 1162,-172.25 1162,-153 1287.5,-153 1287.5,-172.25"/>
<text text-anchor="middle" x="1224.75" y="-158.75" font-family="Helvetica,sans-Serif" font-size="10.00">Ark::internal::BaseParser</text>
</a>
</g>
</g>
<!-- Node2&#45;&gt;Node1 -->
<g id="edge1_Node000001_Node000002" class="edge">
<title>Node2&#45;&gt;Node1</title>
<g id="a_edge1_Node000001_Node000002"><a xlink:title=" ">
<path fill="none" stroke="#63b8ff" d="M1245.21,-180.03C1270.51,-202.74 1316.01,-243.8 1354.25,-279.62 1375.22,-299.27 1399.33,-322.7 1412.62,-335.69"/>
<polygon fill="#63b8ff" stroke="#63b8ff" points="1247.76,-177.62 1237.97,-173.55 1243.08,-182.83 1247.76,-177.62"/>
</a>
</g>
</g>
<!-- Node3 -->
<g id="Node000003" class="node">
<title>Node3</title>
<g id="a_Node000003"><a xlink:title=" ">
<polygon fill="white" stroke="#666666" points="407.88,-506.25 348.38,-506.25 348.38,-487 407.88,-487 407.88,-506.25"/>
<text text-anchor="middle" x="378.12" y="-492.75" font-family="Helvetica,sans-Serif" font-size="10.00">std::string</text>
</a>
</g>
</g>
<!-- Node3&#45;&gt;Node2 -->
<g id="edge2_Node000002_Node000003" class="edge">
<title>Node3&#45;&gt;Node2</title>
<g id="a_edge2_Node000002_Node000003"><a xlink:title=" ">
<path fill="none" stroke="#9a32cd" stroke-dasharray="5,2" d="M389.97,-476.88C402.34,-456.28 424.53,-424.68 452.5,-407.62 502.59,-377.08 526.24,-399.32 581.5,-379.62 656.67,-352.83 665.95,-323.82 741.5,-298.12 820.58,-271.23 845.36,-284.45 926.25,-263.62 1028.99,-237.18 1147.34,-192.62 1198.28,-172.73"/>
<polygon fill="#9a32cd" stroke="#9a32cd" points="386.99,-475.04 385.03,-485.45 393.05,-478.53 386.99,-475.04"/>
</a>
</g>
<text text-anchor="middle" x="833.88" y="-311.12" font-family="Helvetica,sans-Serif" font-size="10.00" fill="grey"> m_filename</text>
<text text-anchor="middle" x="833.88" y="-299.88" font-family="Helvetica,sans-Serif" font-size="10.00" fill="grey">m_str</text>
</g>
<!-- Node17 -->
<g id="Node000017" class="node">
<title>Node17</title>
<g id="a_Node000017"><a xlink:href="../../d6/d2f/classArk_1_1internal_1_1Logger.html" target="_top" xlink:title=" ">
<polygon fill="white" stroke="#666666" points="1058.88,-544.25 955.12,-544.25 955.12,-525 1058.88,-525 1058.88,-544.25"/>
<text text-anchor="middle" x="1007" y="-530.75" font-family="Helvetica,sans-Serif" font-size="10.00">Ark::internal::Logger</text>
</a>
</g>
</g>
<!-- Node3&#45;&gt;Node17 -->
<g id="edge19_Node000017_Node000003" class="edge">
<title>Node3&#45;&gt;Node17</title>
<g id="a_edge19_Node000017_Node000003"><a xlink:title=" ">
<path fill="none" stroke="#9a32cd" stroke-dasharray="5,2" d="M414.62,-510.54C426.48,-514.56 439.89,-518.45 452.5,-520.62 635.09,-552.1 856.5,-544.11 954.77,-538.25"/>
<polygon fill="#9a32cd" stroke="#9a32cd" points="415.82,-507.25 405.22,-507.19 413.47,-513.84 415.82,-507.25"/>
</a>
</g>
<text text-anchor="middle" x="661.5" y="-544.94" font-family="Helvetica,sans-Serif" font-size="10.00" fill="grey"> m_name</text>
</g>
<!-- Node18 -->
<g id="Node000018" class="node">
<title>Node18</title>
<g id="a_Node000018"><a xlink:title=" ">
<polygon fill="white" stroke="#666666" points="722.75,-627.75 600.25,-627.75 600.25,-563.5 722.75,-563.5 722.75,-627.75"/>
<text text-anchor="start" x="608.25" y="-614.25" font-family="Helvetica,sans-Serif" font-size="10.00">std::unordered_map</text>
<text text-anchor="start" x="608.25" y="-603" font-family="Helvetica,sans-Serif" font-size="10.00">&lt; std::string, std::</text>
<text text-anchor="start" x="608.25" y="-591.75" font-family="Helvetica,sans-Serif" font-size="10.00">chrono::time_point&lt; std</text>
<text text-anchor="start" x="608.25" y="-580.5" font-family="Helvetica,sans-Serif" font-size="10.00">::chrono::high_resolution</text>
<text text-anchor="middle" x="661.5" y="-569.25" font-family="Helvetica,sans-Serif" font-size="10.00">_clock &gt; &gt;</text>
</a>
</g>
</g>
<!-- Node3&#45;&gt;Node18 -->
<g id="edge21_Node000018_Node000003" class="edge">
<title>Node3&#45;&gt;Node18</title>
<g id="a_edge21_Node000018_Node000003"><a xlink:title=" ">
<path fill="none" stroke="#9a32cd" stroke-dasharray="5,2" d="M399.44,-513.69C413.47,-524.56 433.04,-537.98 452.5,-545.62 506.55,-566.85 525.34,-551.61 581.5,-566.38 587.58,-567.97 593.85,-569.86 600.07,-571.89"/>
<polygon fill="#9a32cd" stroke="#9a32cd" points="401.86,-511.15 391.86,-507.63 397.48,-516.61 401.86,-511.15"/>
</a>
</g>
<text text-anchor="middle" x="517" y="-568.12" font-family="Helvetica,sans-Serif" font-size="10.00" fill="grey"> keys</text>
</g>
<!-- Node21 -->
<g id="Node000021" class="node">
<title>Node21</title>
<g id="a_Node000021"><a xlink:title=" ">
<polygon fill="white" stroke="#666666" points="723.5,-448.25 599.5,-448.25 599.5,-429 723.5,-429 723.5,-448.25"/>
<text text-anchor="middle" x="661.5" y="-434.75" font-family="Helvetica,sans-Serif" font-size="10.00">std::vector&lt; std::string &gt;</text>
</a>
</g>
</g>
<!-- Node3&#45;&gt;Node21 -->
<g id="edge26_Node000021_Node000003" class="edge">
<title>Node3&#45;&gt;Node21</title>
<g id="a_edge26_Node000021_Node000003"><a xlink:title=" ">
<path fill="none" stroke="#9a32cd" stroke-dasharray="5,2" d="M419.36,-489.92C473.82,-480.8 566.01,-465.21 581.5,-461.62 597.23,-457.99 614.46,-453.08 628.81,-448.73"/>
<polygon fill="#9a32cd" stroke="#9a32cd" points="418.8,-486.46 409.52,-491.56 419.96,-493.36 418.8,-486.46"/>
</a>
</g>
<text text-anchor="middle" x="517" y="-485.68" font-family="Helvetica,sans-Serif" font-size="10.00" fill="grey"> elements</text>
</g>
<!-- Node26 -->
<g id="Node000026" class="node">
<title>Node26</title>
<g id="a_Node000026"><a xlink:href="../../dc/d9e/classArk_1_1internal_1_1Node.html" target="_top" xlink:title="A node of an Abstract Syntax Tree for ArkScript.">
<polygon fill="white" stroke="#666666" points="710.38,-408.25 612.62,-408.25 612.62,-389 710.38,-389 710.38,-408.25"/>
<text text-anchor="middle" x="661.5" y="-394.75" font-family="Helvetica,sans-Serif" font-size="10.00">Ark::internal::Node</text>
</a>
</g>
</g>
<!-- Node3&#45;&gt;Node26 -->
<g id="edge35_Node000026_Node000003" class="edge">
<title>Node3&#45;&gt;Node26</title>
<g id="a_edge35_Node000026_Node000003"><a xlink:title=" ">
<path fill="none" stroke="#9a32cd" stroke-dasharray="5,2" d="M392.57,-477.41C405.72,-460.26 427.4,-436.03 452.5,-423.88 466.58,-417.06 555.63,-408 612.56,-402.79"/>
<polygon fill="#9a32cd" stroke="#9a32cd" points="389.85,-475.19 386.74,-485.32 395.49,-479.34 389.85,-475.19"/>
</a>
</g>
<text text-anchor="middle" x="517" y="-448.12" font-family="Helvetica,sans-Serif" font-size="10.00" fill="grey"> m_after_comment</text>
<text text-anchor="middle" x="517" y="-436.88" font-family="Helvetica,sans-Serif" font-size="10.00" fill="grey">m_comment</text>
<text text-anchor="middle" x="517" y="-425.62" font-family="Helvetica,sans-Serif" font-size="10.00" fill="grey">m_filename</text>
</g>
<!-- Node30 -->
<g id="Node000030" class="node">
<title>Node30</title>
<g id="a_Node000030"><a xlink:href="../../da/d03/structArk_1_1internal_1_1Import.html" target="_top" xlink:title=" ">
<polygon fill="white" stroke="#666666" points="1058.12,-447.25 955.88,-447.25 955.88,-428 1058.12,-428 1058.12,-447.25"/>
<text text-anchor="middle" x="1007" y="-433.75" font-family="Helvetica,sans-Serif" font-size="10.00">Ark::internal::Import</text>
</a>
</g>
</g>
<!-- Node3&#45;&gt;Node30 -->
<g id="edge38_Node000030_Node000003" class="edge">
<title>Node3&#45;&gt;Node30</title>
<g id="a_edge38_Node000030_Node000003"><a xlink:title=" ">
<path fill="none" stroke="#9a32cd" stroke-dasharray="5,2" d="M419.71,-497.64C511.11,-499.15 739.71,-498.53 926.25,-461.62 943.55,-458.2 962.48,-452.59 977.55,-447.65"/>
<polygon fill="#9a32cd" stroke="#9a32cd" points="419.82,-494.14 409.75,-497.46 419.69,-501.14 419.82,-494.14"/>
</a>
</g>
<text text-anchor="middle" x="661.5" y="-497.43" font-family="Helvetica,sans-Serif" font-size="10.00" fill="grey"> prefix</text>
</g>
<!-- Node4 -->
<g id="Node000004" class="node">
<title>Node4</title>
<g id="a_Node000004"><a xlink:title=" ">
<polygon fill="white" stroke="#666666" points="216.38,-511.88 122.38,-511.88 122.38,-481.38 216.38,-481.38 216.38,-511.88"/>
<text text-anchor="start" x="130.38" y="-498.38" font-family="Helvetica,sans-Serif" font-size="10.00">std::basic_string&lt;</text>
<text text-anchor="middle" x="169.38" y="-487.12" font-family="Helvetica,sans-Serif" font-size="10.00"> Char &gt;</text>
</a>
</g>
</g>
<!-- Node4&#45;&gt;Node3 -->
<g id="edge3_Node000003_Node000004" class="edge">
<title>Node4&#45;&gt;Node3</title>
<g id="a_edge3_Node000003_Node000004"><a xlink:title=" ">
<path fill="none" stroke="#63b8ff" d="M228.25,-496.62C267.29,-496.62 317.14,-496.62 348.1,-496.62"/>
<polygon fill="#63b8ff" stroke="#63b8ff" points="228.29,-493.13 218.29,-496.63 228.29,-500.13 228.29,-493.13"/>
</a>
</g>
</g>
<!-- Node5 -->
<g id="Node000005" class="node">
<title>Node5</title>
<g id="a_Node000005"><a xlink:title=" ">
<polygon fill="white" stroke="#666666" points="1060.38,-205.5 953.62,-205.5 953.62,-163.75 1060.38,-163.75 1060.38,-205.5"/>
<text text-anchor="start" x="961.62" y="-192" font-family="Helvetica,sans-Serif" font-size="10.00">std::vector&lt; std::pair</text>
<text text-anchor="start" x="961.62" y="-180.75" font-family="Helvetica,sans-Serif" font-size="10.00">&lt; std::string::iterator,</text>
<text text-anchor="middle" x="1007" y="-169.5" font-family="Helvetica,sans-Serif" font-size="10.00"> std::size_t &gt; &gt;</text>
</a>
</g>
</g>
<!-- Node5&#45;&gt;Node2 -->
<g id="edge4_Node000002_Node000005" class="edge">
<title>Node5&#45;&gt;Node2</title>
<g id="a_edge4_Node000002_Node000005"><a xlink:title=" ">
<path fill="none" stroke="#9a32cd" stroke-dasharray="5,2" d="M1072.16,-178.08C1100.43,-175.2 1133.52,-171.83 1161.56,-168.97"/>
<polygon fill="#9a32cd" stroke="#9a32cd" points="1071.88,-174.59 1062.28,-179.09 1072.59,-181.56 1071.88,-174.59"/>
</a>
</g>
<text text-anchor="middle" x="1115.88" y="-177.99" font-family="Helvetica,sans-Serif" font-size="10.00" fill="grey"> m_it_to_row</text>
</g>
<!-- Node6 -->
<g id="Node000006" class="node">
<title>Node6</title>
<g id="a_Node000006"><a xlink:title=" ">
<polygon fill="white" stroke="#666666" points="717.5,-105.88 605.5,-105.88 605.5,-75.38 717.5,-75.38 717.5,-105.88"/>
<text text-anchor="start" x="613.5" y="-92.38" font-family="Helvetica,sans-Serif" font-size="10.00">std::pair&lt; std::string</text>
<text text-anchor="middle" x="661.5" y="-81.12" font-family="Helvetica,sans-Serif" font-size="10.00">::iterator, std::size_t &gt;</text>
</a>
</g>
</g>
<!-- Node6&#45;&gt;Node5 -->
<g id="edge5_Node000005_Node000006" class="edge">
<title>Node6&#45;&gt;Node5</title>
<g id="a_edge5_Node000005_Node000006"><a xlink:title=" ">
<path fill="none" stroke="#9a32cd" stroke-dasharray="5,2" d="M718.84,-112.12C720.45,-113.24 722.01,-114.4 723.5,-115.62 734.66,-124.76 729.22,-135.05 741.5,-142.62 811.92,-186.05 844.85,-150.59 926.25,-165.38 935.08,-166.98 944.39,-168.96 953.42,-171.03"/>
<polygon fill="#9a32cd" stroke="#9a32cd" points="720.8,-109.22 710.43,-107.04 717.18,-115.21 720.8,-109.22"/>
</a>
</g>
<text text-anchor="middle" x="833.88" y="-167.12" font-family="Helvetica,sans-Serif" font-size="10.00" fill="grey"> elements</text>
</g>
<!-- Node7 -->
<g id="Node000007" class="node">
<title>Node7</title>
<g id="a_Node000007"><a xlink:title=" ">
<polygon fill="white" stroke="#666666" points="425.88,-72.25 330.38,-72.25 330.38,-53 425.88,-53 425.88,-72.25"/>
<text text-anchor="middle" x="378.12" y="-58.75" font-family="Helvetica,sans-Serif" font-size="10.00">std::string::iterator</text>
</a>
</g>
</g>
<!-- Node7&#45;&gt;Node2 -->
<g id="edge12_Node000002_Node000007" class="edge">
<title>Node7&#45;&gt;Node2</title>
<g id="a_edge12_Node000002_Node000007"><a xlink:title=" ">
<path fill="none" stroke="#9a32cd" stroke-dasharray="5,2" d="M437.43,-59.82C557.57,-55.46 840.6,-52.51 1069.75,-106.62 1117.93,-118 1171.76,-139.78 1201.3,-152.57"/>
<polygon fill="#9a32cd" stroke="#9a32cd" points="437.35,-56.32 427.49,-60.2 437.62,-63.32 437.35,-56.32"/>
</a>
</g>
<text text-anchor="middle" x="833.88" y="-92.47" font-family="Helvetica,sans-Serif" font-size="10.00" fill="grey"> m_it</text>
<text text-anchor="middle" x="833.88" y="-81.22" font-family="Helvetica,sans-Serif" font-size="10.00" fill="grey">m_next_it</text>
</g>
<!-- Node7&#45;&gt;Node6 -->
<g id="edge6_Node000006_Node000007" class="edge">
<title>Node7&#45;&gt;Node6</title>
<g id="a_edge6_Node000006_Node000007"><a xlink:title=" ">
<path fill="none" stroke="#9a32cd" stroke-dasharray="5,2" d="M437.42,-68.21C477.86,-72.11 532.97,-77.47 581.5,-82.38 589.18,-83.15 597.29,-83.98 605.26,-84.81"/>
<polygon fill="#9a32cd" stroke="#9a32cd" points="437.96,-64.74 427.67,-67.27 437.28,-71.71 437.96,-64.74"/>
</a>
</g>
<text text-anchor="middle" x="517" y="-84.12" font-family="Helvetica,sans-Serif" font-size="10.00" fill="grey"> first_type</text>
</g>
<!-- Node8 -->
<g id="Node000008" class="node">
<title>Node8</title>
<g id="a_Node000008"><a xlink:title=" ">
<polygon fill="white" stroke="#666666" points="427,-124.25 329.25,-124.25 329.25,-105 427,-105 427,-124.25"/>
<text text-anchor="middle" x="378.12" y="-110.75" font-family="Helvetica,sans-Serif" font-size="10.00">std::pair&lt; T1, T2 &gt;</text>
</a>
</g>
</g>
<!-- Node8&#45;&gt;Node6 -->
<g id="edge7_Node000006_Node000008" class="edge">
<title>Node8&#45;&gt;Node6</title>
<g id="a_edge7_Node000006_Node000008"><a xlink:title=" ">
<path fill="none" stroke="orange" stroke-dasharray="5,2" d="M438.91,-109.53C488.05,-105.33 557.13,-99.44 605.05,-95.35"/>
<polygon fill="orange" stroke="orange" points="438.67,-106.03 429,-110.37 439.26,-113.01 438.67,-106.03"/>
</a>
</g>
<text text-anchor="start" x="470.12" y="-121.19" font-family="Helvetica,sans-Serif" font-size="10.00" fill="grey"> &lt; std::string::iterator,</text>
<text text-anchor="middle" x="517" y="-109.94" font-family="Helvetica,sans-Serif" font-size="10.00" fill="grey"> std::size_t &gt;</text>
</g>
<!-- Node9 -->
<g id="Node000009" class="node">
<title>Node9</title>
<g id="a_Node000009"><a xlink:title=" ">
<polygon fill="white" stroke="#666666" points="183.78,-106.25 154.97,-106.25 154.97,-87 183.78,-87 183.78,-106.25"/>
<text text-anchor="middle" x="169.38" y="-92.75" font-family="Helvetica,sans-Serif" font-size="10.00">T1</text>
</a>
</g>
</g>
<!-- Node9&#45;&gt;Node8 -->
<g id="edge8_Node000008_Node000009" class="edge">
<title>Node9&#45;&gt;Node8</title>
<g id="a_edge8_Node000008_Node000009"><a xlink:title=" ">
<path fill="none" stroke="#9a32cd" stroke-dasharray="5,2" d="M195.45,-96.11C222.32,-95.84 266.18,-96.23 303.75,-100.38 312.78,-101.37 322.36,-102.89 331.51,-104.57"/>
<polygon fill="#9a32cd" stroke="#9a32cd" points="195.52,-92.61 185.57,-96.25 195.62,-99.61 195.52,-92.61"/>
</a>
</g>
<text text-anchor="middle" x="274.5" y="-102.12" font-family="Helvetica,sans-Serif" font-size="10.00" fill="grey"> first_type</text>
</g>
<!-- Node10 -->
<g id="Node000010" class="node">
<title>Node10</title>
<g id="a_Node000010"><a xlink:title=" ">
<polygon fill="white" stroke="#666666" points="183.78,-143.25 154.97,-143.25 154.97,-124 183.78,-124 183.78,-143.25"/>
<text text-anchor="middle" x="169.38" y="-129.75" font-family="Helvetica,sans-Serif" font-size="10.00">T2</text>
</a>
</g>
</g>
<!-- Node10&#45;&gt;Node8 -->
<g id="edge9_Node000008_Node000010" class="edge">
<title>Node10&#45;&gt;Node8</title>
<g id="a_edge9_Node000008_Node000010"><a xlink:title=" ">
<path fill="none" stroke="#9a32cd" stroke-dasharray="5,2" d="M195.57,-131.31C228.55,-128.28 287.08,-122.9 328.76,-119.07"/>
<polygon fill="#9a32cd" stroke="#9a32cd" points="195.41,-127.81 185.77,-132.21 196.05,-134.78 195.41,-127.81"/>
</a>
</g>
<text text-anchor="middle" x="274.5" y="-128.14" font-family="Helvetica,sans-Serif" font-size="10.00" fill="grey"> second_type</text>
</g>
<!-- Node11 -->
<g id="Node000011" class="node">
<title>Node11</title>
<g id="a_Node000011"><a xlink:title=" ">
<polygon fill="white" stroke="#666666" points="421.38,-257.25 334.88,-257.25 334.88,-238 421.38,-238 421.38,-257.25"/>
<text text-anchor="middle" x="378.12" y="-243.75" font-family="Helvetica,sans-Serif" font-size="10.00">std::vector&lt; T &gt;</text>
</a>
</g>
</g>
<!-- Node11&#45;&gt;Node5 -->
<g id="edge10_Node000005_Node000011" class="edge">
<title>Node11&#45;&gt;Node5</title>
<g id="a_edge10_Node000005_Node000011"><a xlink:title=" ">
<path fill="none" stroke="orange" stroke-dasharray="5,2" d="M432.81,-237.96C439.44,-236.82 446.12,-235.68 452.5,-234.62 517.71,-223.86 533.8,-219.36 599.5,-212.12 726.06,-198.18 875.61,-190.25 953.25,-186.77"/>
<polygon fill="orange" stroke="orange" points="432.51,-234.46 423.27,-239.63 433.72,-241.36 432.51,-234.46"/>
</a>
</g>
<text text-anchor="start" x="609" y="-225.12" font-family="Helvetica,sans-Serif" font-size="10.00" fill="grey"> &lt; std::pair&lt; std::string</text>
<text text-anchor="middle" x="661.5" y="-213.88" font-family="Helvetica,sans-Serif" font-size="10.00" fill="grey">::iterator, std::size_t &gt; &gt;</text>
</g>
<!-- Node11&#45;&gt;Node21 -->
<g id="edge27_Node000021_Node000011" class="edge">
<title>Node11&#45;&gt;Node21</title>
<g id="a_edge27_Node000021_Node000011"><a xlink:title=" ">
<path fill="none" stroke="orange" stroke-dasharray="5,2" d="M395.89,-266.2C407.35,-279.3 422.56,-297.49 434.5,-314.62 443.61,-327.7 440.24,-335.45 452.5,-345.62 499.31,-384.48 533.27,-354.31 581.5,-391.38 592.72,-400 588.24,-409.06 599.5,-417.62 605.47,-422.17 612.49,-425.77 619.61,-428.62"/>
<polygon fill="orange" stroke="orange" points="398.56,-263.94 389.31,-258.78 393.33,-268.59 398.56,-263.94"/>
</a>
</g>
<text text-anchor="middle" x="517" y="-393.12" font-family="Helvetica,sans-Serif" font-size="10.00" fill="grey"> &lt; std::string &gt;</text>
</g>
<!-- Node29 -->
<g id="Node000029" class="node">
<title>Node29</title>
<g id="a_Node000029"><a xlink:title=" ">
<polygon fill="white" stroke="#666666" points="1286.38,-360.88 1163.12,-360.88 1163.12,-330.38 1286.38,-330.38 1286.38,-360.88"/>
<text text-anchor="start" x="1171.12" y="-347.38" font-family="Helvetica,sans-Serif" font-size="10.00">std::vector&lt; Ark::internal</text>
<text text-anchor="middle" x="1224.75" y="-336.12" font-family="Helvetica,sans-Serif" font-size="10.00">::Import &gt;</text>
</a>
</g>
</g>
<!-- Node11&#45;&gt;Node29 -->
<g id="edge40_Node000029_Node000011" class="edge">
<title>Node11&#45;&gt;Node29</title>
<g id="a_edge40_Node000029_Node000011"><a xlink:title=" ">
<path fill="none" stroke="orange" stroke-dasharray="5,2" d="M403.2,-263.66C417.03,-272.02 435.06,-281.54 452.5,-286.62 585.44,-325.43 1004.78,-340 1162.75,-344.2"/>
<polygon fill="orange" stroke="orange" points="405.14,-260.75 394.81,-258.39 401.42,-266.67 405.14,-260.75"/>
</a>
</g>
<text text-anchor="middle" x="833.88" y="-337.11" font-family="Helvetica,sans-Serif" font-size="10.00" fill="grey"> &lt; Ark::internal::Import &gt;</text>
</g>
<!-- Node31 -->
<g id="Node000031" class="node">
<title>Node31</title>
<g id="a_Node000031"><a xlink:title=" ">
<polygon fill="white" stroke="#666666" points="926.25,-262.5 741.5,-262.5 741.5,-220.75 926.25,-220.75 926.25,-262.5"/>
<text text-anchor="start" x="749.5" y="-249" font-family="Helvetica,sans-Serif" font-size="10.00">std::vector&lt; std::function</text>
<text text-anchor="start" x="749.5" y="-237.75" font-family="Helvetica,sans-Serif" font-size="10.00">&lt; std::optional&lt; Ark::internal</text>
<text text-anchor="middle" x="833.88" y="-226.5" font-family="Helvetica,sans-Serif" font-size="10.00">::Node &gt;(Ark::internal::FilePosition)&gt; &gt;</text>
</a>
</g>
</g>
<!-- Node11&#45;&gt;Node31 -->
<g id="edge42_Node000031_Node000011" class="edge">
<title>Node11&#45;&gt;Node31</title>
<g id="a_edge42_Node000031_Node000011"><a xlink:title=" ">
<path fill="none" stroke="orange" stroke-dasharray="5,2" d="M432.8,-242.73C439.43,-242.27 446.12,-241.89 452.5,-241.62 551.14,-237.6 664.3,-238.27 741.37,-239.53"/>
<polygon fill="orange" stroke="orange" points="432.99,-239.2 423.28,-243.43 433.51,-246.18 432.99,-239.2"/>
</a>
</g>
<text text-anchor="start" x="466.75" y="-277.12" font-family="Helvetica,sans-Serif" font-size="10.00" fill="grey"> &lt; std::function&lt; std</text>
<text text-anchor="start" x="466.75" y="-265.88" font-family="Helvetica,sans-Serif" font-size="10.00" fill="grey">::optional&lt; Ark::internal</text>
<text text-anchor="start" x="466.75" y="-254.62" font-family="Helvetica,sans-Serif" font-size="10.00" fill="grey">::Node &gt;(Ark::internal::</text>
<text text-anchor="middle" x="517" y="-243.38" font-family="Helvetica,sans-Serif" font-size="10.00" fill="grey">FilePosition)&gt; &gt;</text>
</g>
<!-- Node12 -->
<g id="Node000012" class="node">
<title>Node12</title>
<g id="a_Node000012"><a xlink:title=" ">
<polygon fill="white" stroke="#666666" points="183.78,-257.25 154.97,-257.25 154.97,-238 183.78,-238 183.78,-257.25"/>
<text text-anchor="middle" x="169.38" y="-243.75" font-family="Helvetica,sans-Serif" font-size="10.00">T</text>
</a>
</g>
</g>
<!-- Node12&#45;&gt;Node11 -->
<g id="edge11_Node000011_Node000012" class="edge">
<title>Node12&#45;&gt;Node11</title>
<g id="a_edge11_Node000011_Node000012"><a xlink:title=" ">
<path fill="none" stroke="#9a32cd" stroke-dasharray="5,2" d="M195.66,-247.62C230.29,-247.62 292.94,-247.62 334.79,-247.62"/>
<polygon fill="#9a32cd" stroke="#9a32cd" points="195.78,-244.13 185.78,-247.63 195.78,-251.13 195.78,-244.13"/>
</a>
</g>
<text text-anchor="middle" x="274.5" y="-249.38" font-family="Helvetica,sans-Serif" font-size="10.00" fill="grey"> elements</text>
</g>
<!-- Node15 -->
<g id="Node000015" class="node">
<title>Node15</title>
<g id="a_Node000015"><a xlink:title=" ">
<polygon fill="white" stroke="#666666" points="418.75,-189.25 337.5,-189.25 337.5,-170 418.75,-170 418.75,-189.25"/>
<text text-anchor="middle" x="378.12" y="-175.75" font-family="Helvetica,sans-Serif" font-size="10.00">std::array&lt; T &gt;</text>
</a>
</g>
</g>
<!-- Node12&#45;&gt;Node15 -->
<g id="edge16_Node000015_Node000012" class="edge">
<title>Node12&#45;&gt;Node15</title>
<g id="a_edge16_Node000015_Node000012"><a xlink:title=" ">
<path fill="none" stroke="#9a32cd" stroke-dasharray="5,2" d="M194.79,-239.59C232.55,-227.17 305.07,-203.33 346.36,-189.74"/>
<polygon fill="#9a32cd" stroke="#9a32cd" points="194.11,-236.14 185.7,-242.58 196.29,-242.79 194.11,-236.14"/>
</a>
</g>
<text text-anchor="middle" x="274.5" y="-223.47" font-family="Helvetica,sans-Serif" font-size="10.00" fill="grey"> elements</text>
</g>
<!-- Node19 -->
<g id="Node000019" class="node">
<title>Node19</title>
<g id="a_Node000019"><a xlink:title=" ">
<polygon fill="white" stroke="#666666" points="429.25,-579.88 327,-579.88 327,-549.38 429.25,-549.38 429.25,-579.88"/>
<text text-anchor="start" x="335" y="-566.38" font-family="Helvetica,sans-Serif" font-size="10.00">std::unordered_map</text>
<text text-anchor="middle" x="378.12" y="-555.12" font-family="Helvetica,sans-Serif" font-size="10.00">&lt; K, T &gt;</text>
</a>
</g>
</g>
<!-- Node12&#45;&gt;Node19 -->
<g id="edge24_Node000019_Node000012" class="edge">
<title>Node12&#45;&gt;Node19</title>
<g id="a_edge24_Node000019_Node000012"><a xlink:title=" ">
<path fill="none" stroke="#9a32cd" stroke-dasharray="5,2" d="M194.99,-253.09C226.07,-261.41 278.52,-280.45 303.75,-318.38 352.51,-391.67 281.98,-437.09 321.75,-515.62 328.59,-529.14 340.89,-540.61 352.16,-549.04"/>
<polygon fill="#9a32cd" stroke="#9a32cd" points="196.25,-249.8 185.7,-250.78 194.56,-256.59 196.25,-249.8"/>
</a>
</g>
<text text-anchor="middle" x="274.5" y="-320.12" font-family="Helvetica,sans-Serif" font-size="10.00" fill="grey"> elements</text>
</g>
<!-- Node13 -->
<g id="Node000013" class="node">
<title>Node13</title>
<g id="a_Node000013"><a xlink:href="../../df/d83/classArk_1_1internal_1_1utf8__char__t.html" target="_top" xlink:title=" ">
<polygon fill="white" stroke="#666666" points="1052.5,-145.88 961.5,-145.88 961.5,-115.38 1052.5,-115.38 1052.5,-145.88"/>
<text text-anchor="start" x="969.5" y="-132.38" font-family="Helvetica,sans-Serif" font-size="10.00">Ark::internal::utf8</text>
<text text-anchor="middle" x="1007" y="-121.12" font-family="Helvetica,sans-Serif" font-size="10.00">_char_t</text>
</a>
</g>
</g>
<!-- Node13&#45;&gt;Node2 -->
<g id="edge13_Node000002_Node000013" class="edge">
<title>Node13&#45;&gt;Node2</title>
<g id="a_edge13_Node000002_Node000013"><a xlink:title=" ">
<path fill="none" stroke="#9a32cd" stroke-dasharray="5,2" d="M1064.06,-138.94C1093.98,-143.38 1130.88,-148.85 1161.66,-153.42"/>
<polygon fill="#9a32cd" stroke="#9a32cd" points="1064.87,-135.52 1054.46,-137.52 1063.84,-142.45 1064.87,-135.52"/>
</a>
</g>
<text text-anchor="middle" x="1115.88" y="-152.18" font-family="Helvetica,sans-Serif" font-size="10.00" fill="grey"> m_sym</text>
</g>
<!-- Node14 -->
<g id="Node000014" class="node">
<title>Node14</title>
<g id="a_Node000014"><a xlink:title=" ">
<polygon fill="white" stroke="#666666" points="714.12,-154.88 608.88,-154.88 608.88,-124.38 714.12,-124.38 714.12,-154.88"/>
<text text-anchor="start" x="616.88" y="-141.38" font-family="Helvetica,sans-Serif" font-size="10.00">std::array&lt; unsigned</text>
<text text-anchor="middle" x="661.5" y="-130.12" font-family="Helvetica,sans-Serif" font-size="10.00"> char, 5 &gt;</text>
</a>
</g>
</g>
<!-- Node14&#45;&gt;Node13 -->
<g id="edge14_Node000013_Node000014" class="edge">
<title>Node14&#45;&gt;Node13</title>
<g id="a_edge14_Node000013_Node000014"><a xlink:title=" ">
<path fill="none" stroke="#9a32cd" stroke-dasharray="5,2" d="M725.41,-132.48C730.85,-132.03 736.27,-131.65 741.5,-131.38 818.54,-127.25 908.37,-128.22 961.03,-129.37"/>
<polygon fill="#9a32cd" stroke="#9a32cd" points="725.44,-128.96 715.79,-133.33 726.06,-135.93 725.44,-128.96"/>
</a>
</g>
<text text-anchor="middle" x="833.88" y="-133.12" font-family="Helvetica,sans-Serif" font-size="10.00" fill="grey"> m_repr</text>
</g>
<!-- Node15&#45;&gt;Node14 -->
<g id="edge15_Node000014_Node000015" class="edge">
<title>Node15&#45;&gt;Node14</title>
<g id="a_edge15_Node000014_Node000015"><a xlink:title=" ">
<path fill="none" stroke="orange" stroke-dasharray="5,2" d="M430.18,-169.24C437.65,-167.86 445.27,-166.52 452.5,-165.38 505.51,-156.96 566.48,-149.69 608.65,-145.04"/>
<polygon fill="orange" stroke="orange" points="429.68,-165.77 420.51,-171.08 430.99,-172.65 429.68,-165.77"/>
</a>
</g>
<text text-anchor="middle" x="517" y="-167.12" font-family="Helvetica,sans-Serif" font-size="10.00" fill="grey"> &lt; unsigned char, 5 &gt;</text>
</g>
<!-- Node16 -->
<g id="Node000016" class="node">
<title>Node16</title>
<g id="a_Node000016"><a xlink:href="../../dd/d0e/structArk_1_1internal_1_1FilePosition.html" target="_top" xlink:title="Describe a position in a given file ; handled by the BaseParser.">
<polygon fill="white" stroke="#666666" points="1069.75,-19.25 944.25,-19.25 944.25,0 1069.75,0 1069.75,-19.25"/>
<text text-anchor="middle" x="1007" y="-5.75" font-family="Helvetica,sans-Serif" font-size="10.00">Ark::internal::FilePosition</text>
</a>
</g>
</g>
<!-- Node16&#45;&gt;Node2 -->
<g id="edge17_Node000002_Node000016" class="edge">
<title>Node16&#45;&gt;Node2</title>
<g id="a_edge17_Node000002_Node000016"><a xlink:title=" ">
<path fill="none" stroke="#9a32cd" stroke-dasharray="5,2" d="M1081.69,-4.06C1103.18,-5.61 1125.76,-10.59 1144,-22.38 1192.7,-53.84 1214.79,-126.12 1221.46,-152.64"/>
<polygon fill="#9a32cd" stroke="#9a32cd" points="1081.9,-0.57 1071.75,-3.61 1081.58,-7.56 1081.9,-0.57"/>
</a>
</g>
<text text-anchor="middle" x="1115.88" y="-24.12" font-family="Helvetica,sans-Serif" font-size="10.00" fill="grey"> m_filepos</text>
</g>
<!-- Node17&#45;&gt;Node1 -->
<g id="edge18_Node000001_Node000017" class="edge">
<title>Node17&#45;&gt;Node1</title>
<g id="a_edge18_Node000001_Node000017"><a xlink:title=" ">
<path fill="none" stroke="#9a32cd" stroke-dasharray="5,2" d="M1067.94,-521.92C1139.88,-504.84 1262.3,-469.83 1354.25,-412.62 1379.67,-396.81 1403.21,-370.11 1414.95,-355.65"/>
<polygon fill="#9a32cd" stroke="#9a32cd" points="1067.26,-518.49 1058.31,-524.17 1068.85,-525.3 1067.26,-518.49"/>
</a>
</g>
<text text-anchor="middle" x="1224.75" y="-497.7" font-family="Helvetica,sans-Serif" font-size="10.00" fill="grey"> m_logger</text>
</g>
<!-- Node18&#45;&gt;Node17 -->
<g id="edge20_Node000017_Node000018" class="edge">
<title>Node18&#45;&gt;Node17</title>
<g id="a_edge20_Node000017_Node000018"><a xlink:title=" ">
<path fill="none" stroke="#9a32cd" stroke-dasharray="5,2" d="M734.24,-582.89C800.13,-571.18 896.16,-554.13 954.67,-543.74"/>
<polygon fill="#9a32cd" stroke="#9a32cd" points="733.84,-579.4 724.61,-584.6 735.07,-586.29 733.84,-579.4"/>
</a>
</g>
<text text-anchor="middle" x="833.88" y="-582.63" font-family="Helvetica,sans-Serif" font-size="10.00" fill="grey"> m_trace_starts</text>
</g>
<!-- Node19&#45;&gt;Node18 -->
<g id="edge22_Node000018_Node000019" class="edge">
<title>Node19&#45;&gt;Node18</title>
<g id="a_edge22_Node000018_Node000019"><a xlink:title=" ">
<path fill="none" stroke="orange" stroke-dasharray="5,2" d="M440.72,-577.8C444.7,-578.47 448.65,-579.09 452.5,-579.62 501.82,-586.54 558.16,-590.64 599.76,-592.96"/>
<polygon fill="orange" stroke="orange" points="441.46,-574.37 430.99,-576.05 440.22,-581.26 441.46,-574.37"/>
</a>
</g>
<text text-anchor="start" x="452.5" y="-627.34" font-family="Helvetica,sans-Serif" font-size="10.00" fill="grey"> &lt; std::string, std</text>
<text text-anchor="start" x="452.5" y="-616.09" font-family="Helvetica,sans-Serif" font-size="10.00" fill="grey">::chrono::time_point</text>
<text text-anchor="start" x="452.5" y="-604.84" font-family="Helvetica,sans-Serif" font-size="10.00" fill="grey">&lt; std::chrono::high_resolution</text>
<text text-anchor="middle" x="517" y="-593.59" font-family="Helvetica,sans-Serif" font-size="10.00" fill="grey">_clock &gt; &gt;</text>
</g>
<!-- Node20 -->
<g id="Node000020" class="node">
<title>Node20</title>
<g id="a_Node000020"><a xlink:title=" ">
<polygon fill="white" stroke="#666666" points="183.78,-574.25 154.97,-574.25 154.97,-555 183.78,-555 183.78,-574.25"/>
<text text-anchor="middle" x="169.38" y="-560.75" font-family="Helvetica,sans-Serif" font-size="10.00">K</text>
</a>
</g>
</g>
<!-- Node20&#45;&gt;Node19 -->
<g id="edge23_Node000019_Node000020" class="edge">
<title>Node20&#45;&gt;Node19</title>
<g id="a_edge23_Node000019_Node000020"><a xlink:title=" ">
<path fill="none" stroke="#9a32cd" stroke-dasharray="5,2" d="M195.37,-564.62C227.74,-564.62 284.95,-564.62 326.55,-564.62"/>
<polygon fill="#9a32cd" stroke="#9a32cd" points="195.78,-561.13 185.78,-564.63 195.78,-568.13 195.78,-561.13"/>
</a>
</g>
<text text-anchor="middle" x="274.5" y="-566.38" font-family="Helvetica,sans-Serif" font-size="10.00" fill="grey"> keys</text>
</g>
<!-- Node21&#45;&gt;Node17 -->
<g id="edge25_Node000017_Node000021" class="edge">
<title>Node21&#45;&gt;Node17</title>
<g id="a_edge25_Node000017_Node000021"><a xlink:title=" ">
<path fill="none" stroke="#9a32cd" stroke-dasharray="5,2" d="M701.85,-452.27C714.45,-456.45 728.51,-460.92 741.5,-464.62 822.75,-487.79 844.87,-486.67 926.25,-509.38 942.76,-513.98 960.99,-519.71 975.85,-524.54"/>
<polygon fill="#9a32cd" stroke="#9a32cd" points="703.25,-449.04 692.65,-449.18 701.02,-455.68 703.25,-449.04"/>
</a>
</g>
<text text-anchor="middle" x="833.88" y="-511.12" font-family="Helvetica,sans-Serif" font-size="10.00" fill="grey"> m_active_traces</text>
</g>
<!-- Node21&#45;&gt;Node30 -->
<g id="edge39_Node000030_Node000021" class="edge">
<title>Node21&#45;&gt;Node30</title>
<g id="a_edge39_Node000030_Node000021"><a xlink:title=" ">
<path fill="none" stroke="#9a32cd" stroke-dasharray="5,2" d="M735.08,-438.41C801.24,-438.22 897.27,-437.94 955.45,-437.77"/>
<polygon fill="#9a32cd" stroke="#9a32cd" points="735.41,-434.91 725.42,-438.44 735.43,-441.91 735.41,-434.91"/>
</a>
</g>
<text text-anchor="middle" x="833.88" y="-451.38" font-family="Helvetica,sans-Serif" font-size="10.00" fill="grey"> package</text>
<text text-anchor="middle" x="833.88" y="-440.13" font-family="Helvetica,sans-Serif" font-size="10.00" fill="grey">symbols</text>
</g>
<!-- Node22 -->
<g id="Node000022" class="node">
<title>Node22</title>
<g id="a_Node000022"><a xlink:title=" ">
<polygon fill="white" stroke="#666666" points="696.88,-668.25 626.12,-668.25 626.12,-649 696.88,-649 696.88,-668.25"/>
<text text-anchor="middle" x="661.5" y="-654.75" font-family="Helvetica,sans-Serif" font-size="10.00">std::ostream</text>
</a>
</g>
</g>
<!-- Node22&#45;&gt;Node17 -->
<g id="edge28_Node000017_Node000022" class="edge">
<title>Node22&#45;&gt;Node17</title>
<g id="a_edge28_Node000017_Node000022"><a xlink:title=" ">
<path fill="none" stroke="#9a32cd" stroke-dasharray="5,2" d="M708.69,-653.84C762.96,-646.87 854.69,-630.83 926.25,-596.62 954.41,-583.16 981.97,-558.45 996.14,-544.64"/>
<polygon fill="#9a32cd" stroke="#9a32cd" points="708.37,-650.35 698.87,-655.05 709.22,-657.3 708.37,-650.35"/>
</a>
</g>
<text text-anchor="middle" x="833.88" y="-649.9" font-family="Helvetica,sans-Serif" font-size="10.00" fill="grey"> m_stream</text>
</g>
<!-- Node23 -->
<g id="Node000023" class="node">
<title>Node23</title>
<g id="a_Node000023"><a xlink:title=" ">
<polygon fill="white" stroke="#666666" points="427.75,-676.88 328.5,-676.88 328.5,-646.38 427.75,-646.38 427.75,-676.88"/>
<text text-anchor="start" x="336.5" y="-663.38" font-family="Helvetica,sans-Serif" font-size="10.00">std::basic_ostream</text>
<text text-anchor="middle" x="378.12" y="-652.12" font-family="Helvetica,sans-Serif" font-size="10.00">&lt; Char &gt;</text>
</a>
</g>
</g>
<!-- Node23&#45;&gt;Node22 -->
<g id="edge29_Node000022_Node000023" class="edge">
<title>Node23&#45;&gt;Node22</title>
<g id="a_edge29_Node000022_Node000023"><a xlink:title=" ">
<path fill="none" stroke="#63b8ff" d="M439.48,-660.98C496.28,-660.38 579.36,-659.49 625.8,-659"/>
<polygon fill="#63b8ff" stroke="#63b8ff" points="439.61,-657.48 429.65,-661.09 439.69,-664.48 439.61,-657.48"/>
</a>
</g>
</g>
<!-- Node24 -->
<g id="Node000024" class="node">
<title>Node24</title>
<g id="a_Node000024"><a xlink:title=" ">
<polygon fill="white" stroke="#666666" points="227.25,-671.25 111.5,-671.25 111.5,-652 227.25,-652 227.25,-671.25"/>
<text text-anchor="middle" x="169.38" y="-657.75" font-family="Helvetica,sans-Serif" font-size="10.00">std::basic_ios&lt; Char &gt;</text>
</a>
</g>
</g>
<!-- Node24&#45;&gt;Node23 -->
<g id="edge30_Node000023_Node000024" class="edge">
<title>Node24&#45;&gt;Node23</title>
<g id="a_edge30_Node000023_Node000024"><a xlink:title=" ">
<path fill="none" stroke="#63b8ff" d="M239.05,-661.62C268.2,-661.62 301.52,-661.62 328.12,-661.62"/>
<polygon fill="#63b8ff" stroke="#63b8ff" points="239.21,-658.13 229.21,-661.63 239.21,-665.13 239.21,-658.13"/>
</a>
</g>
</g>
<!-- Node25 -->
<g id="Node000025" class="node">
<title>Node25</title>
<g id="a_Node000025"><a xlink:title=" ">
<polygon fill="white" stroke="#666666" points="74.5,-671.25 0,-671.25 0,-652 74.5,-652 74.5,-671.25"/>
<text text-anchor="middle" x="37.25" y="-657.75" font-family="Helvetica,sans-Serif" font-size="10.00">std::ios_base</text>
</a>
</g>
</g>
<!-- Node25&#45;&gt;Node24 -->
<g id="edge31_Node000024_Node000025" class="edge">
<title>Node25&#45;&gt;Node24</title>
<g id="a_edge31_Node000024_Node000025"><a xlink:title=" ">
<path fill="none" stroke="#63b8ff" d="M86.34,-661.62C94.41,-661.62 102.86,-661.62 111.13,-661.62"/>
<polygon fill="#63b8ff" stroke="#63b8ff" points="86.36,-658.13 76.36,-661.63 86.36,-665.13 86.36,-658.13"/>
</a>
</g>
</g>
<!-- Node26&#45;&gt;Node1 -->
<g id="edge32_Node000001_Node000026" class="edge">
<title>Node26&#45;&gt;Node1</title>
<g id="a_edge32_Node000001_Node000026"><a xlink:title=" ">
<path fill="none" stroke="#9a32cd" stroke-dasharray="5,2" d="M722.13,-397.64C833.45,-395.42 1080.38,-388.6 1287.5,-369.62 1317.31,-366.89 1324.77,-365.83 1354.25,-360.62 1362.4,-359.19 1371.06,-357.45 1379.37,-355.68"/>
<polygon fill="#9a32cd" stroke="#9a32cd" points="722.27,-394.14 712.34,-397.83 722.41,-401.14 722.27,-394.14"/>
</a>
</g>
<text text-anchor="middle" x="1115.88" y="-385.69" font-family="Helvetica,sans-Serif" font-size="10.00" fill="grey"> m_ast</text>
</g>
<!-- Node27 -->
<g id="Node000027" class="node">
<title>Node27</title>
<g id="a_Node000027"><a xlink:href="../../dc/dda/structArk_1_1internal_1_1FileSpan.html" target="_top" xlink:title="Describes a span for a node/atom in a file, its start position and end position.">
<polygon fill="white" stroke="#666666" points="434.5,-343.25 321.75,-343.25 321.75,-324 434.5,-324 434.5,-343.25"/>
<text text-anchor="middle" x="378.12" y="-329.75" font-family="Helvetica,sans-Serif" font-size="10.00">Ark::internal::FileSpan</text>
</a>
</g>
</g>
<!-- Node27&#45;&gt;Node26 -->
<g id="edge33_Node000026_Node000027" class="edge">
<title>Node27&#45;&gt;Node26</title>
<g id="a_edge33_Node000026_Node000027"><a xlink:title=" ">
<path fill="none" stroke="#9a32cd" stroke-dasharray="5,2" d="M446.28,-322.86C486.63,-319.05 538.35,-318.95 581.5,-334.38 611.96,-345.26 639.24,-373.42 652.32,-388.59"/>
<polygon fill="#9a32cd" stroke="#9a32cd" points="446.04,-319.36 436.46,-323.89 446.77,-326.33 446.04,-319.36"/>
</a>
</g>
<text text-anchor="middle" x="517" y="-336.12" font-family="Helvetica,sans-Serif" font-size="10.00" fill="grey"> m_pos</text>
</g>
<!-- Node28 -->
<g id="Node000028" class="node">
<title>Node28</title>
<g id="a_Node000028"><a xlink:href="../../d7/df6/structArk_1_1internal_1_1FilePos.html" target="_top" xlink:title=" ">
<polygon fill="white" stroke="#666666" points="223.12,-343.25 115.62,-343.25 115.62,-324 223.12,-324 223.12,-343.25"/>
<text text-anchor="middle" x="169.38" y="-329.75" font-family="Helvetica,sans-Serif" font-size="10.00">Ark::internal::FilePos</text>
</a>
</g>
</g>
<!-- Node28&#45;&gt;Node27 -->
<g id="edge34_Node000027_Node000028" class="edge">
<title>Node28&#45;&gt;Node27</title>
<g id="a_edge34_Node000027_Node000028"><a xlink:title=" ">
<path fill="none" stroke="#9a32cd" stroke-dasharray="5,2" d="M234.83,-333.62C262.62,-333.62 294.81,-333.62 321.53,-333.62"/>
<polygon fill="#9a32cd" stroke="#9a32cd" points="235.13,-330.13 225.13,-333.63 235.13,-337.13 235.13,-330.13"/>
</a>
</g>
<text text-anchor="middle" x="274.5" y="-335.38" font-family="Helvetica,sans-Serif" font-size="10.00" fill="grey"> start</text>
</g>
<!-- Node29&#45;&gt;Node1 -->
<g id="edge36_Node000001_Node000029" class="edge">
<title>Node29&#45;&gt;Node1</title>
<g id="a_edge36_Node000001_Node000029"><a xlink:title=" ">
<path fill="none" stroke="#9a32cd" stroke-dasharray="5,2" d="M1298.18,-345.62C1322.69,-345.62 1349.52,-345.62 1371.98,-345.62"/>
<polygon fill="#9a32cd" stroke="#9a32cd" points="1298.25,-342.13 1288.25,-345.63 1298.25,-349.13 1298.25,-342.13"/>
</a>
</g>
<text text-anchor="middle" x="1329.88" y="-347.38" font-family="Helvetica,sans-Serif" font-size="10.00" fill="grey"> m_imports</text>
</g>
<!-- Node30&#45;&gt;Node29 -->
<g id="edge37_Node000029_Node000030" class="edge">
<title>Node30&#45;&gt;Node29</title>
<g id="a_edge37_Node000029_Node000030"><a xlink:title=" ">
<path fill="none" stroke="#9a32cd" stroke-dasharray="5,2" d="M1022.67,-419.15C1037.25,-402.2 1061.22,-377.87 1087.75,-365.38 1110.85,-354.5 1138.39,-349.26 1162.64,-346.85"/>
<polygon fill="#9a32cd" stroke="#9a32cd" points="1020.24,-416.6 1016.54,-426.53 1025.62,-421.07 1020.24,-416.6"/>
</a>
</g>
<text text-anchor="middle" x="1115.88" y="-367.12" font-family="Helvetica,sans-Serif" font-size="10.00" fill="grey"> elements</text>
</g>
<!-- Node31&#45;&gt;Node1 -->
<g id="edge41_Node000001_Node000031" class="edge">
<title>Node31&#45;&gt;Node1</title>
<g id="a_edge41_Node000001_Node000031"><a xlink:title=" ">
<path fill="none" stroke="#9a32cd" stroke-dasharray="5,2" d="M937.57,-259.76C1029.31,-275.96 1167.38,-300.35 1287.5,-321.62 1315.44,-326.57 1346.63,-332.11 1372.01,-336.61"/>
<polygon fill="#9a32cd" stroke="#9a32cd" points="938.28,-256.33 927.83,-258.04 937.07,-263.22 938.28,-256.33"/>
</a>
</g>
<text text-anchor="middle" x="1115.88" y="-297.35" font-family="Helvetica,sans-Serif" font-size="10.00" fill="grey"> m_parsers</text>
</g>
</g>
</svg>
