<?xml version="1.0" encoding="UTF-8" standalone="no"?>
<!DOCTYPE svg PUBLIC "-//W3C//DTD SVG 1.1//EN"
 "http://www.w3.org/Graphics/SVG/1.1/DTD/svg11.dtd">
<!-- Generated by graphviz version 12.2.0 (20241103.1931)
 -->
<!-- Title: /Users/fola/Documents/ArkScript/Ark/include/Ark/Compiler/Macros/Processor.hpp Pages: 1 -->
<svg width="1353pt" height="337pt"
 viewBox="0.00 0.00 1352.62 337.25" xmlns="http://www.w3.org/2000/svg" xmlns:xlink="http://www.w3.org/1999/xlink">
<g id="graph0" class="graph" transform="scale(1 1) rotate(0) translate(4 333.25)">
<title>/Users/fola/Documents/ArkScript/Ark/include/Ark/Compiler/Macros/Processor.hpp</title>
<!-- Node1 -->
<g id="Node000001" class="node">
<title>Node1</title>
<g id="a_Node000001"><a xlink:title="Handles the macros and their expansion in ArkScript source code.">
<polygon fill="#999999" stroke="#666666" points="1191,-329.25 1014.5,-329.25 1014.5,-287.5 1191,-287.5 1191,-329.25"/>
<text text-anchor="start" x="1022.5" y="-315.75" font-family="Helvetica,sans-Serif" font-size="10.00">/Users/fola/Documents</text>
<text text-anchor="start" x="1022.5" y="-304.5" font-family="Helvetica,sans-Serif" font-size="10.00">/ArkScript/Ark/include</text>
<text text-anchor="middle" x="1102.75" y="-293.25" font-family="Helvetica,sans-Serif" font-size="10.00">/Ark/Compiler/Macros/Processor.hpp</text>
</a>
</g>
</g>
<!-- Node2 -->
<g id="Node000002" class="node">
<title>Node2</title>
<g id="a_Node000002"><a xlink:href="../../d5/d40/Platform_8hpp.html" target="_top" xlink:title="ArkScript configuration macros.">
<polygon fill="white" stroke="#666666" points="89.5,-129.75 0,-129.75 0,-110.5 89.5,-110.5 89.5,-129.75"/>
<text text-anchor="middle" x="44.75" y="-116.25" font-family="Helvetica,sans-Serif" font-size="10.00">Ark/Platform.hpp</text>
</a>
</g>
</g>
<!-- Node1&#45;&gt;Node2 -->
<g id="edge1_Node000001_Node000002" class="edge">
<title>Node1&#45;&gt;Node2</title>
<g id="a_edge1_Node000001_Node000002"><a xlink:title=" ">
<path fill="none" stroke="#63b8ff" d="M1014.24,-300.48C914.87,-292.02 749.03,-275.75 607.75,-251.5 412.44,-217.98 183.38,-158.58 88.9,-133.18"/>
<polygon fill="#63b8ff" stroke="#63b8ff" points="89.82,-129.81 79.25,-130.58 88,-136.56 89.82,-129.81"/>
</a>
</g>
</g>
<!-- Node3 -->
<g id="Node000003" class="node">
<title>Node3</title>
<g id="a_Node000003"><a xlink:href="../../d7/dc6/Node_8hpp.html" target="_top" xlink:title="AST node used by the parser, optimizer and compiler.">
<polygon fill="white" stroke="#666666" points="610,-185 469.5,-185 469.5,-165.75 610,-165.75 610,-185"/>
<text text-anchor="middle" x="539.75" y="-171.5" font-family="Helvetica,sans-Serif" font-size="10.00">Ark/Compiler/AST/Node.hpp</text>
</a>
</g>
</g>
<!-- Node1&#45;&gt;Node3 -->
<g id="edge2_Node000001_Node000003" class="edge">
<title>Node1&#45;&gt;Node3</title>
<g id="a_edge2_Node000001_Node000003"><a xlink:title=" ">
<path fill="none" stroke="#63b8ff" d="M1014.22,-305.04C926.99,-300.58 790.88,-287.82 678.75,-251.5 634.75,-237.25 588.41,-209.18 561.9,-191.68"/>
<polygon fill="#63b8ff" stroke="#63b8ff" points="563.95,-188.84 553.7,-186.17 560.05,-194.65 563.95,-188.84"/>
</a>
</g>
</g>
<!-- Node6 -->
<g id="Node000006" class="node">
<title>Node6</title>
<g id="a_Node000006"><a xlink:title=" ">
<polygon fill="#e0e0e0" stroke="#999999" points="724.75,-74.5 684.75,-74.5 684.75,-55.25 724.75,-55.25 724.75,-74.5"/>
<text text-anchor="middle" x="704.75" y="-61" font-family="Helvetica,sans-Serif" font-size="10.00">string</text>
</a>
</g>
</g>
<!-- Node1&#45;&gt;Node6 -->
<g id="edge39_Node000001_Node000006" class="edge">
<title>Node1&#45;&gt;Node6</title>
<g id="a_edge39_Node000001_Node000006"><a xlink:title=" ">
<path fill="none" stroke="#63b8ff" d="M1107.03,-287.22C1116.87,-239.68 1139.45,-123.5 1127.75,-110.5 1101.63,-81.48 830,-69.95 736.31,-66.82"/>
<polygon fill="#63b8ff" stroke="#63b8ff" points="736.67,-63.33 726.56,-66.51 736.45,-70.33 736.67,-63.33"/>
</a>
</g>
</g>
<!-- Node16 -->
<g id="Node000016" class="node">
<title>Node16</title>
<g id="a_Node000016"><a xlink:href="../../d7/dfb/MacroScope_8hpp.html" target="_top" xlink:title="Defines tools to handle macro definitions.">
<polygon fill="white" stroke="#666666" points="1238.88,-251.5 1130.62,-251.5 1130.62,-221 1238.88,-221 1238.88,-251.5"/>
<text text-anchor="start" x="1138.62" y="-238" font-family="Helvetica,sans-Serif" font-size="10.00">Ark/Compiler/Macros</text>
<text text-anchor="middle" x="1184.75" y="-226.75" font-family="Helvetica,sans-Serif" font-size="10.00">/MacroScope.hpp</text>
</a>
</g>
</g>
<!-- Node1&#45;&gt;Node16 -->
<g id="edge21_Node000001_Node000016" class="edge">
<title>Node1&#45;&gt;Node16</title>
<g id="a_edge21_Node000001_Node000016"><a xlink:title=" ">
<path fill="none" stroke="#63b8ff" d="M1126.47,-287.09C1136.64,-278.39 1148.54,-268.21 1158.94,-259.33"/>
<polygon fill="#63b8ff" stroke="#63b8ff" points="1161.12,-262.06 1166.45,-252.9 1156.57,-256.74 1161.12,-262.06"/>
</a>
</g>
</g>
<!-- Node17 -->
<g id="Node000017" class="node">
<title>Node17</title>
<g id="a_Node000017"><a xlink:title=" ">
<polygon fill="#e0e0e0" stroke="#999999" points="1295.12,-129.75 1212.38,-129.75 1212.38,-110.5 1295.12,-110.5 1295.12,-129.75"/>
<text text-anchor="middle" x="1253.75" y="-116.25" font-family="Helvetica,sans-Serif" font-size="10.00">unordered_map</text>
</a>
</g>
</g>
<!-- Node1&#45;&gt;Node17 -->
<g id="edge37_Node000001_Node000017" class="edge">
<title>Node1&#45;&gt;Node17</title>
<g id="a_edge37_Node000001_Node000017"><a xlink:title=" ">
<path fill="none" stroke="#63b8ff" d="M1191.33,-291.22C1213.13,-282.95 1234.11,-270.43 1247.75,-251.5 1271.3,-218.82 1265.04,-168.66 1259.01,-141.05"/>
<polygon fill="#63b8ff" stroke="#63b8ff" points="1262.47,-140.47 1256.72,-131.57 1255.66,-142.11 1262.47,-140.47"/>
</a>
</g>
</g>
<!-- Node18 -->
<g id="Node000018" class="node">
<title>Node18</title>
<g id="a_Node000018"><a xlink:href="../../df/d5f/Pass_8hpp.html" target="_top" xlink:title="Interface for a compiler pass (take in an AST, output an AST)">
<polygon fill="white" stroke="#666666" points="805.38,-245.88 688.12,-245.88 688.12,-226.62 805.38,-226.62 805.38,-245.88"/>
<text text-anchor="middle" x="746.75" y="-232.38" font-family="Helvetica,sans-Serif" font-size="10.00">Ark/Compiler/Pass.hpp</text>
</a>
</g>
</g>
<!-- Node1&#45;&gt;Node18 -->
<g id="edge25_Node000001_Node000018" class="edge">
<title>Node1&#45;&gt;Node18</title>
<g id="a_edge25_Node000001_Node000018"><a xlink:title=" ">
<path fill="none" stroke="#63b8ff" d="M1014.29,-289.95C948.6,-277.01 860.9,-259.74 804.12,-248.55"/>
<polygon fill="#63b8ff" stroke="#63b8ff" points="804.82,-245.12 794.33,-246.62 803.47,-251.99 804.82,-245.12"/>
</a>
</g>
</g>
<!-- Node25 -->
<g id="Node000025" class="node">
<title>Node25</title>
<g id="a_Node000025"><a xlink:title=" ">
<polygon fill="#e0e0e0" stroke="#999999" points="1344.62,-245.88 1294.88,-245.88 1294.88,-226.62 1344.62,-226.62 1344.62,-245.88"/>
<text text-anchor="middle" x="1319.75" y="-232.38" font-family="Helvetica,sans-Serif" font-size="10.00">optional</text>
</a>
</g>
</g>
<!-- Node1&#45;&gt;Node25 -->
<g id="edge38_Node000001_Node000025" class="edge">
<title>Node1&#45;&gt;Node25</title>
<g id="a_edge38_Node000001_Node000025"><a xlink:title=" ">
<path fill="none" stroke="#63b8ff" d="M1170.19,-287.01C1203.57,-276.72 1244.41,-263.84 1280.75,-251.5 1282.09,-251.04 1283.46,-250.57 1284.84,-250.09"/>
<polygon fill="#63b8ff" stroke="#63b8ff" points="1285.79,-253.47 1294.04,-246.82 1283.45,-246.87 1285.79,-253.47"/>
</a>
</g>
</g>
<!-- Node3&#45;&gt;Node2 -->
<g id="edge20_Node000003_Node000002" class="edge">
<title>Node3&#45;&gt;Node2</title>
<g id="a_edge20_Node000003_Node000002"><a xlink:title=" ">
<path fill="none" stroke="#63b8ff" d="M469.34,-168.51C384.47,-161.15 237.26,-147.5 100.86,-129.95"/>
<polygon fill="#63b8ff" stroke="#63b8ff" points="101.67,-126.53 91.3,-128.71 100.77,-133.47 101.67,-126.53"/>
</a>
</g>
</g>
<!-- Node4 -->
<g id="Node000004" class="node">
<title>Node4</title>
<g id="a_Node000004"><a xlink:title=" ">
<polygon fill="#e0e0e0" stroke="#999999" points="305.38,-129.75 260.12,-129.75 260.12,-110.5 305.38,-110.5 305.38,-129.75"/>
<text text-anchor="middle" x="282.75" y="-116.25" font-family="Helvetica,sans-Serif" font-size="10.00">variant</text>
</a>
</g>
</g>
<!-- Node3&#45;&gt;Node4 -->
<g id="edge3_Node000003_Node000004" class="edge">
<title>Node3&#45;&gt;Node4</title>
<g id="a_edge3_Node000003_Node000004"><a xlink:title=" ">
<path fill="none" stroke="#63b8ff" d="M487.9,-165.3C444.44,-157.44 380.55,-145.26 316.78,-130.34"/>
<polygon fill="#63b8ff" stroke="#63b8ff" points="317.73,-126.97 307.2,-128.08 316.12,-133.78 317.73,-126.97"/>
</a>
</g>
</g>
<!-- Node5 -->
<g id="Node000005" class="node">
<title>Node5</title>
<g id="a_Node000005"><a xlink:title=" ">
<polygon fill="#e0e0e0" stroke="#999999" points="374.38,-129.75 323.12,-129.75 323.12,-110.5 374.38,-110.5 374.38,-129.75"/>
<text text-anchor="middle" x="348.75" y="-116.25" font-family="Helvetica,sans-Serif" font-size="10.00">ostream</text>
</a>
</g>
</g>
<!-- Node3&#45;&gt;Node5 -->
<g id="edge4_Node000003_Node000005" class="edge">
<title>Node3&#45;&gt;Node5</title>
<g id="a_edge4_Node000003_Node000005"><a xlink:title=" ">
<path fill="none" stroke="#63b8ff" d="M507.35,-165.34C473.64,-155.94 420.95,-141.25 385.65,-131.41"/>
<polygon fill="#63b8ff" stroke="#63b8ff" points="386.88,-128.12 376.31,-128.81 385,-134.87 386.88,-128.12"/>
</a>
</g>
</g>
<!-- Node3&#45;&gt;Node6 -->
<g id="edge5_Node000003_Node000006" class="edge">
<title>Node3&#45;&gt;Node6</title>
<g id="a_edge5_Node000003_Node000006"><a xlink:title=" ">
<path fill="none" stroke="#63b8ff" d="M553.53,-165.31C581.87,-146.68 646.93,-103.9 681.76,-81"/>
<polygon fill="#63b8ff" stroke="#63b8ff" points="683.42,-84.09 689.86,-75.67 679.58,-78.24 683.42,-84.09"/>
</a>
</g>
</g>
<!-- Node7 -->
<g id="Node000007" class="node">
<title>Node7</title>
<g id="a_Node000007"><a xlink:title=" ">
<polygon fill="#e0e0e0" stroke="#999999" points="588.25,-74.5 545.25,-74.5 545.25,-55.25 588.25,-55.25 588.25,-74.5"/>
<text text-anchor="middle" x="566.75" y="-61" font-family="Helvetica,sans-Serif" font-size="10.00">vector</text>
</a>
</g>
</g>
<!-- Node3&#45;&gt;Node7 -->
<g id="edge6_Node000003_Node000007" class="edge">
<title>Node3&#45;&gt;Node7</title>
<g id="a_edge6_Node000003_Node000007"><a xlink:title=" ">
<path fill="none" stroke="#63b8ff" d="M548.8,-165.42C556.59,-157.04 567.26,-143.73 571.75,-129.75 576.34,-115.47 574.71,-98.5 572.13,-85.65"/>
<polygon fill="#63b8ff" stroke="#63b8ff" points="575.62,-85.19 569.9,-76.27 568.81,-86.81 575.62,-85.19"/>
</a>
</g>
</g>
<!-- Node8 -->
<g id="Node000008" class="node">
<title>Node8</title>
<g id="a_Node000008"><a xlink:href="../../da/d33/Namespace_8hpp.html" target="_top" xlink:title=" ">
<polygon fill="white" stroke="#666666" points="562.62,-129.75 392.88,-129.75 392.88,-110.5 562.62,-110.5 562.62,-129.75"/>
<text text-anchor="middle" x="477.75" y="-116.25" font-family="Helvetica,sans-Serif" font-size="10.00">Ark/Compiler/AST/Namespace.hpp</text>
</a>
</g>
</g>
<!-- Node3&#45;&gt;Node8 -->
<g id="edge7_Node000003_Node000008" class="edge">
<title>Node3&#45;&gt;Node8</title>
<g id="a_edge7_Node000003_Node000008"><a xlink:title=" ">
<path fill="none" stroke="#63b8ff" d="M529.23,-165.34C520.36,-157.72 507.44,-146.62 496.76,-137.45"/>
<polygon fill="#63b8ff" stroke="#63b8ff" points="499.13,-134.87 489.26,-131.01 494.57,-140.18 499.13,-134.87"/>
</a>
</g>
</g>
<!-- Node10 -->
<g id="Node000010" class="node">
<title>Node10</title>
<g id="a_Node000010"><a xlink:href="../../d8/ddd/Common_8hpp.html" target="_top" xlink:title="Common code for the compiler.">
<polygon fill="white" stroke="#666666" points="242,-129.75 107.5,-129.75 107.5,-110.5 242,-110.5 242,-129.75"/>
<text text-anchor="middle" x="174.75" y="-116.25" font-family="Helvetica,sans-Serif" font-size="10.00">Ark/Compiler/Common.hpp</text>
</a>
</g>
</g>
<!-- Node3&#45;&gt;Node10 -->
<g id="edge11_Node000003_Node000010" class="edge">
<title>Node3&#45;&gt;Node10</title>
<g id="a_edge11_Node000003_Node000010"><a xlink:title=" ">
<path fill="none" stroke="#63b8ff" d="M477.42,-165.28C414,-156.03 315.72,-141.69 248.48,-131.88"/>
<polygon fill="#63b8ff" stroke="#63b8ff" points="249.03,-128.42 238.63,-130.44 248.02,-135.35 249.03,-128.42"/>
</a>
</g>
</g>
<!-- Node8&#45;&gt;Node6 -->
<g id="edge8_Node000008_Node000006" class="edge">
<title>Node8&#45;&gt;Node6</title>
<g id="a_edge8_Node000008_Node000006"><a xlink:title=" ">
<path fill="none" stroke="#63b8ff" d="M516.51,-110.03C560.77,-99.65 632.32,-82.87 673.28,-73.26"/>
<polygon fill="#63b8ff" stroke="#63b8ff" points="674.05,-76.67 682.98,-70.98 672.45,-69.86 674.05,-76.67"/>
</a>
</g>
</g>
<!-- Node8&#45;&gt;Node7 -->
<g id="edge9_Node000008_Node000007" class="edge">
<title>Node8&#45;&gt;Node7</title>
<g id="a_edge9_Node000008_Node000007"><a xlink:title=" ">
<path fill="none" stroke="#63b8ff" d="M492.85,-110.09C506.27,-102.06 526.16,-90.16 541.92,-80.73"/>
<polygon fill="#63b8ff" stroke="#63b8ff" points="543.5,-83.87 550.28,-75.73 539.9,-77.86 543.5,-83.87"/>
</a>
</g>
</g>
<!-- Node9 -->
<g id="Node000009" class="node">
<title>Node9</title>
<g id="a_Node000009"><a xlink:title=" ">
<polygon fill="#e0e0e0" stroke="#999999" points="503.38,-74.5 452.12,-74.5 452.12,-55.25 503.38,-55.25 503.38,-74.5"/>
<text text-anchor="middle" x="477.75" y="-61" font-family="Helvetica,sans-Serif" font-size="10.00">memory</text>
</a>
</g>
</g>
<!-- Node8&#45;&gt;Node9 -->
<g id="edge10_Node000008_Node000009" class="edge">
<title>Node8&#45;&gt;Node9</title>
<g id="a_edge10_Node000008_Node000009"><a xlink:title=" ">
<path fill="none" stroke="#63b8ff" d="M477.75,-110.33C477.75,-103.82 477.75,-94.67 477.75,-86.37"/>
<polygon fill="#63b8ff" stroke="#63b8ff" points="481.25,-86.37 477.75,-76.37 474.25,-86.37 481.25,-86.37"/>
</a>
</g>
</g>
<!-- Node10&#45;&gt;Node7 -->
<g id="edge14_Node000010_Node000007" class="edge">
<title>Node10&#45;&gt;Node7</title>
<g id="a_edge14_Node000010_Node000007"><a xlink:title=" ">
<path fill="none" stroke="#63b8ff" d="M242.48,-110.73C310.77,-102.14 419.18,-88.15 512.75,-74.5 519.55,-73.51 526.82,-72.39 533.76,-71.29"/>
<polygon fill="#63b8ff" stroke="#63b8ff" points="534.15,-74.77 543.47,-69.73 533.04,-67.86 534.15,-74.77"/>
</a>
</g>
</g>
<!-- Node11 -->
<g id="Node000011" class="node">
<title>Node11</title>
<g id="a_Node000011"><a xlink:title=" ">
<polygon fill="#e0e0e0" stroke="#999999" points="107.62,-74.5 69.88,-74.5 69.88,-55.25 107.62,-55.25 107.62,-74.5"/>
<text text-anchor="middle" x="88.75" y="-61" font-family="Helvetica,sans-Serif" font-size="10.00">array</text>
</a>
</g>
</g>
<!-- Node10&#45;&gt;Node11 -->
<g id="edge12_Node000010_Node000011" class="edge">
<title>Node10&#45;&gt;Node11</title>
<g id="a_edge12_Node000010_Node000011"><a xlink:title=" ">
<path fill="none" stroke="#63b8ff" d="M160.16,-110.09C147.31,-102.14 128.34,-90.39 113.18,-81"/>
<polygon fill="#63b8ff" stroke="#63b8ff" points="115.04,-78.04 104.7,-75.75 111.36,-83.99 115.04,-78.04"/>
</a>
</g>
</g>
<!-- Node12 -->
<g id="Node000012" class="node">
<title>Node12</title>
<g id="a_Node000012"><a xlink:title=" ">
<polygon fill="#e0e0e0" stroke="#999999" points="169.5,-19.25 104,-19.25 104,0 169.5,0 169.5,-19.25"/>
<text text-anchor="middle" x="136.75" y="-5.75" font-family="Helvetica,sans-Serif" font-size="10.00">string_view</text>
</a>
</g>
</g>
<!-- Node10&#45;&gt;Node12 -->
<g id="edge13_Node000010_Node000012" class="edge">
<title>Node10&#45;&gt;Node12</title>
<g id="a_edge13_Node000010_Node000012"><a xlink:title=" ">
<path fill="none" stroke="#63b8ff" d="M170.21,-110.06C165.87,-101.15 159.32,-87.11 154.75,-74.5 149.5,-60.04 144.84,-43.29 141.57,-30.57"/>
<polygon fill="#63b8ff" stroke="#63b8ff" points="144.97,-29.76 139.16,-20.9 138.18,-31.45 144.97,-29.76"/>
</a>
</g>
</g>
<!-- Node13 -->
<g id="Node000013" class="node">
<title>Node13</title>
<g id="a_Node000013"><a xlink:title=" ">
<polygon fill="#e0e0e0" stroke="#999999" points="313.62,-19.25 257.88,-19.25 257.88,0 313.62,0 313.62,-19.25"/>
<text text-anchor="middle" x="285.75" y="-5.75" font-family="Helvetica,sans-Serif" font-size="10.00">cinttypes</text>
</a>
</g>
</g>
<!-- Node10&#45;&gt;Node13 -->
<g id="edge15_Node000010_Node000013" class="edge">
<title>Node10&#45;&gt;Node13</title>
<g id="a_edge15_Node000010_Node000013"><a xlink:title=" ">
<path fill="none" stroke="#63b8ff" d="M213.04,-110.03C233.02,-103.38 256.25,-92.32 270.75,-74.5 280.77,-62.19 284.33,-44.36 285.49,-30.66"/>
<polygon fill="#63b8ff" stroke="#63b8ff" points="288.97,-31.18 285.93,-21.03 281.97,-30.86 288.97,-31.18"/>
</a>
</g>
</g>
<!-- Node14 -->
<g id="Node000014" class="node">
<title>Node14</title>
<g id="a_Node000014"><a xlink:href="../../d6/de9/Constants_8hpp.html" target="_top" xlink:title="Constants used by ArkScript.">
<polygon fill="white" stroke="#666666" points="261.62,-74.5 163.88,-74.5 163.88,-55.25 261.62,-55.25 261.62,-74.5"/>
<text text-anchor="middle" x="212.75" y="-61" font-family="Helvetica,sans-Serif" font-size="10.00">Ark/Constants.hpp</text>
</a>
</g>
</g>
<!-- Node10&#45;&gt;Node14 -->
<g id="edge16_Node000010_Node000014" class="edge">
<title>Node10&#45;&gt;Node14</title>
<g id="a_edge16_Node000010_Node000014"><a xlink:title=" ">
<path fill="none" stroke="#63b8ff" d="M181.02,-110.33C186.11,-103.21 193.45,-92.93 199.78,-84.05"/>
<polygon fill="#63b8ff" stroke="#63b8ff" points="202.5,-86.26 205.46,-76.09 196.8,-82.2 202.5,-86.26"/>
</a>
</g>
</g>
<!-- Node14&#45;&gt;Node12 -->
<g id="edge17_Node000014_Node000012" class="edge">
<title>Node14&#45;&gt;Node12</title>
<g id="a_edge17_Node000014_Node000012"><a xlink:title=" ">
<path fill="none" stroke="#63b8ff" d="M199.86,-54.84C188.72,-47.04 172.38,-35.59 159.11,-26.29"/>
<polygon fill="#63b8ff" stroke="#63b8ff" points="161.14,-23.44 150.95,-20.57 157.13,-29.18 161.14,-23.44"/>
</a>
</g>
</g>
<!-- Node14&#45;&gt;Node13 -->
<g id="edge18_Node000014_Node000013" class="edge">
<title>Node14&#45;&gt;Node13</title>
<g id="a_edge18_Node000014_Node000013"><a xlink:title=" ">
<path fill="none" stroke="#63b8ff" d="M225.13,-54.84C235.9,-46.99 251.72,-35.45 264.5,-26.12"/>
<polygon fill="#63b8ff" stroke="#63b8ff" points="266.31,-29.14 272.33,-20.42 262.19,-23.48 266.31,-29.14"/>
</a>
</g>
</g>
<!-- Node15 -->
<g id="Node000015" class="node">
<title>Node15</title>
<g id="a_Node000015"><a xlink:title=" ">
<polygon fill="#e0e0e0" stroke="#999999" points="236.88,-19.25 188.62,-19.25 188.62,0 236.88,0 236.88,-19.25"/>
<text text-anchor="middle" x="212.75" y="-5.75" font-family="Helvetica,sans-Serif" font-size="10.00">cstddef</text>
</a>
</g>
</g>
<!-- Node14&#45;&gt;Node15 -->
<g id="edge19_Node000014_Node000015" class="edge">
<title>Node14&#45;&gt;Node15</title>
<g id="a_edge19_Node000014_Node000015"><a xlink:title=" ">
<path fill="none" stroke="#63b8ff" d="M212.75,-55.08C212.75,-48.57 212.75,-39.42 212.75,-31.12"/>
<polygon fill="#63b8ff" stroke="#63b8ff" points="216.25,-31.12 212.75,-21.12 209.25,-31.12 216.25,-31.12"/>
</a>
</g>
</g>
<!-- Node16&#45;&gt;Node3 -->
<g id="edge22_Node000016_Node000003" class="edge">
<title>Node16&#45;&gt;Node3</title>
<g id="a_edge22_Node000016_Node000003"><a xlink:title=" ">
<path fill="none" stroke="#63b8ff" d="M1130.31,-230.28C1017.06,-219.94 755.54,-196.07 621.77,-183.86"/>
<polygon fill="#63b8ff" stroke="#63b8ff" points="622.2,-180.39 611.92,-182.96 621.56,-187.36 622.2,-180.39"/>
</a>
</g>
</g>
<!-- Node16&#45;&gt;Node6 -->
<g id="edge24_Node000016_Node000006" class="edge">
<title>Node16&#45;&gt;Node6</title>
<g id="a_edge24_Node000016_Node000006"><a xlink:title=" ">
<path fill="none" stroke="#63b8ff" d="M1186.92,-220.7C1189.92,-194.35 1191.88,-138.88 1160.75,-110.5 1129.46,-81.98 834.85,-70.03 736.52,-66.82"/>
<polygon fill="#63b8ff" stroke="#63b8ff" points="736.64,-63.32 726.53,-66.5 736.41,-70.32 736.64,-63.32"/>
</a>
</g>
</g>
<!-- Node16&#45;&gt;Node17 -->
<g id="edge23_Node000016_Node000017" class="edge">
<title>Node16&#45;&gt;Node17</title>
<g id="a_edge23_Node000016_Node000017"><a xlink:title=" ">
<path fill="none" stroke="#63b8ff" d="M1193.49,-220.8C1205.89,-200.28 1228.62,-162.7 1242.34,-140"/>
<polygon fill="#63b8ff" stroke="#63b8ff" points="1245.3,-141.86 1247.48,-131.49 1239.31,-138.24 1245.3,-141.86"/>
</a>
</g>
</g>
<!-- Node18&#45;&gt;Node2 -->
<g id="edge26_Node000018_Node000002" class="edge">
<title>Node18&#45;&gt;Node2</title>
<g id="a_edge26_Node000018_Node000002"><a xlink:title=" ">
<path fill="none" stroke="#63b8ff" d="M690.78,-226.15C559.33,-204.78 232.05,-151.57 100.65,-130.21"/>
<polygon fill="#63b8ff" stroke="#63b8ff" points="101.6,-126.82 91.17,-128.67 100.48,-133.73 101.6,-126.82"/>
</a>
</g>
</g>
<!-- Node18&#45;&gt;Node3 -->
<g id="edge27_Node000018_Node000003" class="edge">
<title>Node18&#45;&gt;Node3</title>
<g id="a_edge27_Node000018_Node000003"><a xlink:title=" ">
<path fill="none" stroke="#63b8ff" d="M714.86,-226.18C679.38,-216.09 621.88,-199.73 582.51,-188.54"/>
<polygon fill="#63b8ff" stroke="#63b8ff" points="583.71,-185.24 573.13,-185.87 581.79,-191.97 583.71,-185.24"/>
</a>
</g>
</g>
<!-- Node19 -->
<g id="Node000019" class="node">
<title>Node19</title>
<g id="a_Node000019"><a xlink:href="../../d9/d11/Logger_8hpp.html" target="_top" xlink:title="Internal logger.">
<polygon fill="white" stroke="#666666" points="879.38,-185 798.12,-185 798.12,-165.75 879.38,-165.75 879.38,-185"/>
<text text-anchor="middle" x="838.75" y="-171.5" font-family="Helvetica,sans-Serif" font-size="10.00">Ark/Logger.hpp</text>
</a>
</g>
</g>
<!-- Node18&#45;&gt;Node19 -->
<g id="edge28_Node000018_Node000019" class="edge">
<title>Node18&#45;&gt;Node19</title>
<g id="a_edge28_Node000018_Node000019"><a xlink:title=" ">
<path fill="none" stroke="#63b8ff" d="M760.72,-226.31C775.18,-217.06 798.01,-202.45 815.25,-191.42"/>
<polygon fill="#63b8ff" stroke="#63b8ff" points="816.83,-194.56 823.37,-186.22 813.06,-188.66 816.83,-194.56"/>
</a>
</g>
</g>
<!-- Node19&#45;&gt;Node6 -->
<g id="edge31_Node000019_Node000006" class="edge">
<title>Node19&#45;&gt;Node6</title>
<g id="a_edge31_Node000019_Node000006"><a xlink:title=" ">
<path fill="none" stroke="#63b8ff" d="M797.71,-167.8C773.12,-161.83 742.99,-150.61 723.75,-129.75 712.82,-117.9 708.16,-100.02 706.18,-86.19"/>
<polygon fill="#63b8ff" stroke="#63b8ff" points="709.68,-86.01 705.17,-76.43 702.72,-86.73 709.68,-86.01"/>
</a>
</g>
</g>
<!-- Node19&#45;&gt;Node7 -->
<g id="edge34_Node000019_Node000007" class="edge">
<title>Node19&#45;&gt;Node7</title>
<g id="a_edge34_Node000019_Node000007"><a xlink:title=" ">
<path fill="none" stroke="#63b8ff" d="M809.81,-165.29C783.28,-156.76 743.03,-143.31 708.75,-129.75 668.85,-113.97 623.84,-93.2 595.4,-79.7"/>
<polygon fill="#63b8ff" stroke="#63b8ff" points="597.25,-76.7 586.72,-75.56 594.23,-83.02 597.25,-76.7"/>
</a>
</g>
</g>
<!-- Node19&#45;&gt;Node17 -->
<g id="edge35_Node000019_Node000017" class="edge">
<title>Node19&#45;&gt;Node17</title>
<g id="a_edge35_Node000019_Node000017"><a xlink:title=" ">
<path fill="none" stroke="#63b8ff" d="M879.68,-169.12C955.26,-159.43 1116.66,-138.72 1200.59,-127.95"/>
<polygon fill="#63b8ff" stroke="#63b8ff" points="1200.92,-131.43 1210.4,-126.69 1200.03,-124.49 1200.92,-131.43"/>
</a>
</g>
</g>
<!-- Node20 -->
<g id="Node000020" class="node">
<title>Node20</title>
<g id="a_Node000020"><a xlink:title=" ">
<polygon fill="#e0e0e0" stroke="#999999" points="786.5,-129.75 733,-129.75 733,-110.5 786.5,-110.5 786.5,-129.75"/>
<text text-anchor="middle" x="759.75" y="-116.25" font-family="Helvetica,sans-Serif" font-size="10.00">iostream</text>
</a>
</g>
</g>
<!-- Node19&#45;&gt;Node20 -->
<g id="edge29_Node000019_Node000020" class="edge">
<title>Node19&#45;&gt;Node20</title>
<g id="a_edge29_Node000019_Node000020"><a xlink:title=" ">
<path fill="none" stroke="#63b8ff" d="M825.35,-165.34C813.66,-157.46 796.45,-145.86 782.59,-136.52"/>
<polygon fill="#63b8ff" stroke="#63b8ff" points="784.72,-133.74 774.47,-131.05 780.81,-139.54 784.72,-133.74"/>
</a>
</g>
</g>
<!-- Node21 -->
<g id="Node000021" class="node">
<title>Node21</title>
<g id="a_Node000021"><a xlink:title=" ">
<polygon fill="#e0e0e0" stroke="#999999" points="873.38,-129.75 804.12,-129.75 804.12,-110.5 873.38,-110.5 873.38,-129.75"/>
<text text-anchor="middle" x="838.75" y="-116.25" font-family="Helvetica,sans-Serif" font-size="10.00">fmt/format.h</text>
</a>
</g>
</g>
<!-- Node19&#45;&gt;Node21 -->
<g id="edge30_Node000019_Node000021" class="edge">
<title>Node19&#45;&gt;Node21</title>
<g id="a_edge30_Node000019_Node000021"><a xlink:title=" ">
<path fill="none" stroke="#63b8ff" d="M838.75,-165.58C838.75,-159.07 838.75,-149.92 838.75,-141.62"/>
<polygon fill="#63b8ff" stroke="#63b8ff" points="842.25,-141.62 838.75,-131.62 835.25,-141.62 842.25,-141.62"/>
</a>
</g>
</g>
<!-- Node22 -->
<g id="Node000022" class="node">
<title>Node22</title>
<g id="a_Node000022"><a xlink:title=" ">
<polygon fill="#e0e0e0" stroke="#999999" points="936.38,-129.75 891.12,-129.75 891.12,-110.5 936.38,-110.5 936.38,-129.75"/>
<text text-anchor="middle" x="913.75" y="-116.25" font-family="Helvetica,sans-Serif" font-size="10.00">chrono</text>
</a>
</g>
</g>
<!-- Node19&#45;&gt;Node22 -->
<g id="edge32_Node000019_Node000022" class="edge">
<title>Node19&#45;&gt;Node22</title>
<g id="a_edge32_Node000019_Node000022"><a xlink:title=" ">
<path fill="none" stroke="#63b8ff" d="M851.47,-165.34C862.46,-157.54 878.59,-146.09 891.68,-136.79"/>
<polygon fill="#63b8ff" stroke="#63b8ff" points="893.6,-139.72 899.73,-131.08 889.55,-134.01 893.6,-139.72"/>
</a>
</g>
</g>
<!-- Node23 -->
<g id="Node000023" class="node">
<title>Node23</title>
<g id="a_Node000023"><a xlink:title=" ">
<polygon fill="#e0e0e0" stroke="#999999" points="1038.88,-129.75 954.62,-129.75 954.62,-110.5 1038.88,-110.5 1038.88,-129.75"/>
<text text-anchor="middle" x="996.75" y="-116.25" font-family="Helvetica,sans-Serif" font-size="10.00">source_location</text>
</a>
</g>
</g>
<!-- Node19&#45;&gt;Node23 -->
<g id="edge33_Node000019_Node000023" class="edge">
<title>Node19&#45;&gt;Node23</title>
<g id="a_edge33_Node000019_Node000023"><a xlink:title=" ">
<path fill="none" stroke="#63b8ff" d="M865.55,-165.34C891.2,-156.7 930.14,-143.57 958.94,-133.87"/>
<polygon fill="#63b8ff" stroke="#63b8ff" points="960.02,-137.2 968.38,-130.69 957.79,-130.56 960.02,-137.2"/>
</a>
</g>
</g>
<!-- Node24 -->
<g id="Node000024" class="node">
<title>Node24</title>
<g id="a_Node000024"><a xlink:title=" ">
<polygon fill="#e0e0e0" stroke="#999999" points="1118.62,-129.75 1056.88,-129.75 1056.88,-110.5 1118.62,-110.5 1118.62,-129.75"/>
<text text-anchor="middle" x="1087.75" y="-116.25" font-family="Helvetica,sans-Serif" font-size="10.00">fmt/color.h</text>
</a>
</g>
</g>
<!-- Node19&#45;&gt;Node24 -->
<g id="edge36_Node000019_Node000024" class="edge">
<title>Node19&#45;&gt;Node24</title>
<g id="a_edge36_Node000019_Node000024"><a xlink:title=" ">
<path fill="none" stroke="#63b8ff" d="M879.6,-165.68C919.43,-157.19 982.03,-143.84 1045.69,-130.19"/>
<polygon fill="#63b8ff" stroke="#63b8ff" points="1046.22,-133.65 1055.26,-128.13 1044.75,-126.81 1046.22,-133.65"/>
</a>
</g>
</g>
</g>
</svg>
