<?xml version="1.0" encoding="UTF-8" standalone="no"?>
<!DOCTYPE svg PUBLIC "-//W3C//DTD SVG 1.1//EN"
 "http://www.w3.org/Graphics/SVG/1.1/DTD/svg11.dtd">
<!-- Generated by graphviz version 12.2.0 (20241103.1931)
 -->
<!-- Title: /Users/fola/Documents/ArkScript/Ark/include/Ark/Compiler/Macros/Processor.hpp Pages: 1 -->
<!--zoomable 337 -->

<svg id="main" version="1.1" xmlns="http://www.w3.org/2000/svg" xmlns:xlink="http://www.w3.org/1999/xlink" xml:space="preserve" onload="init(evt)">

<style type="text/css"><![CDATA[
.node, .edge {opacity: 0.7;}
.node.selected, .edge.selected {opacity: 1;}
.edge:hover path { stroke: red; }
.edge:hover polygon { stroke: red; fill: red; }
]]></style>

<defs>
  <circle id="rim" cx="0" cy="0" r="7"/>
  <circle id="rim2" cx="0" cy="0" r="3.5"/>
  <g id="zoomPlus">
    <use xlink:href="#rim" fill="#404040"><set attributeName="fill" to="#808080" begin="zoomplus.mouseover" end="zoomplus.mouseout"/></use>
    <path d="M-4,0h8M0,-4v8" fill="none" stroke="white" stroke-width="1.5" pointer-events="none"/>
  </g>
  <g id="zoomMin">
    <use xlink:href="#rim" fill="#404040"><set attributeName="fill" to="#808080" begin="zoomminus.mouseover" end="zoomminus.mouseout"/></use>
    <path d="M-4,0h8" fill="none" stroke="white" stroke-width="1.5" pointer-events="none"/>
  </g>
  <g id="arrowUp" transform="translate(30 24)">
    <use xlink:href="#rim"/>
    <path pointer-events="none" fill="none" stroke="white" stroke-width="1.5" d="M0,-3.0v7 M-2.5,-0.5L0,-3.0L2.5,-0.5"/>
  </g>
  <g id="arrowRight" transform="rotate(90) translate(36 -43)">
    <use xlink:href="#rim"/>
    <path pointer-events="none" fill="none" stroke="white" stroke-width="1.5" d="M0,-3.0v7 M-2.5,-0.5L0,-3.0L2.5,-0.5"/>
  </g>
  <g id="arrowDown" transform="rotate(180) translate(-30 -48)">
    <use xlink:href="#rim"/>
    <path pointer-events="none" fill="none" stroke="white" stroke-width="1.5" d="M0,-3.0v7 M-2.5,-0.5L0,-3.0L2.5,-0.5"/>
  </g>
  <g id="arrowLeft" transform="rotate(270) translate(-36 17)">
    <use xlink:href="#rim"/>
    <path pointer-events="none" fill="none" stroke="white" stroke-width="1.5" d="M0,-3.0v7 M-2.5,-0.5L0,-3.0L2.5,-0.5"/>
  </g>
  <g id="resetDef">
    <use xlink:href="#rim2" fill="#404040"><set attributeName="fill" to="#808080" begin="reset.mouseover" end="reset.mouseout"/></use>
  </g>
</defs>
<script type="application/ecmascript">
var viewWidth = 1431;
var viewHeight = 337;
var sectionId = 'dynsection-0';
</script>
<script type="application/ecmascript" xlink:href="../../svg.min.js"/>
<svg id="graph" class="graph">
<g id="viewport">
<title>/Users/fola/Documents/ArkScript/Ark/include/Ark/Compiler/Macros/Processor.hpp</title>
<!-- Node1 -->
<g id="Node000001" class="node">
<title>Node1</title>
<g id="a_Node000001"><a xlink:title="Handles the macros and their expansion in ArkScript source code.">
<polygon fill="#999999" stroke="#666666" points="762.62,-329.25 586.12,-329.25 586.12,-287.5 762.62,-287.5 762.62,-329.25"/>
<text text-anchor="start" x="594.12" y="-315.75" font-family="Helvetica,sans-Serif" font-size="10.00">/Users/fola/Documents</text>
<text text-anchor="start" x="594.12" y="-304.5" font-family="Helvetica,sans-Serif" font-size="10.00">/ArkScript/Ark/include</text>
<text text-anchor="middle" x="674.38" y="-293.25" font-family="Helvetica,sans-Serif" font-size="10.00">/Ark/Compiler/Macros/Processor.hpp</text>
</a>
</g>
</g>
<!-- Node2 -->
<g id="Node000002" class="node">
<title>Node2</title>
<g id="a_Node000002"><a xlink:href="../../d5/d40/Platform_8hpp.html" target="_top" xlink:title="ArkScript configuration macros.">
<polygon fill="white" stroke="#666666" points="712.75,-74.5 600,-74.5 600,-55.25 712.75,-55.25 712.75,-74.5"/>
<text text-anchor="middle" x="656.38" y="-61" font-family="Helvetica,sans-Serif" font-size="10.00">Ark/Utils/Platform.hpp</text>
</a>
</g>
</g>
<!-- Node1&#45;&gt;Node2 -->
<g id="edge1_Node000001_Node000002" class="edge">
<title>Node1&#45;&gt;Node2</title>
<g id="a_edge1_Node000001_Node000002"><a xlink:title=" ">
<path fill="none" stroke="#63b8ff" d="M628.09,-287.14C589.23,-267.34 536.33,-233.12 512.38,-185 499.06,-158.26 536.61,-113.03 539.38,-110.5 556.04,-95.27 578.44,-85.06 599.17,-78.29"/>
<polygon fill="#63b8ff" stroke="#63b8ff" points="600.14,-81.66 608.7,-75.41 598.11,-74.96 600.14,-81.66"/>
</a>
</g>
</g>
<!-- Node3 -->
<g id="Node000003" class="node">
<title>Node3</title>
<g id="a_Node000003"><a xlink:href="../../d7/dc6/Node_8hpp.html" target="_top" xlink:title="AST node used by the parser, optimizer and compiler.">
<polygon fill="white" stroke="#666666" points="908.62,-185 768.12,-185 768.12,-165.75 908.62,-165.75 908.62,-185"/>
<text text-anchor="middle" x="838.38" y="-171.5" font-family="Helvetica,sans-Serif" font-size="10.00">Ark/Compiler/AST/Node.hpp</text>
</a>
</g>
</g>
<!-- Node1&#45;&gt;Node3 -->
<g id="edge2_Node000001_Node000003" class="edge">
<title>Node1&#45;&gt;Node3</title>
<g id="a_edge2_Node000001_Node000003"><a xlink:title=" ">
<path fill="none" stroke="#63b8ff" d="M762.8,-288.42C783.81,-280.16 804.43,-268.36 819.38,-251.5 832.75,-236.42 836.97,-213.26 838.18,-196.64"/>
<polygon fill="#63b8ff" stroke="#63b8ff" points="841.67,-197.1 838.56,-186.97 834.67,-196.82 841.67,-197.1"/>
</a>
</g>
</g>
<!-- Node6 -->
<g id="Node000006" class="node">
<title>Node6</title>
<g id="a_Node000006"><a xlink:title=" ">
<polygon fill="#e0e0e0" stroke="#999999" points="770.38,-74.5 730.38,-74.5 730.38,-55.25 770.38,-55.25 770.38,-74.5"/>
<text text-anchor="middle" x="750.38" y="-61" font-family="Helvetica,sans-Serif" font-size="10.00">string</text>
</a>
</g>
</g>
<!-- Node1&#45;&gt;Node6 -->
<g id="edge46_Node000001_Node000006" class="edge">
<title>Node1&#45;&gt;Node6</title>
<g id="a_edge46_Node000001_Node000006"><a xlink:title=" ">
<path fill="none" stroke="#63b8ff" d="M677.99,-287.28C681.36,-269.65 686.83,-243.4 693.38,-221 707.95,-171.14 730.42,-114.21 742.33,-85.16"/>
<polygon fill="#63b8ff" stroke="#63b8ff" points="745.43,-86.8 746.02,-76.22 738.96,-84.13 745.43,-86.8"/>
</a>
</g>
</g>
<!-- Node8 -->
<g id="Node000008" class="node">
<title>Node8</title>
<g id="a_Node000008"><a xlink:title=" ">
<polygon fill="#e0e0e0" stroke="#999999" points="1423.25,-74.5 1373.5,-74.5 1373.5,-55.25 1423.25,-55.25 1423.25,-74.5"/>
<text text-anchor="middle" x="1398.38" y="-61" font-family="Helvetica,sans-Serif" font-size="10.00">optional</text>
</a>
</g>
</g>
<!-- Node1&#45;&gt;Node8 -->
<g id="edge45_Node000001_Node000008" class="edge">
<title>Node1&#45;&gt;Node8</title>
<g id="a_edge45_Node000001_Node000008"><a xlink:title=" ">
<path fill="none" stroke="#63b8ff" d="M763.08,-307.53C906,-303.22 1189.18,-275.31 1367.38,-129.75 1381.1,-118.54 1389.18,-99.78 1393.64,-85.48"/>
<polygon fill="#63b8ff" stroke="#63b8ff" points="1396.9,-86.81 1396.17,-76.25 1390.15,-84.97 1396.9,-86.81"/>
</a>
</g>
</g>
<!-- Node19 -->
<g id="Node000019" class="node">
<title>Node19</title>
<g id="a_Node000019"><a xlink:href="../../d7/dfb/MacroScope_8hpp.html" target="_top" xlink:title="Defines tools to handle macro definitions.">
<polygon fill="white" stroke="#666666" points="810.5,-251.5 702.25,-251.5 702.25,-221 810.5,-221 810.5,-251.5"/>
<text text-anchor="start" x="710.25" y="-238" font-family="Helvetica,sans-Serif" font-size="10.00">Ark/Compiler/Macros</text>
<text text-anchor="middle" x="756.38" y="-226.75" font-family="Helvetica,sans-Serif" font-size="10.00">/MacroScope.hpp</text>
</a>
</g>
</g>
<!-- Node1&#45;&gt;Node19 -->
<g id="edge26_Node000001_Node000019" class="edge">
<title>Node1&#45;&gt;Node19</title>
<g id="a_edge26_Node000001_Node000019"><a xlink:title=" ">
<path fill="none" stroke="#63b8ff" d="M698.09,-287.09C708.26,-278.39 720.17,-268.21 730.56,-259.33"/>
<polygon fill="#63b8ff" stroke="#63b8ff" points="732.75,-262.06 738.07,-252.9 728.2,-256.74 732.75,-262.06"/>
</a>
</g>
</g>
<!-- Node20 -->
<g id="Node000020" class="node">
<title>Node20</title>
<g id="a_Node000020"><a xlink:title=" ">
<polygon fill="#e0e0e0" stroke="#999999" points="82.75,-74.5 0,-74.5 0,-55.25 82.75,-55.25 82.75,-74.5"/>
<text text-anchor="middle" x="41.38" y="-61" font-family="Helvetica,sans-Serif" font-size="10.00">unordered_map</text>
</a>
</g>
</g>
<!-- Node1&#45;&gt;Node20 -->
<g id="edge44_Node000001_Node000020" class="edge">
<title>Node1&#45;&gt;Node20</title>
<g id="a_edge44_Node000001_Node000020"><a xlink:title=" ">
<path fill="none" stroke="#63b8ff" d="M621.22,-287.1C495.03,-238.95 180.12,-118.81 75.66,-78.95"/>
<polygon fill="#63b8ff" stroke="#63b8ff" points="77.1,-75.76 66.51,-75.46 74.6,-82.3 77.1,-75.76"/>
</a>
</g>
</g>
<!-- Node21 -->
<g id="Node000021" class="node">
<title>Node21</title>
<g id="a_Node000021"><a xlink:href="../../df/d5f/Pass_8hpp.html" target="_top" xlink:title="Interface for a compiler pass.">
<polygon fill="white" stroke="#666666" points="639,-185 521.75,-185 521.75,-165.75 639,-165.75 639,-185"/>
<text text-anchor="middle" x="580.38" y="-171.5" font-family="Helvetica,sans-Serif" font-size="10.00">Ark/Compiler/Pass.hpp</text>
</a>
</g>
</g>
<!-- Node1&#45;&gt;Node21 -->
<g id="edge30_Node000001_Node000021" class="edge">
<title>Node1&#45;&gt;Node21</title>
<g id="a_edge30_Node000001_Node000021"><a xlink:title=" ">
<path fill="none" stroke="#63b8ff" d="M659.89,-287.19C641.69,-261.82 610.72,-218.66 593.28,-194.37"/>
<polygon fill="#63b8ff" stroke="#63b8ff" points="596.28,-192.53 587.6,-186.45 590.59,-196.61 596.28,-192.53"/>
</a>
</g>
</g>
<!-- Node3&#45;&gt;Node2 -->
<g id="edge22_Node000003_Node000002" class="edge">
<title>Node3&#45;&gt;Node2</title>
<g id="a_edge22_Node000003_Node000002"><a xlink:title=" ">
<path fill="none" stroke="#63b8ff" d="M820.66,-165.37C803.7,-156.63 777.5,-142.8 755.38,-129.75 728.67,-113.99 698.88,-94.5 679.02,-81.22"/>
<polygon fill="#63b8ff" stroke="#63b8ff" points="681.12,-78.41 670.87,-75.74 677.22,-84.22 681.12,-78.41"/>
</a>
</g>
</g>
<!-- Node4 -->
<g id="Node000004" class="node">
<title>Node4</title>
<g id="a_Node000004"><a xlink:title=" ">
<polygon fill="#e0e0e0" stroke="#999999" points="824,-129.75 778.75,-129.75 778.75,-110.5 824,-110.5 824,-129.75"/>
<text text-anchor="middle" x="801.38" y="-116.25" font-family="Helvetica,sans-Serif" font-size="10.00">variant</text>
</a>
</g>
</g>
<!-- Node3&#45;&gt;Node4 -->
<g id="edge3_Node000003_Node000004" class="edge">
<title>Node3&#45;&gt;Node4</title>
<g id="a_edge3_Node000003_Node000004"><a xlink:title=" ">
<path fill="none" stroke="#63b8ff" d="M832.27,-165.58C827.31,-158.46 820.17,-148.18 814,-139.3"/>
<polygon fill="#63b8ff" stroke="#63b8ff" points="817.06,-137.57 808.48,-131.35 811.31,-141.56 817.06,-137.57"/>
</a>
</g>
</g>
<!-- Node5 -->
<g id="Node000005" class="node">
<title>Node5</title>
<g id="a_Node000005"><a xlink:title=" ">
<polygon fill="#e0e0e0" stroke="#999999" points="608,-129.75 556.75,-129.75 556.75,-110.5 608,-110.5 608,-129.75"/>
<text text-anchor="middle" x="582.38" y="-116.25" font-family="Helvetica,sans-Serif" font-size="10.00">ostream</text>
</a>
</g>
</g>
<!-- Node3&#45;&gt;Node5 -->
<g id="edge4_Node000003_Node000005" class="edge">
<title>Node3&#45;&gt;Node5</title>
<g id="a_edge4_Node000003_Node000005"><a xlink:title=" ">
<path fill="none" stroke="#63b8ff" d="M793.67,-165.26C749.98,-156.32 681.57,-142.25 622.38,-129.75 621.37,-129.54 620.35,-129.32 619.33,-129.1"/>
<polygon fill="#63b8ff" stroke="#63b8ff" points="620.18,-125.71 609.67,-127.04 618.72,-132.55 620.18,-125.71"/>
</a>
</g>
</g>
<!-- Node3&#45;&gt;Node6 -->
<g id="edge5_Node000003_Node000006" class="edge">
<title>Node3&#45;&gt;Node6</title>
<g id="a_edge5_Node000003_Node000006"><a xlink:title=" ">
<path fill="none" stroke="#63b8ff" d="M816.74,-165.35C801.42,-157.92 781.52,-145.96 769.38,-129.75 759.81,-116.98 755.03,-99.43 752.67,-85.96"/>
<polygon fill="#63b8ff" stroke="#63b8ff" points="756.14,-85.49 751.27,-76.08 749.2,-86.47 756.14,-85.49"/>
</a>
</g>
</g>
<!-- Node7 -->
<g id="Node000007" class="node">
<title>Node7</title>
<g id="a_Node000007"><a xlink:title=" ">
<polygon fill="#e0e0e0" stroke="#999999" points="1037.88,-74.5 994.88,-74.5 994.88,-55.25 1037.88,-55.25 1037.88,-74.5"/>
<text text-anchor="middle" x="1016.38" y="-61" font-family="Helvetica,sans-Serif" font-size="10.00">vector</text>
</a>
</g>
</g>
<!-- Node3&#45;&gt;Node7 -->
<g id="edge6_Node000003_Node000007" class="edge">
<title>Node3&#45;&gt;Node7</title>
<g id="a_edge6_Node000003_Node000007"><a xlink:title=" ">
<path fill="none" stroke="#63b8ff" d="M908.82,-166.21C954.21,-159.33 1007.29,-147.69 1021.38,-129.75 1031.05,-117.44 1028.57,-99.35 1024.38,-85.57"/>
<polygon fill="#63b8ff" stroke="#63b8ff" points="1027.7,-84.46 1021.03,-76.23 1021.12,-86.83 1027.7,-84.46"/>
</a>
</g>
</g>
<!-- Node3&#45;&gt;Node8 -->
<g id="edge7_Node000003_Node000008" class="edge">
<title>Node3&#45;&gt;Node8</title>
<g id="a_edge7_Node000003_Node000008"><a xlink:title=" ">
<path fill="none" stroke="#63b8ff" d="M908.96,-174.44C1029.09,-173.52 1267.43,-166.88 1341.38,-129.75 1361.45,-119.67 1377.69,-99.23 1387.62,-84.18"/>
<polygon fill="#63b8ff" stroke="#63b8ff" points="1390.34,-86.43 1392.66,-76.09 1384.4,-82.73 1390.34,-86.43"/>
</a>
</g>
</g>
<!-- Node9 -->
<g id="Node000009" class="node">
<title>Node9</title>
<g id="a_Node000009"><a xlink:href="../../da/d33/Namespace_8hpp.html" target="_top" xlink:title=" ">
<polygon fill="white" stroke="#666666" points="1012.25,-129.75 842.5,-129.75 842.5,-110.5 1012.25,-110.5 1012.25,-129.75"/>
<text text-anchor="middle" x="927.38" y="-116.25" font-family="Helvetica,sans-Serif" font-size="10.00">Ark/Compiler/AST/Namespace.hpp</text>
</a>
</g>
</g>
<!-- Node3&#45;&gt;Node9 -->
<g id="edge8_Node000003_Node000009" class="edge">
<title>Node3&#45;&gt;Node9</title>
<g id="a_edge8_Node000003_Node000009"><a xlink:title=" ">
<path fill="none" stroke="#63b8ff" d="M853.47,-165.34C866.9,-157.31 886.79,-145.41 902.55,-135.98"/>
<polygon fill="#63b8ff" stroke="#63b8ff" points="904.12,-139.12 910.9,-130.98 900.53,-133.11 904.12,-139.12"/>
</a>
</g>
</g>
<!-- Node11 -->
<g id="Node000011" class="node">
<title>Node11</title>
<g id="a_Node000011"><a xlink:href="../../d8/ddd/Common_8hpp.html" target="_top" xlink:title="Common code for the compiler.">
<polygon fill="white" stroke="#666666" points="1332.62,-129.75 1198.12,-129.75 1198.12,-110.5 1332.62,-110.5 1332.62,-129.75"/>
<text text-anchor="middle" x="1265.38" y="-116.25" font-family="Helvetica,sans-Serif" font-size="10.00">Ark/Compiler/Common.hpp</text>
</a>
</g>
</g>
<!-- Node3&#45;&gt;Node11 -->
<g id="edge12_Node000003_Node000011" class="edge">
<title>Node3&#45;&gt;Node11</title>
<g id="a_edge12_Node000003_Node000011"><a xlink:title=" ">
<path fill="none" stroke="#63b8ff" d="M908.89,-165.58C985.31,-156.05 1106.97,-140.88 1186.51,-130.96"/>
<polygon fill="#63b8ff" stroke="#63b8ff" points="1186.94,-134.43 1196.43,-129.72 1186.07,-127.49 1186.94,-134.43"/>
</a>
</g>
</g>
<!-- Node18 -->
<g id="Node000018" class="node">
<title>Node18</title>
<g id="a_Node000018"><a xlink:href="../../dc/d58/Position_8hpp.html" target="_top" xlink:title="Defines position utilities (for text in a file) for the parser, formatter, diagnostics.">
<polygon fill="white" stroke="#666666" points="1180,-129.75 1068.75,-129.75 1068.75,-110.5 1180,-110.5 1180,-129.75"/>
<text text-anchor="middle" x="1124.38" y="-116.25" font-family="Helvetica,sans-Serif" font-size="10.00">Ark/Utils/Position.hpp</text>
</a>
</g>
</g>
<!-- Node3&#45;&gt;Node18 -->
<g id="edge23_Node000003_Node000018" class="edge">
<title>Node3&#45;&gt;Node18</title>
<g id="a_edge23_Node000003_Node000018"><a xlink:title=" ">
<path fill="none" stroke="#63b8ff" d="M887.22,-165.28C936.26,-156.15 1011.92,-142.06 1064.54,-132.26"/>
<polygon fill="#63b8ff" stroke="#63b8ff" points="1065.06,-135.73 1074.25,-130.46 1063.78,-128.85 1065.06,-135.73"/>
</a>
</g>
</g>
<!-- Node9&#45;&gt;Node6 -->
<g id="edge9_Node000009_Node000006" class="edge">
<title>Node9&#45;&gt;Node6</title>
<g id="a_edge9_Node000009_Node000006"><a xlink:title=" ">
<path fill="none" stroke="#63b8ff" d="M897.35,-110.09C865.15,-100.4 814.25,-85.09 781.59,-75.27"/>
<polygon fill="#63b8ff" stroke="#63b8ff" points="782.9,-72 772.31,-72.47 780.88,-78.71 782.9,-72"/>
</a>
</g>
</g>
<!-- Node9&#45;&gt;Node7 -->
<g id="edge10_Node000009_Node000007" class="edge">
<title>Node9&#45;&gt;Node7</title>
<g id="a_edge10_Node000009_Node000007"><a xlink:title=" ">
<path fill="none" stroke="#63b8ff" d="M942.47,-110.09C955.9,-102.06 975.79,-90.16 991.55,-80.73"/>
<polygon fill="#63b8ff" stroke="#63b8ff" points="993.12,-83.87 999.9,-75.73 989.53,-77.86 993.12,-83.87"/>
</a>
</g>
</g>
<!-- Node10 -->
<g id="Node000010" class="node">
<title>Node10</title>
<g id="a_Node000010"><a xlink:title=" ">
<polygon fill="#e0e0e0" stroke="#999999" points="953,-74.5 901.75,-74.5 901.75,-55.25 953,-55.25 953,-74.5"/>
<text text-anchor="middle" x="927.38" y="-61" font-family="Helvetica,sans-Serif" font-size="10.00">memory</text>
</a>
</g>
</g>
<!-- Node9&#45;&gt;Node10 -->
<g id="edge11_Node000009_Node000010" class="edge">
<title>Node9&#45;&gt;Node10</title>
<g id="a_edge11_Node000009_Node000010"><a xlink:title=" ">
<path fill="none" stroke="#63b8ff" d="M927.38,-110.33C927.38,-103.82 927.38,-94.67 927.38,-86.37"/>
<polygon fill="#63b8ff" stroke="#63b8ff" points="930.88,-86.37 927.38,-76.37 923.88,-86.37 930.88,-86.37"/>
</a>
</g>
</g>
<!-- Node11&#45;&gt;Node7 -->
<g id="edge15_Node000011_Node000007" class="edge">
<title>Node11&#45;&gt;Node7</title>
<g id="a_edge15_Node000011_Node000007"><a xlink:title=" ">
<path fill="none" stroke="#63b8ff" d="M1222.85,-110.03C1173.76,-99.53 1094.06,-82.49 1049.4,-72.94"/>
<polygon fill="#63b8ff" stroke="#63b8ff" points="1050.3,-69.55 1039.79,-70.88 1048.84,-76.4 1050.3,-69.55"/>
</a>
</g>
</g>
<!-- Node12 -->
<g id="Node000012" class="node">
<title>Node12</title>
<g id="a_Node000012"><a xlink:title=" ">
<polygon fill="#e0e0e0" stroke="#999999" points="1163.25,-74.5 1125.5,-74.5 1125.5,-55.25 1163.25,-55.25 1163.25,-74.5"/>
<text text-anchor="middle" x="1144.38" y="-61" font-family="Helvetica,sans-Serif" font-size="10.00">array</text>
</a>
</g>
</g>
<!-- Node11&#45;&gt;Node12 -->
<g id="edge13_Node000011_Node000012" class="edge">
<title>Node11&#45;&gt;Node12</title>
<g id="a_edge13_Node000011_Node000012"><a xlink:title=" ">
<path fill="none" stroke="#63b8ff" d="M1244.85,-110.09C1225.35,-101.51 1195.83,-88.52 1173.83,-78.84"/>
<polygon fill="#63b8ff" stroke="#63b8ff" points="1175.35,-75.68 1164.79,-74.86 1172.53,-82.09 1175.35,-75.68"/>
</a>
</g>
</g>
<!-- Node13 -->
<g id="Node000013" class="node">
<title>Node13</title>
<g id="a_Node000013"><a xlink:title=" ">
<polygon fill="#e0e0e0" stroke="#999999" points="1209.12,-19.25 1143.62,-19.25 1143.62,0 1209.12,0 1209.12,-19.25"/>
<text text-anchor="middle" x="1176.38" y="-5.75" font-family="Helvetica,sans-Serif" font-size="10.00">string_view</text>
</a>
</g>
</g>
<!-- Node11&#45;&gt;Node13 -->
<g id="edge14_Node000011_Node000013" class="edge">
<title>Node11&#45;&gt;Node13</title>
<g id="a_edge14_Node000011_Node000013"><a xlink:title=" ">
<path fill="none" stroke="#63b8ff" d="M1258.09,-110.25C1243.42,-92.36 1210.09,-51.72 1190.83,-28.25"/>
<polygon fill="#63b8ff" stroke="#63b8ff" points="1193.77,-26.31 1184.72,-20.8 1188.35,-30.75 1193.77,-26.31"/>
</a>
</g>
</g>
<!-- Node14 -->
<g id="Node000014" class="node">
<title>Node14</title>
<g id="a_Node000014"><a xlink:title=" ">
<polygon fill="#e0e0e0" stroke="#999999" points="1283.25,-19.25 1227.5,-19.25 1227.5,0 1283.25,0 1283.25,-19.25"/>
<text text-anchor="middle" x="1255.38" y="-5.75" font-family="Helvetica,sans-Serif" font-size="10.00">cinttypes</text>
</a>
</g>
</g>
<!-- Node11&#45;&gt;Node14 -->
<g id="edge16_Node000011_Node000014" class="edge">
<title>Node11&#45;&gt;Node14</title>
<g id="a_edge16_Node000011_Node000014"><a xlink:title=" ">
<path fill="none" stroke="#63b8ff" d="M1260.85,-110.18C1256.67,-101.36 1250.75,-87.38 1248.38,-74.5 1245.68,-59.85 1247.7,-43.11 1250.25,-30.44"/>
<polygon fill="#63b8ff" stroke="#63b8ff" points="1253.63,-31.37 1252.48,-20.84 1246.81,-29.79 1253.63,-31.37"/>
</a>
</g>
</g>
<!-- Node15 -->
<g id="Node000015" class="node">
<title>Node15</title>
<g id="a_Node000015"><a xlink:href="../../d6/de9/Constants_8hpp.html" target="_top" xlink:title="Constants used by ArkScript.">
<polygon fill="white" stroke="#666666" points="1355.25,-74.5 1257.5,-74.5 1257.5,-55.25 1355.25,-55.25 1355.25,-74.5"/>
<text text-anchor="middle" x="1306.38" y="-61" font-family="Helvetica,sans-Serif" font-size="10.00">Ark/Constants.hpp</text>
</a>
</g>
</g>
<!-- Node11&#45;&gt;Node15 -->
<g id="edge17_Node000011_Node000015" class="edge">
<title>Node11&#45;&gt;Node15</title>
<g id="a_edge17_Node000011_Node000015"><a xlink:title=" ">
<path fill="none" stroke="#63b8ff" d="M1272.15,-110.33C1277.69,-103.13 1285.72,-92.71 1292.6,-83.76"/>
<polygon fill="#63b8ff" stroke="#63b8ff" points="1295.21,-86.12 1298.53,-76.06 1289.66,-81.85 1295.21,-86.12"/>
</a>
</g>
</g>
<!-- Node15&#45;&gt;Node13 -->
<g id="edge18_Node000015_Node000013" class="edge">
<title>Node15&#45;&gt;Node13</title>
<g id="a_edge18_Node000015_Node000013"><a xlink:title=" ">
<path fill="none" stroke="#63b8ff" d="M1284.32,-54.84C1263.69,-46.39 1232.59,-33.65 1209.07,-24.02"/>
<polygon fill="#63b8ff" stroke="#63b8ff" points="1210.52,-20.83 1199.94,-20.28 1207.86,-27.31 1210.52,-20.83"/>
</a>
</g>
</g>
<!-- Node15&#45;&gt;Node14 -->
<g id="edge20_Node000015_Node000014" class="edge">
<title>Node15&#45;&gt;Node14</title>
<g id="a_edge20_Node000015_Node000014"><a xlink:title=" ">
<path fill="none" stroke="#63b8ff" d="M1297.95,-55.08C1290.84,-47.65 1280.43,-36.79 1271.69,-27.66"/>
<polygon fill="#63b8ff" stroke="#63b8ff" points="1274.47,-25.5 1265.03,-20.7 1269.42,-30.35 1274.47,-25.5"/>
</a>
</g>
</g>
<!-- Node16 -->
<g id="Node000016" class="node">
<title>Node16</title>
<g id="a_Node000016"><a xlink:title=" ">
<polygon fill="#e0e0e0" stroke="#999999" points="1341,-19.25 1301.75,-19.25 1301.75,0 1341,0 1341,-19.25"/>
<text text-anchor="middle" x="1321.38" y="-5.75" font-family="Helvetica,sans-Serif" font-size="10.00">limits</text>
</a>
</g>
</g>
<!-- Node15&#45;&gt;Node16 -->
<g id="edge19_Node000015_Node000016" class="edge">
<title>Node15&#45;&gt;Node16</title>
<g id="a_edge19_Node000015_Node000016"><a xlink:title=" ">
<path fill="none" stroke="#63b8ff" d="M1308.85,-55.08C1310.73,-48.42 1313.38,-38.99 1315.77,-30.53"/>
<polygon fill="#63b8ff" stroke="#63b8ff" points="1319.09,-31.64 1318.43,-21.07 1312.35,-29.74 1319.09,-31.64"/>
</a>
</g>
</g>
<!-- Node17 -->
<g id="Node000017" class="node">
<title>Node17</title>
<g id="a_Node000017"><a xlink:title=" ">
<polygon fill="#e0e0e0" stroke="#999999" points="1407.5,-19.25 1359.25,-19.25 1359.25,0 1407.5,0 1407.5,-19.25"/>
<text text-anchor="middle" x="1383.38" y="-5.75" font-family="Helvetica,sans-Serif" font-size="10.00">cstddef</text>
</a>
</g>
</g>
<!-- Node15&#45;&gt;Node17 -->
<g id="edge21_Node000015_Node000017" class="edge">
<title>Node15&#45;&gt;Node17</title>
<g id="a_edge21_Node000015_Node000017"><a xlink:title=" ">
<path fill="none" stroke="#63b8ff" d="M1319.44,-54.84C1330.83,-46.96 1347.6,-35.36 1361.11,-26.02"/>
<polygon fill="#63b8ff" stroke="#63b8ff" points="1362.77,-29.13 1369,-20.56 1358.79,-23.37 1362.77,-29.13"/>
</a>
</g>
</g>
<!-- Node18&#45;&gt;Node2 -->
<g id="edge25_Node000018_Node000002" class="edge">
<title>Node18&#45;&gt;Node2</title>
<g id="a_edge25_Node000018_Node000002"><a xlink:title=" ">
<path fill="none" stroke="#63b8ff" d="M1068.26,-113.3C992.57,-105.35 853.23,-90.43 724.33,-74.84"/>
<polygon fill="#63b8ff" stroke="#63b8ff" points="724.94,-71.39 714.59,-73.66 724.09,-78.34 724.94,-71.39"/>
</a>
</g>
</g>
<!-- Node18&#45;&gt;Node8 -->
<g id="edge24_Node000018_Node000008" class="edge">
<title>Node18&#45;&gt;Node8</title>
<g id="a_edge24_Node000018_Node000008"><a xlink:title=" ">
<path fill="none" stroke="#63b8ff" d="M1178.91,-110.02C1225.21,-102.06 1293.65,-89.74 1362.17,-74.87"/>
<polygon fill="#63b8ff" stroke="#63b8ff" points="1362.67,-78.34 1371.69,-72.79 1361.17,-71.51 1362.67,-78.34"/>
</a>
</g>
</g>
<!-- Node19&#45;&gt;Node3 -->
<g id="edge27_Node000019_Node000003" class="edge">
<title>Node19&#45;&gt;Node3</title>
<g id="a_edge27_Node000019_Node000003"><a xlink:title=" ">
<path fill="none" stroke="#63b8ff" d="M776.64,-220.7C788.77,-211.99 804.18,-200.93 816.57,-192.03"/>
<polygon fill="#63b8ff" stroke="#63b8ff" points="818.42,-195.01 824.5,-186.33 814.34,-189.32 818.42,-195.01"/>
</a>
</g>
</g>
<!-- Node19&#45;&gt;Node6 -->
<g id="edge29_Node000019_Node000006" class="edge">
<title>Node19&#45;&gt;Node6</title>
<g id="a_edge29_Node000019_Node000006"><a xlink:title=" ">
<path fill="none" stroke="#63b8ff" d="M755.85,-220.52C754.78,-190.26 752.33,-121.05 751.1,-86.41"/>
<polygon fill="#63b8ff" stroke="#63b8ff" points="754.6,-86.37 750.75,-76.5 747.61,-86.62 754.6,-86.37"/>
</a>
</g>
</g>
<!-- Node19&#45;&gt;Node20 -->
<g id="edge28_Node000019_Node000020" class="edge">
<title>Node19&#45;&gt;Node20</title>
<g id="a_edge28_Node000019_Node000020"><a xlink:title=" ">
<path fill="none" stroke="#63b8ff" d="M701.95,-224.76C652.41,-215.05 577.3,-199.89 512.38,-185 355.14,-148.94 169.96,-100.27 86.35,-77.96"/>
<polygon fill="#63b8ff" stroke="#63b8ff" points="87.26,-74.58 76.7,-75.38 85.45,-81.35 87.26,-74.58"/>
</a>
</g>
</g>
<!-- Node21&#45;&gt;Node2 -->
<g id="edge31_Node000021_Node000002" class="edge">
<title>Node21&#45;&gt;Node2</title>
<g id="a_edge31_Node000021_Node000002"><a xlink:title=" ">
<path fill="none" stroke="#63b8ff" d="M569.6,-165.34C555.78,-152.62 534.99,-128.95 547.38,-110.5 557.57,-95.31 573.94,-85.29 590.93,-78.68"/>
<polygon fill="#63b8ff" stroke="#63b8ff" points="591.82,-82.08 600.12,-75.49 589.52,-75.47 591.82,-82.08"/>
</a>
</g>
</g>
<!-- Node21&#45;&gt;Node5 -->
<g id="edge43_Node000021_Node000005" class="edge">
<title>Node21&#45;&gt;Node5</title>
<g id="a_edge43_Node000021_Node000005"><a xlink:title=" ">
<path fill="none" stroke="#63b8ff" d="M580.71,-165.58C580.95,-158.99 581.3,-149.71 581.62,-141.32"/>
<polygon fill="#63b8ff" stroke="#63b8ff" points="585.1,-141.75 581.98,-131.62 578.11,-141.48 585.1,-141.75"/>
</a>
</g>
</g>
<!-- Node22 -->
<g id="Node000022" class="node">
<title>Node22</title>
<g id="a_Node000022"><a xlink:href="../../d9/d11/Logger_8hpp.html" target="_top" xlink:title="Internal logger.">
<polygon fill="white" stroke="#666666" points="462.62,-129.75 358.12,-129.75 358.12,-110.5 462.62,-110.5 462.62,-129.75"/>
<text text-anchor="middle" x="410.38" y="-116.25" font-family="Helvetica,sans-Serif" font-size="10.00">Ark/Utils/Logger.hpp</text>
</a>
</g>
</g>
<!-- Node21&#45;&gt;Node22 -->
<g id="edge32_Node000021_Node000022" class="edge">
<title>Node21&#45;&gt;Node22</title>
<g id="a_edge32_Node000021_Node000022"><a xlink:title=" ">
<path fill="none" stroke="#63b8ff" d="M551.54,-165.34C523.7,-156.62 481.3,-143.34 450.24,-133.61"/>
<polygon fill="#63b8ff" stroke="#63b8ff" points="451.39,-130.3 440.8,-130.65 449.3,-136.98 451.39,-130.3"/>
</a>
</g>
</g>
<!-- Node22&#45;&gt;Node2 -->
<g id="edge42_Node000022_Node000002" class="edge">
<title>Node22&#45;&gt;Node2</title>
<g id="a_edge42_Node000022_Node000002"><a xlink:title=" ">
<path fill="none" stroke="#63b8ff" d="M452.38,-110.03C494.13,-100.99 558.29,-87.11 603.48,-77.32"/>
<polygon fill="#63b8ff" stroke="#63b8ff" points="604.03,-80.79 613.06,-75.25 602.55,-73.95 604.03,-80.79"/>
</a>
</g>
</g>
<!-- Node22&#45;&gt;Node6 -->
<g id="edge37_Node000022_Node000006" class="edge">
<title>Node22&#45;&gt;Node6</title>
<g id="a_edge37_Node000022_Node000006"><a xlink:title=" ">
<path fill="none" stroke="#63b8ff" d="M463.07,-113.95C522.96,-107.53 623.77,-95.14 718.9,-74.77"/>
<polygon fill="#63b8ff" stroke="#63b8ff" points="719.37,-78.25 728.4,-72.7 717.88,-71.41 719.37,-78.25"/>
</a>
</g>
</g>
<!-- Node22&#45;&gt;Node7 -->
<g id="edge40_Node000022_Node000007" class="edge">
<title>Node22&#45;&gt;Node7</title>
<g id="a_edge40_Node000022_Node000007"><a xlink:title=" ">
<path fill="none" stroke="#63b8ff" d="M463.02,-115.39C581.57,-106.91 866.56,-86.01 962.38,-74.5 969.2,-73.68 976.48,-72.63 983.42,-71.56"/>
<polygon fill="#63b8ff" stroke="#63b8ff" points="983.81,-75.04 993.13,-69.99 982.7,-68.13 983.81,-75.04"/>
</a>
</g>
</g>
<!-- Node22&#45;&gt;Node20 -->
<g id="edge41_Node000022_Node000020" class="edge">
<title>Node22&#45;&gt;Node20</title>
<g id="a_edge41_Node000022_Node000020"><a xlink:title=" ">
<path fill="none" stroke="#63b8ff" d="M357.7,-112.19C296.85,-104.09 193.43,-89.99 94.24,-74.75"/>
<polygon fill="#63b8ff" stroke="#63b8ff" points="95.02,-71.33 84.6,-73.26 93.95,-78.25 95.02,-71.33"/>
</a>
</g>
</g>
<!-- Node23 -->
<g id="Node000023" class="node">
<title>Node23</title>
<g id="a_Node000023"><a xlink:title=" ">
<polygon fill="#e0e0e0" stroke="#999999" points="415.12,-74.5 361.62,-74.5 361.62,-55.25 415.12,-55.25 415.12,-74.5"/>
<text text-anchor="middle" x="388.38" y="-61" font-family="Helvetica,sans-Serif" font-size="10.00">iostream</text>
</a>
</g>
</g>
<!-- Node22&#45;&gt;Node23 -->
<g id="edge33_Node000022_Node000023" class="edge">
<title>Node22&#45;&gt;Node23</title>
<g id="a_edge33_Node000022_Node000023"><a xlink:title=" ">
<path fill="none" stroke="#63b8ff" d="M406.74,-110.33C403.96,-103.59 400,-94.02 396.48,-85.49"/>
<polygon fill="#63b8ff" stroke="#63b8ff" points="399.72,-84.16 392.66,-76.26 393.25,-86.84 399.72,-84.16"/>
</a>
</g>
</g>
<!-- Node24 -->
<g id="Node000024" class="node">
<title>Node24</title>
<g id="a_Node000024"><a xlink:title=" ">
<polygon fill="#e0e0e0" stroke="#999999" points="502,-74.5 432.75,-74.5 432.75,-55.25 502,-55.25 502,-74.5"/>
<text text-anchor="middle" x="467.38" y="-61" font-family="Helvetica,sans-Serif" font-size="10.00">fmt/format.h</text>
</a>
</g>
</g>
<!-- Node22&#45;&gt;Node24 -->
<g id="edge34_Node000022_Node000024" class="edge">
<title>Node22&#45;&gt;Node24</title>
<g id="a_edge34_Node000022_Node000024"><a xlink:title=" ">
<path fill="none" stroke="#63b8ff" d="M420.04,-110.09C428.12,-102.55 439.84,-91.6 449.6,-82.48"/>
<polygon fill="#63b8ff" stroke="#63b8ff" points="451.82,-85.19 456.74,-75.81 447.05,-80.08 451.82,-85.19"/>
</a>
</g>
</g>
<!-- Node25 -->
<g id="Node000025" class="node">
<title>Node25</title>
<g id="a_Node000025"><a xlink:title=" ">
<polygon fill="#e0e0e0" stroke="#999999" points="582.25,-74.5 520.5,-74.5 520.5,-55.25 582.25,-55.25 582.25,-74.5"/>
<text text-anchor="middle" x="551.38" y="-61" font-family="Helvetica,sans-Serif" font-size="10.00">fmt/color.h</text>
</a>
</g>
</g>
<!-- Node22&#45;&gt;Node25 -->
<g id="edge35_Node000022_Node000025" class="edge">
<title>Node22&#45;&gt;Node25</title>
<g id="a_edge35_Node000022_Node000025"><a xlink:title=" ">
<path fill="none" stroke="#63b8ff" d="M434.29,-110.09C456.88,-101.56 491.01,-88.67 516.6,-79.01"/>
<polygon fill="#63b8ff" stroke="#63b8ff" points="517.8,-82.29 525.92,-75.49 515.33,-75.75 517.8,-82.29"/>
</a>
</g>
</g>
<!-- Node26 -->
<g id="Node000026" class="node">
<title>Node26</title>
<g id="a_Node000026"><a xlink:title=" ">
<polygon fill="#e0e0e0" stroke="#999999" points="177.75,-74.5 101,-74.5 101,-55.25 177.75,-55.25 177.75,-74.5"/>
<text text-anchor="middle" x="139.38" y="-61" font-family="Helvetica,sans-Serif" font-size="10.00">fmt/ostream.h</text>
</a>
</g>
</g>
<!-- Node22&#45;&gt;Node26 -->
<g id="edge36_Node000022_Node000026" class="edge">
<title>Node22&#45;&gt;Node26</title>
<g id="a_edge36_Node000022_Node000026"><a xlink:title=" ">
<path fill="none" stroke="#63b8ff" d="M364.1,-110.03C315.43,-100.47 239.12,-85.47 189.17,-75.66"/>
<polygon fill="#63b8ff" stroke="#63b8ff" points="189.98,-72.25 179.49,-73.76 188.63,-79.12 189.98,-72.25"/>
</a>
</g>
</g>
<!-- Node27 -->
<g id="Node000027" class="node">
<title>Node27</title>
<g id="a_Node000027"><a xlink:title=" ">
<polygon fill="#e0e0e0" stroke="#999999" points="241,-74.5 195.75,-74.5 195.75,-55.25 241,-55.25 241,-74.5"/>
<text text-anchor="middle" x="218.38" y="-61" font-family="Helvetica,sans-Serif" font-size="10.00">chrono</text>
</a>
</g>
</g>
<!-- Node22&#45;&gt;Node27 -->
<g id="edge38_Node000022_Node000027" class="edge">
<title>Node22&#45;&gt;Node27</title>
<g id="a_edge38_Node000022_Node000027"><a xlink:title=" ">
<path fill="none" stroke="#63b8ff" d="M377.8,-110.09C342.86,-100.4 287.61,-85.08 252.19,-75.25"/>
<polygon fill="#63b8ff" stroke="#63b8ff" points="253.47,-71.98 242.89,-72.68 251.6,-78.72 253.47,-71.98"/>
</a>
</g>
</g>
<!-- Node28 -->
<g id="Node000028" class="node">
<title>Node28</title>
<g id="a_Node000028"><a xlink:title=" ">
<polygon fill="#e0e0e0" stroke="#999999" points="343.5,-74.5 259.25,-74.5 259.25,-55.25 343.5,-55.25 343.5,-74.5"/>
<text text-anchor="middle" x="301.38" y="-61" font-family="Helvetica,sans-Serif" font-size="10.00">source_location</text>
</a>
</g>
</g>
<!-- Node22&#45;&gt;Node28 -->
<g id="edge39_Node000022_Node000028" class="edge">
<title>Node22&#45;&gt;Node28</title>
<g id="a_edge39_Node000022_Node000028"><a xlink:title=" ">
<path fill="none" stroke="#63b8ff" d="M391.88,-110.09C374.97,-101.83 349.69,-89.48 330.14,-79.93"/>
<polygon fill="#63b8ff" stroke="#63b8ff" points="331.84,-76.86 321.32,-75.62 328.76,-83.15 331.84,-76.86"/>
</a>
</g>
</g>
</g>
</svg>

<g id="navigator" transform="translate(0 0)" fill="#404254">
  <rect fill="#f2f5e9" fill-opacity="0.5" stroke="#606060" stroke-width=".5" x="0" y="0" width="60" height="60"/>
  <use id="zoomplus" xlink:href="#zoomPlus" x="17" y="9" onmousedown="handleZoom(evt,'in')"/>
  <use id="zoomminus" xlink:href="#zoomMin" x="42" y="9" onmousedown="handleZoom(evt,'out')"/>
  <use id="reset" xlink:href="#resetDef" x="30" y="36" onmousedown="handleReset()"/>
   <use id="arrowup" xlink:href="#arrowUp" x="0" y="0" onmousedown="handlePan(0,-1)"/>
  <use id="arrowright" xlink:href="#arrowRight" x="0" y="0" onmousedown="handlePan(1,0)"/>
  <use id="arrowdown" xlink:href="#arrowDown" x="0" y="0" onmousedown="handlePan(0,1)"/>
  <use id="arrowleft" xlink:href="#arrowLeft" x="0" y="0" onmousedown="handlePan(-1,0)"/>
</g>
<svg viewBox="0 0 15 15" width="100%" height="30px" preserveAspectRatio="xMaxYMin meet">
 <g id="arrow_out" transform="scale(0.3 0.3)">
  <a xlink:href="Processor_8hpp__incl_org.svg" target="_base">
   <rect id="button" ry="5" rx="5" y="6" x="6" height="38" width="38"
        fill="#f2f5e9" fill-opacity="0.5" stroke="#606060" stroke-width="1.0"/>
   <path id="arrow"
     d="M 11.500037,31.436501 C 11.940474,20.09759 22.043105,11.32322 32.158766,21.979434 L 37.068811,17.246167 C 37.068811,17.246167 37.088388,32 37.088388,32 L 22.160133,31.978069 C 22.160133,31.978069 26.997745,27.140456 26.997745,27.140456 C 18.528582,18.264221 13.291696,25.230495 11.500037,31.436501 z"
     style="fill:#404040;"/>
  </a>
 </g>
</svg>

<style type='text/css'>
<![CDATA[
[data-mouse-over-selected='false'] { opacity: 0.7; }
[data-mouse-over-selected='true']  { opacity: 1.0; }
]]>
</style>
<script type="application/ecmascript"><![CDATA[
document.addEventListener('DOMContentLoaded', (event) => {
  highlightEdges();
  highlightAdjacentNodes();
});
]]></script>
</svg>
