<?xml version="1.0" encoding="UTF-8" standalone="no"?>
<!DOCTYPE svg PUBLIC "-//W3C//DTD SVG 1.1//EN"
 "http://www.w3.org/Graphics/SVG/1.1/DTD/svg11.dtd">
<!-- Generated by graphviz version 12.2.0 (20241103.1931)
 -->
<!-- Title: /Users/fola/Documents/ArkScript/Ark/include/Ark/Compiler/Macros/Processor.hpp Pages: 1 -->
<svg width="1479pt" height="337pt"
 viewBox="0.00 0.00 1479.10 337.25" xmlns="http://www.w3.org/2000/svg" xmlns:xlink="http://www.w3.org/1999/xlink">
<g id="graph0" class="graph" transform="scale(1 1) rotate(0) translate(4 333.25)">
<title>/Users/fola/Documents/ArkScript/Ark/include/Ark/Compiler/Macros/Processor.hpp</title>
<!-- Node1 -->
<g id="Node000001" class="node">
<title>Node1</title>
<g id="a_Node000001"><a xlink:title="Handles the macros and their expansion in ArkScript source code.">
<polygon fill="#999999" stroke="#666666" points="733.62,-329.25 557.12,-329.25 557.12,-287.5 733.62,-287.5 733.62,-329.25"/>
<text text-anchor="start" x="565.12" y="-315.75" font-family="Helvetica,sans-Serif" font-size="10.00">/Users/fola/Documents</text>
<text text-anchor="start" x="565.12" y="-304.5" font-family="Helvetica,sans-Serif" font-size="10.00">/ArkScript/Ark/include</text>
<text text-anchor="middle" x="645.38" y="-293.25" font-family="Helvetica,sans-Serif" font-size="10.00">/Ark/Compiler/Macros/Processor.hpp</text>
</a>
</g>
</g>
<!-- Node2 -->
<g id="Node000002" class="node">
<title>Node2</title>
<g id="a_Node000002"><a xlink:href="../../d5/d40/Platform_8hpp.html" target="_top" xlink:title="ArkScript configuration macros.">
<polygon fill="white" stroke="#666666" points="112.75,-74.5 0,-74.5 0,-55.25 112.75,-55.25 112.75,-74.5"/>
<text text-anchor="middle" x="56.38" y="-61" font-family="Helvetica,sans-Serif" font-size="10.00">Ark/Utils/Platform.hpp</text>
</a>
</g>
</g>
<!-- Node1&#45;&gt;Node2 -->
<g id="edge1_Node000001_Node000002" class="edge">
<title>Node1&#45;&gt;Node2</title>
<g id="a_edge1_Node000001_Node000002"><a xlink:title=" ">
<path fill="none" stroke="#63b8ff" d="M556.75,-300.61C454.08,-291.85 291.78,-274.88 235.38,-251.5 152.83,-217.28 126.18,-203.26 75.38,-129.75 66.4,-116.77 61.6,-99.48 59.07,-86.17"/>
<polygon fill="#63b8ff" stroke="#63b8ff" points="62.54,-85.71 57.51,-76.39 55.62,-86.81 62.54,-85.71"/>
</a>
</g>
</g>
<!-- Node3 -->
<g id="Node000003" class="node">
<title>Node3</title>
<g id="a_Node000003"><a xlink:href="../../d7/dc6/Node_8hpp.html" target="_top" xlink:title="AST node used by the parser, optimizer and compiler.">
<polygon fill="white" stroke="#666666" points="628.62,-185 488.12,-185 488.12,-165.75 628.62,-165.75 628.62,-185"/>
<text text-anchor="middle" x="558.38" y="-171.5" font-family="Helvetica,sans-Serif" font-size="10.00">Ark/Compiler/AST/Node.hpp</text>
</a>
</g>
</g>
<!-- Node1&#45;&gt;Node3 -->
<g id="edge2_Node000001_Node000003" class="edge">
<title>Node1&#45;&gt;Node3</title>
<g id="a_edge2_Node000001_Node000003"><a xlink:title=" ">
<path fill="none" stroke="#63b8ff" d="M645.16,-287.16C644.05,-268.48 639.96,-240.72 626.38,-221 617.46,-208.06 603.45,-197.94 590.46,-190.63"/>
<polygon fill="#63b8ff" stroke="#63b8ff" points="592.2,-187.59 581.72,-186.07 588.97,-193.8 592.2,-187.59"/>
</a>
</g>
</g>
<!-- Node6 -->
<g id="Node000006" class="node">
<title>Node6</title>
<g id="a_Node000006"><a xlink:title=" ">
<polygon fill="#e0e0e0" stroke="#999999" points="957.38,-74.5 917.38,-74.5 917.38,-55.25 957.38,-55.25 957.38,-74.5"/>
<text text-anchor="middle" x="937.38" y="-61" font-family="Helvetica,sans-Serif" font-size="10.00">string</text>
</a>
</g>
</g>
<!-- Node1&#45;&gt;Node6 -->
<g id="edge44_Node000001_Node000006" class="edge">
<title>Node1&#45;&gt;Node6</title>
<g id="a_edge44_Node000001_Node000006"><a xlink:title=" ">
<path fill="none" stroke="#63b8ff" d="M733.93,-303.68C883.22,-296.76 1178.5,-279.93 1278.38,-251.5 1374.48,-224.14 1428.42,-221.76 1467.38,-129.75 1470.71,-121.87 1473.17,-116.8 1467.38,-110.5 1433.56,-73.72 1078.17,-67.23 969.06,-66.11"/>
<polygon fill="#63b8ff" stroke="#63b8ff" points="969.12,-62.61 959.08,-66.01 969.05,-69.61 969.12,-62.61"/>
</a>
</g>
</g>
<!-- Node8 -->
<g id="Node000008" class="node">
<title>Node8</title>
<g id="a_Node000008"><a xlink:title=" ">
<polygon fill="#e0e0e0" stroke="#999999" points="222.25,-74.5 172.5,-74.5 172.5,-55.25 222.25,-55.25 222.25,-74.5"/>
<text text-anchor="middle" x="197.38" y="-61" font-family="Helvetica,sans-Serif" font-size="10.00">optional</text>
</a>
</g>
</g>
<!-- Node1&#45;&gt;Node8 -->
<g id="edge43_Node000001_Node000008" class="edge">
<title>Node1&#45;&gt;Node8</title>
<g id="a_edge43_Node000001_Node000008"><a xlink:title=" ">
<path fill="none" stroke="#63b8ff" d="M556.86,-305.91C437.62,-298.58 229.2,-265.74 132.38,-129.75 118.69,-110.53 143.02,-92.02 165.71,-79.92"/>
<polygon fill="#63b8ff" stroke="#63b8ff" points="167.14,-83.12 174.52,-75.51 164.01,-76.86 167.14,-83.12"/>
</a>
</g>
</g>
<!-- Node19 -->
<g id="Node000019" class="node">
<title>Node19</title>
<g id="a_Node000019"><a xlink:href="../../d7/dfb/MacroScope_8hpp.html" target="_top" xlink:title="Defines tools to handle macro definitions.">
<polygon fill="white" stroke="#666666" points="1089.5,-251.5 981.25,-251.5 981.25,-221 1089.5,-221 1089.5,-251.5"/>
<text text-anchor="start" x="989.25" y="-238" font-family="Helvetica,sans-Serif" font-size="10.00">Ark/Compiler/Macros</text>
<text text-anchor="middle" x="1035.38" y="-226.75" font-family="Helvetica,sans-Serif" font-size="10.00">/MacroScope.hpp</text>
</a>
</g>
</g>
<!-- Node1&#45;&gt;Node19 -->
<g id="edge26_Node000001_Node000019" class="edge">
<title>Node1&#45;&gt;Node19</title>
<g id="a_edge26_Node000001_Node000019"><a xlink:title=" ">
<path fill="none" stroke="#63b8ff" d="M733.87,-291.46C805.53,-278.58 904.87,-260.72 969.62,-249.07"/>
<polygon fill="#63b8ff" stroke="#63b8ff" points="970.18,-252.53 979.41,-247.31 968.95,-245.64 970.18,-252.53"/>
</a>
</g>
</g>
<!-- Node20 -->
<g id="Node000020" class="node">
<title>Node20</title>
<g id="a_Node000020"><a xlink:title=" ">
<polygon fill="#e0e0e0" stroke="#999999" points="1458.75,-129.75 1376,-129.75 1376,-110.5 1458.75,-110.5 1458.75,-129.75"/>
<text text-anchor="middle" x="1417.38" y="-116.25" font-family="Helvetica,sans-Serif" font-size="10.00">unordered_map</text>
</a>
</g>
</g>
<!-- Node1&#45;&gt;Node20 -->
<g id="edge42_Node000001_Node000020" class="edge">
<title>Node1&#45;&gt;Node20</title>
<g id="a_edge42_Node000001_Node000020"><a xlink:title=" ">
<path fill="none" stroke="#63b8ff" d="M734.01,-303.63C908.77,-294.55 1289.48,-265.8 1388.38,-185 1401.8,-174.03 1409.26,-155.52 1413.24,-141.24"/>
<polygon fill="#63b8ff" stroke="#63b8ff" points="1416.63,-142.09 1415.55,-131.55 1409.83,-140.46 1416.63,-142.09"/>
</a>
</g>
</g>
<!-- Node21 -->
<g id="Node000021" class="node">
<title>Node21</title>
<g id="a_Node000021"><a xlink:href="../../df/d5f/Pass_8hpp.html" target="_top" xlink:title="Interface for a compiler pass (take in an AST, output an AST)">
<polygon fill="white" stroke="#666666" points="617,-245.88 499.75,-245.88 499.75,-226.62 617,-226.62 617,-245.88"/>
<text text-anchor="middle" x="558.38" y="-232.38" font-family="Helvetica,sans-Serif" font-size="10.00">Ark/Compiler/Pass.hpp</text>
</a>
</g>
</g>
<!-- Node1&#45;&gt;Node21 -->
<g id="edge30_Node000001_Node000021" class="edge">
<title>Node1&#45;&gt;Node21</title>
<g id="a_edge30_Node000001_Node000021"><a xlink:title=" ">
<path fill="none" stroke="#63b8ff" d="M620.21,-287.09C606.77,-276.26 590.48,-263.13 577.99,-253.06"/>
<polygon fill="#63b8ff" stroke="#63b8ff" points="580.46,-250.55 570.47,-247 576.06,-256 580.46,-250.55"/>
</a>
</g>
</g>
<!-- Node3&#45;&gt;Node2 -->
<g id="edge22_Node000003_Node000002" class="edge">
<title>Node3&#45;&gt;Node2</title>
<g id="a_edge22_Node000003_Node000002"><a xlink:title=" ">
<path fill="none" stroke="#63b8ff" d="M487.78,-171.98C383.7,-167.6 194.66,-156.2 132.38,-129.75 107.94,-119.37 85.4,-98.36 71.31,-83.26"/>
<polygon fill="#63b8ff" stroke="#63b8ff" points="73.99,-81.01 64.71,-75.91 68.78,-85.69 73.99,-81.01"/>
</a>
</g>
</g>
<!-- Node4 -->
<g id="Node000004" class="node">
<title>Node4</title>
<g id="a_Node000004"><a xlink:title=" ">
<polygon fill="#e0e0e0" stroke="#999999" points="581,-129.75 535.75,-129.75 535.75,-110.5 581,-110.5 581,-129.75"/>
<text text-anchor="middle" x="558.38" y="-116.25" font-family="Helvetica,sans-Serif" font-size="10.00">variant</text>
</a>
</g>
</g>
<!-- Node3&#45;&gt;Node4 -->
<g id="edge3_Node000003_Node000004" class="edge">
<title>Node3&#45;&gt;Node4</title>
<g id="a_edge3_Node000003_Node000004"><a xlink:title=" ">
<path fill="none" stroke="#63b8ff" d="M558.38,-165.58C558.38,-159.07 558.38,-149.92 558.38,-141.62"/>
<polygon fill="#63b8ff" stroke="#63b8ff" points="561.88,-141.62 558.38,-131.62 554.88,-141.62 561.88,-141.62"/>
</a>
</g>
</g>
<!-- Node5 -->
<g id="Node000005" class="node">
<title>Node5</title>
<g id="a_Node000005"><a xlink:title=" ">
<polygon fill="#e0e0e0" stroke="#999999" points="650,-129.75 598.75,-129.75 598.75,-110.5 650,-110.5 650,-129.75"/>
<text text-anchor="middle" x="624.38" y="-116.25" font-family="Helvetica,sans-Serif" font-size="10.00">ostream</text>
</a>
</g>
</g>
<!-- Node3&#45;&gt;Node5 -->
<g id="edge4_Node000003_Node000005" class="edge">
<title>Node3&#45;&gt;Node5</title>
<g id="a_edge4_Node000003_Node000005"><a xlink:title=" ">
<path fill="none" stroke="#63b8ff" d="M569.57,-165.34C579.11,-157.65 593.05,-146.4 604.48,-137.18"/>
<polygon fill="#63b8ff" stroke="#63b8ff" points="606.58,-139.98 612.17,-130.98 602.19,-134.53 606.58,-139.98"/>
</a>
</g>
</g>
<!-- Node3&#45;&gt;Node6 -->
<g id="edge5_Node000003_Node000006" class="edge">
<title>Node3&#45;&gt;Node6</title>
<g id="a_edge5_Node000003_Node000006"><a xlink:title=" ">
<path fill="none" stroke="#63b8ff" d="M629.05,-172.82C689.58,-169.35 777.99,-159.09 849.38,-129.75 876.78,-118.49 903.65,-97.03 920.35,-82.11"/>
<polygon fill="#63b8ff" stroke="#63b8ff" points="922.41,-84.97 927.4,-75.62 917.67,-79.81 922.41,-84.97"/>
</a>
</g>
</g>
<!-- Node7 -->
<g id="Node000007" class="node">
<title>Node7</title>
<g id="a_Node000007"><a xlink:title=" ">
<polygon fill="#e0e0e0" stroke="#999999" points="589.88,-74.5 546.88,-74.5 546.88,-55.25 589.88,-55.25 589.88,-74.5"/>
<text text-anchor="middle" x="568.38" y="-61" font-family="Helvetica,sans-Serif" font-size="10.00">vector</text>
</a>
</g>
</g>
<!-- Node3&#45;&gt;Node7 -->
<g id="edge6_Node000003_Node000007" class="edge">
<title>Node3&#45;&gt;Node7</title>
<g id="a_edge6_Node000003_Node000007"><a xlink:title=" ">
<path fill="none" stroke="#63b8ff" d="M548.6,-165.51C536.47,-153.37 518.33,-130.79 526.38,-110.5 530.7,-99.61 539.07,-89.82 547.22,-82.22"/>
<polygon fill="#63b8ff" stroke="#63b8ff" points="549.32,-85.03 554.61,-75.85 544.75,-79.72 549.32,-85.03"/>
</a>
</g>
</g>
<!-- Node3&#45;&gt;Node8 -->
<g id="edge7_Node000003_Node000008" class="edge">
<title>Node3&#45;&gt;Node8</title>
<g id="a_edge7_Node000003_Node000008"><a xlink:title=" ">
<path fill="none" stroke="#63b8ff" d="M487.74,-169.49C434.78,-164.1 361.24,-152.88 300.38,-129.75 283.87,-123.48 244.72,-97.96 219.72,-81.14"/>
<polygon fill="#63b8ff" stroke="#63b8ff" points="221.79,-78.31 211.54,-75.61 217.86,-84.11 221.79,-78.31"/>
</a>
</g>
</g>
<!-- Node9 -->
<g id="Node000009" class="node">
<title>Node9</title>
<g id="a_Node000009"><a xlink:href="../../da/d33/Namespace_8hpp.html" target="_top" xlink:title=" ">
<polygon fill="white" stroke="#666666" points="479.25,-129.75 309.5,-129.75 309.5,-110.5 479.25,-110.5 479.25,-129.75"/>
<text text-anchor="middle" x="394.38" y="-116.25" font-family="Helvetica,sans-Serif" font-size="10.00">Ark/Compiler/AST/Namespace.hpp</text>
</a>
</g>
</g>
<!-- Node3&#45;&gt;Node9 -->
<g id="edge8_Node000003_Node000009" class="edge">
<title>Node3&#45;&gt;Node9</title>
<g id="a_edge8_Node000003_Node000009"><a xlink:title=" ">
<path fill="none" stroke="#63b8ff" d="M530.55,-165.34C503.81,-156.66 463.16,-143.46 433.23,-133.74"/>
<polygon fill="#63b8ff" stroke="#63b8ff" points="434.36,-130.43 423.77,-130.67 432.2,-137.09 434.36,-130.43"/>
</a>
</g>
</g>
<!-- Node11 -->
<g id="Node000011" class="node">
<title>Node11</title>
<g id="a_Node000011"><a xlink:href="../../d8/ddd/Common_8hpp.html" target="_top" xlink:title="Common code for the compiler.">
<polygon fill="white" stroke="#666666" points="840.62,-129.75 706.12,-129.75 706.12,-110.5 840.62,-110.5 840.62,-129.75"/>
<text text-anchor="middle" x="773.38" y="-116.25" font-family="Helvetica,sans-Serif" font-size="10.00">Ark/Compiler/Common.hpp</text>
</a>
</g>
</g>
<!-- Node3&#45;&gt;Node11 -->
<g id="edge12_Node000003_Node000011" class="edge">
<title>Node3&#45;&gt;Node11</title>
<g id="a_edge12_Node000003_Node000011"><a xlink:title=" ">
<path fill="none" stroke="#63b8ff" d="M594.85,-165.34C630.91,-156.41 686.27,-142.7 725.78,-132.91"/>
<polygon fill="#63b8ff" stroke="#63b8ff" points="726.39,-136.37 735.26,-130.57 724.71,-129.57 726.39,-136.37"/>
</a>
</g>
</g>
<!-- Node18 -->
<g id="Node000018" class="node">
<title>Node18</title>
<g id="a_Node000018"><a xlink:href="../../dc/d58/Position_8hpp.html" target="_top" xlink:title="Defines position utilities (for text in a file) for the parser, formatter, diagnostics.">
<polygon fill="white" stroke="#666666" points="253,-129.75 141.75,-129.75 141.75,-110.5 253,-110.5 253,-129.75"/>
<text text-anchor="middle" x="197.38" y="-116.25" font-family="Helvetica,sans-Serif" font-size="10.00">Ark/Utils/Position.hpp</text>
</a>
</g>
</g>
<!-- Node3&#45;&gt;Node18 -->
<g id="edge23_Node000003_Node000018" class="edge">
<title>Node3&#45;&gt;Node18</title>
<g id="a_edge23_Node000003_Node000018"><a xlink:title=" ">
<path fill="none" stroke="#63b8ff" d="M496.73,-165.28C432.19,-155.76 331.17,-140.86 264.62,-131.04"/>
<polygon fill="#63b8ff" stroke="#63b8ff" points="265.33,-127.61 254.93,-129.61 264.31,-134.54 265.33,-127.61"/>
</a>
</g>
</g>
<!-- Node9&#45;&gt;Node6 -->
<g id="edge9_Node000009_Node000006" class="edge">
<title>Node9&#45;&gt;Node6</title>
<g id="a_edge9_Node000009_Node000006"><a xlink:title=" ">
<path fill="none" stroke="#63b8ff" d="M479.75,-112.66C606.81,-102.91 837.34,-84.66 905.77,-74.4"/>
<polygon fill="#63b8ff" stroke="#63b8ff" points="906.14,-77.89 915.41,-72.77 904.97,-70.99 906.14,-77.89"/>
</a>
</g>
</g>
<!-- Node9&#45;&gt;Node7 -->
<g id="edge10_Node000009_Node000007" class="edge">
<title>Node9&#45;&gt;Node7</title>
<g id="a_edge10_Node000009_Node000007"><a xlink:title=" ">
<path fill="none" stroke="#63b8ff" d="M423.89,-110.09C454.94,-100.59 503.67,-85.68 535.82,-75.84"/>
<polygon fill="#63b8ff" stroke="#63b8ff" points="536.46,-79.3 545,-73.03 534.41,-72.61 536.46,-79.3"/>
</a>
</g>
</g>
<!-- Node10 -->
<g id="Node000010" class="node">
<title>Node10</title>
<g id="a_Node000010"><a xlink:title=" ">
<polygon fill="#e0e0e0" stroke="#999999" points="420,-74.5 368.75,-74.5 368.75,-55.25 420,-55.25 420,-74.5"/>
<text text-anchor="middle" x="394.38" y="-61" font-family="Helvetica,sans-Serif" font-size="10.00">memory</text>
</a>
</g>
</g>
<!-- Node9&#45;&gt;Node10 -->
<g id="edge11_Node000009_Node000010" class="edge">
<title>Node9&#45;&gt;Node10</title>
<g id="a_edge11_Node000009_Node000010"><a xlink:title=" ">
<path fill="none" stroke="#63b8ff" d="M394.38,-110.33C394.38,-103.82 394.38,-94.67 394.38,-86.37"/>
<polygon fill="#63b8ff" stroke="#63b8ff" points="397.88,-86.37 394.38,-76.37 390.88,-86.37 397.88,-86.37"/>
</a>
</g>
</g>
<!-- Node11&#45;&gt;Node7 -->
<g id="edge15_Node000011_Node000007" class="edge">
<title>Node11&#45;&gt;Node7</title>
<g id="a_edge15_Node000011_Node000007"><a xlink:title=" ">
<path fill="none" stroke="#63b8ff" d="M738.6,-110.09C700.19,-100.12 638.82,-84.17 601.21,-74.4"/>
<polygon fill="#63b8ff" stroke="#63b8ff" points="602.38,-71.09 591.82,-71.96 600.62,-77.87 602.38,-71.09"/>
</a>
</g>
</g>
<!-- Node12 -->
<g id="Node000012" class="node">
<title>Node12</title>
<g id="a_Node000012"><a xlink:title=" ">
<polygon fill="#e0e0e0" stroke="#999999" points="707.25,-74.5 669.5,-74.5 669.5,-55.25 707.25,-55.25 707.25,-74.5"/>
<text text-anchor="middle" x="688.38" y="-61" font-family="Helvetica,sans-Serif" font-size="10.00">array</text>
</a>
</g>
</g>
<!-- Node11&#45;&gt;Node12 -->
<g id="edge13_Node000011_Node000012" class="edge">
<title>Node11&#45;&gt;Node12</title>
<g id="a_edge13_Node000011_Node000012"><a xlink:title=" ">
<path fill="none" stroke="#63b8ff" d="M758.96,-110.09C746.26,-102.14 727.5,-90.39 712.52,-81"/>
<polygon fill="#63b8ff" stroke="#63b8ff" points="714.48,-78.1 704.15,-75.76 710.76,-84.03 714.48,-78.1"/>
</a>
</g>
</g>
<!-- Node13 -->
<g id="Node000013" class="node">
<title>Node13</title>
<g id="a_Node000013"><a xlink:title=" ">
<polygon fill="#e0e0e0" stroke="#999999" points="753.12,-19.25 687.62,-19.25 687.62,0 753.12,0 753.12,-19.25"/>
<text text-anchor="middle" x="720.38" y="-5.75" font-family="Helvetica,sans-Serif" font-size="10.00">string_view</text>
</a>
</g>
</g>
<!-- Node11&#45;&gt;Node13 -->
<g id="edge14_Node000011_Node000013" class="edge">
<title>Node11&#45;&gt;Node13</title>
<g id="a_edge14_Node000011_Node000013"><a xlink:title=" ">
<path fill="none" stroke="#63b8ff" d="M769.04,-110.25C760.5,-92.76 741.33,-53.52 729.76,-29.84"/>
<polygon fill="#63b8ff" stroke="#63b8ff" points="732.97,-28.44 725.44,-20.99 726.68,-31.51 732.97,-28.44"/>
</a>
</g>
</g>
<!-- Node14 -->
<g id="Node000014" class="node">
<title>Node14</title>
<g id="a_Node000014"><a xlink:title=" ">
<polygon fill="#e0e0e0" stroke="#999999" points="827.25,-19.25 771.5,-19.25 771.5,0 827.25,0 827.25,-19.25"/>
<text text-anchor="middle" x="799.38" y="-5.75" font-family="Helvetica,sans-Serif" font-size="10.00">cinttypes</text>
</a>
</g>
</g>
<!-- Node11&#45;&gt;Node14 -->
<g id="edge16_Node000011_Node000014" class="edge">
<title>Node11&#45;&gt;Node14</title>
<g id="a_edge16_Node000011_Node000014"><a xlink:title=" ">
<path fill="none" stroke="#63b8ff" d="M775.5,-110.25C779.64,-93 788.84,-54.58 794.54,-30.81"/>
<polygon fill="#63b8ff" stroke="#63b8ff" points="797.94,-31.64 796.87,-21.1 791.13,-30.01 797.94,-31.64"/>
</a>
</g>
</g>
<!-- Node15 -->
<g id="Node000015" class="node">
<title>Node15</title>
<g id="a_Node000015"><a xlink:href="../../d6/de9/Constants_8hpp.html" target="_top" xlink:title="Constants used by ArkScript.">
<polygon fill="white" stroke="#666666" points="899.25,-74.5 801.5,-74.5 801.5,-55.25 899.25,-55.25 899.25,-74.5"/>
<text text-anchor="middle" x="850.38" y="-61" font-family="Helvetica,sans-Serif" font-size="10.00">Ark/Constants.hpp</text>
</a>
</g>
</g>
<!-- Node11&#45;&gt;Node15 -->
<g id="edge17_Node000011_Node000015" class="edge">
<title>Node11&#45;&gt;Node15</title>
<g id="a_edge17_Node000011_Node000015"><a xlink:title=" ">
<path fill="none" stroke="#63b8ff" d="M786.44,-110.09C797.83,-102.21 814.6,-90.61 828.11,-81.27"/>
<polygon fill="#63b8ff" stroke="#63b8ff" points="829.77,-84.38 836,-75.81 825.79,-78.62 829.77,-84.38"/>
</a>
</g>
</g>
<!-- Node15&#45;&gt;Node13 -->
<g id="edge18_Node000015_Node000013" class="edge">
<title>Node15&#45;&gt;Node13</title>
<g id="a_edge18_Node000015_Node000013"><a xlink:title=" ">
<path fill="none" stroke="#63b8ff" d="M828.32,-54.84C807.69,-46.39 776.59,-33.65 753.07,-24.02"/>
<polygon fill="#63b8ff" stroke="#63b8ff" points="754.52,-20.83 743.94,-20.28 751.86,-27.31 754.52,-20.83"/>
</a>
</g>
</g>
<!-- Node15&#45;&gt;Node14 -->
<g id="edge20_Node000015_Node000014" class="edge">
<title>Node15&#45;&gt;Node14</title>
<g id="a_edge20_Node000015_Node000014"><a xlink:title=" ">
<path fill="none" stroke="#63b8ff" d="M841.95,-55.08C834.84,-47.65 824.43,-36.79 815.69,-27.66"/>
<polygon fill="#63b8ff" stroke="#63b8ff" points="818.47,-25.5 809.03,-20.7 813.42,-30.35 818.47,-25.5"/>
</a>
</g>
</g>
<!-- Node16 -->
<g id="Node000016" class="node">
<title>Node16</title>
<g id="a_Node000016"><a xlink:title=" ">
<polygon fill="#e0e0e0" stroke="#999999" points="885,-19.25 845.75,-19.25 845.75,0 885,0 885,-19.25"/>
<text text-anchor="middle" x="865.38" y="-5.75" font-family="Helvetica,sans-Serif" font-size="10.00">limits</text>
</a>
</g>
</g>
<!-- Node15&#45;&gt;Node16 -->
<g id="edge19_Node000015_Node000016" class="edge">
<title>Node15&#45;&gt;Node16</title>
<g id="a_edge19_Node000015_Node000016"><a xlink:title=" ">
<path fill="none" stroke="#63b8ff" d="M852.85,-55.08C854.73,-48.42 857.38,-38.99 859.77,-30.53"/>
<polygon fill="#63b8ff" stroke="#63b8ff" points="863.09,-31.64 862.43,-21.07 856.35,-29.74 863.09,-31.64"/>
</a>
</g>
</g>
<!-- Node17 -->
<g id="Node000017" class="node">
<title>Node17</title>
<g id="a_Node000017"><a xlink:title=" ">
<polygon fill="#e0e0e0" stroke="#999999" points="951.5,-19.25 903.25,-19.25 903.25,0 951.5,0 951.5,-19.25"/>
<text text-anchor="middle" x="927.38" y="-5.75" font-family="Helvetica,sans-Serif" font-size="10.00">cstddef</text>
</a>
</g>
</g>
<!-- Node15&#45;&gt;Node17 -->
<g id="edge21_Node000015_Node000017" class="edge">
<title>Node15&#45;&gt;Node17</title>
<g id="a_edge21_Node000015_Node000017"><a xlink:title=" ">
<path fill="none" stroke="#63b8ff" d="M863.44,-54.84C874.83,-46.96 891.6,-35.36 905.11,-26.02"/>
<polygon fill="#63b8ff" stroke="#63b8ff" points="906.77,-29.13 913,-20.56 902.79,-23.37 906.77,-29.13"/>
</a>
</g>
</g>
<!-- Node18&#45;&gt;Node2 -->
<g id="edge25_Node000018_Node000002" class="edge">
<title>Node18&#45;&gt;Node2</title>
<g id="a_edge25_Node000018_Node000002"><a xlink:title=" ">
<path fill="none" stroke="#63b8ff" d="M173.46,-110.09C150.87,-101.56 116.74,-88.67 91.15,-79.01"/>
<polygon fill="#63b8ff" stroke="#63b8ff" points="92.42,-75.75 81.83,-75.49 89.95,-82.29 92.42,-75.75"/>
</a>
</g>
</g>
<!-- Node18&#45;&gt;Node8 -->
<g id="edge24_Node000018_Node000008" class="edge">
<title>Node18&#45;&gt;Node8</title>
<g id="a_edge24_Node000018_Node000008"><a xlink:title=" ">
<path fill="none" stroke="#63b8ff" d="M197.38,-110.33C197.38,-103.82 197.38,-94.67 197.38,-86.37"/>
<polygon fill="#63b8ff" stroke="#63b8ff" points="200.88,-86.37 197.38,-76.37 193.88,-86.37 200.88,-86.37"/>
</a>
</g>
</g>
<!-- Node19&#45;&gt;Node3 -->
<g id="edge27_Node000019_Node000003" class="edge">
<title>Node19&#45;&gt;Node3</title>
<g id="a_edge27_Node000019_Node000003"><a xlink:title=" ">
<path fill="none" stroke="#63b8ff" d="M981.12,-228.55C897.74,-218.26 737.53,-198.49 640.07,-186.46"/>
<polygon fill="#63b8ff" stroke="#63b8ff" points="640.65,-183 630.3,-185.25 639.79,-189.95 640.65,-183"/>
</a>
</g>
</g>
<!-- Node19&#45;&gt;Node6 -->
<g id="edge29_Node000019_Node000006" class="edge">
<title>Node19&#45;&gt;Node6</title>
<g id="a_edge29_Node000019_Node000006"><a xlink:title=" ">
<path fill="none" stroke="#63b8ff" d="M1089.76,-231.12C1193.1,-221.32 1401.37,-191.16 1329.38,-110.5 1305.5,-83.75 1058.4,-70.9 969.24,-67.11"/>
<polygon fill="#63b8ff" stroke="#63b8ff" points="969.39,-63.62 959.26,-66.7 969.1,-70.61 969.39,-63.62"/>
</a>
</g>
</g>
<!-- Node19&#45;&gt;Node20 -->
<g id="edge28_Node000019_Node000020" class="edge">
<title>Node19&#45;&gt;Node20</title>
<g id="a_edge28_Node000019_Node000020"><a xlink:title=" ">
<path fill="none" stroke="#63b8ff" d="M1089.76,-231.46C1170.27,-225.09 1316.6,-210.38 1362.38,-185 1381.53,-174.38 1397.09,-154.34 1406.71,-139.53"/>
<polygon fill="#63b8ff" stroke="#63b8ff" points="1409.59,-141.52 1411.84,-131.17 1403.62,-137.86 1409.59,-141.52"/>
</a>
</g>
</g>
<!-- Node21&#45;&gt;Node2 -->
<g id="edge31_Node000021_Node000002" class="edge">
<title>Node21&#45;&gt;Node2</title>
<g id="a_edge31_Node000021_Node000002"><a xlink:title=" ">
<path fill="none" stroke="#63b8ff" d="M499.44,-235.33C406.15,-232.69 222.35,-215.9 98.38,-129.75 82.55,-118.75 71.17,-99.69 64.28,-85.24"/>
<polygon fill="#63b8ff" stroke="#63b8ff" points="67.56,-84.01 60.32,-76.27 61.15,-86.83 67.56,-84.01"/>
</a>
</g>
</g>
<!-- Node21&#45;&gt;Node3 -->
<g id="edge32_Node000021_Node000003" class="edge">
<title>Node21&#45;&gt;Node3</title>
<g id="a_edge32_Node000021_Node000003"><a xlink:title=" ">
<path fill="none" stroke="#63b8ff" d="M558.38,-226.31C558.38,-218.53 558.38,-206.95 558.38,-196.91"/>
<polygon fill="#63b8ff" stroke="#63b8ff" points="561.88,-196.91 558.38,-186.91 554.88,-196.91 561.88,-196.91"/>
</a>
</g>
</g>
<!-- Node22 -->
<g id="Node000022" class="node">
<title>Node22</title>
<g id="a_Node000022"><a xlink:href="../../d9/d11/Logger_8hpp.html" target="_top" xlink:title="Internal logger.">
<polygon fill="white" stroke="#666666" points="1092.62,-185 988.12,-185 988.12,-165.75 1092.62,-165.75 1092.62,-185"/>
<text text-anchor="middle" x="1040.38" y="-171.5" font-family="Helvetica,sans-Serif" font-size="10.00">Ark/Utils/Logger.hpp</text>
</a>
</g>
</g>
<!-- Node21&#45;&gt;Node22 -->
<g id="edge33_Node000021_Node000022" class="edge">
<title>Node21&#45;&gt;Node22</title>
<g id="a_edge33_Node000021_Node000022"><a xlink:title=" ">
<path fill="none" stroke="#63b8ff" d="M617.48,-228.03C708.58,-216.9 882.57,-195.65 976.48,-184.18"/>
<polygon fill="#63b8ff" stroke="#63b8ff" points="976.8,-187.67 986.3,-182.98 975.95,-180.72 976.8,-187.67"/>
</a>
</g>
</g>
<!-- Node22&#45;&gt;Node6 -->
<g id="edge36_Node000022_Node000006" class="edge">
<title>Node22&#45;&gt;Node6</title>
<g id="a_edge36_Node000022_Node000006"><a xlink:title=" ">
<path fill="none" stroke="#63b8ff" d="M987.7,-167.4C964.55,-161.43 939.47,-150.34 925.38,-129.75 916.41,-116.66 920.92,-98.67 926.8,-85.12"/>
<polygon fill="#63b8ff" stroke="#63b8ff" points="929.84,-86.86 931.13,-76.35 923.56,-83.77 929.84,-86.86"/>
</a>
</g>
</g>
<!-- Node22&#45;&gt;Node7 -->
<g id="edge39_Node000022_Node000007" class="edge">
<title>Node22&#45;&gt;Node7</title>
<g id="a_edge39_Node000022_Node000007"><a xlink:title=" ">
<path fill="none" stroke="#63b8ff" d="M987.78,-173.04C919.45,-170.06 797.08,-160.5 697.38,-129.75 679.28,-124.17 676.32,-118.95 659.38,-110.5 638.54,-100.12 614.94,-88.55 596.99,-79.79"/>
<polygon fill="#63b8ff" stroke="#63b8ff" points="598.77,-76.76 588.24,-75.53 595.7,-83.05 598.77,-76.76"/>
</a>
</g>
</g>
<!-- Node22&#45;&gt;Node20 -->
<g id="edge40_Node000022_Node000020" class="edge">
<title>Node22&#45;&gt;Node20</title>
<g id="a_edge40_Node000022_Node000020"><a xlink:title=" ">
<path fill="none" stroke="#63b8ff" d="M1092.8,-166.97C1164.53,-156.84 1292.55,-138.76 1364.51,-128.59"/>
<polygon fill="#63b8ff" stroke="#63b8ff" points="1364.65,-132.11 1374.06,-127.24 1363.67,-125.18 1364.65,-132.11"/>
</a>
</g>
</g>
<!-- Node23 -->
<g id="Node000023" class="node">
<title>Node23</title>
<g id="a_Node000023"><a xlink:title=" ">
<polygon fill="#e0e0e0" stroke="#999999" points="988.12,-129.75 934.62,-129.75 934.62,-110.5 988.12,-110.5 988.12,-129.75"/>
<text text-anchor="middle" x="961.38" y="-116.25" font-family="Helvetica,sans-Serif" font-size="10.00">iostream</text>
</a>
</g>
</g>
<!-- Node22&#45;&gt;Node23 -->
<g id="edge34_Node000022_Node000023" class="edge">
<title>Node22&#45;&gt;Node23</title>
<g id="a_edge34_Node000022_Node000023"><a xlink:title=" ">
<path fill="none" stroke="#63b8ff" d="M1026.97,-165.34C1015.28,-157.46 998.07,-145.86 984.21,-136.52"/>
<polygon fill="#63b8ff" stroke="#63b8ff" points="986.35,-133.74 976.1,-131.05 982.43,-139.54 986.35,-133.74"/>
</a>
</g>
</g>
<!-- Node24 -->
<g id="Node000024" class="node">
<title>Node24</title>
<g id="a_Node000024"><a xlink:title=" ">
<polygon fill="#e0e0e0" stroke="#999999" points="1075,-129.75 1005.75,-129.75 1005.75,-110.5 1075,-110.5 1075,-129.75"/>
<text text-anchor="middle" x="1040.38" y="-116.25" font-family="Helvetica,sans-Serif" font-size="10.00">fmt/format.h</text>
</a>
</g>
</g>
<!-- Node22&#45;&gt;Node24 -->
<g id="edge35_Node000022_Node000024" class="edge">
<title>Node22&#45;&gt;Node24</title>
<g id="a_edge35_Node000022_Node000024"><a xlink:title=" ">
<path fill="none" stroke="#63b8ff" d="M1040.38,-165.58C1040.38,-159.07 1040.38,-149.92 1040.38,-141.62"/>
<polygon fill="#63b8ff" stroke="#63b8ff" points="1043.88,-141.62 1040.38,-131.62 1036.88,-141.62 1043.88,-141.62"/>
</a>
</g>
</g>
<!-- Node25 -->
<g id="Node000025" class="node">
<title>Node25</title>
<g id="a_Node000025"><a xlink:title=" ">
<polygon fill="#e0e0e0" stroke="#999999" points="1138,-129.75 1092.75,-129.75 1092.75,-110.5 1138,-110.5 1138,-129.75"/>
<text text-anchor="middle" x="1115.38" y="-116.25" font-family="Helvetica,sans-Serif" font-size="10.00">chrono</text>
</a>
</g>
</g>
<!-- Node22&#45;&gt;Node25 -->
<g id="edge37_Node000022_Node000025" class="edge">
<title>Node22&#45;&gt;Node25</title>
<g id="a_edge37_Node000022_Node000025"><a xlink:title=" ">
<path fill="none" stroke="#63b8ff" d="M1053.1,-165.34C1064.09,-157.54 1080.22,-146.09 1093.31,-136.79"/>
<polygon fill="#63b8ff" stroke="#63b8ff" points="1095.23,-139.72 1101.36,-131.08 1091.18,-134.01 1095.23,-139.72"/>
</a>
</g>
</g>
<!-- Node26 -->
<g id="Node000026" class="node">
<title>Node26</title>
<g id="a_Node000026"><a xlink:title=" ">
<polygon fill="#e0e0e0" stroke="#999999" points="1240.5,-129.75 1156.25,-129.75 1156.25,-110.5 1240.5,-110.5 1240.5,-129.75"/>
<text text-anchor="middle" x="1198.38" y="-116.25" font-family="Helvetica,sans-Serif" font-size="10.00">source_location</text>
</a>
</g>
</g>
<!-- Node22&#45;&gt;Node26 -->
<g id="edge38_Node000022_Node000026" class="edge">
<title>Node22&#45;&gt;Node26</title>
<g id="a_edge38_Node000022_Node000026"><a xlink:title=" ">
<path fill="none" stroke="#63b8ff" d="M1067.18,-165.34C1092.83,-156.7 1131.76,-143.57 1160.56,-133.87"/>
<polygon fill="#63b8ff" stroke="#63b8ff" points="1161.65,-137.2 1170.01,-130.69 1159.41,-130.56 1161.65,-137.2"/>
</a>
</g>
</g>
<!-- Node27 -->
<g id="Node000027" class="node">
<title>Node27</title>
<g id="a_Node000027"><a xlink:title=" ">
<polygon fill="#e0e0e0" stroke="#999999" points="1320.25,-129.75 1258.5,-129.75 1258.5,-110.5 1320.25,-110.5 1320.25,-129.75"/>
<text text-anchor="middle" x="1289.38" y="-116.25" font-family="Helvetica,sans-Serif" font-size="10.00">fmt/color.h</text>
</a>
</g>
</g>
<!-- Node22&#45;&gt;Node27 -->
<g id="edge41_Node000022_Node000027" class="edge">
<title>Node22&#45;&gt;Node27</title>
<g id="a_edge41_Node000022_Node000027"><a xlink:title=" ">
<path fill="none" stroke="#63b8ff" d="M1083.21,-165.26C1123.15,-156.75 1184.68,-143.62 1247.46,-130.16"/>
<polygon fill="#63b8ff" stroke="#63b8ff" points="1247.84,-133.65 1256.89,-128.13 1246.38,-126.81 1247.84,-133.65"/>
</a>
</g>
</g>
</g>
</svg>
