<?xml version="1.0" encoding="UTF-8" standalone="no"?>
<!DOCTYPE svg PUBLIC "-//W3C//DTD SVG 1.1//EN"
 "http://www.w3.org/Graphics/SVG/1.1/DTD/svg11.dtd">
<!-- Generated by graphviz version 12.2.0 (20241103.1931)
 -->
<!-- Title: Ark::internal::FunctionExecutor Pages: 1 -->
<svg width="1725pt" height="637pt"
 viewBox="0.00 0.00 1724.75 637.16" xmlns="http://www.w3.org/2000/svg" xmlns:xlink="http://www.w3.org/1999/xlink">
<g id="graph0" class="graph" transform="scale(1 1) rotate(0) translate(4 633.16)">
<title>Ark::internal::FunctionExecutor</title>
<!-- Node1 -->
<g id="Node000001" class="node">
<title>Node1</title>
<g id="a_Node000001"><a xlink:title="Handles function macros.">
<polygon fill="#999999" stroke="#666666" points="1143.25,-593.88 992.25,-593.88 992.25,-574.62 1143.25,-574.62 1143.25,-593.88"/>
<text text-anchor="middle" x="1067.75" y="-580.38" font-family="Helvetica,sans-Serif" font-size="10.00">Ark::internal::FunctionExecutor</text>
</a>
</g>
</g>
<!-- Node2 -->
<g id="Node000002" class="node">
<title>Node2</title>
<g id="a_Node000002"><a xlink:href="../../d5/d8f/classArk_1_1internal_1_1MacroExecutor.html" target="_top" xlink:title="A class that applies macros in a Node.">
<polygon fill="white" stroke="#666666" points="809.38,-601.88 668.88,-601.88 668.88,-582.62 809.38,-582.62 809.38,-601.88"/>
<text text-anchor="middle" x="739.12" y="-588.38" font-family="Helvetica,sans-Serif" font-size="10.00">Ark::internal::MacroExecutor</text>
</a>
</g>
</g>
<!-- Node2&#45;&gt;Node1 -->
<g id="edge1_Node000001_Node000002" class="edge">
<title>Node2&#45;&gt;Node1</title>
<g id="a_edge1_Node000001_Node000002"><a xlink:title=" ">
<path fill="none" stroke="#63b8ff" d="M821.03,-590.27C873.28,-588.99 940.76,-587.34 991.79,-586.09"/>
<polygon fill="#63b8ff" stroke="#63b8ff" points="821.22,-586.76 811.31,-590.51 821.39,-593.76 821.22,-586.76"/>
</a>
</g>
</g>
<!-- Node25 -->
<g id="Node000025" class="node">
<title>Node25</title>
<g id="a_Node000025"><a xlink:title=" ">
<polygon fill="white" stroke="#666666" points="1135,-555.5 1000.5,-555.5 1000.5,-525 1135,-525 1135,-555.5"/>
<text text-anchor="start" x="1008.5" y="-542" font-family="Helvetica,sans-Serif" font-size="10.00">std::shared_ptr&lt; Ark</text>
<text text-anchor="middle" x="1067.75" y="-530.75" font-family="Helvetica,sans-Serif" font-size="10.00">::internal::MacroExecutor &gt;</text>
</a>
</g>
</g>
<!-- Node2&#45;&gt;Node25 -->
<g id="edge35_Node000025_Node000002" class="edge">
<title>Node2&#45;&gt;Node25</title>
<g id="a_edge35_Node000025_Node000002"><a xlink:title=" ">
<path fill="none" stroke="#9a32cd" stroke-dasharray="5,2" d="M789.68,-579.49C802.59,-576.44 816.52,-573.38 829.5,-571 886.8,-560.5 952.52,-552.28 1000.24,-546.99"/>
<polygon fill="#9a32cd" stroke="#9a32cd" points="789.02,-576.05 780.12,-581.8 790.67,-582.86 789.02,-576.05"/>
</a>
</g>
<text text-anchor="middle" x="901.88" y="-572.75" font-family="Helvetica,sans-Serif" font-size="10.00" fill="grey"> ptr</text>
</g>
<!-- Node3 -->
<g id="Node000003" class="node">
<title>Node3</title>
<g id="a_Node000003"><a xlink:href="../../d5/db5/classArk_1_1internal_1_1MacroProcessor.html" target="_top" xlink:title="The class handling the macros definitions and calls, given an AST.">
<polygon fill="white" stroke="#666666" points="1716.75,-419.88 1571,-419.88 1571,-400.62 1716.75,-400.62 1716.75,-419.88"/>
<text text-anchor="middle" x="1643.88" y="-406.38" font-family="Helvetica,sans-Serif" font-size="10.00">Ark::internal::MacroProcessor</text>
</a>
</g>
</g>
<!-- Node3&#45;&gt;Node2 -->
<g id="edge2_Node000002_Node000003" class="edge">
<title>Node3&#45;&gt;Node2</title>
<g id="a_edge2_Node000002_Node000003"><a xlink:title=" ">
<path fill="none" stroke="#9a32cd" stroke-dasharray="5,2" d="M1629.02,-429.12C1603.25,-462.45 1544.3,-530.71 1475.75,-557.25 1242.35,-647.62 935.78,-620.25 804.4,-602.36"/>
<polygon fill="#9a32cd" stroke="#9a32cd" points="1631.5,-431.64 1634.75,-421.55 1625.92,-427.42 1631.5,-431.64"/>
</a>
</g>
<text text-anchor="middle" x="1217.88" y="-619.66" font-family="Helvetica,sans-Serif" font-size="10.00" fill="grey"> m_processor</text>
</g>
<!-- Node4 -->
<g id="Node000004" class="node">
<title>Node4</title>
<g id="a_Node000004"><a xlink:href="../../da/d7b/classArk_1_1internal_1_1Pass.html" target="_top" xlink:title="An interface to describe compiler passes.">
<polygon fill="white" stroke="#666666" points="1432.62,-221.88 1335.62,-221.88 1335.62,-202.62 1432.62,-202.62 1432.62,-221.88"/>
<text text-anchor="middle" x="1384.12" y="-208.38" font-family="Helvetica,sans-Serif" font-size="10.00">Ark::internal::Pass</text>
</a>
</g>
</g>
<!-- Node4&#45;&gt;Node3 -->
<g id="edge3_Node000003_Node000004" class="edge">
<title>Node4&#45;&gt;Node3</title>
<g id="a_edge3_Node000003_Node000004"><a xlink:title=" ">
<path fill="none" stroke="#63b8ff" d="M1444.04,-219.05C1478.65,-225.51 1521.61,-238.02 1553,-262.25 1602.26,-300.27 1630.62,-373.57 1639.67,-400.24"/>
<polygon fill="#63b8ff" stroke="#63b8ff" points="1445.07,-215.68 1434.62,-217.42 1443.87,-222.58 1445.07,-215.68"/>
</a>
</g>
</g>
<!-- Node5 -->
<g id="Node000005" class="node">
<title>Node5</title>
<g id="a_Node000005"><a xlink:href="../../d6/d2f/classArk_1_1internal_1_1Logger.html" target="_top" xlink:title=" ">
<polygon fill="white" stroke="#666666" points="1119.62,-136.88 1015.88,-136.88 1015.88,-117.62 1119.62,-117.62 1119.62,-136.88"/>
<text text-anchor="middle" x="1067.75" y="-123.38" font-family="Helvetica,sans-Serif" font-size="10.00">Ark::internal::Logger</text>
</a>
</g>
</g>
<!-- Node5&#45;&gt;Node4 -->
<g id="edge4_Node000004_Node000005" class="edge">
<title>Node5&#45;&gt;Node4</title>
<g id="a_edge4_Node000004_Node000005"><a xlink:title=" ">
<path fill="none" stroke="#9a32cd" stroke-dasharray="5,2" d="M1116.87,-140.26C1179.83,-157.28 1288.83,-186.75 1345.88,-202.18"/>
<polygon fill="#9a32cd" stroke="#9a32cd" points="1118.08,-136.96 1107.51,-137.73 1116.25,-143.72 1118.08,-136.96"/>
</a>
</g>
<text text-anchor="middle" x="1217.88" y="-184.08" font-family="Helvetica,sans-Serif" font-size="10.00" fill="grey"> m_logger</text>
</g>
<!-- Node6 -->
<g id="Node000006" class="node">
<title>Node6</title>
<g id="a_Node000006"><a xlink:title=" ">
<polygon fill="white" stroke="#666666" points="253.62,-201.88 194.12,-201.88 194.12,-182.62 253.62,-182.62 253.62,-201.88"/>
<text text-anchor="middle" x="223.88" y="-188.38" font-family="Helvetica,sans-Serif" font-size="10.00">std::string</text>
</a>
</g>
</g>
<!-- Node6&#45;&gt;Node5 -->
<g id="edge5_Node000005_Node000006" class="edge">
<title>Node6&#45;&gt;Node5</title>
<g id="a_edge5_Node000005_Node000006"><a xlink:title=" ">
<path fill="none" stroke="#9a32cd" stroke-dasharray="5,2" d="M244.81,-175.18C259.24,-163.59 279.66,-148.71 299.75,-139.25 341.3,-119.68 354.6,-121.89 399.5,-112.25 578.89,-73.73 628.61,-71.65 811.5,-86.25 884.2,-92.05 967.45,-107.01 1018.57,-117.16"/>
<polygon fill="#9a32cd" stroke="#9a32cd" points="242.91,-172.21 237.42,-181.27 247.37,-177.61 242.91,-172.21"/>
</a>
</g>
<text text-anchor="middle" x="584.25" y="-90.43" font-family="Helvetica,sans-Serif" font-size="10.00" fill="grey"> m_name</text>
</g>
<!-- Node8 -->
<g id="Node000008" class="node">
<title>Node8</title>
<g id="a_Node000008"><a xlink:title=" ">
<polygon fill="white" stroke="#666666" points="800.38,-159.38 677.88,-159.38 677.88,-95.12 800.38,-95.12 800.38,-159.38"/>
<text text-anchor="start" x="685.88" y="-145.88" font-family="Helvetica,sans-Serif" font-size="10.00">std::unordered_map</text>
<text text-anchor="start" x="685.88" y="-134.62" font-family="Helvetica,sans-Serif" font-size="10.00">&lt; std::string, std::</text>
<text text-anchor="start" x="685.88" y="-123.38" font-family="Helvetica,sans-Serif" font-size="10.00">chrono::time_point&lt; std</text>
<text text-anchor="start" x="685.88" y="-112.12" font-family="Helvetica,sans-Serif" font-size="10.00">::chrono::high_resolution</text>
<text text-anchor="middle" x="739.12" y="-100.88" font-family="Helvetica,sans-Serif" font-size="10.00">_clock &gt; &gt;</text>
</a>
</g>
</g>
<!-- Node6&#45;&gt;Node8 -->
<g id="edge8_Node000008_Node000006" class="edge">
<title>Node6&#45;&gt;Node8</title>
<g id="a_edge8_Node000008_Node000006"><a xlink:title=" ">
<path fill="none" stroke="#9a32cd" stroke-dasharray="5,2" d="M263.18,-178.52C318.82,-159.38 425.61,-125.64 519.75,-113.25 576.59,-105.77 591.59,-108.8 648.75,-113.25 658.14,-113.98 668.05,-115.14 677.7,-116.48"/>
<polygon fill="#9a32cd" stroke="#9a32cd" points="262.16,-175.17 253.87,-181.76 264.46,-181.78 262.16,-175.17"/>
</a>
</g>
<text text-anchor="middle" x="450.62" y="-138.73" font-family="Helvetica,sans-Serif" font-size="10.00" fill="grey"> keys</text>
</g>
<!-- Node12 -->
<g id="Node000012" class="node">
<title>Node12</title>
<g id="a_Node000012"><a xlink:title=" ">
<polygon fill="white" stroke="#666666" points="801.12,-201.88 677.12,-201.88 677.12,-182.62 801.12,-182.62 801.12,-201.88"/>
<text text-anchor="middle" x="739.12" y="-188.38" font-family="Helvetica,sans-Serif" font-size="10.00">std::vector&lt; std::string &gt;</text>
</a>
</g>
</g>
<!-- Node6&#45;&gt;Node12 -->
<g id="edge13_Node000012_Node000006" class="edge">
<title>Node6&#45;&gt;Node12</title>
<g id="a_edge13_Node000012_Node000006"><a xlink:title=" ">
<path fill="none" stroke="#9a32cd" stroke-dasharray="5,2" d="M265.22,-192.25C354.76,-192.25 570.58,-192.25 676.87,-192.25"/>
<polygon fill="#9a32cd" stroke="#9a32cd" points="265.45,-188.75 255.45,-192.25 265.45,-195.75 265.45,-188.75"/>
</a>
</g>
<text text-anchor="middle" x="450.62" y="-194" font-family="Helvetica,sans-Serif" font-size="10.00" fill="grey"> elements</text>
</g>
<!-- Node18 -->
<g id="Node000018" class="node">
<title>Node18</title>
<g id="a_Node000018"><a xlink:href="../../dc/d9e/classArk_1_1internal_1_1Node.html" target="_top" xlink:title="A node of an Abstract Syntax Tree for ArkScript.">
<polygon fill="white" stroke="#666666" points="499.5,-318.88 401.75,-318.88 401.75,-299.62 499.5,-299.62 499.5,-318.88"/>
<text text-anchor="middle" x="450.62" y="-305.38" font-family="Helvetica,sans-Serif" font-size="10.00">Ark::internal::Node</text>
</a>
</g>
</g>
<!-- Node6&#45;&gt;Node18 -->
<g id="edge23_Node000018_Node000006" class="edge">
<title>Node6&#45;&gt;Node18</title>
<g id="a_edge23_Node000018_Node000006"><a xlink:title=" ">
<path fill="none" stroke="#9a32cd" stroke-dasharray="5,2" d="M239.83,-210.89C253.7,-226.91 275.75,-249.4 299.75,-262.25 332.66,-279.87 345.94,-270.15 381.5,-281.5 397.19,-286.51 414.37,-293.52 427.55,-299.24"/>
<polygon fill="#9a32cd" stroke="#9a32cd" points="242.74,-208.91 233.64,-203.49 237.37,-213.41 242.74,-208.91"/>
</a>
</g>
<text text-anchor="middle" x="340.62" y="-305.75" font-family="Helvetica,sans-Serif" font-size="10.00" fill="grey"> m_after_comment</text>
<text text-anchor="middle" x="340.62" y="-294.5" font-family="Helvetica,sans-Serif" font-size="10.00" fill="grey">m_comment</text>
<text text-anchor="middle" x="340.62" y="-283.25" font-family="Helvetica,sans-Serif" font-size="10.00" fill="grey">m_filename</text>
</g>
<!-- Node23 -->
<g id="Node000023" class="node">
<title>Node23</title>
<g id="a_Node000023"><a xlink:title=" ">
<polygon fill="white" stroke="#666666" points="790.25,-346.12 688,-346.12 688,-304.38 790.25,-304.38 790.25,-346.12"/>
<text text-anchor="start" x="696" y="-332.62" font-family="Helvetica,sans-Serif" font-size="10.00">std::unordered_map</text>
<text text-anchor="start" x="696" y="-321.38" font-family="Helvetica,sans-Serif" font-size="10.00">&lt; std::string, Ark::</text>
<text text-anchor="middle" x="739.12" y="-310.12" font-family="Helvetica,sans-Serif" font-size="10.00">internal::Node &gt;</text>
</a>
</g>
</g>
<!-- Node6&#45;&gt;Node23 -->
<g id="edge27_Node000023_Node000006" class="edge">
<title>Node6&#45;&gt;Node23</title>
<g id="a_edge27_Node000023_Node000006"><a xlink:title=" ">
<path fill="none" stroke="#9a32cd" stroke-dasharray="5,2" d="M265.06,-202.66C357.68,-226.66 585.99,-285.83 687.76,-312.2"/>
<polygon fill="#9a32cd" stroke="#9a32cd" points="265.96,-199.28 255.41,-200.16 264.21,-206.06 265.96,-199.28"/>
</a>
</g>
<text text-anchor="middle" x="450.62" y="-264.93" font-family="Helvetica,sans-Serif" font-size="10.00" fill="grey"> keys</text>
</g>
<!-- Node7 -->
<g id="Node000007" class="node">
<title>Node7</title>
<g id="a_Node000007"><a xlink:title=" ">
<polygon fill="white" stroke="#666666" points="100.75,-207.5 6.75,-207.5 6.75,-177 100.75,-177 100.75,-207.5"/>
<text text-anchor="start" x="14.75" y="-194" font-family="Helvetica,sans-Serif" font-size="10.00">std::basic_string&lt;</text>
<text text-anchor="middle" x="53.75" y="-182.75" font-family="Helvetica,sans-Serif" font-size="10.00"> Char &gt;</text>
</a>
</g>
</g>
<!-- Node7&#45;&gt;Node6 -->
<g id="edge6_Node000006_Node000007" class="edge">
<title>Node7&#45;&gt;Node6</title>
<g id="a_edge6_Node000006_Node000007"><a xlink:title=" ">
<path fill="none" stroke="#63b8ff" d="M112.62,-192.25C140.11,-192.25 171.74,-192.25 194.06,-192.25"/>
<polygon fill="#63b8ff" stroke="#63b8ff" points="112.65,-188.75 102.65,-192.25 112.65,-195.75 112.65,-188.75"/>
</a>
</g>
</g>
<!-- Node8&#45;&gt;Node5 -->
<g id="edge7_Node000005_Node000008" class="edge">
<title>Node8&#45;&gt;Node5</title>
<g id="a_edge7_Node000005_Node000008"><a xlink:title=" ">
<path fill="none" stroke="#9a32cd" stroke-dasharray="5,2" d="M811.98,-127.25C873.58,-127.25 960.79,-127.25 1015.53,-127.25"/>
<polygon fill="#9a32cd" stroke="#9a32cd" points="812.31,-123.75 802.31,-127.25 812.31,-130.75 812.31,-123.75"/>
</a>
</g>
<text text-anchor="middle" x="901.88" y="-129" font-family="Helvetica,sans-Serif" font-size="10.00" fill="grey"> m_trace_starts</text>
</g>
<!-- Node9 -->
<g id="Node000009" class="node">
<title>Node9</title>
<g id="a_Node000009"><a xlink:title=" ">
<polygon fill="white" stroke="#666666" points="501.75,-379.5 399.5,-379.5 399.5,-349 501.75,-349 501.75,-379.5"/>
<text text-anchor="start" x="407.5" y="-366" font-family="Helvetica,sans-Serif" font-size="10.00">std::unordered_map</text>
<text text-anchor="middle" x="450.62" y="-354.75" font-family="Helvetica,sans-Serif" font-size="10.00">&lt; K, T &gt;</text>
</a>
</g>
</g>
<!-- Node9&#45;&gt;Node8 -->
<g id="edge9_Node000008_Node000009" class="edge">
<title>Node9&#45;&gt;Node8</title>
<g id="a_edge9_Node000008_Node000009"><a xlink:title=" ">
<path fill="none" stroke="orange" stroke-dasharray="5,2" d="M490.66,-341.64C494.98,-337.68 498.86,-333.22 501.75,-328.25 520.85,-295.41 493.37,-185.59 519.75,-158.25 559.77,-116.78 628.21,-113.36 677.82,-117.58"/>
<polygon fill="orange" stroke="orange" points="488.74,-338.69 483.11,-347.67 493.11,-344.16 488.74,-338.69"/>
</a>
</g>
<text text-anchor="start" x="519.75" y="-193.75" font-family="Helvetica,sans-Serif" font-size="10.00" fill="grey"> &lt; std::string, std</text>
<text text-anchor="start" x="519.75" y="-182.5" font-family="Helvetica,sans-Serif" font-size="10.00" fill="grey">::chrono::time_point</text>
<text text-anchor="start" x="519.75" y="-171.25" font-family="Helvetica,sans-Serif" font-size="10.00" fill="grey">&lt; std::chrono::high_resolution</text>
<text text-anchor="middle" x="584.25" y="-160" font-family="Helvetica,sans-Serif" font-size="10.00" fill="grey">_clock &gt; &gt;</text>
</g>
<!-- Node9&#45;&gt;Node23 -->
<g id="edge29_Node000023_Node000009" class="edge">
<title>Node9&#45;&gt;Node23</title>
<g id="a_edge29_Node000023_Node000009"><a xlink:title=" ">
<path fill="none" stroke="orange" stroke-dasharray="5,2" d="M513.14,-346.08C515.37,-345.6 517.57,-345.15 519.75,-344.75 576.82,-334.13 643.39,-329.25 687.89,-327.03"/>
<polygon fill="orange" stroke="orange" points="512.38,-342.66 503.44,-348.34 513.97,-349.48 512.38,-342.66"/>
</a>
</g>
<text text-anchor="start" x="546.38" y="-357.75" font-family="Helvetica,sans-Serif" font-size="10.00" fill="grey"> &lt; std::string, Ark</text>
<text text-anchor="middle" x="584.25" y="-346.5" font-family="Helvetica,sans-Serif" font-size="10.00" fill="grey">::internal::Node &gt;</text>
</g>
<!-- Node10 -->
<g id="Node000010" class="node">
<title>Node10</title>
<g id="a_Node000010"><a xlink:title=" ">
<polygon fill="white" stroke="#666666" points="238.28,-385.88 209.47,-385.88 209.47,-366.62 238.28,-366.62 238.28,-385.88"/>
<text text-anchor="middle" x="223.88" y="-372.38" font-family="Helvetica,sans-Serif" font-size="10.00">K</text>
</a>
</g>
</g>
<!-- Node10&#45;&gt;Node9 -->
<g id="edge10_Node000009_Node000010" class="edge">
<title>Node10&#45;&gt;Node9</title>
<g id="a_edge10_Node000009_Node000010"><a xlink:title=" ">
<path fill="none" stroke="#9a32cd" stroke-dasharray="5,2" d="M249.92,-374.91C285.81,-373 352.67,-369.43 399.09,-366.95"/>
<polygon fill="#9a32cd" stroke="#9a32cd" points="249.91,-371.41 240.11,-375.44 250.28,-378.4 249.91,-371.41"/>
</a>
</g>
<text text-anchor="middle" x="340.62" y="-373.78" font-family="Helvetica,sans-Serif" font-size="10.00" fill="grey"> keys</text>
</g>
<!-- Node11 -->
<g id="Node000011" class="node">
<title>Node11</title>
<g id="a_Node000011"><a xlink:title=" ">
<polygon fill="white" stroke="#666666" points="238.28,-456.88 209.47,-456.88 209.47,-437.62 238.28,-437.62 238.28,-456.88"/>
<text text-anchor="middle" x="223.88" y="-443.38" font-family="Helvetica,sans-Serif" font-size="10.00">T</text>
</a>
</g>
</g>
<!-- Node11&#45;&gt;Node9 -->
<g id="edge11_Node000009_Node000011" class="edge">
<title>Node11&#45;&gt;Node9</title>
<g id="a_edge11_Node000009_Node000011"><a xlink:title=" ">
<path fill="none" stroke="#9a32cd" stroke-dasharray="5,2" d="M249.13,-438.29C287.01,-424.3 360.69,-397.09 407.41,-379.84"/>
<polygon fill="#9a32cd" stroke="#9a32cd" points="248.18,-434.91 240.02,-441.66 250.61,-441.48 248.18,-434.91"/>
</a>
</g>
<text text-anchor="middle" x="340.62" y="-419.78" font-family="Helvetica,sans-Serif" font-size="10.00" fill="grey"> elements</text>
</g>
<!-- Node13 -->
<g id="Node000013" class="node">
<title>Node13</title>
<g id="a_Node000013"><a xlink:title=" ">
<polygon fill="white" stroke="#666666" points="493.88,-456.88 407.38,-456.88 407.38,-437.62 493.88,-437.62 493.88,-456.88"/>
<text text-anchor="middle" x="450.62" y="-443.38" font-family="Helvetica,sans-Serif" font-size="10.00">std::vector&lt; T &gt;</text>
</a>
</g>
</g>
<!-- Node11&#45;&gt;Node13 -->
<g id="edge15_Node000013_Node000011" class="edge">
<title>Node11&#45;&gt;Node13</title>
<g id="a_edge15_Node000013_Node000011"><a xlink:title=" ">
<path fill="none" stroke="#9a32cd" stroke-dasharray="5,2" d="M250.08,-447.25C288.11,-447.25 360.61,-447.25 406.96,-447.25"/>
<polygon fill="#9a32cd" stroke="#9a32cd" points="250.11,-443.75 240.11,-447.25 250.11,-450.75 250.11,-443.75"/>
</a>
</g>
<text text-anchor="middle" x="340.62" y="-449" font-family="Helvetica,sans-Serif" font-size="10.00" fill="grey"> elements</text>
</g>
<!-- Node26 -->
<g id="Node000026" class="node">
<title>Node26</title>
<g id="a_Node000026"><a xlink:title=" ">
<polygon fill="white" stroke="#666666" points="636.88,-532.88 531.62,-532.88 531.62,-513.62 636.88,-513.62 636.88,-532.88"/>
<text text-anchor="middle" x="584.25" y="-519.38" font-family="Helvetica,sans-Serif" font-size="10.00">std::shared_ptr&lt; T &gt;</text>
</a>
</g>
</g>
<!-- Node11&#45;&gt;Node26 -->
<g id="edge37_Node000026_Node000011" class="edge">
<title>Node11&#45;&gt;Node26</title>
<g id="a_edge37_Node000026_Node000011"><a xlink:title=" ">
<path fill="none" stroke="#9a32cd" stroke-dasharray="5,2" d="M249.65,-452.5C308.69,-465.02 458.5,-496.79 535.68,-513.16"/>
<polygon fill="#9a32cd" stroke="#9a32cd" points="250.48,-449.1 239.97,-450.45 249.02,-455.95 250.48,-449.1"/>
</a>
</g>
<text text-anchor="middle" x="340.62" y="-482.13" font-family="Helvetica,sans-Serif" font-size="10.00" fill="grey"> ptr</text>
</g>
<!-- Node12&#45;&gt;Node5 -->
<g id="edge12_Node000005_Node000012" class="edge">
<title>Node12&#45;&gt;Node5</title>
<g id="a_edge12_Node000005_Node000012"><a xlink:title=" ">
<path fill="none" stroke="#9a32cd" stroke-dasharray="5,2" d="M801.98,-179.94C863.96,-167.61 958.21,-148.85 1015.95,-137.36"/>
<polygon fill="#9a32cd" stroke="#9a32cd" points="801.41,-176.49 792.29,-181.87 802.78,-183.35 801.41,-176.49"/>
</a>
</g>
<text text-anchor="middle" x="901.88" y="-174.79" font-family="Helvetica,sans-Serif" font-size="10.00" fill="grey"> m_active_traces</text>
</g>
<!-- Node13&#45;&gt;Node12 -->
<g id="edge14_Node000012_Node000013" class="edge">
<title>Node13&#45;&gt;Node12</title>
<g id="a_edge14_Node000012_Node000013"><a xlink:title=" ">
<path fill="none" stroke="orange" stroke-dasharray="5,2" d="M471.19,-429.36C481.87,-418.5 494.38,-403.77 501.75,-388.25 520.62,-348.55 492.64,-325.6 519.75,-291 559.78,-239.9 632.11,-214.41 682.52,-202.29"/>
<polygon fill="orange" stroke="orange" points="468.97,-426.64 464.24,-436.13 473.85,-431.66 468.97,-426.64"/>
</a>
</g>
<text text-anchor="middle" x="584.25" y="-292.75" font-family="Helvetica,sans-Serif" font-size="10.00" fill="grey"> &lt; std::string &gt;</text>
</g>
<!-- Node21 -->
<g id="Node000021" class="node">
<title>Node21</title>
<g id="a_Node000021"><a xlink:title=" ">
<polygon fill="white" stroke="#666666" points="1445.75,-447.5 1322.5,-447.5 1322.5,-417 1445.75,-417 1445.75,-447.5"/>
<text text-anchor="start" x="1330.5" y="-434" font-family="Helvetica,sans-Serif" font-size="10.00">std::vector&lt; Ark::internal</text>
<text text-anchor="middle" x="1384.12" y="-422.75" font-family="Helvetica,sans-Serif" font-size="10.00">::MacroScope &gt;</text>
</a>
</g>
</g>
<!-- Node13&#45;&gt;Node21 -->
<g id="edge30_Node000021_Node000013" class="edge">
<title>Node13&#45;&gt;Node21</title>
<g id="a_edge30_Node000021_Node000013"><a xlink:title=" ">
<path fill="none" stroke="orange" stroke-dasharray="5,2" d="M505.31,-446.71C636.6,-445.33 984.36,-441.37 1274.5,-435.25 1289.97,-434.92 1306.67,-434.5 1322.23,-434.07"/>
<polygon fill="orange" stroke="orange" points="505.5,-443.21 495.54,-446.81 505.57,-450.21 505.5,-443.21"/>
</a>
</g>
<text text-anchor="middle" x="901.88" y="-444.44" font-family="Helvetica,sans-Serif" font-size="10.00" fill="grey"> &lt; Ark::internal::MacroScope &gt;</text>
</g>
<!-- Node24 -->
<g id="Node000024" class="node">
<title>Node24</title>
<g id="a_Node000024"><a xlink:title=" ">
<polygon fill="white" stroke="#666666" points="800.75,-406.5 677.5,-406.5 677.5,-376 800.75,-376 800.75,-406.5"/>
<text text-anchor="start" x="685.5" y="-393" font-family="Helvetica,sans-Serif" font-size="10.00">std::vector&lt; Ark::internal</text>
<text text-anchor="middle" x="739.12" y="-381.75" font-family="Helvetica,sans-Serif" font-size="10.00">::Node &gt;</text>
</a>
</g>
</g>
<!-- Node13&#45;&gt;Node24 -->
<g id="edge33_Node000024_Node000013" class="edge">
<title>Node13&#45;&gt;Node24</title>
<g id="a_edge33_Node000024_Node000013"><a xlink:title=" ">
<path fill="none" stroke="orange" stroke-dasharray="5,2" d="M488.06,-433.46C498.21,-429.99 509.32,-426.54 519.75,-424 548.76,-416.94 623.3,-406.35 677.23,-399.13"/>
<polygon fill="orange" stroke="orange" points="487.2,-430.06 478.93,-436.69 489.52,-436.66 487.2,-430.06"/>
</a>
</g>
<text text-anchor="middle" x="584.25" y="-425.75" font-family="Helvetica,sans-Serif" font-size="10.00" fill="grey"> &lt; Ark::internal::Node &gt;</text>
</g>
<!-- Node27 -->
<g id="Node000027" class="node">
<title>Node27</title>
<g id="a_Node000027"><a xlink:title=" ">
<polygon fill="white" stroke="#666666" points="1475.75,-502.5 1292.5,-502.5 1292.5,-472 1475.75,-472 1475.75,-502.5"/>
<text text-anchor="start" x="1300.5" y="-489" font-family="Helvetica,sans-Serif" font-size="10.00">std::vector&lt; std::shared</text>
<text text-anchor="middle" x="1384.12" y="-477.75" font-family="Helvetica,sans-Serif" font-size="10.00">_ptr&lt; Ark::internal::MacroExecutor &gt; &gt;</text>
</a>
</g>
</g>
<!-- Node13&#45;&gt;Node27 -->
<g id="edge40_Node000027_Node000013" class="edge">
<title>Node13&#45;&gt;Node27</title>
<g id="a_edge40_Node000027_Node000013"><a xlink:title=" ">
<path fill="none" stroke="orange" stroke-dasharray="5,2" d="M505.5,-458.34C510.3,-459.08 515.1,-459.74 519.75,-460.25 799.98,-491.18 1134.25,-491.24 1292.05,-489.09"/>
<polygon fill="orange" stroke="orange" points="506.29,-454.92 495.84,-456.72 505.13,-461.82 506.29,-454.92"/>
</a>
</g>
<text text-anchor="start" x="829.5" y="-500.56" font-family="Helvetica,sans-Serif" font-size="10.00" fill="grey"> &lt; std::shared_ptr&lt;</text>
<text text-anchor="middle" x="901.88" y="-489.31" font-family="Helvetica,sans-Serif" font-size="10.00" fill="grey"> Ark::internal::MacroExecutor &gt; &gt;</text>
</g>
<!-- Node14 -->
<g id="Node000014" class="node">
<title>Node14</title>
<g id="a_Node000014"><a xlink:title=" ">
<polygon fill="white" stroke="#666666" points="774.5,-27.88 703.75,-27.88 703.75,-8.62 774.5,-8.62 774.5,-27.88"/>
<text text-anchor="middle" x="739.12" y="-14.38" font-family="Helvetica,sans-Serif" font-size="10.00">std::ostream</text>
</a>
</g>
</g>
<!-- Node14&#45;&gt;Node5 -->
<g id="edge16_Node000005_Node000014" class="edge">
<title>Node14&#45;&gt;Node5</title>
<g id="a_edge16_Node000005_Node000014"><a xlink:title=" ">
<path fill="none" stroke="#9a32cd" stroke-dasharray="5,2" d="M786.11,-11.78C835.08,-6.97 913.73,-5.33 974.25,-33 1015.12,-51.69 1047.63,-97.01 1060.62,-117.22"/>
<polygon fill="#9a32cd" stroke="#9a32cd" points="786,-8.27 776.43,-12.82 786.75,-15.23 786,-8.27"/>
</a>
</g>
<text text-anchor="middle" x="901.88" y="-34.75" font-family="Helvetica,sans-Serif" font-size="10.00" fill="grey"> m_stream</text>
</g>
<!-- Node15 -->
<g id="Node000015" class="node">
<title>Node15</title>
<g id="a_Node000015"><a xlink:title=" ">
<polygon fill="white" stroke="#666666" points="500.25,-30.5 401,-30.5 401,0 500.25,0 500.25,-30.5"/>
<text text-anchor="start" x="409" y="-17" font-family="Helvetica,sans-Serif" font-size="10.00">std::basic_ostream</text>
<text text-anchor="middle" x="450.62" y="-5.75" font-family="Helvetica,sans-Serif" font-size="10.00">&lt; Char &gt;</text>
</a>
</g>
</g>
<!-- Node15&#45;&gt;Node14 -->
<g id="edge17_Node000014_Node000015" class="edge">
<title>Node15&#45;&gt;Node14</title>
<g id="a_edge17_Node000014_Node000015"><a xlink:title=" ">
<path fill="none" stroke="#63b8ff" d="M511.78,-15.88C569.88,-16.49 655.86,-17.39 703.38,-17.89"/>
<polygon fill="#63b8ff" stroke="#63b8ff" points="512.1,-12.38 502.06,-15.78 512.03,-19.38 512.1,-12.38"/>
</a>
</g>
</g>
<!-- Node16 -->
<g id="Node000016" class="node">
<title>Node16</title>
<g id="a_Node000016"><a xlink:title=" ">
<polygon fill="white" stroke="#666666" points="281.75,-24.88 166,-24.88 166,-5.63 281.75,-5.63 281.75,-24.88"/>
<text text-anchor="middle" x="223.88" y="-11.38" font-family="Helvetica,sans-Serif" font-size="10.00">std::basic_ios&lt; Char &gt;</text>
</a>
</g>
</g>
<!-- Node16&#45;&gt;Node15 -->
<g id="edge18_Node000015_Node000016" class="edge">
<title>Node16&#45;&gt;Node15</title>
<g id="a_edge18_Node000015_Node000016"><a xlink:title=" ">
<path fill="none" stroke="#63b8ff" d="M293.64,-15.25C328.28,-15.25 369.46,-15.25 400.81,-15.25"/>
<polygon fill="#63b8ff" stroke="#63b8ff" points="293.68,-11.75 283.68,-15.25 293.68,-18.75 293.68,-11.75"/>
</a>
</g>
</g>
<!-- Node17 -->
<g id="Node000017" class="node">
<title>Node17</title>
<g id="a_Node000017"><a xlink:title=" ">
<polygon fill="white" stroke="#666666" points="91,-24.88 16.5,-24.88 16.5,-5.63 91,-5.63 91,-24.88"/>
<text text-anchor="middle" x="53.75" y="-11.38" font-family="Helvetica,sans-Serif" font-size="10.00">std::ios_base</text>
</a>
</g>
</g>
<!-- Node17&#45;&gt;Node16 -->
<g id="edge19_Node000016_Node000017" class="edge">
<title>Node17&#45;&gt;Node16</title>
<g id="a_edge19_Node000016_Node000017"><a xlink:title=" ">
<path fill="none" stroke="#63b8ff" d="M102.67,-15.25C122.29,-15.25 145.15,-15.25 165.64,-15.25"/>
<polygon fill="#63b8ff" stroke="#63b8ff" points="102.74,-11.75 92.74,-15.25 102.74,-18.75 102.74,-11.75"/>
</a>
</g>
</g>
<!-- Node18&#45;&gt;Node3 -->
<g id="edge20_Node000003_Node000018" class="edge">
<title>Node18&#45;&gt;Node3</title>
<g id="a_edge20_Node000003_Node000018"><a xlink:title=" ">
<path fill="none" stroke="#9a32cd" stroke-dasharray="5,2" d="M510.95,-298.4C568.73,-288.78 659.15,-276.25 738.12,-276.25 738.12,-276.25 738.12,-276.25 1385.12,-276.25 1492.55,-276.25 1599.65,-369.01 1632.59,-400.18"/>
<polygon fill="#9a32cd" stroke="#9a32cd" points="510.61,-294.9 501.33,-300.02 511.78,-301.81 510.61,-294.9"/>
</a>
</g>
<text text-anchor="middle" x="1067.75" y="-278" font-family="Helvetica,sans-Serif" font-size="10.00" fill="grey"> m_ast</text>
</g>
<!-- Node18&#45;&gt;Node23 -->
<g id="edge28_Node000023_Node000018" class="edge">
<title>Node18&#45;&gt;Node23</title>
<g id="a_edge28_Node000023_Node000018"><a xlink:title=" ">
<path fill="none" stroke="#9a32cd" stroke-dasharray="5,2" d="M511.38,-306.92C550.52,-306.02 602.77,-306.02 648.75,-310 661.45,-311.1 675.06,-313.03 687.74,-315.16"/>
<polygon fill="#9a32cd" stroke="#9a32cd" points="511.35,-303.42 501.44,-307.18 511.53,-310.42 511.35,-303.42"/>
</a>
</g>
<text text-anchor="middle" x="584.25" y="-311.75" font-family="Helvetica,sans-Serif" font-size="10.00" fill="grey"> elements</text>
</g>
<!-- Node18&#45;&gt;Node24 -->
<g id="edge32_Node000024_Node000018" class="edge">
<title>Node18&#45;&gt;Node24</title>
<g id="a_edge32_Node000024_Node000018"><a xlink:title=" ">
<path fill="none" stroke="#9a32cd" stroke-dasharray="5,2" d="M481.48,-324.81C488.56,-329.26 495.78,-334.48 501.75,-340.25 512.12,-350.27 507.43,-359.76 519.75,-367.25 532.97,-375.29 617.15,-382.78 677.03,-387.18"/>
<polygon fill="#9a32cd" stroke="#9a32cd" points="483.75,-322.08 473.35,-320.02 480.19,-328.11 483.75,-322.08"/>
</a>
</g>
<text text-anchor="middle" x="584.25" y="-386.28" font-family="Helvetica,sans-Serif" font-size="10.00" fill="grey"> elements</text>
</g>
<!-- Node19 -->
<g id="Node000019" class="node">
<title>Node19</title>
<g id="a_Node000019"><a xlink:href="../../dc/dda/structArk_1_1internal_1_1FileSpan.html" target="_top" xlink:title="Describes a span for a node/atom in a file, its start position and end position.">
<polygon fill="white" stroke="#666666" points="280.25,-348.88 167.5,-348.88 167.5,-329.62 280.25,-329.62 280.25,-348.88"/>
<text text-anchor="middle" x="223.88" y="-335.38" font-family="Helvetica,sans-Serif" font-size="10.00">Ark::internal::FileSpan</text>
</a>
</g>
</g>
<!-- Node19&#45;&gt;Node18 -->
<g id="edge21_Node000018_Node000019" class="edge">
<title>Node19&#45;&gt;Node18</title>
<g id="a_edge21_Node000018_Node000019"><a xlink:title=" ">
<path fill="none" stroke="#9a32cd" stroke-dasharray="5,2" d="M291.9,-330.97C319.65,-327.47 352.14,-323.28 381.5,-319.25 387.9,-318.37 394.62,-317.42 401.26,-316.46"/>
<polygon fill="#9a32cd" stroke="#9a32cd" points="291.71,-327.47 282.23,-332.19 292.59,-334.41 291.71,-327.47"/>
</a>
</g>
<text text-anchor="middle" x="340.62" y="-331.65" font-family="Helvetica,sans-Serif" font-size="10.00" fill="grey"> m_pos</text>
</g>
<!-- Node20 -->
<g id="Node000020" class="node">
<title>Node20</title>
<g id="a_Node000020"><a xlink:href="../../d7/df6/structArk_1_1internal_1_1FilePos.html" target="_top" xlink:title=" ">
<polygon fill="white" stroke="#666666" points="107.5,-348.88 0,-348.88 0,-329.62 107.5,-329.62 107.5,-348.88"/>
<text text-anchor="middle" x="53.75" y="-335.38" font-family="Helvetica,sans-Serif" font-size="10.00">Ark::internal::FilePos</text>
</a>
</g>
</g>
<!-- Node20&#45;&gt;Node19 -->
<g id="edge22_Node000019_Node000020" class="edge">
<title>Node20&#45;&gt;Node19</title>
<g id="a_edge22_Node000019_Node000020"><a xlink:title=" ">
<path fill="none" stroke="#9a32cd" stroke-dasharray="5,2" d="M119.24,-339.25C135.02,-339.25 151.79,-339.25 167.13,-339.25"/>
<polygon fill="#9a32cd" stroke="#9a32cd" points="119.46,-335.75 109.46,-339.25 119.46,-342.75 119.46,-335.75"/>
</a>
</g>
<text text-anchor="middle" x="136.75" y="-341" font-family="Helvetica,sans-Serif" font-size="10.00" fill="grey"> start</text>
</g>
<!-- Node21&#45;&gt;Node3 -->
<g id="edge24_Node000003_Node000021" class="edge">
<title>Node21&#45;&gt;Node3</title>
<g id="a_edge24_Node000003_Node000021"><a xlink:title=" ">
<path fill="none" stroke="#9a32cd" stroke-dasharray="5,2" d="M1457.44,-426.08C1492.86,-423.05 1535.4,-419.42 1570.79,-416.4"/>
<polygon fill="#9a32cd" stroke="#9a32cd" points="1457.38,-422.57 1447.72,-426.91 1457.98,-429.54 1457.38,-422.57"/>
</a>
</g>
<text text-anchor="middle" x="1523.38" y="-424.32" font-family="Helvetica,sans-Serif" font-size="10.00" fill="grey"> m_macros</text>
</g>
<!-- Node22 -->
<g id="Node000022" class="node">
<title>Node22</title>
<g id="a_Node000022"><a xlink:href="../../d6/d42/classArk_1_1internal_1_1MacroScope.html" target="_top" xlink:title=" ">
<polygon fill="white" stroke="#666666" points="1132.38,-362.88 1003.12,-362.88 1003.12,-343.62 1132.38,-343.62 1132.38,-362.88"/>
<text text-anchor="middle" x="1067.75" y="-349.38" font-family="Helvetica,sans-Serif" font-size="10.00">Ark::internal::MacroScope</text>
</a>
</g>
</g>
<!-- Node22&#45;&gt;Node21 -->
<g id="edge25_Node000021_Node000022" class="edge">
<title>Node22&#45;&gt;Node21</title>
<g id="a_edge25_Node000021_Node000022"><a xlink:title=" ">
<path fill="none" stroke="#9a32cd" stroke-dasharray="5,2" d="M1093.81,-369.24C1111.86,-380 1137.19,-393.58 1161.25,-401.25 1190.29,-410.51 1266.95,-420.05 1322.03,-426.06"/>
<polygon fill="#9a32cd" stroke="#9a32cd" points="1095.73,-366.31 1085.37,-364.08 1092.08,-372.28 1095.73,-366.31"/>
</a>
</g>
<text text-anchor="middle" x="1217.88" y="-421.99" font-family="Helvetica,sans-Serif" font-size="10.00" fill="grey"> elements</text>
</g>
<!-- Node23&#45;&gt;Node3 -->
<g id="edge41_Node000003_Node000023" class="edge">
<title>Node23&#45;&gt;Node3</title>
<g id="a_edge41_Node000003_Node000023"><a xlink:title=" ">
<path fill="none" stroke="#9a32cd" stroke-dasharray="5,2" d="M801.63,-326.09C848.85,-326.79 915.68,-327.88 974.25,-329.25 1049.37,-331 1068.4,-327.59 1143.25,-334.25 1326.64,-350.56 1371.13,-366.54 1553,-395.25 1562.84,-396.8 1573.29,-398.5 1583.44,-400.18"/>
<polygon fill="#9a32cd" stroke="#9a32cd" points="801.93,-322.6 791.88,-325.95 801.83,-329.59 801.93,-322.6"/>
</a>
</g>
<text text-anchor="middle" x="1217.88" y="-350.15" font-family="Helvetica,sans-Serif" font-size="10.00" fill="grey"> m_defined_functions</text>
</g>
<!-- Node23&#45;&gt;Node22 -->
<g id="edge26_Node000022_Node000023" class="edge">
<title>Node23&#45;&gt;Node22</title>
<g id="a_edge26_Node000022_Node000023"><a xlink:title=" ">
<path fill="none" stroke="#9a32cd" stroke-dasharray="5,2" d="M801.91,-330.55C859.41,-335.48 944.75,-342.79 1002.9,-347.78"/>
<polygon fill="#9a32cd" stroke="#9a32cd" points="802.21,-327.06 791.95,-329.69 801.62,-334.03 802.21,-327.06"/>
</a>
</g>
<text text-anchor="middle" x="901.88" y="-346.73" font-family="Helvetica,sans-Serif" font-size="10.00" fill="grey"> m_macros</text>
</g>
<!-- Node24&#45;&gt;Node3 -->
<g id="edge31_Node000003_Node000024" class="edge">
<title>Node24&#45;&gt;Node3</title>
<g id="a_edge31_Node000003_Node000024"><a xlink:title=" ">
<path fill="none" stroke="#9a32cd" stroke-dasharray="5,2" d="M812.52,-389.15C915.27,-386.54 1109.31,-383.02 1274.5,-388 1377.45,-391.11 1496.36,-399.08 1570.59,-404.59"/>
<polygon fill="#9a32cd" stroke="#9a32cd" points="812.47,-385.65 802.56,-389.41 812.65,-392.65 812.47,-385.65"/>
</a>
</g>
<text text-anchor="middle" x="1217.88" y="-389.75" font-family="Helvetica,sans-Serif" font-size="10.00" fill="grey"> m_macros_being_applied</text>
</g>
<!-- Node25&#45;&gt;Node3 -->
<g id="edge34_Node000003_Node000025" class="edge">
<title>Node25&#45;&gt;Node3</title>
<g id="a_edge34_Node000003_Node000025"><a xlink:title=" ">
<path fill="none" stroke="#9a32cd" stroke-dasharray="5,2" d="M1146.65,-544.87C1229.97,-547.48 1365.09,-544.99 1475.75,-511.25 1540.28,-491.57 1605.47,-441.46 1631.31,-420.12"/>
<polygon fill="#9a32cd" stroke="#9a32cd" points="1146.87,-541.37 1136.75,-544.52 1146.62,-548.37 1146.87,-541.37"/>
</a>
</g>
<text text-anchor="middle" x="1384.12" y="-544.03" font-family="Helvetica,sans-Serif" font-size="10.00" fill="grey"> m_conditional_executor</text>
</g>
<!-- Node25&#45;&gt;Node27 -->
<g id="edge39_Node000027_Node000025" class="edge">
<title>Node25&#45;&gt;Node27</title>
<g id="a_edge39_Node000027_Node000025"><a xlink:title=" ">
<path fill="none" stroke="#9a32cd" stroke-dasharray="5,2" d="M1146.38,-523.78C1151.41,-522.81 1156.4,-521.87 1161.25,-521 1204.2,-513.27 1252.04,-505.84 1292.26,-499.94"/>
<polygon fill="#9a32cd" stroke="#9a32cd" points="1145.98,-520.29 1136.84,-525.65 1147.33,-527.16 1145.98,-520.29"/>
</a>
</g>
<text text-anchor="middle" x="1217.88" y="-522.75" font-family="Helvetica,sans-Serif" font-size="10.00" fill="grey"> elements</text>
</g>
<!-- Node26&#45;&gt;Node25 -->
<g id="edge36_Node000025_Node000026" class="edge">
<title>Node26&#45;&gt;Node25</title>
<g id="a_edge36_Node000025_Node000026"><a xlink:title=" ">
<path fill="none" stroke="orange" stroke-dasharray="5,2" d="M648.5,-525.48C739.6,-528.7 907.01,-534.61 1000.02,-537.89"/>
<polygon fill="orange" stroke="orange" points="648.87,-521.99 638.75,-525.14 648.62,-528.99 648.87,-521.99"/>
</a>
</g>
<text text-anchor="middle" x="739.12" y="-532.77" font-family="Helvetica,sans-Serif" font-size="10.00" fill="grey"> &lt; Ark::internal::MacroExecutor &gt;</text>
</g>
<!-- Node27&#45;&gt;Node3 -->
<g id="edge38_Node000003_Node000027" class="edge">
<title>Node27&#45;&gt;Node3</title>
<g id="a_edge38_Node000003_Node000027"><a xlink:title=" ">
<path fill="none" stroke="#9a32cd" stroke-dasharray="5,2" d="M1450.35,-468.51C1481.47,-459.49 1519.2,-448.45 1553,-438.25 1572.25,-432.44 1593.74,-425.75 1610.89,-420.37"/>
<polygon fill="#9a32cd" stroke="#9a32cd" points="1449.72,-465.05 1441.09,-471.19 1451.67,-471.77 1449.72,-465.05"/>
</a>
</g>
<text text-anchor="middle" x="1523.38" y="-456.45" font-family="Helvetica,sans-Serif" font-size="10.00" fill="grey"> m_executors</text>
</g>
</g>
</svg>
