<?xml version="1.0" encoding="UTF-8" standalone="no"?>
<!DOCTYPE svg PUBLIC "-//W3C//DTD SVG 1.1//EN"
 "http://www.w3.org/Graphics/SVG/1.1/DTD/svg11.dtd">
<!-- Generated by graphviz version 12.2.0 (20241103.1931)
 -->
<!-- Title: Ark::CodeError Pages: 1 -->
<svg width="331pt" height="238pt"
 viewBox="0.00 0.00 331.00 238.00" xmlns="http://www.w3.org/2000/svg" xmlns:xlink="http://www.w3.org/1999/xlink">
<g id="graph0" class="graph" transform="scale(1 1) rotate(0) translate(4 234)">
<title>Ark::CodeError</title>
<!-- Node1 -->
<g id="Node000001" class="node">
<title>Node1</title>
<g id="a_Node000001"><a xlink:title="CodeError thrown by the compiler (parser, macro processor, optimizer, and compiler itself)">
<polygon fill="#999999" stroke="#666666" points="138.88,-19.25 57.62,-19.25 57.62,0 138.88,0 138.88,-19.25"/>
<text text-anchor="middle" x="98.25" y="-5.75" font-family="Helvetica,sans-Serif" font-size="10.00">Ark::CodeError</text>
</a>
</g>
</g>
<!-- Node2 -->
<g id="Node000002" class="node">
<title>Node2</title>
<g id="a_Node000002"><a xlink:href="../../d6/d43/classArk_1_1Error.html" target="_top" xlink:title=" ">
<polygon fill="white" stroke="#666666" points="75.25,-85.75 17.25,-85.75 17.25,-66.5 75.25,-66.5 75.25,-85.75"/>
<text text-anchor="middle" x="46.25" y="-72.25" font-family="Helvetica,sans-Serif" font-size="10.00">Ark::Error</text>
</a>
</g>
</g>
<!-- Node2&#45;&gt;Node1 -->
<g id="edge1_Node000001_Node000002" class="edge">
<title>Node2&#45;&gt;Node1</title>
<g id="a_edge1_Node000001_Node000002"><a xlink:title=" ">
<path fill="none" stroke="#63b8ff" d="M60.66,-57.24C70.56,-44.97 83.27,-29.21 91.08,-19.52"/>
<polygon fill="#63b8ff" stroke="#63b8ff" points="57.98,-55 54.43,-64.98 63.43,-59.39 57.98,-55"/>
</a>
</g>
</g>
<!-- Node3 -->
<g id="Node000003" class="node">
<title>Node3</title>
<g id="a_Node000003"><a xlink:title=" ">
<polygon fill="white" stroke="#666666" points="92.5,-152.25 0,-152.25 0,-133 92.5,-133 92.5,-152.25"/>
<text text-anchor="middle" x="46.25" y="-138.75" font-family="Helvetica,sans-Serif" font-size="10.00">std::runtime_error</text>
</a>
</g>
</g>
<!-- Node3&#45;&gt;Node2 -->
<g id="edge2_Node000002_Node000003" class="edge">
<title>Node3&#45;&gt;Node2</title>
<g id="a_edge2_Node000002_Node000003"><a xlink:title=" ">
<path fill="none" stroke="#63b8ff" d="M46.25,-121.15C46.25,-109.32 46.25,-95.04 46.25,-86.02"/>
<polygon fill="#63b8ff" stroke="#63b8ff" points="42.75,-121.14 46.25,-131.14 49.75,-121.14 42.75,-121.14"/>
</a>
</g>
</g>
<!-- Node4 -->
<g id="Node000004" class="node">
<title>Node4</title>
<g id="a_Node000004"><a xlink:title=" ">
<polygon fill="white" stroke="#666666" points="85,-224.38 7.5,-224.38 7.5,-205.12 85,-205.12 85,-224.38"/>
<text text-anchor="middle" x="46.25" y="-210.88" font-family="Helvetica,sans-Serif" font-size="10.00">std::exception</text>
</a>
</g>
</g>
<!-- Node4&#45;&gt;Node3 -->
<g id="edge3_Node000003_Node000004" class="edge">
<title>Node4&#45;&gt;Node3</title>
<g id="a_edge3_Node000003_Node000004"><a xlink:title=" ">
<path fill="none" stroke="#63b8ff" d="M46.25,-193.37C46.25,-179.89 46.25,-162.89 46.25,-152.66"/>
<polygon fill="#63b8ff" stroke="#63b8ff" points="42.75,-193.36 46.25,-203.36 49.75,-193.36 42.75,-193.36"/>
</a>
</g>
</g>
<!-- Node5 -->
<g id="Node000005" class="node">
<title>Node5</title>
<g id="a_Node000005"><a xlink:href="../../db/d27/structArk_1_1CodeErrorContext.html" target="_top" xlink:title=" ">
<polygon fill="white" stroke="#666666" points="209.12,-85.75 93.38,-85.75 93.38,-66.5 209.12,-66.5 209.12,-85.75"/>
<text text-anchor="middle" x="151.25" y="-72.25" font-family="Helvetica,sans-Serif" font-size="10.00">Ark::CodeErrorContext</text>
</a>
</g>
</g>
<!-- Node5&#45;&gt;Node1 -->
<g id="edge4_Node000001_Node000005" class="edge">
<title>Node5&#45;&gt;Node1</title>
<g id="a_edge4_Node000001_Node000005"><a xlink:title=" ">
<path fill="none" stroke="#9a32cd" stroke-dasharray="5,2" d="M136.86,-57.61C126.73,-45.28 113.6,-29.31 105.56,-19.52"/>
<polygon fill="#9a32cd" stroke="#9a32cd" points="133.87,-59.48 142.92,-64.99 139.28,-55.04 133.87,-59.48"/>
</a>
</g>
<text text-anchor="middle" x="145.55" y="-39" font-family="Helvetica,sans-Serif" font-size="10.00" fill="grey"> context</text>
</g>
<!-- Node6 -->
<g id="Node000006" class="node">
<title>Node6</title>
<g id="a_Node000006"><a xlink:title=" ">
<polygon fill="white" stroke="#666666" points="181,-152.25 121.5,-152.25 121.5,-133 181,-133 181,-152.25"/>
<text text-anchor="middle" x="151.25" y="-138.75" font-family="Helvetica,sans-Serif" font-size="10.00">std::string</text>
</a>
</g>
</g>
<!-- Node6&#45;&gt;Node5 -->
<g id="edge5_Node000005_Node000006" class="edge">
<title>Node6&#45;&gt;Node5</title>
<g id="a_edge5_Node000005_Node000006"><a xlink:title=" ">
<path fill="none" stroke="#9a32cd" stroke-dasharray="5,2" d="M151.25,-121.15C151.25,-109.32 151.25,-95.04 151.25,-86.02"/>
<polygon fill="#9a32cd" stroke="#9a32cd" points="147.75,-121.14 151.25,-131.14 154.75,-121.14 147.75,-121.14"/>
</a>
</g>
<text text-anchor="middle" x="171.12" y="-105.5" font-family="Helvetica,sans-Serif" font-size="10.00" fill="grey"> filename</text>
</g>
<!-- Node7 -->
<g id="Node000007" class="node">
<title>Node7</title>
<g id="a_Node000007"><a xlink:title=" ">
<polygon fill="white" stroke="#666666" points="197.25,-230 103.25,-230 103.25,-199.5 197.25,-199.5 197.25,-230"/>
<text text-anchor="start" x="111.25" y="-216.5" font-family="Helvetica,sans-Serif" font-size="10.00">std::basic_string&lt;</text>
<text text-anchor="middle" x="150.25" y="-205.25" font-family="Helvetica,sans-Serif" font-size="10.00"> Char &gt;</text>
</a>
</g>
</g>
<!-- Node7&#45;&gt;Node6 -->
<g id="edge6_Node000006_Node000007" class="edge">
<title>Node7&#45;&gt;Node6</title>
<g id="a_edge6_Node000006_Node000007"><a xlink:title=" ">
<path fill="none" stroke="#63b8ff" d="M150.62,-187.98C150.8,-175.48 151,-161.27 151.13,-152.38"/>
<polygon fill="#63b8ff" stroke="#63b8ff" points="147.12,-187.66 150.48,-197.71 154.12,-187.76 147.12,-187.66"/>
</a>
</g>
</g>
<!-- Node8 -->
<g id="Node000008" class="node">
<title>Node8</title>
<g id="a_Node000008"><a xlink:href="../../dc/dda/structArk_1_1internal_1_1FileSpan.html" target="_top" xlink:title="Describes a span for a node/atom in a file, its start position and end position.">
<polygon fill="white" stroke="#666666" points="318.62,-152.25 205.88,-152.25 205.88,-133 318.62,-133 318.62,-152.25"/>
<text text-anchor="middle" x="262.25" y="-138.75" font-family="Helvetica,sans-Serif" font-size="10.00">Ark::internal::FileSpan</text>
</a>
</g>
</g>
<!-- Node8&#45;&gt;Node5 -->
<g id="edge7_Node000005_Node000008" class="edge">
<title>Node8&#45;&gt;Node5</title>
<g id="a_edge7_Node000005_Node000008"><a xlink:title=" ">
<path fill="none" stroke="#9a32cd" stroke-dasharray="5,2" d="M237.03,-126.97C215.47,-114.44 185.13,-96.81 166.91,-86.23"/>
<polygon fill="#9a32cd" stroke="#9a32cd" points="235.1,-129.9 245.51,-131.9 238.62,-123.85 235.1,-129.9"/>
</a>
</g>
<text text-anchor="middle" x="219.02" y="-105.5" font-family="Helvetica,sans-Serif" font-size="10.00" fill="grey"> at</text>
</g>
<!-- Node9 -->
<g id="Node000009" class="node">
<title>Node9</title>
<g id="a_Node000009"><a xlink:href="../../d7/df6/structArk_1_1internal_1_1FilePos.html" target="_top" xlink:title=" ">
<polygon fill="white" stroke="#666666" points="323,-224.38 215.5,-224.38 215.5,-205.12 323,-205.12 323,-224.38"/>
<text text-anchor="middle" x="269.25" y="-210.88" font-family="Helvetica,sans-Serif" font-size="10.00">Ark::internal::FilePos</text>
</a>
</g>
</g>
<!-- Node9&#45;&gt;Node8 -->
<g id="edge8_Node000008_Node000009" class="edge">
<title>Node9&#45;&gt;Node8</title>
<g id="a_edge8_Node000008_Node000009"><a xlink:title=" ">
<path fill="none" stroke="#9a32cd" stroke-dasharray="5,2" d="M267.26,-193.78C265.91,-180.24 264.18,-162.99 263.15,-152.66"/>
<polygon fill="#9a32cd" stroke="#9a32cd" points="263.74,-193.76 268.21,-203.36 270.7,-193.06 263.74,-193.76"/>
</a>
</g>
<text text-anchor="middle" x="277.21" y="-172" font-family="Helvetica,sans-Serif" font-size="10.00" fill="grey"> start</text>
</g>
</g>
</svg>
