<?xml version="1.0" encoding="UTF-8" standalone="no"?>
<!DOCTYPE svg PUBLIC "-//W3C//DTD SVG 1.1//EN"
 "http://www.w3.org/Graphics/SVG/1.1/DTD/svg11.dtd">
<!-- Generated by graphviz version 12.2.0 (20241103.1931)
 -->
<!-- Title: Ark::internal::ConditionalExecutor Pages: 1 -->
<!--zoomable 600 -->

<svg id="main" version="1.1" xmlns="http://www.w3.org/2000/svg" xmlns:xlink="http://www.w3.org/1999/xlink" xml:space="preserve" onload="init(evt)">

<style type="text/css"><![CDATA[
.node, .edge {opacity: 0.7;}
.node.selected, .edge.selected {opacity: 1;}
.edge:hover path { stroke: red; }
.edge:hover polygon { stroke: red; fill: red; }
]]></style>

<defs>
  <circle id="rim" cx="0" cy="0" r="7"/>
  <circle id="rim2" cx="0" cy="0" r="3.5"/>
  <g id="zoomPlus">
    <use xlink:href="#rim" fill="#404040"><set attributeName="fill" to="#808080" begin="zoomplus.mouseover" end="zoomplus.mouseout"/></use>
    <path d="M-4,0h8M0,-4v8" fill="none" stroke="white" stroke-width="1.5" pointer-events="none"/>
  </g>
  <g id="zoomMin">
    <use xlink:href="#rim" fill="#404040"><set attributeName="fill" to="#808080" begin="zoomminus.mouseover" end="zoomminus.mouseout"/></use>
    <path d="M-4,0h8" fill="none" stroke="white" stroke-width="1.5" pointer-events="none"/>
  </g>
  <g id="arrowUp" transform="translate(30 24)">
    <use xlink:href="#rim"/>
    <path pointer-events="none" fill="none" stroke="white" stroke-width="1.5" d="M0,-3.0v7 M-2.5,-0.5L0,-3.0L2.5,-0.5"/>
  </g>
  <g id="arrowRight" transform="rotate(90) translate(36 -43)">
    <use xlink:href="#rim"/>
    <path pointer-events="none" fill="none" stroke="white" stroke-width="1.5" d="M0,-3.0v7 M-2.5,-0.5L0,-3.0L2.5,-0.5"/>
  </g>
  <g id="arrowDown" transform="rotate(180) translate(-30 -48)">
    <use xlink:href="#rim"/>
    <path pointer-events="none" fill="none" stroke="white" stroke-width="1.5" d="M0,-3.0v7 M-2.5,-0.5L0,-3.0L2.5,-0.5"/>
  </g>
  <g id="arrowLeft" transform="rotate(270) translate(-36 17)">
    <use xlink:href="#rim"/>
    <path pointer-events="none" fill="none" stroke="white" stroke-width="1.5" d="M0,-3.0v7 M-2.5,-0.5L0,-3.0L2.5,-0.5"/>
  </g>
  <g id="resetDef">
    <use xlink:href="#rim2" fill="#404040"><set attributeName="fill" to="#808080" begin="reset.mouseover" end="reset.mouseout"/></use>
  </g>
</defs>
<script type="application/ecmascript">
var viewWidth = 1617;
var viewHeight = 600;
var sectionId = 'dynsection-1';
</script>
<script type="application/ecmascript" xlink:href="../../svg.min.js"/>
<svg id="graph" class="graph">
<g id="viewport">
<title>Ark::internal::ConditionalExecutor</title>
<!-- Node1 -->
<g id="Node000001" class="node">
<title>Node1</title>
<g id="a_Node000001"><a xlink:title="Handles Conditional macros.">
<polygon fill="#999999" stroke="#666666" points="1029.88,-514.25 906.62,-514.25 906.62,-483.75 1029.88,-483.75 1029.88,-514.25"/>
<text text-anchor="start" x="914.62" y="-500.75" font-family="Helvetica,sans-Serif" font-size="10.00">Ark::internal::Conditional</text>
<text text-anchor="middle" x="968.25" y="-489.5" font-family="Helvetica,sans-Serif" font-size="10.00">Executor</text>
</a>
</g>
</g>
<!-- Node2 -->
<g id="Node000002" class="node">
<title>Node2</title>
<g id="a_Node000002"><a xlink:href="../../d5/d8f/classArk_1_1internal_1_1MacroExecutor.html" target="_top" xlink:title="A class that applies macros in a Node.">
<polygon fill="white" stroke="#666666" points="718.12,-503.62 577.62,-503.62 577.62,-484.38 718.12,-484.38 718.12,-503.62"/>
<text text-anchor="middle" x="647.88" y="-490.12" font-family="Helvetica,sans-Serif" font-size="10.00">Ark::internal::MacroExecutor</text>
</a>
</g>
</g>
<!-- Node2&#45;&gt;Node1 -->
<g id="edge1_Node000001_Node000002" class="edge">
<title>Node2&#45;&gt;Node1</title>
<g id="a_edge1_Node000001_Node000002"><a xlink:title=" ">
<path fill="none" stroke="#63b8ff" d="M729.8,-495.27C784.7,-496.13 856.13,-497.25 906.25,-498.04"/>
<polygon fill="#63b8ff" stroke="#63b8ff" points="729.92,-491.77 719.86,-495.11 729.81,-498.77 729.92,-491.77"/>
</a>
</g>
</g>
<!-- Node19 -->
<g id="Node000019" class="node">
<title>Node19</title>
<g id="a_Node000019"><a xlink:title=" ">
<polygon fill="white" stroke="#666666" points="1035.5,-563.25 901,-563.25 901,-532.75 1035.5,-532.75 1035.5,-563.25"/>
<text text-anchor="start" x="909" y="-549.75" font-family="Helvetica,sans-Serif" font-size="10.00">std::shared_ptr&lt; Ark</text>
<text text-anchor="middle" x="968.25" y="-538.5" font-family="Helvetica,sans-Serif" font-size="10.00">::internal::MacroExecutor &gt;</text>
</a>
</g>
</g>
<!-- Node2&#45;&gt;Node19 -->
<g id="edge29_Node000019_Node000002" class="edge">
<title>Node2&#45;&gt;Node19</title>
<g id="a_edge29_Node000019_Node000002"><a xlink:title=" ">
<path fill="none" stroke="#9a32cd" stroke-dasharray="5,2" d="M729.81,-504.85C785.49,-512.48 854.37,-522.26 883,-527.75 890.09,-529.11 897.49,-530.67 904.82,-532.31"/>
<polygon fill="#9a32cd" stroke="#9a32cd" points="730.39,-501.4 720.01,-503.52 729.44,-508.34 730.39,-501.4"/>
</a>
</g>
<text text-anchor="middle" x="810.62" y="-529.5" font-family="Helvetica,sans-Serif" font-size="10.00" fill="grey"> ptr</text>
</g>
<!-- Node3 -->
<g id="Node000003" class="node">
<title>Node3</title>
<g id="a_Node000003"><a xlink:href="../../d5/db5/classArk_1_1internal_1_1MacroProcessor.html" target="_top" xlink:title="The class handling the macros definitions and calls, given an AST.">
<polygon fill="white" stroke="#666666" points="1609,-266.62 1463.25,-266.62 1463.25,-247.38 1609,-247.38 1609,-266.62"/>
<text text-anchor="middle" x="1536.12" y="-253.12" font-family="Helvetica,sans-Serif" font-size="10.00">Ark::internal::MacroProcessor</text>
</a>
</g>
</g>
<!-- Node3&#45;&gt;Node2 -->
<g id="edge2_Node000002_Node000003" class="edge">
<title>Node3&#45;&gt;Node2</title>
<g id="a_edge2_Node000002_Node000003"><a xlink:title=" ">
<path fill="none" stroke="#9a32cd" stroke-dasharray="5,2" d="M1490.4,-270.16C1476,-274.33 1459.97,-278.92 1445.25,-283 1155.45,-363.3 804.5,-454.02 688.32,-483.89"/>
<polygon fill="#9a32cd" stroke="#9a32cd" points="1490.96,-273.64 1499.58,-267.48 1489,-266.92 1490.96,-273.64"/>
</a>
</g>
<text text-anchor="middle" x="1110.12" y="-388.64" font-family="Helvetica,sans-Serif" font-size="10.00" fill="grey"> m_processor</text>
</g>
<!-- Node4 -->
<g id="Node000004" class="node">
<title>Node4</title>
<g id="a_Node000004"><a xlink:href="../../da/d7b/classArk_1_1internal_1_1Pass.html" target="_top" xlink:title="An interface to describe compiler passes.">
<polygon fill="white" stroke="#666666" points="1324.88,-243.62 1227.88,-243.62 1227.88,-224.38 1324.88,-224.38 1324.88,-243.62"/>
<text text-anchor="middle" x="1276.38" y="-230.12" font-family="Helvetica,sans-Serif" font-size="10.00">Ark::internal::Pass</text>
</a>
</g>
</g>
<!-- Node4&#45;&gt;Node3 -->
<g id="edge3_Node000003_Node000004" class="edge">
<title>Node4&#45;&gt;Node3</title>
<g id="a_edge3_Node000003_Node000004"><a xlink:title=" ">
<path fill="none" stroke="#63b8ff" d="M1336.55,-239.28C1374.22,-242.64 1423.24,-247.02 1463.15,-250.58"/>
<polygon fill="#63b8ff" stroke="#63b8ff" points="1337.03,-235.81 1326.76,-238.41 1336.41,-242.78 1337.03,-235.81"/>
</a>
</g>
</g>
<!-- Node5 -->
<g id="Node000005" class="node">
<title>Node5</title>
<g id="a_Node000005"><a xlink:href="../../d6/d2f/classArk_1_1internal_1_1Logger.html" target="_top" xlink:title=" ">
<polygon fill="white" stroke="#666666" points="1020.12,-243.62 916.38,-243.62 916.38,-224.38 1020.12,-224.38 1020.12,-243.62"/>
<text text-anchor="middle" x="968.25" y="-230.12" font-family="Helvetica,sans-Serif" font-size="10.00">Ark::internal::Logger</text>
</a>
</g>
</g>
<!-- Node5&#45;&gt;Node4 -->
<g id="edge4_Node000004_Node000005" class="edge">
<title>Node5&#45;&gt;Node4</title>
<g id="a_edge4_Node000004_Node000005"><a xlink:title=" ">
<path fill="none" stroke="#9a32cd" stroke-dasharray="5,2" d="M1031.7,-234C1089.67,-234 1174.74,-234 1227.5,-234"/>
<polygon fill="#9a32cd" stroke="#9a32cd" points="1032,-230.5 1022,-234 1032,-237.5 1032,-230.5"/>
</a>
</g>
<text text-anchor="middle" x="1110.12" y="-235.75" font-family="Helvetica,sans-Serif" font-size="10.00" fill="grey"> m_logger</text>
</g>
<!-- Node6 -->
<g id="Node000006" class="node">
<title>Node6</title>
<g id="a_Node000006"><a xlink:title=" ">
<polygon fill="white" stroke="#666666" points="190.5,-145.62 131,-145.62 131,-126.38 190.5,-126.38 190.5,-145.62"/>
<text text-anchor="middle" x="160.75" y="-132.12" font-family="Helvetica,sans-Serif" font-size="10.00">std::string</text>
</a>
</g>
</g>
<!-- Node6&#45;&gt;Node5 -->
<g id="edge5_Node000005_Node000006" class="edge">
<title>Node6&#45;&gt;Node5</title>
<g id="a_edge5_Node000005_Node000006"><a xlink:title=" ">
<path fill="none" stroke="#9a32cd" stroke-dasharray="5,2" d="M198.22,-122.15C268.13,-97.42 425.76,-50.42 557.5,-74.75 716.23,-104.07 892.36,-193.64 948.8,-223.9"/>
<polygon fill="#9a32cd" stroke="#9a32cd" points="197.41,-118.72 189.19,-125.4 199.79,-125.31 197.41,-118.72"/>
</a>
</g>
<text text-anchor="middle" x="493" y="-76.5" font-family="Helvetica,sans-Serif" font-size="10.00" fill="grey"> m_name</text>
</g>
<!-- Node8 -->
<g id="Node000008" class="node">
<title>Node8</title>
<g id="a_Node000008"><a xlink:title=" ">
<polygon fill="white" stroke="#666666" points="709.12,-270.12 586.62,-270.12 586.62,-205.88 709.12,-205.88 709.12,-270.12"/>
<text text-anchor="start" x="594.62" y="-256.62" font-family="Helvetica,sans-Serif" font-size="10.00">std::unordered_map</text>
<text text-anchor="start" x="594.62" y="-245.38" font-family="Helvetica,sans-Serif" font-size="10.00">&lt; std::string, std::</text>
<text text-anchor="start" x="594.62" y="-234.12" font-family="Helvetica,sans-Serif" font-size="10.00">chrono::time_point&lt; std</text>
<text text-anchor="start" x="594.62" y="-222.88" font-family="Helvetica,sans-Serif" font-size="10.00">::chrono::high_resolution</text>
<text text-anchor="middle" x="647.88" y="-211.62" font-family="Helvetica,sans-Serif" font-size="10.00">_clock &gt; &gt;</text>
</a>
</g>
</g>
<!-- Node6&#45;&gt;Node8 -->
<g id="edge8_Node000008_Node000006" class="edge">
<title>Node6&#45;&gt;Node8</title>
<g id="a_edge8_Node000008_Node000006"><a xlink:title=" ">
<path fill="none" stroke="#9a32cd" stroke-dasharray="5,2" d="M192.64,-150.34C197.86,-152.43 203.28,-154.42 208.5,-156 340.38,-196.01 500.8,-220.03 586.32,-230.95"/>
<polygon fill="#9a32cd" stroke="#9a32cd" points="194.3,-147.24 183.72,-146.55 191.56,-153.68 194.3,-147.24"/>
</a>
</g>
<text text-anchor="middle" x="359.38" y="-204.59" font-family="Helvetica,sans-Serif" font-size="10.00" fill="grey"> keys</text>
</g>
<!-- Node12 -->
<g id="Node000012" class="node">
<title>Node12</title>
<g id="a_Node000012"><a xlink:title=" ">
<polygon fill="white" stroke="#666666" points="709.88,-311.62 585.88,-311.62 585.88,-292.38 709.88,-292.38 709.88,-311.62"/>
<text text-anchor="middle" x="647.88" y="-298.12" font-family="Helvetica,sans-Serif" font-size="10.00">std::vector&lt; std::string &gt;</text>
</a>
</g>
</g>
<!-- Node6&#45;&gt;Node12 -->
<g id="edge13_Node000012_Node000006" class="edge">
<title>Node6&#45;&gt;Node12</title>
<g id="a_edge13_Node000012_Node000006"><a xlink:title=" ">
<path fill="none" stroke="#9a32cd" stroke-dasharray="5,2" d="M167.91,-156.44C178.45,-190.82 199.68,-257.15 208.5,-264 265.75,-308.45 478.97,-307.88 585.5,-304.61"/>
<polygon fill="#9a32cd" stroke="#9a32cd" points="171.36,-155.76 165.1,-147.21 164.66,-157.8 171.36,-155.76"/>
</a>
</g>
<text text-anchor="middle" x="359.38" y="-305.71" font-family="Helvetica,sans-Serif" font-size="10.00" fill="grey"> elements</text>
</g>
<!-- Node14 -->
<g id="Node000014" class="node">
<title>Node14</title>
<g id="a_Node000014"><a xlink:href="../../dc/d9e/classArk_1_1internal_1_1Node.html" target="_top" xlink:title="A node of an Abstract Syntax Tree for ArkScript.">
<polygon fill="white" stroke="#666666" points="408.25,-41.62 310.5,-41.62 310.5,-22.38 408.25,-22.38 408.25,-41.62"/>
<text text-anchor="middle" x="359.38" y="-28.12" font-family="Helvetica,sans-Serif" font-size="10.00">Ark::internal::Node</text>
</a>
</g>
</g>
<!-- Node6&#45;&gt;Node14 -->
<g id="edge17_Node000014_Node000006" class="edge">
<title>Node6&#45;&gt;Node14</title>
<g id="a_edge17_Node000014_Node000006"><a xlink:title=" ">
<path fill="none" stroke="#9a32cd" stroke-dasharray="5,2" d="M164.14,-114.62C168.27,-89.08 179.33,-47.39 208.5,-28.25 244.3,-4.76 295.97,-13.01 328.34,-21.9"/>
<polygon fill="#9a32cd" stroke="#9a32cd" points="160.68,-114.12 162.79,-124.5 167.61,-115.07 160.68,-114.12"/>
</a>
</g>
<text text-anchor="middle" x="249.38" y="-52.5" font-family="Helvetica,sans-Serif" font-size="10.00" fill="grey"> m_after_comment</text>
<text text-anchor="middle" x="249.38" y="-41.25" font-family="Helvetica,sans-Serif" font-size="10.00" fill="grey">m_comment</text>
<text text-anchor="middle" x="249.38" y="-30" font-family="Helvetica,sans-Serif" font-size="10.00" fill="grey">m_filename</text>
</g>
<!-- Node17 -->
<g id="Node000017" class="node">
<title>Node17</title>
<g id="a_Node000017"><a xlink:title=" ">
<polygon fill="white" stroke="#666666" points="699,-187.88 596.75,-187.88 596.75,-146.12 699,-146.12 699,-187.88"/>
<text text-anchor="start" x="604.75" y="-174.38" font-family="Helvetica,sans-Serif" font-size="10.00">std::unordered_map</text>
<text text-anchor="start" x="604.75" y="-163.12" font-family="Helvetica,sans-Serif" font-size="10.00">&lt; std::string, Ark::</text>
<text text-anchor="middle" x="647.88" y="-151.88" font-family="Helvetica,sans-Serif" font-size="10.00">internal::Node &gt;</text>
</a>
</g>
</g>
<!-- Node6&#45;&gt;Node17 -->
<g id="edge21_Node000017_Node000006" class="edge">
<title>Node6&#45;&gt;Node17</title>
<g id="a_edge21_Node000017_Node000006"><a xlink:title=" ">
<path fill="none" stroke="#9a32cd" stroke-dasharray="5,2" d="M202,-138.57C290.14,-144.2 500,-157.61 596.62,-163.79"/>
<polygon fill="#9a32cd" stroke="#9a32cd" points="202.36,-135.09 192.15,-137.94 201.91,-142.07 202.36,-135.09"/>
</a>
</g>
<text text-anchor="middle" x="359.38" y="-153.25" font-family="Helvetica,sans-Serif" font-size="10.00" fill="grey"> keys</text>
</g>
<!-- Node7 -->
<g id="Node000007" class="node">
<title>Node7</title>
<g id="a_Node000007"><a xlink:title=" ">
<polygon fill="white" stroke="#666666" points="94,-151.25 0,-151.25 0,-120.75 94,-120.75 94,-151.25"/>
<text text-anchor="start" x="8" y="-137.75" font-family="Helvetica,sans-Serif" font-size="10.00">std::basic_string&lt;</text>
<text text-anchor="middle" x="47" y="-126.5" font-family="Helvetica,sans-Serif" font-size="10.00"> Char &gt;</text>
</a>
</g>
</g>
<!-- Node7&#45;&gt;Node6 -->
<g id="edge6_Node000006_Node000007" class="edge">
<title>Node7&#45;&gt;Node6</title>
<g id="a_edge6_Node000006_Node000007"><a xlink:title=" ">
<path fill="none" stroke="#63b8ff" d="M105.71,-136C114.32,-136 122.87,-136 130.55,-136"/>
<polygon fill="#63b8ff" stroke="#63b8ff" points="105.93,-132.5 95.93,-136 105.93,-139.5 105.93,-132.5"/>
</a>
</g>
</g>
<!-- Node8&#45;&gt;Node5 -->
<g id="edge7_Node000005_Node000008" class="edge">
<title>Node8&#45;&gt;Node5</title>
<g id="a_edge7_Node000005_Node000008"><a xlink:title=" ">
<path fill="none" stroke="#9a32cd" stroke-dasharray="5,2" d="M720.79,-235.18C726.7,-235.01 732.57,-234.86 738.25,-234.75 799.46,-233.54 869.9,-233.51 916.31,-233.68"/>
<polygon fill="#9a32cd" stroke="#9a32cd" points="720.84,-231.67 710.96,-235.48 721.06,-238.67 720.84,-231.67"/>
</a>
</g>
<text text-anchor="middle" x="810.62" y="-236.5" font-family="Helvetica,sans-Serif" font-size="10.00" fill="grey"> m_trace_starts</text>
</g>
<!-- Node9 -->
<g id="Node000009" class="node">
<title>Node9</title>
<g id="a_Node000009"><a xlink:title=" ">
<polygon fill="white" stroke="#666666" points="410.5,-264.25 308.25,-264.25 308.25,-233.75 410.5,-233.75 410.5,-264.25"/>
<text text-anchor="start" x="316.25" y="-250.75" font-family="Helvetica,sans-Serif" font-size="10.00">std::unordered_map</text>
<text text-anchor="middle" x="359.38" y="-239.5" font-family="Helvetica,sans-Serif" font-size="10.00">&lt; K, T &gt;</text>
</a>
</g>
</g>
<!-- Node9&#45;&gt;Node8 -->
<g id="edge9_Node000008_Node000009" class="edge">
<title>Node9&#45;&gt;Node8</title>
<g id="a_edge9_Node000008_Node000009"><a xlink:title=" ">
<path fill="none" stroke="orange" stroke-dasharray="5,2" d="M422.27,-241.45C424.37,-241.29 426.45,-241.13 428.5,-241 481.85,-237.51 542.68,-236.95 586.56,-237.16"/>
<polygon fill="orange" stroke="orange" points="422.07,-237.96 412.42,-242.34 422.7,-244.93 422.07,-237.96"/>
</a>
</g>
<text text-anchor="start" x="428.5" y="-276.5" font-family="Helvetica,sans-Serif" font-size="10.00" fill="grey"> &lt; std::string, std</text>
<text text-anchor="start" x="428.5" y="-265.25" font-family="Helvetica,sans-Serif" font-size="10.00" fill="grey">::chrono::time_point</text>
<text text-anchor="start" x="428.5" y="-254" font-family="Helvetica,sans-Serif" font-size="10.00" fill="grey">&lt; std::chrono::high_resolution</text>
<text text-anchor="middle" x="493" y="-242.75" font-family="Helvetica,sans-Serif" font-size="10.00" fill="grey">_clock &gt; &gt;</text>
</g>
<!-- Node9&#45;&gt;Node17 -->
<g id="edge23_Node000017_Node000009" class="edge">
<title>Node9&#45;&gt;Node17</title>
<g id="a_edge23_Node000017_Node000009"><a xlink:title=" ">
<path fill="none" stroke="orange" stroke-dasharray="5,2" d="M395.9,-227.58C408.72,-220.14 421.7,-213.02 428.5,-210.5 484.13,-189.85 551.56,-178.32 596.64,-172.4"/>
<polygon fill="orange" stroke="orange" points="394.38,-224.41 387.54,-232.49 397.93,-230.45 394.38,-224.41"/>
</a>
</g>
<text text-anchor="start" x="455.12" y="-223.5" font-family="Helvetica,sans-Serif" font-size="10.00" fill="grey"> &lt; std::string, Ark</text>
<text text-anchor="middle" x="493" y="-212.25" font-family="Helvetica,sans-Serif" font-size="10.00" fill="grey">::internal::Node &gt;</text>
</g>
<!-- Node10 -->
<g id="Node000010" class="node">
<title>Node10</title>
<g id="a_Node000010"><a xlink:title=" ">
<polygon fill="white" stroke="#666666" points="175.15,-258.62 146.35,-258.62 146.35,-239.38 175.15,-239.38 175.15,-258.62"/>
<text text-anchor="middle" x="160.75" y="-245.12" font-family="Helvetica,sans-Serif" font-size="10.00">K</text>
</a>
</g>
</g>
<!-- Node10&#45;&gt;Node9 -->
<g id="edge10_Node000009_Node000010" class="edge">
<title>Node10&#45;&gt;Node9</title>
<g id="a_edge10_Node000009_Node000010"><a xlink:title=" ">
<path fill="none" stroke="#9a32cd" stroke-dasharray="5,2" d="M186.83,-249C217.27,-249 269.32,-249 308.12,-249"/>
<polygon fill="#9a32cd" stroke="#9a32cd" points="187.09,-245.5 177.09,-249 187.09,-252.5 187.09,-245.5"/>
</a>
</g>
<text text-anchor="middle" x="249.38" y="-250.75" font-family="Helvetica,sans-Serif" font-size="10.00" fill="grey"> keys</text>
</g>
<!-- Node11 -->
<g id="Node000011" class="node">
<title>Node11</title>
<g id="a_Node000011"><a xlink:title=" ">
<polygon fill="white" stroke="#666666" points="175.15,-395.62 146.35,-395.62 146.35,-376.38 175.15,-376.38 175.15,-395.62"/>
<text text-anchor="middle" x="160.75" y="-382.12" font-family="Helvetica,sans-Serif" font-size="10.00">T</text>
</a>
</g>
</g>
<!-- Node11&#45;&gt;Node9 -->
<g id="edge11_Node000009_Node000011" class="edge">
<title>Node11&#45;&gt;Node9</title>
<g id="a_edge11_Node000009_Node000011"><a xlink:title=" ">
<path fill="none" stroke="#9a32cd" stroke-dasharray="5,2" d="M183.28,-368.95C211.38,-346.99 262.38,-308.05 308.25,-278 315.15,-273.48 322.77,-268.88 329.94,-264.72"/>
<polygon fill="#9a32cd" stroke="#9a32cd" points="181.24,-366.11 175.53,-375.04 185.56,-371.61 181.24,-366.11"/>
</a>
</g>
<text text-anchor="middle" x="249.38" y="-350.37" font-family="Helvetica,sans-Serif" font-size="10.00" fill="grey"> elements</text>
</g>
<!-- Node13 -->
<g id="Node000013" class="node">
<title>Node13</title>
<g id="a_Node000013"><a xlink:title=" ">
<polygon fill="white" stroke="#666666" points="402.62,-395.62 316.12,-395.62 316.12,-376.38 402.62,-376.38 402.62,-395.62"/>
<text text-anchor="middle" x="359.38" y="-382.12" font-family="Helvetica,sans-Serif" font-size="10.00">std::vector&lt; T &gt;</text>
</a>
</g>
</g>
<!-- Node11&#45;&gt;Node13 -->
<g id="edge15_Node000013_Node000011" class="edge">
<title>Node11&#45;&gt;Node13</title>
<g id="a_edge15_Node000013_Node000011"><a xlink:title=" ">
<path fill="none" stroke="#9a32cd" stroke-dasharray="5,2" d="M186.71,-386C219.13,-386 276.24,-386 315.63,-386"/>
<polygon fill="#9a32cd" stroke="#9a32cd" points="187.09,-382.5 177.09,-386 187.09,-389.5 187.09,-382.5"/>
</a>
</g>
<text text-anchor="middle" x="249.38" y="-387.75" font-family="Helvetica,sans-Serif" font-size="10.00" fill="grey"> elements</text>
</g>
<!-- Node20 -->
<g id="Node000020" class="node">
<title>Node20</title>
<g id="a_Node000020"><a xlink:title=" ">
<polygon fill="white" stroke="#666666" points="545.62,-535.62 440.38,-535.62 440.38,-516.38 545.62,-516.38 545.62,-535.62"/>
<text text-anchor="middle" x="493" y="-522.12" font-family="Helvetica,sans-Serif" font-size="10.00">std::shared_ptr&lt; T &gt;</text>
</a>
</g>
</g>
<!-- Node11&#45;&gt;Node20 -->
<g id="edge31_Node000020_Node000011" class="edge">
<title>Node11&#45;&gt;Node20</title>
<g id="a_edge31_Node000020_Node000011"><a xlink:title=" ">
<path fill="none" stroke="#9a32cd" stroke-dasharray="5,2" d="M186.08,-396.31C247.35,-422.29 407.4,-490.14 468.15,-515.89"/>
<polygon fill="#9a32cd" stroke="#9a32cd" points="187.49,-393.11 176.91,-392.43 184.75,-399.55 187.49,-393.11"/>
</a>
</g>
<text text-anchor="middle" x="249.38" y="-439.93" font-family="Helvetica,sans-Serif" font-size="10.00" fill="grey"> ptr</text>
</g>
<!-- Node12&#45;&gt;Node5 -->
<g id="edge12_Node000005_Node000012" class="edge">
<title>Node12&#45;&gt;Node5</title>
<g id="a_edge12_Node000005_Node000012"><a xlink:title=" ">
<path fill="none" stroke="#9a32cd" stroke-dasharray="5,2" d="M721.64,-310.16C770.38,-312.18 834.3,-307.9 883,-280 894.88,-273.19 889.91,-263.03 901,-255 907.25,-250.47 914.52,-246.89 921.9,-244.07"/>
<polygon fill="#9a32cd" stroke="#9a32cd" points="721.91,-306.67 711.74,-309.64 721.54,-313.66 721.91,-306.67"/>
</a>
</g>
<text text-anchor="middle" x="810.62" y="-312.34" font-family="Helvetica,sans-Serif" font-size="10.00" fill="grey"> m_active_traces</text>
</g>
<!-- Node13&#45;&gt;Node12 -->
<g id="edge14_Node000012_Node000013" class="edge">
<title>Node13&#45;&gt;Node12</title>
<g id="a_edge14_Node000012_Node000013"><a xlink:title=" ">
<path fill="none" stroke="orange" stroke-dasharray="5,2" d="M406.5,-373.06C413.83,-371.17 421.36,-369.33 428.5,-367.75 485.34,-355.15 502.08,-362.84 557.5,-345 583.72,-336.56 612.08,-321.87 629.66,-312.04"/>
<polygon fill="orange" stroke="orange" points="405.83,-369.62 397.05,-375.55 407.61,-376.39 405.83,-369.62"/>
</a>
</g>
<text text-anchor="middle" x="493" y="-369.5" font-family="Helvetica,sans-Serif" font-size="10.00" fill="grey"> &lt; std::string &gt;</text>
</g>
<!-- Node15 -->
<g id="Node000015" class="node">
<title>Node15</title>
<g id="a_Node000015"><a xlink:title=" ">
<polygon fill="white" stroke="#666666" points="1338,-292.25 1214.75,-292.25 1214.75,-261.75 1338,-261.75 1338,-292.25"/>
<text text-anchor="start" x="1222.75" y="-278.75" font-family="Helvetica,sans-Serif" font-size="10.00">std::vector&lt; Ark::internal</text>
<text text-anchor="middle" x="1276.38" y="-267.5" font-family="Helvetica,sans-Serif" font-size="10.00">::MacroScope &gt;</text>
</a>
</g>
</g>
<!-- Node13&#45;&gt;Node15 -->
<g id="edge24_Node000015_Node000013" class="edge">
<title>Node13&#45;&gt;Node15</title>
<g id="a_edge24_Node000015_Node000013"><a xlink:title=" ">
<path fill="none" stroke="orange" stroke-dasharray="5,2" d="M414.03,-385.62C453.72,-384.97 509.07,-383.29 557.5,-379 802.33,-357.32 1091.29,-309.38 1214.64,-287.84"/>
<polygon fill="orange" stroke="orange" points="414.21,-382.12 404.27,-385.77 414.32,-389.12 414.21,-382.12"/>
</a>
</g>
<text text-anchor="middle" x="810.62" y="-361.14" font-family="Helvetica,sans-Serif" font-size="10.00" fill="grey"> &lt; Ark::internal::MacroScope &gt;</text>
</g>
<!-- Node18 -->
<g id="Node000018" class="node">
<title>Node18</title>
<g id="a_Node000018"><a xlink:title=" ">
<polygon fill="white" stroke="#666666" points="709.5,-58.25 586.25,-58.25 586.25,-27.75 709.5,-27.75 709.5,-58.25"/>
<text text-anchor="start" x="594.25" y="-44.75" font-family="Helvetica,sans-Serif" font-size="10.00">std::vector&lt; Ark::internal</text>
<text text-anchor="middle" x="647.88" y="-33.5" font-family="Helvetica,sans-Serif" font-size="10.00">::Node &gt;</text>
</a>
</g>
</g>
<!-- Node13&#45;&gt;Node18 -->
<g id="edge27_Node000018_Node000013" class="edge">
<title>Node13&#45;&gt;Node18</title>
<g id="a_edge27_Node000018_Node000013"><a xlink:title=" ">
<path fill="none" stroke="orange" stroke-dasharray="5,2" d="M378.24,-368.78C391.29,-356.99 409.88,-341.75 428.5,-331.75 481.59,-303.24 519.26,-336.57 557.5,-290 579.22,-263.54 562.7,-168.75 575.5,-137 588.07,-105.83 613.82,-76.02 630.72,-58.62"/>
<polygon fill="orange" stroke="orange" points="376.22,-365.88 371.27,-375.25 380.98,-371.01 376.22,-365.88"/>
</a>
</g>
<text text-anchor="middle" x="493" y="-333.5" font-family="Helvetica,sans-Serif" font-size="10.00" fill="grey"> &lt; Ark::internal::Node &gt;</text>
</g>
<!-- Node21 -->
<g id="Node000021" class="node">
<title>Node21</title>
<g id="a_Node000021"><a xlink:title=" ">
<polygon fill="white" stroke="#666666" points="1368,-512.25 1184.75,-512.25 1184.75,-481.75 1368,-481.75 1368,-512.25"/>
<text text-anchor="start" x="1192.75" y="-498.75" font-family="Helvetica,sans-Serif" font-size="10.00">std::vector&lt; std::shared</text>
<text text-anchor="middle" x="1276.38" y="-487.5" font-family="Helvetica,sans-Serif" font-size="10.00">_ptr&lt; Ark::internal::MacroExecutor &gt; &gt;</text>
</a>
</g>
</g>
<!-- Node13&#45;&gt;Node21 -->
<g id="edge34_Node000021_Node000013" class="edge">
<title>Node13&#45;&gt;Node21</title>
<g id="a_edge34_Node000021_Node000013"><a xlink:title=" ">
<path fill="none" stroke="orange" stroke-dasharray="5,2" d="M414.1,-394.37C418.96,-394.98 423.82,-395.54 428.5,-396 755.45,-428.12 852.06,-338.66 1166.75,-433 1200.51,-443.12 1234.77,-465.82 1255.55,-481.28"/>
<polygon fill="orange" stroke="orange" points="414.69,-390.92 404.32,-393.07 413.77,-397.86 414.69,-390.92"/>
</a>
</g>
<text text-anchor="start" x="738.25" y="-408.73" font-family="Helvetica,sans-Serif" font-size="10.00" fill="grey"> &lt; std::shared_ptr&lt;</text>
<text text-anchor="middle" x="810.62" y="-397.48" font-family="Helvetica,sans-Serif" font-size="10.00" fill="grey"> Ark::internal::MacroExecutor &gt; &gt;</text>
</g>
<!-- Node14&#45;&gt;Node3 -->
<g id="edge16_Node000003_Node000014" class="edge">
<title>Node14&#45;&gt;Node3</title>
<g id="a_edge16_Node000003_Node000014"><a xlink:title=" ">
<path fill="none" stroke="#9a32cd" stroke-dasharray="5,2" d="M419.71,-21.47C477.5,-12.15 567.93,0 646.88,0 646.88,0 646.88,0 1277.38,0 1419.87,0 1511.32,-199.41 1531.09,-246.93"/>
<polygon fill="#9a32cd" stroke="#9a32cd" points="419.4,-17.98 410.1,-23.05 420.53,-24.89 419.4,-17.98"/>
</a>
</g>
<text text-anchor="middle" x="968.25" y="-1.75" font-family="Helvetica,sans-Serif" font-size="10.00" fill="grey"> m_ast</text>
</g>
<!-- Node14&#45;&gt;Node17 -->
<g id="edge22_Node000017_Node000014" class="edge">
<title>Node14&#45;&gt;Node17</title>
<g id="a_edge22_Node000017_Node000014"><a xlink:title=" ">
<path fill="none" stroke="#9a32cd" stroke-dasharray="5,2" d="M376.85,-49.75C389.69,-62.45 408.61,-78.85 428.5,-88 481.39,-112.34 503.18,-89.8 557.5,-110.75 579.74,-119.33 602.44,-133.7 619.4,-145.77"/>
<polygon fill="#9a32cd" stroke="#9a32cd" points="379.54,-47.5 370.06,-42.77 374.53,-52.38 379.54,-47.5"/>
</a>
</g>
<text text-anchor="middle" x="493" y="-112.5" font-family="Helvetica,sans-Serif" font-size="10.00" fill="grey"> elements</text>
</g>
<!-- Node14&#45;&gt;Node18 -->
<g id="edge26_Node000018_Node000014" class="edge">
<title>Node14&#45;&gt;Node18</title>
<g id="a_edge26_Node000018_Node000014"><a xlink:title=" ">
<path fill="none" stroke="#9a32cd" stroke-dasharray="5,2" d="M419.94,-34.29C468.54,-36.15 536.94,-38.78 585.91,-40.66"/>
<polygon fill="#9a32cd" stroke="#9a32cd" points="420.29,-30.8 410.16,-33.91 420.02,-37.79 420.29,-30.8"/>
</a>
</g>
<text text-anchor="middle" x="493" y="-41.19" font-family="Helvetica,sans-Serif" font-size="10.00" fill="grey"> elements</text>
</g>
<!-- Node15&#45;&gt;Node3 -->
<g id="edge18_Node000003_Node000015" class="edge">
<title>Node15&#45;&gt;Node3</title>
<g id="a_edge18_Node000003_Node000015"><a xlink:title=" ">
<path fill="none" stroke="#9a32cd" stroke-dasharray="5,2" d="M1349.69,-271.39C1385.11,-268.64 1427.65,-265.34 1463.04,-262.59"/>
<polygon fill="#9a32cd" stroke="#9a32cd" points="1349.67,-267.88 1339.97,-272.14 1350.21,-274.86 1349.67,-267.88"/>
</a>
</g>
<text text-anchor="middle" x="1415.62" y="-269.95" font-family="Helvetica,sans-Serif" font-size="10.00" fill="grey"> m_macros</text>
</g>
<!-- Node16 -->
<g id="Node000016" class="node">
<title>Node16</title>
<g id="a_Node000016"><a xlink:href="../../d6/d42/classArk_1_1internal_1_1MacroScope.html" target="_top" xlink:title=" ">
<polygon fill="white" stroke="#666666" points="1032.88,-283.62 903.62,-283.62 903.62,-264.38 1032.88,-264.38 1032.88,-283.62"/>
<text text-anchor="middle" x="968.25" y="-270.12" font-family="Helvetica,sans-Serif" font-size="10.00">Ark::internal::MacroScope</text>
</a>
</g>
</g>
<!-- Node16&#45;&gt;Node15 -->
<g id="edge19_Node000015_Node000016" class="edge">
<title>Node16&#45;&gt;Node15</title>
<g id="a_edge19_Node000015_Node000016"><a xlink:title=" ">
<path fill="none" stroke="#9a32cd" stroke-dasharray="5,2" d="M1044.27,-274.74C1096.53,-275.25 1165.35,-275.92 1214.27,-276.4"/>
<polygon fill="#9a32cd" stroke="#9a32cd" points="1044.6,-271.24 1034.56,-274.64 1044.53,-278.24 1044.6,-271.24"/>
</a>
</g>
<text text-anchor="middle" x="1110.12" y="-277.61" font-family="Helvetica,sans-Serif" font-size="10.00" fill="grey"> elements</text>
</g>
<!-- Node17&#45;&gt;Node3 -->
<g id="edge35_Node000003_Node000017" class="edge">
<title>Node17&#45;&gt;Node3</title>
<g id="a_edge35_Node000003_Node000017"><a xlink:title=" ">
<path fill="none" stroke="#9a32cd" stroke-dasharray="5,2" d="M710.55,-167.4C835.42,-169.02 1126.79,-176.96 1368,-215 1415.43,-222.48 1469.08,-237.09 1502.51,-246.95"/>
<polygon fill="#9a32cd" stroke="#9a32cd" points="710.91,-163.9 700.86,-167.28 710.82,-170.9 710.91,-163.9"/>
</a>
</g>
<text text-anchor="middle" x="1110.12" y="-191.88" font-family="Helvetica,sans-Serif" font-size="10.00" fill="grey"> m_defined_functions</text>
</g>
<!-- Node17&#45;&gt;Node16 -->
<g id="edge20_Node000016_Node000017" class="edge">
<title>Node17&#45;&gt;Node16</title>
<g id="a_edge20_Node000016_Node000017"><a xlink:title=" ">
<path fill="none" stroke="#9a32cd" stroke-dasharray="5,2" d="M709.2,-187.76C713.21,-190.49 716.96,-193.56 720.25,-197 736.27,-213.78 720.07,-231.59 738.25,-246 744.71,-251.12 837.7,-261.25 903.17,-267.82"/>
<polygon fill="#9a32cd" stroke="#9a32cd" points="711.13,-184.84 700.74,-182.77 707.57,-190.87 711.13,-184.84"/>
</a>
</g>
<text text-anchor="middle" x="810.62" y="-266.85" font-family="Helvetica,sans-Serif" font-size="10.00" fill="grey"> m_macros</text>
</g>
<!-- Node18&#45;&gt;Node3 -->
<g id="edge25_Node000003_Node000018" class="edge">
<title>Node18&#45;&gt;Node3</title>
<g id="a_edge25_Node000003_Node000018"><a xlink:title=" ">
<path fill="none" stroke="#9a32cd" stroke-dasharray="5,2" d="M720.59,-54.38C850.74,-75.72 1134.01,-125.3 1368,-188 1402.99,-197.38 1411.68,-200.38 1445.25,-214 1470.09,-224.08 1497.8,-237.72 1515.8,-246.91"/>
<polygon fill="#9a32cd" stroke="#9a32cd" points="721.53,-50.99 711.1,-52.84 720.41,-57.9 721.53,-50.99"/>
</a>
</g>
<text text-anchor="middle" x="1110.12" y="-140.58" font-family="Helvetica,sans-Serif" font-size="10.00" fill="grey"> m_macros_being_applied</text>
</g>
<!-- Node19&#45;&gt;Node3 -->
<g id="edge28_Node000003_Node000019" class="edge">
<title>Node19&#45;&gt;Node3</title>
<g id="a_edge28_Node000003_Node000019"><a xlink:title=" ">
<path fill="none" stroke="#9a32cd" stroke-dasharray="5,2" d="M1045.18,-565.92C1148.18,-585.41 1332.25,-602.48 1445.25,-509 1523.81,-444.01 1533.72,-305.2 1534.96,-266.94"/>
<polygon fill="#9a32cd" stroke="#9a32cd" points="1045.92,-562.5 1035.44,-564.01 1044.58,-569.37 1045.92,-562.5"/>
</a>
</g>
<text text-anchor="middle" x="1276.38" y="-582.98" font-family="Helvetica,sans-Serif" font-size="10.00" fill="grey"> m_conditional_executor</text>
</g>
<!-- Node19&#45;&gt;Node21 -->
<g id="edge33_Node000021_Node000019" class="edge">
<title>Node19&#45;&gt;Node21</title>
<g id="a_edge33_Node000021_Node000019"><a xlink:title=" ">
<path fill="none" stroke="#9a32cd" stroke-dasharray="5,2" d="M1027.08,-529.22C1035.87,-526.79 1044.88,-524.53 1053.5,-522.75 1096.13,-513.96 1144.04,-507.93 1184.39,-503.92"/>
<polygon fill="#9a32cd" stroke="#9a32cd" points="1026.21,-525.82 1017.56,-531.95 1028.14,-532.55 1026.21,-525.82"/>
</a>
</g>
<text text-anchor="middle" x="1110.12" y="-524.5" font-family="Helvetica,sans-Serif" font-size="10.00" fill="grey"> elements</text>
</g>
<!-- Node20&#45;&gt;Node19 -->
<g id="edge30_Node000019_Node000020" class="edge">
<title>Node20&#45;&gt;Node19</title>
<g id="a_edge30_Node000019_Node000020"><a xlink:title=" ">
<path fill="none" stroke="orange" stroke-dasharray="5,2" d="M557.37,-529.61C606.66,-532.37 676.79,-536.16 738.25,-539 792.9,-541.53 854.91,-543.94 900.6,-545.63"/>
<polygon fill="orange" stroke="orange" points="557.62,-526.12 547.44,-529.06 557.22,-533.11 557.62,-526.12"/>
</a>
</g>
<text text-anchor="middle" x="647.88" y="-539.86" font-family="Helvetica,sans-Serif" font-size="10.00" fill="grey"> &lt; Ark::internal::MacroExecutor &gt;</text>
</g>
<!-- Node21&#45;&gt;Node3 -->
<g id="edge32_Node000003_Node000021" class="edge">
<title>Node21&#45;&gt;Node3</title>
<g id="a_edge32_Node000003_Node000021"><a xlink:title=" ">
<path fill="none" stroke="#9a32cd" stroke-dasharray="5,2" d="M1379.38,-495.67C1402.93,-491.17 1426.53,-482.82 1445.25,-468 1512.68,-414.62 1530.31,-301.1 1534.17,-266.93"/>
<polygon fill="#9a32cd" stroke="#9a32cd" points="1379,-492.19 1369.71,-497.28 1380.15,-499.09 1379,-492.19"/>
</a>
</g>
<text text-anchor="middle" x="1415.62" y="-495.76" font-family="Helvetica,sans-Serif" font-size="10.00" fill="grey"> m_executors</text>
</g>
</g>
</svg>

<g id="navigator" transform="translate(0 0)" fill="#404254">
  <rect fill="#f2f5e9" fill-opacity="0.5" stroke="#606060" stroke-width=".5" x="0" y="0" width="60" height="60"/>
  <use id="zoomplus" xlink:href="#zoomPlus" x="17" y="9" onmousedown="handleZoom(evt,'in')"/>
  <use id="zoomminus" xlink:href="#zoomMin" x="42" y="9" onmousedown="handleZoom(evt,'out')"/>
  <use id="reset" xlink:href="#resetDef" x="30" y="36" onmousedown="handleReset()"/>
   <use id="arrowup" xlink:href="#arrowUp" x="0" y="0" onmousedown="handlePan(0,-1)"/>
  <use id="arrowright" xlink:href="#arrowRight" x="0" y="0" onmousedown="handlePan(1,0)"/>
  <use id="arrowdown" xlink:href="#arrowDown" x="0" y="0" onmousedown="handlePan(0,1)"/>
  <use id="arrowleft" xlink:href="#arrowLeft" x="0" y="0" onmousedown="handlePan(-1,0)"/>
</g>
<svg viewBox="0 0 15 15" width="100%" height="30px" preserveAspectRatio="xMaxYMin meet">
 <g id="arrow_out" transform="scale(0.3 0.3)">
  <a xlink:href="classArk_1_1internal_1_1ConditionalExecutor__coll__graph_org.svg" target="_base">
   <rect id="button" ry="5" rx="5" y="6" x="6" height="38" width="38"
        fill="#f2f5e9" fill-opacity="0.5" stroke="#606060" stroke-width="1.0"/>
   <path id="arrow"
     d="M 11.500037,31.436501 C 11.940474,20.09759 22.043105,11.32322 32.158766,21.979434 L 37.068811,17.246167 C 37.068811,17.246167 37.088388,32 37.088388,32 L 22.160133,31.978069 C 22.160133,31.978069 26.997745,27.140456 26.997745,27.140456 C 18.528582,18.264221 13.291696,25.230495 11.500037,31.436501 z"
     style="fill:#404040;"/>
  </a>
 </g>
</svg>

<style type='text/css'>
<![CDATA[
[data-mouse-over-selected='false'] { opacity: 0.7; }
[data-mouse-over-selected='true']  { opacity: 1.0; }
]]>
</style>
<script type="application/ecmascript"><![CDATA[
document.addEventListener('DOMContentLoaded', (event) => {
  highlightEdges();
  highlightAdjacentNodes();
});
]]></script>
</svg>
