<?xml version="1.0" encoding="UTF-8" standalone="no"?>
<!DOCTYPE svg PUBLIC "-//W3C//DTD SVG 1.1//EN"
 "http://www.w3.org/Graphics/SVG/1.1/DTD/svg11.dtd">
<!-- Generated by graphviz version 12.2.0 (20241103.1931)
 -->
<!-- Title: /Users/fola/Documents/ArkScript/Ark/src/arkreactor/Compiler/NameResolution/StaticScope.cpp Pages: 1 -->
<svg width="519pt" height="172pt"
 viewBox="0.00 0.00 518.62 171.50" xmlns="http://www.w3.org/2000/svg" xmlns:xlink="http://www.w3.org/1999/xlink">
<g id="graph0" class="graph" transform="scale(1 1) rotate(0) translate(4 167.5)">
<title>/Users/fola/Documents/ArkScript/Ark/src/arkreactor/Compiler/NameResolution/StaticScope.cpp</title>
<!-- Node1 -->
<g id="Node000001" class="node">
<title>Node1</title>
<g id="a_Node000001"><a xlink:title=" ">
<polygon fill="#999999" stroke="#666666" points="466.38,-163.5 257.62,-163.5 257.62,-121.75 466.38,-121.75 466.38,-163.5"/>
<text text-anchor="start" x="265.62" y="-150" font-family="Helvetica,sans-Serif" font-size="10.00">/Users/fola/Documents</text>
<text text-anchor="start" x="265.62" y="-138.75" font-family="Helvetica,sans-Serif" font-size="10.00">/ArkScript/Ark/src/arkreactor</text>
<text text-anchor="middle" x="362" y="-127.5" font-family="Helvetica,sans-Serif" font-size="10.00">/Compiler/NameResolution/StaticScope.cpp</text>
</a>
</g>
</g>
<!-- Node2 -->
<g id="Node000002" class="node">
<title>Node2</title>
<g id="a_Node000002"><a xlink:href="../../df/db8/StaticScope_8hpp.html" target="_top" xlink:title="Static scopes (for functions, loops) and namespace scopes (for packages) definitions,...">
<polygon fill="white" stroke="#666666" points="291.38,-85.75 142.62,-85.75 142.62,-55.25 291.38,-55.25 291.38,-85.75"/>
<text text-anchor="start" x="150.62" y="-72.25" font-family="Helvetica,sans-Serif" font-size="10.00">Ark/Compiler/NameResolution</text>
<text text-anchor="middle" x="217" y="-61" font-family="Helvetica,sans-Serif" font-size="10.00">/StaticScope.hpp</text>
</a>
</g>
</g>
<!-- Node1&#45;&gt;Node2 -->
<g id="edge1_Node000001_Node000002" class="edge">
<title>Node1&#45;&gt;Node2</title>
<g id="a_edge1_Node000001_Node000002"><a xlink:title=" ">
<path fill="none" stroke="#63b8ff" d="M320.06,-121.34C300.35,-111.81 276.95,-100.49 257.44,-91.06"/>
<polygon fill="#63b8ff" stroke="#63b8ff" points="259.22,-88.03 248.7,-86.83 256.17,-94.33 259.22,-88.03"/>
</a>
</g>
</g>
<!-- Node10 -->
<g id="Node000010" class="node">
<title>Node10</title>
<g id="a_Node000010"><a xlink:title=" ">
<polygon fill="#e0e0e0" stroke="#999999" points="348.62,-80.12 309.38,-80.12 309.38,-60.88 348.62,-60.88 348.62,-80.12"/>
<text text-anchor="middle" x="329" y="-66.62" font-family="Helvetica,sans-Serif" font-size="10.00">utility</text>
</a>
</g>
</g>
<!-- Node1&#45;&gt;Node10 -->
<g id="edge9_Node000001_Node000010" class="edge">
<title>Node1&#45;&gt;Node10</title>
<g id="a_edge9_Node000001_Node000010"><a xlink:title=" ">
<path fill="none" stroke="#63b8ff" d="M352.46,-121.34C347.91,-111.68 342.5,-100.18 338.02,-90.67"/>
<polygon fill="#63b8ff" stroke="#63b8ff" points="341.21,-89.23 333.79,-81.67 334.88,-92.21 341.21,-89.23"/>
</a>
</g>
</g>
<!-- Node11 -->
<g id="Node000011" class="node">
<title>Node11</title>
<g id="a_Node000011"><a xlink:title=" ">
<polygon fill="#e0e0e0" stroke="#999999" points="422.88,-80.12 367.12,-80.12 367.12,-60.88 422.88,-60.88 422.88,-80.12"/>
<text text-anchor="middle" x="395" y="-66.62" font-family="Helvetica,sans-Serif" font-size="10.00">algorithm</text>
</a>
</g>
</g>
<!-- Node1&#45;&gt;Node11 -->
<g id="edge10_Node000001_Node000011" class="edge">
<title>Node1&#45;&gt;Node11</title>
<g id="a_edge10_Node000001_Node000011"><a xlink:title=" ">
<path fill="none" stroke="#63b8ff" d="M371.54,-121.34C376.09,-111.68 381.5,-100.18 385.98,-90.67"/>
<polygon fill="#63b8ff" stroke="#63b8ff" points="389.12,-92.21 390.21,-81.67 382.79,-89.23 389.12,-92.21"/>
</a>
</g>
</g>
<!-- Node12 -->
<g id="Node000012" class="node">
<title>Node12</title>
<g id="a_Node000012"><a xlink:title=" ">
<polygon fill="#e0e0e0" stroke="#999999" points="510.62,-80.12 441.38,-80.12 441.38,-60.88 510.62,-60.88 510.62,-80.12"/>
<text text-anchor="middle" x="476" y="-66.62" font-family="Helvetica,sans-Serif" font-size="10.00">fmt/format.h</text>
</a>
</g>
</g>
<!-- Node1&#45;&gt;Node12 -->
<g id="edge11_Node000001_Node000012" class="edge">
<title>Node1&#45;&gt;Node12</title>
<g id="a_edge11_Node000001_Node000012"><a xlink:title=" ">
<path fill="none" stroke="#63b8ff" d="M394.97,-121.34C413.16,-110.15 435.35,-96.51 451.9,-86.32"/>
<polygon fill="#63b8ff" stroke="#63b8ff" points="453.42,-89.5 460.1,-81.28 449.75,-83.54 453.42,-89.5"/>
</a>
</g>
</g>
<!-- Node3 -->
<g id="Node000003" class="node">
<title>Node3</title>
<g id="a_Node000003"><a xlink:title=" ">
<polygon fill="#e0e0e0" stroke="#999999" points="40,-19.25 0,-19.25 0,0 40,0 40,-19.25"/>
<text text-anchor="middle" x="20" y="-5.75" font-family="Helvetica,sans-Serif" font-size="10.00">string</text>
</a>
</g>
</g>
<!-- Node2&#45;&gt;Node3 -->
<g id="edge2_Node000002_Node000003" class="edge">
<title>Node2&#45;&gt;Node3</title>
<g id="a_edge2_Node000002_Node000003"><a xlink:title=" ">
<path fill="none" stroke="#63b8ff" d="M167.8,-54.8C131.26,-43.87 82.52,-29.31 51.2,-19.95"/>
<polygon fill="#63b8ff" stroke="#63b8ff" points="52.53,-16.69 41.95,-17.18 50.53,-23.4 52.53,-16.69"/>
</a>
</g>
</g>
<!-- Node4 -->
<g id="Node000004" class="node">
<title>Node4</title>
<g id="a_Node000004"><a xlink:title=" ">
<polygon fill="#e0e0e0" stroke="#999999" points="107.88,-19.25 58.12,-19.25 58.12,0 107.88,0 107.88,-19.25"/>
<text text-anchor="middle" x="83" y="-5.75" font-family="Helvetica,sans-Serif" font-size="10.00">optional</text>
</a>
</g>
</g>
<!-- Node2&#45;&gt;Node4 -->
<g id="edge3_Node000002_Node000004" class="edge">
<title>Node2&#45;&gt;Node4</title>
<g id="a_edge3_Node000002_Node000004"><a xlink:title=" ">
<path fill="none" stroke="#63b8ff" d="M183.53,-54.8C162.24,-45.44 134.87,-33.41 114.06,-24.27"/>
<polygon fill="#63b8ff" stroke="#63b8ff" points="115.5,-21.08 104.94,-20.26 112.68,-27.49 115.5,-21.08"/>
</a>
</g>
</g>
<!-- Node5 -->
<g id="Node000005" class="node">
<title>Node5</title>
<g id="a_Node000005"><a xlink:title=" ">
<polygon fill="#e0e0e0" stroke="#999999" points="177.62,-19.25 126.38,-19.25 126.38,0 177.62,0 177.62,-19.25"/>
<text text-anchor="middle" x="152" y="-5.75" font-family="Helvetica,sans-Serif" font-size="10.00">memory</text>
</a>
</g>
</g>
<!-- Node2&#45;&gt;Node5 -->
<g id="edge4_Node000002_Node000005" class="edge">
<title>Node2&#45;&gt;Node5</title>
<g id="a_edge4_Node000002_Node000005"><a xlink:title=" ">
<path fill="none" stroke="#63b8ff" d="M200.93,-54.95C191.7,-46.59 180.07,-36.05 170.47,-27.35"/>
<polygon fill="#63b8ff" stroke="#63b8ff" points="172.9,-24.84 163.14,-20.72 168.2,-30.02 172.9,-24.84"/>
</a>
</g>
</g>
<!-- Node6 -->
<g id="Node000006" class="node">
<title>Node6</title>
<g id="a_Node000006"><a xlink:title=" ">
<polygon fill="#e0e0e0" stroke="#999999" points="238.5,-19.25 195.5,-19.25 195.5,0 238.5,0 238.5,-19.25"/>
<text text-anchor="middle" x="217" y="-5.75" font-family="Helvetica,sans-Serif" font-size="10.00">vector</text>
</a>
</g>
</g>
<!-- Node2&#45;&gt;Node6 -->
<g id="edge5_Node000002_Node000006" class="edge">
<title>Node2&#45;&gt;Node6</title>
<g id="a_edge5_Node000002_Node000006"><a xlink:title=" ">
<path fill="none" stroke="#63b8ff" d="M217,-54.95C217,-47.71 217,-38.84 217,-30.94"/>
<polygon fill="#63b8ff" stroke="#63b8ff" points="220.5,-31.21 217,-21.21 213.5,-31.21 220.5,-31.21"/>
</a>
</g>
</g>
<!-- Node7 -->
<g id="Node000007" class="node">
<title>Node7</title>
<g id="a_Node000007"><a xlink:title=" ">
<polygon fill="#e0e0e0" stroke="#999999" points="301.62,-19.25 256.38,-19.25 256.38,0 301.62,0 301.62,-19.25"/>
<text text-anchor="middle" x="279" y="-5.75" font-family="Helvetica,sans-Serif" font-size="10.00">ranges</text>
</a>
</g>
</g>
<!-- Node2&#45;&gt;Node7 -->
<g id="edge6_Node000002_Node000007" class="edge">
<title>Node2&#45;&gt;Node7</title>
<g id="a_edge6_Node000002_Node000007"><a xlink:title=" ">
<path fill="none" stroke="#63b8ff" d="M232.33,-54.95C241.04,-46.67 252,-36.27 261.1,-27.62"/>
<polygon fill="#63b8ff" stroke="#63b8ff" points="263.5,-30.17 268.34,-20.74 258.68,-25.09 263.5,-30.17"/>
</a>
</g>
</g>
<!-- Node8 -->
<g id="Node000008" class="node">
<title>Node8</title>
<g id="a_Node000008"><a xlink:title=" ">
<polygon fill="#e0e0e0" stroke="#999999" points="396.75,-19.25 319.25,-19.25 319.25,0 396.75,0 396.75,-19.25"/>
<text text-anchor="middle" x="358" y="-5.75" font-family="Helvetica,sans-Serif" font-size="10.00">unordered_set</text>
</a>
</g>
</g>
<!-- Node2&#45;&gt;Node8 -->
<g id="edge7_Node000002_Node000008" class="edge">
<title>Node2&#45;&gt;Node8</title>
<g id="a_edge7_Node000002_Node000008"><a xlink:title=" ">
<path fill="none" stroke="#63b8ff" d="M252.22,-54.8C274.83,-45.35 303.96,-33.19 325.92,-24.02"/>
<polygon fill="#63b8ff" stroke="#63b8ff" points="327.1,-27.32 334.98,-20.24 324.4,-20.86 327.1,-27.32"/>
</a>
</g>
</g>
<!-- Node9 -->
<g id="Node000009" class="node">
<title>Node9</title>
<g id="a_Node000009"><a xlink:href="../../d5/d40/Platform_8hpp.html" target="_top" xlink:title="ArkScript configuration macros.">
<polygon fill="white" stroke="#666666" points="504.75,-19.25 415.25,-19.25 415.25,0 504.75,0 504.75,-19.25"/>
<text text-anchor="middle" x="460" y="-5.75" font-family="Helvetica,sans-Serif" font-size="10.00">Ark/Platform.hpp</text>
</a>
</g>
</g>
<!-- Node2&#45;&gt;Node9 -->
<g id="edge8_Node000002_Node000009" class="edge">
<title>Node2&#45;&gt;Node9</title>
<g id="a_edge8_Node000002_Node000009"><a xlink:title=" ">
<path fill="none" stroke="#63b8ff" d="M277.69,-54.8C319.02,-44.78 372.99,-31.71 411.46,-22.38"/>
<polygon fill="#63b8ff" stroke="#63b8ff" points="412.01,-25.85 420.9,-20.1 410.36,-19.05 412.01,-25.85"/>
</a>
</g>
</g>
</g>
</svg>
