<?xml version="1.0" encoding="UTF-8" standalone="no"?>
<!DOCTYPE svg PUBLIC "-//W3C//DTD SVG 1.1//EN"
 "http://www.w3.org/Graphics/SVG/1.1/DTD/svg11.dtd">
<!-- Generated by graphviz version 12.2.0 (20241103.1931)
 -->
<!-- Title: /Users/fola/Documents/ArkScript/Ark/include/Ark/Utils/Files.hpp Pages: 1 -->
<svg width="1437pt" height="128pt"
 viewBox="0.00 0.00 1437.12 127.50" xmlns="http://www.w3.org/2000/svg" xmlns:xlink="http://www.w3.org/1999/xlink">
<g id="graph0" class="graph" transform="scale(1 1) rotate(0) translate(4 123.5)">
<title>/Users/fola/Documents/ArkScript/Ark/include/Ark/Utils/Files.hpp</title>
<!-- Node1 -->
<g id="Node000001" class="node">
<title>Node1</title>
<g id="a_Node000001"><a xlink:title="Lots of utilities about the filesystem.">
<polygon fill="#999999" stroke="#666666" points="799.5,-119.5 682.25,-119.5 682.25,-77.75 799.5,-77.75 799.5,-119.5"/>
<text text-anchor="start" x="690.25" y="-106" font-family="Helvetica,sans-Serif" font-size="10.00">/Users/fola/Documents</text>
<text text-anchor="start" x="690.25" y="-94.75" font-family="Helvetica,sans-Serif" font-size="10.00">/ArkScript/Ark/include</text>
<text text-anchor="middle" x="740.88" y="-83.5" font-family="Helvetica,sans-Serif" font-size="10.00">/Ark/Utils/Files.hpp</text>
</a>
</g>
</g>
<!-- Node2 -->
<g id="Node000002" class="node">
<title>Node2</title>
<g id="a_Node000002"><a xlink:href="../../d6/d41/ImportSolver_8cpp.html" target="_top" xlink:title=" ">
<polygon fill="white" stroke="#666666" points="175.75,-41.75 0,-41.75 0,0 175.75,0 175.75,-41.75"/>
<text text-anchor="start" x="8" y="-28.25" font-family="Helvetica,sans-Serif" font-size="10.00">/Users/fola/Documents</text>
<text text-anchor="start" x="8" y="-17" font-family="Helvetica,sans-Serif" font-size="10.00">/ArkScript/Ark/src/arkreactor</text>
<text text-anchor="middle" x="87.88" y="-5.75" font-family="Helvetica,sans-Serif" font-size="10.00">/Compiler/Package/ImportSolver.cpp</text>
</a>
</g>
</g>
<!-- Node1&#45;&gt;Node2 -->
<g id="edge1_Node000001_Node000002" class="edge">
<title>Node1&#45;&gt;Node2</title>
<g id="a_edge1_Node000001_Node000002"><a xlink:title=" ">
<path fill="none" stroke="#63b8ff" d="M670.31,-92.85C564.45,-85.17 358.44,-68.18 184.88,-41.75 181.99,-41.31 179.05,-40.84 176.09,-40.35"/>
<polygon fill="#63b8ff" stroke="#63b8ff" points="670.05,-96.34 680.28,-93.57 670.55,-89.36 670.05,-96.34"/>
</a>
</g>
</g>
<!-- Node3 -->
<g id="Node000003" class="node">
<title>Node3</title>
<g id="a_Node000003"><a xlink:href="../../d3/df1/Welder_8cpp.html" target="_top" xlink:title=" ">
<polygon fill="white" stroke="#666666" points="334.12,-41.75 193.62,-41.75 193.62,0 334.12,0 334.12,-41.75"/>
<text text-anchor="start" x="201.62" y="-28.25" font-family="Helvetica,sans-Serif" font-size="10.00">/Users/fola/Documents</text>
<text text-anchor="start" x="201.62" y="-17" font-family="Helvetica,sans-Serif" font-size="10.00">/ArkScript/Ark/src/arkreactor</text>
<text text-anchor="middle" x="263.88" y="-5.75" font-family="Helvetica,sans-Serif" font-size="10.00">/Compiler/Welder.cpp</text>
</a>
</g>
</g>
<!-- Node1&#45;&gt;Node3 -->
<g id="edge2_Node000001_Node000003" class="edge">
<title>Node1&#45;&gt;Node3</title>
<g id="a_edge2_Node000001_Node000003"><a xlink:title=" ">
<path fill="none" stroke="#63b8ff" d="M670.69,-89.98C591.07,-80.78 457.52,-63.8 343.88,-41.75 340.78,-41.15 337.63,-40.51 334.46,-39.83"/>
<polygon fill="#63b8ff" stroke="#63b8ff" points="670.2,-93.44 680.53,-91.1 671,-86.49 670.2,-93.44"/>
</a>
</g>
</g>
<!-- Node4 -->
<g id="Node000004" class="node">
<title>Node4</title>
<g id="a_Node000004"><a xlink:href="../../db/dd8/PrettyPrinting_8cpp.html" target="_top" xlink:title=" ">
<polygon fill="white" stroke="#666666" points="493.12,-41.75 352.62,-41.75 352.62,0 493.12,0 493.12,-41.75"/>
<text text-anchor="start" x="360.62" y="-28.25" font-family="Helvetica,sans-Serif" font-size="10.00">/Users/fola/Documents</text>
<text text-anchor="start" x="360.62" y="-17" font-family="Helvetica,sans-Serif" font-size="10.00">/ArkScript/Ark/src/arkreactor</text>
<text text-anchor="middle" x="422.88" y="-5.75" font-family="Helvetica,sans-Serif" font-size="10.00">/Error/PrettyPrinting.cpp</text>
</a>
</g>
</g>
<!-- Node1&#45;&gt;Node4 -->
<g id="edge3_Node000001_Node000004" class="edge">
<title>Node1&#45;&gt;Node4</title>
<g id="a_edge3_Node000001_Node000004"><a xlink:title=" ">
<path fill="none" stroke="#63b8ff" d="M671.06,-81.48C623.6,-70.45 559.4,-55.41 502.88,-41.75 499.81,-41.01 496.69,-40.25 493.53,-39.48"/>
<polygon fill="#63b8ff" stroke="#63b8ff" points="670.13,-84.86 680.67,-83.72 671.72,-78.04 670.13,-84.86"/>
</a>
</g>
</g>
<!-- Node5 -->
<g id="Node000005" class="node">
<title>Node5</title>
<g id="a_Node000005"><a xlink:href="../../d0/da0/State_8cpp.html" target="_top" xlink:title=" ">
<polygon fill="white" stroke="#666666" points="652.12,-41.75 511.62,-41.75 511.62,0 652.12,0 652.12,-41.75"/>
<text text-anchor="start" x="519.62" y="-28.25" font-family="Helvetica,sans-Serif" font-size="10.00">/Users/fola/Documents</text>
<text text-anchor="start" x="519.62" y="-17" font-family="Helvetica,sans-Serif" font-size="10.00">/ArkScript/Ark/src/arkreactor</text>
<text text-anchor="middle" x="581.88" y="-5.75" font-family="Helvetica,sans-Serif" font-size="10.00">/State.cpp</text>
</a>
</g>
</g>
<!-- Node1&#45;&gt;Node5 -->
<g id="edge4_Node000001_Node000005" class="edge">
<title>Node1&#45;&gt;Node5</title>
<g id="a_edge4_Node000001_Node000005"><a xlink:title=" ">
<path fill="none" stroke="#63b8ff" d="M688.08,-72.47C667.46,-62.65 644.13,-51.54 624.6,-42.23"/>
<polygon fill="#63b8ff" stroke="#63b8ff" points="686.37,-75.53 696.9,-76.67 689.38,-69.21 686.37,-75.53"/>
</a>
</g>
</g>
<!-- Node6 -->
<g id="Node000006" class="node">
<title>Node6</title>
<g id="a_Node000006"><a xlink:href="../../db/d7b/Debugger_8cpp.html" target="_top" xlink:title=" ">
<polygon fill="white" stroke="#666666" points="811.12,-41.75 670.62,-41.75 670.62,0 811.12,0 811.12,-41.75"/>
<text text-anchor="start" x="678.62" y="-28.25" font-family="Helvetica,sans-Serif" font-size="10.00">/Users/fola/Documents</text>
<text text-anchor="start" x="678.62" y="-17" font-family="Helvetica,sans-Serif" font-size="10.00">/ArkScript/Ark/src/arkreactor</text>
<text text-anchor="middle" x="740.88" y="-5.75" font-family="Helvetica,sans-Serif" font-size="10.00">/VM/Debugger.cpp</text>
</a>
</g>
</g>
<!-- Node1&#45;&gt;Node6 -->
<g id="edge5_Node000001_Node000006" class="edge">
<title>Node1&#45;&gt;Node6</title>
<g id="a_edge5_Node000001_Node000006"><a xlink:title=" ">
<path fill="none" stroke="#63b8ff" d="M740.88,-66C740.88,-57.96 740.88,-49.54 740.88,-42.23"/>
<polygon fill="#63b8ff" stroke="#63b8ff" points="737.38,-65.81 740.88,-75.81 744.38,-65.81 737.38,-65.81"/>
</a>
</g>
</g>
<!-- Node7 -->
<g id="Node000007" class="node">
<title>Node7</title>
<g id="a_Node000007"><a xlink:href="../../d2/d27/VM_8cpp.html" target="_top" xlink:title=" ">
<polygon fill="white" stroke="#666666" points="970.12,-41.75 829.62,-41.75 829.62,0 970.12,0 970.12,-41.75"/>
<text text-anchor="start" x="837.62" y="-28.25" font-family="Helvetica,sans-Serif" font-size="10.00">/Users/fola/Documents</text>
<text text-anchor="start" x="837.62" y="-17" font-family="Helvetica,sans-Serif" font-size="10.00">/ArkScript/Ark/src/arkreactor</text>
<text text-anchor="middle" x="899.88" y="-5.75" font-family="Helvetica,sans-Serif" font-size="10.00">/VM/VM.cpp</text>
</a>
</g>
</g>
<!-- Node1&#45;&gt;Node7 -->
<g id="edge6_Node000001_Node000007" class="edge">
<title>Node1&#45;&gt;Node7</title>
<g id="a_edge6_Node000001_Node000007"><a xlink:title=" ">
<path fill="none" stroke="#63b8ff" d="M793.67,-72.47C814.29,-62.65 837.62,-51.54 857.15,-42.23"/>
<polygon fill="#63b8ff" stroke="#63b8ff" points="792.37,-69.21 784.85,-76.67 795.38,-75.53 792.37,-69.21"/>
</a>
</g>
</g>
<!-- Node8 -->
<g id="Node000008" class="node">
<title>Node8</title>
<g id="a_Node000008"><a xlink:href="../../d2/d56/Formatter_8cpp.html" target="_top" xlink:title=" ">
<polygon fill="white" stroke="#666666" points="1123.12,-41.75 988.62,-41.75 988.62,0 1123.12,0 1123.12,-41.75"/>
<text text-anchor="start" x="996.62" y="-28.25" font-family="Helvetica,sans-Serif" font-size="10.00">/Users/fola/Documents</text>
<text text-anchor="start" x="996.62" y="-17" font-family="Helvetica,sans-Serif" font-size="10.00">/ArkScript/Ark/src/arkscript</text>
<text text-anchor="middle" x="1055.88" y="-5.75" font-family="Helvetica,sans-Serif" font-size="10.00">/Formatter.cpp</text>
</a>
</g>
</g>
<!-- Node1&#45;&gt;Node8 -->
<g id="edge7_Node000001_Node000008" class="edge">
<title>Node1&#45;&gt;Node8</title>
<g id="a_edge7_Node000001_Node000008"><a xlink:title=" ">
<path fill="none" stroke="#63b8ff" d="M810.73,-81.65C858.21,-70.69 922.41,-55.66 978.88,-41.75 981.96,-40.99 985.11,-40.21 988.29,-39.41"/>
<polygon fill="#63b8ff" stroke="#63b8ff" points="810.08,-78.21 801.12,-83.87 811.65,-85.03 810.08,-78.21"/>
</a>
</g>
</g>
<!-- Node9 -->
<g id="Node000009" class="node">
<title>Node9</title>
<g id="a_Node000009"><a xlink:href="../../d7/d46/Repl_8cpp.html" target="_top" xlink:title=" ">
<polygon fill="white" stroke="#666666" points="1276.12,-41.75 1141.62,-41.75 1141.62,0 1276.12,0 1276.12,-41.75"/>
<text text-anchor="start" x="1149.62" y="-28.25" font-family="Helvetica,sans-Serif" font-size="10.00">/Users/fola/Documents</text>
<text text-anchor="start" x="1149.62" y="-17" font-family="Helvetica,sans-Serif" font-size="10.00">/ArkScript/Ark/src/arkscript</text>
<text text-anchor="middle" x="1208.88" y="-5.75" font-family="Helvetica,sans-Serif" font-size="10.00">/REPL/Repl.cpp</text>
</a>
</g>
</g>
<!-- Node1&#45;&gt;Node9 -->
<g id="edge8_Node000001_Node000009" class="edge">
<title>Node1&#45;&gt;Node9</title>
<g id="a_edge8_Node000001_Node000009"><a xlink:title=" ">
<path fill="none" stroke="#63b8ff" d="M811.05,-89.97C889.61,-80.85 1020.52,-64.01 1131.88,-41.75 1134.99,-41.13 1138.16,-40.46 1141.37,-39.75"/>
<polygon fill="#63b8ff" stroke="#63b8ff" points="810.88,-86.47 801.35,-91.09 811.68,-93.42 810.88,-86.47"/>
</a>
</g>
</g>
<!-- Node10 -->
<g id="Node000010" class="node">
<title>Node10</title>
<g id="a_Node000010"><a xlink:href="../../d0/d46/arkscript_2main_8cpp.html" target="_top" xlink:title=" ">
<polygon fill="white" stroke="#666666" points="1429.12,-41.75 1294.62,-41.75 1294.62,0 1429.12,0 1429.12,-41.75"/>
<text text-anchor="start" x="1302.62" y="-28.25" font-family="Helvetica,sans-Serif" font-size="10.00">/Users/fola/Documents</text>
<text text-anchor="start" x="1302.62" y="-17" font-family="Helvetica,sans-Serif" font-size="10.00">/ArkScript/Ark/src/arkscript</text>
<text text-anchor="middle" x="1361.88" y="-5.75" font-family="Helvetica,sans-Serif" font-size="10.00">/main.cpp</text>
</a>
</g>
</g>
<!-- Node1&#45;&gt;Node10 -->
<g id="edge9_Node000001_Node000010" class="edge">
<title>Node1&#45;&gt;Node10</title>
<g id="a_edge9_Node000001_Node000010"><a xlink:title=" ">
<path fill="none" stroke="#63b8ff" d="M810.93,-93.8C914.98,-87.37 1116.21,-72 1284.88,-41.75 1288,-41.19 1291.19,-40.57 1294.4,-39.9"/>
<polygon fill="#63b8ff" stroke="#63b8ff" points="810.92,-90.3 801.15,-94.4 811.35,-97.29 810.92,-90.3"/>
</a>
</g>
</g>
</g>
</svg>
