<?xml version="1.0" encoding="UTF-8" standalone="no"?>
<!DOCTYPE svg PUBLIC "-//W3C//DTD SVG 1.1//EN"
 "http://www.w3.org/Graphics/SVG/1.1/DTD/svg11.dtd">
<!-- Generated by graphviz version 12.2.0 (20241103.1931)
 -->
<!-- Title: /Users/fola/Documents/ArkScript/Ark/include/Ark/Utils/Files.hpp Pages: 1 -->
<svg width="1125pt" height="128pt"
 viewBox="0.00 0.00 1125.12 127.50" xmlns="http://www.w3.org/2000/svg" xmlns:xlink="http://www.w3.org/1999/xlink">
<g id="graph0" class="graph" transform="scale(1 1) rotate(0) translate(4 123.5)">
<title>/Users/fola/Documents/ArkScript/Ark/include/Ark/Utils/Files.hpp</title>
<!-- Node1 -->
<g id="Node000001" class="node">
<title>Node1</title>
<g id="a_Node000001"><a xlink:title="Lots of utilities about the filesystem.">
<polygon fill="#999999" stroke="#666666" points="640.5,-119.5 523.25,-119.5 523.25,-77.75 640.5,-77.75 640.5,-119.5"/>
<text text-anchor="start" x="531.25" y="-106" font-family="Helvetica,sans-Serif" font-size="10.00">/Users/fola/Documents</text>
<text text-anchor="start" x="531.25" y="-94.75" font-family="Helvetica,sans-Serif" font-size="10.00">/ArkScript/Ark/include</text>
<text text-anchor="middle" x="581.88" y="-83.5" font-family="Helvetica,sans-Serif" font-size="10.00">/Ark/Utils/Files.hpp</text>
</a>
</g>
</g>
<!-- Node2 -->
<g id="Node000002" class="node">
<title>Node2</title>
<g id="a_Node000002"><a xlink:href="../../d6/d41/ImportSolver_8cpp.html" target="_top" xlink:title=" ">
<polygon fill="white" stroke="#666666" points="175.75,-41.75 0,-41.75 0,0 175.75,0 175.75,-41.75"/>
<text text-anchor="start" x="8" y="-28.25" font-family="Helvetica,sans-Serif" font-size="10.00">/Users/fola/Documents</text>
<text text-anchor="start" x="8" y="-17" font-family="Helvetica,sans-Serif" font-size="10.00">/ArkScript/Ark/src/arkreactor</text>
<text text-anchor="middle" x="87.88" y="-5.75" font-family="Helvetica,sans-Serif" font-size="10.00">/Compiler/Package/ImportSolver.cpp</text>
</a>
</g>
</g>
<!-- Node1&#45;&gt;Node2 -->
<g id="edge1_Node000001_Node000002" class="edge">
<title>Node1&#45;&gt;Node2</title>
<g id="a_edge1_Node000001_Node000002"><a xlink:title=" ">
<path fill="none" stroke="#63b8ff" d="M511.51,-89.07C431.99,-79.08 298.79,-61.42 184.88,-41.75 182,-41.25 179.07,-40.73 176.12,-40.2"/>
<polygon fill="#63b8ff" stroke="#63b8ff" points="510.98,-92.53 521.34,-90.3 511.85,-85.58 510.98,-92.53"/>
</a>
</g>
</g>
<!-- Node3 -->
<g id="Node000003" class="node">
<title>Node3</title>
<g id="a_Node000003"><a xlink:href="../../d3/df1/Welder_8cpp.html" target="_top" xlink:title=" ">
<polygon fill="white" stroke="#666666" points="334.12,-41.75 193.62,-41.75 193.62,0 334.12,0 334.12,-41.75"/>
<text text-anchor="start" x="201.62" y="-28.25" font-family="Helvetica,sans-Serif" font-size="10.00">/Users/fola/Documents</text>
<text text-anchor="start" x="201.62" y="-17" font-family="Helvetica,sans-Serif" font-size="10.00">/ArkScript/Ark/src/arkreactor</text>
<text text-anchor="middle" x="263.88" y="-5.75" font-family="Helvetica,sans-Serif" font-size="10.00">/Compiler/Welder.cpp</text>
</a>
</g>
</g>
<!-- Node1&#45;&gt;Node3 -->
<g id="edge2_Node000001_Node000003" class="edge">
<title>Node1&#45;&gt;Node3</title>
<g id="a_edge2_Node000001_Node000003"><a xlink:title=" ">
<path fill="none" stroke="#63b8ff" d="M512.06,-81.48C464.6,-70.45 400.4,-55.41 343.88,-41.75 340.81,-41.01 337.69,-40.25 334.53,-39.48"/>
<polygon fill="#63b8ff" stroke="#63b8ff" points="511.13,-84.86 521.67,-83.72 512.72,-78.04 511.13,-84.86"/>
</a>
</g>
</g>
<!-- Node4 -->
<g id="Node000004" class="node">
<title>Node4</title>
<g id="a_Node000004"><a xlink:href="../../db/dd8/PrettyPrinting_8cpp.html" target="_top" xlink:title=" ">
<polygon fill="white" stroke="#666666" points="493.12,-41.75 352.62,-41.75 352.62,0 493.12,0 493.12,-41.75"/>
<text text-anchor="start" x="360.62" y="-28.25" font-family="Helvetica,sans-Serif" font-size="10.00">/Users/fola/Documents</text>
<text text-anchor="start" x="360.62" y="-17" font-family="Helvetica,sans-Serif" font-size="10.00">/ArkScript/Ark/src/arkreactor</text>
<text text-anchor="middle" x="422.88" y="-5.75" font-family="Helvetica,sans-Serif" font-size="10.00">/Error/PrettyPrinting.cpp</text>
</a>
</g>
</g>
<!-- Node1&#45;&gt;Node4 -->
<g id="edge3_Node000001_Node000004" class="edge">
<title>Node1&#45;&gt;Node4</title>
<g id="a_edge3_Node000001_Node000004"><a xlink:title=" ">
<path fill="none" stroke="#63b8ff" d="M529.08,-72.47C508.46,-62.65 485.13,-51.54 465.6,-42.23"/>
<polygon fill="#63b8ff" stroke="#63b8ff" points="527.37,-75.53 537.9,-76.67 530.38,-69.21 527.37,-75.53"/>
</a>
</g>
</g>
<!-- Node5 -->
<g id="Node000005" class="node">
<title>Node5</title>
<g id="a_Node000005"><a xlink:href="../../d0/da0/State_8cpp.html" target="_top" xlink:title=" ">
<polygon fill="white" stroke="#666666" points="652.12,-41.75 511.62,-41.75 511.62,0 652.12,0 652.12,-41.75"/>
<text text-anchor="start" x="519.62" y="-28.25" font-family="Helvetica,sans-Serif" font-size="10.00">/Users/fola/Documents</text>
<text text-anchor="start" x="519.62" y="-17" font-family="Helvetica,sans-Serif" font-size="10.00">/ArkScript/Ark/src/arkreactor</text>
<text text-anchor="middle" x="581.88" y="-5.75" font-family="Helvetica,sans-Serif" font-size="10.00">/VM/State.cpp</text>
</a>
</g>
</g>
<!-- Node1&#45;&gt;Node5 -->
<g id="edge4_Node000001_Node000005" class="edge">
<title>Node1&#45;&gt;Node5</title>
<g id="a_edge4_Node000001_Node000005"><a xlink:title=" ">
<path fill="none" stroke="#63b8ff" d="M581.88,-66C581.88,-57.96 581.88,-49.54 581.88,-42.23"/>
<polygon fill="#63b8ff" stroke="#63b8ff" points="578.38,-65.81 581.88,-75.81 585.38,-65.81 578.38,-65.81"/>
</a>
</g>
</g>
<!-- Node6 -->
<g id="Node000006" class="node">
<title>Node6</title>
<g id="a_Node000006"><a xlink:href="../../d2/d27/VM_8cpp.html" target="_top" xlink:title=" ">
<polygon fill="white" stroke="#666666" points="811.12,-41.75 670.62,-41.75 670.62,0 811.12,0 811.12,-41.75"/>
<text text-anchor="start" x="678.62" y="-28.25" font-family="Helvetica,sans-Serif" font-size="10.00">/Users/fola/Documents</text>
<text text-anchor="start" x="678.62" y="-17" font-family="Helvetica,sans-Serif" font-size="10.00">/ArkScript/Ark/src/arkreactor</text>
<text text-anchor="middle" x="740.88" y="-5.75" font-family="Helvetica,sans-Serif" font-size="10.00">/VM/VM.cpp</text>
</a>
</g>
</g>
<!-- Node1&#45;&gt;Node6 -->
<g id="edge5_Node000001_Node000006" class="edge">
<title>Node1&#45;&gt;Node6</title>
<g id="a_edge5_Node000001_Node000006"><a xlink:title=" ">
<path fill="none" stroke="#63b8ff" d="M634.67,-72.47C655.29,-62.65 678.62,-51.54 698.15,-42.23"/>
<polygon fill="#63b8ff" stroke="#63b8ff" points="633.37,-69.21 625.85,-76.67 636.38,-75.53 633.37,-69.21"/>
</a>
</g>
</g>
<!-- Node7 -->
<g id="Node000007" class="node">
<title>Node7</title>
<g id="a_Node000007"><a xlink:href="../../d2/d56/Formatter_8cpp.html" target="_top" xlink:title=" ">
<polygon fill="white" stroke="#666666" points="964.12,-41.75 829.62,-41.75 829.62,0 964.12,0 964.12,-41.75"/>
<text text-anchor="start" x="837.62" y="-28.25" font-family="Helvetica,sans-Serif" font-size="10.00">/Users/fola/Documents</text>
<text text-anchor="start" x="837.62" y="-17" font-family="Helvetica,sans-Serif" font-size="10.00">/ArkScript/Ark/src/arkscript</text>
<text text-anchor="middle" x="896.88" y="-5.75" font-family="Helvetica,sans-Serif" font-size="10.00">/Formatter.cpp</text>
</a>
</g>
</g>
<!-- Node1&#45;&gt;Node7 -->
<g id="edge6_Node000001_Node000007" class="edge">
<title>Node1&#45;&gt;Node7</title>
<g id="a_edge6_Node000001_Node000007"><a xlink:title=" ">
<path fill="none" stroke="#63b8ff" d="M651.73,-81.65C699.21,-70.69 763.41,-55.66 819.88,-41.75 822.96,-40.99 826.11,-40.21 829.29,-39.41"/>
<polygon fill="#63b8ff" stroke="#63b8ff" points="651.08,-78.21 642.12,-83.87 652.65,-85.03 651.08,-78.21"/>
</a>
</g>
</g>
<!-- Node8 -->
<g id="Node000008" class="node">
<title>Node8</title>
<g id="a_Node000008"><a xlink:href="../../d0/d46/arkscript_2main_8cpp.html" target="_top" xlink:title=" ">
<polygon fill="white" stroke="#666666" points="1117.12,-41.75 982.62,-41.75 982.62,0 1117.12,0 1117.12,-41.75"/>
<text text-anchor="start" x="990.62" y="-28.25" font-family="Helvetica,sans-Serif" font-size="10.00">/Users/fola/Documents</text>
<text text-anchor="start" x="990.62" y="-17" font-family="Helvetica,sans-Serif" font-size="10.00">/ArkScript/Ark/src/arkscript</text>
<text text-anchor="middle" x="1049.88" y="-5.75" font-family="Helvetica,sans-Serif" font-size="10.00">/main.cpp</text>
</a>
</g>
</g>
<!-- Node1&#45;&gt;Node8 -->
<g id="edge7_Node000001_Node000008" class="edge">
<title>Node1&#45;&gt;Node8</title>
<g id="a_edge7_Node000001_Node000008"><a xlink:title=" ">
<path fill="none" stroke="#63b8ff" d="M652.05,-89.97C730.61,-80.85 861.52,-64.01 972.88,-41.75 975.99,-41.13 979.16,-40.46 982.37,-39.75"/>
<polygon fill="#63b8ff" stroke="#63b8ff" points="651.88,-86.47 642.35,-91.09 652.68,-93.42 651.88,-86.47"/>
</a>
</g>
</g>
</g>
</svg>
