<?xml version="1.0" encoding="UTF-8" standalone="no"?>
<!DOCTYPE svg PUBLIC "-//W3C//DTD SVG 1.1//EN"
 "http://www.w3.org/Graphics/SVG/1.1/DTD/svg11.dtd">
<!-- Generated by graphviz version 12.2.0 (20241103.1931)
 -->
<!-- Title: /Users/fola/Documents/ArkScript/Ark/include/Ark Pages: 1 -->
<svg width="220pt" height="316pt"
 viewBox="0.00 0.00 220.00 315.50" xmlns="http://www.w3.org/2000/svg" xmlns:xlink="http://www.w3.org/1999/xlink">
<g id="graph0" class="graph" transform="scale(1 1) rotate(0) translate(4 311.5)">
<title>/Users/fola/Documents/ArkScript/Ark/include/Ark</title>
<g id="clust1" class="cluster">
<title>clusterdir_d44c64559bbebec7f509842c48db8b23</title>
<g id="a_clust1"><a xlink:href="dir_d44c64559bbebec7f509842c48db8b23.html" target="_top" xlink:title="include">
<polygon fill="#edf0f7" stroke="#404040" stroke-dasharray="5,2" points="8,-8 8,-299.5 204,-299.5 204,-8 8,-8"/>
<text text-anchor="middle" x="106" y="-286" font-family="Helvetica,sans-Serif" font-size="10.00">include</text>
</a>
</g>
</g>
<g id="clust2" class="cluster">
<title>clusterdir_a8b6c64285bf9ac60f50770eb2fc48b5</title>
<g id="a_clust2"><a xlink:href="dir_a8b6c64285bf9ac60f50770eb2fc48b5.html" target="_top">
<polygon fill="#edf0f7" stroke="#404040" stroke-width="2" points="16,-16 16,-272.25 196,-272.25 196,-16 16,-16"/>
</a>
</g>
</g>
<!-- dir_a8b6c64285bf9ac60f50770eb2fc48b5 -->
<g id="node1" class="node">
<title>dir_a8b6c64285bf9ac60f50770eb2fc48b5</title>
<text text-anchor="middle" x="136" y="-250.75" font-family="Helvetica,sans-Serif" font-size="10.00">Ark</text>
</g>
<!-- dir_e4f19535f57335fb80a0267cec25bf70 -->
<g id="node3" class="node">
<title>dir_e4f19535f57335fb80a0267cec25bf70</title>
<g id="a_node3"><a xlink:href="dir_e4f19535f57335fb80a0267cec25bf70.html" target="_top" xlink:title="Compiler">
<polygon fill="#a2b4d6" stroke="#404040" points="140.5,-209 85.5,-209 85.5,-189.75 140.5,-189.75 140.5,-209"/>
<text text-anchor="middle" x="113" y="-195.5" font-family="Helvetica,sans-Serif" font-size="10.00">Compiler</text>
</a>
</g>
</g>
<!-- dir_a8b6c64285bf9ac60f50770eb2fc48b5&#45;&gt;dir_e4f19535f57335fb80a0267cec25bf70 -->
<g id="edge4" class="edge">
<title>dir_a8b6c64285bf9ac60f50770eb2fc48b5&#45;&gt;dir_e4f19535f57335fb80a0267cec25bf70</title>
<g id="a_edge4"><a xlink:href="dir_000000_000008.html" target="_top">
<path fill="none" stroke="#63b8ff" d="M132.41,-245.3C129.45,-238.47 125.16,-228.52 121.35,-219.72"/>
<polygon fill="#63b8ff" stroke="#63b8ff" points="124.58,-218.35 117.4,-210.56 118.15,-221.13 124.58,-218.35"/>
</a>
</g>
<g id="a_edge4&#45;headlabel"><a xlink:href="dir_000000_000008.html" target="_top" xlink:title="29">
<text text-anchor="middle" x="128.01" y="-215.26" font-family="Helvetica,sans-Serif" font-size="10.00" fill="#63b8ff">29</text>
</a>
</g>
</g>
<!-- dir_d05504aa0714508559a2ff50247d1ab2 -->
<g id="node4" class="node">
<title>dir_d05504aa0714508559a2ff50247d1ab2</title>
<g id="a_node4"><a xlink:href="dir_d05504aa0714508559a2ff50247d1ab2.html" target="_top" xlink:title="Error">
<polygon fill="#a2b4d6" stroke="#404040" points="167.5,-98.5 130.5,-98.5 130.5,-79.25 167.5,-79.25 167.5,-98.5"/>
<text text-anchor="middle" x="149" y="-85" font-family="Helvetica,sans-Serif" font-size="10.00">Error</text>
</a>
</g>
</g>
<!-- dir_a8b6c64285bf9ac60f50770eb2fc48b5&#45;&gt;dir_d05504aa0714508559a2ff50247d1ab2 -->
<g id="edge3" class="edge">
<title>dir_a8b6c64285bf9ac60f50770eb2fc48b5&#45;&gt;dir_d05504aa0714508559a2ff50247d1ab2</title>
<g id="a_edge3"><a xlink:href="dir_000000_000010.html" target="_top">
<path fill="none" stroke="#63b8ff" d="M139.47,-245.25C142.93,-236.42 148.01,-222 150,-209 155.26,-174.67 153.19,-134.13 151.14,-110.29"/>
<polygon fill="#63b8ff" stroke="#63b8ff" points="154.63,-110.04 150.2,-100.42 147.67,-110.71 154.63,-110.04"/>
</a>
</g>
<g id="a_edge3&#45;headlabel"><a xlink:href="dir_000000_000010.html" target="_top" xlink:title="4">
<text text-anchor="middle" x="157.66" y="-107.97" font-family="Helvetica,sans-Serif" font-size="10.00" fill="#63b8ff">4</text>
</a>
</g>
</g>
<!-- dir_33906bab6f1f9d0f271eb499b90a96b5 -->
<g id="node5" class="node">
<title>dir_33906bab6f1f9d0f271eb499b90a96b5</title>
<g id="a_node5"><a xlink:href="dir_33906bab6f1f9d0f271eb499b90a96b5.html" target="_top" xlink:title="Utils">
<polygon fill="#a2b4d6" stroke="#404040" points="148.12,-43.25 111.88,-43.25 111.88,-24 148.12,-24 148.12,-43.25"/>
<text text-anchor="middle" x="130" y="-29.75" font-family="Helvetica,sans-Serif" font-size="10.00">Utils</text>
</a>
</g>
</g>
<!-- dir_a8b6c64285bf9ac60f50770eb2fc48b5&#45;&gt;dir_33906bab6f1f9d0f271eb499b90a96b5 -->
<g id="edge2" class="edge">
<title>dir_a8b6c64285bf9ac60f50770eb2fc48b5&#45;&gt;dir_33906bab6f1f9d0f271eb499b90a96b5</title>
<g id="a_edge2"><a xlink:href="dir_000000_000030.html" target="_top">
<path fill="none" stroke="#63b8ff" d="M141.52,-245.31C157.83,-219.66 203.02,-139.83 177,-79.25 172.07,-67.77 162.58,-57.86 153.41,-50.31"/>
<polygon fill="#63b8ff" stroke="#63b8ff" points="155.82,-47.74 145.73,-44.49 151.59,-53.32 155.82,-47.74"/>
</a>
</g>
<g id="a_edge2&#45;headlabel"><a xlink:href="dir_000000_000030.html" target="_top" xlink:title="39">
<text text-anchor="middle" x="159.19" y="-42.86" font-family="Helvetica,sans-Serif" font-size="10.00" fill="#63b8ff">39</text>
</a>
</g>
</g>
<!-- dir_222307dbf92126e8e24c7a501f533901 -->
<g id="node6" class="node">
<title>dir_222307dbf92126e8e24c7a501f533901</title>
<g id="a_node6"><a xlink:href="dir_222307dbf92126e8e24c7a501f533901.html" target="_top" xlink:title="VM">
<polygon fill="#a2b4d6" stroke="#404040" points="83.5,-153.75 52.5,-153.75 52.5,-134.5 83.5,-134.5 83.5,-153.75"/>
<text text-anchor="middle" x="68" y="-140.25" font-family="Helvetica,sans-Serif" font-size="10.00">VM</text>
</a>
</g>
</g>
<!-- dir_a8b6c64285bf9ac60f50770eb2fc48b5&#45;&gt;dir_222307dbf92126e8e24c7a501f533901 -->
<g id="edge1" class="edge">
<title>dir_a8b6c64285bf9ac60f50770eb2fc48b5&#45;&gt;dir_222307dbf92126e8e24c7a501f533901</title>
<g id="a_edge1"><a xlink:href="dir_000000_000034.html" target="_top">
<path fill="none" stroke="#63b8ff" d="M120.67,-246.42C106.84,-239.06 87.16,-226.27 77,-209 69.26,-195.83 67.21,-178.56 66.99,-165.3"/>
<polygon fill="#63b8ff" stroke="#63b8ff" points="70.48,-165.66 67.18,-155.59 63.48,-165.52 70.48,-165.66"/>
</a>
</g>
<g id="a_edge1&#45;headlabel"><a xlink:href="dir_000000_000034.html" target="_top" xlink:title="13">
<text text-anchor="middle" x="73.28" y="-163.92" font-family="Helvetica,sans-Serif" font-size="10.00" fill="#63b8ff">13</text>
</a>
</g>
</g>
<!-- dir_e4e3cacaa047e3554112dad79d53bc60 -->
<g id="node2" class="node">
<title>dir_e4e3cacaa047e3554112dad79d53bc60</title>
<g id="a_node2"><a xlink:href="dir_e4e3cacaa047e3554112dad79d53bc60.html" target="_top" xlink:title="Builtins">
<polygon fill="#a2b4d6" stroke="#404040" points="92.12,-98.5 43.88,-98.5 43.88,-79.25 92.12,-79.25 92.12,-98.5"/>
<text text-anchor="middle" x="68" y="-85" font-family="Helvetica,sans-Serif" font-size="10.00">Builtins</text>
</a>
</g>
</g>
<!-- dir_e4e3cacaa047e3554112dad79d53bc60&#45;&gt;dir_222307dbf92126e8e24c7a501f533901 -->
<g id="edge5" class="edge">
<title>dir_e4e3cacaa047e3554112dad79d53bc60&#45;&gt;dir_222307dbf92126e8e24c7a501f533901</title>
<g id="a_edge5"><a xlink:href="dir_000006_000034.html" target="_top">
<path fill="none" stroke="#63b8ff" d="M73.21,-98.86C74.6,-105.5 75.05,-114.8 74.56,-123.17"/>
<polygon fill="#63b8ff" stroke="#63b8ff" points="71.12,-122.47 73.35,-132.83 78.06,-123.34 71.12,-122.47"/>
</a>
</g>
<g id="a_edge5&#45;headlabel"><a xlink:href="dir_000006_000034.html" target="_top" xlink:title="1">
<text text-anchor="middle" x="68.56" y="-116.18" font-family="Helvetica,sans-Serif" font-size="10.00" fill="#63b8ff">1</text>
</a>
</g>
</g>
<!-- dir_e4f19535f57335fb80a0267cec25bf70&#45;&gt;dir_d05504aa0714508559a2ff50247d1ab2 -->
<g id="edge8" class="edge">
<title>dir_e4f19535f57335fb80a0267cec25bf70&#45;&gt;dir_d05504aa0714508559a2ff50247d1ab2</title>
<g id="a_edge8"><a xlink:href="dir_000008_000010.html" target="_top">
<path fill="none" stroke="#63b8ff" d="M112.03,-189.5C114.59,-172.01 127.15,-132.77 137.33,-109.09"/>
<polygon fill="#63b8ff" stroke="#63b8ff" points="140.39,-110.79 141.44,-100.25 134.05,-107.84 140.39,-110.79"/>
</a>
</g>
<g id="a_edge8&#45;headlabel"><a xlink:href="dir_000008_000010.html" target="_top" xlink:title="1">
<text text-anchor="middle" x="142.09" y="-110" font-family="Helvetica,sans-Serif" font-size="10.00" fill="#63b8ff">1</text>
</a>
</g>
</g>
<!-- dir_e4f19535f57335fb80a0267cec25bf70&#45;&gt;dir_33906bab6f1f9d0f271eb499b90a96b5 -->
<g id="edge7" class="edge">
<title>dir_e4f19535f57335fb80a0267cec25bf70&#45;&gt;dir_33906bab6f1f9d0f271eb499b90a96b5</title>
<g id="a_edge7"><a xlink:href="dir_000008_000030.html" target="_top">
<path fill="none" stroke="#63b8ff" d="M113.37,-189.38C114.24,-169.47 116.8,-120.19 122,-79.25 123.03,-71.15 124.54,-62.28 125.97,-54.61"/>
<polygon fill="#63b8ff" stroke="#63b8ff" points="129.37,-55.44 127.85,-44.96 122.5,-54.11 129.37,-55.44"/>
</a>
</g>
<g id="a_edge7&#45;headlabel"><a xlink:href="dir_000008_000030.html" target="_top" xlink:title="22">
<text text-anchor="middle" x="131.76" y="-54.16" font-family="Helvetica,sans-Serif" font-size="10.00" fill="#63b8ff">22</text>
</a>
</g>
</g>
<!-- dir_e4f19535f57335fb80a0267cec25bf70&#45;&gt;dir_222307dbf92126e8e24c7a501f533901 -->
<g id="edge6" class="edge">
<title>dir_e4f19535f57335fb80a0267cec25bf70&#45;&gt;dir_222307dbf92126e8e24c7a501f533901</title>
<g id="a_edge6"><a xlink:href="dir_000008_000034.html" target="_top">
<path fill="none" stroke="#63b8ff" d="M100.15,-189.34C92.61,-182.18 83.56,-171.96 76.8,-163.14"/>
<polygon fill="#63b8ff" stroke="#63b8ff" points="79.85,-161.39 71.21,-155.26 74.14,-165.44 79.85,-161.39"/>
</a>
</g>
<g id="a_edge6&#45;headlabel"><a xlink:href="dir_000008_000034.html" target="_top" xlink:title="1">
<text text-anchor="middle" x="83.37" y="-157.57" font-family="Helvetica,sans-Serif" font-size="10.00" fill="#63b8ff">1</text>
</a>
</g>
</g>
<!-- dir_d05504aa0714508559a2ff50247d1ab2&#45;&gt;dir_e4f19535f57335fb80a0267cec25bf70 -->
<g id="edge10" class="edge">
<title>dir_d05504aa0714508559a2ff50247d1ab2&#45;&gt;dir_e4f19535f57335fb80a0267cec25bf70</title>
<g id="a_edge10"><a xlink:href="dir_000010_000008.html" target="_top">
<path fill="none" stroke="#63b8ff" d="M149.95,-98.88C147.35,-116.46 134.77,-155.72 124.6,-179.33"/>
<polygon fill="#63b8ff" stroke="#63b8ff" points="121.55,-177.58 120.5,-188.12 127.9,-180.54 121.55,-177.58"/>
</a>
</g>
<g id="a_edge10&#45;headlabel"><a xlink:href="dir_000010_000008.html" target="_top" xlink:title="1">
<text text-anchor="middle" x="119.86" y="-170.62" font-family="Helvetica,sans-Serif" font-size="10.00" fill="#63b8ff">1</text>
</a>
</g>
</g>
<!-- dir_d05504aa0714508559a2ff50247d1ab2&#45;&gt;dir_33906bab6f1f9d0f271eb499b90a96b5 -->
<g id="edge9" class="edge">
<title>dir_d05504aa0714508559a2ff50247d1ab2&#45;&gt;dir_33906bab6f1f9d0f271eb499b90a96b5</title>
<g id="a_edge9"><a xlink:href="dir_000010_000030.html" target="_top">
<path fill="none" stroke="#63b8ff" d="M145.86,-79.08C143.46,-72.34 140.04,-62.77 137,-54.24"/>
<polygon fill="#63b8ff" stroke="#63b8ff" points="140.37,-53.28 133.71,-45.03 133.78,-55.63 140.37,-53.28"/>
</a>
</g>
<g id="a_edge9&#45;headlabel"><a xlink:href="dir_000010_000030.html" target="_top" xlink:title="7">
<text text-anchor="middle" x="143.74" y="-50.41" font-family="Helvetica,sans-Serif" font-size="10.00" fill="#63b8ff">7</text>
</a>
</g>
</g>
<!-- dir_222307dbf92126e8e24c7a501f533901&#45;&gt;dir_e4e3cacaa047e3554112dad79d53bc60 -->
<g id="edge13" class="edge">
<title>dir_222307dbf92126e8e24c7a501f533901&#45;&gt;dir_e4e3cacaa047e3554112dad79d53bc60</title>
<g id="a_edge13"><a xlink:href="dir_000034_000006.html" target="_top">
<path fill="none" stroke="#63b8ff" d="M62.83,-134.33C61.42,-127.74 60.96,-118.46 61.43,-110.07"/>
<polygon fill="#63b8ff" stroke="#63b8ff" points="64.88,-110.71 62.61,-100.36 57.93,-109.87 64.88,-110.71"/>
</a>
</g>
<g id="a_edge13&#45;headlabel"><a xlink:href="dir_000034_000006.html" target="_top" xlink:title="1">
<text text-anchor="middle" x="67.44" y="-109.25" font-family="Helvetica,sans-Serif" font-size="10.00" fill="#63b8ff">1</text>
</a>
</g>
</g>
<!-- dir_222307dbf92126e8e24c7a501f533901&#45;&gt;dir_e4f19535f57335fb80a0267cec25bf70 -->
<g id="edge14" class="edge">
<title>dir_222307dbf92126e8e24c7a501f533901&#45;&gt;dir_e4f19535f57335fb80a0267cec25bf70</title>
<g id="a_edge14"><a xlink:href="dir_000034_000008.html" target="_top">
<path fill="none" stroke="#63b8ff" d="M80.8,-154.11C88.37,-161.29 97.48,-171.59 104.26,-180.44"/>
<polygon fill="#63b8ff" stroke="#63b8ff" points="101.23,-182.21 109.86,-188.35 106.94,-178.16 101.23,-182.21"/>
</a>
</g>
<g id="a_edge14&#45;headlabel"><a xlink:href="dir_000034_000008.html" target="_top" xlink:title="3">
<text text-anchor="middle" x="97.71" y="-178.27" font-family="Helvetica,sans-Serif" font-size="10.00" fill="#63b8ff">3</text>
</a>
</g>
</g>
<!-- dir_222307dbf92126e8e24c7a501f533901&#45;&gt;dir_d05504aa0714508559a2ff50247d1ab2 -->
<g id="edge12" class="edge">
<title>dir_222307dbf92126e8e24c7a501f533901&#45;&gt;dir_d05504aa0714508559a2ff50247d1ab2</title>
<g id="a_edge12"><a xlink:href="dir_000034_000010.html" target="_top">
<path fill="none" stroke="#63b8ff" d="M81.74,-134.09C93.73,-126.21 111.37,-114.61 125.58,-105.27"/>
<polygon fill="#63b8ff" stroke="#63b8ff" points="127.49,-108.2 133.93,-99.78 123.65,-102.35 127.49,-108.2"/>
</a>
</g>
<g id="a_edge12&#45;headlabel"><a xlink:href="dir_000034_000010.html" target="_top" xlink:title="1">
<text text-anchor="middle" x="127.31" y="-107.84" font-family="Helvetica,sans-Serif" font-size="10.00" fill="#63b8ff">1</text>
</a>
</g>
</g>
<!-- dir_222307dbf92126e8e24c7a501f533901&#45;&gt;dir_33906bab6f1f9d0f271eb499b90a96b5 -->
<g id="edge11" class="edge">
<title>dir_222307dbf92126e8e24c7a501f533901&#45;&gt;dir_33906bab6f1f9d0f271eb499b90a96b5</title>
<g id="a_edge11"><a xlink:href="dir_000034_000030.html" target="_top">
<path fill="none" stroke="#63b8ff" d="M57.36,-134.17C43.7,-121.56 23.09,-98.01 35,-79.25 49.24,-56.82 78.08,-45.47 100.26,-39.85"/>
<polygon fill="#63b8ff" stroke="#63b8ff" points="100.98,-43.27 109.98,-37.67 99.45,-36.44 100.98,-43.27"/>
</a>
</g>
<g id="a_edge11&#45;headlabel"><a xlink:href="dir_000034_000030.html" target="_top" xlink:title="9">
<text text-anchor="middle" x="99.57" y="-42.62" font-family="Helvetica,sans-Serif" font-size="10.00" fill="#63b8ff">9</text>
</a>
</g>
</g>
</g>
</svg>
