<?xml version="1.0" encoding="UTF-8" standalone="no"?>
<!DOCTYPE svg PUBLIC "-//W3C//DTD SVG 1.1//EN"
 "http://www.w3.org/Graphics/SVG/1.1/DTD/svg11.dtd">
<!-- Generated by graphviz version 12.2.0 (20241103.1931)
 -->
<!-- Title: /Users/fola/Documents/ArkScript/Ark/src/arkreactor/Compiler Pages: 1 -->
<svg width="633pt" height="127pt"
 viewBox="0.00 0.00 633.00 126.91" xmlns="http://www.w3.org/2000/svg" xmlns:xlink="http://www.w3.org/1999/xlink">
<g id="graph0" class="graph" transform="scale(1 1) rotate(0) translate(4 122.91)">
<title>/Users/fola/Documents/ArkScript/Ark/src/arkreactor/Compiler</title>
<g id="clust1" class="cluster">
<title>clusterdir_e0d450b481c7e7e5abacff9799e54b3d</title>
<g id="a_clust1"><a xlink:href="dir_e0d450b481c7e7e5abacff9799e54b3d.html" target="_top" xlink:title="arkreactor">
<polygon fill="#edf0f7" stroke="#7f7f7f" stroke-dasharray="5,2" points="8,-40.41 8,-110.91 617,-110.91 617,-40.41 8,-40.41"/>
<text text-anchor="middle" x="312.5" y="-97.41" font-family="Helvetica,sans-Serif" font-size="10.00">arkreactor</text>
</a>
</g>
</g>
<g id="clust2" class="cluster">
<title>clusterdir_548d85becfdd8b4d1d64f6a452aea6ab</title>
<g id="a_clust2"><a xlink:href="dir_548d85becfdd8b4d1d64f6a452aea6ab.html" target="_top">
<polygon fill="#edf0f7" stroke="#404040" stroke-width="2" points="16,-48.41 16,-83.66 609,-83.66 609,-48.41 16,-48.41"/>
</a>
</g>
</g>
<!-- dir_548d85becfdd8b4d1d64f6a452aea6ab -->
<g id="node1" class="node">
<title>dir_548d85becfdd8b4d1d64f6a452aea6ab</title>
<text text-anchor="middle" x="52" y="-62.16" font-family="Helvetica,sans-Serif" font-size="10.00">Compiler</text>
</g>
<!-- dir_d44c64559bbebec7f509842c48db8b23 -->
<g id="node8" class="node">
<title>dir_d44c64559bbebec7f509842c48db8b23</title>
<g id="a_node8"><a xlink:href="dir_d44c64559bbebec7f509842c48db8b23.html" target="_top" xlink:title="include">
<polygon fill="#edf0f7" stroke="red" points="353.38,-20.41 306.62,-20.41 306.62,-1.16 353.38,-1.16 353.38,-20.41"/>
<text text-anchor="middle" x="330" y="-6.91" font-family="Helvetica,sans-Serif" font-size="10.00">include</text>
</a>
</g>
</g>
<!-- dir_548d85becfdd8b4d1d64f6a452aea6ab&#45;&gt;dir_d44c64559bbebec7f509842c48db8b23 -->
<g id="edge1" class="edge">
<title>dir_548d85becfdd8b4d1d64f6a452aea6ab&#45;&gt;dir_d44c64559bbebec7f509842c48db8b23</title>
<g id="a_edge1"><a xlink:href="dir_000009_000014.html" target="_top">
<path fill="none" stroke="#63b8ff" d="M61.66,-56.5C68.52,-50.95 78.22,-44.08 88,-40.41 125.07,-26.51 237.32,-17.63 294.98,-13.87"/>
<polygon fill="#63b8ff" stroke="#63b8ff" points="295.14,-17.36 304.9,-13.24 294.7,-10.38 295.14,-17.36"/>
</a>
</g>
<g id="a_edge1&#45;headlabel"><a xlink:href="dir_000009_000014.html" target="_top" xlink:title="65">
<text text-anchor="middle" x="293.24" y="-16.45" font-family="Helvetica,sans-Serif" font-size="10.00" fill="#63b8ff">65</text>
</a>
</g>
</g>
<!-- dir_60d9a1ba7355fd01e18353677e9347b6 -->
<g id="node2" class="node">
<title>dir_60d9a1ba7355fd01e18353677e9347b6</title>
<g id="a_node2"><a xlink:href="dir_60d9a1ba7355fd01e18353677e9347b6.html" target="_top" xlink:title="AST">
<polygon fill="#a2b4d6" stroke="#404040" points="132.75,-75.66 97.25,-75.66 97.25,-56.41 132.75,-56.41 132.75,-75.66"/>
<text text-anchor="middle" x="115" y="-62.16" font-family="Helvetica,sans-Serif" font-size="10.00">AST</text>
</a>
</g>
</g>
<!-- dir_60d9a1ba7355fd01e18353677e9347b6&#45;&gt;dir_d44c64559bbebec7f509842c48db8b23 -->
<g id="edge2" class="edge">
<title>dir_60d9a1ba7355fd01e18353677e9347b6&#45;&gt;dir_d44c64559bbebec7f509842c48db8b23</title>
<g id="a_edge2"><a xlink:href="dir_000005_000014.html" target="_top">
<path fill="none" stroke="#63b8ff" d="M122.1,-56.33C127.08,-50.85 134.21,-44.13 142,-40.41 191.41,-16.83 255.7,-11.79 294.86,-11.16"/>
<polygon fill="#63b8ff" stroke="#63b8ff" points="294.67,-14.66 304.65,-11.1 294.62,-7.66 294.67,-14.66"/>
</a>
</g>
<g id="a_edge2&#45;headlabel"><a xlink:href="dir_000005_000014.html" target="_top" xlink:title="7">
<text text-anchor="middle" x="292.6" y="-13.64" font-family="Helvetica,sans-Serif" font-size="10.00" fill="#63b8ff">7</text>
</a>
</g>
</g>
<!-- dir_b956417a1547c988f68dbc0fc6407c8c -->
<g id="node3" class="node">
<title>dir_b956417a1547c988f68dbc0fc6407c8c</title>
<g id="a_node3"><a xlink:href="dir_b956417a1547c988f68dbc0fc6407c8c.html" target="_top" xlink:title="IntermediateRepresentation">
<polygon fill="#a2b4d6" stroke="#404040" points="287,-75.66 151,-75.66 151,-56.41 287,-56.41 287,-75.66"/>
<text text-anchor="middle" x="219" y="-62.16" font-family="Helvetica,sans-Serif" font-size="10.00">IntermediateRepresentation</text>
</a>
</g>
</g>
<!-- dir_b956417a1547c988f68dbc0fc6407c8c&#45;&gt;dir_d44c64559bbebec7f509842c48db8b23 -->
<g id="edge3" class="edge">
<title>dir_b956417a1547c988f68dbc0fc6407c8c&#45;&gt;dir_d44c64559bbebec7f509842c48db8b23</title>
<g id="a_edge3"><a xlink:href="dir_000016_000014.html" target="_top">
<path fill="none" stroke="#63b8ff" d="M237.83,-56C255.05,-47.74 280.8,-35.39 300.71,-25.84"/>
<polygon fill="#63b8ff" stroke="#63b8ff" points="302.21,-29 309.71,-21.52 299.18,-22.69 302.21,-29"/>
</a>
</g>
<g id="a_edge3&#45;headlabel"><a xlink:href="dir_000016_000014.html" target="_top" xlink:title="10">
<text text-anchor="middle" x="301.56" y="-28.58" font-family="Helvetica,sans-Serif" font-size="10.00" fill="#63b8ff">10</text>
</a>
</g>
</g>
<!-- dir_ebd905692543c47940af1875878fb6a1 -->
<g id="node4" class="node">
<title>dir_ebd905692543c47940af1875878fb6a1</title>
<g id="a_node4"><a xlink:href="dir_ebd905692543c47940af1875878fb6a1.html" target="_top" xlink:title="Lowerer">
<polygon fill="#a2b4d6" stroke="#404040" points="355.25,-75.66 304.75,-75.66 304.75,-56.41 355.25,-56.41 355.25,-75.66"/>
<text text-anchor="middle" x="330" y="-62.16" font-family="Helvetica,sans-Serif" font-size="10.00">Lowerer</text>
</a>
</g>
</g>
<!-- dir_ebd905692543c47940af1875878fb6a1&#45;&gt;dir_d44c64559bbebec7f509842c48db8b23 -->
<g id="edge4" class="edge">
<title>dir_ebd905692543c47940af1875878fb6a1&#45;&gt;dir_d44c64559bbebec7f509842c48db8b23</title>
<g id="a_edge4"><a xlink:href="dir_000018_000014.html" target="_top">
<path fill="none" stroke="#63b8ff" d="M330,-56.24C330,-49.73 330,-40.58 330,-32.28"/>
<polygon fill="#63b8ff" stroke="#63b8ff" points="333.5,-32.28 330,-22.28 326.5,-32.28 333.5,-32.28"/>
</a>
</g>
<g id="a_edge4&#45;headlabel"><a xlink:href="dir_000018_000014.html" target="_top" xlink:title="6">
<text text-anchor="middle" x="336.34" y="-30.49" font-family="Helvetica,sans-Serif" font-size="10.00" fill="#63b8ff">6</text>
</a>
</g>
</g>
<!-- dir_b9cbe36700296659acef612d0d107ef6 -->
<g id="node5" class="node">
<title>dir_b9cbe36700296659acef612d0d107ef6</title>
<g id="a_node5"><a xlink:href="dir_b9cbe36700296659acef612d0d107ef6.html" target="_top" xlink:title="Macros">
<polygon fill="#a2b4d6" stroke="#404040" points="421.12,-75.66 372.88,-75.66 372.88,-56.41 421.12,-56.41 421.12,-75.66"/>
<text text-anchor="middle" x="397" y="-62.16" font-family="Helvetica,sans-Serif" font-size="10.00">Macros</text>
</a>
</g>
</g>
<!-- dir_b9cbe36700296659acef612d0d107ef6&#45;&gt;dir_d44c64559bbebec7f509842c48db8b23 -->
<g id="edge5" class="edge">
<title>dir_b9cbe36700296659acef612d0d107ef6&#45;&gt;dir_d44c64559bbebec7f509842c48db8b23</title>
<g id="a_edge5"><a xlink:href="dir_000020_000014.html" target="_top">
<path fill="none" stroke="#63b8ff" d="M385.63,-56C375.95,-48.31 361.8,-37.06 350.19,-27.84"/>
<polygon fill="#63b8ff" stroke="#63b8ff" points="352.39,-25.11 342.38,-21.63 348.03,-30.59 352.39,-25.11"/>
</a>
</g>
<g id="a_edge5&#45;headlabel"><a xlink:href="dir_000020_000014.html" target="_top" xlink:title="15">
<text text-anchor="middle" x="355.78" y="-20.31" font-family="Helvetica,sans-Serif" font-size="10.00" fill="#63b8ff">15</text>
</a>
</g>
</g>
<!-- dir_b6124fb14836ac39ce59840b20290a71 -->
<g id="node6" class="node">
<title>dir_b6124fb14836ac39ce59840b20290a71</title>
<g id="a_node6"><a xlink:href="dir_b6124fb14836ac39ce59840b20290a71.html" target="_top" xlink:title="NameResolution">
<polygon fill="#a2b4d6" stroke="#404040" points="528.38,-75.66 439.62,-75.66 439.62,-56.41 528.38,-56.41 528.38,-75.66"/>
<text text-anchor="middle" x="484" y="-62.16" font-family="Helvetica,sans-Serif" font-size="10.00">NameResolution</text>
</a>
</g>
</g>
<!-- dir_b6124fb14836ac39ce59840b20290a71&#45;&gt;dir_d44c64559bbebec7f509842c48db8b23 -->
<g id="edge6" class="edge">
<title>dir_b6124fb14836ac39ce59840b20290a71&#45;&gt;dir_d44c64559bbebec7f509842c48db8b23</title>
<g id="a_edge6"><a xlink:href="dir_000022_000014.html" target="_top">
<path fill="none" stroke="#63b8ff" d="M466.28,-56.15C455.87,-51.13 442.37,-44.98 430,-40.41 408.71,-32.56 384.24,-25.52 364.82,-20.39"/>
<polygon fill="#63b8ff" stroke="#63b8ff" points="365.78,-17.02 355.22,-17.9 364.02,-23.8 365.78,-17.02"/>
</a>
</g>
<g id="a_edge6&#45;headlabel"><a xlink:href="dir_000022_000014.html" target="_top" xlink:title="6">
<text text-anchor="middle" x="368.51" y="-10.92" font-family="Helvetica,sans-Serif" font-size="10.00" fill="#63b8ff">6</text>
</a>
</g>
</g>
<!-- dir_4d2f5f8785436e272417245a8e9ba9e9 -->
<g id="node7" class="node">
<title>dir_4d2f5f8785436e272417245a8e9ba9e9</title>
<g id="a_node7"><a xlink:href="dir_4d2f5f8785436e272417245a8e9ba9e9.html" target="_top" xlink:title="Package">
<polygon fill="#a2b4d6" stroke="#404040" points="601.12,-75.66 546.88,-75.66 546.88,-56.41 601.12,-56.41 601.12,-75.66"/>
<text text-anchor="middle" x="574" y="-62.16" font-family="Helvetica,sans-Serif" font-size="10.00">Package</text>
</a>
</g>
</g>
<!-- dir_4d2f5f8785436e272417245a8e9ba9e9&#45;&gt;dir_d44c64559bbebec7f509842c48db8b23 -->
<g id="edge7" class="edge">
<title>dir_4d2f5f8785436e272417245a8e9ba9e9&#45;&gt;dir_d44c64559bbebec7f509842c48db8b23</title>
<g id="a_edge7"><a xlink:href="dir_000024_000014.html" target="_top">
<path fill="none" stroke="#63b8ff" d="M563.39,-56.09C556.35,-50.65 546.67,-44.08 537,-40.41 479.45,-18.6 407.27,-13.12 365.12,-11.91"/>
<polygon fill="#63b8ff" stroke="#63b8ff" points="365.4,-8.42 355.33,-11.7 365.25,-15.42 365.4,-8.42"/>
</a>
</g>
<g id="a_edge7&#45;headlabel"><a xlink:href="dir_000024_000014.html" target="_top" xlink:title="4">
<text text-anchor="middle" x="367.54" y="-1.75" font-family="Helvetica,sans-Serif" font-size="10.00" fill="#63b8ff">4</text>
</a>
</g>
</g>
</g>
</svg>
