<?xml version="1.0" encoding="UTF-8" standalone="no"?>
<!DOCTYPE svg PUBLIC "-//W3C//DTD SVG 1.1//EN"
 "http://www.w3.org/Graphics/SVG/1.1/DTD/svg11.dtd">
<!-- Generated by graphviz version 12.2.0 (20241103.1931)
 -->
<!-- Title: Graphical Class Hierarchy Pages: 1 -->
<svg width="294pt" height="360pt"
 viewBox="0.00 0.00 293.50 360.25" xmlns="http://www.w3.org/2000/svg" xmlns:xlink="http://www.w3.org/1999/xlink">
<g id="graph0" class="graph" transform="scale(1 1) rotate(0) translate(4 356.25)">
<title>Graphical Class Hierarchy</title>
<!-- Node0 -->
<g id="Node000000" class="node">
<title>Node0</title>
<g id="a_Node000000"><a xlink:href="d0/d86/structArk_1_1internal_1_1CharPred.html" target="_top" xlink:title=" ">
<polygon fill="white" stroke="#666666" points="115.75,-185.25 0,-185.25 0,-166 115.75,-166 115.75,-185.25"/>
<text text-anchor="middle" x="57.88" y="-171.75" font-family="Helvetica,sans-Serif" font-size="10.00">Ark::internal::CharPred</text>
</a>
</g>
</g>
<!-- Node1 -->
<g id="Node000001" class="node">
<title>Node1</title>
<g id="a_Node000001"><a xlink:href="d6/dd4/structArk_1_1internal_1_1IsAlnum.html" target="_top" xlink:title=" ">
<polygon fill="white" stroke="#666666" points="273.88,-352.25 163.38,-352.25 163.38,-333 273.88,-333 273.88,-352.25"/>
<text text-anchor="middle" x="218.62" y="-338.75" font-family="Helvetica,sans-Serif" font-size="10.00">Ark::internal::IsAlnum</text>
</a>
</g>
</g>
<!-- Node0&#45;&gt;Node1 -->
<g id="edge2_Node000000_Node000001" class="edge">
<title>Node0&#45;&gt;Node1</title>
<g id="a_edge2_Node000000_Node000001"><a xlink:title=" ">
<path fill="none" stroke="#63b8ff" d="M66.02,-196.17C78.33,-228.51 106.66,-291.05 151.75,-324.62 156.03,-327.81 160.84,-330.43 165.86,-332.59"/>
<polygon fill="#63b8ff" stroke="#63b8ff" points="69.32,-195 62.6,-186.8 62.74,-197.4 69.32,-195"/>
</a>
</g>
</g>
<!-- Node2 -->
<g id="Node000002" class="node">
<title>Node2</title>
<g id="a_Node000002"><a xlink:href="d1/d0f/structArk_1_1internal_1_1IsAlpha.html" target="_top" xlink:title=" ">
<polygon fill="white" stroke="#666666" points="272.38,-315.25 164.88,-315.25 164.88,-296 272.38,-296 272.38,-315.25"/>
<text text-anchor="middle" x="218.62" y="-301.75" font-family="Helvetica,sans-Serif" font-size="10.00">Ark::internal::IsAlpha</text>
</a>
</g>
</g>
<!-- Node0&#45;&gt;Node2 -->
<g id="edge3_Node000000_Node000002" class="edge">
<title>Node0&#45;&gt;Node2</title>
<g id="a_edge3_Node000000_Node000002"><a xlink:title=" ">
<path fill="none" stroke="#63b8ff" d="M69.93,-195.31C85.1,-220.52 114.76,-263.78 151.75,-287.62 156.63,-290.77 162.06,-293.37 167.64,-295.52"/>
<polygon fill="#63b8ff" stroke="#63b8ff" points="72.99,-193.61 64.93,-186.74 66.94,-197.14 72.99,-193.61"/>
</a>
</g>
</g>
<!-- Node3 -->
<g id="Node000003" class="node">
<title>Node3</title>
<g id="a_Node000003"><a xlink:href="d1/daf/structArk_1_1internal_1_1IsChar.html" target="_top" xlink:title=" ">
<polygon fill="white" stroke="#666666" points="270.5,-278.25 166.75,-278.25 166.75,-259 270.5,-259 270.5,-278.25"/>
<text text-anchor="middle" x="218.62" y="-264.75" font-family="Helvetica,sans-Serif" font-size="10.00">Ark::internal::IsChar</text>
</a>
</g>
</g>
<!-- Node0&#45;&gt;Node3 -->
<g id="edge4_Node000000_Node000003" class="edge">
<title>Node0&#45;&gt;Node3</title>
<g id="a_edge4_Node000000_Node000003"><a xlink:title=" ">
<path fill="none" stroke="#63b8ff" d="M76.62,-193.77C94.22,-210.78 122.69,-235.75 151.75,-250.62 157.87,-253.76 164.6,-256.39 171.35,-258.6"/>
<polygon fill="#63b8ff" stroke="#63b8ff" points="79.11,-191.31 69.54,-186.77 74.19,-196.29 79.11,-191.31"/>
</a>
</g>
</g>
<!-- Node4 -->
<g id="Node000004" class="node">
<title>Node4</title>
<g id="a_Node000004"><a xlink:href="da/d0d/structArk_1_1internal_1_1IsDigit.html" target="_top" xlink:title=" ">
<polygon fill="white" stroke="#666666" points="270.12,-241.25 167.12,-241.25 167.12,-222 270.12,-222 270.12,-241.25"/>
<text text-anchor="middle" x="218.62" y="-227.75" font-family="Helvetica,sans-Serif" font-size="10.00">Ark::internal::IsDigit</text>
</a>
</g>
</g>
<!-- Node0&#45;&gt;Node4 -->
<g id="edge5_Node000000_Node000004" class="edge">
<title>Node0&#45;&gt;Node4</title>
<g id="a_edge5_Node000000_Node000004"><a xlink:title=" ">
<path fill="none" stroke="#63b8ff" d="M91.44,-190.08C109.09,-197.63 131.4,-206.71 151.75,-213.62 160.06,-216.45 169.07,-219.14 177.68,-221.55"/>
<polygon fill="#63b8ff" stroke="#63b8ff" points="93.06,-186.97 82.49,-186.22 90.28,-193.4 93.06,-186.97"/>
</a>
</g>
</g>
<!-- Node5 -->
<g id="Node000005" class="node">
<title>Node5</title>
<g id="a_Node000005"><a xlink:href="da/d07/structArk_1_1internal_1_1IsEither.html" target="_top" xlink:title=" ">
<polygon fill="white" stroke="#666666" points="272.75,-204.25 164.5,-204.25 164.5,-185 272.75,-185 272.75,-204.25"/>
<text text-anchor="middle" x="218.62" y="-190.75" font-family="Helvetica,sans-Serif" font-size="10.00">Ark::internal::IsEither</text>
</a>
</g>
</g>
<!-- Node0&#45;&gt;Node5 -->
<g id="edge6_Node000000_Node000005" class="edge">
<title>Node0&#45;&gt;Node5</title>
<g id="a_edge6_Node000000_Node000005"><a xlink:title=" ">
<path fill="none" stroke="#63b8ff" d="M127.35,-183.82C139.65,-185.29 152.3,-186.81 164.1,-188.22"/>
<polygon fill="#63b8ff" stroke="#63b8ff" points="128.04,-180.38 117.69,-182.66 127.2,-187.33 128.04,-180.38"/>
</a>
</g>
</g>
<!-- Node6 -->
<g id="Node000006" class="node">
<title>Node6</title>
<g id="a_Node000006"><a xlink:href="da/dbf/structArk_1_1internal_1_1IsHex.html" target="_top" xlink:title=" ">
<polygon fill="white" stroke="#666666" points="269,-167.25 168.25,-167.25 168.25,-148 269,-148 269,-167.25"/>
<text text-anchor="middle" x="218.62" y="-153.75" font-family="Helvetica,sans-Serif" font-size="10.00">Ark::internal::IsHex</text>
</a>
</g>
</g>
<!-- Node0&#45;&gt;Node6 -->
<g id="edge7_Node000000_Node000006" class="edge">
<title>Node0&#45;&gt;Node6</title>
<g id="a_edge7_Node000000_Node000006"><a xlink:title=" ">
<path fill="none" stroke="#63b8ff" d="M127.49,-167.84C141.12,-166.3 155.17,-164.71 168.01,-163.25"/>
<polygon fill="#63b8ff" stroke="#63b8ff" points="127.23,-164.35 117.69,-168.96 128.02,-171.31 127.23,-164.35"/>
</a>
</g>
</g>
<!-- Node7 -->
<g id="Node000007" class="node">
<title>Node7</title>
<g id="a_Node000007"><a xlink:href="d7/dc3/structArk_1_1internal_1_1IsInlineSpace.html" target="_top" xlink:title=" ">
<polygon fill="white" stroke="#666666" points="285.5,-130.25 151.75,-130.25 151.75,-111 285.5,-111 285.5,-130.25"/>
<text text-anchor="middle" x="218.62" y="-116.75" font-family="Helvetica,sans-Serif" font-size="10.00">Ark::internal::IsInlineSpace</text>
</a>
</g>
</g>
<!-- Node0&#45;&gt;Node7 -->
<g id="edge8_Node000000_Node000007" class="edge">
<title>Node0&#45;&gt;Node7</title>
<g id="a_edge8_Node000000_Node000007"><a xlink:title=" ">
<path fill="none" stroke="#63b8ff" d="M92.18,-161.3C109.73,-154.02 131.71,-145.33 151.75,-138.62 160.18,-135.8 169.33,-133.09 178.05,-130.66"/>
<polygon fill="#63b8ff" stroke="#63b8ff" points="91.15,-157.94 83.29,-165.03 93.86,-164.39 91.15,-157.94"/>
</a>
</g>
</g>
<!-- Node8 -->
<g id="Node000008" class="node">
<title>Node8</title>
<g id="a_Node000008"><a xlink:href="dd/d27/structArk_1_1internal_1_1IsNot.html" target="_top" xlink:title=" ">
<polygon fill="white" stroke="#666666" points="267.88,-93.25 169.38,-93.25 169.38,-74 267.88,-74 267.88,-93.25"/>
<text text-anchor="middle" x="218.62" y="-79.75" font-family="Helvetica,sans-Serif" font-size="10.00">Ark::internal::IsNot</text>
</a>
</g>
</g>
<!-- Node0&#45;&gt;Node8 -->
<g id="edge9_Node000000_Node000008" class="edge">
<title>Node0&#45;&gt;Node8</title>
<g id="a_edge9_Node000000_Node000008"><a xlink:title=" ">
<path fill="none" stroke="#63b8ff" d="M76.67,-157.73C94.3,-140.96 122.79,-116.33 151.75,-101.62 157.88,-98.51 164.62,-95.89 171.37,-93.69"/>
<polygon fill="#63b8ff" stroke="#63b8ff" points="74.3,-155.15 69.58,-164.63 79.19,-160.17 74.3,-155.15"/>
</a>
</g>
</g>
<!-- Node9 -->
<g id="Node000009" class="node">
<title>Node9</title>
<g id="a_Node000009"><a xlink:href="dc/df7/structArk_1_1internal_1_1IsSpace.html" target="_top" xlink:title=" ">
<polygon fill="white" stroke="#666666" points="273.88,-56.25 163.38,-56.25 163.38,-37 273.88,-37 273.88,-56.25"/>
<text text-anchor="middle" x="218.62" y="-42.75" font-family="Helvetica,sans-Serif" font-size="10.00">Ark::internal::IsSpace</text>
</a>
</g>
</g>
<!-- Node0&#45;&gt;Node9 -->
<g id="edge10_Node000000_Node000009" class="edge">
<title>Node0&#45;&gt;Node9</title>
<g id="a_edge10_Node000000_Node000009"><a xlink:title=" ">
<path fill="none" stroke="#63b8ff" d="M70.2,-155.74C85.49,-130.71 115.09,-88.14 151.75,-64.62 156.64,-61.49 162.07,-58.89 167.66,-56.75"/>
<polygon fill="#63b8ff" stroke="#63b8ff" points="67.23,-153.89 65.15,-164.28 73.25,-157.46 67.23,-153.89"/>
</a>
</g>
</g>
<!-- Node10 -->
<g id="Node000010" class="node">
<title>Node10</title>
<g id="a_Node000010"><a xlink:href="de/d0c/structArk_1_1internal_1_1IsSymbol.html" target="_top" xlink:title=" ">
<polygon fill="white" stroke="#666666" points="276.5,-19.25 160.75,-19.25 160.75,0 276.5,0 276.5,-19.25"/>
<text text-anchor="middle" x="218.62" y="-5.75" font-family="Helvetica,sans-Serif" font-size="10.00">Ark::internal::IsSymbol</text>
</a>
</g>
</g>
<!-- Node0&#45;&gt;Node10 -->
<g id="edge11_Node000000_Node000010" class="edge">
<title>Node0&#45;&gt;Node10</title>
<g id="a_edge11_Node000000_Node000010"><a xlink:title=" ">
<path fill="none" stroke="#63b8ff" d="M66.07,-155.17C78.45,-123.04 106.84,-60.96 151.75,-27.62 156.03,-24.45 160.85,-21.83 165.87,-19.67"/>
<polygon fill="#63b8ff" stroke="#63b8ff" points="62.95,-153.53 62.76,-164.13 69.51,-155.96 62.95,-153.53"/>
</a>
</g>
</g>
</g>
</svg>
