<?xml version="1.0" encoding="UTF-8" standalone="no"?>
<!DOCTYPE svg PUBLIC "-//W3C//DTD SVG 1.1//EN"
 "http://www.w3.org/Graphics/SVG/1.1/DTD/svg11.dtd">
<!-- Generated by graphviz version 12.2.0 (20241103.1931)
 -->
<!-- Title: Ark::internal::ASTLowerer Pages: 1 -->
<svg width="1793pt" height="511pt"
 viewBox="0.00 0.00 1792.50 510.88" xmlns="http://www.w3.org/2000/svg" xmlns:xlink="http://www.w3.org/1999/xlink">
<g id="graph0" class="graph" transform="scale(1 1) rotate(0) translate(4 506.88)">
<title>Ark::internal::ASTLowerer</title>
<!-- Node1 -->
<g id="Node000001" class="node">
<title>Node1</title>
<g id="a_Node000001"><a xlink:title="The ArkScript AST to IR compiler.">
<polygon fill="#999999" stroke="#666666" points="1784.5,-245.25 1656,-245.25 1656,-226 1784.5,-226 1784.5,-245.25"/>
<text text-anchor="middle" x="1720.25" y="-231.75" font-family="Helvetica,sans-Serif" font-size="10.00">Ark::internal::ASTLowerer</text>
</a>
</g>
</g>
<!-- Node2 -->
<g id="Node000002" class="node">
<title>Node2</title>
<g id="a_Node000002"><a xlink:href="../../da/d7b/classArk_1_1internal_1_1Pass.html" target="_top" xlink:title="An interface to describe compiler passes.">
<polygon fill="white" stroke="#666666" points="1390.25,-393.25 1293.25,-393.25 1293.25,-374 1390.25,-374 1390.25,-393.25"/>
<text text-anchor="middle" x="1341.75" y="-379.75" font-family="Helvetica,sans-Serif" font-size="10.00">Ark::internal::Pass</text>
</a>
</g>
</g>
<!-- Node2&#45;&gt;Node1 -->
<g id="edge1_Node000001_Node000002" class="edge">
<title>Node2&#45;&gt;Node1</title>
<g id="a_edge1_Node000001_Node000002"><a xlink:title=" ">
<path fill="none" stroke="#63b8ff" d="M1401.98,-390C1464.94,-393.88 1565.27,-391.5 1638,-348.62 1679.84,-323.96 1706.07,-268.37 1715.4,-245.62"/>
<polygon fill="#63b8ff" stroke="#63b8ff" points="1402.4,-386.52 1392.18,-389.32 1401.92,-393.51 1402.4,-386.52"/>
</a>
</g>
</g>
<!-- Node3 -->
<g id="Node000003" class="node">
<title>Node3</title>
<g id="a_Node000003"><a xlink:href="../../d6/d2f/classArk_1_1internal_1_1Logger.html" target="_top" xlink:title=" ">
<polygon fill="white" stroke="#666666" points="1014.75,-411.25 911,-411.25 911,-392 1014.75,-392 1014.75,-411.25"/>
<text text-anchor="middle" x="962.88" y="-397.75" font-family="Helvetica,sans-Serif" font-size="10.00">Ark::internal::Logger</text>
</a>
</g>
</g>
<!-- Node3&#45;&gt;Node2 -->
<g id="edge2_Node000002_Node000003" class="edge">
<title>Node3&#45;&gt;Node2</title>
<g id="a_edge2_Node000002_Node000003"><a xlink:title=" ">
<path fill="none" stroke="#9a32cd" stroke-dasharray="5,2" d="M1026.23,-398.65C1101.13,-395.07 1225.16,-389.15 1292.92,-385.91"/>
<polygon fill="#9a32cd" stroke="#9a32cd" points="1026.43,-395.13 1016.61,-399.11 1026.76,-402.13 1026.43,-395.13"/>
</a>
</g>
<text text-anchor="middle" x="1090.12" y="-399.16" font-family="Helvetica,sans-Serif" font-size="10.00" fill="grey"> m_logger</text>
</g>
<!-- Node4 -->
<g id="Node000004" class="node">
<title>Node4</title>
<g id="a_Node000004"><a xlink:title=" ">
<polygon fill="white" stroke="#666666" points="402.62,-415.25 343.12,-415.25 343.12,-396 402.62,-396 402.62,-415.25"/>
<text text-anchor="middle" x="372.88" y="-401.75" font-family="Helvetica,sans-Serif" font-size="10.00">std::string</text>
</a>
</g>
</g>
<!-- Node4&#45;&gt;Node3 -->
<g id="edge3_Node000003_Node000004" class="edge">
<title>Node4&#45;&gt;Node3</title>
<g id="a_edge3_Node000003_Node000004"><a xlink:title=" ">
<path fill="none" stroke="#9a32cd" stroke-dasharray="5,2" d="M413.85,-416C427.65,-419.11 443.29,-422.09 457.75,-423.62 622.62,-441.12 819.23,-420.72 910.55,-408.9"/>
<polygon fill="#9a32cd" stroke="#9a32cd" points="414.75,-412.62 404.22,-413.74 413.15,-419.44 414.75,-412.62"/>
</a>
</g>
<text text-anchor="middle" x="666.75" y="-432.14" font-family="Helvetica,sans-Serif" font-size="10.00" fill="grey"> m_name</text>
</g>
<!-- Node6 -->
<g id="Node000006" class="node">
<title>Node6</title>
<g id="a_Node000006"><a xlink:title=" ">
<polygon fill="white" stroke="#666666" points="728,-412.75 605.5,-412.75 605.5,-348.5 728,-348.5 728,-412.75"/>
<text text-anchor="start" x="613.5" y="-399.25" font-family="Helvetica,sans-Serif" font-size="10.00">std::unordered_map</text>
<text text-anchor="start" x="613.5" y="-388" font-family="Helvetica,sans-Serif" font-size="10.00">&lt; std::string, std::</text>
<text text-anchor="start" x="613.5" y="-376.75" font-family="Helvetica,sans-Serif" font-size="10.00">chrono::time_point&lt; std</text>
<text text-anchor="start" x="613.5" y="-365.5" font-family="Helvetica,sans-Serif" font-size="10.00">::chrono::high_resolution</text>
<text text-anchor="middle" x="666.75" y="-354.25" font-family="Helvetica,sans-Serif" font-size="10.00">_clock &gt; &gt;</text>
</a>
</g>
</g>
<!-- Node4&#45;&gt;Node6 -->
<g id="edge6_Node000006_Node000004" class="edge">
<title>Node4&#45;&gt;Node6</title>
<g id="a_edge6_Node000006_Node000004"><a xlink:title=" ">
<path fill="none" stroke="#9a32cd" stroke-dasharray="5,2" d="M414.34,-407.36C457.32,-408.58 527.16,-408.76 586.75,-400.62 592.78,-399.8 599.01,-398.69 605.21,-397.41"/>
<polygon fill="#9a32cd" stroke="#9a32cd" points="414.58,-403.87 404.47,-407.04 414.36,-410.86 414.58,-403.87"/>
</a>
</g>
<text text-anchor="middle" x="522.25" y="-409.73" font-family="Helvetica,sans-Serif" font-size="10.00" fill="grey"> keys</text>
</g>
<!-- Node10 -->
<g id="Node000010" class="node">
<title>Node10</title>
<g id="a_Node000010"><a xlink:title=" ">
<polygon fill="white" stroke="#666666" points="728.75,-330.25 604.75,-330.25 604.75,-311 728.75,-311 728.75,-330.25"/>
<text text-anchor="middle" x="666.75" y="-316.75" font-family="Helvetica,sans-Serif" font-size="10.00">std::vector&lt; std::string &gt;</text>
</a>
</g>
</g>
<!-- Node4&#45;&gt;Node10 -->
<g id="edge11_Node000010_Node000004" class="edge">
<title>Node4&#45;&gt;Node10</title>
<g id="a_edge11_Node000010_Node000004"><a xlink:title=" ">
<path fill="none" stroke="#9a32cd" stroke-dasharray="5,2" d="M414.03,-396.42C427.85,-393.38 443.45,-390.08 457.75,-387.38 514.81,-376.59 537.9,-398.02 586.75,-366.62 598.88,-358.83 593.2,-348.27 604.75,-339.62 609.55,-336.04 615.03,-333.12 620.71,-330.74"/>
<polygon fill="#9a32cd" stroke="#9a32cd" points="413.38,-392.98 404.39,-398.57 414.91,-399.81 413.38,-392.98"/>
</a>
</g>
<text text-anchor="middle" x="522.25" y="-389.12" font-family="Helvetica,sans-Serif" font-size="10.00" fill="grey"> elements</text>
</g>
<!-- Node23 -->
<g id="Node000023" class="node">
<title>Node23</title>
<g id="a_Node000023"><a xlink:title=" ">
<polygon fill="white" stroke="#666666" points="727.25,-262.25 606.25,-262.25 606.25,-243 727.25,-243 727.25,-262.25"/>
<text text-anchor="middle" x="666.75" y="-248.75" font-family="Helvetica,sans-Serif" font-size="10.00">std::stack&lt; std::string &gt;</text>
</a>
</g>
</g>
<!-- Node4&#45;&gt;Node23 -->
<g id="edge33_Node000023_Node000004" class="edge">
<title>Node4&#45;&gt;Node23</title>
<g id="a_edge33_Node000023_Node000004"><a xlink:title=" ">
<path fill="none" stroke="#9a32cd" stroke-dasharray="5,2" d="M395.52,-388.75C411.75,-376.98 435,-361.89 457.75,-353.38 512.13,-333.01 538.89,-365.51 586.75,-332.62 599.88,-323.6 594.36,-313.71 604.75,-301.62 618.12,-286.07 636.94,-271.82 650.13,-262.74"/>
<polygon fill="#9a32cd" stroke="#9a32cd" points="393.52,-385.88 387.6,-394.67 397.71,-391.49 393.52,-385.88"/>
</a>
</g>
<text text-anchor="middle" x="522.25" y="-355.12" font-family="Helvetica,sans-Serif" font-size="10.00" fill="grey"> elements</text>
</g>
<!-- Node5 -->
<g id="Node000005" class="node">
<title>Node5</title>
<g id="a_Node000005"><a xlink:title=" ">
<polygon fill="white" stroke="#666666" points="216.38,-420.88 122.38,-420.88 122.38,-390.38 216.38,-390.38 216.38,-420.88"/>
<text text-anchor="start" x="130.38" y="-407.38" font-family="Helvetica,sans-Serif" font-size="10.00">std::basic_string&lt;</text>
<text text-anchor="middle" x="169.38" y="-396.12" font-family="Helvetica,sans-Serif" font-size="10.00"> Char &gt;</text>
</a>
</g>
</g>
<!-- Node5&#45;&gt;Node4 -->
<g id="edge4_Node000004_Node000005" class="edge">
<title>Node5&#45;&gt;Node4</title>
<g id="a_edge4_Node000004_Node000005"><a xlink:title=" ">
<path fill="none" stroke="#63b8ff" d="M228.15,-405.62C265.64,-405.62 312.91,-405.62 342.77,-405.62"/>
<polygon fill="#63b8ff" stroke="#63b8ff" points="228.37,-402.13 218.37,-405.63 228.37,-409.13 228.37,-402.13"/>
</a>
</g>
</g>
<!-- Node6&#45;&gt;Node3 -->
<g id="edge5_Node000003_Node000006" class="edge">
<title>Node6&#45;&gt;Node3</title>
<g id="a_edge5_Node000003_Node000006"><a xlink:title=" ">
<path fill="none" stroke="#9a32cd" stroke-dasharray="5,2" d="M739.69,-385.76C792.66,-389.54 863.39,-394.59 910.68,-397.97"/>
<polygon fill="#9a32cd" stroke="#9a32cd" points="740.07,-382.28 729.85,-385.06 739.57,-389.26 740.07,-382.28"/>
</a>
</g>
<text text-anchor="middle" x="812" y="-397.17" font-family="Helvetica,sans-Serif" font-size="10.00" fill="grey"> m_trace_starts</text>
</g>
<!-- Node7 -->
<g id="Node000007" class="node">
<title>Node7</title>
<g id="a_Node000007"><a xlink:title=" ">
<polygon fill="white" stroke="#666666" points="424,-301.88 321.75,-301.88 321.75,-271.38 424,-271.38 424,-301.88"/>
<text text-anchor="start" x="329.75" y="-288.38" font-family="Helvetica,sans-Serif" font-size="10.00">std::unordered_map</text>
<text text-anchor="middle" x="372.88" y="-277.12" font-family="Helvetica,sans-Serif" font-size="10.00">&lt; K, T &gt;</text>
</a>
</g>
</g>
<!-- Node7&#45;&gt;Node6 -->
<g id="edge7_Node000006_Node000007" class="edge">
<title>Node7&#45;&gt;Node6</title>
<g id="a_edge7_Node000006_Node000007"><a xlink:title=" ">
<path fill="none" stroke="orange" stroke-dasharray="5,2" d="M435.5,-269.27C481.42,-260.21 543.44,-256.63 586.75,-287.62 606.64,-301.86 589.83,-320.25 604.75,-339.62 607.01,-342.56 609.54,-345.35 612.25,-348"/>
<polygon fill="orange" stroke="orange" points="435.02,-265.79 425.96,-271.29 436.47,-272.64 435.02,-265.79"/>
</a>
</g>
<text text-anchor="start" x="457.75" y="-323.12" font-family="Helvetica,sans-Serif" font-size="10.00" fill="grey"> &lt; std::string, std</text>
<text text-anchor="start" x="457.75" y="-311.88" font-family="Helvetica,sans-Serif" font-size="10.00" fill="grey">::chrono::time_point</text>
<text text-anchor="start" x="457.75" y="-300.62" font-family="Helvetica,sans-Serif" font-size="10.00" fill="grey">&lt; std::chrono::high_resolution</text>
<text text-anchor="middle" x="522.25" y="-289.38" font-family="Helvetica,sans-Serif" font-size="10.00" fill="grey">_clock &gt; &gt;</text>
</g>
<!-- Node8 -->
<g id="Node000008" class="node">
<title>Node8</title>
<g id="a_Node000008"><a xlink:title=" ">
<polygon fill="white" stroke="#666666" points="183.78,-302.25 154.97,-302.25 154.97,-283 183.78,-283 183.78,-302.25"/>
<text text-anchor="middle" x="169.38" y="-288.75" font-family="Helvetica,sans-Serif" font-size="10.00">K</text>
</a>
</g>
</g>
<!-- Node8&#45;&gt;Node7 -->
<g id="edge8_Node000007_Node000008" class="edge">
<title>Node8&#45;&gt;Node7</title>
<g id="a_edge8_Node000007_Node000008"><a xlink:title=" ">
<path fill="none" stroke="#9a32cd" stroke-dasharray="5,2" d="M195.41,-291.88C226.79,-290.95 281.32,-289.32 321.48,-288.13"/>
<polygon fill="#9a32cd" stroke="#9a32cd" points="195.63,-288.37 185.74,-292.17 195.84,-295.37 195.63,-288.37"/>
</a>
</g>
<text text-anchor="middle" x="266.62" y="-292.09" font-family="Helvetica,sans-Serif" font-size="10.00" fill="grey"> keys</text>
</g>
<!-- Node9 -->
<g id="Node000009" class="node">
<title>Node9</title>
<g id="a_Node000009"><a xlink:title=" ">
<polygon fill="white" stroke="#666666" points="183.78,-234.25 154.97,-234.25 154.97,-215 183.78,-215 183.78,-234.25"/>
<text text-anchor="middle" x="169.38" y="-220.75" font-family="Helvetica,sans-Serif" font-size="10.00">T</text>
</a>
</g>
</g>
<!-- Node9&#45;&gt;Node7 -->
<g id="edge9_Node000007_Node000009" class="edge">
<title>Node9&#45;&gt;Node7</title>
<g id="a_edge9_Node000007_Node000009"><a xlink:title=" ">
<path fill="none" stroke="#9a32cd" stroke-dasharray="5,2" d="M194.99,-232.2C226.3,-241.83 281.14,-258.71 321.48,-271.12"/>
<polygon fill="#9a32cd" stroke="#9a32cd" points="196.26,-228.93 185.67,-229.33 194.2,-235.62 196.26,-228.93"/>
</a>
</g>
<text text-anchor="middle" x="266.62" y="-261.09" font-family="Helvetica,sans-Serif" font-size="10.00" fill="grey"> elements</text>
</g>
<!-- Node11 -->
<g id="Node000011" class="node">
<title>Node11</title>
<g id="a_Node000011"><a xlink:title=" ">
<polygon fill="white" stroke="#666666" points="416.12,-167.25 329.62,-167.25 329.62,-148 416.12,-148 416.12,-167.25"/>
<text text-anchor="middle" x="372.88" y="-153.75" font-family="Helvetica,sans-Serif" font-size="10.00">std::vector&lt; T &gt;</text>
</a>
</g>
</g>
<!-- Node9&#45;&gt;Node11 -->
<g id="edge13_Node000011_Node000009" class="edge">
<title>Node9&#45;&gt;Node11</title>
<g id="a_edge13_Node000011_Node000009"><a xlink:title=" ">
<path fill="none" stroke="#9a32cd" stroke-dasharray="5,2" d="M194.99,-216.44C231.94,-204.15 301.66,-180.97 341.65,-167.68"/>
<polygon fill="#9a32cd" stroke="#9a32cd" points="194.05,-213.07 185.66,-219.54 196.25,-219.71 194.05,-213.07"/>
</a>
</g>
<text text-anchor="middle" x="266.62" y="-200.85" font-family="Helvetica,sans-Serif" font-size="10.00" fill="grey"> elements</text>
</g>
<!-- Node24 -->
<g id="Node000024" class="node">
<title>Node24</title>
<g id="a_Node000024"><a xlink:title=" ">
<polygon fill="white" stroke="#666666" points="414.62,-241.25 331.12,-241.25 331.12,-222 414.62,-222 414.62,-241.25"/>
<text text-anchor="middle" x="372.88" y="-227.75" font-family="Helvetica,sans-Serif" font-size="10.00">std::stack&lt; T &gt;</text>
</a>
</g>
</g>
<!-- Node9&#45;&gt;Node24 -->
<g id="edge35_Node000024_Node000009" class="edge">
<title>Node9&#45;&gt;Node24</title>
<g id="a_edge35_Node000024_Node000009"><a xlink:title=" ">
<path fill="none" stroke="#9a32cd" stroke-dasharray="5,2" d="M195.64,-224.29C219.47,-224.09 256.17,-224.09 288,-225.38 302.01,-225.94 317.3,-226.96 330.95,-228.02"/>
<polygon fill="#9a32cd" stroke="#9a32cd" points="195.62,-220.79 185.66,-224.39 195.69,-227.79 195.62,-220.79"/>
</a>
</g>
<text text-anchor="middle" x="266.62" y="-227.12" font-family="Helvetica,sans-Serif" font-size="10.00" fill="grey"> elements</text>
</g>
<!-- Node10&#45;&gt;Node1 -->
<g id="edge25_Node000001_Node000010" class="edge">
<title>Node10&#45;&gt;Node1</title>
<g id="a_edge25_Node000001_Node000010"><a xlink:title=" ">
<path fill="none" stroke="#9a32cd" stroke-dasharray="5,2" d="M740.27,-326C799.77,-329.95 886.23,-334.62 961.88,-334.62 961.88,-334.62 961.88,-334.62 1476.88,-334.62 1570.28,-334.62 1669.91,-270.83 1705.58,-245.66"/>
<polygon fill="#9a32cd" stroke="#9a32cd" points="740.84,-322.53 730.62,-325.35 740.36,-329.51 740.84,-322.53"/>
</a>
</g>
<text text-anchor="middle" x="1212.5" y="-336.38" font-family="Helvetica,sans-Serif" font-size="10.00" fill="grey"> m_symbols</text>
</g>
<!-- Node10&#45;&gt;Node3 -->
<g id="edge10_Node000003_Node000010" class="edge">
<title>Node10&#45;&gt;Node3</title>
<g id="a_edge10_Node000003_Node000010"><a xlink:title=" ">
<path fill="none" stroke="#9a32cd" stroke-dasharray="5,2" d="M710.98,-333.97C716.96,-335.85 723.01,-337.77 728.75,-339.62 736.78,-342.21 738.6,-343.47 746.75,-345.62 803.91,-360.73 820.26,-355.66 877.25,-371.38 897.71,-377.02 920.31,-385.2 937.01,-391.63"/>
<polygon fill="#9a32cd" stroke="#9a32cd" points="712.43,-330.76 701.84,-331.11 710.34,-337.44 712.43,-330.76"/>
</a>
</g>
<text text-anchor="middle" x="812" y="-373.12" font-family="Helvetica,sans-Serif" font-size="10.00" fill="grey"> m_active_traces</text>
</g>
<!-- Node18 -->
<g id="Node000018" class="node">
<title>Node18</title>
<g id="a_Node000018"><a xlink:href="../../da/dde/structArk_1_1internal_1_1LocalsLocator_1_1Scope.html" target="_top" xlink:title=" ">
<polygon fill="white" stroke="#666666" points="1030.5,-306.88 895.25,-306.88 895.25,-276.38 1030.5,-276.38 1030.5,-306.88"/>
<text text-anchor="start" x="903.25" y="-293.38" font-family="Helvetica,sans-Serif" font-size="10.00">Ark::internal::LocalsLocator</text>
<text text-anchor="middle" x="962.88" y="-282.12" font-family="Helvetica,sans-Serif" font-size="10.00">::Scope</text>
</a>
</g>
</g>
<!-- Node10&#45;&gt;Node18 -->
<g id="edge21_Node000018_Node000010" class="edge">
<title>Node10&#45;&gt;Node18</title>
<g id="a_edge21_Node000018_Node000010"><a xlink:title=" ">
<path fill="none" stroke="#9a32cd" stroke-dasharray="5,2" d="M740.16,-310.14C742.38,-309.87 744.58,-309.62 746.75,-309.38 796.28,-303.81 852.41,-299.24 894.91,-296.13"/>
<polygon fill="#9a32cd" stroke="#9a32cd" points="739.94,-306.64 730.45,-311.36 740.81,-313.59 739.94,-306.64"/>
</a>
</g>
<text text-anchor="middle" x="812" y="-311.12" font-family="Helvetica,sans-Serif" font-size="10.00" fill="grey"> data</text>
</g>
<!-- Node11&#45;&gt;Node10 -->
<g id="edge12_Node000010_Node000011" class="edge">
<title>Node11&#45;&gt;Node10</title>
<g id="a_edge12_Node000010_Node000011"><a xlink:title=" ">
<path fill="none" stroke="orange" stroke-dasharray="5,2" d="M401.79,-172.65C417.79,-180.74 438.47,-190.32 457.75,-196.62 513.32,-214.8 542.36,-184.32 586.75,-222.38 604.44,-237.54 591.17,-252.69 604.75,-271.62 616.47,-287.96 635.02,-301.79 648.6,-310.54"/>
<polygon fill="orange" stroke="orange" points="403.85,-169.78 393.36,-168.3 400.64,-176 403.85,-169.78"/>
</a>
</g>
<text text-anchor="middle" x="522.25" y="-224.12" font-family="Helvetica,sans-Serif" font-size="10.00" fill="grey"> &lt; std::string &gt;</text>
</g>
<!-- Node17 -->
<g id="Node000017" class="node">
<title>Node17</title>
<g id="a_Node000017"><a xlink:title=" ">
<polygon fill="white" stroke="#666666" points="1275.25,-210.88 1149.75,-210.88 1149.75,-180.38 1275.25,-180.38 1275.25,-210.88"/>
<text text-anchor="start" x="1157.75" y="-197.38" font-family="Helvetica,sans-Serif" font-size="10.00">std::vector&lt; Ark::internal</text>
<text text-anchor="middle" x="1212.5" y="-186.12" font-family="Helvetica,sans-Serif" font-size="10.00">::LocalsLocator::Scope &gt;</text>
</a>
</g>
</g>
<!-- Node11&#45;&gt;Node17 -->
<g id="edge22_Node000017_Node000011" class="edge">
<title>Node11&#45;&gt;Node17</title>
<g id="a_edge22_Node000017_Node000011"><a xlink:title=" ">
<path fill="none" stroke="orange" stroke-dasharray="5,2" d="M427.5,-167.67C437.52,-169.23 447.93,-170.65 457.75,-171.62 713.44,-196.92 1020.07,-197.54 1149.27,-196.45"/>
<polygon fill="orange" stroke="orange" points="428.32,-164.26 417.89,-166.1 427.2,-171.17 428.32,-164.26"/>
</a>
</g>
<text text-anchor="start" x="746.75" y="-207.5" font-family="Helvetica,sans-Serif" font-size="10.00" fill="grey"> &lt; Ark::internal::LocalsLocator</text>
<text text-anchor="middle" x="812" y="-196.25" font-family="Helvetica,sans-Serif" font-size="10.00" fill="grey">::Scope &gt;</text>
</g>
<!-- Node19 -->
<g id="Node000019" class="node">
<title>Node19</title>
<g id="a_Node000019"><a xlink:title=" ">
<polygon fill="white" stroke="#666666" points="875.12,-161.25 748.88,-161.25 748.88,-142 875.12,-142 875.12,-161.25"/>
<text text-anchor="middle" x="812" y="-147.75" font-family="Helvetica,sans-Serif" font-size="10.00">std::vector&lt; std::size_t &gt;</text>
</a>
</g>
</g>
<!-- Node11&#45;&gt;Node19 -->
<g id="edge24_Node000019_Node000011" class="edge">
<title>Node11&#45;&gt;Node19</title>
<g id="a_edge24_Node000019_Node000011"><a xlink:title=" ">
<path fill="none" stroke="orange" stroke-dasharray="5,2" d="M428.05,-156.88C509.37,-155.77 662.63,-153.66 748.55,-152.48"/>
<polygon fill="orange" stroke="orange" points="428.05,-153.38 418.1,-157.02 428.14,-160.38 428.05,-153.38"/>
</a>
</g>
<text text-anchor="middle" x="522.25" y="-158.19" font-family="Helvetica,sans-Serif" font-size="10.00" fill="grey"> &lt; std::size_t &gt;</text>
</g>
<!-- Node20 -->
<g id="Node000020" class="node">
<title>Node20</title>
<g id="a_Node000020"><a xlink:title=" ">
<polygon fill="white" stroke="#666666" points="728.38,-58.88 605.12,-58.88 605.12,-28.38 728.38,-28.38 728.38,-58.88"/>
<text text-anchor="start" x="613.12" y="-45.38" font-family="Helvetica,sans-Serif" font-size="10.00">std::vector&lt; Ark::internal</text>
<text text-anchor="middle" x="666.75" y="-34.12" font-family="Helvetica,sans-Serif" font-size="10.00">::ValTableElem &gt;</text>
</a>
</g>
</g>
<!-- Node11&#45;&gt;Node20 -->
<g id="edge28_Node000020_Node000011" class="edge">
<title>Node11&#45;&gt;Node20</title>
<g id="a_edge28_Node000020_Node000011"><a xlink:title=" ">
<path fill="none" stroke="orange" stroke-dasharray="5,2" d="M383.13,-137.52C395.91,-112.4 421.57,-70.5 457.75,-52.12 503.18,-29.05 561.67,-28.81 605.04,-33.26"/>
<polygon fill="orange" stroke="orange" points="380.05,-135.85 378.83,-146.37 386.35,-138.9 380.05,-135.85"/>
</a>
</g>
<text text-anchor="start" x="469" y="-65.12" font-family="Helvetica,sans-Serif" font-size="10.00" fill="grey"> &lt; Ark::internal::ValTable</text>
<text text-anchor="middle" x="522.25" y="-53.88" font-family="Helvetica,sans-Serif" font-size="10.00" fill="grey">Elem &gt;</text>
</g>
<!-- Node22 -->
<g id="Node000022" class="node">
<title>Node22</title>
<g id="a_Node000022"><a xlink:title=" ">
<polygon fill="white" stroke="#666666" points="727.62,-110.25 605.88,-110.25 605.88,-91 727.62,-91 727.62,-110.25"/>
<text text-anchor="middle" x="666.75" y="-96.75" font-family="Helvetica,sans-Serif" font-size="10.00">std::vector&lt; IR::Block &gt;</text>
</a>
</g>
</g>
<!-- Node11&#45;&gt;Node22 -->
<g id="edge30_Node000022_Node000011" class="edge">
<title>Node11&#45;&gt;Node22</title>
<g id="a_edge30_Node000022_Node000011"><a xlink:title=" ">
<path fill="none" stroke="#9a32cd" stroke-dasharray="5,2" d="M389.67,-139.31C405.11,-122.92 430.26,-100.03 457.75,-90.38 514.71,-70.36 585.87,-80.82 628.47,-90.51"/>
<polygon fill="#9a32cd" stroke="#9a32cd" points="387.27,-136.74 383.15,-146.5 392.46,-141.44 387.27,-136.74"/>
</a>
</g>
<text text-anchor="middle" x="522.25" y="-92.12" font-family="Helvetica,sans-Serif" font-size="10.00" fill="grey"> elements</text>
</g>
<!-- Node11&#45;&gt;Node22 -->
<g id="edge31_Node000022_Node000011" class="edge">
<title>Node11&#45;&gt;Node22</title>
<g id="a_edge31_Node000022_Node000011"><a xlink:title=" ">
<path fill="none" stroke="orange" stroke-dasharray="5,2" d="M404.84,-143.08C420.4,-136.36 439.73,-128.89 457.75,-124.38 506.58,-112.14 563.45,-106.19 605.38,-103.31"/>
<polygon fill="orange" stroke="orange" points="403.84,-139.69 396.12,-146.95 406.68,-146.09 403.84,-139.69"/>
</a>
</g>
<text text-anchor="middle" x="522.25" y="-126.12" font-family="Helvetica,sans-Serif" font-size="10.00" fill="grey"> &lt; IR::Block &gt;</text>
</g>
<!-- Node12 -->
<g id="Node000012" class="node">
<title>Node12</title>
<g id="a_Node000012"><a xlink:title=" ">
<polygon fill="white" stroke="#666666" points="702.12,-497.25 631.38,-497.25 631.38,-478 702.12,-478 702.12,-497.25"/>
<text text-anchor="middle" x="666.75" y="-483.75" font-family="Helvetica,sans-Serif" font-size="10.00">std::ostream</text>
</a>
</g>
</g>
<!-- Node12&#45;&gt;Node3 -->
<g id="edge14_Node000003_Node000012" class="edge">
<title>Node12&#45;&gt;Node3</title>
<g id="a_edge14_Node000003_Node000012"><a xlink:title=" ">
<path fill="none" stroke="#9a32cd" stroke-dasharray="5,2" d="M713.77,-488.67C757.32,-488.16 823.79,-483.46 877.25,-462.62 907.62,-450.79 937.12,-425.44 951.96,-411.43"/>
<polygon fill="#9a32cd" stroke="#9a32cd" points="713.9,-485.17 703.91,-488.7 713.93,-492.17 713.9,-485.17"/>
</a>
</g>
<text text-anchor="middle" x="812" y="-489.08" font-family="Helvetica,sans-Serif" font-size="10.00" fill="grey"> m_stream</text>
</g>
<!-- Node13 -->
<g id="Node000013" class="node">
<title>Node13</title>
<g id="a_Node000013"><a xlink:title=" ">
<polygon fill="white" stroke="#666666" points="422.5,-502.88 323.25,-502.88 323.25,-472.38 422.5,-472.38 422.5,-502.88"/>
<text text-anchor="start" x="331.25" y="-489.38" font-family="Helvetica,sans-Serif" font-size="10.00">std::basic_ostream</text>
<text text-anchor="middle" x="372.88" y="-478.12" font-family="Helvetica,sans-Serif" font-size="10.00">&lt; Char &gt;</text>
</a>
</g>
</g>
<!-- Node13&#45;&gt;Node12 -->
<g id="edge15_Node000012_Node000013" class="edge">
<title>Node13&#45;&gt;Node12</title>
<g id="a_edge15_Node000012_Node000013"><a xlink:title=" ">
<path fill="none" stroke="#63b8ff" d="M434.21,-487.62C493.65,-487.62 582.41,-487.62 630.95,-487.62"/>
<polygon fill="#63b8ff" stroke="#63b8ff" points="434.24,-484.13 424.24,-487.63 434.24,-491.13 434.24,-484.13"/>
</a>
</g>
</g>
<!-- Node14 -->
<g id="Node000014" class="node">
<title>Node14</title>
<g id="a_Node000014"><a xlink:title=" ">
<polygon fill="white" stroke="#666666" points="227.25,-497.25 111.5,-497.25 111.5,-478 227.25,-478 227.25,-497.25"/>
<text text-anchor="middle" x="169.38" y="-483.75" font-family="Helvetica,sans-Serif" font-size="10.00">std::basic_ios&lt; Char &gt;</text>
</a>
</g>
</g>
<!-- Node14&#45;&gt;Node13 -->
<g id="edge16_Node000013_Node000014" class="edge">
<title>Node14&#45;&gt;Node13</title>
<g id="a_edge16_Node000013_Node000014"><a xlink:title=" ">
<path fill="none" stroke="#63b8ff" d="M238.78,-487.62C266.46,-487.62 297.77,-487.62 323.07,-487.62"/>
<polygon fill="#63b8ff" stroke="#63b8ff" points="239.09,-484.13 229.09,-487.63 239.09,-491.13 239.09,-484.13"/>
</a>
</g>
</g>
<!-- Node15 -->
<g id="Node000015" class="node">
<title>Node15</title>
<g id="a_Node000015"><a xlink:title=" ">
<polygon fill="white" stroke="#666666" points="74.5,-497.25 0,-497.25 0,-478 74.5,-478 74.5,-497.25"/>
<text text-anchor="middle" x="37.25" y="-483.75" font-family="Helvetica,sans-Serif" font-size="10.00">std::ios_base</text>
</a>
</g>
</g>
<!-- Node15&#45;&gt;Node14 -->
<g id="edge17_Node000014_Node000015" class="edge">
<title>Node15&#45;&gt;Node14</title>
<g id="a_edge17_Node000014_Node000015"><a xlink:title=" ">
<path fill="none" stroke="#63b8ff" d="M86.34,-487.62C94.41,-487.62 102.86,-487.62 111.13,-487.62"/>
<polygon fill="#63b8ff" stroke="#63b8ff" points="86.36,-484.13 76.36,-487.63 86.36,-491.13 86.36,-484.13"/>
</a>
</g>
</g>
<!-- Node16 -->
<g id="Node000016" class="node">
<title>Node16</title>
<g id="a_Node000016"><a xlink:href="../../de/d21/classArk_1_1internal_1_1LocalsLocator.html" target="_top" xlink:title=" ">
<polygon fill="white" stroke="#666666" points="1543.5,-205.25 1408.25,-205.25 1408.25,-186 1543.5,-186 1543.5,-205.25"/>
<text text-anchor="middle" x="1475.88" y="-191.75" font-family="Helvetica,sans-Serif" font-size="10.00">Ark::internal::LocalsLocator</text>
</a>
</g>
</g>
<!-- Node16&#45;&gt;Node1 -->
<g id="edge18_Node000001_Node000016" class="edge">
<title>Node16&#45;&gt;Node1</title>
<g id="a_edge18_Node000001_Node000016"><a xlink:title=" ">
<path fill="none" stroke="#9a32cd" stroke-dasharray="5,2" d="M1549.06,-207.54C1583.78,-213.27 1624.96,-220.06 1658.11,-225.53"/>
<polygon fill="#9a32cd" stroke="#9a32cd" points="1549.97,-204.14 1539.53,-205.97 1548.83,-211.05 1549.97,-204.14"/>
</a>
</g>
<text text-anchor="middle" x="1599.75" y="-223.3" font-family="Helvetica,sans-Serif" font-size="10.00" fill="grey"> m_locals_locator</text>
</g>
<!-- Node17&#45;&gt;Node16 -->
<g id="edge19_Node000016_Node000017" class="edge">
<title>Node17&#45;&gt;Node16</title>
<g id="a_edge19_Node000016_Node000017"><a xlink:title=" ">
<path fill="none" stroke="#9a32cd" stroke-dasharray="5,2" d="M1286.95,-195.62C1324.91,-195.62 1370.9,-195.62 1407.88,-195.62"/>
<polygon fill="#9a32cd" stroke="#9a32cd" points="1286.96,-192.13 1276.96,-195.63 1286.96,-199.13 1286.96,-192.13"/>
</a>
</g>
<text text-anchor="middle" x="1341.75" y="-197.38" font-family="Helvetica,sans-Serif" font-size="10.00" fill="grey"> m_scopes</text>
</g>
<!-- Node18&#45;&gt;Node17 -->
<g id="edge20_Node000017_Node000018" class="edge">
<title>Node18&#45;&gt;Node17</title>
<g id="a_edge20_Node000017_Node000018"><a xlink:title=" ">
<path fill="none" stroke="#9a32cd" stroke-dasharray="5,2" d="M1015.2,-271.73C1061.53,-253.77 1128.75,-227.71 1171.28,-211.22"/>
<polygon fill="#9a32cd" stroke="#9a32cd" points="1013.96,-268.45 1005.9,-275.33 1016.49,-274.98 1013.96,-268.45"/>
</a>
</g>
<text text-anchor="middle" x="1090.12" y="-259.58" font-family="Helvetica,sans-Serif" font-size="10.00" fill="grey"> elements</text>
</g>
<!-- Node19&#45;&gt;Node16 -->
<g id="edge23_Node000016_Node000019" class="edge">
<title>Node19&#45;&gt;Node16</title>
<g id="a_edge23_Node000016_Node000019"><a xlink:title=" ">
<path fill="none" stroke="#9a32cd" stroke-dasharray="5,2" d="M886.87,-152.92C978.23,-154.96 1138.44,-159.96 1275.25,-171.62 1319.6,-175.41 1369.29,-181.37 1408,-186.41"/>
<polygon fill="#9a32cd" stroke="#9a32cd" points="887.12,-149.42 877.05,-152.71 886.97,-156.42 887.12,-149.42"/>
</a>
</g>
<text text-anchor="middle" x="1090.12" y="-163.63" font-family="Helvetica,sans-Serif" font-size="10.00" fill="grey"> m_drop_for_conds</text>
</g>
<!-- Node20&#45;&gt;Node1 -->
<g id="edge26_Node000001_Node000020" class="edge">
<title>Node20&#45;&gt;Node1</title>
<g id="a_edge26_Node000001_Node000020"><a xlink:title=" ">
<path fill="none" stroke="#9a32cd" stroke-dasharray="5,2" d="M740.03,-45.54C799.56,-46.95 886.19,-48.62 961.88,-48.62 961.88,-48.62 961.88,-48.62 1476.88,-48.62 1554.6,-48.62 1577.83,-67.42 1638,-116.62 1676.73,-148.3 1704.53,-203.11 1714.85,-225.58"/>
<polygon fill="#9a32cd" stroke="#9a32cd" points="740.46,-42.05 730.38,-45.31 740.29,-49.05 740.46,-42.05"/>
</a>
</g>
<text text-anchor="middle" x="1212.5" y="-50.38" font-family="Helvetica,sans-Serif" font-size="10.00" fill="grey"> m_values</text>
</g>
<!-- Node21 -->
<g id="Node000021" class="node">
<title>Node21</title>
<g id="a_Node000021"><a xlink:href="../../d8/dc4/structArk_1_1internal_1_1ValTableElem.html" target="_top" xlink:title="A Compiler Value class helper to handle multiple types.">
<polygon fill="white" stroke="#666666" points="439.75,-19.25 306,-19.25 306,0 439.75,0 439.75,-19.25"/>
<text text-anchor="middle" x="372.88" y="-5.75" font-family="Helvetica,sans-Serif" font-size="10.00">Ark::internal::ValTableElem</text>
</a>
</g>
</g>
<!-- Node21&#45;&gt;Node20 -->
<g id="edge27_Node000020_Node000021" class="edge">
<title>Node21&#45;&gt;Node20</title>
<g id="a_edge27_Node000020_Node000021"><a xlink:title=" ">
<path fill="none" stroke="#9a32cd" stroke-dasharray="5,2" d="M451.71,-2.62C492.34,-0.79 542.65,-1.39 586.75,-10.38 603.81,-13.85 621.78,-21.09 636.26,-27.94"/>
<polygon fill="#9a32cd" stroke="#9a32cd" points="451.56,0.88 441.76,-3.13 451.93,-6.11 451.56,0.88"/>
</a>
</g>
<text text-anchor="middle" x="522.25" y="-12.12" font-family="Helvetica,sans-Serif" font-size="10.00" fill="grey"> elements</text>
</g>
<!-- Node22&#45;&gt;Node1 -->
<g id="edge29_Node000001_Node000022" class="edge">
<title>Node22&#45;&gt;Node1</title>
<g id="a_edge29_Node000001_Node000022"><a xlink:title=" ">
<path fill="none" stroke="#9a32cd" stroke-dasharray="5,2" d="M739.19,-100.62C798.75,-100.62 885.84,-100.62 961.88,-100.62 961.88,-100.62 961.88,-100.62 1476.88,-100.62 1579.95,-100.62 1680.07,-194.96 1710.14,-225.92"/>
<polygon fill="#9a32cd" stroke="#9a32cd" points="739.54,-97.13 729.54,-100.63 739.54,-104.13 739.54,-97.13"/>
</a>
</g>
<text text-anchor="middle" x="1212.5" y="-113.62" font-family="Helvetica,sans-Serif" font-size="10.00" fill="grey"> m_code_pages</text>
<text text-anchor="middle" x="1212.5" y="-102.38" font-family="Helvetica,sans-Serif" font-size="10.00" fill="grey">m_temp_pages</text>
</g>
<!-- Node23&#45;&gt;Node1 -->
<g id="edge32_Node000001_Node000023" class="edge">
<title>Node23&#45;&gt;Node1</title>
<g id="a_edge32_Node000001_Node000023"><a xlink:title=" ">
<path fill="none" stroke="#9a32cd" stroke-dasharray="5,2" d="M738.9,-251.12C798.47,-249.98 885.71,-248.62 961.88,-248.62 961.88,-248.62 961.88,-248.62 1476.88,-248.62 1537.56,-248.62 1606.66,-244.51 1655.51,-240.91"/>
<polygon fill="#9a32cd" stroke="#9a32cd" points="739.18,-247.61 729.25,-251.3 739.32,-254.61 739.18,-247.61"/>
</a>
</g>
<text text-anchor="middle" x="1212.5" y="-250.38" font-family="Helvetica,sans-Serif" font-size="10.00" fill="grey"> m_opened_vars</text>
</g>
<!-- Node24&#45;&gt;Node23 -->
<g id="edge34_Node000023_Node000024" class="edge">
<title>Node24&#45;&gt;Node23</title>
<g id="a_edge34_Node000023_Node000024"><a xlink:title=" ">
<path fill="none" stroke="orange" stroke-dasharray="5,2" d="M426.37,-235.4C476.81,-239.03 552.96,-244.51 605.77,-248.31"/>
<polygon fill="orange" stroke="orange" points="426.81,-231.92 416.58,-234.7 426.31,-238.91 426.81,-231.92"/>
</a>
</g>
<text text-anchor="middle" x="522.25" y="-248.17" font-family="Helvetica,sans-Serif" font-size="10.00" fill="grey"> &lt; std::string &gt;</text>
</g>
</g>
</svg>
