<?xml version="1.0" encoding="UTF-8" standalone="no"?>
<!DOCTYPE svg PUBLIC "-//W3C//DTD SVG 1.1//EN"
 "http://www.w3.org/Graphics/SVG/1.1/DTD/svg11.dtd">
<!-- Generated by graphviz version 12.2.0 (20241103.1931)
 -->
<!-- Title: Ark::internal::CompiledPrompt Pages: 1 -->
<!--zoomable 305 -->

<svg id="main" version="1.1" xmlns="http://www.w3.org/2000/svg" xmlns:xlink="http://www.w3.org/1999/xlink" xml:space="preserve" onload="init(evt)">

<style type="text/css"><![CDATA[
.node, .edge {opacity: 0.7;}
.node.selected, .edge.selected {opacity: 1;}
.edge:hover path { stroke: red; }
.edge:hover polygon { stroke: red; fill: red; }
]]></style>

<defs>
  <circle id="rim" cx="0" cy="0" r="7"/>
  <circle id="rim2" cx="0" cy="0" r="3.5"/>
  <g id="zoomPlus">
    <use xlink:href="#rim" fill="#404040"><set attributeName="fill" to="#808080" begin="zoomplus.mouseover" end="zoomplus.mouseout"/></use>
    <path d="M-4,0h8M0,-4v8" fill="none" stroke="white" stroke-width="1.5" pointer-events="none"/>
  </g>
  <g id="zoomMin">
    <use xlink:href="#rim" fill="#404040"><set attributeName="fill" to="#808080" begin="zoomminus.mouseover" end="zoomminus.mouseout"/></use>
    <path d="M-4,0h8" fill="none" stroke="white" stroke-width="1.5" pointer-events="none"/>
  </g>
  <g id="arrowUp" transform="translate(30 24)">
    <use xlink:href="#rim"/>
    <path pointer-events="none" fill="none" stroke="white" stroke-width="1.5" d="M0,-3.0v7 M-2.5,-0.5L0,-3.0L2.5,-0.5"/>
  </g>
  <g id="arrowRight" transform="rotate(90) translate(36 -43)">
    <use xlink:href="#rim"/>
    <path pointer-events="none" fill="none" stroke="white" stroke-width="1.5" d="M0,-3.0v7 M-2.5,-0.5L0,-3.0L2.5,-0.5"/>
  </g>
  <g id="arrowDown" transform="rotate(180) translate(-30 -48)">
    <use xlink:href="#rim"/>
    <path pointer-events="none" fill="none" stroke="white" stroke-width="1.5" d="M0,-3.0v7 M-2.5,-0.5L0,-3.0L2.5,-0.5"/>
  </g>
  <g id="arrowLeft" transform="rotate(270) translate(-36 17)">
    <use xlink:href="#rim"/>
    <path pointer-events="none" fill="none" stroke="white" stroke-width="1.5" d="M0,-3.0v7 M-2.5,-0.5L0,-3.0L2.5,-0.5"/>
  </g>
  <g id="resetDef">
    <use xlink:href="#rim2" fill="#404040"><set attributeName="fill" to="#808080" begin="reset.mouseover" end="reset.mouseout"/></use>
  </g>
</defs>
<script type="application/ecmascript">
var viewWidth = 507;
var viewHeight = 305;
var sectionId = 'dynsection-0';
</script>
<script type="application/ecmascript" xlink:href="../../svg.min.js"/>
<svg id="graph" class="graph">
<g id="viewport">
<title>Ark::internal::CompiledPrompt</title>
<!-- Node1 -->
<g id="Node000001" class="node">
<title>Node1</title>
<g id="a_Node000001"><a xlink:title=" ">
<polygon fill="#999999" stroke="#666666" points="317.62,-19.25 170.38,-19.25 170.38,0 317.62,0 317.62,-19.25"/>
<text text-anchor="middle" x="244" y="-5.75" font-family="Helvetica,sans-Serif" font-size="10.00">Ark::internal::CompiledPrompt</text>
</a>
</g>
</g>
<!-- Node2 -->
<g id="Node000002" class="node">
<title>Node2</title>
<g id="a_Node000002"><a xlink:title=" ">
<polygon fill="white" stroke="#666666" points="308.25,-85.75 179.75,-85.75 179.75,-66.5 308.25,-66.5 308.25,-85.75"/>
<text text-anchor="middle" x="244" y="-72.25" font-family="Helvetica,sans-Serif" font-size="10.00">std::vector&lt; bytecode_t &gt;</text>
</a>
</g>
</g>
<!-- Node2&#45;&gt;Node1 -->
<g id="edge1_Node000001_Node000002" class="edge">
<title>Node2&#45;&gt;Node1</title>
<g id="a_edge1_Node000001_Node000002"><a xlink:title=" ">
<path fill="none" stroke="#9a32cd" stroke-dasharray="5,2" d="M244,-54.65C244,-42.82 244,-28.54 244,-19.52"/>
<polygon fill="#9a32cd" stroke="#9a32cd" points="240.5,-54.64 244,-64.64 247.5,-54.64 240.5,-54.64"/>
</a>
</g>
<text text-anchor="middle" x="258.62" y="-39" font-family="Helvetica,sans-Serif" font-size="10.00" fill="grey"> pages</text>
</g>
<!-- Node3 -->
<g id="Node000003" class="node">
<title>Node3</title>
<g id="a_Node000003"><a xlink:title=" ">
<polygon fill="white" stroke="#666666" points="251.88,-152.25 142.12,-152.25 142.12,-133 251.88,-133 251.88,-152.25"/>
<text text-anchor="middle" x="197" y="-138.75" font-family="Helvetica,sans-Serif" font-size="10.00">std::vector&lt; uint8_t &gt;</text>
</a>
</g>
</g>
<!-- Node3&#45;&gt;Node2 -->
<g id="edge2_Node000002_Node000003" class="edge">
<title>Node3&#45;&gt;Node2</title>
<g id="a_edge2_Node000002_Node000003"><a xlink:title=" ">
<path fill="none" stroke="#9a32cd" stroke-dasharray="5,2" d="M210.3,-123.38C219.2,-111.16 230.53,-95.61 237.52,-86.02"/>
<polygon fill="#9a32cd" stroke="#9a32cd" points="207.49,-121.29 204.43,-131.43 213.14,-125.41 207.49,-121.29"/>
</a>
</g>
<text text-anchor="middle" x="244.69" y="-105.5" font-family="Helvetica,sans-Serif" font-size="10.00" fill="grey"> elements</text>
</g>
<!-- Node4 -->
<g id="Node000004" class="node">
<title>Node4</title>
<g id="a_Node000004"><a xlink:title=" ">
<polygon fill="white" stroke="#666666" points="297.25,-218.75 210.75,-218.75 210.75,-199.5 297.25,-199.5 297.25,-218.75"/>
<text text-anchor="middle" x="254" y="-205.25" font-family="Helvetica,sans-Serif" font-size="10.00">std::vector&lt; T &gt;</text>
</a>
</g>
</g>
<!-- Node4&#45;&gt;Node2 -->
<g id="edge5_Node000002_Node000004" class="edge">
<title>Node4&#45;&gt;Node2</title>
<g id="a_edge5_Node000002_Node000004"><a xlink:title=" ">
<path fill="none" stroke="orange" stroke-dasharray="5,2" d="M269.82,-190.14C271.53,-187.4 273,-184.48 274,-181.5 279.89,-163.86 299.24,-169.78 270,-103.75 266.97,-96.9 261.34,-90.79 256.1,-86.16"/>
<polygon fill="orange" stroke="orange" points="267.19,-187.83 263.98,-197.93 272.79,-192.03 267.19,-187.83"/>
</a>
</g>
<text text-anchor="middle" x="320.12" y="-138.75" font-family="Helvetica,sans-Serif" font-size="10.00" fill="grey"> &lt; bytecode_t &gt;</text>
</g>
<!-- Node4&#45;&gt;Node3 -->
<g id="edge3_Node000003_Node000004" class="edge">
<title>Node4&#45;&gt;Node3</title>
<g id="a_edge3_Node000003_Node000004"><a xlink:title=" ">
<path fill="none" stroke="orange" stroke-dasharray="5,2" d="M233.96,-191.68C230.42,-188.44 226.87,-184.97 223.75,-181.5 215.46,-172.28 207.47,-160.45 202.41,-152.48"/>
<polygon fill="orange" stroke="orange" points="231.51,-194.19 241.36,-198.1 236.1,-188.9 231.51,-194.19"/>
</a>
</g>
<text text-anchor="middle" x="248.88" y="-172" font-family="Helvetica,sans-Serif" font-size="10.00" fill="grey"> &lt; uint8_t &gt;</text>
</g>
<!-- Node6 -->
<g id="Node000006" class="node">
<title>Node6</title>
<g id="a_Node000006"><a xlink:title=" ">
<polygon fill="white" stroke="#666666" points="124,-152.25 0,-152.25 0,-133 124,-133 124,-152.25"/>
<text text-anchor="middle" x="62" y="-138.75" font-family="Helvetica,sans-Serif" font-size="10.00">std::vector&lt; std::string &gt;</text>
</a>
</g>
</g>
<!-- Node4&#45;&gt;Node6 -->
<g id="edge9_Node000006_Node000004" class="edge">
<title>Node4&#45;&gt;Node6</title>
<g id="a_edge9_Node000006_Node000004"><a xlink:title=" ">
<path fill="none" stroke="orange" stroke-dasharray="5,2" d="M199.37,-196.59C182.26,-192.45 163.42,-187.34 146.5,-181.5 122.79,-173.32 96.6,-161.05 79.75,-152.71"/>
<polygon fill="orange" stroke="orange" points="198.32,-199.94 208.86,-198.83 199.93,-193.13 198.32,-199.94"/>
</a>
</g>
<text text-anchor="middle" x="178.75" y="-172" font-family="Helvetica,sans-Serif" font-size="10.00" fill="grey"> &lt; std::string &gt;</text>
</g>
<!-- Node9 -->
<g id="Node000009" class="node">
<title>Node9</title>
<g id="a_Node000009"><a xlink:title=" ">
<polygon fill="white" stroke="#666666" points="499.38,-152.25 374.62,-152.25 374.62,-133 499.38,-133 499.38,-152.25"/>
<text text-anchor="middle" x="437" y="-138.75" font-family="Helvetica,sans-Serif" font-size="10.00">std::vector&lt; Ark::Value &gt;</text>
</a>
</g>
</g>
<!-- Node4&#45;&gt;Node9 -->
<g id="edge12_Node000009_Node000004" class="edge">
<title>Node4&#45;&gt;Node9</title>
<g id="a_edge12_Node000009_Node000004"><a xlink:title=" ">
<path fill="none" stroke="orange" stroke-dasharray="5,2" d="M290.31,-195.33C326.06,-182.73 379.75,-163.8 411.3,-152.68"/>
<polygon fill="orange" stroke="orange" points="289.53,-191.89 281.26,-198.52 291.85,-198.49 289.53,-191.89"/>
</a>
</g>
<text text-anchor="middle" x="389.08" y="-172" font-family="Helvetica,sans-Serif" font-size="10.00" fill="grey"> &lt; Ark::Value &gt;</text>
</g>
<!-- Node5 -->
<g id="Node000005" class="node">
<title>Node5</title>
<g id="a_Node000005"><a xlink:title=" ">
<polygon fill="white" stroke="#666666" points="268.4,-290.88 239.6,-290.88 239.6,-271.62 268.4,-271.62 268.4,-290.88"/>
<text text-anchor="middle" x="254" y="-277.38" font-family="Helvetica,sans-Serif" font-size="10.00">T</text>
</a>
</g>
</g>
<!-- Node5&#45;&gt;Node4 -->
<g id="edge4_Node000004_Node000005" class="edge">
<title>Node5&#45;&gt;Node4</title>
<g id="a_edge4_Node000004_Node000005"><a xlink:title=" ">
<path fill="none" stroke="#9a32cd" stroke-dasharray="5,2" d="M254,-259.87C254,-246.39 254,-229.39 254,-219.16"/>
<polygon fill="#9a32cd" stroke="#9a32cd" points="250.5,-259.86 254,-269.86 257.5,-259.86 250.5,-259.86"/>
</a>
</g>
<text text-anchor="middle" x="275.38" y="-238.5" font-family="Helvetica,sans-Serif" font-size="10.00" fill="grey"> elements</text>
</g>
<!-- Node6&#45;&gt;Node1 -->
<g id="edge6_Node000001_Node000006" class="edge">
<title>Node6&#45;&gt;Node1</title>
<g id="a_edge6_Node000001_Node000006"><a xlink:title=" ">
<path fill="none" stroke="#9a32cd" stroke-dasharray="5,2" d="M75.39,-123.69C88.32,-107.26 109.15,-83.06 131.25,-66.5 159.05,-45.67 195.81,-29.16 219.68,-19.64"/>
<polygon fill="#9a32cd" stroke="#9a32cd" points="72.65,-121.51 69.34,-131.57 78.2,-125.77 72.65,-121.51"/>
</a>
</g>
<text text-anchor="middle" x="151.12" y="-72.25" font-family="Helvetica,sans-Serif" font-size="10.00" fill="grey"> symbols</text>
</g>
<!-- Node7 -->
<g id="Node000007" class="node">
<title>Node7</title>
<g id="a_Node000007"><a xlink:title=" ">
<polygon fill="white" stroke="#666666" points="91.75,-218.75 32.25,-218.75 32.25,-199.5 91.75,-199.5 91.75,-218.75"/>
<text text-anchor="middle" x="62" y="-205.25" font-family="Helvetica,sans-Serif" font-size="10.00">std::string</text>
</a>
</g>
</g>
<!-- Node7&#45;&gt;Node6 -->
<g id="edge7_Node000006_Node000007" class="edge">
<title>Node7&#45;&gt;Node6</title>
<g id="a_edge7_Node000006_Node000007"><a xlink:title=" ">
<path fill="none" stroke="#9a32cd" stroke-dasharray="5,2" d="M62,-187.65C62,-175.82 62,-161.54 62,-152.52"/>
<polygon fill="#9a32cd" stroke="#9a32cd" points="58.5,-187.64 62,-197.64 65.5,-187.64 58.5,-187.64"/>
</a>
</g>
<text text-anchor="middle" x="83.38" y="-172" font-family="Helvetica,sans-Serif" font-size="10.00" fill="grey"> elements</text>
</g>
<!-- Node8 -->
<g id="Node000008" class="node">
<title>Node8</title>
<g id="a_Node000008"><a xlink:title=" ">
<polygon fill="white" stroke="#666666" points="109,-296.5 15,-296.5 15,-266 109,-266 109,-296.5"/>
<text text-anchor="start" x="23" y="-283" font-family="Helvetica,sans-Serif" font-size="10.00">std::basic_string&lt;</text>
<text text-anchor="middle" x="62" y="-271.75" font-family="Helvetica,sans-Serif" font-size="10.00"> Char &gt;</text>
</a>
</g>
</g>
<!-- Node8&#45;&gt;Node7 -->
<g id="edge8_Node000007_Node000008" class="edge">
<title>Node8&#45;&gt;Node7</title>
<g id="a_edge8_Node000007_Node000008"><a xlink:title=" ">
<path fill="none" stroke="#63b8ff" d="M62,-254.48C62,-241.98 62,-227.77 62,-218.88"/>
<polygon fill="#63b8ff" stroke="#63b8ff" points="58.5,-254.21 62,-264.21 65.5,-254.21 58.5,-254.21"/>
</a>
</g>
</g>
<!-- Node9&#45;&gt;Node1 -->
<g id="edge10_Node000001_Node000009" class="edge">
<title>Node9&#45;&gt;Node1</title>
<g id="a_edge10_Node000001_Node000009"><a xlink:title=" ">
<path fill="none" stroke="#9a32cd" stroke-dasharray="5,2" d="M414.42,-126.3C373.88,-98.78 289.96,-41.82 257.36,-19.69"/>
<polygon fill="#9a32cd" stroke="#9a32cd" points="412.24,-129.05 422.48,-131.77 416.17,-123.26 412.24,-129.05"/>
</a>
</g>
<text text-anchor="middle" x="376.21" y="-72.25" font-family="Helvetica,sans-Serif" font-size="10.00" fill="grey"> constants</text>
</g>
<!-- Node10 -->
<g id="Node000010" class="node">
<title>Node10</title>
<g id="a_Node000010"><a xlink:href="../../d3/d90/classArk_1_1Value.html" target="_top" xlink:title=" ">
<polygon fill="white" stroke="#666666" points="467.5,-218.75 406.5,-218.75 406.5,-199.5 467.5,-199.5 467.5,-218.75"/>
<text text-anchor="middle" x="437" y="-205.25" font-family="Helvetica,sans-Serif" font-size="10.00">Ark::Value</text>
</a>
</g>
</g>
<!-- Node10&#45;&gt;Node9 -->
<g id="edge11_Node000009_Node000010" class="edge">
<title>Node10&#45;&gt;Node9</title>
<g id="a_edge11_Node000009_Node000010"><a xlink:title=" ">
<path fill="none" stroke="#9a32cd" stroke-dasharray="5,2" d="M437,-187.65C437,-175.82 437,-161.54 437,-152.52"/>
<polygon fill="#9a32cd" stroke="#9a32cd" points="433.5,-187.64 437,-197.64 440.5,-187.64 433.5,-187.64"/>
</a>
</g>
<text text-anchor="middle" x="458.38" y="-172" font-family="Helvetica,sans-Serif" font-size="10.00" fill="grey"> elements</text>
</g>
</g>
</svg>

<g id="navigator" transform="translate(0 0)" fill="#404254">
  <rect fill="#f2f5e9" fill-opacity="0.5" stroke="#606060" stroke-width=".5" x="0" y="0" width="60" height="60"/>
  <use id="zoomplus" xlink:href="#zoomPlus" x="17" y="9" onmousedown="handleZoom(evt,'in')"/>
  <use id="zoomminus" xlink:href="#zoomMin" x="42" y="9" onmousedown="handleZoom(evt,'out')"/>
  <use id="reset" xlink:href="#resetDef" x="30" y="36" onmousedown="handleReset()"/>
   <use id="arrowup" xlink:href="#arrowUp" x="0" y="0" onmousedown="handlePan(0,-1)"/>
  <use id="arrowright" xlink:href="#arrowRight" x="0" y="0" onmousedown="handlePan(1,0)"/>
  <use id="arrowdown" xlink:href="#arrowDown" x="0" y="0" onmousedown="handlePan(0,1)"/>
  <use id="arrowleft" xlink:href="#arrowLeft" x="0" y="0" onmousedown="handlePan(-1,0)"/>
</g>
<svg viewBox="0 0 15 15" width="100%" height="30px" preserveAspectRatio="xMaxYMin meet">
 <g id="arrow_out" transform="scale(0.3 0.3)">
  <a xlink:href="structArk_1_1internal_1_1CompiledPrompt__coll__graph_org.svg" target="_base">
   <rect id="button" ry="5" rx="5" y="6" x="6" height="38" width="38"
        fill="#f2f5e9" fill-opacity="0.5" stroke="#606060" stroke-width="1.0"/>
   <path id="arrow"
     d="M 11.500037,31.436501 C 11.940474,20.09759 22.043105,11.32322 32.158766,21.979434 L 37.068811,17.246167 C 37.068811,17.246167 37.088388,32 37.088388,32 L 22.160133,31.978069 C 22.160133,31.978069 26.997745,27.140456 26.997745,27.140456 C 18.528582,18.264221 13.291696,25.230495 11.500037,31.436501 z"
     style="fill:#404040;"/>
  </a>
 </g>
</svg>

<style type='text/css'>
<![CDATA[
[data-mouse-over-selected='false'] { opacity: 0.7; }
[data-mouse-over-selected='true']  { opacity: 1.0; }
]]>
</style>
<script type="application/ecmascript"><![CDATA[
document.addEventListener('DOMContentLoaded', (event) => {
  highlightEdges();
  highlightAdjacentNodes();
});
]]></script>
</svg>
