<?xml version="1.0" encoding="UTF-8" standalone="no"?>
<!DOCTYPE svg PUBLIC "-//W3C//DTD SVG 1.1//EN"
 "http://www.w3.org/Graphics/SVG/1.1/DTD/svg11.dtd">
<!-- Generated by graphviz version 12.2.0 (20241103.1931)
 -->
<!-- Title: Ark::internal::CompiledPrompt Pages: 1 -->
<svg width="507pt" height="305pt"
 viewBox="0.00 0.00 507.38 304.50" xmlns="http://www.w3.org/2000/svg" xmlns:xlink="http://www.w3.org/1999/xlink">
<g id="graph0" class="graph" transform="scale(1 1) rotate(0) translate(4 300.5)">
<title>Ark::internal::CompiledPrompt</title>
<!-- Node1 -->
<g id="Node000001" class="node">
<title>Node1</title>
<g id="a_Node000001"><a xlink:title=" ">
<polygon fill="#999999" stroke="#666666" points="317.62,-19.25 170.38,-19.25 170.38,0 317.62,0 317.62,-19.25"/>
<text text-anchor="middle" x="244" y="-5.75" font-family="Helvetica,sans-Serif" font-size="10.00">Ark::internal::CompiledPrompt</text>
</a>
</g>
</g>
<!-- Node2 -->
<g id="Node000002" class="node">
<title>Node2</title>
<g id="a_Node000002"><a xlink:title=" ">
<polygon fill="white" stroke="#666666" points="308.25,-85.75 179.75,-85.75 179.75,-66.5 308.25,-66.5 308.25,-85.75"/>
<text text-anchor="middle" x="244" y="-72.25" font-family="Helvetica,sans-Serif" font-size="10.00">std::vector&lt; bytecode_t &gt;</text>
</a>
</g>
</g>
<!-- Node2&#45;&gt;Node1 -->
<g id="edge1_Node000001_Node000002" class="edge">
<title>Node2&#45;&gt;Node1</title>
<g id="a_edge1_Node000001_Node000002"><a xlink:title=" ">
<path fill="none" stroke="#9a32cd" stroke-dasharray="5,2" d="M244,-54.65C244,-42.82 244,-28.54 244,-19.52"/>
<polygon fill="#9a32cd" stroke="#9a32cd" points="240.5,-54.64 244,-64.64 247.5,-54.64 240.5,-54.64"/>
</a>
</g>
<text text-anchor="middle" x="258.62" y="-39" font-family="Helvetica,sans-Serif" font-size="10.00" fill="grey"> pages</text>
</g>
<!-- Node3 -->
<g id="Node000003" class="node">
<title>Node3</title>
<g id="a_Node000003"><a xlink:title=" ">
<polygon fill="white" stroke="#666666" points="251.88,-152.25 142.12,-152.25 142.12,-133 251.88,-133 251.88,-152.25"/>
<text text-anchor="middle" x="197" y="-138.75" font-family="Helvetica,sans-Serif" font-size="10.00">std::vector&lt; uint8_t &gt;</text>
</a>
</g>
</g>
<!-- Node3&#45;&gt;Node2 -->
<g id="edge2_Node000002_Node000003" class="edge">
<title>Node3&#45;&gt;Node2</title>
<g id="a_edge2_Node000002_Node000003"><a xlink:title=" ">
<path fill="none" stroke="#9a32cd" stroke-dasharray="5,2" d="M210.3,-123.38C219.2,-111.16 230.53,-95.61 237.52,-86.02"/>
<polygon fill="#9a32cd" stroke="#9a32cd" points="207.49,-121.29 204.43,-131.43 213.14,-125.41 207.49,-121.29"/>
</a>
</g>
<text text-anchor="middle" x="244.69" y="-105.5" font-family="Helvetica,sans-Serif" font-size="10.00" fill="grey"> elements</text>
</g>
<!-- Node4 -->
<g id="Node000004" class="node">
<title>Node4</title>
<g id="a_Node000004"><a xlink:title=" ">
<polygon fill="white" stroke="#666666" points="297.25,-218.75 210.75,-218.75 210.75,-199.5 297.25,-199.5 297.25,-218.75"/>
<text text-anchor="middle" x="254" y="-205.25" font-family="Helvetica,sans-Serif" font-size="10.00">std::vector&lt; T &gt;</text>
</a>
</g>
</g>
<!-- Node4&#45;&gt;Node2 -->
<g id="edge5_Node000002_Node000004" class="edge">
<title>Node4&#45;&gt;Node2</title>
<g id="a_edge5_Node000002_Node000004"><a xlink:title=" ">
<path fill="none" stroke="orange" stroke-dasharray="5,2" d="M269.82,-190.14C271.53,-187.4 273,-184.48 274,-181.5 279.89,-163.86 299.24,-169.78 270,-103.75 266.97,-96.9 261.34,-90.79 256.1,-86.16"/>
<polygon fill="orange" stroke="orange" points="267.19,-187.83 263.98,-197.93 272.79,-192.03 267.19,-187.83"/>
</a>
</g>
<text text-anchor="middle" x="320.12" y="-138.75" font-family="Helvetica,sans-Serif" font-size="10.00" fill="grey"> &lt; bytecode_t &gt;</text>
</g>
<!-- Node4&#45;&gt;Node3 -->
<g id="edge3_Node000003_Node000004" class="edge">
<title>Node4&#45;&gt;Node3</title>
<g id="a_edge3_Node000003_Node000004"><a xlink:title=" ">
<path fill="none" stroke="orange" stroke-dasharray="5,2" d="M233.96,-191.68C230.42,-188.44 226.87,-184.97 223.75,-181.5 215.46,-172.28 207.47,-160.45 202.41,-152.48"/>
<polygon fill="orange" stroke="orange" points="231.51,-194.19 241.36,-198.1 236.1,-188.9 231.51,-194.19"/>
</a>
</g>
<text text-anchor="middle" x="248.88" y="-172" font-family="Helvetica,sans-Serif" font-size="10.00" fill="grey"> &lt; uint8_t &gt;</text>
</g>
<!-- Node6 -->
<g id="Node000006" class="node">
<title>Node6</title>
<g id="a_Node000006"><a xlink:title=" ">
<polygon fill="white" stroke="#666666" points="124,-152.25 0,-152.25 0,-133 124,-133 124,-152.25"/>
<text text-anchor="middle" x="62" y="-138.75" font-family="Helvetica,sans-Serif" font-size="10.00">std::vector&lt; std::string &gt;</text>
</a>
</g>
</g>
<!-- Node4&#45;&gt;Node6 -->
<g id="edge9_Node000006_Node000004" class="edge">
<title>Node4&#45;&gt;Node6</title>
<g id="a_edge9_Node000006_Node000004"><a xlink:title=" ">
<path fill="none" stroke="orange" stroke-dasharray="5,2" d="M199.37,-196.59C182.26,-192.45 163.42,-187.34 146.5,-181.5 122.79,-173.32 96.6,-161.05 79.75,-152.71"/>
<polygon fill="orange" stroke="orange" points="198.32,-199.94 208.86,-198.83 199.93,-193.13 198.32,-199.94"/>
</a>
</g>
<text text-anchor="middle" x="178.75" y="-172" font-family="Helvetica,sans-Serif" font-size="10.00" fill="grey"> &lt; std::string &gt;</text>
</g>
<!-- Node9 -->
<g id="Node000009" class="node">
<title>Node9</title>
<g id="a_Node000009"><a xlink:title=" ">
<polygon fill="white" stroke="#666666" points="499.38,-152.25 374.62,-152.25 374.62,-133 499.38,-133 499.38,-152.25"/>
<text text-anchor="middle" x="437" y="-138.75" font-family="Helvetica,sans-Serif" font-size="10.00">std::vector&lt; Ark::Value &gt;</text>
</a>
</g>
</g>
<!-- Node4&#45;&gt;Node9 -->
<g id="edge12_Node000009_Node000004" class="edge">
<title>Node4&#45;&gt;Node9</title>
<g id="a_edge12_Node000009_Node000004"><a xlink:title=" ">
<path fill="none" stroke="orange" stroke-dasharray="5,2" d="M290.31,-195.33C326.06,-182.73 379.75,-163.8 411.3,-152.68"/>
<polygon fill="orange" stroke="orange" points="289.53,-191.89 281.26,-198.52 291.85,-198.49 289.53,-191.89"/>
</a>
</g>
<text text-anchor="middle" x="389.08" y="-172" font-family="Helvetica,sans-Serif" font-size="10.00" fill="grey"> &lt; Ark::Value &gt;</text>
</g>
<!-- Node5 -->
<g id="Node000005" class="node">
<title>Node5</title>
<g id="a_Node000005"><a xlink:title=" ">
<polygon fill="white" stroke="#666666" points="268.4,-290.88 239.6,-290.88 239.6,-271.62 268.4,-271.62 268.4,-290.88"/>
<text text-anchor="middle" x="254" y="-277.38" font-family="Helvetica,sans-Serif" font-size="10.00">T</text>
</a>
</g>
</g>
<!-- Node5&#45;&gt;Node4 -->
<g id="edge4_Node000004_Node000005" class="edge">
<title>Node5&#45;&gt;Node4</title>
<g id="a_edge4_Node000004_Node000005"><a xlink:title=" ">
<path fill="none" stroke="#9a32cd" stroke-dasharray="5,2" d="M254,-259.87C254,-246.39 254,-229.39 254,-219.16"/>
<polygon fill="#9a32cd" stroke="#9a32cd" points="250.5,-259.86 254,-269.86 257.5,-259.86 250.5,-259.86"/>
</a>
</g>
<text text-anchor="middle" x="275.38" y="-238.5" font-family="Helvetica,sans-Serif" font-size="10.00" fill="grey"> elements</text>
</g>
<!-- Node6&#45;&gt;Node1 -->
<g id="edge6_Node000001_Node000006" class="edge">
<title>Node6&#45;&gt;Node1</title>
<g id="a_edge6_Node000001_Node000006"><a xlink:title=" ">
<path fill="none" stroke="#9a32cd" stroke-dasharray="5,2" d="M75.39,-123.69C88.32,-107.26 109.15,-83.06 131.25,-66.5 159.05,-45.67 195.81,-29.16 219.68,-19.64"/>
<polygon fill="#9a32cd" stroke="#9a32cd" points="72.65,-121.51 69.34,-131.57 78.2,-125.77 72.65,-121.51"/>
</a>
</g>
<text text-anchor="middle" x="151.12" y="-72.25" font-family="Helvetica,sans-Serif" font-size="10.00" fill="grey"> symbols</text>
</g>
<!-- Node7 -->
<g id="Node000007" class="node">
<title>Node7</title>
<g id="a_Node000007"><a xlink:title=" ">
<polygon fill="white" stroke="#666666" points="91.75,-218.75 32.25,-218.75 32.25,-199.5 91.75,-199.5 91.75,-218.75"/>
<text text-anchor="middle" x="62" y="-205.25" font-family="Helvetica,sans-Serif" font-size="10.00">std::string</text>
</a>
</g>
</g>
<!-- Node7&#45;&gt;Node6 -->
<g id="edge7_Node000006_Node000007" class="edge">
<title>Node7&#45;&gt;Node6</title>
<g id="a_edge7_Node000006_Node000007"><a xlink:title=" ">
<path fill="none" stroke="#9a32cd" stroke-dasharray="5,2" d="M62,-187.65C62,-175.82 62,-161.54 62,-152.52"/>
<polygon fill="#9a32cd" stroke="#9a32cd" points="58.5,-187.64 62,-197.64 65.5,-187.64 58.5,-187.64"/>
</a>
</g>
<text text-anchor="middle" x="83.38" y="-172" font-family="Helvetica,sans-Serif" font-size="10.00" fill="grey"> elements</text>
</g>
<!-- Node8 -->
<g id="Node000008" class="node">
<title>Node8</title>
<g id="a_Node000008"><a xlink:title=" ">
<polygon fill="white" stroke="#666666" points="109,-296.5 15,-296.5 15,-266 109,-266 109,-296.5"/>
<text text-anchor="start" x="23" y="-283" font-family="Helvetica,sans-Serif" font-size="10.00">std::basic_string&lt;</text>
<text text-anchor="middle" x="62" y="-271.75" font-family="Helvetica,sans-Serif" font-size="10.00"> Char &gt;</text>
</a>
</g>
</g>
<!-- Node8&#45;&gt;Node7 -->
<g id="edge8_Node000007_Node000008" class="edge">
<title>Node8&#45;&gt;Node7</title>
<g id="a_edge8_Node000007_Node000008"><a xlink:title=" ">
<path fill="none" stroke="#63b8ff" d="M62,-254.48C62,-241.98 62,-227.77 62,-218.88"/>
<polygon fill="#63b8ff" stroke="#63b8ff" points="58.5,-254.21 62,-264.21 65.5,-254.21 58.5,-254.21"/>
</a>
</g>
</g>
<!-- Node9&#45;&gt;Node1 -->
<g id="edge10_Node000001_Node000009" class="edge">
<title>Node9&#45;&gt;Node1</title>
<g id="a_edge10_Node000001_Node000009"><a xlink:title=" ">
<path fill="none" stroke="#9a32cd" stroke-dasharray="5,2" d="M414.42,-126.3C373.88,-98.78 289.96,-41.82 257.36,-19.69"/>
<polygon fill="#9a32cd" stroke="#9a32cd" points="412.24,-129.05 422.48,-131.77 416.17,-123.26 412.24,-129.05"/>
</a>
</g>
<text text-anchor="middle" x="376.21" y="-72.25" font-family="Helvetica,sans-Serif" font-size="10.00" fill="grey"> constants</text>
</g>
<!-- Node10 -->
<g id="Node000010" class="node">
<title>Node10</title>
<g id="a_Node000010"><a xlink:href="../../d3/d90/classArk_1_1Value.html" target="_top" xlink:title=" ">
<polygon fill="white" stroke="#666666" points="467.5,-218.75 406.5,-218.75 406.5,-199.5 467.5,-199.5 467.5,-218.75"/>
<text text-anchor="middle" x="437" y="-205.25" font-family="Helvetica,sans-Serif" font-size="10.00">Ark::Value</text>
</a>
</g>
</g>
<!-- Node10&#45;&gt;Node9 -->
<g id="edge11_Node000009_Node000010" class="edge">
<title>Node10&#45;&gt;Node9</title>
<g id="a_edge11_Node000009_Node000010"><a xlink:title=" ">
<path fill="none" stroke="#9a32cd" stroke-dasharray="5,2" d="M437,-187.65C437,-175.82 437,-161.54 437,-152.52"/>
<polygon fill="#9a32cd" stroke="#9a32cd" points="433.5,-187.64 437,-197.64 440.5,-187.64 433.5,-187.64"/>
</a>
</g>
<text text-anchor="middle" x="458.38" y="-172" font-family="Helvetica,sans-Serif" font-size="10.00" fill="grey"> elements</text>
</g>
</g>
</svg>
