<?xml version="1.0" encoding="UTF-8" standalone="no"?>
<!DOCTYPE svg PUBLIC "-//W3C//DTD SVG 1.1//EN"
 "http://www.w3.org/Graphics/SVG/1.1/DTD/svg11.dtd">
<!-- Generated by graphviz version 12.2.0 (20241103.1931)
 -->
<!-- Title: /Users/fola/Documents/ArkScript/Ark/include/Ark/Compiler/ValTableElem.hpp Pages: 1 -->
<svg width="801pt" height="271pt"
 viewBox="0.00 0.00 801.12 270.75" xmlns="http://www.w3.org/2000/svg" xmlns:xlink="http://www.w3.org/1999/xlink">
<g id="graph0" class="graph" transform="scale(1 1) rotate(0) translate(4 266.75)">
<title>/Users/fola/Documents/ArkScript/Ark/include/Ark/Compiler/ValTableElem.hpp</title>
<!-- Node1 -->
<g id="Node000001" class="node">
<title>Node1</title>
<g id="a_Node000001"><a xlink:title="The basic value type handled by the compiler.">
<polygon fill="#999999" stroke="#666666" points="157,-262.75 0,-262.75 0,-221 157,-221 157,-262.75"/>
<text text-anchor="start" x="8" y="-249.25" font-family="Helvetica,sans-Serif" font-size="10.00">/Users/fola/Documents</text>
<text text-anchor="start" x="8" y="-238" font-family="Helvetica,sans-Serif" font-size="10.00">/ArkScript/Ark/include</text>
<text text-anchor="middle" x="78.5" y="-226.75" font-family="Helvetica,sans-Serif" font-size="10.00">/Ark/Compiler/ValTableElem.hpp</text>
</a>
</g>
</g>
<!-- Node2 -->
<g id="Node000002" class="node">
<title>Node2</title>
<g id="a_Node000002"><a xlink:title=" ">
<polygon fill="#e0e0e0" stroke="#999999" points="101.12,-129.75 55.88,-129.75 55.88,-110.5 101.12,-110.5 101.12,-129.75"/>
<text text-anchor="middle" x="78.5" y="-116.25" font-family="Helvetica,sans-Serif" font-size="10.00">variant</text>
</a>
</g>
</g>
<!-- Node1&#45;&gt;Node2 -->
<g id="edge1_Node000001_Node000002" class="edge">
<title>Node1&#45;&gt;Node2</title>
<g id="a_edge1_Node000001_Node000002"><a xlink:title=" ">
<path fill="none" stroke="#63b8ff" d="M78.5,-220.56C78.5,-198.47 78.5,-163.38 78.5,-141.33"/>
<polygon fill="#63b8ff" stroke="#63b8ff" points="82,-141.57 78.5,-131.57 75,-141.57 82,-141.57"/>
</a>
</g>
</g>
<!-- Node3 -->
<g id="Node000003" class="node">
<title>Node3</title>
<g id="a_Node000003"><a xlink:title=" ">
<polygon fill="#e0e0e0" stroke="#999999" points="149.5,-74.5 109.5,-74.5 109.5,-55.25 149.5,-55.25 149.5,-74.5"/>
<text text-anchor="middle" x="129.5" y="-61" font-family="Helvetica,sans-Serif" font-size="10.00">string</text>
</a>
</g>
</g>
<!-- Node1&#45;&gt;Node3 -->
<g id="edge2_Node000001_Node000003" class="edge">
<title>Node1&#45;&gt;Node3</title>
<g id="a_edge2_Node000001_Node000003"><a xlink:title=" ">
<path fill="none" stroke="#63b8ff" d="M64.91,-220.95C48.47,-194.13 25.45,-145.71 46.5,-110.5 57.74,-91.69 79.95,-80.35 98.56,-73.8"/>
<polygon fill="#63b8ff" stroke="#63b8ff" points="99.36,-77.22 107.83,-70.87 97.24,-70.55 99.36,-77.22"/>
</a>
</g>
</g>
<!-- Node4 -->
<g id="Node000004" class="node">
<title>Node4</title>
<g id="a_Node000004"><a xlink:href="../../d7/dc6/Node_8hpp.html" target="_top" xlink:title="AST node used by the parser, optimizer and compiler.">
<polygon fill="white" stroke="#666666" points="472.75,-185 332.25,-185 332.25,-165.75 472.75,-165.75 472.75,-185"/>
<text text-anchor="middle" x="402.5" y="-171.5" font-family="Helvetica,sans-Serif" font-size="10.00">Ark/Compiler/AST/Node.hpp</text>
</a>
</g>
</g>
<!-- Node1&#45;&gt;Node4 -->
<g id="edge3_Node000001_Node000004" class="edge">
<title>Node1&#45;&gt;Node4</title>
<g id="a_edge3_Node000001_Node000004"><a xlink:title=" ">
<path fill="none" stroke="#63b8ff" d="M157.35,-225.18C215.63,-213.58 293.62,-198.05 345.84,-187.66"/>
<polygon fill="#63b8ff" stroke="#63b8ff" points="346.29,-191.13 355.41,-185.75 344.92,-184.27 346.29,-191.13"/>
</a>
</g>
</g>
<!-- Node4&#45;&gt;Node2 -->
<g id="edge4_Node000004_Node000002" class="edge">
<title>Node4&#45;&gt;Node2</title>
<g id="a_edge4_Node000004_Node000002"><a xlink:title=" ">
<path fill="none" stroke="#63b8ff" d="M334.7,-165.29C276.38,-157.13 190.12,-144.23 115.5,-129.75 114.51,-129.56 113.5,-129.36 112.49,-129.15"/>
<polygon fill="#63b8ff" stroke="#63b8ff" points="113.53,-125.8 103.01,-127.1 112.05,-132.64 113.53,-125.8"/>
</a>
</g>
</g>
<!-- Node4&#45;&gt;Node3 -->
<g id="edge6_Node000004_Node000003" class="edge">
<title>Node4&#45;&gt;Node3</title>
<g id="a_edge6_Node000004_Node000003"><a xlink:title=" ">
<path fill="none" stroke="#63b8ff" d="M331.87,-170.18C266.33,-164.87 175.03,-153.39 148.5,-129.75 136.21,-118.8 131.71,-100.28 130.14,-86"/>
<polygon fill="#63b8ff" stroke="#63b8ff" points="133.65,-86.08 129.49,-76.34 126.67,-86.55 133.65,-86.08"/>
</a>
</g>
</g>
<!-- Node5 -->
<g id="Node000005" class="node">
<title>Node5</title>
<g id="a_Node000005"><a xlink:title=" ">
<polygon fill="#e0e0e0" stroke="#999999" points="793.12,-129.75 741.88,-129.75 741.88,-110.5 793.12,-110.5 793.12,-129.75"/>
<text text-anchor="middle" x="767.5" y="-116.25" font-family="Helvetica,sans-Serif" font-size="10.00">ostream</text>
</a>
</g>
</g>
<!-- Node4&#45;&gt;Node5 -->
<g id="edge5_Node000004_Node000005" class="edge">
<title>Node4&#45;&gt;Node5</title>
<g id="a_edge5_Node000004_Node000005"><a xlink:title=" ">
<path fill="none" stroke="#63b8ff" d="M473.11,-166.25C539.11,-158.28 640.28,-145.12 727.5,-129.75 728.51,-129.57 729.53,-129.39 730.57,-129.2"/>
<polygon fill="#63b8ff" stroke="#63b8ff" points="731.12,-132.65 740.25,-127.28 729.76,-125.79 731.12,-132.65"/>
</a>
</g>
</g>
<!-- Node6 -->
<g id="Node000006" class="node">
<title>Node6</title>
<g id="a_Node000006"><a xlink:title=" ">
<polygon fill="#e0e0e0" stroke="#999999" points="301,-74.5 258,-74.5 258,-55.25 301,-55.25 301,-74.5"/>
<text text-anchor="middle" x="279.5" y="-61" font-family="Helvetica,sans-Serif" font-size="10.00">vector</text>
</a>
</g>
</g>
<!-- Node4&#45;&gt;Node6 -->
<g id="edge7_Node000004_Node000006" class="edge">
<title>Node4&#45;&gt;Node6</title>
<g id="a_edge7_Node000004_Node000006"><a xlink:title=" ">
<path fill="none" stroke="#63b8ff" d="M393.81,-165.39C381.45,-152.74 357.9,-129.14 336.5,-110.5 324.92,-100.41 311.41,-89.79 300.44,-81.44"/>
<polygon fill="#63b8ff" stroke="#63b8ff" points="302.88,-78.89 292.79,-75.66 298.67,-84.48 302.88,-78.89"/>
</a>
</g>
</g>
<!-- Node7 -->
<g id="Node000007" class="node">
<title>Node7</title>
<g id="a_Node000007"><a xlink:title=" ">
<polygon fill="#e0e0e0" stroke="#999999" points="629.38,-74.5 579.62,-74.5 579.62,-55.25 629.38,-55.25 629.38,-74.5"/>
<text text-anchor="middle" x="604.5" y="-61" font-family="Helvetica,sans-Serif" font-size="10.00">optional</text>
</a>
</g>
</g>
<!-- Node4&#45;&gt;Node7 -->
<g id="edge8_Node000004_Node000007" class="edge">
<title>Node4&#45;&gt;Node7</title>
<g id="a_edge8_Node000004_Node000007"><a xlink:title=" ">
<path fill="none" stroke="#63b8ff" d="M437.29,-165.32C462.93,-157.84 498.14,-145.83 526.5,-129.75 549.45,-116.74 572.41,-96.91 587.42,-82.8"/>
<polygon fill="#63b8ff" stroke="#63b8ff" points="589.79,-85.37 594.57,-75.91 584.94,-80.32 589.79,-85.37"/>
</a>
</g>
</g>
<!-- Node8 -->
<g id="Node000008" class="node">
<title>Node8</title>
<g id="a_Node000008"><a xlink:href="../../da/d33/Namespace_8hpp.html" target="_top" xlink:title=" ">
<polygon fill="white" stroke="#666666" points="327.38,-129.75 157.62,-129.75 157.62,-110.5 327.38,-110.5 327.38,-129.75"/>
<text text-anchor="middle" x="242.5" y="-116.25" font-family="Helvetica,sans-Serif" font-size="10.00">Ark/Compiler/AST/Namespace.hpp</text>
</a>
</g>
</g>
<!-- Node4&#45;&gt;Node8 -->
<g id="edge9_Node000004_Node000008" class="edge">
<title>Node4&#45;&gt;Node8</title>
<g id="a_edge9_Node000004_Node000008"><a xlink:title=" ">
<path fill="none" stroke="#63b8ff" d="M375.36,-165.34C349.27,-156.66 309.6,-143.46 280.4,-133.74"/>
<polygon fill="#63b8ff" stroke="#63b8ff" points="281.8,-130.52 271.21,-130.68 279.59,-137.16 281.8,-130.52"/>
</a>
</g>
</g>
<!-- Node10 -->
<g id="Node000010" class="node">
<title>Node10</title>
<g id="a_Node000010"><a xlink:href="../../d8/ddd/Common_8hpp.html" target="_top" xlink:title="Common code for the compiler.">
<polygon fill="white" stroke="#666666" points="517.75,-129.75 383.25,-129.75 383.25,-110.5 517.75,-110.5 517.75,-129.75"/>
<text text-anchor="middle" x="450.5" y="-116.25" font-family="Helvetica,sans-Serif" font-size="10.00">Ark/Compiler/Common.hpp</text>
</a>
</g>
</g>
<!-- Node4&#45;&gt;Node10 -->
<g id="edge13_Node000004_Node000010" class="edge">
<title>Node4&#45;&gt;Node10</title>
<g id="a_edge13_Node000004_Node000010"><a xlink:title=" ">
<path fill="none" stroke="#63b8ff" d="M410.43,-165.58C417.06,-158.23 426.72,-147.51 434.89,-138.44"/>
<polygon fill="#63b8ff" stroke="#63b8ff" points="437.29,-141 441.39,-131.23 432.09,-136.32 437.29,-141"/>
</a>
</g>
</g>
<!-- Node17 -->
<g id="Node000017" class="node">
<title>Node17</title>
<g id="a_Node000017"><a xlink:href="../../d5/d40/Platform_8hpp.html" target="_top" xlink:title="ArkScript configuration macros.">
<polygon fill="white" stroke="#666666" points="765.88,-74.5 653.12,-74.5 653.12,-55.25 765.88,-55.25 765.88,-74.5"/>
<text text-anchor="middle" x="709.5" y="-61" font-family="Helvetica,sans-Serif" font-size="10.00">Ark/Utils/Platform.hpp</text>
</a>
</g>
</g>
<!-- Node4&#45;&gt;Node17 -->
<g id="edge23_Node000004_Node000017" class="edge">
<title>Node4&#45;&gt;Node17</title>
<g id="a_edge23_Node000004_Node000017"><a xlink:title=" ">
<path fill="none" stroke="#63b8ff" d="M473.12,-172.45C549.06,-168.89 663.14,-158.72 694.5,-129.75 706.41,-118.75 709.71,-100.24 710.3,-85.97"/>
<polygon fill="#63b8ff" stroke="#63b8ff" points="713.8,-86.32 710.27,-76.33 706.8,-86.34 713.8,-86.32"/>
</a>
</g>
</g>
<!-- Node18 -->
<g id="Node000018" class="node">
<title>Node18</title>
<g id="a_Node000018"><a xlink:href="../../dc/d58/Position_8hpp.html" target="_top" xlink:title="Defines position utilities (for text in a file) for the parser, formatter, diagnostics.">
<polygon fill="white" stroke="#666666" points="685.12,-129.75 573.88,-129.75 573.88,-110.5 685.12,-110.5 685.12,-129.75"/>
<text text-anchor="middle" x="629.5" y="-116.25" font-family="Helvetica,sans-Serif" font-size="10.00">Ark/Utils/Position.hpp</text>
</a>
</g>
</g>
<!-- Node4&#45;&gt;Node18 -->
<g id="edge24_Node000004_Node000018" class="edge">
<title>Node4&#45;&gt;Node18</title>
<g id="a_edge24_Node000004_Node000018"><a xlink:title=" ">
<path fill="none" stroke="#63b8ff" d="M441.26,-165.28C479.54,-156.3 538.24,-142.53 579.9,-132.76"/>
<polygon fill="#63b8ff" stroke="#63b8ff" points="580.49,-136.22 589.42,-130.53 578.89,-129.4 580.49,-136.22"/>
</a>
</g>
</g>
<!-- Node8&#45;&gt;Node3 -->
<g id="edge10_Node000008_Node000003" class="edge">
<title>Node8&#45;&gt;Node3</title>
<g id="a_edge10_Node000008_Node000003"><a xlink:title=" ">
<path fill="none" stroke="#63b8ff" d="M223.33,-110.09C205.72,-101.79 179.34,-89.36 159.04,-79.79"/>
<polygon fill="#63b8ff" stroke="#63b8ff" points="160.67,-76.69 150.13,-75.6 157.69,-83.03 160.67,-76.69"/>
</a>
</g>
</g>
<!-- Node8&#45;&gt;Node6 -->
<g id="edge11_Node000008_Node000006" class="edge">
<title>Node8&#45;&gt;Node6</title>
<g id="a_edge11_Node000008_Node000006"><a xlink:title=" ">
<path fill="none" stroke="#63b8ff" d="M248.61,-110.33C253.56,-103.21 260.7,-92.93 266.87,-84.05"/>
<polygon fill="#63b8ff" stroke="#63b8ff" points="269.56,-86.31 272.39,-76.1 263.81,-82.32 269.56,-86.31"/>
</a>
</g>
</g>
<!-- Node9 -->
<g id="Node000009" class="node">
<title>Node9</title>
<g id="a_Node000009"><a xlink:title=" ">
<polygon fill="#e0e0e0" stroke="#999999" points="240.12,-74.5 188.88,-74.5 188.88,-55.25 240.12,-55.25 240.12,-74.5"/>
<text text-anchor="middle" x="214.5" y="-61" font-family="Helvetica,sans-Serif" font-size="10.00">memory</text>
</a>
</g>
</g>
<!-- Node8&#45;&gt;Node9 -->
<g id="edge12_Node000008_Node000009" class="edge">
<title>Node8&#45;&gt;Node9</title>
<g id="a_edge12_Node000008_Node000009"><a xlink:title=" ">
<path fill="none" stroke="#63b8ff" d="M237.88,-110.33C234.25,-103.44 229.07,-93.59 224.51,-84.91"/>
<polygon fill="#63b8ff" stroke="#63b8ff" points="227.68,-83.42 219.93,-76.2 221.48,-86.68 227.68,-83.42"/>
</a>
</g>
</g>
<!-- Node10&#45;&gt;Node6 -->
<g id="edge16_Node000010_Node000006" class="edge">
<title>Node10&#45;&gt;Node6</title>
<g id="a_edge16_Node000010_Node000006"><a xlink:title=" ">
<path fill="none" stroke="#63b8ff" d="M421.49,-110.09C391.2,-100.66 343.77,-85.89 312.17,-76.05"/>
<polygon fill="#63b8ff" stroke="#63b8ff" points="313.34,-72.75 302.75,-73.12 311.26,-79.43 313.34,-72.75"/>
</a>
</g>
</g>
<!-- Node11 -->
<g id="Node000011" class="node">
<title>Node11</title>
<g id="a_Node000011"><a xlink:title=" ">
<polygon fill="#e0e0e0" stroke="#999999" points="472.38,-74.5 434.62,-74.5 434.62,-55.25 472.38,-55.25 472.38,-74.5"/>
<text text-anchor="middle" x="453.5" y="-61" font-family="Helvetica,sans-Serif" font-size="10.00">array</text>
</a>
</g>
</g>
<!-- Node10&#45;&gt;Node11 -->
<g id="edge14_Node000010_Node000011" class="edge">
<title>Node10&#45;&gt;Node11</title>
<g id="a_edge14_Node000010_Node000011"><a xlink:title=" ">
<path fill="none" stroke="#63b8ff" d="M451,-110.33C451.37,-103.74 451.89,-94.46 452.36,-86.07"/>
<polygon fill="#63b8ff" stroke="#63b8ff" points="455.84,-86.55 452.91,-76.37 448.85,-86.16 455.84,-86.55"/>
</a>
</g>
</g>
<!-- Node12 -->
<g id="Node000012" class="node">
<title>Node12</title>
<g id="a_Node000012"><a xlink:title=" ">
<polygon fill="#e0e0e0" stroke="#999999" points="485.25,-19.25 419.75,-19.25 419.75,0 485.25,0 485.25,-19.25"/>
<text text-anchor="middle" x="452.5" y="-5.75" font-family="Helvetica,sans-Serif" font-size="10.00">string_view</text>
</a>
</g>
</g>
<!-- Node10&#45;&gt;Node12 -->
<g id="edge15_Node000010_Node000012" class="edge">
<title>Node10&#45;&gt;Node12</title>
<g id="a_edge15_Node000010_Node000012"><a xlink:title=" ">
<path fill="none" stroke="#63b8ff" d="M459.27,-110.12C466.82,-101.7 477.16,-88.36 481.5,-74.5 486.56,-58.36 477.59,-40.93 468.33,-28.37"/>
<polygon fill="#63b8ff" stroke="#63b8ff" points="471.07,-26.19 462.06,-20.62 465.63,-30.6 471.07,-26.19"/>
</a>
</g>
</g>
<!-- Node13 -->
<g id="Node000013" class="node">
<title>Node13</title>
<g id="a_Node000013"><a xlink:title=" ">
<polygon fill="#e0e0e0" stroke="#999999" points="563.38,-19.25 507.62,-19.25 507.62,0 563.38,0 563.38,-19.25"/>
<text text-anchor="middle" x="535.5" y="-5.75" font-family="Helvetica,sans-Serif" font-size="10.00">cinttypes</text>
</a>
</g>
</g>
<!-- Node10&#45;&gt;Node13 -->
<g id="edge17_Node000010_Node000013" class="edge">
<title>Node10&#45;&gt;Node13</title>
<g id="a_edge17_Node000010_Node000013"><a xlink:title=" ">
<path fill="none" stroke="#63b8ff" d="M461.11,-110.22C470.95,-101.66 485.66,-88.06 496.5,-74.5 507.91,-60.23 518.55,-42.36 525.83,-29.16"/>
<polygon fill="#63b8ff" stroke="#63b8ff" points="528.73,-31.14 530.38,-20.67 522.56,-27.83 528.73,-31.14"/>
</a>
</g>
</g>
<!-- Node14 -->
<g id="Node000014" class="node">
<title>Node14</title>
<g id="a_Node000014"><a xlink:href="../../d6/de9/Constants_8hpp.html" target="_top" xlink:title="Constants used by ArkScript.">
<polygon fill="white" stroke="#666666" points="416.38,-74.5 318.62,-74.5 318.62,-55.25 416.38,-55.25 416.38,-74.5"/>
<text text-anchor="middle" x="367.5" y="-61" font-family="Helvetica,sans-Serif" font-size="10.00">Ark/Constants.hpp</text>
</a>
</g>
</g>
<!-- Node10&#45;&gt;Node14 -->
<g id="edge18_Node000010_Node000014" class="edge">
<title>Node10&#45;&gt;Node14</title>
<g id="a_edge18_Node000010_Node000014"><a xlink:title=" ">
<path fill="none" stroke="#63b8ff" d="M436.42,-110.09C424.02,-102.14 405.71,-90.39 391.07,-81"/>
<polygon fill="#63b8ff" stroke="#63b8ff" points="393.23,-78.22 382.92,-75.77 389.45,-84.12 393.23,-78.22"/>
</a>
</g>
</g>
<!-- Node14&#45;&gt;Node12 -->
<g id="edge19_Node000014_Node000012" class="edge">
<title>Node14&#45;&gt;Node12</title>
<g id="a_edge19_Node000014_Node000012"><a xlink:title=" ">
<path fill="none" stroke="#63b8ff" d="M381.92,-54.84C394.62,-46.89 413.37,-35.14 428.36,-25.75"/>
<polygon fill="#63b8ff" stroke="#63b8ff" points="430.11,-28.78 436.73,-20.51 426.4,-22.85 430.11,-28.78"/>
</a>
</g>
</g>
<!-- Node14&#45;&gt;Node13 -->
<g id="edge21_Node000014_Node000013" class="edge">
<title>Node14&#45;&gt;Node13</title>
<g id="a_edge21_Node000014_Node000013"><a xlink:title=" ">
<path fill="none" stroke="#63b8ff" d="M396,-54.84C423.6,-46.09 465.66,-32.76 496.38,-23.02"/>
<polygon fill="#63b8ff" stroke="#63b8ff" points="497.22,-26.43 505.7,-20.07 495.11,-19.76 497.22,-26.43"/>
</a>
</g>
</g>
<!-- Node15 -->
<g id="Node000015" class="node">
<title>Node15</title>
<g id="a_Node000015"><a xlink:title=" ">
<polygon fill="#e0e0e0" stroke="#999999" points="327.12,-19.25 287.88,-19.25 287.88,0 327.12,0 327.12,-19.25"/>
<text text-anchor="middle" x="307.5" y="-5.75" font-family="Helvetica,sans-Serif" font-size="10.00">limits</text>
</a>
</g>
</g>
<!-- Node14&#45;&gt;Node15 -->
<g id="edge20_Node000014_Node000015" class="edge">
<title>Node14&#45;&gt;Node15</title>
<g id="a_edge20_Node000014_Node000015"><a xlink:title=" ">
<path fill="none" stroke="#63b8ff" d="M357.32,-54.84C348.74,-47.22 336.23,-36.12 325.9,-26.95"/>
<polygon fill="#63b8ff" stroke="#63b8ff" points="328.46,-24.55 318.66,-20.53 323.82,-29.79 328.46,-24.55"/>
</a>
</g>
</g>
<!-- Node16 -->
<g id="Node000016" class="node">
<title>Node16</title>
<g id="a_Node000016"><a xlink:title=" ">
<polygon fill="#e0e0e0" stroke="#999999" points="393.62,-19.25 345.38,-19.25 345.38,0 393.62,0 393.62,-19.25"/>
<text text-anchor="middle" x="369.5" y="-5.75" font-family="Helvetica,sans-Serif" font-size="10.00">cstddef</text>
</a>
</g>
</g>
<!-- Node14&#45;&gt;Node16 -->
<g id="edge22_Node000014_Node000016" class="edge">
<title>Node14&#45;&gt;Node16</title>
<g id="a_edge22_Node000014_Node000016"><a xlink:title=" ">
<path fill="none" stroke="#63b8ff" d="M367.83,-55.08C368.08,-48.49 368.43,-39.21 368.74,-30.82"/>
<polygon fill="#63b8ff" stroke="#63b8ff" points="372.23,-31.25 369.11,-21.12 365.23,-30.98 372.23,-31.25"/>
</a>
</g>
</g>
<!-- Node18&#45;&gt;Node7 -->
<g id="edge25_Node000018_Node000007" class="edge">
<title>Node18&#45;&gt;Node7</title>
<g id="a_edge25_Node000018_Node000007"><a xlink:title=" ">
<path fill="none" stroke="#63b8ff" d="M625.37,-110.33C622.17,-103.51 617.61,-93.81 613.57,-85.2"/>
<polygon fill="#63b8ff" stroke="#63b8ff" points="616.78,-83.79 609.36,-76.23 610.44,-86.77 616.78,-83.79"/>
</a>
</g>
</g>
<!-- Node18&#45;&gt;Node17 -->
<g id="edge26_Node000018_Node000017" class="edge">
<title>Node18&#45;&gt;Node17</title>
<g id="a_edge26_Node000018_Node000017"><a xlink:title=" ">
<path fill="none" stroke="#63b8ff" d="M643.07,-110.09C654.91,-102.21 672.34,-90.61 686.37,-81.27"/>
<polygon fill="#63b8ff" stroke="#63b8ff" points="688.22,-84.25 694.6,-75.79 684.34,-78.42 688.22,-84.25"/>
</a>
</g>
</g>
</g>
</svg>
