<?xml version="1.0" encoding="UTF-8" standalone="no"?>
<!DOCTYPE svg PUBLIC "-//W3C//DTD SVG 1.1//EN"
 "http://www.w3.org/Graphics/SVG/1.1/DTD/svg11.dtd">
<!-- Generated by graphviz version 12.2.0 (20241103.1931)
 -->
<!-- Title: /Users/fola/Documents/ArkScript/Ark/include/Ark/Compiler/Macros/Executors/Conditional.hpp Pages: 1 -->
<!--zoomable 349 -->

<svg id="main" version="1.1" xmlns="http://www.w3.org/2000/svg" xmlns:xlink="http://www.w3.org/1999/xlink" xml:space="preserve" onload="init(evt)">

<style type="text/css"><![CDATA[
.node, .edge {opacity: 0.7;}
.node.selected, .edge.selected {opacity: 1;}
.edge:hover path { stroke: red; }
.edge:hover polygon { stroke: red; fill: red; }
]]></style>

<defs>
  <circle id="rim" cx="0" cy="0" r="7"/>
  <circle id="rim2" cx="0" cy="0" r="3.5"/>
  <g id="zoomPlus">
    <use xlink:href="#rim" fill="#404040"><set attributeName="fill" to="#808080" begin="zoomplus.mouseover" end="zoomplus.mouseout"/></use>
    <path d="M-4,0h8M0,-4v8" fill="none" stroke="white" stroke-width="1.5" pointer-events="none"/>
  </g>
  <g id="zoomMin">
    <use xlink:href="#rim" fill="#404040"><set attributeName="fill" to="#808080" begin="zoomminus.mouseover" end="zoomminus.mouseout"/></use>
    <path d="M-4,0h8" fill="none" stroke="white" stroke-width="1.5" pointer-events="none"/>
  </g>
  <g id="arrowUp" transform="translate(30 24)">
    <use xlink:href="#rim"/>
    <path pointer-events="none" fill="none" stroke="white" stroke-width="1.5" d="M0,-3.0v7 M-2.5,-0.5L0,-3.0L2.5,-0.5"/>
  </g>
  <g id="arrowRight" transform="rotate(90) translate(36 -43)">
    <use xlink:href="#rim"/>
    <path pointer-events="none" fill="none" stroke="white" stroke-width="1.5" d="M0,-3.0v7 M-2.5,-0.5L0,-3.0L2.5,-0.5"/>
  </g>
  <g id="arrowDown" transform="rotate(180) translate(-30 -48)">
    <use xlink:href="#rim"/>
    <path pointer-events="none" fill="none" stroke="white" stroke-width="1.5" d="M0,-3.0v7 M-2.5,-0.5L0,-3.0L2.5,-0.5"/>
  </g>
  <g id="arrowLeft" transform="rotate(270) translate(-36 17)">
    <use xlink:href="#rim"/>
    <path pointer-events="none" fill="none" stroke="white" stroke-width="1.5" d="M0,-3.0v7 M-2.5,-0.5L0,-3.0L2.5,-0.5"/>
  </g>
  <g id="resetDef">
    <use xlink:href="#rim2" fill="#404040"><set attributeName="fill" to="#808080" begin="reset.mouseover" end="reset.mouseout"/></use>
  </g>
</defs>
<script type="application/ecmascript">
var viewWidth = 855;
var viewHeight = 349;
var sectionId = 'dynsection-0';
</script>
<script type="application/ecmascript" xlink:href="../../svg.min.js"/>
<svg id="graph" class="graph">
<g id="viewport">
<title>/Users/fola/Documents/ArkScript/Ark/include/Ark/Compiler/Macros/Executors/Conditional.hpp</title>
<!-- Node1 -->
<g id="Node000001" class="node">
<title>Node1</title>
<g id="a_Node000001"><a xlink:title="Executor for Conditional Macros.">
<polygon fill="#999999" stroke="#666666" points="296.86,-340.5 138.36,-340.5 138.36,-287.5 296.86,-287.5 296.86,-340.5"/>
<text text-anchor="start" x="146.36" y="-327" font-family="Helvetica,sans-Serif" font-size="10.00">/Users/fola/Documents</text>
<text text-anchor="start" x="146.36" y="-315.75" font-family="Helvetica,sans-Serif" font-size="10.00">/ArkScript/Ark/include</text>
<text text-anchor="start" x="146.36" y="-304.5" font-family="Helvetica,sans-Serif" font-size="10.00">/Ark/Compiler/Macros/Executors</text>
<text text-anchor="middle" x="217.61" y="-293.25" font-family="Helvetica,sans-Serif" font-size="10.00">/Conditional.hpp</text>
</a>
</g>
</g>
<!-- Node2 -->
<g id="Node000002" class="node">
<title>Node2</title>
<g id="a_Node000002"><a xlink:href="../../d4/d1a/Executor_8hpp.html" target="_top" xlink:title="The base class for all MacroExecutors.">
<polygon fill="white" stroke="#666666" points="230.73,-251.5 122.48,-251.5 122.48,-221 230.73,-221 230.73,-251.5"/>
<text text-anchor="start" x="130.48" y="-238" font-family="Helvetica,sans-Serif" font-size="10.00">Ark/Compiler/Macros</text>
<text text-anchor="middle" x="176.61" y="-226.75" font-family="Helvetica,sans-Serif" font-size="10.00">/Executor.hpp</text>
</a>
</g>
</g>
<!-- Node1&#45;&gt;Node2 -->
<g id="edge1_Node000001_Node000002" class="edge">
<title>Node1&#45;&gt;Node2</title>
<g id="a_edge1_Node000001_Node000002"><a xlink:title=" ">
<path fill="none" stroke="#63b8ff" d="M203.73,-287.35C199.27,-279.12 194.34,-270.02 189.92,-261.86"/>
<polygon fill="#63b8ff" stroke="#63b8ff" points="193.05,-260.28 185.21,-253.15 186.9,-263.61 193.05,-260.28"/>
</a>
</g>
</g>
<!-- Node5 -->
<g id="Node000005" class="node">
<title>Node5</title>
<g id="a_Node000005"><a xlink:href="../../d7/dc6/Node_8hpp.html" target="_top" xlink:title="AST node used by the parser, optimizer and compiler.">
<polygon fill="white" stroke="#666666" points="352.86,-185 212.36,-185 212.36,-165.75 352.86,-165.75 352.86,-185"/>
<text text-anchor="middle" x="282.61" y="-171.5" font-family="Helvetica,sans-Serif" font-size="10.00">Ark/Compiler/AST/Node.hpp</text>
</a>
</g>
</g>
<!-- Node1&#45;&gt;Node5 -->
<g id="edge28_Node000001_Node000005" class="edge">
<title>Node1&#45;&gt;Node5</title>
<g id="a_edge28_Node000001_Node000005"><a xlink:title=" ">
<path fill="none" stroke="#63b8ff" d="M229.83,-287.3C242.54,-260.6 262.12,-219.43 273.52,-195.47"/>
<polygon fill="#63b8ff" stroke="#63b8ff" points="276.61,-197.13 277.74,-186.6 270.29,-194.13 276.61,-197.13"/>
</a>
</g>
</g>
<!-- Node3 -->
<g id="Node000003" class="node">
<title>Node3</title>
<g id="a_Node000003"><a xlink:title=" ">
<polygon fill="#e0e0e0" stroke="#999999" points="181.48,-74.5 131.73,-74.5 131.73,-55.25 181.48,-55.25 181.48,-74.5"/>
<text text-anchor="middle" x="156.61" y="-61" font-family="Helvetica,sans-Serif" font-size="10.00">optional</text>
</a>
</g>
</g>
<!-- Node2&#45;&gt;Node3 -->
<g id="edge2_Node000002_Node000003" class="edge">
<title>Node2&#45;&gt;Node3</title>
<g id="a_edge2_Node000002_Node000003"><a xlink:title=" ">
<path fill="none" stroke="#63b8ff" d="M128.6,-220.62C87.48,-205.25 30.87,-176.67 4.61,-129.75 -20.94,-84.12 67.38,-71.09 120.06,-67.36"/>
<polygon fill="#63b8ff" stroke="#63b8ff" points="120.06,-70.87 129.83,-66.76 119.63,-63.88 120.06,-70.87"/>
</a>
</g>
</g>
<!-- Node4 -->
<g id="Node000004" class="node">
<title>Node4</title>
<g id="a_Node000004"><a xlink:title=" ">
<polygon fill="#e0e0e0" stroke="#999999" points="193.98,-185 111.23,-185 111.23,-165.75 193.98,-165.75 193.98,-185"/>
<text text-anchor="middle" x="152.61" y="-171.5" font-family="Helvetica,sans-Serif" font-size="10.00">unordered_map</text>
</a>
</g>
</g>
<!-- Node2&#45;&gt;Node4 -->
<g id="edge3_Node000002_Node000004" class="edge">
<title>Node2&#45;&gt;Node4</title>
<g id="a_edge3_Node000002_Node000004"><a xlink:title=" ">
<path fill="none" stroke="#63b8ff" d="M170.67,-220.7C167.62,-213.2 163.85,-203.95 160.54,-195.85"/>
<polygon fill="#63b8ff" stroke="#63b8ff" points="163.89,-194.79 156.88,-186.85 157.41,-197.43 163.89,-194.79"/>
</a>
</g>
</g>
<!-- Node2&#45;&gt;Node5 -->
<g id="edge4_Node000002_Node000005" class="edge">
<title>Node2&#45;&gt;Node5</title>
<g id="a_edge4_Node000002_Node000005"><a xlink:title=" ">
<path fill="none" stroke="#63b8ff" d="M203.08,-220.55C219.38,-211.49 240.19,-199.94 256.43,-190.91"/>
<polygon fill="#63b8ff" stroke="#63b8ff" points="257.98,-194.05 265.03,-186.14 254.59,-187.93 257.98,-194.05"/>
</a>
</g>
</g>
<!-- Node5&#45;&gt;Node3 -->
<g id="edge9_Node000005_Node000003" class="edge">
<title>Node5&#45;&gt;Node3</title>
<g id="a_edge9_Node000005_Node000003"><a xlink:title=" ">
<path fill="none" stroke="#63b8ff" d="M238.04,-165.26C216.48,-158.73 191.82,-147.78 175.61,-129.75 164.83,-117.76 160.15,-99.9 158.13,-86.11"/>
<polygon fill="#63b8ff" stroke="#63b8ff" points="161.63,-85.95 157.08,-76.38 154.67,-86.7 161.63,-85.95"/>
</a>
</g>
</g>
<!-- Node6 -->
<g id="Node000006" class="node">
<title>Node6</title>
<g id="a_Node000006"><a xlink:title=" ">
<polygon fill="#e0e0e0" stroke="#999999" points="59.23,-129.75 13.98,-129.75 13.98,-110.5 59.23,-110.5 59.23,-129.75"/>
<text text-anchor="middle" x="36.61" y="-116.25" font-family="Helvetica,sans-Serif" font-size="10.00">variant</text>
</a>
</g>
</g>
<!-- Node5&#45;&gt;Node6 -->
<g id="edge5_Node000005_Node000006" class="edge">
<title>Node5&#45;&gt;Node6</title>
<g id="a_edge5_Node000005_Node000006"><a xlink:title=" ">
<path fill="none" stroke="#63b8ff" d="M234.16,-165.28C192.92,-157.32 131.88,-145.04 70.62,-130.37"/>
<polygon fill="#63b8ff" stroke="#63b8ff" points="71.6,-127.01 61.06,-128.06 69.95,-133.81 71.6,-127.01"/>
</a>
</g>
</g>
<!-- Node7 -->
<g id="Node000007" class="node">
<title>Node7</title>
<g id="a_Node000007"><a xlink:title=" ">
<polygon fill="#e0e0e0" stroke="#999999" points="128.23,-129.75 76.98,-129.75 76.98,-110.5 128.23,-110.5 128.23,-129.75"/>
<text text-anchor="middle" x="102.61" y="-116.25" font-family="Helvetica,sans-Serif" font-size="10.00">ostream</text>
</a>
</g>
</g>
<!-- Node5&#45;&gt;Node7 -->
<g id="edge6_Node000005_Node000007" class="edge">
<title>Node5&#45;&gt;Node7</title>
<g id="a_edge6_Node000005_Node000007"><a xlink:title=" ">
<path fill="none" stroke="#63b8ff" d="M252.07,-165.34C220.89,-156.12 172.48,-141.79 139.25,-131.96"/>
<polygon fill="#63b8ff" stroke="#63b8ff" points="140.64,-128.73 130.06,-129.25 138.66,-135.44 140.64,-128.73"/>
</a>
</g>
</g>
<!-- Node8 -->
<g id="Node000008" class="node">
<title>Node8</title>
<g id="a_Node000008"><a xlink:title=" ">
<polygon fill="#e0e0e0" stroke="#999999" points="406.61,-74.5 366.61,-74.5 366.61,-55.25 406.61,-55.25 406.61,-74.5"/>
<text text-anchor="middle" x="386.61" y="-61" font-family="Helvetica,sans-Serif" font-size="10.00">string</text>
</a>
</g>
</g>
<!-- Node5&#45;&gt;Node8 -->
<g id="edge7_Node000005_Node000008" class="edge">
<title>Node5&#45;&gt;Node8</title>
<g id="a_edge7_Node000005_Node000008"><a xlink:title=" ">
<path fill="none" stroke="#63b8ff" d="M291.12,-165.5C308.33,-147.53 347.56,-106.61 370.01,-83.19"/>
<polygon fill="#63b8ff" stroke="#63b8ff" points="372.54,-85.61 376.93,-75.97 367.48,-80.77 372.54,-85.61"/>
</a>
</g>
</g>
<!-- Node9 -->
<g id="Node000009" class="node">
<title>Node9</title>
<g id="a_Node000009"><a xlink:title=" ">
<polygon fill="#e0e0e0" stroke="#999999" points="578.11,-74.5 535.11,-74.5 535.11,-55.25 578.11,-55.25 578.11,-74.5"/>
<text text-anchor="middle" x="556.61" y="-61" font-family="Helvetica,sans-Serif" font-size="10.00">vector</text>
</a>
</g>
</g>
<!-- Node5&#45;&gt;Node9 -->
<g id="edge8_Node000005_Node000009" class="edge">
<title>Node5&#45;&gt;Node9</title>
<g id="a_edge8_Node000005_Node000009"><a xlink:title=" ">
<path fill="none" stroke="#63b8ff" d="M353.3,-173.52C429.11,-170.92 542.3,-161.63 569.61,-129.75 580.18,-117.41 574.8,-98.81 568.04,-84.86"/>
<polygon fill="#63b8ff" stroke="#63b8ff" points="571.18,-83.31 563.32,-76.21 565.03,-86.66 571.18,-83.31"/>
</a>
</g>
</g>
<!-- Node10 -->
<g id="Node000010" class="node">
<title>Node10</title>
<g id="a_Node000010"><a xlink:href="../../da/d33/Namespace_8hpp.html" target="_top" xlink:title=" ">
<polygon fill="white" stroke="#666666" points="560.48,-129.75 390.73,-129.75 390.73,-110.5 560.48,-110.5 560.48,-129.75"/>
<text text-anchor="middle" x="475.61" y="-116.25" font-family="Helvetica,sans-Serif" font-size="10.00">Ark/Compiler/AST/Namespace.hpp</text>
</a>
</g>
</g>
<!-- Node5&#45;&gt;Node10 -->
<g id="edge10_Node000005_Node000010" class="edge">
<title>Node5&#45;&gt;Node10</title>
<g id="a_edge10_Node000005_Node000010"><a xlink:title=" ">
<path fill="none" stroke="#63b8ff" d="M315.35,-165.34C347.37,-156.51 396.35,-142.99 431.73,-133.23"/>
<polygon fill="#63b8ff" stroke="#63b8ff" points="432.54,-136.64 441.25,-130.61 430.68,-129.89 432.54,-136.64"/>
</a>
</g>
</g>
<!-- Node12 -->
<g id="Node000012" class="node">
<title>Node12</title>
<g id="a_Node000012"><a xlink:href="../../d8/ddd/Common_8hpp.html" target="_top" xlink:title="Common code for the compiler.">
<polygon fill="white" stroke="#666666" points="750.86,-129.75 616.36,-129.75 616.36,-110.5 750.86,-110.5 750.86,-129.75"/>
<text text-anchor="middle" x="683.61" y="-116.25" font-family="Helvetica,sans-Serif" font-size="10.00">Ark/Compiler/Common.hpp</text>
</a>
</g>
</g>
<!-- Node5&#45;&gt;Node12 -->
<g id="edge14_Node000005_Node000012" class="edge">
<title>Node5&#45;&gt;Node12</title>
<g id="a_edge14_Node000005_Node000012"><a xlink:title=" ">
<path fill="none" stroke="#63b8ff" d="M351.09,-165.28C421.51,-155.93 531.06,-141.38 604.99,-131.57"/>
<polygon fill="#63b8ff" stroke="#63b8ff" points="605.13,-135.08 614.58,-130.29 604.2,-128.14 605.13,-135.08"/>
</a>
</g>
</g>
<!-- Node19 -->
<g id="Node000019" class="node">
<title>Node19</title>
<g id="a_Node000019"><a xlink:href="../../d5/d40/Platform_8hpp.html" target="_top" xlink:title="ArkScript configuration macros.">
<polygon fill="white" stroke="#666666" points="342.98,-74.5 230.23,-74.5 230.23,-55.25 342.98,-55.25 342.98,-74.5"/>
<text text-anchor="middle" x="286.61" y="-61" font-family="Helvetica,sans-Serif" font-size="10.00">Ark/Utils/Platform.hpp</text>
</a>
</g>
</g>
<!-- Node5&#45;&gt;Node19 -->
<g id="edge24_Node000005_Node000019" class="edge">
<title>Node5&#45;&gt;Node19</title>
<g id="a_edge24_Node000005_Node000019"><a xlink:title=" ">
<path fill="none" stroke="#63b8ff" d="M288.93,-165.32C294.56,-156.64 302.4,-142.96 305.61,-129.75 309.32,-114.44 303.71,-97.36 297.64,-84.71"/>
<polygon fill="#63b8ff" stroke="#63b8ff" points="300.92,-83.41 293.13,-76.23 294.74,-86.7 300.92,-83.41"/>
</a>
</g>
</g>
<!-- Node20 -->
<g id="Node000020" class="node">
<title>Node20</title>
<g id="a_Node000020"><a xlink:href="../../dc/d58/Position_8hpp.html" target="_top" xlink:title="Defines position utilities (for text in a file) for the parser, formatter, diagnostics.">
<polygon fill="white" stroke="#666666" points="296.23,-129.75 184.98,-129.75 184.98,-110.5 296.23,-110.5 296.23,-129.75"/>
<text text-anchor="middle" x="240.61" y="-116.25" font-family="Helvetica,sans-Serif" font-size="10.00">Ark/Utils/Position.hpp</text>
</a>
</g>
</g>
<!-- Node5&#45;&gt;Node20 -->
<g id="edge25_Node000005_Node000020" class="edge">
<title>Node5&#45;&gt;Node20</title>
<g id="a_edge25_Node000005_Node000020"><a xlink:title=" ">
<path fill="none" stroke="#63b8ff" d="M275.67,-165.58C269.99,-158.38 261.77,-147.96 254.71,-139.01"/>
<polygon fill="#63b8ff" stroke="#63b8ff" points="257.57,-136.98 248.63,-131.3 252.07,-141.32 257.57,-136.98"/>
</a>
</g>
</g>
<!-- Node10&#45;&gt;Node8 -->
<g id="edge11_Node000010_Node000008" class="edge">
<title>Node10&#45;&gt;Node8</title>
<g id="a_edge11_Node000010_Node000008"><a xlink:title=" ">
<path fill="none" stroke="#63b8ff" d="M460.51,-110.09C447.08,-102.06 427.2,-90.16 411.43,-80.73"/>
<polygon fill="#63b8ff" stroke="#63b8ff" points="413.46,-77.86 403.08,-75.73 409.86,-83.87 413.46,-77.86"/>
</a>
</g>
</g>
<!-- Node10&#45;&gt;Node9 -->
<g id="edge12_Node000010_Node000009" class="edge">
<title>Node10&#45;&gt;Node9</title>
<g id="a_edge12_Node000010_Node000009"><a xlink:title=" ">
<path fill="none" stroke="#63b8ff" d="M489.35,-110.09C501.33,-102.21 518.98,-90.61 533.19,-81.27"/>
<polygon fill="#63b8ff" stroke="#63b8ff" points="535.1,-84.2 541.53,-75.78 531.25,-78.35 535.1,-84.2"/>
</a>
</g>
</g>
<!-- Node11 -->
<g id="Node000011" class="node">
<title>Node11</title>
<g id="a_Node000011"><a xlink:title=" ">
<polygon fill="#e0e0e0" stroke="#999999" points="501.23,-74.5 449.98,-74.5 449.98,-55.25 501.23,-55.25 501.23,-74.5"/>
<text text-anchor="middle" x="475.61" y="-61" font-family="Helvetica,sans-Serif" font-size="10.00">memory</text>
</a>
</g>
</g>
<!-- Node10&#45;&gt;Node11 -->
<g id="edge13_Node000010_Node000011" class="edge">
<title>Node10&#45;&gt;Node11</title>
<g id="a_edge13_Node000010_Node000011"><a xlink:title=" ">
<path fill="none" stroke="#63b8ff" d="M475.61,-110.33C475.61,-103.82 475.61,-94.67 475.61,-86.37"/>
<polygon fill="#63b8ff" stroke="#63b8ff" points="479.11,-86.37 475.61,-76.37 472.11,-86.37 479.11,-86.37"/>
</a>
</g>
</g>
<!-- Node12&#45;&gt;Node9 -->
<g id="edge17_Node000012_Node000009" class="edge">
<title>Node12&#45;&gt;Node9</title>
<g id="a_edge17_Node000012_Node000009"><a xlink:title=" ">
<path fill="none" stroke="#63b8ff" d="M662.06,-110.09C641.99,-101.68 611.8,-89.02 588.86,-79.4"/>
<polygon fill="#63b8ff" stroke="#63b8ff" points="590.23,-76.18 579.65,-75.54 587.52,-82.63 590.23,-76.18"/>
</a>
</g>
</g>
<!-- Node13 -->
<g id="Node000013" class="node">
<title>Node13</title>
<g id="a_Node000013"><a xlink:title=" ">
<polygon fill="#e0e0e0" stroke="#999999" points="788.48,-74.5 750.73,-74.5 750.73,-55.25 788.48,-55.25 788.48,-74.5"/>
<text text-anchor="middle" x="769.61" y="-61" font-family="Helvetica,sans-Serif" font-size="10.00">array</text>
</a>
</g>
</g>
<!-- Node12&#45;&gt;Node13 -->
<g id="edge15_Node000012_Node000013" class="edge">
<title>Node12&#45;&gt;Node13</title>
<g id="a_edge15_Node000012_Node000013"><a xlink:title=" ">
<path fill="none" stroke="#63b8ff" d="M698.2,-110.09C711.04,-102.14 730.02,-90.39 745.18,-81"/>
<polygon fill="#63b8ff" stroke="#63b8ff" points="747,-83.99 753.66,-75.75 743.31,-78.04 747,-83.99"/>
</a>
</g>
</g>
<!-- Node14 -->
<g id="Node000014" class="node">
<title>Node14</title>
<g id="a_Node000014"><a xlink:title=" ">
<polygon fill="#e0e0e0" stroke="#999999" points="847.36,-19.25 781.86,-19.25 781.86,0 847.36,0 847.36,-19.25"/>
<text text-anchor="middle" x="814.61" y="-5.75" font-family="Helvetica,sans-Serif" font-size="10.00">string_view</text>
</a>
</g>
</g>
<!-- Node12&#45;&gt;Node14 -->
<g id="edge16_Node000012_Node000014" class="edge">
<title>Node12&#45;&gt;Node14</title>
<g id="a_edge16_Node000012_Node000014"><a xlink:title=" ">
<path fill="none" stroke="#63b8ff" d="M734.44,-110.02C756.67,-103.59 781.33,-92.73 797.61,-74.5 808.26,-62.57 812.35,-44.71 813.87,-30.9"/>
<polygon fill="#63b8ff" stroke="#63b8ff" points="817.34,-31.38 814.55,-21.16 810.36,-30.89 817.34,-31.38"/>
</a>
</g>
</g>
<!-- Node15 -->
<g id="Node000015" class="node">
<title>Node15</title>
<g id="a_Node000015"><a xlink:title=" ">
<polygon fill="#e0e0e0" stroke="#999999" points="637.48,-19.25 581.73,-19.25 581.73,0 637.48,0 637.48,-19.25"/>
<text text-anchor="middle" x="609.61" y="-5.75" font-family="Helvetica,sans-Serif" font-size="10.00">cinttypes</text>
</a>
</g>
</g>
<!-- Node12&#45;&gt;Node15 -->
<g id="edge18_Node000012_Node000015" class="edge">
<title>Node12&#45;&gt;Node15</title>
<g id="a_edge18_Node000012_Node000015"><a xlink:title=" ">
<path fill="none" stroke="#63b8ff" d="M666.32,-110.08C653.21,-102.35 635.78,-90.01 625.61,-74.5 617.06,-61.46 613.08,-44.18 611.22,-30.88"/>
<polygon fill="#63b8ff" stroke="#63b8ff" points="614.72,-30.7 610.18,-21.13 607.76,-31.44 614.72,-30.7"/>
</a>
</g>
</g>
<!-- Node16 -->
<g id="Node000016" class="node">
<title>Node16</title>
<g id="a_Node000016"><a xlink:href="../../d6/de9/Constants_8hpp.html" target="_top" xlink:title="Constants used by ArkScript.">
<polygon fill="white" stroke="#666666" points="732.48,-74.5 634.73,-74.5 634.73,-55.25 732.48,-55.25 732.48,-74.5"/>
<text text-anchor="middle" x="683.61" y="-61" font-family="Helvetica,sans-Serif" font-size="10.00">Ark/Constants.hpp</text>
</a>
</g>
</g>
<!-- Node12&#45;&gt;Node16 -->
<g id="edge19_Node000012_Node000016" class="edge">
<title>Node12&#45;&gt;Node16</title>
<g id="a_edge19_Node000012_Node000016"><a xlink:title=" ">
<path fill="none" stroke="#63b8ff" d="M683.61,-110.33C683.61,-103.82 683.61,-94.67 683.61,-86.37"/>
<polygon fill="#63b8ff" stroke="#63b8ff" points="687.11,-86.37 683.61,-76.37 680.11,-86.37 687.11,-86.37"/>
</a>
</g>
</g>
<!-- Node16&#45;&gt;Node14 -->
<g id="edge20_Node000016_Node000014" class="edge">
<title>Node16&#45;&gt;Node14</title>
<g id="a_edge20_Node000016_Node000014"><a xlink:title=" ">
<path fill="none" stroke="#63b8ff" d="M705.83,-54.84C726.62,-46.39 757.96,-33.65 781.66,-24.02"/>
<polygon fill="#63b8ff" stroke="#63b8ff" points="782.93,-27.28 790.87,-20.27 780.29,-20.8 782.93,-27.28"/>
</a>
</g>
</g>
<!-- Node16&#45;&gt;Node15 -->
<g id="edge22_Node000016_Node000015" class="edge">
<title>Node16&#45;&gt;Node15</title>
<g id="a_edge22_Node000016_Node000015"><a xlink:title=" ">
<path fill="none" stroke="#63b8ff" d="M671.05,-54.84C660.14,-46.99 644.1,-35.45 631.15,-26.12"/>
<polygon fill="#63b8ff" stroke="#63b8ff" points="633.36,-23.41 623.2,-20.41 629.28,-29.09 633.36,-23.41"/>
</a>
</g>
</g>
<!-- Node17 -->
<g id="Node000017" class="node">
<title>Node17</title>
<g id="a_Node000017"><a xlink:title=" ">
<polygon fill="#e0e0e0" stroke="#999999" points="763.23,-19.25 723.98,-19.25 723.98,0 763.23,0 763.23,-19.25"/>
<text text-anchor="middle" x="743.61" y="-5.75" font-family="Helvetica,sans-Serif" font-size="10.00">limits</text>
</a>
</g>
</g>
<!-- Node16&#45;&gt;Node17 -->
<g id="edge21_Node000016_Node000017" class="edge">
<title>Node16&#45;&gt;Node17</title>
<g id="a_edge21_Node000016_Node000017"><a xlink:title=" ">
<path fill="none" stroke="#63b8ff" d="M693.78,-54.84C702.37,-47.22 714.88,-36.12 725.21,-26.95"/>
<polygon fill="#63b8ff" stroke="#63b8ff" points="727.29,-29.79 732.45,-20.53 722.64,-24.55 727.29,-29.79"/>
</a>
</g>
</g>
<!-- Node18 -->
<g id="Node000018" class="node">
<title>Node18</title>
<g id="a_Node000018"><a xlink:title=" ">
<polygon fill="#e0e0e0" stroke="#999999" points="705.73,-19.25 657.48,-19.25 657.48,0 705.73,0 705.73,-19.25"/>
<text text-anchor="middle" x="681.61" y="-5.75" font-family="Helvetica,sans-Serif" font-size="10.00">cstddef</text>
</a>
</g>
</g>
<!-- Node16&#45;&gt;Node18 -->
<g id="edge23_Node000016_Node000018" class="edge">
<title>Node16&#45;&gt;Node18</title>
<g id="a_edge23_Node000016_Node000018"><a xlink:title=" ">
<path fill="none" stroke="#63b8ff" d="M683.28,-55.08C683.03,-48.49 682.68,-39.21 682.36,-30.82"/>
<polygon fill="#63b8ff" stroke="#63b8ff" points="685.87,-30.98 682,-21.12 678.88,-31.25 685.87,-30.98"/>
</a>
</g>
</g>
<!-- Node20&#45;&gt;Node3 -->
<g id="edge26_Node000020_Node000003" class="edge">
<title>Node20&#45;&gt;Node3</title>
<g id="a_edge26_Node000020_Node000003"><a xlink:title=" ">
<path fill="none" stroke="#63b8ff" d="M226.36,-110.09C213.81,-102.14 195.27,-90.39 180.46,-81"/>
<polygon fill="#63b8ff" stroke="#63b8ff" points="182.52,-78.16 172.2,-75.76 178.78,-84.07 182.52,-78.16"/>
</a>
</g>
</g>
<!-- Node20&#45;&gt;Node19 -->
<g id="edge27_Node000020_Node000019" class="edge">
<title>Node20&#45;&gt;Node19</title>
<g id="a_edge27_Node000020_Node000019"><a xlink:title=" ">
<path fill="none" stroke="#63b8ff" d="M248.2,-110.33C254.49,-103.05 263.62,-92.48 271.4,-83.48"/>
<polygon fill="#63b8ff" stroke="#63b8ff" points="273.97,-85.86 277.86,-76 268.67,-81.28 273.97,-85.86"/>
</a>
</g>
</g>
</g>
</svg>

<g id="navigator" transform="translate(0 0)" fill="#404254">
  <rect fill="#f2f5e9" fill-opacity="0.5" stroke="#606060" stroke-width=".5" x="0" y="0" width="60" height="60"/>
  <use id="zoomplus" xlink:href="#zoomPlus" x="17" y="9" onmousedown="handleZoom(evt,'in')"/>
  <use id="zoomminus" xlink:href="#zoomMin" x="42" y="9" onmousedown="handleZoom(evt,'out')"/>
  <use id="reset" xlink:href="#resetDef" x="30" y="36" onmousedown="handleReset()"/>
   <use id="arrowup" xlink:href="#arrowUp" x="0" y="0" onmousedown="handlePan(0,-1)"/>
  <use id="arrowright" xlink:href="#arrowRight" x="0" y="0" onmousedown="handlePan(1,0)"/>
  <use id="arrowdown" xlink:href="#arrowDown" x="0" y="0" onmousedown="handlePan(0,1)"/>
  <use id="arrowleft" xlink:href="#arrowLeft" x="0" y="0" onmousedown="handlePan(-1,0)"/>
</g>
<svg viewBox="0 0 15 15" width="100%" height="30px" preserveAspectRatio="xMaxYMin meet">
 <g id="arrow_out" transform="scale(0.3 0.3)">
  <a xlink:href="Conditional_8hpp__incl_org.svg" target="_base">
   <rect id="button" ry="5" rx="5" y="6" x="6" height="38" width="38"
        fill="#f2f5e9" fill-opacity="0.5" stroke="#606060" stroke-width="1.0"/>
   <path id="arrow"
     d="M 11.500037,31.436501 C 11.940474,20.09759 22.043105,11.32322 32.158766,21.979434 L 37.068811,17.246167 C 37.068811,17.246167 37.088388,32 37.088388,32 L 22.160133,31.978069 C 22.160133,31.978069 26.997745,27.140456 26.997745,27.140456 C 18.528582,18.264221 13.291696,25.230495 11.500037,31.436501 z"
     style="fill:#404040;"/>
  </a>
 </g>
</svg>

<style type='text/css'>
<![CDATA[
[data-mouse-over-selected='false'] { opacity: 0.7; }
[data-mouse-over-selected='true']  { opacity: 1.0; }
]]>
</style>
<script type="application/ecmascript"><![CDATA[
document.addEventListener('DOMContentLoaded', (event) => {
  highlightEdges();
  highlightAdjacentNodes();
});
]]></script>
</svg>
