<?xml version="1.0" encoding="UTF-8" standalone="no"?>
<!DOCTYPE svg PUBLIC "-//W3C//DTD SVG 1.1//EN"
 "http://www.w3.org/Graphics/SVG/1.1/DTD/svg11.dtd">
<!-- Generated by graphviz version 12.2.0 (20241103.1931)
 -->
<!-- Title: /Users/fola/Documents/ArkScript/Ark/src/arkreactor/Compiler/AST/BaseParser.cpp Pages: 1 -->
<svg width="888pt" height="282pt"
 viewBox="0.00 0.00 887.50 282.00" xmlns="http://www.w3.org/2000/svg" xmlns:xlink="http://www.w3.org/1999/xlink">
<g id="graph0" class="graph" transform="scale(1 1) rotate(0) translate(4 278)">
<title>/Users/fola/Documents/ArkScript/Ark/src/arkreactor/Compiler/AST/BaseParser.cpp</title>
<!-- Node1 -->
<g id="Node000001" class="node">
<title>Node1</title>
<g id="a_Node000001"><a xlink:title=" ">
<polygon fill="#999999" stroke="#666666" points="764.12,-274 611.62,-274 611.62,-232.25 764.12,-232.25 764.12,-274"/>
<text text-anchor="start" x="619.62" y="-260.5" font-family="Helvetica,sans-Serif" font-size="10.00">/Users/fola/Documents</text>
<text text-anchor="start" x="619.62" y="-249.25" font-family="Helvetica,sans-Serif" font-size="10.00">/ArkScript/Ark/src/arkreactor</text>
<text text-anchor="middle" x="687.88" y="-238" font-family="Helvetica,sans-Serif" font-size="10.00">/Compiler/AST/BaseParser.cpp</text>
</a>
</g>
</g>
<!-- Node2 -->
<g id="Node000002" class="node">
<title>Node2</title>
<g id="a_Node000002"><a xlink:href="../../d3/d70/BaseParser_8hpp.html" target="_top" xlink:title=" ">
<polygon fill="white" stroke="#666666" points="496.62,-196.25 329.12,-196.25 329.12,-177 496.62,-177 496.62,-196.25"/>
<text text-anchor="middle" x="412.88" y="-182.75" font-family="Helvetica,sans-Serif" font-size="10.00">Ark/Compiler/AST/BaseParser.hpp</text>
</a>
</g>
</g>
<!-- Node1&#45;&gt;Node2 -->
<g id="edge1_Node000001_Node000002" class="edge">
<title>Node1&#45;&gt;Node2</title>
<g id="a_edge1_Node000001_Node000002"><a xlink:title=" ">
<path fill="none" stroke="#63b8ff" d="M611.27,-234.16C563.77,-223.02 504.11,-209.02 462.69,-199.31"/>
<polygon fill="#63b8ff" stroke="#63b8ff" points="463.52,-195.91 452.98,-197.03 461.92,-202.72 463.52,-195.91"/>
</a>
</g>
</g>
<!-- Node7 -->
<g id="Node000007" class="node">
<title>Node7</title>
<g id="a_Node000007"><a xlink:href="../../d2/de9/Exceptions_8hpp.html" target="_top" xlink:title="ArkScript homemade exceptions.">
<polygon fill="white" stroke="#666666" points="659.62,-141 558.12,-141 558.12,-121.75 659.62,-121.75 659.62,-141"/>
<text text-anchor="middle" x="608.88" y="-127.5" font-family="Helvetica,sans-Serif" font-size="10.00">Ark/Exceptions.hpp</text>
</a>
</g>
</g>
<!-- Node1&#45;&gt;Node7 -->
<g id="edge24_Node000001_Node000007" class="edge">
<title>Node1&#45;&gt;Node7</title>
<g id="a_edge24_Node000001_Node000007"><a xlink:title=" ">
<path fill="none" stroke="#63b8ff" d="M674.47,-231.81C659.49,-209.1 635.45,-172.65 621,-150.76"/>
<polygon fill="#63b8ff" stroke="#63b8ff" points="624.03,-148.99 615.6,-142.57 618.19,-152.84 624.03,-148.99"/>
</a>
</g>
</g>
<!-- Node8 -->
<g id="Node000008" class="node">
<title>Node8</title>
<g id="a_Node000008"><a xlink:title=" ">
<polygon fill="#e0e0e0" stroke="#999999" points="879.5,-80.12 840.25,-80.12 840.25,-60.88 879.5,-60.88 879.5,-80.12"/>
<text text-anchor="middle" x="859.88" y="-66.62" font-family="Helvetica,sans-Serif" font-size="10.00">utility</text>
</a>
</g>
</g>
<!-- Node1&#45;&gt;Node8 -->
<g id="edge25_Node000001_Node000008" class="edge">
<title>Node1&#45;&gt;Node8</title>
<g id="a_edge25_Node000001_Node000008"><a xlink:title=" ">
<path fill="none" stroke="#63b8ff" d="M689.1,-232.02C690.94,-215.9 695.51,-193.35 706.88,-177 723.82,-152.62 795.49,-108.76 834.43,-86.04"/>
<polygon fill="#63b8ff" stroke="#63b8ff" points="835.81,-89.28 842.71,-81.24 832.31,-83.22 835.81,-89.28"/>
</a>
</g>
</g>
<!-- Node18 -->
<g id="Node000018" class="node">
<title>Node18</title>
<g id="a_Node000018"><a xlink:title=" ">
<polygon fill="#e0e0e0" stroke="#999999" points="771.75,-196.25 716,-196.25 716,-177 771.75,-177 771.75,-196.25"/>
<text text-anchor="middle" x="743.88" y="-182.75" font-family="Helvetica,sans-Serif" font-size="10.00">algorithm</text>
</a>
</g>
</g>
<!-- Node1&#45;&gt;Node18 -->
<g id="edge26_Node000001_Node000018" class="edge">
<title>Node1&#45;&gt;Node18</title>
<g id="a_edge26_Node000001_Node000018"><a xlink:title=" ">
<path fill="none" stroke="#63b8ff" d="M705.29,-232.07C712.75,-223.47 721.39,-213.52 728.61,-205.21"/>
<polygon fill="#63b8ff" stroke="#63b8ff" points="731.09,-207.68 735.01,-197.84 725.81,-203.09 731.09,-207.68"/>
</a>
</g>
</g>
<!-- Node19 -->
<g id="Node000019" class="node">
<title>Node19</title>
<g id="a_Node000019"><a xlink:title=" ">
<polygon fill="#e0e0e0" stroke="#999999" points="850,-196.25 789.75,-196.25 789.75,-177 850,-177 850,-196.25"/>
<text text-anchor="middle" x="819.88" y="-182.75" font-family="Helvetica,sans-Serif" font-size="10.00">fmt/core.h</text>
</a>
</g>
</g>
<!-- Node1&#45;&gt;Node19 -->
<g id="edge27_Node000001_Node000019" class="edge">
<title>Node1&#45;&gt;Node19</title>
<g id="a_edge27_Node000001_Node000019"><a xlink:title=" ">
<path fill="none" stroke="#63b8ff" d="M729.28,-231.89C749.41,-222.06 773.1,-210.48 791.21,-201.63"/>
<polygon fill="#63b8ff" stroke="#63b8ff" points="792.61,-204.84 800.06,-197.31 789.54,-198.55 792.61,-204.84"/>
</a>
</g>
</g>
<!-- Node3 -->
<g id="Node000003" class="node">
<title>Node3</title>
<g id="a_Node000003"><a xlink:title=" ">
<polygon fill="#e0e0e0" stroke="#999999" points="221.88,-19.25 181.88,-19.25 181.88,0 221.88,0 221.88,-19.25"/>
<text text-anchor="middle" x="201.88" y="-5.75" font-family="Helvetica,sans-Serif" font-size="10.00">string</text>
</a>
</g>
</g>
<!-- Node2&#45;&gt;Node3 -->
<g id="edge2_Node000002_Node000003" class="edge">
<title>Node2&#45;&gt;Node3</title>
<g id="a_edge2_Node000002_Node000003"><a xlink:title=" ">
<path fill="none" stroke="#63b8ff" d="M364.05,-176.61C315.34,-164.8 242.74,-138.98 206.88,-85.75 195.93,-69.51 196.09,-46.55 198.09,-30.3"/>
<polygon fill="#63b8ff" stroke="#63b8ff" points="201.47,-31.32 199.6,-20.89 194.56,-30.21 201.47,-31.32"/>
</a>
</g>
</g>
<!-- Node4 -->
<g id="Node000004" class="node">
<title>Node4</title>
<g id="a_Node000004"><a xlink:title=" ">
<polygon fill="#e0e0e0" stroke="#999999" points="499.38,-80.12 456.38,-80.12 456.38,-60.88 499.38,-60.88 499.38,-80.12"/>
<text text-anchor="middle" x="477.88" y="-66.62" font-family="Helvetica,sans-Serif" font-size="10.00">vector</text>
</a>
</g>
</g>
<!-- Node2&#45;&gt;Node4 -->
<g id="edge3_Node000002_Node000004" class="edge">
<title>Node2&#45;&gt;Node4</title>
<g id="a_edge3_Node000002_Node000004"><a xlink:title=" ">
<path fill="none" stroke="#63b8ff" d="M417.98,-176.67C428.56,-158.09 453.1,-115 467.27,-90.12"/>
<polygon fill="#63b8ff" stroke="#63b8ff" points="470.14,-92.15 472.05,-81.73 464.06,-88.69 470.14,-92.15"/>
</a>
</g>
</g>
<!-- Node5 -->
<g id="Node000005" class="node">
<title>Node5</title>
<g id="a_Node000005"><a xlink:title=" ">
<polygon fill="#e0e0e0" stroke="#999999" points="532,-141 459.75,-141 459.75,-121.75 532,-121.75 532,-141"/>
<text text-anchor="middle" x="495.88" y="-127.5" font-family="Helvetica,sans-Serif" font-size="10.00">initializer_list</text>
</a>
</g>
</g>
<!-- Node2&#45;&gt;Node5 -->
<g id="edge4_Node000002_Node000005" class="edge">
<title>Node2&#45;&gt;Node5</title>
<g id="a_edge4_Node000002_Node000005"><a xlink:title=" ">
<path fill="none" stroke="#63b8ff" d="M426.95,-176.59C439.36,-168.64 457.67,-156.89 472.3,-147.5"/>
<polygon fill="#63b8ff" stroke="#63b8ff" points="473.93,-150.62 480.45,-142.27 470.15,-144.72 473.93,-150.62"/>
</a>
</g>
</g>
<!-- Node6 -->
<g id="Node000006" class="node">
<title>Node6</title>
<g id="a_Node000006"><a xlink:href="../../d5/d40/Platform_8hpp.html" target="_top" xlink:title="ArkScript configuration macros.">
<polygon fill="white" stroke="#666666" points="438.62,-80.12 349.12,-80.12 349.12,-60.88 438.62,-60.88 438.62,-80.12"/>
<text text-anchor="middle" x="393.88" y="-66.62" font-family="Helvetica,sans-Serif" font-size="10.00">Ark/Platform.hpp</text>
</a>
</g>
</g>
<!-- Node2&#45;&gt;Node6 -->
<g id="edge5_Node000002_Node000006" class="edge">
<title>Node2&#45;&gt;Node6</title>
<g id="a_edge5_Node000002_Node000006"><a xlink:title=" ">
<path fill="none" stroke="#63b8ff" d="M411.38,-176.67C408.35,-158.42 401.37,-116.53 397.2,-91.48"/>
<polygon fill="#63b8ff" stroke="#63b8ff" points="400.7,-91.2 395.61,-81.91 393.8,-92.35 400.7,-91.2"/>
</a>
</g>
</g>
<!-- Node2&#45;&gt;Node7 -->
<g id="edge6_Node000002_Node000007" class="edge">
<title>Node2&#45;&gt;Node7</title>
<g id="a_edge6_Node000002_Node000007"><a xlink:title=" ">
<path fill="none" stroke="#63b8ff" d="M446.12,-176.59C478.79,-167.72 528.82,-154.12 564.79,-144.35"/>
<polygon fill="#63b8ff" stroke="#63b8ff" points="565.27,-147.85 574,-141.85 563.43,-141.09 565.27,-147.85"/>
</a>
</g>
</g>
<!-- Node13 -->
<g id="Node000013" class="node">
<title>Node13</title>
<g id="a_Node000013"><a xlink:href="../../db/d4e/utf8__char_8hpp.html" target="_top" xlink:title=" ">
<polygon fill="white" stroke="#666666" points="331.38,-85.75 216.38,-85.75 216.38,-55.25 331.38,-55.25 331.38,-85.75"/>
<text text-anchor="start" x="224.38" y="-72.25" font-family="Helvetica,sans-Serif" font-size="10.00">Ark/Compiler/AST/utf8</text>
<text text-anchor="middle" x="273.88" y="-61" font-family="Helvetica,sans-Serif" font-size="10.00">_char.hpp</text>
</a>
</g>
</g>
<!-- Node2&#45;&gt;Node13 -->
<g id="edge23_Node000002_Node000013" class="edge">
<title>Node2&#45;&gt;Node13</title>
<g id="a_edge23_Node000002_Node000013"><a xlink:title=" ">
<path fill="none" stroke="#63b8ff" d="M401.97,-176.67C380.28,-158.86 331.17,-118.54 300.45,-93.32"/>
<polygon fill="#63b8ff" stroke="#63b8ff" points="302.68,-90.62 292.73,-86.98 298.24,-96.03 302.68,-90.62"/>
</a>
</g>
</g>
<!-- Node16 -->
<g id="Node000016" class="node">
<title>Node16</title>
<g id="a_Node000016"><a xlink:href="../../dc/d59/Predicates_8hpp.html" target="_top" xlink:title=" ">
<polygon fill="white" stroke="#666666" points="163.75,-141 0,-141 0,-121.75 163.75,-121.75 163.75,-141"/>
<text text-anchor="middle" x="81.88" y="-127.5" font-family="Helvetica,sans-Serif" font-size="10.00">Ark/Compiler/AST/Predicates.hpp</text>
</a>
</g>
</g>
<!-- Node2&#45;&gt;Node16 -->
<g id="edge19_Node000002_Node000016" class="edge">
<title>Node2&#45;&gt;Node16</title>
<g id="a_edge19_Node000002_Node000016"><a xlink:title=" ">
<path fill="none" stroke="#63b8ff" d="M356.35,-176.53C299.07,-167.32 210.45,-153.06 149.49,-143.25"/>
<polygon fill="#63b8ff" stroke="#63b8ff" points="150.37,-139.85 139.94,-141.72 149.25,-146.76 150.37,-139.85"/>
</a>
</g>
</g>
<!-- Node7&#45;&gt;Node3 -->
<g id="edge7_Node000007_Node000003" class="edge">
<title>Node7&#45;&gt;Node3</title>
<g id="a_edge7_Node000007_Node000003"><a xlink:title=" ">
<path fill="none" stroke="#63b8ff" d="M660.06,-123.78C683.62,-117.9 709.48,-106.78 723.88,-85.75 731.53,-74.56 733.1,-65.18 723.88,-55.25 687.03,-15.57 291.38,-27.59 237.88,-19.25 236.45,-19.03 234.99,-18.78 233.52,-18.51"/>
<polygon fill="#63b8ff" stroke="#63b8ff" points="234.31,-15.1 223.8,-16.44 232.86,-21.94 234.31,-15.1"/>
</a>
</g>
</g>
<!-- Node7&#45;&gt;Node4 -->
<g id="edge9_Node000007_Node000004" class="edge">
<title>Node7&#45;&gt;Node4</title>
<g id="a_edge9_Node000007_Node000004"><a xlink:title=" ">
<path fill="none" stroke="#63b8ff" d="M587.91,-121.31C567.43,-112.41 535.41,-98.37 507.88,-85.75 507.65,-85.65 507.43,-85.55 507.2,-85.44"/>
<polygon fill="#63b8ff" stroke="#63b8ff" points="508.8,-82.32 498.25,-81.26 505.84,-88.67 508.8,-82.32"/>
</a>
</g>
</g>
<!-- Node7&#45;&gt;Node6 -->
<g id="edge18_Node000007_Node000006" class="edge">
<title>Node7&#45;&gt;Node6</title>
<g id="a_edge18_Node000007_Node000006"><a xlink:title=" ">
<path fill="none" stroke="#63b8ff" d="M575.75,-121.3C538.82,-111.19 478.92,-94.79 438.03,-83.59"/>
<polygon fill="#63b8ff" stroke="#63b8ff" points="439.06,-80.25 428.5,-80.98 437.22,-87 439.06,-80.25"/>
</a>
</g>
</g>
<!-- Node7&#45;&gt;Node8 -->
<g id="edge8_Node000007_Node000008" class="edge">
<title>Node7&#45;&gt;Node8</title>
<g id="a_edge8_Node000007_Node000008"><a xlink:title=" ">
<path fill="none" stroke="#63b8ff" d="M659.95,-121.82C715.58,-112.21 800.78,-96.55 831.88,-85.75 832.38,-85.58 832.88,-85.39 833.39,-85.21"/>
<polygon fill="#63b8ff" stroke="#63b8ff" points="834.79,-88.41 842.53,-81.17 831.97,-82.01 834.79,-88.41"/>
</a>
</g>
</g>
<!-- Node9 -->
<g id="Node000009" class="node">
<title>Node9</title>
<g id="a_Node000009"><a xlink:title=" ">
<polygon fill="#e0e0e0" stroke="#999999" points="647.25,-80.12 588.5,-80.12 588.5,-60.88 647.25,-60.88 647.25,-80.12"/>
<text text-anchor="middle" x="617.88" y="-66.62" font-family="Helvetica,sans-Serif" font-size="10.00">stdexcept</text>
</a>
</g>
</g>
<!-- Node7&#45;&gt;Node9 -->
<g id="edge10_Node000007_Node000009" class="edge">
<title>Node7&#45;&gt;Node9</title>
<g id="a_edge10_Node000007_Node000009"><a xlink:title=" ">
<path fill="none" stroke="#63b8ff" d="M610.24,-121.43C611.44,-113.57 613.24,-101.82 614.79,-91.7"/>
<polygon fill="#63b8ff" stroke="#63b8ff" points="618.22,-92.44 616.27,-82.02 611.3,-91.38 618.22,-92.44"/>
</a>
</g>
</g>
<!-- Node10 -->
<g id="Node000010" class="node">
<title>Node10</title>
<g id="a_Node000010"><a xlink:title=" ">
<polygon fill="#e0e0e0" stroke="#999999" points="714.75,-80.12 665,-80.12 665,-60.88 714.75,-60.88 714.75,-80.12"/>
<text text-anchor="middle" x="689.88" y="-66.62" font-family="Helvetica,sans-Serif" font-size="10.00">optional</text>
</a>
</g>
</g>
<!-- Node7&#45;&gt;Node10 -->
<g id="edge11_Node000007_Node000010" class="edge">
<title>Node7&#45;&gt;Node10</title>
<g id="a_edge11_Node000007_Node000010"><a xlink:title=" ">
<path fill="none" stroke="#63b8ff" d="M621.18,-121.43C633.67,-112.36 653.26,-98.12 668.33,-87.16"/>
<polygon fill="#63b8ff" stroke="#63b8ff" points="670.2,-90.13 676.23,-81.42 666.09,-84.46 670.2,-90.13"/>
</a>
</g>
</g>
<!-- Node11 -->
<g id="Node000011" class="node">
<title>Node11</title>
<g id="a_Node000011"><a xlink:title=" ">
<polygon fill="#e0e0e0" stroke="#999999" points="822.5,-80.12 771.25,-80.12 771.25,-60.88 822.5,-60.88 822.5,-80.12"/>
<text text-anchor="middle" x="796.88" y="-66.62" font-family="Helvetica,sans-Serif" font-size="10.00">ostream</text>
</a>
</g>
</g>
<!-- Node7&#45;&gt;Node11 -->
<g id="edge12_Node000007_Node000011" class="edge">
<title>Node7&#45;&gt;Node11</title>
<g id="a_edge12_Node000007_Node000011"><a xlink:title=" ">
<path fill="none" stroke="#63b8ff" d="M640.77,-121.25C670.84,-112.53 717.1,-98.82 756.88,-85.75 758.41,-85.25 759.97,-84.72 761.55,-84.19"/>
<polygon fill="#63b8ff" stroke="#63b8ff" points="762.24,-87.66 770.55,-81.08 759.95,-81.04 762.24,-87.66"/>
</a>
</g>
</g>
<!-- Node12 -->
<g id="Node000012" class="node">
<title>Node12</title>
<g id="a_Node000012"><a xlink:title=" ">
<polygon fill="#e0e0e0" stroke="#999999" points="570.62,-80.12 517.12,-80.12 517.12,-60.88 570.62,-60.88 570.62,-80.12"/>
<text text-anchor="middle" x="543.88" y="-66.62" font-family="Helvetica,sans-Serif" font-size="10.00">iostream</text>
</a>
</g>
</g>
<!-- Node7&#45;&gt;Node12 -->
<g id="edge13_Node000007_Node000012" class="edge">
<title>Node7&#45;&gt;Node12</title>
<g id="a_edge13_Node000007_Node000012"><a xlink:title=" ">
<path fill="none" stroke="#63b8ff" d="M599,-121.43C589.27,-112.62 574.15,-98.93 562.21,-88.11"/>
<polygon fill="#63b8ff" stroke="#63b8ff" points="564.72,-85.66 554.96,-81.54 560.02,-90.85 564.72,-85.66"/>
</a>
</g>
</g>
<!-- Node7&#45;&gt;Node13 -->
<g id="edge14_Node000007_Node000013" class="edge">
<title>Node7&#45;&gt;Node13</title>
<g id="a_edge14_Node000007_Node000013"><a xlink:title=" ">
<path fill="none" stroke="#63b8ff" d="M557.68,-122.63C505.9,-114.64 423.28,-101.42 343.09,-86.31"/>
<polygon fill="#63b8ff" stroke="#63b8ff" points="343.76,-82.88 333.28,-84.45 342.45,-89.76 343.76,-82.88"/>
</a>
</g>
</g>
<!-- Node13&#45;&gt;Node3 -->
<g id="edge16_Node000013_Node000003" class="edge">
<title>Node13&#45;&gt;Node3</title>
<g id="a_edge16_Node000013_Node000003"><a xlink:title=" ">
<path fill="none" stroke="#63b8ff" d="M256.08,-54.95C245.64,-46.41 232.44,-35.62 221.67,-26.81"/>
<polygon fill="#63b8ff" stroke="#63b8ff" points="224.1,-24.28 214.15,-20.66 219.67,-29.7 224.1,-24.28"/>
</a>
</g>
</g>
<!-- Node14 -->
<g id="Node000014" class="node">
<title>Node14</title>
<g id="a_Node000014"><a xlink:title=" ">
<polygon fill="#e0e0e0" stroke="#999999" points="342.75,-19.25 305,-19.25 305,0 342.75,0 342.75,-19.25"/>
<text text-anchor="middle" x="323.88" y="-5.75" font-family="Helvetica,sans-Serif" font-size="10.00">array</text>
</a>
</g>
</g>
<!-- Node13&#45;&gt;Node14 -->
<g id="edge15_Node000013_Node000014" class="edge">
<title>Node13&#45;&gt;Node14</title>
<g id="a_edge15_Node000013_Node000014"><a xlink:title=" ">
<path fill="none" stroke="#63b8ff" d="M286.23,-54.95C293.04,-46.93 301.55,-36.92 308.75,-28.44"/>
<polygon fill="#63b8ff" stroke="#63b8ff" points="311.38,-30.74 315.19,-20.85 306.05,-26.21 311.38,-30.74"/>
</a>
</g>
</g>
<!-- Node15 -->
<g id="Node000015" class="node">
<title>Node15</title>
<g id="a_Node000015"><a xlink:title=" ">
<polygon fill="#e0e0e0" stroke="#999999" points="286.5,-19.25 247.25,-19.25 247.25,0 286.5,0 286.5,-19.25"/>
<text text-anchor="middle" x="266.88" y="-5.75" font-family="Helvetica,sans-Serif" font-size="10.00">limits</text>
</a>
</g>
</g>
<!-- Node13&#45;&gt;Node15 -->
<g id="edge17_Node000013_Node000015" class="edge">
<title>Node13&#45;&gt;Node15</title>
<g id="a_edge17_Node000013_Node000015"><a xlink:title=" ">
<path fill="none" stroke="#63b8ff" d="M272.14,-54.95C271.28,-47.71 270.23,-38.84 269.29,-30.94"/>
<polygon fill="#63b8ff" stroke="#63b8ff" points="272.79,-30.72 268.13,-21.2 265.84,-31.55 272.79,-30.72"/>
</a>
</g>
</g>
<!-- Node16&#45;&gt;Node3 -->
<g id="edge20_Node000016_Node000003" class="edge">
<title>Node16&#45;&gt;Node3</title>
<g id="a_edge20_Node000016_Node000003"><a xlink:title=" ">
<path fill="none" stroke="#63b8ff" d="M81.73,-121.38C81.96,-106.03 84.56,-74.57 100.88,-55.25 118.57,-34.3 148.03,-22.83 170.58,-16.78"/>
<polygon fill="#63b8ff" stroke="#63b8ff" points="171.28,-20.21 180.17,-14.45 169.63,-13.41 171.28,-20.21"/>
</a>
</g>
</g>
<!-- Node16&#45;&gt;Node13 -->
<g id="edge22_Node000016_Node000013" class="edge">
<title>Node16&#45;&gt;Node13</title>
<g id="a_edge22_Node000016_Node000013"><a xlink:title=" ">
<path fill="none" stroke="#63b8ff" d="M111.45,-121.3C138.98,-112.86 180.8,-100.04 215.11,-89.52"/>
<polygon fill="#63b8ff" stroke="#63b8ff" points="215.97,-92.92 224.51,-86.64 213.92,-86.22 215.97,-92.92"/>
</a>
</g>
</g>
<!-- Node17 -->
<g id="Node000017" class="node">
<title>Node17</title>
<g id="a_Node000017"><a xlink:title=" ">
<polygon fill="#e0e0e0" stroke="#999999" points="155.5,-80.12 110.25,-80.12 110.25,-60.88 155.5,-60.88 155.5,-80.12"/>
<text text-anchor="middle" x="132.88" y="-66.62" font-family="Helvetica,sans-Serif" font-size="10.00">cctype</text>
</a>
</g>
</g>
<!-- Node16&#45;&gt;Node17 -->
<g id="edge21_Node000016_Node000017" class="edge">
<title>Node16&#45;&gt;Node17</title>
<g id="a_edge21_Node000016_Node000017"><a xlink:title=" ">
<path fill="none" stroke="#63b8ff" d="M89.62,-121.43C97.03,-112.87 108.42,-99.73 117.65,-89.07"/>
<polygon fill="#63b8ff" stroke="#63b8ff" points="120.16,-91.52 124.07,-81.67 114.87,-86.94 120.16,-91.52"/>
</a>
</g>
</g>
</g>
</svg>
