<?xml version="1.0" encoding="UTF-8" standalone="no"?>
<!DOCTYPE svg PUBLIC "-//W3C//DTD SVG 1.1//EN"
 "http://www.w3.org/Graphics/SVG/1.1/DTD/svg11.dtd">
<!-- Generated by graphviz version 12.2.0 (20241103.1931)
 -->
<!-- Title: Ark::internal::Debugger Pages: 1 -->
<!--zoomable 504 -->

<svg id="main" version="1.1" xmlns="http://www.w3.org/2000/svg" xmlns:xlink="http://www.w3.org/1999/xlink" xml:space="preserve" onload="init(evt)">

<style type="text/css"><![CDATA[
.node, .edge {opacity: 0.7;}
.node.selected, .edge.selected {opacity: 1;}
.edge:hover path { stroke: red; }
.edge:hover polygon { stroke: red; fill: red; }
]]></style>

<defs>
  <circle id="rim" cx="0" cy="0" r="7"/>
  <circle id="rim2" cx="0" cy="0" r="3.5"/>
  <g id="zoomPlus">
    <use xlink:href="#rim" fill="#404040"><set attributeName="fill" to="#808080" begin="zoomplus.mouseover" end="zoomplus.mouseout"/></use>
    <path d="M-4,0h8M0,-4v8" fill="none" stroke="white" stroke-width="1.5" pointer-events="none"/>
  </g>
  <g id="zoomMin">
    <use xlink:href="#rim" fill="#404040"><set attributeName="fill" to="#808080" begin="zoomminus.mouseover" end="zoomminus.mouseout"/></use>
    <path d="M-4,0h8" fill="none" stroke="white" stroke-width="1.5" pointer-events="none"/>
  </g>
  <g id="arrowUp" transform="translate(30 24)">
    <use xlink:href="#rim"/>
    <path pointer-events="none" fill="none" stroke="white" stroke-width="1.5" d="M0,-3.0v7 M-2.5,-0.5L0,-3.0L2.5,-0.5"/>
  </g>
  <g id="arrowRight" transform="rotate(90) translate(36 -43)">
    <use xlink:href="#rim"/>
    <path pointer-events="none" fill="none" stroke="white" stroke-width="1.5" d="M0,-3.0v7 M-2.5,-0.5L0,-3.0L2.5,-0.5"/>
  </g>
  <g id="arrowDown" transform="rotate(180) translate(-30 -48)">
    <use xlink:href="#rim"/>
    <path pointer-events="none" fill="none" stroke="white" stroke-width="1.5" d="M0,-3.0v7 M-2.5,-0.5L0,-3.0L2.5,-0.5"/>
  </g>
  <g id="arrowLeft" transform="rotate(270) translate(-36 17)">
    <use xlink:href="#rim"/>
    <path pointer-events="none" fill="none" stroke="white" stroke-width="1.5" d="M0,-3.0v7 M-2.5,-0.5L0,-3.0L2.5,-0.5"/>
  </g>
  <g id="resetDef">
    <use xlink:href="#rim2" fill="#404040"><set attributeName="fill" to="#808080" begin="reset.mouseover" end="reset.mouseout"/></use>
  </g>
</defs>
<script type="application/ecmascript">
var viewWidth = 2651;
var viewHeight = 504;
var sectionId = 'dynsection-0';
</script>
<script type="application/ecmascript" xlink:href="../../svg.min.js"/>
<svg id="graph" class="graph">
<g id="viewport">
<title>Ark::internal::Debugger</title>
<!-- Node1 -->
<g id="Node000001" class="node">
<title>Node1</title>
<g id="a_Node000001"><a xlink:title=" ">
<polygon fill="#999999" stroke="#666666" points="2643.05,-304.66 2526.55,-304.66 2526.55,-285.41 2643.05,-285.41 2643.05,-304.66"/>
<text text-anchor="middle" x="2584.8" y="-291.16" font-family="Helvetica,sans-Serif" font-size="10.00">Ark::internal::Debugger</text>
</a>
</g>
</g>
<!-- Node2 -->
<g id="Node000002" class="node">
<title>Node2</title>
<g id="a_Node000002"><a xlink:title=" ">
<polygon fill="white" stroke="#666666" points="2408.8,-250.28 2240.55,-250.28 2240.55,-219.78 2408.8,-219.78 2408.8,-250.28"/>
<text text-anchor="start" x="2248.55" y="-236.78" font-family="Helvetica,sans-Serif" font-size="10.00">std::vector&lt; std::unique</text>
<text text-anchor="middle" x="2324.68" y="-225.53" font-family="Helvetica,sans-Serif" font-size="10.00">_ptr&lt; Ark::internal::SavedState &gt; &gt;</text>
</a>
</g>
</g>
<!-- Node2&#45;&gt;Node1 -->
<g id="edge1_Node000001_Node000002" class="edge">
<title>Node2&#45;&gt;Node1</title>
<g id="a_edge1_Node000001_Node000002"><a xlink:title=" ">
<path fill="none" stroke="#9a32cd" stroke-dasharray="5,2" d="M2404.32,-253.31C2449.11,-263.73 2503.5,-276.37 2540.59,-284.99"/>
<polygon fill="#9a32cd" stroke="#9a32cd" points="2405.16,-249.92 2394.63,-251.06 2403.58,-256.74 2405.16,-249.92"/>
</a>
</g>
<text text-anchor="middle" x="2467.68" y="-279.05" font-family="Helvetica,sans-Serif" font-size="10.00" fill="grey"> m_states</text>
</g>
<!-- Node3 -->
<g id="Node000003" class="node">
<title>Node3</title>
<g id="a_Node000003"><a xlink:title=" ">
<polygon fill="white" stroke="#666666" points="2133.8,-250.28 2014.3,-250.28 2014.3,-219.78 2133.8,-219.78 2133.8,-250.28"/>
<text text-anchor="start" x="2022.3" y="-236.78" font-family="Helvetica,sans-Serif" font-size="10.00">std::unique_ptr&lt; Ark</text>
<text text-anchor="middle" x="2074.05" y="-225.53" font-family="Helvetica,sans-Serif" font-size="10.00">::internal::SavedState &gt;</text>
</a>
</g>
</g>
<!-- Node3&#45;&gt;Node2 -->
<g id="edge2_Node000002_Node000003" class="edge">
<title>Node3&#45;&gt;Node2</title>
<g id="a_edge2_Node000002_Node000003"><a xlink:title=" ">
<path fill="none" stroke="#9a32cd" stroke-dasharray="5,2" d="M2145.75,-235.03C2175.25,-235.03 2209.73,-235.03 2240.44,-235.03"/>
<polygon fill="#9a32cd" stroke="#9a32cd" points="2145.8,-231.53 2135.8,-235.03 2145.8,-238.53 2145.8,-231.53"/>
</a>
</g>
<text text-anchor="middle" x="2187.18" y="-236.78" font-family="Helvetica,sans-Serif" font-size="10.00" fill="grey"> elements</text>
</g>
<!-- Node4 -->
<g id="Node000004" class="node">
<title>Node4</title>
<g id="a_Node000004"><a xlink:href="../../dd/d2a/structArk_1_1internal_1_1SavedState.html" target="_top" xlink:title=" ">
<polygon fill="white" stroke="#666666" points="1848.55,-236.66 1723.05,-236.66 1723.05,-217.41 1848.55,-217.41 1848.55,-236.66"/>
<text text-anchor="middle" x="1785.8" y="-223.16" font-family="Helvetica,sans-Serif" font-size="10.00">Ark::internal::SavedState</text>
</a>
</g>
</g>
<!-- Node4&#45;&gt;Node3 -->
<g id="edge3_Node000003_Node000004" class="edge">
<title>Node4&#45;&gt;Node3</title>
<g id="a_edge3_Node000003_Node000004"><a xlink:title=" ">
<path fill="none" stroke="#9a32cd" stroke-dasharray="5,2" d="M1860.04,-225.67C1900.28,-225.33 1951.07,-225.57 1996.3,-227.78 2002.05,-228.07 2008.03,-228.46 2014.01,-228.91"/>
<polygon fill="#9a32cd" stroke="#9a32cd" points="1860.19,-222.17 1850.23,-225.77 1860.26,-229.17 1860.19,-222.17"/>
</a>
</g>
<text text-anchor="middle" x="1931.43" y="-229.53" font-family="Helvetica,sans-Serif" font-size="10.00" fill="grey"> ptr</text>
</g>
<!-- Node5 -->
<g id="Node000005" class="node">
<title>Node5</title>
<g id="a_Node000005"><a xlink:title=" ">
<polygon fill="white" stroke="#666666" points="776.55,-253.28 653.3,-253.28 653.3,-222.78 776.55,-222.78 776.55,-253.28"/>
<text text-anchor="start" x="661.3" y="-239.78" font-family="Helvetica,sans-Serif" font-size="10.00">std::vector&lt; Ark::internal</text>
<text text-anchor="middle" x="714.93" y="-228.53" font-family="Helvetica,sans-Serif" font-size="10.00">::ScopeView &gt;</text>
</a>
</g>
</g>
<!-- Node5&#45;&gt;Node4 -->
<g id="edge4_Node000004_Node000005" class="edge">
<title>Node5&#45;&gt;Node4</title>
<g id="a_edge4_Node000004_Node000005"><a xlink:title=" ">
<path fill="none" stroke="#9a32cd" stroke-dasharray="5,2" d="M787.92,-237.66C849.52,-237.38 940.55,-237.03 1019.93,-237.03 1019.93,-237.03 1019.93,-237.03 1527.43,-237.03 1594.16,-237.03 1670.57,-233.64 1722.68,-230.8"/>
<polygon fill="#9a32cd" stroke="#9a32cd" points="788.27,-234.16 778.29,-237.71 788.31,-241.16 788.27,-234.16"/>
</a>
</g>
<text text-anchor="middle" x="1206.3" y="-238.78" font-family="Helvetica,sans-Serif" font-size="10.00" fill="grey"> locals</text>
</g>
<!-- Node6 -->
<g id="Node000006" class="node">
<title>Node6</title>
<g id="a_Node000006"><a xlink:href="../../d2/ddd/classArk_1_1internal_1_1ScopeView.html" target="_top" xlink:title="A class to handle the VM scope more efficiently.">
<polygon fill="white" stroke="#666666" points="486.8,-304.66 362.8,-304.66 362.8,-285.41 486.8,-285.41 486.8,-304.66"/>
<text text-anchor="middle" x="424.8" y="-291.16" font-family="Helvetica,sans-Serif" font-size="10.00">Ark::internal::ScopeView</text>
</a>
</g>
</g>
<!-- Node6&#45;&gt;Node5 -->
<g id="edge5_Node000005_Node000006" class="edge">
<title>Node6&#45;&gt;Node5</title>
<g id="a_edge5_Node000005_Node000006"><a xlink:title=" ">
<path fill="none" stroke="#9a32cd" stroke-dasharray="5,2" d="M498.22,-291.49C538.42,-288.32 589.05,-282.33 633.05,-271.03 649.35,-266.85 666.72,-260.09 681.17,-253.77"/>
<polygon fill="#9a32cd" stroke="#9a32cd" points="498.12,-287.99 488.41,-292.22 498.64,-294.97 498.12,-287.99"/>
</a>
</g>
<text text-anchor="middle" x="568.93" y="-292.63" font-family="Helvetica,sans-Serif" font-size="10.00" fill="grey"> elements</text>
</g>
<!-- Node7 -->
<g id="Node000007" class="node">
<title>Node7</title>
<g id="a_Node000007"><a xlink:title=" ">
<polygon fill="white" stroke="#666666" points="221.05,-284.66 123.3,-284.66 123.3,-265.41 221.05,-265.41 221.05,-284.66"/>
<text text-anchor="middle" x="172.18" y="-271.16" font-family="Helvetica,sans-Serif" font-size="10.00">std::pair&lt; T1, T2 &gt;</text>
</a>
</g>
</g>
<!-- Node7&#45;&gt;Node6 -->
<g id="edge6_Node000006_Node000007" class="edge">
<title>Node7&#45;&gt;Node6</title>
<g id="a_edge6_Node000006_Node000007"><a xlink:title=" ">
<path fill="none" stroke="#9a32cd" stroke-dasharray="5,2" d="M232.74,-279.79C271.98,-282.92 323.22,-287.01 362.75,-290.16"/>
<polygon fill="#9a32cd" stroke="#9a32cd" points="233.25,-276.32 223.01,-279.01 232.7,-283.3 233.25,-276.32"/>
</a>
</g>
<text text-anchor="middle" x="291.93" y="-290.31" font-family="Helvetica,sans-Serif" font-size="10.00" fill="grey"> m_storage</text>
</g>
<!-- Node16 -->
<g id="Node000016" class="node">
<title>Node16</title>
<g id="a_Node000016"><a xlink:title=" ">
<polygon fill="white" stroke="#666666" points="473.68,-267.28 375.93,-267.28 375.93,-236.78 473.68,-236.78 473.68,-267.28"/>
<text text-anchor="start" x="383.93" y="-253.78" font-family="Helvetica,sans-Serif" font-size="10.00">std::pair&lt; uint16_t,</text>
<text text-anchor="middle" x="424.8" y="-242.53" font-family="Helvetica,sans-Serif" font-size="10.00"> Ark::Value &gt;</text>
</a>
</g>
</g>
<!-- Node7&#45;&gt;Node16 -->
<g id="edge17_Node000016_Node000007" class="edge">
<title>Node7&#45;&gt;Node16</title>
<g id="a_edge17_Node000016_Node000007"><a xlink:title=" ">
<path fill="none" stroke="orange" stroke-dasharray="5,2" d="M232.48,-265.56C234.7,-265.29 236.89,-265.03 239.05,-264.78 285.22,-259.61 338.13,-256.21 375.46,-254.24"/>
<polygon fill="orange" stroke="orange" points="232.27,-262.06 222.82,-266.86 233.2,-269 232.27,-262.06"/>
</a>
</g>
<text text-anchor="middle" x="291.93" y="-266.53" font-family="Helvetica,sans-Serif" font-size="10.00" fill="grey"> &lt; uint16_t, Ark::Value &gt;</text>
</g>
<!-- Node8 -->
<g id="Node000008" class="node">
<title>Node8</title>
<g id="a_Node000008"><a xlink:title=" ">
<polygon fill="white" stroke="#666666" points="28.8,-302.66 0,-302.66 0,-283.41 28.8,-283.41 28.8,-302.66"/>
<text text-anchor="middle" x="14.4" y="-289.16" font-family="Helvetica,sans-Serif" font-size="10.00">T1</text>
</a>
</g>
</g>
<!-- Node8&#45;&gt;Node7 -->
<g id="edge7_Node000007_Node000008" class="edge">
<title>Node8&#45;&gt;Node7</title>
<g id="a_edge7_Node000007_Node000008"><a xlink:title=" ">
<path fill="none" stroke="#9a32cd" stroke-dasharray="5,2" d="M40.64,-290.12C62.84,-287.55 95.76,-283.75 122.99,-280.6"/>
<polygon fill="#9a32cd" stroke="#9a32cd" points="40.26,-286.64 30.73,-291.26 41.06,-293.59 40.26,-286.64"/>
</a>
</g>
<text text-anchor="middle" x="76.05" y="-290.9" font-family="Helvetica,sans-Serif" font-size="10.00" fill="grey"> first_type</text>
</g>
<!-- Node9 -->
<g id="Node000009" class="node">
<title>Node9</title>
<g id="a_Node000009"><a xlink:title=" ">
<polygon fill="white" stroke="#666666" points="28.8,-265.66 0,-265.66 0,-246.41 28.8,-246.41 28.8,-265.66"/>
<text text-anchor="middle" x="14.4" y="-252.16" font-family="Helvetica,sans-Serif" font-size="10.00">T2</text>
</a>
</g>
</g>
<!-- Node9&#45;&gt;Node7 -->
<g id="edge8_Node000007_Node000009" class="edge">
<title>Node9&#45;&gt;Node7</title>
<g id="a_edge8_Node000007_Node000009"><a xlink:title=" ">
<path fill="none" stroke="#9a32cd" stroke-dasharray="5,2" d="M40.64,-259.11C62.84,-261.82 95.76,-265.84 122.99,-269.16"/>
<polygon fill="#9a32cd" stroke="#9a32cd" points="41.08,-255.64 30.73,-257.9 40.23,-262.59 41.08,-255.64"/>
</a>
</g>
<text text-anchor="middle" x="76.05" y="-268.42" font-family="Helvetica,sans-Serif" font-size="10.00" fill="grey"> second_type</text>
</g>
<!-- Node10 -->
<g id="Node000010" class="node">
<title>Node10</title>
<g id="a_Node000010"><a xlink:title=" ">
<polygon fill="white" stroke="#666666" points="468.05,-168.66 381.55,-168.66 381.55,-149.41 468.05,-149.41 468.05,-168.66"/>
<text text-anchor="middle" x="424.8" y="-155.16" font-family="Helvetica,sans-Serif" font-size="10.00">std::vector&lt; T &gt;</text>
</a>
</g>
</g>
<!-- Node10&#45;&gt;Node2 -->
<g id="edge24_Node000002_Node000010" class="edge">
<title>Node10&#45;&gt;Node2</title>
<g id="a_edge24_Node000002_Node000010"><a xlink:title=" ">
<path fill="none" stroke="orange" stroke-dasharray="5,2" d="M475.61,-146.48C485.25,-144.39 495.3,-142.45 504.8,-141.03 773.81,-100.93 843.19,-97.03 1115.18,-97.03 1115.18,-97.03 1115.18,-97.03 2075.05,-97.03 2175.02,-97.03 2272.4,-183.38 2308.74,-219.47"/>
<polygon fill="orange" stroke="orange" points="475.02,-143.02 466.03,-148.64 476.55,-149.85 475.02,-143.02"/>
</a>
</g>
<text text-anchor="start" x="1289.3" y="-110.03" font-family="Helvetica,sans-Serif" font-size="10.00" fill="grey"> &lt; std::unique_ptr&lt;</text>
<text text-anchor="middle" x="1354.18" y="-98.78" font-family="Helvetica,sans-Serif" font-size="10.00" fill="grey"> Ark::internal::SavedState &gt; &gt;</text>
</g>
<!-- Node10&#45;&gt;Node5 -->
<g id="edge9_Node000005_Node000010" class="edge">
<title>Node10&#45;&gt;Node5</title>
<g id="a_edge9_Node000005_Node000010"><a xlink:title=" ">
<path fill="none" stroke="orange" stroke-dasharray="5,2" d="M451.08,-174.8C466.16,-183.51 485.97,-193.8 504.8,-200.03 559.62,-218.17 576.3,-210.15 633.05,-220.78 639.54,-222 646.31,-223.34 653.05,-224.71"/>
<polygon fill="orange" stroke="orange" points="453.16,-171.96 442.78,-169.86 449.59,-177.98 453.16,-171.96"/>
</a>
</g>
<text text-anchor="middle" x="568.93" y="-222.53" font-family="Helvetica,sans-Serif" font-size="10.00" fill="grey"> &lt; Ark::internal::ScopeView &gt;</text>
</g>
<!-- Node12 -->
<g id="Node000012" class="node">
<title>Node12</title>
<g id="a_Node000012"><a xlink:title=" ">
<polygon fill="white" stroke="#666666" points="1615.8,-201.28 1437.05,-201.28 1437.05,-170.78 1615.8,-170.78 1615.8,-201.28"/>
<text text-anchor="start" x="1445.05" y="-187.78" font-family="Helvetica,sans-Serif" font-size="10.00">std::vector&lt; std::shared</text>
<text text-anchor="middle" x="1526.43" y="-176.53" font-family="Helvetica,sans-Serif" font-size="10.00">_ptr&lt; Ark::internal::ClosureScope &gt; &gt;</text>
</a>
</g>
</g>
<!-- Node10&#45;&gt;Node12 -->
<g id="edge21_Node000012_Node000010" class="edge">
<title>Node10&#45;&gt;Node12</title>
<g id="a_edge21_Node000012_Node000010"><a xlink:title=" ">
<path fill="none" stroke="orange" stroke-dasharray="5,2" d="M479.65,-154.26C537.49,-149.54 632.14,-143.03 713.93,-143.03 713.93,-143.03 713.93,-143.03 1207.3,-143.03 1291.6,-143.03 1387.33,-158.04 1451.56,-170.33"/>
<polygon fill="orange" stroke="orange" points="479.42,-150.76 469.74,-155.08 479.99,-157.74 479.42,-150.76"/>
</a>
</g>
<text text-anchor="start" x="950.8" y="-156.03" font-family="Helvetica,sans-Serif" font-size="10.00" fill="grey"> &lt; std::shared_ptr&lt;</text>
<text text-anchor="middle" x="1020.93" y="-144.78" font-family="Helvetica,sans-Serif" font-size="10.00" fill="grey"> Ark::internal::ClosureScope &gt; &gt;</text>
</g>
<!-- Node15 -->
<g id="Node000015" class="node">
<title>Node15</title>
<g id="a_Node000015"><a xlink:title=" ">
<polygon fill="white" stroke="#666666" points="778.8,-204.28 651.05,-204.28 651.05,-173.78 778.8,-173.78 778.8,-204.28"/>
<text text-anchor="start" x="659.05" y="-190.78" font-family="Helvetica,sans-Serif" font-size="10.00">std::vector&lt; std::pair</text>
<text text-anchor="middle" x="714.93" y="-179.53" font-family="Helvetica,sans-Serif" font-size="10.00">&lt; uint16_t, Ark::Value &gt; &gt;</text>
</a>
</g>
</g>
<!-- Node10&#45;&gt;Node15 -->
<g id="edge18_Node000015_Node000010" class="edge">
<title>Node10&#45;&gt;Node15</title>
<g id="a_edge18_Node000015_Node000010"><a xlink:title=" ">
<path fill="none" stroke="orange" stroke-dasharray="5,2" d="M479.66,-163.07C521.54,-166.39 581.06,-171.52 633.05,-177.53 638.83,-178.2 644.83,-178.95 650.83,-179.74"/>
<polygon fill="orange" stroke="orange" points="480.09,-159.59 469.85,-162.3 479.54,-166.57 480.09,-159.59"/>
</a>
</g>
<text text-anchor="start" x="527.68" y="-190.53" font-family="Helvetica,sans-Serif" font-size="10.00" fill="grey"> &lt; std::pair&lt; uint16</text>
<text text-anchor="middle" x="568.93" y="-179.28" font-family="Helvetica,sans-Serif" font-size="10.00" fill="grey">_t, Ark::Value &gt; &gt;</text>
</g>
<!-- Node20 -->
<g id="Node000020" class="node">
<title>Node20</title>
<g id="a_Node000020"><a xlink:title=" ">
<polygon fill="white" stroke="#666666" points="932.8,-36.28 796.8,-36.28 796.8,-5.78 932.8,-5.78 932.8,-36.28"/>
<text text-anchor="start" x="804.8" y="-22.78" font-family="Helvetica,sans-Serif" font-size="10.00">std::vector&lt; std::filesystem</text>
<text text-anchor="middle" x="864.8" y="-11.53" font-family="Helvetica,sans-Serif" font-size="10.00">::path &gt;</text>
</a>
</g>
</g>
<!-- Node10&#45;&gt;Node20 -->
<g id="edge26_Node000020_Node000010" class="edge">
<title>Node10&#45;&gt;Node20</title>
<g id="a_edge26_Node000020_Node000010"><a xlink:title=" ">
<path fill="none" stroke="orange" stroke-dasharray="5,2" d="M440.03,-140.07C452.67,-123.03 471.45,-97.2 486.8,-74.03 495.28,-61.23 491.66,-52.49 504.8,-44.53 594.18,9.55 720,2.99 796.5,-8.05"/>
<polygon fill="orange" stroke="orange" points="437.45,-137.68 434.28,-147.79 443.06,-141.86 437.45,-137.68"/>
</a>
</g>
<text text-anchor="start" x="527.68" y="-57.53" font-family="Helvetica,sans-Serif" font-size="10.00" fill="grey"> &lt; std::filesystem::</text>
<text text-anchor="middle" x="568.93" y="-46.28" font-family="Helvetica,sans-Serif" font-size="10.00" fill="grey">path &gt;</text>
</g>
<!-- Node21 -->
<g id="Node000021" class="node">
<title>Node21</title>
<g id="a_Node000021"><a xlink:title=" ">
<polygon fill="white" stroke="#666666" points="2386.68,-304.66 2262.68,-304.66 2262.68,-285.41 2386.68,-285.41 2386.68,-304.66"/>
<text text-anchor="middle" x="2324.68" y="-291.16" font-family="Helvetica,sans-Serif" font-size="10.00">std::vector&lt; std::string &gt;</text>
</a>
</g>
</g>
<!-- Node10&#45;&gt;Node21 -->
<g id="edge30_Node000021_Node000010" class="edge">
<title>Node10&#45;&gt;Node21</title>
<g id="a_edge30_Node000021_Node000010"><a xlink:title=" ">
<path fill="none" stroke="orange" stroke-dasharray="5,2" d="M444.13,-176.88C457.12,-190.17 474.38,-209.2 486.8,-228.03 497.09,-243.63 489.16,-255.81 504.8,-266.03 569.97,-308.66 1127.43,-287.03 1205.3,-287.03 1205.3,-287.03 1205.3,-287.03 2075.05,-287.03 2138.97,-287.03 2212.08,-289.71 2262.39,-291.96"/>
<polygon fill="orange" stroke="orange" points="446.91,-174.71 437.37,-170.1 441.95,-179.65 446.91,-174.71"/>
</a>
</g>
<text text-anchor="middle" x="1354.18" y="-288.78" font-family="Helvetica,sans-Serif" font-size="10.00" fill="grey"> &lt; std::string &gt;</text>
</g>
<!-- Node24 -->
<g id="Node000024" class="node">
<title>Node24</title>
<g id="a_Node000024"><a xlink:title=" ">
<polygon fill="white" stroke="#666666" points="777.3,-68.66 652.55,-68.66 652.55,-49.41 777.3,-49.41 777.3,-68.66"/>
<text text-anchor="middle" x="714.93" y="-55.16" font-family="Helvetica,sans-Serif" font-size="10.00">std::vector&lt; Ark::Value &gt;</text>
</a>
</g>
</g>
<!-- Node10&#45;&gt;Node24 -->
<g id="edge33_Node000024_Node000010" class="edge">
<title>Node10&#45;&gt;Node24</title>
<g id="a_edge33_Node000024_Node000010"><a xlink:title=" ">
<path fill="none" stroke="orange" stroke-dasharray="5,2" d="M442.03,-140.76C456.8,-125.37 480.03,-104.11 504.8,-92.78 511.55,-89.7 593.01,-77.07 652.23,-68.17"/>
<polygon fill="orange" stroke="orange" points="439.63,-138.2 435.39,-147.91 444.76,-142.97 439.63,-138.2"/>
</a>
</g>
<text text-anchor="middle" x="568.93" y="-94.53" font-family="Helvetica,sans-Serif" font-size="10.00" fill="grey"> &lt; Ark::Value &gt;</text>
</g>
<!-- Node11 -->
<g id="Node000011" class="node">
<title>Node11</title>
<g id="a_Node000011"><a xlink:title=" ">
<polygon fill="white" stroke="#666666" points="186.58,-342.66 157.78,-342.66 157.78,-323.41 186.58,-323.41 186.58,-342.66"/>
<text text-anchor="middle" x="172.18" y="-329.16" font-family="Helvetica,sans-Serif" font-size="10.00">T</text>
</a>
</g>
</g>
<!-- Node11&#45;&gt;Node10 -->
<g id="edge10_Node000010_Node000011" class="edge">
<title>Node11&#45;&gt;Node10</title>
<g id="a_edge10_Node000010_Node000011"><a xlink:title=" ">
<path fill="none" stroke="#9a32cd" stroke-dasharray="5,2" d="M195.89,-318.66C204.78,-312.08 214.41,-303.61 221.05,-294.03 235.29,-273.51 222.2,-259.23 239.05,-240.78 276.89,-199.35 339.6,-177.77 381.31,-167.42"/>
<polygon fill="#9a32cd" stroke="#9a32cd" points="194.18,-315.59 187.96,-324.16 198.17,-321.34 194.18,-315.59"/>
</a>
</g>
<text text-anchor="middle" x="291.93" y="-242.53" font-family="Helvetica,sans-Serif" font-size="10.00" fill="grey"> elements</text>
</g>
<!-- Node18 -->
<g id="Node000018" class="node">
<title>Node18</title>
<g id="a_Node000018"><a xlink:title=" ">
<polygon fill="white" stroke="#666666" points="621.55,-350.66 516.3,-350.66 516.3,-331.41 621.55,-331.41 621.55,-350.66"/>
<text text-anchor="middle" x="568.93" y="-337.16" font-family="Helvetica,sans-Serif" font-size="10.00">std::shared_ptr&lt; T &gt;</text>
</a>
</g>
</g>
<!-- Node11&#45;&gt;Node18 -->
<g id="edge20_Node000018_Node000011" class="edge">
<title>Node11&#45;&gt;Node18</title>
<g id="a_edge20_Node000018_Node000011"><a xlink:title=" ">
<path fill="none" stroke="#9a32cd" stroke-dasharray="5,2" d="M197.96,-333.54C261.28,-334.82 429.99,-338.24 515.98,-339.98"/>
<polygon fill="#9a32cd" stroke="#9a32cd" points="198.35,-330.04 188.28,-333.34 198.2,-337.04 198.35,-330.04"/>
</a>
</g>
<text text-anchor="middle" x="291.93" y="-338.1" font-family="Helvetica,sans-Serif" font-size="10.00" fill="grey"> ptr</text>
</g>
<!-- Node19 -->
<g id="Node000019" class="node">
<title>Node19</title>
<g id="a_Node000019"><a xlink:title=" ">
<polygon fill="white" stroke="#666666" points="1838.05,-349.66 1733.55,-349.66 1733.55,-330.41 1838.05,-330.41 1838.05,-349.66"/>
<text text-anchor="middle" x="1785.8" y="-336.16" font-family="Helvetica,sans-Serif" font-size="10.00">std::unique_ptr&lt; T &gt;</text>
</a>
</g>
</g>
<!-- Node11&#45;&gt;Node19 -->
<g id="edge23_Node000019_Node000011" class="edge">
<title>Node11&#45;&gt;Node19</title>
<g id="a_edge23_Node000019_Node000011"><a xlink:title=" ">
<path fill="none" stroke="#9a32cd" stroke-dasharray="5,2" d="M197.64,-341.22C209.94,-345.04 225.15,-349.34 239.05,-352.03 320.08,-367.76 341.26,-371.03 423.8,-371.03 423.8,-371.03 423.8,-371.03 1527.43,-371.03 1599.21,-371.03 1681.45,-359 1733.26,-349.93"/>
<polygon fill="#9a32cd" stroke="#9a32cd" points="198.91,-337.95 188.32,-338.23 196.77,-344.62 198.91,-337.95"/>
</a>
</g>
<text text-anchor="middle" x="1020.93" y="-372.78" font-family="Helvetica,sans-Serif" font-size="10.00" fill="grey"> ptr</text>
</g>
<!-- Node12&#45;&gt;Node4 -->
<g id="edge11_Node000004_Node000012" class="edge">
<title>Node12&#45;&gt;Node4</title>
<g id="a_edge11_Node000004_Node000012"><a xlink:title=" ">
<path fill="none" stroke="#9a32cd" stroke-dasharray="5,2" d="M1627.24,-199.7C1652.65,-203.4 1679.89,-207.56 1705.05,-211.78 1714.36,-213.35 1724.27,-215.14 1733.81,-216.93"/>
<polygon fill="#9a32cd" stroke="#9a32cd" points="1627.99,-196.27 1617.59,-198.3 1626.98,-203.2 1627.99,-196.27"/>
</a>
</g>
<text text-anchor="middle" x="1669.43" y="-213.53" font-family="Helvetica,sans-Serif" font-size="10.00" fill="grey"> closure_scopes</text>
</g>
<!-- Node13 -->
<g id="Node000013" class="node">
<title>Node13</title>
<g id="a_Node000013"><a xlink:title=" ">
<polygon fill="white" stroke="#666666" points="1271.3,-201.28 1141.3,-201.28 1141.3,-170.78 1271.3,-170.78 1271.3,-201.28"/>
<text text-anchor="start" x="1149.3" y="-187.78" font-family="Helvetica,sans-Serif" font-size="10.00">std::shared_ptr&lt; Ark</text>
<text text-anchor="middle" x="1206.3" y="-176.53" font-family="Helvetica,sans-Serif" font-size="10.00">::internal::ClosureScope &gt;</text>
</a>
</g>
</g>
<!-- Node13&#45;&gt;Node12 -->
<g id="edge12_Node000012_Node000013" class="edge">
<title>Node13&#45;&gt;Node12</title>
<g id="a_edge12_Node000012_Node000013"><a xlink:title=" ">
<path fill="none" stroke="#9a32cd" stroke-dasharray="5,2" d="M1283.11,-186.03C1329.26,-186.03 1388.42,-186.03 1436.73,-186.03"/>
<polygon fill="#9a32cd" stroke="#9a32cd" points="1283.19,-182.53 1273.19,-186.03 1283.19,-189.53 1283.19,-182.53"/>
</a>
</g>
<text text-anchor="middle" x="1354.18" y="-187.78" font-family="Helvetica,sans-Serif" font-size="10.00" fill="grey"> elements</text>
</g>
<!-- Node14 -->
<g id="Node000014" class="node">
<title>Node14</title>
<g id="a_Node000014"><a xlink:href="../../d9/d6c/classArk_1_1internal_1_1ClosureScope.html" target="_top" xlink:title="A class to store fields captured by a closure.">
<polygon fill="white" stroke="#666666" points="1088.93,-202.66 952.93,-202.66 952.93,-183.41 1088.93,-183.41 1088.93,-202.66"/>
<text text-anchor="middle" x="1020.93" y="-189.16" font-family="Helvetica,sans-Serif" font-size="10.00">Ark::internal::ClosureScope</text>
</a>
</g>
</g>
<!-- Node14&#45;&gt;Node13 -->
<g id="edge13_Node000013_Node000014" class="edge">
<title>Node14&#45;&gt;Node13</title>
<g id="a_edge13_Node000013_Node000014"><a xlink:title=" ">
<path fill="none" stroke="#9a32cd" stroke-dasharray="5,2" d="M1100.38,-190.04C1113.87,-189.52 1127.75,-188.99 1140.82,-188.5"/>
<polygon fill="#9a32cd" stroke="#9a32cd" points="1100.54,-186.53 1090.68,-190.41 1100.8,-193.53 1100.54,-186.53"/>
</a>
</g>
<text text-anchor="middle" x="1116.18" y="-191.28" font-family="Helvetica,sans-Serif" font-size="10.00" fill="grey"> ptr</text>
</g>
<!-- Node15&#45;&gt;Node14 -->
<g id="edge14_Node000014_Node000015" class="edge">
<title>Node15&#45;&gt;Node14</title>
<g id="a_edge14_Node000014_Node000015"><a xlink:title=" ">
<path fill="none" stroke="#9a32cd" stroke-dasharray="5,2" d="M790.56,-190.02C840.06,-190.67 904.47,-191.51 952.43,-192.15"/>
<polygon fill="#9a32cd" stroke="#9a32cd" points="790.84,-186.52 780.8,-189.89 790.75,-193.52 790.84,-186.52"/>
</a>
</g>
<text text-anchor="middle" x="864.8" y="-193.6" font-family="Helvetica,sans-Serif" font-size="10.00" fill="grey"> m_data</text>
</g>
<!-- Node16&#45;&gt;Node15 -->
<g id="edge15_Node000015_Node000016" class="edge">
<title>Node16&#45;&gt;Node15</title>
<g id="a_edge15_Node000015_Node000016"><a xlink:title=" ">
<path fill="none" stroke="#9a32cd" stroke-dasharray="5,2" d="M485.17,-251.67C537.07,-250.5 607.96,-246.54 633.05,-234.03 643.75,-228.7 641.24,-220.87 651.05,-214.03 656.06,-210.54 661.63,-207.44 667.33,-204.71"/>
<polygon fill="#9a32cd" stroke="#9a32cd" points="485.19,-248.17 475.26,-251.87 485.32,-255.17 485.19,-248.17"/>
</a>
</g>
<text text-anchor="middle" x="568.93" y="-252.73" font-family="Helvetica,sans-Serif" font-size="10.00" fill="grey"> elements</text>
</g>
<!-- Node17 -->
<g id="Node000017" class="node">
<title>Node17</title>
<g id="a_Node000017"><a xlink:href="../../d3/d90/classArk_1_1Value.html" target="_top" xlink:title=" ">
<polygon fill="white" stroke="#666666" points="202.68,-131.66 141.68,-131.66 141.68,-112.41 202.68,-112.41 202.68,-131.66"/>
<text text-anchor="middle" x="172.18" y="-118.16" font-family="Helvetica,sans-Serif" font-size="10.00">Ark::Value</text>
</a>
</g>
</g>
<!-- Node17&#45;&gt;Node16 -->
<g id="edge16_Node000016_Node000017" class="edge">
<title>Node17&#45;&gt;Node16</title>
<g id="a_edge16_Node000016_Node000017"><a xlink:title=" ">
<path fill="none" stroke="#9a32cd" stroke-dasharray="5,2" d="M214.28,-125.81C250.74,-130.66 304.33,-141.56 344.8,-165.78 374.94,-183.83 400.42,-216.87 413.78,-236.4"/>
<polygon fill="#9a32cd" stroke="#9a32cd" points="214.94,-122.36 204.59,-124.62 214.09,-129.31 214.94,-122.36"/>
</a>
</g>
<text text-anchor="middle" x="291.93" y="-167.53" font-family="Helvetica,sans-Serif" font-size="10.00" fill="grey"> second_type</text>
</g>
<!-- Node17&#45;&gt;Node24 -->
<g id="edge32_Node000024_Node000017" class="edge">
<title>Node17&#45;&gt;Node24</title>
<g id="a_edge32_Node000024_Node000017"><a xlink:title=" ">
<path fill="none" stroke="#9a32cd" stroke-dasharray="5,2" d="M214.11,-114.91C276.59,-104.28 399.61,-84.31 504.8,-73.03 554.37,-67.72 610.77,-64.09 652.5,-61.85"/>
<polygon fill="#9a32cd" stroke="#9a32cd" points="213.56,-111.45 204.29,-116.59 214.74,-118.35 213.56,-111.45"/>
</a>
</g>
<text text-anchor="middle" x="424.8" y="-93.09" font-family="Helvetica,sans-Serif" font-size="10.00" fill="grey"> elements</text>
</g>
<!-- Node18&#45;&gt;Node13 -->
<g id="edge19_Node000013_Node000018" class="edge">
<title>Node18&#45;&gt;Node13</title>
<g id="a_edge19_Node000013_Node000018"><a xlink:title=" ">
<path fill="none" stroke="orange" stroke-dasharray="5,2" d="M630.52,-328.65C672.29,-319.95 729.03,-307.81 778.8,-296.03 911.26,-264.7 1065.71,-223.76 1147.54,-201.72"/>
<polygon fill="orange" stroke="orange" points="629.99,-325.19 620.91,-330.65 631.41,-332.04 629.99,-325.19"/>
</a>
</g>
<text text-anchor="start" x="813.05" y="-304.04" font-family="Helvetica,sans-Serif" font-size="10.00" fill="grey"> &lt; Ark::internal::Closure</text>
<text text-anchor="middle" x="864.8" y="-292.79" font-family="Helvetica,sans-Serif" font-size="10.00" fill="grey">Scope &gt;</text>
</g>
<!-- Node19&#45;&gt;Node3 -->
<g id="edge22_Node000003_Node000019" class="edge">
<title>Node19&#45;&gt;Node3</title>
<g id="a_edge22_Node000003_Node000019"><a xlink:title=" ">
<path fill="none" stroke="orange" stroke-dasharray="5,2" d="M1824.93,-326.05C1878.19,-306.51 1974.58,-271.16 2030.24,-250.74"/>
<polygon fill="orange" stroke="orange" points="1823.85,-322.72 1815.67,-329.44 1826.26,-329.29 1823.85,-322.72"/>
</a>
</g>
<text text-anchor="middle" x="1931.43" y="-310.76" font-family="Helvetica,sans-Serif" font-size="10.00" fill="grey"> &lt; Ark::internal::SavedState &gt;</text>
</g>
<!-- Node29 -->
<g id="Node000029" class="node">
<title>Node29</title>
<g id="a_Node000029"><a xlink:title=" ">
<polygon fill="white" stroke="#666666" points="2376.18,-361.28 2273.18,-361.28 2273.18,-330.78 2376.18,-330.78 2376.18,-361.28"/>
<text text-anchor="start" x="2281.18" y="-347.78" font-family="Helvetica,sans-Serif" font-size="10.00">std::unique_ptr&lt; std</text>
<text text-anchor="middle" x="2324.68" y="-336.53" font-family="Helvetica,sans-Serif" font-size="10.00">::istream &gt;</text>
</a>
</g>
</g>
<!-- Node19&#45;&gt;Node29 -->
<g id="edge42_Node000029_Node000019" class="edge">
<title>Node19&#45;&gt;Node29</title>
<g id="a_edge42_Node000029_Node000019"><a xlink:title=" ">
<path fill="none" stroke="orange" stroke-dasharray="5,2" d="M1849.57,-340.74C1957,-341.94 2174.04,-344.36 2272.75,-345.46"/>
<polygon fill="orange" stroke="orange" points="1849.83,-337.24 1839.79,-340.63 1849.75,-344.24 1849.83,-337.24"/>
</a>
</g>
<text text-anchor="middle" x="2074.05" y="-345.58" font-family="Helvetica,sans-Serif" font-size="10.00" fill="grey"> &lt; std::istream &gt;</text>
</g>
<!-- Node20&#45;&gt;Node1 -->
<g id="edge25_Node000001_Node000020" class="edge">
<title>Node20&#45;&gt;Node1</title>
<g id="a_edge25_Node000001_Node000020"><a xlink:title=" ">
<path fill="none" stroke="#9a32cd" stroke-dasharray="5,2" d="M944.76,-21.03C993.81,-21.03 1058.16,-21.03 1115.18,-21.03 1115.18,-21.03 1115.18,-21.03 2325.68,-21.03 2407.65,-21.03 2446.09,8.05 2508.55,-45.03 2584.36,-109.47 2585.49,-247.2 2584.27,-285.17"/>
<polygon fill="#9a32cd" stroke="#9a32cd" points="944.79,-17.53 934.79,-21.03 944.79,-24.53 944.79,-17.53"/>
</a>
</g>
<text text-anchor="middle" x="1669.43" y="-22.78" font-family="Helvetica,sans-Serif" font-size="10.00" fill="grey"> m_libenv</text>
</g>
<!-- Node21&#45;&gt;Node1 -->
<g id="edge27_Node000001_Node000021" class="edge">
<title>Node21&#45;&gt;Node1</title>
<g id="a_edge27_Node000001_Node000021"><a xlink:title=" ">
<path fill="none" stroke="#9a32cd" stroke-dasharray="5,2" d="M2398.59,-295.03C2439.04,-295.03 2488.63,-295.03 2526.31,-295.03"/>
<polygon fill="#9a32cd" stroke="#9a32cd" points="2398.69,-291.53 2388.69,-295.03 2398.69,-298.53 2398.69,-291.53"/>
</a>
</g>
<text text-anchor="middle" x="2467.68" y="-296.78" font-family="Helvetica,sans-Serif" font-size="10.00" fill="grey"> m_symbols</text>
</g>
<!-- Node22 -->
<g id="Node000022" class="node">
<title>Node22</title>
<g id="a_Node000022"><a xlink:title=" ">
<polygon fill="white" stroke="#666666" points="2103.8,-394.66 2044.3,-394.66 2044.3,-375.41 2103.8,-375.41 2103.8,-394.66"/>
<text text-anchor="middle" x="2074.05" y="-381.16" font-family="Helvetica,sans-Serif" font-size="10.00">std::string</text>
</a>
</g>
</g>
<!-- Node22&#45;&gt;Node1 -->
<g id="edge43_Node000001_Node000022" class="edge">
<title>Node22&#45;&gt;Node1</title>
<g id="a_edge43_Node000001_Node000022"><a xlink:title=" ">
<path fill="none" stroke="#9a32cd" stroke-dasharray="5,2" d="M2115.44,-388.79C2127.16,-389.71 2139.98,-390.57 2151.8,-391.03 2183.22,-392.26 2191.16,-392.8 2222.55,-391.03 2351.39,-383.79 2390.51,-393.16 2508.55,-341.03 2531.24,-331.01 2555.35,-315.26 2569.99,-305.03"/>
<polygon fill="#9a32cd" stroke="#9a32cd" points="2115.94,-385.32 2105.68,-387.97 2115.36,-392.29 2115.94,-385.32"/>
</a>
</g>
<text text-anchor="middle" x="2324.68" y="-391.72" font-family="Helvetica,sans-Serif" font-size="10.00" fill="grey"> m_code</text>
</g>
<!-- Node22&#45;&gt;Node21 -->
<g id="edge28_Node000021_Node000022" class="edge">
<title>Node22&#45;&gt;Node21</title>
<g id="a_edge28_Node000021_Node000022"><a xlink:title=" ">
<path fill="none" stroke="#9a32cd" stroke-dasharray="5,2" d="M2111.03,-370.75C2144.43,-357.62 2195.61,-337.87 2240.55,-322.03 2257.29,-316.13 2276.1,-309.99 2291.58,-305.05"/>
<polygon fill="#9a32cd" stroke="#9a32cd" points="2109.85,-367.45 2101.83,-374.37 2112.42,-373.96 2109.85,-367.45"/>
</a>
</g>
<text text-anchor="middle" x="2187.18" y="-355.63" font-family="Helvetica,sans-Serif" font-size="10.00" fill="grey"> elements</text>
</g>
<!-- Node23 -->
<g id="Node000023" class="node">
<title>Node23</title>
<g id="a_Node000023"><a xlink:title=" ">
<polygon fill="white" stroke="#666666" points="1832.8,-398.28 1738.8,-398.28 1738.8,-367.78 1832.8,-367.78 1832.8,-398.28"/>
<text text-anchor="start" x="1746.8" y="-384.78" font-family="Helvetica,sans-Serif" font-size="10.00">std::basic_string&lt;</text>
<text text-anchor="middle" x="1785.8" y="-373.53" font-family="Helvetica,sans-Serif" font-size="10.00"> Char &gt;</text>
</a>
</g>
</g>
<!-- Node23&#45;&gt;Node22 -->
<g id="edge29_Node000022_Node000023" class="edge">
<title>Node23&#45;&gt;Node22</title>
<g id="a_edge29_Node000022_Node000023"><a xlink:title=" ">
<path fill="none" stroke="#63b8ff" d="M1844.36,-383.44C1904.71,-383.86 1997.13,-384.5 2043.85,-384.83"/>
<polygon fill="#63b8ff" stroke="#63b8ff" points="1844.65,-379.94 1834.62,-383.37 1844.6,-386.94 1844.65,-379.94"/>
</a>
</g>
</g>
<!-- Node24&#45;&gt;Node1 -->
<g id="edge31_Node000001_Node000024" class="edge">
<title>Node24&#45;&gt;Node1</title>
<g id="a_edge31_Node000001_Node000024"><a xlink:title=" ">
<path fill="none" stroke="#9a32cd" stroke-dasharray="5,2" d="M788.79,-59.03C850.38,-59.03 940.93,-59.03 1019.93,-59.03 1019.93,-59.03 1019.93,-59.03 2325.68,-59.03 2461.99,-59.03 2557.73,-240.53 2579.23,-285.19"/>
<polygon fill="#9a32cd" stroke="#9a32cd" points="789.16,-55.53 779.16,-59.03 789.16,-62.53 789.16,-55.53"/>
</a>
</g>
<text text-anchor="middle" x="1669.43" y="-60.78" font-family="Helvetica,sans-Serif" font-size="10.00" fill="grey"> m_constants</text>
</g>
<!-- Node25 -->
<g id="Node000025" class="node">
<title>Node25</title>
<g id="a_Node000025"><a xlink:title=" ">
<polygon fill="white" stroke="#666666" points="2222.55,-475.66 2151.8,-475.66 2151.8,-456.41 2222.55,-456.41 2222.55,-475.66"/>
<text text-anchor="middle" x="2187.18" y="-462.16" font-family="Helvetica,sans-Serif" font-size="10.00">std::ostream</text>
</a>
</g>
</g>
<!-- Node25&#45;&gt;Node1 -->
<g id="edge34_Node000001_Node000025" class="edge">
<title>Node25&#45;&gt;Node1</title>
<g id="a_edge34_Node000001_Node000025"><a xlink:title=" ">
<path fill="none" stroke="#9a32cd" stroke-dasharray="5,2" d="M2234.14,-470.87C2300.49,-475.47 2424.35,-474.86 2508.55,-419.03 2551.15,-390.78 2573.51,-329.37 2580.94,-305.15"/>
<polygon fill="#9a32cd" stroke="#9a32cd" points="2234.58,-467.4 2224.34,-470.12 2234.04,-474.38 2234.58,-467.4"/>
</a>
</g>
<text text-anchor="middle" x="2324.68" y="-474.37" font-family="Helvetica,sans-Serif" font-size="10.00" fill="grey"> m_os</text>
</g>
<!-- Node26 -->
<g id="Node000026" class="node">
<title>Node26</title>
<g id="a_Node000026"><a xlink:title=" ">
<polygon fill="white" stroke="#666666" points="1835.43,-496.28 1736.18,-496.28 1736.18,-465.78 1835.43,-465.78 1835.43,-496.28"/>
<text text-anchor="start" x="1744.18" y="-482.78" font-family="Helvetica,sans-Serif" font-size="10.00">std::basic_ostream</text>
<text text-anchor="middle" x="1785.8" y="-471.53" font-family="Helvetica,sans-Serif" font-size="10.00">&lt; Char &gt;</text>
</a>
</g>
</g>
<!-- Node26&#45;&gt;Node25 -->
<g id="edge35_Node000025_Node000026" class="edge">
<title>Node26&#45;&gt;Node25</title>
<g id="a_edge35_Node000025_Node000026"><a xlink:title=" ">
<path fill="none" stroke="#63b8ff" d="M1847.28,-478.76C1932.06,-475.58 2083.47,-469.89 2151.45,-467.34"/>
<polygon fill="#63b8ff" stroke="#63b8ff" points="1847.15,-475.26 1837.28,-479.14 1847.41,-482.26 1847.15,-475.26"/>
</a>
</g>
</g>
<!-- Node27 -->
<g id="Node000027" class="node">
<title>Node27</title>
<g id="a_Node000027"><a xlink:title=" ">
<polygon fill="white" stroke="#666666" points="1584.3,-459.66 1468.55,-459.66 1468.55,-440.41 1584.3,-440.41 1584.3,-459.66"/>
<text text-anchor="middle" x="1526.43" y="-446.16" font-family="Helvetica,sans-Serif" font-size="10.00">std::basic_ios&lt; Char &gt;</text>
</a>
</g>
</g>
<!-- Node27&#45;&gt;Node26 -->
<g id="edge36_Node000026_Node000027" class="edge">
<title>Node27&#45;&gt;Node26</title>
<g id="a_edge36_Node000026_Node000027"><a xlink:title=" ">
<path fill="none" stroke="#63b8ff" d="M1595.78,-458.27C1639.96,-463.59 1696.4,-470.39 1736.06,-475.16"/>
<polygon fill="#63b8ff" stroke="#63b8ff" points="1596.39,-454.82 1586.05,-457.09 1595.56,-461.77 1596.39,-454.82"/>
</a>
</g>
</g>
<!-- Node31 -->
<g id="Node000031" class="node">
<title>Node31</title>
<g id="a_Node000031"><a xlink:title=" ">
<polygon fill="white" stroke="#666666" points="1833.93,-447.28 1737.68,-447.28 1737.68,-416.78 1833.93,-416.78 1833.93,-447.28"/>
<text text-anchor="start" x="1745.68" y="-433.78" font-family="Helvetica,sans-Serif" font-size="10.00">std::basic_istream</text>
<text text-anchor="middle" x="1785.8" y="-422.53" font-family="Helvetica,sans-Serif" font-size="10.00">&lt; Char &gt;</text>
</a>
</g>
</g>
<!-- Node27&#45;&gt;Node31 -->
<g id="edge41_Node000031_Node000027" class="edge">
<title>Node27&#45;&gt;Node31</title>
<g id="a_edge41_Node000031_Node000027"><a xlink:title=" ">
<path fill="none" stroke="#63b8ff" d="M1595.9,-445.25C1640.53,-442.12 1697.64,-438.13 1737.32,-435.35"/>
<polygon fill="#63b8ff" stroke="#63b8ff" points="1595.79,-441.74 1586.05,-445.93 1596.27,-448.73 1595.79,-441.74"/>
</a>
</g>
</g>
<!-- Node28 -->
<g id="Node000028" class="node">
<title>Node28</title>
<g id="a_Node000028"><a xlink:title=" ">
<polygon fill="white" stroke="#666666" points="1243.55,-459.66 1169.05,-459.66 1169.05,-440.41 1243.55,-440.41 1243.55,-459.66"/>
<text text-anchor="middle" x="1206.3" y="-446.16" font-family="Helvetica,sans-Serif" font-size="10.00">std::ios_base</text>
</a>
</g>
</g>
<!-- Node28&#45;&gt;Node27 -->
<g id="edge37_Node000027_Node000028" class="edge">
<title>Node28&#45;&gt;Node27</title>
<g id="a_edge37_Node000027_Node000028"><a xlink:title=" ">
<path fill="none" stroke="#63b8ff" d="M1255,-450.03C1312,-450.03 1407.29,-450.03 1468.2,-450.03"/>
<polygon fill="#63b8ff" stroke="#63b8ff" points="1255.31,-446.53 1245.31,-450.03 1255.31,-453.53 1255.31,-446.53"/>
</a>
</g>
</g>
<!-- Node29&#45;&gt;Node1 -->
<g id="edge38_Node000001_Node000029" class="edge">
<title>Node29&#45;&gt;Node1</title>
<g id="a_edge38_Node000001_Node000029"><a xlink:title=" ">
<path fill="none" stroke="#9a32cd" stroke-dasharray="5,2" d="M2387.66,-333.87C2423.07,-326.91 2468.31,-318.01 2508.55,-310.03 2516.52,-308.45 2524.97,-306.78 2533.21,-305.14"/>
<polygon fill="#9a32cd" stroke="#9a32cd" points="2387.15,-330.4 2378.01,-335.77 2388.5,-337.27 2387.15,-330.4"/>
</a>
</g>
<text text-anchor="middle" x="2467.68" y="-327.63" font-family="Helvetica,sans-Serif" font-size="10.00" fill="grey"> m_prompt_stream</text>
</g>
<!-- Node30 -->
<g id="Node000030" class="node">
<title>Node30</title>
<g id="a_Node000030"><a xlink:title=" ">
<polygon fill="white" stroke="#666666" points="2107.93,-434.66 2040.18,-434.66 2040.18,-415.41 2107.93,-415.41 2107.93,-434.66"/>
<text text-anchor="middle" x="2074.05" y="-421.16" font-family="Helvetica,sans-Serif" font-size="10.00">std::istream</text>
</a>
</g>
</g>
<!-- Node30&#45;&gt;Node29 -->
<g id="edge39_Node000029_Node000030" class="edge">
<title>Node30&#45;&gt;Node29</title>
<g id="a_edge39_Node000029_Node000030"><a xlink:title=" ">
<path fill="none" stroke="#9a32cd" stroke-dasharray="5,2" d="M2117.55,-411.53C2160.96,-397.74 2228.31,-376.34 2274.12,-361.78"/>
<polygon fill="#9a32cd" stroke="#9a32cd" points="2116.7,-408.13 2108.23,-414.49 2118.82,-414.8 2116.7,-408.13"/>
</a>
</g>
<text text-anchor="middle" x="2187.18" y="-401.23" font-family="Helvetica,sans-Serif" font-size="10.00" fill="grey"> ptr</text>
</g>
<!-- Node31&#45;&gt;Node30 -->
<g id="edge40_Node000030_Node000031" class="edge">
<title>Node31&#45;&gt;Node30</title>
<g id="a_edge40_Node000030_Node000031"><a xlink:title=" ">
<path fill="none" stroke="#63b8ff" d="M1845.7,-430.59C1904.31,-429.16 1992.17,-427.01 2039.68,-425.85"/>
<polygon fill="#63b8ff" stroke="#63b8ff" points="1845.81,-427.09 1835.9,-430.83 1845.99,-434.09 1845.81,-427.09"/>
</a>
</g>
</g>
</g>
</svg>

<g id="navigator" transform="translate(0 0)" fill="#404254">
  <rect fill="#f2f5e9" fill-opacity="0.5" stroke="#606060" stroke-width=".5" x="0" y="0" width="60" height="60"/>
  <use id="zoomplus" xlink:href="#zoomPlus" x="17" y="9" onmousedown="handleZoom(evt,'in')"/>
  <use id="zoomminus" xlink:href="#zoomMin" x="42" y="9" onmousedown="handleZoom(evt,'out')"/>
  <use id="reset" xlink:href="#resetDef" x="30" y="36" onmousedown="handleReset()"/>
   <use id="arrowup" xlink:href="#arrowUp" x="0" y="0" onmousedown="handlePan(0,-1)"/>
  <use id="arrowright" xlink:href="#arrowRight" x="0" y="0" onmousedown="handlePan(1,0)"/>
  <use id="arrowdown" xlink:href="#arrowDown" x="0" y="0" onmousedown="handlePan(0,1)"/>
  <use id="arrowleft" xlink:href="#arrowLeft" x="0" y="0" onmousedown="handlePan(-1,0)"/>
</g>
<svg viewBox="0 0 15 15" width="100%" height="30px" preserveAspectRatio="xMaxYMin meet">
 <g id="arrow_out" transform="scale(0.3 0.3)">
  <a xlink:href="classArk_1_1internal_1_1Debugger__coll__graph_org.svg" target="_base">
   <rect id="button" ry="5" rx="5" y="6" x="6" height="38" width="38"
        fill="#f2f5e9" fill-opacity="0.5" stroke="#606060" stroke-width="1.0"/>
   <path id="arrow"
     d="M 11.500037,31.436501 C 11.940474,20.09759 22.043105,11.32322 32.158766,21.979434 L 37.068811,17.246167 C 37.068811,17.246167 37.088388,32 37.088388,32 L 22.160133,31.978069 C 22.160133,31.978069 26.997745,27.140456 26.997745,27.140456 C 18.528582,18.264221 13.291696,25.230495 11.500037,31.436501 z"
     style="fill:#404040;"/>
  </a>
 </g>
</svg>

<style type='text/css'>
<![CDATA[
[data-mouse-over-selected='false'] { opacity: 0.7; }
[data-mouse-over-selected='true']  { opacity: 1.0; }
]]>
</style>
<script type="application/ecmascript"><![CDATA[
document.addEventListener('DOMContentLoaded', (event) => {
  highlightEdges();
  highlightAdjacentNodes();
});
]]></script>
</svg>
