<?xml version="1.0" encoding="UTF-8" standalone="no"?>
<!DOCTYPE svg PUBLIC "-//W3C//DTD SVG 1.1//EN"
 "http://www.w3.org/Graphics/SVG/1.1/DTD/svg11.dtd">
<!-- Generated by graphviz version 12.2.0 (20241103.1931)
 -->
<!-- Title: Ark::NestedError Pages: 1 -->
<svg width="212pt" height="218pt"
 viewBox="0.00 0.00 212.25 217.50" xmlns="http://www.w3.org/2000/svg" xmlns:xlink="http://www.w3.org/1999/xlink">
<g id="graph0" class="graph" transform="scale(1 1) rotate(0) translate(4 213.5)">
<title>Ark::NestedError</title>
<!-- Node1 -->
<g id="Node000001" class="node">
<title>Node1</title>
<g id="a_Node000001"><a xlink:title=" ">
<polygon fill="#999999" stroke="#666666" points="151,-19.25 61.5,-19.25 61.5,0 151,0 151,-19.25"/>
<text text-anchor="middle" x="106.25" y="-5.75" font-family="Helvetica,sans-Serif" font-size="10.00">Ark::NestedError</text>
</a>
</g>
</g>
<!-- Node2 -->
<g id="Node000002" class="node">
<title>Node2</title>
<g id="a_Node000002"><a xlink:href="../../d6/d43/classArk_1_1Error.html" target="_top" xlink:title=" ">
<polygon fill="white" stroke="#666666" points="97.25,-85.75 39.25,-85.75 39.25,-66.5 97.25,-66.5 97.25,-85.75"/>
<text text-anchor="middle" x="68.25" y="-72.25" font-family="Helvetica,sans-Serif" font-size="10.00">Ark::Error</text>
</a>
</g>
</g>
<!-- Node2&#45;&gt;Node1 -->
<g id="edge1_Node000001_Node000002" class="edge">
<title>Node2&#45;&gt;Node1</title>
<g id="a_edge1_Node000001_Node000002"><a xlink:title=" ">
<path fill="none" stroke="#63b8ff" d="M79.22,-56.51C86.38,-44.35 95.41,-29.02 101.01,-19.52"/>
<polygon fill="#63b8ff" stroke="#63b8ff" points="76.36,-54.46 74.3,-64.85 82.39,-58.01 76.36,-54.46"/>
</a>
</g>
</g>
<!-- Node3 -->
<g id="Node000003" class="node">
<title>Node3</title>
<g id="a_Node000003"><a xlink:title=" ">
<polygon fill="white" stroke="#666666" points="92.5,-147.62 0,-147.62 0,-128.38 92.5,-128.38 92.5,-147.62"/>
<text text-anchor="middle" x="46.25" y="-134.12" font-family="Helvetica,sans-Serif" font-size="10.00">std::runtime_error</text>
</a>
</g>
</g>
<!-- Node3&#45;&gt;Node2 -->
<g id="edge2_Node000002_Node000003" class="edge">
<title>Node3&#45;&gt;Node2</title>
<g id="a_edge2_Node000002_Node000003"><a xlink:title=" ">
<path fill="none" stroke="#63b8ff" d="M53.56,-117.11C57.44,-106.54 62.02,-94.08 65.02,-85.91"/>
<polygon fill="#63b8ff" stroke="#63b8ff" points="50.28,-115.89 50.11,-126.49 56.85,-118.31 50.28,-115.89"/>
</a>
</g>
</g>
<!-- Node4 -->
<g id="Node000004" class="node">
<title>Node4</title>
<g id="a_Node000004"><a xlink:title=" ">
<polygon fill="white" stroke="#666666" points="85,-209.5 7.5,-209.5 7.5,-190.25 85,-190.25 85,-209.5"/>
<text text-anchor="middle" x="46.25" y="-196" font-family="Helvetica,sans-Serif" font-size="10.00">std::exception</text>
</a>
</g>
</g>
<!-- Node4&#45;&gt;Node3 -->
<g id="edge3_Node000003_Node000004" class="edge">
<title>Node4&#45;&gt;Node3</title>
<g id="a_edge3_Node000003_Node000004"><a xlink:title=" ">
<path fill="none" stroke="#63b8ff" d="M46.25,-178.3C46.25,-167.88 46.25,-155.78 46.25,-147.79"/>
<polygon fill="#63b8ff" stroke="#63b8ff" points="42.75,-178.27 46.25,-188.27 49.75,-178.27 42.75,-178.27"/>
</a>
</g>
</g>
<!-- Node5 -->
<g id="Node000005" class="node">
<title>Node5</title>
<g id="a_Node000005"><a xlink:title=" ">
<polygon fill="white" stroke="#666666" points="183,-85.75 123.5,-85.75 123.5,-66.5 183,-66.5 183,-85.75"/>
<text text-anchor="middle" x="153.25" y="-72.25" font-family="Helvetica,sans-Serif" font-size="10.00">std::string</text>
</a>
</g>
</g>
<!-- Node5&#45;&gt;Node1 -->
<g id="edge4_Node000001_Node000005" class="edge">
<title>Node5&#45;&gt;Node1</title>
<g id="a_edge4_Node000001_Node000005"><a xlink:title=" ">
<path fill="none" stroke="#9a32cd" stroke-dasharray="5,2" d="M139.95,-56.88C131.05,-44.66 119.72,-29.11 112.73,-19.52"/>
<polygon fill="#9a32cd" stroke="#9a32cd" points="137.11,-58.91 145.82,-64.93 142.76,-54.79 137.11,-58.91"/>
</a>
</g>
<text text-anchor="middle" x="155.06" y="-39" font-family="Helvetica,sans-Serif" font-size="10.00" fill="grey"> m_details</text>
</g>
<!-- Node6 -->
<g id="Node000006" class="node">
<title>Node6</title>
<g id="a_Node000006"><a xlink:title=" ">
<polygon fill="white" stroke="#666666" points="204.25,-153.25 110.25,-153.25 110.25,-122.75 204.25,-122.75 204.25,-153.25"/>
<text text-anchor="start" x="118.25" y="-139.75" font-family="Helvetica,sans-Serif" font-size="10.00">std::basic_string&lt;</text>
<text text-anchor="middle" x="157.25" y="-128.5" font-family="Helvetica,sans-Serif" font-size="10.00"> Char &gt;</text>
</a>
</g>
</g>
<!-- Node6&#45;&gt;Node5 -->
<g id="edge5_Node000005_Node000006" class="edge">
<title>Node6&#45;&gt;Node5</title>
<g id="a_edge5_Node000005_Node000006"><a xlink:title=" ">
<path fill="none" stroke="#63b8ff" d="M155.53,-111.27C154.93,-102.29 154.3,-92.79 153.85,-86.1"/>
<polygon fill="#63b8ff" stroke="#63b8ff" points="152.02,-111.25 156.18,-121 159.01,-110.78 152.02,-111.25"/>
</a>
</g>
</g>
</g>
</svg>
