<?xml version="1.0" encoding="UTF-8" standalone="no"?>
<!DOCTYPE svg PUBLIC "-//W3C//DTD SVG 1.1//EN"
 "http://www.w3.org/Graphics/SVG/1.1/DTD/svg11.dtd">
<!-- Generated by graphviz version 12.2.0 (20241103.1931)
 -->
<!-- Title: /Users/fola/Documents/ArkScript/Ark/include/Ark/VM/ScopeView.hpp Pages: 1 -->
<svg width="1267pt" height="439pt"
 viewBox="0.00 0.00 1266.88 438.50" xmlns="http://www.w3.org/2000/svg" xmlns:xlink="http://www.w3.org/1999/xlink">
<g id="graph0" class="graph" transform="scale(1 1) rotate(0) translate(4 434.5)">
<title>/Users/fola/Documents/ArkScript/Ark/include/Ark/VM/ScopeView.hpp</title>
<!-- Node1 -->
<g id="Node000001" class="node">
<title>Node1</title>
<g id="a_Node000001"><a xlink:title="The virtual machine scope system.">
<polygon fill="#999999" stroke="#666666" points="944.5,-430.5 822.75,-430.5 822.75,-388.75 944.5,-388.75 944.5,-430.5"/>
<text text-anchor="start" x="830.75" y="-417" font-family="Helvetica,sans-Serif" font-size="10.00">/Users/fola/Documents</text>
<text text-anchor="start" x="830.75" y="-405.75" font-family="Helvetica,sans-Serif" font-size="10.00">/ArkScript/Ark/include</text>
<text text-anchor="middle" x="883.62" y="-394.5" font-family="Helvetica,sans-Serif" font-size="10.00">/Ark/VM/ScopeView.hpp</text>
</a>
</g>
</g>
<!-- Node2 -->
<g id="Node000002" class="node">
<title>Node2</title>
<g id="a_Node000002"><a xlink:href="../../db/df6/ExecutionContext_8hpp.html" target="_top" xlink:title="Keeping track of the internal data needed by the VM.">
<polygon fill="white" stroke="#666666" points="877.5,-352.75 725.75,-352.75 725.75,-311 877.5,-311 877.5,-352.75"/>
<text text-anchor="start" x="733.75" y="-339.25" font-family="Helvetica,sans-Serif" font-size="10.00">/Users/fola/Documents</text>
<text text-anchor="start" x="733.75" y="-328" font-family="Helvetica,sans-Serif" font-size="10.00">/ArkScript/Ark/include</text>
<text text-anchor="middle" x="801.62" y="-316.75" font-family="Helvetica,sans-Serif" font-size="10.00">/Ark/VM/ExecutionContext.hpp</text>
</a>
</g>
</g>
<!-- Node1&#45;&gt;Node2 -->
<g id="edge1_Node000001_Node000002" class="edge">
<title>Node1&#45;&gt;Node2</title>
<g id="a_edge1_Node000001_Node000002"><a xlink:title=" ">
<path fill="none" stroke="#63b8ff" d="M853.3,-380.61C843.47,-371.53 832.77,-361.64 823.66,-353.23"/>
<polygon fill="#63b8ff" stroke="#63b8ff" points="850.82,-383.08 860.54,-387.3 855.57,-377.94 850.82,-383.08"/>
</a>
</g>
</g>
<!-- Node4 -->
<g id="Node000004" class="node">
<title>Node4</title>
<g id="a_Node000004"><a xlink:href="../../d1/d91/VM_8hpp.html" target="_top" xlink:title="The ArkScript virtual machine.">
<polygon fill="white" stroke="#666666" points="762.25,-197.25 645,-197.25 645,-155.5 762.25,-155.5 762.25,-197.25"/>
<text text-anchor="start" x="653" y="-183.75" font-family="Helvetica,sans-Serif" font-size="10.00">/Users/fola/Documents</text>
<text text-anchor="start" x="653" y="-172.5" font-family="Helvetica,sans-Serif" font-size="10.00">/ArkScript/Ark/include</text>
<text text-anchor="middle" x="703.62" y="-161.25" font-family="Helvetica,sans-Serif" font-size="10.00">/Ark/VM/VM.hpp</text>
</a>
</g>
</g>
<!-- Node1&#45;&gt;Node4 -->
<g id="edge26_Node000001_Node000004" class="edge">
<title>Node1&#45;&gt;Node4</title>
<g id="a_edge26_Node000001_Node000004"><a xlink:title=" ">
<path fill="none" stroke="#63b8ff" d="M811.39,-402.59C777.26,-395.8 739.15,-381.71 716.62,-352.75 681.11,-307.08 691.05,-232.93 698.61,-197.48"/>
<polygon fill="#63b8ff" stroke="#63b8ff" points="810.35,-405.96 820.81,-404.29 811.59,-399.07 810.35,-405.96"/>
</a>
</g>
</g>
<!-- Node20 -->
<g id="Node000020" class="node">
<title>Node20</title>
<g id="a_Node000020"><a xlink:href="../../d9/ddb/ScopeView_8cpp.html" target="_top" xlink:title=" ">
<polygon fill="white" stroke="#666666" points="1035.88,-352.75 895.38,-352.75 895.38,-311 1035.88,-311 1035.88,-352.75"/>
<text text-anchor="start" x="903.38" y="-339.25" font-family="Helvetica,sans-Serif" font-size="10.00">/Users/fola/Documents</text>
<text text-anchor="start" x="903.38" y="-328" font-family="Helvetica,sans-Serif" font-size="10.00">/ArkScript/Ark/src/arkreactor</text>
<text text-anchor="middle" x="965.62" y="-316.75" font-family="Helvetica,sans-Serif" font-size="10.00">/VM/ScopeView.cpp</text>
</a>
</g>
</g>
<!-- Node1&#45;&gt;Node20 -->
<g id="edge27_Node000001_Node000020" class="edge">
<title>Node1&#45;&gt;Node20</title>
<g id="a_edge27_Node000001_Node000020"><a xlink:title=" ">
<path fill="none" stroke="#63b8ff" d="M913.95,-380.61C923.78,-371.53 934.48,-361.64 943.59,-353.23"/>
<polygon fill="#63b8ff" stroke="#63b8ff" points="911.68,-377.94 906.71,-387.3 916.43,-383.08 911.68,-377.94"/>
</a>
</g>
</g>
<!-- Node21 -->
<g id="Node000021" class="node">
<title>Node21</title>
<g id="a_Node000021"><a xlink:href="../../d6/d49/ClosureScope_8cpp.html" target="_top" xlink:title=" ">
<polygon fill="white" stroke="#666666" points="1197.75,-352.75 1053.5,-352.75 1053.5,-311 1197.75,-311 1197.75,-352.75"/>
<text text-anchor="start" x="1061.5" y="-339.25" font-family="Helvetica,sans-Serif" font-size="10.00">/Users/fola/Documents</text>
<text text-anchor="start" x="1061.5" y="-328" font-family="Helvetica,sans-Serif" font-size="10.00">/ArkScript/Ark/src/arkreactor</text>
<text text-anchor="middle" x="1125.62" y="-316.75" font-family="Helvetica,sans-Serif" font-size="10.00">/VM/Value/ClosureScope.cpp</text>
</a>
</g>
</g>
<!-- Node1&#45;&gt;Node21 -->
<g id="edge28_Node000001_Node000021" class="edge">
<title>Node1&#45;&gt;Node21</title>
<g id="a_edge28_Node000001_Node000021"><a xlink:title=" ">
<path fill="none" stroke="#63b8ff" d="M955.32,-386.18C988.75,-375.72 1028.23,-363.36 1060.76,-353.18"/>
<polygon fill="#63b8ff" stroke="#63b8ff" points="954.63,-382.73 946.14,-389.06 956.73,-389.41 954.63,-382.73"/>
</a>
</g>
</g>
<!-- Node3 -->
<g id="Node000003" class="node">
<title>Node3</title>
<g id="a_Node000003"><a xlink:href="../../d6/d58/Debugger_8hpp.html" target="_top" xlink:title="Debugger used by the VM when an error or a breakpoint is reached.">
<polygon fill="white" stroke="#666666" points="1014.25,-275 897,-275 897,-233.25 1014.25,-233.25 1014.25,-275"/>
<text text-anchor="start" x="905" y="-261.5" font-family="Helvetica,sans-Serif" font-size="10.00">/Users/fola/Documents</text>
<text text-anchor="start" x="905" y="-250.25" font-family="Helvetica,sans-Serif" font-size="10.00">/ArkScript/Ark/include</text>
<text text-anchor="middle" x="955.62" y="-239" font-family="Helvetica,sans-Serif" font-size="10.00">/Ark/VM/Debugger.hpp</text>
</a>
</g>
</g>
<!-- Node2&#45;&gt;Node3 -->
<g id="edge2_Node000002_Node000003" class="edge">
<title>Node2&#45;&gt;Node3</title>
<g id="a_edge2_Node000002_Node000003"><a xlink:title=" ">
<path fill="none" stroke="#63b8ff" d="M853.03,-305.59C872.94,-295.8 895.41,-284.74 914.24,-275.48"/>
<polygon fill="#63b8ff" stroke="#63b8ff" points="851.68,-302.35 844.25,-309.91 854.77,-308.63 851.68,-302.35"/>
</a>
</g>
</g>
<!-- Node2&#45;&gt;Node4 -->
<g id="edge22_Node000002_Node000004" class="edge">
<title>Node2&#45;&gt;Node4</title>
<g id="a_edge22_Node000002_Node000004"><a xlink:title=" ">
<path fill="none" stroke="#63b8ff" d="M766.37,-302.98C757.45,-294.68 748.47,-285.09 741.62,-275 725.19,-250.77 714.39,-218.4 708.65,-197.72"/>
<polygon fill="#63b8ff" stroke="#63b8ff" points="763.9,-305.47 773.7,-309.5 768.56,-300.24 763.9,-305.47"/>
</a>
</g>
</g>
<!-- Node19 -->
<g id="Node000019" class="node">
<title>Node19</title>
<g id="a_Node000019"><a xlink:href="../../d0/dda/Future_8hpp.html" target="_top" xlink:title="Internal object to resolve asynchronously a function call in ArkScript.">
<polygon fill="white" stroke="#666666" points="878.88,-275 750.38,-275 750.38,-233.25 878.88,-233.25 878.88,-275"/>
<text text-anchor="start" x="758.38" y="-261.5" font-family="Helvetica,sans-Serif" font-size="10.00">/Users/fola/Documents</text>
<text text-anchor="start" x="758.38" y="-250.25" font-family="Helvetica,sans-Serif" font-size="10.00">/ArkScript/Ark/include</text>
<text text-anchor="middle" x="814.62" y="-239" font-family="Helvetica,sans-Serif" font-size="10.00">/Ark/VM/Value/Future.hpp</text>
</a>
</g>
</g>
<!-- Node2&#45;&gt;Node19 -->
<g id="edge23_Node000002_Node000019" class="edge">
<title>Node2&#45;&gt;Node19</title>
<g id="a_edge23_Node000002_Node000019"><a xlink:title=" ">
<path fill="none" stroke="#63b8ff" d="M807.05,-299.25C808.43,-291.21 809.88,-282.79 811.13,-275.48"/>
<polygon fill="#63b8ff" stroke="#63b8ff" points="803.61,-298.64 805.36,-309.08 810.51,-299.82 803.61,-298.64"/>
</a>
</g>
</g>
<!-- Node3&#45;&gt;Node4 -->
<g id="edge3_Node000003_Node000004" class="edge">
<title>Node3&#45;&gt;Node4</title>
<g id="a_edge3_Node000003_Node000004"><a xlink:title=" ">
<path fill="none" stroke="#63b8ff" d="M885.85,-232.15C847.02,-220.48 799.23,-206.11 762.34,-195.02"/>
<polygon fill="#63b8ff" stroke="#63b8ff" points="884.51,-235.4 895.09,-234.93 886.52,-228.7 884.51,-235.4"/>
</a>
</g>
</g>
<!-- Node16 -->
<g id="Node000016" class="node">
<title>Node16</title>
<g id="a_Node000016"><a xlink:href="../../db/d7b/Debugger_8cpp.html" target="_top" xlink:title=" ">
<polygon fill="white" stroke="#666666" points="1258.88,-119.5 1118.38,-119.5 1118.38,-77.75 1258.88,-77.75 1258.88,-119.5"/>
<text text-anchor="start" x="1126.38" y="-106" font-family="Helvetica,sans-Serif" font-size="10.00">/Users/fola/Documents</text>
<text text-anchor="start" x="1126.38" y="-94.75" font-family="Helvetica,sans-Serif" font-size="10.00">/ArkScript/Ark/src/arkreactor</text>
<text text-anchor="middle" x="1188.62" y="-83.5" font-family="Helvetica,sans-Serif" font-size="10.00">/VM/Debugger.cpp</text>
</a>
</g>
</g>
<!-- Node3&#45;&gt;Node16 -->
<g id="edge21_Node000003_Node000016" class="edge">
<title>Node3&#45;&gt;Node16</title>
<g id="a_edge21_Node000003_Node000016"><a xlink:title=" ">
<path fill="none" stroke="#63b8ff" d="M995.44,-226.9C1041.4,-196.62 1116.01,-147.46 1157.79,-119.94"/>
<polygon fill="#63b8ff" stroke="#63b8ff" points="993.77,-223.8 987.35,-232.22 997.63,-229.65 993.77,-223.8"/>
</a>
</g>
</g>
<!-- Node5 -->
<g id="Node000005" class="node">
<title>Node5</title>
<g id="a_Node000005"><a xlink:href="../../d3/d7e/Ark_8hpp.html" target="_top" xlink:title="Includes the needed files to start using ArkScript.">
<polygon fill="white" stroke="#666666" points="941.25,-119.5 824,-119.5 824,-77.75 941.25,-77.75 941.25,-119.5"/>
<text text-anchor="start" x="832" y="-106" font-family="Helvetica,sans-Serif" font-size="10.00">/Users/fola/Documents</text>
<text text-anchor="start" x="832" y="-94.75" font-family="Helvetica,sans-Serif" font-size="10.00">/ArkScript/Ark/include</text>
<text text-anchor="middle" x="882.62" y="-83.5" font-family="Helvetica,sans-Serif" font-size="10.00">/Ark/Ark.hpp</text>
</a>
</g>
</g>
<!-- Node4&#45;&gt;Node5 -->
<g id="edge4_Node000004_Node000005" class="edge">
<title>Node4&#45;&gt;Node5</title>
<g id="a_edge4_Node000004_Node000005"><a xlink:title=" ">
<path fill="none" stroke="#63b8ff" d="M762.11,-150.63C785.55,-140.7 812.23,-129.41 834.52,-119.98"/>
<polygon fill="#63b8ff" stroke="#63b8ff" points="760.83,-147.36 752.99,-154.49 763.56,-153.81 760.83,-147.36"/>
</a>
</g>
</g>
<!-- Node8 -->
<g id="Node000008" class="node">
<title>Node8</title>
<g id="a_Node000008"><a xlink:href="../../d5/d44/Module_8hpp.html" target="_top" xlink:title=" ">
<polygon fill="white" stroke="#666666" points="430.25,-41.75 313,-41.75 313,0 430.25,0 430.25,-41.75"/>
<text text-anchor="start" x="321" y="-28.25" font-family="Helvetica,sans-Serif" font-size="10.00">/Users/fola/Documents</text>
<text text-anchor="start" x="321" y="-17" font-family="Helvetica,sans-Serif" font-size="10.00">/ArkScript/Ark/include</text>
<text text-anchor="middle" x="371.62" y="-5.75" font-family="Helvetica,sans-Serif" font-size="10.00">/Ark/Module.hpp</text>
</a>
</g>
</g>
<!-- Node4&#45;&gt;Node8 -->
<g id="edge7_Node000004_Node000008" class="edge">
<title>Node4&#45;&gt;Node8</title>
<g id="a_edge7_Node000004_Node000008"><a xlink:title=" ">
<path fill="none" stroke="#63b8ff" d="M691.83,-144.58C681.79,-122.56 665.23,-94.05 641.62,-77.75 624.39,-65.85 504.55,-44.11 430.44,-31.54"/>
<polygon fill="#63b8ff" stroke="#63b8ff" points="688.59,-145.9 695.76,-153.7 695.02,-143.13 688.59,-145.9"/>
</a>
</g>
</g>
<!-- Node9 -->
<g id="Node000009" class="node">
<title>Node9</title>
<g id="a_Node000009"><a xlink:href="../../d7/dd7/Helpers_8hpp.html" target="_top" xlink:title="Helpers for the VM.">
<polygon fill="white" stroke="#666666" points="117.25,-119.5 0,-119.5 0,-77.75 117.25,-77.75 117.25,-119.5"/>
<text text-anchor="start" x="8" y="-106" font-family="Helvetica,sans-Serif" font-size="10.00">/Users/fola/Documents</text>
<text text-anchor="start" x="8" y="-94.75" font-family="Helvetica,sans-Serif" font-size="10.00">/ArkScript/Ark/include</text>
<text text-anchor="middle" x="58.62" y="-83.5" font-family="Helvetica,sans-Serif" font-size="10.00">/Ark/VM/Helpers.hpp</text>
</a>
</g>
</g>
<!-- Node4&#45;&gt;Node9 -->
<g id="edge8_Node000004_Node000009" class="edge">
<title>Node4&#45;&gt;Node9</title>
<g id="a_edge8_Node000004_Node000009"><a xlink:title=" ">
<path fill="none" stroke="#63b8ff" d="M633.28,-172.32C524.83,-166.76 310.58,-152.36 131.62,-119.5 126.97,-118.65 122.19,-117.64 117.4,-116.54"/>
<polygon fill="#63b8ff" stroke="#63b8ff" points="633.03,-175.81 643.2,-172.82 633.38,-168.82 633.03,-175.81"/>
</a>
</g>
</g>
<!-- Node10 -->
<g id="Node000010" class="node">
<title>Node10</title>
<g id="a_Node000010"><a xlink:href="../../d2/d27/VM_8cpp.html" target="_top" xlink:title=" ">
<polygon fill="white" stroke="#666666" points="215.88,-41.75 75.38,-41.75 75.38,0 215.88,0 215.88,-41.75"/>
<text text-anchor="start" x="83.38" y="-28.25" font-family="Helvetica,sans-Serif" font-size="10.00">/Users/fola/Documents</text>
<text text-anchor="start" x="83.38" y="-17" font-family="Helvetica,sans-Serif" font-size="10.00">/ArkScript/Ark/src/arkreactor</text>
<text text-anchor="middle" x="145.62" y="-5.75" font-family="Helvetica,sans-Serif" font-size="10.00">/VM/VM.cpp</text>
</a>
</g>
</g>
<!-- Node4&#45;&gt;Node10 -->
<g id="edge18_Node000004_Node000010" class="edge">
<title>Node4&#45;&gt;Node10</title>
<g id="a_edge18_Node000004_Node000010"><a xlink:title=" ">
<path fill="none" stroke="#63b8ff" d="M633.24,-172.69C495.01,-166.76 198.55,-150.54 164.62,-119.5 143.35,-100.04 141.75,-64.42 143.2,-42.01"/>
<polygon fill="#63b8ff" stroke="#63b8ff" points="632.86,-176.18 643,-173.1 633.15,-169.18 632.86,-176.18"/>
</a>
</g>
</g>
<!-- Node11 -->
<g id="Node000011" class="node">
<title>Node11</title>
<g id="a_Node000011"><a xlink:href="../../d2/d33/ModuleMapping_8hpp.html" target="_top" xlink:title=" ">
<polygon fill="white" stroke="#666666" points="315.62,-119.5 173.62,-119.5 173.62,-77.75 315.62,-77.75 315.62,-119.5"/>
<text text-anchor="start" x="181.62" y="-106" font-family="Helvetica,sans-Serif" font-size="10.00">/Users/fola/Documents</text>
<text text-anchor="start" x="181.62" y="-94.75" font-family="Helvetica,sans-Serif" font-size="10.00">/ArkScript/Ark/include</text>
<text text-anchor="middle" x="244.62" y="-83.5" font-family="Helvetica,sans-Serif" font-size="10.00">/Ark/VM/ModuleMapping.hpp</text>
</a>
</g>
</g>
<!-- Node4&#45;&gt;Node11 -->
<g id="edge10_Node000004_Node000011" class="edge">
<title>Node4&#45;&gt;Node11</title>
<g id="a_edge10_Node000004_Node000011"><a xlink:title=" ">
<path fill="none" stroke="#63b8ff" d="M633.2,-167.07C556.83,-157.58 431.53,-140.61 324.62,-119.5 321.82,-118.95 318.96,-118.36 316.08,-117.74"/>
<polygon fill="#63b8ff" stroke="#63b8ff" points="632.71,-170.54 643.06,-168.29 633.56,-163.59 632.71,-170.54"/>
</a>
</g>
</g>
<!-- Node12 -->
<g id="Node000012" class="node">
<title>Node12</title>
<g id="a_Node000012"><a xlink:href="../../d5/da5/Repl_8hpp.html" target="_top" xlink:title="ArkScript REPL &#45; Read Eval Print Loop.">
<polygon fill="white" stroke="#666666" points="806.25,-119.5 689,-119.5 689,-77.75 806.25,-77.75 806.25,-119.5"/>
<text text-anchor="start" x="697" y="-106" font-family="Helvetica,sans-Serif" font-size="10.00">/Users/fola/Documents</text>
<text text-anchor="start" x="697" y="-94.75" font-family="Helvetica,sans-Serif" font-size="10.00">/ArkScript/Ark/include</text>
<text text-anchor="middle" x="747.62" y="-83.5" font-family="Helvetica,sans-Serif" font-size="10.00">/CLI/REPL/Repl.hpp</text>
</a>
</g>
</g>
<!-- Node4&#45;&gt;Node12 -->
<g id="edge13_Node000004_Node000012" class="edge">
<title>Node4&#45;&gt;Node12</title>
<g id="a_edge13_Node000004_Node000012"><a xlink:title=" ">
<path fill="none" stroke="#63b8ff" d="M721.18,-145.15C726.09,-136.7 731.31,-127.71 735.8,-119.98"/>
<polygon fill="#63b8ff" stroke="#63b8ff" points="718.17,-143.36 716.18,-153.77 724.23,-146.88 718.17,-143.36"/>
</a>
</g>
</g>
<!-- Node15 -->
<g id="Node000015" class="node">
<title>Node15</title>
<g id="a_Node000015"><a xlink:href="../../d6/d9a/TypeChecker_8cpp.html" target="_top" xlink:title=" ">
<polygon fill="white" stroke="#666666" points="473.88,-119.5 333.38,-119.5 333.38,-77.75 473.88,-77.75 473.88,-119.5"/>
<text text-anchor="start" x="341.38" y="-106" font-family="Helvetica,sans-Serif" font-size="10.00">/Users/fola/Documents</text>
<text text-anchor="start" x="341.38" y="-94.75" font-family="Helvetica,sans-Serif" font-size="10.00">/ArkScript/Ark/src/arkreactor</text>
<text text-anchor="middle" x="403.62" y="-83.5" font-family="Helvetica,sans-Serif" font-size="10.00">/TypeChecker.cpp</text>
</a>
</g>
</g>
<!-- Node4&#45;&gt;Node15 -->
<g id="edge16_Node000004_Node000015" class="edge">
<title>Node4&#45;&gt;Node15</title>
<g id="a_edge16_Node000004_Node000015"><a xlink:title=" ">
<path fill="none" stroke="#63b8ff" d="M633.8,-157.74C585.85,-145.64 522.41,-129.62 474.28,-117.46"/>
<polygon fill="#63b8ff" stroke="#63b8ff" points="632.69,-161.07 643.25,-160.13 634.41,-154.29 632.69,-161.07"/>
</a>
</g>
</g>
<!-- Node4&#45;&gt;Node16 -->
<g id="edge17_Node000004_Node000016" class="edge">
<title>Node4&#45;&gt;Node16</title>
<g id="a_edge17_Node000004_Node000016"><a xlink:title=" ">
<path fill="none" stroke="#63b8ff" d="M773.69,-168C854.73,-158.94 991.97,-141.97 1108.62,-119.5 1111.72,-118.9 1114.87,-118.26 1118.05,-117.59"/>
<polygon fill="#63b8ff" stroke="#63b8ff" points="773.69,-164.48 764.14,-169.06 774.46,-171.44 773.69,-164.48"/>
</a>
</g>
</g>
<!-- Node17 -->
<g id="Node000017" class="node">
<title>Node17</title>
<g id="a_Node000017"><a xlink:href="../../d1/db2/Closure_8cpp.html" target="_top" xlink:title=" ">
<polygon fill="white" stroke="#666666" points="632.88,-119.5 492.38,-119.5 492.38,-77.75 632.88,-77.75 632.88,-119.5"/>
<text text-anchor="start" x="500.38" y="-106" font-family="Helvetica,sans-Serif" font-size="10.00">/Users/fola/Documents</text>
<text text-anchor="start" x="500.38" y="-94.75" font-family="Helvetica,sans-Serif" font-size="10.00">/ArkScript/Ark/src/arkreactor</text>
<text text-anchor="middle" x="562.62" y="-83.5" font-family="Helvetica,sans-Serif" font-size="10.00">/VM/Value/Closure.cpp</text>
</a>
</g>
</g>
<!-- Node4&#45;&gt;Node17 -->
<g id="edge19_Node000004_Node000017" class="edge">
<title>Node4&#45;&gt;Node17</title>
<g id="a_edge19_Node000004_Node000017"><a xlink:title=" ">
<path fill="none" stroke="#63b8ff" d="M655.8,-149.68C637.77,-139.99 617.52,-129.12 600.51,-119.98"/>
<polygon fill="#63b8ff" stroke="#63b8ff" points="654.04,-152.71 664.51,-154.36 657.35,-146.54 654.04,-152.71"/>
</a>
</g>
</g>
<!-- Node18 -->
<g id="Node000018" class="node">
<title>Node18</title>
<g id="a_Node000018"><a xlink:href="../../d4/dc9/Future_8cpp.html" target="_top" xlink:title=" ">
<polygon fill="white" stroke="#666666" points="1099.88,-119.5 959.38,-119.5 959.38,-77.75 1099.88,-77.75 1099.88,-119.5"/>
<text text-anchor="start" x="967.38" y="-106" font-family="Helvetica,sans-Serif" font-size="10.00">/Users/fola/Documents</text>
<text text-anchor="start" x="967.38" y="-94.75" font-family="Helvetica,sans-Serif" font-size="10.00">/ArkScript/Ark/src/arkreactor</text>
<text text-anchor="middle" x="1029.62" y="-83.5" font-family="Helvetica,sans-Serif" font-size="10.00">/VM/Value/Future.cpp</text>
</a>
</g>
</g>
<!-- Node4&#45;&gt;Node18 -->
<g id="edge20_Node000004_Node000018" class="edge">
<title>Node4&#45;&gt;Node18</title>
<g id="a_edge20_Node000004_Node000018"><a xlink:title=" ">
<path fill="none" stroke="#63b8ff" d="M773.83,-159.96C823.32,-148.99 891.12,-133.71 950.62,-119.5 953.38,-118.84 956.18,-118.17 959.01,-117.48"/>
<polygon fill="#63b8ff" stroke="#63b8ff" points="773.09,-156.54 764.08,-162.12 774.6,-163.38 773.09,-156.54"/>
</a>
</g>
</g>
<!-- Node6 -->
<g id="Node000006" class="node">
<title>Node6</title>
<g id="a_Node000006"><a xlink:href="../../d1/d95/arkemscripten_2main_8cpp.html" target="_top" xlink:title=" ">
<polygon fill="white" stroke="#666666" points="976.88,-41.75 818.38,-41.75 818.38,0 976.88,0 976.88,-41.75"/>
<text text-anchor="start" x="826.38" y="-28.25" font-family="Helvetica,sans-Serif" font-size="10.00">/Users/fola/Documents</text>
<text text-anchor="start" x="826.38" y="-17" font-family="Helvetica,sans-Serif" font-size="10.00">/ArkScript/Ark/src/arkemscripten</text>
<text text-anchor="middle" x="897.62" y="-5.75" font-family="Helvetica,sans-Serif" font-size="10.00">/main.cpp</text>
</a>
</g>
</g>
<!-- Node5&#45;&gt;Node6 -->
<g id="edge5_Node000005_Node000006" class="edge">
<title>Node5&#45;&gt;Node6</title>
<g id="a_edge5_Node000005_Node000006"><a xlink:title=" ">
<path fill="none" stroke="#63b8ff" d="M888.83,-66.28C890.44,-58.16 892.13,-49.62 893.59,-42.23"/>
<polygon fill="#63b8ff" stroke="#63b8ff" points="885.45,-65.35 886.94,-75.84 892.31,-66.71 885.45,-65.35"/>
</a>
</g>
</g>
<!-- Node7 -->
<g id="Node000007" class="node">
<title>Node7</title>
<g id="a_Node000007"><a xlink:href="../../dc/d32/Ark_8cpp.html" target="_top" xlink:title=" ">
<polygon fill="white" stroke="#666666" points="1135.88,-41.75 995.38,-41.75 995.38,0 1135.88,0 1135.88,-41.75"/>
<text text-anchor="start" x="1003.38" y="-28.25" font-family="Helvetica,sans-Serif" font-size="10.00">/Users/fola/Documents</text>
<text text-anchor="start" x="1003.38" y="-17" font-family="Helvetica,sans-Serif" font-size="10.00">/ArkScript/Ark/src/arkreactor</text>
<text text-anchor="middle" x="1065.62" y="-5.75" font-family="Helvetica,sans-Serif" font-size="10.00">/Ark.cpp</text>
</a>
</g>
</g>
<!-- Node5&#45;&gt;Node7 -->
<g id="edge6_Node000005_Node000007" class="edge">
<title>Node5&#45;&gt;Node7</title>
<g id="a_edge6_Node000005_Node000007"><a xlink:title=" ">
<path fill="none" stroke="#63b8ff" d="M942.09,-73.01C966.14,-63.06 993.56,-51.71 1016.45,-42.23"/>
<polygon fill="#63b8ff" stroke="#63b8ff" points="940.97,-69.69 933.06,-76.75 943.64,-76.16 940.97,-69.69"/>
</a>
</g>
</g>
<!-- Node9&#45;&gt;Node10 -->
<g id="edge9_Node000009_Node000010" class="edge">
<title>Node9&#45;&gt;Node10</title>
<g id="a_edge9_Node000009_Node000010"><a xlink:title=" ">
<path fill="none" stroke="#63b8ff" d="M90.48,-69.89C100.99,-60.73 112.49,-50.73 122.25,-42.23"/>
<polygon fill="#63b8ff" stroke="#63b8ff" points="88.32,-67.13 83.08,-76.33 92.92,-72.4 88.32,-67.13"/>
</a>
</g>
</g>
<!-- Node11&#45;&gt;Node8 -->
<g id="edge11_Node000011_Node000008" class="edge">
<title>Node11&#45;&gt;Node8</title>
<g id="a_edge11_Node000011_Node000008"><a xlink:title=" ">
<path fill="none" stroke="#63b8ff" d="M288.38,-71.53C304.45,-61.94 322.4,-51.24 337.5,-42.23"/>
<polygon fill="#63b8ff" stroke="#63b8ff" points="286.75,-68.42 279.96,-76.55 290.34,-74.43 286.75,-68.42"/>
</a>
</g>
</g>
<!-- Node11&#45;&gt;Node10 -->
<g id="edge12_Node000011_Node000010" class="edge">
<title>Node11&#45;&gt;Node10</title>
<g id="a_edge12_Node000011_Node000010"><a xlink:title=" ">
<path fill="none" stroke="#63b8ff" d="M209.09,-70.44C196.94,-61.14 183.56,-50.9 172.23,-42.23"/>
<polygon fill="#63b8ff" stroke="#63b8ff" points="206.82,-73.11 216.89,-76.41 211.08,-67.55 206.82,-73.11"/>
</a>
</g>
</g>
<!-- Node13 -->
<g id="Node000013" class="node">
<title>Node13</title>
<g id="a_Node000013"><a xlink:href="../../d7/d46/Repl_8cpp.html" target="_top" xlink:title=" ">
<polygon fill="white" stroke="#666666" points="646.88,-41.75 512.38,-41.75 512.38,0 646.88,0 646.88,-41.75"/>
<text text-anchor="start" x="520.38" y="-28.25" font-family="Helvetica,sans-Serif" font-size="10.00">/Users/fola/Documents</text>
<text text-anchor="start" x="520.38" y="-17" font-family="Helvetica,sans-Serif" font-size="10.00">/ArkScript/Ark/src/arkscript</text>
<text text-anchor="middle" x="579.62" y="-5.75" font-family="Helvetica,sans-Serif" font-size="10.00">/REPL/Repl.cpp</text>
</a>
</g>
</g>
<!-- Node12&#45;&gt;Node13 -->
<g id="edge14_Node000012_Node000013" class="edge">
<title>Node12&#45;&gt;Node13</title>
<g id="a_edge14_Node000012_Node000013"><a xlink:title=" ">
<path fill="none" stroke="#63b8ff" d="M692.14,-72.61C670.28,-62.75 645.5,-51.58 624.77,-42.23"/>
<polygon fill="#63b8ff" stroke="#63b8ff" points="690.67,-75.78 701.22,-76.7 693.55,-69.4 690.67,-75.78"/>
</a>
</g>
</g>
<!-- Node14 -->
<g id="Node000014" class="node">
<title>Node14</title>
<g id="a_Node000014"><a xlink:href="../../d0/d46/arkscript_2main_8cpp.html" target="_top" xlink:title=" ">
<polygon fill="white" stroke="#666666" points="799.88,-41.75 665.38,-41.75 665.38,0 799.88,0 799.88,-41.75"/>
<text text-anchor="start" x="673.38" y="-28.25" font-family="Helvetica,sans-Serif" font-size="10.00">/Users/fola/Documents</text>
<text text-anchor="start" x="673.38" y="-17" font-family="Helvetica,sans-Serif" font-size="10.00">/ArkScript/Ark/src/arkscript</text>
<text text-anchor="middle" x="732.62" y="-5.75" font-family="Helvetica,sans-Serif" font-size="10.00">/main.cpp</text>
</a>
</g>
</g>
<!-- Node12&#45;&gt;Node14 -->
<g id="edge15_Node000012_Node000014" class="edge">
<title>Node12&#45;&gt;Node14</title>
<g id="a_edge15_Node000012_Node000014"><a xlink:title=" ">
<path fill="none" stroke="#63b8ff" d="M741.42,-66.28C739.81,-58.16 738.12,-49.62 736.66,-42.23"/>
<polygon fill="#63b8ff" stroke="#63b8ff" points="737.94,-66.71 743.31,-75.84 744.8,-65.35 737.94,-66.71"/>
</a>
</g>
</g>
<!-- Node19&#45;&gt;Node4 -->
<g id="edge24_Node000019_Node000004" class="edge">
<title>Node19&#45;&gt;Node4</title>
<g id="a_edge24_Node000019_Node000004"><a xlink:title=" ">
<path fill="none" stroke="#63b8ff" d="M775.59,-226.48C761.74,-217.04 746.4,-206.57 733.45,-197.73"/>
<polygon fill="#63b8ff" stroke="#63b8ff" points="773.4,-229.23 783.63,-231.97 777.34,-223.44 773.4,-229.23"/>
</a>
</g>
</g>
<!-- Node19&#45;&gt;Node18 -->
<g id="edge25_Node000019_Node000018" class="edge">
<title>Node19&#45;&gt;Node18</title>
<g id="a_edge25_Node000019_Node000018"><a xlink:title=" ">
<path fill="none" stroke="#63b8ff" d="M851.89,-226.52C894.35,-196.21 962.78,-147.35 1001.17,-119.94"/>
<polygon fill="#63b8ff" stroke="#63b8ff" points="850.07,-223.52 843.96,-232.18 854.14,-229.22 850.07,-223.52"/>
</a>
</g>
</g>
</g>
</svg>
