<?xml version="1.0" encoding="UTF-8" standalone="no"?>
<!DOCTYPE svg PUBLIC "-//W3C//DTD SVG 1.1//EN"
 "http://www.w3.org/Graphics/SVG/1.1/DTD/svg11.dtd">
<!-- Generated by graphviz version 12.2.0 (20241103.1931)
 -->
<!-- Title: /Users/fola/Documents/ArkScript/Ark/src/arkreactor/VM/Value/Dict.cpp Pages: 1 -->
<!--zoomable 271 -->

<svg id="main" version="1.1" xmlns="http://www.w3.org/2000/svg" xmlns:xlink="http://www.w3.org/1999/xlink" xml:space="preserve" onload="init(evt)">

<style type="text/css"><![CDATA[
.node, .edge {opacity: 0.7;}
.node.selected, .edge.selected {opacity: 1;}
.edge:hover path { stroke: red; }
.edge:hover polygon { stroke: red; fill: red; }
]]></style>

<defs>
  <circle id="rim" cx="0" cy="0" r="7"/>
  <circle id="rim2" cx="0" cy="0" r="3.5"/>
  <g id="zoomPlus">
    <use xlink:href="#rim" fill="#404040"><set attributeName="fill" to="#808080" begin="zoomplus.mouseover" end="zoomplus.mouseout"/></use>
    <path d="M-4,0h8M0,-4v8" fill="none" stroke="white" stroke-width="1.5" pointer-events="none"/>
  </g>
  <g id="zoomMin">
    <use xlink:href="#rim" fill="#404040"><set attributeName="fill" to="#808080" begin="zoomminus.mouseover" end="zoomminus.mouseout"/></use>
    <path d="M-4,0h8" fill="none" stroke="white" stroke-width="1.5" pointer-events="none"/>
  </g>
  <g id="arrowUp" transform="translate(30 24)">
    <use xlink:href="#rim"/>
    <path pointer-events="none" fill="none" stroke="white" stroke-width="1.5" d="M0,-3.0v7 M-2.5,-0.5L0,-3.0L2.5,-0.5"/>
  </g>
  <g id="arrowRight" transform="rotate(90) translate(36 -43)">
    <use xlink:href="#rim"/>
    <path pointer-events="none" fill="none" stroke="white" stroke-width="1.5" d="M0,-3.0v7 M-2.5,-0.5L0,-3.0L2.5,-0.5"/>
  </g>
  <g id="arrowDown" transform="rotate(180) translate(-30 -48)">
    <use xlink:href="#rim"/>
    <path pointer-events="none" fill="none" stroke="white" stroke-width="1.5" d="M0,-3.0v7 M-2.5,-0.5L0,-3.0L2.5,-0.5"/>
  </g>
  <g id="arrowLeft" transform="rotate(270) translate(-36 17)">
    <use xlink:href="#rim"/>
    <path pointer-events="none" fill="none" stroke="white" stroke-width="1.5" d="M0,-3.0v7 M-2.5,-0.5L0,-3.0L2.5,-0.5"/>
  </g>
  <g id="resetDef">
    <use xlink:href="#rim2" fill="#404040"><set attributeName="fill" to="#808080" begin="reset.mouseover" end="reset.mouseout"/></use>
  </g>
</defs>
<script type="application/ecmascript">
var viewWidth = 897;
var viewHeight = 271;
var sectionId = 'dynsection-0';
</script>
<script type="application/ecmascript" xlink:href="../../svg.min.js"/>
<svg id="graph" class="graph">
<g id="viewport">
<title>/Users/fola/Documents/ArkScript/Ark/src/arkreactor/VM/Value/Dict.cpp</title>
<!-- Node1 -->
<g id="Node000001" class="node">
<title>Node1</title>
<g id="a_Node000001"><a xlink:title=" ">
<polygon fill="#999999" stroke="#666666" points="686.75,-262.75 546.25,-262.75 546.25,-221 686.75,-221 686.75,-262.75"/>
<text text-anchor="start" x="554.25" y="-249.25" font-family="Helvetica,sans-Serif" font-size="10.00">/Users/fola/Documents</text>
<text text-anchor="start" x="554.25" y="-238" font-family="Helvetica,sans-Serif" font-size="10.00">/ArkScript/Ark/src/arkreactor</text>
<text text-anchor="middle" x="616.5" y="-226.75" font-family="Helvetica,sans-Serif" font-size="10.00">/VM/Value/Dict.cpp</text>
</a>
</g>
</g>
<!-- Node2 -->
<g id="Node000002" class="node">
<title>Node2</title>
<g id="a_Node000002"><a xlink:href="../../d9/df7/Dict_8hpp.html" target="_top" xlink:title="Define how dictionaries are handled.">
<polygon fill="white" stroke="#666666" points="532.38,-185 416.62,-185 416.62,-165.75 532.38,-165.75 532.38,-185"/>
<text text-anchor="middle" x="474.5" y="-171.5" font-family="Helvetica,sans-Serif" font-size="10.00">Ark/VM/Value/Dict.hpp</text>
</a>
</g>
</g>
<!-- Node1&#45;&gt;Node2 -->
<g id="edge1_Node000001_Node000002" class="edge">
<title>Node1&#45;&gt;Node2</title>
<g id="a_edge1_Node000001_Node000002"><a xlink:title=" ">
<path fill="none" stroke="#63b8ff" d="M571.96,-220.64C550.1,-210.71 524.34,-199.01 504.79,-190.13"/>
<polygon fill="#63b8ff" stroke="#63b8ff" points="506.29,-186.97 495.73,-186.02 503.39,-193.34 506.29,-186.97"/>
</a>
</g>
</g>
<!-- Node19 -->
<g id="Node000019" class="node">
<title>Node19</title>
<g id="a_Node000019"><a xlink:href="../../d4/d3e/DefaultValues_8hpp.html" target="_top" xlink:title=" ">
<polygon fill="white" stroke="#666666" points="682.25,-185 550.75,-185 550.75,-165.75 682.25,-165.75 682.25,-185"/>
<text text-anchor="middle" x="616.5" y="-171.5" font-family="Helvetica,sans-Serif" font-size="10.00">Ark/VM/DefaultValues.hpp</text>
</a>
</g>
</g>
<!-- Node1&#45;&gt;Node19 -->
<g id="edge27_Node000001_Node000019" class="edge">
<title>Node1&#45;&gt;Node19</title>
<g id="a_edge27_Node000001_Node000019"><a xlink:title=" ">
<path fill="none" stroke="#63b8ff" d="M616.5,-220.82C616.5,-213.15 616.5,-204.39 616.5,-196.7"/>
<polygon fill="#63b8ff" stroke="#63b8ff" points="620,-196.96 616.5,-186.96 613,-196.96 620,-196.96"/>
</a>
</g>
</g>
<!-- Node20 -->
<g id="Node000020" class="node">
<title>Node20</title>
<g id="a_Node000020"><a xlink:title=" ">
<polygon fill="#e0e0e0" stroke="#999999" points="745.12,-185 699.88,-185 699.88,-165.75 745.12,-165.75 745.12,-185"/>
<text text-anchor="middle" x="722.5" y="-171.5" font-family="Helvetica,sans-Serif" font-size="10.00">ranges</text>
</a>
</g>
</g>
<!-- Node1&#45;&gt;Node20 -->
<g id="edge29_Node000001_Node000020" class="edge">
<title>Node1&#45;&gt;Node20</title>
<g id="a_edge29_Node000001_Node000020"><a xlink:title=" ">
<path fill="none" stroke="#63b8ff" d="M649.75,-220.64C665.38,-211.13 683.69,-199.99 698.03,-191.26"/>
<polygon fill="#63b8ff" stroke="#63b8ff" points="699.66,-194.37 706.38,-186.18 696.02,-188.39 699.66,-194.37"/>
</a>
</g>
</g>
<!-- Node3 -->
<g id="Node000003" class="node">
<title>Node3</title>
<g id="a_Node000003"><a xlink:href="../../de/dfd/Value_8hpp.html" target="_top" xlink:title="Default value type handled by the virtual machine.">
<polygon fill="white" stroke="#666666" points="678.38,-129.75 556.62,-129.75 556.62,-110.5 678.38,-110.5 678.38,-129.75"/>
<text text-anchor="middle" x="617.5" y="-116.25" font-family="Helvetica,sans-Serif" font-size="10.00">Ark/VM/Value/Value.hpp</text>
</a>
</g>
</g>
<!-- Node2&#45;&gt;Node3 -->
<g id="edge2_Node000002_Node000003" class="edge">
<title>Node2&#45;&gt;Node3</title>
<g id="a_edge2_Node000002_Node000003"><a xlink:title=" ">
<path fill="none" stroke="#63b8ff" d="M498.76,-165.34C521.77,-156.77 556.59,-143.81 582.58,-134.13"/>
<polygon fill="#63b8ff" stroke="#63b8ff" points="583.55,-137.5 591.7,-130.73 581.11,-130.94 583.55,-137.5"/>
</a>
</g>
</g>
<!-- Node4 -->
<g id="Node000004" class="node">
<title>Node4</title>
<g id="a_Node000004"><a xlink:title=" ">
<polygon fill="#e0e0e0" stroke="#999999" points="43,-19.25 0,-19.25 0,0 43,0 43,-19.25"/>
<text text-anchor="middle" x="21.5" y="-5.75" font-family="Helvetica,sans-Serif" font-size="10.00">vector</text>
</a>
</g>
</g>
<!-- Node2&#45;&gt;Node4 -->
<g id="edge26_Node000002_Node000004" class="edge">
<title>Node2&#45;&gt;Node4</title>
<g id="a_edge26_Node000002_Node000004"><a xlink:title=" ">
<path fill="none" stroke="#63b8ff" d="M416.26,-170.14C305.94,-160.8 73.08,-134.31 23.5,-74.5 13.53,-62.48 13.92,-44.36 16.29,-30.49"/>
<polygon fill="#63b8ff" stroke="#63b8ff" points="19.62,-31.65 18.35,-21.13 12.78,-30.15 19.62,-31.65"/>
</a>
</g>
</g>
<!-- Node13 -->
<g id="Node000013" class="node">
<title>Node13</title>
<g id="a_Node000013"><a xlink:href="../../d5/d40/Platform_8hpp.html" target="_top" xlink:title="ArkScript configuration macros.">
<polygon fill="white" stroke="#666666" points="477.88,-19.25 365.12,-19.25 365.12,0 477.88,0 477.88,-19.25"/>
<text text-anchor="middle" x="421.5" y="-5.75" font-family="Helvetica,sans-Serif" font-size="10.00">Ark/Utils/Platform.hpp</text>
</a>
</g>
</g>
<!-- Node2&#45;&gt;Node13 -->
<g id="edge24_Node000002_Node000013" class="edge">
<title>Node2&#45;&gt;Node13</title>
<g id="a_edge24_Node000002_Node000013"><a xlink:title=" ">
<path fill="none" stroke="#63b8ff" d="M446.83,-165.3C430.49,-158.35 411.16,-146.98 401.5,-129.75 392.17,-113.1 406.21,-59.92 415.11,-30.56"/>
<polygon fill="#63b8ff" stroke="#63b8ff" points="418.44,-31.65 418.08,-21.06 411.76,-29.56 418.44,-31.65"/>
</a>
</g>
</g>
<!-- Node18 -->
<g id="Node000018" class="node">
<title>Node18</title>
<g id="a_Node000018"><a xlink:title=" ">
<polygon fill="#e0e0e0" stroke="#999999" points="538.38,-129.75 410.62,-129.75 410.62,-110.5 538.38,-110.5 538.38,-129.75"/>
<text text-anchor="middle" x="474.5" y="-116.25" font-family="Helvetica,sans-Serif" font-size="10.00">ankerl/unordered_dense.h</text>
</a>
</g>
</g>
<!-- Node2&#45;&gt;Node18 -->
<g id="edge25_Node000002_Node000018" class="edge">
<title>Node2&#45;&gt;Node18</title>
<g id="a_edge25_Node000002_Node000018"><a xlink:title=" ">
<path fill="none" stroke="#63b8ff" d="M474.5,-165.58C474.5,-159.07 474.5,-149.92 474.5,-141.62"/>
<polygon fill="#63b8ff" stroke="#63b8ff" points="478,-141.62 474.5,-131.62 471,-141.62 478,-141.62"/>
</a>
</g>
</g>
<!-- Node3&#45;&gt;Node4 -->
<g id="edge3_Node000003_Node000004" class="edge">
<title>Node3&#45;&gt;Node4</title>
<g id="a_edge3_Node000003_Node000004"><a xlink:title=" ">
<path fill="none" stroke="#63b8ff" d="M556.44,-111.41C553.42,-111.09 550.42,-110.78 547.5,-110.5 491.29,-105.05 84.55,-109.85 40.5,-74.5 27.52,-64.08 23.13,-45.2 21.77,-30.66"/>
<polygon fill="#63b8ff" stroke="#63b8ff" points="25.27,-30.65 21.29,-20.83 18.28,-30.99 25.27,-30.65"/>
</a>
</g>
</g>
<!-- Node5 -->
<g id="Node000005" class="node">
<title>Node5</title>
<g id="a_Node000005"><a xlink:title=" ">
<polygon fill="#e0e0e0" stroke="#999999" points="753.12,-74.5 707.88,-74.5 707.88,-55.25 753.12,-55.25 753.12,-74.5"/>
<text text-anchor="middle" x="730.5" y="-61" font-family="Helvetica,sans-Serif" font-size="10.00">variant</text>
</a>
</g>
</g>
<!-- Node3&#45;&gt;Node5 -->
<g id="edge4_Node000003_Node000005" class="edge">
<title>Node3&#45;&gt;Node5</title>
<g id="a_edge4_Node000003_Node000005"><a xlink:title=" ">
<path fill="none" stroke="#63b8ff" d="M636.67,-110.09C654.28,-101.79 680.66,-89.36 700.96,-79.79"/>
<polygon fill="#63b8ff" stroke="#63b8ff" points="702.31,-83.03 709.87,-75.6 699.33,-76.69 702.31,-83.03"/>
</a>
</g>
</g>
<!-- Node6 -->
<g id="Node000006" class="node">
<title>Node6</title>
<g id="a_Node000006"><a xlink:title=" ">
<polygon fill="#e0e0e0" stroke="#999999" points="541.5,-19.25 501.5,-19.25 501.5,0 541.5,0 541.5,-19.25"/>
<text text-anchor="middle" x="521.5" y="-5.75" font-family="Helvetica,sans-Serif" font-size="10.00">string</text>
</a>
</g>
</g>
<!-- Node3&#45;&gt;Node6 -->
<g id="edge5_Node000003_Node000006" class="edge">
<title>Node3&#45;&gt;Node6</title>
<g id="a_edge5_Node000003_Node000006"><a xlink:title=" ">
<path fill="none" stroke="#63b8ff" d="M564.49,-110.03C544.07,-103.65 522.72,-92.84 510.5,-74.5 501.72,-61.33 505.91,-43.36 511.46,-29.83"/>
<polygon fill="#63b8ff" stroke="#63b8ff" points="514.49,-31.63 515.56,-21.09 508.15,-28.66 514.49,-31.63"/>
</a>
</g>
</g>
<!-- Node7 -->
<g id="Node000007" class="node">
<title>Node7</title>
<g id="a_Node000007"><a xlink:title=" ">
<polygon fill="#e0e0e0" stroke="#999999" points="259.38,-19.25 203.62,-19.25 203.62,0 259.38,0 259.38,-19.25"/>
<text text-anchor="middle" x="231.5" y="-5.75" font-family="Helvetica,sans-Serif" font-size="10.00">cinttypes</text>
</a>
</g>
</g>
<!-- Node3&#45;&gt;Node7 -->
<g id="edge6_Node000003_Node000007" class="edge">
<title>Node3&#45;&gt;Node7</title>
<g id="a_edge6_Node000003_Node000007"><a xlink:title=" ">
<path fill="none" stroke="#63b8ff" d="M556.42,-111.57C553.4,-111.21 550.42,-110.85 547.5,-110.5 478.86,-102.27 287.22,-123.55 238.5,-74.5 227.31,-63.24 226.4,-44.76 227.8,-30.56"/>
<polygon fill="#63b8ff" stroke="#63b8ff" points="231.21,-31.38 229.2,-20.98 224.29,-30.37 231.21,-31.38"/>
</a>
</g>
</g>
<!-- Node8 -->
<g id="Node000008" class="node">
<title>Node8</title>
<g id="a_Node000008"><a xlink:title=" ">
<polygon fill="#e0e0e0" stroke="#999999" points="809.38,-74.5 771.62,-74.5 771.62,-55.25 809.38,-55.25 809.38,-74.5"/>
<text text-anchor="middle" x="790.5" y="-61" font-family="Helvetica,sans-Serif" font-size="10.00">array</text>
</a>
</g>
</g>
<!-- Node3&#45;&gt;Node8 -->
<g id="edge7_Node000003_Node000008" class="edge">
<title>Node3&#45;&gt;Node8</title>
<g id="a_edge7_Node000003_Node000008"><a xlink:title=" ">
<path fill="none" stroke="#63b8ff" d="M646.85,-110.09C678.44,-100.37 728.45,-84.97 760.35,-75.15"/>
<polygon fill="#63b8ff" stroke="#63b8ff" points="761.25,-78.54 769.77,-72.25 759.19,-71.85 761.25,-78.54"/>
</a>
</g>
</g>
<!-- Node9 -->
<g id="Node000009" class="node">
<title>Node9</title>
<g id="a_Node000009"><a xlink:title=" ">
<polygon fill="#e0e0e0" stroke="#999999" points="691.12,-19.25 639.88,-19.25 639.88,0 691.12,0 691.12,-19.25"/>
<text text-anchor="middle" x="665.5" y="-5.75" font-family="Helvetica,sans-Serif" font-size="10.00">memory</text>
</a>
</g>
</g>
<!-- Node3&#45;&gt;Node9 -->
<g id="edge8_Node000003_Node000009" class="edge">
<title>Node3&#45;&gt;Node9</title>
<g id="a_edge8_Node000003_Node000009"><a xlink:title=" ">
<path fill="none" stroke="#63b8ff" d="M630.11,-110.08C640.26,-102.01 653.88,-89.22 660.5,-74.5 666.66,-60.8 667.71,-43.79 667.33,-30.77"/>
<polygon fill="#63b8ff" stroke="#63b8ff" points="670.83,-30.61 666.71,-20.85 663.84,-31.05 670.83,-30.61"/>
</a>
</g>
</g>
<!-- Node10 -->
<g id="Node000010" class="node">
<title>Node10</title>
<g id="a_Node000010"><a xlink:title=" ">
<polygon fill="#e0e0e0" stroke="#999999" points="889.38,-74.5 827.62,-74.5 827.62,-55.25 889.38,-55.25 889.38,-74.5"/>
<text text-anchor="middle" x="858.5" y="-61" font-family="Helvetica,sans-Serif" font-size="10.00">type_traits</text>
</a>
</g>
</g>
<!-- Node3&#45;&gt;Node10 -->
<g id="edge9_Node000003_Node000010" class="edge">
<title>Node3&#45;&gt;Node10</title>
<g id="a_edge9_Node000003_Node000010"><a xlink:title=" ">
<path fill="none" stroke="#63b8ff" d="M658.66,-110.03C702.68,-100.3 772.15,-84.95 816.5,-75.16"/>
<polygon fill="#63b8ff" stroke="#63b8ff" points="816.99,-78.63 826,-73.06 815.48,-71.8 816.99,-78.63"/>
</a>
</g>
</g>
<!-- Node11 -->
<g id="Node000011" class="node">
<title>Node11</title>
<g id="a_Node000011"><a xlink:href="../../dc/dd5/Closure_8hpp.html" target="_top" xlink:title="Subtype of the value type, handling closures.">
<polygon fill="white" stroke="#666666" points="651.25,-74.5 519.75,-74.5 519.75,-55.25 651.25,-55.25 651.25,-74.5"/>
<text text-anchor="middle" x="585.5" y="-61" font-family="Helvetica,sans-Serif" font-size="10.00">Ark/VM/Value/Closure.hpp</text>
</a>
</g>
</g>
<!-- Node3&#45;&gt;Node11 -->
<g id="edge10_Node000003_Node000011" class="edge">
<title>Node3&#45;&gt;Node11</title>
<g id="a_edge10_Node000003_Node000011"><a xlink:title=" ">
<path fill="none" stroke="#63b8ff" d="M612.22,-110.33C608.03,-103.36 602.02,-93.37 596.77,-84.62"/>
<polygon fill="#63b8ff" stroke="#63b8ff" points="599.83,-82.93 591.68,-76.16 593.83,-86.53 599.83,-82.93"/>
</a>
</g>
</g>
<!-- Node3&#45;&gt;Node13 -->
<g id="edge23_Node000003_Node000013" class="edge">
<title>Node3&#45;&gt;Node13</title>
<g id="a_edge23_Node000003_Node000013"><a xlink:title=" ">
<path fill="none" stroke="#63b8ff" d="M586.3,-110.01C562.25,-102.31 528.64,-90.06 501.5,-74.5 478.04,-61.05 454.21,-41.03 438.73,-26.99"/>
<polygon fill="#63b8ff" stroke="#63b8ff" points="441.48,-24.77 431.77,-20.55 436.73,-29.91 441.48,-24.77"/>
</a>
</g>
</g>
<!-- Node14 -->
<g id="Node000014" class="node">
<title>Node14</title>
<g id="a_Node000014"><a xlink:href="../../dc/d3d/UserType_8hpp.html" target="_top" xlink:title="Subtype of the value, capable of handling any C++ type.">
<polygon fill="white" stroke="#666666" points="387.38,-74.5 247.62,-74.5 247.62,-55.25 387.38,-55.25 387.38,-74.5"/>
<text text-anchor="middle" x="317.5" y="-61" font-family="Helvetica,sans-Serif" font-size="10.00">Ark/VM/Value/UserType.hpp</text>
</a>
</g>
</g>
<!-- Node3&#45;&gt;Node14 -->
<g id="edge15_Node000003_Node000014" class="edge">
<title>Node3&#45;&gt;Node14</title>
<g id="a_edge15_Node000003_Node000014"><a xlink:title=" ">
<path fill="none" stroke="#63b8ff" d="M566.27,-110.03C514.68,-100.87 435.04,-86.74 379.82,-76.94"/>
<polygon fill="#63b8ff" stroke="#63b8ff" points="380.72,-73.54 370.26,-75.24 379.5,-80.43 380.72,-73.54"/>
</a>
</g>
</g>
<!-- Node17 -->
<g id="Node000017" class="node">
<title>Node17</title>
<g id="a_Node000017"><a xlink:href="../../da/dcf/Procedure_8hpp.html" target="_top" xlink:title="Wrapper object for user&#45;defined functions.">
<polygon fill="white" stroke="#666666" points="191.5,-74.5 49.5,-74.5 49.5,-55.25 191.5,-55.25 191.5,-74.5"/>
<text text-anchor="middle" x="120.5" y="-61" font-family="Helvetica,sans-Serif" font-size="10.00">Ark/VM/Value/Procedure.hpp</text>
</a>
</g>
</g>
<!-- Node3&#45;&gt;Node17 -->
<g id="edge20_Node000003_Node000017" class="edge">
<title>Node3&#45;&gt;Node17</title>
<g id="a_edge20_Node000003_Node000017"><a xlink:title=" ">
<path fill="none" stroke="#63b8ff" d="M556.42,-111.53C553.41,-111.18 550.42,-110.83 547.5,-110.5 482.83,-103.14 307.69,-85.05 202.88,-74.3"/>
<polygon fill="#63b8ff" stroke="#63b8ff" points="203.53,-70.85 193.22,-73.31 202.81,-77.81 203.53,-70.85"/>
</a>
</g>
</g>
<!-- Node11&#45;&gt;Node6 -->
<g id="edge12_Node000011_Node000006" class="edge">
<title>Node11&#45;&gt;Node6</title>
<g id="a_edge12_Node000011_Node000006"><a xlink:title=" ">
<path fill="none" stroke="#63b8ff" d="M574.64,-54.84C565.39,-47.15 551.88,-35.9 540.79,-26.68"/>
<polygon fill="#63b8ff" stroke="#63b8ff" points="543.29,-24.2 533.36,-20.49 538.81,-29.58 543.29,-24.2"/>
</a>
</g>
</g>
<!-- Node11&#45;&gt;Node9 -->
<g id="edge11_Node000011_Node000009" class="edge">
<title>Node11&#45;&gt;Node9</title>
<g id="a_edge11_Node000011_Node000009"><a xlink:title=" ">
<path fill="none" stroke="#63b8ff" d="M599.07,-54.84C610.91,-46.96 628.34,-35.36 642.37,-26.02"/>
<polygon fill="#63b8ff" stroke="#63b8ff" points="644.22,-29 650.6,-20.54 640.34,-23.17 644.22,-29"/>
</a>
</g>
</g>
<!-- Node12 -->
<g id="Node000012" class="node">
<title>Node12</title>
<g id="a_Node000012"><a xlink:title=" ">
<polygon fill="#e0e0e0" stroke="#999999" points="608.12,-19.25 562.88,-19.25 562.88,0 608.12,0 608.12,-19.25"/>
<text text-anchor="middle" x="585.5" y="-5.75" font-family="Helvetica,sans-Serif" font-size="10.00">cstdint</text>
</a>
</g>
</g>
<!-- Node11&#45;&gt;Node12 -->
<g id="edge13_Node000011_Node000012" class="edge">
<title>Node11&#45;&gt;Node12</title>
<g id="a_edge13_Node000011_Node000012"><a xlink:title=" ">
<path fill="none" stroke="#63b8ff" d="M585.5,-55.08C585.5,-48.57 585.5,-39.42 585.5,-31.12"/>
<polygon fill="#63b8ff" stroke="#63b8ff" points="589,-31.12 585.5,-21.12 582,-31.12 589,-31.12"/>
</a>
</g>
</g>
<!-- Node11&#45;&gt;Node13 -->
<g id="edge14_Node000011_Node000013" class="edge">
<title>Node11&#45;&gt;Node13</title>
<g id="a_edge14_Node000011_Node000013"><a xlink:title=" ">
<path fill="none" stroke="#63b8ff" d="M557.68,-54.84C530.94,-46.16 490.28,-32.96 460.35,-23.24"/>
<polygon fill="#63b8ff" stroke="#63b8ff" points="461.49,-19.93 450.9,-20.17 459.33,-26.59 461.49,-19.93"/>
</a>
</g>
</g>
<!-- Node14&#45;&gt;Node7 -->
<g id="edge17_Node000014_Node000007" class="edge">
<title>Node14&#45;&gt;Node7</title>
<g id="a_edge17_Node000014_Node000007"><a xlink:title=" ">
<path fill="none" stroke="#63b8ff" d="M302.91,-54.84C290.06,-46.89 271.09,-35.14 255.93,-25.75"/>
<polygon fill="#63b8ff" stroke="#63b8ff" points="257.79,-22.79 247.45,-20.5 254.11,-28.74 257.79,-22.79"/>
</a>
</g>
</g>
<!-- Node14&#45;&gt;Node13 -->
<g id="edge19_Node000014_Node000013" class="edge">
<title>Node14&#45;&gt;Node13</title>
<g id="a_edge19_Node000014_Node000013"><a xlink:title=" ">
<path fill="none" stroke="#63b8ff" d="M335.14,-54.84C351.13,-46.66 374.96,-34.46 393.54,-24.94"/>
<polygon fill="#63b8ff" stroke="#63b8ff" points="395.12,-28.07 402.42,-20.39 391.93,-21.83 395.12,-28.07"/>
</a>
</g>
</g>
<!-- Node15 -->
<g id="Node000015" class="node">
<title>Node15</title>
<g id="a_Node000015"><a xlink:title=" ">
<polygon fill="#e0e0e0" stroke="#999999" points="344.25,-19.25 290.75,-19.25 290.75,0 344.25,0 344.25,-19.25"/>
<text text-anchor="middle" x="317.5" y="-5.75" font-family="Helvetica,sans-Serif" font-size="10.00">iostream</text>
</a>
</g>
</g>
<!-- Node14&#45;&gt;Node15 -->
<g id="edge16_Node000014_Node000015" class="edge">
<title>Node14&#45;&gt;Node15</title>
<g id="a_edge16_Node000014_Node000015"><a xlink:title=" ">
<path fill="none" stroke="#63b8ff" d="M317.5,-55.08C317.5,-48.57 317.5,-39.42 317.5,-31.12"/>
<polygon fill="#63b8ff" stroke="#63b8ff" points="321,-31.12 317.5,-21.12 314,-31.12 321,-31.12"/>
</a>
</g>
</g>
<!-- Node16 -->
<g id="Node000016" class="node">
<title>Node16</title>
<g id="a_Node000016"><a xlink:title=" ">
<polygon fill="#e0e0e0" stroke="#999999" points="167.5,-19.25 109.5,-19.25 109.5,0 167.5,0 167.5,-19.25"/>
<text text-anchor="middle" x="138.5" y="-5.75" font-family="Helvetica,sans-Serif" font-size="10.00">functional</text>
</a>
</g>
</g>
<!-- Node14&#45;&gt;Node16 -->
<g id="edge18_Node000014_Node000016" class="edge">
<title>Node14&#45;&gt;Node16</title>
<g id="a_edge18_Node000014_Node000016"><a xlink:title=" ">
<path fill="none" stroke="#63b8ff" d="M287.14,-54.84C257.2,-45.94 211.3,-32.28 178.43,-22.5"/>
<polygon fill="#63b8ff" stroke="#63b8ff" points="179.86,-19.28 169.27,-19.78 177.86,-25.99 179.86,-19.28"/>
</a>
</g>
</g>
<!-- Node17&#45;&gt;Node4 -->
<g id="edge22_Node000017_Node000004" class="edge">
<title>Node17&#45;&gt;Node4</title>
<g id="a_edge22_Node000017_Node000004"><a xlink:title=" ">
<path fill="none" stroke="#63b8ff" d="M103.71,-54.84C88.49,-46.66 65.8,-34.46 48.12,-24.94"/>
<polygon fill="#63b8ff" stroke="#63b8ff" points="50.17,-22.07 39.71,-20.42 46.86,-28.24 50.17,-22.07"/>
</a>
</g>
</g>
<!-- Node17&#45;&gt;Node16 -->
<g id="edge21_Node000017_Node000016" class="edge">
<title>Node17&#45;&gt;Node16</title>
<g id="a_edge21_Node000017_Node000016"><a xlink:title=" ">
<path fill="none" stroke="#63b8ff" d="M123.47,-55.08C125.75,-48.34 128.99,-38.77 131.87,-30.24"/>
<polygon fill="#63b8ff" stroke="#63b8ff" points="135.09,-31.64 134.98,-21.04 128.46,-29.4 135.09,-31.64"/>
</a>
</g>
</g>
<!-- Node19&#45;&gt;Node3 -->
<g id="edge28_Node000019_Node000003" class="edge">
<title>Node19&#45;&gt;Node3</title>
<g id="a_edge28_Node000019_Node000003"><a xlink:title=" ">
<path fill="none" stroke="#63b8ff" d="M616.67,-165.58C616.79,-159.07 616.96,-149.92 617.12,-141.62"/>
<polygon fill="#63b8ff" stroke="#63b8ff" points="620.61,-141.69 617.3,-131.62 613.62,-141.55 620.61,-141.69"/>
</a>
</g>
</g>
</g>
</svg>

<g id="navigator" transform="translate(0 0)" fill="#404254">
  <rect fill="#f2f5e9" fill-opacity="0.5" stroke="#606060" stroke-width=".5" x="0" y="0" width="60" height="60"/>
  <use id="zoomplus" xlink:href="#zoomPlus" x="17" y="9" onmousedown="handleZoom(evt,'in')"/>
  <use id="zoomminus" xlink:href="#zoomMin" x="42" y="9" onmousedown="handleZoom(evt,'out')"/>
  <use id="reset" xlink:href="#resetDef" x="30" y="36" onmousedown="handleReset()"/>
   <use id="arrowup" xlink:href="#arrowUp" x="0" y="0" onmousedown="handlePan(0,-1)"/>
  <use id="arrowright" xlink:href="#arrowRight" x="0" y="0" onmousedown="handlePan(1,0)"/>
  <use id="arrowdown" xlink:href="#arrowDown" x="0" y="0" onmousedown="handlePan(0,1)"/>
  <use id="arrowleft" xlink:href="#arrowLeft" x="0" y="0" onmousedown="handlePan(-1,0)"/>
</g>
<svg viewBox="0 0 15 15" width="100%" height="30px" preserveAspectRatio="xMaxYMin meet">
 <g id="arrow_out" transform="scale(0.3 0.3)">
  <a xlink:href="Dict_8cpp__incl_org.svg" target="_base">
   <rect id="button" ry="5" rx="5" y="6" x="6" height="38" width="38"
        fill="#f2f5e9" fill-opacity="0.5" stroke="#606060" stroke-width="1.0"/>
   <path id="arrow"
     d="M 11.500037,31.436501 C 11.940474,20.09759 22.043105,11.32322 32.158766,21.979434 L 37.068811,17.246167 C 37.068811,17.246167 37.088388,32 37.088388,32 L 22.160133,31.978069 C 22.160133,31.978069 26.997745,27.140456 26.997745,27.140456 C 18.528582,18.264221 13.291696,25.230495 11.500037,31.436501 z"
     style="fill:#404040;"/>
  </a>
 </g>
</svg>

<style type='text/css'>
<![CDATA[
[data-mouse-over-selected='false'] { opacity: 0.7; }
[data-mouse-over-selected='true']  { opacity: 1.0; }
]]>
</style>
<script type="application/ecmascript"><![CDATA[
document.addEventListener('DOMContentLoaded', (event) => {
  highlightEdges();
  highlightAdjacentNodes();
});
]]></script>
</svg>
