<?xml version="1.0" encoding="UTF-8" standalone="no"?>
<!DOCTYPE svg PUBLIC "-//W3C//DTD SVG 1.1//EN"
 "http://www.w3.org/Graphics/SVG/1.1/DTD/svg11.dtd">
<!-- Generated by graphviz version 12.2.0 (20241103.1931)
 -->
<!-- Title: /Users/fola/Documents/ArkScript/Ark/src/arkreactor/VM/Value/Dict.cpp Pages: 1 -->
<svg width="897pt" height="271pt"
 viewBox="0.00 0.00 897.38 270.75" xmlns="http://www.w3.org/2000/svg" xmlns:xlink="http://www.w3.org/1999/xlink">
<g id="graph0" class="graph" transform="scale(1 1) rotate(0) translate(4 266.75)">
<title>/Users/fola/Documents/ArkScript/Ark/src/arkreactor/VM/Value/Dict.cpp</title>
<!-- Node1 -->
<g id="Node000001" class="node">
<title>Node1</title>
<g id="a_Node000001"><a xlink:title=" ">
<polygon fill="#999999" stroke="#666666" points="706.75,-262.75 566.25,-262.75 566.25,-221 706.75,-221 706.75,-262.75"/>
<text text-anchor="start" x="574.25" y="-249.25" font-family="Helvetica,sans-Serif" font-size="10.00">/Users/fola/Documents</text>
<text text-anchor="start" x="574.25" y="-238" font-family="Helvetica,sans-Serif" font-size="10.00">/ArkScript/Ark/src/arkreactor</text>
<text text-anchor="middle" x="636.5" y="-226.75" font-family="Helvetica,sans-Serif" font-size="10.00">/VM/Value/Dict.cpp</text>
</a>
</g>
</g>
<!-- Node2 -->
<g id="Node000002" class="node">
<title>Node2</title>
<g id="a_Node000002"><a xlink:href="../../d9/df7/Dict_8hpp.html" target="_top" xlink:title="Define how dictionaries are handled.">
<polygon fill="white" stroke="#666666" points="552.38,-185 436.62,-185 436.62,-165.75 552.38,-165.75 552.38,-185"/>
<text text-anchor="middle" x="494.5" y="-171.5" font-family="Helvetica,sans-Serif" font-size="10.00">Ark/VM/Value/Dict.hpp</text>
</a>
</g>
</g>
<!-- Node1&#45;&gt;Node2 -->
<g id="edge1_Node000001_Node000002" class="edge">
<title>Node1&#45;&gt;Node2</title>
<g id="a_edge1_Node000001_Node000002"><a xlink:title=" ">
<path fill="none" stroke="#63b8ff" d="M591.96,-220.64C570.1,-210.71 544.34,-199.01 524.79,-190.13"/>
<polygon fill="#63b8ff" stroke="#63b8ff" points="526.29,-186.97 515.73,-186.02 523.39,-193.34 526.29,-186.97"/>
</a>
</g>
</g>
<!-- Node18 -->
<g id="Node000018" class="node">
<title>Node18</title>
<g id="a_Node000018"><a xlink:href="../../d4/d3e/DefaultValues_8hpp.html" target="_top" xlink:title=" ">
<polygon fill="white" stroke="#666666" points="702.25,-185 570.75,-185 570.75,-165.75 702.25,-165.75 702.25,-185"/>
<text text-anchor="middle" x="636.5" y="-171.5" font-family="Helvetica,sans-Serif" font-size="10.00">Ark/VM/DefaultValues.hpp</text>
</a>
</g>
</g>
<!-- Node1&#45;&gt;Node18 -->
<g id="edge26_Node000001_Node000018" class="edge">
<title>Node1&#45;&gt;Node18</title>
<g id="a_edge26_Node000001_Node000018"><a xlink:title=" ">
<path fill="none" stroke="#63b8ff" d="M636.5,-220.82C636.5,-213.15 636.5,-204.39 636.5,-196.7"/>
<polygon fill="#63b8ff" stroke="#63b8ff" points="640,-196.96 636.5,-186.96 633,-196.96 640,-196.96"/>
</a>
</g>
</g>
<!-- Node19 -->
<g id="Node000019" class="node">
<title>Node19</title>
<g id="a_Node000019"><a xlink:title=" ">
<polygon fill="#e0e0e0" stroke="#999999" points="765.12,-185 719.88,-185 719.88,-165.75 765.12,-165.75 765.12,-185"/>
<text text-anchor="middle" x="742.5" y="-171.5" font-family="Helvetica,sans-Serif" font-size="10.00">ranges</text>
</a>
</g>
</g>
<!-- Node1&#45;&gt;Node19 -->
<g id="edge28_Node000001_Node000019" class="edge">
<title>Node1&#45;&gt;Node19</title>
<g id="a_edge28_Node000001_Node000019"><a xlink:title=" ">
<path fill="none" stroke="#63b8ff" d="M669.75,-220.64C685.38,-211.13 703.69,-199.99 718.03,-191.26"/>
<polygon fill="#63b8ff" stroke="#63b8ff" points="719.66,-194.37 726.38,-186.18 716.02,-188.39 719.66,-194.37"/>
</a>
</g>
</g>
<!-- Node3 -->
<g id="Node000003" class="node">
<title>Node3</title>
<g id="a_Node000003"><a xlink:href="../../de/dfd/Value_8hpp.html" target="_top" xlink:title="Default value type handled by the virtual machine.">
<polygon fill="white" stroke="#666666" points="683.88,-129.75 589.12,-129.75 589.12,-110.5 683.88,-110.5 683.88,-129.75"/>
<text text-anchor="middle" x="636.5" y="-116.25" font-family="Helvetica,sans-Serif" font-size="10.00">Ark/VM/Value.hpp</text>
</a>
</g>
</g>
<!-- Node2&#45;&gt;Node3 -->
<g id="edge2_Node000002_Node000003" class="edge">
<title>Node2&#45;&gt;Node3</title>
<g id="a_edge2_Node000002_Node000003"><a xlink:title=" ">
<path fill="none" stroke="#63b8ff" d="M518.59,-165.34C541.44,-156.77 576.02,-143.81 601.83,-134.13"/>
<polygon fill="#63b8ff" stroke="#63b8ff" points="602.74,-137.52 610.88,-130.73 600.28,-130.97 602.74,-137.52"/>
</a>
</g>
</g>
<!-- Node4 -->
<g id="Node000004" class="node">
<title>Node4</title>
<g id="a_Node000004"><a xlink:title=" ">
<polygon fill="#e0e0e0" stroke="#999999" points="43,-19.25 0,-19.25 0,0 43,0 43,-19.25"/>
<text text-anchor="middle" x="21.5" y="-5.75" font-family="Helvetica,sans-Serif" font-size="10.00">vector</text>
</a>
</g>
</g>
<!-- Node2&#45;&gt;Node4 -->
<g id="edge25_Node000002_Node000004" class="edge">
<title>Node2&#45;&gt;Node4</title>
<g id="a_edge25_Node000002_Node000004"><a xlink:title=" ">
<path fill="none" stroke="#63b8ff" d="M436.36,-170.75C322.33,-162.31 75.86,-137.09 23.5,-74.5 13.48,-62.52 13.87,-44.4 16.26,-30.52"/>
<polygon fill="#63b8ff" stroke="#63b8ff" points="19.59,-31.67 18.33,-21.15 12.76,-30.16 19.59,-31.67"/>
</a>
</g>
</g>
<!-- Node12 -->
<g id="Node000012" class="node">
<title>Node12</title>
<g id="a_Node000012"><a xlink:href="../../d5/d40/Platform_8hpp.html" target="_top" xlink:title="ArkScript configuration macros.">
<polygon fill="white" stroke="#666666" points="500.88,-19.25 388.12,-19.25 388.12,0 500.88,0 500.88,-19.25"/>
<text text-anchor="middle" x="444.5" y="-5.75" font-family="Helvetica,sans-Serif" font-size="10.00">Ark/Utils/Platform.hpp</text>
</a>
</g>
</g>
<!-- Node2&#45;&gt;Node12 -->
<g id="edge23_Node000002_Node000012" class="edge">
<title>Node2&#45;&gt;Node12</title>
<g id="a_edge23_Node000002_Node000012"><a xlink:title=" ">
<path fill="none" stroke="#63b8ff" d="M474.03,-165.35C460.09,-157.98 442.72,-146.11 434.5,-129.75 418.48,-97.86 428.49,-55.07 436.79,-30.4"/>
<polygon fill="#63b8ff" stroke="#63b8ff" points="440.08,-31.61 440.2,-21.02 433.5,-29.22 440.08,-31.61"/>
</a>
</g>
</g>
<!-- Node17 -->
<g id="Node000017" class="node">
<title>Node17</title>
<g id="a_Node000017"><a xlink:title=" ">
<polygon fill="#e0e0e0" stroke="#999999" points="571.38,-129.75 443.62,-129.75 443.62,-110.5 571.38,-110.5 571.38,-129.75"/>
<text text-anchor="middle" x="507.5" y="-116.25" font-family="Helvetica,sans-Serif" font-size="10.00">ankerl/unordered_dense.h</text>
</a>
</g>
</g>
<!-- Node2&#45;&gt;Node17 -->
<g id="edge24_Node000002_Node000017" class="edge">
<title>Node2&#45;&gt;Node17</title>
<g id="a_edge24_Node000002_Node000017"><a xlink:title=" ">
<path fill="none" stroke="#63b8ff" d="M496.65,-165.58C498.27,-158.92 500.58,-149.49 502.64,-141.03"/>
<polygon fill="#63b8ff" stroke="#63b8ff" points="505.98,-142.12 504.95,-131.58 499.18,-140.46 505.98,-142.12"/>
</a>
</g>
</g>
<!-- Node3&#45;&gt;Node4 -->
<g id="edge3_Node000003_Node000004" class="edge">
<title>Node3&#45;&gt;Node4</title>
<g id="a_edge3_Node000003_Node000004"><a xlink:title=" ">
<path fill="none" stroke="#63b8ff" d="M588.88,-111.5C586.05,-111.14 583.24,-110.8 580.5,-110.5 520.73,-103.92 87.48,-112.04 40.5,-74.5 27.5,-64.11 23.11,-45.23 21.76,-30.68"/>
<polygon fill="#63b8ff" stroke="#63b8ff" points="25.26,-30.66 21.29,-20.84 18.27,-31 25.26,-30.66"/>
</a>
</g>
</g>
<!-- Node5 -->
<g id="Node000005" class="node">
<title>Node5</title>
<g id="a_Node000005"><a xlink:title=" ">
<polygon fill="#e0e0e0" stroke="#999999" points="753.12,-74.5 707.88,-74.5 707.88,-55.25 753.12,-55.25 753.12,-74.5"/>
<text text-anchor="middle" x="730.5" y="-61" font-family="Helvetica,sans-Serif" font-size="10.00">variant</text>
</a>
</g>
</g>
<!-- Node3&#45;&gt;Node5 -->
<g id="edge4_Node000003_Node000005" class="edge">
<title>Node3&#45;&gt;Node5</title>
<g id="a_edge4_Node000003_Node000005"><a xlink:title=" ">
<path fill="none" stroke="#63b8ff" d="M652.45,-110.09C666.76,-101.98 688.03,-89.93 704.75,-80.46"/>
<polygon fill="#63b8ff" stroke="#63b8ff" points="706.18,-83.67 713.16,-75.7 702.73,-77.58 706.18,-83.67"/>
</a>
</g>
</g>
<!-- Node6 -->
<g id="Node000006" class="node">
<title>Node6</title>
<g id="a_Node000006"><a xlink:title=" ">
<polygon fill="#e0e0e0" stroke="#999999" points="575.5,-19.25 535.5,-19.25 535.5,0 575.5,0 575.5,-19.25"/>
<text text-anchor="middle" x="555.5" y="-5.75" font-family="Helvetica,sans-Serif" font-size="10.00">string</text>
</a>
</g>
</g>
<!-- Node3&#45;&gt;Node6 -->
<g id="edge5_Node000003_Node000006" class="edge">
<title>Node3&#45;&gt;Node6</title>
<g id="a_edge5_Node000003_Node000006"><a xlink:title=" ">
<path fill="none" stroke="#63b8ff" d="M636.58,-110.04C636.27,-96.85 634.03,-72.12 622.5,-55.25 613.48,-42.05 599.14,-31.73 586.03,-24.36"/>
<polygon fill="#63b8ff" stroke="#63b8ff" points="587.74,-21.31 577.26,-19.78 584.5,-27.51 587.74,-21.31"/>
</a>
</g>
</g>
<!-- Node7 -->
<g id="Node000007" class="node">
<title>Node7</title>
<g id="a_Node000007"><a xlink:title=" ">
<polygon fill="#e0e0e0" stroke="#999999" points="259.38,-19.25 203.62,-19.25 203.62,0 259.38,0 259.38,-19.25"/>
<text text-anchor="middle" x="231.5" y="-5.75" font-family="Helvetica,sans-Serif" font-size="10.00">cinttypes</text>
</a>
</g>
</g>
<!-- Node3&#45;&gt;Node7 -->
<g id="edge6_Node000003_Node000007" class="edge">
<title>Node3&#45;&gt;Node7</title>
<g id="a_edge6_Node000003_Node000007"><a xlink:title=" ">
<path fill="none" stroke="#63b8ff" d="M588.86,-111.63C586.04,-111.23 583.23,-110.85 580.5,-110.5 504.71,-100.68 292.65,-128.42 238.5,-74.5 227.25,-63.3 226.34,-44.81 227.76,-30.6"/>
<polygon fill="#63b8ff" stroke="#63b8ff" points="231.18,-31.41 229.18,-21 224.25,-30.38 231.18,-31.41"/>
</a>
</g>
</g>
<!-- Node8 -->
<g id="Node000008" class="node">
<title>Node8</title>
<g id="a_Node000008"><a xlink:title=" ">
<polygon fill="#e0e0e0" stroke="#999999" points="809.38,-74.5 771.62,-74.5 771.62,-55.25 809.38,-55.25 809.38,-74.5"/>
<text text-anchor="middle" x="790.5" y="-61" font-family="Helvetica,sans-Serif" font-size="10.00">array</text>
</a>
</g>
</g>
<!-- Node3&#45;&gt;Node8 -->
<g id="edge7_Node000003_Node000008" class="edge">
<title>Node3&#45;&gt;Node8</title>
<g id="a_edge7_Node000003_Node000008"><a xlink:title=" ">
<path fill="none" stroke="#63b8ff" d="M662.62,-110.09C689.9,-100.66 732.58,-85.9 761.04,-76.06"/>
<polygon fill="#63b8ff" stroke="#63b8ff" points="761.81,-79.5 770.12,-72.92 759.52,-72.88 761.81,-79.5"/>
</a>
</g>
</g>
<!-- Node9 -->
<g id="Node000009" class="node">
<title>Node9</title>
<g id="a_Node000009"><a xlink:title=" ">
<polygon fill="#e0e0e0" stroke="#999999" points="679.12,-19.25 627.88,-19.25 627.88,0 679.12,0 679.12,-19.25"/>
<text text-anchor="middle" x="653.5" y="-5.75" font-family="Helvetica,sans-Serif" font-size="10.00">memory</text>
</a>
</g>
</g>
<!-- Node3&#45;&gt;Node9 -->
<g id="edge8_Node000003_Node000009" class="edge">
<title>Node3&#45;&gt;Node9</title>
<g id="a_edge8_Node000003_Node000009"><a xlink:title=" ">
<path fill="none" stroke="#63b8ff" d="M641.55,-110.24C646.23,-101.48 652.84,-87.54 655.5,-74.5 658.46,-59.99 657.79,-43.24 656.47,-30.54"/>
<polygon fill="#63b8ff" stroke="#63b8ff" points="659.98,-30.39 655.24,-20.91 653.04,-31.28 659.98,-30.39"/>
</a>
</g>
</g>
<!-- Node10 -->
<g id="Node000010" class="node">
<title>Node10</title>
<g id="a_Node000010"><a xlink:title=" ">
<polygon fill="#e0e0e0" stroke="#999999" points="889.38,-74.5 827.62,-74.5 827.62,-55.25 889.38,-55.25 889.38,-74.5"/>
<text text-anchor="middle" x="858.5" y="-61" font-family="Helvetica,sans-Serif" font-size="10.00">type_traits</text>
</a>
</g>
</g>
<!-- Node3&#45;&gt;Node10 -->
<g id="edge9_Node000003_Node000010" class="edge">
<title>Node3&#45;&gt;Node10</title>
<g id="a_edge9_Node000003_Node000010"><a xlink:title=" ">
<path fill="none" stroke="#63b8ff" d="M674.41,-110.03C713.8,-100.58 775.3,-85.83 816.24,-76.01"/>
<polygon fill="#63b8ff" stroke="#63b8ff" points="816.82,-79.47 825.73,-73.74 815.19,-72.66 816.82,-79.47"/>
</a>
</g>
</g>
<!-- Node11 -->
<g id="Node000011" class="node">
<title>Node11</title>
<g id="a_Node000011"><a xlink:href="../../dc/dd5/Closure_8hpp.html" target="_top" xlink:title="Subtype of the value type, handling closures.">
<polygon fill="white" stroke="#666666" points="613.25,-74.5 481.75,-74.5 481.75,-55.25 613.25,-55.25 613.25,-74.5"/>
<text text-anchor="middle" x="547.5" y="-61" font-family="Helvetica,sans-Serif" font-size="10.00">Ark/VM/Value/Closure.hpp</text>
</a>
</g>
</g>
<!-- Node3&#45;&gt;Node11 -->
<g id="edge10_Node000003_Node000011" class="edge">
<title>Node3&#45;&gt;Node11</title>
<g id="a_edge10_Node000003_Node000011"><a xlink:title=" ">
<path fill="none" stroke="#63b8ff" d="M621.4,-110.09C607.98,-102.06 588.09,-90.16 572.33,-80.73"/>
<polygon fill="#63b8ff" stroke="#63b8ff" points="574.35,-77.86 563.97,-75.73 570.75,-83.87 574.35,-77.86"/>
</a>
</g>
</g>
<!-- Node3&#45;&gt;Node12 -->
<g id="edge22_Node000003_Node000012" class="edge">
<title>Node3&#45;&gt;Node12</title>
<g id="a_edge22_Node000003_Node000012"><a xlink:title=" ">
<path fill="none" stroke="#63b8ff" d="M588.96,-110.9C547.02,-102.81 489.93,-89.53 472.5,-74.5 459.45,-63.25 452.26,-44.77 448.44,-30.57"/>
<polygon fill="#63b8ff" stroke="#63b8ff" points="451.88,-29.93 446.23,-20.96 445.06,-31.49 451.88,-29.93"/>
</a>
</g>
</g>
<!-- Node13 -->
<g id="Node000013" class="node">
<title>Node13</title>
<g id="a_Node000013"><a xlink:href="../../dc/d3d/UserType_8hpp.html" target="_top" xlink:title="Subtype of the value, capable of handling any C++ type.">
<polygon fill="white" stroke="#666666" points="387.38,-74.5 247.62,-74.5 247.62,-55.25 387.38,-55.25 387.38,-74.5"/>
<text text-anchor="middle" x="317.5" y="-61" font-family="Helvetica,sans-Serif" font-size="10.00">Ark/VM/Value/UserType.hpp</text>
</a>
</g>
</g>
<!-- Node3&#45;&gt;Node13 -->
<g id="edge14_Node000003_Node000013" class="edge">
<title>Node3&#45;&gt;Node13</title>
<g id="a_edge14_Node000003_Node000013"><a xlink:title=" ">
<path fill="none" stroke="#63b8ff" d="M588.74,-111.15C534.09,-102.03 444.27,-87.04 383.08,-76.82"/>
<polygon fill="#63b8ff" stroke="#63b8ff" points="383.94,-73.42 373.5,-75.22 382.79,-80.32 383.94,-73.42"/>
</a>
</g>
</g>
<!-- Node16 -->
<g id="Node000016" class="node">
<title>Node16</title>
<g id="a_Node000016"><a xlink:href="../../da/dcf/Procedure_8hpp.html" target="_top" xlink:title="Wrapper object for user&#45;defined functions.">
<polygon fill="white" stroke="#666666" points="191.5,-74.5 49.5,-74.5 49.5,-55.25 191.5,-55.25 191.5,-74.5"/>
<text text-anchor="middle" x="120.5" y="-61" font-family="Helvetica,sans-Serif" font-size="10.00">Ark/VM/Value/Procedure.hpp</text>
</a>
</g>
</g>
<!-- Node3&#45;&gt;Node16 -->
<g id="edge19_Node000003_Node000016" class="edge">
<title>Node3&#45;&gt;Node16</title>
<g id="a_edge19_Node000003_Node000016"><a xlink:title=" ">
<path fill="none" stroke="#63b8ff" d="M588.87,-111.6C586.04,-111.21 583.23,-110.84 580.5,-110.5 414.36,-89.75 372.12,-90.95 205.5,-74.5 204.67,-74.42 203.83,-74.34 203,-74.25"/>
<polygon fill="#63b8ff" stroke="#63b8ff" points="203.72,-70.81 193.42,-73.3 203.03,-77.77 203.72,-70.81"/>
</a>
</g>
</g>
<!-- Node11&#45;&gt;Node6 -->
<g id="edge12_Node000011_Node000006" class="edge">
<title>Node11&#45;&gt;Node6</title>
<g id="a_edge12_Node000011_Node000006"><a xlink:title=" ">
<path fill="none" stroke="#63b8ff" d="M548.82,-55.08C549.81,-48.49 551.21,-39.21 552.47,-30.82"/>
<polygon fill="#63b8ff" stroke="#63b8ff" points="555.9,-31.51 553.93,-21.11 548.98,-30.47 555.9,-31.51"/>
</a>
</g>
</g>
<!-- Node11&#45;&gt;Node9 -->
<g id="edge11_Node000011_Node000009" class="edge">
<title>Node11&#45;&gt;Node9</title>
<g id="a_edge11_Node000011_Node000009"><a xlink:title=" ">
<path fill="none" stroke="#63b8ff" d="M565.48,-54.84C581.85,-46.62 606.29,-34.34 625.26,-24.81"/>
<polygon fill="#63b8ff" stroke="#63b8ff" points="626.71,-28 634.08,-20.38 623.57,-21.74 626.71,-28"/>
</a>
</g>
</g>
<!-- Node11&#45;&gt;Node12 -->
<g id="edge13_Node000011_Node000012" class="edge">
<title>Node11&#45;&gt;Node12</title>
<g id="a_edge13_Node000011_Node000012"><a xlink:title=" ">
<path fill="none" stroke="#63b8ff" d="M530.03,-54.84C514.19,-46.66 490.59,-34.46 472.19,-24.94"/>
<polygon fill="#63b8ff" stroke="#63b8ff" points="473.89,-21.88 463.4,-20.4 470.68,-28.1 473.89,-21.88"/>
</a>
</g>
</g>
<!-- Node13&#45;&gt;Node7 -->
<g id="edge16_Node000013_Node000007" class="edge">
<title>Node13&#45;&gt;Node7</title>
<g id="a_edge16_Node000013_Node000007"><a xlink:title=" ">
<path fill="none" stroke="#63b8ff" d="M302.91,-54.84C290.06,-46.89 271.09,-35.14 255.93,-25.75"/>
<polygon fill="#63b8ff" stroke="#63b8ff" points="257.79,-22.79 247.45,-20.5 254.11,-28.74 257.79,-22.79"/>
</a>
</g>
</g>
<!-- Node13&#45;&gt;Node12 -->
<g id="edge18_Node000013_Node000012" class="edge">
<title>Node13&#45;&gt;Node12</title>
<g id="a_edge18_Node000013_Node000012"><a xlink:title=" ">
<path fill="none" stroke="#63b8ff" d="M339.04,-54.84C359.11,-46.43 389.3,-33.77 412.25,-24.15"/>
<polygon fill="#63b8ff" stroke="#63b8ff" points="413.59,-27.38 421.45,-20.29 410.88,-20.93 413.59,-27.38"/>
</a>
</g>
</g>
<!-- Node14 -->
<g id="Node000014" class="node">
<title>Node14</title>
<g id="a_Node000014"><a xlink:title=" ">
<polygon fill="#e0e0e0" stroke="#999999" points="344.25,-19.25 290.75,-19.25 290.75,0 344.25,0 344.25,-19.25"/>
<text text-anchor="middle" x="317.5" y="-5.75" font-family="Helvetica,sans-Serif" font-size="10.00">iostream</text>
</a>
</g>
</g>
<!-- Node13&#45;&gt;Node14 -->
<g id="edge15_Node000013_Node000014" class="edge">
<title>Node13&#45;&gt;Node14</title>
<g id="a_edge15_Node000013_Node000014"><a xlink:title=" ">
<path fill="none" stroke="#63b8ff" d="M317.5,-55.08C317.5,-48.57 317.5,-39.42 317.5,-31.12"/>
<polygon fill="#63b8ff" stroke="#63b8ff" points="321,-31.12 317.5,-21.12 314,-31.12 321,-31.12"/>
</a>
</g>
</g>
<!-- Node15 -->
<g id="Node000015" class="node">
<title>Node15</title>
<g id="a_Node000015"><a xlink:title=" ">
<polygon fill="#e0e0e0" stroke="#999999" points="161.5,-19.25 103.5,-19.25 103.5,0 161.5,0 161.5,-19.25"/>
<text text-anchor="middle" x="132.5" y="-5.75" font-family="Helvetica,sans-Serif" font-size="10.00">functional</text>
</a>
</g>
</g>
<!-- Node13&#45;&gt;Node15 -->
<g id="edge17_Node000013_Node000015" class="edge">
<title>Node13&#45;&gt;Node15</title>
<g id="a_edge17_Node000013_Node000015"><a xlink:title=" ">
<path fill="none" stroke="#63b8ff" d="M286.12,-54.84C254.9,-45.86 206.89,-32.04 172.86,-22.24"/>
<polygon fill="#63b8ff" stroke="#63b8ff" points="173.93,-18.91 163.35,-19.5 171.99,-25.63 173.93,-18.91"/>
</a>
</g>
</g>
<!-- Node16&#45;&gt;Node4 -->
<g id="edge21_Node000016_Node000004" class="edge">
<title>Node16&#45;&gt;Node4</title>
<g id="a_edge21_Node000016_Node000004"><a xlink:title=" ">
<path fill="none" stroke="#63b8ff" d="M103.71,-54.84C88.49,-46.66 65.8,-34.46 48.12,-24.94"/>
<polygon fill="#63b8ff" stroke="#63b8ff" points="50.17,-22.07 39.71,-20.42 46.86,-28.24 50.17,-22.07"/>
</a>
</g>
</g>
<!-- Node16&#45;&gt;Node15 -->
<g id="edge20_Node000016_Node000015" class="edge">
<title>Node16&#45;&gt;Node15</title>
<g id="a_edge20_Node000016_Node000015"><a xlink:title=" ">
<path fill="none" stroke="#63b8ff" d="M122.48,-55.08C123.97,-48.49 126.06,-39.21 127.95,-30.82"/>
<polygon fill="#63b8ff" stroke="#63b8ff" points="131.36,-31.61 130.14,-21.09 124.53,-30.07 131.36,-31.61"/>
</a>
</g>
</g>
<!-- Node18&#45;&gt;Node3 -->
<g id="edge27_Node000018_Node000003" class="edge">
<title>Node18&#45;&gt;Node3</title>
<g id="a_edge27_Node000018_Node000003"><a xlink:title=" ">
<path fill="none" stroke="#63b8ff" d="M636.5,-165.58C636.5,-159.07 636.5,-149.92 636.5,-141.62"/>
<polygon fill="#63b8ff" stroke="#63b8ff" points="640,-141.62 636.5,-131.62 633,-141.62 640,-141.62"/>
</a>
</g>
</g>
</g>
</svg>
