<?xml version="1.0" encoding="UTF-8" standalone="no"?>
<!DOCTYPE svg PUBLIC "-//W3C//DTD SVG 1.1//EN"
 "http://www.w3.org/Graphics/SVG/1.1/DTD/svg11.dtd">
<!-- Generated by graphviz version 12.2.0 (20241103.1931)
 -->
<!-- Title: /Users/fola/Documents/ArkScript/Ark/src/arkreactor/Compiler/Macros/Executor.cpp Pages: 1 -->
<svg width="1264pt" height="404pt"
 viewBox="0.00 0.00 1264.05 403.75" xmlns="http://www.w3.org/2000/svg" xmlns:xlink="http://www.w3.org/1999/xlink">
<g id="graph0" class="graph" transform="scale(1 1) rotate(0) translate(4 399.75)">
<title>/Users/fola/Documents/ArkScript/Ark/src/arkreactor/Compiler/Macros/Executor.cpp</title>
<!-- Node1 -->
<g id="Node000001" class="node">
<title>Node1</title>
<g id="a_Node000001"><a xlink:title=" ">
<polygon fill="#999999" stroke="#666666" points="497.5,-395.75 344.25,-395.75 344.25,-354 497.5,-354 497.5,-395.75"/>
<text text-anchor="start" x="352.25" y="-382.25" font-family="Helvetica,sans-Serif" font-size="10.00">/Users/fola/Documents</text>
<text text-anchor="start" x="352.25" y="-371" font-family="Helvetica,sans-Serif" font-size="10.00">/ArkScript/Ark/src/arkreactor</text>
<text text-anchor="middle" x="420.88" y="-359.75" font-family="Helvetica,sans-Serif" font-size="10.00">/Compiler/Macros/Executor.cpp</text>
</a>
</g>
</g>
<!-- Node2 -->
<g id="Node000002" class="node">
<title>Node2</title>
<g id="a_Node000002"><a xlink:href="../../d4/d1a/Executor_8hpp.html" target="_top" xlink:title="The base class for all MacroExecutors.">
<polygon fill="white" stroke="#666666" points="408,-318 299.75,-318 299.75,-287.5 408,-287.5 408,-318"/>
<text text-anchor="start" x="307.75" y="-304.5" font-family="Helvetica,sans-Serif" font-size="10.00">Ark/Compiler/Macros</text>
<text text-anchor="middle" x="353.88" y="-293.25" font-family="Helvetica,sans-Serif" font-size="10.00">/Executor.hpp</text>
</a>
</g>
</g>
<!-- Node1&#45;&gt;Node2 -->
<g id="edge1_Node000001_Node000002" class="edge">
<title>Node1&#45;&gt;Node2</title>
<g id="a_edge1_Node000001_Node000002"><a xlink:title=" ">
<path fill="none" stroke="#63b8ff" d="M401.5,-353.59C393.38,-345.1 383.91,-335.19 375.56,-326.45"/>
<polygon fill="#63b8ff" stroke="#63b8ff" points="378.17,-324.11 368.73,-319.29 373.1,-328.94 378.17,-324.11"/>
</a>
</g>
</g>
<!-- Node19 -->
<g id="Node000019" class="node">
<title>Node19</title>
<g id="a_Node000019"><a xlink:href="../../de/db1/Processor_8hpp.html" target="_top" xlink:title="Handles the macros and their expansion in ArkScript source code.">
<polygon fill="white" stroke="#666666" points="637,-318 528.75,-318 528.75,-287.5 637,-287.5 637,-318"/>
<text text-anchor="start" x="536.75" y="-304.5" font-family="Helvetica,sans-Serif" font-size="10.00">Ark/Compiler/Macros</text>
<text text-anchor="middle" x="582.88" y="-293.25" font-family="Helvetica,sans-Serif" font-size="10.00">/Processor.hpp</text>
</a>
</g>
</g>
<!-- Node1&#45;&gt;Node19 -->
<g id="edge23_Node000001_Node000019" class="edge">
<title>Node1&#45;&gt;Node19</title>
<g id="a_edge23_Node000001_Node000019"><a xlink:title=" ">
<path fill="none" stroke="#63b8ff" d="M467.73,-353.59C490.06,-343.93 516.62,-332.43 538.6,-322.92"/>
<polygon fill="#63b8ff" stroke="#63b8ff" points="539.81,-326.21 547.6,-319.02 537.03,-319.78 539.81,-326.21"/>
</a>
</g>
</g>
<!-- Node3 -->
<g id="Node000003" class="node">
<title>Node3</title>
<g id="a_Node000003"><a xlink:title=" ">
<polygon fill="#e0e0e0" stroke="#999999" points="404.75,-245.88 355,-245.88 355,-226.62 404.75,-226.62 404.75,-245.88"/>
<text text-anchor="middle" x="379.88" y="-232.38" font-family="Helvetica,sans-Serif" font-size="10.00">optional</text>
</a>
</g>
</g>
<!-- Node2&#45;&gt;Node3 -->
<g id="edge2_Node000002_Node000003" class="edge">
<title>Node2&#45;&gt;Node3</title>
<g id="a_edge2_Node000002_Node000003"><a xlink:title=" ">
<path fill="none" stroke="#63b8ff" d="M359.77,-287.11C363.44,-278.03 368.18,-266.26 372.14,-256.43"/>
<polygon fill="#63b8ff" stroke="#63b8ff" points="375.26,-258.06 375.75,-247.48 368.77,-255.44 375.26,-258.06"/>
</a>
</g>
</g>
<!-- Node4 -->
<g id="Node000004" class="node">
<title>Node4</title>
<g id="a_Node000004"><a xlink:title=" ">
<polygon fill="#e0e0e0" stroke="#999999" points="89.25,-129.75 6.5,-129.75 6.5,-110.5 89.25,-110.5 89.25,-129.75"/>
<text text-anchor="middle" x="47.88" y="-116.25" font-family="Helvetica,sans-Serif" font-size="10.00">unordered_map</text>
</a>
</g>
</g>
<!-- Node2&#45;&gt;Node4 -->
<g id="edge3_Node000002_Node000004" class="edge">
<title>Node2&#45;&gt;Node4</title>
<g id="a_edge3_Node000002_Node000004"><a xlink:title=" ">
<path fill="none" stroke="#63b8ff" d="M329.09,-287.12C271.76,-253.28 130.51,-169.9 72.92,-135.91"/>
<polygon fill="#63b8ff" stroke="#63b8ff" points="74.88,-133 64.49,-130.93 71.32,-139.03 74.88,-133"/>
</a>
</g>
</g>
<!-- Node5 -->
<g id="Node000005" class="node">
<title>Node5</title>
<g id="a_Node000005"><a xlink:href="../../d7/dc6/Node_8hpp.html" target="_top" xlink:title="AST node used by the parser, optimizer and compiler.">
<polygon fill="white" stroke="#666666" points="639.12,-185 498.62,-185 498.62,-165.75 639.12,-165.75 639.12,-185"/>
<text text-anchor="middle" x="568.88" y="-171.5" font-family="Helvetica,sans-Serif" font-size="10.00">Ark/Compiler/AST/Node.hpp</text>
</a>
</g>
</g>
<!-- Node2&#45;&gt;Node5 -->
<g id="edge4_Node000002_Node000005" class="edge">
<title>Node2&#45;&gt;Node5</title>
<g id="a_edge4_Node000002_Node000005"><a xlink:title=" ">
<path fill="none" stroke="#63b8ff" d="M346.76,-287.12C339.3,-269.4 330.6,-239.63 345.88,-221 363.73,-199.22 430.95,-187.85 486.96,-182.06"/>
<polygon fill="#63b8ff" stroke="#63b8ff" points="487.24,-185.55 496.85,-181.09 486.56,-178.58 487.24,-185.55"/>
</a>
</g>
</g>
<!-- Node6 -->
<g id="Node000006" class="node">
<title>Node6</title>
<g id="a_Node000006"><a xlink:title=" ">
<polygon fill="#e0e0e0" stroke="#999999" points="531.5,-129.75 486.25,-129.75 486.25,-110.5 531.5,-110.5 531.5,-129.75"/>
<text text-anchor="middle" x="508.88" y="-116.25" font-family="Helvetica,sans-Serif" font-size="10.00">variant</text>
</a>
</g>
</g>
<!-- Node5&#45;&gt;Node6 -->
<g id="edge5_Node000005_Node000006" class="edge">
<title>Node5&#45;&gt;Node6</title>
<g id="a_edge5_Node000005_Node000006"><a xlink:title=" ">
<path fill="none" stroke="#63b8ff" d="M558.7,-165.34C550.11,-157.72 537.61,-146.62 527.27,-137.45"/>
<polygon fill="#63b8ff" stroke="#63b8ff" points="529.84,-135.05 520.03,-131.03 525.19,-140.29 529.84,-135.05"/>
</a>
</g>
</g>
<!-- Node7 -->
<g id="Node000007" class="node">
<title>Node7</title>
<g id="a_Node000007"><a xlink:title=" ">
<polygon fill="#e0e0e0" stroke="#999999" points="600.5,-129.75 549.25,-129.75 549.25,-110.5 600.5,-110.5 600.5,-129.75"/>
<text text-anchor="middle" x="574.88" y="-116.25" font-family="Helvetica,sans-Serif" font-size="10.00">ostream</text>
</a>
</g>
</g>
<!-- Node5&#45;&gt;Node7 -->
<g id="edge6_Node000005_Node000007" class="edge">
<title>Node5&#45;&gt;Node7</title>
<g id="a_edge6_Node000005_Node000007"><a xlink:title=" ">
<path fill="none" stroke="#63b8ff" d="M569.87,-165.58C570.61,-158.99 571.65,-149.71 572.6,-141.32"/>
<polygon fill="#63b8ff" stroke="#63b8ff" points="576.05,-141.94 573.69,-131.61 569.1,-141.16 576.05,-141.94"/>
</a>
</g>
</g>
<!-- Node8 -->
<g id="Node000008" class="node">
<title>Node8</title>
<g id="a_Node000008"><a xlink:title=" ">
<polygon fill="#e0e0e0" stroke="#999999" points="686.88,-74.5 646.88,-74.5 646.88,-55.25 686.88,-55.25 686.88,-74.5"/>
<text text-anchor="middle" x="666.88" y="-61" font-family="Helvetica,sans-Serif" font-size="10.00">string</text>
</a>
</g>
</g>
<!-- Node5&#45;&gt;Node8 -->
<g id="edge7_Node000005_Node000008" class="edge">
<title>Node5&#45;&gt;Node8</title>
<g id="a_edge7_Node000005_Node000008"><a xlink:title=" ">
<path fill="none" stroke="#63b8ff" d="M577.08,-165.52C585.39,-156.54 598.58,-142.23 609.88,-129.75 624.16,-113.97 640.31,-95.85 651.76,-82.95"/>
<polygon fill="#63b8ff" stroke="#63b8ff" points="654.15,-85.53 658.17,-75.72 648.91,-80.88 654.15,-85.53"/>
</a>
</g>
</g>
<!-- Node9 -->
<g id="Node000009" class="node">
<title>Node9</title>
<g id="a_Node000009"><a xlink:title=" ">
<polygon fill="#e0e0e0" stroke="#999999" points="328.38,-74.5 285.38,-74.5 285.38,-55.25 328.38,-55.25 328.38,-74.5"/>
<text text-anchor="middle" x="306.88" y="-61" font-family="Helvetica,sans-Serif" font-size="10.00">vector</text>
</a>
</g>
</g>
<!-- Node5&#45;&gt;Node9 -->
<g id="edge8_Node000005_Node000009" class="edge">
<title>Node5&#45;&gt;Node9</title>
<g id="a_edge8_Node000005_Node000009"><a xlink:title=" ">
<path fill="none" stroke="#63b8ff" d="M498.32,-165.44C417.63,-154.88 295.68,-137.73 288.88,-129.75 278.03,-117.04 285.25,-98.23 293.55,-84.31"/>
<polygon fill="#63b8ff" stroke="#63b8ff" points="296.4,-86.34 298.99,-76.07 290.56,-82.48 296.4,-86.34"/>
</a>
</g>
</g>
<!-- Node10 -->
<g id="Node000010" class="node">
<title>Node10</title>
<g id="a_Node000010"><a xlink:href="../../da/d33/Namespace_8hpp.html" target="_top" xlink:title=" ">
<polygon fill="white" stroke="#666666" points="467.75,-129.75 298,-129.75 298,-110.5 467.75,-110.5 467.75,-129.75"/>
<text text-anchor="middle" x="382.88" y="-116.25" font-family="Helvetica,sans-Serif" font-size="10.00">Ark/Compiler/AST/Namespace.hpp</text>
</a>
</g>
</g>
<!-- Node5&#45;&gt;Node10 -->
<g id="edge9_Node000005_Node000010" class="edge">
<title>Node5&#45;&gt;Node10</title>
<g id="a_edge9_Node000005_Node000010"><a xlink:title=" ">
<path fill="none" stroke="#63b8ff" d="M537.32,-165.34C506.59,-156.54 459.66,-143.11 425.6,-133.36"/>
<polygon fill="#63b8ff" stroke="#63b8ff" points="426.61,-130.01 416.04,-130.62 424.69,-136.74 426.61,-130.01"/>
</a>
</g>
</g>
<!-- Node12 -->
<g id="Node000012" class="node">
<title>Node12</title>
<g id="a_Node000012"><a xlink:href="../../d8/ddd/Common_8hpp.html" target="_top" xlink:title="Common code for the compiler.">
<polygon fill="white" stroke="#666666" points="242.12,-129.75 107.62,-129.75 107.62,-110.5 242.12,-110.5 242.12,-129.75"/>
<text text-anchor="middle" x="174.88" y="-116.25" font-family="Helvetica,sans-Serif" font-size="10.00">Ark/Compiler/Common.hpp</text>
</a>
</g>
</g>
<!-- Node5&#45;&gt;Node12 -->
<g id="edge13_Node000005_Node000012" class="edge">
<title>Node5&#45;&gt;Node12</title>
<g id="a_edge13_Node000005_Node000012"><a xlink:title=" ">
<path fill="none" stroke="#63b8ff" d="M501.59,-165.28C432.85,-155.99 326.17,-141.57 253.56,-131.76"/>
<polygon fill="#63b8ff" stroke="#63b8ff" points="254.09,-128.3 243.71,-130.43 253.15,-135.24 254.09,-128.3"/>
</a>
</g>
</g>
<!-- Node18 -->
<g id="Node000018" class="node">
<title>Node18</title>
<g id="a_Node000018"><a xlink:href="../../d5/d40/Platform_8hpp.html" target="_top" xlink:title="ArkScript configuration macros.">
<polygon fill="white" stroke="#666666" points="784.62,-129.75 695.12,-129.75 695.12,-110.5 784.62,-110.5 784.62,-129.75"/>
<text text-anchor="middle" x="739.88" y="-116.25" font-family="Helvetica,sans-Serif" font-size="10.00">Ark/Platform.hpp</text>
</a>
</g>
</g>
<!-- Node5&#45;&gt;Node18 -->
<g id="edge22_Node000005_Node000018" class="edge">
<title>Node5&#45;&gt;Node18</title>
<g id="a_edge22_Node000005_Node000018"><a xlink:title=" ">
<path fill="none" stroke="#63b8ff" d="M597.88,-165.34C625.89,-156.62 668.53,-143.34 699.78,-133.61"/>
<polygon fill="#63b8ff" stroke="#63b8ff" points="700.77,-136.97 709.28,-130.65 698.69,-130.28 700.77,-136.97"/>
</a>
</g>
</g>
<!-- Node10&#45;&gt;Node8 -->
<g id="edge10_Node000010_Node000008" class="edge">
<title>Node10&#45;&gt;Node8</title>
<g id="a_edge10_Node000010_Node000008"><a xlink:title=" ">
<path fill="none" stroke="#63b8ff" d="M431.37,-110.03C489.62,-99.11 585.66,-81.1 635.18,-71.82"/>
<polygon fill="#63b8ff" stroke="#63b8ff" points="635.76,-75.27 644.94,-69.99 634.46,-68.39 635.76,-75.27"/>
</a>
</g>
</g>
<!-- Node10&#45;&gt;Node9 -->
<g id="edge11_Node000010_Node000009" class="edge">
<title>Node10&#45;&gt;Node9</title>
<g id="a_edge11_Node000010_Node000009"><a xlink:title=" ">
<path fill="none" stroke="#63b8ff" d="M369.98,-110.09C358.85,-102.29 342.5,-90.84 329.24,-81.54"/>
<polygon fill="#63b8ff" stroke="#63b8ff" points="331.27,-78.69 321.07,-75.82 327.25,-84.43 331.27,-78.69"/>
</a>
</g>
</g>
<!-- Node11 -->
<g id="Node000011" class="node">
<title>Node11</title>
<g id="a_Node000011"><a xlink:title=" ">
<polygon fill="#e0e0e0" stroke="#999999" points="408.5,-74.5 357.25,-74.5 357.25,-55.25 408.5,-55.25 408.5,-74.5"/>
<text text-anchor="middle" x="382.88" y="-61" font-family="Helvetica,sans-Serif" font-size="10.00">memory</text>
</a>
</g>
</g>
<!-- Node10&#45;&gt;Node11 -->
<g id="edge12_Node000010_Node000011" class="edge">
<title>Node10&#45;&gt;Node11</title>
<g id="a_edge12_Node000010_Node000011"><a xlink:title=" ">
<path fill="none" stroke="#63b8ff" d="M382.88,-110.33C382.88,-103.82 382.88,-94.67 382.88,-86.37"/>
<polygon fill="#63b8ff" stroke="#63b8ff" points="386.38,-86.37 382.88,-76.37 379.38,-86.37 386.38,-86.37"/>
</a>
</g>
</g>
<!-- Node12&#45;&gt;Node9 -->
<g id="edge16_Node000012_Node000009" class="edge">
<title>Node12&#45;&gt;Node9</title>
<g id="a_edge16_Node000012_Node000009"><a xlink:title=" ">
<path fill="none" stroke="#63b8ff" d="M197.27,-110.09C218.57,-101.5 250.85,-88.48 274.87,-78.79"/>
<polygon fill="#63b8ff" stroke="#63b8ff" points="275.88,-82.15 283.85,-75.16 273.26,-75.66 275.88,-82.15"/>
</a>
</g>
</g>
<!-- Node13 -->
<g id="Node000013" class="node">
<title>Node13</title>
<g id="a_Node000013"><a xlink:title=" ">
<polygon fill="#e0e0e0" stroke="#999999" points="205.75,-74.5 168,-74.5 168,-55.25 205.75,-55.25 205.75,-74.5"/>
<text text-anchor="middle" x="186.88" y="-61" font-family="Helvetica,sans-Serif" font-size="10.00">array</text>
</a>
</g>
</g>
<!-- Node12&#45;&gt;Node13 -->
<g id="edge14_Node000012_Node000013" class="edge">
<title>Node12&#45;&gt;Node13</title>
<g id="a_edge14_Node000012_Node000013"><a xlink:title=" ">
<path fill="none" stroke="#63b8ff" d="M176.86,-110.33C178.34,-103.74 180.43,-94.46 182.32,-86.07"/>
<polygon fill="#63b8ff" stroke="#63b8ff" points="185.73,-86.86 184.52,-76.34 178.9,-85.32 185.73,-86.86"/>
</a>
</g>
</g>
<!-- Node14 -->
<g id="Node000014" class="node">
<title>Node14</title>
<g id="a_Node000014"><a xlink:title=" ">
<polygon fill="#e0e0e0" stroke="#999999" points="237.62,-19.25 172.12,-19.25 172.12,0 237.62,0 237.62,-19.25"/>
<text text-anchor="middle" x="204.88" y="-5.75" font-family="Helvetica,sans-Serif" font-size="10.00">string_view</text>
</a>
</g>
</g>
<!-- Node12&#45;&gt;Node14 -->
<g id="edge15_Node000012_Node000014" class="edge">
<title>Node12&#45;&gt;Node14</title>
<g id="a_edge15_Node000012_Node000014"><a xlink:title=" ">
<path fill="none" stroke="#63b8ff" d="M186.9,-110.01C196.52,-101.89 209.3,-89.08 214.88,-74.5 220.34,-60.21 217.15,-43.04 212.98,-30.09"/>
<polygon fill="#63b8ff" stroke="#63b8ff" points="216.37,-29.18 209.61,-21.02 209.81,-31.62 216.37,-29.18"/>
</a>
</g>
</g>
<!-- Node15 -->
<g id="Node000015" class="node">
<title>Node15</title>
<g id="a_Node000015"><a xlink:title=" ">
<polygon fill="#e0e0e0" stroke="#999999" points="55.75,-19.25 0,-19.25 0,0 55.75,0 55.75,-19.25"/>
<text text-anchor="middle" x="27.88" y="-5.75" font-family="Helvetica,sans-Serif" font-size="10.00">cinttypes</text>
</a>
</g>
</g>
<!-- Node12&#45;&gt;Node15 -->
<g id="edge17_Node000012_Node000015" class="edge">
<title>Node12&#45;&gt;Node15</title>
<g id="a_edge17_Node000012_Node000015"><a xlink:title=" ">
<path fill="none" stroke="#63b8ff" d="M107.4,-110.02C84.04,-103.66 59.55,-92.85 42.88,-74.5 32.2,-62.75 28.7,-44.87 27.73,-31.01"/>
<polygon fill="#63b8ff" stroke="#63b8ff" points="31.23,-31.12 27.46,-21.22 24.24,-31.31 31.23,-31.12"/>
</a>
</g>
</g>
<!-- Node16 -->
<g id="Node000016" class="node">
<title>Node16</title>
<g id="a_Node000016"><a xlink:href="../../d6/de9/Constants_8hpp.html" target="_top" xlink:title="Constants used by ArkScript.">
<polygon fill="white" stroke="#666666" points="149.75,-74.5 52,-74.5 52,-55.25 149.75,-55.25 149.75,-74.5"/>
<text text-anchor="middle" x="100.88" y="-61" font-family="Helvetica,sans-Serif" font-size="10.00">Ark/Constants.hpp</text>
</a>
</g>
</g>
<!-- Node12&#45;&gt;Node16 -->
<g id="edge18_Node000012_Node000016" class="edge">
<title>Node12&#45;&gt;Node16</title>
<g id="a_edge18_Node000012_Node000016"><a xlink:title=" ">
<path fill="none" stroke="#63b8ff" d="M162.32,-110.09C151.41,-102.24 135.37,-90.7 122.41,-81.37"/>
<polygon fill="#63b8ff" stroke="#63b8ff" points="124.63,-78.66 114.47,-75.66 120.54,-84.34 124.63,-78.66"/>
</a>
</g>
</g>
<!-- Node16&#45;&gt;Node14 -->
<g id="edge19_Node000016_Node000014" class="edge">
<title>Node16&#45;&gt;Node14</title>
<g id="a_edge19_Node000016_Node000014"><a xlink:title=" ">
<path fill="none" stroke="#63b8ff" d="M118.52,-54.84C134.5,-46.66 158.33,-34.46 176.91,-24.94"/>
<polygon fill="#63b8ff" stroke="#63b8ff" points="178.49,-28.07 185.8,-20.39 175.3,-21.83 178.49,-28.07"/>
</a>
</g>
</g>
<!-- Node16&#45;&gt;Node15 -->
<g id="edge20_Node000016_Node000015" class="edge">
<title>Node16&#45;&gt;Node15</title>
<g id="a_edge20_Node000016_Node000015"><a xlink:title=" ">
<path fill="none" stroke="#63b8ff" d="M88.49,-54.84C77.73,-46.99 61.9,-35.45 49.12,-26.12"/>
<polygon fill="#63b8ff" stroke="#63b8ff" points="51.44,-23.48 41.3,-20.42 47.31,-29.14 51.44,-23.48"/>
</a>
</g>
</g>
<!-- Node17 -->
<g id="Node000017" class="node">
<title>Node17</title>
<g id="a_Node000017"><a xlink:title=" ">
<polygon fill="#e0e0e0" stroke="#999999" points="125,-19.25 76.75,-19.25 76.75,0 125,0 125,-19.25"/>
<text text-anchor="middle" x="100.88" y="-5.75" font-family="Helvetica,sans-Serif" font-size="10.00">cstddef</text>
</a>
</g>
</g>
<!-- Node16&#45;&gt;Node17 -->
<g id="edge21_Node000016_Node000017" class="edge">
<title>Node16&#45;&gt;Node17</title>
<g id="a_edge21_Node000016_Node000017"><a xlink:title=" ">
<path fill="none" stroke="#63b8ff" d="M100.88,-55.08C100.88,-48.57 100.88,-39.42 100.88,-31.12"/>
<polygon fill="#63b8ff" stroke="#63b8ff" points="104.38,-31.12 100.88,-21.12 97.38,-31.12 104.38,-31.12"/>
</a>
</g>
</g>
<!-- Node19&#45;&gt;Node3 -->
<g id="edge43_Node000019_Node000003" class="edge">
<title>Node19&#45;&gt;Node3</title>
<g id="a_edge43_Node000019_Node000003"><a xlink:title=" ">
<path fill="none" stroke="#63b8ff" d="M532.41,-287.04C499.87,-277.37 456.7,-264.2 418.88,-251.5 417.53,-251.05 416.16,-250.58 414.78,-250.11"/>
<polygon fill="#63b8ff" stroke="#63b8ff" points="416.17,-246.88 405.57,-246.85 413.83,-253.48 416.17,-246.88"/>
</a>
</g>
</g>
<!-- Node19&#45;&gt;Node4 -->
<g id="edge42_Node000019_Node000004" class="edge">
<title>Node19&#45;&gt;Node4</title>
<g id="a_edge42_Node000019_Node000004"><a xlink:title=" ">
<path fill="none" stroke="#63b8ff" d="M552.71,-287.17C506.04,-264.62 420.92,-223.62 413.88,-221 305.03,-180.52 172.5,-148.42 100.54,-132.36"/>
<polygon fill="#63b8ff" stroke="#63b8ff" points="101.52,-129 91,-130.25 100.01,-135.83 101.52,-129"/>
</a>
</g>
</g>
<!-- Node19&#45;&gt;Node5 -->
<g id="edge25_Node000019_Node000005" class="edge">
<title>Node19&#45;&gt;Node5</title>
<g id="a_edge25_Node000019_Node000005"><a xlink:title=" ">
<path fill="none" stroke="#63b8ff" d="M592.1,-287.26C601.27,-270.94 612.91,-243.74 604.88,-221 601.25,-210.75 594.17,-201.12 587.23,-193.45"/>
<polygon fill="#63b8ff" stroke="#63b8ff" points="589.93,-191.2 580.44,-186.5 584.93,-196.1 589.93,-191.2"/>
</a>
</g>
</g>
<!-- Node19&#45;&gt;Node8 -->
<g id="edge44_Node000019_Node000008" class="edge">
<title>Node19&#45;&gt;Node8</title>
<g id="a_edge44_Node000019_Node000008"><a xlink:title=" ">
<path fill="none" stroke="#63b8ff" d="M637.34,-296.41C783.44,-280.83 1178,-230.05 1251.88,-129.75 1256.95,-122.86 1257.69,-116.78 1251.88,-110.5 1214.05,-69.68 814.57,-66.03 698.39,-65.84"/>
<polygon fill="#63b8ff" stroke="#63b8ff" points="698.67,-62.34 688.67,-65.83 698.66,-69.34 698.67,-62.34"/>
</a>
</g>
</g>
<!-- Node19&#45;&gt;Node18 -->
<g id="edge24_Node000019_Node000018" class="edge">
<title>Node19&#45;&gt;Node18</title>
<g id="a_edge24_Node000019_Node000018"><a xlink:title=" ">
<path fill="none" stroke="#63b8ff" d="M595.46,-287.27C624.05,-254.38 693.8,-174.13 724.71,-138.58"/>
<polygon fill="#63b8ff" stroke="#63b8ff" points="727.09,-141.17 731.01,-131.32 721.81,-136.57 727.09,-141.17"/>
</a>
</g>
</g>
<!-- Node20 -->
<g id="Node000020" class="node">
<title>Node20</title>
<g id="a_Node000020"><a xlink:href="../../d7/dfb/MacroScope_8hpp.html" target="_top" xlink:title="Defines tools to handle macro definitions.">
<polygon fill="white" stroke="#666666" points="596,-251.5 487.75,-251.5 487.75,-221 596,-221 596,-251.5"/>
<text text-anchor="start" x="495.75" y="-238" font-family="Helvetica,sans-Serif" font-size="10.00">Ark/Compiler/Macros</text>
<text text-anchor="middle" x="541.88" y="-226.75" font-family="Helvetica,sans-Serif" font-size="10.00">/MacroScope.hpp</text>
</a>
</g>
</g>
<!-- Node19&#45;&gt;Node20 -->
<g id="edge26_Node000019_Node000020" class="edge">
<title>Node19&#45;&gt;Node20</title>
<g id="a_edge26_Node000019_Node000020"><a xlink:title=" ">
<path fill="none" stroke="#63b8ff" d="M573.57,-287.11C568.75,-279.53 562.73,-270.06 557.24,-261.43"/>
<polygon fill="#63b8ff" stroke="#63b8ff" points="560.27,-259.67 551.95,-253.11 554.36,-263.42 560.27,-259.67"/>
</a>
</g>
</g>
<!-- Node21 -->
<g id="Node000021" class="node">
<title>Node21</title>
<g id="a_Node000021"><a xlink:href="../../df/d5f/Pass_8hpp.html" target="_top" xlink:title="Interface for a compiler pass (take in an AST, output an AST)">
<polygon fill="white" stroke="#666666" points="850.5,-245.88 733.25,-245.88 733.25,-226.62 850.5,-226.62 850.5,-245.88"/>
<text text-anchor="middle" x="791.88" y="-232.38" font-family="Helvetica,sans-Serif" font-size="10.00">Ark/Compiler/Pass.hpp</text>
</a>
</g>
</g>
<!-- Node19&#45;&gt;Node21 -->
<g id="edge30_Node000019_Node000021" class="edge">
<title>Node19&#45;&gt;Node21</title>
<g id="a_edge30_Node000019_Node000021"><a xlink:title=" ">
<path fill="none" stroke="#63b8ff" d="M630.56,-287.03C667.2,-275.73 717.22,-260.29 751.8,-249.62"/>
<polygon fill="#63b8ff" stroke="#63b8ff" points="752.48,-253.07 761,-246.78 750.42,-246.38 752.48,-253.07"/>
</a>
</g>
</g>
<!-- Node20&#45;&gt;Node4 -->
<g id="edge28_Node000020_Node000004" class="edge">
<title>Node20&#45;&gt;Node4</title>
<g id="a_edge28_Node000020_Node000004"><a xlink:title=" ">
<path fill="none" stroke="#63b8ff" d="M527.27,-220.63C509.82,-204.16 478.92,-178.08 446.88,-165.75 305.16,-111.22 255.29,-148.86 100.89,-129.87"/>
<polygon fill="#63b8ff" stroke="#63b8ff" points="101.46,-126.42 91.09,-128.6 100.56,-133.36 101.46,-126.42"/>
</a>
</g>
</g>
<!-- Node20&#45;&gt;Node5 -->
<g id="edge27_Node000020_Node000005" class="edge">
<title>Node20&#45;&gt;Node5</title>
<g id="a_edge27_Node000020_Node000005"><a xlink:title=" ">
<path fill="none" stroke="#63b8ff" d="M548.55,-220.7C551.99,-213.2 556.23,-203.95 559.95,-195.85"/>
<polygon fill="#63b8ff" stroke="#63b8ff" points="563.09,-197.38 564.08,-186.83 556.73,-194.46 563.09,-197.38"/>
</a>
</g>
</g>
<!-- Node20&#45;&gt;Node8 -->
<g id="edge29_Node000020_Node000008" class="edge">
<title>Node20&#45;&gt;Node8</title>
<g id="a_edge29_Node000020_Node000008"><a xlink:title=" ">
<path fill="none" stroke="#63b8ff" d="M596.45,-220.96C615.49,-213.31 635.23,-201.87 647.88,-185 669.69,-155.9 670.65,-111.46 669.01,-85.89"/>
<polygon fill="#63b8ff" stroke="#63b8ff" points="672.52,-85.87 668.18,-76.21 665.55,-86.48 672.52,-85.87"/>
</a>
</g>
</g>
<!-- Node21&#45;&gt;Node5 -->
<g id="edge32_Node000021_Node000005" class="edge">
<title>Node21&#45;&gt;Node5</title>
<g id="a_edge32_Node000021_Node000005"><a xlink:title=" ">
<path fill="none" stroke="#63b8ff" d="M757.52,-226.18C719.13,-216.05 656.82,-199.59 614.4,-188.39"/>
<polygon fill="#63b8ff" stroke="#63b8ff" points="615.29,-185.01 604.73,-185.84 613.51,-191.78 615.29,-185.01"/>
</a>
</g>
</g>
<!-- Node21&#45;&gt;Node18 -->
<g id="edge31_Node000021_Node000018" class="edge">
<title>Node21&#45;&gt;Node18</title>
<g id="a_edge31_Node000021_Node000018"><a xlink:title=" ">
<path fill="none" stroke="#63b8ff" d="M787.79,-226.29C779.4,-207.88 760.04,-165.39 748.67,-140.42"/>
<polygon fill="#63b8ff" stroke="#63b8ff" points="751.9,-139.06 744.56,-131.42 745.53,-141.97 751.9,-139.06"/>
</a>
</g>
</g>
<!-- Node22 -->
<g id="Node000022" class="node">
<title>Node22</title>
<g id="a_Node000022"><a xlink:href="../../d9/d11/Logger_8hpp.html" target="_top" xlink:title="Internal logger.">
<polygon fill="white" stroke="#666666" points="987.5,-185 906.25,-185 906.25,-165.75 987.5,-165.75 987.5,-185"/>
<text text-anchor="middle" x="946.88" y="-171.5" font-family="Helvetica,sans-Serif" font-size="10.00">Ark/Logger.hpp</text>
</a>
</g>
</g>
<!-- Node21&#45;&gt;Node22 -->
<g id="edge33_Node000021_Node000022" class="edge">
<title>Node21&#45;&gt;Node22</title>
<g id="a_edge33_Node000021_Node000022"><a xlink:title=" ">
<path fill="none" stroke="#63b8ff" d="M815.75,-226.18C841.58,-216.37 882.99,-200.64 912.36,-189.48"/>
<polygon fill="#63b8ff" stroke="#63b8ff" points="913.45,-192.82 921.55,-185.99 910.96,-186.27 913.45,-192.82"/>
</a>
</g>
</g>
<!-- Node22&#45;&gt;Node4 -->
<g id="edge40_Node000022_Node000004" class="edge">
<title>Node22&#45;&gt;Node4</title>
<g id="a_edge40_Node000022_Node000004"><a xlink:title=" ">
<path fill="none" stroke="#63b8ff" d="M905.92,-172.85C762.08,-167.38 279.58,-148.21 100.89,-129.79"/>
<polygon fill="#63b8ff" stroke="#63b8ff" points="101.39,-126.32 91.07,-128.74 100.64,-133.28 101.39,-126.32"/>
</a>
</g>
</g>
<!-- Node22&#45;&gt;Node8 -->
<g id="edge36_Node000022_Node000008" class="edge">
<title>Node22&#45;&gt;Node8</title>
<g id="a_edge36_Node000022_Node000008"><a xlink:title=" ">
<path fill="none" stroke="#63b8ff" d="M987.77,-174.32C1059.74,-173.25 1204.4,-166.46 1235.88,-129.75 1241.44,-123.26 1241.68,-116.78 1235.88,-110.5 1199.24,-70.88 813.04,-66.38 698.63,-65.91"/>
<polygon fill="#63b8ff" stroke="#63b8ff" points="698.77,-62.41 688.76,-65.88 698.74,-69.41 698.77,-62.41"/>
</a>
</g>
</g>
<!-- Node22&#45;&gt;Node9 -->
<g id="edge39_Node000022_Node000009" class="edge">
<title>Node22&#45;&gt;Node9</title>
<g id="a_edge39_Node000022_Node000009"><a xlink:title=" ">
<path fill="none" stroke="#63b8ff" d="M921.45,-165.33C897.95,-156.78 862.19,-143.27 831.88,-129.75 814.58,-122.04 812.1,-115.64 793.88,-110.5 602.47,-56.55 544.69,-103.03 347.88,-74.5 345.2,-74.11 342.44,-73.66 339.68,-73.16"/>
<polygon fill="#63b8ff" stroke="#63b8ff" points="340.46,-69.75 329.97,-71.25 339.11,-76.61 340.46,-69.75"/>
</a>
</g>
</g>
<!-- Node23 -->
<g id="Node000023" class="node">
<title>Node23</title>
<g id="a_Node000023"><a xlink:title=" ">
<polygon fill="#e0e0e0" stroke="#999999" points="894.62,-129.75 841.12,-129.75 841.12,-110.5 894.62,-110.5 894.62,-129.75"/>
<text text-anchor="middle" x="867.88" y="-116.25" font-family="Helvetica,sans-Serif" font-size="10.00">iostream</text>
</a>
</g>
</g>
<!-- Node22&#45;&gt;Node23 -->
<g id="edge34_Node000022_Node000023" class="edge">
<title>Node22&#45;&gt;Node23</title>
<g id="a_edge34_Node000022_Node000023"><a xlink:title=" ">
<path fill="none" stroke="#63b8ff" d="M933.47,-165.34C921.78,-157.46 904.57,-145.86 890.71,-136.52"/>
<polygon fill="#63b8ff" stroke="#63b8ff" points="892.85,-133.74 882.6,-131.05 888.93,-139.54 892.85,-133.74"/>
</a>
</g>
</g>
<!-- Node24 -->
<g id="Node000024" class="node">
<title>Node24</title>
<g id="a_Node000024"><a xlink:title=" ">
<polygon fill="#e0e0e0" stroke="#999999" points="981.5,-129.75 912.25,-129.75 912.25,-110.5 981.5,-110.5 981.5,-129.75"/>
<text text-anchor="middle" x="946.88" y="-116.25" font-family="Helvetica,sans-Serif" font-size="10.00">fmt/format.h</text>
</a>
</g>
</g>
<!-- Node22&#45;&gt;Node24 -->
<g id="edge35_Node000022_Node000024" class="edge">
<title>Node22&#45;&gt;Node24</title>
<g id="a_edge35_Node000022_Node000024"><a xlink:title=" ">
<path fill="none" stroke="#63b8ff" d="M946.88,-165.58C946.88,-159.07 946.88,-149.92 946.88,-141.62"/>
<polygon fill="#63b8ff" stroke="#63b8ff" points="950.38,-141.62 946.88,-131.62 943.38,-141.62 950.38,-141.62"/>
</a>
</g>
</g>
<!-- Node25 -->
<g id="Node000025" class="node">
<title>Node25</title>
<g id="a_Node000025"><a xlink:title=" ">
<polygon fill="#e0e0e0" stroke="#999999" points="1044.5,-129.75 999.25,-129.75 999.25,-110.5 1044.5,-110.5 1044.5,-129.75"/>
<text text-anchor="middle" x="1021.88" y="-116.25" font-family="Helvetica,sans-Serif" font-size="10.00">chrono</text>
</a>
</g>
</g>
<!-- Node22&#45;&gt;Node25 -->
<g id="edge37_Node000022_Node000025" class="edge">
<title>Node22&#45;&gt;Node25</title>
<g id="a_edge37_Node000022_Node000025"><a xlink:title=" ">
<path fill="none" stroke="#63b8ff" d="M959.6,-165.34C970.59,-157.54 986.72,-146.09 999.81,-136.79"/>
<polygon fill="#63b8ff" stroke="#63b8ff" points="1001.73,-139.72 1007.86,-131.08 997.68,-134.01 1001.73,-139.72"/>
</a>
</g>
</g>
<!-- Node26 -->
<g id="Node000026" class="node">
<title>Node26</title>
<g id="a_Node000026"><a xlink:title=" ">
<polygon fill="#e0e0e0" stroke="#999999" points="1147,-129.75 1062.75,-129.75 1062.75,-110.5 1147,-110.5 1147,-129.75"/>
<text text-anchor="middle" x="1104.88" y="-116.25" font-family="Helvetica,sans-Serif" font-size="10.00">source_location</text>
</a>
</g>
</g>
<!-- Node22&#45;&gt;Node26 -->
<g id="edge38_Node000022_Node000026" class="edge">
<title>Node22&#45;&gt;Node26</title>
<g id="a_edge38_Node000022_Node000026"><a xlink:title=" ">
<path fill="none" stroke="#63b8ff" d="M973.68,-165.34C999.33,-156.7 1038.26,-143.57 1067.06,-133.87"/>
<polygon fill="#63b8ff" stroke="#63b8ff" points="1068.15,-137.2 1076.51,-130.69 1065.91,-130.56 1068.15,-137.2"/>
</a>
</g>
</g>
<!-- Node27 -->
<g id="Node000027" class="node">
<title>Node27</title>
<g id="a_Node000027"><a xlink:title=" ">
<polygon fill="#e0e0e0" stroke="#999999" points="1226.75,-129.75 1165,-129.75 1165,-110.5 1226.75,-110.5 1226.75,-129.75"/>
<text text-anchor="middle" x="1195.88" y="-116.25" font-family="Helvetica,sans-Serif" font-size="10.00">fmt/color.h</text>
</a>
</g>
</g>
<!-- Node22&#45;&gt;Node27 -->
<g id="edge41_Node000022_Node000027" class="edge">
<title>Node22&#45;&gt;Node27</title>
<g id="a_edge41_Node000022_Node000027"><a xlink:title=" ">
<path fill="none" stroke="#63b8ff" d="M987.73,-165.68C1027.56,-157.19 1090.15,-143.84 1153.81,-130.19"/>
<polygon fill="#63b8ff" stroke="#63b8ff" points="1154.34,-133.65 1163.39,-128.13 1152.88,-126.81 1154.34,-133.65"/>
</a>
</g>
</g>
</g>
</svg>
