<?xml version="1.0" encoding="UTF-8" standalone="no"?>
<!DOCTYPE svg PUBLIC "-//W3C//DTD SVG 1.1//EN"
 "http://www.w3.org/Graphics/SVG/1.1/DTD/svg11.dtd">
<!-- Generated by graphviz version 12.2.0 (20241103.1931)
 -->
<!-- Title: /Users/fola/Documents/ArkScript/Ark/src/arkreactor/Compiler/Macros/Executor.cpp Pages: 1 -->
<!--zoomable 404 -->

<svg id="main" version="1.1" xmlns="http://www.w3.org/2000/svg" xmlns:xlink="http://www.w3.org/1999/xlink" xml:space="preserve" onload="init(evt)">

<style type="text/css"><![CDATA[
.node, .edge {opacity: 0.7;}
.node.selected, .edge.selected {opacity: 1;}
.edge:hover path { stroke: red; }
.edge:hover polygon { stroke: red; fill: red; }
]]></style>

<defs>
  <circle id="rim" cx="0" cy="0" r="7"/>
  <circle id="rim2" cx="0" cy="0" r="3.5"/>
  <g id="zoomPlus">
    <use xlink:href="#rim" fill="#404040"><set attributeName="fill" to="#808080" begin="zoomplus.mouseover" end="zoomplus.mouseout"/></use>
    <path d="M-4,0h8M0,-4v8" fill="none" stroke="white" stroke-width="1.5" pointer-events="none"/>
  </g>
  <g id="zoomMin">
    <use xlink:href="#rim" fill="#404040"><set attributeName="fill" to="#808080" begin="zoomminus.mouseover" end="zoomminus.mouseout"/></use>
    <path d="M-4,0h8" fill="none" stroke="white" stroke-width="1.5" pointer-events="none"/>
  </g>
  <g id="arrowUp" transform="translate(30 24)">
    <use xlink:href="#rim"/>
    <path pointer-events="none" fill="none" stroke="white" stroke-width="1.5" d="M0,-3.0v7 M-2.5,-0.5L0,-3.0L2.5,-0.5"/>
  </g>
  <g id="arrowRight" transform="rotate(90) translate(36 -43)">
    <use xlink:href="#rim"/>
    <path pointer-events="none" fill="none" stroke="white" stroke-width="1.5" d="M0,-3.0v7 M-2.5,-0.5L0,-3.0L2.5,-0.5"/>
  </g>
  <g id="arrowDown" transform="rotate(180) translate(-30 -48)">
    <use xlink:href="#rim"/>
    <path pointer-events="none" fill="none" stroke="white" stroke-width="1.5" d="M0,-3.0v7 M-2.5,-0.5L0,-3.0L2.5,-0.5"/>
  </g>
  <g id="arrowLeft" transform="rotate(270) translate(-36 17)">
    <use xlink:href="#rim"/>
    <path pointer-events="none" fill="none" stroke="white" stroke-width="1.5" d="M0,-3.0v7 M-2.5,-0.5L0,-3.0L2.5,-0.5"/>
  </g>
  <g id="resetDef">
    <use xlink:href="#rim2" fill="#404040"><set attributeName="fill" to="#808080" begin="reset.mouseover" end="reset.mouseout"/></use>
  </g>
</defs>
<script type="application/ecmascript">
var viewWidth = 1334;
var viewHeight = 404;
var sectionId = 'dynsection-0';
</script>
<script type="application/ecmascript" xlink:href="../../svg.min.js"/>
<svg id="graph" class="graph">
<g id="viewport">
<title>/Users/fola/Documents/ArkScript/Ark/src/arkreactor/Compiler/Macros/Executor.cpp</title>
<!-- Node1 -->
<g id="Node000001" class="node">
<title>Node1</title>
<g id="a_Node000001"><a xlink:title=" ">
<polygon fill="#999999" stroke="#666666" points="741.5,-395.75 588.25,-395.75 588.25,-354 741.5,-354 741.5,-395.75"/>
<text text-anchor="start" x="596.25" y="-382.25" font-family="Helvetica,sans-Serif" font-size="10.00">/Users/fola/Documents</text>
<text text-anchor="start" x="596.25" y="-371" font-family="Helvetica,sans-Serif" font-size="10.00">/ArkScript/Ark/src/arkreactor</text>
<text text-anchor="middle" x="664.88" y="-359.75" font-family="Helvetica,sans-Serif" font-size="10.00">/Compiler/Macros/Executor.cpp</text>
</a>
</g>
</g>
<!-- Node2 -->
<g id="Node000002" class="node">
<title>Node2</title>
<g id="a_Node000002"><a xlink:href="../../d4/d1a/Executor_8hpp.html" target="_top" xlink:title="The base class for all MacroExecutors.">
<polygon fill="white" stroke="#666666" points="626,-251.5 517.75,-251.5 517.75,-221 626,-221 626,-251.5"/>
<text text-anchor="start" x="525.75" y="-238" font-family="Helvetica,sans-Serif" font-size="10.00">Ark/Compiler/Macros</text>
<text text-anchor="middle" x="571.88" y="-226.75" font-family="Helvetica,sans-Serif" font-size="10.00">/Executor.hpp</text>
</a>
</g>
</g>
<!-- Node1&#45;&gt;Node2 -->
<g id="edge1_Node000001_Node000002" class="edge">
<title>Node1&#45;&gt;Node2</title>
<g id="a_edge1_Node000001_Node000002"><a xlink:title=" ">
<path fill="none" stroke="#63b8ff" d="M651.15,-353.72C634.31,-328.97 605.78,-287.06 587.93,-260.84"/>
<polygon fill="#63b8ff" stroke="#63b8ff" points="591.03,-259.18 582.51,-252.88 585.25,-263.12 591.03,-259.18"/>
</a>
</g>
</g>
<!-- Node21 -->
<g id="Node000021" class="node">
<title>Node21</title>
<g id="a_Node000021"><a xlink:href="../../de/db1/Processor_8hpp.html" target="_top" xlink:title="Handles the macros and their expansion in ArkScript source code.">
<polygon fill="white" stroke="#666666" points="779,-318 670.75,-318 670.75,-287.5 779,-287.5 779,-318"/>
<text text-anchor="start" x="678.75" y="-304.5" font-family="Helvetica,sans-Serif" font-size="10.00">Ark/Compiler/Macros</text>
<text text-anchor="middle" x="724.88" y="-293.25" font-family="Helvetica,sans-Serif" font-size="10.00">/Processor.hpp</text>
</a>
</g>
</g>
<!-- Node1&#45;&gt;Node21 -->
<g id="edge28_Node000001_Node000021" class="edge">
<title>Node1&#45;&gt;Node21</title>
<g id="a_edge28_Node000001_Node000021"><a xlink:title=" ">
<path fill="none" stroke="#63b8ff" d="M682.23,-353.59C689.42,-345.19 697.8,-335.39 705.22,-326.72"/>
<polygon fill="#63b8ff" stroke="#63b8ff" points="707.69,-329.22 711.53,-319.35 702.37,-324.67 707.69,-329.22"/>
</a>
</g>
</g>
<!-- Node3 -->
<g id="Node000003" class="node">
<title>Node3</title>
<g id="a_Node000003"><a xlink:title=" ">
<polygon fill="#e0e0e0" stroke="#999999" points="49.75,-74.5 0,-74.5 0,-55.25 49.75,-55.25 49.75,-74.5"/>
<text text-anchor="middle" x="24.88" y="-61" font-family="Helvetica,sans-Serif" font-size="10.00">optional</text>
</a>
</g>
</g>
<!-- Node2&#45;&gt;Node3 -->
<g id="edge2_Node000002_Node000003" class="edge">
<title>Node2&#45;&gt;Node3</title>
<g id="a_edge2_Node000002_Node000003"><a xlink:title=" ">
<path fill="none" stroke="#63b8ff" d="M517.45,-231.68C396.19,-222.63 109.12,-194.71 40.88,-129.75 29.09,-118.53 25.46,-100.05 24.57,-85.84"/>
<polygon fill="#63b8ff" stroke="#63b8ff" points="28.07,-86.19 24.37,-76.26 21.08,-86.33 28.07,-86.19"/>
</a>
</g>
</g>
<!-- Node4 -->
<g id="Node000004" class="node">
<title>Node4</title>
<g id="a_Node000004"><a xlink:title=" ">
<polygon fill="#e0e0e0" stroke="#999999" points="1326.25,-74.5 1243.5,-74.5 1243.5,-55.25 1326.25,-55.25 1326.25,-74.5"/>
<text text-anchor="middle" x="1284.88" y="-61" font-family="Helvetica,sans-Serif" font-size="10.00">unordered_map</text>
</a>
</g>
</g>
<!-- Node2&#45;&gt;Node4 -->
<g id="edge3_Node000002_Node000004" class="edge">
<title>Node2&#45;&gt;Node4</title>
<g id="a_edge3_Node000002_Node000004"><a xlink:title=" ">
<path fill="none" stroke="#63b8ff" d="M626.43,-227.12C683.65,-218.23 776.03,-202.85 854.88,-185 944.82,-164.64 966,-154.37 1054.88,-129.75 1119.81,-111.76 1195.04,-90.86 1241.3,-78"/>
<polygon fill="#63b8ff" stroke="#63b8ff" points="1241.97,-81.44 1250.67,-75.39 1240.09,-74.7 1241.97,-81.44"/>
</a>
</g>
</g>
<!-- Node5 -->
<g id="Node000005" class="node">
<title>Node5</title>
<g id="a_Node000005"><a xlink:href="../../d7/dc6/Node_8hpp.html" target="_top" xlink:title="AST node used by the parser, optimizer and compiler.">
<polygon fill="white" stroke="#666666" points="651.12,-185 510.62,-185 510.62,-165.75 651.12,-165.75 651.12,-185"/>
<text text-anchor="middle" x="580.88" y="-171.5" font-family="Helvetica,sans-Serif" font-size="10.00">Ark/Compiler/AST/Node.hpp</text>
</a>
</g>
</g>
<!-- Node2&#45;&gt;Node5 -->
<g id="edge4_Node000002_Node000005" class="edge">
<title>Node2&#45;&gt;Node5</title>
<g id="a_edge4_Node000002_Node000005"><a xlink:title=" ">
<path fill="none" stroke="#63b8ff" d="M574.1,-220.7C575.21,-213.46 576.56,-204.59 577.77,-196.69"/>
<polygon fill="#63b8ff" stroke="#63b8ff" points="581.21,-197.36 579.26,-186.95 574.29,-196.3 581.21,-197.36"/>
</a>
</g>
</g>
<!-- Node5&#45;&gt;Node3 -->
<g id="edge9_Node000005_Node000003" class="edge">
<title>Node5&#45;&gt;Node3</title>
<g id="a_edge9_Node000005_Node000003"><a xlink:title=" ">
<path fill="none" stroke="#63b8ff" d="M510.2,-171.85C377.24,-166.59 99.89,-152.96 62.88,-129.75 46.83,-119.69 36.69,-100.17 30.96,-85.34"/>
<polygon fill="#63b8ff" stroke="#63b8ff" points="34.36,-84.46 27.78,-76.16 27.75,-86.76 34.36,-84.46"/>
</a>
</g>
</g>
<!-- Node6 -->
<g id="Node000006" class="node">
<title>Node6</title>
<g id="a_Node000006"><a xlink:title=" ">
<polygon fill="#e0e0e0" stroke="#999999" points="663.5,-129.75 618.25,-129.75 618.25,-110.5 663.5,-110.5 663.5,-129.75"/>
<text text-anchor="middle" x="640.88" y="-116.25" font-family="Helvetica,sans-Serif" font-size="10.00">variant</text>
</a>
</g>
</g>
<!-- Node5&#45;&gt;Node6 -->
<g id="edge5_Node000005_Node000006" class="edge">
<title>Node5&#45;&gt;Node6</title>
<g id="a_edge5_Node000005_Node000006"><a xlink:title=" ">
<path fill="none" stroke="#63b8ff" d="M591.05,-165.34C599.64,-157.72 612.14,-146.62 622.48,-137.45"/>
<polygon fill="#63b8ff" stroke="#63b8ff" points="624.56,-140.29 629.72,-131.03 619.91,-135.05 624.56,-140.29"/>
</a>
</g>
</g>
<!-- Node7 -->
<g id="Node000007" class="node">
<title>Node7</title>
<g id="a_Node000007"><a xlink:title=" ">
<polygon fill="#e0e0e0" stroke="#999999" points="809.5,-129.75 758.25,-129.75 758.25,-110.5 809.5,-110.5 809.5,-129.75"/>
<text text-anchor="middle" x="783.88" y="-116.25" font-family="Helvetica,sans-Serif" font-size="10.00">ostream</text>
</a>
</g>
</g>
<!-- Node5&#45;&gt;Node7 -->
<g id="edge6_Node000005_Node000007" class="edge">
<title>Node5&#45;&gt;Node7</title>
<g id="a_edge6_Node000005_Node000007"><a xlink:title=" ">
<path fill="none" stroke="#63b8ff" d="M615.31,-165.34C651.91,-155.74 709.56,-140.62 747.05,-130.79"/>
<polygon fill="#63b8ff" stroke="#63b8ff" points="747.74,-134.22 756.52,-128.3 745.96,-127.45 747.74,-134.22"/>
</a>
</g>
</g>
<!-- Node8 -->
<g id="Node000008" class="node">
<title>Node8</title>
<g id="a_Node000008"><a xlink:title=" ">
<polygon fill="#e0e0e0" stroke="#999999" points="726.88,-74.5 686.88,-74.5 686.88,-55.25 726.88,-55.25 726.88,-74.5"/>
<text text-anchor="middle" x="706.88" y="-61" font-family="Helvetica,sans-Serif" font-size="10.00">string</text>
</a>
</g>
</g>
<!-- Node5&#45;&gt;Node8 -->
<g id="edge7_Node000005_Node000008" class="edge">
<title>Node5&#45;&gt;Node8</title>
<g id="a_edge7_Node000005_Node000008"><a xlink:title=" ">
<path fill="none" stroke="#63b8ff" d="M610.68,-165.35C630.24,-158.22 655.36,-146.62 672.88,-129.75 685.61,-117.48 694.62,-99.39 700.15,-85.59"/>
<polygon fill="#63b8ff" stroke="#63b8ff" points="703.42,-86.84 703.6,-76.25 696.86,-84.42 703.42,-86.84"/>
</a>
</g>
</g>
<!-- Node9 -->
<g id="Node000009" class="node">
<title>Node9</title>
<g id="a_Node000009"><a xlink:title=" ">
<polygon fill="#e0e0e0" stroke="#999999" points="410.38,-74.5 367.38,-74.5 367.38,-55.25 410.38,-55.25 410.38,-74.5"/>
<text text-anchor="middle" x="388.88" y="-61" font-family="Helvetica,sans-Serif" font-size="10.00">vector</text>
</a>
</g>
</g>
<!-- Node5&#45;&gt;Node9 -->
<g id="edge8_Node000005_Node000009" class="edge">
<title>Node5&#45;&gt;Node9</title>
<g id="a_edge8_Node000005_Node000009"><a xlink:title=" ">
<path fill="none" stroke="#63b8ff" d="M510.22,-167.7C460.02,-161.33 398.8,-149.67 382.88,-129.75 372.98,-117.38 375.93,-99.05 380.51,-85.19"/>
<polygon fill="#63b8ff" stroke="#63b8ff" points="383.62,-86.84 383.94,-76.25 377.09,-84.32 383.62,-86.84"/>
</a>
</g>
</g>
<!-- Node10 -->
<g id="Node000010" class="node">
<title>Node10</title>
<g id="a_Node000010"><a xlink:href="../../da/d33/Namespace_8hpp.html" target="_top" xlink:title=" ">
<polygon fill="white" stroke="#666666" points="561.75,-129.75 392,-129.75 392,-110.5 561.75,-110.5 561.75,-129.75"/>
<text text-anchor="middle" x="476.88" y="-116.25" font-family="Helvetica,sans-Serif" font-size="10.00">Ark/Compiler/AST/Namespace.hpp</text>
</a>
</g>
</g>
<!-- Node5&#45;&gt;Node10 -->
<g id="edge10_Node000005_Node000010" class="edge">
<title>Node5&#45;&gt;Node10</title>
<g id="a_edge10_Node000005_Node000010"><a xlink:title=" ">
<path fill="none" stroke="#63b8ff" d="M563.23,-165.34C547.25,-157.16 523.42,-144.96 504.84,-135.44"/>
<polygon fill="#63b8ff" stroke="#63b8ff" points="506.45,-132.33 495.95,-130.89 503.26,-138.57 506.45,-132.33"/>
</a>
</g>
</g>
<!-- Node12 -->
<g id="Node000012" class="node">
<title>Node12</title>
<g id="a_Node000012"><a xlink:href="../../d8/ddd/Common_8hpp.html" target="_top" xlink:title="Common code for the compiler.">
<polygon fill="white" stroke="#666666" points="336.12,-129.75 201.62,-129.75 201.62,-110.5 336.12,-110.5 336.12,-129.75"/>
<text text-anchor="middle" x="268.88" y="-116.25" font-family="Helvetica,sans-Serif" font-size="10.00">Ark/Compiler/Common.hpp</text>
</a>
</g>
</g>
<!-- Node5&#45;&gt;Node12 -->
<g id="edge14_Node000005_Node000012" class="edge">
<title>Node5&#45;&gt;Node12</title>
<g id="a_edge14_Node000005_Node000012"><a xlink:title=" ">
<path fill="none" stroke="#63b8ff" d="M527.59,-165.28C473.83,-156.11 390.77,-141.93 333.33,-132.13"/>
<polygon fill="#63b8ff" stroke="#63b8ff" points="334.13,-128.71 323.69,-130.48 332.96,-135.61 334.13,-128.71"/>
</a>
</g>
</g>
<!-- Node19 -->
<g id="Node000019" class="node">
<title>Node19</title>
<g id="a_Node000019"><a xlink:href="../../d5/d40/Platform_8hpp.html" target="_top" xlink:title="ArkScript configuration macros.">
<polygon fill="white" stroke="#666666" points="669.25,-74.5 556.5,-74.5 556.5,-55.25 669.25,-55.25 669.25,-74.5"/>
<text text-anchor="middle" x="612.88" y="-61" font-family="Helvetica,sans-Serif" font-size="10.00">Ark/Utils/Platform.hpp</text>
</a>
</g>
</g>
<!-- Node5&#45;&gt;Node19 -->
<g id="edge24_Node000005_Node000019" class="edge">
<title>Node5&#45;&gt;Node19</title>
<g id="a_edge24_Node000005_Node000019"><a xlink:title=" ">
<path fill="none" stroke="#63b8ff" d="M583.49,-165.5C588.6,-148.17 600.02,-109.48 607.02,-85.74"/>
<polygon fill="#63b8ff" stroke="#63b8ff" points="610.32,-86.91 609.79,-76.33 603.61,-84.93 610.32,-86.91"/>
</a>
</g>
</g>
<!-- Node20 -->
<g id="Node000020" class="node">
<title>Node20</title>
<g id="a_Node000020"><a xlink:href="../../dc/d58/Position_8hpp.html" target="_top" xlink:title="Defines position utilities (for text in a file) for the parser, formatter, diagnostics.">
<polygon fill="white" stroke="#666666" points="183.5,-129.75 72.25,-129.75 72.25,-110.5 183.5,-110.5 183.5,-129.75"/>
<text text-anchor="middle" x="127.88" y="-116.25" font-family="Helvetica,sans-Serif" font-size="10.00">Ark/Utils/Position.hpp</text>
</a>
</g>
</g>
<!-- Node5&#45;&gt;Node20 -->
<g id="edge25_Node000005_Node000020" class="edge">
<title>Node5&#45;&gt;Node20</title>
<g id="a_edge25_Node000005_Node000020"><a xlink:title=" ">
<path fill="none" stroke="#63b8ff" d="M510.38,-166.64C435.03,-158.29 311.74,-144.38 195.15,-130.01"/>
<polygon fill="#63b8ff" stroke="#63b8ff" points="195.74,-126.56 185.39,-128.81 194.88,-133.51 195.74,-126.56"/>
</a>
</g>
</g>
<!-- Node10&#45;&gt;Node8 -->
<g id="edge11_Node000010_Node000008" class="edge">
<title>Node10&#45;&gt;Node8</title>
<g id="a_edge11_Node000010_Node000008"><a xlink:title=" ">
<path fill="none" stroke="#63b8ff" d="M522.2,-110.02C560.68,-102.07 617.61,-89.82 675.77,-74.91"/>
<polygon fill="#63b8ff" stroke="#63b8ff" points="676.38,-78.36 685.18,-72.47 674.62,-71.59 676.38,-78.36"/>
</a>
</g>
</g>
<!-- Node10&#45;&gt;Node9 -->
<g id="edge12_Node000010_Node000009" class="edge">
<title>Node10&#45;&gt;Node9</title>
<g id="a_edge12_Node000010_Node000009"><a xlink:title=" ">
<path fill="none" stroke="#63b8ff" d="M461.95,-110.09C448.67,-102.06 429.01,-90.16 413.42,-80.73"/>
<polygon fill="#63b8ff" stroke="#63b8ff" points="415.54,-77.92 405.17,-75.74 411.91,-83.91 415.54,-77.92"/>
</a>
</g>
</g>
<!-- Node11 -->
<g id="Node000011" class="node">
<title>Node11</title>
<g id="a_Node000011"><a xlink:title=" ">
<polygon fill="#e0e0e0" stroke="#999999" points="502.5,-74.5 451.25,-74.5 451.25,-55.25 502.5,-55.25 502.5,-74.5"/>
<text text-anchor="middle" x="476.88" y="-61" font-family="Helvetica,sans-Serif" font-size="10.00">memory</text>
</a>
</g>
</g>
<!-- Node10&#45;&gt;Node11 -->
<g id="edge13_Node000010_Node000011" class="edge">
<title>Node10&#45;&gt;Node11</title>
<g id="a_edge13_Node000010_Node000011"><a xlink:title=" ">
<path fill="none" stroke="#63b8ff" d="M476.88,-110.33C476.88,-103.82 476.88,-94.67 476.88,-86.37"/>
<polygon fill="#63b8ff" stroke="#63b8ff" points="480.38,-86.37 476.88,-76.37 473.38,-86.37 480.38,-86.37"/>
</a>
</g>
</g>
<!-- Node12&#45;&gt;Node9 -->
<g id="edge17_Node000012_Node000009" class="edge">
<title>Node12&#45;&gt;Node9</title>
<g id="a_edge17_Node000012_Node000009"><a xlink:title=" ">
<path fill="none" stroke="#63b8ff" d="M289.23,-110.09C308.11,-101.72 336.46,-89.13 358.1,-79.53"/>
<polygon fill="#63b8ff" stroke="#63b8ff" points="359.31,-82.82 367.04,-75.57 356.48,-76.42 359.31,-82.82"/>
</a>
</g>
</g>
<!-- Node13 -->
<g id="Node000013" class="node">
<title>Node13</title>
<g id="a_Node000013"><a xlink:title=" ">
<polygon fill="#e0e0e0" stroke="#999999" points="298.75,-74.5 261,-74.5 261,-55.25 298.75,-55.25 298.75,-74.5"/>
<text text-anchor="middle" x="279.88" y="-61" font-family="Helvetica,sans-Serif" font-size="10.00">array</text>
</a>
</g>
</g>
<!-- Node12&#45;&gt;Node13 -->
<g id="edge15_Node000012_Node000013" class="edge">
<title>Node12&#45;&gt;Node13</title>
<g id="a_edge15_Node000012_Node000013"><a xlink:title=" ">
<path fill="none" stroke="#63b8ff" d="M270.69,-110.33C272.05,-103.74 273.97,-94.46 275.7,-86.07"/>
<polygon fill="#63b8ff" stroke="#63b8ff" points="279.12,-86.84 277.71,-76.34 272.26,-85.43 279.12,-86.84"/>
</a>
</g>
</g>
<!-- Node14 -->
<g id="Node000014" class="node">
<title>Node14</title>
<g id="a_Node000014"><a xlink:title=" ">
<polygon fill="#e0e0e0" stroke="#999999" points="357.62,-19.25 292.12,-19.25 292.12,0 357.62,0 357.62,-19.25"/>
<text text-anchor="middle" x="324.88" y="-5.75" font-family="Helvetica,sans-Serif" font-size="10.00">string_view</text>
</a>
</g>
</g>
<!-- Node12&#45;&gt;Node14 -->
<g id="edge16_Node000012_Node000014" class="edge">
<title>Node12&#45;&gt;Node14</title>
<g id="a_edge16_Node000012_Node000014"><a xlink:title=" ">
<path fill="none" stroke="#63b8ff" d="M278.97,-110.18C287.83,-101.79 300.43,-88.49 307.88,-74.5 315.23,-60.68 319.57,-43.45 322.03,-30.37"/>
<polygon fill="#63b8ff" stroke="#63b8ff" points="325.43,-31.28 323.59,-20.84 318.52,-30.15 325.43,-31.28"/>
</a>
</g>
</g>
<!-- Node15 -->
<g id="Node000015" class="node">
<title>Node15</title>
<g id="a_Node000015"><a xlink:title=" ">
<polygon fill="#e0e0e0" stroke="#999999" points="147.75,-19.25 92,-19.25 92,0 147.75,0 147.75,-19.25"/>
<text text-anchor="middle" x="119.88" y="-5.75" font-family="Helvetica,sans-Serif" font-size="10.00">cinttypes</text>
</a>
</g>
</g>
<!-- Node12&#45;&gt;Node15 -->
<g id="edge18_Node000012_Node000015" class="edge">
<title>Node12&#45;&gt;Node15</title>
<g id="a_edge18_Node000012_Node000015"><a xlink:title=" ">
<path fill="none" stroke="#63b8ff" d="M201.39,-110.1C177.76,-103.74 152.91,-92.92 135.88,-74.5 125.06,-62.8 121.28,-44.92 120.08,-31.04"/>
<polygon fill="#63b8ff" stroke="#63b8ff" points="123.58,-31.07 119.64,-21.23 116.59,-31.38 123.58,-31.07"/>
</a>
</g>
</g>
<!-- Node16 -->
<g id="Node000016" class="node">
<title>Node16</title>
<g id="a_Node000016"><a xlink:href="../../d6/de9/Constants_8hpp.html" target="_top" xlink:title="Constants used by ArkScript.">
<polygon fill="white" stroke="#666666" points="242.75,-74.5 145,-74.5 145,-55.25 242.75,-55.25 242.75,-74.5"/>
<text text-anchor="middle" x="193.88" y="-61" font-family="Helvetica,sans-Serif" font-size="10.00">Ark/Constants.hpp</text>
</a>
</g>
</g>
<!-- Node12&#45;&gt;Node16 -->
<g id="edge19_Node000012_Node000016" class="edge">
<title>Node12&#45;&gt;Node16</title>
<g id="a_edge19_Node000012_Node000016"><a xlink:title=" ">
<path fill="none" stroke="#63b8ff" d="M256.15,-110.09C245.16,-102.29 229.03,-90.84 215.94,-81.54"/>
<polygon fill="#63b8ff" stroke="#63b8ff" points="218.07,-78.76 207.89,-75.83 214.02,-84.47 218.07,-78.76"/>
</a>
</g>
</g>
<!-- Node16&#45;&gt;Node14 -->
<g id="edge20_Node000016_Node000014" class="edge">
<title>Node16&#45;&gt;Node14</title>
<g id="a_edge20_Node000016_Node000014"><a xlink:title=" ">
<path fill="none" stroke="#63b8ff" d="M216.1,-54.84C236.89,-46.39 268.22,-33.65 291.93,-24.02"/>
<polygon fill="#63b8ff" stroke="#63b8ff" points="293.2,-27.28 301.14,-20.27 290.56,-20.8 293.2,-27.28"/>
</a>
</g>
</g>
<!-- Node16&#45;&gt;Node15 -->
<g id="edge22_Node000016_Node000015" class="edge">
<title>Node16&#45;&gt;Node15</title>
<g id="a_edge22_Node000016_Node000015"><a xlink:title=" ">
<path fill="none" stroke="#63b8ff" d="M181.32,-54.84C170.41,-46.99 154.37,-35.45 141.41,-26.12"/>
<polygon fill="#63b8ff" stroke="#63b8ff" points="143.63,-23.41 133.47,-20.41 139.54,-29.09 143.63,-23.41"/>
</a>
</g>
</g>
<!-- Node17 -->
<g id="Node000017" class="node">
<title>Node17</title>
<g id="a_Node000017"><a xlink:title=" ">
<polygon fill="#e0e0e0" stroke="#999999" points="273.5,-19.25 234.25,-19.25 234.25,0 273.5,0 273.5,-19.25"/>
<text text-anchor="middle" x="253.88" y="-5.75" font-family="Helvetica,sans-Serif" font-size="10.00">limits</text>
</a>
</g>
</g>
<!-- Node16&#45;&gt;Node17 -->
<g id="edge21_Node000016_Node000017" class="edge">
<title>Node16&#45;&gt;Node17</title>
<g id="a_edge21_Node000016_Node000017"><a xlink:title=" ">
<path fill="none" stroke="#63b8ff" d="M204.05,-54.84C212.64,-47.22 225.14,-36.12 235.48,-26.95"/>
<polygon fill="#63b8ff" stroke="#63b8ff" points="237.56,-29.79 242.72,-20.53 232.91,-24.55 237.56,-29.79"/>
</a>
</g>
</g>
<!-- Node18 -->
<g id="Node000018" class="node">
<title>Node18</title>
<g id="a_Node000018"><a xlink:title=" ">
<polygon fill="#e0e0e0" stroke="#999999" points="216,-19.25 167.75,-19.25 167.75,0 216,0 216,-19.25"/>
<text text-anchor="middle" x="191.88" y="-5.75" font-family="Helvetica,sans-Serif" font-size="10.00">cstddef</text>
</a>
</g>
</g>
<!-- Node16&#45;&gt;Node18 -->
<g id="edge23_Node000016_Node000018" class="edge">
<title>Node16&#45;&gt;Node18</title>
<g id="a_edge23_Node000016_Node000018"><a xlink:title=" ">
<path fill="none" stroke="#63b8ff" d="M193.54,-55.08C193.3,-48.49 192.95,-39.21 192.63,-30.82"/>
<polygon fill="#63b8ff" stroke="#63b8ff" points="196.14,-30.98 192.27,-21.12 189.15,-31.25 196.14,-30.98"/>
</a>
</g>
</g>
<!-- Node20&#45;&gt;Node3 -->
<g id="edge26_Node000020_Node000003" class="edge">
<title>Node20&#45;&gt;Node3</title>
<g id="a_edge26_Node000020_Node000003"><a xlink:title=" ">
<path fill="none" stroke="#63b8ff" d="M110.4,-110.09C94.57,-101.91 70.97,-89.71 52.57,-80.19"/>
<polygon fill="#63b8ff" stroke="#63b8ff" points="54.27,-77.13 43.78,-75.65 51.05,-83.35 54.27,-77.13"/>
</a>
</g>
</g>
<!-- Node20&#45;&gt;Node19 -->
<g id="edge27_Node000020_Node000019" class="edge">
<title>Node20&#45;&gt;Node19</title>
<g id="a_edge27_Node000020_Node000019"><a xlink:title=" ">
<path fill="none" stroke="#63b8ff" d="M183.88,-111.6C186.92,-111.22 189.94,-110.85 192.88,-110.5 316.83,-95.69 461.66,-80.85 544.79,-72.56"/>
<polygon fill="#63b8ff" stroke="#63b8ff" points="544.99,-76.06 554.59,-71.58 544.29,-69.09 544.99,-76.06"/>
</a>
</g>
</g>
<!-- Node21&#45;&gt;Node3 -->
<g id="edge50_Node000021_Node000003" class="edge">
<title>Node21&#45;&gt;Node3</title>
<g id="a_edge50_Node000021_Node000003"><a xlink:title=" ">
<path fill="none" stroke="#63b8ff" d="M670.55,-298.62C560.71,-290.75 305.88,-264.73 108.88,-185 67.45,-168.24 46.08,-169.08 24.88,-129.75 17.7,-116.44 18.17,-99.17 20.17,-85.95"/>
<polygon fill="#63b8ff" stroke="#63b8ff" points="23.59,-86.75 22.08,-76.26 16.72,-85.4 23.59,-86.75"/>
</a>
</g>
</g>
<!-- Node21&#45;&gt;Node4 -->
<g id="edge49_Node000021_Node000004" class="edge">
<title>Node21&#45;&gt;Node4</title>
<g id="a_edge49_Node000021_Node000004"><a xlink:title=" ">
<path fill="none" stroke="#63b8ff" d="M779.24,-299.7C840.16,-295.79 940.86,-284.44 1020.88,-251.5 1124.48,-208.85 1227.31,-119.57 1267.36,-82.53"/>
<polygon fill="#63b8ff" stroke="#63b8ff" points="1269.73,-85.1 1274.64,-75.71 1264.95,-79.99 1269.73,-85.1"/>
</a>
</g>
</g>
<!-- Node21&#45;&gt;Node5 -->
<g id="edge30_Node000021_Node000005" class="edge">
<title>Node21&#45;&gt;Node5</title>
<g id="a_edge30_Node000021_Node000005"><a xlink:title=" ">
<path fill="none" stroke="#63b8ff" d="M709.12,-287.26C691.28,-270.94 661.28,-243.74 634.88,-221 623.73,-211.4 611.06,-200.91 600.79,-192.51"/>
<polygon fill="#63b8ff" stroke="#63b8ff" points="603.29,-190.03 593.33,-186.43 598.87,-195.46 603.29,-190.03"/>
</a>
</g>
</g>
<!-- Node21&#45;&gt;Node8 -->
<g id="edge51_Node000021_Node000008" class="edge">
<title>Node21&#45;&gt;Node8</title>
<g id="a_edge51_Node000021_Node000008"><a xlink:title=" ">
<path fill="none" stroke="#63b8ff" d="M757.23,-287.16C798.89,-265.91 864.86,-222.69 854.88,-165.75 850.36,-140.03 853.45,-128.86 834.88,-110.5 827.76,-103.47 773.59,-86.08 738.04,-75.2"/>
<polygon fill="#63b8ff" stroke="#63b8ff" points="739.27,-71.92 728.68,-72.36 737.23,-78.62 739.27,-71.92"/>
</a>
</g>
</g>
<!-- Node21&#45;&gt;Node19 -->
<g id="edge29_Node000021_Node000019" class="edge">
<title>Node21&#45;&gt;Node19</title>
<g id="a_edge29_Node000021_Node000019"><a xlink:title=" ">
<path fill="none" stroke="#63b8ff" d="M724.12,-287.23C721.72,-253.38 711.93,-167.79 672.88,-110.5 664.67,-98.47 652.14,-88.42 640.65,-80.92"/>
<polygon fill="#63b8ff" stroke="#63b8ff" points="642.6,-78.01 632.24,-75.79 638.96,-83.98 642.6,-78.01"/>
</a>
</g>
</g>
<!-- Node22 -->
<g id="Node000022" class="node">
<title>Node22</title>
<g id="a_Node000022"><a xlink:href="../../d7/dfb/MacroScope_8hpp.html" target="_top" xlink:title="Defines tools to handle macro definitions.">
<polygon fill="white" stroke="#666666" points="1012,-251.5 903.75,-251.5 903.75,-221 1012,-221 1012,-251.5"/>
<text text-anchor="start" x="911.75" y="-238" font-family="Helvetica,sans-Serif" font-size="10.00">Ark/Compiler/Macros</text>
<text text-anchor="middle" x="957.88" y="-226.75" font-family="Helvetica,sans-Serif" font-size="10.00">/MacroScope.hpp</text>
</a>
</g>
</g>
<!-- Node21&#45;&gt;Node22 -->
<g id="edge31_Node000021_Node000022" class="edge">
<title>Node21&#45;&gt;Node22</title>
<g id="a_edge31_Node000021_Node000022"><a xlink:title=" ">
<path fill="none" stroke="#63b8ff" d="M778.04,-287.03C812.48,-277.5 857.55,-265.02 893.94,-254.95"/>
<polygon fill="#63b8ff" stroke="#63b8ff" points="894.78,-258.35 903.48,-252.31 892.91,-251.6 894.78,-258.35"/>
</a>
</g>
</g>
<!-- Node23 -->
<g id="Node000023" class="node">
<title>Node23</title>
<g id="a_Node000023"><a xlink:href="../../df/d5f/Pass_8hpp.html" target="_top" xlink:title="Interface for a compiler pass.">
<polygon fill="white" stroke="#666666" points="845.5,-185 728.25,-185 728.25,-165.75 845.5,-165.75 845.5,-185"/>
<text text-anchor="middle" x="786.88" y="-171.5" font-family="Helvetica,sans-Serif" font-size="10.00">Ark/Compiler/Pass.hpp</text>
</a>
</g>
</g>
<!-- Node21&#45;&gt;Node23 -->
<g id="edge35_Node000021_Node000023" class="edge">
<title>Node21&#45;&gt;Node23</title>
<g id="a_edge35_Node000021_Node000023"><a xlink:title=" ">
<path fill="none" stroke="#63b8ff" d="M731.99,-287.37C743.19,-264.72 764.94,-220.74 777.43,-195.47"/>
<polygon fill="#63b8ff" stroke="#63b8ff" points="780.49,-197.19 781.78,-186.68 774.21,-194.09 780.49,-197.19"/>
</a>
</g>
</g>
<!-- Node22&#45;&gt;Node4 -->
<g id="edge33_Node000022_Node000004" class="edge">
<title>Node22&#45;&gt;Node4</title>
<g id="a_edge33_Node000022_Node000004"><a xlink:title=" ">
<path fill="none" stroke="#63b8ff" d="M986.32,-220.52C1048.47,-188.32 1195.73,-112.05 1257.18,-80.22"/>
<polygon fill="#63b8ff" stroke="#63b8ff" points="1258.67,-83.39 1265.94,-75.68 1255.45,-77.17 1258.67,-83.39"/>
</a>
</g>
</g>
<!-- Node22&#45;&gt;Node5 -->
<g id="edge32_Node000022_Node000005" class="edge">
<title>Node22&#45;&gt;Node5</title>
<g id="a_edge32_Node000022_Node000005"><a xlink:title=" ">
<path fill="none" stroke="#63b8ff" d="M903.46,-226.75C836.78,-216.34 723.69,-198.68 650.67,-187.27"/>
<polygon fill="#63b8ff" stroke="#63b8ff" points="651.22,-183.82 640.8,-185.73 650.14,-190.73 651.22,-183.82"/>
</a>
</g>
</g>
<!-- Node22&#45;&gt;Node8 -->
<g id="edge34_Node000022_Node000008" class="edge">
<title>Node22&#45;&gt;Node8</title>
<g id="a_edge34_Node000022_Node000008"><a xlink:title=" ">
<path fill="none" stroke="#63b8ff" d="M954.2,-220.73C946.76,-194.43 927.36,-139.04 889.88,-110.5 836.68,-70 806.82,-90.28 738.02,-74.75"/>
<polygon fill="#63b8ff" stroke="#63b8ff" points="739.13,-71.42 728.58,-72.42 737.45,-78.21 739.13,-71.42"/>
</a>
</g>
</g>
<!-- Node23&#45;&gt;Node7 -->
<g id="edge48_Node000023_Node000007" class="edge">
<title>Node23&#45;&gt;Node7</title>
<g id="a_edge48_Node000023_Node000007"><a xlink:title=" ">
<path fill="none" stroke="#63b8ff" d="M786.38,-165.58C786.01,-158.99 785.49,-149.71 785.01,-141.32"/>
<polygon fill="#63b8ff" stroke="#63b8ff" points="788.52,-141.41 784.47,-131.62 781.53,-141.8 788.52,-141.41"/>
</a>
</g>
</g>
<!-- Node23&#45;&gt;Node19 -->
<g id="edge36_Node000023_Node000019" class="edge">
<title>Node23&#45;&gt;Node19</title>
<g id="a_edge36_Node000023_Node000019"><a xlink:title=" ">
<path fill="none" stroke="#63b8ff" d="M797.37,-165.42C811.38,-152.4 832.89,-127.88 818.88,-110.5 810.03,-99.54 737.29,-85.62 680.73,-76.26"/>
<polygon fill="#63b8ff" stroke="#63b8ff" points="681.58,-72.86 671.15,-74.7 680.45,-79.76 681.58,-72.86"/>
</a>
</g>
</g>
<!-- Node24 -->
<g id="Node000024" class="node">
<title>Node24</title>
<g id="a_Node000024"><a xlink:href="../../d9/d11/Logger_8hpp.html" target="_top" xlink:title="Internal logger.">
<polygon fill="white" stroke="#666666" points="1046.12,-129.75 941.62,-129.75 941.62,-110.5 1046.12,-110.5 1046.12,-129.75"/>
<text text-anchor="middle" x="993.88" y="-116.25" font-family="Helvetica,sans-Serif" font-size="10.00">Ark/Utils/Logger.hpp</text>
</a>
</g>
</g>
<!-- Node23&#45;&gt;Node24 -->
<g id="edge37_Node000023_Node000024" class="edge">
<title>Node23&#45;&gt;Node24</title>
<g id="a_edge37_Node000023_Node000024"><a xlink:title=" ">
<path fill="none" stroke="#63b8ff" d="M821.99,-165.34C856.63,-156.43 909.78,-142.76 947.8,-132.98"/>
<polygon fill="#63b8ff" stroke="#63b8ff" points="948.31,-136.46 957.12,-130.58 946.57,-129.68 948.31,-136.46"/>
</a>
</g>
</g>
<!-- Node24&#45;&gt;Node4 -->
<g id="edge46_Node000024_Node000004" class="edge">
<title>Node24&#45;&gt;Node4</title>
<g id="a_edge46_Node000024_Node000004"><a xlink:title=" ">
<path fill="none" stroke="#63b8ff" d="M1043.57,-110.03C1096.05,-100.43 1178.46,-85.35 1232.08,-75.54"/>
<polygon fill="#63b8ff" stroke="#63b8ff" points="1232.7,-78.98 1241.91,-73.74 1231.44,-72.1 1232.7,-78.98"/>
</a>
</g>
</g>
<!-- Node24&#45;&gt;Node8 -->
<g id="edge42_Node000024_Node000008" class="edge">
<title>Node24&#45;&gt;Node8</title>
<g id="a_edge42_Node000024_Node000008"><a xlink:title=" ">
<path fill="none" stroke="#63b8ff" d="M941.13,-111.86C891.18,-104.57 813.91,-92.22 738.23,-74.82"/>
<polygon fill="#63b8ff" stroke="#63b8ff" points="739.08,-71.42 728.55,-72.56 737.49,-78.24 739.08,-71.42"/>
</a>
</g>
</g>
<!-- Node24&#45;&gt;Node9 -->
<g id="edge45_Node000024_Node000009" class="edge">
<title>Node24&#45;&gt;Node9</title>
<g id="a_edge45_Node000024_Node000009"><a xlink:title=" ">
<path fill="none" stroke="#63b8ff" d="M941.22,-116.29C842.86,-110.67 624.65,-96.72 441.88,-74.5 435.45,-73.72 428.62,-72.73 422.07,-71.7"/>
<polygon fill="#63b8ff" stroke="#63b8ff" points="422.66,-68.25 412.23,-70.08 421.53,-75.16 422.66,-68.25"/>
</a>
</g>
</g>
<!-- Node24&#45;&gt;Node19 -->
<g id="edge47_Node000024_Node000019" class="edge">
<title>Node24&#45;&gt;Node19</title>
<g id="a_edge47_Node000024_Node000019"><a xlink:title=" ">
<path fill="none" stroke="#63b8ff" d="M941.3,-111.78C873.44,-102.29 755.24,-85.77 680.69,-75.35"/>
<polygon fill="#63b8ff" stroke="#63b8ff" points="681.45,-71.93 671.06,-74.01 680.48,-78.86 681.45,-71.93"/>
</a>
</g>
</g>
<!-- Node25 -->
<g id="Node000025" class="node">
<title>Node25</title>
<g id="a_Node000025"><a xlink:title=" ">
<polygon fill="#e0e0e0" stroke="#999999" points="1058.62,-74.5 1005.12,-74.5 1005.12,-55.25 1058.62,-55.25 1058.62,-74.5"/>
<text text-anchor="middle" x="1031.88" y="-61" font-family="Helvetica,sans-Serif" font-size="10.00">iostream</text>
</a>
</g>
</g>
<!-- Node24&#45;&gt;Node25 -->
<g id="edge38_Node000024_Node000025" class="edge">
<title>Node24&#45;&gt;Node25</title>
<g id="a_edge38_Node000024_Node000025"><a xlink:title=" ">
<path fill="none" stroke="#63b8ff" d="M1000.15,-110.33C1005.23,-103.21 1012.57,-92.93 1018.91,-84.05"/>
<polygon fill="#63b8ff" stroke="#63b8ff" points="1021.62,-86.26 1024.58,-76.09 1015.93,-82.2 1021.62,-86.26"/>
</a>
</g>
</g>
<!-- Node26 -->
<g id="Node000026" class="node">
<title>Node26</title>
<g id="a_Node000026"><a xlink:title=" ">
<polygon fill="#e0e0e0" stroke="#999999" points="1145.5,-74.5 1076.25,-74.5 1076.25,-55.25 1145.5,-55.25 1145.5,-74.5"/>
<text text-anchor="middle" x="1110.88" y="-61" font-family="Helvetica,sans-Serif" font-size="10.00">fmt/format.h</text>
</a>
</g>
</g>
<!-- Node24&#45;&gt;Node26 -->
<g id="edge39_Node000024_Node000026" class="edge">
<title>Node24&#45;&gt;Node26</title>
<g id="a_edge39_Node000024_Node000026"><a xlink:title=" ">
<path fill="none" stroke="#63b8ff" d="M1013.72,-110.09C1032.04,-101.75 1059.52,-89.25 1080.58,-79.66"/>
<polygon fill="#63b8ff" stroke="#63b8ff" points="1081.9,-82.91 1089.55,-75.58 1079,-76.54 1081.9,-82.91"/>
</a>
</g>
</g>
<!-- Node27 -->
<g id="Node000027" class="node">
<title>Node27</title>
<g id="a_Node000027"><a xlink:title=" ">
<polygon fill="#e0e0e0" stroke="#999999" points="1225.75,-74.5 1164,-74.5 1164,-55.25 1225.75,-55.25 1225.75,-74.5"/>
<text text-anchor="middle" x="1194.88" y="-61" font-family="Helvetica,sans-Serif" font-size="10.00">fmt/color.h</text>
</a>
</g>
</g>
<!-- Node24&#45;&gt;Node27 -->
<g id="edge40_Node000024_Node000027" class="edge">
<title>Node24&#45;&gt;Node27</title>
<g id="a_edge40_Node000024_Node000027"><a xlink:title=" ">
<path fill="none" stroke="#63b8ff" d="M1027.97,-110.09C1062.38,-100.98 1115.59,-86.88 1152.65,-77.06"/>
<polygon fill="#63b8ff" stroke="#63b8ff" points="1153.36,-80.49 1162.13,-74.55 1151.57,-73.73 1153.36,-80.49"/>
</a>
</g>
</g>
<!-- Node28 -->
<g id="Node000028" class="node">
<title>Node28</title>
<g id="a_Node000028"><a xlink:title=" ">
<polygon fill="#e0e0e0" stroke="#999999" points="821.25,-74.5 744.5,-74.5 744.5,-55.25 821.25,-55.25 821.25,-74.5"/>
<text text-anchor="middle" x="782.88" y="-61" font-family="Helvetica,sans-Serif" font-size="10.00">fmt/ostream.h</text>
</a>
</g>
</g>
<!-- Node24&#45;&gt;Node28 -->
<g id="edge41_Node000024_Node000028" class="edge">
<title>Node24&#45;&gt;Node28</title>
<g id="a_edge41_Node000024_Node000028"><a xlink:title=" ">
<path fill="none" stroke="#63b8ff" d="M958.08,-110.09C922.77,-101.18 868.59,-87.51 829.84,-77.73"/>
<polygon fill="#63b8ff" stroke="#63b8ff" points="830.86,-74.38 820.31,-75.32 829.15,-81.16 830.86,-74.38"/>
</a>
</g>
</g>
<!-- Node29 -->
<g id="Node000029" class="node">
<title>Node29</title>
<g id="a_Node000029"><a xlink:title=" ">
<polygon fill="#e0e0e0" stroke="#999999" points="884.5,-74.5 839.25,-74.5 839.25,-55.25 884.5,-55.25 884.5,-74.5"/>
<text text-anchor="middle" x="861.88" y="-61" font-family="Helvetica,sans-Serif" font-size="10.00">chrono</text>
</a>
</g>
</g>
<!-- Node24&#45;&gt;Node29 -->
<g id="edge43_Node000024_Node000029" class="edge">
<title>Node24&#45;&gt;Node29</title>
<g id="a_edge43_Node000024_Node000029"><a xlink:title=" ">
<path fill="none" stroke="#63b8ff" d="M971.48,-110.09C950.43,-101.6 918.67,-88.79 894.75,-79.14"/>
<polygon fill="#63b8ff" stroke="#63b8ff" points="896.36,-76.01 885.78,-75.52 893.74,-82.51 896.36,-76.01"/>
</a>
</g>
</g>
<!-- Node30 -->
<g id="Node000030" class="node">
<title>Node30</title>
<g id="a_Node000030"><a xlink:title=" ">
<polygon fill="#e0e0e0" stroke="#999999" points="987,-74.5 902.75,-74.5 902.75,-55.25 987,-55.25 987,-74.5"/>
<text text-anchor="middle" x="944.88" y="-61" font-family="Helvetica,sans-Serif" font-size="10.00">source_location</text>
</a>
</g>
</g>
<!-- Node24&#45;&gt;Node30 -->
<g id="edge44_Node000024_Node000030" class="edge">
<title>Node24&#45;&gt;Node30</title>
<g id="a_edge44_Node000024_Node000030"><a xlink:title=" ">
<path fill="none" stroke="#63b8ff" d="M985.78,-110.33C979.02,-102.98 969.15,-92.26 960.81,-83.19"/>
<polygon fill="#63b8ff" stroke="#63b8ff" points="963.51,-80.96 954.17,-75.97 958.36,-85.7 963.51,-80.96"/>
</a>
</g>
</g>
</g>
</svg>

<g id="navigator" transform="translate(0 0)" fill="#404254">
  <rect fill="#f2f5e9" fill-opacity="0.5" stroke="#606060" stroke-width=".5" x="0" y="0" width="60" height="60"/>
  <use id="zoomplus" xlink:href="#zoomPlus" x="17" y="9" onmousedown="handleZoom(evt,'in')"/>
  <use id="zoomminus" xlink:href="#zoomMin" x="42" y="9" onmousedown="handleZoom(evt,'out')"/>
  <use id="reset" xlink:href="#resetDef" x="30" y="36" onmousedown="handleReset()"/>
   <use id="arrowup" xlink:href="#arrowUp" x="0" y="0" onmousedown="handlePan(0,-1)"/>
  <use id="arrowright" xlink:href="#arrowRight" x="0" y="0" onmousedown="handlePan(1,0)"/>
  <use id="arrowdown" xlink:href="#arrowDown" x="0" y="0" onmousedown="handlePan(0,1)"/>
  <use id="arrowleft" xlink:href="#arrowLeft" x="0" y="0" onmousedown="handlePan(-1,0)"/>
</g>
<svg viewBox="0 0 15 15" width="100%" height="30px" preserveAspectRatio="xMaxYMin meet">
 <g id="arrow_out" transform="scale(0.3 0.3)">
  <a xlink:href="Executor_8cpp__incl_org.svg" target="_base">
   <rect id="button" ry="5" rx="5" y="6" x="6" height="38" width="38"
        fill="#f2f5e9" fill-opacity="0.5" stroke="#606060" stroke-width="1.0"/>
   <path id="arrow"
     d="M 11.500037,31.436501 C 11.940474,20.09759 22.043105,11.32322 32.158766,21.979434 L 37.068811,17.246167 C 37.068811,17.246167 37.088388,32 37.088388,32 L 22.160133,31.978069 C 22.160133,31.978069 26.997745,27.140456 26.997745,27.140456 C 18.528582,18.264221 13.291696,25.230495 11.500037,31.436501 z"
     style="fill:#404040;"/>
  </a>
 </g>
</svg>

<style type='text/css'>
<![CDATA[
[data-mouse-over-selected='false'] { opacity: 0.7; }
[data-mouse-over-selected='true']  { opacity: 1.0; }
]]>
</style>
<script type="application/ecmascript"><![CDATA[
document.addEventListener('DOMContentLoaded', (event) => {
  highlightEdges();
  highlightAdjacentNodes();
});
]]></script>
</svg>
