<?xml version="1.0" encoding="UTF-8" standalone="no"?>
<!DOCTYPE svg PUBLIC "-//W3C//DTD SVG 1.1//EN"
 "http://www.w3.org/Graphics/SVG/1.1/DTD/svg11.dtd">
<!-- Generated by graphviz version 12.2.0 (20241103.1931)
 -->
<!-- Title: /Users/fola/Documents/ArkScript/Ark/src/arkreactor/Compiler/Macros/Executor.cpp Pages: 1 -->
<svg width="1503pt" height="404pt"
 viewBox="0.00 0.00 1502.99 403.75" xmlns="http://www.w3.org/2000/svg" xmlns:xlink="http://www.w3.org/1999/xlink">
<g id="graph0" class="graph" transform="scale(1 1) rotate(0) translate(4 399.75)">
<title>/Users/fola/Documents/ArkScript/Ark/src/arkreactor/Compiler/Macros/Executor.cpp</title>
<!-- Node1 -->
<g id="Node000001" class="node">
<title>Node1</title>
<g id="a_Node000001"><a xlink:title=" ">
<polygon fill="#999999" stroke="#666666" points="861.5,-395.75 708.25,-395.75 708.25,-354 861.5,-354 861.5,-395.75"/>
<text text-anchor="start" x="716.25" y="-382.25" font-family="Helvetica,sans-Serif" font-size="10.00">/Users/fola/Documents</text>
<text text-anchor="start" x="716.25" y="-371" font-family="Helvetica,sans-Serif" font-size="10.00">/ArkScript/Ark/src/arkreactor</text>
<text text-anchor="middle" x="784.88" y="-359.75" font-family="Helvetica,sans-Serif" font-size="10.00">/Compiler/Macros/Executor.cpp</text>
</a>
</g>
</g>
<!-- Node2 -->
<g id="Node000002" class="node">
<title>Node2</title>
<g id="a_Node000002"><a xlink:href="../../d4/d1a/Executor_8hpp.html" target="_top" xlink:title="The base class for all MacroExecutors.">
<polygon fill="white" stroke="#666666" points="711,-251.5 602.75,-251.5 602.75,-221 711,-221 711,-251.5"/>
<text text-anchor="start" x="610.75" y="-238" font-family="Helvetica,sans-Serif" font-size="10.00">Ark/Compiler/Macros</text>
<text text-anchor="middle" x="656.88" y="-226.75" font-family="Helvetica,sans-Serif" font-size="10.00">/Executor.hpp</text>
</a>
</g>
</g>
<!-- Node1&#45;&gt;Node2 -->
<g id="edge1_Node000001_Node000002" class="edge">
<title>Node1&#45;&gt;Node2</title>
<g id="a_edge1_Node000001_Node000002"><a xlink:title=" ">
<path fill="none" stroke="#63b8ff" d="M765.99,-353.72C742.5,-328.64 702.5,-285.95 678.01,-259.81"/>
<polygon fill="#63b8ff" stroke="#63b8ff" points="680.77,-257.64 671.38,-252.73 675.66,-262.42 680.77,-257.64"/>
</a>
</g>
</g>
<!-- Node21 -->
<g id="Node000021" class="node">
<title>Node21</title>
<g id="a_Node000021"><a xlink:href="../../de/db1/Processor_8hpp.html" target="_top" xlink:title="Handles the macros and their expansion in ArkScript source code.">
<polygon fill="white" stroke="#666666" points="923,-318 814.75,-318 814.75,-287.5 923,-287.5 923,-318"/>
<text text-anchor="start" x="822.75" y="-304.5" font-family="Helvetica,sans-Serif" font-size="10.00">Ark/Compiler/Macros</text>
<text text-anchor="middle" x="868.88" y="-293.25" font-family="Helvetica,sans-Serif" font-size="10.00">/Processor.hpp</text>
</a>
</g>
</g>
<!-- Node1&#45;&gt;Node21 -->
<g id="edge28_Node000001_Node000021" class="edge">
<title>Node1&#45;&gt;Node21</title>
<g id="a_edge28_Node000001_Node000021"><a xlink:title=" ">
<path fill="none" stroke="#63b8ff" d="M809.17,-353.59C819.69,-344.81 832.03,-334.51 842.75,-325.56"/>
<polygon fill="#63b8ff" stroke="#63b8ff" points="844.71,-328.49 850.14,-319.39 840.22,-323.11 844.71,-328.49"/>
</a>
</g>
</g>
<!-- Node3 -->
<g id="Node000003" class="node">
<title>Node3</title>
<g id="a_Node000003"><a xlink:title=" ">
<polygon fill="#e0e0e0" stroke="#999999" points="49.75,-74.5 0,-74.5 0,-55.25 49.75,-55.25 49.75,-74.5"/>
<text text-anchor="middle" x="24.88" y="-61" font-family="Helvetica,sans-Serif" font-size="10.00">optional</text>
</a>
</g>
</g>
<!-- Node2&#45;&gt;Node3 -->
<g id="edge2_Node000002_Node000003" class="edge">
<title>Node2&#45;&gt;Node3</title>
<g id="a_edge2_Node000002_Node000003"><a xlink:title=" ">
<path fill="none" stroke="#63b8ff" d="M602.34,-230.99C473.59,-220.09 154.93,-187.83 66.88,-129.75 50.61,-119.03 39.19,-99.6 32.41,-84.98"/>
<polygon fill="#63b8ff" stroke="#63b8ff" points="35.69,-83.76 28.55,-75.93 29.25,-86.51 35.69,-83.76"/>
</a>
</g>
</g>
<!-- Node4 -->
<g id="Node000004" class="node">
<title>Node4</title>
<g id="a_Node000004"><a xlink:title=" ">
<polygon fill="#e0e0e0" stroke="#999999" points="1465.25,-129.75 1382.5,-129.75 1382.5,-110.5 1465.25,-110.5 1465.25,-129.75"/>
<text text-anchor="middle" x="1423.88" y="-116.25" font-family="Helvetica,sans-Serif" font-size="10.00">unordered_map</text>
</a>
</g>
</g>
<!-- Node2&#45;&gt;Node4 -->
<g id="edge3_Node000002_Node000004" class="edge">
<title>Node2&#45;&gt;Node4</title>
<g id="a_edge3_Node000002_Node000004"><a xlink:title=" ">
<path fill="none" stroke="#63b8ff" d="M711.32,-227C726.38,-224.88 742.74,-222.71 757.88,-221 946.25,-199.75 996.74,-220.9 1182.88,-185 1211.62,-179.46 1217.67,-173.59 1245.88,-165.75 1288.95,-153.78 1338.28,-141.52 1374.07,-132.89"/>
<polygon fill="#63b8ff" stroke="#63b8ff" points="1374.81,-136.32 1383.71,-130.58 1373.17,-129.51 1374.81,-136.32"/>
</a>
</g>
</g>
<!-- Node5 -->
<g id="Node000005" class="node">
<title>Node5</title>
<g id="a_Node000005"><a xlink:href="../../d7/dc6/Node_8hpp.html" target="_top" xlink:title="AST node used by the parser, optimizer and compiler.">
<polygon fill="white" stroke="#666666" points="727.12,-185 586.62,-185 586.62,-165.75 727.12,-165.75 727.12,-185"/>
<text text-anchor="middle" x="656.88" y="-171.5" font-family="Helvetica,sans-Serif" font-size="10.00">Ark/Compiler/AST/Node.hpp</text>
</a>
</g>
</g>
<!-- Node2&#45;&gt;Node5 -->
<g id="edge4_Node000002_Node000005" class="edge">
<title>Node2&#45;&gt;Node5</title>
<g id="a_edge4_Node000002_Node000005"><a xlink:title=" ">
<path fill="none" stroke="#63b8ff" d="M656.88,-220.7C656.88,-213.46 656.88,-204.59 656.88,-196.69"/>
<polygon fill="#63b8ff" stroke="#63b8ff" points="660.38,-196.96 656.88,-186.96 653.38,-196.96 660.38,-196.96"/>
</a>
</g>
</g>
<!-- Node5&#45;&gt;Node3 -->
<g id="edge9_Node000005_Node000003" class="edge">
<title>Node5&#45;&gt;Node3</title>
<g id="a_edge9_Node000005_Node000003"><a xlink:title=" ">
<path fill="none" stroke="#63b8ff" d="M586.13,-174.02C456.63,-172.5 186.88,-165.05 100.88,-129.75 76.32,-119.67 53.8,-98.59 39.75,-83.41"/>
<polygon fill="#63b8ff" stroke="#63b8ff" points="42.43,-81.14 33.17,-75.99 37.19,-85.79 42.43,-81.14"/>
</a>
</g>
</g>
<!-- Node6 -->
<g id="Node000006" class="node">
<title>Node6</title>
<g id="a_Node000006"><a xlink:title=" ">
<polygon fill="#e0e0e0" stroke="#999999" points="436.5,-129.75 391.25,-129.75 391.25,-110.5 436.5,-110.5 436.5,-129.75"/>
<text text-anchor="middle" x="413.88" y="-116.25" font-family="Helvetica,sans-Serif" font-size="10.00">variant</text>
</a>
</g>
</g>
<!-- Node5&#45;&gt;Node6 -->
<g id="edge5_Node000005_Node000006" class="edge">
<title>Node5&#45;&gt;Node6</title>
<g id="a_edge5_Node000005_Node000006"><a xlink:title=" ">
<path fill="none" stroke="#63b8ff" d="M613.83,-165.25C572.12,-156.37 507.11,-142.39 450.88,-129.75 449.89,-129.53 448.89,-129.3 447.88,-129.07"/>
<polygon fill="#63b8ff" stroke="#63b8ff" points="448.96,-125.73 438.43,-126.9 447.39,-132.55 448.96,-125.73"/>
</a>
</g>
</g>
<!-- Node7 -->
<g id="Node000007" class="node">
<title>Node7</title>
<g id="a_Node000007"><a xlink:title=" ">
<polygon fill="#e0e0e0" stroke="#999999" points="544.5,-129.75 493.25,-129.75 493.25,-110.5 544.5,-110.5 544.5,-129.75"/>
<text text-anchor="middle" x="518.88" y="-116.25" font-family="Helvetica,sans-Serif" font-size="10.00">ostream</text>
</a>
</g>
</g>
<!-- Node5&#45;&gt;Node7 -->
<g id="edge6_Node000005_Node000007" class="edge">
<title>Node5&#45;&gt;Node7</title>
<g id="a_edge6_Node000005_Node000007"><a xlink:title=" ">
<path fill="none" stroke="#63b8ff" d="M633.47,-165.34C611.36,-156.81 577.96,-143.92 552.91,-134.26"/>
<polygon fill="#63b8ff" stroke="#63b8ff" points="554.4,-131.08 543.81,-130.75 551.88,-137.61 554.4,-131.08"/>
</a>
</g>
</g>
<!-- Node8 -->
<g id="Node000008" class="node">
<title>Node8</title>
<g id="a_Node000008"><a xlink:title=" ">
<polygon fill="#e0e0e0" stroke="#999999" points="1374.88,-74.5 1334.88,-74.5 1334.88,-55.25 1374.88,-55.25 1374.88,-74.5"/>
<text text-anchor="middle" x="1354.88" y="-61" font-family="Helvetica,sans-Serif" font-size="10.00">string</text>
</a>
</g>
</g>
<!-- Node5&#45;&gt;Node8 -->
<g id="edge7_Node000005_Node000008" class="edge">
<title>Node5&#45;&gt;Node8</title>
<g id="a_edge7_Node000005_Node000008"><a xlink:title=" ">
<path fill="none" stroke="#63b8ff" d="M690.05,-165.27C741.46,-151.48 843.66,-125.34 931.88,-110.5 1077.13,-86.06 1252.82,-72.62 1323.35,-67.87"/>
<polygon fill="#63b8ff" stroke="#63b8ff" points="1323.24,-71.38 1332.99,-67.23 1322.78,-64.4 1323.24,-71.38"/>
</a>
</g>
</g>
<!-- Node9 -->
<g id="Node000009" class="node">
<title>Node9</title>
<g id="a_Node000009"><a xlink:title=" ">
<polygon fill="#e0e0e0" stroke="#999999" points="540.38,-74.5 497.38,-74.5 497.38,-55.25 540.38,-55.25 540.38,-74.5"/>
<text text-anchor="middle" x="518.88" y="-61" font-family="Helvetica,sans-Serif" font-size="10.00">vector</text>
</a>
</g>
</g>
<!-- Node5&#45;&gt;Node9 -->
<g id="edge8_Node000005_Node000009" class="edge">
<title>Node5&#45;&gt;Node9</title>
<g id="a_edge8_Node000005_Node000009"><a xlink:title=" ">
<path fill="none" stroke="#63b8ff" d="M587.92,-165.3C545.52,-158.15 496.89,-146.55 483.88,-129.75 472.33,-114.85 486.1,-95.65 499.61,-82.2"/>
<polygon fill="#63b8ff" stroke="#63b8ff" points="501.69,-85.05 506.66,-75.69 496.94,-79.91 501.69,-85.05"/>
</a>
</g>
</g>
<!-- Node10 -->
<g id="Node000010" class="node">
<title>Node10</title>
<g id="a_Node000010"><a xlink:href="../../da/d33/Namespace_8hpp.html" target="_top" xlink:title=" ">
<polygon fill="white" stroke="#666666" points="770.75,-129.75 601,-129.75 601,-110.5 770.75,-110.5 770.75,-129.75"/>
<text text-anchor="middle" x="685.88" y="-116.25" font-family="Helvetica,sans-Serif" font-size="10.00">Ark/Compiler/AST/Namespace.hpp</text>
</a>
</g>
</g>
<!-- Node5&#45;&gt;Node10 -->
<g id="edge10_Node000005_Node000010" class="edge">
<title>Node5&#45;&gt;Node10</title>
<g id="a_edge10_Node000005_Node000010"><a xlink:title=" ">
<path fill="none" stroke="#63b8ff" d="M661.66,-165.58C665.42,-158.69 670.78,-148.84 675.51,-140.16"/>
<polygon fill="#63b8ff" stroke="#63b8ff" points="678.55,-141.89 680.26,-131.44 672.4,-138.55 678.55,-141.89"/>
</a>
</g>
</g>
<!-- Node12 -->
<g id="Node000012" class="node">
<title>Node12</title>
<g id="a_Node000012"><a xlink:href="../../d8/ddd/Common_8hpp.html" target="_top" xlink:title="Common code for the compiler.">
<polygon fill="white" stroke="#666666" points="244.12,-129.75 109.62,-129.75 109.62,-110.5 244.12,-110.5 244.12,-129.75"/>
<text text-anchor="middle" x="176.88" y="-116.25" font-family="Helvetica,sans-Serif" font-size="10.00">Ark/Compiler/Common.hpp</text>
</a>
</g>
</g>
<!-- Node5&#45;&gt;Node12 -->
<g id="edge14_Node000005_Node000012" class="edge">
<title>Node5&#45;&gt;Node12</title>
<g id="a_edge14_Node000005_Node000012"><a xlink:title=" ">
<path fill="none" stroke="#63b8ff" d="M586.44,-166.66C508.26,-158.08 378,-143.74 255.83,-130.08"/>
<polygon fill="#63b8ff" stroke="#63b8ff" points="256.25,-126.6 245.92,-128.97 255.47,-133.56 256.25,-126.6"/>
</a>
</g>
</g>
<!-- Node19 -->
<g id="Node000019" class="node">
<title>Node19</title>
<g id="a_Node000019"><a xlink:href="../../d5/d40/Platform_8hpp.html" target="_top" xlink:title="ArkScript configuration macros.">
<polygon fill="white" stroke="#666666" points="874.25,-74.5 761.5,-74.5 761.5,-55.25 874.25,-55.25 874.25,-74.5"/>
<text text-anchor="middle" x="817.88" y="-61" font-family="Helvetica,sans-Serif" font-size="10.00">Ark/Utils/Platform.hpp</text>
</a>
</g>
</g>
<!-- Node5&#45;&gt;Node19 -->
<g id="edge24_Node000005_Node000019" class="edge">
<title>Node5&#45;&gt;Node19</title>
<g id="a_edge24_Node000005_Node000019"><a xlink:title=" ">
<path fill="none" stroke="#63b8ff" d="M704.24,-165.26C728.87,-158.65 758.26,-147.63 779.88,-129.75 794.17,-117.93 804.39,-99.24 810.61,-85.13"/>
<polygon fill="#63b8ff" stroke="#63b8ff" points="813.79,-86.58 814.32,-76 807.31,-83.95 813.79,-86.58"/>
</a>
</g>
</g>
<!-- Node20 -->
<g id="Node000020" class="node">
<title>Node20</title>
<g id="a_Node000020"><a xlink:href="../../dc/d58/Position_8hpp.html" target="_top" xlink:title="Defines position utilities (for text in a file) for the parser, formatter, diagnostics.">
<polygon fill="white" stroke="#666666" points="373.5,-129.75 262.25,-129.75 262.25,-110.5 373.5,-110.5 373.5,-129.75"/>
<text text-anchor="middle" x="317.88" y="-116.25" font-family="Helvetica,sans-Serif" font-size="10.00">Ark/Utils/Position.hpp</text>
</a>
</g>
</g>
<!-- Node5&#45;&gt;Node20 -->
<g id="edge25_Node000005_Node000020" class="edge">
<title>Node5&#45;&gt;Node20</title>
<g id="a_edge25_Node000005_Node000020"><a xlink:title=" ">
<path fill="none" stroke="#63b8ff" d="M598.98,-165.28C539.7,-155.97 447.63,-141.51 385.15,-131.69"/>
<polygon fill="#63b8ff" stroke="#63b8ff" points="385.75,-128.24 375.33,-130.15 384.67,-135.16 385.75,-128.24"/>
</a>
</g>
</g>
<!-- Node10&#45;&gt;Node8 -->
<g id="edge11_Node000010_Node000008" class="edge">
<title>Node10&#45;&gt;Node8</title>
<g id="a_edge11_Node000010_Node000008"><a xlink:title=" ">
<path fill="none" stroke="#63b8ff" d="M770.94,-112.35C920.61,-100.44 1224.5,-76.25 1323.16,-68.4"/>
<polygon fill="#63b8ff" stroke="#63b8ff" points="1323.21,-71.91 1332.9,-67.62 1322.66,-64.93 1323.21,-71.91"/>
</a>
</g>
</g>
<!-- Node10&#45;&gt;Node9 -->
<g id="edge12_Node000010_Node000009" class="edge">
<title>Node10&#45;&gt;Node9</title>
<g id="a_edge12_Node000010_Node000009"><a xlink:title=" ">
<path fill="none" stroke="#63b8ff" d="M657.55,-110.09C628.12,-100.71 582.16,-86.05 551.3,-76.21"/>
<polygon fill="#63b8ff" stroke="#63b8ff" points="552.71,-72.99 542.12,-73.29 550.58,-79.66 552.71,-72.99"/>
</a>
</g>
</g>
<!-- Node11 -->
<g id="Node000011" class="node">
<title>Node11</title>
<g id="a_Node000011"><a xlink:title=" ">
<polygon fill="#e0e0e0" stroke="#999999" points="711.5,-74.5 660.25,-74.5 660.25,-55.25 711.5,-55.25 711.5,-74.5"/>
<text text-anchor="middle" x="685.88" y="-61" font-family="Helvetica,sans-Serif" font-size="10.00">memory</text>
</a>
</g>
</g>
<!-- Node10&#45;&gt;Node11 -->
<g id="edge13_Node000010_Node000011" class="edge">
<title>Node10&#45;&gt;Node11</title>
<g id="a_edge13_Node000010_Node000011"><a xlink:title=" ">
<path fill="none" stroke="#63b8ff" d="M685.88,-110.33C685.88,-103.82 685.88,-94.67 685.88,-86.37"/>
<polygon fill="#63b8ff" stroke="#63b8ff" points="689.38,-86.37 685.88,-76.37 682.38,-86.37 689.38,-86.37"/>
</a>
</g>
</g>
<!-- Node12&#45;&gt;Node9 -->
<g id="edge17_Node000012_Node000009" class="edge">
<title>Node12&#45;&gt;Node9</title>
<g id="a_edge17_Node000012_Node000009"><a xlink:title=" ">
<path fill="none" stroke="#63b8ff" d="M235.28,-110.03C307.56,-98.78 428.17,-80 486,-70.99"/>
<polygon fill="#63b8ff" stroke="#63b8ff" points="486.18,-74.51 495.52,-69.51 485.1,-67.59 486.18,-74.51"/>
</a>
</g>
</g>
<!-- Node13 -->
<g id="Node000013" class="node">
<title>Node13</title>
<g id="a_Node000013"><a xlink:title=" ">
<polygon fill="#e0e0e0" stroke="#999999" points="221.75,-74.5 184,-74.5 184,-55.25 221.75,-55.25 221.75,-74.5"/>
<text text-anchor="middle" x="202.88" y="-61" font-family="Helvetica,sans-Serif" font-size="10.00">array</text>
</a>
</g>
</g>
<!-- Node12&#45;&gt;Node13 -->
<g id="edge15_Node000012_Node000013" class="edge">
<title>Node12&#45;&gt;Node13</title>
<g id="a_edge15_Node000012_Node000013"><a xlink:title=" ">
<path fill="none" stroke="#63b8ff" d="M181.17,-110.33C184.5,-103.51 189.24,-93.81 193.44,-85.2"/>
<polygon fill="#63b8ff" stroke="#63b8ff" points="196.58,-86.74 197.82,-76.22 190.29,-83.67 196.58,-86.74"/>
</a>
</g>
</g>
<!-- Node14 -->
<g id="Node000014" class="node">
<title>Node14</title>
<g id="a_Node000014"><a xlink:title=" ">
<polygon fill="#e0e0e0" stroke="#999999" points="234.62,-19.25 169.12,-19.25 169.12,0 234.62,0 234.62,-19.25"/>
<text text-anchor="middle" x="201.88" y="-5.75" font-family="Helvetica,sans-Serif" font-size="10.00">string_view</text>
</a>
</g>
</g>
<!-- Node12&#45;&gt;Node14 -->
<g id="edge16_Node000012_Node000014" class="edge">
<title>Node12&#45;&gt;Node14</title>
<g id="a_edge16_Node000012_Node000014"><a xlink:title=" ">
<path fill="none" stroke="#63b8ff" d="M194.55,-110.07C207.26,-102.48 223.41,-90.34 230.88,-74.5 238.31,-58.72 228.34,-40.6 218.12,-27.7"/>
<polygon fill="#63b8ff" stroke="#63b8ff" points="221.07,-25.75 211.87,-20.48 215.77,-30.33 221.07,-25.75"/>
</a>
</g>
</g>
<!-- Node15 -->
<g id="Node000015" class="node">
<title>Node15</title>
<g id="a_Node000015"><a xlink:title=" ">
<polygon fill="#e0e0e0" stroke="#999999" points="312.75,-19.25 257,-19.25 257,0 312.75,0 312.75,-19.25"/>
<text text-anchor="middle" x="284.88" y="-5.75" font-family="Helvetica,sans-Serif" font-size="10.00">cinttypes</text>
</a>
</g>
</g>
<!-- Node12&#45;&gt;Node15 -->
<g id="edge18_Node000012_Node000015" class="edge">
<title>Node12&#45;&gt;Node15</title>
<g id="a_edge18_Node000012_Node000015"><a xlink:title=" ">
<path fill="none" stroke="#63b8ff" d="M195.49,-110.07C210.38,-102.17 231.14,-89.62 245.88,-74.5 258.63,-61.41 269.14,-43.43 276.02,-29.88"/>
<polygon fill="#63b8ff" stroke="#63b8ff" points="279.06,-31.63 280.26,-21.11 272.76,-28.59 279.06,-31.63"/>
</a>
</g>
</g>
<!-- Node16 -->
<g id="Node000016" class="node">
<title>Node16</title>
<g id="a_Node000016"><a xlink:href="../../d6/de9/Constants_8hpp.html" target="_top" xlink:title="Constants used by ArkScript.">
<polygon fill="white" stroke="#666666" points="165.75,-74.5 68,-74.5 68,-55.25 165.75,-55.25 165.75,-74.5"/>
<text text-anchor="middle" x="116.88" y="-61" font-family="Helvetica,sans-Serif" font-size="10.00">Ark/Constants.hpp</text>
</a>
</g>
</g>
<!-- Node12&#45;&gt;Node16 -->
<g id="edge19_Node000012_Node000016" class="edge">
<title>Node12&#45;&gt;Node16</title>
<g id="a_edge19_Node000012_Node000016"><a xlink:title=" ">
<path fill="none" stroke="#63b8ff" d="M166.7,-110.09C158.11,-102.47 145.61,-91.37 135.27,-82.2"/>
<polygon fill="#63b8ff" stroke="#63b8ff" points="137.84,-79.8 128.03,-75.78 133.19,-85.04 137.84,-79.8"/>
</a>
</g>
</g>
<!-- Node16&#45;&gt;Node14 -->
<g id="edge20_Node000016_Node000014" class="edge">
<title>Node16&#45;&gt;Node14</title>
<g id="a_edge20_Node000016_Node000014"><a xlink:title=" ">
<path fill="none" stroke="#63b8ff" d="M131.29,-54.84C143.99,-46.89 162.75,-35.14 177.73,-25.75"/>
<polygon fill="#63b8ff" stroke="#63b8ff" points="179.49,-28.78 186.1,-20.51 175.77,-22.85 179.49,-28.78"/>
</a>
</g>
</g>
<!-- Node16&#45;&gt;Node15 -->
<g id="edge22_Node000016_Node000015" class="edge">
<title>Node16&#45;&gt;Node15</title>
<g id="a_edge22_Node000016_Node000015"><a xlink:title=" ">
<path fill="none" stroke="#63b8ff" d="M145.37,-54.84C172.97,-46.09 215.04,-32.76 245.76,-23.02"/>
<polygon fill="#63b8ff" stroke="#63b8ff" points="246.6,-26.43 255.07,-20.07 244.48,-19.76 246.6,-26.43"/>
</a>
</g>
</g>
<!-- Node17 -->
<g id="Node000017" class="node">
<title>Node17</title>
<g id="a_Node000017"><a xlink:title=" ">
<polygon fill="#e0e0e0" stroke="#999999" points="76.5,-19.25 37.25,-19.25 37.25,0 76.5,0 76.5,-19.25"/>
<text text-anchor="middle" x="56.88" y="-5.75" font-family="Helvetica,sans-Serif" font-size="10.00">limits</text>
</a>
</g>
</g>
<!-- Node16&#45;&gt;Node17 -->
<g id="edge21_Node000016_Node000017" class="edge">
<title>Node16&#45;&gt;Node17</title>
<g id="a_edge21_Node000016_Node000017"><a xlink:title=" ">
<path fill="none" stroke="#63b8ff" d="M106.7,-54.84C98.11,-47.22 85.61,-36.12 75.27,-26.95"/>
<polygon fill="#63b8ff" stroke="#63b8ff" points="77.84,-24.55 68.03,-20.53 73.19,-29.79 77.84,-24.55"/>
</a>
</g>
</g>
<!-- Node18 -->
<g id="Node000018" class="node">
<title>Node18</title>
<g id="a_Node000018"><a xlink:title=" ">
<polygon fill="#e0e0e0" stroke="#999999" points="143,-19.25 94.75,-19.25 94.75,0 143,0 143,-19.25"/>
<text text-anchor="middle" x="118.88" y="-5.75" font-family="Helvetica,sans-Serif" font-size="10.00">cstddef</text>
</a>
</g>
</g>
<!-- Node16&#45;&gt;Node18 -->
<g id="edge23_Node000016_Node000018" class="edge">
<title>Node16&#45;&gt;Node18</title>
<g id="a_edge23_Node000016_Node000018"><a xlink:title=" ">
<path fill="none" stroke="#63b8ff" d="M117.21,-55.08C117.45,-48.49 117.8,-39.21 118.12,-30.82"/>
<polygon fill="#63b8ff" stroke="#63b8ff" points="121.6,-31.25 118.48,-21.12 114.61,-30.98 121.6,-31.25"/>
</a>
</g>
</g>
<!-- Node20&#45;&gt;Node3 -->
<g id="edge26_Node000020_Node000003" class="edge">
<title>Node20&#45;&gt;Node3</title>
<g id="a_edge26_Node000020_Node000003"><a xlink:title=" ">
<path fill="none" stroke="#63b8ff" d="M261.81,-110.76C211.65,-102.98 135.9,-90.52 61.1,-74.84"/>
<polygon fill="#63b8ff" stroke="#63b8ff" points="62.06,-71.46 51.56,-72.81 60.61,-78.31 62.06,-71.46"/>
</a>
</g>
</g>
<!-- Node20&#45;&gt;Node19 -->
<g id="edge27_Node000020_Node000019" class="edge">
<title>Node20&#45;&gt;Node19</title>
<g id="a_edge27_Node000020_Node000019"><a xlink:title=" ">
<path fill="none" stroke="#63b8ff" d="M373.71,-111.49C376.47,-111.15 379.2,-110.82 381.88,-110.5 511.73,-95.11 663.72,-80.27 749.61,-72.18"/>
<polygon fill="#63b8ff" stroke="#63b8ff" points="749.89,-75.67 759.52,-71.25 749.23,-68.7 749.89,-75.67"/>
</a>
</g>
</g>
<!-- Node21&#45;&gt;Node3 -->
<g id="edge48_Node000021_Node000003" class="edge">
<title>Node21&#45;&gt;Node3</title>
<g id="a_edge48_Node000021_Node000003"><a xlink:title=" ">
<path fill="none" stroke="#63b8ff" d="M814.57,-298.19C693.92,-289.12 395.46,-260.33 157.88,-185 104.2,-167.98 80.33,-172.66 43.88,-129.75 33.44,-117.46 28.73,-99.63 26.61,-85.92"/>
<polygon fill="#63b8ff" stroke="#63b8ff" points="30.12,-85.8 25.48,-76.28 23.17,-86.62 30.12,-85.8"/>
</a>
</g>
</g>
<!-- Node21&#45;&gt;Node4 -->
<g id="edge47_Node000021_Node000004" class="edge">
<title>Node21&#45;&gt;Node4</title>
<g id="a_edge47_Node000021_Node000004"><a xlink:title=" ">
<path fill="none" stroke="#63b8ff" d="M923.44,-296.99C982.58,-290.75 1079.18,-277.41 1158.88,-251.5 1252.09,-221.19 1353.87,-163.44 1399.43,-136.14"/>
<polygon fill="#63b8ff" stroke="#63b8ff" points="1401.23,-139.14 1407.98,-130.97 1397.61,-133.15 1401.23,-139.14"/>
</a>
</g>
</g>
<!-- Node21&#45;&gt;Node5 -->
<g id="edge30_Node000021_Node000005" class="edge">
<title>Node21&#45;&gt;Node5</title>
<g id="a_edge30_Node000021_Node000005"><a xlink:title=" ">
<path fill="none" stroke="#63b8ff" d="M830.16,-287.04C808.26,-278.04 780.77,-265.56 757.88,-251.5 739.42,-240.17 737.16,-234.04 719.88,-221 706.67,-211.04 691.55,-200.31 679.43,-191.86"/>
<polygon fill="#63b8ff" stroke="#63b8ff" points="681.53,-189.06 671.32,-186.24 677.54,-194.81 681.53,-189.06"/>
</a>
</g>
</g>
<!-- Node21&#45;&gt;Node8 -->
<g id="edge49_Node000021_Node000008" class="edge">
<title>Node21&#45;&gt;Node8</title>
<g id="a_edge49_Node000021_Node000008"><a xlink:title=" ">
<path fill="none" stroke="#63b8ff" d="M923.46,-296.35C1064.82,-280.98 1435.7,-231.42 1490.88,-129.75 1513.77,-87.57 1433.51,-73.03 1386.54,-68.18"/>
<polygon fill="#63b8ff" stroke="#63b8ff" points="1386.91,-64.7 1376.63,-67.26 1386.27,-71.67 1386.91,-64.7"/>
</a>
</g>
</g>
<!-- Node21&#45;&gt;Node19 -->
<g id="edge29_Node000021_Node000019" class="edge">
<title>Node21&#45;&gt;Node19</title>
<g id="a_edge29_Node000021_Node000019"><a xlink:title=" ">
<path fill="none" stroke="#63b8ff" d="M878.46,-287.05C884.18,-277.38 890.89,-264.21 893.88,-251.5 896.98,-238.3 896.94,-234.21 893.88,-221 881.56,-167.89 848.42,-111.99 830.23,-84.04"/>
<polygon fill="#63b8ff" stroke="#63b8ff" points="833.35,-82.42 824.91,-76.02 827.52,-86.29 833.35,-82.42"/>
</a>
</g>
</g>
<!-- Node22 -->
<g id="Node000022" class="node">
<title>Node22</title>
<g id="a_Node000022"><a xlink:href="../../d7/dfb/MacroScope_8hpp.html" target="_top" xlink:title="Defines tools to handle macro definitions.">
<polygon fill="white" stroke="#666666" points="1150,-251.5 1041.75,-251.5 1041.75,-221 1150,-221 1150,-251.5"/>
<text text-anchor="start" x="1049.75" y="-238" font-family="Helvetica,sans-Serif" font-size="10.00">Ark/Compiler/Macros</text>
<text text-anchor="middle" x="1095.88" y="-226.75" font-family="Helvetica,sans-Serif" font-size="10.00">/MacroScope.hpp</text>
</a>
</g>
</g>
<!-- Node21&#45;&gt;Node22 -->
<g id="edge31_Node000021_Node000022" class="edge">
<title>Node21&#45;&gt;Node22</title>
<g id="a_edge31_Node000021_Node000022"><a xlink:title=" ">
<path fill="none" stroke="#63b8ff" d="M920.67,-287.03C954.23,-277.5 998.13,-265.02 1033.59,-254.95"/>
<polygon fill="#63b8ff" stroke="#63b8ff" points="1034.19,-258.42 1042.85,-252.32 1032.27,-251.68 1034.19,-258.42"/>
</a>
</g>
</g>
<!-- Node23 -->
<g id="Node000023" class="node">
<title>Node23</title>
<g id="a_Node000023"><a xlink:href="../../df/d5f/Pass_8hpp.html" target="_top" xlink:title="Interface for a compiler pass (take in an AST, output an AST)">
<polygon fill="white" stroke="#666666" points="884.5,-245.88 767.25,-245.88 767.25,-226.62 884.5,-226.62 884.5,-245.88"/>
<text text-anchor="middle" x="825.88" y="-232.38" font-family="Helvetica,sans-Serif" font-size="10.00">Ark/Compiler/Pass.hpp</text>
</a>
</g>
</g>
<!-- Node21&#45;&gt;Node23 -->
<g id="edge35_Node000021_Node000023" class="edge">
<title>Node21&#45;&gt;Node23</title>
<g id="a_edge35_Node000021_Node000023"><a xlink:title=" ">
<path fill="none" stroke="#63b8ff" d="M859.12,-287.11C852.86,-277.73 844.7,-265.49 838.03,-255.48"/>
<polygon fill="#63b8ff" stroke="#63b8ff" points="841.06,-253.71 832.6,-247.33 835.23,-257.59 841.06,-253.71"/>
</a>
</g>
</g>
<!-- Node22&#45;&gt;Node4 -->
<g id="edge33_Node000022_Node000004" class="edge">
<title>Node22&#45;&gt;Node4</title>
<g id="a_edge33_Node000022_Node000004"><a xlink:title=" ">
<path fill="none" stroke="#63b8ff" d="M1138.08,-220.56C1202.91,-198.01 1325.91,-155.21 1387.22,-133.88"/>
<polygon fill="#63b8ff" stroke="#63b8ff" points="1388.2,-137.24 1396.49,-130.65 1385.9,-130.63 1388.2,-137.24"/>
</a>
</g>
</g>
<!-- Node22&#45;&gt;Node5 -->
<g id="edge32_Node000022_Node000005" class="edge">
<title>Node22&#45;&gt;Node5</title>
<g id="a_edge32_Node000022_Node000005"><a xlink:title=" ">
<path fill="none" stroke="#63b8ff" d="M1041.6,-227.97C964.9,-217.69 824.32,-198.83 735.99,-186.98"/>
<polygon fill="#63b8ff" stroke="#63b8ff" points="736.56,-183.53 726.18,-185.67 735.63,-190.47 736.56,-183.53"/>
</a>
</g>
</g>
<!-- Node22&#45;&gt;Node8 -->
<g id="edge34_Node000022_Node000008" class="edge">
<title>Node22&#45;&gt;Node8</title>
<g id="a_edge34_Node000022_Node000008"><a xlink:title=" ">
<path fill="none" stroke="#63b8ff" d="M1150.17,-228.2C1245.12,-214.64 1434.97,-181.58 1473.88,-129.75 1499.28,-95.91 1429.74,-78.04 1386.48,-70.44"/>
<polygon fill="#63b8ff" stroke="#63b8ff" points="1387.27,-67.02 1376.84,-68.85 1386.13,-73.93 1387.27,-67.02"/>
</a>
</g>
</g>
<!-- Node23&#45;&gt;Node5 -->
<g id="edge37_Node000023_Node000005" class="edge">
<title>Node23&#45;&gt;Node5</title>
<g id="a_edge37_Node000023_Node000005"><a xlink:title=" ">
<path fill="none" stroke="#63b8ff" d="M799.84,-226.18C771.43,-216.28 725.73,-200.36 693.66,-189.19"/>
<polygon fill="#63b8ff" stroke="#63b8ff" points="694.96,-185.94 684.37,-185.95 692.66,-192.55 694.96,-185.94"/>
</a>
</g>
</g>
<!-- Node23&#45;&gt;Node19 -->
<g id="edge36_Node000023_Node000019" class="edge">
<title>Node23&#45;&gt;Node19</title>
<g id="a_edge36_Node000023_Node000019"><a xlink:title=" ">
<path fill="none" stroke="#63b8ff" d="M825.44,-226.14C824.2,-199.71 820.55,-122.54 818.82,-85.78"/>
<polygon fill="#63b8ff" stroke="#63b8ff" points="822.33,-85.95 818.36,-76.13 815.34,-86.28 822.33,-85.95"/>
</a>
</g>
</g>
<!-- Node24 -->
<g id="Node000024" class="node">
<title>Node24</title>
<g id="a_Node000024"><a xlink:href="../../d9/d11/Logger_8hpp.html" target="_top" xlink:title="Internal logger.">
<polygon fill="white" stroke="#666666" points="1174.12,-185 1069.62,-185 1069.62,-165.75 1174.12,-165.75 1174.12,-185"/>
<text text-anchor="middle" x="1121.88" y="-171.5" font-family="Helvetica,sans-Serif" font-size="10.00">Ark/Utils/Logger.hpp</text>
</a>
</g>
</g>
<!-- Node23&#45;&gt;Node24 -->
<g id="edge38_Node000023_Node000024" class="edge">
<title>Node23&#45;&gt;Node24</title>
<g id="a_edge38_Node000023_Node000024"><a xlink:title=" ">
<path fill="none" stroke="#63b8ff" d="M871.48,-226.18C923.52,-215.83 1008.68,-198.89 1065.01,-187.69"/>
<polygon fill="#63b8ff" stroke="#63b8ff" points="1065.61,-191.13 1074.74,-185.75 1064.25,-184.27 1065.61,-191.13"/>
</a>
</g>
</g>
<!-- Node24&#45;&gt;Node4 -->
<g id="edge45_Node000024_Node000004" class="edge">
<title>Node24&#45;&gt;Node4</title>
<g id="a_edge45_Node000024_Node000004"><a xlink:title=" ">
<path fill="none" stroke="#63b8ff" d="M1173.45,-165.28C1228.61,-155.55 1315.64,-140.21 1371.22,-130.41"/>
<polygon fill="#63b8ff" stroke="#63b8ff" points="1371.51,-133.91 1380.75,-128.73 1370.29,-127.02 1371.51,-133.91"/>
</a>
</g>
</g>
<!-- Node24&#45;&gt;Node8 -->
<g id="edge41_Node000024_Node000008" class="edge">
<title>Node24&#45;&gt;Node8</title>
<g id="a_edge41_Node000024_Node000008"><a xlink:title=" ">
<path fill="none" stroke="#63b8ff" d="M1174.53,-169.56C1230.09,-163.43 1312.76,-151.01 1335.88,-129.75 1347.99,-118.6 1352.51,-100.11 1354.13,-85.88"/>
<polygon fill="#63b8ff" stroke="#63b8ff" points="1357.6,-86.51 1354.82,-76.28 1350.61,-86 1357.6,-86.51"/>
</a>
</g>
</g>
<!-- Node24&#45;&gt;Node9 -->
<g id="edge44_Node000024_Node000009" class="edge">
<title>Node24&#45;&gt;Node9</title>
<g id="a_edge44_Node000024_Node000009"><a xlink:title=" ">
<path fill="none" stroke="#63b8ff" d="M1069.52,-174.09C953.24,-172.79 676.98,-165.87 591.88,-129.75 568,-119.61 546.43,-98.55 533.03,-83.38"/>
<polygon fill="#63b8ff" stroke="#63b8ff" points="535.91,-81.37 526.78,-76 530.57,-85.89 535.91,-81.37"/>
</a>
</g>
</g>
<!-- Node25 -->
<g id="Node000025" class="node">
<title>Node25</title>
<g id="a_Node000025"><a xlink:title=" ">
<polygon fill="#e0e0e0" stroke="#999999" points="994.62,-129.75 941.12,-129.75 941.12,-110.5 994.62,-110.5 994.62,-129.75"/>
<text text-anchor="middle" x="967.88" y="-116.25" font-family="Helvetica,sans-Serif" font-size="10.00">iostream</text>
</a>
</g>
</g>
<!-- Node24&#45;&gt;Node25 -->
<g id="edge39_Node000024_Node000025" class="edge">
<title>Node24&#45;&gt;Node25</title>
<g id="a_edge39_Node000024_Node000025"><a xlink:title=" ">
<path fill="none" stroke="#63b8ff" d="M1095.75,-165.34C1070.75,-156.7 1032.8,-143.57 1004.73,-133.87"/>
<polygon fill="#63b8ff" stroke="#63b8ff" points="1006.15,-130.66 995.56,-130.7 1003.86,-137.27 1006.15,-130.66"/>
</a>
</g>
</g>
<!-- Node26 -->
<g id="Node000026" class="node">
<title>Node26</title>
<g id="a_Node000026"><a xlink:title=" ">
<polygon fill="#e0e0e0" stroke="#999999" points="1081.5,-129.75 1012.25,-129.75 1012.25,-110.5 1081.5,-110.5 1081.5,-129.75"/>
<text text-anchor="middle" x="1046.88" y="-116.25" font-family="Helvetica,sans-Serif" font-size="10.00">fmt/format.h</text>
</a>
</g>
</g>
<!-- Node24&#45;&gt;Node26 -->
<g id="edge40_Node000024_Node000026" class="edge">
<title>Node24&#45;&gt;Node26</title>
<g id="a_edge40_Node000024_Node000026"><a xlink:title=" ">
<path fill="none" stroke="#63b8ff" d="M1109.15,-165.34C1098.16,-157.54 1082.03,-146.09 1068.94,-136.79"/>
<polygon fill="#63b8ff" stroke="#63b8ff" points="1071.07,-134.01 1060.89,-131.08 1067.02,-139.72 1071.07,-134.01"/>
</a>
</g>
</g>
<!-- Node27 -->
<g id="Node000027" class="node">
<title>Node27</title>
<g id="a_Node000027"><a xlink:title=" ">
<polygon fill="#e0e0e0" stroke="#999999" points="1144.5,-129.75 1099.25,-129.75 1099.25,-110.5 1144.5,-110.5 1144.5,-129.75"/>
<text text-anchor="middle" x="1121.88" y="-116.25" font-family="Helvetica,sans-Serif" font-size="10.00">chrono</text>
</a>
</g>
</g>
<!-- Node24&#45;&gt;Node27 -->
<g id="edge42_Node000024_Node000027" class="edge">
<title>Node24&#45;&gt;Node27</title>
<g id="a_edge42_Node000024_Node000027"><a xlink:title=" ">
<path fill="none" stroke="#63b8ff" d="M1121.88,-165.58C1121.88,-159.07 1121.88,-149.92 1121.88,-141.62"/>
<polygon fill="#63b8ff" stroke="#63b8ff" points="1125.38,-141.62 1121.88,-131.62 1118.38,-141.62 1125.38,-141.62"/>
</a>
</g>
</g>
<!-- Node28 -->
<g id="Node000028" class="node">
<title>Node28</title>
<g id="a_Node000028"><a xlink:title=" ">
<polygon fill="#e0e0e0" stroke="#999999" points="1247,-129.75 1162.75,-129.75 1162.75,-110.5 1247,-110.5 1247,-129.75"/>
<text text-anchor="middle" x="1204.88" y="-116.25" font-family="Helvetica,sans-Serif" font-size="10.00">source_location</text>
</a>
</g>
</g>
<!-- Node24&#45;&gt;Node28 -->
<g id="edge43_Node000024_Node000028" class="edge">
<title>Node24&#45;&gt;Node28</title>
<g id="a_edge43_Node000024_Node000028"><a xlink:title=" ">
<path fill="none" stroke="#63b8ff" d="M1135.95,-165.34C1148.36,-157.39 1166.67,-145.64 1181.3,-136.25"/>
<polygon fill="#63b8ff" stroke="#63b8ff" points="1182.93,-139.37 1189.45,-131.02 1179.15,-133.47 1182.93,-139.37"/>
</a>
</g>
</g>
<!-- Node29 -->
<g id="Node000029" class="node">
<title>Node29</title>
<g id="a_Node000029"><a xlink:title=" ">
<polygon fill="#e0e0e0" stroke="#999999" points="1326.75,-129.75 1265,-129.75 1265,-110.5 1326.75,-110.5 1326.75,-129.75"/>
<text text-anchor="middle" x="1295.88" y="-116.25" font-family="Helvetica,sans-Serif" font-size="10.00">fmt/color.h</text>
</a>
</g>
</g>
<!-- Node24&#45;&gt;Node29 -->
<g id="edge46_Node000024_Node000029" class="edge">
<title>Node24&#45;&gt;Node29</title>
<g id="a_edge46_Node000024_Node000029"><a xlink:title=" ">
<path fill="none" stroke="#63b8ff" d="M1151.39,-165.34C1180.01,-156.58 1223.66,-143.23 1255.49,-133.48"/>
<polygon fill="#63b8ff" stroke="#63b8ff" points="1256.23,-136.92 1264.77,-130.65 1254.18,-130.23 1256.23,-136.92"/>
</a>
</g>
</g>
</g>
</svg>
