<?xml version="1.0" encoding="UTF-8" standalone="no"?>
<!DOCTYPE svg PUBLIC "-//W3C//DTD SVG 1.1//EN"
 "http://www.w3.org/Graphics/SVG/1.1/DTD/svg11.dtd">
<!-- Generated by graphviz version 12.2.0 (20241103.1931)
 -->
<!-- Title: /Users/fola/Documents/ArkScript/Ark/include/CLI/REPL/Utils.hpp Pages: 1 -->
<svg width="189pt" height="105pt"
 viewBox="0.00 0.00 189.00 105.00" xmlns="http://www.w3.org/2000/svg" xmlns:xlink="http://www.w3.org/1999/xlink">
<g id="graph0" class="graph" transform="scale(1 1) rotate(0) translate(4 101)">
<title>/Users/fola/Documents/ArkScript/Ark/include/CLI/REPL/Utils.hpp</title>
<!-- Node1 -->
<g id="Node000001" class="node">
<title>Node1</title>
<g id="a_Node000001"><a xlink:title="replxx utilities">
<polygon fill="#999999" stroke="#666666" points="140.12,-97 22.88,-97 22.88,-55.25 140.12,-55.25 140.12,-97"/>
<text text-anchor="start" x="30.88" y="-83.5" font-family="Helvetica,sans-Serif" font-size="10.00">/Users/fola/Documents</text>
<text text-anchor="start" x="30.88" y="-72.25" font-family="Helvetica,sans-Serif" font-size="10.00">/ArkScript/Ark/include</text>
<text text-anchor="middle" x="81.5" y="-61" font-family="Helvetica,sans-Serif" font-size="10.00">/CLI/REPL/Utils.hpp</text>
</a>
</g>
</g>
<!-- Node2 -->
<g id="Node000002" class="node">
<title>Node2</title>
<g id="a_Node000002"><a xlink:title=" ">
<polygon fill="#e0e0e0" stroke="#999999" points="43,-19.25 0,-19.25 0,0 43,0 43,-19.25"/>
<text text-anchor="middle" x="21.5" y="-5.75" font-family="Helvetica,sans-Serif" font-size="10.00">vector</text>
</a>
</g>
</g>
<!-- Node1&#45;&gt;Node2 -->
<g id="edge1_Node000001_Node000002" class="edge">
<title>Node1&#45;&gt;Node2</title>
<g id="a_edge1_Node000001_Node000002"><a xlink:title=" ">
<path fill="none" stroke="#63b8ff" d="M62.84,-55.07C54.76,-46.38 45.39,-36.3 37.61,-27.94"/>
<polygon fill="#63b8ff" stroke="#63b8ff" points="40.34,-25.74 30.97,-20.8 35.22,-30.51 40.34,-25.74"/>
</a>
</g>
</g>
<!-- Node3 -->
<g id="Node000003" class="node">
<title>Node3</title>
<g id="a_Node000003"><a xlink:title=" ">
<polygon fill="#e0e0e0" stroke="#999999" points="101.5,-19.25 61.5,-19.25 61.5,0 101.5,0 101.5,-19.25"/>
<text text-anchor="middle" x="81.5" y="-5.75" font-family="Helvetica,sans-Serif" font-size="10.00">string</text>
</a>
</g>
</g>
<!-- Node1&#45;&gt;Node3 -->
<g id="edge2_Node000001_Node000003" class="edge">
<title>Node1&#45;&gt;Node3</title>
<g id="a_edge2_Node000001_Node000003"><a xlink:title=" ">
<path fill="none" stroke="#63b8ff" d="M81.5,-55.07C81.5,-47.4 81.5,-38.64 81.5,-30.95"/>
<polygon fill="#63b8ff" stroke="#63b8ff" points="85,-31.21 81.5,-21.21 78,-31.21 85,-31.21"/>
</a>
</g>
</g>
<!-- Node4 -->
<g id="Node000004" class="node">
<title>Node4</title>
<g id="a_Node000004"><a xlink:title=" ">
<polygon fill="#e0e0e0" stroke="#999999" points="181,-19.25 120,-19.25 120,0 181,0 181,-19.25"/>
<text text-anchor="middle" x="150.5" y="-5.75" font-family="Helvetica,sans-Serif" font-size="10.00">replxx.hxx</text>
</a>
</g>
</g>
<!-- Node1&#45;&gt;Node4 -->
<g id="edge3_Node000001_Node000004" class="edge">
<title>Node1&#45;&gt;Node4</title>
<g id="a_edge3_Node000001_Node000004"><a xlink:title=" ">
<path fill="none" stroke="#63b8ff" d="M102.95,-55.07C112.45,-46.19 123.49,-35.87 132.54,-27.41"/>
<polygon fill="#63b8ff" stroke="#63b8ff" points="134.78,-30.11 139.69,-20.73 130,-25 134.78,-30.11"/>
</a>
</g>
</g>
</g>
</svg>
