<?xml version="1.0" encoding="UTF-8" standalone="no"?>
<!DOCTYPE svg PUBLIC "-//W3C//DTD SVG 1.1//EN"
 "http://www.w3.org/Graphics/SVG/1.1/DTD/svg11.dtd">
<!-- Generated by graphviz version 12.2.0 (20241103.1931)
 -->
<!-- Title: /Users/fola/Documents/ArkScript/Ark/include/Ark/VM/ExecutionContext.hpp Pages: 1 -->
<!--zoomable 271 -->

<svg id="main" version="1.1" xmlns="http://www.w3.org/2000/svg" xmlns:xlink="http://www.w3.org/1999/xlink" xml:space="preserve" onload="init(evt)">

<style type="text/css"><![CDATA[
.node, .edge {opacity: 0.7;}
.node.selected, .edge.selected {opacity: 1;}
.edge:hover path { stroke: red; }
.edge:hover polygon { stroke: red; fill: red; }
]]></style>

<defs>
  <circle id="rim" cx="0" cy="0" r="7"/>
  <circle id="rim2" cx="0" cy="0" r="3.5"/>
  <g id="zoomPlus">
    <use xlink:href="#rim" fill="#404040"><set attributeName="fill" to="#808080" begin="zoomplus.mouseover" end="zoomplus.mouseout"/></use>
    <path d="M-4,0h8M0,-4v8" fill="none" stroke="white" stroke-width="1.5" pointer-events="none"/>
  </g>
  <g id="zoomMin">
    <use xlink:href="#rim" fill="#404040"><set attributeName="fill" to="#808080" begin="zoomminus.mouseover" end="zoomminus.mouseout"/></use>
    <path d="M-4,0h8" fill="none" stroke="white" stroke-width="1.5" pointer-events="none"/>
  </g>
  <g id="arrowUp" transform="translate(30 24)">
    <use xlink:href="#rim"/>
    <path pointer-events="none" fill="none" stroke="white" stroke-width="1.5" d="M0,-3.0v7 M-2.5,-0.5L0,-3.0L2.5,-0.5"/>
  </g>
  <g id="arrowRight" transform="rotate(90) translate(36 -43)">
    <use xlink:href="#rim"/>
    <path pointer-events="none" fill="none" stroke="white" stroke-width="1.5" d="M0,-3.0v7 M-2.5,-0.5L0,-3.0L2.5,-0.5"/>
  </g>
  <g id="arrowDown" transform="rotate(180) translate(-30 -48)">
    <use xlink:href="#rim"/>
    <path pointer-events="none" fill="none" stroke="white" stroke-width="1.5" d="M0,-3.0v7 M-2.5,-0.5L0,-3.0L2.5,-0.5"/>
  </g>
  <g id="arrowLeft" transform="rotate(270) translate(-36 17)">
    <use xlink:href="#rim"/>
    <path pointer-events="none" fill="none" stroke="white" stroke-width="1.5" d="M0,-3.0v7 M-2.5,-0.5L0,-3.0L2.5,-0.5"/>
  </g>
  <g id="resetDef">
    <use xlink:href="#rim2" fill="#404040"><set attributeName="fill" to="#808080" begin="reset.mouseover" end="reset.mouseout"/></use>
  </g>
</defs>
<script type="application/ecmascript">
var viewWidth = 1295;
var viewHeight = 271;
var sectionId = 'dynsection-0';
</script>
<script type="application/ecmascript" xlink:href="../../svg.min.js"/>
<svg id="graph" class="graph">
<g id="viewport">
<title>/Users/fola/Documents/ArkScript/Ark/include/Ark/VM/ExecutionContext.hpp</title>
<!-- Node1 -->
<g id="Node000001" class="node">
<title>Node1</title>
<g id="a_Node000001"><a xlink:title="Keeping track of the internal data needed by the VM.">
<polygon fill="#999999" stroke="#666666" points="778.16,-262.75 626.41,-262.75 626.41,-221 778.16,-221 778.16,-262.75"/>
<text text-anchor="start" x="634.41" y="-249.25" font-family="Helvetica,sans-Serif" font-size="10.00">/Users/fola/Documents</text>
<text text-anchor="start" x="634.41" y="-238" font-family="Helvetica,sans-Serif" font-size="10.00">/ArkScript/Ark/include</text>
<text text-anchor="middle" x="702.28" y="-226.75" font-family="Helvetica,sans-Serif" font-size="10.00">/Ark/VM/ExecutionContext.hpp</text>
</a>
</g>
</g>
<!-- Node2 -->
<g id="Node000002" class="node">
<title>Node2</title>
<g id="a_Node000002"><a xlink:title=" ">
<polygon fill="#e0e0e0" stroke="#999999" points="51.16,-74.5 13.41,-74.5 13.41,-55.25 51.16,-55.25 51.16,-74.5"/>
<text text-anchor="middle" x="32.28" y="-61" font-family="Helvetica,sans-Serif" font-size="10.00">array</text>
</a>
</g>
</g>
<!-- Node1&#45;&gt;Node2 -->
<g id="edge1_Node000001_Node000002" class="edge">
<title>Node1&#45;&gt;Node2</title>
<g id="a_edge1_Node000001_Node000002"><a xlink:title=" ">
<path fill="none" stroke="#63b8ff" d="M625.95,-229.42C564.76,-219.59 476.93,-204.02 401.28,-185 323.01,-165.32 305.1,-154.53 228.28,-129.75 169.48,-110.78 100.85,-88.35 62.39,-75.75"/>
<polygon fill="#63b8ff" stroke="#63b8ff" points="63.5,-72.43 52.91,-72.64 61.32,-79.08 63.5,-72.43"/>
</a>
</g>
</g>
<!-- Node3 -->
<g id="Node000003" class="node">
<title>Node3</title>
<g id="a_Node000003"><a xlink:title=" ">
<polygon fill="#e0e0e0" stroke="#999999" points="104.91,-19.25 53.66,-19.25 53.66,0 104.91,0 104.91,-19.25"/>
<text text-anchor="middle" x="79.28" y="-5.75" font-family="Helvetica,sans-Serif" font-size="10.00">memory</text>
</a>
</g>
</g>
<!-- Node1&#45;&gt;Node3 -->
<g id="edge2_Node000001_Node000003" class="edge">
<title>Node1&#45;&gt;Node3</title>
<g id="a_edge2_Node000001_Node000003"><a xlink:title=" ">
<path fill="none" stroke="#63b8ff" d="M626.17,-234.94C460.58,-220.2 76.64,-175.62 4.28,-74.5 -10.5,-53.84 17.12,-35.65 42.92,-24.02"/>
<polygon fill="#63b8ff" stroke="#63b8ff" points="44.12,-27.31 51.96,-20.19 41.39,-20.87 44.12,-27.31"/>
</a>
</g>
</g>
<!-- Node4 -->
<g id="Node000004" class="node">
<title>Node4</title>
<g id="a_Node000004"><a xlink:title=" ">
<polygon fill="#e0e0e0" stroke="#999999" points="1187.16,-185 1137.41,-185 1137.41,-165.75 1187.16,-165.75 1187.16,-185"/>
<text text-anchor="middle" x="1162.28" y="-171.5" font-family="Helvetica,sans-Serif" font-size="10.00">optional</text>
</a>
</g>
</g>
<!-- Node1&#45;&gt;Node4 -->
<g id="edge3_Node000001_Node000004" class="edge">
<title>Node1&#45;&gt;Node4</title>
<g id="a_edge3_Node000001_Node000004"><a xlink:title=" ">
<path fill="none" stroke="#63b8ff" d="M778.52,-233.62C861.67,-225.09 998.82,-209.21 1126.01,-185.23"/>
<polygon fill="#63b8ff" stroke="#63b8ff" points="1126.45,-188.71 1135.62,-183.4 1125.14,-181.83 1126.45,-188.71"/>
</a>
</g>
</g>
<!-- Node5 -->
<g id="Node000005" class="node">
<title>Node5</title>
<g id="a_Node000005"><a xlink:title=" ">
<polygon fill="#e0e0e0" stroke="#999999" points="1250.91,-185 1205.66,-185 1205.66,-165.75 1250.91,-165.75 1250.91,-185"/>
<text text-anchor="middle" x="1228.28" y="-171.5" font-family="Helvetica,sans-Serif" font-size="10.00">atomic</text>
</a>
</g>
</g>
<!-- Node1&#45;&gt;Node5 -->
<g id="edge4_Node000001_Node000005" class="edge">
<title>Node1&#45;&gt;Node5</title>
<g id="a_edge4_Node000001_Node000005"><a xlink:title=" ">
<path fill="none" stroke="#63b8ff" d="M778.56,-235.83C873.78,-228.73 1041.71,-213.59 1194.35,-185.09"/>
<polygon fill="#63b8ff" stroke="#63b8ff" points="1194.65,-188.59 1203.82,-183.29 1193.34,-181.71 1194.65,-188.59"/>
</a>
</g>
</g>
<!-- Node6 -->
<g id="Node000006" class="node">
<title>Node6</title>
<g id="a_Node000006"><a xlink:href="../../d6/de9/Constants_8hpp.html" target="_top" xlink:title="Constants used by ArkScript.">
<polygon fill="white" stroke="#666666" points="1119.16,-185 1021.41,-185 1021.41,-165.75 1119.16,-165.75 1119.16,-185"/>
<text text-anchor="middle" x="1070.28" y="-171.5" font-family="Helvetica,sans-Serif" font-size="10.00">Ark/Constants.hpp</text>
</a>
</g>
</g>
<!-- Node1&#45;&gt;Node6 -->
<g id="edge5_Node000001_Node000006" class="edge">
<title>Node1&#45;&gt;Node6</title>
<g id="a_edge5_Node000001_Node000006"><a xlink:title=" ">
<path fill="none" stroke="#63b8ff" d="M778.53,-227.51C847.25,-215.47 946.92,-198 1010.16,-186.91"/>
<polygon fill="#63b8ff" stroke="#63b8ff" points="1010.4,-190.42 1019.65,-185.25 1009.19,-183.53 1010.4,-190.42"/>
</a>
</g>
</g>
<!-- Node11 -->
<g id="Node000011" class="node">
<title>Node11</title>
<g id="a_Node000011"><a xlink:href="../../de/dfd/Value_8hpp.html" target="_top" xlink:title="Default value type handled by the virtual machine.">
<polygon fill="white" stroke="#666666" points="458.16,-129.75 336.41,-129.75 336.41,-110.5 458.16,-110.5 458.16,-129.75"/>
<text text-anchor="middle" x="397.28" y="-116.25" font-family="Helvetica,sans-Serif" font-size="10.00">Ark/VM/Value/Value.hpp</text>
</a>
</g>
</g>
<!-- Node1&#45;&gt;Node11 -->
<g id="edge10_Node000001_Node000011" class="edge">
<title>Node1&#45;&gt;Node11</title>
<g id="a_edge10_Node000001_Node000011"><a xlink:title=" ">
<path fill="none" stroke="#63b8ff" d="M626.16,-234.53C552.79,-226.93 448.55,-211.74 418.28,-185 405.84,-174 400.74,-155.49 398.67,-141.22"/>
<polygon fill="#63b8ff" stroke="#63b8ff" points="402.18,-141.16 397.67,-131.57 395.21,-141.88 402.18,-141.16"/>
</a>
</g>
</g>
<!-- Node22 -->
<g id="Node000022" class="node">
<title>Node22</title>
<g id="a_Node000022"><a xlink:href="../../d8/d45/ScopeView_8hpp.html" target="_top" xlink:title="The virtual machine scope system.">
<polygon fill="white" stroke="#666666" points="545.66,-185 426.91,-185 426.91,-165.75 545.66,-165.75 545.66,-185"/>
<text text-anchor="middle" x="486.28" y="-171.5" font-family="Helvetica,sans-Serif" font-size="10.00">Ark/VM/ScopeView.hpp</text>
</a>
</g>
</g>
<!-- Node1&#45;&gt;Node22 -->
<g id="edge31_Node000001_Node000022" class="edge">
<title>Node1&#45;&gt;Node22</title>
<g id="a_edge31_Node000001_Node000022"><a xlink:title=" ">
<path fill="none" stroke="#63b8ff" d="M634.24,-220.56C599.26,-210.11 557.77,-197.72 527.64,-188.72"/>
<polygon fill="#63b8ff" stroke="#63b8ff" points="528.72,-185.39 518.14,-185.89 526.72,-192.1 528.72,-185.39"/>
</a>
</g>
</g>
<!-- Node23 -->
<g id="Node000023" class="node">
<title>Node23</title>
<g id="a_Node000023"><a xlink:href="../../d1/d71/ClosureScope_8hpp.html" target="_top" xlink:title="Subtype of the value type, handling closures.">
<polygon fill="white" stroke="#666666" points="889.91,-185 730.66,-185 730.66,-165.75 889.91,-165.75 889.91,-185"/>
<text text-anchor="middle" x="810.28" y="-171.5" font-family="Helvetica,sans-Serif" font-size="10.00">Ark/VM/Value/ClosureScope.hpp</text>
</a>
</g>
</g>
<!-- Node1&#45;&gt;Node23 -->
<g id="edge36_Node000001_Node000023" class="edge">
<title>Node1&#45;&gt;Node23</title>
<g id="a_edge36_Node000001_Node000023"><a xlink:title=" ">
<path fill="none" stroke="#63b8ff" d="M736.16,-220.64C752.09,-211.13 770.74,-199.99 785.36,-191.26"/>
<polygon fill="#63b8ff" stroke="#63b8ff" points="787.09,-194.3 793.88,-186.17 783.5,-188.29 787.09,-194.3"/>
</a>
</g>
</g>
<!-- Node7 -->
<g id="Node000007" class="node">
<title>Node7</title>
<g id="a_Node000007"><a xlink:title=" ">
<polygon fill="#e0e0e0" stroke="#999999" points="1230.03,-129.75 1164.53,-129.75 1164.53,-110.5 1230.03,-110.5 1230.03,-129.75"/>
<text text-anchor="middle" x="1197.28" y="-116.25" font-family="Helvetica,sans-Serif" font-size="10.00">string_view</text>
</a>
</g>
</g>
<!-- Node6&#45;&gt;Node7 -->
<g id="edge6_Node000006_Node000007" class="edge">
<title>Node6&#45;&gt;Node7</title>
<g id="a_edge6_Node000006_Node000007"><a xlink:title=" ">
<path fill="none" stroke="#63b8ff" d="M1091.83,-165.34C1111.9,-156.93 1142.09,-144.27 1165.03,-134.65"/>
<polygon fill="#63b8ff" stroke="#63b8ff" points="1166.37,-137.88 1174.24,-130.79 1163.66,-131.43 1166.37,-137.88"/>
</a>
</g>
</g>
<!-- Node8 -->
<g id="Node000008" class="node">
<title>Node8</title>
<g id="a_Node000008"><a xlink:title=" ">
<polygon fill="#e0e0e0" stroke="#999999" points="1286.91,-129.75 1247.66,-129.75 1247.66,-110.5 1286.91,-110.5 1286.91,-129.75"/>
<text text-anchor="middle" x="1267.28" y="-116.25" font-family="Helvetica,sans-Serif" font-size="10.00">limits</text>
</a>
</g>
</g>
<!-- Node6&#45;&gt;Node8 -->
<g id="edge7_Node000006_Node000008" class="edge">
<title>Node6&#45;&gt;Node8</title>
<g id="a_edge7_Node000006_Node000008"><a xlink:title=" ">
<path fill="none" stroke="#63b8ff" d="M1106.34,-165.31C1138.29,-157.17 1186.47,-144.66 1236.41,-130.5"/>
<polygon fill="#63b8ff" stroke="#63b8ff" points="1237.32,-133.88 1245.97,-127.77 1235.4,-127.14 1237.32,-133.88"/>
</a>
</g>
</g>
<!-- Node9 -->
<g id="Node000009" class="node">
<title>Node9</title>
<g id="a_Node000009"><a xlink:title=" ">
<polygon fill="#e0e0e0" stroke="#999999" points="1022.16,-19.25 966.41,-19.25 966.41,0 1022.16,0 1022.16,-19.25"/>
<text text-anchor="middle" x="994.28" y="-5.75" font-family="Helvetica,sans-Serif" font-size="10.00">cinttypes</text>
</a>
</g>
</g>
<!-- Node6&#45;&gt;Node9 -->
<g id="edge8_Node000006_Node000009" class="edge">
<title>Node6&#45;&gt;Node9</title>
<g id="a_edge8_Node000006_Node000009"><a xlink:title=" ">
<path fill="none" stroke="#63b8ff" d="M1070.41,-165.31C1070.29,-144.41 1067.73,-91.83 1046.28,-55.25 1039.54,-43.74 1028.72,-33.75 1018.7,-26.16"/>
<polygon fill="#63b8ff" stroke="#63b8ff" points="1020.91,-23.43 1010.72,-20.51 1016.86,-29.15 1020.91,-23.43"/>
</a>
</g>
</g>
<!-- Node10 -->
<g id="Node000010" class="node">
<title>Node10</title>
<g id="a_Node000010"><a xlink:title=" ">
<polygon fill="#e0e0e0" stroke="#999999" points="1146.41,-129.75 1098.16,-129.75 1098.16,-110.5 1146.41,-110.5 1146.41,-129.75"/>
<text text-anchor="middle" x="1122.28" y="-116.25" font-family="Helvetica,sans-Serif" font-size="10.00">cstddef</text>
</a>
</g>
</g>
<!-- Node6&#45;&gt;Node10 -->
<g id="edge9_Node000006_Node000010" class="edge">
<title>Node6&#45;&gt;Node10</title>
<g id="a_edge9_Node000006_Node000010"><a xlink:title=" ">
<path fill="none" stroke="#63b8ff" d="M1078.87,-165.58C1086.13,-158.15 1096.74,-147.29 1105.65,-138.16"/>
<polygon fill="#63b8ff" stroke="#63b8ff" points="1107.97,-140.79 1112.45,-131.19 1102.96,-135.9 1107.97,-140.79"/>
</a>
</g>
</g>
<!-- Node11&#45;&gt;Node2 -->
<g id="edge15_Node000011_Node000002" class="edge">
<title>Node11&#45;&gt;Node2</title>
<g id="a_edge15_Node000011_Node000002"><a xlink:title=" ">
<path fill="none" stroke="#63b8ff" d="M336.03,-113.16C269.13,-106.11 159,-92.97 65.28,-74.5 64.29,-74.3 63.29,-74.1 62.27,-73.88"/>
<polygon fill="#63b8ff" stroke="#63b8ff" points="63.4,-70.55 52.86,-71.64 61.78,-77.36 63.4,-70.55"/>
</a>
</g>
</g>
<!-- Node11&#45;&gt;Node3 -->
<g id="edge16_Node000011_Node000003" class="edge">
<title>Node11&#45;&gt;Node3</title>
<g id="a_edge16_Node000011_Node000003"><a xlink:title=" ">
<path fill="none" stroke="#63b8ff" d="M336.21,-114.32C267.65,-108.02 161.51,-95.25 127.28,-74.5 109.7,-63.84 96.39,-44.11 88.3,-29.39"/>
<polygon fill="#63b8ff" stroke="#63b8ff" points="91.51,-27.99 83.83,-20.69 85.28,-31.18 91.51,-27.99"/>
</a>
</g>
</g>
<!-- Node11&#45;&gt;Node9 -->
<g id="edge14_Node000011_Node000009" class="edge">
<title>Node11&#45;&gt;Node9</title>
<g id="a_edge14_Node000011_Node000009"><a xlink:title=" ">
<path fill="none" stroke="#63b8ff" d="M458.41,-116.69C570.38,-111.7 803.97,-98.69 881.28,-74.5 915.82,-63.7 951.49,-41.32 973.28,-26.13"/>
<polygon fill="#63b8ff" stroke="#63b8ff" points="975.19,-29.07 981.3,-20.41 971.13,-23.37 975.19,-29.07"/>
</a>
</g>
</g>
<!-- Node12 -->
<g id="Node000012" class="node">
<title>Node12</title>
<g id="a_Node000012"><a xlink:title=" ">
<polygon fill="#e0e0e0" stroke="#999999" points="901.78,-19.25 858.78,-19.25 858.78,0 901.78,0 901.78,-19.25"/>
<text text-anchor="middle" x="880.28" y="-5.75" font-family="Helvetica,sans-Serif" font-size="10.00">vector</text>
</a>
</g>
</g>
<!-- Node11&#45;&gt;Node12 -->
<g id="edge11_Node000011_Node000012" class="edge">
<title>Node11&#45;&gt;Node12</title>
<g id="a_edge11_Node000011_Node000012"><a xlink:title=" ">
<path fill="none" stroke="#63b8ff" d="M458.58,-117C577.55,-112.34 830.83,-99.58 861.28,-74.5 874,-64.03 878.45,-45.47 879.89,-31.04"/>
<polygon fill="#63b8ff" stroke="#63b8ff" points="883.38,-31.42 880.44,-21.24 876.39,-31.03 883.38,-31.42"/>
</a>
</g>
</g>
<!-- Node13 -->
<g id="Node000013" class="node">
<title>Node13</title>
<g id="a_Node000013"><a xlink:title=" ">
<polygon fill="#e0e0e0" stroke="#999999" points="190.91,-74.5 145.66,-74.5 145.66,-55.25 190.91,-55.25 190.91,-74.5"/>
<text text-anchor="middle" x="168.28" y="-61" font-family="Helvetica,sans-Serif" font-size="10.00">variant</text>
</a>
</g>
</g>
<!-- Node11&#45;&gt;Node13 -->
<g id="edge12_Node000011_Node000013" class="edge">
<title>Node11&#45;&gt;Node13</title>
<g id="a_edge12_Node000011_Node000013"><a xlink:title=" ">
<path fill="none" stroke="#63b8ff" d="M354.27,-110.07C316.49,-101.98 259.81,-89.5 202.38,-75.2"/>
<polygon fill="#63b8ff" stroke="#63b8ff" points="203.29,-71.82 192.74,-72.78 201.59,-78.61 203.29,-71.82"/>
</a>
</g>
</g>
<!-- Node14 -->
<g id="Node000014" class="node">
<title>Node14</title>
<g id="a_Node000014"><a xlink:title=" ">
<polygon fill="#e0e0e0" stroke="#999999" points="229.28,-19.25 189.28,-19.25 189.28,0 229.28,0 229.28,-19.25"/>
<text text-anchor="middle" x="209.28" y="-5.75" font-family="Helvetica,sans-Serif" font-size="10.00">string</text>
</a>
</g>
</g>
<!-- Node11&#45;&gt;Node14 -->
<g id="edge13_Node000011_Node000014" class="edge">
<title>Node11&#45;&gt;Node14</title>
<g id="a_edge13_Node000011_Node000014"><a xlink:title=" ">
<path fill="none" stroke="#63b8ff" d="M336.18,-112.82C263.13,-104.65 149.07,-89.65 136.28,-74.5 118.93,-53.93 151.68,-34.15 178.75,-22.19"/>
<polygon fill="#63b8ff" stroke="#63b8ff" points="179.83,-25.54 187.7,-18.45 177.13,-19.08 179.83,-25.54"/>
</a>
</g>
</g>
<!-- Node15 -->
<g id="Node000015" class="node">
<title>Node15</title>
<g id="a_Node000015"><a xlink:title=" ">
<polygon fill="#e0e0e0" stroke="#999999" points="458.16,-74.5 396.41,-74.5 396.41,-55.25 458.16,-55.25 458.16,-74.5"/>
<text text-anchor="middle" x="427.28" y="-61" font-family="Helvetica,sans-Serif" font-size="10.00">type_traits</text>
</a>
</g>
</g>
<!-- Node11&#45;&gt;Node15 -->
<g id="edge17_Node000011_Node000015" class="edge">
<title>Node11&#45;&gt;Node15</title>
<g id="a_edge17_Node000011_Node000015"><a xlink:title=" ">
<path fill="none" stroke="#63b8ff" d="M402.24,-110.33C406.17,-103.36 411.8,-93.37 416.72,-84.62"/>
<polygon fill="#63b8ff" stroke="#63b8ff" points="419.62,-86.61 421.48,-76.18 413.52,-83.17 419.62,-86.61"/>
</a>
</g>
</g>
<!-- Node16 -->
<g id="Node000016" class="node">
<title>Node16</title>
<g id="a_Node000016"><a xlink:href="../../dc/dd5/Closure_8hpp.html" target="_top" xlink:title="Subtype of the value type, handling closures.">
<polygon fill="white" stroke="#666666" points="340.03,-74.5 208.53,-74.5 208.53,-55.25 340.03,-55.25 340.03,-74.5"/>
<text text-anchor="middle" x="274.28" y="-61" font-family="Helvetica,sans-Serif" font-size="10.00">Ark/VM/Value/Closure.hpp</text>
</a>
</g>
</g>
<!-- Node11&#45;&gt;Node16 -->
<g id="edge18_Node000011_Node000016" class="edge">
<title>Node11&#45;&gt;Node16</title>
<g id="a_edge18_Node000011_Node000016"><a xlink:title=" ">
<path fill="none" stroke="#63b8ff" d="M376.42,-110.09C356.98,-101.68 327.74,-89.02 305.52,-79.4"/>
<polygon fill="#63b8ff" stroke="#63b8ff" points="307.21,-76.31 296.64,-75.55 304.43,-82.74 307.21,-76.31"/>
</a>
</g>
</g>
<!-- Node17 -->
<g id="Node000017" class="node">
<title>Node17</title>
<g id="a_Node000017"><a xlink:href="../../d5/d40/Platform_8hpp.html" target="_top" xlink:title="ArkScript configuration macros.">
<polygon fill="white" stroke="#666666" points="542.66,-19.25 429.91,-19.25 429.91,0 542.66,0 542.66,-19.25"/>
<text text-anchor="middle" x="486.28" y="-5.75" font-family="Helvetica,sans-Serif" font-size="10.00">Ark/Utils/Platform.hpp</text>
</a>
</g>
</g>
<!-- Node11&#45;&gt;Node17 -->
<g id="edge30_Node000011_Node000017" class="edge">
<title>Node11&#45;&gt;Node17</title>
<g id="a_edge30_Node000011_Node000017"><a xlink:title=" ">
<path fill="none" stroke="#63b8ff" d="M392.26,-110.07C385.72,-96.9 376.32,-72.22 387.28,-55.25 396.98,-40.25 413.06,-30.24 429.47,-23.58"/>
<polygon fill="#63b8ff" stroke="#63b8ff" points="430.61,-26.89 438.81,-20.19 428.22,-20.31 430.61,-26.89"/>
</a>
</g>
</g>
<!-- Node18 -->
<g id="Node000018" class="node">
<title>Node18</title>
<g id="a_Node000018"><a xlink:href="../../dc/d3d/UserType_8hpp.html" target="_top" xlink:title="Subtype of the value, capable of handling any C++ type.">
<polygon fill="white" stroke="#666666" points="692.16,-74.5 552.41,-74.5 552.41,-55.25 692.16,-55.25 692.16,-74.5"/>
<text text-anchor="middle" x="622.28" y="-61" font-family="Helvetica,sans-Serif" font-size="10.00">Ark/VM/Value/UserType.hpp</text>
</a>
</g>
</g>
<!-- Node11&#45;&gt;Node18 -->
<g id="edge22_Node000011_Node000018" class="edge">
<title>Node11&#45;&gt;Node18</title>
<g id="a_edge22_Node000011_Node000018"><a xlink:title=" ">
<path fill="none" stroke="#63b8ff" d="M435.71,-110.03C473.57,-101.07 531.58,-87.34 572.85,-77.57"/>
<polygon fill="#63b8ff" stroke="#63b8ff" points="573.62,-80.99 582.55,-75.28 572.01,-74.18 573.62,-80.99"/>
</a>
</g>
</g>
<!-- Node21 -->
<g id="Node000021" class="node">
<title>Node21</title>
<g id="a_Node000021"><a xlink:href="../../da/dcf/Procedure_8hpp.html" target="_top" xlink:title="Wrapper object for user&#45;defined functions.">
<polygon fill="white" stroke="#666666" points="852.28,-74.5 710.28,-74.5 710.28,-55.25 852.28,-55.25 852.28,-74.5"/>
<text text-anchor="middle" x="781.28" y="-61" font-family="Helvetica,sans-Serif" font-size="10.00">Ark/VM/Value/Procedure.hpp</text>
</a>
</g>
</g>
<!-- Node11&#45;&gt;Node21 -->
<g id="edge27_Node000011_Node000021" class="edge">
<title>Node11&#45;&gt;Node21</title>
<g id="a_edge27_Node000011_Node000021"><a xlink:title=" ">
<path fill="none" stroke="#63b8ff" d="M458.55,-110.63C525.28,-101.37 632.14,-86.56 704.44,-76.53"/>
<polygon fill="#63b8ff" stroke="#63b8ff" points="704.81,-80.01 714.23,-75.17 703.85,-73.08 704.81,-80.01"/>
</a>
</g>
</g>
<!-- Node16&#45;&gt;Node3 -->
<g id="edge19_Node000016_Node000003" class="edge">
<title>Node16&#45;&gt;Node3</title>
<g id="a_edge19_Node000016_Node000003"><a xlink:title=" ">
<path fill="none" stroke="#63b8ff" d="M241.21,-54.84C206.59,-45.39 152.38,-30.59 116.35,-20.75"/>
<polygon fill="#63b8ff" stroke="#63b8ff" points="117.36,-17.4 106.79,-18.14 115.52,-24.15 117.36,-17.4"/>
</a>
</g>
</g>
<!-- Node16&#45;&gt;Node14 -->
<g id="edge20_Node000016_Node000014" class="edge">
<title>Node16&#45;&gt;Node14</title>
<g id="a_edge20_Node000016_Node000014"><a xlink:title=" ">
<path fill="none" stroke="#63b8ff" d="M263.26,-54.84C253.86,-47.15 240.14,-35.9 228.88,-26.68"/>
<polygon fill="#63b8ff" stroke="#63b8ff" points="231.27,-24.11 221.32,-20.48 226.84,-29.53 231.27,-24.11"/>
</a>
</g>
</g>
<!-- Node16&#45;&gt;Node17 -->
<g id="edge21_Node000016_Node000017" class="edge">
<title>Node16&#45;&gt;Node17</title>
<g id="a_edge21_Node000016_Node000017"><a xlink:title=" ">
<path fill="none" stroke="#63b8ff" d="M310.25,-54.84C345.73,-45.93 400.16,-32.26 439.1,-22.48"/>
<polygon fill="#63b8ff" stroke="#63b8ff" points="439.83,-25.9 448.68,-20.07 438.13,-19.11 439.83,-25.9"/>
</a>
</g>
</g>
<!-- Node18&#45;&gt;Node9 -->
<g id="edge24_Node000018_Node000009" class="edge">
<title>Node18&#45;&gt;Node9</title>
<g id="a_edge24_Node000018_Node000009"><a xlink:title=" ">
<path fill="none" stroke="#63b8ff" d="M685.81,-54.78C762.98,-43.74 890.77,-25.44 954.95,-16.26"/>
<polygon fill="#63b8ff" stroke="#63b8ff" points="955.26,-19.75 964.66,-14.86 954.27,-12.82 955.26,-19.75"/>
</a>
</g>
</g>
<!-- Node18&#45;&gt;Node17 -->
<g id="edge26_Node000018_Node000017" class="edge">
<title>Node18&#45;&gt;Node17</title>
<g id="a_edge26_Node000018_Node000017"><a xlink:title=" ">
<path fill="none" stroke="#63b8ff" d="M599.21,-54.84C577.53,-46.35 544.8,-33.54 520.16,-23.89"/>
<polygon fill="#63b8ff" stroke="#63b8ff" points="521.47,-20.64 510.88,-20.25 518.91,-27.16 521.47,-20.64"/>
</a>
</g>
</g>
<!-- Node19 -->
<g id="Node000019" class="node">
<title>Node19</title>
<g id="a_Node000019"><a xlink:title=" ">
<polygon fill="#e0e0e0" stroke="#999999" points="649.03,-19.25 595.53,-19.25 595.53,0 649.03,0 649.03,-19.25"/>
<text text-anchor="middle" x="622.28" y="-5.75" font-family="Helvetica,sans-Serif" font-size="10.00">iostream</text>
</a>
</g>
</g>
<!-- Node18&#45;&gt;Node19 -->
<g id="edge23_Node000018_Node000019" class="edge">
<title>Node18&#45;&gt;Node19</title>
<g id="a_edge23_Node000018_Node000019"><a xlink:title=" ">
<path fill="none" stroke="#63b8ff" d="M622.28,-55.08C622.28,-48.57 622.28,-39.42 622.28,-31.12"/>
<polygon fill="#63b8ff" stroke="#63b8ff" points="625.78,-31.12 622.28,-21.12 618.78,-31.12 625.78,-31.12"/>
</a>
</g>
</g>
<!-- Node20 -->
<g id="Node000020" class="node">
<title>Node20</title>
<g id="a_Node000020"><a xlink:title=" ">
<polygon fill="#e0e0e0" stroke="#999999" points="768.28,-19.25 710.28,-19.25 710.28,0 768.28,0 768.28,-19.25"/>
<text text-anchor="middle" x="739.28" y="-5.75" font-family="Helvetica,sans-Serif" font-size="10.00">functional</text>
</a>
</g>
</g>
<!-- Node18&#45;&gt;Node20 -->
<g id="edge25_Node000018_Node000020" class="edge">
<title>Node18&#45;&gt;Node20</title>
<g id="a_edge25_Node000018_Node000020"><a xlink:title=" ">
<path fill="none" stroke="#63b8ff" d="M642.13,-54.84C660.45,-46.5 687.93,-34 708.99,-24.41"/>
<polygon fill="#63b8ff" stroke="#63b8ff" points="710.31,-27.66 717.96,-20.33 707.41,-21.29 710.31,-27.66"/>
</a>
</g>
</g>
<!-- Node21&#45;&gt;Node12 -->
<g id="edge29_Node000021_Node000012" class="edge">
<title>Node21&#45;&gt;Node12</title>
<g id="a_edge29_Node000021_Node000012"><a xlink:title=" ">
<path fill="none" stroke="#63b8ff" d="M798.08,-54.84C813.3,-46.66 835.98,-34.46 853.67,-24.94"/>
<polygon fill="#63b8ff" stroke="#63b8ff" points="854.93,-28.24 862.07,-20.42 851.61,-22.07 854.93,-28.24"/>
</a>
</g>
</g>
<!-- Node21&#45;&gt;Node20 -->
<g id="edge28_Node000021_Node000020" class="edge">
<title>Node21&#45;&gt;Node20</title>
<g id="a_edge28_Node000021_Node000020"><a xlink:title=" ">
<path fill="none" stroke="#63b8ff" d="M774.35,-55.08C768.67,-47.88 760.45,-37.46 753.39,-28.51"/>
<polygon fill="#63b8ff" stroke="#63b8ff" points="756.25,-26.48 747.31,-20.8 750.75,-30.82 756.25,-26.48"/>
</a>
</g>
</g>
<!-- Node22&#45;&gt;Node2 -->
<g id="edge32_Node000022_Node000002" class="edge">
<title>Node22&#45;&gt;Node2</title>
<g id="a_edge32_Node000022_Node000002"><a xlink:title=" ">
<path fill="none" stroke="#63b8ff" d="M448.36,-165.31C360,-144.19 141.9,-92.07 62.13,-73.01"/>
<polygon fill="#63b8ff" stroke="#63b8ff" points="63.41,-69.71 52.87,-70.79 61.78,-76.52 63.41,-69.71"/>
</a>
</g>
</g>
<!-- Node22&#45;&gt;Node9 -->
<g id="edge33_Node000022_Node000009" class="edge">
<title>Node22&#45;&gt;Node9</title>
<g id="a_edge33_Node000022_Node000009"><a xlink:title=" ">
<path fill="none" stroke="#63b8ff" d="M545.82,-169.18C631.55,-159.83 793.02,-135.14 916.28,-74.5 940.22,-62.73 963.29,-42.34 978.05,-27.76"/>
<polygon fill="#63b8ff" stroke="#63b8ff" points="980.53,-30.23 985.04,-20.65 975.54,-25.33 980.53,-30.23"/>
</a>
</g>
</g>
<!-- Node22&#45;&gt;Node11 -->
<g id="edge35_Node000022_Node000011" class="edge">
<title>Node22&#45;&gt;Node11</title>
<g id="a_edge35_Node000022_Node000011"><a xlink:title=" ">
<path fill="none" stroke="#63b8ff" d="M471.19,-165.34C457.76,-157.31 437.87,-145.41 422.11,-135.98"/>
<polygon fill="#63b8ff" stroke="#63b8ff" points="424.13,-133.11 413.75,-130.98 420.54,-139.12 424.13,-133.11"/>
</a>
</g>
</g>
<!-- Node22&#45;&gt;Node17 -->
<g id="edge34_Node000022_Node000017" class="edge">
<title>Node22&#45;&gt;Node17</title>
<g id="a_edge34_Node000022_Node000017"><a xlink:title=" ">
<path fill="none" stroke="#63b8ff" d="M486.28,-165.57C486.28,-140.25 486.28,-66.75 486.28,-30.84"/>
<polygon fill="#63b8ff" stroke="#63b8ff" points="489.78,-30.99 486.28,-20.99 482.78,-30.99 489.78,-30.99"/>
</a>
</g>
</g>
<!-- Node23&#45;&gt;Node9 -->
<g id="edge39_Node000023_Node000009" class="edge">
<title>Node23&#45;&gt;Node9</title>
<g id="a_edge39_Node000023_Node000009"><a xlink:title=" ">
<path fill="none" stroke="#63b8ff" d="M879.77,-165.29C925.18,-157.96 978.98,-146.15 995.28,-129.75 1021.08,-103.81 1010.75,-56.83 1001.9,-30.28"/>
<polygon fill="#63b8ff" stroke="#63b8ff" points="1005.27,-29.31 998.59,-21.09 998.69,-31.69 1005.27,-29.31"/>
</a>
</g>
</g>
<!-- Node23&#45;&gt;Node11 -->
<g id="edge41_Node000023_Node000011" class="edge">
<title>Node23&#45;&gt;Node11</title>
<g id="a_edge41_Node000023_Node000011"><a xlink:title=" ">
<path fill="none" stroke="#63b8ff" d="M739.76,-165.28C664.48,-155.58 545.82,-140.28 469.79,-130.47"/>
<polygon fill="#63b8ff" stroke="#63b8ff" points="470.3,-127.01 459.93,-129.2 469.4,-133.95 470.3,-127.01"/>
</a>
</g>
</g>
<!-- Node23&#45;&gt;Node12 -->
<g id="edge37_Node000023_Node000012" class="edge">
<title>Node23&#45;&gt;Node12</title>
<g id="a_edge37_Node000023_Node000012"><a xlink:title=" ">
<path fill="none" stroke="#63b8ff" d="M819.82,-165.3C836.18,-148.99 869.06,-112.8 881.28,-74.5 885.79,-60.4 885.32,-43.63 883.85,-30.82"/>
<polygon fill="#63b8ff" stroke="#63b8ff" points="887.33,-30.44 882.4,-21.06 880.4,-31.47 887.33,-30.44"/>
</a>
</g>
</g>
<!-- Node23&#45;&gt;Node17 -->
<g id="edge40_Node000023_Node000017" class="edge">
<title>Node23&#45;&gt;Node17</title>
<g id="a_edge40_Node000023_Node000017"><a xlink:title=" ">
<path fill="none" stroke="#63b8ff" d="M768,-165.28C712.72,-151.96 614.56,-123.27 543.28,-74.5 525.32,-62.21 509.26,-43.08 498.8,-28.95"/>
<polygon fill="#63b8ff" stroke="#63b8ff" points="501.75,-27.07 493.1,-20.95 496.05,-31.13 501.75,-27.07"/>
</a>
</g>
</g>
<!-- Node24 -->
<g id="Node000024" class="node">
<title>Node24</title>
<g id="a_Node000024"><a xlink:title=" ">
<polygon fill="#e0e0e0" stroke="#999999" points="985.91,-129.75 946.66,-129.75 946.66,-110.5 985.91,-110.5 985.91,-129.75"/>
<text text-anchor="middle" x="966.28" y="-116.25" font-family="Helvetica,sans-Serif" font-size="10.00">utility</text>
</a>
</g>
</g>
<!-- Node23&#45;&gt;Node24 -->
<g id="edge38_Node000023_Node000024" class="edge">
<title>Node23&#45;&gt;Node24</title>
<g id="a_edge38_Node000023_Node000024"><a xlink:title=" ">
<path fill="none" stroke="#63b8ff" d="M836.75,-165.34C864.22,-155.96 907.13,-141.32 935.96,-131.48"/>
<polygon fill="#63b8ff" stroke="#63b8ff" points="936.86,-134.87 945.19,-128.33 934.6,-128.24 936.86,-134.87"/>
</a>
</g>
</g>
</g>
</svg>

<g id="navigator" transform="translate(0 0)" fill="#404254">
  <rect fill="#f2f5e9" fill-opacity="0.5" stroke="#606060" stroke-width=".5" x="0" y="0" width="60" height="60"/>
  <use id="zoomplus" xlink:href="#zoomPlus" x="17" y="9" onmousedown="handleZoom(evt,'in')"/>
  <use id="zoomminus" xlink:href="#zoomMin" x="42" y="9" onmousedown="handleZoom(evt,'out')"/>
  <use id="reset" xlink:href="#resetDef" x="30" y="36" onmousedown="handleReset()"/>
   <use id="arrowup" xlink:href="#arrowUp" x="0" y="0" onmousedown="handlePan(0,-1)"/>
  <use id="arrowright" xlink:href="#arrowRight" x="0" y="0" onmousedown="handlePan(1,0)"/>
  <use id="arrowdown" xlink:href="#arrowDown" x="0" y="0" onmousedown="handlePan(0,1)"/>
  <use id="arrowleft" xlink:href="#arrowLeft" x="0" y="0" onmousedown="handlePan(-1,0)"/>
</g>
<svg viewBox="0 0 15 15" width="100%" height="30px" preserveAspectRatio="xMaxYMin meet">
 <g id="arrow_out" transform="scale(0.3 0.3)">
  <a xlink:href="ExecutionContext_8hpp__incl_org.svg" target="_base">
   <rect id="button" ry="5" rx="5" y="6" x="6" height="38" width="38"
        fill="#f2f5e9" fill-opacity="0.5" stroke="#606060" stroke-width="1.0"/>
   <path id="arrow"
     d="M 11.500037,31.436501 C 11.940474,20.09759 22.043105,11.32322 32.158766,21.979434 L 37.068811,17.246167 C 37.068811,17.246167 37.088388,32 37.088388,32 L 22.160133,31.978069 C 22.160133,31.978069 26.997745,27.140456 26.997745,27.140456 C 18.528582,18.264221 13.291696,25.230495 11.500037,31.436501 z"
     style="fill:#404040;"/>
  </a>
 </g>
</svg>

<style type='text/css'>
<![CDATA[
[data-mouse-over-selected='false'] { opacity: 0.7; }
[data-mouse-over-selected='true']  { opacity: 1.0; }
]]>
</style>
<script type="application/ecmascript"><![CDATA[
document.addEventListener('DOMContentLoaded', (event) => {
  highlightEdges();
  highlightAdjacentNodes();
});
]]></script>
</svg>
