<?xml version="1.0" encoding="UTF-8" standalone="no"?>
<!DOCTYPE svg PUBLIC "-//W3C//DTD SVG 1.1//EN"
 "http://www.w3.org/Graphics/SVG/1.1/DTD/svg11.dtd">
<!-- Generated by graphviz version 12.2.0 (20241103.1931)
 -->
<!-- Title: /Users/fola/Documents/ArkScript/Ark/include/Ark/VM/ExecutionContext.hpp Pages: 1 -->
<svg width="1122pt" height="271pt"
 viewBox="0.00 0.00 1121.75 270.75" xmlns="http://www.w3.org/2000/svg" xmlns:xlink="http://www.w3.org/1999/xlink">
<g id="graph0" class="graph" transform="scale(1 1) rotate(0) translate(4 266.75)">
<title>/Users/fola/Documents/ArkScript/Ark/include/Ark/VM/ExecutionContext.hpp</title>
<!-- Node1 -->
<g id="Node000001" class="node">
<title>Node1</title>
<g id="a_Node000001"><a xlink:title="Keeping track of the internal data needed by the VM.">
<polygon fill="#999999" stroke="#666666" points="820.75,-262.75 669,-262.75 669,-221 820.75,-221 820.75,-262.75"/>
<text text-anchor="start" x="677" y="-249.25" font-family="Helvetica,sans-Serif" font-size="10.00">/Users/fola/Documents</text>
<text text-anchor="start" x="677" y="-238" font-family="Helvetica,sans-Serif" font-size="10.00">/ArkScript/Ark/include</text>
<text text-anchor="middle" x="744.88" y="-226.75" font-family="Helvetica,sans-Serif" font-size="10.00">/Ark/VM/ExecutionContext.hpp</text>
</a>
</g>
</g>
<!-- Node2 -->
<g id="Node000002" class="node">
<title>Node2</title>
<g id="a_Node000002"><a xlink:title=" ">
<polygon fill="#e0e0e0" stroke="#999999" points="37.75,-74.5 0,-74.5 0,-55.25 37.75,-55.25 37.75,-74.5"/>
<text text-anchor="middle" x="18.88" y="-61" font-family="Helvetica,sans-Serif" font-size="10.00">array</text>
</a>
</g>
</g>
<!-- Node1&#45;&gt;Node2 -->
<g id="edge1_Node000001_Node000002" class="edge">
<title>Node1&#45;&gt;Node2</title>
<g id="a_edge1_Node000001_Node000002"><a xlink:title=" ">
<path fill="none" stroke="#63b8ff" d="M668.5,-239.96C503.04,-236.3 119.25,-218.24 30.88,-129.75 19.64,-118.5 17.14,-100.29 17.16,-86.19"/>
<polygon fill="#63b8ff" stroke="#63b8ff" points="20.65,-86.37 17.63,-76.22 13.66,-86.04 20.65,-86.37"/>
</a>
</g>
</g>
<!-- Node3 -->
<g id="Node000003" class="node">
<title>Node3</title>
<g id="a_Node000003"><a xlink:title=" ">
<polygon fill="#e0e0e0" stroke="#999999" points="1045.5,-185 1006.25,-185 1006.25,-165.75 1045.5,-165.75 1045.5,-185"/>
<text text-anchor="middle" x="1025.88" y="-171.5" font-family="Helvetica,sans-Serif" font-size="10.00">limits</text>
</a>
</g>
</g>
<!-- Node1&#45;&gt;Node3 -->
<g id="edge2_Node000001_Node000003" class="edge">
<title>Node1&#45;&gt;Node3</title>
<g id="a_edge2_Node000001_Node000003"><a xlink:title=" ">
<path fill="none" stroke="#63b8ff" d="M821.21,-224.14C870.08,-213.3 934.8,-198.69 991.88,-185 992.86,-184.76 993.86,-184.52 994.87,-184.28"/>
<polygon fill="#63b8ff" stroke="#63b8ff" points="995.43,-187.74 1004.29,-181.93 993.74,-180.95 995.43,-187.74"/>
</a>
</g>
</g>
<!-- Node4 -->
<g id="Node000004" class="node">
<title>Node4</title>
<g id="a_Node000004"><a xlink:title=" ">
<polygon fill="#e0e0e0" stroke="#999999" points="982.5,-19.25 931.25,-19.25 931.25,0 982.5,0 982.5,-19.25"/>
<text text-anchor="middle" x="956.88" y="-5.75" font-family="Helvetica,sans-Serif" font-size="10.00">memory</text>
</a>
</g>
</g>
<!-- Node1&#45;&gt;Node4 -->
<g id="edge3_Node000001_Node000004" class="edge">
<title>Node1&#45;&gt;Node4</title>
<g id="a_edge3_Node000001_Node000004"><a xlink:title=" ">
<path fill="none" stroke="#63b8ff" d="M821.21,-221.09C845.83,-212.47 872.31,-200.67 893.88,-185 919.27,-166.54 925.21,-158.47 937.88,-129.75 952.2,-97.26 955.89,-55.56 956.74,-31.1"/>
<polygon fill="#63b8ff" stroke="#63b8ff" points="960.24,-31.31 956.94,-21.24 953.24,-31.17 960.24,-31.31"/>
</a>
</g>
</g>
<!-- Node5 -->
<g id="Node000005" class="node">
<title>Node5</title>
<g id="a_Node000005"><a xlink:title=" ">
<polygon fill="#e0e0e0" stroke="#999999" points="1113.75,-185 1064,-185 1064,-165.75 1113.75,-165.75 1113.75,-185"/>
<text text-anchor="middle" x="1088.88" y="-171.5" font-family="Helvetica,sans-Serif" font-size="10.00">optional</text>
</a>
</g>
</g>
<!-- Node1&#45;&gt;Node5 -->
<g id="edge4_Node000001_Node000005" class="edge">
<title>Node1&#45;&gt;Node5</title>
<g id="a_edge4_Node000001_Node000005"><a xlink:title=" ">
<path fill="none" stroke="#63b8ff" d="M820.97,-228.69C881.26,-218.68 967.86,-203.54 1052.55,-185.38"/>
<polygon fill="#63b8ff" stroke="#63b8ff" points="1053.16,-188.83 1062.19,-183.3 1051.68,-181.99 1053.16,-188.83"/>
</a>
</g>
</g>
<!-- Node6 -->
<g id="Node000006" class="node">
<title>Node6</title>
<g id="a_Node000006"><a xlink:href="../../d6/de9/Constants_8hpp.html" target="_top" xlink:title="Constants used by ArkScript.">
<polygon fill="white" stroke="#666666" points="884.75,-185 787,-185 787,-165.75 884.75,-165.75 884.75,-185"/>
<text text-anchor="middle" x="835.88" y="-171.5" font-family="Helvetica,sans-Serif" font-size="10.00">Ark/Constants.hpp</text>
</a>
</g>
</g>
<!-- Node1&#45;&gt;Node6 -->
<g id="edge5_Node000001_Node000006" class="edge">
<title>Node1&#45;&gt;Node6</title>
<g id="a_edge5_Node000001_Node000006"><a xlink:title=" ">
<path fill="none" stroke="#63b8ff" d="M773.17,-220.82C786.34,-211.48 801.77,-200.55 814.03,-191.86"/>
<polygon fill="#63b8ff" stroke="#63b8ff" points="815.71,-194.96 821.84,-186.32 811.66,-189.25 815.71,-194.96"/>
</a>
</g>
</g>
<!-- Node10 -->
<g id="Node000010" class="node">
<title>Node10</title>
<g id="a_Node000010"><a xlink:href="../../de/dfd/Value_8hpp.html" target="_top" xlink:title="Default value type handled by the virtual machine.">
<polygon fill="white" stroke="#666666" points="438.25,-129.75 343.5,-129.75 343.5,-110.5 438.25,-110.5 438.25,-129.75"/>
<text text-anchor="middle" x="390.88" y="-116.25" font-family="Helvetica,sans-Serif" font-size="10.00">Ark/VM/Value.hpp</text>
</a>
</g>
</g>
<!-- Node1&#45;&gt;Node10 -->
<g id="edge9_Node000001_Node000010" class="edge">
<title>Node1&#45;&gt;Node10</title>
<g id="a_edge9_Node000001_Node000010"><a xlink:title=" ">
<path fill="none" stroke="#63b8ff" d="M684.82,-220.56C611.47,-195.75 489.61,-154.53 428.4,-133.82"/>
<polygon fill="#63b8ff" stroke="#63b8ff" points="429.73,-130.57 419.14,-130.69 427.49,-137.21 429.73,-130.57"/>
</a>
</g>
</g>
<!-- Node20 -->
<g id="Node000020" class="node">
<title>Node20</title>
<g id="a_Node000020"><a xlink:href="../../d8/d45/ScopeView_8hpp.html" target="_top" xlink:title=" ">
<polygon fill="white" stroke="#666666" points="450.25,-185 331.5,-185 331.5,-165.75 450.25,-165.75 450.25,-185"/>
<text text-anchor="middle" x="390.88" y="-171.5" font-family="Helvetica,sans-Serif" font-size="10.00">Ark/VM/ScopeView.hpp</text>
</a>
</g>
</g>
<!-- Node1&#45;&gt;Node20 -->
<g id="edge28_Node000001_Node000020" class="edge">
<title>Node1&#45;&gt;Node20</title>
<g id="a_edge28_Node000001_Node000020"><a xlink:title=" ">
<path fill="none" stroke="#63b8ff" d="M668.93,-227.04C604.14,-215.23 512.17,-198.47 452.02,-187.52"/>
<polygon fill="#63b8ff" stroke="#63b8ff" points="452.76,-184.09 442.3,-185.74 451.51,-190.98 452.76,-184.09"/>
</a>
</g>
</g>
<!-- Node21 -->
<g id="Node000021" class="node">
<title>Node21</title>
<g id="a_Node000021"><a xlink:href="../../d1/d71/ClosureScope_8hpp.html" target="_top" xlink:title="Subtype of the value type, handling closures.">
<polygon fill="white" stroke="#666666" points="751.5,-185 592.25,-185 592.25,-165.75 751.5,-165.75 751.5,-185"/>
<text text-anchor="middle" x="671.88" y="-171.5" font-family="Helvetica,sans-Serif" font-size="10.00">Ark/VM/Value/ClosureScope.hpp</text>
</a>
</g>
</g>
<!-- Node1&#45;&gt;Node21 -->
<g id="edge33_Node000001_Node000021" class="edge">
<title>Node1&#45;&gt;Node21</title>
<g id="a_edge33_Node000001_Node000021"><a xlink:title=" ">
<path fill="none" stroke="#63b8ff" d="M722.18,-220.82C712.03,-211.85 700.21,-201.41 690.58,-192.9"/>
<polygon fill="#63b8ff" stroke="#63b8ff" points="693.09,-190.45 683.27,-186.45 688.45,-195.69 693.09,-190.45"/>
</a>
</g>
</g>
<!-- Node7 -->
<g id="Node000007" class="node">
<title>Node7</title>
<g id="a_Node000007"><a xlink:title=" ">
<polygon fill="#e0e0e0" stroke="#999999" points="845.62,-129.75 780.12,-129.75 780.12,-110.5 845.62,-110.5 845.62,-129.75"/>
<text text-anchor="middle" x="812.88" y="-116.25" font-family="Helvetica,sans-Serif" font-size="10.00">string_view</text>
</a>
</g>
</g>
<!-- Node6&#45;&gt;Node7 -->
<g id="edge6_Node000006_Node000007" class="edge">
<title>Node6&#45;&gt;Node7</title>
<g id="a_edge6_Node000006_Node000007"><a xlink:title=" ">
<path fill="none" stroke="#63b8ff" d="M832.08,-165.58C829.13,-158.76 824.94,-149.06 821.22,-140.45"/>
<polygon fill="#63b8ff" stroke="#63b8ff" points="824.53,-139.29 817.36,-131.5 818.11,-142.07 824.53,-139.29"/>
</a>
</g>
</g>
<!-- Node8 -->
<g id="Node000008" class="node">
<title>Node8</title>
<g id="a_Node000008"><a xlink:title=" ">
<polygon fill="#e0e0e0" stroke="#999999" points="891.75,-19.25 836,-19.25 836,0 891.75,0 891.75,-19.25"/>
<text text-anchor="middle" x="863.88" y="-5.75" font-family="Helvetica,sans-Serif" font-size="10.00">cinttypes</text>
</a>
</g>
</g>
<!-- Node6&#45;&gt;Node8 -->
<g id="edge7_Node000006_Node000008" class="edge">
<title>Node6&#45;&gt;Node8</title>
<g id="a_edge7_Node000006_Node000008"><a xlink:title=" ">
<path fill="none" stroke="#63b8ff" d="M871.4,-165.28C889.58,-158.64 910.1,-147.58 920.88,-129.75 928.33,-117.41 929.93,-82.52 915.88,-55.25 909.84,-43.55 899.31,-33.63 889.3,-26.13"/>
<polygon fill="#63b8ff" stroke="#63b8ff" points="891.48,-23.38 881.26,-20.57 887.5,-29.14 891.48,-23.38"/>
</a>
</g>
</g>
<!-- Node9 -->
<g id="Node000009" class="node">
<title>Node9</title>
<g id="a_Node000009"><a xlink:title=" ">
<polygon fill="#e0e0e0" stroke="#999999" points="912,-129.75 863.75,-129.75 863.75,-110.5 912,-110.5 912,-129.75"/>
<text text-anchor="middle" x="887.88" y="-116.25" font-family="Helvetica,sans-Serif" font-size="10.00">cstddef</text>
</a>
</g>
</g>
<!-- Node6&#45;&gt;Node9 -->
<g id="edge8_Node000006_Node000009" class="edge">
<title>Node6&#45;&gt;Node9</title>
<g id="a_edge8_Node000006_Node000009"><a xlink:title=" ">
<path fill="none" stroke="#63b8ff" d="M844.46,-165.58C851.72,-158.15 862.33,-147.29 871.24,-138.16"/>
<polygon fill="#63b8ff" stroke="#63b8ff" points="873.56,-140.79 878.04,-131.19 868.55,-135.9 873.56,-140.79"/>
</a>
</g>
</g>
<!-- Node10&#45;&gt;Node2 -->
<g id="edge14_Node000010_Node000002" class="edge">
<title>Node10&#45;&gt;Node2</title>
<g id="a_edge14_Node000010_Node000002"><a xlink:title=" ">
<path fill="none" stroke="#63b8ff" d="M343,-112.27C265.23,-101.14 113.64,-79.44 49.12,-70.2"/>
<polygon fill="#63b8ff" stroke="#63b8ff" points="50.02,-66.8 39.62,-68.84 49.02,-73.73 50.02,-66.8"/>
</a>
</g>
</g>
<!-- Node10&#45;&gt;Node8 -->
<g id="edge13_Node000010_Node000008" class="edge">
<title>Node10&#45;&gt;Node8</title>
<g id="a_edge13_Node000010_Node000008"><a xlink:title=" ">
<path fill="none" stroke="#63b8ff" d="M438.66,-117.1C529.66,-112.7 724.28,-100.49 785.88,-74.5 810.95,-63.92 834.34,-42.63 848.84,-27.54"/>
<polygon fill="#63b8ff" stroke="#63b8ff" points="851.03,-30.32 855.27,-20.61 845.9,-25.56 851.03,-30.32"/>
</a>
</g>
</g>
<!-- Node11 -->
<g id="Node000011" class="node">
<title>Node11</title>
<g id="a_Node000011"><a xlink:title=" ">
<polygon fill="#e0e0e0" stroke="#999999" points="125.38,-19.25 82.38,-19.25 82.38,0 125.38,0 125.38,-19.25"/>
<text text-anchor="middle" x="103.88" y="-5.75" font-family="Helvetica,sans-Serif" font-size="10.00">vector</text>
</a>
</g>
</g>
<!-- Node10&#45;&gt;Node11 -->
<g id="edge10_Node000010_Node000011" class="edge">
<title>Node10&#45;&gt;Node11</title>
<g id="a_edge10_Node000010_Node000011"><a xlink:title=" ">
<path fill="none" stroke="#63b8ff" d="M343.02,-117.12C274.93,-113.3 154.79,-102.68 122.88,-74.5 110.53,-63.6 106.04,-45.08 104.49,-30.78"/>
<polygon fill="#63b8ff" stroke="#63b8ff" points="108,-30.86 103.85,-21.11 101.01,-31.32 108,-30.86"/>
</a>
</g>
</g>
<!-- Node12 -->
<g id="Node000012" class="node">
<title>Node12</title>
<g id="a_Node000012"><a xlink:title=" ">
<polygon fill="#e0e0e0" stroke="#999999" points="375.5,-74.5 330.25,-74.5 330.25,-55.25 375.5,-55.25 375.5,-74.5"/>
<text text-anchor="middle" x="352.88" y="-61" font-family="Helvetica,sans-Serif" font-size="10.00">variant</text>
</a>
</g>
</g>
<!-- Node10&#45;&gt;Node12 -->
<g id="edge11_Node000010_Node000012" class="edge">
<title>Node10&#45;&gt;Node12</title>
<g id="a_edge11_Node000010_Node000012"><a xlink:title=" ">
<path fill="none" stroke="#63b8ff" d="M384.6,-110.33C379.52,-103.21 372.18,-92.93 365.84,-84.05"/>
<polygon fill="#63b8ff" stroke="#63b8ff" points="368.82,-82.2 360.17,-76.09 363.13,-86.26 368.82,-82.2"/>
</a>
</g>
</g>
<!-- Node13 -->
<g id="Node000013" class="node">
<title>Node13</title>
<g id="a_Node000013"><a xlink:title=" ">
<polygon fill="#e0e0e0" stroke="#999999" points="760.88,-19.25 720.88,-19.25 720.88,0 760.88,0 760.88,-19.25"/>
<text text-anchor="middle" x="740.88" y="-5.75" font-family="Helvetica,sans-Serif" font-size="10.00">string</text>
</a>
</g>
</g>
<!-- Node10&#45;&gt;Node13 -->
<g id="edge12_Node000010_Node000013" class="edge">
<title>Node10&#45;&gt;Node13</title>
<g id="a_edge12_Node000010_Node000013"><a xlink:title=" ">
<path fill="none" stroke="#63b8ff" d="M438.41,-116.98C535.07,-112.14 747.25,-98.82 768.88,-74.5 780.88,-60.99 769.36,-41.51 757.67,-27.62"/>
<polygon fill="#63b8ff" stroke="#63b8ff" points="760.55,-25.58 751.23,-20.54 755.37,-30.29 760.55,-25.58"/>
</a>
</g>
</g>
<!-- Node14 -->
<g id="Node000014" class="node">
<title>Node14</title>
<g id="a_Node000014"><a xlink:href="../../dc/dd5/Closure_8hpp.html" target="_top" xlink:title="Subtype of the value type, handling closures.">
<polygon fill="white" stroke="#666666" points="759.62,-74.5 628.12,-74.5 628.12,-55.25 759.62,-55.25 759.62,-74.5"/>
<text text-anchor="middle" x="693.88" y="-61" font-family="Helvetica,sans-Serif" font-size="10.00">Ark/VM/Value/Closure.hpp</text>
</a>
</g>
</g>
<!-- Node10&#45;&gt;Node14 -->
<g id="edge15_Node000010_Node000014" class="edge">
<title>Node10&#45;&gt;Node14</title>
<g id="a_edge15_Node000010_Node000014"><a xlink:title=" ">
<path fill="none" stroke="#63b8ff" d="M438.55,-110.75C490.5,-101.62 573.84,-86.97 631.08,-76.91"/>
<polygon fill="#63b8ff" stroke="#63b8ff" points="631.43,-80.4 640.68,-75.22 630.22,-73.51 631.43,-80.4"/>
</a>
</g>
</g>
<!-- Node16 -->
<g id="Node000016" class="node">
<title>Node16</title>
<g id="a_Node000016"><a xlink:href="../../d5/d40/Platform_8hpp.html" target="_top" xlink:title="ArkScript configuration macros.">
<polygon fill="white" stroke="#666666" points="486.62,-19.25 397.12,-19.25 397.12,0 486.62,0 486.62,-19.25"/>
<text text-anchor="middle" x="441.88" y="-5.75" font-family="Helvetica,sans-Serif" font-size="10.00">Ark/Platform.hpp</text>
</a>
</g>
</g>
<!-- Node10&#45;&gt;Node16 -->
<g id="edge27_Node000010_Node000016" class="edge">
<title>Node10&#45;&gt;Node16</title>
<g id="a_edge27_Node000010_Node000016"><a xlink:title=" ">
<path fill="none" stroke="#63b8ff" d="M395.05,-110.25C403.27,-92.76 421.71,-53.52 432.84,-29.84"/>
<polygon fill="#63b8ff" stroke="#63b8ff" points="435.91,-31.54 437,-21 429.58,-28.56 435.91,-31.54"/>
</a>
</g>
</g>
<!-- Node17 -->
<g id="Node000017" class="node">
<title>Node17</title>
<g id="a_Node000017"><a xlink:href="../../dc/d3d/UserType_8hpp.html" target="_top" xlink:title="Subtype of the value, capable of handling any C++ type.">
<polygon fill="white" stroke="#666666" points="609.75,-74.5 470,-74.5 470,-55.25 609.75,-55.25 609.75,-74.5"/>
<text text-anchor="middle" x="539.88" y="-61" font-family="Helvetica,sans-Serif" font-size="10.00">Ark/VM/Value/UserType.hpp</text>
</a>
</g>
</g>
<!-- Node10&#45;&gt;Node17 -->
<g id="edge20_Node000010_Node000017" class="edge">
<title>Node10&#45;&gt;Node17</title>
<g id="a_edge20_Node000010_Node000017"><a xlink:title=" ">
<path fill="none" stroke="#63b8ff" d="M416.15,-110.09C440.23,-101.49 476.73,-88.44 503.86,-78.75"/>
<polygon fill="#63b8ff" stroke="#63b8ff" points="504.81,-82.12 513.05,-75.46 502.46,-75.53 504.81,-82.12"/>
</a>
</g>
</g>
<!-- Node18 -->
<g id="Node000018" class="node">
<title>Node18</title>
<g id="a_Node000018"><a xlink:href="../../da/dcf/Procedure_8hpp.html" target="_top" xlink:title="Wrapper object for user&#45;defined functions.">
<polygon fill="white" stroke="#666666" points="273.88,-74.5 131.88,-74.5 131.88,-55.25 273.88,-55.25 273.88,-74.5"/>
<text text-anchor="middle" x="202.88" y="-61" font-family="Helvetica,sans-Serif" font-size="10.00">Ark/VM/Value/Procedure.hpp</text>
</a>
</g>
</g>
<!-- Node10&#45;&gt;Node18 -->
<g id="edge24_Node000010_Node000018" class="edge">
<title>Node10&#45;&gt;Node18</title>
<g id="a_edge24_Node000010_Node000018"><a xlink:title=" ">
<path fill="none" stroke="#63b8ff" d="M358.98,-110.09C327.79,-101.26 280.08,-87.74 245.61,-77.98"/>
<polygon fill="#63b8ff" stroke="#63b8ff" points="246.95,-74.72 236.38,-75.36 245.05,-81.46 246.95,-74.72"/>
</a>
</g>
</g>
<!-- Node14&#45;&gt;Node4 -->
<g id="edge16_Node000014_Node000004" class="edge">
<title>Node14&#45;&gt;Node4</title>
<g id="a_edge16_Node000014_Node000004"><a xlink:title=" ">
<path fill="none" stroke="#63b8ff" d="M738.79,-54.78C789.88,-44.44 872.38,-27.73 919.91,-18.11"/>
<polygon fill="#63b8ff" stroke="#63b8ff" points="920.33,-21.6 929.44,-16.18 918.94,-14.73 920.33,-21.6"/>
</a>
</g>
</g>
<!-- Node14&#45;&gt;Node13 -->
<g id="edge18_Node000014_Node000013" class="edge">
<title>Node14&#45;&gt;Node13</title>
<g id="a_edge18_Node000014_Node000013"><a xlink:title=" ">
<path fill="none" stroke="#63b8ff" d="M701.64,-55.08C708.06,-47.8 717.39,-37.23 725.34,-28.23"/>
<polygon fill="#63b8ff" stroke="#63b8ff" points="727.95,-30.56 731.94,-20.74 722.7,-25.93 727.95,-30.56"/>
</a>
</g>
</g>
<!-- Node15 -->
<g id="Node000015" class="node">
<title>Node15</title>
<g id="a_Node000015"><a xlink:title=" ">
<polygon fill="#e0e0e0" stroke="#999999" points="634.62,-19.25 581.12,-19.25 581.12,0 634.62,0 634.62,-19.25"/>
<text text-anchor="middle" x="607.88" y="-5.75" font-family="Helvetica,sans-Serif" font-size="10.00">iostream</text>
</a>
</g>
</g>
<!-- Node14&#45;&gt;Node15 -->
<g id="edge17_Node000014_Node000015" class="edge">
<title>Node14&#45;&gt;Node15</title>
<g id="a_edge17_Node000014_Node000015"><a xlink:title=" ">
<path fill="none" stroke="#63b8ff" d="M679.29,-54.84C666.44,-46.89 647.46,-35.14 632.3,-25.75"/>
<polygon fill="#63b8ff" stroke="#63b8ff" points="634.17,-22.79 623.82,-20.5 630.48,-28.74 634.17,-22.79"/>
</a>
</g>
</g>
<!-- Node14&#45;&gt;Node16 -->
<g id="edge19_Node000014_Node000016" class="edge">
<title>Node14&#45;&gt;Node16</title>
<g id="a_edge19_Node000014_Node000016"><a xlink:title=" ">
<path fill="none" stroke="#63b8ff" d="M650.84,-54.78C607.98,-45.73 542.08,-31.8 495.76,-22.01"/>
<polygon fill="#63b8ff" stroke="#63b8ff" points="496.72,-18.64 486.21,-19.99 495.27,-25.49 496.72,-18.64"/>
</a>
</g>
</g>
<!-- Node17&#45;&gt;Node8 -->
<g id="edge22_Node000017_Node000008" class="edge">
<title>Node17&#45;&gt;Node8</title>
<g id="a_edge22_Node000017_Node000008"><a xlink:title=" ">
<path fill="none" stroke="#63b8ff" d="M595.2,-54.78C660.47,-44.05 767.33,-26.49 824.64,-17.07"/>
<polygon fill="#63b8ff" stroke="#63b8ff" points="824.95,-20.57 834.25,-15.49 823.82,-13.66 824.95,-20.57"/>
</a>
</g>
</g>
<!-- Node17&#45;&gt;Node15 -->
<g id="edge21_Node000017_Node000015" class="edge">
<title>Node17&#45;&gt;Node15</title>
<g id="a_edge21_Node000017_Node000015"><a xlink:title=" ">
<path fill="none" stroke="#63b8ff" d="M551.41,-54.84C561.34,-47.07 575.89,-35.67 587.73,-26.4"/>
<polygon fill="#63b8ff" stroke="#63b8ff" points="589.6,-29.38 595.32,-20.46 585.29,-23.87 589.6,-29.38"/>
</a>
</g>
</g>
<!-- Node17&#45;&gt;Node16 -->
<g id="edge23_Node000017_Node000016" class="edge">
<title>Node17&#45;&gt;Node16</title>
<g id="a_edge23_Node000017_Node000016"><a xlink:title=" ">
<path fill="none" stroke="#63b8ff" d="M523.25,-54.84C508.19,-46.66 485.73,-34.46 468.22,-24.94"/>
<polygon fill="#63b8ff" stroke="#63b8ff" points="470.37,-22.12 459.91,-20.43 467.03,-28.27 470.37,-22.12"/>
</a>
</g>
</g>
<!-- Node18&#45;&gt;Node11 -->
<g id="edge26_Node000018_Node000011" class="edge">
<title>Node18&#45;&gt;Node11</title>
<g id="a_edge26_Node000018_Node000011"><a xlink:title=" ">
<path fill="none" stroke="#63b8ff" d="M186.08,-54.84C170.86,-46.66 148.18,-34.46 130.49,-24.94"/>
<polygon fill="#63b8ff" stroke="#63b8ff" points="132.55,-22.07 122.08,-20.42 129.23,-28.24 132.55,-22.07"/>
</a>
</g>
</g>
<!-- Node19 -->
<g id="Node000019" class="node">
<title>Node19</title>
<g id="a_Node000019"><a xlink:title=" ">
<polygon fill="#e0e0e0" stroke="#999999" points="231.88,-19.25 173.88,-19.25 173.88,0 231.88,0 231.88,-19.25"/>
<text text-anchor="middle" x="202.88" y="-5.75" font-family="Helvetica,sans-Serif" font-size="10.00">functional</text>
</a>
</g>
</g>
<!-- Node18&#45;&gt;Node19 -->
<g id="edge25_Node000018_Node000019" class="edge">
<title>Node18&#45;&gt;Node19</title>
<g id="a_edge25_Node000018_Node000019"><a xlink:title=" ">
<path fill="none" stroke="#63b8ff" d="M202.88,-55.08C202.88,-48.57 202.88,-39.42 202.88,-31.12"/>
<polygon fill="#63b8ff" stroke="#63b8ff" points="206.38,-31.12 202.88,-21.12 199.38,-31.12 206.38,-31.12"/>
</a>
</g>
</g>
<!-- Node20&#45;&gt;Node2 -->
<g id="edge29_Node000020_Node000002" class="edge">
<title>Node20&#45;&gt;Node2</title>
<g id="a_edge29_Node000020_Node000002"><a xlink:title=" ">
<path fill="none" stroke="#63b8ff" d="M331.25,-173.06C246.26,-170.1 95.71,-160.55 51.88,-129.75 37.03,-119.32 28.41,-100.15 23.72,-85.53"/>
<polygon fill="#63b8ff" stroke="#63b8ff" points="27.14,-84.74 21.07,-76.05 20.4,-86.63 27.14,-84.74"/>
</a>
</g>
</g>
<!-- Node20&#45;&gt;Node8 -->
<g id="edge30_Node000020_Node000008" class="edge">
<title>Node20&#45;&gt;Node8</title>
<g id="a_edge30_Node000020_Node000008"><a xlink:title=" ">
<path fill="none" stroke="#63b8ff" d="M432.72,-165.32C536.5,-142.74 798.6,-85.02 814.88,-74.5 832.09,-63.37 845.66,-44.04 854.11,-29.55"/>
<polygon fill="#63b8ff" stroke="#63b8ff" points="857.08,-31.41 858.82,-20.95 850.95,-28.04 857.08,-31.41"/>
</a>
</g>
</g>
<!-- Node20&#45;&gt;Node10 -->
<g id="edge32_Node000020_Node000010" class="edge">
<title>Node20&#45;&gt;Node10</title>
<g id="a_edge32_Node000020_Node000010"><a xlink:title=" ">
<path fill="none" stroke="#63b8ff" d="M390.88,-165.58C390.88,-159.07 390.88,-149.92 390.88,-141.62"/>
<polygon fill="#63b8ff" stroke="#63b8ff" points="394.38,-141.62 390.88,-131.62 387.38,-141.62 394.38,-141.62"/>
</a>
</g>
</g>
<!-- Node20&#45;&gt;Node16 -->
<g id="edge31_Node000020_Node000016" class="edge">
<title>Node20&#45;&gt;Node16</title>
<g id="a_edge31_Node000020_Node000016"><a xlink:title=" ">
<path fill="none" stroke="#63b8ff" d="M374.45,-165.35C361.78,-157.54 344.78,-145.1 334.88,-129.75 316.61,-101.44 301.61,-82.89 320.88,-55.25 335.58,-34.16 361.43,-23.01 385.47,-17.13"/>
<polygon fill="#63b8ff" stroke="#63b8ff" points="386.19,-20.56 395.23,-15.03 384.72,-13.71 386.19,-20.56"/>
</a>
</g>
</g>
<!-- Node21&#45;&gt;Node8 -->
<g id="edge36_Node000021_Node000008" class="edge">
<title>Node21&#45;&gt;Node8</title>
<g id="a_edge36_Node000021_Node000008"><a xlink:title=" ">
<path fill="none" stroke="#63b8ff" d="M675.2,-165.34C680.86,-151.28 693.76,-124.34 713.88,-110.5 775.35,-68.2 831.11,-132.65 877.88,-74.5 888.09,-61.8 882.44,-43.24 875.51,-29.4"/>
<polygon fill="#63b8ff" stroke="#63b8ff" points="878.64,-27.84 870.7,-20.83 872.54,-31.27 878.64,-27.84"/>
</a>
</g>
</g>
<!-- Node21&#45;&gt;Node10 -->
<g id="edge38_Node000021_Node000010" class="edge">
<title>Node21&#45;&gt;Node10</title>
<g id="a_edge38_Node000021_Node000010"><a xlink:title=" ">
<path fill="none" stroke="#63b8ff" d="M623.89,-165.28C575.7,-156.15 501.36,-142.06 449.66,-132.26"/>
<polygon fill="#63b8ff" stroke="#63b8ff" points="450.63,-128.89 440.15,-130.46 449.32,-135.76 450.63,-128.89"/>
</a>
</g>
</g>
<!-- Node21&#45;&gt;Node11 -->
<g id="edge34_Node000021_Node000011" class="edge">
<title>Node21&#45;&gt;Node11</title>
<g id="a_edge34_Node000021_Node000011"><a xlink:title=" ">
<path fill="none" stroke="#63b8ff" d="M592.01,-172.61C450.72,-167.59 165.91,-148.34 105.88,-74.5 96.12,-62.5 96.39,-44.64 98.67,-30.86"/>
<polygon fill="#63b8ff" stroke="#63b8ff" points="102.08,-31.62 100.77,-21.1 95.24,-30.14 102.08,-31.62"/>
</a>
</g>
</g>
<!-- Node21&#45;&gt;Node16 -->
<g id="edge37_Node000021_Node000016" class="edge">
<title>Node21&#45;&gt;Node16</title>
<g id="a_edge37_Node000021_Node000016"><a xlink:title=" ">
<path fill="none" stroke="#63b8ff" d="M629.5,-165.29C581.76,-152.88 505.07,-126.03 460.88,-74.5 450.38,-62.26 445.68,-44.42 443.58,-30.7"/>
<polygon fill="#63b8ff" stroke="#63b8ff" points="447.09,-30.58 442.46,-21.05 440.13,-31.38 447.09,-30.58"/>
</a>
</g>
</g>
<!-- Node22 -->
<g id="Node000022" class="node">
<title>Node22</title>
<g id="a_Node000022"><a xlink:title=" ">
<polygon fill="#e0e0e0" stroke="#999999" points="762.5,-129.75 723.25,-129.75 723.25,-110.5 762.5,-110.5 762.5,-129.75"/>
<text text-anchor="middle" x="742.88" y="-116.25" font-family="Helvetica,sans-Serif" font-size="10.00">utility</text>
</a>
</g>
</g>
<!-- Node21&#45;&gt;Node22 -->
<g id="edge35_Node000021_Node000022" class="edge">
<title>Node21&#45;&gt;Node22</title>
<g id="a_edge35_Node000021_Node000022"><a xlink:title=" ">
<path fill="none" stroke="#63b8ff" d="M683.92,-165.34C694.28,-157.57 709.48,-146.17 721.84,-136.9"/>
<polygon fill="#63b8ff" stroke="#63b8ff" points="723.9,-139.73 729.8,-130.93 719.7,-134.13 723.9,-139.73"/>
</a>
</g>
</g>
</g>
</svg>
