<?xml version="1.0" encoding="UTF-8" standalone="no"?>
<!DOCTYPE svg PUBLIC "-//W3C//DTD SVG 1.1//EN"
 "http://www.w3.org/Graphics/SVG/1.1/DTD/svg11.dtd">
<!-- Generated by graphviz version 12.2.0 (20241103.1931)
 -->
<!-- Title: /Users/fola/Documents/ArkScript/Ark/include/Ark/VM/ExecutionContext.hpp Pages: 1 -->
<svg width="1295pt" height="271pt"
 viewBox="0.00 0.00 1294.95 270.75" xmlns="http://www.w3.org/2000/svg" xmlns:xlink="http://www.w3.org/1999/xlink">
<g id="graph0" class="graph" transform="scale(1 1) rotate(0) translate(4 266.75)">
<title>/Users/fola/Documents/ArkScript/Ark/include/Ark/VM/ExecutionContext.hpp</title>
<!-- Node1 -->
<g id="Node000001" class="node">
<title>Node1</title>
<g id="a_Node000001"><a xlink:title="Keeping track of the internal data needed by the VM.">
<polygon fill="#999999" stroke="#666666" points="784.2,-262.75 632.45,-262.75 632.45,-221 784.2,-221 784.2,-262.75"/>
<text text-anchor="start" x="640.45" y="-249.25" font-family="Helvetica,sans-Serif" font-size="10.00">/Users/fola/Documents</text>
<text text-anchor="start" x="640.45" y="-238" font-family="Helvetica,sans-Serif" font-size="10.00">/ArkScript/Ark/include</text>
<text text-anchor="middle" x="708.32" y="-226.75" font-family="Helvetica,sans-Serif" font-size="10.00">/Ark/VM/ExecutionContext.hpp</text>
</a>
</g>
</g>
<!-- Node2 -->
<g id="Node000002" class="node">
<title>Node2</title>
<g id="a_Node000002"><a xlink:title=" ">
<polygon fill="#e0e0e0" stroke="#999999" points="51.2,-74.5 13.45,-74.5 13.45,-55.25 51.2,-55.25 51.2,-74.5"/>
<text text-anchor="middle" x="32.32" y="-61" font-family="Helvetica,sans-Serif" font-size="10.00">array</text>
</a>
</g>
</g>
<!-- Node1&#45;&gt;Node2 -->
<g id="edge1_Node000001_Node000002" class="edge">
<title>Node1&#45;&gt;Node2</title>
<g id="a_edge1_Node000001_Node000002"><a xlink:title=" ">
<path fill="none" stroke="#63b8ff" d="M632.03,-228.81C572.17,-218.77 486.95,-203.21 413.32,-185 332.09,-164.9 313.2,-154.7 233.32,-129.75 172.54,-110.76 101.57,-88.09 62.31,-75.51"/>
<polygon fill="#63b8ff" stroke="#63b8ff" points="63.46,-72.2 52.87,-72.48 61.32,-78.86 63.46,-72.2"/>
</a>
</g>
</g>
<!-- Node3 -->
<g id="Node000003" class="node">
<title>Node3</title>
<g id="a_Node000003"><a xlink:title=" ">
<polygon fill="#e0e0e0" stroke="#999999" points="104.95,-19.25 53.7,-19.25 53.7,0 104.95,0 104.95,-19.25"/>
<text text-anchor="middle" x="79.32" y="-5.75" font-family="Helvetica,sans-Serif" font-size="10.00">memory</text>
</a>
</g>
</g>
<!-- Node1&#45;&gt;Node3 -->
<g id="edge2_Node000001_Node000003" class="edge">
<title>Node1&#45;&gt;Node3</title>
<g id="a_edge2_Node000001_Node000003"><a xlink:title=" ">
<path fill="none" stroke="#63b8ff" d="M632.23,-235.07C465.66,-220.56 77.73,-176.3 4.32,-74.5 -10.54,-53.89 17.1,-35.7 42.91,-24.05"/>
<polygon fill="#63b8ff" stroke="#63b8ff" points="44.13,-27.33 51.97,-20.21 41.4,-20.89 44.13,-27.33"/>
</a>
</g>
</g>
<!-- Node4 -->
<g id="Node000004" class="node">
<title>Node4</title>
<g id="a_Node000004"><a xlink:title=" ">
<polygon fill="#e0e0e0" stroke="#999999" points="1187.2,-185 1137.45,-185 1137.45,-165.75 1187.2,-165.75 1187.2,-185"/>
<text text-anchor="middle" x="1162.32" y="-171.5" font-family="Helvetica,sans-Serif" font-size="10.00">optional</text>
</a>
</g>
</g>
<!-- Node1&#45;&gt;Node4 -->
<g id="edge3_Node000001_Node000004" class="edge">
<title>Node1&#45;&gt;Node4</title>
<g id="a_edge3_Node000001_Node000004"><a xlink:title=" ">
<path fill="none" stroke="#63b8ff" d="M784.62,-233.42C866.64,-224.8 1000.98,-208.93 1125.86,-185.27"/>
<polygon fill="#63b8ff" stroke="#63b8ff" points="1126.5,-188.71 1135.66,-183.39 1125.18,-181.84 1126.5,-188.71"/>
</a>
</g>
</g>
<!-- Node5 -->
<g id="Node000005" class="node">
<title>Node5</title>
<g id="a_Node000005"><a xlink:title=" ">
<polygon fill="#e0e0e0" stroke="#999999" points="1250.95,-185 1205.7,-185 1205.7,-165.75 1250.95,-165.75 1250.95,-185"/>
<text text-anchor="middle" x="1228.32" y="-171.5" font-family="Helvetica,sans-Serif" font-size="10.00">atomic</text>
</a>
</g>
</g>
<!-- Node1&#45;&gt;Node5 -->
<g id="edge4_Node000001_Node000005" class="edge">
<title>Node1&#45;&gt;Node5</title>
<g id="a_edge4_Node000001_Node000005"><a xlink:title=" ">
<path fill="none" stroke="#63b8ff" d="M784.51,-235.69C878.63,-228.5 1043.73,-213.31 1194.09,-185.15"/>
<polygon fill="#63b8ff" stroke="#63b8ff" points="1194.69,-188.6 1203.86,-183.29 1193.38,-181.72 1194.69,-188.6"/>
</a>
</g>
</g>
<!-- Node6 -->
<g id="Node000006" class="node">
<title>Node6</title>
<g id="a_Node000006"><a xlink:href="../../d6/de9/Constants_8hpp.html" target="_top" xlink:title="Constants used by ArkScript.">
<polygon fill="white" stroke="#666666" points="1119.2,-185 1021.45,-185 1021.45,-165.75 1119.2,-165.75 1119.2,-185"/>
<text text-anchor="middle" x="1070.32" y="-171.5" font-family="Helvetica,sans-Serif" font-size="10.00">Ark/Constants.hpp</text>
</a>
</g>
</g>
<!-- Node1&#45;&gt;Node6 -->
<g id="edge5_Node000001_Node000006" class="edge">
<title>Node1&#45;&gt;Node6</title>
<g id="a_edge5_Node000001_Node000006"><a xlink:title=" ">
<path fill="none" stroke="#63b8ff" d="M784.65,-227.28C851.73,-215.32 948.03,-198.16 1009.88,-187.14"/>
<polygon fill="#63b8ff" stroke="#63b8ff" points="1010.3,-190.63 1019.53,-185.43 1009.07,-183.73 1010.3,-190.63"/>
</a>
</g>
</g>
<!-- Node11 -->
<g id="Node000011" class="node">
<title>Node11</title>
<g id="a_Node000011"><a xlink:href="../../de/dfd/Value_8hpp.html" target="_top" xlink:title="Default value type handled by the virtual machine.">
<polygon fill="white" stroke="#666666" points="458.7,-129.75 363.95,-129.75 363.95,-110.5 458.7,-110.5 458.7,-129.75"/>
<text text-anchor="middle" x="411.32" y="-116.25" font-family="Helvetica,sans-Serif" font-size="10.00">Ark/VM/Value.hpp</text>
</a>
</g>
</g>
<!-- Node1&#45;&gt;Node11 -->
<g id="edge10_Node000001_Node000011" class="edge">
<title>Node1&#45;&gt;Node11</title>
<g id="a_edge10_Node000001_Node000011"><a xlink:title=" ">
<path fill="none" stroke="#63b8ff" d="M631.95,-234.33C560.09,-226.65 459.31,-211.47 430.32,-185 418.16,-173.9 413.65,-155.4 412.04,-141.16"/>
<polygon fill="#63b8ff" stroke="#63b8ff" points="415.56,-141.27 411.36,-131.54 408.58,-141.77 415.56,-141.27"/>
</a>
</g>
</g>
<!-- Node22 -->
<g id="Node000022" class="node">
<title>Node22</title>
<g id="a_Node000022"><a xlink:href="../../d8/d45/ScopeView_8hpp.html" target="_top" xlink:title=" ">
<polygon fill="white" stroke="#666666" points="557.7,-185 438.95,-185 438.95,-165.75 557.7,-165.75 557.7,-185"/>
<text text-anchor="middle" x="498.32" y="-171.5" font-family="Helvetica,sans-Serif" font-size="10.00">Ark/VM/ScopeView.hpp</text>
</a>
</g>
</g>
<!-- Node1&#45;&gt;Node22 -->
<g id="edge31_Node000001_Node000022" class="edge">
<title>Node1&#45;&gt;Node22</title>
<g id="a_edge31_Node000001_Node000022"><a xlink:title=" ">
<path fill="none" stroke="#63b8ff" d="M642.16,-220.56C608.16,-210.11 567.82,-197.72 538.53,-188.72"/>
<polygon fill="#63b8ff" stroke="#63b8ff" points="539.91,-185.49 529.33,-185.9 537.86,-192.18 539.91,-185.49"/>
</a>
</g>
</g>
<!-- Node23 -->
<g id="Node000023" class="node">
<title>Node23</title>
<g id="a_Node000023"><a xlink:href="../../d1/d71/ClosureScope_8hpp.html" target="_top" xlink:title="Subtype of the value type, handling closures.">
<polygon fill="white" stroke="#666666" points="892.95,-185 733.7,-185 733.7,-165.75 892.95,-165.75 892.95,-185"/>
<text text-anchor="middle" x="813.32" y="-171.5" font-family="Helvetica,sans-Serif" font-size="10.00">Ark/VM/Value/ClosureScope.hpp</text>
</a>
</g>
</g>
<!-- Node1&#45;&gt;Node23 -->
<g id="edge36_Node000001_Node000023" class="edge">
<title>Node1&#45;&gt;Node23</title>
<g id="a_edge36_Node000001_Node000023"><a xlink:title=" ">
<path fill="none" stroke="#63b8ff" d="M741.26,-220.64C756.74,-211.13 774.88,-199.99 789.08,-191.26"/>
<polygon fill="#63b8ff" stroke="#63b8ff" points="790.66,-194.4 797.35,-186.19 787,-188.44 790.66,-194.4"/>
</a>
</g>
</g>
<!-- Node7 -->
<g id="Node000007" class="node">
<title>Node7</title>
<g id="a_Node000007"><a xlink:title=" ">
<polygon fill="#e0e0e0" stroke="#999999" points="1230.07,-129.75 1164.57,-129.75 1164.57,-110.5 1230.07,-110.5 1230.07,-129.75"/>
<text text-anchor="middle" x="1197.32" y="-116.25" font-family="Helvetica,sans-Serif" font-size="10.00">string_view</text>
</a>
</g>
</g>
<!-- Node6&#45;&gt;Node7 -->
<g id="edge6_Node000006_Node000007" class="edge">
<title>Node6&#45;&gt;Node7</title>
<g id="a_edge6_Node000006_Node000007"><a xlink:title=" ">
<path fill="none" stroke="#63b8ff" d="M1091.87,-165.34C1111.93,-156.93 1142.13,-144.27 1165.07,-134.65"/>
<polygon fill="#63b8ff" stroke="#63b8ff" points="1166.41,-137.88 1174.28,-130.79 1163.7,-131.43 1166.41,-137.88"/>
</a>
</g>
</g>
<!-- Node8 -->
<g id="Node000008" class="node">
<title>Node8</title>
<g id="a_Node000008"><a xlink:title=" ">
<polygon fill="#e0e0e0" stroke="#999999" points="1286.95,-129.75 1247.7,-129.75 1247.7,-110.5 1286.95,-110.5 1286.95,-129.75"/>
<text text-anchor="middle" x="1267.32" y="-116.25" font-family="Helvetica,sans-Serif" font-size="10.00">limits</text>
</a>
</g>
</g>
<!-- Node6&#45;&gt;Node8 -->
<g id="edge7_Node000006_Node000008" class="edge">
<title>Node6&#45;&gt;Node8</title>
<g id="a_edge7_Node000006_Node000008"><a xlink:title=" ">
<path fill="none" stroke="#63b8ff" d="M1106.37,-165.31C1138.32,-157.17 1186.5,-144.66 1236.45,-130.5"/>
<polygon fill="#63b8ff" stroke="#63b8ff" points="1237.36,-133.88 1246.01,-127.77 1235.43,-127.14 1237.36,-133.88"/>
</a>
</g>
</g>
<!-- Node9 -->
<g id="Node000009" class="node">
<title>Node9</title>
<g id="a_Node000009"><a xlink:title=" ">
<polygon fill="#e0e0e0" stroke="#999999" points="1022.2,-19.25 966.45,-19.25 966.45,0 1022.2,0 1022.2,-19.25"/>
<text text-anchor="middle" x="994.32" y="-5.75" font-family="Helvetica,sans-Serif" font-size="10.00">cinttypes</text>
</a>
</g>
</g>
<!-- Node6&#45;&gt;Node9 -->
<g id="edge8_Node000006_Node000009" class="edge">
<title>Node6&#45;&gt;Node9</title>
<g id="a_edge8_Node000006_Node000009"><a xlink:title=" ">
<path fill="none" stroke="#63b8ff" d="M1070.44,-165.31C1070.33,-144.41 1067.77,-91.83 1046.32,-55.25 1039.57,-43.74 1028.76,-33.75 1018.73,-26.16"/>
<polygon fill="#63b8ff" stroke="#63b8ff" points="1020.94,-23.43 1010.76,-20.51 1016.9,-29.15 1020.94,-23.43"/>
</a>
</g>
</g>
<!-- Node10 -->
<g id="Node000010" class="node">
<title>Node10</title>
<g id="a_Node000010"><a xlink:title=" ">
<polygon fill="#e0e0e0" stroke="#999999" points="1146.45,-129.75 1098.2,-129.75 1098.2,-110.5 1146.45,-110.5 1146.45,-129.75"/>
<text text-anchor="middle" x="1122.32" y="-116.25" font-family="Helvetica,sans-Serif" font-size="10.00">cstddef</text>
</a>
</g>
</g>
<!-- Node6&#45;&gt;Node10 -->
<g id="edge9_Node000006_Node000010" class="edge">
<title>Node6&#45;&gt;Node10</title>
<g id="a_edge9_Node000006_Node000010"><a xlink:title=" ">
<path fill="none" stroke="#63b8ff" d="M1078.91,-165.58C1086.17,-158.15 1096.77,-147.29 1105.69,-138.16"/>
<polygon fill="#63b8ff" stroke="#63b8ff" points="1108.01,-140.79 1112.49,-131.19 1103,-135.9 1108.01,-140.79"/>
</a>
</g>
</g>
<!-- Node11&#45;&gt;Node2 -->
<g id="edge15_Node000011_Node000002" class="edge">
<title>Node11&#45;&gt;Node2</title>
<g id="a_edge15_Node000011_Node000002"><a xlink:title=" ">
<path fill="none" stroke="#63b8ff" d="M363.72,-114.92C296.73,-108.57 171,-95.04 65.32,-74.5 64.33,-74.31 63.32,-74.1 62.31,-73.89"/>
<polygon fill="#63b8ff" stroke="#63b8ff" points="63.43,-70.56 52.89,-71.66 61.82,-77.37 63.43,-70.56"/>
</a>
</g>
</g>
<!-- Node11&#45;&gt;Node3 -->
<g id="edge16_Node000011_Node000003" class="edge">
<title>Node11&#45;&gt;Node3</title>
<g id="a_edge16_Node000011_Node000003"><a xlink:title=" ">
<path fill="none" stroke="#63b8ff" d="M363.61,-115.96C293.37,-110.58 166.25,-97.89 127.32,-74.5 109.7,-63.91 96.39,-44.17 88.31,-29.43"/>
<polygon fill="#63b8ff" stroke="#63b8ff" points="91.52,-28.02 83.85,-20.71 85.29,-31.2 91.52,-28.02"/>
</a>
</g>
</g>
<!-- Node11&#45;&gt;Node9 -->
<g id="edge14_Node000011_Node000009" class="edge">
<title>Node11&#45;&gt;Node9</title>
<g id="a_edge14_Node000011_Node000009"><a xlink:title=" ">
<path fill="none" stroke="#63b8ff" d="M458.89,-117.13C562.07,-112.39 803.42,-98.99 881.32,-74.5 915.84,-63.65 951.51,-41.28 973.31,-26.11"/>
<polygon fill="#63b8ff" stroke="#63b8ff" points="975.22,-29.05 981.33,-20.4 971.16,-23.35 975.22,-29.05"/>
</a>
</g>
</g>
<!-- Node12 -->
<g id="Node000012" class="node">
<title>Node12</title>
<g id="a_Node000012"><a xlink:title=" ">
<polygon fill="#e0e0e0" stroke="#999999" points="901.82,-19.25 858.82,-19.25 858.82,0 901.82,0 901.82,-19.25"/>
<text text-anchor="middle" x="880.32" y="-5.75" font-family="Helvetica,sans-Serif" font-size="10.00">vector</text>
</a>
</g>
</g>
<!-- Node11&#45;&gt;Node12 -->
<g id="edge11_Node000011_Node000012" class="edge">
<title>Node11&#45;&gt;Node12</title>
<g id="a_edge11_Node000011_Node000012"><a xlink:title=" ">
<path fill="none" stroke="#63b8ff" d="M458.86,-117.38C568.25,-112.93 830.75,-99.74 861.32,-74.5 874.02,-64.02 878.47,-45.45 879.92,-31.03"/>
<polygon fill="#63b8ff" stroke="#63b8ff" points="883.4,-31.42 880.47,-21.24 876.41,-31.02 883.4,-31.42"/>
</a>
</g>
</g>
<!-- Node13 -->
<g id="Node000013" class="node">
<title>Node13</title>
<g id="a_Node000013"><a xlink:title=" ">
<polygon fill="#e0e0e0" stroke="#999999" points="190.95,-74.5 145.7,-74.5 145.7,-55.25 190.95,-55.25 190.95,-74.5"/>
<text text-anchor="middle" x="168.32" y="-61" font-family="Helvetica,sans-Serif" font-size="10.00">variant</text>
</a>
</g>
</g>
<!-- Node11&#45;&gt;Node13 -->
<g id="edge12_Node000011_Node000013" class="edge">
<title>Node11&#45;&gt;Node13</title>
<g id="a_edge12_Node000011_Node000013"><a xlink:title=" ">
<path fill="none" stroke="#63b8ff" d="M363.97,-110.06C323.32,-102.07 262.92,-89.73 202.23,-75.1"/>
<polygon fill="#63b8ff" stroke="#63b8ff" points="203.32,-71.77 192.77,-72.8 201.66,-78.57 203.32,-71.77"/>
</a>
</g>
</g>
<!-- Node14 -->
<g id="Node000014" class="node">
<title>Node14</title>
<g id="a_Node000014"><a xlink:title=" ">
<polygon fill="#e0e0e0" stroke="#999999" points="229.32,-19.25 189.32,-19.25 189.32,0 229.32,0 229.32,-19.25"/>
<text text-anchor="middle" x="209.32" y="-5.75" font-family="Helvetica,sans-Serif" font-size="10.00">string</text>
</a>
</g>
</g>
<!-- Node11&#45;&gt;Node14 -->
<g id="edge13_Node000011_Node000014" class="edge">
<title>Node11&#45;&gt;Node14</title>
<g id="a_edge13_Node000011_Node000014"><a xlink:title=" ">
<path fill="none" stroke="#63b8ff" d="M363.55,-114.72C288.72,-107.34 150.86,-91.58 136.32,-74.5 118.88,-54.01 151.66,-34.21 178.75,-22.23"/>
<polygon fill="#63b8ff" stroke="#63b8ff" points="179.84,-25.56 187.71,-18.47 177.14,-19.11 179.84,-25.56"/>
</a>
</g>
</g>
<!-- Node15 -->
<g id="Node000015" class="node">
<title>Node15</title>
<g id="a_Node000015"><a xlink:title=" ">
<polygon fill="#e0e0e0" stroke="#999999" points="458.2,-74.5 396.45,-74.5 396.45,-55.25 458.2,-55.25 458.2,-74.5"/>
<text text-anchor="middle" x="427.32" y="-61" font-family="Helvetica,sans-Serif" font-size="10.00">type_traits</text>
</a>
</g>
</g>
<!-- Node11&#45;&gt;Node15 -->
<g id="edge17_Node000011_Node000015" class="edge">
<title>Node11&#45;&gt;Node15</title>
<g id="a_edge17_Node000011_Node000015"><a xlink:title=" ">
<path fill="none" stroke="#63b8ff" d="M413.96,-110.33C415.97,-103.67 418.8,-94.24 421.34,-85.78"/>
<polygon fill="#63b8ff" stroke="#63b8ff" points="424.66,-86.89 424.19,-76.31 417.96,-84.88 424.66,-86.89"/>
</a>
</g>
</g>
<!-- Node16 -->
<g id="Node000016" class="node">
<title>Node16</title>
<g id="a_Node000016"><a xlink:href="../../dc/dd5/Closure_8hpp.html" target="_top" xlink:title="Subtype of the value type, handling closures.">
<polygon fill="white" stroke="#666666" points="340.07,-74.5 208.57,-74.5 208.57,-55.25 340.07,-55.25 340.07,-74.5"/>
<text text-anchor="middle" x="274.32" y="-61" font-family="Helvetica,sans-Serif" font-size="10.00">Ark/VM/Value/Closure.hpp</text>
</a>
</g>
</g>
<!-- Node11&#45;&gt;Node16 -->
<g id="edge18_Node000011_Node000016" class="edge">
<title>Node11&#45;&gt;Node16</title>
<g id="a_edge18_Node000011_Node000016"><a xlink:title=" ">
<path fill="none" stroke="#63b8ff" d="M388.08,-110.09C366.14,-101.56 332.97,-88.67 308.11,-79.01"/>
<polygon fill="#63b8ff" stroke="#63b8ff" points="309.68,-75.86 299.09,-75.5 307.14,-82.39 309.68,-75.86"/>
</a>
</g>
</g>
<!-- Node17 -->
<g id="Node000017" class="node">
<title>Node17</title>
<g id="a_Node000017"><a xlink:href="../../d5/d40/Platform_8hpp.html" target="_top" xlink:title="ArkScript configuration macros.">
<polygon fill="white" stroke="#666666" points="542.7,-19.25 429.95,-19.25 429.95,0 542.7,0 542.7,-19.25"/>
<text text-anchor="middle" x="486.32" y="-5.75" font-family="Helvetica,sans-Serif" font-size="10.00">Ark/Utils/Platform.hpp</text>
</a>
</g>
</g>
<!-- Node11&#45;&gt;Node17 -->
<g id="edge30_Node000011_Node000017" class="edge">
<title>Node11&#45;&gt;Node17</title>
<g id="a_edge30_Node000011_Node000017"><a xlink:title=" ">
<path fill="none" stroke="#63b8ff" d="M403.17,-110.31C392.32,-97.46 375.75,-73.16 387.32,-55.25 397.02,-40.25 413.09,-30.24 429.5,-23.58"/>
<polygon fill="#63b8ff" stroke="#63b8ff" points="430.64,-26.89 438.85,-20.19 428.26,-20.31 430.64,-26.89"/>
</a>
</g>
</g>
<!-- Node18 -->
<g id="Node000018" class="node">
<title>Node18</title>
<g id="a_Node000018"><a xlink:href="../../dc/d3d/UserType_8hpp.html" target="_top" xlink:title="Subtype of the value, capable of handling any C++ type.">
<polygon fill="white" stroke="#666666" points="692.2,-74.5 552.45,-74.5 552.45,-55.25 692.2,-55.25 692.2,-74.5"/>
<text text-anchor="middle" x="622.32" y="-61" font-family="Helvetica,sans-Serif" font-size="10.00">Ark/VM/Value/UserType.hpp</text>
</a>
</g>
</g>
<!-- Node11&#45;&gt;Node18 -->
<g id="edge22_Node000011_Node000018" class="edge">
<title>Node11&#45;&gt;Node18</title>
<g id="a_edge22_Node000011_Node000018"><a xlink:title=" ">
<path fill="none" stroke="#63b8ff" d="M447.11,-110.09C482.43,-101.18 536.6,-87.51 575.36,-77.73"/>
<polygon fill="#63b8ff" stroke="#63b8ff" points="576.05,-81.16 584.89,-75.32 574.33,-74.38 576.05,-81.16"/>
</a>
</g>
</g>
<!-- Node21 -->
<g id="Node000021" class="node">
<title>Node21</title>
<g id="a_Node000021"><a xlink:href="../../da/dcf/Procedure_8hpp.html" target="_top" xlink:title="Wrapper object for user&#45;defined functions.">
<polygon fill="white" stroke="#666666" points="852.32,-74.5 710.32,-74.5 710.32,-55.25 852.32,-55.25 852.32,-74.5"/>
<text text-anchor="middle" x="781.32" y="-61" font-family="Helvetica,sans-Serif" font-size="10.00">Ark/VM/Value/Procedure.hpp</text>
</a>
</g>
</g>
<!-- Node11&#45;&gt;Node21 -->
<g id="edge27_Node000011_Node000021" class="edge">
<title>Node11&#45;&gt;Node21</title>
<g id="a_edge27_Node000011_Node000021"><a xlink:title=" ">
<path fill="none" stroke="#63b8ff" d="M458.94,-112.27C521.78,-103.23 633.07,-87.21 707.03,-76.57"/>
<polygon fill="#63b8ff" stroke="#63b8ff" points="707.21,-80.08 716.61,-75.19 706.22,-73.15 707.21,-80.08"/>
</a>
</g>
</g>
<!-- Node16&#45;&gt;Node3 -->
<g id="edge19_Node000016_Node000003" class="edge">
<title>Node16&#45;&gt;Node3</title>
<g id="a_edge19_Node000016_Node000003"><a xlink:title=" ">
<path fill="none" stroke="#63b8ff" d="M241.24,-54.84C206.63,-45.39 152.42,-30.59 116.38,-20.75"/>
<polygon fill="#63b8ff" stroke="#63b8ff" points="117.4,-17.4 106.83,-18.14 115.56,-24.15 117.4,-17.4"/>
</a>
</g>
</g>
<!-- Node16&#45;&gt;Node14 -->
<g id="edge20_Node000016_Node000014" class="edge">
<title>Node16&#45;&gt;Node14</title>
<g id="a_edge20_Node000016_Node000014"><a xlink:title=" ">
<path fill="none" stroke="#63b8ff" d="M263.3,-54.84C253.9,-47.15 240.17,-35.9 228.91,-26.68"/>
<polygon fill="#63b8ff" stroke="#63b8ff" points="231.31,-24.11 221.36,-20.48 226.87,-29.53 231.31,-24.11"/>
</a>
</g>
</g>
<!-- Node16&#45;&gt;Node17 -->
<g id="edge21_Node000016_Node000017" class="edge">
<title>Node16&#45;&gt;Node17</title>
<g id="a_edge21_Node000016_Node000017"><a xlink:title=" ">
<path fill="none" stroke="#63b8ff" d="M310.28,-54.84C345.77,-45.93 400.2,-32.26 439.14,-22.48"/>
<polygon fill="#63b8ff" stroke="#63b8ff" points="439.87,-25.9 448.71,-20.07 438.16,-19.11 439.87,-25.9"/>
</a>
</g>
</g>
<!-- Node18&#45;&gt;Node9 -->
<g id="edge24_Node000018_Node000009" class="edge">
<title>Node18&#45;&gt;Node9</title>
<g id="a_edge24_Node000018_Node000009"><a xlink:title=" ">
<path fill="none" stroke="#63b8ff" d="M685.85,-54.78C763.01,-43.74 890.81,-25.44 954.98,-16.26"/>
<polygon fill="#63b8ff" stroke="#63b8ff" points="955.3,-19.75 964.7,-14.86 954.31,-12.82 955.3,-19.75"/>
</a>
</g>
</g>
<!-- Node18&#45;&gt;Node17 -->
<g id="edge26_Node000018_Node000017" class="edge">
<title>Node18&#45;&gt;Node17</title>
<g id="a_edge26_Node000018_Node000017"><a xlink:title=" ">
<path fill="none" stroke="#63b8ff" d="M599.25,-54.84C577.56,-46.35 544.84,-33.54 520.19,-23.89"/>
<polygon fill="#63b8ff" stroke="#63b8ff" points="521.5,-20.64 510.91,-20.25 518.95,-27.16 521.5,-20.64"/>
</a>
</g>
</g>
<!-- Node19 -->
<g id="Node000019" class="node">
<title>Node19</title>
<g id="a_Node000019"><a xlink:title=" ">
<polygon fill="#e0e0e0" stroke="#999999" points="649.07,-19.25 595.57,-19.25 595.57,0 649.07,0 649.07,-19.25"/>
<text text-anchor="middle" x="622.32" y="-5.75" font-family="Helvetica,sans-Serif" font-size="10.00">iostream</text>
</a>
</g>
</g>
<!-- Node18&#45;&gt;Node19 -->
<g id="edge23_Node000018_Node000019" class="edge">
<title>Node18&#45;&gt;Node19</title>
<g id="a_edge23_Node000018_Node000019"><a xlink:title=" ">
<path fill="none" stroke="#63b8ff" d="M622.32,-55.08C622.32,-48.57 622.32,-39.42 622.32,-31.12"/>
<polygon fill="#63b8ff" stroke="#63b8ff" points="625.82,-31.12 622.32,-21.12 618.82,-31.12 625.82,-31.12"/>
</a>
</g>
</g>
<!-- Node20 -->
<g id="Node000020" class="node">
<title>Node20</title>
<g id="a_Node000020"><a xlink:title=" ">
<polygon fill="#e0e0e0" stroke="#999999" points="768.32,-19.25 710.32,-19.25 710.32,0 768.32,0 768.32,-19.25"/>
<text text-anchor="middle" x="739.32" y="-5.75" font-family="Helvetica,sans-Serif" font-size="10.00">functional</text>
</a>
</g>
</g>
<!-- Node18&#45;&gt;Node20 -->
<g id="edge25_Node000018_Node000020" class="edge">
<title>Node18&#45;&gt;Node20</title>
<g id="a_edge25_Node000018_Node000020"><a xlink:title=" ">
<path fill="none" stroke="#63b8ff" d="M642.17,-54.84C660.49,-46.5 687.97,-34 709.03,-24.41"/>
<polygon fill="#63b8ff" stroke="#63b8ff" points="710.35,-27.66 718,-20.33 707.45,-21.29 710.35,-27.66"/>
</a>
</g>
</g>
<!-- Node21&#45;&gt;Node12 -->
<g id="edge29_Node000021_Node000012" class="edge">
<title>Node21&#45;&gt;Node12</title>
<g id="a_edge29_Node000021_Node000012"><a xlink:title=" ">
<path fill="none" stroke="#63b8ff" d="M798.12,-54.84C813.33,-46.66 836.02,-34.46 853.7,-24.94"/>
<polygon fill="#63b8ff" stroke="#63b8ff" points="854.96,-28.24 862.11,-20.42 851.65,-22.07 854.96,-28.24"/>
</a>
</g>
</g>
<!-- Node21&#45;&gt;Node20 -->
<g id="edge28_Node000021_Node000020" class="edge">
<title>Node21&#45;&gt;Node20</title>
<g id="a_edge28_Node000021_Node000020"><a xlink:title=" ">
<path fill="none" stroke="#63b8ff" d="M774.39,-55.08C768.71,-47.88 760.48,-37.46 753.43,-28.51"/>
<polygon fill="#63b8ff" stroke="#63b8ff" points="756.29,-26.48 747.34,-20.8 750.79,-30.82 756.29,-26.48"/>
</a>
</g>
</g>
<!-- Node22&#45;&gt;Node2 -->
<g id="edge32_Node000022_Node000002" class="edge">
<title>Node22&#45;&gt;Node2</title>
<g id="a_edge32_Node000022_Node000002"><a xlink:title=" ">
<path fill="none" stroke="#63b8ff" d="M459.39,-165.31C368.58,-144.17 144.27,-91.94 62.64,-72.93"/>
<polygon fill="#63b8ff" stroke="#63b8ff" points="63.46,-69.53 52.93,-70.67 61.87,-76.35 63.46,-69.53"/>
</a>
</g>
</g>
<!-- Node22&#45;&gt;Node9 -->
<g id="edge33_Node000022_Node000009" class="edge">
<title>Node22&#45;&gt;Node9</title>
<g id="a_edge33_Node000022_Node000009"><a xlink:title=" ">
<path fill="none" stroke="#63b8ff" d="M557.95,-168.64C641.73,-158.74 797.34,-133.5 916.32,-74.5 940.22,-62.65 963.3,-42.28 978.07,-27.73"/>
<polygon fill="#63b8ff" stroke="#63b8ff" points="980.54,-30.2 985.07,-20.62 975.56,-25.29 980.54,-30.2"/>
</a>
</g>
</g>
<!-- Node22&#45;&gt;Node11 -->
<g id="edge35_Node000022_Node000011" class="edge">
<title>Node22&#45;&gt;Node11</title>
<g id="a_edge35_Node000022_Node000011"><a xlink:title=" ">
<path fill="none" stroke="#63b8ff" d="M483.56,-165.34C470.44,-157.31 451,-145.41 435.59,-135.98"/>
<polygon fill="#63b8ff" stroke="#63b8ff" points="437.8,-133.23 427.44,-130.99 434.15,-139.2 437.8,-133.23"/>
</a>
</g>
</g>
<!-- Node22&#45;&gt;Node17 -->
<g id="edge34_Node000022_Node000017" class="edge">
<title>Node22&#45;&gt;Node17</title>
<g id="a_edge34_Node000022_Node000017"><a xlink:title=" ">
<path fill="none" stroke="#63b8ff" d="M497.68,-165.57C495.82,-140.25 490.43,-66.75 487.8,-30.84"/>
<polygon fill="#63b8ff" stroke="#63b8ff" points="491.3,-30.7 487.08,-20.98 484.32,-31.21 491.3,-30.7"/>
</a>
</g>
</g>
<!-- Node23&#45;&gt;Node9 -->
<g id="edge39_Node000023_Node000009" class="edge">
<title>Node23&#45;&gt;Node9</title>
<g id="a_edge39_Node000023_Node000009"><a xlink:title=" ">
<path fill="none" stroke="#63b8ff" d="M880.73,-165.31C925.61,-157.93 979.18,-146.04 995.32,-129.75 1021.07,-103.76 1010.76,-56.8 1001.92,-30.27"/>
<polygon fill="#63b8ff" stroke="#63b8ff" points="1005.3,-29.31 998.62,-21.09 998.71,-31.68 1005.3,-29.31"/>
</a>
</g>
</g>
<!-- Node23&#45;&gt;Node11 -->
<g id="edge41_Node000023_Node000011" class="edge">
<title>Node23&#45;&gt;Node11</title>
<g id="a_edge41_Node000023_Node000011"><a xlink:title=" ">
<path fill="none" stroke="#63b8ff" d="M744.67,-165.28C667.51,-155.06 543.5,-138.63 470.46,-128.96"/>
<polygon fill="#63b8ff" stroke="#63b8ff" points="471.07,-125.51 460.7,-127.67 470.15,-132.45 471.07,-125.51"/>
</a>
</g>
</g>
<!-- Node23&#45;&gt;Node12 -->
<g id="edge37_Node000023_Node000012" class="edge">
<title>Node23&#45;&gt;Node12</title>
<g id="a_edge37_Node000023_Node000012"><a xlink:title=" ">
<path fill="none" stroke="#63b8ff" d="M822.21,-165.48C837.81,-149.16 869.59,-112.59 881.32,-74.5 885.68,-60.35 885.22,-43.59 883.78,-30.79"/>
<polygon fill="#63b8ff" stroke="#63b8ff" points="887.27,-30.44 882.38,-21.04 880.34,-31.44 887.27,-30.44"/>
</a>
</g>
</g>
<!-- Node23&#45;&gt;Node17 -->
<g id="edge40_Node000023_Node000017" class="edge">
<title>Node23&#45;&gt;Node17</title>
<g id="a_edge40_Node000023_Node000017"><a xlink:title=" ">
<path fill="none" stroke="#63b8ff" d="M770.08,-165.27C714.09,-152.02 615.18,-123.48 543.32,-74.5 525.33,-62.24 509.27,-43.1 498.82,-28.97"/>
<polygon fill="#63b8ff" stroke="#63b8ff" points="501.78,-27.09 493.13,-20.97 496.07,-31.14 501.78,-27.09"/>
</a>
</g>
</g>
<!-- Node24 -->
<g id="Node000024" class="node">
<title>Node24</title>
<g id="a_Node000024"><a xlink:title=" ">
<polygon fill="#e0e0e0" stroke="#999999" points="985.95,-129.75 946.7,-129.75 946.7,-110.5 985.95,-110.5 985.95,-129.75"/>
<text text-anchor="middle" x="966.32" y="-116.25" font-family="Helvetica,sans-Serif" font-size="10.00">utility</text>
</a>
</g>
</g>
<!-- Node23&#45;&gt;Node24 -->
<g id="edge38_Node000023_Node000024" class="edge">
<title>Node23&#45;&gt;Node24</title>
<g id="a_edge38_Node000023_Node000024"><a xlink:title=" ">
<path fill="none" stroke="#63b8ff" d="M839.28,-165.34C865.95,-156.06 907.47,-141.61 935.73,-131.77"/>
<polygon fill="#63b8ff" stroke="#63b8ff" points="936.86,-135.09 945.15,-128.49 934.55,-128.48 936.86,-135.09"/>
</a>
</g>
</g>
</g>
</svg>
