<?xml version="1.0" encoding="UTF-8" standalone="no"?>
<!DOCTYPE svg PUBLIC "-//W3C//DTD SVG 1.1//EN"
 "http://www.w3.org/Graphics/SVG/1.1/DTD/svg11.dtd">
<!-- Generated by graphviz version 12.2.0 (20241103.1931)
 -->
<!-- Title: Ark::Code Pages: 1 -->
<svg width="253pt" height="293pt"
 viewBox="0.00 0.00 253.12 293.25" xmlns="http://www.w3.org/2000/svg" xmlns:xlink="http://www.w3.org/1999/xlink">

<svg id="main" version="1.1" xmlns="http://www.w3.org/2000/svg" xmlns:xlink="http://www.w3.org/1999/xlink" xml:space="preserve">

<style type="text/css"><![CDATA[
.node, .edge {opacity: 0.7;}
.node.selected, .edge.selected {opacity: 1;}
.edge:hover path { stroke: red; }
.edge:hover polygon { stroke: red; fill: red; }
]]></style>
<script type="application/ecmascript" xlink:href="../../svg.min.js"/>
<svg id="graph" class="graph">
<g id="graph0" class="graph" transform="scale(1 1) rotate(0) translate(4 289.25)">
<title>Ark::Code</title>
<!-- Node1 -->
<g id="Node000001" class="node">
<title>Node1</title>
<g id="a_Node000001"><a xlink:title=" ">
<polygon fill="#999999" stroke="#666666" points="94.38,-19.25 34.12,-19.25 34.12,0 94.38,0 94.38,-19.25"/>
<text text-anchor="middle" x="64.25" y="-5.75" font-family="Helvetica,sans-Serif" font-size="10.00">Ark::Code</text>
</a>
</g>
</g>
<!-- Node2 -->
<g id="Node000002" class="node">
<title>Node2</title>
<g id="a_Node000002"><a xlink:title=" ">
<polygon fill="white" stroke="#666666" points="128.5,-85.75 0,-85.75 0,-66.5 128.5,-66.5 128.5,-85.75"/>
<text text-anchor="middle" x="64.25" y="-72.25" font-family="Helvetica,sans-Serif" font-size="10.00">std::vector&lt; bytecode_t &gt;</text>
</a>
</g>
</g>
<!-- Node2&#45;&gt;Node1 -->
<g id="edge1_Node000001_Node000002" class="edge">
<title>Node2&#45;&gt;Node1</title>
<g id="a_edge1_Node000001_Node000002"><a xlink:title=" ">
<path fill="none" stroke="#9a32cd" stroke-dasharray="5,2" d="M64.25,-54.65C64.25,-42.82 64.25,-28.54 64.25,-19.52"/>
<polygon fill="#9a32cd" stroke="#9a32cd" points="60.75,-54.64 64.25,-64.64 67.75,-54.64 60.75,-54.64"/>
</a>
</g>
<text text-anchor="middle" x="78.88" y="-39" font-family="Helvetica,sans-Serif" font-size="10.00" fill="grey"> pages</text>
</g>
<!-- Node3 -->
<g id="Node000003" class="node">
<title>Node3</title>
<g id="a_Node000003"><a xlink:title=" ">
<polygon fill="white" stroke="#666666" points="245.12,-152.25 135.38,-152.25 135.38,-133 245.12,-133 245.12,-152.25"/>
<text text-anchor="middle" x="190.25" y="-138.75" font-family="Helvetica,sans-Serif" font-size="10.00">std::vector&lt; uint8_t &gt;</text>
</a>
</g>
</g>
<!-- Node3&#45;&gt;Node2 -->
<g id="edge2_Node000002_Node000003" class="edge">
<title>Node3&#45;&gt;Node2</title>
<g id="a_edge2_Node000002_Node000003"><a xlink:title=" ">
<path fill="none" stroke="#9a32cd" stroke-dasharray="5,2" d="M162.33,-127.33C137.79,-114.77 102.82,-96.87 81.95,-86.18"/>
<polygon fill="#9a32cd" stroke="#9a32cd" points="160.62,-130.39 171.12,-131.83 163.81,-124.16 160.62,-130.39"/>
</a>
</g>
<text text-anchor="middle" x="156.17" y="-105.5" font-family="Helvetica,sans-Serif" font-size="10.00" fill="grey"> elements</text>
</g>
<!-- Node4 -->
<g id="Node000004" class="node">
<title>Node4</title>
<g id="a_Node000004"><a xlink:title=" ">
<polygon fill="white" stroke="#666666" points="107.5,-218.75 21,-218.75 21,-199.5 107.5,-199.5 107.5,-218.75"/>
<text text-anchor="middle" x="64.25" y="-205.25" font-family="Helvetica,sans-Serif" font-size="10.00">std::vector&lt; T &gt;</text>
</a>
</g>
</g>
<!-- Node4&#45;&gt;Node2 -->
<g id="edge5_Node000002_Node000004" class="edge">
<title>Node4&#45;&gt;Node2</title>
<g id="a_edge5_Node000002_Node000004"><a xlink:title=" ">
<path fill="none" stroke="orange" stroke-dasharray="5,2" d="M60.72,-188.3C58.43,-173.17 56.08,-151.79 57.25,-133 58.28,-116.41 61.03,-97.22 62.76,-86.19"/>
<polygon fill="orange" stroke="orange" points="57.21,-188.56 62.3,-197.86 64.12,-187.42 57.21,-188.56"/>
</a>
</g>
<text text-anchor="middle" x="91.75" y="-138.75" font-family="Helvetica,sans-Serif" font-size="10.00" fill="grey"> &lt; bytecode_t &gt;</text>
</g>
<!-- Node4&#45;&gt;Node3 -->
<g id="edge3_Node000003_Node000004" class="edge">
<title>Node4&#45;&gt;Node3</title>
<g id="a_edge3_Node000003_Node000004"><a xlink:title=" ">
<path fill="none" stroke="orange" stroke-dasharray="5,2" d="M92.17,-193.83C116.71,-181.27 151.68,-163.37 172.55,-152.68"/>
<polygon fill="orange" stroke="orange" points="90.69,-190.66 83.38,-198.33 93.88,-196.89 90.69,-190.66"/>
</a>
</g>
<text text-anchor="middle" x="159.92" y="-172" font-family="Helvetica,sans-Serif" font-size="10.00" fill="grey"> &lt; uint8_t &gt;</text>
</g>
<!-- Node5 -->
<g id="Node000005" class="node">
<title>Node5</title>
<g id="a_Node000005"><a xlink:title=" ">
<polygon fill="white" stroke="#666666" points="78.65,-285.25 49.85,-285.25 49.85,-266 78.65,-266 78.65,-285.25"/>
<text text-anchor="middle" x="64.25" y="-271.75" font-family="Helvetica,sans-Serif" font-size="10.00">T</text>
</a>
</g>
</g>
<!-- Node5&#45;&gt;Node4 -->
<g id="edge4_Node000004_Node000005" class="edge">
<title>Node5&#45;&gt;Node4</title>
<g id="a_edge4_Node000004_Node000005"><a xlink:title=" ">
<path fill="none" stroke="#9a32cd" stroke-dasharray="5,2" d="M64.25,-254.15C64.25,-242.32 64.25,-228.04 64.25,-219.02"/>
<polygon fill="#9a32cd" stroke="#9a32cd" points="60.75,-254.14 64.25,-264.14 67.75,-254.14 60.75,-254.14"/>
</a>
</g>
<text text-anchor="middle" x="85.62" y="-238.5" font-family="Helvetica,sans-Serif" font-size="10.00" fill="grey"> elements</text>
</g>
</g>
</svg>
</svg>

<style type='text/css'>
<![CDATA[
[data-mouse-over-selected='false'] { opacity: 0.7; }
[data-mouse-over-selected='true']  { opacity: 1.0; }
]]>
</style>
<script type="application/ecmascript"><![CDATA[
document.addEventListener('DOMContentLoaded', (event) => {
  highlightEdges();
  highlightAdjacentNodes();
});
]]></script>
</svg>
