<?xml version="1.0" encoding="UTF-8" standalone="no"?>
<!DOCTYPE svg PUBLIC "-//W3C//DTD SVG 1.1//EN"
 "http://www.w3.org/Graphics/SVG/1.1/DTD/svg11.dtd">
<!-- Generated by graphviz version 12.2.0 (20241103.1931)
 -->
<!-- Title: Ark::internal::Namespace Pages: 1 -->
<svg width="466pt" height="338pt"
 viewBox="0.00 0.00 466.41 338.25" xmlns="http://www.w3.org/2000/svg" xmlns:xlink="http://www.w3.org/1999/xlink">

<svg id="main" version="1.1" xmlns="http://www.w3.org/2000/svg" xmlns:xlink="http://www.w3.org/1999/xlink" xml:space="preserve">

<style type="text/css"><![CDATA[
.node, .edge {opacity: 0.7;}
.node.selected, .edge.selected {opacity: 1;}
.edge:hover path { stroke: red; }
.edge:hover polygon { stroke: red; fill: red; }
]]></style>
<script type="application/ecmascript" xlink:href="../../svg.min.js"/>
<svg id="graph" class="graph">
<g id="graph0" class="graph" transform="scale(1 1) rotate(0) translate(4 334.25)">
<title>Ark::internal::Namespace</title>
<!-- Node1 -->
<g id="Node000001" class="node">
<title>Node1</title>
<g id="a_Node000001"><a xlink:title=" ">
<polygon fill="#999999" stroke="#666666" points="418.12,-19.25 291.12,-19.25 291.12,0 418.12,0 418.12,-19.25"/>
<text text-anchor="middle" x="354.62" y="-5.75" font-family="Helvetica,sans-Serif" font-size="10.00">Ark::internal::Namespace</text>
</a>
</g>
</g>
<!-- Node2 -->
<g id="Node000002" class="node">
<title>Node2</title>
<g id="a_Node000002"><a xlink:title=" ">
<polygon fill="white" stroke="#666666" points="403.38,-252.5 343.88,-252.5 343.88,-233.25 403.38,-233.25 403.38,-252.5"/>
<text text-anchor="middle" x="373.62" y="-239" font-family="Helvetica,sans-Serif" font-size="10.00">std::string</text>
</a>
</g>
</g>
<!-- Node2&#45;&gt;Node1 -->
<g id="edge1_Node000001_Node000002" class="edge">
<title>Node2&#45;&gt;Node1</title>
<g id="a_edge1_Node000001_Node000002"><a xlink:title=" ">
<path fill="none" stroke="#9a32cd" stroke-dasharray="5,2" d="M386.77,-223.86C408.52,-191.71 447.54,-122.55 425.62,-66.5 416.89,-44.15 393.23,-28.56 375.61,-19.63"/>
<polygon fill="#9a32cd" stroke="#9a32cd" points="384.15,-221.5 381.28,-231.7 389.88,-225.52 384.15,-221.5"/>
</a>
</g>
<text text-anchor="middle" x="444.91" y="-116.75" font-family="Helvetica,sans-Serif" font-size="10.00" fill="grey"> name</text>
</g>
<!-- Node4 -->
<g id="Node000004" class="node">
<title>Node4</title>
<g id="a_Node000004"><a xlink:title=" ">
<polygon fill="white" stroke="#666666" points="416.62,-91.38 292.62,-91.38 292.62,-72.12 416.62,-72.12 416.62,-91.38"/>
<text text-anchor="middle" x="354.62" y="-77.88" font-family="Helvetica,sans-Serif" font-size="10.00">std::vector&lt; std::string &gt;</text>
</a>
</g>
</g>
<!-- Node2&#45;&gt;Node4 -->
<g id="edge4_Node000004_Node000002" class="edge">
<title>Node2&#45;&gt;Node4</title>
<g id="a_edge4_Node000004_Node000002"><a xlink:title=" ">
<path fill="none" stroke="#9a32cd" stroke-dasharray="5,2" d="M371.22,-221.77C367.06,-186.88 358.65,-116.49 355.69,-91.66"/>
<polygon fill="#9a32cd" stroke="#9a32cd" points="367.71,-221.85 372.37,-231.36 374.66,-221.02 367.71,-221.85"/>
</a>
</g>
<text text-anchor="middle" x="385.5" y="-150" font-family="Helvetica,sans-Serif" font-size="10.00" fill="grey"> elements</text>
</g>
<!-- Node8 -->
<g id="Node000008" class="node">
<title>Node8</title>
<g id="a_Node000008"><a xlink:href="../../dc/d9e/classArk_1_1internal_1_1Node.html" target="_top" xlink:title="A node of an Abstract Syntax Tree for ArkScript.">
<polygon fill="white" stroke="#666666" points="325.5,-163.5 227.75,-163.5 227.75,-144.25 325.5,-144.25 325.5,-163.5"/>
<text text-anchor="middle" x="276.62" y="-150" font-family="Helvetica,sans-Serif" font-size="10.00">Ark::internal::Node</text>
</a>
</g>
</g>
<!-- Node2&#45;&gt;Node8 -->
<g id="edge11_Node000008_Node000002" class="edge">
<title>Node2&#45;&gt;Node8</title>
<g id="a_edge11_Node000008_Node000002"><a xlink:title=" ">
<path fill="none" stroke="#9a32cd" stroke-dasharray="5,2" d="M332.2,-241.19C312.54,-238.52 290.61,-231.66 277.88,-215.25 266.3,-200.34 270.39,-176.55 273.83,-163.74"/>
<polygon fill="#9a32cd" stroke="#9a32cd" points="331.62,-244.65 341.92,-242.16 332.32,-237.68 331.62,-244.65"/>
</a>
</g>
<text text-anchor="middle" x="318.75" y="-205.75" font-family="Helvetica,sans-Serif" font-size="10.00" fill="grey"> m_after_comment</text>
<text text-anchor="middle" x="318.75" y="-194.5" font-family="Helvetica,sans-Serif" font-size="10.00" fill="grey">m_comment</text>
<text text-anchor="middle" x="318.75" y="-183.25" font-family="Helvetica,sans-Serif" font-size="10.00" fill="grey">m_filename</text>
</g>
<!-- Node3 -->
<g id="Node000003" class="node">
<title>Node3</title>
<g id="a_Node000003"><a xlink:title=" ">
<polygon fill="white" stroke="#666666" points="420.62,-330.25 326.62,-330.25 326.62,-299.75 420.62,-299.75 420.62,-330.25"/>
<text text-anchor="start" x="334.62" y="-316.75" font-family="Helvetica,sans-Serif" font-size="10.00">std::basic_string&lt;</text>
<text text-anchor="middle" x="373.62" y="-305.5" font-family="Helvetica,sans-Serif" font-size="10.00"> Char &gt;</text>
</a>
</g>
</g>
<!-- Node3&#45;&gt;Node2 -->
<g id="edge2_Node000002_Node000003" class="edge">
<title>Node3&#45;&gt;Node2</title>
<g id="a_edge2_Node000002_Node000003"><a xlink:title=" ">
<path fill="none" stroke="#63b8ff" d="M373.62,-288.23C373.62,-275.73 373.62,-261.52 373.62,-252.63"/>
<polygon fill="#63b8ff" stroke="#63b8ff" points="370.13,-287.96 373.63,-297.96 377.13,-287.96 370.13,-287.96"/>
</a>
</g>
</g>
<!-- Node4&#45;&gt;Node1 -->
<g id="edge3_Node000001_Node000004" class="edge">
<title>Node4&#45;&gt;Node1</title>
<g id="a_edge3_Node000001_Node000004"><a xlink:title=" ">
<path fill="none" stroke="#9a32cd" stroke-dasharray="5,2" d="M354.62,-60.37C354.62,-46.89 354.62,-29.89 354.62,-19.66"/>
<polygon fill="#9a32cd" stroke="#9a32cd" points="351.13,-60.36 354.63,-70.36 358.13,-60.36 351.13,-60.36"/>
</a>
</g>
<text text-anchor="middle" x="374.5" y="-39" font-family="Helvetica,sans-Serif" font-size="10.00" fill="grey"> symbols</text>
</g>
<!-- Node5 -->
<g id="Node000005" class="node">
<title>Node5</title>
<g id="a_Node000005"><a xlink:title=" ">
<polygon fill="white" stroke="#666666" points="209.88,-163.5 123.38,-163.5 123.38,-144.25 209.88,-144.25 209.88,-163.5"/>
<text text-anchor="middle" x="166.62" y="-150" font-family="Helvetica,sans-Serif" font-size="10.00">std::vector&lt; T &gt;</text>
</a>
</g>
</g>
<!-- Node5&#45;&gt;Node4 -->
<g id="edge5_Node000004_Node000005" class="edge">
<title>Node5&#45;&gt;Node4</title>
<g id="a_edge5_Node000004_Node000005"><a xlink:title=" ">
<path fill="none" stroke="orange" stroke-dasharray="5,2" d="M170.16,-132.81C172.29,-126.24 175.69,-119.48 181.12,-115 216.81,-85.58 238.17,-105.55 283.62,-97 292.27,-95.37 301.5,-93.57 310.34,-91.81"/>
<polygon fill="orange" stroke="orange" points="166.78,-131.9 167.89,-142.44 173.6,-133.51 166.78,-131.9"/>
</a>
</g>
<text text-anchor="middle" x="213.38" y="-116.75" font-family="Helvetica,sans-Serif" font-size="10.00" fill="grey"> &lt; std::string &gt;</text>
</g>
<!-- Node6 -->
<g id="Node000006" class="node">
<title>Node6</title>
<g id="a_Node000006"><a xlink:title=" ">
<polygon fill="white" stroke="#666666" points="140.03,-252.5 111.22,-252.5 111.22,-233.25 140.03,-233.25 140.03,-252.5"/>
<text text-anchor="middle" x="125.62" y="-239" font-family="Helvetica,sans-Serif" font-size="10.00">T</text>
</a>
</g>
</g>
<!-- Node6&#45;&gt;Node5 -->
<g id="edge6_Node000005_Node000006" class="edge">
<title>Node6&#45;&gt;Node5</title>
<g id="a_edge6_Node000005_Node000006"><a xlink:title=" ">
<path fill="none" stroke="#9a32cd" stroke-dasharray="5,2" d="M134.73,-222.56C143.33,-204.3 155.85,-177.73 162.35,-163.94"/>
<polygon fill="#9a32cd" stroke="#9a32cd" points="131.6,-220.99 130.5,-231.52 137.93,-223.97 131.6,-220.99"/>
</a>
</g>
<text text-anchor="middle" x="174.74" y="-194.5" font-family="Helvetica,sans-Serif" font-size="10.00" fill="grey"> elements</text>
</g>
<!-- Node11 -->
<g id="Node000011" class="node">
<title>Node11</title>
<g id="a_Node000011"><a xlink:title=" ">
<polygon fill="white" stroke="#666666" points="105.25,-163.5 0,-163.5 0,-144.25 105.25,-144.25 105.25,-163.5"/>
<text text-anchor="middle" x="52.62" y="-150" font-family="Helvetica,sans-Serif" font-size="10.00">std::shared_ptr&lt; T &gt;</text>
</a>
</g>
</g>
<!-- Node6&#45;&gt;Node11 -->
<g id="edge13_Node000011_Node000006" class="edge">
<title>Node6&#45;&gt;Node11</title>
<g id="a_edge13_Node000011_Node000006"><a xlink:title=" ">
<path fill="none" stroke="#9a32cd" stroke-dasharray="5,2" d="M110.7,-224.09C95.38,-205.83 72.13,-178.12 60.23,-163.94"/>
<polygon fill="#9a32cd" stroke="#9a32cd" points="108.01,-226.32 117.11,-231.73 113.37,-221.82 108.01,-226.32"/>
</a>
</g>
<text text-anchor="middle" x="109.14" y="-194.5" font-family="Helvetica,sans-Serif" font-size="10.00" fill="grey"> ptr</text>
</g>
<!-- Node7 -->
<g id="Node000007" class="node">
<title>Node7</title>
<g id="a_Node000007"><a xlink:title=" ">
<polygon fill="white" stroke="#666666" points="274.88,-97 170.38,-97 170.38,-66.5 274.88,-66.5 274.88,-97"/>
<text text-anchor="start" x="178.38" y="-83.5" font-family="Helvetica,sans-Serif" font-size="10.00">std::shared_ptr&lt; Ark</text>
<text text-anchor="middle" x="222.62" y="-72.25" font-family="Helvetica,sans-Serif" font-size="10.00">::internal::Node &gt;</text>
</a>
</g>
</g>
<!-- Node7&#45;&gt;Node1 -->
<g id="edge7_Node000001_Node000007" class="edge">
<title>Node7&#45;&gt;Node1</title>
<g id="a_edge7_Node000001_Node000007"><a xlink:title=" ">
<path fill="none" stroke="#9a32cd" stroke-dasharray="5,2" d="M260.35,-60.71C285.74,-47.22 318.03,-30.07 337.47,-19.74"/>
<polygon fill="#9a32cd" stroke="#9a32cd" points="258.82,-57.56 251.63,-65.34 262.11,-63.74 258.82,-57.56"/>
</a>
</g>
<text text-anchor="middle" x="312.58" y="-39" font-family="Helvetica,sans-Serif" font-size="10.00" fill="grey"> ast</text>
</g>
<!-- Node8&#45;&gt;Node7 -->
<g id="edge8_Node000007_Node000008" class="edge">
<title>Node8&#45;&gt;Node7</title>
<g id="a_edge8_Node000007_Node000008"><a xlink:title=" ">
<path fill="none" stroke="#9a32cd" stroke-dasharray="5,2" d="M264.23,-134.89C259.74,-128.53 254.55,-121.37 249.62,-115 245.07,-109.11 239.86,-102.79 235.24,-97.32"/>
<polygon fill="#9a32cd" stroke="#9a32cd" points="261.14,-136.57 269.73,-142.77 266.88,-132.56 261.14,-136.57"/>
</a>
</g>
<text text-anchor="middle" x="264.41" y="-116.75" font-family="Helvetica,sans-Serif" font-size="10.00" fill="grey"> ptr</text>
</g>
<!-- Node9 -->
<g id="Node000009" class="node">
<title>Node9</title>
<g id="a_Node000009"><a xlink:href="../../dc/dda/structArk_1_1internal_1_1FileSpan.html" target="_top" xlink:title="Describes a span for a node/atom in a file, its start position and end position.">
<polygon fill="white" stroke="#666666" points="278,-252.5 165.25,-252.5 165.25,-233.25 278,-233.25 278,-252.5"/>
<text text-anchor="middle" x="221.62" y="-239" font-family="Helvetica,sans-Serif" font-size="10.00">Ark::internal::FileSpan</text>
</a>
</g>
</g>
<!-- Node9&#45;&gt;Node8 -->
<g id="edge9_Node000008_Node000009" class="edge">
<title>Node9&#45;&gt;Node8</title>
<g id="a_edge9_Node000008_Node000009"><a xlink:title=" ">
<path fill="none" stroke="#9a32cd" stroke-dasharray="5,2" d="M216.84,-221.76C215.02,-209.24 214.9,-193.33 222.38,-181.5 227.42,-173.52 235.62,-167.86 244.14,-163.87"/>
<polygon fill="#9a32cd" stroke="#9a32cd" points="213.37,-222.24 218.73,-231.38 220.24,-220.9 213.37,-222.24"/>
</a>
</g>
<text text-anchor="middle" x="238.5" y="-194.5" font-family="Helvetica,sans-Serif" font-size="10.00" fill="grey"> m_pos</text>
</g>
<!-- Node10 -->
<g id="Node000010" class="node">
<title>Node10</title>
<g id="a_Node000010"><a xlink:href="../../d7/df6/structArk_1_1internal_1_1FilePos.html" target="_top" xlink:title=" ">
<polygon fill="white" stroke="#666666" points="275.38,-324.62 167.88,-324.62 167.88,-305.38 275.38,-305.38 275.38,-324.62"/>
<text text-anchor="middle" x="221.62" y="-311.12" font-family="Helvetica,sans-Serif" font-size="10.00">Ark::internal::FilePos</text>
</a>
</g>
</g>
<!-- Node10&#45;&gt;Node9 -->
<g id="edge10_Node000009_Node000010" class="edge">
<title>Node10&#45;&gt;Node9</title>
<g id="a_edge10_Node000009_Node000010"><a xlink:title=" ">
<path fill="none" stroke="#9a32cd" stroke-dasharray="5,2" d="M221.62,-293.62C221.62,-280.14 221.62,-263.14 221.62,-252.91"/>
<polygon fill="#9a32cd" stroke="#9a32cd" points="218.13,-293.61 221.63,-303.61 225.13,-293.61 218.13,-293.61"/>
</a>
</g>
<text text-anchor="middle" x="232.88" y="-272.25" font-family="Helvetica,sans-Serif" font-size="10.00" fill="grey"> start</text>
</g>
<!-- Node11&#45;&gt;Node7 -->
<g id="edge12_Node000007_Node000011" class="edge">
<title>Node11&#45;&gt;Node7</title>
<g id="a_edge12_Node000007_Node000011"><a xlink:title=" ">
<path fill="none" stroke="orange" stroke-dasharray="5,2" d="M51.52,-132.43C52.23,-126.12 54.18,-119.62 58.62,-115 73.83,-99.22 128.15,-90.84 170.16,-86.61"/>
<polygon fill="orange" stroke="orange" points="48.03,-132.25 51.4,-142.29 55.02,-132.33 48.03,-132.25"/>
</a>
</g>
<text text-anchor="middle" x="109.62" y="-116.75" font-family="Helvetica,sans-Serif" font-size="10.00" fill="grey"> &lt; Ark::internal::Node &gt;</text>
</g>
</g>
</svg>
</svg>

<style type='text/css'>
<![CDATA[
[data-mouse-over-selected='false'] { opacity: 0.7; }
[data-mouse-over-selected='true']  { opacity: 1.0; }
]]>
</style>
<script type="application/ecmascript"><![CDATA[
document.addEventListener('DOMContentLoaded', (event) => {
  highlightEdges();
  highlightAdjacentNodes();
});
]]></script>
</svg>
