<?xml version="1.0" encoding="UTF-8" standalone="no"?>
<!DOCTYPE svg PUBLIC "-//W3C//DTD SVG 1.1//EN"
 "http://www.w3.org/Graphics/SVG/1.1/DTD/svg11.dtd">
<!-- Generated by graphviz version 12.2.0 (20241103.1931)
 -->
<!-- Title: /Users/fola/Documents/ArkScript/Ark/src/arkreactor/Utils/Logger.cpp Pages: 1 -->
<svg width="615pt" height="160pt"
 viewBox="0.00 0.00 614.62 160.25" xmlns="http://www.w3.org/2000/svg" xmlns:xlink="http://www.w3.org/1999/xlink">
<g id="graph0" class="graph" transform="scale(1 1) rotate(0) translate(4 156.25)">
<title>/Users/fola/Documents/ArkScript/Ark/src/arkreactor/Utils/Logger.cpp</title>
<!-- Node1 -->
<g id="Node000001" class="node">
<title>Node1</title>
<g id="a_Node000001"><a xlink:title=" ">
<polygon fill="#999999" stroke="#666666" points="440,-152.25 299.5,-152.25 299.5,-110.5 440,-110.5 440,-152.25"/>
<text text-anchor="start" x="307.5" y="-138.75" font-family="Helvetica,sans-Serif" font-size="10.00">/Users/fola/Documents</text>
<text text-anchor="start" x="307.5" y="-127.5" font-family="Helvetica,sans-Serif" font-size="10.00">/ArkScript/Ark/src/arkreactor</text>
<text text-anchor="middle" x="369.75" y="-116.25" font-family="Helvetica,sans-Serif" font-size="10.00">/Utils/Logger.cpp</text>
</a>
</g>
</g>
<!-- Node2 -->
<g id="Node000002" class="node">
<title>Node2</title>
<g id="a_Node000002"><a xlink:href="../../d9/d11/Logger_8hpp.html" target="_top" xlink:title="Internal logger.">
<polygon fill="white" stroke="#666666" points="333,-74.5 228.5,-74.5 228.5,-55.25 333,-55.25 333,-74.5"/>
<text text-anchor="middle" x="280.75" y="-61" font-family="Helvetica,sans-Serif" font-size="10.00">Ark/Utils/Logger.hpp</text>
</a>
</g>
</g>
<!-- Node1&#45;&gt;Node2 -->
<g id="edge1_Node000001_Node000002" class="edge">
<title>Node1&#45;&gt;Node2</title>
<g id="a_edge1_Node000001_Node000002"><a xlink:title=" ">
<path fill="none" stroke="#63b8ff" d="M342.08,-110.32C329.32,-101.08 314.4,-90.26 302.47,-81.62"/>
<polygon fill="#63b8ff" stroke="#63b8ff" points="304.64,-78.87 294.49,-75.83 300.53,-84.54 304.64,-78.87"/>
</a>
</g>
</g>
<!-- Node11 -->
<g id="Node000011" class="node">
<title>Node11</title>
<g id="a_Node000011"><a xlink:title=" ">
<polygon fill="#e0e0e0" stroke="#999999" points="388.62,-74.5 350.88,-74.5 350.88,-55.25 388.62,-55.25 388.62,-74.5"/>
<text text-anchor="middle" x="369.75" y="-61" font-family="Helvetica,sans-Serif" font-size="10.00">array</text>
</a>
</g>
</g>
<!-- Node1&#45;&gt;Node11 -->
<g id="edge10_Node000001_Node000011" class="edge">
<title>Node1&#45;&gt;Node11</title>
<g id="a_edge10_Node000001_Node000011"><a xlink:title=" ">
<path fill="none" stroke="#63b8ff" d="M369.75,-110.32C369.75,-102.65 369.75,-93.89 369.75,-86.2"/>
<polygon fill="#63b8ff" stroke="#63b8ff" points="373.25,-86.46 369.75,-76.46 366.25,-86.46 373.25,-86.46"/>
</a>
</g>
</g>
<!-- Node12 -->
<g id="Node000012" class="node">
<title>Node12</title>
<g id="a_Node000012"><a xlink:title=" ">
<polygon fill="#e0e0e0" stroke="#999999" points="446.38,-74.5 407.12,-74.5 407.12,-55.25 446.38,-55.25 446.38,-74.5"/>
<text text-anchor="middle" x="426.75" y="-61" font-family="Helvetica,sans-Serif" font-size="10.00">utility</text>
</a>
</g>
</g>
<!-- Node1&#45;&gt;Node12 -->
<g id="edge11_Node000001_Node000012" class="edge">
<title>Node1&#45;&gt;Node12</title>
<g id="a_edge11_Node000001_Node000012"><a xlink:title=" ">
<path fill="none" stroke="#63b8ff" d="M387.47,-110.32C395.07,-101.72 403.87,-91.77 411.21,-83.46"/>
<polygon fill="#63b8ff" stroke="#63b8ff" points="413.73,-85.89 417.73,-76.08 408.49,-81.26 413.73,-85.89"/>
</a>
</g>
</g>
<!-- Node3 -->
<g id="Node000003" class="node">
<title>Node3</title>
<g id="a_Node000003"><a xlink:title=" ">
<polygon fill="#e0e0e0" stroke="#999999" points="53.5,-19.25 0,-19.25 0,0 53.5,0 53.5,-19.25"/>
<text text-anchor="middle" x="26.75" y="-5.75" font-family="Helvetica,sans-Serif" font-size="10.00">iostream</text>
</a>
</g>
</g>
<!-- Node2&#45;&gt;Node3 -->
<g id="edge2_Node000002_Node000003" class="edge">
<title>Node2&#45;&gt;Node3</title>
<g id="a_edge2_Node000002_Node000003"><a xlink:title=" ">
<path fill="none" stroke="#63b8ff" d="M233.21,-54.77C191.2,-46.59 128,-33.97 64.82,-19.88"/>
<polygon fill="#63b8ff" stroke="#63b8ff" points="65.86,-16.53 55.33,-17.75 64.32,-23.36 65.86,-16.53"/>
</a>
</g>
</g>
<!-- Node4 -->
<g id="Node000004" class="node">
<title>Node4</title>
<g id="a_Node000004"><a xlink:title=" ">
<polygon fill="#e0e0e0" stroke="#999999" points="140.38,-19.25 71.12,-19.25 71.12,0 140.38,0 140.38,-19.25"/>
<text text-anchor="middle" x="105.75" y="-5.75" font-family="Helvetica,sans-Serif" font-size="10.00">fmt/format.h</text>
</a>
</g>
</g>
<!-- Node2&#45;&gt;Node4 -->
<g id="edge3_Node000002_Node000004" class="edge">
<title>Node2&#45;&gt;Node4</title>
<g id="a_edge3_Node000002_Node000004"><a xlink:title=" ">
<path fill="none" stroke="#63b8ff" d="M251.06,-54.84C222.28,-46.08 178.38,-32.73 146.37,-22.98"/>
<polygon fill="#63b8ff" stroke="#63b8ff" points="147.62,-19.71 137.03,-20.14 145.58,-26.4 147.62,-19.71"/>
</a>
</g>
</g>
<!-- Node5 -->
<g id="Node000005" class="node">
<title>Node5</title>
<g id="a_Node000005"><a xlink:title=" ">
<polygon fill="#e0e0e0" stroke="#999999" points="198.75,-19.25 158.75,-19.25 158.75,0 198.75,0 198.75,-19.25"/>
<text text-anchor="middle" x="178.75" y="-5.75" font-family="Helvetica,sans-Serif" font-size="10.00">string</text>
</a>
</g>
</g>
<!-- Node2&#45;&gt;Node5 -->
<g id="edge4_Node000002_Node000005" class="edge">
<title>Node2&#45;&gt;Node5</title>
<g id="a_edge4_Node000002_Node000005"><a xlink:title=" ">
<path fill="none" stroke="#63b8ff" d="M263.45,-54.84C247.77,-46.66 224.4,-34.46 206.17,-24.94"/>
<polygon fill="#63b8ff" stroke="#63b8ff" points="207.96,-21.93 197.48,-20.4 204.72,-28.13 207.96,-21.93"/>
</a>
</g>
</g>
<!-- Node6 -->
<g id="Node000006" class="node">
<title>Node6</title>
<g id="a_Node000006"><a xlink:title=" ">
<polygon fill="#e0e0e0" stroke="#999999" points="262.38,-19.25 217.12,-19.25 217.12,0 262.38,0 262.38,-19.25"/>
<text text-anchor="middle" x="239.75" y="-5.75" font-family="Helvetica,sans-Serif" font-size="10.00">chrono</text>
</a>
</g>
</g>
<!-- Node2&#45;&gt;Node6 -->
<g id="edge5_Node000002_Node000006" class="edge">
<title>Node2&#45;&gt;Node6</title>
<g id="a_edge5_Node000002_Node000006"><a xlink:title=" ">
<path fill="none" stroke="#63b8ff" d="M273.98,-55.08C268.43,-47.88 260.41,-37.46 253.52,-28.51"/>
<polygon fill="#63b8ff" stroke="#63b8ff" points="256.46,-26.6 247.59,-20.81 250.92,-30.87 256.46,-26.6"/>
</a>
</g>
</g>
<!-- Node7 -->
<g id="Node000007" class="node">
<title>Node7</title>
<g id="a_Node000007"><a xlink:title=" ">
<polygon fill="#e0e0e0" stroke="#999999" points="364.88,-19.25 280.62,-19.25 280.62,0 364.88,0 364.88,-19.25"/>
<text text-anchor="middle" x="322.75" y="-5.75" font-family="Helvetica,sans-Serif" font-size="10.00">source_location</text>
</a>
</g>
</g>
<!-- Node2&#45;&gt;Node7 -->
<g id="edge6_Node000002_Node000007" class="edge">
<title>Node2&#45;&gt;Node7</title>
<g id="a_edge6_Node000002_Node000007"><a xlink:title=" ">
<path fill="none" stroke="#63b8ff" d="M287.69,-55.08C293.37,-47.88 301.59,-37.46 308.64,-28.51"/>
<polygon fill="#63b8ff" stroke="#63b8ff" points="311.28,-30.82 314.73,-20.8 305.79,-26.48 311.28,-30.82"/>
</a>
</g>
</g>
<!-- Node8 -->
<g id="Node000008" class="node">
<title>Node8</title>
<g id="a_Node000008"><a xlink:title=" ">
<polygon fill="#e0e0e0" stroke="#999999" points="426.25,-19.25 383.25,-19.25 383.25,0 426.25,0 426.25,-19.25"/>
<text text-anchor="middle" x="404.75" y="-5.75" font-family="Helvetica,sans-Serif" font-size="10.00">vector</text>
</a>
</g>
</g>
<!-- Node2&#45;&gt;Node8 -->
<g id="edge7_Node000002_Node000008" class="edge">
<title>Node2&#45;&gt;Node8</title>
<g id="a_edge7_Node000002_Node000008"><a xlink:title=" ">
<path fill="none" stroke="#63b8ff" d="M301.78,-54.84C321.38,-46.43 350.86,-33.77 373.26,-24.15"/>
<polygon fill="#63b8ff" stroke="#63b8ff" points="374.41,-27.46 382.22,-20.3 371.65,-21.03 374.41,-27.46"/>
</a>
</g>
</g>
<!-- Node9 -->
<g id="Node000009" class="node">
<title>Node9</title>
<g id="a_Node000009"><a xlink:title=" ">
<polygon fill="#e0e0e0" stroke="#999999" points="527.12,-19.25 444.38,-19.25 444.38,0 527.12,0 527.12,-19.25"/>
<text text-anchor="middle" x="485.75" y="-5.75" font-family="Helvetica,sans-Serif" font-size="10.00">unordered_map</text>
</a>
</g>
</g>
<!-- Node2&#45;&gt;Node9 -->
<g id="edge8_Node000002_Node000009" class="edge">
<title>Node2&#45;&gt;Node9</title>
<g id="a_edge8_Node000002_Node000009"><a xlink:title=" ">
<path fill="none" stroke="#63b8ff" d="M315.53,-54.84C349.84,-45.93 402.47,-32.26 440.12,-22.48"/>
<polygon fill="#63b8ff" stroke="#63b8ff" points="440.54,-25.98 449.34,-20.08 438.78,-19.21 440.54,-25.98"/>
</a>
</g>
</g>
<!-- Node10 -->
<g id="Node000010" class="node">
<title>Node10</title>
<g id="a_Node000010"><a xlink:title=" ">
<polygon fill="#e0e0e0" stroke="#999999" points="606.62,-19.25 544.88,-19.25 544.88,0 606.62,0 606.62,-19.25"/>
<text text-anchor="middle" x="575.75" y="-5.75" font-family="Helvetica,sans-Serif" font-size="10.00">fmt/color.h</text>
</a>
</g>
</g>
<!-- Node2&#45;&gt;Node10 -->
<g id="edge9_Node000002_Node000010" class="edge">
<title>Node2&#45;&gt;Node10</title>
<g id="a_edge9_Node000002_Node000010"><a xlink:title=" ">
<path fill="none" stroke="#63b8ff" d="M333.12,-55.33C382.32,-47.16 458.3,-34.19 533.66,-19.6"/>
<polygon fill="#63b8ff" stroke="#63b8ff" points="534.13,-23.07 543.28,-17.72 532.8,-16.2 534.13,-23.07"/>
</a>
</g>
</g>
</g>
</svg>
