<?xml version="1.0" encoding="UTF-8" standalone="no"?>
<!DOCTYPE svg PUBLIC "-//W3C//DTD SVG 1.1//EN"
 "http://www.w3.org/Graphics/SVG/1.1/DTD/svg11.dtd">
<!-- Generated by graphviz version 12.2.0 (20241103.1931)
 -->
<!-- Title: /Users/fola/Documents/ArkScript/Ark/include/Ark/Compiler/Macros/Executor.hpp Pages: 1 -->
<svg width="781pt" height="228pt"
 viewBox="0.00 0.00 780.88 227.75" xmlns="http://www.w3.org/2000/svg" xmlns:xlink="http://www.w3.org/1999/xlink">
<g id="graph0" class="graph" transform="scale(1 1) rotate(0) translate(4 223.75)">
<title>/Users/fola/Documents/ArkScript/Ark/include/Ark/Compiler/Macros/Executor.hpp</title>
<!-- Node1 -->
<g id="Node000001" class="node">
<title>Node1</title>
<g id="a_Node000001"><a xlink:title="The base class for all MacroExecutors.">
<polygon fill="#999999" stroke="#666666" points="430.88,-219.75 259.62,-219.75 259.62,-178 430.88,-178 430.88,-219.75"/>
<text text-anchor="start" x="267.62" y="-206.25" font-family="Helvetica,sans-Serif" font-size="10.00">/Users/fola/Documents</text>
<text text-anchor="start" x="267.62" y="-195" font-family="Helvetica,sans-Serif" font-size="10.00">/ArkScript/Ark/include</text>
<text text-anchor="middle" x="345.25" y="-183.75" font-family="Helvetica,sans-Serif" font-size="10.00">/Ark/Compiler/Macros/Executor.hpp</text>
</a>
</g>
</g>
<!-- Node2 -->
<g id="Node000002" class="node">
<title>Node2</title>
<g id="a_Node000002"><a xlink:href="../../da/dc2/Conditional_8hpp.html" target="_top" xlink:title="Executor for Conditional Macros.">
<polygon fill="white" stroke="#666666" points="210.5,-142 52,-142 52,-89 210.5,-89 210.5,-142"/>
<text text-anchor="start" x="60" y="-128.5" font-family="Helvetica,sans-Serif" font-size="10.00">/Users/fola/Documents</text>
<text text-anchor="start" x="60" y="-117.25" font-family="Helvetica,sans-Serif" font-size="10.00">/ArkScript/Ark/include</text>
<text text-anchor="start" x="60" y="-106" font-family="Helvetica,sans-Serif" font-size="10.00">/Ark/Compiler/Macros/Executors</text>
<text text-anchor="middle" x="131.25" y="-94.75" font-family="Helvetica,sans-Serif" font-size="10.00">/Conditional.hpp</text>
</a>
</g>
</g>
<!-- Node1&#45;&gt;Node2 -->
<g id="edge1_Node000001_Node000002" class="edge">
<title>Node1&#45;&gt;Node2</title>
<g id="a_edge1_Node000001_Node000002"><a xlink:title=" ">
<path fill="none" stroke="#63b8ff" d="M281.37,-173.58C255.52,-163.75 225.64,-152.39 199.38,-142.41"/>
<polygon fill="#63b8ff" stroke="#63b8ff" points="279.8,-176.73 290.39,-177.01 282.28,-170.19 279.8,-176.73"/>
</a>
</g>
</g>
<!-- Node4 -->
<g id="Node000004" class="node">
<title>Node4</title>
<g id="a_Node000004"><a xlink:href="../../d6/d69/Processor_8cpp.html" target="_top" xlink:title=" ">
<polygon fill="white" stroke="#666666" points="317.5,-47.38 159,-47.38 159,-5.62 317.5,-5.62 317.5,-47.38"/>
<text text-anchor="start" x="167" y="-33.88" font-family="Helvetica,sans-Serif" font-size="10.00">/Users/fola/Documents</text>
<text text-anchor="start" x="167" y="-22.62" font-family="Helvetica,sans-Serif" font-size="10.00">/ArkScript/Ark/src/arkreactor</text>
<text text-anchor="middle" x="238.25" y="-11.38" font-family="Helvetica,sans-Serif" font-size="10.00">/Compiler/Macros/Processor.cpp</text>
</a>
</g>
</g>
<!-- Node1&#45;&gt;Node4 -->
<g id="edge11_Node000001_Node000004" class="edge">
<title>Node1&#45;&gt;Node4</title>
<g id="a_edge11_Node000001_Node000004"><a xlink:title=" ">
<path fill="none" stroke="#63b8ff" d="M288.49,-171.75C276.52,-163.78 265.13,-153.91 257.25,-142 238.23,-113.27 236.14,-71.83 236.85,-47.48"/>
<polygon fill="#63b8ff" stroke="#63b8ff" points="286.54,-174.65 296.88,-176.93 290.22,-168.7 286.54,-174.65"/>
</a>
</g>
</g>
<!-- Node5 -->
<g id="Node000005" class="node">
<title>Node5</title>
<g id="a_Node000005"><a xlink:href="../../d4/d59/Function_8hpp.html" target="_top" xlink:title="Executor for List Macros.">
<polygon fill="white" stroke="#666666" points="424.5,-142 266,-142 266,-89 424.5,-89 424.5,-142"/>
<text text-anchor="start" x="274" y="-128.5" font-family="Helvetica,sans-Serif" font-size="10.00">/Users/fola/Documents</text>
<text text-anchor="start" x="274" y="-117.25" font-family="Helvetica,sans-Serif" font-size="10.00">/ArkScript/Ark/include</text>
<text text-anchor="start" x="274" y="-106" font-family="Helvetica,sans-Serif" font-size="10.00">/Ark/Compiler/Macros/Executors</text>
<text text-anchor="middle" x="345.25" y="-94.75" font-family="Helvetica,sans-Serif" font-size="10.00">/Function.hpp</text>
</a>
</g>
</g>
<!-- Node1&#45;&gt;Node5 -->
<g id="edge4_Node000001_Node000005" class="edge">
<title>Node1&#45;&gt;Node5</title>
<g id="a_edge4_Node000001_Node000005"><a xlink:title=" ">
<path fill="none" stroke="#63b8ff" d="M345.25,-166.52C345.25,-158.49 345.25,-149.94 345.25,-142.23"/>
<polygon fill="#63b8ff" stroke="#63b8ff" points="341.75,-166.25 345.25,-176.25 348.75,-166.25 341.75,-166.25"/>
</a>
</g>
</g>
<!-- Node7 -->
<g id="Node000007" class="node">
<title>Node7</title>
<g id="a_Node000007"><a xlink:href="../../dc/dce/Symbol_8hpp.html" target="_top" xlink:title="Executor for Symbol Macros.">
<polygon fill="white" stroke="#666666" points="601.5,-142 443,-142 443,-89 601.5,-89 601.5,-142"/>
<text text-anchor="start" x="451" y="-128.5" font-family="Helvetica,sans-Serif" font-size="10.00">/Users/fola/Documents</text>
<text text-anchor="start" x="451" y="-117.25" font-family="Helvetica,sans-Serif" font-size="10.00">/ArkScript/Ark/include</text>
<text text-anchor="start" x="451" y="-106" font-family="Helvetica,sans-Serif" font-size="10.00">/Ark/Compiler/Macros/Executors</text>
<text text-anchor="middle" x="522.25" y="-94.75" font-family="Helvetica,sans-Serif" font-size="10.00">/Symbol.hpp</text>
</a>
</g>
</g>
<!-- Node1&#45;&gt;Node7 -->
<g id="edge7_Node000001_Node000007" class="edge">
<title>Node1&#45;&gt;Node7</title>
<g id="a_edge7_Node000001_Node000007"><a xlink:title=" ">
<path fill="none" stroke="#63b8ff" d="M399.8,-172.79C420.78,-163.15 444.76,-152.13 465.9,-142.41"/>
<polygon fill="#63b8ff" stroke="#63b8ff" points="398.46,-169.56 390.83,-176.92 401.38,-175.92 398.46,-169.56"/>
</a>
</g>
</g>
<!-- Node9 -->
<g id="Node000009" class="node">
<title>Node9</title>
<g id="a_Node000009"><a xlink:href="../../d1/da9/Executor_8cpp.html" target="_top" xlink:title=" ">
<polygon fill="white" stroke="#666666" points="772.88,-136.38 619.62,-136.38 619.62,-94.62 772.88,-94.62 772.88,-136.38"/>
<text text-anchor="start" x="627.62" y="-122.88" font-family="Helvetica,sans-Serif" font-size="10.00">/Users/fola/Documents</text>
<text text-anchor="start" x="627.62" y="-111.62" font-family="Helvetica,sans-Serif" font-size="10.00">/ArkScript/Ark/src/arkreactor</text>
<text text-anchor="middle" x="696.25" y="-100.38" font-family="Helvetica,sans-Serif" font-size="10.00">/Compiler/Macros/Executor.cpp</text>
</a>
</g>
</g>
<!-- Node1&#45;&gt;Node9 -->
<g id="edge10_Node000001_Node000009" class="edge">
<title>Node1&#45;&gt;Node9</title>
<g id="a_edge10_Node000001_Node000009"><a xlink:title=" ">
<path fill="none" stroke="#63b8ff" d="M442.48,-179.32C492.79,-169.23 555.06,-155.98 610.25,-142 616.59,-140.39 623.17,-138.63 629.73,-136.8"/>
<polygon fill="#63b8ff" stroke="#63b8ff" points="441.89,-175.87 432.77,-181.26 443.26,-182.74 441.89,-175.87"/>
</a>
</g>
</g>
<!-- Node3 -->
<g id="Node000003" class="node">
<title>Node3</title>
<g id="a_Node000003"><a xlink:href="../../de/d04/Conditional_8cpp.html" target="_top" xlink:title=" ">
<polygon fill="white" stroke="#666666" points="140.5,-53 0,-53 0,0 140.5,0 140.5,-53"/>
<text text-anchor="start" x="8" y="-39.5" font-family="Helvetica,sans-Serif" font-size="10.00">/Users/fola/Documents</text>
<text text-anchor="start" x="8" y="-28.25" font-family="Helvetica,sans-Serif" font-size="10.00">/ArkScript/Ark/src/arkreactor</text>
<text text-anchor="start" x="8" y="-17" font-family="Helvetica,sans-Serif" font-size="10.00">/Compiler/Macros/Executors</text>
<text text-anchor="middle" x="70.25" y="-5.75" font-family="Helvetica,sans-Serif" font-size="10.00">/Conditional.cpp</text>
</a>
</g>
</g>
<!-- Node2&#45;&gt;Node3 -->
<g id="edge2_Node000002_Node000003" class="edge">
<title>Node2&#45;&gt;Node3</title>
<g id="a_edge2_Node000002_Node000003"><a xlink:title=" ">
<path fill="none" stroke="#63b8ff" d="M106.77,-79.59C100.6,-70.79 94.09,-61.5 88.3,-53.25"/>
<polygon fill="#63b8ff" stroke="#63b8ff" points="103.8,-81.45 112.41,-87.63 109.53,-77.43 103.8,-81.45"/>
</a>
</g>
</g>
<!-- Node2&#45;&gt;Node4 -->
<g id="edge3_Node000002_Node000004" class="edge">
<title>Node2&#45;&gt;Node4</title>
<g id="a_edge3_Node000002_Node000004"><a xlink:title=" ">
<path fill="none" stroke="#63b8ff" d="M171.63,-81.67C185.71,-70.22 201.09,-57.71 213.52,-47.61"/>
<polygon fill="#63b8ff" stroke="#63b8ff" points="169.79,-78.65 164.24,-87.68 174.21,-84.08 169.79,-78.65"/>
</a>
</g>
</g>
<!-- Node5&#45;&gt;Node4 -->
<g id="edge6_Node000005_Node000004" class="edge">
<title>Node5&#45;&gt;Node4</title>
<g id="a_edge6_Node000005_Node000004"><a xlink:title=" ">
<path fill="none" stroke="#63b8ff" d="M304.87,-81.67C290.79,-70.22 275.41,-57.71 262.98,-47.61"/>
<polygon fill="#63b8ff" stroke="#63b8ff" points="302.29,-84.08 312.26,-87.68 306.71,-78.65 302.29,-84.08"/>
</a>
</g>
</g>
<!-- Node6 -->
<g id="Node000006" class="node">
<title>Node6</title>
<g id="a_Node000006"><a xlink:href="../../dc/dd4/Function_8cpp.html" target="_top" xlink:title=" ">
<polygon fill="white" stroke="#666666" points="476.5,-53 336,-53 336,0 476.5,0 476.5,-53"/>
<text text-anchor="start" x="344" y="-39.5" font-family="Helvetica,sans-Serif" font-size="10.00">/Users/fola/Documents</text>
<text text-anchor="start" x="344" y="-28.25" font-family="Helvetica,sans-Serif" font-size="10.00">/ArkScript/Ark/src/arkreactor</text>
<text text-anchor="start" x="344" y="-17" font-family="Helvetica,sans-Serif" font-size="10.00">/Compiler/Macros/Executors</text>
<text text-anchor="middle" x="406.25" y="-5.75" font-family="Helvetica,sans-Serif" font-size="10.00">/Function.cpp</text>
</a>
</g>
</g>
<!-- Node5&#45;&gt;Node6 -->
<g id="edge5_Node000005_Node000006" class="edge">
<title>Node5&#45;&gt;Node6</title>
<g id="a_edge5_Node000005_Node000006"><a xlink:title=" ">
<path fill="none" stroke="#63b8ff" d="M369.73,-79.59C375.9,-70.79 382.41,-61.5 388.2,-53.25"/>
<polygon fill="#63b8ff" stroke="#63b8ff" points="366.97,-77.43 364.09,-87.63 372.7,-81.45 366.97,-77.43"/>
</a>
</g>
</g>
<!-- Node7&#45;&gt;Node4 -->
<g id="edge9_Node000007_Node000004" class="edge">
<title>Node7&#45;&gt;Node4</title>
<g id="a_edge9_Node000007_Node000004"><a xlink:title=" ">
<path fill="none" stroke="#63b8ff" d="M431.88,-86.81C390.62,-74.18 342.63,-59.48 304.75,-47.87"/>
<polygon fill="#63b8ff" stroke="#63b8ff" points="430.73,-90.12 441.32,-89.71 432.78,-83.43 430.73,-90.12"/>
</a>
</g>
</g>
<!-- Node8 -->
<g id="Node000008" class="node">
<title>Node8</title>
<g id="a_Node000008"><a xlink:href="../../d8/d0b/Symbol_8cpp.html" target="_top" xlink:title=" ">
<polygon fill="white" stroke="#666666" points="635.5,-53 495,-53 495,0 635.5,0 635.5,-53"/>
<text text-anchor="start" x="503" y="-39.5" font-family="Helvetica,sans-Serif" font-size="10.00">/Users/fola/Documents</text>
<text text-anchor="start" x="503" y="-28.25" font-family="Helvetica,sans-Serif" font-size="10.00">/ArkScript/Ark/src/arkreactor</text>
<text text-anchor="start" x="503" y="-17" font-family="Helvetica,sans-Serif" font-size="10.00">/Compiler/Macros/Executors</text>
<text text-anchor="middle" x="565.25" y="-5.75" font-family="Helvetica,sans-Serif" font-size="10.00">/Symbol.cpp</text>
</a>
</g>
</g>
<!-- Node7&#45;&gt;Node8 -->
<g id="edge8_Node000007_Node000008" class="edge">
<title>Node7&#45;&gt;Node8</title>
<g id="a_edge8_Node000007_Node000008"><a xlink:title=" ">
<path fill="none" stroke="#63b8ff" d="M539.92,-78.74C544.15,-70.2 548.57,-61.24 552.52,-53.25"/>
<polygon fill="#63b8ff" stroke="#63b8ff" points="536.88,-77 535.59,-87.51 543.16,-80.1 536.88,-77"/>
</a>
</g>
</g>
</g>
</svg>
