<?xml version="1.0" encoding="UTF-8" standalone="no"?>
<!DOCTYPE svg PUBLIC "-//W3C//DTD SVG 1.1//EN"
 "http://www.w3.org/Graphics/SVG/1.1/DTD/svg11.dtd">
<!-- Generated by graphviz version 12.2.0 (20241103.1931)
 -->
<!-- Title: Ark::internal::NameResolutionPass Pages: 1 -->
<svg width="2077pt" height="412pt"
 viewBox="0.00 0.00 2076.50 412.25" xmlns="http://www.w3.org/2000/svg" xmlns:xlink="http://www.w3.org/1999/xlink">
<g id="graph0" class="graph" transform="scale(1 1) rotate(0) translate(4 408.25)">
<title>Ark::internal::NameResolutionPass</title>
<!-- Node1 -->
<g id="Node000001" class="node">
<title>Node1</title>
<g id="a_Node000001"><a xlink:title=" ">
<polygon fill="#999999" stroke="#666666" points="2068.5,-118.62 1898.75,-118.62 1898.75,-99.38 2068.5,-99.38 2068.5,-118.62"/>
<text text-anchor="middle" x="1983.62" y="-105.12" font-family="Helvetica,sans-Serif" font-size="10.00">Ark::internal::NameResolutionPass</text>
</a>
</g>
</g>
<!-- Node2 -->
<g id="Node000002" class="node">
<title>Node2</title>
<g id="a_Node000002"><a xlink:href="../../da/d7b/classArk_1_1internal_1_1Pass.html" target="_top" xlink:title="An interface to describe compiler passes.">
<polygon fill="white" stroke="#666666" points="1758.12,-268.62 1661.12,-268.62 1661.12,-249.38 1758.12,-249.38 1758.12,-268.62"/>
<text text-anchor="middle" x="1709.62" y="-255.12" font-family="Helvetica,sans-Serif" font-size="10.00">Ark::internal::Pass</text>
</a>
</g>
</g>
<!-- Node2&#45;&gt;Node1 -->
<g id="edge1_Node000001_Node000002" class="edge">
<title>Node2&#45;&gt;Node1</title>
<g id="a_edge1_Node000001_Node000002"><a xlink:title=" ">
<path fill="none" stroke="#63b8ff" d="M1769.55,-256.58C1803.92,-252.96 1847.01,-244.49 1880.75,-225 1927.4,-198.06 1963.6,-141.91 1977,-119.03"/>
<polygon fill="#63b8ff" stroke="#63b8ff" points="1769.39,-253.08 1759.76,-257.49 1770.04,-260.05 1769.39,-253.08"/>
</a>
</g>
</g>
<!-- Node3 -->
<g id="Node000003" class="node">
<title>Node3</title>
<g id="a_Node000003"><a xlink:href="../../d6/d2f/classArk_1_1internal_1_1Logger.html" target="_top" xlink:title=" ">
<polygon fill="white" stroke="#666666" points="1490.12,-276.62 1386.38,-276.62 1386.38,-257.38 1490.12,-257.38 1490.12,-276.62"/>
<text text-anchor="middle" x="1438.25" y="-263.12" font-family="Helvetica,sans-Serif" font-size="10.00">Ark::internal::Logger</text>
</a>
</g>
</g>
<!-- Node3&#45;&gt;Node2 -->
<g id="edge2_Node000002_Node000003" class="edge">
<title>Node3&#45;&gt;Node2</title>
<g id="a_edge2_Node000002_Node000003"><a xlink:title=" ">
<path fill="none" stroke="#9a32cd" stroke-dasharray="5,2" d="M1501.84,-265.14C1550.29,-263.7 1616.38,-261.74 1660.68,-260.42"/>
<polygon fill="#9a32cd" stroke="#9a32cd" points="1501.96,-261.64 1492.06,-265.43 1502.16,-268.63 1501.96,-261.64"/>
</a>
</g>
<text text-anchor="middle" x="1581.25" y="-265.7" font-family="Helvetica,sans-Serif" font-size="10.00" fill="grey"> m_logger</text>
</g>
<!-- Node4 -->
<g id="Node000004" class="node">
<title>Node4</title>
<g id="a_Node000004"><a xlink:title=" ">
<polygon fill="white" stroke="#666666" points="190.5,-297.62 131,-297.62 131,-278.38 190.5,-278.38 190.5,-297.62"/>
<text text-anchor="middle" x="160.75" y="-284.12" font-family="Helvetica,sans-Serif" font-size="10.00">std::string</text>
</a>
</g>
</g>
<!-- Node4&#45;&gt;Node3 -->
<g id="edge3_Node000003_Node000004" class="edge">
<title>Node4&#45;&gt;Node3</title>
<g id="a_edge3_Node000003_Node000004"><a xlink:title=" ">
<path fill="none" stroke="#9a32cd" stroke-dasharray="5,2" d="M173.06,-307.6C181.38,-320.45 193.77,-336.7 208.5,-347 261.83,-384.29 282.43,-393 347.5,-393 347.5,-393 347.5,-393 1157.5,-393 1270.16,-393 1387.61,-307 1425.04,-277.1"/>
<polygon fill="#9a32cd" stroke="#9a32cd" points="176.07,-305.81 167.86,-299.11 170.1,-309.47 176.07,-305.81"/>
</a>
</g>
<text text-anchor="middle" x="755.38" y="-394.75" font-family="Helvetica,sans-Serif" font-size="10.00" fill="grey"> m_name</text>
</g>
<!-- Node6 -->
<g id="Node000006" class="node">
<title>Node6</title>
<g id="a_Node000006"><a xlink:title=" ">
<polygon fill="white" stroke="#666666" points="1217.75,-325.12 1095.25,-325.12 1095.25,-260.88 1217.75,-260.88 1217.75,-325.12"/>
<text text-anchor="start" x="1103.25" y="-311.62" font-family="Helvetica,sans-Serif" font-size="10.00">std::unordered_map</text>
<text text-anchor="start" x="1103.25" y="-300.38" font-family="Helvetica,sans-Serif" font-size="10.00">&lt; std::string, std::</text>
<text text-anchor="start" x="1103.25" y="-289.12" font-family="Helvetica,sans-Serif" font-size="10.00">chrono::time_point&lt; std</text>
<text text-anchor="start" x="1103.25" y="-277.88" font-family="Helvetica,sans-Serif" font-size="10.00">::chrono::high_resolution</text>
<text text-anchor="middle" x="1156.5" y="-266.62" font-family="Helvetica,sans-Serif" font-size="10.00">_clock &gt; &gt;</text>
</a>
</g>
</g>
<!-- Node4&#45;&gt;Node6 -->
<g id="edge6_Node000006_Node000004" class="edge">
<title>Node4&#45;&gt;Node6</title>
<g id="a_edge6_Node000006_Node000004"><a xlink:title=" ">
<path fill="none" stroke="#9a32cd" stroke-dasharray="5,2" d="M182.29,-305.06C190.1,-310.84 199.33,-316.86 208.5,-321 266.38,-347.12 284.01,-354 347.5,-354 347.5,-354 347.5,-354 859.62,-354 954.44,-354 981.66,-367.15 1072.5,-340 1084.08,-336.54 1095.81,-331.23 1106.65,-325.41"/>
<polygon fill="#9a32cd" stroke="#9a32cd" points="184.51,-302.35 174.47,-298.97 180.21,-307.88 184.51,-302.35"/>
</a>
</g>
<text text-anchor="middle" x="645.38" y="-355.75" font-family="Helvetica,sans-Serif" font-size="10.00" fill="grey"> keys</text>
</g>
<!-- Node10 -->
<g id="Node000010" class="node">
<title>Node10</title>
<g id="a_Node000010"><a xlink:title=" ">
<polygon fill="white" stroke="#666666" points="1218.5,-242.62 1094.5,-242.62 1094.5,-223.38 1218.5,-223.38 1218.5,-242.62"/>
<text text-anchor="middle" x="1156.5" y="-229.12" font-family="Helvetica,sans-Serif" font-size="10.00">std::vector&lt; std::string &gt;</text>
</a>
</g>
</g>
<!-- Node4&#45;&gt;Node10 -->
<g id="edge11_Node000010_Node000004" class="edge">
<title>Node4&#45;&gt;Node10</title>
<g id="a_edge11_Node000010_Node000004"><a xlink:title=" ">
<path fill="none" stroke="#9a32cd" stroke-dasharray="5,2" d="M202.24,-292.53C204.35,-292.7 206.45,-292.86 208.5,-293 533.23,-314.77 615.08,-308.56 940.5,-313 999.16,-313.8 1025.51,-348.13 1072.5,-313 1095.14,-296.08 1070.49,-271.96 1090.5,-252 1094.16,-248.35 1098.49,-245.39 1103.14,-242.99"/>
<polygon fill="#9a32cd" stroke="#9a32cd" points="202.68,-289.06 192.4,-291.62 202.04,-296.03 202.68,-289.06"/>
</a>
</g>
<text text-anchor="middle" x="645.38" y="-312.66" font-family="Helvetica,sans-Serif" font-size="10.00" fill="grey"> elements</text>
</g>
<!-- Node12 -->
<g id="Node000012" class="node">
<title>Node12</title>
<g id="a_Node000012"><a xlink:href="../../dc/d9e/classArk_1_1internal_1_1Node.html" target="_top" xlink:title="A node of an Abstract Syntax Tree for ArkScript.">
<polygon fill="white" stroke="#666666" points="907.5,-82.62 809.75,-82.62 809.75,-63.38 907.5,-63.38 907.5,-82.62"/>
<text text-anchor="middle" x="858.62" y="-69.12" font-family="Helvetica,sans-Serif" font-size="10.00">Ark::internal::Node</text>
</a>
</g>
</g>
<!-- Node4&#45;&gt;Node12 -->
<g id="edge17_Node000012_Node000004" class="edge">
<title>Node4&#45;&gt;Node12</title>
<g id="a_edge17_Node000012_Node000004"><a xlink:title=" ">
<path fill="none" stroke="#9a32cd" stroke-dasharray="5,2" d="M185.98,-272.21C193.03,-268.12 200.89,-264.02 208.5,-261 301.88,-223.99 329.86,-228.22 428.5,-209.25 485.1,-198.36 511.28,-225.42 556.75,-190 573.1,-177.27 559.11,-160.58 574.75,-147 592.57,-131.52 733.82,-99.47 809.74,-83.1"/>
<polygon fill="#9a32cd" stroke="#9a32cd" points="184.36,-269.1 177.64,-277.29 188,-275.08 184.36,-269.1"/>
</a>
</g>
<text text-anchor="middle" x="492.62" y="-233.5" font-family="Helvetica,sans-Serif" font-size="10.00" fill="grey"> m_after_comment</text>
<text text-anchor="middle" x="492.62" y="-222.25" font-family="Helvetica,sans-Serif" font-size="10.00" fill="grey">m_comment</text>
<text text-anchor="middle" x="492.62" y="-211" font-family="Helvetica,sans-Serif" font-size="10.00" fill="grey">m_filename</text>
</g>
<!-- Node15 -->
<g id="Node000015" class="node">
<title>Node15</title>
<g id="a_Node000015"><a xlink:title=" ">
<polygon fill="white" stroke="#666666" points="693.88,-53.25 596.88,-53.25 596.88,-22.75 693.88,-22.75 693.88,-53.25"/>
<text text-anchor="start" x="604.88" y="-39.75" font-family="Helvetica,sans-Serif" font-size="10.00">std::unordered_set</text>
<text text-anchor="middle" x="645.38" y="-28.5" font-family="Helvetica,sans-Serif" font-size="10.00">&lt; std::string &gt;</text>
</a>
</g>
</g>
<!-- Node4&#45;&gt;Node15 -->
<g id="edge19_Node000015_Node000004" class="edge">
<title>Node4&#45;&gt;Node15</title>
<g id="a_edge19_Node000015_Node000004"><a xlink:title=" ">
<path fill="none" stroke="#9a32cd" stroke-dasharray="5,2" d="M167.1,-267.1C179.62,-222.88 215.3,-120.06 286.5,-72.75 381.52,-9.62 523.25,-18.91 596.58,-29.4"/>
<polygon fill="#9a32cd" stroke="#9a32cd" points="163.74,-266.12 164.51,-276.69 170.5,-267.94 163.74,-266.12"/>
</a>
</g>
<text text-anchor="middle" x="348.5" y="-74.5" font-family="Helvetica,sans-Serif" font-size="10.00" fill="grey"> keys</text>
</g>
<!-- Node23 -->
<g id="Node000023" class="node">
<title>Node23</title>
<g id="a_Node000023"><a xlink:href="../../d1/dcf/structArk_1_1internal_1_1Declaration.html" target="_top" xlink:title=" ">
<polygon fill="white" stroke="#666666" points="410.5,-278.62 286.5,-278.62 286.5,-259.38 410.5,-259.38 410.5,-278.62"/>
<text text-anchor="middle" x="348.5" y="-265.12" font-family="Helvetica,sans-Serif" font-size="10.00">Ark::internal::Declaration</text>
</a>
</g>
</g>
<!-- Node4&#45;&gt;Node23 -->
<g id="edge32_Node000023_Node000004" class="edge">
<title>Node4&#45;&gt;Node23</title>
<g id="a_edge32_Node000023_Node000004"><a xlink:title=" ">
<path fill="none" stroke="#9a32cd" stroke-dasharray="5,2" d="M194.26,-274.2C198.96,-272.69 203.8,-271.38 208.5,-270.5 233.65,-265.81 261.8,-264.74 286.16,-265.11"/>
<polygon fill="#9a32cd" stroke="#9a32cd" points="193.31,-270.83 185.08,-277.5 195.67,-277.41 193.31,-270.83"/>
</a>
</g>
<text text-anchor="middle" x="238.5" y="-283.5" font-family="Helvetica,sans-Serif" font-size="10.00" fill="grey"> name</text>
<text text-anchor="middle" x="238.5" y="-272.25" font-family="Helvetica,sans-Serif" font-size="10.00" fill="grey">original_name</text>
</g>
<!-- Node5 -->
<g id="Node000005" class="node">
<title>Node5</title>
<g id="a_Node000005"><a xlink:title=" ">
<polygon fill="white" stroke="#666666" points="94,-303.25 0,-303.25 0,-272.75 94,-272.75 94,-303.25"/>
<text text-anchor="start" x="8" y="-289.75" font-family="Helvetica,sans-Serif" font-size="10.00">std::basic_string&lt;</text>
<text text-anchor="middle" x="47" y="-278.5" font-family="Helvetica,sans-Serif" font-size="10.00"> Char &gt;</text>
</a>
</g>
</g>
<!-- Node5&#45;&gt;Node4 -->
<g id="edge4_Node000004_Node000005" class="edge">
<title>Node5&#45;&gt;Node4</title>
<g id="a_edge4_Node000004_Node000005"><a xlink:title=" ">
<path fill="none" stroke="#63b8ff" d="M105.71,-288C114.32,-288 122.87,-288 130.55,-288"/>
<polygon fill="#63b8ff" stroke="#63b8ff" points="105.93,-284.5 95.93,-288 105.93,-291.5 105.93,-284.5"/>
</a>
</g>
</g>
<!-- Node6&#45;&gt;Node3 -->
<g id="edge5_Node000003_Node000006" class="edge">
<title>Node6&#45;&gt;Node3</title>
<g id="a_edge5_Node000003_Node000006"><a xlink:title=" ">
<path fill="none" stroke="#9a32cd" stroke-dasharray="5,2" d="M1229.37,-286.32C1278.39,-281.76 1342.13,-275.84 1386.04,-271.76"/>
<polygon fill="#9a32cd" stroke="#9a32cd" points="1229.34,-282.81 1219.71,-287.22 1229.99,-289.78 1229.34,-282.81"/>
</a>
</g>
<text text-anchor="middle" x="1287.75" y="-286.34" font-family="Helvetica,sans-Serif" font-size="10.00" fill="grey"> m_trace_starts</text>
</g>
<!-- Node7 -->
<g id="Node000007" class="node">
<title>Node7</title>
<g id="a_Node000007"><a xlink:title=" ">
<polygon fill="white" stroke="#666666" points="909.75,-275.25 807.5,-275.25 807.5,-244.75 909.75,-244.75 909.75,-275.25"/>
<text text-anchor="start" x="815.5" y="-261.75" font-family="Helvetica,sans-Serif" font-size="10.00">std::unordered_map</text>
<text text-anchor="middle" x="858.62" y="-250.5" font-family="Helvetica,sans-Serif" font-size="10.00">&lt; K, T &gt;</text>
</a>
</g>
</g>
<!-- Node7&#45;&gt;Node6 -->
<g id="edge7_Node000006_Node000007" class="edge">
<title>Node7&#45;&gt;Node6</title>
<g id="a_edge7_Node000006_Node000007"><a xlink:title=" ">
<path fill="none" stroke="orange" stroke-dasharray="5,2" d="M921.34,-266.88C972.33,-272.57 1044.3,-280.6 1094.96,-286.25"/>
<polygon fill="orange" stroke="orange" points="921.98,-263.43 911.66,-265.8 921.21,-270.39 921.98,-263.43"/>
</a>
</g>
<text text-anchor="start" x="942" y="-318.75" font-family="Helvetica,sans-Serif" font-size="10.00" fill="grey"> &lt; std::string, std</text>
<text text-anchor="start" x="942" y="-307.5" font-family="Helvetica,sans-Serif" font-size="10.00" fill="grey">::chrono::time_point</text>
<text text-anchor="start" x="942" y="-296.25" font-family="Helvetica,sans-Serif" font-size="10.00" fill="grey">&lt; std::chrono::high_resolution</text>
<text text-anchor="middle" x="1006.5" y="-285" font-family="Helvetica,sans-Serif" font-size="10.00" fill="grey">_clock &gt; &gt;</text>
</g>
<!-- Node8 -->
<g id="Node000008" class="node">
<title>Node8</title>
<g id="a_Node000008"><a xlink:title=" ">
<polygon fill="white" stroke="#666666" points="175.15,-104.62 146.35,-104.62 146.35,-85.38 175.15,-85.38 175.15,-104.62"/>
<text text-anchor="middle" x="160.75" y="-91.12" font-family="Helvetica,sans-Serif" font-size="10.00">K</text>
</a>
</g>
</g>
<!-- Node8&#45;&gt;Node7 -->
<g id="edge8_Node000007_Node000008" class="edge">
<title>Node8&#45;&gt;Node7</title>
<g id="a_edge8_Node000007_Node000008"><a xlink:title=" ">
<path fill="none" stroke="#9a32cd" stroke-dasharray="5,2" d="M178.97,-112.73C187.29,-120.47 197.78,-129.1 208.5,-135 240.28,-152.49 250.85,-152.3 286.5,-159 345.68,-170.12 509.97,-140.83 556.75,-178.75 579.12,-196.88 552.32,-222.93 574.75,-241 640.58,-294.04 745.4,-284.46 807.27,-272.41"/>
<polygon fill="#9a32cd" stroke="#9a32cd" points="181.58,-110.39 171.98,-105.92 176.7,-115.41 181.58,-110.39"/>
</a>
</g>
<text text-anchor="middle" x="492.62" y="-180.5" font-family="Helvetica,sans-Serif" font-size="10.00" fill="grey"> keys</text>
</g>
<!-- Node16 -->
<g id="Node000016" class="node">
<title>Node16</title>
<g id="a_Node000016"><a xlink:title=" ">
<polygon fill="white" stroke="#666666" points="409.38,-149.62 287.62,-149.62 287.62,-130.38 409.38,-130.38 409.38,-149.62"/>
<text text-anchor="middle" x="348.5" y="-136.12" font-family="Helvetica,sans-Serif" font-size="10.00">std::unordered_set&lt; K &gt;</text>
</a>
</g>
</g>
<!-- Node8&#45;&gt;Node16 -->
<g id="edge21_Node000016_Node000008" class="edge">
<title>Node8&#45;&gt;Node16</title>
<g id="a_edge21_Node000016_Node000008"><a xlink:title=" ">
<path fill="none" stroke="#9a32cd" stroke-dasharray="5,2" d="M186.29,-100.94C216.74,-108.32 269.14,-121.02 305.91,-129.92"/>
<polygon fill="#9a32cd" stroke="#9a32cd" points="187.42,-97.62 176.88,-98.67 185.77,-104.42 187.42,-97.62"/>
</a>
</g>
<text text-anchor="middle" x="238.5" y="-121.94" font-family="Helvetica,sans-Serif" font-size="10.00" fill="grey"> keys</text>
</g>
<!-- Node9 -->
<g id="Node000009" class="node">
<title>Node9</title>
<g id="a_Node000009"><a xlink:title=" ">
<polygon fill="white" stroke="#666666" points="659.77,-175.62 630.98,-175.62 630.98,-156.38 659.77,-156.38 659.77,-175.62"/>
<text text-anchor="middle" x="645.38" y="-162.12" font-family="Helvetica,sans-Serif" font-size="10.00">T</text>
</a>
</g>
</g>
<!-- Node9&#45;&gt;Node7 -->
<g id="edge9_Node000007_Node000009" class="edge">
<title>Node9&#45;&gt;Node7</title>
<g id="a_edge9_Node000007_Node000009"><a xlink:title=" ">
<path fill="none" stroke="#9a32cd" stroke-dasharray="5,2" d="M671.12,-169.85C704.11,-175.38 760.25,-186.28 776.75,-198.75 789.54,-208.41 782.99,-219.11 794.75,-230 800.79,-235.59 808.05,-240.32 815.47,-244.26"/>
<polygon fill="#9a32cd" stroke="#9a32cd" points="672.06,-166.46 661.63,-168.31 670.93,-173.37 672.06,-166.46"/>
</a>
</g>
<text text-anchor="middle" x="755.38" y="-200.5" font-family="Helvetica,sans-Serif" font-size="10.00" fill="grey"> elements</text>
</g>
<!-- Node11 -->
<g id="Node000011" class="node">
<title>Node11</title>
<g id="a_Node000011"><a xlink:title=" ">
<polygon fill="white" stroke="#666666" points="901.88,-139.62 815.38,-139.62 815.38,-120.38 901.88,-120.38 901.88,-139.62"/>
<text text-anchor="middle" x="858.62" y="-126.12" font-family="Helvetica,sans-Serif" font-size="10.00">std::vector&lt; T &gt;</text>
</a>
</g>
</g>
<!-- Node9&#45;&gt;Node11 -->
<g id="edge13_Node000011_Node000009" class="edge">
<title>Node9&#45;&gt;Node11</title>
<g id="a_edge13_Node000011_Node000009"><a xlink:title=" ">
<path fill="none" stroke="#9a32cd" stroke-dasharray="5,2" d="M671.27,-161.63C688.8,-158.56 712.83,-154.37 734,-150.75 760.92,-146.15 791.16,-141.07 814.99,-137.09"/>
<polygon fill="#9a32cd" stroke="#9a32cd" points="670.77,-158.16 661.52,-163.34 671.98,-165.06 670.77,-158.16"/>
</a>
</g>
<text text-anchor="middle" x="755.38" y="-152.5" font-family="Helvetica,sans-Serif" font-size="10.00" fill="grey"> elements</text>
</g>
<!-- Node24 -->
<g id="Node000024" class="node">
<title>Node24</title>
<g id="a_Node000024"><a xlink:title=" ">
<polygon fill="white" stroke="#666666" points="910.88,-176.62 806.38,-176.62 806.38,-157.38 910.88,-157.38 910.88,-176.62"/>
<text text-anchor="middle" x="858.62" y="-163.12" font-family="Helvetica,sans-Serif" font-size="10.00">std::unique_ptr&lt; T &gt;</text>
</a>
</g>
</g>
<!-- Node9&#45;&gt;Node24 -->
<g id="edge35_Node000024_Node000009" class="edge">
<title>Node9&#45;&gt;Node24</title>
<g id="a_edge35_Node000024_Node000009"><a xlink:title=" ">
<path fill="none" stroke="#9a32cd" stroke-dasharray="5,2" d="M671.56,-166.12C704.64,-166.28 763.52,-166.55 806.2,-166.76"/>
<polygon fill="#9a32cd" stroke="#9a32cd" points="671.77,-162.62 661.75,-166.07 671.73,-169.62 671.77,-162.62"/>
</a>
</g>
<text text-anchor="middle" x="755.38" y="-168.34" font-family="Helvetica,sans-Serif" font-size="10.00" fill="grey"> ptr</text>
</g>
<!-- Node10&#45;&gt;Node1 -->
<g id="edge25_Node000001_Node000010" class="edge">
<title>Node10&#45;&gt;Node1</title>
<g id="a_edge25_Node000001_Node000010"><a xlink:title=" ">
<path fill="none" stroke="#9a32cd" stroke-dasharray="5,2" d="M1230.32,-226.29C1361.3,-213.55 1644.94,-182.87 1880.75,-136 1903.72,-131.43 1929.19,-124.68 1948.92,-119.08"/>
<polygon fill="#9a32cd" stroke="#9a32cd" points="1230.01,-222.81 1220.39,-227.25 1230.68,-229.77 1230.01,-222.81"/>
</a>
</g>
<text text-anchor="middle" x="1581.25" y="-191.66" font-family="Helvetica,sans-Serif" font-size="10.00" fill="grey"> m_plugin_names</text>
</g>
<!-- Node10&#45;&gt;Node3 -->
<g id="edge10_Node000003_Node000010" class="edge">
<title>Node10&#45;&gt;Node3</title>
<g id="a_edge10_Node000003_Node000010"><a xlink:title=" ">
<path fill="none" stroke="#9a32cd" stroke-dasharray="5,2" d="M1230.07,-241.82C1279.09,-247.78 1342.59,-255.49 1386.3,-260.81"/>
<polygon fill="#9a32cd" stroke="#9a32cd" points="1230.74,-238.38 1220.39,-240.64 1229.9,-245.33 1230.74,-238.38"/>
</a>
</g>
<text text-anchor="middle" x="1287.75" y="-255.8" font-family="Helvetica,sans-Serif" font-size="10.00" fill="grey"> m_active_traces</text>
</g>
<!-- Node11&#45;&gt;Node10 -->
<g id="edge12_Node000010_Node000011" class="edge">
<title>Node11&#45;&gt;Node10</title>
<g id="a_edge12_Node000010_Node000011"><a xlink:title=" ">
<path fill="none" stroke="orange" stroke-dasharray="5,2" d="M912.36,-140.43C916.07,-142.51 919.52,-145.01 922.5,-148 943.09,-168.6 918.18,-192.3 940.5,-211 984.51,-247.86 1052.71,-248.52 1100.47,-243.08"/>
<polygon fill="orange" stroke="orange" points="914.01,-137.33 903.45,-136.42 911.13,-143.71 914.01,-137.33"/>
</a>
</g>
<text text-anchor="middle" x="1006.5" y="-247.31" font-family="Helvetica,sans-Serif" font-size="10.00" fill="grey"> &lt; std::string &gt;</text>
</g>
<!-- Node17 -->
<g id="Node000017" class="node">
<title>Node17</title>
<g id="a_Node000017"><a xlink:title=" ">
<polygon fill="white" stroke="#666666" points="1218.12,-58.25 1094.88,-58.25 1094.88,-27.75 1218.12,-27.75 1218.12,-58.25"/>
<text text-anchor="start" x="1102.88" y="-44.75" font-family="Helvetica,sans-Serif" font-size="10.00">std::vector&lt; Ark::internal</text>
<text text-anchor="middle" x="1156.5" y="-33.5" font-family="Helvetica,sans-Serif" font-size="10.00">::Node &gt;</text>
</a>
</g>
</g>
<!-- Node11&#45;&gt;Node17 -->
<g id="edge24_Node000017_Node000011" class="edge">
<title>Node11&#45;&gt;Node17</title>
<g id="a_edge24_Node000017_Node000011"><a xlink:title=" ">
<path fill="none" stroke="orange" stroke-dasharray="5,2" d="M904.62,-116.77C957.65,-101.18 1045.69,-75.29 1102.12,-58.7"/>
<polygon fill="orange" stroke="orange" points="903.91,-113.33 895.31,-119.51 905.89,-120.04 903.91,-113.33"/>
</a>
</g>
<text text-anchor="middle" x="1006.5" y="-106.04" font-family="Helvetica,sans-Serif" font-size="10.00" fill="grey"> &lt; Ark::internal::Node &gt;</text>
</g>
<!-- Node19 -->
<g id="Node000019" class="node">
<title>Node19</title>
<g id="a_Node000019"><a xlink:title=" ">
<polygon fill="white" stroke="#666666" points="1523.5,-147.25 1353,-147.25 1353,-116.75 1523.5,-116.75 1523.5,-147.25"/>
<text text-anchor="start" x="1361" y="-133.75" font-family="Helvetica,sans-Serif" font-size="10.00">std::vector&lt; std::unique</text>
<text text-anchor="middle" x="1438.25" y="-122.5" font-family="Helvetica,sans-Serif" font-size="10.00">_ptr&lt; Ark::internal::StaticScope &gt; &gt;</text>
</a>
</g>
</g>
<!-- Node11&#45;&gt;Node19 -->
<g id="edge36_Node000019_Node000011" class="edge">
<title>Node11&#45;&gt;Node19</title>
<g id="a_edge36_Node000019_Node000011"><a xlink:title=" ">
<path fill="none" stroke="orange" stroke-dasharray="5,2" d="M913.51,-130.19C1014.34,-130.54 1232.18,-131.29 1352.73,-131.71"/>
<polygon fill="orange" stroke="orange" points="913.62,-126.69 903.61,-130.15 913.6,-133.69 913.62,-126.69"/>
</a>
</g>
<text text-anchor="start" x="1090.5" y="-144.23" font-family="Helvetica,sans-Serif" font-size="10.00" fill="grey"> &lt; std::unique_ptr&lt;</text>
<text text-anchor="middle" x="1156.5" y="-132.98" font-family="Helvetica,sans-Serif" font-size="10.00" fill="grey"> Ark::internal::StaticScope &gt; &gt;</text>
</g>
<!-- Node12&#45;&gt;Node1 -->
<g id="edge14_Node000001_Node000012" class="edge">
<title>Node12&#45;&gt;Node1</title>
<g id="a_edge14_Node000001_Node000012"><a xlink:title=" ">
<path fill="none" stroke="#9a32cd" stroke-dasharray="5,2" d="M919.39,-75.97C1001.96,-79.8 1155.62,-86 1286.75,-86 1286.75,-86 1286.75,-86 1710.62,-86 1776.14,-86 1850.22,-92.71 1904.51,-98.88"/>
<polygon fill="#9a32cd" stroke="#9a32cd" points="919.64,-72.47 909.48,-75.5 919.31,-79.47 919.64,-72.47"/>
</a>
</g>
<text text-anchor="middle" x="1438.25" y="-87.75" font-family="Helvetica,sans-Serif" font-size="10.00" fill="grey"> m_ast</text>
</g>
<!-- Node12&#45;&gt;Node17 -->
<g id="edge23_Node000017_Node000012" class="edge">
<title>Node12&#45;&gt;Node17</title>
<g id="a_edge23_Node000017_Node000012"><a xlink:title=" ">
<path fill="none" stroke="#9a32cd" stroke-dasharray="5,2" d="M895.91,-59.29C909.67,-54.73 925.61,-50.19 940.5,-47.75 991.9,-39.33 1051.12,-38.68 1094.38,-39.83"/>
<polygon fill="#9a32cd" stroke="#9a32cd" points="895.14,-55.85 886.83,-62.42 897.43,-62.47 895.14,-55.85"/>
</a>
</g>
<text text-anchor="middle" x="1006.5" y="-49.5" font-family="Helvetica,sans-Serif" font-size="10.00" fill="grey"> elements</text>
</g>
<!-- Node13 -->
<g id="Node000013" class="node">
<title>Node13</title>
<g id="a_Node000013"><a xlink:href="../../dc/dda/structArk_1_1internal_1_1FileSpan.html" target="_top" xlink:title="Describes a span for a node/atom in a file, its start position and end position.">
<polygon fill="white" stroke="#666666" points="701.75,-92.62 589,-92.62 589,-73.38 701.75,-73.38 701.75,-92.62"/>
<text text-anchor="middle" x="645.38" y="-79.12" font-family="Helvetica,sans-Serif" font-size="10.00">Ark::internal::FileSpan</text>
</a>
</g>
</g>
<!-- Node13&#45;&gt;Node12 -->
<g id="edge15_Node000012_Node000013" class="edge">
<title>Node13&#45;&gt;Node12</title>
<g id="a_edge15_Node000012_Node000013"><a xlink:title=" ">
<path fill="none" stroke="#9a32cd" stroke-dasharray="5,2" d="M713.25,-75.25C720.25,-74.65 727.27,-74.12 734,-73.75 758.86,-72.37 786.57,-72.08 809.45,-72.19"/>
<polygon fill="#9a32cd" stroke="#9a32cd" points="713.08,-71.75 703.44,-76.16 713.72,-78.72 713.08,-71.75"/>
</a>
</g>
<text text-anchor="middle" x="755.38" y="-75.5" font-family="Helvetica,sans-Serif" font-size="10.00" fill="grey"> m_pos</text>
</g>
<!-- Node14 -->
<g id="Node000014" class="node">
<title>Node14</title>
<g id="a_Node000014"><a xlink:href="../../d7/df6/structArk_1_1internal_1_1FilePos.html" target="_top" xlink:title=" ">
<polygon fill="white" stroke="#666666" points="402.25,-112.62 294.75,-112.62 294.75,-93.38 402.25,-93.38 402.25,-112.62"/>
<text text-anchor="middle" x="348.5" y="-99.12" font-family="Helvetica,sans-Serif" font-size="10.00">Ark::internal::FilePos</text>
</a>
</g>
</g>
<!-- Node14&#45;&gt;Node13 -->
<g id="edge16_Node000013_Node000014" class="edge">
<title>Node14&#45;&gt;Node13</title>
<g id="a_edge16_Node000013_Node000014"><a xlink:title=" ">
<path fill="none" stroke="#9a32cd" stroke-dasharray="5,2" d="M414.04,-98.62C466.26,-95.08 539.05,-90.14 588.74,-86.77"/>
<polygon fill="#9a32cd" stroke="#9a32cd" points="413.81,-95.13 404.07,-99.3 414.28,-102.11 413.81,-95.13"/>
</a>
</g>
<text text-anchor="middle" x="492.62" y="-99.39" font-family="Helvetica,sans-Serif" font-size="10.00" fill="grey"> start</text>
</g>
<!-- Node15&#45;&gt;Node1 -->
<g id="edge18_Node000001_Node000015" class="edge">
<title>Node15&#45;&gt;Node1</title>
<g id="a_edge18_Node000001_Node000015"><a xlink:title=" ">
<path fill="none" stroke="#9a32cd" stroke-dasharray="5,2" d="M705.33,-21.6C747.42,-11.31 805.57,0 857.62,0 857.62,0 857.62,0 1710.62,0 1816.44,0 1929.87,-71.96 1968.68,-98.94"/>
<polygon fill="#9a32cd" stroke="#9a32cd" points="704.5,-18.2 695.65,-24.02 706.2,-24.99 704.5,-18.2"/>
</a>
</g>
<text text-anchor="middle" x="1287.75" y="-13" font-family="Helvetica,sans-Serif" font-size="10.00" fill="grey"> m_defined_symbols</text>
<text text-anchor="middle" x="1287.75" y="-1.75" font-family="Helvetica,sans-Serif" font-size="10.00" fill="grey">m_language_symbols</text>
</g>
<!-- Node16&#45;&gt;Node15 -->
<g id="edge20_Node000015_Node000016" class="edge">
<title>Node16&#45;&gt;Node15</title>
<g id="a_edge20_Node000015_Node000016"><a xlink:title=" ">
<path fill="none" stroke="orange" stroke-dasharray="5,2" d="M408.54,-123.72C409.21,-123.17 409.86,-122.59 410.5,-122 427.24,-106.39 410.83,-88.3 428.5,-73.75 434.96,-68.43 534.85,-53.49 596.46,-44.7"/>
<polygon fill="orange" stroke="orange" points="406.74,-120.71 400.27,-129.1 410.56,-126.58 406.74,-120.71"/>
</a>
</g>
<text text-anchor="middle" x="492.62" y="-75.5" font-family="Helvetica,sans-Serif" font-size="10.00" fill="grey"> &lt; std::string &gt;</text>
</g>
<!-- Node22 -->
<g id="Node000022" class="node">
<title>Node22</title>
<g id="a_Node000022"><a xlink:title=" ">
<polygon fill="white" stroke="#666666" points="716,-232.25 574.75,-232.25 574.75,-201.75 716,-201.75 716,-232.25"/>
<text text-anchor="start" x="582.75" y="-218.75" font-family="Helvetica,sans-Serif" font-size="10.00">std::unordered_set</text>
<text text-anchor="middle" x="645.38" y="-207.5" font-family="Helvetica,sans-Serif" font-size="10.00">&lt; Ark::internal::Declaration &gt;</text>
</a>
</g>
</g>
<!-- Node16&#45;&gt;Node22 -->
<g id="edge33_Node000022_Node000016" class="edge">
<title>Node16&#45;&gt;Node22</title>
<g id="a_edge33_Node000022_Node000016"><a xlink:title=" ">
<path fill="none" stroke="orange" stroke-dasharray="5,2" d="M397.13,-127.6C442.14,-118.79 509.6,-113.41 556.75,-144.75 573.07,-155.6 560.96,-171.07 574.75,-185 581.3,-191.62 589.47,-197.01 597.89,-201.35"/>
<polygon fill="orange" stroke="orange" points="396.47,-124.16 387.4,-129.65 397.91,-131.01 396.47,-124.16"/>
</a>
</g>
<text text-anchor="middle" x="492.62" y="-146.5" font-family="Helvetica,sans-Serif" font-size="10.00" fill="grey"> &lt; Ark::internal::Declaration &gt;</text>
</g>
<!-- Node17&#45;&gt;Node1 -->
<g id="edge22_Node000001_Node000017" class="edge">
<title>Node17&#45;&gt;Node1</title>
<g id="a_edge22_Node000001_Node000017"><a xlink:title=" ">
<path fill="none" stroke="#9a32cd" stroke-dasharray="5,2" d="M1229.7,-38.55C1360.82,-32.09 1646.23,-25.48 1880.75,-72 1909.36,-77.68 1940.67,-90.04 1960.92,-98.92"/>
<polygon fill="#9a32cd" stroke="#9a32cd" points="1229.57,-35.05 1219.76,-39.06 1229.93,-42.04 1229.57,-35.05"/>
</a>
</g>
<text text-anchor="middle" x="1581.25" y="-41.58" font-family="Helvetica,sans-Serif" font-size="10.00" fill="grey"> m_symbol_nodes</text>
</g>
<!-- Node18 -->
<g id="Node000018" class="node">
<title>Node18</title>
<g id="a_Node000018"><a xlink:href="../../dd/d92/classArk_1_1internal_1_1ScopeResolver.html" target="_top" xlink:title=" ">
<polygon fill="white" stroke="#666666" points="1780.25,-135.62 1639,-135.62 1639,-116.38 1780.25,-116.38 1780.25,-135.62"/>
<text text-anchor="middle" x="1709.62" y="-122.12" font-family="Helvetica,sans-Serif" font-size="10.00">Ark::internal::ScopeResolver</text>
</a>
</g>
</g>
<!-- Node18&#45;&gt;Node1 -->
<g id="edge26_Node000001_Node000018" class="edge">
<title>Node18&#45;&gt;Node1</title>
<g id="a_edge26_Node000001_Node000018"><a xlink:title=" ">
<path fill="none" stroke="#9a32cd" stroke-dasharray="5,2" d="M1791.84,-120.92C1825.43,-118.82 1864.37,-116.39 1898.27,-114.27"/>
<polygon fill="#9a32cd" stroke="#9a32cd" points="1791.94,-117.41 1782.18,-121.53 1792.38,-124.4 1791.94,-117.41"/>
</a>
</g>
<text text-anchor="middle" x="1839.5" y="-122.25" font-family="Helvetica,sans-Serif" font-size="10.00" fill="grey"> m_scope_resolver</text>
</g>
<!-- Node19&#45;&gt;Node18 -->
<g id="edge27_Node000018_Node000019" class="edge">
<title>Node19&#45;&gt;Node18</title>
<g id="a_edge27_Node000018_Node000019"><a xlink:title=" ">
<path fill="none" stroke="#9a32cd" stroke-dasharray="5,2" d="M1535.19,-129.86C1569.42,-129.1 1607.28,-128.26 1638.88,-127.55"/>
<polygon fill="#9a32cd" stroke="#9a32cd" points="1535.18,-126.36 1525.26,-130.08 1535.33,-133.36 1535.18,-126.36"/>
</a>
</g>
<text text-anchor="middle" x="1581.25" y="-131.46" font-family="Helvetica,sans-Serif" font-size="10.00" fill="grey"> m_scopes</text>
</g>
<!-- Node20 -->
<g id="Node000020" class="node">
<title>Node20</title>
<g id="a_Node000020"><a xlink:title=" ">
<polygon fill="white" stroke="#666666" points="1217.38,-203.25 1095.62,-203.25 1095.62,-172.75 1217.38,-172.75 1217.38,-203.25"/>
<text text-anchor="start" x="1103.62" y="-189.75" font-family="Helvetica,sans-Serif" font-size="10.00">std::unique_ptr&lt; Ark</text>
<text text-anchor="middle" x="1156.5" y="-178.5" font-family="Helvetica,sans-Serif" font-size="10.00">::internal::StaticScope &gt;</text>
</a>
</g>
</g>
<!-- Node20&#45;&gt;Node19 -->
<g id="edge28_Node000019_Node000020" class="edge">
<title>Node20&#45;&gt;Node19</title>
<g id="a_edge28_Node000019_Node000020"><a xlink:title=" ">
<path fill="none" stroke="#9a32cd" stroke-dasharray="5,2" d="M1229.02,-173.68C1268.64,-165.75 1317.96,-155.88 1358.65,-147.73"/>
<polygon fill="#9a32cd" stroke="#9a32cd" points="1228.46,-170.23 1219.34,-175.62 1229.83,-177.09 1228.46,-170.23"/>
</a>
</g>
<text text-anchor="middle" x="1287.75" y="-171.64" font-family="Helvetica,sans-Serif" font-size="10.00" fill="grey"> elements</text>
</g>
<!-- Node21 -->
<g id="Node000021" class="node">
<title>Node21</title>
<g id="a_Node000021"><a xlink:href="../../d3/d8e/classArk_1_1internal_1_1StaticScope.html" target="_top" xlink:title=" ">
<polygon fill="white" stroke="#666666" points="922.5,-220.62 794.75,-220.62 794.75,-201.38 922.5,-201.38 922.5,-220.62"/>
<text text-anchor="middle" x="858.62" y="-207.12" font-family="Helvetica,sans-Serif" font-size="10.00">Ark::internal::StaticScope</text>
</a>
</g>
</g>
<!-- Node21&#45;&gt;Node20 -->
<g id="edge29_Node000020_Node000021" class="edge">
<title>Node21&#45;&gt;Node20</title>
<g id="a_edge29_Node000020_Node000021"><a xlink:title=" ">
<path fill="none" stroke="#9a32cd" stroke-dasharray="5,2" d="M933.91,-200.42C936.13,-200.18 938.33,-199.96 940.5,-199.75 992.59,-194.71 1052.01,-191.67 1095.16,-189.95"/>
<polygon fill="#9a32cd" stroke="#9a32cd" points="933.74,-196.92 924.2,-201.53 934.54,-203.87 933.74,-196.92"/>
</a>
</g>
<text text-anchor="middle" x="1006.5" y="-201.5" font-family="Helvetica,sans-Serif" font-size="10.00" fill="grey"> ptr</text>
</g>
<!-- Node22&#45;&gt;Node21 -->
<g id="edge30_Node000021_Node000022" class="edge">
<title>Node22&#45;&gt;Node21</title>
<g id="a_edge30_Node000021_Node000022"><a xlink:title=" ">
<path fill="none" stroke="#9a32cd" stroke-dasharray="5,2" d="M727.84,-214.69C749.96,-214.06 773.58,-213.39 794.53,-212.79"/>
<polygon fill="#9a32cd" stroke="#9a32cd" points="727.83,-211.18 717.94,-214.97 728.03,-218.18 727.83,-211.18"/>
</a>
</g>
<text text-anchor="middle" x="755.38" y="-216.11" font-family="Helvetica,sans-Serif" font-size="10.00" fill="grey"> m_vars</text>
</g>
<!-- Node23&#45;&gt;Node22 -->
<g id="edge31_Node000022_Node000023" class="edge">
<title>Node23&#45;&gt;Node22</title>
<g id="a_edge31_Node000022_Node000023"><a xlink:title=" ">
<path fill="none" stroke="#9a32cd" stroke-dasharray="5,2" d="M422.12,-265.29C462.18,-262.24 512.6,-256.77 556.75,-247 572.76,-243.46 589.93,-237.97 604.78,-232.66"/>
<polygon fill="#9a32cd" stroke="#9a32cd" points="422.07,-261.78 412.35,-265.99 422.57,-268.76 422.07,-261.78"/>
</a>
</g>
<text text-anchor="middle" x="492.62" y="-266.49" font-family="Helvetica,sans-Serif" font-size="10.00" fill="grey"> keys</text>
</g>
<!-- Node24&#45;&gt;Node20 -->
<g id="edge34_Node000020_Node000024" class="edge">
<title>Node24&#45;&gt;Node20</title>
<g id="a_edge34_Node000020_Node000024"><a xlink:title=" ">
<path fill="none" stroke="orange" stroke-dasharray="5,2" d="M922.37,-162.15C964.91,-159.96 1022.32,-159.14 1072.5,-165.75 1083.3,-167.17 1094.69,-169.59 1105.45,-172.33"/>
<polygon fill="orange" stroke="orange" points="922.36,-158.65 912.57,-162.7 922.75,-165.64 922.36,-158.65"/>
</a>
</g>
<text text-anchor="middle" x="1006.5" y="-167.5" font-family="Helvetica,sans-Serif" font-size="10.00" fill="grey"> &lt; Ark::internal::StaticScope &gt;</text>
</g>
</g>
</svg>
