<?xml version="1.0" encoding="UTF-8" standalone="no"?>
<!DOCTYPE svg PUBLIC "-//W3C//DTD SVG 1.1//EN"
 "http://www.w3.org/Graphics/SVG/1.1/DTD/svg11.dtd">
<!-- Generated by graphviz version 12.2.0 (20241103.1931)
 -->
<!-- Title: Ark::internal::NameResolutionPass Pages: 1 -->
<!--zoomable 468 -->

<svg id="main" version="1.1" xmlns="http://www.w3.org/2000/svg" xmlns:xlink="http://www.w3.org/1999/xlink" xml:space="preserve" onload="init(evt)">

<style type="text/css"><![CDATA[
.node, .edge {opacity: 0.7;}
.node.selected, .edge.selected {opacity: 1;}
.edge:hover path { stroke: red; }
.edge:hover polygon { stroke: red; fill: red; }
]]></style>

<defs>
  <circle id="rim" cx="0" cy="0" r="7"/>
  <circle id="rim2" cx="0" cy="0" r="3.5"/>
  <g id="zoomPlus">
    <use xlink:href="#rim" fill="#404040"><set attributeName="fill" to="#808080" begin="zoomplus.mouseover" end="zoomplus.mouseout"/></use>
    <path d="M-4,0h8M0,-4v8" fill="none" stroke="white" stroke-width="1.5" pointer-events="none"/>
  </g>
  <g id="zoomMin">
    <use xlink:href="#rim" fill="#404040"><set attributeName="fill" to="#808080" begin="zoomminus.mouseover" end="zoomminus.mouseout"/></use>
    <path d="M-4,0h8" fill="none" stroke="white" stroke-width="1.5" pointer-events="none"/>
  </g>
  <g id="arrowUp" transform="translate(30 24)">
    <use xlink:href="#rim"/>
    <path pointer-events="none" fill="none" stroke="white" stroke-width="1.5" d="M0,-3.0v7 M-2.5,-0.5L0,-3.0L2.5,-0.5"/>
  </g>
  <g id="arrowRight" transform="rotate(90) translate(36 -43)">
    <use xlink:href="#rim"/>
    <path pointer-events="none" fill="none" stroke="white" stroke-width="1.5" d="M0,-3.0v7 M-2.5,-0.5L0,-3.0L2.5,-0.5"/>
  </g>
  <g id="arrowDown" transform="rotate(180) translate(-30 -48)">
    <use xlink:href="#rim"/>
    <path pointer-events="none" fill="none" stroke="white" stroke-width="1.5" d="M0,-3.0v7 M-2.5,-0.5L0,-3.0L2.5,-0.5"/>
  </g>
  <g id="arrowLeft" transform="rotate(270) translate(-36 17)">
    <use xlink:href="#rim"/>
    <path pointer-events="none" fill="none" stroke="white" stroke-width="1.5" d="M0,-3.0v7 M-2.5,-0.5L0,-3.0L2.5,-0.5"/>
  </g>
  <g id="resetDef">
    <use xlink:href="#rim2" fill="#404040"><set attributeName="fill" to="#808080" begin="reset.mouseover" end="reset.mouseout"/></use>
  </g>
</defs>
<script type="application/ecmascript">
var viewWidth = 2077;
var viewHeight = 468;
var sectionId = 'dynsection-1';
</script>
<script type="application/ecmascript" xlink:href="../../svg.min.js"/>
<svg id="graph" class="graph">
<g id="viewport">
<title>Ark::internal::NameResolutionPass</title>
<!-- Node1 -->
<g id="Node000001" class="node">
<title>Node1</title>
<g id="a_Node000001"><a xlink:title=" ">
<polygon fill="#999999" stroke="#666666" points="2068.5,-267.62 1898.75,-267.62 1898.75,-248.38 2068.5,-248.38 2068.5,-267.62"/>
<text text-anchor="middle" x="1983.62" y="-254.12" font-family="Helvetica,sans-Serif" font-size="10.00">Ark::internal::NameResolutionPass</text>
</a>
</g>
</g>
<!-- Node2 -->
<g id="Node000002" class="node">
<title>Node2</title>
<g id="a_Node000002"><a xlink:href="../../da/d7b/classArk_1_1internal_1_1Pass.html" target="_top" xlink:title="An interface to describe compiler passes.">
<polygon fill="white" stroke="#666666" points="1758.12,-151.62 1661.12,-151.62 1661.12,-132.38 1758.12,-132.38 1758.12,-151.62"/>
<text text-anchor="middle" x="1709.62" y="-138.12" font-family="Helvetica,sans-Serif" font-size="10.00">Ark::internal::Pass</text>
</a>
</g>
</g>
<!-- Node2&#45;&gt;Node1 -->
<g id="edge1_Node000001_Node000002" class="edge">
<title>Node2&#45;&gt;Node1</title>
<g id="a_edge1_Node000001_Node000002"><a xlink:title=" ">
<path fill="none" stroke="#63b8ff" d="M1769.53,-145.77C1803.36,-149.69 1845.9,-157.69 1880.75,-174 1920.41,-192.56 1957.6,-230.18 1973.93,-248.09"/>
<polygon fill="#63b8ff" stroke="#63b8ff" points="1770.24,-142.32 1759.93,-144.75 1769.5,-149.28 1770.24,-142.32"/>
</a>
</g>
</g>
<!-- Node3 -->
<g id="Node000003" class="node">
<title>Node3</title>
<g id="a_Node000003"><a xlink:href="../../d6/d2f/classArk_1_1internal_1_1Logger.html" target="_top" xlink:title=" ">
<polygon fill="white" stroke="#666666" points="1490.12,-125.62 1386.38,-125.62 1386.38,-106.38 1490.12,-106.38 1490.12,-125.62"/>
<text text-anchor="middle" x="1438.25" y="-112.12" font-family="Helvetica,sans-Serif" font-size="10.00">Ark::internal::Logger</text>
</a>
</g>
</g>
<!-- Node3&#45;&gt;Node2 -->
<g id="edge2_Node000002_Node000003" class="edge">
<title>Node3&#45;&gt;Node2</title>
<g id="a_edge2_Node000002_Node000003"><a xlink:title=" ">
<path fill="none" stroke="#9a32cd" stroke-dasharray="5,2" d="M1501.84,-122.04C1550.29,-126.72 1616.38,-133.1 1660.68,-137.37"/>
<polygon fill="#9a32cd" stroke="#9a32cd" points="1502.35,-118.57 1492.06,-121.1 1501.68,-125.54 1502.35,-118.57"/>
</a>
</g>
<text text-anchor="middle" x="1581.25" y="-134.6" font-family="Helvetica,sans-Serif" font-size="10.00" fill="grey"> m_logger</text>
</g>
<!-- Node4 -->
<g id="Node000004" class="node">
<title>Node4</title>
<g id="a_Node000004"><a xlink:title=" ">
<polygon fill="white" stroke="#666666" points="190.5,-202.62 131,-202.62 131,-183.38 190.5,-183.38 190.5,-202.62"/>
<text text-anchor="middle" x="160.75" y="-189.12" font-family="Helvetica,sans-Serif" font-size="10.00">std::string</text>
</a>
</g>
</g>
<!-- Node4&#45;&gt;Node3 -->
<g id="edge3_Node000003_Node000004" class="edge">
<title>Node4&#45;&gt;Node3</title>
<g id="a_edge3_Node000003_Node000004"><a xlink:title=" ">
<path fill="none" stroke="#9a32cd" stroke-dasharray="5,2" d="M169.84,-172.44C190.92,-122.72 252.57,0 347.5,0 347.5,0 347.5,0 1157.5,0 1267.65,0 1384.87,-77.69 1423.82,-105.91"/>
<polygon fill="#9a32cd" stroke="#9a32cd" points="166.69,-170.91 166.13,-181.49 173.17,-173.57 166.69,-170.91"/>
</a>
</g>
<text text-anchor="middle" x="755.38" y="-1.75" font-family="Helvetica,sans-Serif" font-size="10.00" fill="grey"> m_name</text>
</g>
<!-- Node6 -->
<g id="Node000006" class="node">
<title>Node6</title>
<g id="a_Node000006"><a xlink:title=" ">
<polygon fill="white" stroke="#666666" points="1217.75,-148.12 1095.25,-148.12 1095.25,-83.88 1217.75,-83.88 1217.75,-148.12"/>
<text text-anchor="start" x="1103.25" y="-134.62" font-family="Helvetica,sans-Serif" font-size="10.00">std::unordered_map</text>
<text text-anchor="start" x="1103.25" y="-123.38" font-family="Helvetica,sans-Serif" font-size="10.00">&lt; std::string, std::</text>
<text text-anchor="start" x="1103.25" y="-112.12" font-family="Helvetica,sans-Serif" font-size="10.00">chrono::time_point&lt; std</text>
<text text-anchor="start" x="1103.25" y="-100.88" font-family="Helvetica,sans-Serif" font-size="10.00">::chrono::high_resolution</text>
<text text-anchor="middle" x="1156.5" y="-89.62" font-family="Helvetica,sans-Serif" font-size="10.00">_clock &gt; &gt;</text>
</a>
</g>
</g>
<!-- Node4&#45;&gt;Node6 -->
<g id="edge6_Node000006_Node000004" class="edge">
<title>Node4&#45;&gt;Node6</title>
<g id="a_edge6_Node000006_Node000004"><a xlink:title=" ">
<path fill="none" stroke="#9a32cd" stroke-dasharray="5,2" d="M178.65,-175C209.21,-144.51 277.05,-86 347.5,-86 347.5,-86 347.5,-86 756.38,-86 876.76,-86 1017,-99.74 1095.09,-108.62"/>
<polygon fill="#9a32cd" stroke="#9a32cd" points="176.26,-172.44 171.78,-182.04 181.27,-177.33 176.26,-172.44"/>
</a>
</g>
<text text-anchor="middle" x="645.38" y="-87.75" font-family="Helvetica,sans-Serif" font-size="10.00" fill="grey"> keys</text>
</g>
<!-- Node10 -->
<g id="Node000010" class="node">
<title>Node10</title>
<g id="a_Node000010"><a xlink:title=" ">
<polygon fill="white" stroke="#666666" points="1218.5,-192.62 1094.5,-192.62 1094.5,-173.38 1218.5,-173.38 1218.5,-192.62"/>
<text text-anchor="middle" x="1156.5" y="-179.12" font-family="Helvetica,sans-Serif" font-size="10.00">std::vector&lt; std::string &gt;</text>
</a>
</g>
</g>
<!-- Node4&#45;&gt;Node10 -->
<g id="edge11_Node000010_Node000004" class="edge">
<title>Node4&#45;&gt;Node10</title>
<g id="a_edge11_Node000010_Node000004"><a xlink:title=" ">
<path fill="none" stroke="#9a32cd" stroke-dasharray="5,2" d="M201.91,-186.51C239.45,-181 297.12,-174 347.5,-174 347.5,-174 347.5,-174 756.38,-174 876.11,-174 1015.99,-178.1 1094.31,-180.76"/>
<polygon fill="#9a32cd" stroke="#9a32cd" points="201.8,-182.98 192.43,-187.93 202.84,-189.91 201.8,-182.98"/>
</a>
</g>
<text text-anchor="middle" x="645.38" y="-175.75" font-family="Helvetica,sans-Serif" font-size="10.00" fill="grey"> elements</text>
</g>
<!-- Node16 -->
<g id="Node000016" class="node">
<title>Node16</title>
<g id="a_Node000016"><a xlink:href="../../dc/d9e/classArk_1_1internal_1_1Node.html" target="_top" xlink:title="A node of an Abstract Syntax Tree for ArkScript.">
<polygon fill="white" stroke="#666666" points="907.5,-275.62 809.75,-275.62 809.75,-256.38 907.5,-256.38 907.5,-275.62"/>
<text text-anchor="middle" x="858.62" y="-262.12" font-family="Helvetica,sans-Serif" font-size="10.00">Ark::internal::Node</text>
</a>
</g>
</g>
<!-- Node4&#45;&gt;Node16 -->
<g id="edge21_Node000016_Node000004" class="edge">
<title>Node4&#45;&gt;Node16</title>
<g id="a_edge21_Node000016_Node000004"><a xlink:title=" ">
<path fill="none" stroke="#9a32cd" stroke-dasharray="5,2" d="M202.04,-198.14C254.24,-204.73 348.09,-216.34 428.5,-225 566.53,-239.87 729.84,-254.72 809.32,-261.77"/>
<polygon fill="#9a32cd" stroke="#9a32cd" points="202.79,-194.71 192.43,-196.92 201.92,-201.65 202.79,-194.71"/>
</a>
</g>
<text text-anchor="middle" x="492.62" y="-262.3" font-family="Helvetica,sans-Serif" font-size="10.00" fill="grey"> m_after_comment</text>
<text text-anchor="middle" x="492.62" y="-251.05" font-family="Helvetica,sans-Serif" font-size="10.00" fill="grey">m_comment</text>
<text text-anchor="middle" x="492.62" y="-239.8" font-family="Helvetica,sans-Serif" font-size="10.00" fill="grey">m_filename</text>
</g>
<!-- Node19 -->
<g id="Node000019" class="node">
<title>Node19</title>
<g id="a_Node000019"><a xlink:title=" ">
<polygon fill="white" stroke="#666666" points="693.88,-453.25 596.88,-453.25 596.88,-422.75 693.88,-422.75 693.88,-453.25"/>
<text text-anchor="start" x="604.88" y="-439.75" font-family="Helvetica,sans-Serif" font-size="10.00">std::unordered_set</text>
<text text-anchor="middle" x="645.38" y="-428.5" font-family="Helvetica,sans-Serif" font-size="10.00">&lt; std::string &gt;</text>
</a>
</g>
</g>
<!-- Node4&#45;&gt;Node19 -->
<g id="edge23_Node000019_Node000004" class="edge">
<title>Node4&#45;&gt;Node19</title>
<g id="a_edge23_Node000019_Node000004"><a xlink:title=" ">
<path fill="none" stroke="#9a32cd" stroke-dasharray="5,2" d="M163.7,-214.32C167.42,-242.67 178.13,-292.5 208.5,-321 323.68,-429.1 419.59,-313.65 556.75,-392 567.42,-398.1 564.63,-406.02 574.75,-413 581.41,-417.59 589.01,-421.44 596.68,-424.63"/>
<polygon fill="#9a32cd" stroke="#9a32cd" points="167.18,-214.02 162.6,-204.47 160.23,-214.79 167.18,-214.02"/>
</a>
</g>
<text text-anchor="middle" x="348.5" y="-372.07" font-family="Helvetica,sans-Serif" font-size="10.00" fill="grey"> keys</text>
</g>
<!-- Node27 -->
<g id="Node000027" class="node">
<title>Node27</title>
<g id="a_Node000027"><a xlink:href="../../d1/dcf/structArk_1_1internal_1_1Declaration.html" target="_top" xlink:title=" ">
<polygon fill="white" stroke="#666666" points="410.5,-334.62 286.5,-334.62 286.5,-315.38 410.5,-315.38 410.5,-334.62"/>
<text text-anchor="middle" x="348.5" y="-321.12" font-family="Helvetica,sans-Serif" font-size="10.00">Ark::internal::Declaration</text>
</a>
</g>
</g>
<!-- Node4&#45;&gt;Node27 -->
<g id="edge36_Node000027_Node000004" class="edge">
<title>Node4&#45;&gt;Node27</title>
<g id="a_edge36_Node000027_Node000004"><a xlink:title=" ">
<path fill="none" stroke="#9a32cd" stroke-dasharray="5,2" d="M177.01,-211.43C198.79,-236.58 241.18,-281.43 286.5,-307 291.98,-310.09 298.05,-312.7 304.16,-314.89"/>
<polygon fill="#9a32cd" stroke="#9a32cd" points="179.83,-209.35 170.69,-203.99 174.5,-213.88 179.83,-209.35"/>
</a>
</g>
<text text-anchor="middle" x="238.5" y="-307.84" font-family="Helvetica,sans-Serif" font-size="10.00" fill="grey"> name</text>
<text text-anchor="middle" x="238.5" y="-296.59" font-family="Helvetica,sans-Serif" font-size="10.00" fill="grey">original_name</text>
</g>
<!-- Node5 -->
<g id="Node000005" class="node">
<title>Node5</title>
<g id="a_Node000005"><a xlink:title=" ">
<polygon fill="white" stroke="#666666" points="94,-208.25 0,-208.25 0,-177.75 94,-177.75 94,-208.25"/>
<text text-anchor="start" x="8" y="-194.75" font-family="Helvetica,sans-Serif" font-size="10.00">std::basic_string&lt;</text>
<text text-anchor="middle" x="47" y="-183.5" font-family="Helvetica,sans-Serif" font-size="10.00"> Char &gt;</text>
</a>
</g>
</g>
<!-- Node5&#45;&gt;Node4 -->
<g id="edge4_Node000004_Node000005" class="edge">
<title>Node5&#45;&gt;Node4</title>
<g id="a_edge4_Node000004_Node000005"><a xlink:title=" ">
<path fill="none" stroke="#63b8ff" d="M105.71,-193C114.32,-193 122.87,-193 130.55,-193"/>
<polygon fill="#63b8ff" stroke="#63b8ff" points="105.93,-189.5 95.93,-193 105.93,-196.5 105.93,-189.5"/>
</a>
</g>
</g>
<!-- Node6&#45;&gt;Node3 -->
<g id="edge5_Node000003_Node000006" class="edge">
<title>Node6&#45;&gt;Node3</title>
<g id="a_edge5_Node000003_Node000006"><a xlink:title=" ">
<path fill="none" stroke="#9a32cd" stroke-dasharray="5,2" d="M1229.68,-116C1278.66,-116 1342.23,-116 1386.04,-116"/>
<polygon fill="#9a32cd" stroke="#9a32cd" points="1229.72,-112.5 1219.72,-116 1229.72,-119.5 1229.72,-112.5"/>
</a>
</g>
<text text-anchor="middle" x="1287.75" y="-117.75" font-family="Helvetica,sans-Serif" font-size="10.00" fill="grey"> m_trace_starts</text>
</g>
<!-- Node7 -->
<g id="Node000007" class="node">
<title>Node7</title>
<g id="a_Node000007"><a xlink:title=" ">
<polygon fill="white" stroke="#666666" points="909.75,-232.25 807.5,-232.25 807.5,-201.75 909.75,-201.75 909.75,-232.25"/>
<text text-anchor="start" x="815.5" y="-218.75" font-family="Helvetica,sans-Serif" font-size="10.00">std::unordered_map</text>
<text text-anchor="middle" x="858.62" y="-207.5" font-family="Helvetica,sans-Serif" font-size="10.00">&lt; K, T &gt;</text>
</a>
</g>
</g>
<!-- Node7&#45;&gt;Node6 -->
<g id="edge7_Node000006_Node000007" class="edge">
<title>Node7&#45;&gt;Node6</title>
<g id="a_edge7_Node000006_Node000007"><a xlink:title=" ">
<path fill="none" stroke="orange" stroke-dasharray="5,2" d="M879.29,-192.77C894.23,-176.15 916.3,-155.16 940.5,-144 989.21,-121.55 1050.31,-115.42 1094.92,-114.39"/>
<polygon fill="orange" stroke="orange" points="876.65,-190.47 872.74,-200.32 881.94,-195.05 876.65,-190.47"/>
</a>
</g>
<text text-anchor="start" x="942" y="-179.5" font-family="Helvetica,sans-Serif" font-size="10.00" fill="grey"> &lt; std::string, std</text>
<text text-anchor="start" x="942" y="-168.25" font-family="Helvetica,sans-Serif" font-size="10.00" fill="grey">::chrono::time_point</text>
<text text-anchor="start" x="942" y="-157" font-family="Helvetica,sans-Serif" font-size="10.00" fill="grey">&lt; std::chrono::high_resolution</text>
<text text-anchor="middle" x="1006.5" y="-145.75" font-family="Helvetica,sans-Serif" font-size="10.00" fill="grey">_clock &gt; &gt;</text>
</g>
<!-- Node8 -->
<g id="Node000008" class="node">
<title>Node8</title>
<g id="a_Node000008"><a xlink:title=" ">
<polygon fill="white" stroke="#666666" points="175.15,-337.62 146.35,-337.62 146.35,-318.38 175.15,-318.38 175.15,-337.62"/>
<text text-anchor="middle" x="160.75" y="-324.12" font-family="Helvetica,sans-Serif" font-size="10.00">K</text>
</a>
</g>
</g>
<!-- Node8&#45;&gt;Node7 -->
<g id="edge8_Node000007_Node000008" class="edge">
<title>Node8&#45;&gt;Node7</title>
<g id="a_edge8_Node000007_Node000008"><a xlink:title=" ">
<path fill="none" stroke="#9a32cd" stroke-dasharray="5,2" d="M171.38,-308.1C179.37,-293.7 192.06,-274.92 208.5,-264 292.2,-208.38 328.68,-223.44 428.5,-211.75 564.66,-195.8 726.78,-205.49 807.2,-212.2"/>
<polygon fill="#9a32cd" stroke="#9a32cd" points="168.41,-306.22 166.91,-316.71 174.62,-309.45 168.41,-306.22"/>
</a>
</g>
<text text-anchor="middle" x="492.62" y="-213.5" font-family="Helvetica,sans-Serif" font-size="10.00" fill="grey"> keys</text>
</g>
<!-- Node20 -->
<g id="Node000020" class="node">
<title>Node20</title>
<g id="a_Node000020"><a xlink:title=" ">
<polygon fill="white" stroke="#666666" points="409.38,-419.62 287.62,-419.62 287.62,-400.38 409.38,-400.38 409.38,-419.62"/>
<text text-anchor="middle" x="348.5" y="-406.12" font-family="Helvetica,sans-Serif" font-size="10.00">std::unordered_set&lt; K &gt;</text>
</a>
</g>
</g>
<!-- Node8&#45;&gt;Node20 -->
<g id="edge25_Node000020_Node000008" class="edge">
<title>Node8&#45;&gt;Node20</title>
<g id="a_edge25_Node000020_Node000008"><a xlink:title=" ">
<path fill="none" stroke="#9a32cd" stroke-dasharray="5,2" d="M172.77,-347.61C180.96,-360.31 193.32,-376.09 208.5,-385 232.08,-398.84 261.48,-405.37 287.17,-408.33"/>
<polygon fill="#9a32cd" stroke="#9a32cd" points="175.85,-345.93 167.68,-339.17 169.86,-349.54 175.85,-345.93"/>
</a>
</g>
<text text-anchor="middle" x="238.5" y="-406.9" font-family="Helvetica,sans-Serif" font-size="10.00" fill="grey"> keys</text>
</g>
<!-- Node9 -->
<g id="Node000009" class="node">
<title>Node9</title>
<g id="a_Node000009"><a xlink:title=" ">
<polygon fill="white" stroke="#666666" points="659.77,-339.62 630.98,-339.62 630.98,-320.38 659.77,-320.38 659.77,-339.62"/>
<text text-anchor="middle" x="645.38" y="-326.12" font-family="Helvetica,sans-Serif" font-size="10.00">T</text>
</a>
</g>
</g>
<!-- Node9&#45;&gt;Node7 -->
<g id="edge9_Node000007_Node000009" class="edge">
<title>Node9&#45;&gt;Node7</title>
<g id="a_edge9_Node000007_Node000009"><a xlink:title=" ">
<path fill="none" stroke="#9a32cd" stroke-dasharray="5,2" d="M671.5,-329.18C686.12,-327.45 703.97,-322.98 716,-312 733.52,-296.01 717.25,-278.55 734,-261.75 753.5,-242.19 782.18,-231.12 807.01,-224.89"/>
<polygon fill="#9a32cd" stroke="#9a32cd" points="671.39,-325.68 661.69,-329.96 671.94,-332.66 671.39,-325.68"/>
</a>
</g>
<text text-anchor="middle" x="755.38" y="-263.5" font-family="Helvetica,sans-Serif" font-size="10.00" fill="grey"> elements</text>
</g>
<!-- Node11 -->
<g id="Node000011" class="node">
<title>Node11</title>
<g id="a_Node000011"><a xlink:title=" ">
<polygon fill="white" stroke="#666666" points="901.88,-325.62 815.38,-325.62 815.38,-306.38 901.88,-306.38 901.88,-325.62"/>
<text text-anchor="middle" x="858.62" y="-312.12" font-family="Helvetica,sans-Serif" font-size="10.00">std::vector&lt; T &gt;</text>
</a>
</g>
</g>
<!-- Node9&#45;&gt;Node11 -->
<g id="edge13_Node000011_Node000009" class="edge">
<title>Node9&#45;&gt;Node11</title>
<g id="a_edge13_Node000011_Node000009"><a xlink:title=" ">
<path fill="none" stroke="#9a32cd" stroke-dasharray="5,2" d="M671.43,-328.34C706.84,-325.99 771.98,-321.68 815.05,-318.82"/>
<polygon fill="#9a32cd" stroke="#9a32cd" points="671.49,-324.83 661.75,-328.98 671.96,-331.81 671.49,-324.83"/>
</a>
</g>
<text text-anchor="middle" x="755.38" y="-325.59" font-family="Helvetica,sans-Serif" font-size="10.00" fill="grey"> elements</text>
</g>
<!-- Node28 -->
<g id="Node000028" class="node">
<title>Node28</title>
<g id="a_Node000028"><a xlink:title=" ">
<polygon fill="white" stroke="#666666" points="910.88,-370.62 806.38,-370.62 806.38,-351.38 910.88,-351.38 910.88,-370.62"/>
<text text-anchor="middle" x="858.62" y="-357.12" font-family="Helvetica,sans-Serif" font-size="10.00">std::unique_ptr&lt; T &gt;</text>
</a>
</g>
</g>
<!-- Node9&#45;&gt;Node28 -->
<g id="edge39_Node000028_Node000009" class="edge">
<title>Node9&#45;&gt;Node28</title>
<g id="a_edge39_Node000028_Node000009"><a xlink:title=" ">
<path fill="none" stroke="#9a32cd" stroke-dasharray="5,2" d="M671.56,-333.7C704.64,-338.55 763.52,-347.19 806.2,-353.45"/>
<polygon fill="#9a32cd" stroke="#9a32cd" points="672.14,-330.24 661.73,-332.25 671.12,-337.17 672.14,-330.24"/>
</a>
</g>
<text text-anchor="middle" x="755.38" y="-350.03" font-family="Helvetica,sans-Serif" font-size="10.00" fill="grey"> ptr</text>
</g>
<!-- Node10&#45;&gt;Node1 -->
<g id="edge29_Node000001_Node000010" class="edge">
<title>Node10&#45;&gt;Node1</title>
<g id="a_edge29_Node000001_Node000010"><a xlink:title=" ">
<path fill="none" stroke="#9a32cd" stroke-dasharray="5,2" d="M1230.14,-180.46C1361.4,-177.33 1646.23,-177.15 1880.75,-223 1908.46,-228.42 1938.93,-239.62 1959.26,-247.9"/>
<polygon fill="#9a32cd" stroke="#9a32cd" points="1230.1,-176.96 1220.19,-180.72 1230.28,-183.96 1230.1,-176.96"/>
</a>
</g>
<text text-anchor="middle" x="1581.25" y="-190.97" font-family="Helvetica,sans-Serif" font-size="10.00" fill="grey"> m_plugin_names</text>
</g>
<!-- Node10&#45;&gt;Node3 -->
<g id="edge10_Node000003_Node000010" class="edge">
<title>Node10&#45;&gt;Node3</title>
<g id="a_edge10_Node000003_Node000010"><a xlink:title=" ">
<path fill="none" stroke="#9a32cd" stroke-dasharray="5,2" d="M1209.39,-170.29C1219.7,-167.78 1230.44,-165.17 1240.5,-162.75 1293.58,-149.97 1354.77,-135.47 1394.63,-126.05"/>
<polygon fill="#9a32cd" stroke="#9a32cd" points="1208.79,-166.83 1199.91,-172.6 1210.45,-173.63 1208.79,-166.83"/>
</a>
</g>
<text text-anchor="middle" x="1287.75" y="-164.5" font-family="Helvetica,sans-Serif" font-size="10.00" fill="grey"> m_active_traces</text>
</g>
<!-- Node11&#45;&gt;Node10 -->
<g id="edge12_Node000010_Node000011" class="edge">
<title>Node11&#45;&gt;Node10</title>
<g id="a_edge12_Node000010_Node000011"><a xlink:title=" ">
<path fill="none" stroke="orange" stroke-dasharray="5,2" d="M899.53,-300.96C907.75,-296.65 915.9,-291.35 922.5,-285 934.61,-273.35 927.56,-262.47 940.5,-251.75 984.4,-215.37 1047.85,-198.13 1094.45,-190.03"/>
<polygon fill="orange" stroke="orange" points="898.07,-297.78 890.56,-305.25 901.09,-304.09 898.07,-297.78"/>
</a>
</g>
<text text-anchor="middle" x="1006.5" y="-253.5" font-family="Helvetica,sans-Serif" font-size="10.00" fill="grey"> &lt; std::string &gt;</text>
</g>
<!-- Node21 -->
<g id="Node000021" class="node">
<title>Node21</title>
<g id="a_Node000021"><a xlink:title=" ">
<polygon fill="white" stroke="#666666" points="1218.12,-295.25 1094.88,-295.25 1094.88,-264.75 1218.12,-264.75 1218.12,-295.25"/>
<text text-anchor="start" x="1102.88" y="-281.75" font-family="Helvetica,sans-Serif" font-size="10.00">std::vector&lt; Ark::internal</text>
<text text-anchor="middle" x="1156.5" y="-270.5" font-family="Helvetica,sans-Serif" font-size="10.00">::Node &gt;</text>
</a>
</g>
</g>
<!-- Node11&#45;&gt;Node21 -->
<g id="edge28_Node000021_Node000011" class="edge">
<title>Node11&#45;&gt;Node21</title>
<g id="a_edge28_Node000021_Node000011"><a xlink:title=" ">
<path fill="none" stroke="orange" stroke-dasharray="5,2" d="M913.31,-309.14C922.38,-308 931.71,-306.83 940.5,-305.75 992.55,-299.33 1051.71,-292.27 1094.79,-287.16"/>
<polygon fill="orange" stroke="orange" points="912.99,-305.66 903.51,-310.38 913.87,-312.6 912.99,-305.66"/>
</a>
</g>
<text text-anchor="middle" x="1006.5" y="-307.5" font-family="Helvetica,sans-Serif" font-size="10.00" fill="grey"> &lt; Ark::internal::Node &gt;</text>
</g>
<!-- Node23 -->
<g id="Node000023" class="node">
<title>Node23</title>
<g id="a_Node000023"><a xlink:title=" ">
<polygon fill="white" stroke="#666666" points="1523.5,-346.25 1353,-346.25 1353,-315.75 1523.5,-315.75 1523.5,-346.25"/>
<text text-anchor="start" x="1361" y="-332.75" font-family="Helvetica,sans-Serif" font-size="10.00">std::vector&lt; std::unique</text>
<text text-anchor="middle" x="1438.25" y="-321.5" font-family="Helvetica,sans-Serif" font-size="10.00">_ptr&lt; Ark::internal::StaticScope &gt; &gt;</text>
</a>
</g>
</g>
<!-- Node11&#45;&gt;Node23 -->
<g id="edge40_Node000023_Node000011" class="edge">
<title>Node11&#45;&gt;Node23</title>
<g id="a_edge40_Node000023_Node000011"><a xlink:title=" ">
<path fill="none" stroke="orange" stroke-dasharray="5,2" d="M913.51,-317.4C1014.34,-320.02 1232.18,-325.67 1352.73,-328.81"/>
<polygon fill="orange" stroke="orange" points="913.7,-313.9 903.61,-317.14 913.52,-320.9 913.7,-313.9"/>
</a>
</g>
<text text-anchor="start" x="1090.5" y="-338.24" font-family="Helvetica,sans-Serif" font-size="10.00" fill="grey"> &lt; std::unique_ptr&lt;</text>
<text text-anchor="middle" x="1156.5" y="-326.99" font-family="Helvetica,sans-Serif" font-size="10.00" fill="grey"> Ark::internal::StaticScope &gt; &gt;</text>
</g>
<!-- Node12 -->
<g id="Node000012" class="node">
<title>Node12</title>
<g id="a_Node000012"><a xlink:title=" ">
<polygon fill="white" stroke="#666666" points="1191.88,-61.62 1121.12,-61.62 1121.12,-42.38 1191.88,-42.38 1191.88,-61.62"/>
<text text-anchor="middle" x="1156.5" y="-48.12" font-family="Helvetica,sans-Serif" font-size="10.00">std::ostream</text>
</a>
</g>
</g>
<!-- Node12&#45;&gt;Node3 -->
<g id="edge14_Node000003_Node000012" class="edge">
<title>Node12&#45;&gt;Node3</title>
<g id="a_edge14_Node000003_Node000012"><a xlink:title=" ">
<path fill="none" stroke="#9a32cd" stroke-dasharray="5,2" d="M1203.37,-62.49C1255.92,-74.52 1341.4,-94.07 1393.18,-105.92"/>
<polygon fill="#9a32cd" stroke="#9a32cd" points="1204.37,-59.13 1193.84,-60.31 1202.81,-65.96 1204.37,-59.13"/>
</a>
</g>
<text text-anchor="middle" x="1287.75" y="-93.36" font-family="Helvetica,sans-Serif" font-size="10.00" fill="grey"> m_stream</text>
</g>
<!-- Node13 -->
<g id="Node000013" class="node">
<title>Node13</title>
<g id="a_Node000013"><a xlink:title=" ">
<polygon fill="white" stroke="#666666" points="908.25,-58.25 809,-58.25 809,-27.75 908.25,-27.75 908.25,-58.25"/>
<text text-anchor="start" x="817" y="-44.75" font-family="Helvetica,sans-Serif" font-size="10.00">std::basic_ostream</text>
<text text-anchor="middle" x="858.62" y="-33.5" font-family="Helvetica,sans-Serif" font-size="10.00">&lt; Char &gt;</text>
</a>
</g>
</g>
<!-- Node13&#45;&gt;Node12 -->
<g id="edge15_Node000012_Node000013" class="edge">
<title>Node13&#45;&gt;Node12</title>
<g id="a_edge15_Node000012_Node000013"><a xlink:title=" ">
<path fill="none" stroke="#63b8ff" d="M919.79,-44.83C980.33,-46.67 1071.6,-49.45 1120.92,-50.95"/>
<polygon fill="#63b8ff" stroke="#63b8ff" points="920.1,-41.34 910,-44.53 919.88,-48.33 920.1,-41.34"/>
</a>
</g>
</g>
<!-- Node14 -->
<g id="Node000014" class="node">
<title>Node14</title>
<g id="a_Node000014"><a xlink:title=" ">
<polygon fill="white" stroke="#666666" points="703.25,-49.62 587.5,-49.62 587.5,-30.38 703.25,-30.38 703.25,-49.62"/>
<text text-anchor="middle" x="645.38" y="-36.12" font-family="Helvetica,sans-Serif" font-size="10.00">std::basic_ios&lt; Char &gt;</text>
</a>
</g>
</g>
<!-- Node14&#45;&gt;Node13 -->
<g id="edge16_Node000013_Node000014" class="edge">
<title>Node14&#45;&gt;Node13</title>
<g id="a_edge16_Node000013_Node000014"><a xlink:title=" ">
<path fill="none" stroke="#63b8ff" d="M715,-40.97C745.55,-41.41 780.83,-41.91 808.66,-42.3"/>
<polygon fill="#63b8ff" stroke="#63b8ff" points="715.1,-37.48 705.06,-40.83 715,-44.48 715.1,-37.48"/>
</a>
</g>
</g>
<!-- Node15 -->
<g id="Node000015" class="node">
<title>Node15</title>
<g id="a_Node000015"><a xlink:title=" ">
<polygon fill="white" stroke="#666666" points="385.75,-49.62 311.25,-49.62 311.25,-30.38 385.75,-30.38 385.75,-49.62"/>
<text text-anchor="middle" x="348.5" y="-36.12" font-family="Helvetica,sans-Serif" font-size="10.00">std::ios_base</text>
</a>
</g>
</g>
<!-- Node15&#45;&gt;Node14 -->
<g id="edge17_Node000014_Node000015" class="edge">
<title>Node15&#45;&gt;Node14</title>
<g id="a_edge17_Node000014_Node000015"><a xlink:title=" ">
<path fill="none" stroke="#63b8ff" d="M397.46,-40C449.31,-40 531.92,-40 587.13,-40"/>
<polygon fill="#63b8ff" stroke="#63b8ff" points="397.76,-36.5 387.76,-40 397.76,-43.5 397.76,-36.5"/>
</a>
</g>
</g>
<!-- Node16&#45;&gt;Node1 -->
<g id="edge18_Node000001_Node000016" class="edge">
<title>Node16&#45;&gt;Node1</title>
<g id="a_edge18_Node000001_Node000016"><a xlink:title=" ">
<path fill="none" stroke="#9a32cd" stroke-dasharray="5,2" d="M918.99,-256.74C978.61,-248.25 1073.19,-237 1155.5,-237 1155.5,-237 1155.5,-237 1710.62,-237 1773.74,-237 1844.84,-242.69 1898.52,-248.15"/>
<polygon fill="#9a32cd" stroke="#9a32cd" points="918.81,-253.23 909.41,-258.13 919.81,-260.16 918.81,-253.23"/>
</a>
</g>
<text text-anchor="middle" x="1438.25" y="-238.75" font-family="Helvetica,sans-Serif" font-size="10.00" fill="grey"> m_ast</text>
</g>
<!-- Node16&#45;&gt;Node21 -->
<g id="edge27_Node000021_Node000016" class="edge">
<title>Node16&#45;&gt;Node21</title>
<g id="a_edge27_Node000021_Node000016"><a xlink:title=" ">
<path fill="none" stroke="#9a32cd" stroke-dasharray="5,2" d="M919.18,-266.46C961.89,-267.07 1020.79,-268.49 1072.5,-271.75 1079.73,-272.21 1087.3,-272.8 1094.8,-273.46"/>
<polygon fill="#9a32cd" stroke="#9a32cd" points="919.42,-262.96 909.37,-266.33 919.33,-269.96 919.42,-262.96"/>
</a>
</g>
<text text-anchor="middle" x="1006.5" y="-273.5" font-family="Helvetica,sans-Serif" font-size="10.00" fill="grey"> elements</text>
</g>
<!-- Node17 -->
<g id="Node000017" class="node">
<title>Node17</title>
<g id="a_Node000017"><a xlink:href="../../dc/dda/structArk_1_1internal_1_1FileSpan.html" target="_top" xlink:title="Describes a span for a node/atom in a file, its start position and end position.">
<polygon fill="white" stroke="#666666" points="701.75,-302.62 589,-302.62 589,-283.38 701.75,-283.38 701.75,-302.62"/>
<text text-anchor="middle" x="645.38" y="-289.12" font-family="Helvetica,sans-Serif" font-size="10.00">Ark::internal::FileSpan</text>
</a>
</g>
</g>
<!-- Node17&#45;&gt;Node16 -->
<g id="edge19_Node000016_Node000017" class="edge">
<title>Node17&#45;&gt;Node16</title>
<g id="a_edge19_Node000016_Node000017"><a xlink:title=" ">
<path fill="none" stroke="#9a32cd" stroke-dasharray="5,2" d="M713.39,-284.43C744.59,-280.45 781,-275.79 809.44,-272.16"/>
<polygon fill="#9a32cd" stroke="#9a32cd" points="713.13,-280.94 703.66,-285.68 714.02,-287.88 713.13,-280.94"/>
</a>
</g>
<text text-anchor="middle" x="755.38" y="-282.87" font-family="Helvetica,sans-Serif" font-size="10.00" fill="grey"> m_pos</text>
</g>
<!-- Node18 -->
<g id="Node000018" class="node">
<title>Node18</title>
<g id="a_Node000018"><a xlink:href="../../d7/df6/structArk_1_1internal_1_1FilePos.html" target="_top" xlink:title=" ">
<polygon fill="white" stroke="#666666" points="402.25,-297.62 294.75,-297.62 294.75,-278.38 402.25,-278.38 402.25,-297.62"/>
<text text-anchor="middle" x="348.5" y="-284.12" font-family="Helvetica,sans-Serif" font-size="10.00">Ark::internal::FilePos</text>
</a>
</g>
</g>
<!-- Node18&#45;&gt;Node17 -->
<g id="edge20_Node000017_Node000018" class="edge">
<title>Node18&#45;&gt;Node17</title>
<g id="a_edge20_Node000017_Node000018"><a xlink:title=" ">
<path fill="none" stroke="#9a32cd" stroke-dasharray="5,2" d="M414.04,-289.09C466.26,-289.98 539.05,-291.21 588.74,-292.06"/>
<polygon fill="#9a32cd" stroke="#9a32cd" points="414.13,-285.6 404.07,-288.93 414.01,-292.59 414.13,-285.6"/>
</a>
</g>
<text text-anchor="middle" x="492.62" y="-293.13" font-family="Helvetica,sans-Serif" font-size="10.00" fill="grey"> start</text>
</g>
<!-- Node19&#45;&gt;Node1 -->
<g id="edge22_Node000001_Node000019" class="edge">
<title>Node19&#45;&gt;Node1</title>
<g id="a_edge22_Node000001_Node000019"><a xlink:title=" ">
<path fill="none" stroke="#9a32cd" stroke-dasharray="5,2" d="M705.7,-437.57C748.04,-437.3 806.33,-437 857.62,-437 857.62,-437 857.62,-437 1710.62,-437 1834.71,-437 1945.98,-305.4 1975.18,-267.88"/>
<polygon fill="#9a32cd" stroke="#9a32cd" points="705.69,-434.07 695.71,-437.63 705.73,-441.07 705.69,-434.07"/>
</a>
</g>
<text text-anchor="middle" x="1287.75" y="-450" font-family="Helvetica,sans-Serif" font-size="10.00" fill="grey"> m_defined_symbols</text>
<text text-anchor="middle" x="1287.75" y="-438.75" font-family="Helvetica,sans-Serif" font-size="10.00" fill="grey">m_language_symbols</text>
</g>
<!-- Node20&#45;&gt;Node19 -->
<g id="edge24_Node000019_Node000020" class="edge">
<title>Node20&#45;&gt;Node19</title>
<g id="a_edge24_Node000019_Node000020"><a xlink:title=" ">
<path fill="none" stroke="orange" stroke-dasharray="5,2" d="M420.85,-416.78C475.37,-421.95 548.99,-428.94 596.58,-433.46"/>
<polygon fill="orange" stroke="orange" points="421.32,-413.3 411.03,-415.84 420.66,-420.27 421.32,-413.3"/>
</a>
</g>
<text text-anchor="middle" x="492.62" y="-430.69" font-family="Helvetica,sans-Serif" font-size="10.00" fill="grey"> &lt; std::string &gt;</text>
</g>
<!-- Node26 -->
<g id="Node000026" class="node">
<title>Node26</title>
<g id="a_Node000026"><a xlink:title=" ">
<polygon fill="white" stroke="#666666" points="716,-404.25 574.75,-404.25 574.75,-373.75 716,-373.75 716,-404.25"/>
<text text-anchor="start" x="582.75" y="-390.75" font-family="Helvetica,sans-Serif" font-size="10.00">std::unordered_set</text>
<text text-anchor="middle" x="645.38" y="-379.5" font-family="Helvetica,sans-Serif" font-size="10.00">&lt; Ark::internal::Declaration &gt;</text>
</a>
</g>
</g>
<!-- Node20&#45;&gt;Node26 -->
<g id="edge37_Node000026_Node000020" class="edge">
<title>Node20&#45;&gt;Node26</title>
<g id="a_edge37_Node000026_Node000020"><a xlink:title=" ">
<path fill="none" stroke="orange" stroke-dasharray="5,2" d="M420.75,-404.93C467.36,-401.61 527.96,-397.29 574.32,-393.99"/>
<polygon fill="orange" stroke="orange" points="420.76,-401.42 411.04,-405.62 421.26,-408.4 420.76,-401.42"/>
</a>
</g>
<text text-anchor="middle" x="492.62" y="-406.12" font-family="Helvetica,sans-Serif" font-size="10.00" fill="grey"> &lt; Ark::internal::Declaration &gt;</text>
</g>
<!-- Node21&#45;&gt;Node1 -->
<g id="edge26_Node000001_Node000021" class="edge">
<title>Node21&#45;&gt;Node1</title>
<g id="a_edge26_Node000001_Node000021"><a xlink:title=" ">
<path fill="none" stroke="#9a32cd" stroke-dasharray="5,2" d="M1229.56,-278.08C1381.95,-274.02 1736.16,-264.57 1898.55,-260.24"/>
<polygon fill="#9a32cd" stroke="#9a32cd" points="1229.92,-274.57 1220.02,-278.33 1230.11,-281.57 1229.92,-274.57"/>
</a>
</g>
<text text-anchor="middle" x="1581.25" y="-271.51" font-family="Helvetica,sans-Serif" font-size="10.00" fill="grey"> m_symbol_nodes</text>
</g>
<!-- Node22 -->
<g id="Node000022" class="node">
<title>Node22</title>
<g id="a_Node000022"><a xlink:href="../../dd/d92/classArk_1_1internal_1_1ScopeResolver.html" target="_top" xlink:title=" ">
<polygon fill="white" stroke="#666666" points="1780.25,-333.62 1639,-333.62 1639,-314.38 1780.25,-314.38 1780.25,-333.62"/>
<text text-anchor="middle" x="1709.62" y="-320.12" font-family="Helvetica,sans-Serif" font-size="10.00">Ark::internal::ScopeResolver</text>
</a>
</g>
</g>
<!-- Node22&#45;&gt;Node1 -->
<g id="edge30_Node000001_Node000022" class="edge">
<title>Node22&#45;&gt;Node1</title>
<g id="a_edge30_Node000001_Node000022"><a xlink:title=" ">
<path fill="none" stroke="#9a32cd" stroke-dasharray="5,2" d="M1786.8,-311.96C1816.34,-306.69 1850.31,-299.9 1880.75,-292 1906.56,-285.3 1935.32,-275.48 1955.69,-268.11"/>
<polygon fill="#9a32cd" stroke="#9a32cd" points="1786.45,-308.46 1777.2,-313.64 1787.66,-315.36 1786.45,-308.46"/>
</a>
</g>
<text text-anchor="middle" x="1839.5" y="-310.92" font-family="Helvetica,sans-Serif" font-size="10.00" fill="grey"> m_scope_resolver</text>
</g>
<!-- Node23&#45;&gt;Node22 -->
<g id="edge31_Node000022_Node000023" class="edge">
<title>Node23&#45;&gt;Node22</title>
<g id="a_edge31_Node000022_Node000023"><a xlink:title=" ">
<path fill="none" stroke="#9a32cd" stroke-dasharray="5,2" d="M1535.19,-328.51C1569.42,-327.62 1607.28,-326.63 1638.88,-325.81"/>
<polygon fill="#9a32cd" stroke="#9a32cd" points="1535.16,-325.01 1525.26,-328.77 1535.34,-332 1535.16,-325.01"/>
</a>
</g>
<text text-anchor="middle" x="1581.25" y="-330.08" font-family="Helvetica,sans-Serif" font-size="10.00" fill="grey"> m_scopes</text>
</g>
<!-- Node24 -->
<g id="Node000024" class="node">
<title>Node24</title>
<g id="a_Node000024"><a xlink:title=" ">
<polygon fill="white" stroke="#666666" points="1217.38,-402.25 1095.62,-402.25 1095.62,-371.75 1217.38,-371.75 1217.38,-402.25"/>
<text text-anchor="start" x="1103.62" y="-388.75" font-family="Helvetica,sans-Serif" font-size="10.00">std::unique_ptr&lt; Ark</text>
<text text-anchor="middle" x="1156.5" y="-377.5" font-family="Helvetica,sans-Serif" font-size="10.00">::internal::StaticScope &gt;</text>
</a>
</g>
</g>
<!-- Node24&#45;&gt;Node23 -->
<g id="edge32_Node000023_Node000024" class="edge">
<title>Node24&#45;&gt;Node23</title>
<g id="a_edge32_Node000023_Node000024"><a xlink:title=" ">
<path fill="none" stroke="#9a32cd" stroke-dasharray="5,2" d="M1229.02,-372.68C1268.64,-364.75 1317.96,-354.88 1358.65,-346.73"/>
<polygon fill="#9a32cd" stroke="#9a32cd" points="1228.46,-369.23 1219.34,-374.62 1229.83,-376.09 1228.46,-369.23"/>
</a>
</g>
<text text-anchor="middle" x="1287.75" y="-370.64" font-family="Helvetica,sans-Serif" font-size="10.00" fill="grey"> elements</text>
</g>
<!-- Node25 -->
<g id="Node000025" class="node">
<title>Node25</title>
<g id="a_Node000025"><a xlink:href="../../d3/d8e/classArk_1_1internal_1_1StaticScope.html" target="_top" xlink:title=" ">
<polygon fill="white" stroke="#666666" points="922.5,-407.62 794.75,-407.62 794.75,-388.38 922.5,-388.38 922.5,-407.62"/>
<text text-anchor="middle" x="858.62" y="-394.12" font-family="Helvetica,sans-Serif" font-size="10.00">Ark::internal::StaticScope</text>
</a>
</g>
</g>
<!-- Node25&#45;&gt;Node24 -->
<g id="edge33_Node000024_Node000025" class="edge">
<title>Node25&#45;&gt;Node24</title>
<g id="a_edge33_Node000024_Node000025"><a xlink:title=" ">
<path fill="none" stroke="#9a32cd" stroke-dasharray="5,2" d="M934.11,-395.23C984.04,-393.37 1048.92,-390.96 1095.52,-389.23"/>
<polygon fill="#9a32cd" stroke="#9a32cd" points="934.11,-391.73 924.25,-395.6 934.37,-398.72 934.11,-391.73"/>
</a>
</g>
<text text-anchor="middle" x="1006.5" y="-396.5" font-family="Helvetica,sans-Serif" font-size="10.00" fill="grey"> ptr</text>
</g>
<!-- Node26&#45;&gt;Node25 -->
<g id="edge34_Node000025_Node000026" class="edge">
<title>Node26&#45;&gt;Node25</title>
<g id="a_edge34_Node000025_Node000026"><a xlink:title=" ">
<path fill="none" stroke="#9a32cd" stroke-dasharray="5,2" d="M727.84,-392.47C749.96,-393.41 773.58,-394.42 794.53,-395.31"/>
<polygon fill="#9a32cd" stroke="#9a32cd" points="728.08,-388.98 717.94,-392.05 727.78,-395.97 728.08,-388.98"/>
</a>
</g>
<text text-anchor="middle" x="755.38" y="-396.06" font-family="Helvetica,sans-Serif" font-size="10.00" fill="grey"> m_vars</text>
</g>
<!-- Node27&#45;&gt;Node26 -->
<g id="edge35_Node000026_Node000027" class="edge">
<title>Node27&#45;&gt;Node26</title>
<g id="a_edge35_Node000026_Node000027"><a xlink:title=" ">
<path fill="none" stroke="#9a32cd" stroke-dasharray="5,2" d="M422.23,-325.94C462.53,-328.02 513.15,-333.25 556.75,-345.75 578.77,-352.06 601.93,-363.74 618.91,-373.38"/>
<polygon fill="#9a32cd" stroke="#9a32cd" points="422.55,-322.45 412.4,-325.49 422.23,-329.44 422.55,-322.45"/>
</a>
</g>
<text text-anchor="middle" x="492.62" y="-347.5" font-family="Helvetica,sans-Serif" font-size="10.00" fill="grey"> keys</text>
</g>
<!-- Node28&#45;&gt;Node24 -->
<g id="edge38_Node000024_Node000028" class="edge">
<title>Node28&#45;&gt;Node24</title>
<g id="a_edge38_Node000024_Node000028"><a xlink:title=" ">
<path fill="none" stroke="orange" stroke-dasharray="5,2" d="M922.63,-363.71C965.06,-365.87 1022.23,-369.43 1072.5,-374.75 1079.89,-375.53 1087.63,-376.49 1095.28,-377.52"/>
<polygon fill="orange" stroke="orange" points="923.02,-360.23 912.86,-363.23 922.67,-367.22 923.02,-360.23"/>
</a>
</g>
<text text-anchor="middle" x="1006.5" y="-376.5" font-family="Helvetica,sans-Serif" font-size="10.00" fill="grey"> &lt; Ark::internal::StaticScope &gt;</text>
</g>
</g>
</svg>

<g id="navigator" transform="translate(0 0)" fill="#404254">
  <rect fill="#f2f5e9" fill-opacity="0.5" stroke="#606060" stroke-width=".5" x="0" y="0" width="60" height="60"/>
  <use id="zoomplus" xlink:href="#zoomPlus" x="17" y="9" onmousedown="handleZoom(evt,'in')"/>
  <use id="zoomminus" xlink:href="#zoomMin" x="42" y="9" onmousedown="handleZoom(evt,'out')"/>
  <use id="reset" xlink:href="#resetDef" x="30" y="36" onmousedown="handleReset()"/>
   <use id="arrowup" xlink:href="#arrowUp" x="0" y="0" onmousedown="handlePan(0,-1)"/>
  <use id="arrowright" xlink:href="#arrowRight" x="0" y="0" onmousedown="handlePan(1,0)"/>
  <use id="arrowdown" xlink:href="#arrowDown" x="0" y="0" onmousedown="handlePan(0,1)"/>
  <use id="arrowleft" xlink:href="#arrowLeft" x="0" y="0" onmousedown="handlePan(-1,0)"/>
</g>
<svg viewBox="0 0 15 15" width="100%" height="30px" preserveAspectRatio="xMaxYMin meet">
 <g id="arrow_out" transform="scale(0.3 0.3)">
  <a xlink:href="classArk_1_1internal_1_1NameResolutionPass__coll__graph_org.svg" target="_base">
   <rect id="button" ry="5" rx="5" y="6" x="6" height="38" width="38"
        fill="#f2f5e9" fill-opacity="0.5" stroke="#606060" stroke-width="1.0"/>
   <path id="arrow"
     d="M 11.500037,31.436501 C 11.940474,20.09759 22.043105,11.32322 32.158766,21.979434 L 37.068811,17.246167 C 37.068811,17.246167 37.088388,32 37.088388,32 L 22.160133,31.978069 C 22.160133,31.978069 26.997745,27.140456 26.997745,27.140456 C 18.528582,18.264221 13.291696,25.230495 11.500037,31.436501 z"
     style="fill:#404040;"/>
  </a>
 </g>
</svg>

<style type='text/css'>
<![CDATA[
[data-mouse-over-selected='false'] { opacity: 0.7; }
[data-mouse-over-selected='true']  { opacity: 1.0; }
]]>
</style>
<script type="application/ecmascript"><![CDATA[
document.addEventListener('DOMContentLoaded', (event) => {
  highlightEdges();
  highlightAdjacentNodes();
});
]]></script>
</svg>
