<?xml version="1.0" encoding="UTF-8" standalone="no"?>
<!DOCTYPE svg PUBLIC "-//W3C//DTD SVG 1.1//EN"
 "http://www.w3.org/Graphics/SVG/1.1/DTD/svg11.dtd">
<!-- Generated by graphviz version 12.2.0 (20241103.1931)
 -->
<!-- Title: Ark::internal::BaseParser Pages: 1 -->
<svg width="893pt" height="232pt"
 viewBox="0.00 0.00 892.80 231.50" xmlns="http://www.w3.org/2000/svg" xmlns:xlink="http://www.w3.org/1999/xlink">
<g id="graph0" class="graph" transform="scale(1 1) rotate(0) translate(4 227.5)">
<title>Ark::internal::BaseParser</title>
<!-- Node1 -->
<g id="Node000001" class="node">
<title>Node1</title>
<g id="a_Node000001"><a xlink:title=" ">
<polygon fill="#999999" stroke="#666666" points="884.8,-125.88 759.3,-125.88 759.3,-106.62 884.8,-106.62 884.8,-125.88"/>
<text text-anchor="middle" x="822.05" y="-112.38" font-family="Helvetica,sans-Serif" font-size="10.00">Ark::internal::BaseParser</text>
</a>
</g>
</g>
<!-- Node2 -->
<g id="Node000002" class="node">
<title>Node2</title>
<g id="a_Node000002"><a xlink:title=" ">
<polygon fill="white" stroke="#666666" points="634.05,-215.88 574.55,-215.88 574.55,-196.62 634.05,-196.62 634.05,-215.88"/>
<text text-anchor="middle" x="604.3" y="-202.38" font-family="Helvetica,sans-Serif" font-size="10.00">std::string</text>
</a>
</g>
</g>
<!-- Node2&#45;&gt;Node1 -->
<g id="edge1_Node000001_Node000002" class="edge">
<title>Node2&#45;&gt;Node1</title>
<g id="a_edge1_Node000001_Node000002"><a xlink:title=" ">
<path fill="none" stroke="#9a32cd" stroke-dasharray="5,2" d="M645.71,-203.25C673.6,-199.99 710.99,-193.24 741.3,-179.25 770.14,-165.94 797.85,-140.2 811.76,-126.09"/>
<polygon fill="#9a32cd" stroke="#9a32cd" points="645.46,-199.75 635.88,-204.28 646.2,-206.72 645.46,-199.75"/>
</a>
</g>
<text text-anchor="middle" x="713.17" y="-209.47" font-family="Helvetica,sans-Serif" font-size="10.00" fill="grey"> m_filename</text>
<text text-anchor="middle" x="713.17" y="-198.22" font-family="Helvetica,sans-Serif" font-size="10.00" fill="grey">m_str</text>
</g>
<!-- Node3 -->
<g id="Node000003" class="node">
<title>Node3</title>
<g id="a_Node000003"><a xlink:title=" ">
<polygon fill="white" stroke="#666666" points="453.8,-223.5 359.8,-223.5 359.8,-193 453.8,-193 453.8,-223.5"/>
<text text-anchor="start" x="367.8" y="-210" font-family="Helvetica,sans-Serif" font-size="10.00">std::basic_string&lt;</text>
<text text-anchor="middle" x="406.8" y="-198.75" font-family="Helvetica,sans-Serif" font-size="10.00"> Char &gt;</text>
</a>
</g>
</g>
<!-- Node3&#45;&gt;Node2 -->
<g id="edge2_Node000002_Node000003" class="edge">
<title>Node3&#45;&gt;Node2</title>
<g id="a_edge2_Node000002_Node000003"><a xlink:title=" ">
<path fill="none" stroke="#63b8ff" d="M465.41,-207.66C501.21,-207.29 545.68,-206.84 574.28,-206.55"/>
<polygon fill="#63b8ff" stroke="#63b8ff" points="465.61,-204.16 455.64,-207.76 465.68,-211.16 465.61,-204.16"/>
</a>
</g>
</g>
<!-- Node4 -->
<g id="Node000004" class="node">
<title>Node4</title>
<g id="a_Node000004"><a xlink:title=" ">
<polygon fill="white" stroke="#666666" points="657.67,-137.12 550.92,-137.12 550.92,-95.38 657.67,-95.38 657.67,-137.12"/>
<text text-anchor="start" x="558.92" y="-123.62" font-family="Helvetica,sans-Serif" font-size="10.00">std::vector&lt; std::pair</text>
<text text-anchor="start" x="558.92" y="-112.38" font-family="Helvetica,sans-Serif" font-size="10.00">&lt; std::string::iterator,</text>
<text text-anchor="middle" x="604.3" y="-101.12" font-family="Helvetica,sans-Serif" font-size="10.00"> std::size_t &gt; &gt;</text>
</a>
</g>
</g>
<!-- Node4&#45;&gt;Node1 -->
<g id="edge3_Node000001_Node000004" class="edge">
<title>Node4&#45;&gt;Node1</title>
<g id="a_edge3_Node000001_Node000004"><a xlink:title=" ">
<path fill="none" stroke="#9a32cd" stroke-dasharray="5,2" d="M669.46,-116.25C697.73,-116.25 730.82,-116.25 758.86,-116.25"/>
<polygon fill="#9a32cd" stroke="#9a32cd" points="669.59,-112.75 659.59,-116.25 669.59,-119.75 669.59,-112.75"/>
</a>
</g>
<text text-anchor="middle" x="713.17" y="-118" font-family="Helvetica,sans-Serif" font-size="10.00" fill="grey"> m_it_to_row</text>
</g>
<!-- Node5 -->
<g id="Node000005" class="node">
<title>Node5</title>
<g id="a_Node000005"><a xlink:title=" ">
<polygon fill="white" stroke="#666666" points="462.8,-137.5 350.8,-137.5 350.8,-107 462.8,-107 462.8,-137.5"/>
<text text-anchor="start" x="358.8" y="-124" font-family="Helvetica,sans-Serif" font-size="10.00">std::pair&lt; std::string</text>
<text text-anchor="middle" x="406.8" y="-112.75" font-family="Helvetica,sans-Serif" font-size="10.00">::iterator, std::size_t &gt;</text>
</a>
</g>
</g>
<!-- Node5&#45;&gt;Node4 -->
<g id="edge4_Node000004_Node000005" class="edge">
<title>Node5&#45;&gt;Node4</title>
<g id="a_edge4_Node000004_Node000005"><a xlink:title=" ">
<path fill="none" stroke="#9a32cd" stroke-dasharray="5,2" d="M474.49,-120.2C499.37,-119.44 527.25,-118.58 550.69,-117.86"/>
<polygon fill="#9a32cd" stroke="#9a32cd" points="474.7,-116.7 464.81,-120.5 474.92,-123.69 474.7,-116.7"/>
</a>
</g>
<text text-anchor="middle" x="502.17" y="-121.71" font-family="Helvetica,sans-Serif" font-size="10.00" fill="grey"> elements</text>
</g>
<!-- Node6 -->
<g id="Node000006" class="node">
<title>Node6</title>
<g id="a_Node000006"><a xlink:title=" ">
<polygon fill="white" stroke="#666666" points="219.92,-161.88 124.42,-161.88 124.42,-142.62 219.92,-142.62 219.92,-161.88"/>
<text text-anchor="middle" x="172.17" y="-148.38" font-family="Helvetica,sans-Serif" font-size="10.00">std::string::iterator</text>
</a>
</g>
</g>
<!-- Node6&#45;&gt;Node1 -->
<g id="edge11_Node000001_Node000006" class="edge">
<title>Node6&#45;&gt;Node1</title>
<g id="a_edge11_Node000001_Node000006"><a xlink:title=" ">
<path fill="none" stroke="#9a32cd" stroke-dasharray="5,2" d="M231.69,-154.99C324.36,-158.55 510.42,-162.55 667.05,-146.25 705.66,-142.23 749,-133.39 779.84,-126.34"/>
<polygon fill="#9a32cd" stroke="#9a32cd" points="231.97,-151.5 221.84,-154.6 231.69,-158.49 231.97,-151.5"/>
</a>
</g>
<text text-anchor="middle" x="502.17" y="-170.12" font-family="Helvetica,sans-Serif" font-size="10.00" fill="grey"> m_it</text>
<text text-anchor="middle" x="502.17" y="-158.87" font-family="Helvetica,sans-Serif" font-size="10.00" fill="grey">m_next_it</text>
</g>
<!-- Node6&#45;&gt;Node5 -->
<g id="edge5_Node000005_Node000006" class="edge">
<title>Node6&#45;&gt;Node5</title>
<g id="a_edge5_Node000005_Node000006"><a xlink:title=" ">
<path fill="none" stroke="#9a32cd" stroke-dasharray="5,2" d="M231.49,-141.16C234.04,-140.75 236.57,-140.36 239.05,-140 276.07,-134.6 317.94,-130.15 350.46,-127.05"/>
<polygon fill="#9a32cd" stroke="#9a32cd" points="231.02,-137.69 221.73,-142.79 232.17,-144.59 231.02,-137.69"/>
</a>
</g>
<text text-anchor="middle" x="285.92" y="-141.75" font-family="Helvetica,sans-Serif" font-size="10.00" fill="grey"> first_type</text>
</g>
<!-- Node7 -->
<g id="Node000007" class="node">
<title>Node7</title>
<g id="a_Node000007"><a xlink:title=" ">
<polygon fill="white" stroke="#666666" points="221.05,-102.88 123.3,-102.88 123.3,-83.62 221.05,-83.62 221.05,-102.88"/>
<text text-anchor="middle" x="172.17" y="-89.38" font-family="Helvetica,sans-Serif" font-size="10.00">std::pair&lt; T1, T2 &gt;</text>
</a>
</g>
</g>
<!-- Node7&#45;&gt;Node5 -->
<g id="edge6_Node000005_Node000007" class="edge">
<title>Node7&#45;&gt;Node5</title>
<g id="a_edge6_Node000005_Node000007"><a xlink:title=" ">
<path fill="none" stroke="orange" stroke-dasharray="5,2" d="M232.67,-88.9C262.9,-87.92 300.07,-88.63 332.8,-94.75 345.85,-97.19 359.6,-101.79 371.61,-106.54"/>
<polygon fill="orange" stroke="orange" points="232.81,-85.39 222.96,-89.29 233.09,-92.38 232.81,-85.39"/>
</a>
</g>
<text text-anchor="start" x="239.05" y="-107.75" font-family="Helvetica,sans-Serif" font-size="10.00" fill="grey"> &lt; std::string::iterator,</text>
<text text-anchor="middle" x="285.92" y="-96.5" font-family="Helvetica,sans-Serif" font-size="10.00" fill="grey"> std::size_t &gt;</text>
</g>
<!-- Node8 -->
<g id="Node000008" class="node">
<title>Node8</title>
<g id="a_Node000008"><a xlink:title=" ">
<polygon fill="white" stroke="#666666" points="28.8,-137.88 0,-137.88 0,-118.62 28.8,-118.62 28.8,-137.88"/>
<text text-anchor="middle" x="14.4" y="-124.38" font-family="Helvetica,sans-Serif" font-size="10.00">T1</text>
</a>
</g>
</g>
<!-- Node8&#45;&gt;Node7 -->
<g id="edge7_Node000007_Node000008" class="edge">
<title>Node8&#45;&gt;Node7</title>
<g id="a_edge7_Node000007_Node000008"><a xlink:title=" ">
<path fill="none" stroke="#9a32cd" stroke-dasharray="5,2" d="M40.45,-122.62C63.59,-117.42 98.51,-109.58 126.44,-103.3"/>
<polygon fill="#9a32cd" stroke="#9a32cd" points="39.69,-119.21 30.7,-124.81 41.22,-126.03 39.69,-119.21"/>
</a>
</g>
<text text-anchor="middle" x="76.05" y="-122.44" font-family="Helvetica,sans-Serif" font-size="10.00" fill="grey"> first_type</text>
</g>
<!-- Node9 -->
<g id="Node000009" class="node">
<title>Node9</title>
<g id="a_Node000009"><a xlink:title=" ">
<polygon fill="white" stroke="#666666" points="28.8,-100.88 0,-100.88 0,-81.62 28.8,-81.62 28.8,-100.88"/>
<text text-anchor="middle" x="14.4" y="-87.38" font-family="Helvetica,sans-Serif" font-size="10.00">T2</text>
</a>
</g>
</g>
<!-- Node9&#45;&gt;Node7 -->
<g id="edge8_Node000007_Node000009" class="edge">
<title>Node9&#45;&gt;Node7</title>
<g id="a_edge8_Node000007_Node000009"><a xlink:title=" ">
<path fill="none" stroke="#9a32cd" stroke-dasharray="5,2" d="M40.64,-91.57C62.84,-91.86 95.76,-92.28 122.99,-92.63"/>
<polygon fill="#9a32cd" stroke="#9a32cd" points="40.78,-88.08 30.74,-91.45 40.69,-95.08 40.78,-88.08"/>
</a>
</g>
<text text-anchor="middle" x="76.05" y="-94.12" font-family="Helvetica,sans-Serif" font-size="10.00" fill="grey"> second_type</text>
</g>
<!-- Node10 -->
<g id="Node000010" class="node">
<title>Node10</title>
<g id="a_Node000010"><a xlink:title=" ">
<polygon fill="white" stroke="#666666" points="329.17,-66.88 242.67,-66.88 242.67,-47.62 329.17,-47.62 329.17,-66.88"/>
<text text-anchor="middle" x="285.92" y="-53.38" font-family="Helvetica,sans-Serif" font-size="10.00">std::vector&lt; T &gt;</text>
</a>
</g>
</g>
<!-- Node10&#45;&gt;Node4 -->
<g id="edge9_Node000004_Node000010" class="edge">
<title>Node10&#45;&gt;Node4</title>
<g id="a_edge9_Node000004_Node000010"><a xlink:title=" ">
<path fill="none" stroke="orange" stroke-dasharray="5,2" d="M340.92,-60.46C375.91,-63.15 422.33,-67.85 462.8,-75.75 492.2,-81.49 524.35,-90.54 550.46,-98.63"/>
<polygon fill="orange" stroke="orange" points="341.26,-56.98 331.03,-59.74 340.75,-63.96 341.26,-56.98"/>
</a>
</g>
<text text-anchor="start" x="354.3" y="-88.75" font-family="Helvetica,sans-Serif" font-size="10.00" fill="grey"> &lt; std::pair&lt; std::string</text>
<text text-anchor="middle" x="406.8" y="-77.5" font-family="Helvetica,sans-Serif" font-size="10.00" fill="grey">::iterator, std::size_t &gt; &gt;</text>
</g>
<!-- Node11 -->
<g id="Node000011" class="node">
<title>Node11</title>
<g id="a_Node000011"><a xlink:title=" ">
<polygon fill="white" stroke="#666666" points="28.8,-48.88 0,-48.88 0,-29.62 28.8,-29.62 28.8,-48.88"/>
<text text-anchor="middle" x="14.4" y="-35.38" font-family="Helvetica,sans-Serif" font-size="10.00">T</text>
</a>
</g>
</g>
<!-- Node11&#45;&gt;Node10 -->
<g id="edge10_Node000010_Node000011" class="edge">
<title>Node11&#45;&gt;Node10</title>
<g id="a_edge10_Node000010_Node000011"><a xlink:title=" ">
<path fill="none" stroke="#9a32cd" stroke-dasharray="5,2" d="M40.41,-40.92C86.49,-44 185.28,-50.6 242.18,-54.4"/>
<polygon fill="#9a32cd" stroke="#9a32cd" points="40.86,-37.44 30.65,-40.27 40.39,-44.43 40.86,-37.44"/>
</a>
</g>
<text text-anchor="middle" x="76.05" y="-46.97" font-family="Helvetica,sans-Serif" font-size="10.00" fill="grey"> elements</text>
</g>
<!-- Node14 -->
<g id="Node000014" class="node">
<title>Node14</title>
<g id="a_Node000014"><a xlink:title=" ">
<polygon fill="white" stroke="#666666" points="212.8,-26.88 131.55,-26.88 131.55,-7.62 212.8,-7.62 212.8,-26.88"/>
<text text-anchor="middle" x="172.17" y="-13.38" font-family="Helvetica,sans-Serif" font-size="10.00">std::array&lt; T &gt;</text>
</a>
</g>
</g>
<!-- Node11&#45;&gt;Node14 -->
<g id="edge15_Node000014_Node000011" class="edge">
<title>Node11&#45;&gt;Node14</title>
<g id="a_edge15_Node000014_Node000011"><a xlink:title=" ">
<path fill="none" stroke="#9a32cd" stroke-dasharray="5,2" d="M39.36,-24.66C41.81,-23.61 44.32,-22.69 46.8,-22 74.29,-14.38 106.5,-13.36 131.25,-14.15"/>
<polygon fill="#9a32cd" stroke="#9a32cd" points="37.83,-21.51 30.53,-29.18 41.02,-27.74 37.83,-21.51"/>
</a>
</g>
<text text-anchor="middle" x="76.05" y="-23.75" font-family="Helvetica,sans-Serif" font-size="10.00" fill="grey"> elements</text>
</g>
<!-- Node12 -->
<g id="Node000012" class="node">
<title>Node12</title>
<g id="a_Node000012"><a xlink:href="../../df/d83/classArk_1_1internal_1_1utf8__char__t.html" target="_top" xlink:title=" ">
<polygon fill="white" stroke="#666666" points="649.8,-77.5 558.8,-77.5 558.8,-47 649.8,-47 649.8,-77.5"/>
<text text-anchor="start" x="566.8" y="-64" font-family="Helvetica,sans-Serif" font-size="10.00">Ark::internal::utf8</text>
<text text-anchor="middle" x="604.3" y="-52.75" font-family="Helvetica,sans-Serif" font-size="10.00">_char_t</text>
</a>
</g>
</g>
<!-- Node12&#45;&gt;Node1 -->
<g id="edge12_Node000001_Node000012" class="edge">
<title>Node12&#45;&gt;Node1</title>
<g id="a_edge12_Node000001_Node000012"><a xlink:title=" ">
<path fill="none" stroke="#9a32cd" stroke-dasharray="5,2" d="M661.02,-76.2C698.53,-85.59 747.12,-97.75 780.87,-106.19"/>
<polygon fill="#9a32cd" stroke="#9a32cd" points="662.28,-72.9 651.73,-73.87 660.58,-79.7 662.28,-72.9"/>
</a>
</g>
<text text-anchor="middle" x="713.17" y="-97.42" font-family="Helvetica,sans-Serif" font-size="10.00" fill="grey"> m_sym</text>
</g>
<!-- Node13 -->
<g id="Node000013" class="node">
<title>Node13</title>
<g id="a_Node000013"><a xlink:title=" ">
<polygon fill="white" stroke="#666666" points="459.42,-30.5 354.17,-30.5 354.17,0 459.42,0 459.42,-30.5"/>
<text text-anchor="start" x="362.17" y="-17" font-family="Helvetica,sans-Serif" font-size="10.00">std::array&lt; unsigned</text>
<text text-anchor="middle" x="406.8" y="-5.75" font-family="Helvetica,sans-Serif" font-size="10.00"> char, 5 &gt;</text>
</a>
</g>
</g>
<!-- Node13&#45;&gt;Node12 -->
<g id="edge13_Node000012_Node000013" class="edge">
<title>Node13&#45;&gt;Node12</title>
<g id="a_edge13_Node000012_Node000013"><a xlink:title=" ">
<path fill="none" stroke="#9a32cd" stroke-dasharray="5,2" d="M470.8,-28.77C487.94,-32.58 506.49,-36.83 523.55,-41 534.96,-43.79 547.25,-46.97 558.67,-50.01"/>
<polygon fill="#9a32cd" stroke="#9a32cd" points="471.76,-25.4 461.24,-26.66 470.25,-32.23 471.76,-25.4"/>
</a>
</g>
<text text-anchor="middle" x="502.17" y="-42.75" font-family="Helvetica,sans-Serif" font-size="10.00" fill="grey"> m_repr</text>
</g>
<!-- Node14&#45;&gt;Node13 -->
<g id="edge14_Node000013_Node000014" class="edge">
<title>Node14&#45;&gt;Node13</title>
<g id="a_edge14_Node000013_Node000014"><a xlink:title=" ">
<path fill="none" stroke="orange" stroke-dasharray="5,2" d="M224.59,-16.81C262.95,-16.48 315.16,-16.03 353.69,-15.7"/>
<polygon fill="orange" stroke="orange" points="224.65,-13.31 214.68,-16.89 224.71,-20.31 224.65,-13.31"/>
</a>
</g>
<text text-anchor="middle" x="285.92" y="-18.41" font-family="Helvetica,sans-Serif" font-size="10.00" fill="grey"> &lt; unsigned char, 5 &gt;</text>
</g>
<!-- Node15 -->
<g id="Node000015" class="node">
<title>Node15</title>
<g id="a_Node000015"><a xlink:href="../../dd/d0e/structArk_1_1internal_1_1FilePosition.html" target="_top" xlink:title="Describe a position in a given file ; handled by the BaseParser.">
<polygon fill="white" stroke="#666666" points="667.05,-28.88 541.55,-28.88 541.55,-9.62 667.05,-9.62 667.05,-28.88"/>
<text text-anchor="middle" x="604.3" y="-15.38" font-family="Helvetica,sans-Serif" font-size="10.00">Ark::internal::FilePosition</text>
</a>
</g>
</g>
<!-- Node15&#45;&gt;Node1 -->
<g id="edge16_Node000001_Node000015" class="edge">
<title>Node15&#45;&gt;Node1</title>
<g id="a_edge16_Node000001_Node000015"><a xlink:title=" ">
<path fill="none" stroke="#9a32cd" stroke-dasharray="5,2" d="M650.44,-32.67C656.06,-34.47 661.7,-36.36 667.05,-38.25 700.57,-50.1 709.49,-52.13 741.3,-68 764.76,-79.7 790.46,-95.91 806.18,-106.24"/>
<polygon fill="#9a32cd" stroke="#9a32cd" points="651.79,-29.42 641.2,-29.76 649.69,-36.1 651.79,-29.42"/>
</a>
</g>
<text text-anchor="middle" x="713.17" y="-69.75" font-family="Helvetica,sans-Serif" font-size="10.00" fill="grey"> m_filepos</text>
</g>
</g>
</svg>
