<?xml version="1.0" encoding="UTF-8" standalone="no"?>
<!DOCTYPE svg PUBLIC "-//W3C//DTD SVG 1.1//EN"
 "http://www.w3.org/Graphics/SVG/1.1/DTD/svg11.dtd">
<!-- Generated by graphviz version 12.2.0 (20241103.1931)
 -->
<!-- Title: /Users/fola/Documents/ArkScript/Ark/src/arkreactor/Error/PrettyPrinting.cpp Pages: 1 -->
<svg width="1076pt" height="216pt"
 viewBox="0.00 0.00 1075.64 215.50" xmlns="http://www.w3.org/2000/svg" xmlns:xlink="http://www.w3.org/1999/xlink">
<g id="graph0" class="graph" transform="scale(1 1) rotate(0) translate(4 211.5)">
<title>/Users/fola/Documents/ArkScript/Ark/src/arkreactor/Error/PrettyPrinting.cpp</title>
<!-- Node1 -->
<g id="Node000001" class="node">
<title>Node1</title>
<g id="a_Node000001"><a xlink:title=" ">
<polygon fill="#999999" stroke="#666666" points="835.51,-207.5 695.01,-207.5 695.01,-165.75 835.51,-165.75 835.51,-207.5"/>
<text text-anchor="start" x="703.01" y="-194" font-family="Helvetica,sans-Serif" font-size="10.00">/Users/fola/Documents</text>
<text text-anchor="start" x="703.01" y="-182.75" font-family="Helvetica,sans-Serif" font-size="10.00">/ArkScript/Ark/src/arkreactor</text>
<text text-anchor="middle" x="765.26" y="-171.5" font-family="Helvetica,sans-Serif" font-size="10.00">/Error/PrettyPrinting.cpp</text>
</a>
</g>
</g>
<!-- Node2 -->
<g id="Node000002" class="node">
<title>Node2</title>
<g id="a_Node000002"><a xlink:href="../../de/d68/PrettyPrinting_8hpp.html" target="_top" xlink:title="Pretty printing utilities for diagnostics.">
<polygon fill="white" stroke="#666666" points="291.26,-129.75 155.26,-129.75 155.26,-110.5 291.26,-110.5 291.26,-129.75"/>
<text text-anchor="middle" x="223.26" y="-116.25" font-family="Helvetica,sans-Serif" font-size="10.00">Ark/Error/PrettyPrinting.hpp</text>
</a>
</g>
</g>
<!-- Node1&#45;&gt;Node2 -->
<g id="edge1_Node000001_Node000002" class="edge">
<title>Node1&#45;&gt;Node2</title>
<g id="a_edge1_Node000001_Node000002"><a xlink:title=" ">
<path fill="none" stroke="#63b8ff" d="M694.68,-177.23C593.72,-165.21 408.62,-143.18 302.89,-130.6"/>
<polygon fill="#63b8ff" stroke="#63b8ff" points="303.5,-127.15 293.15,-129.44 302.67,-134.1 303.5,-127.15"/>
</a>
</g>
</g>
<!-- Node9 -->
<g id="Node000009" class="node">
<title>Node9</title>
<g id="a_Node000009"><a xlink:href="../../d6/de9/Constants_8hpp.html" target="_top" xlink:title="Constants used by ArkScript.">
<polygon fill="white" stroke="#666666" points="771.14,-129.75 673.39,-129.75 673.39,-110.5 771.14,-110.5 771.14,-129.75"/>
<text text-anchor="middle" x="722.26" y="-116.25" font-family="Helvetica,sans-Serif" font-size="10.00">Ark/Constants.hpp</text>
</a>
</g>
</g>
<!-- Node1&#45;&gt;Node9 -->
<g id="edge10_Node000001_Node000009" class="edge">
<title>Node1&#45;&gt;Node9</title>
<g id="a_edge10_Node000001_Node000009"><a xlink:title=" ">
<path fill="none" stroke="#63b8ff" d="M751.89,-165.57C746.35,-157.25 739.95,-147.66 734.53,-139.52"/>
<polygon fill="#63b8ff" stroke="#63b8ff" points="737.61,-137.83 729.15,-131.45 731.78,-141.72 737.61,-137.83"/>
</a>
</g>
</g>
<!-- Node14 -->
<g id="Node000014" class="node">
<title>Node14</title>
<g id="a_Node000014"><a xlink:href="../../d4/dc0/Files_8hpp.html" target="_top" xlink:title="Lots of utilities about the filesystem.">
<polygon fill="white" stroke="#666666" points="616.76,-129.75 519.76,-129.75 519.76,-110.5 616.76,-110.5 616.76,-129.75"/>
<text text-anchor="middle" x="568.26" y="-116.25" font-family="Helvetica,sans-Serif" font-size="10.00">Ark/Utils/Files.hpp</text>
</a>
</g>
</g>
<!-- Node1&#45;&gt;Node14 -->
<g id="edge15_Node000001_Node000014" class="edge">
<title>Node1&#45;&gt;Node14</title>
<g id="a_edge15_Node000001_Node000014"><a xlink:title=" ">
<path fill="none" stroke="#63b8ff" d="M703.2,-165.31C671.58,-154.95 634.13,-142.69 606.71,-133.71"/>
<polygon fill="#63b8ff" stroke="#63b8ff" points="608.02,-130.46 597.43,-130.68 605.85,-137.11 608.02,-130.46"/>
</a>
</g>
</g>
<!-- Node17 -->
<g id="Node000017" class="node">
<title>Node17</title>
<g id="a_Node000017"><a xlink:href="../../d3/d7a/Ark_2Utils_2Utils_8hpp.html" target="_top" xlink:title="Lots of utilities about string, filesystem and more.">
<polygon fill="white" stroke="#666666" points="459.39,-129.75 363.14,-129.75 363.14,-110.5 459.39,-110.5 459.39,-129.75"/>
<text text-anchor="middle" x="411.26" y="-116.25" font-family="Helvetica,sans-Serif" font-size="10.00">Ark/Utils/Utils.hpp</text>
</a>
</g>
</g>
<!-- Node1&#45;&gt;Node17 -->
<g id="edge20_Node000001_Node000017" class="edge">
<title>Node1&#45;&gt;Node17</title>
<g id="a_edge20_Node000001_Node000017"><a xlink:title=" ">
<path fill="none" stroke="#63b8ff" d="M694.9,-172.8C629.32,-160.86 532.59,-143.23 470.76,-131.97"/>
<polygon fill="#63b8ff" stroke="#63b8ff" points="471.59,-128.56 461.13,-130.21 470.34,-135.45 471.59,-128.56"/>
</a>
</g>
</g>
<!-- Node20 -->
<g id="Node000020" class="node">
<title>Node20</title>
<g id="a_Node000020"><a xlink:title=" ">
<polygon fill="#e0e0e0" stroke="#999999" points="827.14,-129.75 789.39,-129.75 789.39,-110.5 827.14,-110.5 827.14,-129.75"/>
<text text-anchor="middle" x="808.26" y="-116.25" font-family="Helvetica,sans-Serif" font-size="10.00">array</text>
</a>
</g>
</g>
<!-- Node1&#45;&gt;Node20 -->
<g id="edge26_Node000001_Node000020" class="edge">
<title>Node1&#45;&gt;Node20</title>
<g id="a_edge26_Node000001_Node000020"><a xlink:title=" ">
<path fill="none" stroke="#63b8ff" d="M778.63,-165.57C784.18,-157.25 790.57,-147.66 796,-139.52"/>
<polygon fill="#63b8ff" stroke="#63b8ff" points="798.74,-141.72 801.38,-131.45 792.92,-137.83 798.74,-141.72"/>
</a>
</g>
</g>
<!-- Node21 -->
<g id="Node000021" class="node">
<title>Node21</title>
<g id="a_Node000021"><a xlink:title=" ">
<polygon fill="#e0e0e0" stroke="#999999" points="893.39,-129.75 845.14,-129.75 845.14,-110.5 893.39,-110.5 893.39,-129.75"/>
<text text-anchor="middle" x="869.26" y="-116.25" font-family="Helvetica,sans-Serif" font-size="10.00">cassert</text>
</a>
</g>
</g>
<!-- Node1&#45;&gt;Node21 -->
<g id="edge27_Node000001_Node000021" class="edge">
<title>Node1&#45;&gt;Node21</title>
<g id="a_edge27_Node000001_Node000021"><a xlink:title=" ">
<path fill="none" stroke="#63b8ff" d="M797.88,-165.39C813.22,-155.88 831.19,-144.74 845.26,-136.01"/>
<polygon fill="#63b8ff" stroke="#63b8ff" points="846.78,-139.19 853.43,-130.94 843.09,-133.24 846.78,-139.19"/>
</a>
</g>
</g>
<!-- Node22 -->
<g id="Node000022" class="node">
<title>Node22</title>
<g id="a_Node000022"><a xlink:title=" ">
<polygon fill="#e0e0e0" stroke="#999999" points="973.14,-129.75 911.39,-129.75 911.39,-110.5 973.14,-110.5 973.14,-129.75"/>
<text text-anchor="middle" x="942.26" y="-116.25" font-family="Helvetica,sans-Serif" font-size="10.00">fmt/color.h</text>
</a>
</g>
</g>
<!-- Node1&#45;&gt;Node22 -->
<g id="edge28_Node000001_Node000022" class="edge">
<title>Node1&#45;&gt;Node22</title>
<g id="a_edge28_Node000001_Node000022"><a xlink:title=" ">
<path fill="none" stroke="#63b8ff" d="M820.78,-165.39C848.92,-155.14 882.24,-143 906.86,-134.03"/>
<polygon fill="#63b8ff" stroke="#63b8ff" points="907.89,-137.37 916.09,-130.66 905.5,-130.8 907.89,-137.37"/>
</a>
</g>
</g>
<!-- Node23 -->
<g id="Node000023" class="node">
<title>Node23</title>
<g id="a_Node000023"><a xlink:title=" ">
<polygon fill="#e0e0e0" stroke="#999999" points="1067.64,-129.75 990.89,-129.75 990.89,-110.5 1067.64,-110.5 1067.64,-129.75"/>
<text text-anchor="middle" x="1029.26" y="-116.25" font-family="Helvetica,sans-Serif" font-size="10.00">fmt/ostream.h</text>
</a>
</g>
</g>
<!-- Node1&#45;&gt;Node23 -->
<g id="edge29_Node000001_Node000023" class="edge">
<title>Node1&#45;&gt;Node23</title>
<g id="a_edge29_Node000001_Node000023"><a xlink:title=" ">
<path fill="none" stroke="#63b8ff" d="M836.01,-168.34C881.94,-157.12 940.59,-142.79 981.16,-132.88"/>
<polygon fill="#63b8ff" stroke="#63b8ff" points="981.75,-136.34 990.63,-130.56 980.09,-129.54 981.75,-136.34"/>
</a>
</g>
</g>
<!-- Node3 -->
<g id="Node000003" class="node">
<title>Node3</title>
<g id="a_Node000003"><a xlink:title=" ">
<polygon fill="#e0e0e0" stroke="#999999" points="525.26,-74.5 485.26,-74.5 485.26,-55.25 525.26,-55.25 525.26,-74.5"/>
<text text-anchor="middle" x="505.26" y="-61" font-family="Helvetica,sans-Serif" font-size="10.00">string</text>
</a>
</g>
</g>
<!-- Node2&#45;&gt;Node3 -->
<g id="edge2_Node000002_Node000003" class="edge">
<title>Node2&#45;&gt;Node3</title>
<g id="a_edge2_Node000002_Node000003"><a xlink:title=" ">
<path fill="none" stroke="#63b8ff" d="M286.58,-110.02C335.39,-102.53 404.75,-90.87 473.96,-74.82"/>
<polygon fill="#63b8ff" stroke="#63b8ff" points="474.66,-78.25 483.59,-72.55 473.05,-71.44 474.66,-78.25"/>
</a>
</g>
</g>
<!-- Node4 -->
<g id="Node000004" class="node">
<title>Node4</title>
<g id="a_Node000004"><a xlink:title=" ">
<polygon fill="#e0e0e0" stroke="#999999" points="332.76,-74.5 289.76,-74.5 289.76,-55.25 332.76,-55.25 332.76,-74.5"/>
<text text-anchor="middle" x="311.26" y="-61" font-family="Helvetica,sans-Serif" font-size="10.00">vector</text>
</a>
</g>
</g>
<!-- Node2&#45;&gt;Node4 -->
<g id="edge3_Node000002_Node000004" class="edge">
<title>Node2&#45;&gt;Node4</title>
<g id="a_edge3_Node000002_Node000004"><a xlink:title=" ">
<path fill="none" stroke="#63b8ff" d="M238.19,-110.09C251.47,-102.06 271.13,-90.16 286.72,-80.73"/>
<polygon fill="#63b8ff" stroke="#63b8ff" points="288.22,-83.91 294.97,-75.74 284.6,-77.92 288.22,-83.91"/>
</a>
</g>
</g>
<!-- Node5 -->
<g id="Node000005" class="node">
<title>Node5</title>
<g id="a_Node000005"><a xlink:title=" ">
<polygon fill="#e0e0e0" stroke="#999999" points="194.89,-74.5 143.64,-74.5 143.64,-55.25 194.89,-55.25 194.89,-74.5"/>
<text text-anchor="middle" x="169.26" y="-61" font-family="Helvetica,sans-Serif" font-size="10.00">ostream</text>
</a>
</g>
</g>
<!-- Node2&#45;&gt;Node5 -->
<g id="edge4_Node000002_Node000005" class="edge">
<title>Node2&#45;&gt;Node5</title>
<g id="a_edge4_Node000002_Node000005"><a xlink:title=" ">
<path fill="none" stroke="#63b8ff" d="M214.35,-110.33C206.81,-102.9 195.79,-92.04 186.54,-82.91"/>
<polygon fill="#63b8ff" stroke="#63b8ff" points="189.03,-80.45 179.45,-75.92 184.11,-85.44 189.03,-80.45"/>
</a>
</g>
</g>
<!-- Node6 -->
<g id="Node000006" class="node">
<title>Node6</title>
<g id="a_Node000006"><a xlink:title=" ">
<polygon fill="#e0e0e0" stroke="#999999" points="53.14,-19.25 3.39,-19.25 3.39,0 53.14,0 53.14,-19.25"/>
<text text-anchor="middle" x="28.26" y="-5.75" font-family="Helvetica,sans-Serif" font-size="10.00">optional</text>
</a>
</g>
</g>
<!-- Node2&#45;&gt;Node6 -->
<g id="edge5_Node000002_Node000006" class="edge">
<title>Node2&#45;&gt;Node6</title>
<g id="a_edge5_Node000002_Node000006"><a xlink:title=" ">
<path fill="none" stroke="#63b8ff" d="M154.86,-114.39C98.17,-108.86 23.95,-97.4 5.26,-74.5 -5.65,-61.13 3.45,-42.15 13.24,-28.36"/>
<polygon fill="#63b8ff" stroke="#63b8ff" points="15.91,-30.62 19.28,-20.58 10.38,-26.33 15.91,-30.62"/>
</a>
</g>
</g>
<!-- Node7 -->
<g id="Node000007" class="node">
<title>Node7</title>
<g id="a_Node000007"><a xlink:href="../../d5/d40/Platform_8hpp.html" target="_top" xlink:title="ArkScript configuration macros.">
<polygon fill="white" stroke="#666666" points="279.64,-19.25 166.89,-19.25 166.89,0 279.64,0 279.64,-19.25"/>
<text text-anchor="middle" x="223.26" y="-5.75" font-family="Helvetica,sans-Serif" font-size="10.00">Ark/Utils/Platform.hpp</text>
</a>
</g>
</g>
<!-- Node2&#45;&gt;Node7 -->
<g id="edge6_Node000002_Node000007" class="edge">
<title>Node2&#45;&gt;Node7</title>
<g id="a_edge6_Node000002_Node000007"><a xlink:title=" ">
<path fill="none" stroke="#63b8ff" d="M223.26,-110.25C223.26,-93 223.26,-54.58 223.26,-30.81"/>
<polygon fill="#63b8ff" stroke="#63b8ff" points="226.76,-31.14 223.26,-21.14 219.76,-31.14 226.76,-31.14"/>
</a>
</g>
</g>
<!-- Node8 -->
<g id="Node000008" class="node">
<title>Node8</title>
<g id="a_Node000008"><a xlink:href="../../dc/d58/Position_8hpp.html" target="_top" xlink:title="Defines position utilities (for text in a file) for the parser, formatter, diagnostics.">
<polygon fill="white" stroke="#666666" points="125.89,-74.5 14.64,-74.5 14.64,-55.25 125.89,-55.25 125.89,-74.5"/>
<text text-anchor="middle" x="70.26" y="-61" font-family="Helvetica,sans-Serif" font-size="10.00">Ark/Utils/Position.hpp</text>
</a>
</g>
</g>
<!-- Node2&#45;&gt;Node8 -->
<g id="edge7_Node000002_Node000008" class="edge">
<title>Node2&#45;&gt;Node8</title>
<g id="a_edge7_Node000002_Node000008"><a xlink:title=" ">
<path fill="none" stroke="#63b8ff" d="M197.31,-110.09C172.47,-101.45 134.77,-88.32 106.88,-78.62"/>
<polygon fill="#63b8ff" stroke="#63b8ff" points="108.37,-75.43 97.77,-75.45 106.07,-82.04 108.37,-75.43"/>
</a>
</g>
</g>
<!-- Node8&#45;&gt;Node6 -->
<g id="edge8_Node000008_Node000006" class="edge">
<title>Node8&#45;&gt;Node6</title>
<g id="a_edge8_Node000008_Node000006"><a xlink:title=" ">
<path fill="none" stroke="#63b8ff" d="M63.33,-55.08C57.65,-47.88 49.43,-37.46 42.37,-28.51"/>
<polygon fill="#63b8ff" stroke="#63b8ff" points="45.23,-26.48 36.29,-20.8 39.73,-30.82 45.23,-26.48"/>
</a>
</g>
</g>
<!-- Node8&#45;&gt;Node7 -->
<g id="edge9_Node000008_Node000007" class="edge">
<title>Node8&#45;&gt;Node7</title>
<g id="a_edge9_Node000008_Node000007"><a xlink:title=" ">
<path fill="none" stroke="#63b8ff" d="M96.22,-54.84C121.06,-46.2 158.76,-33.07 186.65,-23.37"/>
<polygon fill="#63b8ff" stroke="#63b8ff" points="187.46,-26.79 195.75,-20.2 185.16,-20.18 187.46,-26.79"/>
</a>
</g>
</g>
<!-- Node10 -->
<g id="Node000010" class="node">
<title>Node10</title>
<g id="a_Node000010"><a xlink:title=" ">
<polygon fill="#e0e0e0" stroke="#999999" points="755.01,-74.5 689.51,-74.5 689.51,-55.25 755.01,-55.25 755.01,-74.5"/>
<text text-anchor="middle" x="722.26" y="-61" font-family="Helvetica,sans-Serif" font-size="10.00">string_view</text>
</a>
</g>
</g>
<!-- Node9&#45;&gt;Node10 -->
<g id="edge11_Node000009_Node000010" class="edge">
<title>Node9&#45;&gt;Node10</title>
<g id="a_edge11_Node000009_Node000010"><a xlink:title=" ">
<path fill="none" stroke="#63b8ff" d="M722.26,-110.33C722.26,-103.82 722.26,-94.67 722.26,-86.37"/>
<polygon fill="#63b8ff" stroke="#63b8ff" points="725.76,-86.37 722.26,-76.37 718.76,-86.37 725.76,-86.37"/>
</a>
</g>
</g>
<!-- Node11 -->
<g id="Node000011" class="node">
<title>Node11</title>
<g id="a_Node000011"><a xlink:title=" ">
<polygon fill="#e0e0e0" stroke="#999999" points="811.89,-74.5 772.64,-74.5 772.64,-55.25 811.89,-55.25 811.89,-74.5"/>
<text text-anchor="middle" x="792.26" y="-61" font-family="Helvetica,sans-Serif" font-size="10.00">limits</text>
</a>
</g>
</g>
<!-- Node9&#45;&gt;Node11 -->
<g id="edge12_Node000009_Node000011" class="edge">
<title>Node9&#45;&gt;Node11</title>
<g id="a_edge12_Node000009_Node000011"><a xlink:title=" ">
<path fill="none" stroke="#63b8ff" d="M734.14,-110.09C744.36,-102.32 759.33,-90.92 771.53,-81.65"/>
<polygon fill="#63b8ff" stroke="#63b8ff" points="773.52,-84.53 779.36,-75.69 769.28,-78.96 773.52,-84.53"/>
</a>
</g>
</g>
<!-- Node12 -->
<g id="Node000012" class="node">
<title>Node12</title>
<g id="a_Node000012"><a xlink:title=" ">
<polygon fill="#e0e0e0" stroke="#999999" points="886.14,-74.5 830.39,-74.5 830.39,-55.25 886.14,-55.25 886.14,-74.5"/>
<text text-anchor="middle" x="858.26" y="-61" font-family="Helvetica,sans-Serif" font-size="10.00">cinttypes</text>
</a>
</g>
</g>
<!-- Node9&#45;&gt;Node12 -->
<g id="edge13_Node000009_Node000012" class="edge">
<title>Node9&#45;&gt;Node12</title>
<g id="a_edge13_Node000009_Node000012"><a xlink:title=" ">
<path fill="none" stroke="#63b8ff" d="M745.33,-110.09C767.02,-101.6 799.74,-88.79 824.39,-79.14"/>
<polygon fill="#63b8ff" stroke="#63b8ff" points="825.63,-82.41 833.67,-75.5 823.08,-75.89 825.63,-82.41"/>
</a>
</g>
</g>
<!-- Node13 -->
<g id="Node000013" class="node">
<title>Node13</title>
<g id="a_Node000013"><a xlink:title=" ">
<polygon fill="#e0e0e0" stroke="#999999" points="952.39,-74.5 904.14,-74.5 904.14,-55.25 952.39,-55.25 952.39,-74.5"/>
<text text-anchor="middle" x="928.26" y="-61" font-family="Helvetica,sans-Serif" font-size="10.00">cstddef</text>
</a>
</g>
</g>
<!-- Node9&#45;&gt;Node13 -->
<g id="edge14_Node000009_Node000013" class="edge">
<title>Node9&#45;&gt;Node13</title>
<g id="a_edge14_Node000009_Node000013"><a xlink:title=" ">
<path fill="none" stroke="#63b8ff" d="M757.72,-110.01C790.45,-101.6 840.67,-88.66 892.93,-75.1"/>
<polygon fill="#63b8ff" stroke="#63b8ff" points="893.49,-78.57 902.29,-72.67 891.73,-71.79 893.49,-78.57"/>
</a>
</g>
</g>
<!-- Node14&#45;&gt;Node3 -->
<g id="edge16_Node000014_Node000003" class="edge">
<title>Node14&#45;&gt;Node3</title>
<g id="a_edge16_Node000014_Node000003"><a xlink:title=" ">
<path fill="none" stroke="#63b8ff" d="M557.58,-110.09C548.56,-102.47 535.43,-91.37 524.58,-82.2"/>
<polygon fill="#63b8ff" stroke="#63b8ff" points="526.84,-79.53 516.95,-75.75 522.33,-84.88 526.84,-79.53"/>
</a>
</g>
</g>
<!-- Node14&#45;&gt;Node4 -->
<g id="edge17_Node000014_Node000004" class="edge">
<title>Node14&#45;&gt;Node4</title>
<g id="a_edge17_Node000014_Node000004"><a xlink:title=" ">
<path fill="none" stroke="#63b8ff" d="M519.29,-110.75C475.57,-103 409.58,-90.61 344.09,-75.04"/>
<polygon fill="#63b8ff" stroke="#63b8ff" points="345.17,-71.7 334.63,-72.76 343.54,-78.5 345.17,-71.7"/>
</a>
</g>
</g>
<!-- Node15 -->
<g id="Node000015" class="node">
<title>Node15</title>
<g id="a_Node000015"><a xlink:title=" ">
<polygon fill="#e0e0e0" stroke="#999999" points="592.76,-74.5 543.76,-74.5 543.76,-55.25 592.76,-55.25 592.76,-74.5"/>
<text text-anchor="middle" x="568.26" y="-61" font-family="Helvetica,sans-Serif" font-size="10.00">fstream</text>
</a>
</g>
</g>
<!-- Node14&#45;&gt;Node15 -->
<g id="edge18_Node000014_Node000015" class="edge">
<title>Node14&#45;&gt;Node15</title>
<g id="a_edge18_Node000014_Node000015"><a xlink:title=" ">
<path fill="none" stroke="#63b8ff" d="M568.26,-110.33C568.26,-103.82 568.26,-94.67 568.26,-86.37"/>
<polygon fill="#63b8ff" stroke="#63b8ff" points="571.76,-86.37 568.26,-76.37 564.76,-86.37 571.76,-86.37"/>
</a>
</g>
</g>
<!-- Node16 -->
<g id="Node000016" class="node">
<title>Node16</title>
<g id="a_Node000016"><a xlink:title=" ">
<polygon fill="#e0e0e0" stroke="#999999" points="671.76,-74.5 610.76,-74.5 610.76,-55.25 671.76,-55.25 671.76,-74.5"/>
<text text-anchor="middle" x="641.26" y="-61" font-family="Helvetica,sans-Serif" font-size="10.00">filesystem</text>
</a>
</g>
</g>
<!-- Node14&#45;&gt;Node16 -->
<g id="edge19_Node000014_Node000016" class="edge">
<title>Node14&#45;&gt;Node16</title>
<g id="a_edge19_Node000014_Node000016"><a xlink:title=" ">
<path fill="none" stroke="#63b8ff" d="M580.65,-110.09C591.41,-102.24 607.23,-90.7 620.02,-81.37"/>
<polygon fill="#63b8ff" stroke="#63b8ff" points="621.82,-84.39 627.84,-75.67 617.7,-78.73 621.82,-84.39"/>
</a>
</g>
</g>
<!-- Node17&#45;&gt;Node3 -->
<g id="edge23_Node000017_Node000003" class="edge">
<title>Node17&#45;&gt;Node3</title>
<g id="a_edge23_Node000017_Node000003"><a xlink:title=" ">
<path fill="none" stroke="#63b8ff" d="M427.21,-110.09C441.52,-101.98 462.79,-89.93 479.52,-80.46"/>
<polygon fill="#63b8ff" stroke="#63b8ff" points="480.95,-83.67 487.92,-75.7 477.5,-77.58 480.95,-83.67"/>
</a>
</g>
</g>
<!-- Node17&#45;&gt;Node4 -->
<g id="edge24_Node000017_Node000004" class="edge">
<title>Node17&#45;&gt;Node4</title>
<g id="a_edge24_Node000017_Node000004"><a xlink:title=" ">
<path fill="none" stroke="#63b8ff" d="M394.3,-110.09C379,-101.94 356.23,-89.82 338.4,-80.33"/>
<polygon fill="#63b8ff" stroke="#63b8ff" points="340.12,-77.27 329.65,-75.66 336.83,-83.45 340.12,-77.27"/>
</a>
</g>
</g>
<!-- Node17&#45;&gt;Node7 -->
<g id="edge21_Node000017_Node000007" class="edge">
<title>Node17&#45;&gt;Node7</title>
<g id="a_edge21_Node000017_Node000007"><a xlink:title=" ">
<path fill="none" stroke="#63b8ff" d="M366.83,-110.03C340.19,-103.17 306.5,-91.89 280.26,-74.5 261.92,-62.34 245.73,-42.88 235.33,-28.63"/>
<polygon fill="#63b8ff" stroke="#63b8ff" points="238.31,-26.78 229.71,-20.6 232.58,-30.8 238.31,-26.78"/>
</a>
</g>
</g>
<!-- Node18 -->
<g id="Node000018" class="node">
<title>Node18</title>
<g id="a_Node000018"><a xlink:title=" ">
<polygon fill="#e0e0e0" stroke="#999999" points="406.14,-74.5 350.39,-74.5 350.39,-55.25 406.14,-55.25 406.14,-74.5"/>
<text text-anchor="middle" x="378.26" y="-61" font-family="Helvetica,sans-Serif" font-size="10.00">algorithm</text>
</a>
</g>
</g>
<!-- Node17&#45;&gt;Node18 -->
<g id="edge22_Node000017_Node000018" class="edge">
<title>Node17&#45;&gt;Node18</title>
<g id="a_edge22_Node000017_Node000018"><a xlink:title=" ">
<path fill="none" stroke="#63b8ff" d="M405.81,-110.33C401.49,-103.36 395.3,-93.37 389.88,-84.62"/>
<polygon fill="#63b8ff" stroke="#63b8ff" points="392.87,-82.8 384.63,-76.15 386.92,-86.49 392.87,-82.8"/>
</a>
</g>
</g>
<!-- Node19 -->
<g id="Node000019" class="node">
<title>Node19</title>
<g id="a_Node000019"><a xlink:title=" ">
<polygon fill="#e0e0e0" stroke="#999999" points="466.76,-74.5 423.76,-74.5 423.76,-55.25 466.76,-55.25 466.76,-74.5"/>
<text text-anchor="middle" x="445.26" y="-61" font-family="Helvetica,sans-Serif" font-size="10.00">cmath</text>
</a>
</g>
</g>
<!-- Node17&#45;&gt;Node19 -->
<g id="edge25_Node000017_Node000019" class="edge">
<title>Node17&#45;&gt;Node19</title>
<g id="a_edge25_Node000017_Node000019"><a xlink:title=" ">
<path fill="none" stroke="#63b8ff" d="M416.88,-110.33C421.38,-103.28 427.85,-93.15 433.48,-84.33"/>
<polygon fill="#63b8ff" stroke="#63b8ff" points="436.28,-86.45 438.71,-76.13 430.38,-82.68 436.28,-86.45"/>
</a>
</g>
</g>
</g>
</svg>
