<?xml version="1.0" encoding="UTF-8" standalone="no"?>
<!DOCTYPE svg PUBLIC "-//W3C//DTD SVG 1.1//EN"
 "http://www.w3.org/Graphics/SVG/1.1/DTD/svg11.dtd">
<!-- Generated by graphviz version 12.2.0 (20241103.1931)
 -->
<!-- Title: Ark::types::TypeCheckingError Pages: 1 -->
<svg width="137pt" height="204pt"
 viewBox="0.00 0.00 137.25 204.25" xmlns="http://www.w3.org/2000/svg" xmlns:xlink="http://www.w3.org/1999/xlink">
<g id="graph0" class="graph" transform="scale(1 1) rotate(0) translate(4 200.25)">
<title>Ark::types::TypeCheckingError</title>
<!-- Node1 -->
<g id="Node000001" class="node">
<title>Node1</title>
<g id="a_Node000001"><a xlink:title=" ">
<polygon fill="#999999" stroke="#666666" points="129.25,-30.5 0,-30.5 0,0 129.25,0 129.25,-30.5"/>
<text text-anchor="start" x="8" y="-17" font-family="Helvetica,sans-Serif" font-size="10.00">Ark::types::TypeChecking</text>
<text text-anchor="middle" x="64.62" y="-5.75" font-family="Helvetica,sans-Serif" font-size="10.00">Error</text>
</a>
</g>
</g>
<!-- Node2 -->
<g id="Node000002" class="node">
<title>Node2</title>
<g id="a_Node000002"><a xlink:href="../../d6/d43/classArk_1_1Error.html" target="_top" xlink:title=" ">
<polygon fill="white" stroke="#666666" points="93.62,-85.75 35.62,-85.75 35.62,-66.5 93.62,-66.5 93.62,-85.75"/>
<text text-anchor="middle" x="64.62" y="-72.25" font-family="Helvetica,sans-Serif" font-size="10.00">Ark::Error</text>
</a>
</g>
</g>
<!-- Node2&#45;&gt;Node1 -->
<g id="edge1_Node000001_Node000002" class="edge">
<title>Node2&#45;&gt;Node1</title>
<g id="a_edge1_Node000001_Node000002"><a xlink:title=" ">
<path fill="none" stroke="#63b8ff" d="M64.62,-54.92C64.62,-46.99 64.62,-38.06 64.62,-30.78"/>
<polygon fill="#63b8ff" stroke="#63b8ff" points="61.13,-54.67 64.63,-64.67 68.13,-54.67 61.13,-54.67"/>
</a>
</g>
</g>
<!-- Node3 -->
<g id="Node000003" class="node">
<title>Node3</title>
<g id="a_Node000003"><a xlink:title=" ">
<polygon fill="white" stroke="#666666" points="110.88,-141 18.38,-141 18.38,-121.75 110.88,-121.75 110.88,-141"/>
<text text-anchor="middle" x="64.62" y="-127.5" font-family="Helvetica,sans-Serif" font-size="10.00">std::runtime_error</text>
</a>
</g>
</g>
<!-- Node3&#45;&gt;Node2 -->
<g id="edge2_Node000002_Node000003" class="edge">
<title>Node3&#45;&gt;Node2</title>
<g id="a_edge2_Node000002_Node000003"><a xlink:title=" ">
<path fill="none" stroke="#63b8ff" d="M64.62,-110.13C64.62,-101.84 64.62,-92.67 64.62,-86.11"/>
<polygon fill="#63b8ff" stroke="#63b8ff" points="61.13,-110.07 64.63,-120.07 68.13,-110.07 61.13,-110.07"/>
</a>
</g>
</g>
<!-- Node4 -->
<g id="Node000004" class="node">
<title>Node4</title>
<g id="a_Node000004"><a xlink:title=" ">
<polygon fill="white" stroke="#666666" points="103.38,-196.25 25.88,-196.25 25.88,-177 103.38,-177 103.38,-196.25"/>
<text text-anchor="middle" x="64.62" y="-182.75" font-family="Helvetica,sans-Serif" font-size="10.00">std::exception</text>
</a>
</g>
</g>
<!-- Node4&#45;&gt;Node3 -->
<g id="edge3_Node000003_Node000004" class="edge">
<title>Node4&#45;&gt;Node3</title>
<g id="a_edge3_Node000003_Node000004"><a xlink:title=" ">
<path fill="none" stroke="#63b8ff" d="M64.62,-165.38C64.62,-157.09 64.62,-147.92 64.62,-141.36"/>
<polygon fill="#63b8ff" stroke="#63b8ff" points="61.13,-165.32 64.63,-175.32 68.13,-165.32 61.13,-165.32"/>
</a>
</g>
</g>
</g>
</svg>
