<?xml version="1.0" encoding="UTF-8" standalone="no"?>
<!DOCTYPE svg PUBLIC "-//W3C//DTD SVG 1.1//EN"
 "http://www.w3.org/Graphics/SVG/1.1/DTD/svg11.dtd">
<!-- Generated by graphviz version 12.2.0 (20241103.1931)
 -->
<!-- Title: /Users/fola/Documents/ArkScript/Ark/src/arkreactor/Compiler/IntermediateRepresentation/Entity.cpp Pages: 1 -->
<svg width="436pt" height="249pt"
 viewBox="0.00 0.00 436.14 249.25" xmlns="http://www.w3.org/2000/svg" xmlns:xlink="http://www.w3.org/1999/xlink">

<svg id="main" version="1.1" xmlns="http://www.w3.org/2000/svg" xmlns:xlink="http://www.w3.org/1999/xlink" xml:space="preserve">

<style type="text/css"><![CDATA[
.node, .edge {opacity: 0.7;}
.node.selected, .edge.selected {opacity: 1;}
.edge:hover path { stroke: red; }
.edge:hover polygon { stroke: red; fill: red; }
]]></style>
<script type="application/ecmascript" xlink:href="../../svg.min.js"/>
<svg id="graph" class="graph">
<g id="graph0" class="graph" transform="scale(1 1) rotate(0) translate(4 245.25)">
<title>/Users/fola/Documents/ArkScript/Ark/src/arkreactor/Compiler/IntermediateRepresentation/Entity.cpp</title>
<!-- Node1 -->
<g id="Node000001" class="node">
<title>Node1</title>
<g id="a_Node000001"><a xlink:title=" ">
<polygon fill="#999999" stroke="#666666" points="186.77,-241.25 5.77,-241.25 5.77,-188.25 186.77,-188.25 186.77,-241.25"/>
<text text-anchor="start" x="13.77" y="-227.75" font-family="Helvetica,sans-Serif" font-size="10.00">/Users/fola/Documents</text>
<text text-anchor="start" x="13.77" y="-216.5" font-family="Helvetica,sans-Serif" font-size="10.00">/ArkScript/Ark/src/arkreactor</text>
<text text-anchor="start" x="13.77" y="-205.25" font-family="Helvetica,sans-Serif" font-size="10.00">/Compiler/IntermediateRepresentation</text>
<text text-anchor="middle" x="96.27" y="-194" font-family="Helvetica,sans-Serif" font-size="10.00">/Entity.cpp</text>
</a>
</g>
</g>
<!-- Node2 -->
<g id="Node000002" class="node">
<title>Node2</title>
<g id="a_Node000002"><a xlink:href="../../de/da6/Entity_8hpp.html" target="_top" xlink:title="An entity in the IR is a bundle of information.">
<polygon fill="white" stroke="#666666" points="161.27,-152.25 31.27,-152.25 31.27,-121.75 161.27,-121.75 161.27,-152.25"/>
<text text-anchor="start" x="39.27" y="-138.75" font-family="Helvetica,sans-Serif" font-size="10.00">Ark/Compiler/Intermediate</text>
<text text-anchor="middle" x="96.27" y="-127.5" font-family="Helvetica,sans-Serif" font-size="10.00">Representation/Entity.hpp</text>
</a>
</g>
</g>
<!-- Node1&#45;&gt;Node2 -->
<g id="edge1_Node000001_Node000002" class="edge">
<title>Node1&#45;&gt;Node2</title>
<g id="a_edge1_Node000001_Node000002"><a xlink:title=" ">
<path fill="none" stroke="#63b8ff" d="M96.27,-188.1C96.27,-180.33 96.27,-171.79 96.27,-163.99"/>
<polygon fill="#63b8ff" stroke="#63b8ff" points="99.77,-164.09 96.27,-154.09 92.77,-164.09 99.77,-164.09"/>
</a>
</g>
</g>
<!-- Node3 -->
<g id="Node000003" class="node">
<title>Node3</title>
<g id="a_Node000003"><a xlink:title=" ">
<polygon fill="#e0e0e0" stroke="#999999" points="121.14,-19.25 65.39,-19.25 65.39,0 121.14,0 121.14,-19.25"/>
<text text-anchor="middle" x="93.27" y="-5.75" font-family="Helvetica,sans-Serif" font-size="10.00">cinttypes</text>
</a>
</g>
</g>
<!-- Node2&#45;&gt;Node3 -->
<g id="edge2_Node000002_Node000003" class="edge">
<title>Node2&#45;&gt;Node3</title>
<g id="a_edge2_Node000002_Node000003"><a xlink:title=" ">
<path fill="none" stroke="#63b8ff" d="M49.17,-121.43C32.26,-113.67 14.99,-102.23 5.27,-85.75 -1.62,-74.08 -1.82,-66.8 5.27,-55.25 16.08,-37.64 36.25,-26.72 54.55,-20.09"/>
<polygon fill="#63b8ff" stroke="#63b8ff" points="55.45,-23.48 63.88,-17.05 53.28,-16.82 55.45,-23.48"/>
</a>
</g>
</g>
<!-- Node4 -->
<g id="Node000004" class="node">
<title>Node4</title>
<g id="a_Node000004"><a xlink:title=" ">
<polygon fill="#e0e0e0" stroke="#999999" points="57.77,-80.12 14.77,-80.12 14.77,-60.88 57.77,-60.88 57.77,-80.12"/>
<text text-anchor="middle" x="36.27" y="-66.62" font-family="Helvetica,sans-Serif" font-size="10.00">vector</text>
</a>
</g>
</g>
<!-- Node2&#45;&gt;Node4 -->
<g id="edge3_Node000002_Node000004" class="edge">
<title>Node2&#45;&gt;Node4</title>
<g id="a_edge3_Node000002_Node000004"><a xlink:title=" ">
<path fill="none" stroke="#63b8ff" d="M82.65,-121.36C73.56,-111.59 61.57,-98.7 52.06,-88.48"/>
<polygon fill="#63b8ff" stroke="#63b8ff" points="54.88,-86.37 45.51,-81.43 49.76,-91.14 54.88,-86.37"/>
</a>
</g>
</g>
<!-- Node5 -->
<g id="Node000005" class="node">
<title>Node5</title>
<g id="a_Node000005"><a xlink:title=" ">
<polygon fill="#e0e0e0" stroke="#999999" points="116.27,-80.12 76.27,-80.12 76.27,-60.88 116.27,-60.88 116.27,-80.12"/>
<text text-anchor="middle" x="96.27" y="-66.62" font-family="Helvetica,sans-Serif" font-size="10.00">string</text>
</a>
</g>
</g>
<!-- Node2&#45;&gt;Node5 -->
<g id="edge4_Node000002_Node000005" class="edge">
<title>Node2&#45;&gt;Node5</title>
<g id="a_edge4_Node000002_Node000005"><a xlink:title=" ">
<path fill="none" stroke="#63b8ff" d="M96.27,-121.36C96.27,-112.58 96.27,-101.27 96.27,-91.65"/>
<polygon fill="#63b8ff" stroke="#63b8ff" points="99.77,-91.84 96.27,-81.84 92.77,-91.84 99.77,-91.84"/>
</a>
</g>
</g>
<!-- Node6 -->
<g id="Node000006" class="node">
<title>Node6</title>
<g id="a_Node000006"><a xlink:href="../../db/d53/Word_8hpp.html" target="_top" xlink:title="Describe an instruction and its immediate argument.">
<polygon fill="white" stroke="#666666" points="264.27,-85.75 134.27,-85.75 134.27,-55.25 264.27,-55.25 264.27,-85.75"/>
<text text-anchor="start" x="142.27" y="-72.25" font-family="Helvetica,sans-Serif" font-size="10.00">Ark/Compiler/Intermediate</text>
<text text-anchor="middle" x="199.27" y="-61" font-family="Helvetica,sans-Serif" font-size="10.00">Representation/Word.hpp</text>
</a>
</g>
</g>
<!-- Node2&#45;&gt;Node6 -->
<g id="edge5_Node000002_Node000006" class="edge">
<title>Node2&#45;&gt;Node6</title>
<g id="a_edge5_Node000002_Node000006"><a xlink:title=" ">
<path fill="none" stroke="#63b8ff" d="M119.64,-121.36C133.47,-112.7 151.2,-101.6 166.42,-92.07"/>
<polygon fill="#63b8ff" stroke="#63b8ff" points="168.09,-95.16 174.71,-86.88 164.37,-89.22 168.09,-95.16"/>
</a>
</g>
</g>
<!-- Node7 -->
<g id="Node000007" class="node">
<title>Node7</title>
<g id="a_Node000007"><a xlink:href="../../d8/daa/Instructions_8hpp.html" target="_top" xlink:title="The different instructions used by the compiler and virtual machine.">
<polygon fill="white" stroke="#666666" points="428.14,-80.12 282.39,-80.12 282.39,-60.88 428.14,-60.88 428.14,-80.12"/>
<text text-anchor="middle" x="355.27" y="-66.62" font-family="Helvetica,sans-Serif" font-size="10.00">Ark/Compiler/Instructions.hpp</text>
</a>
</g>
</g>
<!-- Node2&#45;&gt;Node7 -->
<g id="edge7_Node000002_Node000007" class="edge">
<title>Node2&#45;&gt;Node7</title>
<g id="a_edge7_Node000002_Node000007"><a xlink:title=" ">
<path fill="none" stroke="#63b8ff" d="M155.36,-121.28C201.55,-109.78 264.9,-94 307.82,-83.32"/>
<polygon fill="#63b8ff" stroke="#63b8ff" points="308.48,-86.76 317.34,-80.95 306.79,-79.97 308.48,-86.76"/>
</a>
</g>
</g>
<!-- Node6&#45;&gt;Node3 -->
<g id="edge6_Node000006_Node000003" class="edge">
<title>Node6&#45;&gt;Node3</title>
<g id="a_edge6_Node000006_Node000003"><a xlink:title=" ">
<path fill="none" stroke="#63b8ff" d="M172.79,-54.8C156.5,-45.74 135.69,-34.19 119.45,-25.16"/>
<polygon fill="#63b8ff" stroke="#63b8ff" points="121.29,-22.18 110.85,-20.39 117.89,-28.3 121.29,-22.18"/>
</a>
</g>
</g>
<!-- Node8 -->
<g id="Node000008" class="node">
<title>Node8</title>
<g id="a_Node000008"><a xlink:title=" ">
<polygon fill="#e0e0e0" stroke="#999999" points="374.14,-19.25 336.39,-19.25 336.39,0 374.14,0 374.14,-19.25"/>
<text text-anchor="middle" x="355.27" y="-5.75" font-family="Helvetica,sans-Serif" font-size="10.00">array</text>
</a>
</g>
</g>
<!-- Node7&#45;&gt;Node8 -->
<g id="edge8_Node000007_Node000008" class="edge">
<title>Node7&#45;&gt;Node8</title>
<g id="a_edge8_Node000007_Node000008"><a xlink:title=" ">
<path fill="none" stroke="#63b8ff" d="M355.27,-60.56C355.27,-52.78 355.27,-41.2 355.27,-31.16"/>
<polygon fill="#63b8ff" stroke="#63b8ff" points="358.77,-31.16 355.27,-21.16 351.77,-31.16 358.77,-31.16"/>
</a>
</g>
</g>
</g>
</svg>
</svg>

<style type='text/css'>
<![CDATA[
[data-mouse-over-selected='false'] { opacity: 0.7; }
[data-mouse-over-selected='true']  { opacity: 1.0; }
]]>
</style>
<script type="application/ecmascript"><![CDATA[
document.addEventListener('DOMContentLoaded', (event) => {
  highlightEdges();
  highlightAdjacentNodes();
});
]]></script>
</svg>
