<?xml version="1.0" encoding="UTF-8" standalone="no"?>
<!DOCTYPE svg PUBLIC "-//W3C//DTD SVG 1.1//EN"
 "http://www.w3.org/Graphics/SVG/1.1/DTD/svg11.dtd">
<!-- Generated by graphviz version 12.2.0 (20241103.1931)
 -->
<!-- Title: /Users/fola/Documents/ArkScript/Ark/src/arkreactor/Compiler/IntermediateRepresentation/Entity.cpp Pages: 1 -->
<svg width="495pt" height="249pt"
 viewBox="0.00 0.00 494.75 249.25" xmlns="http://www.w3.org/2000/svg" xmlns:xlink="http://www.w3.org/1999/xlink">
<g id="graph0" class="graph" transform="scale(1 1) rotate(0) translate(4 245.25)">
<title>/Users/fola/Documents/ArkScript/Ark/src/arkreactor/Compiler/IntermediateRepresentation/Entity.cpp</title>
<!-- Node1 -->
<g id="Node000001" class="node">
<title>Node1</title>
<g id="a_Node000001"><a xlink:title=" ">
<polygon fill="#999999" stroke="#666666" points="245.38,-241.25 64.38,-241.25 64.38,-188.25 245.38,-188.25 245.38,-241.25"/>
<text text-anchor="start" x="72.38" y="-227.75" font-family="Helvetica,sans-Serif" font-size="10.00">/Users/fola/Documents</text>
<text text-anchor="start" x="72.38" y="-216.5" font-family="Helvetica,sans-Serif" font-size="10.00">/ArkScript/Ark/src/arkreactor</text>
<text text-anchor="start" x="72.38" y="-205.25" font-family="Helvetica,sans-Serif" font-size="10.00">/Compiler/IntermediateRepresentation</text>
<text text-anchor="middle" x="154.88" y="-194" font-family="Helvetica,sans-Serif" font-size="10.00">/Entity.cpp</text>
</a>
</g>
</g>
<!-- Node2 -->
<g id="Node000002" class="node">
<title>Node2</title>
<g id="a_Node000002"><a xlink:href="../../de/da6/Entity_8hpp.html" target="_top" xlink:title="An entity in the IR is a bundle of information.">
<polygon fill="white" stroke="#666666" points="219.88,-152.25 89.88,-152.25 89.88,-121.75 219.88,-121.75 219.88,-152.25"/>
<text text-anchor="start" x="97.88" y="-138.75" font-family="Helvetica,sans-Serif" font-size="10.00">Ark/Compiler/Intermediate</text>
<text text-anchor="middle" x="154.88" y="-127.5" font-family="Helvetica,sans-Serif" font-size="10.00">Representation/Entity.hpp</text>
</a>
</g>
</g>
<!-- Node1&#45;&gt;Node2 -->
<g id="edge1_Node000001_Node000002" class="edge">
<title>Node1&#45;&gt;Node2</title>
<g id="a_edge1_Node000001_Node000002"><a xlink:title=" ">
<path fill="none" stroke="#63b8ff" d="M154.88,-188.1C154.88,-180.33 154.88,-171.79 154.88,-163.99"/>
<polygon fill="#63b8ff" stroke="#63b8ff" points="158.38,-164.09 154.88,-154.09 151.38,-164.09 158.38,-164.09"/>
</a>
</g>
</g>
<!-- Node3 -->
<g id="Node000003" class="node">
<title>Node3</title>
<g id="a_Node000003"><a xlink:title=" ">
<polygon fill="#e0e0e0" stroke="#999999" points="55.75,-80.12 0,-80.12 0,-60.88 55.75,-60.88 55.75,-80.12"/>
<text text-anchor="middle" x="27.88" y="-66.62" font-family="Helvetica,sans-Serif" font-size="10.00">cinttypes</text>
</a>
</g>
</g>
<!-- Node2&#45;&gt;Node3 -->
<g id="edge2_Node000002_Node000003" class="edge">
<title>Node2&#45;&gt;Node3</title>
<g id="a_edge2_Node000002_Node000003"><a xlink:title=" ">
<path fill="none" stroke="#63b8ff" d="M126.06,-121.36C104.99,-110.67 76.58,-96.24 55.74,-85.65"/>
<polygon fill="#63b8ff" stroke="#63b8ff" points="57.47,-82.6 46.96,-81.2 54.3,-88.84 57.47,-82.6"/>
</a>
</g>
</g>
<!-- Node4 -->
<g id="Node000004" class="node">
<title>Node4</title>
<g id="a_Node000004"><a xlink:title=" ">
<polygon fill="#e0e0e0" stroke="#999999" points="116.38,-80.12 73.38,-80.12 73.38,-60.88 116.38,-60.88 116.38,-80.12"/>
<text text-anchor="middle" x="94.88" y="-66.62" font-family="Helvetica,sans-Serif" font-size="10.00">vector</text>
</a>
</g>
</g>
<!-- Node2&#45;&gt;Node4 -->
<g id="edge3_Node000002_Node000004" class="edge">
<title>Node2&#45;&gt;Node4</title>
<g id="a_edge3_Node000002_Node000004"><a xlink:title=" ">
<path fill="none" stroke="#63b8ff" d="M141.26,-121.36C132.17,-111.59 120.18,-98.7 110.67,-88.48"/>
<polygon fill="#63b8ff" stroke="#63b8ff" points="113.49,-86.37 104.11,-81.43 108.36,-91.14 113.49,-86.37"/>
</a>
</g>
</g>
<!-- Node5 -->
<g id="Node000005" class="node">
<title>Node5</title>
<g id="a_Node000005"><a xlink:title=" ">
<polygon fill="#e0e0e0" stroke="#999999" points="174.88,-80.12 134.88,-80.12 134.88,-60.88 174.88,-60.88 174.88,-80.12"/>
<text text-anchor="middle" x="154.88" y="-66.62" font-family="Helvetica,sans-Serif" font-size="10.00">string</text>
</a>
</g>
</g>
<!-- Node2&#45;&gt;Node5 -->
<g id="edge4_Node000002_Node000005" class="edge">
<title>Node2&#45;&gt;Node5</title>
<g id="a_edge4_Node000002_Node000005"><a xlink:title=" ">
<path fill="none" stroke="#63b8ff" d="M154.88,-121.36C154.88,-112.58 154.88,-101.27 154.88,-91.65"/>
<polygon fill="#63b8ff" stroke="#63b8ff" points="158.38,-91.84 154.88,-81.84 151.38,-91.84 158.38,-91.84"/>
</a>
</g>
</g>
<!-- Node6 -->
<g id="Node000006" class="node">
<title>Node6</title>
<g id="a_Node000006"><a xlink:href="../../db/d53/Word_8hpp.html" target="_top" xlink:title="Describe an instruction and its immediate argument.">
<polygon fill="white" stroke="#666666" points="322.88,-85.75 192.88,-85.75 192.88,-55.25 322.88,-55.25 322.88,-85.75"/>
<text text-anchor="start" x="200.88" y="-72.25" font-family="Helvetica,sans-Serif" font-size="10.00">Ark/Compiler/Intermediate</text>
<text text-anchor="middle" x="257.88" y="-61" font-family="Helvetica,sans-Serif" font-size="10.00">Representation/Word.hpp</text>
</a>
</g>
</g>
<!-- Node2&#45;&gt;Node6 -->
<g id="edge5_Node000002_Node000006" class="edge">
<title>Node2&#45;&gt;Node6</title>
<g id="a_edge5_Node000002_Node000006"><a xlink:title=" ">
<path fill="none" stroke="#63b8ff" d="M178.25,-121.36C192.07,-112.7 209.81,-101.6 225.02,-92.07"/>
<polygon fill="#63b8ff" stroke="#63b8ff" points="226.69,-95.16 233.31,-86.88 222.98,-89.22 226.69,-95.16"/>
</a>
</g>
</g>
<!-- Node7 -->
<g id="Node000007" class="node">
<title>Node7</title>
<g id="a_Node000007"><a xlink:href="../../d8/daa/Instructions_8hpp.html" target="_top" xlink:title="The different instructions used by the compiler and virtual machine.">
<polygon fill="white" stroke="#666666" points="486.75,-80.12 341,-80.12 341,-60.88 486.75,-60.88 486.75,-80.12"/>
<text text-anchor="middle" x="413.88" y="-66.62" font-family="Helvetica,sans-Serif" font-size="10.00">Ark/Compiler/Instructions.hpp</text>
</a>
</g>
</g>
<!-- Node2&#45;&gt;Node7 -->
<g id="edge6_Node000002_Node000007" class="edge">
<title>Node2&#45;&gt;Node7</title>
<g id="a_edge6_Node000002_Node000007"><a xlink:title=" ">
<path fill="none" stroke="#63b8ff" d="M213.97,-121.28C260.16,-109.78 323.51,-94 366.42,-83.32"/>
<polygon fill="#63b8ff" stroke="#63b8ff" points="367.09,-86.76 375.94,-80.95 365.39,-79.97 367.09,-86.76"/>
</a>
</g>
</g>
<!-- Node8 -->
<g id="Node000008" class="node">
<title>Node8</title>
<g id="a_Node000008"><a xlink:title=" ">
<polygon fill="#e0e0e0" stroke="#999999" points="432.75,-19.25 395,-19.25 395,0 432.75,0 432.75,-19.25"/>
<text text-anchor="middle" x="413.88" y="-5.75" font-family="Helvetica,sans-Serif" font-size="10.00">array</text>
</a>
</g>
</g>
<!-- Node7&#45;&gt;Node8 -->
<g id="edge7_Node000007_Node000008" class="edge">
<title>Node7&#45;&gt;Node8</title>
<g id="a_edge7_Node000007_Node000008"><a xlink:title=" ">
<path fill="none" stroke="#63b8ff" d="M413.88,-60.56C413.88,-52.78 413.88,-41.2 413.88,-31.16"/>
<polygon fill="#63b8ff" stroke="#63b8ff" points="417.38,-31.16 413.88,-21.16 410.38,-31.16 417.38,-31.16"/>
</a>
</g>
</g>
</g>
</svg>
