<?xml version="1.0" encoding="UTF-8" standalone="no"?>
<!DOCTYPE svg PUBLIC "-//W3C//DTD SVG 1.1//EN"
 "http://www.w3.org/Graphics/SVG/1.1/DTD/svg11.dtd">
<!-- Generated by graphviz version 12.2.0 (20241103.1931)
 -->
<!-- Title: /Users/fola/Documents/ArkScript/Ark/include/Ark/Utils/Logger.hpp Pages: 1 -->
<svg width="2398pt" height="461pt"
 viewBox="0.00 0.00 2398.25 461.00" xmlns="http://www.w3.org/2000/svg" xmlns:xlink="http://www.w3.org/1999/xlink">
<g id="graph0" class="graph" transform="scale(1 1) rotate(0) translate(4 457)">
<title>/Users/fola/Documents/ArkScript/Ark/include/Ark/Utils/Logger.hpp</title>
<!-- Node1 -->
<g id="Node000001" class="node">
<title>Node1</title>
<g id="a_Node000001"><a xlink:title="Internal logger.">
<polygon fill="#999999" stroke="#666666" points="1009.25,-453 892,-453 892,-411.25 1009.25,-411.25 1009.25,-453"/>
<text text-anchor="start" x="900" y="-439.5" font-family="Helvetica,sans-Serif" font-size="10.00">/Users/fola/Documents</text>
<text text-anchor="start" x="900" y="-428.25" font-family="Helvetica,sans-Serif" font-size="10.00">/ArkScript/Ark/include</text>
<text text-anchor="middle" x="950.62" y="-417" font-family="Helvetica,sans-Serif" font-size="10.00">/Ark/Utils/Logger.hpp</text>
</a>
</g>
</g>
<!-- Node2 -->
<g id="Node000002" class="node">
<title>Node2</title>
<g id="a_Node000002"><a xlink:href="../../d7/ddd/Parser_8hpp.html" target="_top" xlink:title="Parse ArkScript code, but do not handle any import declarations.">
<polygon fill="white" stroke="#666666" points="403.62,-291.88 255.62,-291.88 255.62,-250.12 403.62,-250.12 403.62,-291.88"/>
<text text-anchor="start" x="263.62" y="-278.38" font-family="Helvetica,sans-Serif" font-size="10.00">/Users/fola/Documents</text>
<text text-anchor="start" x="263.62" y="-267.12" font-family="Helvetica,sans-Serif" font-size="10.00">/ArkScript/Ark/include</text>
<text text-anchor="middle" x="329.62" y="-255.88" font-family="Helvetica,sans-Serif" font-size="10.00">/Ark/Compiler/AST/Parser.hpp</text>
</a>
</g>
</g>
<!-- Node1&#45;&gt;Node2 -->
<g id="edge1_Node000001_Node000002" class="edge">
<title>Node1&#45;&gt;Node2</title>
<g id="a_edge1_Node000001_Node000002"><a xlink:title=" ">
<path fill="none" stroke="#63b8ff" d="M880.65,-417.01C828.84,-406.3 756.61,-390.8 693.62,-375.25 567.82,-344.2 537.02,-333.81 412.62,-297.5 406.98,-295.85 401.13,-294.12 395.27,-292.35"/>
<polygon fill="#63b8ff" stroke="#63b8ff" points="879.74,-420.4 890.24,-418.99 881.15,-413.54 879.74,-420.4"/>
</a>
</g>
</g>
<!-- Node3 -->
<g id="Node000003" class="node">
<title>Node3</title>
<g id="a_Node000003"><a xlink:href="../../de/d8e/Welder_8hpp.html" target="_top" xlink:title="In charge of welding everything needed to compile code.">
<polygon fill="white" stroke="#666666" points="1241.12,-202.88 1114.12,-202.88 1114.12,-161.12 1241.12,-161.12 1241.12,-202.88"/>
<text text-anchor="start" x="1122.12" y="-189.38" font-family="Helvetica,sans-Serif" font-size="10.00">/Users/fola/Documents</text>
<text text-anchor="start" x="1122.12" y="-178.12" font-family="Helvetica,sans-Serif" font-size="10.00">/ArkScript/Ark/include</text>
<text text-anchor="middle" x="1177.62" y="-166.88" font-family="Helvetica,sans-Serif" font-size="10.00">/Ark/Compiler/Welder.hpp</text>
</a>
</g>
</g>
<!-- Node1&#45;&gt;Node3 -->
<g id="edge51_Node000001_Node000003" class="edge">
<title>Node1&#45;&gt;Node3</title>
<g id="a_edge51_Node000001_Node000003"><a xlink:title=" ">
<path fill="none" stroke="#63b8ff" d="M973.52,-402.02C994.59,-375.1 1026.58,-333.88 1053.62,-297.5 1070.92,-274.24 1071.12,-264.98 1091.62,-244.5 1107.34,-228.8 1127.41,-214.21 1144.21,-203.18"/>
<polygon fill="#63b8ff" stroke="#63b8ff" points="970.9,-399.7 967.48,-409.73 976.41,-404.02 970.9,-399.7"/>
</a>
</g>
</g>
<!-- Node17 -->
<g id="Node000017" class="node">
<title>Node17</title>
<g id="a_Node000017"><a xlink:href="../../df/d86/IRCompiler_8hpp.html" target="_top" xlink:title="Compile the intermediate representation to bytecode.">
<polygon fill="white" stroke="#666666" points="621.12,-297.5 422.12,-297.5 422.12,-244.5 621.12,-244.5 621.12,-297.5"/>
<text text-anchor="start" x="430.12" y="-284" font-family="Helvetica,sans-Serif" font-size="10.00">/Users/fola/Documents</text>
<text text-anchor="start" x="430.12" y="-272.75" font-family="Helvetica,sans-Serif" font-size="10.00">/ArkScript/Ark/include</text>
<text text-anchor="start" x="430.12" y="-261.5" font-family="Helvetica,sans-Serif" font-size="10.00">/Ark/Compiler/IntermediateRepresentation</text>
<text text-anchor="middle" x="521.62" y="-250.25" font-family="Helvetica,sans-Serif" font-size="10.00">/IRCompiler.hpp</text>
</a>
</g>
</g>
<!-- Node1&#45;&gt;Node17 -->
<g id="edge17_Node000001_Node000017" class="edge">
<title>Node1&#45;&gt;Node17</title>
<g id="a_edge17_Node000001_Node000017"><a xlink:title=" ">
<path fill="none" stroke="#63b8ff" d="M885.52,-406.98C806.31,-377.6 673.1,-328.19 591.7,-297.99"/>
<polygon fill="#63b8ff" stroke="#63b8ff" points="883.84,-410.09 894.44,-410.28 886.28,-403.52 883.84,-410.09"/>
</a>
</g>
</g>
<!-- Node19 -->
<g id="Node000019" class="node">
<title>Node19</title>
<g id="a_Node000019"><a xlink:href="../../d0/de2/IROptimizer_8hpp.html" target="_top" xlink:title="Optimize IR based on IR entity grouped by 2 (or more)">
<polygon fill="white" stroke="#666666" points="838.12,-297.5 639.12,-297.5 639.12,-244.5 838.12,-244.5 838.12,-297.5"/>
<text text-anchor="start" x="647.12" y="-284" font-family="Helvetica,sans-Serif" font-size="10.00">/Users/fola/Documents</text>
<text text-anchor="start" x="647.12" y="-272.75" font-family="Helvetica,sans-Serif" font-size="10.00">/ArkScript/Ark/include</text>
<text text-anchor="start" x="647.12" y="-261.5" font-family="Helvetica,sans-Serif" font-size="10.00">/Ark/Compiler/IntermediateRepresentation</text>
<text text-anchor="middle" x="738.62" y="-250.25" font-family="Helvetica,sans-Serif" font-size="10.00">/IROptimizer.hpp</text>
</a>
</g>
</g>
<!-- Node1&#45;&gt;Node19 -->
<g id="edge20_Node000001_Node000019" class="edge">
<title>Node1&#45;&gt;Node19</title>
<g id="a_edge20_Node000001_Node000019"><a xlink:title=" ">
<path fill="none" stroke="#63b8ff" d="M914.74,-404.19C875.15,-374.48 811.92,-327.01 772.97,-297.78"/>
<polygon fill="#63b8ff" stroke="#63b8ff" points="912.47,-406.86 922.56,-410.06 916.67,-401.26 912.47,-406.86"/>
</a>
</g>
</g>
<!-- Node21 -->
<g id="Node000021" class="node">
<title>Node21</title>
<g id="a_Node000021"><a xlink:href="../../db/d08/ASTLowerer_8hpp.html" target="_top" xlink:title=" ">
<polygon fill="white" stroke="#666666" points="1044.88,-291.88 856.38,-291.88 856.38,-250.12 1044.88,-250.12 1044.88,-291.88"/>
<text text-anchor="start" x="864.38" y="-278.38" font-family="Helvetica,sans-Serif" font-size="10.00">/Users/fola/Documents</text>
<text text-anchor="start" x="864.38" y="-267.12" font-family="Helvetica,sans-Serif" font-size="10.00">/ArkScript/Ark/include</text>
<text text-anchor="middle" x="950.62" y="-255.88" font-family="Helvetica,sans-Serif" font-size="10.00">/Ark/Compiler/Lowerer/ASTLowerer.hpp</text>
</a>
</g>
</g>
<!-- Node1&#45;&gt;Node21 -->
<g id="edge23_Node000001_Node000021" class="edge">
<title>Node1&#45;&gt;Node21</title>
<g id="a_edge23_Node000001_Node000021"><a xlink:title=" ">
<path fill="none" stroke="#63b8ff" d="M950.62,-399.63C950.62,-367.74 950.62,-319.35 950.62,-292.24"/>
<polygon fill="#63b8ff" stroke="#63b8ff" points="947.13,-399.46 950.63,-409.46 954.13,-399.46 947.13,-399.46"/>
</a>
</g>
</g>
<!-- Node23 -->
<g id="Node000023" class="node">
<title>Node23</title>
<g id="a_Node000023"><a xlink:href="../../df/d5f/Pass_8hpp.html" target="_top" xlink:title="Interface for a compiler pass.">
<polygon fill="white" stroke="#666666" points="1257.75,-375.25 1137.5,-375.25 1137.5,-333.5 1257.75,-333.5 1257.75,-375.25"/>
<text text-anchor="start" x="1145.5" y="-361.75" font-family="Helvetica,sans-Serif" font-size="10.00">/Users/fola/Documents</text>
<text text-anchor="start" x="1145.5" y="-350.5" font-family="Helvetica,sans-Serif" font-size="10.00">/ArkScript/Ark/include</text>
<text text-anchor="middle" x="1197.62" y="-339.25" font-family="Helvetica,sans-Serif" font-size="10.00">/Ark/Compiler/Pass.hpp</text>
</a>
</g>
</g>
<!-- Node1&#45;&gt;Node23 -->
<g id="edge26_Node000001_Node000023" class="edge">
<title>Node1&#45;&gt;Node23</title>
<g id="a_edge26_Node000001_Node000023"><a xlink:title=" ">
<path fill="none" stroke="#63b8ff" d="M1020.12,-409.81C1056.93,-398.52 1101.71,-384.79 1137.08,-373.94"/>
<polygon fill="#63b8ff" stroke="#63b8ff" points="1019.46,-406.36 1010.92,-412.63 1021.51,-413.05 1019.46,-406.36"/>
</a>
</g>
</g>
<!-- Node35 -->
<g id="Node000035" class="node">
<title>Node35</title>
<g id="a_Node000035"><a xlink:href="../../d9/df5/Logger_8cpp.html" target="_top" xlink:title=" ">
<polygon fill="white" stroke="#666666" points="1415.88,-375.25 1275.38,-375.25 1275.38,-333.5 1415.88,-333.5 1415.88,-375.25"/>
<text text-anchor="start" x="1283.38" y="-361.75" font-family="Helvetica,sans-Serif" font-size="10.00">/Users/fola/Documents</text>
<text text-anchor="start" x="1283.38" y="-350.5" font-family="Helvetica,sans-Serif" font-size="10.00">/ArkScript/Ark/src/arkreactor</text>
<text text-anchor="middle" x="1345.62" y="-339.25" font-family="Helvetica,sans-Serif" font-size="10.00">/Utils/Logger.cpp</text>
</a>
</g>
</g>
<!-- Node1&#45;&gt;Node35 -->
<g id="edge52_Node000001_Node000035" class="edge">
<title>Node1&#45;&gt;Node35</title>
<g id="a_edge52_Node000001_Node000035"><a xlink:title=" ">
<path fill="none" stroke="#63b8ff" d="M1020.89,-420.18C1085.11,-409.82 1182.6,-393.23 1266.62,-375.25 1269.39,-374.66 1272.21,-374.04 1275.05,-373.4"/>
<polygon fill="#63b8ff" stroke="#63b8ff" points="1020.51,-416.7 1011.19,-421.74 1021.61,-423.61 1020.51,-416.7"/>
</a>
</g>
</g>
<!-- Node2&#45;&gt;Node3 -->
<g id="edge2_Node000002_Node000003" class="edge">
<title>Node2&#45;&gt;Node3</title>
<g id="a_edge2_Node000002_Node000003"><a xlink:title=" ">
<path fill="none" stroke="#63b8ff" d="M400.39,-247.02C404.5,-246.07 408.6,-245.22 412.62,-244.5 698.33,-193.51 777.19,-248.58 1064.62,-208.5 1080.66,-206.26 1097.78,-202.91 1113.73,-199.37"/>
<polygon fill="#63b8ff" stroke="#63b8ff" points="399.82,-243.55 390.96,-249.37 401.51,-250.34 399.82,-243.55"/>
</a>
</g>
</g>
<!-- Node13 -->
<g id="Node000013" class="node">
<title>Node13</title>
<g id="a_Node000013"><a xlink:href="../../d9/d2e/Formatter_8hpp.html" target="_top" xlink:title=" ">
<polygon fill="white" stroke="#666666" points="117.25,-202.88 0,-202.88 0,-161.12 117.25,-161.12 117.25,-202.88"/>
<text text-anchor="start" x="8" y="-189.38" font-family="Helvetica,sans-Serif" font-size="10.00">/Users/fola/Documents</text>
<text text-anchor="start" x="8" y="-178.12" font-family="Helvetica,sans-Serif" font-size="10.00">/ArkScript/Ark/include</text>
<text text-anchor="middle" x="58.62" y="-166.88" font-family="Helvetica,sans-Serif" font-size="10.00">/CLI/Formatter.hpp</text>
</a>
</g>
</g>
<!-- Node2&#45;&gt;Node13 -->
<g id="edge12_Node000002_Node000013" class="edge">
<title>Node2&#45;&gt;Node13</title>
<g id="a_edge12_Node000002_Node000013"><a xlink:title=" ">
<path fill="none" stroke="#63b8ff" d="M247.57,-246.45C210.46,-235.47 166.15,-221.88 126.62,-208.5 121.85,-206.88 116.9,-205.15 111.96,-203.37"/>
<polygon fill="#63b8ff" stroke="#63b8ff" points="246.3,-249.73 256.89,-249.2 248.28,-243.01 246.3,-249.73"/>
</a>
</g>
</g>
<!-- Node15 -->
<g id="Node000015" class="node">
<title>Node15</title>
<g id="a_Node000015"><a xlink:href="../../dc/df5/Parser_8cpp.html" target="_top" xlink:title=" ">
<polygon fill="white" stroke="#666666" points="275.88,-202.88 135.38,-202.88 135.38,-161.12 275.88,-161.12 275.88,-202.88"/>
<text text-anchor="start" x="143.38" y="-189.38" font-family="Helvetica,sans-Serif" font-size="10.00">/Users/fola/Documents</text>
<text text-anchor="start" x="143.38" y="-178.12" font-family="Helvetica,sans-Serif" font-size="10.00">/ArkScript/Ark/src/arkreactor</text>
<text text-anchor="middle" x="205.62" y="-166.88" font-family="Helvetica,sans-Serif" font-size="10.00">/Compiler/AST/Parser.cpp</text>
</a>
</g>
</g>
<!-- Node2&#45;&gt;Node15 -->
<g id="edge15_Node000002_Node000015" class="edge">
<title>Node2&#45;&gt;Node15</title>
<g id="a_edge15_Node000002_Node000015"><a xlink:title=" ">
<path fill="none" stroke="#63b8ff" d="M291.62,-243.34C273.29,-230.47 251.65,-215.29 234.66,-203.37"/>
<polygon fill="#63b8ff" stroke="#63b8ff" points="289.43,-246.07 299.63,-248.95 293.45,-240.34 289.43,-246.07"/>
</a>
</g>
</g>
<!-- Node16 -->
<g id="Node000016" class="node">
<title>Node16</title>
<g id="a_Node000016"><a xlink:href="../../d6/d41/ImportSolver_8cpp.html" target="_top" xlink:title=" ">
<polygon fill="white" stroke="#666666" points="469.5,-202.88 293.75,-202.88 293.75,-161.12 469.5,-161.12 469.5,-202.88"/>
<text text-anchor="start" x="301.75" y="-189.38" font-family="Helvetica,sans-Serif" font-size="10.00">/Users/fola/Documents</text>
<text text-anchor="start" x="301.75" y="-178.12" font-family="Helvetica,sans-Serif" font-size="10.00">/ArkScript/Ark/src/arkreactor</text>
<text text-anchor="middle" x="381.62" y="-166.88" font-family="Helvetica,sans-Serif" font-size="10.00">/Compiler/Package/ImportSolver.cpp</text>
</a>
</g>
</g>
<!-- Node2&#45;&gt;Node16 -->
<g id="edge16_Node000002_Node000016" class="edge">
<title>Node2&#45;&gt;Node16</title>
<g id="a_edge16_Node000002_Node000016"><a xlink:title=" ">
<path fill="none" stroke="#63b8ff" d="M347.49,-240.11C354.74,-227.99 362.91,-214.3 369.45,-203.37"/>
<polygon fill="#63b8ff" stroke="#63b8ff" points="344.59,-238.14 342.46,-248.52 350.6,-241.73 344.59,-238.14"/>
</a>
</g>
</g>
<!-- Node4 -->
<g id="Node000004" class="node">
<title>Node4</title>
<g id="a_Node000004"><a xlink:href="../../d3/d7e/Ark_8hpp.html" target="_top" xlink:title="Includes the needed files to start using ArkScript.">
<polygon fill="white" stroke="#666666" points="1386.25,-119.5 1269,-119.5 1269,-77.75 1386.25,-77.75 1386.25,-119.5"/>
<text text-anchor="start" x="1277" y="-106" font-family="Helvetica,sans-Serif" font-size="10.00">/Users/fola/Documents</text>
<text text-anchor="start" x="1277" y="-94.75" font-family="Helvetica,sans-Serif" font-size="10.00">/ArkScript/Ark/include</text>
<text text-anchor="middle" x="1327.62" y="-83.5" font-family="Helvetica,sans-Serif" font-size="10.00">/Ark/Ark.hpp</text>
</a>
</g>
</g>
<!-- Node3&#45;&gt;Node4 -->
<g id="edge3_Node000003_Node000004" class="edge">
<title>Node3&#45;&gt;Node4</title>
<g id="a_edge3_Node000003_Node000004"><a xlink:title=" ">
<path fill="none" stroke="#63b8ff" d="M1225.09,-155.25C1246.09,-143.86 1270.42,-130.66 1290.12,-119.97"/>
<polygon fill="#63b8ff" stroke="#63b8ff" points="1223.54,-152.11 1216.42,-159.95 1226.88,-158.26 1223.54,-152.11"/>
</a>
</g>
</g>
<!-- Node7 -->
<g id="Node000007" class="node">
<title>Node7</title>
<g id="a_Node000007"><a xlink:href="../../dc/dfd/JsonCompiler_8hpp.html" target="_top" xlink:title=" ">
<polygon fill="white" stroke="#666666" points="1236.25,-119.5 1119,-119.5 1119,-77.75 1236.25,-77.75 1236.25,-119.5"/>
<text text-anchor="start" x="1127" y="-106" font-family="Helvetica,sans-Serif" font-size="10.00">/Users/fola/Documents</text>
<text text-anchor="start" x="1127" y="-94.75" font-family="Helvetica,sans-Serif" font-size="10.00">/ArkScript/Ark/include</text>
<text text-anchor="middle" x="1177.62" y="-83.5" font-family="Helvetica,sans-Serif" font-size="10.00">/CLI/JsonCompiler.hpp</text>
</a>
</g>
</g>
<!-- Node3&#45;&gt;Node7 -->
<g id="edge6_Node000003_Node000007" class="edge">
<title>Node3&#45;&gt;Node7</title>
<g id="a_edge6_Node000003_Node000007"><a xlink:title=" ">
<path fill="none" stroke="#63b8ff" d="M1177.62,-149.64C1177.62,-139.62 1177.62,-128.8 1177.62,-119.79"/>
<polygon fill="#63b8ff" stroke="#63b8ff" points="1174.13,-149.37 1177.63,-159.37 1181.13,-149.37 1174.13,-149.37"/>
</a>
</g>
</g>
<!-- Node10 -->
<g id="Node000010" class="node">
<title>Node10</title>
<g id="a_Node000010"><a xlink:href="../../d3/df1/Welder_8cpp.html" target="_top" xlink:title=" ">
<polygon fill="white" stroke="#666666" points="1653.88,-119.5 1513.38,-119.5 1513.38,-77.75 1653.88,-77.75 1653.88,-119.5"/>
<text text-anchor="start" x="1521.38" y="-106" font-family="Helvetica,sans-Serif" font-size="10.00">/Users/fola/Documents</text>
<text text-anchor="start" x="1521.38" y="-94.75" font-family="Helvetica,sans-Serif" font-size="10.00">/ArkScript/Ark/src/arkreactor</text>
<text text-anchor="middle" x="1583.62" y="-83.5" font-family="Helvetica,sans-Serif" font-size="10.00">/Compiler/Welder.cpp</text>
</a>
</g>
</g>
<!-- Node3&#45;&gt;Node10 -->
<g id="edge9_Node000003_Node000010" class="edge">
<title>Node3&#45;&gt;Node10</title>
<g id="a_edge9_Node000003_Node000010"><a xlink:title=" ">
<path fill="none" stroke="#63b8ff" d="M1252.52,-162.09C1262.29,-159.78 1272.18,-157.53 1281.62,-155.5 1360.47,-138.55 1451.57,-122.13 1512.92,-111.52"/>
<polygon fill="#63b8ff" stroke="#63b8ff" points="1251.95,-158.63 1243.04,-164.36 1253.58,-165.44 1251.95,-158.63"/>
</a>
</g>
</g>
<!-- Node11 -->
<g id="Node000011" class="node">
<title>Node11</title>
<g id="a_Node000011"><a xlink:href="../../d0/da0/State_8cpp.html" target="_top" xlink:title=" ">
<polygon fill="white" stroke="#666666" points="941.88,-119.5 801.38,-119.5 801.38,-77.75 941.88,-77.75 941.88,-119.5"/>
<text text-anchor="start" x="809.38" y="-106" font-family="Helvetica,sans-Serif" font-size="10.00">/Users/fola/Documents</text>
<text text-anchor="start" x="809.38" y="-94.75" font-family="Helvetica,sans-Serif" font-size="10.00">/ArkScript/Ark/src/arkreactor</text>
<text text-anchor="middle" x="871.62" y="-83.5" font-family="Helvetica,sans-Serif" font-size="10.00">/State.cpp</text>
</a>
</g>
</g>
<!-- Node3&#45;&gt;Node11 -->
<g id="edge10_Node000003_Node000011" class="edge">
<title>Node3&#45;&gt;Node11</title>
<g id="a_edge10_Node000003_Node000011"><a xlink:title=" ">
<path fill="none" stroke="#63b8ff" d="M1103.01,-161.16C1054.04,-148.14 990.4,-131.21 942.26,-118.41"/>
<polygon fill="#63b8ff" stroke="#63b8ff" points="1101.82,-164.46 1112.39,-163.65 1103.62,-157.7 1101.82,-164.46"/>
</a>
</g>
</g>
<!-- Node12 -->
<g id="Node000012" class="node">
<title>Node12</title>
<g id="a_Node000012"><a xlink:href="../../db/d7b/Debugger_8cpp.html" target="_top" xlink:title=" ">
<polygon fill="white" stroke="#666666" points="1100.88,-119.5 960.38,-119.5 960.38,-77.75 1100.88,-77.75 1100.88,-119.5"/>
<text text-anchor="start" x="968.38" y="-106" font-family="Helvetica,sans-Serif" font-size="10.00">/Users/fola/Documents</text>
<text text-anchor="start" x="968.38" y="-94.75" font-family="Helvetica,sans-Serif" font-size="10.00">/ArkScript/Ark/src/arkreactor</text>
<text text-anchor="middle" x="1030.62" y="-83.5" font-family="Helvetica,sans-Serif" font-size="10.00">/VM/Debugger.cpp</text>
</a>
</g>
</g>
<!-- Node3&#45;&gt;Node12 -->
<g id="edge11_Node000003_Node000012" class="edge">
<title>Node3&#45;&gt;Node12</title>
<g id="a_edge11_Node000003_Node000012"><a xlink:title=" ">
<path fill="none" stroke="#63b8ff" d="M1131.11,-155.25C1110.53,-143.86 1086.68,-130.66 1067.38,-119.97"/>
<polygon fill="#63b8ff" stroke="#63b8ff" points="1129.14,-158.16 1139.59,-159.94 1132.53,-152.04 1129.14,-158.16"/>
</a>
</g>
</g>
<!-- Node5 -->
<g id="Node000005" class="node">
<title>Node5</title>
<g id="a_Node000005"><a xlink:href="../../d1/d95/arkemscripten_2main_8cpp.html" target="_top" xlink:title=" ">
<polygon fill="white" stroke="#666666" points="1406.88,-41.75 1248.38,-41.75 1248.38,0 1406.88,0 1406.88,-41.75"/>
<text text-anchor="start" x="1256.38" y="-28.25" font-family="Helvetica,sans-Serif" font-size="10.00">/Users/fola/Documents</text>
<text text-anchor="start" x="1256.38" y="-17" font-family="Helvetica,sans-Serif" font-size="10.00">/ArkScript/Ark/src/arkemscripten</text>
<text text-anchor="middle" x="1327.62" y="-5.75" font-family="Helvetica,sans-Serif" font-size="10.00">/main.cpp</text>
</a>
</g>
</g>
<!-- Node4&#45;&gt;Node5 -->
<g id="edge4_Node000004_Node000005" class="edge">
<title>Node4&#45;&gt;Node5</title>
<g id="a_edge4_Node000004_Node000005"><a xlink:title=" ">
<path fill="none" stroke="#63b8ff" d="M1327.62,-66C1327.62,-57.96 1327.62,-49.54 1327.62,-42.23"/>
<polygon fill="#63b8ff" stroke="#63b8ff" points="1324.13,-65.81 1327.63,-75.81 1331.13,-65.81 1324.13,-65.81"/>
</a>
</g>
</g>
<!-- Node6 -->
<g id="Node000006" class="node">
<title>Node6</title>
<g id="a_Node000006"><a xlink:href="../../dc/d32/Ark_8cpp.html" target="_top" xlink:title=" ">
<polygon fill="white" stroke="#666666" points="1565.88,-41.75 1425.38,-41.75 1425.38,0 1565.88,0 1565.88,-41.75"/>
<text text-anchor="start" x="1433.38" y="-28.25" font-family="Helvetica,sans-Serif" font-size="10.00">/Users/fola/Documents</text>
<text text-anchor="start" x="1433.38" y="-17" font-family="Helvetica,sans-Serif" font-size="10.00">/ArkScript/Ark/src/arkreactor</text>
<text text-anchor="middle" x="1495.62" y="-5.75" font-family="Helvetica,sans-Serif" font-size="10.00">/Ark.cpp</text>
</a>
</g>
</g>
<!-- Node4&#45;&gt;Node6 -->
<g id="edge5_Node000004_Node000006" class="edge">
<title>Node4&#45;&gt;Node6</title>
<g id="a_edge5_Node000004_Node000006"><a xlink:title=" ">
<path fill="none" stroke="#63b8ff" d="M1383.11,-72.61C1404.97,-62.75 1429.75,-51.58 1450.48,-42.23"/>
<polygon fill="#63b8ff" stroke="#63b8ff" points="1381.7,-69.4 1374.03,-76.7 1384.58,-75.78 1381.7,-69.4"/>
</a>
</g>
</g>
<!-- Node8 -->
<g id="Node000008" class="node">
<title>Node8</title>
<g id="a_Node000008"><a xlink:href="../../db/d71/JsonCompiler_8cpp.html" target="_top" xlink:title=" ">
<polygon fill="white" stroke="#666666" points="1229.88,-41.75 1095.38,-41.75 1095.38,0 1229.88,0 1229.88,-41.75"/>
<text text-anchor="start" x="1103.38" y="-28.25" font-family="Helvetica,sans-Serif" font-size="10.00">/Users/fola/Documents</text>
<text text-anchor="start" x="1103.38" y="-17" font-family="Helvetica,sans-Serif" font-size="10.00">/ArkScript/Ark/src/arkscript</text>
<text text-anchor="middle" x="1162.62" y="-5.75" font-family="Helvetica,sans-Serif" font-size="10.00">/JsonCompiler.cpp</text>
</a>
</g>
</g>
<!-- Node7&#45;&gt;Node8 -->
<g id="edge7_Node000007_Node000008" class="edge">
<title>Node7&#45;&gt;Node8</title>
<g id="a_edge7_Node000007_Node000008"><a xlink:title=" ">
<path fill="none" stroke="#63b8ff" d="M1171.42,-66.28C1169.81,-58.16 1168.12,-49.62 1166.66,-42.23"/>
<polygon fill="#63b8ff" stroke="#63b8ff" points="1167.94,-66.71 1173.31,-75.84 1174.8,-65.35 1167.94,-66.71"/>
</a>
</g>
</g>
<!-- Node9 -->
<g id="Node000009" class="node">
<title>Node9</title>
<g id="a_Node000009"><a xlink:href="../../d0/d46/arkscript_2main_8cpp.html" target="_top" xlink:title=" ">
<polygon fill="white" stroke="#666666" points="613.88,-41.75 479.38,-41.75 479.38,0 613.88,0 613.88,-41.75"/>
<text text-anchor="start" x="487.38" y="-28.25" font-family="Helvetica,sans-Serif" font-size="10.00">/Users/fola/Documents</text>
<text text-anchor="start" x="487.38" y="-17" font-family="Helvetica,sans-Serif" font-size="10.00">/ArkScript/Ark/src/arkscript</text>
<text text-anchor="middle" x="546.62" y="-5.75" font-family="Helvetica,sans-Serif" font-size="10.00">/main.cpp</text>
</a>
</g>
</g>
<!-- Node7&#45;&gt;Node9 -->
<g id="edge8_Node000007_Node000009" class="edge">
<title>Node7&#45;&gt;Node9</title>
<g id="a_edge8_Node000007_Node000009"><a xlink:title=" ">
<path fill="none" stroke="#63b8ff" d="M1107.62,-77.56C924.47,-42.92 718.59,-29.53 614.37,-24.54"/>
<polygon fill="#63b8ff" stroke="#63b8ff" points="1106.85,-80.98 1117.33,-79.43 1108.17,-74.1 1106.85,-80.98"/>
</a>
</g>
</g>
<!-- Node13&#45;&gt;Node9 -->
<g id="edge14_Node000013_Node000009" class="edge">
<title>Node13&#45;&gt;Node9</title>
<g id="a_edge14_Node000013_Node000009"><a xlink:title=" ">
<path fill="none" stroke="#63b8ff" d="M55.36,-149.28C54.87,-126.1 58.5,-95.7 77.62,-77.75 106.36,-50.78 356.44,-32.81 479.2,-25.53"/>
<polygon fill="#63b8ff" stroke="#63b8ff" points="51.86,-149.31 55.86,-159.12 58.85,-148.96 51.86,-149.31"/>
</a>
</g>
</g>
<!-- Node14 -->
<g id="Node000014" class="node">
<title>Node14</title>
<g id="a_Node000014"><a xlink:href="../../d2/d56/Formatter_8cpp.html" target="_top" xlink:title=" ">
<polygon fill="white" stroke="#666666" points="220.88,-119.5 86.38,-119.5 86.38,-77.75 220.88,-77.75 220.88,-119.5"/>
<text text-anchor="start" x="94.38" y="-106" font-family="Helvetica,sans-Serif" font-size="10.00">/Users/fola/Documents</text>
<text text-anchor="start" x="94.38" y="-94.75" font-family="Helvetica,sans-Serif" font-size="10.00">/ArkScript/Ark/src/arkscript</text>
<text text-anchor="middle" x="153.62" y="-83.5" font-family="Helvetica,sans-Serif" font-size="10.00">/Formatter.cpp</text>
</a>
</g>
</g>
<!-- Node13&#45;&gt;Node14 -->
<g id="edge13_Node000013_Node000014" class="edge">
<title>Node13&#45;&gt;Node14</title>
<g id="a_edge13_Node000013_Node000014"><a xlink:title=" ">
<path fill="none" stroke="#63b8ff" d="M90.71,-153.52C103.6,-142.47 118.2,-129.97 130.08,-119.79"/>
<polygon fill="#63b8ff" stroke="#63b8ff" points="88.58,-150.74 83.26,-159.9 93.13,-156.05 88.58,-150.74"/>
</a>
</g>
</g>
<!-- Node17&#45;&gt;Node3 -->
<g id="edge18_Node000017_Node000003" class="edge">
<title>Node17&#45;&gt;Node3</title>
<g id="a_edge18_Node000017_Node000003"><a xlink:title=" ">
<path fill="none" stroke="#63b8ff" d="M632.8,-244.1C823.24,-215.01 876.53,-237.36 1064.62,-208.5 1080.63,-206.04 1097.74,-202.61 1113.68,-199.06"/>
<polygon fill="#63b8ff" stroke="#63b8ff" points="632.39,-240.62 623.05,-245.62 633.46,-247.54 632.39,-240.62"/>
</a>
</g>
</g>
<!-- Node18 -->
<g id="Node000018" class="node">
<title>Node18</title>
<g id="a_Node000018"><a xlink:href="../../d1/dfa/IRCompiler_8cpp.html" target="_top" xlink:title=" ">
<polygon fill="white" stroke="#666666" points="668.12,-208.5 487.12,-208.5 487.12,-155.5 668.12,-155.5 668.12,-208.5"/>
<text text-anchor="start" x="495.12" y="-195" font-family="Helvetica,sans-Serif" font-size="10.00">/Users/fola/Documents</text>
<text text-anchor="start" x="495.12" y="-183.75" font-family="Helvetica,sans-Serif" font-size="10.00">/ArkScript/Ark/src/arkreactor</text>
<text text-anchor="start" x="495.12" y="-172.5" font-family="Helvetica,sans-Serif" font-size="10.00">/Compiler/IntermediateRepresentation</text>
<text text-anchor="middle" x="577.62" y="-161.25" font-family="Helvetica,sans-Serif" font-size="10.00">/IRCompiler.cpp</text>
</a>
</g>
</g>
<!-- Node17&#45;&gt;Node18 -->
<g id="edge19_Node000017_Node000018" class="edge">
<title>Node17&#45;&gt;Node18</title>
<g id="a_edge19_Node000017_Node000018"><a xlink:title=" ">
<path fill="none" stroke="#63b8ff" d="M544.28,-234.8C549.89,-226.09 555.79,-216.92 561.05,-208.75"/>
<polygon fill="#63b8ff" stroke="#63b8ff" points="541.41,-232.79 538.94,-243.1 547.3,-236.58 541.41,-232.79"/>
</a>
</g>
</g>
<!-- Node19&#45;&gt;Node3 -->
<g id="edge21_Node000019_Node000003" class="edge">
<title>Node19&#45;&gt;Node3</title>
<g id="a_edge21_Node000019_Node000003"><a xlink:title=" ">
<path fill="none" stroke="#63b8ff" d="M849.45,-244.2C945.41,-225.47 972.15,-226.59 1064.62,-208.5 1080.61,-205.37 1097.8,-201.67 1113.82,-198.07"/>
<polygon fill="#63b8ff" stroke="#63b8ff" points="848.98,-240.73 839.85,-246.1 850.33,-247.59 848.98,-240.73"/>
</a>
</g>
</g>
<!-- Node20 -->
<g id="Node000020" class="node">
<title>Node20</title>
<g id="a_Node000020"><a xlink:href="../../d0/da9/IROptimizer_8cpp.html" target="_top" xlink:title=" ">
<polygon fill="white" stroke="#666666" points="867.12,-208.5 686.12,-208.5 686.12,-155.5 867.12,-155.5 867.12,-208.5"/>
<text text-anchor="start" x="694.12" y="-195" font-family="Helvetica,sans-Serif" font-size="10.00">/Users/fola/Documents</text>
<text text-anchor="start" x="694.12" y="-183.75" font-family="Helvetica,sans-Serif" font-size="10.00">/ArkScript/Ark/src/arkreactor</text>
<text text-anchor="start" x="694.12" y="-172.5" font-family="Helvetica,sans-Serif" font-size="10.00">/Compiler/IntermediateRepresentation</text>
<text text-anchor="middle" x="776.62" y="-161.25" font-family="Helvetica,sans-Serif" font-size="10.00">/IROptimizer.cpp</text>
</a>
</g>
</g>
<!-- Node19&#45;&gt;Node20 -->
<g id="edge22_Node000019_Node000020" class="edge">
<title>Node19&#45;&gt;Node20</title>
<g id="a_edge22_Node000019_Node000020"><a xlink:title=" ">
<path fill="none" stroke="#63b8ff" d="M754.37,-233.96C758.06,-225.5 761.93,-216.65 765.38,-208.75"/>
<polygon fill="#63b8ff" stroke="#63b8ff" points="751.22,-232.42 750.43,-242.98 757.64,-235.22 751.22,-232.42"/>
</a>
</g>
</g>
<!-- Node21&#45;&gt;Node3 -->
<g id="edge24_Node000021_Node000003" class="edge">
<title>Node21&#45;&gt;Node3</title>
<g id="a_edge24_Node000021_Node000003"><a xlink:title=" ">
<path fill="none" stroke="#63b8ff" d="M1014.09,-245.67C1048.91,-232.33 1091.58,-215.98 1124.61,-203.32"/>
<polygon fill="#63b8ff" stroke="#63b8ff" points="1013.06,-242.32 1004.97,-249.17 1015.56,-248.86 1013.06,-242.32"/>
</a>
</g>
</g>
<!-- Node22 -->
<g id="Node000022" class="node">
<title>Node22</title>
<g id="a_Node000022"><a xlink:href="../../d2/d5e/ASTLowerer_8cpp.html" target="_top" xlink:title=" ">
<polygon fill="white" stroke="#666666" points="1055.88,-202.88 885.38,-202.88 885.38,-161.12 1055.88,-161.12 1055.88,-202.88"/>
<text text-anchor="start" x="893.38" y="-189.38" font-family="Helvetica,sans-Serif" font-size="10.00">/Users/fola/Documents</text>
<text text-anchor="start" x="893.38" y="-178.12" font-family="Helvetica,sans-Serif" font-size="10.00">/ArkScript/Ark/src/arkreactor</text>
<text text-anchor="middle" x="970.62" y="-166.88" font-family="Helvetica,sans-Serif" font-size="10.00">/Compiler/Lowerer/ASTLowerer.cpp</text>
</a>
</g>
</g>
<!-- Node21&#45;&gt;Node22 -->
<g id="edge25_Node000021_Node000022" class="edge">
<title>Node21&#45;&gt;Node22</title>
<g id="a_edge25_Node000021_Node000022"><a xlink:title=" ">
<path fill="none" stroke="#63b8ff" d="M957.83,-238.64C960.53,-226.9 963.53,-213.87 965.94,-203.37"/>
<polygon fill="#63b8ff" stroke="#63b8ff" points="954.43,-237.82 955.6,-248.35 961.25,-239.39 954.43,-237.82"/>
</a>
</g>
</g>
<!-- Node23&#45;&gt;Node17 -->
<g id="edge31_Node000023_Node000017" class="edge">
<title>Node23&#45;&gt;Node17</title>
<g id="a_edge31_Node000023_Node000017"><a xlink:title=" ">
<path fill="none" stroke="#63b8ff" d="M1125.76,-349.4C1017.57,-342.71 806.68,-326.98 629.62,-297.5 626.96,-297.06 624.27,-296.59 621.56,-296.09"/>
<polygon fill="#63b8ff" stroke="#63b8ff" points="1125.46,-352.89 1135.66,-350 1125.89,-345.9 1125.46,-352.89"/>
</a>
</g>
</g>
<!-- Node23&#45;&gt;Node19 -->
<g id="edge35_Node000023_Node000019" class="edge">
<title>Node23&#45;&gt;Node19</title>
<g id="a_edge35_Node000023_Node000019"><a xlink:title=" ">
<path fill="none" stroke="#63b8ff" d="M1125.98,-343.47C1055.05,-333.3 943.48,-316.34 847.62,-297.5 844.57,-296.9 841.48,-296.28 838.36,-295.63"/>
<polygon fill="#63b8ff" stroke="#63b8ff" points="1125.11,-346.88 1135.51,-344.83 1126.1,-339.95 1125.11,-346.88"/>
</a>
</g>
</g>
<!-- Node23&#45;&gt;Node21 -->
<g id="edge36_Node000023_Node000021" class="edge">
<title>Node23&#45;&gt;Node21</title>
<g id="a_edge36_Node000023_Node000021"><a xlink:title=" ">
<path fill="none" stroke="#63b8ff" d="M1126.71,-330.01C1090.52,-318.09 1046.9,-303.72 1012.14,-292.27"/>
<polygon fill="#63b8ff" stroke="#63b8ff" points="1125.17,-333.19 1135.76,-332.99 1127.36,-326.54 1125.17,-333.19"/>
</a>
</g>
</g>
<!-- Node24 -->
<g id="Node000024" class="node">
<title>Node24</title>
<g id="a_Node000024"><a xlink:href="../../db/d93/Optimizer_8hpp.html" target="_top" xlink:title="Optimizes a given ArkScript AST.">
<polygon fill="white" stroke="#666666" points="2018.38,-291.88 1856.88,-291.88 1856.88,-250.12 2018.38,-250.12 2018.38,-291.88"/>
<text text-anchor="start" x="1864.88" y="-278.38" font-family="Helvetica,sans-Serif" font-size="10.00">/Users/fola/Documents</text>
<text text-anchor="start" x="1864.88" y="-267.12" font-family="Helvetica,sans-Serif" font-size="10.00">/ArkScript/Ark/include</text>
<text text-anchor="middle" x="1937.62" y="-255.88" font-family="Helvetica,sans-Serif" font-size="10.00">/Ark/Compiler/AST/Optimizer.hpp</text>
</a>
</g>
</g>
<!-- Node23&#45;&gt;Node24 -->
<g id="edge27_Node000023_Node000024" class="edge">
<title>Node23&#45;&gt;Node24</title>
<g id="a_edge27_Node000023_Node000024"><a xlink:title=" ">
<path fill="none" stroke="#63b8ff" d="M1269.13,-333.28C1524.05,-290.83 1596.83,-340.83 1848.62,-297.5 1856.55,-296.14 1864.77,-294.33 1872.87,-292.31"/>
<polygon fill="#63b8ff" stroke="#63b8ff" points="1268.8,-329.79 1259.52,-334.91 1269.97,-336.69 1268.8,-329.79"/>
</a>
</g>
</g>
<!-- Node26 -->
<g id="Node000026" class="node">
<title>Node26</title>
<g id="a_Node000026"><a xlink:href="../../d0/d45/IRInliner_8hpp.html" target="_top" xlink:title="Try to inline IR blocks.">
<polygon fill="white" stroke="#666666" points="1839.12,-297.5 1640.12,-297.5 1640.12,-244.5 1839.12,-244.5 1839.12,-297.5"/>
<text text-anchor="start" x="1648.12" y="-284" font-family="Helvetica,sans-Serif" font-size="10.00">/Users/fola/Documents</text>
<text text-anchor="start" x="1648.12" y="-272.75" font-family="Helvetica,sans-Serif" font-size="10.00">/ArkScript/Ark/include</text>
<text text-anchor="start" x="1648.12" y="-261.5" font-family="Helvetica,sans-Serif" font-size="10.00">/Ark/Compiler/IntermediateRepresentation</text>
<text text-anchor="middle" x="1739.62" y="-250.25" font-family="Helvetica,sans-Serif" font-size="10.00">/IRInliner.hpp</text>
</a>
</g>
</g>
<!-- Node23&#45;&gt;Node26 -->
<g id="edge32_Node000023_Node000026" class="edge">
<title>Node23&#45;&gt;Node26</title>
<g id="a_edge32_Node000023_Node000026"><a xlink:title=" ">
<path fill="none" stroke="#63b8ff" d="M1269.24,-333.19C1428.76,-303.75 1474.44,-323.69 1631.62,-297.5 1634.29,-297.06 1636.98,-296.59 1639.69,-296.09"/>
<polygon fill="#63b8ff" stroke="#63b8ff" points="1268.72,-329.72 1259.54,-335.01 1270.02,-336.6 1268.72,-329.72"/>
</a>
</g>
</g>
<!-- Node28 -->
<g id="Node000028" class="node">
<title>Node28</title>
<g id="a_Node000028"><a xlink:href="../../de/db1/Processor_8hpp.html" target="_top" xlink:title="Handles the macros and their expansion in ArkScript source code.">
<polygon fill="white" stroke="#666666" points="2212.88,-291.88 2036.38,-291.88 2036.38,-250.12 2212.88,-250.12 2212.88,-291.88"/>
<text text-anchor="start" x="2044.38" y="-278.38" font-family="Helvetica,sans-Serif" font-size="10.00">/Users/fola/Documents</text>
<text text-anchor="start" x="2044.38" y="-267.12" font-family="Helvetica,sans-Serif" font-size="10.00">/ArkScript/Ark/include</text>
<text text-anchor="middle" x="2124.62" y="-255.88" font-family="Helvetica,sans-Serif" font-size="10.00">/Ark/Compiler/Macros/Processor.hpp</text>
</a>
</g>
</g>
<!-- Node23&#45;&gt;Node28 -->
<g id="edge37_Node000023_Node000028" class="edge">
<title>Node23&#45;&gt;Node28</title>
<g id="a_edge37_Node000023_Node000028"><a xlink:title=" ">
<path fill="none" stroke="#63b8ff" d="M1268.98,-333.33C1602.7,-279.77 1696.53,-348.28 2027.62,-297.5 2036.32,-296.17 2045.35,-294.37 2054.26,-292.34"/>
<polygon fill="#63b8ff" stroke="#63b8ff" points="1268.82,-329.81 1259.52,-334.87 1269.95,-336.71 1268.82,-329.81"/>
</a>
</g>
</g>
<!-- Node31 -->
<g id="Node000031" class="node">
<title>Node31</title>
<g id="a_Node000031"><a xlink:href="../../d4/de8/NameResolutionPass_8hpp.html" target="_top" xlink:title="Resolves names and fully qualify them in the AST (prefixing them with the package they are from)">
<polygon fill="white" stroke="#666666" points="1622.5,-297.5 1470.75,-297.5 1470.75,-244.5 1622.5,-244.5 1622.5,-297.5"/>
<text text-anchor="start" x="1478.75" y="-284" font-family="Helvetica,sans-Serif" font-size="10.00">/Users/fola/Documents</text>
<text text-anchor="start" x="1478.75" y="-272.75" font-family="Helvetica,sans-Serif" font-size="10.00">/ArkScript/Ark/include</text>
<text text-anchor="start" x="1478.75" y="-261.5" font-family="Helvetica,sans-Serif" font-size="10.00">/Ark/Compiler/NameResolution</text>
<text text-anchor="middle" x="1546.62" y="-250.25" font-family="Helvetica,sans-Serif" font-size="10.00">/NameResolutionPass.hpp</text>
</a>
</g>
</g>
<!-- Node23&#45;&gt;Node31 -->
<g id="edge42_Node000023_Node000031" class="edge">
<title>Node23&#45;&gt;Node31</title>
<g id="a_edge42_Node000023_Node000031"><a xlink:title=" ">
<path fill="none" stroke="#63b8ff" d="M1269.11,-333.04C1354.39,-313.63 1379.39,-317.36 1461.62,-297.5 1464.47,-296.81 1467.36,-296.09 1470.28,-295.33"/>
<polygon fill="#63b8ff" stroke="#63b8ff" points="1268.54,-329.57 1259.59,-335.25 1270.13,-336.39 1268.54,-329.57"/>
</a>
</g>
</g>
<!-- Node33 -->
<g id="Node000033" class="node">
<title>Node33</title>
<g id="a_Node000033"><a xlink:href="../../d1/db0/ImportSolver_8hpp.html" target="_top" xlink:title="Handle imports, resolve them with modules and everything.">
<polygon fill="white" stroke="#666666" points="1294.5,-291.88 1100.75,-291.88 1100.75,-250.12 1294.5,-250.12 1294.5,-291.88"/>
<text text-anchor="start" x="1108.75" y="-278.38" font-family="Helvetica,sans-Serif" font-size="10.00">/Users/fola/Documents</text>
<text text-anchor="start" x="1108.75" y="-267.12" font-family="Helvetica,sans-Serif" font-size="10.00">/ArkScript/Ark/include</text>
<text text-anchor="middle" x="1197.62" y="-255.88" font-family="Helvetica,sans-Serif" font-size="10.00">/Ark/Compiler/Package/ImportSolver.hpp</text>
</a>
</g>
</g>
<!-- Node23&#45;&gt;Node33 -->
<g id="edge46_Node000023_Node000033" class="edge">
<title>Node23&#45;&gt;Node33</title>
<g id="a_edge46_Node000023_Node000033"><a xlink:title=" ">
<path fill="none" stroke="#63b8ff" d="M1197.62,-322.02C1197.62,-311.99 1197.62,-301.17 1197.62,-292.17"/>
<polygon fill="#63b8ff" stroke="#63b8ff" points="1194.13,-321.75 1197.63,-331.75 1201.13,-321.75 1194.13,-321.75"/>
</a>
</g>
</g>
<!-- Node34 -->
<g id="Node000034" class="node">
<title>Node34</title>
<g id="a_Node000034"><a xlink:href="../../d8/d54/Pass_8cpp.html" target="_top" xlink:title=" ">
<polygon fill="white" stroke="#666666" points="1452.88,-291.88 1312.38,-291.88 1312.38,-250.12 1452.88,-250.12 1452.88,-291.88"/>
<text text-anchor="start" x="1320.38" y="-278.38" font-family="Helvetica,sans-Serif" font-size="10.00">/Users/fola/Documents</text>
<text text-anchor="start" x="1320.38" y="-267.12" font-family="Helvetica,sans-Serif" font-size="10.00">/ArkScript/Ark/src/arkreactor</text>
<text text-anchor="middle" x="1382.62" y="-255.88" font-family="Helvetica,sans-Serif" font-size="10.00">/Compiler/Pass.cpp</text>
</a>
</g>
</g>
<!-- Node23&#45;&gt;Node34 -->
<g id="edge50_Node000023_Node000034" class="edge">
<title>Node23&#45;&gt;Node34</title>
<g id="a_edge50_Node000023_Node000034"><a xlink:title=" ">
<path fill="none" stroke="#63b8ff" d="M1254.06,-328.55C1280.42,-316.96 1311.42,-303.32 1336.37,-292.35"/>
<polygon fill="#63b8ff" stroke="#63b8ff" points="1252.96,-325.21 1245.22,-332.44 1255.78,-331.62 1252.96,-325.21"/>
</a>
</g>
</g>
<!-- Node24&#45;&gt;Node3 -->
<g id="edge28_Node000024_Node000003" class="edge">
<title>Node24&#45;&gt;Node3</title>
<g id="a_edge28_Node000024_Node000003"><a xlink:title=" ">
<path fill="none" stroke="#63b8ff" d="M1861.17,-247C1856.95,-246.07 1852.75,-245.23 1848.62,-244.5 1623.98,-204.87 1563.25,-234.59 1336.62,-208.5 1305.1,-204.87 1270.28,-199.45 1241.27,-194.53"/>
<polygon fill="#63b8ff" stroke="#63b8ff" points="1860.36,-250.4 1870.9,-249.28 1861.96,-243.59 1860.36,-250.4"/>
</a>
</g>
</g>
<!-- Node24&#45;&gt;Node10 -->
<g id="edge30_Node000024_Node000010" class="edge">
<title>Node24&#45;&gt;Node10</title>
<g id="a_edge30_Node000024_Node000010"><a xlink:title=" ">
<path fill="none" stroke="#63b8ff" d="M1894.88,-243.55C1880.34,-233.51 1864.52,-221.37 1851.62,-208.5 1831.12,-188.02 1837.65,-171.71 1813.62,-155.5 1766.28,-123.55 1702.54,-109.83 1654.17,-103.95"/>
<polygon fill="#63b8ff" stroke="#63b8ff" points="1892.71,-246.3 1902.96,-248.98 1896.61,-240.49 1892.71,-246.3"/>
</a>
</g>
</g>
<!-- Node25 -->
<g id="Node000025" class="node">
<title>Node25</title>
<g id="a_Node000025"><a xlink:href="../../d2/dc5/Optimizer_8cpp.html" target="_top" xlink:title=" ">
<polygon fill="white" stroke="#666666" points="2004.38,-202.88 1860.88,-202.88 1860.88,-161.12 2004.38,-161.12 2004.38,-202.88"/>
<text text-anchor="start" x="1868.88" y="-189.38" font-family="Helvetica,sans-Serif" font-size="10.00">/Users/fola/Documents</text>
<text text-anchor="start" x="1868.88" y="-178.12" font-family="Helvetica,sans-Serif" font-size="10.00">/ArkScript/Ark/src/arkreactor</text>
<text text-anchor="middle" x="1932.62" y="-166.88" font-family="Helvetica,sans-Serif" font-size="10.00">/Compiler/AST/Optimizer.cpp</text>
</a>
</g>
</g>
<!-- Node24&#45;&gt;Node25 -->
<g id="edge29_Node000024_Node000025" class="edge">
<title>Node24&#45;&gt;Node25</title>
<g id="a_edge29_Node000024_Node000025"><a xlink:title=" ">
<path fill="none" stroke="#63b8ff" d="M1935.82,-238.64C1935.15,-226.9 1934.4,-213.87 1933.8,-203.37"/>
<polygon fill="#63b8ff" stroke="#63b8ff" points="1932.31,-238.53 1936.38,-248.31 1939.3,-238.13 1932.31,-238.53"/>
</a>
</g>
</g>
<!-- Node26&#45;&gt;Node3 -->
<g id="edge33_Node000026_Node000003" class="edge">
<title>Node26&#45;&gt;Node3</title>
<g id="a_edge33_Node000026_Node000003"><a xlink:title=" ">
<path fill="none" stroke="#63b8ff" d="M1628.58,-244.03C1499.66,-221.58 1463.84,-226.46 1336.62,-208.5 1305.21,-204.06 1270.39,-198.55 1241.37,-193.78"/>
<polygon fill="#63b8ff" stroke="#63b8ff" points="1627.73,-247.44 1638.19,-245.73 1628.95,-240.54 1627.73,-247.44"/>
</a>
</g>
</g>
<!-- Node27 -->
<g id="Node000027" class="node">
<title>Node27</title>
<g id="a_Node000027"><a xlink:href="../../da/da2/IRInliner_8cpp.html" target="_top" xlink:title=" ">
<polygon fill="white" stroke="#666666" points="1804.12,-208.5 1623.12,-208.5 1623.12,-155.5 1804.12,-155.5 1804.12,-208.5"/>
<text text-anchor="start" x="1631.12" y="-195" font-family="Helvetica,sans-Serif" font-size="10.00">/Users/fola/Documents</text>
<text text-anchor="start" x="1631.12" y="-183.75" font-family="Helvetica,sans-Serif" font-size="10.00">/ArkScript/Ark/src/arkreactor</text>
<text text-anchor="start" x="1631.12" y="-172.5" font-family="Helvetica,sans-Serif" font-size="10.00">/Compiler/IntermediateRepresentation</text>
<text text-anchor="middle" x="1713.62" y="-161.25" font-family="Helvetica,sans-Serif" font-size="10.00">/IRInliner.cpp</text>
</a>
</g>
</g>
<!-- Node26&#45;&gt;Node27 -->
<g id="edge34_Node000026_Node000027" class="edge">
<title>Node26&#45;&gt;Node27</title>
<g id="a_edge34_Node000026_Node000027"><a xlink:title=" ">
<path fill="none" stroke="#63b8ff" d="M1728.69,-233.4C1726.21,-225.11 1723.63,-216.48 1721.32,-208.75"/>
<polygon fill="#63b8ff" stroke="#63b8ff" points="1725.31,-234.34 1731.53,-242.92 1732.02,-232.33 1725.31,-234.34"/>
</a>
</g>
</g>
<!-- Node28&#45;&gt;Node3 -->
<g id="edge38_Node000028_Node000003" class="edge">
<title>Node28&#45;&gt;Node3</title>
<g id="a_edge38_Node000028_Node000003"><a xlink:title=" ">
<path fill="none" stroke="#63b8ff" d="M2042.8,-247.23C2037.69,-246.2 2032.6,-245.27 2027.62,-244.5 1723.76,-197.16 1642.44,-240.9 1336.62,-208.5 1305.07,-205.16 1270.24,-199.77 1241.24,-194.8"/>
<polygon fill="#63b8ff" stroke="#63b8ff" points="2042,-250.64 2052.51,-249.32 2043.47,-243.8 2042,-250.64"/>
</a>
</g>
</g>
<!-- Node28&#45;&gt;Node10 -->
<g id="edge41_Node000028_Node000010" class="edge">
<title>Node28&#45;&gt;Node10</title>
<g id="a_edge41_Node000028_Node000010"><a xlink:title=" ">
<path fill="none" stroke="#63b8ff" d="M2163.99,-242.35C2174.29,-232.91 2184.06,-221.43 2189.62,-208.5 2198.94,-186.86 2205.5,-172.9 2189.62,-155.5 2154.14,-116.59 1806.36,-104.4 1654.25,-100.91"/>
<polygon fill="#63b8ff" stroke="#63b8ff" points="2161.77,-239.65 2156.44,-248.81 2166.31,-244.97 2161.77,-239.65"/>
</a>
</g>
</g>
<!-- Node29 -->
<g id="Node000029" class="node">
<title>Node29</title>
<g id="a_Node000029"><a xlink:href="../../d1/da9/Executor_8cpp.html" target="_top" xlink:title=" ">
<polygon fill="white" stroke="#666666" points="2390.25,-202.88 2237,-202.88 2237,-161.12 2390.25,-161.12 2390.25,-202.88"/>
<text text-anchor="start" x="2245" y="-189.38" font-family="Helvetica,sans-Serif" font-size="10.00">/Users/fola/Documents</text>
<text text-anchor="start" x="2245" y="-178.12" font-family="Helvetica,sans-Serif" font-size="10.00">/ArkScript/Ark/src/arkreactor</text>
<text text-anchor="middle" x="2313.62" y="-166.88" font-family="Helvetica,sans-Serif" font-size="10.00">/Compiler/Macros/Executor.cpp</text>
</a>
</g>
</g>
<!-- Node28&#45;&gt;Node29 -->
<g id="edge39_Node000028_Node000029" class="edge">
<title>Node28&#45;&gt;Node29</title>
<g id="a_edge39_Node000028_Node000029"><a xlink:title=" ">
<path fill="none" stroke="#63b8ff" d="M2178.74,-245.09C2207.45,-231.87 2242.29,-215.84 2269.37,-203.37"/>
<polygon fill="#63b8ff" stroke="#63b8ff" points="2177.46,-241.83 2169.84,-249.19 2180.38,-248.19 2177.46,-241.83"/>
</a>
</g>
</g>
<!-- Node30 -->
<g id="Node000030" class="node">
<title>Node30</title>
<g id="a_Node000030"><a xlink:href="../../d6/d69/Processor_8cpp.html" target="_top" xlink:title=" ">
<polygon fill="white" stroke="#666666" points="2180.88,-202.88 2022.38,-202.88 2022.38,-161.12 2180.88,-161.12 2180.88,-202.88"/>
<text text-anchor="start" x="2030.38" y="-189.38" font-family="Helvetica,sans-Serif" font-size="10.00">/Users/fola/Documents</text>
<text text-anchor="start" x="2030.38" y="-178.12" font-family="Helvetica,sans-Serif" font-size="10.00">/ArkScript/Ark/src/arkreactor</text>
<text text-anchor="middle" x="2101.62" y="-166.88" font-family="Helvetica,sans-Serif" font-size="10.00">/Compiler/Macros/Processor.cpp</text>
</a>
</g>
</g>
<!-- Node28&#45;&gt;Node30 -->
<g id="edge40_Node000028_Node000030" class="edge">
<title>Node28&#45;&gt;Node30</title>
<g id="a_edge40_Node000028_Node000030"><a xlink:title=" ">
<path fill="none" stroke="#63b8ff" d="M2116.43,-239.01C2113.3,-227.17 2109.81,-213.98 2107.01,-203.37"/>
<polygon fill="#63b8ff" stroke="#63b8ff" points="2112.96,-239.59 2118.9,-248.36 2119.73,-237.8 2112.96,-239.59"/>
</a>
</g>
</g>
<!-- Node31&#45;&gt;Node3 -->
<g id="edge43_Node000031_Node000003" class="edge">
<title>Node31&#45;&gt;Node3</title>
<g id="a_edge43_Node000031_Node000003"><a xlink:title=" ">
<path fill="none" stroke="#63b8ff" d="M1459.84,-244.12C1379.07,-223.57 1296.7,-206.35 1241.41,-195.33"/>
<polygon fill="#63b8ff" stroke="#63b8ff" points="1458.69,-247.43 1469.24,-246.53 1460.42,-240.65 1458.69,-247.43"/>
</a>
</g>
</g>
<!-- Node31&#45;&gt;Node10 -->
<g id="edge45_Node000031_Node000010" class="edge">
<title>Node31&#45;&gt;Node10</title>
<g id="a_edge45_Node000031_Node000010"><a xlink:title=" ">
<path fill="none" stroke="#63b8ff" d="M1558.14,-233.13C1560.46,-225.06 1562.76,-216.53 1564.62,-208.5 1571.76,-177.85 1577.55,-141.79 1580.79,-119.83"/>
<polygon fill="#63b8ff" stroke="#63b8ff" points="1554.8,-232.1 1555.32,-242.68 1561.51,-234.09 1554.8,-232.1"/>
</a>
</g>
</g>
<!-- Node32 -->
<g id="Node000032" class="node">
<title>Node32</title>
<g id="a_Node000032"><a xlink:href="../../de/dd7/NameResolutionPass_8cpp.html" target="_top" xlink:title=" ">
<polygon fill="white" stroke="#666666" points="1555.38,-208.5 1345.88,-208.5 1345.88,-155.5 1555.38,-155.5 1555.38,-208.5"/>
<text text-anchor="start" x="1353.88" y="-195" font-family="Helvetica,sans-Serif" font-size="10.00">/Users/fola/Documents</text>
<text text-anchor="start" x="1353.88" y="-183.75" font-family="Helvetica,sans-Serif" font-size="10.00">/ArkScript/Ark/src/arkreactor</text>
<text text-anchor="start" x="1353.88" y="-172.5" font-family="Helvetica,sans-Serif" font-size="10.00">/Compiler/NameResolution/NameResolution</text>
<text text-anchor="middle" x="1450.62" y="-161.25" font-family="Helvetica,sans-Serif" font-size="10.00">Pass.cpp</text>
</a>
</g>
</g>
<!-- Node31&#45;&gt;Node32 -->
<g id="edge44_Node000031_Node000032" class="edge">
<title>Node31&#45;&gt;Node32</title>
<g id="a_edge44_Node000031_Node000032"><a xlink:title=" ">
<path fill="none" stroke="#63b8ff" d="M1509.78,-236.61C1499.65,-227.43 1488.81,-217.61 1479.22,-208.92"/>
<polygon fill="#63b8ff" stroke="#63b8ff" points="1507.2,-238.99 1516.96,-243.12 1511.9,-233.81 1507.2,-238.99"/>
</a>
</g>
</g>
<!-- Node33&#45;&gt;Node3 -->
<g id="edge47_Node000033_Node000003" class="edge">
<title>Node33&#45;&gt;Node3</title>
<g id="a_edge47_Node000033_Node000003"><a xlink:title=" ">
<path fill="none" stroke="#63b8ff" d="M1190.42,-238.64C1187.72,-226.9 1184.72,-213.87 1182.31,-203.37"/>
<polygon fill="#63b8ff" stroke="#63b8ff" points="1187,-239.39 1192.65,-248.35 1193.82,-237.82 1187,-239.39"/>
</a>
</g>
</g>
<!-- Node33&#45;&gt;Node10 -->
<g id="edge49_Node000033_Node000010" class="edge">
<title>Node33&#45;&gt;Node10</title>
<g id="a_edge49_Node000033_Node000010"><a xlink:title=" ">
<path fill="none" stroke="#63b8ff" d="M1224.13,-241.57C1250.25,-215.28 1292.55,-177.11 1336.62,-155.5 1392.49,-128.12 1462.06,-113.94 1513.12,-106.73"/>
<polygon fill="#63b8ff" stroke="#63b8ff" points="1221.78,-238.97 1217.3,-248.57 1226.79,-243.86 1221.78,-238.97"/>
</a>
</g>
</g>
<!-- Node33&#45;&gt;Node16 -->
<g id="edge48_Node000033_Node000016" class="edge">
<title>Node33&#45;&gt;Node16</title>
<g id="a_edge48_Node000033_Node000016"><a xlink:title=" ">
<path fill="none" stroke="#63b8ff" d="M1089.56,-249.51C1077.47,-247.62 1065.3,-245.89 1053.62,-244.5 798.93,-214.09 730.81,-249.62 477.62,-208.5 469.2,-207.13 460.44,-205.34 451.8,-203.34"/>
<polygon fill="#63b8ff" stroke="#63b8ff" points="1088.71,-252.92 1099.14,-251.05 1089.82,-246.01 1088.71,-252.92"/>
</a>
</g>
</g>
</g>
</svg>
