<?xml version="1.0" encoding="UTF-8" standalone="no"?>
<!DOCTYPE svg PUBLIC "-//W3C//DTD SVG 1.1//EN"
 "http://www.w3.org/Graphics/SVG/1.1/DTD/svg11.dtd">
<!-- Generated by graphviz version 12.2.0 (20241103.1931)
 -->
<!-- Title: /Users/fola/Documents/ArkScript/Ark/include/Ark/Logger.hpp Pages: 1 -->
<!--zoomable 472 -->

<svg id="main" version="1.1" xmlns="http://www.w3.org/2000/svg" xmlns:xlink="http://www.w3.org/1999/xlink" xml:space="preserve" onload="init(evt)">

<style type="text/css"><![CDATA[
.node, .edge {opacity: 0.7;}
.node.selected, .edge.selected {opacity: 1;}
.edge:hover path { stroke: red; }
.edge:hover polygon { stroke: red; fill: red; }
]]></style>

<defs>
  <circle id="rim" cx="0" cy="0" r="7"/>
  <circle id="rim2" cx="0" cy="0" r="3.5"/>
  <g id="zoomPlus">
    <use xlink:href="#rim" fill="#404040"><set attributeName="fill" to="#808080" begin="zoomplus.mouseover" end="zoomplus.mouseout"/></use>
    <path d="M-4,0h8M0,-4v8" fill="none" stroke="white" stroke-width="1.5" pointer-events="none"/>
  </g>
  <g id="zoomMin">
    <use xlink:href="#rim" fill="#404040"><set attributeName="fill" to="#808080" begin="zoomminus.mouseover" end="zoomminus.mouseout"/></use>
    <path d="M-4,0h8" fill="none" stroke="white" stroke-width="1.5" pointer-events="none"/>
  </g>
  <g id="arrowUp" transform="translate(30 24)">
    <use xlink:href="#rim"/>
    <path pointer-events="none" fill="none" stroke="white" stroke-width="1.5" d="M0,-3.0v7 M-2.5,-0.5L0,-3.0L2.5,-0.5"/>
  </g>
  <g id="arrowRight" transform="rotate(90) translate(36 -43)">
    <use xlink:href="#rim"/>
    <path pointer-events="none" fill="none" stroke="white" stroke-width="1.5" d="M0,-3.0v7 M-2.5,-0.5L0,-3.0L2.5,-0.5"/>
  </g>
  <g id="arrowDown" transform="rotate(180) translate(-30 -48)">
    <use xlink:href="#rim"/>
    <path pointer-events="none" fill="none" stroke="white" stroke-width="1.5" d="M0,-3.0v7 M-2.5,-0.5L0,-3.0L2.5,-0.5"/>
  </g>
  <g id="arrowLeft" transform="rotate(270) translate(-36 17)">
    <use xlink:href="#rim"/>
    <path pointer-events="none" fill="none" stroke="white" stroke-width="1.5" d="M0,-3.0v7 M-2.5,-0.5L0,-3.0L2.5,-0.5"/>
  </g>
  <g id="resetDef">
    <use xlink:href="#rim2" fill="#404040"><set attributeName="fill" to="#808080" begin="reset.mouseover" end="reset.mouseout"/></use>
  </g>
</defs>
<script type="application/ecmascript">
var viewWidth = 2031;
var viewHeight = 472;
var sectionId = 'dynsection-1';
</script>
<script type="application/ecmascript" xlink:href="../../svg.min.js"/>
<svg id="graph" class="graph">
<g id="viewport">
<title>/Users/fola/Documents/ArkScript/Ark/include/Ark/Logger.hpp</title>
<!-- Node1 -->
<g id="Node000001" class="node">
<title>Node1</title>
<g id="a_Node000001"><a xlink:title="Internal logger.">
<polygon fill="#999999" stroke="#666666" points="583.62,-464.25 466.38,-464.25 466.38,-422.5 583.62,-422.5 583.62,-464.25"/>
<text text-anchor="start" x="474.38" y="-450.75" font-family="Helvetica,sans-Serif" font-size="10.00">/Users/fola/Documents</text>
<text text-anchor="start" x="474.38" y="-439.5" font-family="Helvetica,sans-Serif" font-size="10.00">/ArkScript/Ark/include</text>
<text text-anchor="middle" x="525" y="-428.25" font-family="Helvetica,sans-Serif" font-size="10.00">/Ark/Logger.hpp</text>
</a>
</g>
</g>
<!-- Node2 -->
<g id="Node000002" class="node">
<title>Node2</title>
<g id="a_Node000002"><a xlink:href="../../d7/ddd/Parser_8hpp.html" target="_top" xlink:title="Parse ArkScript code, but do not handle any import declarations.">
<polygon fill="white" stroke="#666666" points="148,-291.88 0,-291.88 0,-250.12 148,-250.12 148,-291.88"/>
<text text-anchor="start" x="8" y="-278.38" font-family="Helvetica,sans-Serif" font-size="10.00">/Users/fola/Documents</text>
<text text-anchor="start" x="8" y="-267.12" font-family="Helvetica,sans-Serif" font-size="10.00">/ArkScript/Ark/include</text>
<text text-anchor="middle" x="74" y="-255.88" font-family="Helvetica,sans-Serif" font-size="10.00">/Ark/Compiler/AST/Parser.hpp</text>
</a>
</g>
</g>
<!-- Node1&#45;&gt;Node2 -->
<g id="edge1_Node000001_Node000002" class="edge">
<title>Node1&#45;&gt;Node2</title>
<g id="a_edge1_Node000001_Node000002"><a xlink:title=" ">
<path fill="none" stroke="#63b8ff" d="M454.54,-437.75C363.3,-430.72 210.22,-415.02 162,-386.5 124.02,-364.04 96.67,-318.34 83.28,-291.98"/>
<polygon fill="#63b8ff" stroke="#63b8ff" points="454.15,-441.23 464.39,-438.49 454.68,-434.25 454.15,-441.23"/>
</a>
</g>
</g>
<!-- Node3 -->
<g id="Node000003" class="node">
<title>Node3</title>
<g id="a_Node000003"><a xlink:href="../../de/d8e/Welder_8hpp.html" target="_top" xlink:title="In charge of welding everything needed to compile code.">
<polygon fill="white" stroke="#666666" points="741.5,-202.88 614.5,-202.88 614.5,-161.12 741.5,-161.12 741.5,-202.88"/>
<text text-anchor="start" x="622.5" y="-189.38" font-family="Helvetica,sans-Serif" font-size="10.00">/Users/fola/Documents</text>
<text text-anchor="start" x="622.5" y="-178.12" font-family="Helvetica,sans-Serif" font-size="10.00">/ArkScript/Ark/include</text>
<text text-anchor="middle" x="678" y="-166.88" font-family="Helvetica,sans-Serif" font-size="10.00">/Ark/Compiler/Welder.hpp</text>
</a>
</g>
</g>
<!-- Node1&#45;&gt;Node3 -->
<g id="edge44_Node000001_Node000003" class="edge">
<title>Node1&#45;&gt;Node3</title>
<g id="a_edge44_Node000001_Node000003"><a xlink:title=" ">
<path fill="none" stroke="#63b8ff" d="M454.6,-440.06C371.47,-435.66 240.58,-422.99 210,-386.5 194.18,-367.63 206.67,-256.92 219,-244.5 271.12,-191.98 476.87,-219.74 550,-208.5 570.94,-205.28 593.66,-201.01 614.06,-196.89"/>
<polygon fill="#63b8ff" stroke="#63b8ff" points="454.33,-443.55 464.49,-440.55 454.68,-436.56 454.33,-443.55"/>
</a>
</g>
</g>
<!-- Node16 -->
<g id="Node000016" class="node">
<title>Node16</title>
<g id="a_Node000016"><a xlink:href="../../df/d86/IRCompiler_8hpp.html" target="_top" xlink:title="Compile the intermediate representation to bytecode.">
<polygon fill="white" stroke="#666666" points="624.5,-386.5 425.5,-386.5 425.5,-333.5 624.5,-333.5 624.5,-386.5"/>
<text text-anchor="start" x="433.5" y="-373" font-family="Helvetica,sans-Serif" font-size="10.00">/Users/fola/Documents</text>
<text text-anchor="start" x="433.5" y="-361.75" font-family="Helvetica,sans-Serif" font-size="10.00">/ArkScript/Ark/include</text>
<text text-anchor="start" x="433.5" y="-350.5" font-family="Helvetica,sans-Serif" font-size="10.00">/Ark/Compiler/IntermediateRepresentation</text>
<text text-anchor="middle" x="525" y="-339.25" font-family="Helvetica,sans-Serif" font-size="10.00">/IRCompiler.hpp</text>
</a>
</g>
</g>
<!-- Node1&#45;&gt;Node16 -->
<g id="edge16_Node000001_Node000016" class="edge">
<title>Node1&#45;&gt;Node16</title>
<g id="a_edge16_Node000001_Node000016"><a xlink:title=" ">
<path fill="none" stroke="#63b8ff" d="M525,-411.02C525,-402.99 525,-394.44 525,-386.73"/>
<polygon fill="#63b8ff" stroke="#63b8ff" points="521.5,-410.75 525,-420.75 528.5,-410.75 521.5,-410.75"/>
</a>
</g>
</g>
<!-- Node18 -->
<g id="Node000018" class="node">
<title>Node18</title>
<g id="a_Node000018"><a xlink:href="../../d0/de2/IROptimizer_8hpp.html" target="_top" xlink:title="Optimize IR based on IR entity grouped by 2 (or more)">
<polygon fill="white" stroke="#666666" points="841.5,-386.5 642.5,-386.5 642.5,-333.5 841.5,-333.5 841.5,-386.5"/>
<text text-anchor="start" x="650.5" y="-373" font-family="Helvetica,sans-Serif" font-size="10.00">/Users/fola/Documents</text>
<text text-anchor="start" x="650.5" y="-361.75" font-family="Helvetica,sans-Serif" font-size="10.00">/ArkScript/Ark/include</text>
<text text-anchor="start" x="650.5" y="-350.5" font-family="Helvetica,sans-Serif" font-size="10.00">/Ark/Compiler/IntermediateRepresentation</text>
<text text-anchor="middle" x="742" y="-339.25" font-family="Helvetica,sans-Serif" font-size="10.00">/IROptimizer.hpp</text>
</a>
</g>
</g>
<!-- Node1&#45;&gt;Node18 -->
<g id="edge19_Node000001_Node000018" class="edge">
<title>Node1&#45;&gt;Node18</title>
<g id="a_edge19_Node000001_Node000018"><a xlink:title=" ">
<path fill="none" stroke="#63b8ff" d="M589.78,-418.08C615.99,-408.25 646.28,-396.89 672.91,-386.91"/>
<polygon fill="#63b8ff" stroke="#63b8ff" points="588.75,-414.73 580.62,-421.52 591.21,-421.28 588.75,-414.73"/>
</a>
</g>
</g>
<!-- Node20 -->
<g id="Node000020" class="node">
<title>Node20</title>
<g id="a_Node000020"><a xlink:href="../../db/d08/ASTLowerer_8hpp.html" target="_top" xlink:title=" ">
<polygon fill="white" stroke="#666666" points="407.25,-380.88 218.75,-380.88 218.75,-339.12 407.25,-339.12 407.25,-380.88"/>
<text text-anchor="start" x="226.75" y="-367.38" font-family="Helvetica,sans-Serif" font-size="10.00">/Users/fola/Documents</text>
<text text-anchor="start" x="226.75" y="-356.12" font-family="Helvetica,sans-Serif" font-size="10.00">/ArkScript/Ark/include</text>
<text text-anchor="middle" x="313" y="-344.88" font-family="Helvetica,sans-Serif" font-size="10.00">/Ark/Compiler/Lowerer/ASTLowerer.hpp</text>
</a>
</g>
</g>
<!-- Node1&#45;&gt;Node20 -->
<g id="edge22_Node000001_Node000020" class="edge">
<title>Node1&#45;&gt;Node20</title>
<g id="a_edge22_Node000001_Node000020"><a xlink:title=" ">
<path fill="none" stroke="#63b8ff" d="M461.53,-418.01C431.07,-406.32 394.98,-392.47 366.01,-381.35"/>
<polygon fill="#63b8ff" stroke="#63b8ff" points="460.05,-421.19 470.64,-421.51 462.56,-414.66 460.05,-421.19"/>
</a>
</g>
</g>
<!-- Node22 -->
<g id="Node000022" class="node">
<title>Node22</title>
<g id="a_Node000022"><a xlink:href="../../df/d5f/Pass_8hpp.html" target="_top" xlink:title="Interface for a compiler pass (take in an AST, output an AST)">
<polygon fill="white" stroke="#666666" points="1221.12,-380.88 1100.88,-380.88 1100.88,-339.12 1221.12,-339.12 1221.12,-380.88"/>
<text text-anchor="start" x="1108.88" y="-367.38" font-family="Helvetica,sans-Serif" font-size="10.00">/Users/fola/Documents</text>
<text text-anchor="start" x="1108.88" y="-356.12" font-family="Helvetica,sans-Serif" font-size="10.00">/ArkScript/Ark/include</text>
<text text-anchor="middle" x="1161" y="-344.88" font-family="Helvetica,sans-Serif" font-size="10.00">/Ark/Compiler/Pass.hpp</text>
</a>
</g>
</g>
<!-- Node1&#45;&gt;Node22 -->
<g id="edge25_Node000001_Node000022" class="edge">
<title>Node1&#45;&gt;Node22</title>
<g id="a_edge25_Node000001_Node000022"><a xlink:title=" ">
<path fill="none" stroke="#63b8ff" d="M595.35,-433.37C721.15,-417.28 982.49,-383.84 1100.66,-368.72"/>
<polygon fill="#63b8ff" stroke="#63b8ff" points="594.95,-429.9 585.48,-434.64 595.84,-436.84 594.95,-429.9"/>
</a>
</g>
</g>
<!-- Node32 -->
<g id="Node000032" class="node">
<title>Node32</title>
<g id="a_Node000032"><a xlink:href="../../d9/df5/Logger_8cpp.html" target="_top" xlink:title=" ">
<polygon fill="white" stroke="#666666" points="1379.25,-380.88 1238.75,-380.88 1238.75,-339.12 1379.25,-339.12 1379.25,-380.88"/>
<text text-anchor="start" x="1246.75" y="-367.38" font-family="Helvetica,sans-Serif" font-size="10.00">/Users/fola/Documents</text>
<text text-anchor="start" x="1246.75" y="-356.12" font-family="Helvetica,sans-Serif" font-size="10.00">/ArkScript/Ark/src/arkreactor</text>
<text text-anchor="middle" x="1309" y="-344.88" font-family="Helvetica,sans-Serif" font-size="10.00">/Logger.cpp</text>
</a>
</g>
</g>
<!-- Node1&#45;&gt;Node32 -->
<g id="edge45_Node000001_Node000032" class="edge">
<title>Node1&#45;&gt;Node32</title>
<g id="a_edge45_Node000001_Node000032"><a xlink:title=" ">
<path fill="none" stroke="#63b8ff" d="M595.16,-442.2C722.76,-440.69 1000.8,-431.93 1230,-386.5 1236.93,-385.13 1244.1,-383.35 1251.16,-381.36"/>
<polygon fill="#63b8ff" stroke="#63b8ff" points="595.14,-438.7 585.17,-442.3 595.21,-445.7 595.14,-438.7"/>
</a>
</g>
</g>
<!-- Node2&#45;&gt;Node3 -->
<g id="edge2_Node000002_Node000003" class="edge">
<title>Node2&#45;&gt;Node3</title>
<g id="a_edge2_Node000002_Node000003"><a xlink:title=" ">
<path fill="none" stroke="#63b8ff" d="M149.86,-247.05C153.95,-246.11 158.01,-245.26 162,-244.5 332.16,-212.25 378.62,-233.45 550,-208.5 570.97,-205.45 593.69,-201.22 614.09,-197.09"/>
<polygon fill="#63b8ff" stroke="#63b8ff" points="149.39,-243.56 140.49,-249.31 151.04,-250.36 149.39,-243.56"/>
</a>
</g>
</g>
<!-- Node12 -->
<g id="Node000012" class="node">
<title>Node12</title>
<g id="a_Node000012"><a xlink:href="../../d9/d2e/Formatter_8hpp.html" target="_top" xlink:title=" ">
<polygon fill="white" stroke="#666666" points="132.62,-202.88 15.38,-202.88 15.38,-161.12 132.62,-161.12 132.62,-202.88"/>
<text text-anchor="start" x="23.38" y="-189.38" font-family="Helvetica,sans-Serif" font-size="10.00">/Users/fola/Documents</text>
<text text-anchor="start" x="23.38" y="-178.12" font-family="Helvetica,sans-Serif" font-size="10.00">/ArkScript/Ark/include</text>
<text text-anchor="middle" x="74" y="-166.88" font-family="Helvetica,sans-Serif" font-size="10.00">/CLI/Formatter.hpp</text>
</a>
</g>
</g>
<!-- Node2&#45;&gt;Node12 -->
<g id="edge11_Node000002_Node000012" class="edge">
<title>Node2&#45;&gt;Node12</title>
<g id="a_edge11_Node000002_Node000012"><a xlink:title=" ">
<path fill="none" stroke="#63b8ff" d="M74,-238.64C74,-226.9 74,-213.87 74,-203.37"/>
<polygon fill="#63b8ff" stroke="#63b8ff" points="70.5,-238.31 74,-248.31 77.5,-238.31 70.5,-238.31"/>
</a>
</g>
</g>
<!-- Node14 -->
<g id="Node000014" class="node">
<title>Node14</title>
<g id="a_Node000014"><a xlink:href="../../dc/df5/Parser_8cpp.html" target="_top" xlink:title=" ">
<polygon fill="white" stroke="#666666" points="291.25,-202.88 150.75,-202.88 150.75,-161.12 291.25,-161.12 291.25,-202.88"/>
<text text-anchor="start" x="158.75" y="-189.38" font-family="Helvetica,sans-Serif" font-size="10.00">/Users/fola/Documents</text>
<text text-anchor="start" x="158.75" y="-178.12" font-family="Helvetica,sans-Serif" font-size="10.00">/ArkScript/Ark/src/arkreactor</text>
<text text-anchor="middle" x="221" y="-166.88" font-family="Helvetica,sans-Serif" font-size="10.00">/Compiler/AST/Parser.cpp</text>
</a>
</g>
</g>
<!-- Node2&#45;&gt;Node14 -->
<g id="edge14_Node000002_Node000014" class="edge">
<title>Node2&#45;&gt;Node14</title>
<g id="a_edge14_Node000002_Node000014"><a xlink:title=" ">
<path fill="none" stroke="#63b8ff" d="M117.86,-244.04C139.84,-231.03 166.07,-215.51 186.58,-203.37"/>
<polygon fill="#63b8ff" stroke="#63b8ff" points="116.22,-240.95 109.4,-249.05 119.79,-246.97 116.22,-240.95"/>
</a>
</g>
</g>
<!-- Node15 -->
<g id="Node000015" class="node">
<title>Node15</title>
<g id="a_Node000015"><a xlink:href="../../d6/d41/ImportSolver_8cpp.html" target="_top" xlink:title=" ">
<polygon fill="white" stroke="#666666" points="540.88,-202.88 365.12,-202.88 365.12,-161.12 540.88,-161.12 540.88,-202.88"/>
<text text-anchor="start" x="373.12" y="-189.38" font-family="Helvetica,sans-Serif" font-size="10.00">/Users/fola/Documents</text>
<text text-anchor="start" x="373.12" y="-178.12" font-family="Helvetica,sans-Serif" font-size="10.00">/ArkScript/Ark/src/arkreactor</text>
<text text-anchor="middle" x="453" y="-166.88" font-family="Helvetica,sans-Serif" font-size="10.00">/Compiler/Package/ImportSolver.cpp</text>
</a>
</g>
</g>
<!-- Node2&#45;&gt;Node15 -->
<g id="edge15_Node000002_Node000015" class="edge">
<title>Node2&#45;&gt;Node15</title>
<g id="a_edge15_Node000002_Node000015"><a xlink:title=" ">
<path fill="none" stroke="#63b8ff" d="M153.06,-246.79C156.08,-246 159.06,-245.23 162,-244.5 229.63,-227.58 306.85,-211.4 364.75,-199.89"/>
<polygon fill="#63b8ff" stroke="#63b8ff" points="152.3,-243.37 143.55,-249.34 154.11,-250.13 152.3,-243.37"/>
</a>
</g>
</g>
<!-- Node4 -->
<g id="Node000004" class="node">
<title>Node4</title>
<g id="a_Node000004"><a xlink:href="../../d3/d7e/Ark_8hpp.html" target="_top" xlink:title="Includes the needed files to start using ArkScript.">
<polygon fill="white" stroke="#666666" points="662.62,-119.5 545.38,-119.5 545.38,-77.75 662.62,-77.75 662.62,-119.5"/>
<text text-anchor="start" x="553.38" y="-106" font-family="Helvetica,sans-Serif" font-size="10.00">/Users/fola/Documents</text>
<text text-anchor="start" x="553.38" y="-94.75" font-family="Helvetica,sans-Serif" font-size="10.00">/ArkScript/Ark/include</text>
<text text-anchor="middle" x="604" y="-83.5" font-family="Helvetica,sans-Serif" font-size="10.00">/Ark/Ark.hpp</text>
</a>
</g>
</g>
<!-- Node3&#45;&gt;Node4 -->
<g id="edge3_Node000003_Node000004" class="edge">
<title>Node3&#45;&gt;Node4</title>
<g id="a_edge3_Node000003_Node000004"><a xlink:title=" ">
<path fill="none" stroke="#63b8ff" d="M652.14,-152.56C642.31,-141.75 631.33,-129.68 622.34,-119.79"/>
<polygon fill="#63b8ff" stroke="#63b8ff" points="649.37,-154.72 658.69,-159.77 654.55,-150.01 649.37,-154.72"/>
</a>
</g>
</g>
<!-- Node7 -->
<g id="Node000007" class="node">
<title>Node7</title>
<g id="a_Node000007"><a xlink:href="../../dc/dfd/JsonCompiler_8hpp.html" target="_top" xlink:title=" ">
<polygon fill="white" stroke="#666666" points="386.62,-119.5 269.38,-119.5 269.38,-77.75 386.62,-77.75 386.62,-119.5"/>
<text text-anchor="start" x="277.38" y="-106" font-family="Helvetica,sans-Serif" font-size="10.00">/Users/fola/Documents</text>
<text text-anchor="start" x="277.38" y="-94.75" font-family="Helvetica,sans-Serif" font-size="10.00">/ArkScript/Ark/include</text>
<text text-anchor="middle" x="328" y="-83.5" font-family="Helvetica,sans-Serif" font-size="10.00">/CLI/JsonCompiler.hpp</text>
</a>
</g>
</g>
<!-- Node3&#45;&gt;Node7 -->
<g id="edge6_Node000003_Node000007" class="edge">
<title>Node3&#45;&gt;Node7</title>
<g id="a_edge6_Node000003_Node000007"><a xlink:title=" ">
<path fill="none" stroke="#63b8ff" d="M603.29,-163.63C538.67,-148.61 446.52,-127.18 386.98,-113.34"/>
<polygon fill="#63b8ff" stroke="#63b8ff" points="602.2,-166.97 612.74,-165.83 603.79,-160.15 602.2,-166.97"/>
</a>
</g>
</g>
<!-- Node10 -->
<g id="Node000010" class="node">
<title>Node10</title>
<g id="a_Node000010"><a xlink:href="../../d3/df1/Welder_8cpp.html" target="_top" xlink:title=" ">
<polygon fill="white" stroke="#666666" points="1269.25,-119.5 1128.75,-119.5 1128.75,-77.75 1269.25,-77.75 1269.25,-119.5"/>
<text text-anchor="start" x="1136.75" y="-106" font-family="Helvetica,sans-Serif" font-size="10.00">/Users/fola/Documents</text>
<text text-anchor="start" x="1136.75" y="-94.75" font-family="Helvetica,sans-Serif" font-size="10.00">/ArkScript/Ark/src/arkreactor</text>
<text text-anchor="middle" x="1199" y="-83.5" font-family="Helvetica,sans-Serif" font-size="10.00">/Compiler/Welder.cpp</text>
</a>
</g>
</g>
<!-- Node3&#45;&gt;Node10 -->
<g id="edge9_Node000003_Node000010" class="edge">
<title>Node3&#45;&gt;Node10</title>
<g id="a_edge9_Node000003_Node000010"><a xlink:title=" ">
<path fill="none" stroke="#63b8ff" d="M753.15,-169.26C853.58,-153.58 1030.25,-125.98 1128.35,-110.66"/>
<polygon fill="#63b8ff" stroke="#63b8ff" points="752.72,-165.79 743.38,-170.79 753.8,-172.7 752.72,-165.79"/>
</a>
</g>
</g>
<!-- Node11 -->
<g id="Node000011" class="node">
<title>Node11</title>
<g id="a_Node000011"><a xlink:href="../../d0/da0/State_8cpp.html" target="_top" xlink:title=" ">
<polygon fill="white" stroke="#666666" points="821.25,-119.5 680.75,-119.5 680.75,-77.75 821.25,-77.75 821.25,-119.5"/>
<text text-anchor="start" x="688.75" y="-106" font-family="Helvetica,sans-Serif" font-size="10.00">/Users/fola/Documents</text>
<text text-anchor="start" x="688.75" y="-94.75" font-family="Helvetica,sans-Serif" font-size="10.00">/ArkScript/Ark/src/arkreactor</text>
<text text-anchor="middle" x="751" y="-83.5" font-family="Helvetica,sans-Serif" font-size="10.00">/VM/State.cpp</text>
</a>
</g>
</g>
<!-- Node3&#45;&gt;Node11 -->
<g id="edge10_Node000003_Node000011" class="edge">
<title>Node3&#45;&gt;Node11</title>
<g id="a_edge10_Node000003_Node000011"><a xlink:title=" ">
<path fill="none" stroke="#63b8ff" d="M703.51,-152.56C713.21,-141.75 724.04,-129.68 732.91,-119.79"/>
<polygon fill="#63b8ff" stroke="#63b8ff" points="701.13,-149.98 697.06,-159.76 706.34,-154.65 701.13,-149.98"/>
</a>
</g>
</g>
<!-- Node5 -->
<g id="Node000005" class="node">
<title>Node5</title>
<g id="a_Node000005"><a xlink:href="../../d1/d95/arkemscripten_2main_8cpp.html" target="_top" xlink:title=" ">
<polygon fill="white" stroke="#666666" points="762.25,-41.75 603.75,-41.75 603.75,0 762.25,0 762.25,-41.75"/>
<text text-anchor="start" x="611.75" y="-28.25" font-family="Helvetica,sans-Serif" font-size="10.00">/Users/fola/Documents</text>
<text text-anchor="start" x="611.75" y="-17" font-family="Helvetica,sans-Serif" font-size="10.00">/ArkScript/Ark/src/arkemscripten</text>
<text text-anchor="middle" x="683" y="-5.75" font-family="Helvetica,sans-Serif" font-size="10.00">/main.cpp</text>
</a>
</g>
</g>
<!-- Node4&#45;&gt;Node5 -->
<g id="edge4_Node000004_Node000005" class="edge">
<title>Node4&#45;&gt;Node5</title>
<g id="a_edge4_Node000004_Node000005"><a xlink:title=" ">
<path fill="none" stroke="#63b8ff" d="M633.21,-69.61C642.68,-60.53 653,-50.64 661.77,-42.23"/>
<polygon fill="#63b8ff" stroke="#63b8ff" points="631.06,-66.83 626.26,-76.28 635.9,-71.88 631.06,-66.83"/>
</a>
</g>
</g>
<!-- Node6 -->
<g id="Node000006" class="node">
<title>Node6</title>
<g id="a_Node000006"><a xlink:href="../../dc/d32/Ark_8cpp.html" target="_top" xlink:title=" ">
<polygon fill="white" stroke="#666666" points="585.25,-41.75 444.75,-41.75 444.75,0 585.25,0 585.25,-41.75"/>
<text text-anchor="start" x="452.75" y="-28.25" font-family="Helvetica,sans-Serif" font-size="10.00">/Users/fola/Documents</text>
<text text-anchor="start" x="452.75" y="-17" font-family="Helvetica,sans-Serif" font-size="10.00">/ArkScript/Ark/src/arkreactor</text>
<text text-anchor="middle" x="515" y="-5.75" font-family="Helvetica,sans-Serif" font-size="10.00">/Ark.cpp</text>
</a>
</g>
</g>
<!-- Node4&#45;&gt;Node6 -->
<g id="edge5_Node000004_Node000006" class="edge">
<title>Node4&#45;&gt;Node6</title>
<g id="a_edge5_Node000004_Node000006"><a xlink:title=" ">
<path fill="none" stroke="#63b8ff" d="M571.41,-69.89C560.66,-60.73 548.9,-50.73 538.92,-42.23"/>
<polygon fill="#63b8ff" stroke="#63b8ff" points="569.11,-72.53 579,-76.34 573.65,-67.2 569.11,-72.53"/>
</a>
</g>
</g>
<!-- Node8 -->
<g id="Node000008" class="node">
<title>Node8</title>
<g id="a_Node000008"><a xlink:href="../../db/d71/JsonCompiler_8cpp.html" target="_top" xlink:title=" ">
<polygon fill="white" stroke="#666666" points="395.25,-41.75 260.75,-41.75 260.75,0 395.25,0 395.25,-41.75"/>
<text text-anchor="start" x="268.75" y="-28.25" font-family="Helvetica,sans-Serif" font-size="10.00">/Users/fola/Documents</text>
<text text-anchor="start" x="268.75" y="-17" font-family="Helvetica,sans-Serif" font-size="10.00">/ArkScript/Ark/src/arkscript</text>
<text text-anchor="middle" x="328" y="-5.75" font-family="Helvetica,sans-Serif" font-size="10.00">/JsonCompiler.cpp</text>
</a>
</g>
</g>
<!-- Node7&#45;&gt;Node8 -->
<g id="edge7_Node000007_Node000008" class="edge">
<title>Node7&#45;&gt;Node8</title>
<g id="a_edge7_Node000007_Node000008"><a xlink:title=" ">
<path fill="none" stroke="#63b8ff" d="M328,-66C328,-57.96 328,-49.54 328,-42.23"/>
<polygon fill="#63b8ff" stroke="#63b8ff" points="324.5,-65.81 328,-75.81 331.5,-65.81 324.5,-65.81"/>
</a>
</g>
</g>
<!-- Node9 -->
<g id="Node000009" class="node">
<title>Node9</title>
<g id="a_Node000009"><a xlink:href="../../d0/d46/arkscript_2main_8cpp.html" target="_top" xlink:title=" ">
<polygon fill="white" stroke="#666666" points="199.25,-41.75 64.75,-41.75 64.75,0 199.25,0 199.25,-41.75"/>
<text text-anchor="start" x="72.75" y="-28.25" font-family="Helvetica,sans-Serif" font-size="10.00">/Users/fola/Documents</text>
<text text-anchor="start" x="72.75" y="-17" font-family="Helvetica,sans-Serif" font-size="10.00">/ArkScript/Ark/src/arkscript</text>
<text text-anchor="middle" x="132" y="-5.75" font-family="Helvetica,sans-Serif" font-size="10.00">/main.cpp</text>
</a>
</g>
</g>
<!-- Node7&#45;&gt;Node9 -->
<g id="edge8_Node000007_Node000009" class="edge">
<title>Node7&#45;&gt;Node9</title>
<g id="a_edge8_Node000007_Node000009"><a xlink:title=" ">
<path fill="none" stroke="#63b8ff" d="M265,-73.28C239.08,-63.26 209.41,-51.79 184.67,-42.23"/>
<polygon fill="#63b8ff" stroke="#63b8ff" points="263.47,-76.44 274.06,-76.78 266,-69.91 263.47,-76.44"/>
</a>
</g>
</g>
<!-- Node12&#45;&gt;Node9 -->
<g id="edge13_Node000012_Node000009" class="edge">
<title>Node12&#45;&gt;Node9</title>
<g id="a_edge13_Node000012_Node000009"><a xlink:title=" ">
<path fill="none" stroke="#63b8ff" d="M76.27,-149.7C78.62,-128.7 83.38,-100.77 93,-77.75 98.33,-64.98 106.94,-52.21 114.71,-42.11"/>
<polygon fill="#63b8ff" stroke="#63b8ff" points="72.81,-149.07 75.32,-159.37 79.78,-149.76 72.81,-149.07"/>
</a>
</g>
</g>
<!-- Node13 -->
<g id="Node000013" class="node">
<title>Node13</title>
<g id="a_Node000013"><a xlink:href="../../d2/d56/Formatter_8cpp.html" target="_top" xlink:title=" ">
<polygon fill="white" stroke="#666666" points="236.25,-119.5 101.75,-119.5 101.75,-77.75 236.25,-77.75 236.25,-119.5"/>
<text text-anchor="start" x="109.75" y="-106" font-family="Helvetica,sans-Serif" font-size="10.00">/Users/fola/Documents</text>
<text text-anchor="start" x="109.75" y="-94.75" font-family="Helvetica,sans-Serif" font-size="10.00">/ArkScript/Ark/src/arkscript</text>
<text text-anchor="middle" x="169" y="-83.5" font-family="Helvetica,sans-Serif" font-size="10.00">/Formatter.cpp</text>
</a>
</g>
</g>
<!-- Node12&#45;&gt;Node13 -->
<g id="edge12_Node000012_Node000013" class="edge">
<title>Node12&#45;&gt;Node13</title>
<g id="a_edge12_Node000012_Node000013"><a xlink:title=" ">
<path fill="none" stroke="#63b8ff" d="M106.08,-153.52C118.98,-142.47 133.57,-129.97 145.46,-119.79"/>
<polygon fill="#63b8ff" stroke="#63b8ff" points="103.95,-150.74 98.63,-159.9 108.5,-156.05 103.95,-150.74"/>
</a>
</g>
</g>
<!-- Node16&#45;&gt;Node3 -->
<g id="edge17_Node000016_Node000003" class="edge">
<title>Node16&#45;&gt;Node3</title>
<g id="a_edge17_Node000016_Node000003"><a xlink:title=" ">
<path fill="none" stroke="#63b8ff" d="M479.39,-325.28C471.5,-317.13 464.42,-307.77 460,-297.5 450.69,-275.86 445.78,-263.28 460,-244.5 469.55,-231.88 553.31,-210.81 614.16,-196.91"/>
<polygon fill="#63b8ff" stroke="#63b8ff" points="476.74,-327.59 486.38,-331.97 481.57,-322.53 476.74,-327.59"/>
</a>
</g>
</g>
<!-- Node17 -->
<g id="Node000017" class="node">
<title>Node17</title>
<g id="a_Node000017"><a xlink:href="../../d1/dfa/IRCompiler_8cpp.html" target="_top" xlink:title=" ">
<polygon fill="white" stroke="#666666" points="649.5,-297.5 468.5,-297.5 468.5,-244.5 649.5,-244.5 649.5,-297.5"/>
<text text-anchor="start" x="476.5" y="-284" font-family="Helvetica,sans-Serif" font-size="10.00">/Users/fola/Documents</text>
<text text-anchor="start" x="476.5" y="-272.75" font-family="Helvetica,sans-Serif" font-size="10.00">/ArkScript/Ark/src/arkreactor</text>
<text text-anchor="start" x="476.5" y="-261.5" font-family="Helvetica,sans-Serif" font-size="10.00">/Compiler/IntermediateRepresentation</text>
<text text-anchor="middle" x="559" y="-250.25" font-family="Helvetica,sans-Serif" font-size="10.00">/IRCompiler.cpp</text>
</a>
</g>
</g>
<!-- Node16&#45;&gt;Node17 -->
<g id="edge18_Node000016_Node000017" class="edge">
<title>Node16&#45;&gt;Node17</title>
<g id="a_edge18_Node000016_Node000017"><a xlink:title=" ">
<path fill="none" stroke="#63b8ff" d="M539.19,-322.68C542.47,-314.3 545.88,-305.57 548.94,-297.75"/>
<polygon fill="#63b8ff" stroke="#63b8ff" points="535.95,-321.37 535.57,-331.96 542.47,-323.92 535.95,-321.37"/>
</a>
</g>
</g>
<!-- Node18&#45;&gt;Node3 -->
<g id="edge20_Node000018_Node000003" class="edge">
<title>Node18&#45;&gt;Node3</title>
<g id="a_edge20_Node000018_Node000003"><a xlink:title=" ">
<path fill="none" stroke="#63b8ff" d="M712.77,-323.78C707.12,-315.56 701.79,-306.55 698,-297.5 684.89,-266.23 680.38,-226.69 678.82,-203.2"/>
<polygon fill="#63b8ff" stroke="#63b8ff" points="709.88,-325.75 718.58,-331.79 715.54,-321.64 709.88,-325.75"/>
</a>
</g>
</g>
<!-- Node19 -->
<g id="Node000019" class="node">
<title>Node19</title>
<g id="a_Node000019"><a xlink:href="../../d0/da9/IROptimizer_8cpp.html" target="_top" xlink:title=" ">
<polygon fill="white" stroke="#666666" points="887.5,-297.5 706.5,-297.5 706.5,-244.5 887.5,-244.5 887.5,-297.5"/>
<text text-anchor="start" x="714.5" y="-284" font-family="Helvetica,sans-Serif" font-size="10.00">/Users/fola/Documents</text>
<text text-anchor="start" x="714.5" y="-272.75" font-family="Helvetica,sans-Serif" font-size="10.00">/ArkScript/Ark/src/arkreactor</text>
<text text-anchor="start" x="714.5" y="-261.5" font-family="Helvetica,sans-Serif" font-size="10.00">/Compiler/IntermediateRepresentation</text>
<text text-anchor="middle" x="797" y="-250.25" font-family="Helvetica,sans-Serif" font-size="10.00">/IROptimizer.cpp</text>
</a>
</g>
</g>
<!-- Node18&#45;&gt;Node19 -->
<g id="edge21_Node000018_Node000019" class="edge">
<title>Node18&#45;&gt;Node19</title>
<g id="a_edge21_Node000018_Node000019"><a xlink:title=" ">
<path fill="none" stroke="#63b8ff" d="M764.25,-323.8C769.76,-315.09 775.56,-305.92 780.72,-297.75"/>
<polygon fill="#63b8ff" stroke="#63b8ff" points="761.4,-321.77 759.01,-332.09 767.32,-325.51 761.4,-321.77"/>
</a>
</g>
</g>
<!-- Node20&#45;&gt;Node3 -->
<g id="edge23_Node000020_Node000003" class="edge">
<title>Node20&#45;&gt;Node3</title>
<g id="a_edge23_Node000020_Node000003"><a xlink:title=" ">
<path fill="none" stroke="#63b8ff" d="M263.52,-332.06C251.3,-322.83 239.79,-311.28 233,-297.5 222.59,-276.37 217.31,-262.07 233,-244.5 280.22,-191.62 479.95,-219.44 550,-208.5 570.93,-205.23 593.65,-200.95 614.05,-196.83"/>
<polygon fill="#63b8ff" stroke="#63b8ff" points="261.49,-334.92 271.69,-337.8 265.52,-329.19 261.49,-334.92"/>
</a>
</g>
</g>
<!-- Node21 -->
<g id="Node000021" class="node">
<title>Node21</title>
<g id="a_Node000021"><a xlink:href="../../d2/d5e/ASTLowerer_8cpp.html" target="_top" xlink:title=" ">
<polygon fill="white" stroke="#666666" points="412.25,-291.88 241.75,-291.88 241.75,-250.12 412.25,-250.12 412.25,-291.88"/>
<text text-anchor="start" x="249.75" y="-278.38" font-family="Helvetica,sans-Serif" font-size="10.00">/Users/fola/Documents</text>
<text text-anchor="start" x="249.75" y="-267.12" font-family="Helvetica,sans-Serif" font-size="10.00">/ArkScript/Ark/src/arkreactor</text>
<text text-anchor="middle" x="327" y="-255.88" font-family="Helvetica,sans-Serif" font-size="10.00">/Compiler/Lowerer/ASTLowerer.cpp</text>
</a>
</g>
</g>
<!-- Node20&#45;&gt;Node21 -->
<g id="edge24_Node000020_Node000021" class="edge">
<title>Node20&#45;&gt;Node21</title>
<g id="a_edge24_Node000020_Node000021"><a xlink:title=" ">
<path fill="none" stroke="#63b8ff" d="M318.05,-327.64C319.94,-315.9 322.03,-302.87 323.72,-292.37"/>
<polygon fill="#63b8ff" stroke="#63b8ff" points="314.62,-326.9 316.49,-337.33 321.53,-328.01 314.62,-326.9"/>
</a>
</g>
</g>
<!-- Node23 -->
<g id="Node000023" class="node">
<title>Node23</title>
<g id="a_Node000023"><a xlink:href="../../db/d93/Optimizer_8hpp.html" target="_top" xlink:title="Optimizes a given ArkScript AST.">
<polygon fill="white" stroke="#666666" points="1437.75,-291.88 1276.25,-291.88 1276.25,-250.12 1437.75,-250.12 1437.75,-291.88"/>
<text text-anchor="start" x="1284.25" y="-278.38" font-family="Helvetica,sans-Serif" font-size="10.00">/Users/fola/Documents</text>
<text text-anchor="start" x="1284.25" y="-267.12" font-family="Helvetica,sans-Serif" font-size="10.00">/ArkScript/Ark/include</text>
<text text-anchor="middle" x="1357" y="-255.88" font-family="Helvetica,sans-Serif" font-size="10.00">/Ark/Compiler/AST/Optimizer.hpp</text>
</a>
</g>
</g>
<!-- Node22&#45;&gt;Node23 -->
<g id="edge26_Node000022_Node000023" class="edge">
<title>Node22&#45;&gt;Node23</title>
<g id="a_edge26_Node000022_Node000023"><a xlink:title=" ">
<path fill="none" stroke="#63b8ff" d="M1216.72,-334.27C1246.58,-321.01 1282.9,-304.89 1311.11,-292.37"/>
<polygon fill="#63b8ff" stroke="#63b8ff" points="1215.56,-330.95 1207.84,-338.21 1218.4,-337.35 1215.56,-330.95"/>
</a>
</g>
</g>
<!-- Node25 -->
<g id="Node000025" class="node">
<title>Node25</title>
<g id="a_Node000025"><a xlink:href="../../de/db1/Processor_8hpp.html" target="_top" xlink:title="Handles the macros and their expansion in ArkScript source code.">
<polygon fill="white" stroke="#666666" points="1632.25,-291.88 1455.75,-291.88 1455.75,-250.12 1632.25,-250.12 1632.25,-291.88"/>
<text text-anchor="start" x="1463.75" y="-278.38" font-family="Helvetica,sans-Serif" font-size="10.00">/Users/fola/Documents</text>
<text text-anchor="start" x="1463.75" y="-267.12" font-family="Helvetica,sans-Serif" font-size="10.00">/ArkScript/Ark/include</text>
<text text-anchor="middle" x="1544" y="-255.88" font-family="Helvetica,sans-Serif" font-size="10.00">/Ark/Compiler/Macros/Processor.hpp</text>
</a>
</g>
</g>
<!-- Node22&#45;&gt;Node25 -->
<g id="edge30_Node000022_Node000025" class="edge">
<title>Node22&#45;&gt;Node25</title>
<g id="a_edge30_Node000022_Node000025"><a xlink:title=" ">
<path fill="none" stroke="#63b8ff" d="M1223.55,-335.31C1225.71,-334.67 1227.87,-334.06 1230,-333.5 1324.5,-308.44 1351.4,-317.95 1447,-297.5 1454.32,-295.93 1461.92,-294.17 1469.5,-292.33"/>
<polygon fill="#63b8ff" stroke="#63b8ff" points="1222.6,-331.93 1214.1,-338.26 1224.69,-338.62 1222.6,-331.93"/>
</a>
</g>
</g>
<!-- Node28 -->
<g id="Node000028" class="node">
<title>Node28</title>
<g id="a_Node000028"><a xlink:href="../../d4/de8/NameResolutionPass_8hpp.html" target="_top" xlink:title="Resolves names and fully qualify them in the AST (prefixing them with the package they are from)">
<polygon fill="white" stroke="#666666" points="1831.88,-297.5 1680.12,-297.5 1680.12,-244.5 1831.88,-244.5 1831.88,-297.5"/>
<text text-anchor="start" x="1688.12" y="-284" font-family="Helvetica,sans-Serif" font-size="10.00">/Users/fola/Documents</text>
<text text-anchor="start" x="1688.12" y="-272.75" font-family="Helvetica,sans-Serif" font-size="10.00">/ArkScript/Ark/include</text>
<text text-anchor="start" x="1688.12" y="-261.5" font-family="Helvetica,sans-Serif" font-size="10.00">/Ark/Compiler/NameResolution</text>
<text text-anchor="middle" x="1756" y="-250.25" font-family="Helvetica,sans-Serif" font-size="10.00">/NameResolutionPass.hpp</text>
</a>
</g>
</g>
<!-- Node22&#45;&gt;Node28 -->
<g id="edge35_Node000022_Node000028" class="edge">
<title>Node22&#45;&gt;Node28</title>
<g id="a_edge35_Node000022_Node000028"><a xlink:title=" ">
<path fill="none" stroke="#63b8ff" d="M1222.19,-335.44C1224.81,-334.73 1227.42,-334.08 1230,-333.5 1408.92,-293.36 1459.77,-325.41 1641,-297.5 1653.63,-295.55 1666.95,-293.04 1679.87,-290.35"/>
<polygon fill="#63b8ff" stroke="#63b8ff" points="1221.45,-332.01 1212.86,-338.2 1223.44,-338.72 1221.45,-332.01"/>
</a>
</g>
</g>
<!-- Node30 -->
<g id="Node000030" class="node">
<title>Node30</title>
<g id="a_Node000030"><a xlink:href="../../d1/db0/ImportSolver_8hpp.html" target="_top" xlink:title="Handle imports, resolve them with modules and everything.">
<polygon fill="white" stroke="#666666" points="1257.88,-291.88 1064.12,-291.88 1064.12,-250.12 1257.88,-250.12 1257.88,-291.88"/>
<text text-anchor="start" x="1072.12" y="-278.38" font-family="Helvetica,sans-Serif" font-size="10.00">/Users/fola/Documents</text>
<text text-anchor="start" x="1072.12" y="-267.12" font-family="Helvetica,sans-Serif" font-size="10.00">/ArkScript/Ark/include</text>
<text text-anchor="middle" x="1161" y="-255.88" font-family="Helvetica,sans-Serif" font-size="10.00">/Ark/Compiler/Package/ImportSolver.hpp</text>
</a>
</g>
</g>
<!-- Node22&#45;&gt;Node30 -->
<g id="edge39_Node000022_Node000030" class="edge">
<title>Node22&#45;&gt;Node30</title>
<g id="a_edge39_Node000022_Node000030"><a xlink:title=" ">
<path fill="none" stroke="#63b8ff" d="M1161,-327.64C1161,-315.9 1161,-302.87 1161,-292.37"/>
<polygon fill="#63b8ff" stroke="#63b8ff" points="1157.5,-327.31 1161,-337.31 1164.5,-327.31 1157.5,-327.31"/>
</a>
</g>
</g>
<!-- Node31 -->
<g id="Node000031" class="node">
<title>Node31</title>
<g id="a_Node000031"><a xlink:href="../../d8/d54/Pass_8cpp.html" target="_top" xlink:title=" ">
<polygon fill="white" stroke="#666666" points="1046.25,-291.88 905.75,-291.88 905.75,-250.12 1046.25,-250.12 1046.25,-291.88"/>
<text text-anchor="start" x="913.75" y="-278.38" font-family="Helvetica,sans-Serif" font-size="10.00">/Users/fola/Documents</text>
<text text-anchor="start" x="913.75" y="-267.12" font-family="Helvetica,sans-Serif" font-size="10.00">/ArkScript/Ark/src/arkreactor</text>
<text text-anchor="middle" x="976" y="-255.88" font-family="Helvetica,sans-Serif" font-size="10.00">/Compiler/Pass.cpp</text>
</a>
</g>
</g>
<!-- Node22&#45;&gt;Node31 -->
<g id="edge43_Node000022_Node000031" class="edge">
<title>Node22&#45;&gt;Node31</title>
<g id="a_edge43_Node000022_Node000031"><a xlink:title=" ">
<path fill="none" stroke="#63b8ff" d="M1108.03,-334.09C1079.93,-320.87 1045.82,-304.84 1019.32,-292.37"/>
<polygon fill="#63b8ff" stroke="#63b8ff" points="1106.18,-337.09 1116.72,-338.18 1109.16,-330.75 1106.18,-337.09"/>
</a>
</g>
</g>
<!-- Node23&#45;&gt;Node3 -->
<g id="edge27_Node000023_Node000003" class="edge">
<title>Node23&#45;&gt;Node3</title>
<g id="a_edge27_Node000023_Node000003"><a xlink:title=" ">
<path fill="none" stroke="#63b8ff" d="M1279.13,-247.05C1275.04,-246.13 1270.98,-245.27 1267,-244.5 1077.95,-208.13 850.34,-192.06 741.72,-186.05"/>
<polygon fill="#63b8ff" stroke="#63b8ff" points="1277.96,-250.37 1288.5,-249.29 1279.59,-243.56 1277.96,-250.37"/>
</a>
</g>
</g>
<!-- Node23&#45;&gt;Node10 -->
<g id="edge29_Node000023_Node000010" class="edge">
<title>Node23&#45;&gt;Node10</title>
<g id="a_edge29_Node000023_Node000010"><a xlink:title=" ">
<path fill="none" stroke="#63b8ff" d="M1285.71,-245.56C1256.51,-234.16 1227.37,-220.49 1218,-208.5 1198.03,-182.95 1196.15,-143.69 1197.17,-119.95"/>
<polygon fill="#63b8ff" stroke="#63b8ff" points="1284.43,-248.82 1295.02,-249.11 1286.92,-242.28 1284.43,-248.82"/>
</a>
</g>
</g>
<!-- Node24 -->
<g id="Node000024" class="node">
<title>Node24</title>
<g id="a_Node000024"><a xlink:href="../../d2/dc5/Optimizer_8cpp.html" target="_top" xlink:title=" ">
<polygon fill="white" stroke="#666666" points="1370.75,-202.88 1227.25,-202.88 1227.25,-161.12 1370.75,-161.12 1370.75,-202.88"/>
<text text-anchor="start" x="1235.25" y="-189.38" font-family="Helvetica,sans-Serif" font-size="10.00">/Users/fola/Documents</text>
<text text-anchor="start" x="1235.25" y="-178.12" font-family="Helvetica,sans-Serif" font-size="10.00">/ArkScript/Ark/src/arkreactor</text>
<text text-anchor="middle" x="1299" y="-166.88" font-family="Helvetica,sans-Serif" font-size="10.00">/Compiler/AST/Optimizer.cpp</text>
</a>
</g>
</g>
<!-- Node23&#45;&gt;Node24 -->
<g id="edge28_Node000023_Node000024" class="edge">
<title>Node23&#45;&gt;Node24</title>
<g id="a_edge28_Node000023_Node000024"><a xlink:title=" ">
<path fill="none" stroke="#63b8ff" d="M1337.31,-240.47C1329.18,-228.26 1319.94,-214.41 1312.58,-203.37"/>
<polygon fill="#63b8ff" stroke="#63b8ff" points="1334.25,-242.18 1342.71,-248.56 1340.07,-238.3 1334.25,-242.18"/>
</a>
</g>
</g>
<!-- Node25&#45;&gt;Node3 -->
<g id="edge31_Node000025_Node000003" class="edge">
<title>Node25&#45;&gt;Node3</title>
<g id="a_edge31_Node000025_Node000003"><a xlink:title=" ">
<path fill="none" stroke="#63b8ff" d="M1461.14,-247.18C1456.37,-246.19 1451.63,-245.29 1447,-244.5 1187.88,-200.44 874.12,-187.79 741.77,-184.29"/>
<polygon fill="#63b8ff" stroke="#63b8ff" points="1460.27,-250.58 1470.79,-249.3 1461.78,-243.74 1460.27,-250.58"/>
</a>
</g>
</g>
<!-- Node25&#45;&gt;Node10 -->
<g id="edge34_Node000025_Node000010" class="edge">
<title>Node25&#45;&gt;Node10</title>
<g id="a_edge34_Node000025_Node000010"><a xlink:title=" ">
<path fill="none" stroke="#63b8ff" d="M1477.27,-244.92C1456.96,-235.39 1435.42,-223.21 1418,-208.5 1395.86,-189.8 1403.52,-172.44 1380,-155.5 1347.57,-132.15 1305.16,-118.38 1269.54,-110.35"/>
<polygon fill="#63b8ff" stroke="#63b8ff" points="1475.82,-248.11 1486.38,-249.04 1478.71,-241.73 1475.82,-248.11"/>
</a>
</g>
</g>
<!-- Node26 -->
<g id="Node000026" class="node">
<title>Node26</title>
<g id="a_Node000026"><a xlink:href="../../d1/da9/Executor_8cpp.html" target="_top" xlink:title=" ">
<polygon fill="white" stroke="#666666" points="1580.62,-202.88 1427.38,-202.88 1427.38,-161.12 1580.62,-161.12 1580.62,-202.88"/>
<text text-anchor="start" x="1435.38" y="-189.38" font-family="Helvetica,sans-Serif" font-size="10.00">/Users/fola/Documents</text>
<text text-anchor="start" x="1435.38" y="-178.12" font-family="Helvetica,sans-Serif" font-size="10.00">/ArkScript/Ark/src/arkreactor</text>
<text text-anchor="middle" x="1504" y="-166.88" font-family="Helvetica,sans-Serif" font-size="10.00">/Compiler/Macros/Executor.cpp</text>
</a>
</g>
</g>
<!-- Node25&#45;&gt;Node26 -->
<g id="edge32_Node000025_Node000026" class="edge">
<title>Node25&#45;&gt;Node26</title>
<g id="a_edge32_Node000025_Node000026"><a xlink:title=" ">
<path fill="none" stroke="#63b8ff" d="M1529.92,-239.38C1524.43,-227.44 1518.29,-214.09 1513.37,-203.37"/>
<polygon fill="#63b8ff" stroke="#63b8ff" points="1526.73,-240.82 1534.09,-248.45 1533.09,-237.9 1526.73,-240.82"/>
</a>
</g>
</g>
<!-- Node27 -->
<g id="Node000027" class="node">
<title>Node27</title>
<g id="a_Node000027"><a xlink:href="../../d6/d69/Processor_8cpp.html" target="_top" xlink:title=" ">
<polygon fill="white" stroke="#666666" points="1757.25,-202.88 1598.75,-202.88 1598.75,-161.12 1757.25,-161.12 1757.25,-202.88"/>
<text text-anchor="start" x="1606.75" y="-189.38" font-family="Helvetica,sans-Serif" font-size="10.00">/Users/fola/Documents</text>
<text text-anchor="start" x="1606.75" y="-178.12" font-family="Helvetica,sans-Serif" font-size="10.00">/ArkScript/Ark/src/arkreactor</text>
<text text-anchor="middle" x="1678" y="-166.88" font-family="Helvetica,sans-Serif" font-size="10.00">/Compiler/Macros/Processor.cpp</text>
</a>
</g>
</g>
<!-- Node25&#45;&gt;Node27 -->
<g id="edge33_Node000025_Node000027" class="edge">
<title>Node25&#45;&gt;Node27</title>
<g id="a_edge33_Node000025_Node000027"><a xlink:title=" ">
<path fill="none" stroke="#63b8ff" d="M1584.52,-243.69C1604.45,-230.75 1628.1,-215.4 1646.63,-203.37"/>
<polygon fill="#63b8ff" stroke="#63b8ff" points="1582.83,-240.62 1576.35,-249 1586.64,-246.49 1582.83,-240.62"/>
</a>
</g>
</g>
<!-- Node28&#45;&gt;Node3 -->
<g id="edge36_Node000028_Node000003" class="edge">
<title>Node28&#45;&gt;Node3</title>
<g id="a_edge36_Node000028_Node000003"><a xlink:title=" ">
<path fill="none" stroke="#63b8ff" d="M1668.62,-249.15C1659.33,-247.38 1650,-245.78 1641,-244.5 1466.43,-219.72 927.84,-194.11 741.9,-185.79"/>
<polygon fill="#63b8ff" stroke="#63b8ff" points="1667.93,-252.58 1678.42,-251.1 1669.3,-245.72 1667.93,-252.58"/>
</a>
</g>
</g>
<!-- Node28&#45;&gt;Node10 -->
<g id="edge38_Node000028_Node000010" class="edge">
<title>Node28&#45;&gt;Node10</title>
<g id="a_edge38_Node000028_Node000010"><a xlink:title=" ">
<path fill="none" stroke="#63b8ff" d="M1771.81,-233.66C1779.99,-208.62 1784.79,-176.24 1766,-155.5 1733.24,-119.36 1414.35,-105.74 1269.7,-101.39"/>
<polygon fill="#63b8ff" stroke="#63b8ff" points="1768.61,-232.21 1768.53,-242.81 1775.2,-234.58 1768.61,-232.21"/>
</a>
</g>
</g>
<!-- Node29 -->
<g id="Node000029" class="node">
<title>Node29</title>
<g id="a_Node000029"><a xlink:href="../../de/dd7/NameResolutionPass_8cpp.html" target="_top" xlink:title=" ">
<polygon fill="white" stroke="#666666" points="2022.75,-208.5 1813.25,-208.5 1813.25,-155.5 2022.75,-155.5 2022.75,-208.5"/>
<text text-anchor="start" x="1821.25" y="-195" font-family="Helvetica,sans-Serif" font-size="10.00">/Users/fola/Documents</text>
<text text-anchor="start" x="1821.25" y="-183.75" font-family="Helvetica,sans-Serif" font-size="10.00">/ArkScript/Ark/src/arkreactor</text>
<text text-anchor="start" x="1821.25" y="-172.5" font-family="Helvetica,sans-Serif" font-size="10.00">/Compiler/NameResolution/NameResolution</text>
<text text-anchor="middle" x="1918" y="-161.25" font-family="Helvetica,sans-Serif" font-size="10.00">Pass.cpp</text>
</a>
</g>
</g>
<!-- Node28&#45;&gt;Node29 -->
<g id="edge37_Node000028_Node000029" class="edge">
<title>Node28&#45;&gt;Node29</title>
<g id="a_edge37_Node000028_Node000029"><a xlink:title=" ">
<path fill="none" stroke="#63b8ff" d="M1814.1,-238.8C1832.34,-229 1852.26,-218.3 1869.74,-208.92"/>
<polygon fill="#63b8ff" stroke="#63b8ff" points="1812.65,-235.6 1805.5,-243.42 1815.97,-241.77 1812.65,-235.6"/>
</a>
</g>
</g>
<!-- Node30&#45;&gt;Node3 -->
<g id="edge40_Node000030_Node000003" class="edge">
<title>Node30&#45;&gt;Node3</title>
<g id="a_edge40_Node000030_Node000003"><a xlink:title=" ">
<path fill="none" stroke="#63b8ff" d="M1068,-247.21C1063.61,-246.27 1059.26,-245.36 1055,-244.5 945.62,-222.45 817.17,-202.82 741.97,-191.95"/>
<polygon fill="#63b8ff" stroke="#63b8ff" points="1066.96,-250.57 1077.48,-249.3 1068.47,-243.73 1066.96,-250.57"/>
</a>
</g>
</g>
<!-- Node30&#45;&gt;Node10 -->
<g id="edge42_Node000030_Node000010" class="edge">
<title>Node30&#45;&gt;Node10</title>
<g id="a_edge42_Node000030_Node000010"><a xlink:title=" ">
<path fill="none" stroke="#63b8ff" d="M1167.26,-238.51C1171.92,-215.47 1178.56,-183.48 1185,-155.5 1187.73,-143.61 1191.04,-130.36 1193.76,-119.75"/>
<polygon fill="#63b8ff" stroke="#63b8ff" points="1163.85,-237.7 1165.31,-248.19 1170.71,-239.08 1163.85,-237.7"/>
</a>
</g>
</g>
<!-- Node30&#45;&gt;Node15 -->
<g id="edge41_Node000030_Node000015" class="edge">
<title>Node30&#45;&gt;Node15</title>
<g id="a_edge41_Node000030_Node000015"><a xlink:title=" ">
<path fill="none" stroke="#63b8ff" d="M1071.27,-247.39C1065.78,-246.33 1060.33,-245.35 1055,-244.5 857.3,-212.99 804.69,-232.98 606,-208.5 584.89,-205.9 562.23,-202.47 541,-198.98"/>
<polygon fill="#63b8ff" stroke="#63b8ff" points="1070.57,-250.82 1081.07,-249.38 1071.97,-243.96 1070.57,-250.82"/>
</a>
</g>
</g>
</g>
</svg>

<g id="navigator" transform="translate(0 0)" fill="#404254">
  <rect fill="#f2f5e9" fill-opacity="0.5" stroke="#606060" stroke-width=".5" x="0" y="0" width="60" height="60"/>
  <use id="zoomplus" xlink:href="#zoomPlus" x="17" y="9" onmousedown="handleZoom(evt,'in')"/>
  <use id="zoomminus" xlink:href="#zoomMin" x="42" y="9" onmousedown="handleZoom(evt,'out')"/>
  <use id="reset" xlink:href="#resetDef" x="30" y="36" onmousedown="handleReset()"/>
   <use id="arrowup" xlink:href="#arrowUp" x="0" y="0" onmousedown="handlePan(0,-1)"/>
  <use id="arrowright" xlink:href="#arrowRight" x="0" y="0" onmousedown="handlePan(1,0)"/>
  <use id="arrowdown" xlink:href="#arrowDown" x="0" y="0" onmousedown="handlePan(0,1)"/>
  <use id="arrowleft" xlink:href="#arrowLeft" x="0" y="0" onmousedown="handlePan(-1,0)"/>
</g>
<svg viewBox="0 0 15 15" width="100%" height="30px" preserveAspectRatio="xMaxYMin meet">
 <g id="arrow_out" transform="scale(0.3 0.3)">
  <a xlink:href="Logger_8hpp__dep__incl_org.svg" target="_base">
   <rect id="button" ry="5" rx="5" y="6" x="6" height="38" width="38"
        fill="#f2f5e9" fill-opacity="0.5" stroke="#606060" stroke-width="1.0"/>
   <path id="arrow"
     d="M 11.500037,31.436501 C 11.940474,20.09759 22.043105,11.32322 32.158766,21.979434 L 37.068811,17.246167 C 37.068811,17.246167 37.088388,32 37.088388,32 L 22.160133,31.978069 C 22.160133,31.978069 26.997745,27.140456 26.997745,27.140456 C 18.528582,18.264221 13.291696,25.230495 11.500037,31.436501 z"
     style="fill:#404040;"/>
  </a>
 </g>
</svg>

<style type='text/css'>
<![CDATA[
[data-mouse-over-selected='false'] { opacity: 0.7; }
[data-mouse-over-selected='true']  { opacity: 1.0; }
]]>
</style>
<script type="application/ecmascript"><![CDATA[
document.addEventListener('DOMContentLoaded', (event) => {
  highlightEdges();
  highlightAdjacentNodes();
});
]]></script>
</svg>
