<?xml version="1.0" encoding="UTF-8" standalone="no"?>
<!DOCTYPE svg PUBLIC "-//W3C//DTD SVG 1.1//EN"
 "http://www.w3.org/Graphics/SVG/1.1/DTD/svg11.dtd">
<!-- Generated by graphviz version 12.2.0 (20241103.1931)
 -->
<!-- Title: Ark::internal::IsEither Pages: 1 -->
<svg width="124pt" height="239pt"
 viewBox="0.00 0.00 123.75 239.00" xmlns="http://www.w3.org/2000/svg" xmlns:xlink="http://www.w3.org/1999/xlink">

<svg id="main" version="1.1" xmlns="http://www.w3.org/2000/svg" xmlns:xlink="http://www.w3.org/1999/xlink" xml:space="preserve">

<style type="text/css"><![CDATA[
.node, .edge {opacity: 0.7;}
.node.selected, .edge.selected {opacity: 1;}
.edge:hover path { stroke: red; }
.edge:hover polygon { stroke: red; fill: red; }
]]></style>
<script type="application/ecmascript" xlink:href="../../svg.min.js"/>
<svg id="graph" class="graph">
<g id="graph0" class="graph" transform="scale(1 1) rotate(0) translate(4 235)">
<title>Ark::internal::IsEither</title>
<!-- Node1 -->
<g id="Node000001" class="node">
<title>Node1</title>
<g id="a_Node000001"><a xlink:title=" ">
<polygon fill="#999999" stroke="#666666" points="112,-19.25 3.75,-19.25 3.75,0 112,0 112,-19.25"/>
<text text-anchor="middle" x="57.88" y="-5.75" font-family="Helvetica,sans-Serif" font-size="10.00">Ark::internal::IsEither</text>
</a>
</g>
</g>
<!-- Node2 -->
<g id="Node000002" class="node">
<title>Node2</title>
<g id="a_Node000002"><a xlink:href="../../d0/d86/structArk_1_1internal_1_1CharPred.html" target="_top" xlink:title=" ">
<polygon fill="white" stroke="#666666" points="115.75,-97 0,-97 0,-77.75 115.75,-77.75 115.75,-97"/>
<text text-anchor="middle" x="57.88" y="-83.5" font-family="Helvetica,sans-Serif" font-size="10.00">Ark::internal::CharPred</text>
</a>
</g>
</g>
<!-- Node2&#45;&gt;Node1 -->
<g id="edge1_Node000001_Node000002" class="edge">
<title>Node2&#45;&gt;Node1</title>
<g id="a_edge1_Node000001_Node000002"><a xlink:title=" ">
<path fill="none" stroke="#63b8ff" d="M56.19,-66.03C56.06,-63.91 55.95,-61.79 55.88,-59.75 55.5,-49.76 55.5,-47.24 55.88,-37.25 56.1,-31.32 56.6,-24.66 57.04,-19.49"/>
<polygon fill="#63b8ff" stroke="#63b8ff" points="52.7,-66.29 56.93,-76 59.68,-65.77 52.7,-66.29"/>
</a>
</g>
</g>
<!-- Node2&#45;&gt;Node1 -->
<g id="edge4_Node000001_Node000002" class="edge">
<title>Node2&#45;&gt;Node1</title>
<g id="a_edge4_Node000001_Node000002"><a xlink:title=" ">
<path fill="none" stroke="#9a32cd" stroke-dasharray="5,2" d="M57.88,-66.1C57.88,-50.95 57.88,-30.98 57.88,-19.6"/>
<polygon fill="#9a32cd" stroke="#9a32cd" points="54.38,-65.87 57.88,-75.87 61.38,-65.87 54.38,-65.87"/>
</a>
</g>
<text text-anchor="middle" x="68.75" y="-50.25" font-family="Helvetica,sans-Serif" font-size="10.00" fill="grey"> m_a</text>
<text text-anchor="middle" x="68.75" y="-39" font-family="Helvetica,sans-Serif" font-size="10.00" fill="grey">m_b</text>
</g>
<!-- Node3 -->
<g id="Node000003" class="node">
<title>Node3</title>
<g id="a_Node000003"><a xlink:title=" ">
<polygon fill="white" stroke="#666666" points="87.62,-163.5 28.12,-163.5 28.12,-144.25 87.62,-144.25 87.62,-163.5"/>
<text text-anchor="middle" x="57.88" y="-150" font-family="Helvetica,sans-Serif" font-size="10.00">std::string</text>
</a>
</g>
</g>
<!-- Node3&#45;&gt;Node2 -->
<g id="edge2_Node000002_Node000003" class="edge">
<title>Node3&#45;&gt;Node2</title>
<g id="a_edge2_Node000002_Node000003"><a xlink:title=" ">
<path fill="none" stroke="#9a32cd" stroke-dasharray="5,2" d="M57.88,-132.4C57.88,-120.57 57.88,-106.29 57.88,-97.27"/>
<polygon fill="#9a32cd" stroke="#9a32cd" points="54.38,-132.39 57.88,-142.39 61.38,-132.39 54.38,-132.39"/>
</a>
</g>
<text text-anchor="middle" x="71.38" y="-116.75" font-family="Helvetica,sans-Serif" font-size="10.00" fill="grey"> name</text>
</g>
<!-- Node4 -->
<g id="Node000004" class="node">
<title>Node4</title>
<g id="a_Node000004"><a xlink:title=" ">
<polygon fill="white" stroke="#666666" points="104.88,-231 10.87,-231 10.87,-200.5 104.88,-200.5 104.88,-231"/>
<text text-anchor="start" x="18.88" y="-217.5" font-family="Helvetica,sans-Serif" font-size="10.00">std::basic_string&lt;</text>
<text text-anchor="middle" x="57.88" y="-206.25" font-family="Helvetica,sans-Serif" font-size="10.00"> Char &gt;</text>
</a>
</g>
</g>
<!-- Node4&#45;&gt;Node3 -->
<g id="edge3_Node000003_Node000004" class="edge">
<title>Node4&#45;&gt;Node3</title>
<g id="a_edge3_Node000003_Node000004"><a xlink:title=" ">
<path fill="none" stroke="#63b8ff" d="M57.88,-189.02C57.88,-180.04 57.88,-170.54 57.88,-163.85"/>
<polygon fill="#63b8ff" stroke="#63b8ff" points="54.38,-188.74 57.88,-198.74 61.38,-188.74 54.38,-188.74"/>
</a>
</g>
</g>
</g>
</svg>
</svg>

<style type='text/css'>
<![CDATA[
[data-mouse-over-selected='false'] { opacity: 0.7; }
[data-mouse-over-selected='true']  { opacity: 1.0; }
]]>
</style>
<script type="application/ecmascript"><![CDATA[
document.addEventListener('DOMContentLoaded', (event) => {
  highlightEdges();
  highlightAdjacentNodes();
});
]]></script>
</svg>
