<?xml version="1.0" encoding="UTF-8" standalone="no"?>
<!DOCTYPE svg PUBLIC "-//W3C//DTD SVG 1.1//EN"
 "http://www.w3.org/Graphics/SVG/1.1/DTD/svg11.dtd">
<!-- Generated by graphviz version 12.2.0 (20241103.1931)
 -->
<!-- Title: /Users/fola/Documents/ArkScript/Ark/include/CLI/Formatter.hpp Pages: 1 -->
<svg width="2164pt" height="337pt"
 viewBox="0.00 0.00 2163.62 337.25" xmlns="http://www.w3.org/2000/svg" xmlns:xlink="http://www.w3.org/1999/xlink">
<g id="graph0" class="graph" transform="scale(1 1) rotate(0) translate(4 333.25)">
<title>/Users/fola/Documents/ArkScript/Ark/include/CLI/Formatter.hpp</title>
<!-- Node1 -->
<g id="Node000001" class="node">
<title>Node1</title>
<g id="a_Node000001"><a xlink:title=" ">
<polygon fill="#999999" stroke="#666666" points="376.62,-329.25 259.38,-329.25 259.38,-287.5 376.62,-287.5 376.62,-329.25"/>
<text text-anchor="start" x="267.38" y="-315.75" font-family="Helvetica,sans-Serif" font-size="10.00">/Users/fola/Documents</text>
<text text-anchor="start" x="267.38" y="-304.5" font-family="Helvetica,sans-Serif" font-size="10.00">/ArkScript/Ark/include</text>
<text text-anchor="middle" x="318" y="-293.25" font-family="Helvetica,sans-Serif" font-size="10.00">/CLI/Formatter.hpp</text>
</a>
</g>
</g>
<!-- Node2 -->
<g id="Node000002" class="node">
<title>Node2</title>
<g id="a_Node000002"><a xlink:title=" ">
<polygon fill="#e0e0e0" stroke="#999999" points="653,-19.25 613,-19.25 613,0 653,0 653,-19.25"/>
<text text-anchor="middle" x="633" y="-5.75" font-family="Helvetica,sans-Serif" font-size="10.00">string</text>
</a>
</g>
</g>
<!-- Node1&#45;&gt;Node2 -->
<g id="edge1_Node000001_Node000002" class="edge">
<title>Node1&#45;&gt;Node2</title>
<g id="a_edge1_Node000001_Node000002"><a xlink:title=" ">
<path fill="none" stroke="#63b8ff" d="M258.93,-297.58C166.97,-280.64 0,-242.34 0,-187.62 0,-187.62 0,-187.62 0,-130.38 0,-87.92 21.57,-75.28 59,-55.25 106.94,-29.6 488,-15.32 601.32,-11.61"/>
<polygon fill="#63b8ff" stroke="#63b8ff" points="601.22,-15.11 611.1,-11.29 600.99,-8.11 601.22,-15.11"/>
</a>
</g>
</g>
<!-- Node3 -->
<g id="Node000003" class="node">
<title>Node3</title>
<g id="a_Node000003"><a xlink:href="../../d7/ddd/Parser_8hpp.html" target="_top" xlink:title="Parse ArkScript code, but do not handle any import declarations.">
<polygon fill="white" stroke="#666666" points="758.5,-251.5 613.5,-251.5 613.5,-232.25 758.5,-232.25 758.5,-251.5"/>
<text text-anchor="middle" x="686" y="-238" font-family="Helvetica,sans-Serif" font-size="10.00">Ark/Compiler/AST/Parser.hpp</text>
</a>
</g>
</g>
<!-- Node1&#45;&gt;Node3 -->
<g id="edge2_Node000001_Node000003" class="edge">
<title>Node1&#45;&gt;Node3</title>
<g id="a_edge2_Node000001_Node000003"><a xlink:title=" ">
<path fill="none" stroke="#63b8ff" d="M376.72,-297.08C444,-285.29 553.83,-266.04 622.89,-253.94"/>
<polygon fill="#63b8ff" stroke="#63b8ff" points="623.3,-257.42 632.54,-252.24 622.09,-250.52 623.3,-257.42"/>
</a>
</g>
</g>
<!-- Node3&#45;&gt;Node2 -->
<g id="edge66_Node000003_Node000002" class="edge">
<title>Node3&#45;&gt;Node2</title>
<g id="a_edge66_Node000003_Node000002"><a xlink:title=" ">
<path fill="none" stroke="#63b8ff" d="M613.15,-241.42C461.7,-240.75 121.56,-229.23 57,-141 32.67,-107.75 65.33,-76.73 102,-55.25 145.09,-30.01 493.27,-15.6 601.21,-11.71"/>
<polygon fill="#63b8ff" stroke="#63b8ff" points="601.21,-15.21 611.08,-11.36 600.96,-8.21 601.21,-15.21"/>
</a>
</g>
</g>
<!-- Node4 -->
<g id="Node000004" class="node">
<title>Node4</title>
<g id="a_Node000004"><a xlink:href="../../d3/d70/BaseParser_8hpp.html" target="_top" xlink:title=" ">
<polygon fill="white" stroke="#666666" points="1092.75,-196.25 925.25,-196.25 925.25,-177 1092.75,-177 1092.75,-196.25"/>
<text text-anchor="middle" x="1009" y="-182.75" font-family="Helvetica,sans-Serif" font-size="10.00">Ark/Compiler/AST/BaseParser.hpp</text>
</a>
</g>
</g>
<!-- Node3&#45;&gt;Node4 -->
<g id="edge3_Node000003_Node000004" class="edge">
<title>Node3&#45;&gt;Node4</title>
<g id="a_edge3_Node000003_Node000004"><a xlink:title=" ">
<path fill="none" stroke="#63b8ff" d="M741.16,-231.78C796.93,-222.59 883.17,-208.37 942.65,-198.56"/>
<polygon fill="#63b8ff" stroke="#63b8ff" points="943.01,-202.05 952.31,-196.97 941.87,-195.15 943.01,-202.05"/>
</a>
</g>
</g>
<!-- Node5 -->
<g id="Node000005" class="node">
<title>Node5</title>
<g id="a_Node000005"><a xlink:title=" ">
<polygon fill="#e0e0e0" stroke="#999999" points="761.5,-80.12 718.5,-80.12 718.5,-60.88 761.5,-60.88 761.5,-80.12"/>
<text text-anchor="middle" x="740" y="-66.62" font-family="Helvetica,sans-Serif" font-size="10.00">vector</text>
</a>
</g>
</g>
<!-- Node3&#45;&gt;Node5 -->
<g id="edge67_Node000003_Node000005" class="edge">
<title>Node3&#45;&gt;Node5</title>
<g id="a_edge67_Node000003_Node000005"><a xlink:title=" ">
<path fill="none" stroke="#63b8ff" d="M692.89,-232.05C699.46,-223.32 709.33,-209.4 716,-196.25 727.82,-172.96 730.75,-166.58 736,-141 739.35,-124.68 740.25,-105.79 740.37,-91.83"/>
<polygon fill="#63b8ff" stroke="#63b8ff" points="743.87,-92.1 740.32,-82.12 736.87,-92.14 743.87,-92.1"/>
</a>
</g>
</g>
<!-- Node7 -->
<g id="Node000007" class="node">
<title>Node7</title>
<g id="a_Node000007"><a xlink:href="../../d5/d40/Platform_8hpp.html" target="_top" xlink:title="ArkScript configuration macros.">
<polygon fill="white" stroke="#666666" points="451.75,-80.12 362.25,-80.12 362.25,-60.88 451.75,-60.88 451.75,-80.12"/>
<text text-anchor="middle" x="407" y="-66.62" font-family="Helvetica,sans-Serif" font-size="10.00">Ark/Platform.hpp</text>
</a>
</g>
</g>
<!-- Node3&#45;&gt;Node7 -->
<g id="edge65_Node000003_Node000007" class="edge">
<title>Node3&#45;&gt;Node7</title>
<g id="a_edge65_Node000003_Node000007"><a xlink:title=" ">
<path fill="none" stroke="#63b8ff" d="M613.05,-239.65C541.3,-234.06 435.18,-213.14 383,-141 371.82,-125.54 381.88,-104.43 392.19,-89.55"/>
<polygon fill="#63b8ff" stroke="#63b8ff" points="394.96,-91.68 398.19,-81.59 389.38,-87.46 394.96,-91.68"/>
</a>
</g>
</g>
<!-- Node11 -->
<g id="Node000011" class="node">
<title>Node11</title>
<g id="a_Node000011"><a xlink:title=" ">
<polygon fill="#e0e0e0" stroke="#999999" points="898.88,-80.12 849.12,-80.12 849.12,-60.88 898.88,-60.88 898.88,-80.12"/>
<text text-anchor="middle" x="874" y="-66.62" font-family="Helvetica,sans-Serif" font-size="10.00">optional</text>
</a>
</g>
</g>
<!-- Node3&#45;&gt;Node11 -->
<g id="edge68_Node000003_Node000011" class="edge">
<title>Node3&#45;&gt;Node11</title>
<g id="a_edge68_Node000003_Node000011"><a xlink:title=" ">
<path fill="none" stroke="#63b8ff" d="M758.75,-231.95C783.99,-225.6 810.76,-214.76 830,-196.25 859.29,-168.07 869.11,-119.23 872.38,-91.77"/>
<polygon fill="#63b8ff" stroke="#63b8ff" points="875.85,-92.3 873.35,-82 868.88,-91.61 875.85,-92.3"/>
</a>
</g>
</g>
<!-- Node19 -->
<g id="Node000019" class="node">
<title>Node19</title>
<g id="a_Node000019"><a xlink:href="../../d7/dc6/Node_8hpp.html" target="_top" xlink:title="AST node used by the parser, optimizer and compiler.">
<polygon fill="white" stroke="#666666" points="707.25,-196.25 566.75,-196.25 566.75,-177 707.25,-177 707.25,-196.25"/>
<text text-anchor="middle" x="637" y="-182.75" font-family="Helvetica,sans-Serif" font-size="10.00">Ark/Compiler/AST/Node.hpp</text>
</a>
</g>
</g>
<!-- Node3&#45;&gt;Node19 -->
<g id="edge26_Node000003_Node000019" class="edge">
<title>Node3&#45;&gt;Node19</title>
<g id="a_edge26_Node000003_Node000019"><a xlink:title=" ">
<path fill="none" stroke="#63b8ff" d="M677.91,-232.08C671.14,-224.73 661.28,-214.01 652.94,-204.94"/>
<polygon fill="#63b8ff" stroke="#63b8ff" points="655.64,-202.71 646.29,-197.72 650.49,-207.45 655.64,-202.71"/>
</a>
</g>
</g>
<!-- Node28 -->
<g id="Node000028" class="node">
<title>Node28</title>
<g id="a_Node000028"><a xlink:href="../../d4/d32/Import_8hpp.html" target="_top" xlink:title=" ">
<polygon fill="white" stroke="#666666" points="211.5,-141 66.5,-141 66.5,-121.75 211.5,-121.75 211.5,-141"/>
<text text-anchor="middle" x="139" y="-127.5" font-family="Helvetica,sans-Serif" font-size="10.00">Ark/Compiler/AST/Import.hpp</text>
</a>
</g>
</g>
<!-- Node3&#45;&gt;Node28 -->
<g id="edge45_Node000003_Node000028" class="edge">
<title>Node3&#45;&gt;Node28</title>
<g id="a_edge45_Node000003_Node000028"><a xlink:title=" ">
<path fill="none" stroke="#63b8ff" d="M613.15,-238.85C533.02,-235.19 401.02,-224.95 291,-196.25 245.36,-184.35 195.51,-161.31 165.77,-146.39"/>
<polygon fill="#63b8ff" stroke="#63b8ff" points="167.61,-143.41 157.11,-141.99 164.44,-149.65 167.61,-143.41"/>
</a>
</g>
</g>
<!-- Node30 -->
<g id="Node000030" class="node">
<title>Node30</title>
<g id="a_Node000030"><a xlink:href="../../d9/d11/Logger_8hpp.html" target="_top" xlink:title="Internal logger.">
<polygon fill="white" stroke="#666666" points="1820.62,-141 1739.38,-141 1739.38,-121.75 1820.62,-121.75 1820.62,-141"/>
<text text-anchor="middle" x="1780" y="-127.5" font-family="Helvetica,sans-Serif" font-size="10.00">Ark/Logger.hpp</text>
</a>
</g>
</g>
<!-- Node3&#45;&gt;Node30 -->
<g id="edge50_Node000003_Node000030" class="edge">
<title>Node3&#45;&gt;Node30</title>
<g id="a_edge50_Node000003_Node000030"><a xlink:title=" ">
<path fill="none" stroke="#63b8ff" d="M758.89,-239.67C972.65,-235.86 1588.27,-222.68 1675,-196.25 1707.62,-186.31 1740.44,-163.88 1760.5,-148.43"/>
<polygon fill="#63b8ff" stroke="#63b8ff" points="1762.4,-151.39 1768.07,-142.44 1758.06,-145.9 1762.4,-151.39"/>
</a>
</g>
</g>
<!-- Node36 -->
<g id="Node000036" class="node">
<title>Node36</title>
<g id="a_Node000036"><a xlink:href="../../d4/dcb/Ark_2Utils_8hpp.html" target="_top" xlink:title="Lots of utilities about string, filesystem and more.">
<polygon fill="white" stroke="#666666" points="302.5,-141 229.5,-141 229.5,-121.75 302.5,-121.75 302.5,-141"/>
<text text-anchor="middle" x="266" y="-127.5" font-family="Helvetica,sans-Serif" font-size="10.00">Ark/Utils.hpp</text>
</a>
</g>
</g>
<!-- Node3&#45;&gt;Node36 -->
<g id="edge59_Node000003_Node000036" class="edge">
<title>Node3&#45;&gt;Node36</title>
<g id="a_edge59_Node000003_Node000036"><a xlink:title=" ">
<path fill="none" stroke="#63b8ff" d="M613.36,-238.56C520.64,-234.5 366.31,-223.75 317,-196.25 298.45,-185.91 284.16,-165.82 275.49,-150.93"/>
<polygon fill="#63b8ff" stroke="#63b8ff" points="278.77,-149.64 270.91,-142.54 272.63,-152.99 278.77,-149.64"/>
</a>
</g>
</g>
<!-- Node39 -->
<g id="Node000039" class="node">
<title>Node39</title>
<g id="a_Node000039"><a xlink:title=" ">
<polygon fill="#e0e0e0" stroke="#999999" points="821,-196.25 763,-196.25 763,-177 821,-177 821,-196.25"/>
<text text-anchor="middle" x="792" y="-182.75" font-family="Helvetica,sans-Serif" font-size="10.00">functional</text>
</a>
</g>
</g>
<!-- Node3&#45;&gt;Node39 -->
<g id="edge69_Node000003_Node000039" class="edge">
<title>Node3&#45;&gt;Node39</title>
<g id="a_edge69_Node000003_Node000039"><a xlink:title=" ">
<path fill="none" stroke="#63b8ff" d="M703.98,-231.84C720.35,-223.62 744.79,-211.34 763.76,-201.81"/>
<polygon fill="#63b8ff" stroke="#63b8ff" points="765.21,-205 772.58,-197.38 762.07,-198.74 765.21,-205"/>
</a>
</g>
</g>
<!-- Node40 -->
<g id="Node000040" class="node">
<title>Node40</title>
<g id="a_Node000040"><a xlink:href="../../d1/d85/utf8_8hpp.html" target="_top" xlink:title=" ">
<polygon fill="white" stroke="#666666" points="1665.62,-196.25 1614.38,-196.25 1614.38,-177 1665.62,-177 1665.62,-196.25"/>
<text text-anchor="middle" x="1640" y="-182.75" font-family="Helvetica,sans-Serif" font-size="10.00">utf8.hpp</text>
</a>
</g>
</g>
<!-- Node3&#45;&gt;Node40 -->
<g id="edge70_Node000003_Node000040" class="edge">
<title>Node3&#45;&gt;Node40</title>
<g id="a_edge70_Node000003_Node000040"><a xlink:title=" ">
<path fill="none" stroke="#63b8ff" d="M758.88,-236.81C949.97,-226.14 1460.51,-197.64 1602.76,-189.7"/>
<polygon fill="#63b8ff" stroke="#63b8ff" points="1602.94,-193.2 1612.73,-189.15 1602.55,-186.21 1602.94,-193.2"/>
</a>
</g>
</g>
<!-- Node4&#45;&gt;Node2 -->
<g id="edge4_Node000004_Node000002" class="edge">
<title>Node4&#45;&gt;Node2</title>
<g id="a_edge4_Node000004_Node000002"><a xlink:title=" ">
<path fill="none" stroke="#63b8ff" d="M1062.01,-176.53C1082.43,-170.15 1103.78,-159.34 1116,-141 1136.13,-110.79 1107.02,-73.23 1080,-55.25 1011.87,-9.92 755.06,-8.92 664.7,-10.03"/>
<polygon fill="#63b8ff" stroke="#63b8ff" points="664.79,-6.53 654.84,-10.17 664.89,-13.53 664.79,-6.53"/>
</a>
</g>
</g>
<!-- Node4&#45;&gt;Node5 -->
<g id="edge5_Node000004_Node000005" class="edge">
<title>Node4&#45;&gt;Node5</title>
<g id="a_edge5_Node000004_Node000005"><a xlink:title=" ">
<path fill="none" stroke="#63b8ff" d="M986.44,-176.62C943.86,-159.52 848.85,-120.93 770,-85.75 769.65,-85.6 769.31,-85.44 768.96,-85.28"/>
<polygon fill="#63b8ff" stroke="#63b8ff" points="770.58,-82.18 760.03,-81.17 767.65,-88.53 770.58,-82.18"/>
</a>
</g>
</g>
<!-- Node6 -->
<g id="Node000006" class="node">
<title>Node6</title>
<g id="a_Node000006"><a xlink:title=" ">
<polygon fill="#e0e0e0" stroke="#999999" points="987.12,-141 914.88,-141 914.88,-121.75 987.12,-121.75 987.12,-141"/>
<text text-anchor="middle" x="951" y="-127.5" font-family="Helvetica,sans-Serif" font-size="10.00">initializer_list</text>
</a>
</g>
</g>
<!-- Node4&#45;&gt;Node6 -->
<g id="edge6_Node000004_Node000006" class="edge">
<title>Node4&#45;&gt;Node6</title>
<g id="a_edge6_Node000004_Node000006"><a xlink:title=" ">
<path fill="none" stroke="#63b8ff" d="M999.16,-176.59C990.95,-169.05 979.02,-158.1 969.09,-148.98"/>
<polygon fill="#63b8ff" stroke="#63b8ff" points="971.54,-146.48 961.81,-142.3 966.81,-151.64 971.54,-146.48"/>
</a>
</g>
</g>
<!-- Node4&#45;&gt;Node7 -->
<g id="edge7_Node000004_Node000007" class="edge">
<title>Node4&#45;&gt;Node7</title>
<g id="a_edge7_Node000004_Node000007"><a xlink:title=" ">
<path fill="none" stroke="#63b8ff" d="M924.8,-181.72C767.91,-174.11 444.92,-156.62 426,-141 411.69,-129.19 407.59,-107.73 406.66,-91.77"/>
<polygon fill="#63b8ff" stroke="#63b8ff" points="410.17,-91.89 406.5,-81.95 403.17,-92.01 410.17,-91.89"/>
</a>
</g>
</g>
<!-- Node8 -->
<g id="Node000008" class="node">
<title>Node8</title>
<g id="a_Node000008"><a xlink:href="../../d2/de9/Exceptions_8hpp.html" target="_top" xlink:title="ArkScript homemade exceptions.">
<polygon fill="white" stroke="#666666" points="1106.75,-141 1005.25,-141 1005.25,-121.75 1106.75,-121.75 1106.75,-141"/>
<text text-anchor="middle" x="1056" y="-127.5" font-family="Helvetica,sans-Serif" font-size="10.00">Ark/Exceptions.hpp</text>
</a>
</g>
</g>
<!-- Node4&#45;&gt;Node8 -->
<g id="edge8_Node000004_Node000008" class="edge">
<title>Node4&#45;&gt;Node8</title>
<g id="a_edge8_Node000004_Node000008"><a xlink:title=" ">
<path fill="none" stroke="#63b8ff" d="M1016.76,-176.83C1023.19,-169.55 1032.51,-158.98 1040.46,-149.98"/>
<polygon fill="#63b8ff" stroke="#63b8ff" points="1043.08,-152.31 1047.07,-142.49 1037.83,-147.68 1043.08,-152.31"/>
</a>
</g>
</g>
<!-- Node14 -->
<g id="Node000014" class="node">
<title>Node14</title>
<g id="a_Node000014"><a xlink:href="../../db/d4e/utf8__char_8hpp.html" target="_top" xlink:title=" ">
<polygon fill="white" stroke="#666666" points="1280.5,-85.75 1165.5,-85.75 1165.5,-55.25 1280.5,-55.25 1280.5,-85.75"/>
<text text-anchor="start" x="1173.5" y="-72.25" font-family="Helvetica,sans-Serif" font-size="10.00">Ark/Compiler/AST/utf8</text>
<text text-anchor="middle" x="1223" y="-61" font-family="Helvetica,sans-Serif" font-size="10.00">_char.hpp</text>
</a>
</g>
</g>
<!-- Node4&#45;&gt;Node14 -->
<g id="edge25_Node000004_Node000014" class="edge">
<title>Node4&#45;&gt;Node14</title>
<g id="a_edge25_Node000004_Node000014"><a xlink:title=" ">
<path fill="none" stroke="#63b8ff" d="M1092.98,-186.2C1179.21,-184.78 1305.06,-176.45 1336,-141 1355.9,-118.2 1325.6,-100.49 1291.39,-88.66"/>
<polygon fill="#63b8ff" stroke="#63b8ff" points="1292.73,-85.42 1282.14,-85.65 1290.56,-92.07 1292.73,-85.42"/>
</a>
</g>
</g>
<!-- Node17 -->
<g id="Node000017" class="node">
<title>Node17</title>
<g id="a_Node000017"><a xlink:href="../../dc/d59/Predicates_8hpp.html" target="_top" xlink:title=" ">
<polygon fill="white" stroke="#666666" points="1326.88,-141 1163.12,-141 1163.12,-121.75 1326.88,-121.75 1326.88,-141"/>
<text text-anchor="middle" x="1245" y="-127.5" font-family="Helvetica,sans-Serif" font-size="10.00">Ark/Compiler/AST/Predicates.hpp</text>
</a>
</g>
</g>
<!-- Node4&#45;&gt;Node17 -->
<g id="edge21_Node000004_Node000017" class="edge">
<title>Node4&#45;&gt;Node17</title>
<g id="a_edge21_Node000004_Node000017"><a xlink:title=" ">
<path fill="none" stroke="#63b8ff" d="M1049.3,-176.53C1089.18,-167.53 1150.38,-153.73 1193.71,-143.95"/>
<polygon fill="#63b8ff" stroke="#63b8ff" points="1194.4,-147.38 1203.39,-141.76 1192.86,-140.55 1194.4,-147.38"/>
</a>
</g>
</g>
<!-- Node8&#45;&gt;Node2 -->
<g id="edge9_Node000008_Node000002" class="edge">
<title>Node8&#45;&gt;Node2</title>
<g id="a_edge9_Node000008_Node000002"><a xlink:title=" ">
<path fill="none" stroke="#63b8ff" d="M1027.36,-121.34C1004.52,-113.53 972.13,-101.09 946,-85.75 927.32,-74.79 927.79,-64.05 908,-55.25 825.59,-18.59 717.33,-11.66 664.6,-10.6"/>
<polygon fill="#63b8ff" stroke="#63b8ff" points="664.89,-7.1 654.84,-10.47 664.79,-14.1 664.89,-7.1"/>
</a>
</g>
</g>
<!-- Node8&#45;&gt;Node5 -->
<g id="edge11_Node000008_Node000005" class="edge">
<title>Node8&#45;&gt;Node5</title>
<g id="a_edge11_Node000008_Node000005"><a xlink:title=" ">
<path fill="none" stroke="#63b8ff" d="M1004.77,-122.77C925.52,-110.95 781.11,-89.17 770,-85.75 769.04,-85.45 768.06,-85.13 767.09,-84.79"/>
<polygon fill="#63b8ff" stroke="#63b8ff" points="768.77,-81.69 758.19,-81.1 766.09,-88.16 768.77,-81.69"/>
</a>
</g>
</g>
<!-- Node8&#45;&gt;Node7 -->
<g id="edge20_Node000008_Node000007" class="edge">
<title>Node8&#45;&gt;Node7</title>
<g id="a_edge20_Node000008_Node000007"><a xlink:title=" ">
<path fill="none" stroke="#63b8ff" d="M1004.97,-122.81C1001.93,-122.43 998.93,-122.08 996,-121.75 793.51,-99.24 741.86,-104.69 539,-85.75 514.15,-83.43 486.71,-80.52 463.31,-77.94"/>
<polygon fill="#63b8ff" stroke="#63b8ff" points="464.01,-74.5 453.68,-76.87 463.23,-81.45 464.01,-74.5"/>
</a>
</g>
</g>
<!-- Node9 -->
<g id="Node000009" class="node">
<title>Node9</title>
<g id="a_Node000009"><a xlink:title=" ">
<polygon fill="#e0e0e0" stroke="#999999" points="994.62,-80.12 955.38,-80.12 955.38,-60.88 994.62,-60.88 994.62,-80.12"/>
<text text-anchor="middle" x="975" y="-66.62" font-family="Helvetica,sans-Serif" font-size="10.00">utility</text>
</a>
</g>
</g>
<!-- Node8&#45;&gt;Node9 -->
<g id="edge10_Node000008_Node000009" class="edge">
<title>Node8&#45;&gt;Node9</title>
<g id="a_edge10_Node000008_Node000009"><a xlink:title=" ">
<path fill="none" stroke="#63b8ff" d="M1043.7,-121.43C1031.21,-112.36 1011.62,-98.12 996.55,-87.16"/>
<polygon fill="#63b8ff" stroke="#63b8ff" points="998.79,-84.46 988.64,-81.42 994.67,-90.13 998.79,-84.46"/>
</a>
</g>
</g>
<!-- Node10 -->
<g id="Node000010" class="node">
<title>Node10</title>
<g id="a_Node000010"><a xlink:title=" ">
<polygon fill="#e0e0e0" stroke="#999999" points="1071.38,-80.12 1012.62,-80.12 1012.62,-60.88 1071.38,-60.88 1071.38,-80.12"/>
<text text-anchor="middle" x="1042" y="-66.62" font-family="Helvetica,sans-Serif" font-size="10.00">stdexcept</text>
</a>
</g>
</g>
<!-- Node8&#45;&gt;Node10 -->
<g id="edge12_Node000008_Node000010" class="edge">
<title>Node8&#45;&gt;Node10</title>
<g id="a_edge12_Node000008_Node000010"><a xlink:title=" ">
<path fill="none" stroke="#63b8ff" d="M1053.87,-121.43C1052,-113.57 1049.21,-101.82 1046.8,-91.7"/>
<polygon fill="#63b8ff" stroke="#63b8ff" points="1050.21,-90.92 1044.5,-82 1043.4,-92.54 1050.21,-90.92"/>
</a>
</g>
</g>
<!-- Node8&#45;&gt;Node11 -->
<g id="edge13_Node000008_Node000011" class="edge">
<title>Node8&#45;&gt;Node11</title>
<g id="a_edge13_Node000008_Node000011"><a xlink:title=" ">
<path fill="none" stroke="#63b8ff" d="M1025.46,-121.31C996.41,-112.57 951.55,-98.8 913,-85.75 911.66,-85.29 910.29,-84.83 908.91,-84.35"/>
<polygon fill="#63b8ff" stroke="#63b8ff" points="910.3,-81.13 899.7,-81.08 907.96,-87.72 910.3,-81.13"/>
</a>
</g>
</g>
<!-- Node12 -->
<g id="Node000012" class="node">
<title>Node12</title>
<g id="a_Node000012"><a xlink:title=" ">
<polygon fill="#e0e0e0" stroke="#999999" points="830.62,-80.12 779.38,-80.12 779.38,-60.88 830.62,-60.88 830.62,-80.12"/>
<text text-anchor="middle" x="805" y="-66.62" font-family="Helvetica,sans-Serif" font-size="10.00">ostream</text>
</a>
</g>
</g>
<!-- Node8&#45;&gt;Node12 -->
<g id="edge14_Node000008_Node000012" class="edge">
<title>Node8&#45;&gt;Node12</title>
<g id="a_edge14_Node000008_Node000012"><a xlink:title=" ">
<path fill="none" stroke="#63b8ff" d="M1005.15,-122.57C960.96,-115.16 895.5,-102.63 840,-85.75 838.66,-85.34 837.3,-84.9 835.93,-84.44"/>
<polygon fill="#63b8ff" stroke="#63b8ff" points="837.51,-81.3 826.92,-81.1 835.08,-87.86 837.51,-81.3"/>
</a>
</g>
</g>
<!-- Node13 -->
<g id="Node000013" class="node">
<title>Node13</title>
<g id="a_Node000013"><a xlink:title=" ">
<polygon fill="#e0e0e0" stroke="#999999" points="1414.75,-80.12 1361.25,-80.12 1361.25,-60.88 1414.75,-60.88 1414.75,-80.12"/>
<text text-anchor="middle" x="1388" y="-66.62" font-family="Helvetica,sans-Serif" font-size="10.00">iostream</text>
</a>
</g>
</g>
<!-- Node8&#45;&gt;Node13 -->
<g id="edge15_Node000008_Node000013" class="edge">
<title>Node8&#45;&gt;Node13</title>
<g id="a_edge15_Node000008_Node000013"><a xlink:title=" ">
<path fill="none" stroke="#63b8ff" d="M1107.21,-126.4C1167.02,-120.91 1268.53,-108.94 1353,-85.75 1354.39,-85.37 1355.79,-84.95 1357.21,-84.5"/>
<polygon fill="#63b8ff" stroke="#63b8ff" points="1358.29,-87.83 1366.5,-81.14 1355.91,-81.25 1358.29,-87.83"/>
</a>
</g>
</g>
<!-- Node8&#45;&gt;Node14 -->
<g id="edge16_Node000008_Node000014" class="edge">
<title>Node8&#45;&gt;Node14</title>
<g id="a_edge16_Node000008_Node000014"><a xlink:title=" ">
<path fill="none" stroke="#63b8ff" d="M1081.73,-121.3C1105.36,-112.97 1141.1,-100.37 1170.72,-89.93"/>
<polygon fill="#63b8ff" stroke="#63b8ff" points="1171.62,-93.32 1179.89,-86.7 1169.3,-86.72 1171.62,-93.32"/>
</a>
</g>
</g>
<!-- Node14&#45;&gt;Node2 -->
<g id="edge18_Node000014_Node000002" class="edge">
<title>Node14&#45;&gt;Node2</title>
<g id="a_edge18_Node000014_Node000002"><a xlink:title=" ">
<path fill="none" stroke="#63b8ff" d="M1165.33,-57.51C1160.49,-56.68 1155.67,-55.91 1151,-55.25 967.81,-29.31 745.88,-16.3 664.7,-12.15"/>
<polygon fill="#63b8ff" stroke="#63b8ff" points="665.01,-8.66 654.84,-11.65 664.65,-15.65 665.01,-8.66"/>
</a>
</g>
</g>
<!-- Node15 -->
<g id="Node000015" class="node">
<title>Node15</title>
<g id="a_Node000015"><a xlink:title=" ">
<polygon fill="#e0e0e0" stroke="#999999" points="1710.88,-19.25 1673.12,-19.25 1673.12,0 1710.88,0 1710.88,-19.25"/>
<text text-anchor="middle" x="1692" y="-5.75" font-family="Helvetica,sans-Serif" font-size="10.00">array</text>
</a>
</g>
</g>
<!-- Node14&#45;&gt;Node15 -->
<g id="edge17_Node000014_Node000015" class="edge">
<title>Node14&#45;&gt;Node15</title>
<g id="a_edge17_Node000014_Node000015"><a xlink:title=" ">
<path fill="none" stroke="#63b8ff" d="M1280.88,-56.6C1283.62,-56.12 1286.34,-55.66 1289,-55.25 1450.89,-30.09 1497.81,-51.12 1661.87,-19.26"/>
<polygon fill="#63b8ff" stroke="#63b8ff" points="1662.24,-22.76 1671.37,-17.38 1660.88,-15.89 1662.24,-22.76"/>
</a>
</g>
</g>
<!-- Node16 -->
<g id="Node000016" class="node">
<title>Node16</title>
<g id="a_Node000016"><a xlink:title=" ">
<polygon fill="#e0e0e0" stroke="#999999" points="1242.62,-19.25 1203.38,-19.25 1203.38,0 1242.62,0 1242.62,-19.25"/>
<text text-anchor="middle" x="1223" y="-5.75" font-family="Helvetica,sans-Serif" font-size="10.00">limits</text>
</a>
</g>
</g>
<!-- Node14&#45;&gt;Node16 -->
<g id="edge19_Node000014_Node000016" class="edge">
<title>Node14&#45;&gt;Node16</title>
<g id="a_edge19_Node000014_Node000016"><a xlink:title=" ">
<path fill="none" stroke="#63b8ff" d="M1223,-54.95C1223,-47.71 1223,-38.84 1223,-30.94"/>
<polygon fill="#63b8ff" stroke="#63b8ff" points="1226.5,-31.21 1223,-21.21 1219.5,-31.21 1226.5,-31.21"/>
</a>
</g>
</g>
<!-- Node17&#45;&gt;Node2 -->
<g id="edge22_Node000017_Node000002" class="edge">
<title>Node17&#45;&gt;Node2</title>
<g id="a_edge22_Node000017_Node000002"><a xlink:title=" ">
<path fill="none" stroke="#63b8ff" d="M1225.36,-121.37C1207.25,-112.84 1179.8,-99.35 1157,-85.75 1136.56,-73.56 1135.36,-63.4 1113,-55.25 1030.12,-25.05 758.3,-14.33 664.87,-11.48"/>
<polygon fill="#63b8ff" stroke="#63b8ff" points="665.01,-7.99 654.91,-11.19 664.81,-14.98 665.01,-7.99"/>
</a>
</g>
</g>
<!-- Node17&#45;&gt;Node14 -->
<g id="edge24_Node000017_Node000014" class="edge">
<title>Node17&#45;&gt;Node14</title>
<g id="a_edge24_Node000017_Node000014"><a xlink:title=" ">
<path fill="none" stroke="#63b8ff" d="M1241.66,-121.43C1239.19,-114.83 1235.7,-105.49 1232.41,-96.68"/>
<polygon fill="#63b8ff" stroke="#63b8ff" points="1235.74,-95.59 1228.96,-87.45 1229.18,-98.04 1235.74,-95.59"/>
</a>
</g>
</g>
<!-- Node18 -->
<g id="Node000018" class="node">
<title>Node18</title>
<g id="a_Node000018"><a xlink:title=" ">
<polygon fill="#e0e0e0" stroke="#999999" points="1343.62,-80.12 1298.38,-80.12 1298.38,-60.88 1343.62,-60.88 1343.62,-80.12"/>
<text text-anchor="middle" x="1321" y="-66.62" font-family="Helvetica,sans-Serif" font-size="10.00">cctype</text>
</a>
</g>
</g>
<!-- Node17&#45;&gt;Node18 -->
<g id="edge23_Node000017_Node000018" class="edge">
<title>Node17&#45;&gt;Node18</title>
<g id="a_edge23_Node000017_Node000018"><a xlink:title=" ">
<path fill="none" stroke="#63b8ff" d="M1256.54,-121.43C1268.15,-112.44 1286.29,-98.39 1300.38,-87.48"/>
<polygon fill="#63b8ff" stroke="#63b8ff" points="1302.39,-90.34 1308.15,-81.45 1298.1,-84.81 1302.39,-90.34"/>
</a>
</g>
</g>
<!-- Node19&#45;&gt;Node2 -->
<g id="edge29_Node000019_Node000002" class="edge">
<title>Node19&#45;&gt;Node2</title>
<g id="a_edge29_Node000019_Node000002"><a xlink:title=" ">
<path fill="none" stroke="#63b8ff" d="M636.8,-176.71C636.18,-149.8 634.33,-68.94 633.46,-30.87"/>
<polygon fill="#63b8ff" stroke="#63b8ff" points="636.97,-31.17 633.24,-21.25 629.97,-31.33 636.97,-31.17"/>
</a>
</g>
</g>
<!-- Node19&#45;&gt;Node5 -->
<g id="edge30_Node000019_Node000005" class="edge">
<title>Node19&#45;&gt;Node5</title>
<g id="a_edge30_Node000019_Node000005"><a xlink:title=" ">
<path fill="none" stroke="#63b8ff" d="M663.01,-176.57C680.22,-169.36 702.09,-157.7 716,-141 727.74,-126.9 733.87,-106.72 736.98,-91.74"/>
<polygon fill="#63b8ff" stroke="#63b8ff" points="740.39,-92.56 738.68,-82.11 733.49,-91.35 740.39,-92.56"/>
</a>
</g>
</g>
<!-- Node19&#45;&gt;Node7 -->
<g id="edge44_Node000019_Node000007" class="edge">
<title>Node19&#45;&gt;Node7</title>
<g id="a_edge44_Node000019_Node000007"><a xlink:title=" ">
<path fill="none" stroke="#63b8ff" d="M566.38,-182.48C502.35,-177.97 414.75,-167.09 393,-141 381.2,-126.85 387.99,-105.49 395.66,-90.19"/>
<polygon fill="#63b8ff" stroke="#63b8ff" points="398.61,-92.07 400.41,-81.63 392.49,-88.67 398.61,-92.07"/>
</a>
</g>
</g>
<!-- Node19&#45;&gt;Node12 -->
<g id="edge28_Node000019_Node000012" class="edge">
<title>Node19&#45;&gt;Node12</title>
<g id="a_edge28_Node000019_Node000012"><a xlink:title=" ">
<path fill="none" stroke="#63b8ff" d="M664.03,-176.52C684.76,-168.82 713.53,-156.58 736,-141 757.52,-126.08 778.12,-103.95 791.12,-88.69"/>
<polygon fill="#63b8ff" stroke="#63b8ff" points="793.51,-91.3 797.21,-81.37 788.12,-86.83 793.51,-91.3"/>
</a>
</g>
</g>
<!-- Node20 -->
<g id="Node000020" class="node">
<title>Node20</title>
<g id="a_Node000020"><a xlink:title=" ">
<polygon fill="#e0e0e0" stroke="#999999" points="706.62,-141 661.38,-141 661.38,-121.75 706.62,-121.75 706.62,-141"/>
<text text-anchor="middle" x="684" y="-127.5" font-family="Helvetica,sans-Serif" font-size="10.00">variant</text>
</a>
</g>
</g>
<!-- Node19&#45;&gt;Node20 -->
<g id="edge27_Node000019_Node000020" class="edge">
<title>Node19&#45;&gt;Node20</title>
<g id="a_edge27_Node000019_Node000020"><a xlink:title=" ">
<path fill="none" stroke="#63b8ff" d="M644.76,-176.83C651.19,-169.55 660.51,-158.98 668.46,-149.98"/>
<polygon fill="#63b8ff" stroke="#63b8ff" points="671.08,-152.31 675.07,-142.49 665.83,-147.68 671.08,-152.31"/>
</a>
</g>
</g>
<!-- Node21 -->
<g id="Node000021" class="node">
<title>Node21</title>
<g id="a_Node000021"><a xlink:href="../../da/d33/Namespace_8hpp.html" target="_top" xlink:title=" ">
<polygon fill="white" stroke="#666666" points="604.88,-141 435.12,-141 435.12,-121.75 604.88,-121.75 604.88,-141"/>
<text text-anchor="middle" x="520" y="-127.5" font-family="Helvetica,sans-Serif" font-size="10.00">Ark/Compiler/AST/Namespace.hpp</text>
</a>
</g>
</g>
<!-- Node19&#45;&gt;Node21 -->
<g id="edge31_Node000019_Node000021" class="edge">
<title>Node19&#45;&gt;Node21</title>
<g id="a_edge31_Node000019_Node000021"><a xlink:title=" ">
<path fill="none" stroke="#63b8ff" d="M617.15,-176.59C598.83,-168.25 571.35,-155.75 550.29,-146.16"/>
<polygon fill="#63b8ff" stroke="#63b8ff" points="551.87,-143.04 541.32,-142.08 548.97,-149.41 551.87,-143.04"/>
</a>
</g>
</g>
<!-- Node23 -->
<g id="Node000023" class="node">
<title>Node23</title>
<g id="a_Node000023"><a xlink:href="../../d8/ddd/Common_8hpp.html" target="_top" xlink:title="Common code for the compiler.">
<polygon fill="white" stroke="#666666" points="1565.25,-141 1430.75,-141 1430.75,-121.75 1565.25,-121.75 1565.25,-141"/>
<text text-anchor="middle" x="1498" y="-127.5" font-family="Helvetica,sans-Serif" font-size="10.00">Ark/Compiler/Common.hpp</text>
</a>
</g>
</g>
<!-- Node19&#45;&gt;Node23 -->
<g id="edge35_Node000019_Node000023" class="edge">
<title>Node19&#45;&gt;Node23</title>
<g id="a_edge35_Node000019_Node000023"><a xlink:title=" ">
<path fill="none" stroke="#63b8ff" d="M707.52,-180.27C722.84,-179.15 738.96,-178.01 754,-177 996.37,-160.8 1283.35,-144.36 1419.18,-136.75"/>
<polygon fill="#63b8ff" stroke="#63b8ff" points="1418.98,-140.26 1428.76,-136.21 1418.58,-133.28 1418.98,-140.26"/>
</a>
</g>
</g>
<!-- Node21&#45;&gt;Node2 -->
<g id="edge32_Node000021_Node000002" class="edge">
<title>Node21&#45;&gt;Node2</title>
<g id="a_edge32_Node000021_Node000002"><a xlink:title=" ">
<path fill="none" stroke="#63b8ff" d="M519.91,-121.43C520.22,-106.15 522.95,-74.79 539,-55.25 554.87,-35.93 581.04,-24.46 601.75,-18"/>
<polygon fill="#63b8ff" stroke="#63b8ff" points="602.48,-21.43 611.14,-15.32 600.56,-14.7 602.48,-21.43"/>
</a>
</g>
</g>
<!-- Node21&#45;&gt;Node5 -->
<g id="edge33_Node000021_Node000005" class="edge">
<title>Node21&#45;&gt;Node5</title>
<g id="a_edge33_Node000021_Node000005"><a xlink:title=" ">
<path fill="none" stroke="#63b8ff" d="M553.89,-121.3C595.56,-110.15 665.8,-91.36 707.04,-80.32"/>
<polygon fill="#63b8ff" stroke="#63b8ff" points="707.88,-83.72 716.64,-77.75 706.07,-76.96 707.88,-83.72"/>
</a>
</g>
</g>
<!-- Node22 -->
<g id="Node000022" class="node">
<title>Node22</title>
<g id="a_Node000022"><a xlink:title=" ">
<polygon fill="#e0e0e0" stroke="#999999" points="599.62,-80.12 548.38,-80.12 548.38,-60.88 599.62,-60.88 599.62,-80.12"/>
<text text-anchor="middle" x="574" y="-66.62" font-family="Helvetica,sans-Serif" font-size="10.00">memory</text>
</a>
</g>
</g>
<!-- Node21&#45;&gt;Node22 -->
<g id="edge34_Node000021_Node000022" class="edge">
<title>Node21&#45;&gt;Node22</title>
<g id="a_edge34_Node000021_Node000022"><a xlink:title=" ">
<path fill="none" stroke="#63b8ff" d="M528.2,-121.43C536.13,-112.79 548.35,-99.46 558.18,-88.75"/>
<polygon fill="#63b8ff" stroke="#63b8ff" points="560.52,-91.38 564.7,-81.64 555.36,-86.65 560.52,-91.38"/>
</a>
</g>
</g>
<!-- Node23&#45;&gt;Node5 -->
<g id="edge38_Node000023_Node000005" class="edge">
<title>Node23&#45;&gt;Node5</title>
<g id="a_edge38_Node000023_Node000005"><a xlink:title=" ">
<path fill="none" stroke="#63b8ff" d="M1430.26,-126.56C1252.62,-116.52 785.87,-89.84 770,-85.75 768.83,-85.45 767.65,-85.1 766.46,-84.71"/>
<polygon fill="#63b8ff" stroke="#63b8ff" points="768.06,-81.59 757.48,-81.08 765.44,-88.08 768.06,-81.59"/>
</a>
</g>
</g>
<!-- Node23&#45;&gt;Node15 -->
<g id="edge36_Node000023_Node000015" class="edge">
<title>Node23&#45;&gt;Node15</title>
<g id="a_edge36_Node000023_Node000015"><a xlink:title=" ">
<path fill="none" stroke="#63b8ff" d="M1550.99,-121.28C1578.25,-114.7 1610.92,-103.71 1636,-85.75 1656.61,-70.99 1672.88,-46.35 1682.46,-29.34"/>
<polygon fill="#63b8ff" stroke="#63b8ff" points="1685.41,-31.24 1687.05,-20.78 1679.24,-27.94 1685.41,-31.24"/>
</a>
</g>
</g>
<!-- Node24 -->
<g id="Node000024" class="node">
<title>Node24</title>
<g id="a_Node000024"><a xlink:title=" ">
<polygon fill="#e0e0e0" stroke="#999999" points="1513.75,-19.25 1448.25,-19.25 1448.25,0 1513.75,0 1513.75,-19.25"/>
<text text-anchor="middle" x="1481" y="-5.75" font-family="Helvetica,sans-Serif" font-size="10.00">string_view</text>
</a>
</g>
</g>
<!-- Node23&#45;&gt;Node24 -->
<g id="edge37_Node000023_Node000024" class="edge">
<title>Node23&#45;&gt;Node24</title>
<g id="a_edge37_Node000023_Node000024"><a xlink:title=" ">
<path fill="none" stroke="#63b8ff" d="M1496.72,-121.37C1494.01,-102.3 1487.64,-57.41 1483.89,-31.01"/>
<polygon fill="#63b8ff" stroke="#63b8ff" points="1487.38,-30.64 1482.51,-21.23 1480.45,-31.62 1487.38,-30.64"/>
</a>
</g>
</g>
<!-- Node25 -->
<g id="Node000025" class="node">
<title>Node25</title>
<g id="a_Node000025"><a xlink:title=" ">
<polygon fill="#e0e0e0" stroke="#999999" points="1654.88,-19.25 1599.12,-19.25 1599.12,0 1654.88,0 1654.88,-19.25"/>
<text text-anchor="middle" x="1627" y="-5.75" font-family="Helvetica,sans-Serif" font-size="10.00">cinttypes</text>
</a>
</g>
</g>
<!-- Node23&#45;&gt;Node25 -->
<g id="edge39_Node000023_Node000025" class="edge">
<title>Node23&#45;&gt;Node25</title>
<g id="a_edge39_Node000023_Node000025"><a xlink:title=" ">
<path fill="none" stroke="#63b8ff" d="M1556.16,-121.27C1578.07,-114.9 1601.24,-104.1 1616,-85.75 1628.38,-70.36 1630.03,-47.26 1629.28,-30.74"/>
<polygon fill="#63b8ff" stroke="#63b8ff" points="1632.8,-30.81 1628.49,-21.13 1625.82,-31.38 1632.8,-30.81"/>
</a>
</g>
</g>
<!-- Node26 -->
<g id="Node000026" class="node">
<title>Node26</title>
<g id="a_Node000026"><a xlink:href="../../d6/de9/Constants_8hpp.html" target="_top" xlink:title="Constants used by ArkScript.">
<polygon fill="white" stroke="#666666" points="1606.88,-80.12 1509.12,-80.12 1509.12,-60.88 1606.88,-60.88 1606.88,-80.12"/>
<text text-anchor="middle" x="1558" y="-66.62" font-family="Helvetica,sans-Serif" font-size="10.00">Ark/Constants.hpp</text>
</a>
</g>
</g>
<!-- Node23&#45;&gt;Node26 -->
<g id="edge40_Node000023_Node000026" class="edge">
<title>Node23&#45;&gt;Node26</title>
<g id="a_edge40_Node000023_Node000026"><a xlink:title=" ">
<path fill="none" stroke="#63b8ff" d="M1507.11,-121.43C1516.01,-112.7 1529.78,-99.19 1540.75,-88.43"/>
<polygon fill="#63b8ff" stroke="#63b8ff" points="1543.03,-91.09 1547.72,-81.59 1538.13,-86.09 1543.03,-91.09"/>
</a>
</g>
</g>
<!-- Node26&#45;&gt;Node24 -->
<g id="edge41_Node000026_Node000024" class="edge">
<title>Node26&#45;&gt;Node24</title>
<g id="a_edge41_Node000026_Node000024"><a xlink:title=" ">
<path fill="none" stroke="#63b8ff" d="M1546.31,-60.56C1534.55,-51.57 1516.16,-37.51 1501.89,-26.6"/>
<polygon fill="#63b8ff" stroke="#63b8ff" points="1504.08,-23.86 1494.01,-20.57 1499.83,-29.42 1504.08,-23.86"/>
</a>
</g>
</g>
<!-- Node26&#45;&gt;Node25 -->
<g id="edge42_Node000026_Node000025" class="edge">
<title>Node26&#45;&gt;Node25</title>
<g id="a_edge42_Node000026_Node000025"><a xlink:title=" ">
<path fill="none" stroke="#63b8ff" d="M1568.48,-60.56C1578.92,-51.65 1595.17,-37.78 1607.91,-26.92"/>
<polygon fill="#63b8ff" stroke="#63b8ff" points="1609.94,-29.79 1615.27,-20.63 1605.39,-24.46 1609.94,-29.79"/>
</a>
</g>
</g>
<!-- Node27 -->
<g id="Node000027" class="node">
<title>Node27</title>
<g id="a_Node000027"><a xlink:title=" ">
<polygon fill="#e0e0e0" stroke="#999999" points="1581.12,-19.25 1532.88,-19.25 1532.88,0 1581.12,0 1581.12,-19.25"/>
<text text-anchor="middle" x="1557" y="-5.75" font-family="Helvetica,sans-Serif" font-size="10.00">cstddef</text>
</a>
</g>
</g>
<!-- Node26&#45;&gt;Node27 -->
<g id="edge43_Node000026_Node000027" class="edge">
<title>Node26&#45;&gt;Node27</title>
<g id="a_edge43_Node000026_Node000027"><a xlink:title=" ">
<path fill="none" stroke="#63b8ff" d="M1557.85,-60.56C1557.72,-52.78 1557.52,-41.2 1557.35,-31.16"/>
<polygon fill="#63b8ff" stroke="#63b8ff" points="1560.85,-31.1 1557.18,-21.16 1553.85,-31.22 1560.85,-31.1"/>
</a>
</g>
</g>
<!-- Node28&#45;&gt;Node2 -->
<g id="edge47_Node000028_Node000002" class="edge">
<title>Node28&#45;&gt;Node2</title>
<g id="a_edge47_Node000028_Node000002"><a xlink:title=" ">
<path fill="none" stroke="#63b8ff" d="M130.57,-121.35C117.2,-105.96 94.38,-74.44 112,-55.25 145.14,-19.15 493.04,-12.2 601.14,-10.91"/>
<polygon fill="#63b8ff" stroke="#63b8ff" points="601.06,-14.41 611.02,-10.8 600.98,-7.41 601.06,-14.41"/>
</a>
</g>
</g>
<!-- Node28&#45;&gt;Node5 -->
<g id="edge46_Node000028_Node000005" class="edge">
<title>Node28&#45;&gt;Node5</title>
<g id="a_edge46_Node000028_Node000005"><a xlink:title=" ">
<path fill="none" stroke="#63b8ff" d="M211.85,-122.57C214.6,-122.29 217.33,-122.02 220,-121.75 392.77,-104.56 436.25,-103.14 609,-85.75 642.36,-82.39 680.46,-78.21 706.93,-75.25"/>
<polygon fill="#63b8ff" stroke="#63b8ff" points="707.17,-78.74 716.72,-74.15 706.39,-71.78 707.17,-78.74"/>
</a>
</g>
</g>
<!-- Node28&#45;&gt;Node7 -->
<g id="edge49_Node000028_Node000007" class="edge">
<title>Node28&#45;&gt;Node7</title>
<g id="a_edge49_Node000028_Node000007"><a xlink:title=" ">
<path fill="none" stroke="#63b8ff" d="M185.91,-121.33C229.37,-112.77 295.75,-99.26 353,-85.75 356.14,-85.01 359.38,-84.22 362.63,-83.41"/>
<polygon fill="#63b8ff" stroke="#63b8ff" points="363.36,-86.83 372.19,-80.97 361.63,-80.05 363.36,-86.83"/>
</a>
</g>
</g>
<!-- Node29 -->
<g id="Node000029" class="node">
<title>Node29</title>
<g id="a_Node000029"><a xlink:title=" ">
<polygon fill="#e0e0e0" stroke="#999999" points="171.25,-80.12 120.75,-80.12 120.75,-60.88 171.25,-60.88 171.25,-80.12"/>
<text text-anchor="middle" x="146" y="-66.62" font-family="Helvetica,sans-Serif" font-size="10.00">numeric</text>
</a>
</g>
</g>
<!-- Node28&#45;&gt;Node29 -->
<g id="edge48_Node000028_Node000029" class="edge">
<title>Node28&#45;&gt;Node29</title>
<g id="a_edge48_Node000028_Node000029"><a xlink:title=" ">
<path fill="none" stroke="#63b8ff" d="M140.06,-121.43C141,-113.57 142.39,-101.82 143.6,-91.7"/>
<polygon fill="#63b8ff" stroke="#63b8ff" points="147.04,-92.37 144.75,-82.03 140.09,-91.55 147.04,-92.37"/>
</a>
</g>
</g>
<!-- Node30&#45;&gt;Node2 -->
<g id="edge53_Node000030_Node000002" class="edge">
<title>Node30&#45;&gt;Node2</title>
<g id="a_edge53_Node000030_Node000002"><a xlink:title=" ">
<path fill="none" stroke="#63b8ff" d="M1739.05,-126.74C1683.96,-121.21 1583.26,-108.78 1500,-85.75 1464.92,-76.05 1459.53,-63.16 1424,-55.25 1275.56,-22.21 793.43,-12.95 664.79,-11.04"/>
<polygon fill="#63b8ff" stroke="#63b8ff" points="665.03,-7.55 654.98,-10.9 664.93,-14.55 665.03,-7.55"/>
</a>
</g>
</g>
<!-- Node30&#45;&gt;Node5 -->
<g id="edge56_Node000030_Node000005" class="edge">
<title>Node30&#45;&gt;Node5</title>
<g id="a_edge56_Node000030_Node000005"><a xlink:title=" ">
<path fill="none" stroke="#63b8ff" d="M1739,-126.71C1718.83,-125.01 1694.16,-123.08 1672,-121.75 1471.75,-109.76 964.77,-133.76 770,-85.75 768.82,-85.46 767.64,-85.12 766.46,-84.75"/>
<polygon fill="#63b8ff" stroke="#63b8ff" points="768.05,-81.61 757.47,-81.15 765.45,-88.11 768.05,-81.61"/>
</a>
</g>
</g>
<!-- Node30&#45;&gt;Node13 -->
<g id="edge51_Node000030_Node000013" class="edge">
<title>Node30&#45;&gt;Node13</title>
<g id="a_edge51_Node000030_Node000013"><a xlink:title=" ">
<path fill="none" stroke="#63b8ff" d="M1739.03,-126.25C1659.56,-118.07 1487.16,-99.4 1429,-85.75 1426.71,-85.21 1424.36,-84.59 1422.02,-83.92"/>
<polygon fill="#63b8ff" stroke="#63b8ff" points="1423.2,-80.63 1412.61,-80.95 1421.09,-87.3 1423.2,-80.63"/>
</a>
</g>
</g>
<!-- Node31 -->
<g id="Node000031" class="node">
<title>Node31</title>
<g id="a_Node000031"><a xlink:title=" ">
<polygon fill="#e0e0e0" stroke="#999999" points="2155.62,-80.12 2086.38,-80.12 2086.38,-60.88 2155.62,-60.88 2155.62,-80.12"/>
<text text-anchor="middle" x="2121" y="-66.62" font-family="Helvetica,sans-Serif" font-size="10.00">fmt/format.h</text>
</a>
</g>
</g>
<!-- Node30&#45;&gt;Node31 -->
<g id="edge52_Node000030_Node000031" class="edge">
<title>Node30&#45;&gt;Node31</title>
<g id="a_edge52_Node000030_Node000031"><a xlink:title=" ">
<path fill="none" stroke="#63b8ff" d="M1820.75,-126.39C1878.36,-120.28 1986.66,-107.01 2077,-85.75 2079.57,-85.14 2082.21,-84.46 2084.85,-83.72"/>
<polygon fill="#63b8ff" stroke="#63b8ff" points="2085.58,-87.16 2094.16,-80.94 2083.57,-80.45 2085.58,-87.16"/>
</a>
</g>
</g>
<!-- Node32 -->
<g id="Node000032" class="node">
<title>Node32</title>
<g id="a_Node000032"><a xlink:title=" ">
<polygon fill="#e0e0e0" stroke="#999999" points="1784.62,-80.12 1739.38,-80.12 1739.38,-60.88 1784.62,-60.88 1784.62,-80.12"/>
<text text-anchor="middle" x="1762" y="-66.62" font-family="Helvetica,sans-Serif" font-size="10.00">chrono</text>
</a>
</g>
</g>
<!-- Node30&#45;&gt;Node32 -->
<g id="edge54_Node000030_Node000032" class="edge">
<title>Node30&#45;&gt;Node32</title>
<g id="a_edge54_Node000030_Node000032"><a xlink:title=" ">
<path fill="none" stroke="#63b8ff" d="M1777.27,-121.43C1774.83,-113.48 1771.19,-101.56 1768.07,-91.37"/>
<polygon fill="#63b8ff" stroke="#63b8ff" points="1771.47,-90.51 1765.2,-81.97 1764.78,-92.56 1771.47,-90.51"/>
</a>
</g>
</g>
<!-- Node33 -->
<g id="Node000033" class="node">
<title>Node33</title>
<g id="a_Node000033"><a xlink:title=" ">
<polygon fill="#e0e0e0" stroke="#999999" points="1887.12,-80.12 1802.88,-80.12 1802.88,-60.88 1887.12,-60.88 1887.12,-80.12"/>
<text text-anchor="middle" x="1845" y="-66.62" font-family="Helvetica,sans-Serif" font-size="10.00">source_location</text>
</a>
</g>
</g>
<!-- Node30&#45;&gt;Node33 -->
<g id="edge55_Node000030_Node000033" class="edge">
<title>Node30&#45;&gt;Node33</title>
<g id="a_edge55_Node000030_Node000033"><a xlink:title=" ">
<path fill="none" stroke="#63b8ff" d="M1789.87,-121.43C1799.61,-112.62 1814.72,-98.93 1826.66,-88.11"/>
<polygon fill="#63b8ff" stroke="#63b8ff" points="1828.85,-90.85 1833.91,-81.54 1824.15,-85.66 1828.85,-90.85"/>
</a>
</g>
</g>
<!-- Node34 -->
<g id="Node000034" class="node">
<title>Node34</title>
<g id="a_Node000034"><a xlink:title=" ">
<polygon fill="#e0e0e0" stroke="#999999" points="1988.38,-80.12 1905.62,-80.12 1905.62,-60.88 1988.38,-60.88 1988.38,-80.12"/>
<text text-anchor="middle" x="1947" y="-66.62" font-family="Helvetica,sans-Serif" font-size="10.00">unordered_map</text>
</a>
</g>
</g>
<!-- Node30&#45;&gt;Node34 -->
<g id="edge57_Node000030_Node000034" class="edge">
<title>Node30&#45;&gt;Node34</title>
<g id="a_edge57_Node000030_Node000034"><a xlink:title=" ">
<path fill="none" stroke="#63b8ff" d="M1805.73,-121.3C1833.8,-111.41 1878.96,-95.49 1910.65,-84.32"/>
<polygon fill="#63b8ff" stroke="#63b8ff" points="1911.55,-87.71 1919.82,-81.08 1909.22,-81.11 1911.55,-87.71"/>
</a>
</g>
</g>
<!-- Node35 -->
<g id="Node000035" class="node">
<title>Node35</title>
<g id="a_Node000035"><a xlink:title=" ">
<polygon fill="#e0e0e0" stroke="#999999" points="2067.88,-80.12 2006.12,-80.12 2006.12,-60.88 2067.88,-60.88 2067.88,-80.12"/>
<text text-anchor="middle" x="2037" y="-66.62" font-family="Helvetica,sans-Serif" font-size="10.00">fmt/color.h</text>
</a>
</g>
</g>
<!-- Node30&#45;&gt;Node35 -->
<g id="edge58_Node000030_Node000035" class="edge">
<title>Node30&#45;&gt;Node35</title>
<g id="a_edge58_Node000030_Node000035"><a xlink:title=" ">
<path fill="none" stroke="#63b8ff" d="M1820.8,-123.74C1864.72,-116.18 1936.44,-102.68 1997,-85.75 1998.85,-85.23 2000.75,-84.67 2002.65,-84.08"/>
<polygon fill="#63b8ff" stroke="#63b8ff" points="2003.66,-87.43 2012.05,-80.97 2001.46,-80.79 2003.66,-87.43"/>
</a>
</g>
</g>
<!-- Node36&#45;&gt;Node2 -->
<g id="edge62_Node000036_Node000002" class="edge">
<title>Node36&#45;&gt;Node2</title>
<g id="a_edge62_Node000036_Node000002"><a xlink:title=" ">
<path fill="none" stroke="#63b8ff" d="M252.88,-121.4C232.82,-106.62 198.76,-76.67 218,-55.25 243.52,-26.84 508.37,-14.96 601.12,-11.65"/>
<polygon fill="#63b8ff" stroke="#63b8ff" points="601.16,-15.15 611.03,-11.31 600.91,-8.16 601.16,-15.15"/>
</a>
</g>
</g>
<!-- Node36&#45;&gt;Node5 -->
<g id="edge63_Node000036_Node000005" class="edge">
<title>Node36&#45;&gt;Node5</title>
<g id="a_edge63_Node000036_Node000005"><a xlink:title=" ">
<path fill="none" stroke="#63b8ff" d="M302.8,-125.8C392.45,-114.67 621.09,-86.27 706.84,-75.62"/>
<polygon fill="#63b8ff" stroke="#63b8ff" points="707.2,-79.1 716.69,-74.39 706.34,-72.15 707.2,-79.1"/>
</a>
</g>
</g>
<!-- Node36&#45;&gt;Node7 -->
<g id="edge60_Node000036_Node000007" class="edge">
<title>Node36&#45;&gt;Node7</title>
<g id="a_edge60_Node000036_Node000007"><a xlink:title=" ">
<path fill="none" stroke="#63b8ff" d="M287.72,-121.3C311.08,-111.55 348.44,-95.95 375.13,-84.81"/>
<polygon fill="#63b8ff" stroke="#63b8ff" points="376.21,-88.15 384.09,-81.07 373.51,-81.69 376.21,-88.15"/>
</a>
</g>
</g>
<!-- Node37 -->
<g id="Node000037" class="node">
<title>Node37</title>
<g id="a_Node000037"><a xlink:title=" ">
<polygon fill="#e0e0e0" stroke="#999999" points="343.88,-80.12 288.12,-80.12 288.12,-60.88 343.88,-60.88 343.88,-80.12"/>
<text text-anchor="middle" x="316" y="-66.62" font-family="Helvetica,sans-Serif" font-size="10.00">algorithm</text>
</a>
</g>
</g>
<!-- Node36&#45;&gt;Node37 -->
<g id="edge61_Node000036_Node000037" class="edge">
<title>Node36&#45;&gt;Node37</title>
<g id="a_edge61_Node000036_Node000037"><a xlink:title=" ">
<path fill="none" stroke="#63b8ff" d="M273.59,-121.43C280.86,-112.87 292.03,-99.73 301.08,-89.07"/>
<polygon fill="#63b8ff" stroke="#63b8ff" points="303.55,-91.57 307.35,-81.68 298.21,-87.04 303.55,-91.57"/>
</a>
</g>
</g>
<!-- Node38 -->
<g id="Node000038" class="node">
<title>Node38</title>
<g id="a_Node000038"><a xlink:title=" ">
<polygon fill="#e0e0e0" stroke="#999999" points="270.5,-80.12 227.5,-80.12 227.5,-60.88 270.5,-60.88 270.5,-80.12"/>
<text text-anchor="middle" x="249" y="-66.62" font-family="Helvetica,sans-Serif" font-size="10.00">cmath</text>
</a>
</g>
</g>
<!-- Node36&#45;&gt;Node38 -->
<g id="edge64_Node000036_Node000038" class="edge">
<title>Node36&#45;&gt;Node38</title>
<g id="a_edge64_Node000036_Node000038"><a xlink:title=" ">
<path fill="none" stroke="#63b8ff" d="M263.42,-121.43C261.12,-113.48 257.68,-101.56 254.74,-91.37"/>
<polygon fill="#63b8ff" stroke="#63b8ff" points="258.16,-90.62 252.03,-81.98 251.44,-92.56 258.16,-90.62"/>
</a>
</g>
</g>
<!-- Node40&#45;&gt;Node15 -->
<g id="edge71_Node000040_Node000015" class="edge">
<title>Node40&#45;&gt;Node15</title>
<g id="a_edge71_Node000040_Node000015"><a xlink:title=" ">
<path fill="none" stroke="#63b8ff" d="M1648.26,-176.82C1655.73,-168.33 1666.38,-154.77 1672,-141 1687.01,-104.18 1690.86,-57.32 1691.78,-30.98"/>
<polygon fill="#63b8ff" stroke="#63b8ff" points="1695.28,-31.13 1692.01,-21.05 1688.28,-30.97 1695.28,-31.13"/>
</a>
</g>
</g>
<!-- Node41 -->
<g id="Node000041" class="node">
<title>Node41</title>
<g id="a_Node000041"><a xlink:title=" ">
<polygon fill="#e0e0e0" stroke="#999999" points="1662.62,-141 1617.38,-141 1617.38,-121.75 1662.62,-121.75 1662.62,-141"/>
<text text-anchor="middle" x="1640" y="-127.5" font-family="Helvetica,sans-Serif" font-size="10.00">cstdint</text>
</a>
</g>
</g>
<!-- Node40&#45;&gt;Node41 -->
<g id="edge72_Node000040_Node000041" class="edge">
<title>Node40&#45;&gt;Node41</title>
<g id="a_edge72_Node000040_Node000041"><a xlink:title=" ">
<path fill="none" stroke="#63b8ff" d="M1640,-176.83C1640,-170.32 1640,-161.17 1640,-152.87"/>
<polygon fill="#63b8ff" stroke="#63b8ff" points="1643.5,-152.87 1640,-142.87 1636.5,-152.87 1643.5,-152.87"/>
</a>
</g>
</g>
</g>
</svg>
