<?xml version="1.0" encoding="UTF-8" standalone="no"?>
<!DOCTYPE svg PUBLIC "-//W3C//DTD SVG 1.1//EN"
 "http://www.w3.org/Graphics/SVG/1.1/DTD/svg11.dtd">
<!-- Generated by graphviz version 12.2.0 (20241103.1931)
 -->
<!-- Title: /Users/fola/Documents/ArkScript/Ark/include/Ark/Error/Diagnostics.hpp Pages: 1 -->
<!--zoomable 282 -->

<svg id="main" version="1.1" xmlns="http://www.w3.org/2000/svg" xmlns:xlink="http://www.w3.org/1999/xlink" xml:space="preserve" onload="init(evt)">

<style type="text/css"><![CDATA[
.node, .edge {opacity: 0.7;}
.node.selected, .edge.selected {opacity: 1;}
.edge:hover path { stroke: red; }
.edge:hover polygon { stroke: red; fill: red; }
]]></style>

<defs>
  <circle id="rim" cx="0" cy="0" r="7"/>
  <circle id="rim2" cx="0" cy="0" r="3.5"/>
  <g id="zoomPlus">
    <use xlink:href="#rim" fill="#404040"><set attributeName="fill" to="#808080" begin="zoomplus.mouseover" end="zoomplus.mouseout"/></use>
    <path d="M-4,0h8M0,-4v8" fill="none" stroke="white" stroke-width="1.5" pointer-events="none"/>
  </g>
  <g id="zoomMin">
    <use xlink:href="#rim" fill="#404040"><set attributeName="fill" to="#808080" begin="zoomminus.mouseover" end="zoomminus.mouseout"/></use>
    <path d="M-4,0h8" fill="none" stroke="white" stroke-width="1.5" pointer-events="none"/>
  </g>
  <g id="arrowUp" transform="translate(30 24)">
    <use xlink:href="#rim"/>
    <path pointer-events="none" fill="none" stroke="white" stroke-width="1.5" d="M0,-3.0v7 M-2.5,-0.5L0,-3.0L2.5,-0.5"/>
  </g>
  <g id="arrowRight" transform="rotate(90) translate(36 -43)">
    <use xlink:href="#rim"/>
    <path pointer-events="none" fill="none" stroke="white" stroke-width="1.5" d="M0,-3.0v7 M-2.5,-0.5L0,-3.0L2.5,-0.5"/>
  </g>
  <g id="arrowDown" transform="rotate(180) translate(-30 -48)">
    <use xlink:href="#rim"/>
    <path pointer-events="none" fill="none" stroke="white" stroke-width="1.5" d="M0,-3.0v7 M-2.5,-0.5L0,-3.0L2.5,-0.5"/>
  </g>
  <g id="arrowLeft" transform="rotate(270) translate(-36 17)">
    <use xlink:href="#rim"/>
    <path pointer-events="none" fill="none" stroke="white" stroke-width="1.5" d="M0,-3.0v7 M-2.5,-0.5L0,-3.0L2.5,-0.5"/>
  </g>
  <g id="resetDef">
    <use xlink:href="#rim2" fill="#404040"><set attributeName="fill" to="#808080" begin="reset.mouseover" end="reset.mouseout"/></use>
  </g>
</defs>
<script type="application/ecmascript">
var viewWidth = 707;
var viewHeight = 282;
var sectionId = 'dynsection-0';
</script>
<script type="application/ecmascript" xlink:href="../../svg.min.js"/>
<svg id="graph" class="graph">
<g id="viewport">
<title>/Users/fola/Documents/ArkScript/Ark/include/Ark/Error/Diagnostics.hpp</title>
<!-- Node1 -->
<g id="Node000001" class="node">
<title>Node1</title>
<g id="a_Node000001"><a xlink:title="Tools to report code errors nicely to the user.">
<polygon fill="#999999" stroke="#666666" points="553.62,-274 422.12,-274 422.12,-232.25 553.62,-232.25 553.62,-274"/>
<text text-anchor="start" x="430.12" y="-260.5" font-family="Helvetica,sans-Serif" font-size="10.00">/Users/fola/Documents</text>
<text text-anchor="start" x="430.12" y="-249.25" font-family="Helvetica,sans-Serif" font-size="10.00">/ArkScript/Ark/include</text>
<text text-anchor="middle" x="487.88" y="-238" font-family="Helvetica,sans-Serif" font-size="10.00">/Ark/Error/Diagnostics.hpp</text>
</a>
</g>
</g>
<!-- Node2 -->
<g id="Node000002" class="node">
<title>Node2</title>
<g id="a_Node000002"><a xlink:title=" ">
<polygon fill="#e0e0e0" stroke="#999999" points="518.88,-74.5 478.88,-74.5 478.88,-55.25 518.88,-55.25 518.88,-74.5"/>
<text text-anchor="middle" x="498.88" y="-61" font-family="Helvetica,sans-Serif" font-size="10.00">string</text>
</a>
</g>
</g>
<!-- Node1&#45;&gt;Node2 -->
<g id="edge1_Node000001_Node000002" class="edge">
<title>Node1&#45;&gt;Node2</title>
<g id="a_edge1_Node000001_Node000002"><a xlink:title=" ">
<path fill="none" stroke="#63b8ff" d="M500.48,-231.77C513.06,-210.17 531.53,-174.6 538.88,-141 541.77,-127.76 543.72,-123.16 538.88,-110.5 534.78,-99.8 526.8,-90.04 519.04,-82.4"/>
<polygon fill="#63b8ff" stroke="#63b8ff" points="521.77,-80.15 512.02,-76.01 517.06,-85.33 521.77,-80.15"/>
</a>
</g>
</g>
<!-- Node3 -->
<g id="Node000003" class="node">
<title>Node3</title>
<g id="a_Node000003"><a xlink:title=" ">
<polygon fill="#e0e0e0" stroke="#999999" points="49.75,-19.25 0,-19.25 0,0 49.75,0 49.75,-19.25"/>
<text text-anchor="middle" x="24.88" y="-5.75" font-family="Helvetica,sans-Serif" font-size="10.00">optional</text>
</a>
</g>
</g>
<!-- Node1&#45;&gt;Node3 -->
<g id="edge2_Node000001_Node000003" class="edge">
<title>Node1&#45;&gt;Node3</title>
<g id="a_edge2_Node000001_Node000003"><a xlink:title=" ">
<path fill="none" stroke="#63b8ff" d="M421.75,-247.31C325.79,-239.55 153.23,-222.43 96.88,-196.25 37.71,-168.76 24.37,-139.04 14.88,-74.5 12.72,-59.84 15.44,-43.32 18.59,-30.75"/>
<polygon fill="#63b8ff" stroke="#63b8ff" points="21.95,-31.75 21.3,-21.17 15.21,-29.84 21.95,-31.75"/>
</a>
</g>
</g>
<!-- Node4 -->
<g id="Node000004" class="node">
<title>Node4</title>
<g id="a_Node000004"><a xlink:title=" ">
<polygon fill="#e0e0e0" stroke="#999999" points="698.62,-196.25 645.12,-196.25 645.12,-177 698.62,-177 698.62,-196.25"/>
<text text-anchor="middle" x="671.88" y="-182.75" font-family="Helvetica,sans-Serif" font-size="10.00">iostream</text>
</a>
</g>
</g>
<!-- Node1&#45;&gt;Node4 -->
<g id="edge3_Node000001_Node000004" class="edge">
<title>Node1&#45;&gt;Node4</title>
<g id="a_edge3_Node000001_Node000004"><a xlink:title=" ">
<path fill="none" stroke="#63b8ff" d="M545.84,-231.81C575.2,-221.51 609.95,-209.33 635.52,-200.37"/>
<polygon fill="#63b8ff" stroke="#63b8ff" points="636.51,-203.73 644.79,-197.12 634.19,-197.12 636.51,-203.73"/>
</a>
</g>
</g>
<!-- Node5 -->
<g id="Node000005" class="node">
<title>Node5</title>
<g id="a_Node000005"><a xlink:href="../../d5/d40/Platform_8hpp.html" target="_top" xlink:title="ArkScript configuration macros.">
<polygon fill="white" stroke="#666666" points="275.25,-19.25 162.5,-19.25 162.5,0 275.25,0 275.25,-19.25"/>
<text text-anchor="middle" x="218.88" y="-5.75" font-family="Helvetica,sans-Serif" font-size="10.00">Ark/Utils/Platform.hpp</text>
</a>
</g>
</g>
<!-- Node1&#45;&gt;Node5 -->
<g id="edge4_Node000001_Node000005" class="edge">
<title>Node1&#45;&gt;Node5</title>
<g id="a_edge4_Node000001_Node000005"><a xlink:title=" ">
<path fill="none" stroke="#63b8ff" d="M510.07,-231.86C519.79,-221.95 530.62,-209.34 537.88,-196.25 568.32,-141.3 578.37,-92.63 527.88,-55.25 490.76,-27.78 366.19,-17.11 287.01,-13.04"/>
<polygon fill="#63b8ff" stroke="#63b8ff" points="287.34,-9.56 277.18,-12.56 287,-16.55 287.34,-9.56"/>
</a>
</g>
</g>
<!-- Node6 -->
<g id="Node000006" class="node">
<title>Node6</title>
<g id="a_Node000006"><a xlink:href="../../dc/d58/Position_8hpp.html" target="_top" xlink:title="Defines position utilities (for text in a file) for the parser, formatter, diagnostics.">
<polygon fill="white" stroke="#666666" points="164.5,-74.5 53.25,-74.5 53.25,-55.25 164.5,-55.25 164.5,-74.5"/>
<text text-anchor="middle" x="108.88" y="-61" font-family="Helvetica,sans-Serif" font-size="10.00">Ark/Utils/Position.hpp</text>
</a>
</g>
</g>
<!-- Node1&#45;&gt;Node6 -->
<g id="edge5_Node000001_Node000006" class="edge">
<title>Node1&#45;&gt;Node6</title>
<g id="a_edge5_Node000001_Node000006"><a xlink:title=" ">
<path fill="none" stroke="#63b8ff" d="M421.94,-245.52C309.79,-232.77 89.54,-200.61 43.88,-141 35.63,-130.24 37.56,-122.49 43.88,-110.5 50.75,-97.44 63.36,-87.47 75.66,-80.3"/>
<polygon fill="#63b8ff" stroke="#63b8ff" points="77.25,-83.41 84.45,-75.63 73.97,-77.23 77.25,-83.41"/>
</a>
</g>
</g>
<!-- Node7 -->
<g id="Node000007" class="node">
<title>Node7</title>
<g id="a_Node000007"><a xlink:href="../../d2/de9/Exceptions_8hpp.html" target="_top" xlink:title="ArkScript homemade exceptions.">
<polygon fill="white" stroke="#666666" points="383.62,-196.25 258.12,-196.25 258.12,-177 383.62,-177 383.62,-196.25"/>
<text text-anchor="middle" x="320.88" y="-182.75" font-family="Helvetica,sans-Serif" font-size="10.00">Ark/Error/Exceptions.hpp</text>
</a>
</g>
</g>
<!-- Node1&#45;&gt;Node7 -->
<g id="edge8_Node000001_Node000007" class="edge">
<title>Node1&#45;&gt;Node7</title>
<g id="a_edge8_Node000001_Node000007"><a xlink:title=" ">
<path fill="none" stroke="#63b8ff" d="M435.49,-231.89C409.19,-221.73 378.07,-209.72 354.91,-200.77"/>
<polygon fill="#63b8ff" stroke="#63b8ff" points="356.23,-197.53 345.64,-197.19 353.71,-204.06 356.23,-197.53"/>
</a>
</g>
</g>
<!-- Node6&#45;&gt;Node3 -->
<g id="edge6_Node000006_Node000003" class="edge">
<title>Node6&#45;&gt;Node3</title>
<g id="a_edge6_Node000006_Node000003"><a xlink:title=" ">
<path fill="none" stroke="#63b8ff" d="M94.63,-54.84C82.08,-46.89 63.54,-35.14 48.73,-25.75"/>
<polygon fill="#63b8ff" stroke="#63b8ff" points="50.79,-22.91 40.47,-20.51 47.04,-28.82 50.79,-22.91"/>
</a>
</g>
</g>
<!-- Node6&#45;&gt;Node5 -->
<g id="edge7_Node000006_Node000005" class="edge">
<title>Node6&#45;&gt;Node5</title>
<g id="a_edge7_Node000006_Node000005"><a xlink:title=" ">
<path fill="none" stroke="#63b8ff" d="M127.54,-54.84C144.6,-46.58 170.12,-34.23 189.85,-24.68"/>
<polygon fill="#63b8ff" stroke="#63b8ff" points="191.29,-27.87 198.76,-20.36 188.24,-21.57 191.29,-27.87"/>
</a>
</g>
</g>
<!-- Node7&#45;&gt;Node2 -->
<g id="edge9_Node000007_Node000002" class="edge">
<title>Node7&#45;&gt;Node2</title>
<g id="a_edge9_Node000007_Node000002"><a xlink:title=" ">
<path fill="none" stroke="#63b8ff" d="M384,-180.12C436.31,-174.1 504.76,-162.33 521.88,-141 535.16,-124.44 523.78,-100.23 512.82,-83.81"/>
<polygon fill="#63b8ff" stroke="#63b8ff" points="515.85,-82.02 507.16,-75.96 510.17,-86.11 515.85,-82.02"/>
</a>
</g>
</g>
<!-- Node7&#45;&gt;Node3 -->
<g id="edge12_Node000007_Node000003" class="edge">
<title>Node7&#45;&gt;Node3</title>
<g id="a_edge12_Node000007_Node000003"><a xlink:title=" ">
<path fill="none" stroke="#63b8ff" d="M257.93,-183.89C185.55,-180.5 72.93,-170.5 43.88,-141 15.06,-111.75 17.31,-59.42 21.23,-30.75"/>
<polygon fill="#63b8ff" stroke="#63b8ff" points="24.68,-31.34 22.81,-20.91 17.77,-30.24 24.68,-31.34"/>
</a>
</g>
</g>
<!-- Node7&#45;&gt;Node5 -->
<g id="edge17_Node000007_Node000005" class="edge">
<title>Node7&#45;&gt;Node5</title>
<g id="a_edge17_Node000007_Node000005"><a xlink:title=" ">
<path fill="none" stroke="#63b8ff" d="M258.91,-176.58C218.25,-169.23 170.38,-157.39 157.88,-141 149.65,-130.22 154.21,-123.55 157.88,-110.5 162.71,-93.29 189.72,-52.55 206.13,-28.76"/>
<polygon fill="#63b8ff" stroke="#63b8ff" points="208.91,-30.89 211.75,-20.69 203.17,-26.9 208.91,-30.89"/>
</a>
</g>
</g>
<!-- Node8 -->
<g id="Node000008" class="node">
<title>Node8</title>
<g id="a_Node000008"><a xlink:title=" ">
<polygon fill="#e0e0e0" stroke="#999999" points="512.5,-135.38 473.25,-135.38 473.25,-116.12 512.5,-116.12 512.5,-135.38"/>
<text text-anchor="middle" x="492.88" y="-121.88" font-family="Helvetica,sans-Serif" font-size="10.00">utility</text>
</a>
</g>
</g>
<!-- Node7&#45;&gt;Node8 -->
<g id="edge10_Node000007_Node000008" class="edge">
<title>Node7&#45;&gt;Node8</title>
<g id="a_edge10_Node000007_Node000008"><a xlink:title=" ">
<path fill="none" stroke="#63b8ff" d="M356.08,-176.52C385.6,-168.46 428.62,-155.72 464.88,-141 465.23,-140.86 465.58,-140.71 465.93,-140.56"/>
<polygon fill="#63b8ff" stroke="#63b8ff" points="467.23,-143.82 474.84,-136.45 464.29,-137.47 467.23,-143.82"/>
</a>
</g>
</g>
<!-- Node9 -->
<g id="Node000009" class="node">
<title>Node9</title>
<g id="a_Node000009"><a xlink:title=" ">
<polygon fill="#e0e0e0" stroke="#999999" points="111.25,-135.38 52.5,-135.38 52.5,-116.12 111.25,-116.12 111.25,-135.38"/>
<text text-anchor="middle" x="81.88" y="-121.88" font-family="Helvetica,sans-Serif" font-size="10.00">stdexcept</text>
</a>
</g>
</g>
<!-- Node7&#45;&gt;Node9 -->
<g id="edge11_Node000007_Node000009" class="edge">
<title>Node7&#45;&gt;Node9</title>
<g id="a_edge11_Node000007_Node000009"><a xlink:title=" ">
<path fill="none" stroke="#63b8ff" d="M275.41,-176.57C235.49,-168.31 175.97,-155.25 124.88,-141 122.77,-140.41 120.62,-139.79 118.46,-139.14"/>
<polygon fill="#63b8ff" stroke="#63b8ff" points="119.71,-135.86 109.12,-136.2 117.61,-142.54 119.71,-135.86"/>
</a>
</g>
</g>
<!-- Node10 -->
<g id="Node000010" class="node">
<title>Node10</title>
<g id="a_Node000010"><a xlink:href="../../db/d4e/utf8__char_8hpp.html" target="_top" xlink:title=" ">
<polygon fill="white" stroke="#666666" points="455.38,-141 340.38,-141 340.38,-110.5 455.38,-110.5 455.38,-141"/>
<text text-anchor="start" x="348.38" y="-127.5" font-family="Helvetica,sans-Serif" font-size="10.00">Ark/Compiler/AST/utf8</text>
<text text-anchor="middle" x="397.88" y="-116.25" font-family="Helvetica,sans-Serif" font-size="10.00">_char.hpp</text>
</a>
</g>
</g>
<!-- Node7&#45;&gt;Node10 -->
<g id="edge13_Node000007_Node000010" class="edge">
<title>Node7&#45;&gt;Node10</title>
<g id="a_edge13_Node000007_Node000010"><a xlink:title=" ">
<path fill="none" stroke="#63b8ff" d="M332.57,-176.68C342.46,-169.12 357.02,-157.99 369.89,-148.15"/>
<polygon fill="#63b8ff" stroke="#63b8ff" points="371.85,-151.06 377.67,-142.2 367.6,-145.5 371.85,-151.06"/>
</a>
</g>
</g>
<!-- Node13 -->
<g id="Node000013" class="node">
<title>Node13</title>
<g id="a_Node000013"><a xlink:href="../../dc/d73/CodeErrorContext_8hpp.html" target="_top" xlink:title="Defines a code error context.">
<polygon fill="white" stroke="#666666" points="322.62,-135.38 167.12,-135.38 167.12,-116.12 322.62,-116.12 322.62,-135.38"/>
<text text-anchor="middle" x="244.88" y="-121.88" font-family="Helvetica,sans-Serif" font-size="10.00">Ark/Error/CodeErrorContext.hpp</text>
</a>
</g>
</g>
<!-- Node7&#45;&gt;Node13 -->
<g id="edge18_Node000007_Node000013" class="edge">
<title>Node7&#45;&gt;Node13</title>
<g id="a_edge18_Node000007_Node000013"><a xlink:title=" ">
<path fill="none" stroke="#63b8ff" d="M309.33,-176.68C297.73,-167.69 279.58,-153.64 265.5,-142.73"/>
<polygon fill="#63b8ff" stroke="#63b8ff" points="267.77,-140.06 257.72,-136.7 263.48,-145.59 267.77,-140.06"/>
</a>
</g>
</g>
<!-- Node10&#45;&gt;Node2 -->
<g id="edge15_Node000010_Node000002" class="edge">
<title>Node10&#45;&gt;Node2</title>
<g id="a_edge15_Node000010_Node000002"><a xlink:title=" ">
<path fill="none" stroke="#63b8ff" d="M423.1,-110.05C438.48,-101.08 458.08,-89.66 473.49,-80.67"/>
<polygon fill="#63b8ff" stroke="#63b8ff" points="475.2,-83.73 482.08,-75.67 471.68,-77.68 475.2,-83.73"/>
</a>
</g>
</g>
<!-- Node11 -->
<g id="Node000011" class="node">
<title>Node11</title>
<g id="a_Node000011"><a xlink:title=" ">
<polygon fill="#e0e0e0" stroke="#999999" points="380.75,-74.5 343,-74.5 343,-55.25 380.75,-55.25 380.75,-74.5"/>
<text text-anchor="middle" x="361.88" y="-61" font-family="Helvetica,sans-Serif" font-size="10.00">array</text>
</a>
</g>
</g>
<!-- Node10&#45;&gt;Node11 -->
<g id="edge14_Node000010_Node000011" class="edge">
<title>Node10&#45;&gt;Node11</title>
<g id="a_edge14_Node000010_Node000011"><a xlink:title=" ">
<path fill="none" stroke="#63b8ff" d="M388.98,-110.2C384.23,-102.44 378.35,-92.81 373.27,-84.51"/>
<polygon fill="#63b8ff" stroke="#63b8ff" points="376.42,-82.95 368.21,-76.24 370.45,-86.6 376.42,-82.95"/>
</a>
</g>
</g>
<!-- Node12 -->
<g id="Node000012" class="node">
<title>Node12</title>
<g id="a_Node000012"><a xlink:title=" ">
<polygon fill="#e0e0e0" stroke="#999999" points="438.5,-74.5 399.25,-74.5 399.25,-55.25 438.5,-55.25 438.5,-74.5"/>
<text text-anchor="middle" x="418.88" y="-61" font-family="Helvetica,sans-Serif" font-size="10.00">limits</text>
</a>
</g>
</g>
<!-- Node10&#45;&gt;Node12 -->
<g id="edge16_Node000010_Node000012" class="edge">
<title>Node10&#45;&gt;Node12</title>
<g id="a_edge16_Node000010_Node000012"><a xlink:title=" ">
<path fill="none" stroke="#63b8ff" d="M403.07,-110.2C405.71,-102.78 408.96,-93.66 411.83,-85.63"/>
<polygon fill="#63b8ff" stroke="#63b8ff" points="415.07,-86.97 415.13,-76.38 408.47,-84.62 415.07,-86.97"/>
</a>
</g>
</g>
<!-- Node13&#45;&gt;Node2 -->
<g id="edge19_Node000013_Node000002" class="edge">
<title>Node13&#45;&gt;Node2</title>
<g id="a_edge19_Node000013_Node000002"><a xlink:title=" ">
<path fill="none" stroke="#63b8ff" d="M284.01,-115.68C334.44,-103.99 421.15,-83.89 467.5,-73.15"/>
<polygon fill="#63b8ff" stroke="#63b8ff" points="468.21,-76.58 477.16,-70.91 466.63,-69.76 468.21,-76.58"/>
</a>
</g>
</g>
<!-- Node13&#45;&gt;Node5 -->
<g id="edge20_Node000013_Node000005" class="edge">
<title>Node13&#45;&gt;Node5</title>
<g id="a_edge20_Node000013_Node000005"><a xlink:title=" ">
<path fill="none" stroke="#63b8ff" d="M242.83,-115.79C238.68,-97.54 229.13,-55.66 223.43,-30.6"/>
<polygon fill="#63b8ff" stroke="#63b8ff" points="226.88,-29.99 221.24,-21.01 220.05,-31.54 226.88,-29.99"/>
</a>
</g>
</g>
<!-- Node13&#45;&gt;Node6 -->
<g id="edge21_Node000013_Node000006" class="edge">
<title>Node13&#45;&gt;Node6</title>
<g id="a_edge21_Node000013_Node000006"><a xlink:title=" ">
<path fill="none" stroke="#63b8ff" d="M223.92,-115.68C201.5,-105.97 165.68,-90.46 139.96,-79.33"/>
<polygon fill="#63b8ff" stroke="#63b8ff" points="141.58,-76.22 131.02,-75.46 138.8,-82.64 141.58,-76.22"/>
</a>
</g>
</g>
</g>
</svg>

<g id="navigator" transform="translate(0 0)" fill="#404254">
  <rect fill="#f2f5e9" fill-opacity="0.5" stroke="#606060" stroke-width=".5" x="0" y="0" width="60" height="60"/>
  <use id="zoomplus" xlink:href="#zoomPlus" x="17" y="9" onmousedown="handleZoom(evt,'in')"/>
  <use id="zoomminus" xlink:href="#zoomMin" x="42" y="9" onmousedown="handleZoom(evt,'out')"/>
  <use id="reset" xlink:href="#resetDef" x="30" y="36" onmousedown="handleReset()"/>
   <use id="arrowup" xlink:href="#arrowUp" x="0" y="0" onmousedown="handlePan(0,-1)"/>
  <use id="arrowright" xlink:href="#arrowRight" x="0" y="0" onmousedown="handlePan(1,0)"/>
  <use id="arrowdown" xlink:href="#arrowDown" x="0" y="0" onmousedown="handlePan(0,1)"/>
  <use id="arrowleft" xlink:href="#arrowLeft" x="0" y="0" onmousedown="handlePan(-1,0)"/>
</g>
<svg viewBox="0 0 15 15" width="100%" height="30px" preserveAspectRatio="xMaxYMin meet">
 <g id="arrow_out" transform="scale(0.3 0.3)">
  <a xlink:href="Diagnostics_8hpp__incl_org.svg" target="_base">
   <rect id="button" ry="5" rx="5" y="6" x="6" height="38" width="38"
        fill="#f2f5e9" fill-opacity="0.5" stroke="#606060" stroke-width="1.0"/>
   <path id="arrow"
     d="M 11.500037,31.436501 C 11.940474,20.09759 22.043105,11.32322 32.158766,21.979434 L 37.068811,17.246167 C 37.068811,17.246167 37.088388,32 37.088388,32 L 22.160133,31.978069 C 22.160133,31.978069 26.997745,27.140456 26.997745,27.140456 C 18.528582,18.264221 13.291696,25.230495 11.500037,31.436501 z"
     style="fill:#404040;"/>
  </a>
 </g>
</svg>

<style type='text/css'>
<![CDATA[
[data-mouse-over-selected='false'] { opacity: 0.7; }
[data-mouse-over-selected='true']  { opacity: 1.0; }
]]>
</style>
<script type="application/ecmascript"><![CDATA[
document.addEventListener('DOMContentLoaded', (event) => {
  highlightEdges();
  highlightAdjacentNodes();
});
]]></script>
</svg>
