<?xml version="1.0" encoding="UTF-8" standalone="no"?>
<!DOCTYPE svg PUBLIC "-//W3C//DTD SVG 1.1//EN"
 "http://www.w3.org/Graphics/SVG/1.1/DTD/svg11.dtd">
<!-- Generated by graphviz version 12.2.0 (20241103.1931)
 -->
<!-- Title: Ark::Diagnostics::Printer Pages: 1 -->
<!--zoomable 191 -->

<svg id="main" version="1.1" xmlns="http://www.w3.org/2000/svg" xmlns:xlink="http://www.w3.org/1999/xlink" xml:space="preserve" onload="init(evt)">

<style type="text/css"><![CDATA[
.node, .edge {opacity: 0.7;}
.node.selected, .edge.selected {opacity: 1;}
.edge:hover path { stroke: red; }
.edge:hover polygon { stroke: red; fill: red; }
]]></style>

<defs>
  <circle id="rim" cx="0" cy="0" r="7"/>
  <circle id="rim2" cx="0" cy="0" r="3.5"/>
  <g id="zoomPlus">
    <use xlink:href="#rim" fill="#404040"><set attributeName="fill" to="#808080" begin="zoomplus.mouseover" end="zoomplus.mouseout"/></use>
    <path d="M-4,0h8M0,-4v8" fill="none" stroke="white" stroke-width="1.5" pointer-events="none"/>
  </g>
  <g id="zoomMin">
    <use xlink:href="#rim" fill="#404040"><set attributeName="fill" to="#808080" begin="zoomminus.mouseover" end="zoomminus.mouseout"/></use>
    <path d="M-4,0h8" fill="none" stroke="white" stroke-width="1.5" pointer-events="none"/>
  </g>
  <g id="arrowUp" transform="translate(30 24)">
    <use xlink:href="#rim"/>
    <path pointer-events="none" fill="none" stroke="white" stroke-width="1.5" d="M0,-3.0v7 M-2.5,-0.5L0,-3.0L2.5,-0.5"/>
  </g>
  <g id="arrowRight" transform="rotate(90) translate(36 -43)">
    <use xlink:href="#rim"/>
    <path pointer-events="none" fill="none" stroke="white" stroke-width="1.5" d="M0,-3.0v7 M-2.5,-0.5L0,-3.0L2.5,-0.5"/>
  </g>
  <g id="arrowDown" transform="rotate(180) translate(-30 -48)">
    <use xlink:href="#rim"/>
    <path pointer-events="none" fill="none" stroke="white" stroke-width="1.5" d="M0,-3.0v7 M-2.5,-0.5L0,-3.0L2.5,-0.5"/>
  </g>
  <g id="arrowLeft" transform="rotate(270) translate(-36 17)">
    <use xlink:href="#rim"/>
    <path pointer-events="none" fill="none" stroke="white" stroke-width="1.5" d="M0,-3.0v7 M-2.5,-0.5L0,-3.0L2.5,-0.5"/>
  </g>
  <g id="resetDef">
    <use xlink:href="#rim2" fill="#404040"><set attributeName="fill" to="#808080" begin="reset.mouseover" end="reset.mouseout"/></use>
  </g>
</defs>
<script type="application/ecmascript">
var viewWidth = 719;
var viewHeight = 191;
var sectionId = 'dynsection-0';
</script>
<script type="application/ecmascript" xlink:href="../../svg.min.js"/>
<svg id="graph" class="graph">
<g id="viewport">
<title>Ark::Diagnostics::Printer</title>
<!-- Node1 -->
<g id="Node000001" class="node">
<title>Node1</title>
<g id="a_Node000001"><a xlink:title="Source printer for diagnostics.">
<polygon fill="#999999" stroke="#666666" points="711.25,-90.88 588,-90.88 588,-71.62 711.25,-71.62 711.25,-90.88"/>
<text text-anchor="middle" x="649.62" y="-77.38" font-family="Helvetica,sans-Serif" font-size="10.00">Ark::Diagnostics::Printer</text>
</a>
</g>
</g>
<!-- Node2 -->
<g id="Node000002" class="node">
<title>Node2</title>
<g id="a_Node000002"><a xlink:title=" ">
<polygon fill="white" stroke="#666666" points="245.75,-125.88 186.25,-125.88 186.25,-106.62 245.75,-106.62 245.75,-125.88"/>
<text text-anchor="middle" x="216" y="-112.38" font-family="Helvetica,sans-Serif" font-size="10.00">std::string</text>
</a>
</g>
</g>
<!-- Node2&#45;&gt;Node1 -->
<g id="edge1_Node000001_Node000002" class="edge">
<title>Node2&#45;&gt;Node1</title>
<g id="a_edge1_Node000001_Node000002"><a xlink:title=" ">
<path fill="none" stroke="#9a32cd" stroke-dasharray="5,2" d="M257.41,-112.97C333.5,-106.8 498.39,-93.43 587.88,-86.18"/>
<polygon fill="#9a32cd" stroke="#9a32cd" points="257.18,-109.48 247.5,-113.78 257.75,-116.46 257.18,-109.48"/>
</a>
</g>
<text text-anchor="middle" x="427.75" y="-106.24" font-family="Helvetica,sans-Serif" font-size="10.00" fill="grey"> GhostLinePrefix</text>
</g>
<!-- Node4 -->
<g id="Node000004" class="node">
<title>Node4</title>
<g id="a_Node000004"><a xlink:title=" ">
<polygon fill="white" stroke="#666666" points="489.75,-152.88 365.75,-152.88 365.75,-133.62 489.75,-133.62 489.75,-152.88"/>
<text text-anchor="middle" x="427.75" y="-139.38" font-family="Helvetica,sans-Serif" font-size="10.00">std::vector&lt; std::string &gt;</text>
</a>
</g>
</g>
<!-- Node2&#45;&gt;Node4 -->
<g id="edge4_Node000004_Node000002" class="edge">
<title>Node2&#45;&gt;Node4</title>
<g id="a_edge4_Node000004_Node000002"><a xlink:title=" ">
<path fill="none" stroke="#9a32cd" stroke-dasharray="5,2" d="M257.28,-121.44C287.94,-125.38 330.65,-130.88 365.53,-135.37"/>
<polygon fill="#9a32cd" stroke="#9a32cd" points="258.03,-118 247.67,-120.2 257.14,-124.95 258.03,-118"/>
</a>
</g>
<text text-anchor="middle" x="309.5" y="-133.92" font-family="Helvetica,sans-Serif" font-size="10.00" fill="grey"> elements</text>
</g>
<!-- Node3 -->
<g id="Node000003" class="node">
<title>Node3</title>
<g id="a_Node000003"><a xlink:title=" ">
<polygon fill="white" stroke="#666666" points="94,-131.5 0,-131.5 0,-101 94,-101 94,-131.5"/>
<text text-anchor="start" x="8" y="-118" font-family="Helvetica,sans-Serif" font-size="10.00">std::basic_string&lt;</text>
<text text-anchor="middle" x="47" y="-106.75" font-family="Helvetica,sans-Serif" font-size="10.00"> Char &gt;</text>
</a>
</g>
</g>
<!-- Node3&#45;&gt;Node2 -->
<g id="edge2_Node000002_Node000003" class="edge">
<title>Node3&#45;&gt;Node2</title>
<g id="a_edge2_Node000002_Node000003"><a xlink:title=" ">
<path fill="none" stroke="#63b8ff" d="M105.41,-116.25C132.52,-116.25 163.72,-116.25 185.88,-116.25"/>
<polygon fill="#63b8ff" stroke="#63b8ff" points="105.59,-112.75 95.59,-116.25 105.59,-119.75 105.59,-112.75"/>
</a>
</g>
</g>
<!-- Node4&#45;&gt;Node1 -->
<g id="edge3_Node000001_Node000004" class="edge">
<title>Node4&#45;&gt;Node1</title>
<g id="a_edge3_Node000001_Node000004"><a xlink:title=" ">
<path fill="none" stroke="#9a32cd" stroke-dasharray="5,2" d="M501.22,-134.2C523.57,-130.41 548.07,-125.21 570,-118.25 591.71,-111.35 615.16,-99.72 630.75,-91.34"/>
<polygon fill="#9a32cd" stroke="#9a32cd" points="500.89,-130.71 491.58,-135.76 502.02,-137.62 500.89,-130.71"/>
</a>
</g>
<text text-anchor="middle" x="541.88" y="-133.19" font-family="Helvetica,sans-Serif" font-size="10.00" fill="grey"> m_source</text>
</g>
<!-- Node5 -->
<g id="Node000005" class="node">
<title>Node5</title>
<g id="a_Node000005"><a xlink:title=" ">
<polygon fill="white" stroke="#666666" points="259.25,-180.88 172.75,-180.88 172.75,-161.62 259.25,-161.62 259.25,-180.88"/>
<text text-anchor="middle" x="216" y="-167.38" font-family="Helvetica,sans-Serif" font-size="10.00">std::vector&lt; T &gt;</text>
</a>
</g>
</g>
<!-- Node5&#45;&gt;Node4 -->
<g id="edge5_Node000004_Node000005" class="edge">
<title>Node5&#45;&gt;Node4</title>
<g id="a_edge5_Node000004_Node000005"><a xlink:title=" ">
<path fill="none" stroke="orange" stroke-dasharray="5,2" d="M270.82,-164.07C299.71,-160.21 335.45,-155.44 365.42,-151.44"/>
<polygon fill="orange" stroke="orange" points="270.65,-160.56 261.2,-165.35 271.57,-167.5 270.65,-160.56"/>
</a>
</g>
<text text-anchor="middle" x="309.5" y="-164.73" font-family="Helvetica,sans-Serif" font-size="10.00" fill="grey"> &lt; std::string &gt;</text>
</g>
<!-- Node6 -->
<g id="Node000006" class="node">
<title>Node6</title>
<g id="a_Node000006"><a xlink:title=" ">
<polygon fill="white" stroke="#666666" points="61.4,-180.88 32.6,-180.88 32.6,-161.62 61.4,-161.62 61.4,-180.88"/>
<text text-anchor="middle" x="47" y="-167.38" font-family="Helvetica,sans-Serif" font-size="10.00">T</text>
</a>
</g>
</g>
<!-- Node6&#45;&gt;Node5 -->
<g id="edge6_Node000005_Node000006" class="edge">
<title>Node6&#45;&gt;Node5</title>
<g id="a_edge6_Node000005_Node000006"><a xlink:title=" ">
<path fill="none" stroke="#9a32cd" stroke-dasharray="5,2" d="M72.86,-171.25C99.09,-171.25 140.94,-171.25 172.44,-171.25"/>
<polygon fill="#9a32cd" stroke="#9a32cd" points="73.18,-167.75 63.18,-171.25 73.18,-174.75 73.18,-167.75"/>
</a>
</g>
<text text-anchor="middle" x="133.38" y="-173" font-family="Helvetica,sans-Serif" font-size="10.00" fill="grey"> elements</text>
</g>
<!-- Node7 -->
<g id="Node000007" class="node">
<title>Node7</title>
<g id="a_Node000007"><a xlink:href="../../d5/db9/structArk_1_1Diagnostics_1_1Window.html" target="_top" xlink:title=" ">
<polygon fill="white" stroke="#666666" points="492.75,-67.88 362.75,-67.88 362.75,-48.62 492.75,-48.62 492.75,-67.88"/>
<text text-anchor="middle" x="427.75" y="-54.38" font-family="Helvetica,sans-Serif" font-size="10.00">Ark::Diagnostics::Window</text>
</a>
</g>
</g>
<!-- Node7&#45;&gt;Node1 -->
<g id="edge7_Node000001_Node000007" class="edge">
<title>Node7&#45;&gt;Node1</title>
<g id="a_edge7_Node000001_Node000007"><a xlink:title=" ">
<path fill="none" stroke="#9a32cd" stroke-dasharray="5,2" d="M504.63,-66.19C531.72,-69.02 561.86,-72.17 587.54,-74.86"/>
<polygon fill="#9a32cd" stroke="#9a32cd" points="505.05,-62.71 494.74,-65.15 504.32,-69.67 505.05,-62.71"/>
</a>
</g>
<text text-anchor="middle" x="541.88" y="-74.24" font-family="Helvetica,sans-Serif" font-size="10.00" fill="grey"> m_window</text>
</g>
<!-- Node8 -->
<g id="Node000008" class="node">
<title>Node8</title>
<g id="a_Node000008"><a xlink:href="../../d1/d92/structArk_1_1Diagnostics_1_1LineColorContextCounts.html" target="_top" xlink:title=" ">
<polygon fill="white" stroke="#666666" points="495.75,-30.5 359.75,-30.5 359.75,0 495.75,0 495.75,-30.5"/>
<text text-anchor="start" x="367.75" y="-17" font-family="Helvetica,sans-Serif" font-size="10.00">Ark::Diagnostics::LineColor</text>
<text text-anchor="middle" x="427.75" y="-5.75" font-family="Helvetica,sans-Serif" font-size="10.00">ContextCounts</text>
</a>
</g>
</g>
<!-- Node8&#45;&gt;Node1 -->
<g id="edge8_Node000001_Node000008" class="edge">
<title>Node8&#45;&gt;Node1</title>
<g id="a_edge8_Node000001_Node000008"><a xlink:title=" ">
<path fill="none" stroke="#9a32cd" stroke-dasharray="5,2" d="M505.99,-33.83C526.89,-39.27 549.41,-45.51 570,-52 588.2,-57.74 608.36,-65.26 623.71,-71.24"/>
<polygon fill="#9a32cd" stroke="#9a32cd" points="506.92,-30.46 496.37,-31.36 505.18,-37.24 506.92,-30.46"/>
</a>
</g>
<text text-anchor="middle" x="541.88" y="-53.75" font-family="Helvetica,sans-Serif" font-size="10.00" fill="grey"> m_color_ctx</text>
</g>
</g>
</svg>

<g id="navigator" transform="translate(0 0)" fill="#404254">
  <rect fill="#f2f5e9" fill-opacity="0.5" stroke="#606060" stroke-width=".5" x="0" y="0" width="60" height="60"/>
  <use id="zoomplus" xlink:href="#zoomPlus" x="17" y="9" onmousedown="handleZoom(evt,'in')"/>
  <use id="zoomminus" xlink:href="#zoomMin" x="42" y="9" onmousedown="handleZoom(evt,'out')"/>
  <use id="reset" xlink:href="#resetDef" x="30" y="36" onmousedown="handleReset()"/>
   <use id="arrowup" xlink:href="#arrowUp" x="0" y="0" onmousedown="handlePan(0,-1)"/>
  <use id="arrowright" xlink:href="#arrowRight" x="0" y="0" onmousedown="handlePan(1,0)"/>
  <use id="arrowdown" xlink:href="#arrowDown" x="0" y="0" onmousedown="handlePan(0,1)"/>
  <use id="arrowleft" xlink:href="#arrowLeft" x="0" y="0" onmousedown="handlePan(-1,0)"/>
</g>
<svg viewBox="0 0 15 15" width="100%" height="30px" preserveAspectRatio="xMaxYMin meet">
 <g id="arrow_out" transform="scale(0.3 0.3)">
  <a xlink:href="classArk_1_1Diagnostics_1_1Printer__coll__graph_org.svg" target="_base">
   <rect id="button" ry="5" rx="5" y="6" x="6" height="38" width="38"
        fill="#f2f5e9" fill-opacity="0.5" stroke="#606060" stroke-width="1.0"/>
   <path id="arrow"
     d="M 11.500037,31.436501 C 11.940474,20.09759 22.043105,11.32322 32.158766,21.979434 L 37.068811,17.246167 C 37.068811,17.246167 37.088388,32 37.088388,32 L 22.160133,31.978069 C 22.160133,31.978069 26.997745,27.140456 26.997745,27.140456 C 18.528582,18.264221 13.291696,25.230495 11.500037,31.436501 z"
     style="fill:#404040;"/>
  </a>
 </g>
</svg>

<style type='text/css'>
<![CDATA[
[data-mouse-over-selected='false'] { opacity: 0.7; }
[data-mouse-over-selected='true']  { opacity: 1.0; }
]]>
</style>
<script type="application/ecmascript"><![CDATA[
document.addEventListener('DOMContentLoaded', (event) => {
  highlightEdges();
  highlightAdjacentNodes();
});
]]></script>
</svg>
