<?xml version="1.0" encoding="UTF-8" standalone="no"?>
<!DOCTYPE svg PUBLIC "-//W3C//DTD SVG 1.1//EN"
 "http://www.w3.org/Graphics/SVG/1.1/DTD/svg11.dtd">
<!-- Generated by graphviz version 12.2.0 (20241103.1931)
 -->
<!-- Title: Ark::Diagnostics::Printer Pages: 1 -->
<svg width="719pt" height="191pt"
 viewBox="0.00 0.00 719.25 190.50" xmlns="http://www.w3.org/2000/svg" xmlns:xlink="http://www.w3.org/1999/xlink">
<g id="graph0" class="graph" transform="scale(1 1) rotate(0) translate(4 186.5)">
<title>Ark::Diagnostics::Printer</title>
<!-- Node1 -->
<g id="Node000001" class="node">
<title>Node1</title>
<g id="a_Node000001"><a xlink:title="Source printer for diagnostics.">
<polygon fill="#999999" stroke="#666666" points="711.25,-90.88 588,-90.88 588,-71.62 711.25,-71.62 711.25,-90.88"/>
<text text-anchor="middle" x="649.62" y="-77.38" font-family="Helvetica,sans-Serif" font-size="10.00">Ark::Diagnostics::Printer</text>
</a>
</g>
</g>
<!-- Node2 -->
<g id="Node000002" class="node">
<title>Node2</title>
<g id="a_Node000002"><a xlink:title=" ">
<polygon fill="white" stroke="#666666" points="245.75,-125.88 186.25,-125.88 186.25,-106.62 245.75,-106.62 245.75,-125.88"/>
<text text-anchor="middle" x="216" y="-112.38" font-family="Helvetica,sans-Serif" font-size="10.00">std::string</text>
</a>
</g>
</g>
<!-- Node2&#45;&gt;Node1 -->
<g id="edge1_Node000001_Node000002" class="edge">
<title>Node2&#45;&gt;Node1</title>
<g id="a_edge1_Node000001_Node000002"><a xlink:title=" ">
<path fill="none" stroke="#9a32cd" stroke-dasharray="5,2" d="M257.41,-112.97C333.5,-106.8 498.39,-93.43 587.88,-86.18"/>
<polygon fill="#9a32cd" stroke="#9a32cd" points="257.18,-109.48 247.5,-113.78 257.75,-116.46 257.18,-109.48"/>
</a>
</g>
<text text-anchor="middle" x="427.75" y="-106.24" font-family="Helvetica,sans-Serif" font-size="10.00" fill="grey"> GhostLinePrefix</text>
</g>
<!-- Node4 -->
<g id="Node000004" class="node">
<title>Node4</title>
<g id="a_Node000004"><a xlink:title=" ">
<polygon fill="white" stroke="#666666" points="489.75,-152.88 365.75,-152.88 365.75,-133.62 489.75,-133.62 489.75,-152.88"/>
<text text-anchor="middle" x="427.75" y="-139.38" font-family="Helvetica,sans-Serif" font-size="10.00">std::vector&lt; std::string &gt;</text>
</a>
</g>
</g>
<!-- Node2&#45;&gt;Node4 -->
<g id="edge4_Node000004_Node000002" class="edge">
<title>Node2&#45;&gt;Node4</title>
<g id="a_edge4_Node000004_Node000002"><a xlink:title=" ">
<path fill="none" stroke="#9a32cd" stroke-dasharray="5,2" d="M257.28,-121.44C287.94,-125.38 330.65,-130.88 365.53,-135.37"/>
<polygon fill="#9a32cd" stroke="#9a32cd" points="258.03,-118 247.67,-120.2 257.14,-124.95 258.03,-118"/>
</a>
</g>
<text text-anchor="middle" x="309.5" y="-133.92" font-family="Helvetica,sans-Serif" font-size="10.00" fill="grey"> elements</text>
</g>
<!-- Node3 -->
<g id="Node000003" class="node">
<title>Node3</title>
<g id="a_Node000003"><a xlink:title=" ">
<polygon fill="white" stroke="#666666" points="94,-131.5 0,-131.5 0,-101 94,-101 94,-131.5"/>
<text text-anchor="start" x="8" y="-118" font-family="Helvetica,sans-Serif" font-size="10.00">std::basic_string&lt;</text>
<text text-anchor="middle" x="47" y="-106.75" font-family="Helvetica,sans-Serif" font-size="10.00"> Char &gt;</text>
</a>
</g>
</g>
<!-- Node3&#45;&gt;Node2 -->
<g id="edge2_Node000002_Node000003" class="edge">
<title>Node3&#45;&gt;Node2</title>
<g id="a_edge2_Node000002_Node000003"><a xlink:title=" ">
<path fill="none" stroke="#63b8ff" d="M105.41,-116.25C132.52,-116.25 163.72,-116.25 185.88,-116.25"/>
<polygon fill="#63b8ff" stroke="#63b8ff" points="105.59,-112.75 95.59,-116.25 105.59,-119.75 105.59,-112.75"/>
</a>
</g>
</g>
<!-- Node4&#45;&gt;Node1 -->
<g id="edge3_Node000001_Node000004" class="edge">
<title>Node4&#45;&gt;Node1</title>
<g id="a_edge3_Node000001_Node000004"><a xlink:title=" ">
<path fill="none" stroke="#9a32cd" stroke-dasharray="5,2" d="M501.22,-134.2C523.57,-130.41 548.07,-125.21 570,-118.25 591.71,-111.35 615.16,-99.72 630.75,-91.34"/>
<polygon fill="#9a32cd" stroke="#9a32cd" points="500.89,-130.71 491.58,-135.76 502.02,-137.62 500.89,-130.71"/>
</a>
</g>
<text text-anchor="middle" x="541.88" y="-133.19" font-family="Helvetica,sans-Serif" font-size="10.00" fill="grey"> m_source</text>
</g>
<!-- Node5 -->
<g id="Node000005" class="node">
<title>Node5</title>
<g id="a_Node000005"><a xlink:title=" ">
<polygon fill="white" stroke="#666666" points="259.25,-180.88 172.75,-180.88 172.75,-161.62 259.25,-161.62 259.25,-180.88"/>
<text text-anchor="middle" x="216" y="-167.38" font-family="Helvetica,sans-Serif" font-size="10.00">std::vector&lt; T &gt;</text>
</a>
</g>
</g>
<!-- Node5&#45;&gt;Node4 -->
<g id="edge5_Node000004_Node000005" class="edge">
<title>Node5&#45;&gt;Node4</title>
<g id="a_edge5_Node000004_Node000005"><a xlink:title=" ">
<path fill="none" stroke="orange" stroke-dasharray="5,2" d="M270.82,-164.07C299.71,-160.21 335.45,-155.44 365.42,-151.44"/>
<polygon fill="orange" stroke="orange" points="270.65,-160.56 261.2,-165.35 271.57,-167.5 270.65,-160.56"/>
</a>
</g>
<text text-anchor="middle" x="309.5" y="-164.73" font-family="Helvetica,sans-Serif" font-size="10.00" fill="grey"> &lt; std::string &gt;</text>
</g>
<!-- Node6 -->
<g id="Node000006" class="node">
<title>Node6</title>
<g id="a_Node000006"><a xlink:title=" ">
<polygon fill="white" stroke="#666666" points="61.4,-180.88 32.6,-180.88 32.6,-161.62 61.4,-161.62 61.4,-180.88"/>
<text text-anchor="middle" x="47" y="-167.38" font-family="Helvetica,sans-Serif" font-size="10.00">T</text>
</a>
</g>
</g>
<!-- Node6&#45;&gt;Node5 -->
<g id="edge6_Node000005_Node000006" class="edge">
<title>Node6&#45;&gt;Node5</title>
<g id="a_edge6_Node000005_Node000006"><a xlink:title=" ">
<path fill="none" stroke="#9a32cd" stroke-dasharray="5,2" d="M72.86,-171.25C99.09,-171.25 140.94,-171.25 172.44,-171.25"/>
<polygon fill="#9a32cd" stroke="#9a32cd" points="73.18,-167.75 63.18,-171.25 73.18,-174.75 73.18,-167.75"/>
</a>
</g>
<text text-anchor="middle" x="133.38" y="-173" font-family="Helvetica,sans-Serif" font-size="10.00" fill="grey"> elements</text>
</g>
<!-- Node7 -->
<g id="Node000007" class="node">
<title>Node7</title>
<g id="a_Node000007"><a xlink:href="../../d5/db9/structArk_1_1Diagnostics_1_1Window.html" target="_top" xlink:title=" ">
<polygon fill="white" stroke="#666666" points="492.75,-67.88 362.75,-67.88 362.75,-48.62 492.75,-48.62 492.75,-67.88"/>
<text text-anchor="middle" x="427.75" y="-54.38" font-family="Helvetica,sans-Serif" font-size="10.00">Ark::Diagnostics::Window</text>
</a>
</g>
</g>
<!-- Node7&#45;&gt;Node1 -->
<g id="edge7_Node000001_Node000007" class="edge">
<title>Node7&#45;&gt;Node1</title>
<g id="a_edge7_Node000001_Node000007"><a xlink:title=" ">
<path fill="none" stroke="#9a32cd" stroke-dasharray="5,2" d="M504.63,-66.19C531.72,-69.02 561.86,-72.17 587.54,-74.86"/>
<polygon fill="#9a32cd" stroke="#9a32cd" points="505.05,-62.71 494.74,-65.15 504.32,-69.67 505.05,-62.71"/>
</a>
</g>
<text text-anchor="middle" x="541.88" y="-74.24" font-family="Helvetica,sans-Serif" font-size="10.00" fill="grey"> m_window</text>
</g>
<!-- Node8 -->
<g id="Node000008" class="node">
<title>Node8</title>
<g id="a_Node000008"><a xlink:href="../../d1/d92/structArk_1_1Diagnostics_1_1LineColorContextCounts.html" target="_top" xlink:title=" ">
<polygon fill="white" stroke="#666666" points="495.75,-30.5 359.75,-30.5 359.75,0 495.75,0 495.75,-30.5"/>
<text text-anchor="start" x="367.75" y="-17" font-family="Helvetica,sans-Serif" font-size="10.00">Ark::Diagnostics::LineColor</text>
<text text-anchor="middle" x="427.75" y="-5.75" font-family="Helvetica,sans-Serif" font-size="10.00">ContextCounts</text>
</a>
</g>
</g>
<!-- Node8&#45;&gt;Node1 -->
<g id="edge8_Node000001_Node000008" class="edge">
<title>Node8&#45;&gt;Node1</title>
<g id="a_edge8_Node000001_Node000008"><a xlink:title=" ">
<path fill="none" stroke="#9a32cd" stroke-dasharray="5,2" d="M505.99,-33.83C526.89,-39.27 549.41,-45.51 570,-52 588.2,-57.74 608.36,-65.26 623.71,-71.24"/>
<polygon fill="#9a32cd" stroke="#9a32cd" points="506.92,-30.46 496.37,-31.36 505.18,-37.24 506.92,-30.46"/>
</a>
</g>
<text text-anchor="middle" x="541.88" y="-53.75" font-family="Helvetica,sans-Serif" font-size="10.00" fill="grey"> m_color_ctx</text>
</g>
</g>
</svg>
