<?xml version="1.0" encoding="UTF-8" standalone="no"?>
<!DOCTYPE svg PUBLIC "-//W3C//DTD SVG 1.1//EN"
 "http://www.w3.org/Graphics/SVG/1.1/DTD/svg11.dtd">
<!-- Generated by graphviz version 12.2.0 (20241103.1931)
 -->
<!-- Title: /Users/fola/Documents/ArkScript/Ark/include/Ark/Compiler/IntermediateRepresentation/IROptimizer.hpp Pages: 1 -->
<svg width="788pt" height="306pt"
 viewBox="0.00 0.00 787.50 305.50" xmlns="http://www.w3.org/2000/svg" xmlns:xlink="http://www.w3.org/1999/xlink">
<g id="graph0" class="graph" transform="scale(1 1) rotate(0) translate(4 301.5)">
<title>/Users/fola/Documents/ArkScript/Ark/include/Ark/Compiler/IntermediateRepresentation/IROptimizer.hpp</title>
<!-- Node1 -->
<g id="Node000001" class="node">
<title>Node1</title>
<g id="a_Node000001"><a xlink:title="Optimize IR based on IR entity grouped by 2 (or more)">
<polygon fill="#999999" stroke="#666666" points="661.75,-297.5 462.75,-297.5 462.75,-244.5 661.75,-244.5 661.75,-297.5"/>
<text text-anchor="start" x="470.75" y="-284" font-family="Helvetica,sans-Serif" font-size="10.00">/Users/fola/Documents</text>
<text text-anchor="start" x="470.75" y="-272.75" font-family="Helvetica,sans-Serif" font-size="10.00">/ArkScript/Ark/include</text>
<text text-anchor="start" x="470.75" y="-261.5" font-family="Helvetica,sans-Serif" font-size="10.00">/Ark/Compiler/IntermediateRepresentation</text>
<text text-anchor="middle" x="562.25" y="-250.25" font-family="Helvetica,sans-Serif" font-size="10.00">/IROptimizer.hpp</text>
</a>
</g>
</g>
<!-- Node2 -->
<g id="Node000002" class="node">
<title>Node2</title>
<g id="a_Node000002"><a xlink:href="../../de/d8e/Welder_8hpp.html" target="_top" xlink:title="In charge of welding everything needed to compile code.">
<polygon fill="white" stroke="#666666" points="539.75,-202.88 412.75,-202.88 412.75,-161.12 539.75,-161.12 539.75,-202.88"/>
<text text-anchor="start" x="420.75" y="-189.38" font-family="Helvetica,sans-Serif" font-size="10.00">/Users/fola/Documents</text>
<text text-anchor="start" x="420.75" y="-178.12" font-family="Helvetica,sans-Serif" font-size="10.00">/ArkScript/Ark/include</text>
<text text-anchor="middle" x="476.25" y="-166.88" font-family="Helvetica,sans-Serif" font-size="10.00">/Ark/Compiler/Welder.hpp</text>
</a>
</g>
</g>
<!-- Node1&#45;&gt;Node2 -->
<g id="edge1_Node000001_Node000002" class="edge">
<title>Node1&#45;&gt;Node2</title>
<g id="a_edge1_Node000001_Node000002"><a xlink:title=" ">
<path fill="none" stroke="#63b8ff" d="M529.05,-236.42C517.98,-225.21 505.98,-213.08 496.23,-203.21"/>
<polygon fill="#63b8ff" stroke="#63b8ff" points="526.33,-238.64 535.85,-243.29 531.31,-233.72 526.33,-238.64"/>
</a>
</g>
</g>
<!-- Node11 -->
<g id="Node000011" class="node">
<title>Node11</title>
<g id="a_Node000011"><a xlink:href="../../d0/da9/IROptimizer_8cpp.html" target="_top" xlink:title=" ">
<polygon fill="white" stroke="#666666" points="738.75,-208.5 557.75,-208.5 557.75,-155.5 738.75,-155.5 738.75,-208.5"/>
<text text-anchor="start" x="565.75" y="-195" font-family="Helvetica,sans-Serif" font-size="10.00">/Users/fola/Documents</text>
<text text-anchor="start" x="565.75" y="-183.75" font-family="Helvetica,sans-Serif" font-size="10.00">/ArkScript/Ark/src/arkreactor</text>
<text text-anchor="start" x="565.75" y="-172.5" font-family="Helvetica,sans-Serif" font-size="10.00">/Compiler/IntermediateRepresentation</text>
<text text-anchor="middle" x="648.25" y="-161.25" font-family="Helvetica,sans-Serif" font-size="10.00">/IROptimizer.cpp</text>
</a>
</g>
</g>
<!-- Node1&#45;&gt;Node11 -->
<g id="edge10_Node000001_Node000011" class="edge">
<title>Node1&#45;&gt;Node11</title>
<g id="a_edge10_Node000001_Node000011"><a xlink:title=" ">
<path fill="none" stroke="#63b8ff" d="M595.66,-236.21C604.68,-227.08 614.29,-217.36 622.8,-208.75"/>
<polygon fill="#63b8ff" stroke="#63b8ff" points="593.19,-233.72 588.65,-243.29 598.17,-238.64 593.19,-233.72"/>
</a>
</g>
</g>
<!-- Node3 -->
<g id="Node000003" class="node">
<title>Node3</title>
<g id="a_Node000003"><a xlink:href="../../d3/d7e/Ark_8hpp.html" target="_top" xlink:title="Includes the needed files to start using ArkScript.">
<polygon fill="white" stroke="#666666" points="305.88,-119.5 188.62,-119.5 188.62,-77.75 305.88,-77.75 305.88,-119.5"/>
<text text-anchor="start" x="196.62" y="-106" font-family="Helvetica,sans-Serif" font-size="10.00">/Users/fola/Documents</text>
<text text-anchor="start" x="196.62" y="-94.75" font-family="Helvetica,sans-Serif" font-size="10.00">/ArkScript/Ark/include</text>
<text text-anchor="middle" x="247.25" y="-83.5" font-family="Helvetica,sans-Serif" font-size="10.00">/Ark/Ark.hpp</text>
</a>
</g>
</g>
<!-- Node2&#45;&gt;Node3 -->
<g id="edge2_Node000002_Node000003" class="edge">
<title>Node2&#45;&gt;Node3</title>
<g id="a_edge2_Node000002_Node000003"><a xlink:title=" ">
<path fill="none" stroke="#63b8ff" d="M408.55,-156.94C375.46,-145.19 336.08,-131.19 304.51,-119.97"/>
<polygon fill="#63b8ff" stroke="#63b8ff" points="407.03,-160.12 417.63,-160.17 409.38,-153.52 407.03,-160.12"/>
</a>
</g>
</g>
<!-- Node6 -->
<g id="Node000006" class="node">
<title>Node6</title>
<g id="a_Node000006"><a xlink:href="../../dc/dfd/JsonCompiler_8hpp.html" target="_top" xlink:title=" ">
<polygon fill="white" stroke="#666666" points="461.88,-119.5 344.62,-119.5 344.62,-77.75 461.88,-77.75 461.88,-119.5"/>
<text text-anchor="start" x="352.62" y="-106" font-family="Helvetica,sans-Serif" font-size="10.00">/Users/fola/Documents</text>
<text text-anchor="start" x="352.62" y="-94.75" font-family="Helvetica,sans-Serif" font-size="10.00">/ArkScript/Ark/include</text>
<text text-anchor="middle" x="403.25" y="-83.5" font-family="Helvetica,sans-Serif" font-size="10.00">/CLI/JsonCompiler.hpp</text>
</a>
</g>
</g>
<!-- Node2&#45;&gt;Node6 -->
<g id="edge5_Node000002_Node000006" class="edge">
<title>Node2&#45;&gt;Node6</title>
<g id="a_edge5_Node000002_Node000006"><a xlink:title=" ">
<path fill="none" stroke="#63b8ff" d="M450.74,-152.56C441.04,-141.75 430.21,-129.68 421.34,-119.79"/>
<polygon fill="#63b8ff" stroke="#63b8ff" points="447.91,-154.65 457.19,-159.76 453.12,-149.98 447.91,-154.65"/>
</a>
</g>
</g>
<!-- Node9 -->
<g id="Node000009" class="node">
<title>Node9</title>
<g id="a_Node000009"><a xlink:href="../../d3/df1/Welder_8cpp.html" target="_top" xlink:title=" ">
<polygon fill="white" stroke="#666666" points="620.5,-119.5 480,-119.5 480,-77.75 620.5,-77.75 620.5,-119.5"/>
<text text-anchor="start" x="488" y="-106" font-family="Helvetica,sans-Serif" font-size="10.00">/Users/fola/Documents</text>
<text text-anchor="start" x="488" y="-94.75" font-family="Helvetica,sans-Serif" font-size="10.00">/ArkScript/Ark/src/arkreactor</text>
<text text-anchor="middle" x="550.25" y="-83.5" font-family="Helvetica,sans-Serif" font-size="10.00">/Compiler/Welder.cpp</text>
</a>
</g>
</g>
<!-- Node2&#45;&gt;Node9 -->
<g id="edge8_Node000002_Node000009" class="edge">
<title>Node2&#45;&gt;Node9</title>
<g id="a_edge8_Node000002_Node000009"><a xlink:title=" ">
<path fill="none" stroke="#63b8ff" d="M502.11,-152.56C511.94,-141.75 522.92,-129.68 531.91,-119.79"/>
<polygon fill="#63b8ff" stroke="#63b8ff" points="499.7,-150.01 495.56,-159.77 504.88,-154.72 499.7,-150.01"/>
</a>
</g>
</g>
<!-- Node10 -->
<g id="Node000010" class="node">
<title>Node10</title>
<g id="a_Node000010"><a xlink:href="../../d0/da0/State_8cpp.html" target="_top" xlink:title=" ">
<polygon fill="white" stroke="#666666" points="779.5,-119.5 639,-119.5 639,-77.75 779.5,-77.75 779.5,-119.5"/>
<text text-anchor="start" x="647" y="-106" font-family="Helvetica,sans-Serif" font-size="10.00">/Users/fola/Documents</text>
<text text-anchor="start" x="647" y="-94.75" font-family="Helvetica,sans-Serif" font-size="10.00">/ArkScript/Ark/src/arkreactor</text>
<text text-anchor="middle" x="709.25" y="-83.5" font-family="Helvetica,sans-Serif" font-size="10.00">/VM/State.cpp</text>
</a>
</g>
</g>
<!-- Node2&#45;&gt;Node10 -->
<g id="edge9_Node000002_Node000010" class="edge">
<title>Node2&#45;&gt;Node10</title>
<g id="a_edge9_Node000002_Node000010"><a xlink:title=" ">
<path fill="none" stroke="#63b8ff" d="M545.13,-156.94C578.8,-145.19 618.87,-131.19 650.99,-119.97"/>
<polygon fill="#63b8ff" stroke="#63b8ff" points="544.16,-153.57 535.87,-160.18 546.47,-160.18 544.16,-153.57"/>
</a>
</g>
</g>
<!-- Node4 -->
<g id="Node000004" class="node">
<title>Node4</title>
<g id="a_Node000004"><a xlink:href="../../d1/d95/arkemscripten_2main_8cpp.html" target="_top" xlink:title=" ">
<polygon fill="white" stroke="#666666" points="158.5,-41.75 0,-41.75 0,0 158.5,0 158.5,-41.75"/>
<text text-anchor="start" x="8" y="-28.25" font-family="Helvetica,sans-Serif" font-size="10.00">/Users/fola/Documents</text>
<text text-anchor="start" x="8" y="-17" font-family="Helvetica,sans-Serif" font-size="10.00">/ArkScript/Ark/src/arkemscripten</text>
<text text-anchor="middle" x="79.25" y="-5.75" font-family="Helvetica,sans-Serif" font-size="10.00">/main.cpp</text>
</a>
</g>
</g>
<!-- Node3&#45;&gt;Node4 -->
<g id="edge3_Node000003_Node000004" class="edge">
<title>Node3&#45;&gt;Node4</title>
<g id="a_edge3_Node000003_Node000004"><a xlink:title=" ">
<path fill="none" stroke="#63b8ff" d="M191.76,-72.61C169.91,-62.75 145.13,-51.58 124.4,-42.23"/>
<polygon fill="#63b8ff" stroke="#63b8ff" points="190.29,-75.78 200.85,-76.7 193.17,-69.4 190.29,-75.78"/>
</a>
</g>
</g>
<!-- Node5 -->
<g id="Node000005" class="node">
<title>Node5</title>
<g id="a_Node000005"><a xlink:href="../../dc/d32/Ark_8cpp.html" target="_top" xlink:title=" ">
<polygon fill="white" stroke="#666666" points="317.5,-41.75 177,-41.75 177,0 317.5,0 317.5,-41.75"/>
<text text-anchor="start" x="185" y="-28.25" font-family="Helvetica,sans-Serif" font-size="10.00">/Users/fola/Documents</text>
<text text-anchor="start" x="185" y="-17" font-family="Helvetica,sans-Serif" font-size="10.00">/ArkScript/Ark/src/arkreactor</text>
<text text-anchor="middle" x="247.25" y="-5.75" font-family="Helvetica,sans-Serif" font-size="10.00">/Ark.cpp</text>
</a>
</g>
</g>
<!-- Node3&#45;&gt;Node5 -->
<g id="edge4_Node000003_Node000005" class="edge">
<title>Node3&#45;&gt;Node5</title>
<g id="a_edge4_Node000003_Node000005"><a xlink:title=" ">
<path fill="none" stroke="#63b8ff" d="M247.25,-66C247.25,-57.96 247.25,-49.54 247.25,-42.23"/>
<polygon fill="#63b8ff" stroke="#63b8ff" points="243.75,-65.81 247.25,-75.81 250.75,-65.81 243.75,-65.81"/>
</a>
</g>
</g>
<!-- Node7 -->
<g id="Node000007" class="node">
<title>Node7</title>
<g id="a_Node000007"><a xlink:href="../../db/d71/JsonCompiler_8cpp.html" target="_top" xlink:title=" ">
<polygon fill="white" stroke="#666666" points="470.5,-41.75 336,-41.75 336,0 470.5,0 470.5,-41.75"/>
<text text-anchor="start" x="344" y="-28.25" font-family="Helvetica,sans-Serif" font-size="10.00">/Users/fola/Documents</text>
<text text-anchor="start" x="344" y="-17" font-family="Helvetica,sans-Serif" font-size="10.00">/ArkScript/Ark/src/arkscript</text>
<text text-anchor="middle" x="403.25" y="-5.75" font-family="Helvetica,sans-Serif" font-size="10.00">/JsonCompiler.cpp</text>
</a>
</g>
</g>
<!-- Node6&#45;&gt;Node7 -->
<g id="edge6_Node000006_Node000007" class="edge">
<title>Node6&#45;&gt;Node7</title>
<g id="a_edge6_Node000006_Node000007"><a xlink:title=" ">
<path fill="none" stroke="#63b8ff" d="M403.25,-66C403.25,-57.96 403.25,-49.54 403.25,-42.23"/>
<polygon fill="#63b8ff" stroke="#63b8ff" points="399.75,-65.81 403.25,-75.81 406.75,-65.81 399.75,-65.81"/>
</a>
</g>
</g>
<!-- Node8 -->
<g id="Node000008" class="node">
<title>Node8</title>
<g id="a_Node000008"><a xlink:href="../../d0/d46/arkscript_2main_8cpp.html" target="_top" xlink:title=" ">
<polygon fill="white" stroke="#666666" points="623.5,-41.75 489,-41.75 489,0 623.5,0 623.5,-41.75"/>
<text text-anchor="start" x="497" y="-28.25" font-family="Helvetica,sans-Serif" font-size="10.00">/Users/fola/Documents</text>
<text text-anchor="start" x="497" y="-17" font-family="Helvetica,sans-Serif" font-size="10.00">/ArkScript/Ark/src/arkscript</text>
<text text-anchor="middle" x="556.25" y="-5.75" font-family="Helvetica,sans-Serif" font-size="10.00">/main.cpp</text>
</a>
</g>
</g>
<!-- Node6&#45;&gt;Node8 -->
<g id="edge7_Node000006_Node000008" class="edge">
<title>Node6&#45;&gt;Node8</title>
<g id="a_edge7_Node000006_Node000008"><a xlink:title=" ">
<path fill="none" stroke="#63b8ff" d="M454.33,-72.34C474.1,-62.55 496.43,-51.49 515.14,-42.23"/>
<polygon fill="#63b8ff" stroke="#63b8ff" points="453.02,-69.08 445.61,-76.65 456.12,-75.35 453.02,-69.08"/>
</a>
</g>
</g>
</g>
</svg>
