<?xml version="1.0" encoding="UTF-8" standalone="no"?>
<!DOCTYPE svg PUBLIC "-//W3C//DTD SVG 1.1//EN"
 "http://www.w3.org/Graphics/SVG/1.1/DTD/svg11.dtd">
<!-- Generated by graphviz version 12.2.0 (20241103.1931)
 -->
<!-- Title: Ark::Symbols Pages: 1 -->
<svg width="190pt" height="238pt"
 viewBox="0.00 0.00 190.25 238.00" xmlns="http://www.w3.org/2000/svg" xmlns:xlink="http://www.w3.org/1999/xlink">
<g id="graph0" class="graph" transform="scale(1 1) rotate(0) translate(4 234)">
<title>Ark::Symbols</title>
<!-- Node1 -->
<g id="Node000001" class="node">
<title>Node1</title>
<g id="a_Node000001"><a xlink:title=" ">
<polygon fill="#999999" stroke="#666666" points="129.62,-19.25 54.38,-19.25 54.38,0 129.62,0 129.62,-19.25"/>
<text text-anchor="middle" x="92" y="-5.75" font-family="Helvetica,sans-Serif" font-size="10.00">Ark::Symbols</text>
</a>
</g>
</g>
<!-- Node2 -->
<g id="Node000002" class="node">
<title>Node2</title>
<g id="a_Node000002"><a xlink:title=" ">
<polygon fill="white" stroke="#666666" points="154,-85.75 30,-85.75 30,-66.5 154,-66.5 154,-85.75"/>
<text text-anchor="middle" x="92" y="-72.25" font-family="Helvetica,sans-Serif" font-size="10.00">std::vector&lt; std::string &gt;</text>
</a>
</g>
</g>
<!-- Node2&#45;&gt;Node1 -->
<g id="edge1_Node000001_Node000002" class="edge">
<title>Node2&#45;&gt;Node1</title>
<g id="a_edge1_Node000001_Node000002"><a xlink:title=" ">
<path fill="none" stroke="#9a32cd" stroke-dasharray="5,2" d="M92,-54.65C92,-42.82 92,-28.54 92,-19.52"/>
<polygon fill="#9a32cd" stroke="#9a32cd" points="88.5,-54.64 92,-64.64 95.5,-54.64 88.5,-54.64"/>
</a>
</g>
<text text-anchor="middle" x="111.88" y="-39" font-family="Helvetica,sans-Serif" font-size="10.00" fill="grey"> symbols</text>
</g>
<!-- Node3 -->
<g id="Node000003" class="node">
<title>Node3</title>
<g id="a_Node000003"><a xlink:title=" ">
<polygon fill="white" stroke="#666666" points="76.75,-152.25 17.25,-152.25 17.25,-133 76.75,-133 76.75,-152.25"/>
<text text-anchor="middle" x="47" y="-138.75" font-family="Helvetica,sans-Serif" font-size="10.00">std::string</text>
</a>
</g>
</g>
<!-- Node3&#45;&gt;Node2 -->
<g id="edge2_Node000002_Node000003" class="edge">
<title>Node3&#45;&gt;Node2</title>
<g id="a_edge2_Node000002_Node000003"><a xlink:title=" ">
<path fill="none" stroke="#9a32cd" stroke-dasharray="5,2" d="M55.32,-122.54C58.38,-116.32 62.13,-109.53 66.25,-103.75 70.8,-97.36 76.87,-91.02 81.96,-86.12"/>
<polygon fill="#9a32cd" stroke="#9a32cd" points="52.24,-120.86 51.23,-131.41 58.59,-123.79 52.24,-120.86"/>
</a>
</g>
<text text-anchor="middle" x="87.62" y="-105.5" font-family="Helvetica,sans-Serif" font-size="10.00" fill="grey"> elements</text>
</g>
<!-- Node4 -->
<g id="Node000004" class="node">
<title>Node4</title>
<g id="a_Node000004"><a xlink:title=" ">
<polygon fill="white" stroke="#666666" points="94,-230 0,-230 0,-199.5 94,-199.5 94,-230"/>
<text text-anchor="start" x="8" y="-216.5" font-family="Helvetica,sans-Serif" font-size="10.00">std::basic_string&lt;</text>
<text text-anchor="middle" x="47" y="-205.25" font-family="Helvetica,sans-Serif" font-size="10.00"> Char &gt;</text>
</a>
</g>
</g>
<!-- Node4&#45;&gt;Node3 -->
<g id="edge3_Node000003_Node000004" class="edge">
<title>Node4&#45;&gt;Node3</title>
<g id="a_edge3_Node000003_Node000004"><a xlink:title=" ">
<path fill="none" stroke="#63b8ff" d="M47,-187.98C47,-175.48 47,-161.27 47,-152.38"/>
<polygon fill="#63b8ff" stroke="#63b8ff" points="43.5,-187.71 47,-197.71 50.5,-187.71 43.5,-187.71"/>
</a>
</g>
</g>
<!-- Node5 -->
<g id="Node000005" class="node">
<title>Node5</title>
<g id="a_Node000005"><a xlink:title=" ">
<polygon fill="white" stroke="#666666" points="181.25,-152.25 94.75,-152.25 94.75,-133 181.25,-133 181.25,-152.25"/>
<text text-anchor="middle" x="138" y="-138.75" font-family="Helvetica,sans-Serif" font-size="10.00">std::vector&lt; T &gt;</text>
</a>
</g>
</g>
<!-- Node5&#45;&gt;Node2 -->
<g id="edge4_Node000002_Node000005" class="edge">
<title>Node5&#45;&gt;Node2</title>
<g id="a_edge4_Node000002_Node000005"><a xlink:title=" ">
<path fill="none" stroke="orange" stroke-dasharray="5,2" d="M124.99,-123.38C116.27,-111.16 105.19,-95.61 98.34,-86.02"/>
<polygon fill="orange" stroke="orange" points="122.07,-125.31 130.73,-131.42 127.77,-121.25 122.07,-125.31"/>
</a>
</g>
<text text-anchor="middle" x="150" y="-105.5" font-family="Helvetica,sans-Serif" font-size="10.00" fill="grey"> &lt; std::string &gt;</text>
</g>
<!-- Node6 -->
<g id="Node000006" class="node">
<title>Node6</title>
<g id="a_Node000006"><a xlink:title=" ">
<polygon fill="white" stroke="#666666" points="152.4,-224.38 123.6,-224.38 123.6,-205.12 152.4,-205.12 152.4,-224.38"/>
<text text-anchor="middle" x="138" y="-210.88" font-family="Helvetica,sans-Serif" font-size="10.00">T</text>
</a>
</g>
</g>
<!-- Node6&#45;&gt;Node5 -->
<g id="edge5_Node000005_Node000006" class="edge">
<title>Node6&#45;&gt;Node5</title>
<g id="a_edge5_Node000005_Node000006"><a xlink:title=" ">
<path fill="none" stroke="#9a32cd" stroke-dasharray="5,2" d="M138,-193.37C138,-179.89 138,-162.89 138,-152.66"/>
<polygon fill="#9a32cd" stroke="#9a32cd" points="134.5,-193.36 138,-203.36 141.5,-193.36 134.5,-193.36"/>
</a>
</g>
<text text-anchor="middle" x="159.38" y="-172" font-family="Helvetica,sans-Serif" font-size="10.00" fill="grey"> elements</text>
</g>
</g>
</svg>
