<?xml version="1.0" encoding="UTF-8" standalone="no"?>
<!DOCTYPE svg PUBLIC "-//W3C//DTD SVG 1.1//EN"
 "http://www.w3.org/Graphics/SVG/1.1/DTD/svg11.dtd">
<!-- Generated by graphviz version 12.2.0 (20241103.1931)
 -->
<!-- Title: /Users/fola/Documents/ArkScript/Ark/include/Ark/Compiler/IntermediateRepresentation/IROptimizer.hpp Pages: 1 -->
<!--zoomable 360 -->

<svg id="main" version="1.1" xmlns="http://www.w3.org/2000/svg" xmlns:xlink="http://www.w3.org/1999/xlink" xml:space="preserve" onload="init(evt)">

<style type="text/css"><![CDATA[
.node, .edge {opacity: 0.7;}
.node.selected, .edge.selected {opacity: 1;}
.edge:hover path { stroke: red; }
.edge:hover polygon { stroke: red; fill: red; }
]]></style>

<defs>
  <circle id="rim" cx="0" cy="0" r="7"/>
  <circle id="rim2" cx="0" cy="0" r="3.5"/>
  <g id="zoomPlus">
    <use xlink:href="#rim" fill="#404040"><set attributeName="fill" to="#808080" begin="zoomplus.mouseover" end="zoomplus.mouseout"/></use>
    <path d="M-4,0h8M0,-4v8" fill="none" stroke="white" stroke-width="1.5" pointer-events="none"/>
  </g>
  <g id="zoomMin">
    <use xlink:href="#rim" fill="#404040"><set attributeName="fill" to="#808080" begin="zoomminus.mouseover" end="zoomminus.mouseout"/></use>
    <path d="M-4,0h8" fill="none" stroke="white" stroke-width="1.5" pointer-events="none"/>
  </g>
  <g id="arrowUp" transform="translate(30 24)">
    <use xlink:href="#rim"/>
    <path pointer-events="none" fill="none" stroke="white" stroke-width="1.5" d="M0,-3.0v7 M-2.5,-0.5L0,-3.0L2.5,-0.5"/>
  </g>
  <g id="arrowRight" transform="rotate(90) translate(36 -43)">
    <use xlink:href="#rim"/>
    <path pointer-events="none" fill="none" stroke="white" stroke-width="1.5" d="M0,-3.0v7 M-2.5,-0.5L0,-3.0L2.5,-0.5"/>
  </g>
  <g id="arrowDown" transform="rotate(180) translate(-30 -48)">
    <use xlink:href="#rim"/>
    <path pointer-events="none" fill="none" stroke="white" stroke-width="1.5" d="M0,-3.0v7 M-2.5,-0.5L0,-3.0L2.5,-0.5"/>
  </g>
  <g id="arrowLeft" transform="rotate(270) translate(-36 17)">
    <use xlink:href="#rim"/>
    <path pointer-events="none" fill="none" stroke="white" stroke-width="1.5" d="M0,-3.0v7 M-2.5,-0.5L0,-3.0L2.5,-0.5"/>
  </g>
  <g id="resetDef">
    <use xlink:href="#rim2" fill="#404040"><set attributeName="fill" to="#808080" begin="reset.mouseover" end="reset.mouseout"/></use>
  </g>
</defs>
<script type="application/ecmascript">
var viewWidth = 1591;
var viewHeight = 360;
var sectionId = 'dynsection-0';
</script>
<script type="application/ecmascript" xlink:href="../../svg.min.js"/>
<svg id="graph" class="graph">
<g id="viewport">
<title>/Users/fola/Documents/ArkScript/Ark/include/Ark/Compiler/IntermediateRepresentation/IROptimizer.hpp</title>
<!-- Node1 -->
<g id="Node000001" class="node">
<title>Node1</title>
<g id="a_Node000001"><a xlink:title="Optimize IR based on IR entity grouped by 2 (or more)">
<polygon fill="#999999" stroke="#666666" points="980.38,-351.75 781.38,-351.75 781.38,-298.75 980.38,-298.75 980.38,-351.75"/>
<text text-anchor="start" x="789.38" y="-338.25" font-family="Helvetica,sans-Serif" font-size="10.00">/Users/fola/Documents</text>
<text text-anchor="start" x="789.38" y="-327" font-family="Helvetica,sans-Serif" font-size="10.00">/ArkScript/Ark/include</text>
<text text-anchor="start" x="789.38" y="-315.75" font-family="Helvetica,sans-Serif" font-size="10.00">/Ark/Compiler/IntermediateRepresentation</text>
<text text-anchor="middle" x="880.88" y="-304.5" font-family="Helvetica,sans-Serif" font-size="10.00">/IROptimizer.hpp</text>
</a>
</g>
</g>
<!-- Node2 -->
<g id="Node000002" class="node">
<title>Node2</title>
<g id="a_Node000002"><a xlink:href="../../d5/d40/Platform_8hpp.html" target="_top" xlink:title="ArkScript configuration macros.">
<polygon fill="white" stroke="#666666" points="214.25,-80.12 101.5,-80.12 101.5,-60.88 214.25,-60.88 214.25,-80.12"/>
<text text-anchor="middle" x="157.88" y="-66.62" font-family="Helvetica,sans-Serif" font-size="10.00">Ark/Utils/Platform.hpp</text>
</a>
</g>
</g>
<!-- Node1&#45;&gt;Node2 -->
<g id="edge1_Node000001_Node000002" class="edge">
<title>Node1&#45;&gt;Node2</title>
<g id="a_edge1_Node000001_Node000002"><a xlink:title=" ">
<path fill="none" stroke="#63b8ff" d="M781.18,-319C579.83,-306.1 135.98,-265.21 43.88,-152.25 19.11,-121.88 71.01,-97.68 112.67,-83.96"/>
<polygon fill="#63b8ff" stroke="#63b8ff" points="113.6,-87.34 122.09,-80.99 111.5,-80.66 113.6,-87.34"/>
</a>
</g>
</g>
<!-- Node3 -->
<g id="Node000003" class="node">
<title>Node3</title>
<g id="a_Node000003"><a xlink:href="../../d9/d11/Logger_8hpp.html" target="_top" xlink:title="Internal logger.">
<polygon fill="white" stroke="#666666" points="1151.12,-146.62 1046.62,-146.62 1046.62,-127.38 1151.12,-127.38 1151.12,-146.62"/>
<text text-anchor="middle" x="1098.88" y="-133.12" font-family="Helvetica,sans-Serif" font-size="10.00">Ark/Utils/Logger.hpp</text>
</a>
</g>
</g>
<!-- Node1&#45;&gt;Node3 -->
<g id="edge2_Node000001_Node000003" class="edge">
<title>Node1&#45;&gt;Node3</title>
<g id="a_edge2_Node000001_Node000003"><a xlink:title=" ">
<path fill="none" stroke="#63b8ff" d="M908.23,-298.36C925.41,-282.29 948.16,-261.38 968.88,-243.5 1006.73,-210.83 1052.41,-174.43 1078.31,-154.06"/>
<polygon fill="#63b8ff" stroke="#63b8ff" points="1080.3,-156.94 1086.01,-148.02 1075.98,-151.43 1080.3,-156.94"/>
</a>
</g>
</g>
<!-- Node13 -->
<g id="Node000013" class="node">
<title>Node13</title>
<g id="a_Node000013"><a xlink:href="../../dd/de7/ValTableElem_8hpp.html" target="_top" xlink:title="The basic value type handled by the compiler.">
<polygon fill="white" stroke="#666666" points="799.88,-262.75 645.88,-262.75 645.88,-243.5 799.88,-243.5 799.88,-262.75"/>
<text text-anchor="middle" x="722.88" y="-249.25" font-family="Helvetica,sans-Serif" font-size="10.00">Ark/Compiler/ValTableElem.hpp</text>
</a>
</g>
</g>
<!-- Node1&#45;&gt;Node13 -->
<g id="edge13_Node000001_Node000013" class="edge">
<title>Node1&#45;&gt;Node13</title>
<g id="a_edge13_Node000001_Node000013"><a xlink:title=" ">
<path fill="none" stroke="#63b8ff" d="M822.49,-298.34C799.16,-287.98 773.25,-276.48 753.71,-267.81"/>
<polygon fill="#63b8ff" stroke="#63b8ff" points="755.22,-264.65 744.66,-263.8 752.38,-271.05 755.22,-264.65"/>
</a>
</g>
</g>
<!-- Node17 -->
<g id="Node000017" class="node">
<title>Node17</title>
<g id="a_Node000017"><a xlink:title=" ">
<polygon fill="#e0e0e0" stroke="#999999" points="49.75,-80.12 0,-80.12 0,-60.88 49.75,-60.88 49.75,-80.12"/>
<text text-anchor="middle" x="24.88" y="-66.62" font-family="Helvetica,sans-Serif" font-size="10.00">optional</text>
</a>
</g>
</g>
<!-- Node1&#45;&gt;Node17 -->
<g id="edge53_Node000001_Node000017" class="edge">
<title>Node1&#45;&gt;Node17</title>
<g id="a_edge53_Node000001_Node000017"><a xlink:title=" ">
<path fill="none" stroke="#63b8ff" d="M781.07,-322.44C653.61,-318.37 426.89,-305.21 237.88,-262.75 167.33,-246.91 145.11,-247.48 84.88,-207.5 57.03,-189.02 47.75,-182.65 33.88,-152.25 25.1,-133.03 23.51,-108.65 23.71,-91.73"/>
<polygon fill="#63b8ff" stroke="#63b8ff" points="27.2,-92.09 24.06,-81.97 20.2,-91.84 27.2,-92.09"/>
</a>
</g>
</g>
<!-- Node28 -->
<g id="Node000028" class="node">
<title>Node28</title>
<g id="a_Node000028"><a xlink:href="../../df/d5f/Pass_8hpp.html" target="_top" xlink:title="Interface for a compiler pass.">
<polygon fill="white" stroke="#666666" points="882.5,-207.5 765.25,-207.5 765.25,-188.25 882.5,-188.25 882.5,-207.5"/>
<text text-anchor="middle" x="823.88" y="-194" font-family="Helvetica,sans-Serif" font-size="10.00">Ark/Compiler/Pass.hpp</text>
</a>
</g>
</g>
<!-- Node1&#45;&gt;Node28 -->
<g id="edge40_Node000001_Node000028" class="edge">
<title>Node1&#45;&gt;Node28</title>
<g id="a_edge40_Node000001_Node000028"><a xlink:title=" ">
<path fill="none" stroke="#63b8ff" d="M869.06,-298.27C858.22,-274.43 842.41,-239.64 832.65,-218.18"/>
<polygon fill="#63b8ff" stroke="#63b8ff" points="835.87,-216.81 828.55,-209.15 829.5,-219.71 835.87,-216.81"/>
</a>
</g>
</g>
<!-- Node29 -->
<g id="Node000029" class="node">
<title>Node29</title>
<g id="a_Node000029"><a xlink:href="../../de/da6/Entity_8hpp.html" target="_top" xlink:title="An entity in the IR is a bundle of information.">
<polygon fill="white" stroke="#666666" points="975.88,-152.25 845.88,-152.25 845.88,-121.75 975.88,-121.75 975.88,-152.25"/>
<text text-anchor="start" x="853.88" y="-138.75" font-family="Helvetica,sans-Serif" font-size="10.00">Ark/Compiler/Intermediate</text>
<text text-anchor="middle" x="910.88" y="-127.5" font-family="Helvetica,sans-Serif" font-size="10.00">Representation/Entity.hpp</text>
</a>
</g>
</g>
<!-- Node1&#45;&gt;Node29 -->
<g id="edge44_Node000001_Node000029" class="edge">
<title>Node1&#45;&gt;Node29</title>
<g id="a_edge44_Node000001_Node000029"><a xlink:title=" ">
<path fill="none" stroke="#63b8ff" d="M885.05,-298.35C890.78,-262.77 901.03,-199.14 906.74,-163.67"/>
<polygon fill="#63b8ff" stroke="#63b8ff" points="910.18,-164.32 908.32,-153.89 903.27,-163.2 910.18,-164.32"/>
</a>
</g>
</g>
<!-- Node32 -->
<g id="Node000032" class="node">
<title>Node32</title>
<g id="a_Node000032"><a xlink:title=" ">
<polygon fill="#e0e0e0" stroke="#999999" points="1014.38,-262.75 977.38,-262.75 977.38,-243.5 1014.38,-243.5 1014.38,-262.75"/>
<text text-anchor="middle" x="995.88" y="-249.25" font-family="Helvetica,sans-Serif" font-size="10.00">span</text>
</a>
</g>
</g>
<!-- Node1&#45;&gt;Node32 -->
<g id="edge52_Node000001_Node000032" class="edge">
<title>Node1&#45;&gt;Node32</title>
<g id="a_edge52_Node000001_Node000032"><a xlink:title=" ">
<path fill="none" stroke="#63b8ff" d="M923.37,-298.34C939.48,-288.51 957.28,-277.66 971.22,-269.16"/>
<polygon fill="#63b8ff" stroke="#63b8ff" points="973.02,-272.16 979.73,-263.97 969.37,-266.19 973.02,-272.16"/>
</a>
</g>
</g>
<!-- Node33 -->
<g id="Node000033" class="node">
<title>Node33</title>
<g id="a_Node000033"><a xlink:title=" ">
<polygon fill="#e0e0e0" stroke="#999999" points="1090.88,-262.75 1032.88,-262.75 1032.88,-243.5 1090.88,-243.5 1090.88,-262.75"/>
<text text-anchor="middle" x="1061.88" y="-249.25" font-family="Helvetica,sans-Serif" font-size="10.00">functional</text>
</a>
</g>
</g>
<!-- Node1&#45;&gt;Node33 -->
<g id="edge54_Node000001_Node000033" class="edge">
<title>Node1&#45;&gt;Node33</title>
<g id="a_edge54_Node000001_Node000033"><a xlink:title=" ">
<path fill="none" stroke="#63b8ff" d="M947.76,-298.34C974.98,-287.79 1005.27,-276.06 1027.8,-267.33"/>
<polygon fill="#63b8ff" stroke="#63b8ff" points="1029.03,-270.6 1037.09,-263.73 1026.5,-264.08 1029.03,-270.6"/>
</a>
</g>
</g>
<!-- Node3&#45;&gt;Node2 -->
<g id="edge12_Node000003_Node000002" class="edge">
<title>Node3&#45;&gt;Node2</title>
<g id="a_edge12_Node000003_Node000002"><a xlink:title=" ">
<path fill="none" stroke="#63b8ff" d="M1046.18,-128.58C1026.92,-126.09 1004.94,-123.5 984.88,-121.75 663.92,-93.75 581.64,-115.86 260.88,-85.75 249.5,-84.68 237.46,-83.27 225.77,-81.75"/>
<polygon fill="#63b8ff" stroke="#63b8ff" points="226.58,-78.33 216.21,-80.47 225.65,-85.27 226.58,-78.33"/>
</a>
</g>
</g>
<!-- Node4 -->
<g id="Node000004" class="node">
<title>Node4</title>
<g id="a_Node000004"><a xlink:title=" ">
<polygon fill="#e0e0e0" stroke="#999999" points="1257.62,-80.12 1204.12,-80.12 1204.12,-60.88 1257.62,-60.88 1257.62,-80.12"/>
<text text-anchor="middle" x="1230.88" y="-66.62" font-family="Helvetica,sans-Serif" font-size="10.00">iostream</text>
</a>
</g>
</g>
<!-- Node3&#45;&gt;Node4 -->
<g id="edge3_Node000003_Node000004" class="edge">
<title>Node3&#45;&gt;Node4</title>
<g id="a_edge3_Node000003_Node000004"><a xlink:title=" ">
<path fill="none" stroke="#63b8ff" d="M1117.51,-126.9C1139.52,-116.14 1176.39,-98.12 1202.09,-85.57"/>
<polygon fill="#63b8ff" stroke="#63b8ff" points="1203.53,-88.76 1210.98,-81.22 1200.46,-82.47 1203.53,-88.76"/>
</a>
</g>
</g>
<!-- Node5 -->
<g id="Node000005" class="node">
<title>Node5</title>
<g id="a_Node000005"><a xlink:title=" ">
<polygon fill="#e0e0e0" stroke="#999999" points="1344.5,-80.12 1275.25,-80.12 1275.25,-60.88 1344.5,-60.88 1344.5,-80.12"/>
<text text-anchor="middle" x="1309.88" y="-66.62" font-family="Helvetica,sans-Serif" font-size="10.00">fmt/format.h</text>
</a>
</g>
</g>
<!-- Node3&#45;&gt;Node5 -->
<g id="edge4_Node000003_Node000005" class="edge">
<title>Node3&#45;&gt;Node5</title>
<g id="a_edge4_Node000003_Node000005"><a xlink:title=" ">
<path fill="none" stroke="#63b8ff" d="M1130.23,-126.92C1164.04,-117.06 1219.4,-100.71 1266.88,-85.75 1268.6,-85.21 1270.36,-84.65 1272.13,-84.08"/>
<polygon fill="#63b8ff" stroke="#63b8ff" points="1273.21,-87.41 1281.64,-80.98 1271.05,-80.75 1273.21,-87.41"/>
</a>
</g>
</g>
<!-- Node6 -->
<g id="Node000006" class="node">
<title>Node6</title>
<g id="a_Node000006"><a xlink:title=" ">
<polygon fill="#e0e0e0" stroke="#999999" points="1424.75,-80.12 1363,-80.12 1363,-60.88 1424.75,-60.88 1424.75,-80.12"/>
<text text-anchor="middle" x="1393.88" y="-66.62" font-family="Helvetica,sans-Serif" font-size="10.00">fmt/color.h</text>
</a>
</g>
</g>
<!-- Node3&#45;&gt;Node6 -->
<g id="edge5_Node000003_Node000006" class="edge">
<title>Node3&#45;&gt;Node6</title>
<g id="a_edge5_Node000003_Node000006"><a xlink:title=" ">
<path fill="none" stroke="#63b8ff" d="M1151.17,-128.02C1203.08,-119.55 1284.7,-104.78 1353.88,-85.75 1355.73,-85.24 1357.63,-84.68 1359.53,-84.1"/>
<polygon fill="#63b8ff" stroke="#63b8ff" points="1360.53,-87.46 1368.93,-81 1358.34,-80.81 1360.53,-87.46"/>
</a>
</g>
</g>
<!-- Node7 -->
<g id="Node000007" class="node">
<title>Node7</title>
<g id="a_Node000007"><a xlink:title=" ">
<polygon fill="#e0e0e0" stroke="#999999" points="1519.25,-80.12 1442.5,-80.12 1442.5,-60.88 1519.25,-60.88 1519.25,-80.12"/>
<text text-anchor="middle" x="1480.88" y="-66.62" font-family="Helvetica,sans-Serif" font-size="10.00">fmt/ostream.h</text>
</a>
</g>
</g>
<!-- Node3&#45;&gt;Node7 -->
<g id="edge6_Node000003_Node000007" class="edge">
<title>Node3&#45;&gt;Node7</title>
<g id="a_edge6_Node000003_Node000007"><a xlink:title=" ">
<path fill="none" stroke="#63b8ff" d="M1151.54,-130.5C1217.89,-123.03 1335.2,-107.99 1433.88,-85.75 1436.64,-85.13 1439.48,-84.43 1442.33,-83.68"/>
<polygon fill="#63b8ff" stroke="#63b8ff" points="1443.08,-87.1 1451.76,-81.02 1441.19,-80.36 1443.08,-87.1"/>
</a>
</g>
</g>
<!-- Node8 -->
<g id="Node000008" class="node">
<title>Node8</title>
<g id="a_Node000008"><a xlink:title=" ">
<polygon fill="#e0e0e0" stroke="#999999" points="632.88,-80.12 592.88,-80.12 592.88,-60.88 632.88,-60.88 632.88,-80.12"/>
<text text-anchor="middle" x="612.88" y="-66.62" font-family="Helvetica,sans-Serif" font-size="10.00">string</text>
</a>
</g>
</g>
<!-- Node3&#45;&gt;Node8 -->
<g id="edge7_Node000003_Node000008" class="edge">
<title>Node3&#45;&gt;Node8</title>
<g id="a_edge7_Node000003_Node000008"><a xlink:title=" ">
<path fill="none" stroke="#63b8ff" d="M1046.4,-129.22C1027.07,-126.78 1004.99,-124.06 984.88,-121.75 832.6,-104.24 789.16,-128.21 641.88,-85.75 640.91,-85.47 639.93,-85.16 638.96,-84.83"/>
<polygon fill="#63b8ff" stroke="#63b8ff" points="640.7,-81.76 630.12,-81.12 637.99,-88.22 640.7,-81.76"/>
</a>
</g>
</g>
<!-- Node9 -->
<g id="Node000009" class="node">
<title>Node9</title>
<g id="a_Node000009"><a xlink:title=" ">
<polygon fill="#e0e0e0" stroke="#999999" points="1582.5,-80.12 1537.25,-80.12 1537.25,-60.88 1582.5,-60.88 1582.5,-80.12"/>
<text text-anchor="middle" x="1559.88" y="-66.62" font-family="Helvetica,sans-Serif" font-size="10.00">chrono</text>
</a>
</g>
</g>
<!-- Node3&#45;&gt;Node9 -->
<g id="edge8_Node000003_Node000009" class="edge">
<title>Node3&#45;&gt;Node9</title>
<g id="a_edge8_Node000003_Node000009"><a xlink:title=" ">
<path fill="none" stroke="#63b8ff" d="M1151.35,-134.93C1233.18,-132.14 1395.54,-122.06 1527.88,-85.75 1529.05,-85.43 1530.23,-85.07 1531.42,-84.68"/>
<polygon fill="#63b8ff" stroke="#63b8ff" points="1532.47,-88.03 1540.54,-81.16 1529.95,-81.5 1532.47,-88.03"/>
</a>
</g>
</g>
<!-- Node10 -->
<g id="Node000010" class="node">
<title>Node10</title>
<g id="a_Node000010"><a xlink:title=" ">
<polygon fill="#e0e0e0" stroke="#999999" points="1085,-80.12 1000.75,-80.12 1000.75,-60.88 1085,-60.88 1085,-80.12"/>
<text text-anchor="middle" x="1042.88" y="-66.62" font-family="Helvetica,sans-Serif" font-size="10.00">source_location</text>
</a>
</g>
</g>
<!-- Node3&#45;&gt;Node10 -->
<g id="edge9_Node000003_Node000010" class="edge">
<title>Node3&#45;&gt;Node10</title>
<g id="a_edge9_Node000003_Node000010"><a xlink:title=" ">
<path fill="none" stroke="#63b8ff" d="M1091.09,-127.03C1082.56,-117.21 1068.68,-101.23 1058,-88.92"/>
<polygon fill="#63b8ff" stroke="#63b8ff" points="1060.79,-86.79 1051.59,-81.54 1055.5,-91.38 1060.79,-86.79"/>
</a>
</g>
</g>
<!-- Node11 -->
<g id="Node000011" class="node">
<title>Node11</title>
<g id="a_Node000011"><a xlink:title=" ">
<polygon fill="#e0e0e0" stroke="#999999" points="574.38,-80.12 531.38,-80.12 531.38,-60.88 574.38,-60.88 574.38,-80.12"/>
<text text-anchor="middle" x="552.88" y="-66.62" font-family="Helvetica,sans-Serif" font-size="10.00">vector</text>
</a>
</g>
</g>
<!-- Node3&#45;&gt;Node11 -->
<g id="edge10_Node000003_Node000011" class="edge">
<title>Node3&#45;&gt;Node11</title>
<g id="a_edge10_Node000003_Node000011"><a xlink:title=" ">
<path fill="none" stroke="#63b8ff" d="M1046.14,-129.02C1026.87,-126.57 1004.91,-123.9 984.88,-121.75 806.96,-102.65 756.79,-131.79 583.88,-85.75 582.7,-85.44 581.52,-85.08 580.33,-84.7"/>
<polygon fill="#63b8ff" stroke="#63b8ff" points="581.86,-81.54 571.27,-81.12 579.29,-88.05 581.86,-81.54"/>
</a>
</g>
</g>
<!-- Node12 -->
<g id="Node000012" class="node">
<title>Node12</title>
<g id="a_Node000012"><a xlink:title=" ">
<polygon fill="#e0e0e0" stroke="#999999" points="1186.25,-80.12 1103.5,-80.12 1103.5,-60.88 1186.25,-60.88 1186.25,-80.12"/>
<text text-anchor="middle" x="1144.88" y="-66.62" font-family="Helvetica,sans-Serif" font-size="10.00">unordered_map</text>
</a>
</g>
</g>
<!-- Node3&#45;&gt;Node12 -->
<g id="edge11_Node000003_Node000012" class="edge">
<title>Node3&#45;&gt;Node12</title>
<g id="a_edge11_Node000003_Node000012"><a xlink:title=" ">
<path fill="none" stroke="#63b8ff" d="M1105.27,-127.03C1112.14,-117.4 1123.23,-101.85 1131.93,-89.65"/>
<polygon fill="#63b8ff" stroke="#63b8ff" points="1134.7,-91.8 1137.65,-81.62 1129,-87.73 1134.7,-91.8"/>
</a>
</g>
</g>
<!-- Node13&#45;&gt;Node8 -->
<g id="edge15_Node000013_Node000008" class="edge">
<title>Node13&#45;&gt;Node8</title>
<g id="a_edge15_Node000013_Node000008"><a xlink:title=" ">
<path fill="none" stroke="#63b8ff" d="M726.16,-243.22C731.22,-230.24 741.83,-205.79 755.88,-188.25 771.46,-168.8 788.33,-174.83 798.88,-152.25 804.61,-139.97 807.32,-132.35 798.88,-121.75 754.27,-65.76 709.34,-109.7 641.88,-85.75 641.25,-85.53 640.62,-85.29 639.98,-85.05"/>
<polygon fill="#63b8ff" stroke="#63b8ff" points="641.72,-81.99 631.15,-81.22 638.93,-88.41 641.72,-81.99"/>
</a>
</g>
</g>
<!-- Node14 -->
<g id="Node000014" class="node">
<title>Node14</title>
<g id="a_Node000014"><a xlink:title=" ">
<polygon fill="#e0e0e0" stroke="#999999" points="720.5,-146.62 675.25,-146.62 675.25,-127.38 720.5,-127.38 720.5,-146.62"/>
<text text-anchor="middle" x="697.88" y="-133.12" font-family="Helvetica,sans-Serif" font-size="10.00">variant</text>
</a>
</g>
</g>
<!-- Node13&#45;&gt;Node14 -->
<g id="edge14_Node000013_Node000014" class="edge">
<title>Node13&#45;&gt;Node14</title>
<g id="a_edge14_Node000013_Node000014"><a xlink:title=" ">
<path fill="none" stroke="#63b8ff" d="M720.91,-243.17C716.92,-224.92 707.74,-183.03 702.25,-157.98"/>
<polygon fill="#63b8ff" stroke="#63b8ff" points="705.71,-157.41 700.15,-148.39 698.87,-158.91 705.71,-157.41"/>
</a>
</g>
</g>
<!-- Node15 -->
<g id="Node000015" class="node">
<title>Node15</title>
<g id="a_Node000015"><a xlink:href="../../d7/dc6/Node_8hpp.html" target="_top" xlink:title="AST node used by the parser, optimizer and compiler.">
<polygon fill="white" stroke="#666666" points="547.12,-207.5 406.62,-207.5 406.62,-188.25 547.12,-188.25 547.12,-207.5"/>
<text text-anchor="middle" x="476.88" y="-194" font-family="Helvetica,sans-Serif" font-size="10.00">Ark/Compiler/AST/Node.hpp</text>
</a>
</g>
</g>
<!-- Node13&#45;&gt;Node15 -->
<g id="edge16_Node000013_Node000015" class="edge">
<title>Node13&#45;&gt;Node15</title>
<g id="a_edge16_Node000013_Node000015"><a xlink:title=" ">
<path fill="none" stroke="#63b8ff" d="M680.87,-243.03C639.12,-233.99 574.96,-220.11 529.77,-210.32"/>
<polygon fill="#63b8ff" stroke="#63b8ff" points="530.7,-206.95 520.19,-208.25 529.22,-213.79 530.7,-206.95"/>
</a>
</g>
</g>
<!-- Node15&#45;&gt;Node2 -->
<g id="edge36_Node000015_Node000002" class="edge">
<title>Node15&#45;&gt;Node2</title>
<g id="a_edge36_Node000015_Node000002"><a xlink:title=" ">
<path fill="none" stroke="#63b8ff" d="M406.2,-190.74C340.33,-183.96 247.77,-171.4 216.88,-152.25 193.29,-137.63 176.16,-109.79 166.61,-90.94"/>
<polygon fill="#63b8ff" stroke="#63b8ff" points="169.78,-89.44 162.31,-81.92 163.46,-92.46 169.78,-89.44"/>
</a>
</g>
</g>
<!-- Node15&#45;&gt;Node8 -->
<g id="edge19_Node000015_Node000008" class="edge">
<title>Node15&#45;&gt;Node8</title>
<g id="a_edge19_Node000015_Node000008"><a xlink:title=" ">
<path fill="none" stroke="#63b8ff" d="M547.49,-193.96C577.24,-188.79 609.22,-177.21 627.88,-152.25 641.24,-134.36 632.64,-108.14 623.95,-90.48"/>
<polygon fill="#63b8ff" stroke="#63b8ff" points="627.12,-88.99 619.3,-81.84 620.96,-92.3 627.12,-88.99"/>
</a>
</g>
</g>
<!-- Node15&#45;&gt;Node11 -->
<g id="edge20_Node000015_Node000011" class="edge">
<title>Node15&#45;&gt;Node11</title>
<g id="a_edge20_Node000015_Node000011"><a xlink:title=" ">
<path fill="none" stroke="#63b8ff" d="M466.76,-188.17C451.29,-173.77 425.04,-144.36 439.88,-121.75 461.94,-88.13 486.27,-102.38 522.88,-85.75 523.22,-85.59 523.57,-85.44 523.91,-85.28"/>
<polygon fill="#63b8ff" stroke="#63b8ff" points="525.23,-88.52 532.83,-81.13 522.28,-82.18 525.23,-88.52"/>
</a>
</g>
</g>
<!-- Node15&#45;&gt;Node14 -->
<g id="edge17_Node000015_Node000014" class="edge">
<title>Node15&#45;&gt;Node14</title>
<g id="a_edge17_Node000015_Node000014"><a xlink:title=" ">
<path fill="none" stroke="#63b8ff" d="M521.18,-187.82C558.73,-179.75 613.81,-166.95 660.88,-152.25 662.24,-151.82 663.63,-151.37 665.03,-150.9"/>
<polygon fill="#63b8ff" stroke="#63b8ff" points="666.08,-154.24 674.31,-147.57 663.72,-147.65 666.08,-154.24"/>
</a>
</g>
</g>
<!-- Node16 -->
<g id="Node000016" class="node">
<title>Node16</title>
<g id="a_Node000016"><a xlink:title=" ">
<polygon fill="#e0e0e0" stroke="#999999" points="789.5,-146.62 738.25,-146.62 738.25,-127.38 789.5,-127.38 789.5,-146.62"/>
<text text-anchor="middle" x="763.88" y="-133.12" font-family="Helvetica,sans-Serif" font-size="10.00">ostream</text>
</a>
</g>
</g>
<!-- Node15&#45;&gt;Node16 -->
<g id="edge18_Node000015_Node000016" class="edge">
<title>Node15&#45;&gt;Node16</title>
<g id="a_edge18_Node000015_Node000016"><a xlink:title=" ">
<path fill="none" stroke="#63b8ff" d="M547.37,-188.72C598.66,-181.75 669.43,-170.01 729.88,-152.25 731.22,-151.85 732.59,-151.42 733.96,-150.96"/>
<polygon fill="#63b8ff" stroke="#63b8ff" points="734.82,-154.38 742.95,-147.58 732.36,-147.82 734.82,-154.38"/>
</a>
</g>
</g>
<!-- Node15&#45;&gt;Node17 -->
<g id="edge21_Node000015_Node000017" class="edge">
<title>Node15&#45;&gt;Node17</title>
<g id="a_edge21_Node000015_Node000017"><a xlink:title=" ">
<path fill="none" stroke="#63b8ff" d="M406.17,-194.02C290.39,-188.71 70.48,-175.64 43.88,-152.25 26.91,-137.34 23.6,-110.4 23.58,-91.76"/>
<polygon fill="#63b8ff" stroke="#63b8ff" points="27.07,-92.06 23.92,-81.94 20.08,-91.82 27.07,-92.06"/>
</a>
</g>
</g>
<!-- Node18 -->
<g id="Node000018" class="node">
<title>Node18</title>
<g id="a_Node000018"><a xlink:href="../../da/d33/Namespace_8hpp.html" target="_top" xlink:title=" ">
<polygon fill="white" stroke="#666666" points="618.75,-146.62 449,-146.62 449,-127.38 618.75,-127.38 618.75,-146.62"/>
<text text-anchor="middle" x="533.88" y="-133.12" font-family="Helvetica,sans-Serif" font-size="10.00">Ark/Compiler/AST/Namespace.hpp</text>
</a>
</g>
</g>
<!-- Node15&#45;&gt;Node18 -->
<g id="edge22_Node000015_Node000018" class="edge">
<title>Node15&#45;&gt;Node18</title>
<g id="a_edge22_Node000015_Node000018"><a xlink:title=" ">
<path fill="none" stroke="#63b8ff" d="M485.53,-187.93C493.9,-179.29 506.8,-165.96 517.18,-155.25"/>
<polygon fill="#63b8ff" stroke="#63b8ff" points="519.64,-157.73 524.08,-148.11 514.61,-152.86 519.64,-157.73"/>
</a>
</g>
</g>
<!-- Node20 -->
<g id="Node000020" class="node">
<title>Node20</title>
<g id="a_Node000020"><a xlink:href="../../d8/ddd/Common_8hpp.html" target="_top" xlink:title="Common code for the compiler.">
<polygon fill="white" stroke="#666666" points="393.12,-146.62 258.62,-146.62 258.62,-127.38 393.12,-127.38 393.12,-146.62"/>
<text text-anchor="middle" x="325.88" y="-133.12" font-family="Helvetica,sans-Serif" font-size="10.00">Ark/Compiler/Common.hpp</text>
</a>
</g>
</g>
<!-- Node15&#45;&gt;Node20 -->
<g id="edge26_Node000015_Node000020" class="edge">
<title>Node15&#45;&gt;Node20</title>
<g id="a_edge26_Node000015_Node000020"><a xlink:title=" ">
<path fill="none" stroke="#63b8ff" d="M453.61,-187.8C428.56,-178.04 388.46,-162.4 359.88,-151.26"/>
<polygon fill="#63b8ff" stroke="#63b8ff" points="361.16,-148 350.57,-147.63 358.62,-154.52 361.16,-148"/>
</a>
</g>
</g>
<!-- Node27 -->
<g id="Node000027" class="node">
<title>Node27</title>
<g id="a_Node000027"><a xlink:href="../../dc/d58/Position_8hpp.html" target="_top" xlink:title="Defines position utilities (for text in a file) for the parser, formatter, diagnostics.">
<polygon fill="white" stroke="#666666" points="164.5,-146.62 53.25,-146.62 53.25,-127.38 164.5,-127.38 164.5,-146.62"/>
<text text-anchor="middle" x="108.88" y="-133.12" font-family="Helvetica,sans-Serif" font-size="10.00">Ark/Utils/Position.hpp</text>
</a>
</g>
</g>
<!-- Node15&#45;&gt;Node27 -->
<g id="edge37_Node000015_Node000027" class="edge">
<title>Node15&#45;&gt;Node27</title>
<g id="a_edge37_Node000015_Node000027"><a xlink:title=" ">
<path fill="none" stroke="#63b8ff" d="M409.25,-187.77C348.74,-179.39 257.7,-166.16 178.88,-152.25 173.65,-151.33 168.22,-150.32 162.8,-149.27"/>
<polygon fill="#63b8ff" stroke="#63b8ff" points="163.72,-145.89 153.24,-147.39 162.37,-152.75 163.72,-145.89"/>
</a>
</g>
</g>
<!-- Node18&#45;&gt;Node8 -->
<g id="edge23_Node000018_Node000008" class="edge">
<title>Node18&#45;&gt;Node8</title>
<g id="a_edge23_Node000018_Node000008"><a xlink:title=" ">
<path fill="none" stroke="#63b8ff" d="M544.86,-127.03C557.29,-116.88 577.78,-100.15 593.03,-87.7"/>
<polygon fill="#63b8ff" stroke="#63b8ff" points="595.02,-90.59 600.56,-81.56 590.6,-85.17 595.02,-90.59"/>
</a>
</g>
</g>
<!-- Node18&#45;&gt;Node11 -->
<g id="edge24_Node000018_Node000011" class="edge">
<title>Node18&#45;&gt;Node11</title>
<g id="a_edge24_Node000018_Node000011"><a xlink:title=" ">
<path fill="none" stroke="#63b8ff" d="M536.52,-127.03C539.24,-117.79 543.57,-103.08 547.09,-91.13"/>
<polygon fill="#63b8ff" stroke="#63b8ff" points="550.36,-92.43 549.83,-81.84 543.64,-90.45 550.36,-92.43"/>
</a>
</g>
</g>
<!-- Node19 -->
<g id="Node000019" class="node">
<title>Node19</title>
<g id="a_Node000019"><a xlink:title=" ">
<polygon fill="#e0e0e0" stroke="#999999" points="513.5,-80.12 462.25,-80.12 462.25,-60.88 513.5,-60.88 513.5,-80.12"/>
<text text-anchor="middle" x="487.88" y="-66.62" font-family="Helvetica,sans-Serif" font-size="10.00">memory</text>
</a>
</g>
</g>
<!-- Node18&#45;&gt;Node19 -->
<g id="edge25_Node000018_Node000019" class="edge">
<title>Node18&#45;&gt;Node19</title>
<g id="a_edge25_Node000018_Node000019"><a xlink:title=" ">
<path fill="none" stroke="#63b8ff" d="M527.48,-127.03C520.61,-117.4 509.52,-101.85 500.82,-89.65"/>
<polygon fill="#63b8ff" stroke="#63b8ff" points="503.75,-87.73 495.1,-81.62 498.05,-91.8 503.75,-87.73"/>
</a>
</g>
</g>
<!-- Node20&#45;&gt;Node11 -->
<g id="edge29_Node000020_Node000011" class="edge">
<title>Node20&#45;&gt;Node11</title>
<g id="a_edge29_Node000020_Node000011"><a xlink:title=" ">
<path fill="none" stroke="#63b8ff" d="M372.01,-126.88C412.43,-118.27 472.41,-103.98 522.88,-85.75 523.52,-85.52 524.17,-85.28 524.82,-85.03"/>
<polygon fill="#63b8ff" stroke="#63b8ff" points="526.14,-88.27 533.96,-81.12 523.39,-81.83 526.14,-88.27"/>
</a>
</g>
</g>
<!-- Node21 -->
<g id="Node000021" class="node">
<title>Node21</title>
<g id="a_Node000021"><a xlink:title=" ">
<polygon fill="#e0e0e0" stroke="#999999" points="600.75,-19.25 563,-19.25 563,0 600.75,0 600.75,-19.25"/>
<text text-anchor="middle" x="581.88" y="-5.75" font-family="Helvetica,sans-Serif" font-size="10.00">array</text>
</a>
</g>
</g>
<!-- Node20&#45;&gt;Node21 -->
<g id="edge27_Node000020_Node000021" class="edge">
<title>Node20&#45;&gt;Node21</title>
<g id="a_edge27_Node000020_Node000021"><a xlink:title=" ">
<path fill="none" stroke="#63b8ff" d="M335.27,-126.98C355.12,-108.09 401.07,-65.26 419.88,-55.25 462.6,-32.5 518,-20.49 551.7,-14.86"/>
<polygon fill="#63b8ff" stroke="#63b8ff" points="551.83,-18.38 561.16,-13.36 550.73,-11.47 551.83,-18.38"/>
</a>
</g>
</g>
<!-- Node22 -->
<g id="Node000022" class="node">
<title>Node22</title>
<g id="a_Node000022"><a xlink:title=" ">
<polygon fill="#e0e0e0" stroke="#999999" points="277.62,-19.25 212.12,-19.25 212.12,0 277.62,0 277.62,-19.25"/>
<text text-anchor="middle" x="244.88" y="-5.75" font-family="Helvetica,sans-Serif" font-size="10.00">string_view</text>
</a>
</g>
</g>
<!-- Node20&#45;&gt;Node22 -->
<g id="edge28_Node000020_Node000022" class="edge">
<title>Node20&#45;&gt;Node22</title>
<g id="a_edge28_Node000020_Node000022"><a xlink:title=" ">
<path fill="none" stroke="#63b8ff" d="M308.12,-126.95C293.17,-118.38 272.41,-104.1 260.88,-85.75 250.46,-69.18 246.73,-46.92 245.44,-30.94"/>
<polygon fill="#63b8ff" stroke="#63b8ff" points="248.95,-31.01 244.93,-21.21 241.96,-31.38 248.95,-31.01"/>
</a>
</g>
</g>
<!-- Node23 -->
<g id="Node000023" class="node">
<title>Node23</title>
<g id="a_Node000023"><a xlink:title=" ">
<polygon fill="#e0e0e0" stroke="#999999" points="763.75,-19.25 708,-19.25 708,0 763.75,0 763.75,-19.25"/>
<text text-anchor="middle" x="735.88" y="-5.75" font-family="Helvetica,sans-Serif" font-size="10.00">cinttypes</text>
</a>
</g>
</g>
<!-- Node20&#45;&gt;Node23 -->
<g id="edge30_Node000020_Node000023" class="edge">
<title>Node20&#45;&gt;Node23</title>
<g id="a_edge30_Node000020_Node000023"><a xlink:title=" ">
<path fill="none" stroke="#63b8ff" d="M343.77,-126.99C362.12,-117.51 391.22,-101.77 414.88,-85.75 432.81,-73.61 433.07,-64.01 452.88,-55.25 495.79,-36.27 629.16,-21.03 696.35,-14.32"/>
<polygon fill="#63b8ff" stroke="#63b8ff" points="696.59,-17.82 706.2,-13.36 695.9,-10.85 696.59,-17.82"/>
</a>
</g>
</g>
<!-- Node24 -->
<g id="Node000024" class="node">
<title>Node24</title>
<g id="a_Node000024"><a xlink:href="../../d6/de9/Constants_8hpp.html" target="_top" xlink:title="Constants used by ArkScript.">
<polygon fill="white" stroke="#666666" points="367.75,-80.12 270,-80.12 270,-60.88 367.75,-60.88 367.75,-80.12"/>
<text text-anchor="middle" x="318.88" y="-66.62" font-family="Helvetica,sans-Serif" font-size="10.00">Ark/Constants.hpp</text>
</a>
</g>
</g>
<!-- Node20&#45;&gt;Node24 -->
<g id="edge31_Node000020_Node000024" class="edge">
<title>Node20&#45;&gt;Node24</title>
<g id="a_edge31_Node000020_Node000024"><a xlink:title=" ">
<path fill="none" stroke="#63b8ff" d="M324.9,-127.03C323.91,-117.89 322.34,-103.39 321.05,-91.5"/>
<polygon fill="#63b8ff" stroke="#63b8ff" points="324.56,-91.46 320,-81.9 317.6,-92.22 324.56,-91.46"/>
</a>
</g>
</g>
<!-- Node24&#45;&gt;Node22 -->
<g id="edge32_Node000024_Node000022" class="edge">
<title>Node24&#45;&gt;Node22</title>
<g id="a_edge32_Node000024_Node000022"><a xlink:title=" ">
<path fill="none" stroke="#63b8ff" d="M307.64,-60.56C296.34,-51.57 278.67,-37.51 264.96,-26.6"/>
<polygon fill="#63b8ff" stroke="#63b8ff" points="267.41,-24.08 257.4,-20.59 263.05,-29.56 267.41,-24.08"/>
</a>
</g>
</g>
<!-- Node24&#45;&gt;Node23 -->
<g id="edge34_Node000024_Node000023" class="edge">
<title>Node24&#45;&gt;Node23</title>
<g id="a_edge34_Node000024_Node000023"><a xlink:title=" ">
<path fill="none" stroke="#63b8ff" d="M367.94,-62.57C451.59,-50.76 620.18,-26.96 696.61,-16.17"/>
<polygon fill="#63b8ff" stroke="#63b8ff" points="696.72,-19.69 706.13,-14.82 695.74,-12.76 696.72,-19.69"/>
</a>
</g>
</g>
<!-- Node25 -->
<g id="Node000025" class="node">
<title>Node25</title>
<g id="a_Node000025"><a xlink:title=" ">
<polygon fill="#e0e0e0" stroke="#999999" points="336.5,-19.25 297.25,-19.25 297.25,0 336.5,0 336.5,-19.25"/>
<text text-anchor="middle" x="316.88" y="-5.75" font-family="Helvetica,sans-Serif" font-size="10.00">limits</text>
</a>
</g>
</g>
<!-- Node24&#45;&gt;Node25 -->
<g id="edge33_Node000024_Node000025" class="edge">
<title>Node24&#45;&gt;Node25</title>
<g id="a_edge33_Node000024_Node000025"><a xlink:title=" ">
<path fill="none" stroke="#63b8ff" d="M318.57,-60.56C318.3,-52.69 317.91,-40.95 317.56,-30.82"/>
<polygon fill="#63b8ff" stroke="#63b8ff" points="321.07,-31.04 317.23,-21.16 314.07,-31.28 321.07,-31.04"/>
</a>
</g>
</g>
<!-- Node26 -->
<g id="Node000026" class="node">
<title>Node26</title>
<g id="a_Node000026"><a xlink:title=" ">
<polygon fill="#e0e0e0" stroke="#999999" points="403,-19.25 354.75,-19.25 354.75,0 403,0 403,-19.25"/>
<text text-anchor="middle" x="378.88" y="-5.75" font-family="Helvetica,sans-Serif" font-size="10.00">cstddef</text>
</a>
</g>
</g>
<!-- Node24&#45;&gt;Node26 -->
<g id="edge35_Node000024_Node000026" class="edge">
<title>Node24&#45;&gt;Node26</title>
<g id="a_edge35_Node000024_Node000026"><a xlink:title=" ">
<path fill="none" stroke="#63b8ff" d="M327.99,-60.56C336.89,-51.83 350.65,-38.32 361.62,-27.55"/>
<polygon fill="#63b8ff" stroke="#63b8ff" points="363.91,-30.21 368.6,-20.71 359.01,-25.22 363.91,-30.21"/>
</a>
</g>
</g>
<!-- Node27&#45;&gt;Node2 -->
<g id="edge39_Node000027_Node000002" class="edge">
<title>Node27&#45;&gt;Node2</title>
<g id="a_edge39_Node000027_Node000002"><a xlink:title=" ">
<path fill="none" stroke="#63b8ff" d="M115.69,-127.03C123.08,-117.31 135.06,-101.54 144.36,-89.28"/>
<polygon fill="#63b8ff" stroke="#63b8ff" points="146.94,-91.68 150.2,-81.6 141.37,-87.44 146.94,-91.68"/>
</a>
</g>
</g>
<!-- Node27&#45;&gt;Node17 -->
<g id="edge38_Node000027_Node000017" class="edge">
<title>Node27&#45;&gt;Node17</title>
<g id="a_edge38_Node000027_Node000017"><a xlink:title=" ">
<path fill="none" stroke="#63b8ff" d="M97.2,-127.03C83.86,-116.79 61.78,-99.84 45.52,-87.35"/>
<polygon fill="#63b8ff" stroke="#63b8ff" points="47.99,-84.84 37.93,-81.52 43.73,-90.39 47.99,-84.84"/>
</a>
</g>
</g>
<!-- Node28&#45;&gt;Node2 -->
<g id="edge41_Node000028_Node000002" class="edge">
<title>Node28&#45;&gt;Node2</title>
<g id="a_edge41_Node000028_Node000002"><a xlink:title=" ">
<path fill="none" stroke="#63b8ff" d="M765,-194.41C628.11,-188.37 296.47,-171.9 249.88,-152.25 249.32,-152.02 203.26,-111.48 176.53,-87.94"/>
<polygon fill="#63b8ff" stroke="#63b8ff" points="178.95,-85.4 169.13,-81.42 174.32,-90.65 178.95,-85.4"/>
</a>
</g>
</g>
<!-- Node28&#45;&gt;Node3 -->
<g id="edge42_Node000028_Node000003" class="edge">
<title>Node28&#45;&gt;Node3</title>
<g id="a_edge42_Node000028_Node000003"><a xlink:title=" ">
<path fill="none" stroke="#63b8ff" d="M866.24,-187.8C914.39,-177.5 993.05,-160.66 1045.39,-149.45"/>
<polygon fill="#63b8ff" stroke="#63b8ff" points="1045.94,-152.91 1054.98,-147.4 1044.47,-146.07 1045.94,-152.91"/>
</a>
</g>
</g>
<!-- Node28&#45;&gt;Node16 -->
<g id="edge43_Node000028_Node000016" class="edge">
<title>Node28&#45;&gt;Node16</title>
<g id="a_edge43_Node000028_Node000016"><a xlink:title=" ">
<path fill="none" stroke="#63b8ff" d="M814.76,-187.93C805.86,-179.2 792.1,-165.69 781.13,-154.93"/>
<polygon fill="#63b8ff" stroke="#63b8ff" points="783.74,-152.59 774.15,-148.09 778.84,-157.59 783.74,-152.59"/>
</a>
</g>
</g>
<!-- Node29&#45;&gt;Node8 -->
<g id="edge47_Node000029_Node000008" class="edge">
<title>Node29&#45;&gt;Node8</title>
<g id="a_edge47_Node000029_Node000008"><a xlink:title=" ">
<path fill="none" stroke="#63b8ff" d="M845.58,-124.03C767.53,-109.68 646.74,-87.37 641.88,-85.75 641.23,-85.53 640.57,-85.31 639.92,-85.07"/>
<polygon fill="#63b8ff" stroke="#63b8ff" points="641.38,-81.89 630.81,-81.18 638.63,-88.33 641.38,-81.89"/>
</a>
</g>
</g>
<!-- Node29&#45;&gt;Node11 -->
<g id="edge46_Node000029_Node000011" class="edge">
<title>Node29&#45;&gt;Node11</title>
<g id="a_edge46_Node000029_Node000011"><a xlink:title=" ">
<path fill="none" stroke="#63b8ff" d="M845.49,-126.95C757.3,-114.58 608.39,-93.11 583.88,-85.75 582.88,-85.45 581.88,-85.13 580.88,-84.78"/>
<polygon fill="#63b8ff" stroke="#63b8ff" points="582.24,-81.56 571.65,-81.08 579.63,-88.05 582.24,-81.56"/>
</a>
</g>
</g>
<!-- Node29&#45;&gt;Node23 -->
<g id="edge45_Node000029_Node000023" class="edge">
<title>Node29&#45;&gt;Node23</title>
<g id="a_edge45_Node000029_Node000023"><a xlink:title=" ">
<path fill="none" stroke="#63b8ff" d="M891.1,-121.44C877.69,-111.49 859.61,-97.96 843.88,-85.75 826.77,-72.47 823.48,-67.87 805.88,-55.25 791.31,-44.81 774.39,-33.99 760.83,-25.62"/>
<polygon fill="#63b8ff" stroke="#63b8ff" points="762.86,-22.75 752.5,-20.53 759.21,-28.73 762.86,-22.75"/>
</a>
</g>
</g>
<!-- Node30 -->
<g id="Node000030" class="node">
<title>Node30</title>
<g id="a_Node000030"><a xlink:href="../../db/d53/Word_8hpp.html" target="_top" xlink:title="Describe an instruction and its immediate argument.">
<polygon fill="white" stroke="#666666" points="982.88,-85.75 852.88,-85.75 852.88,-55.25 982.88,-55.25 982.88,-85.75"/>
<text text-anchor="start" x="860.88" y="-72.25" font-family="Helvetica,sans-Serif" font-size="10.00">Ark/Compiler/Intermediate</text>
<text text-anchor="middle" x="917.88" y="-61" font-family="Helvetica,sans-Serif" font-size="10.00">Representation/Word.hpp</text>
</a>
</g>
</g>
<!-- Node29&#45;&gt;Node30 -->
<g id="edge48_Node000029_Node000030" class="edge">
<title>Node29&#45;&gt;Node30</title>
<g id="a_edge48_Node000029_Node000030"><a xlink:title=" ">
<path fill="none" stroke="#63b8ff" d="M912.46,-121.36C913.23,-114.27 914.18,-105.54 915.07,-97.38"/>
<polygon fill="#63b8ff" stroke="#63b8ff" points="918.53,-97.9 916.13,-87.58 911.57,-97.15 918.53,-97.9"/>
</a>
</g>
</g>
<!-- Node31 -->
<g id="Node000031" class="node">
<title>Node31</title>
<g id="a_Node000031"><a xlink:href="../../d8/daa/Instructions_8hpp.html" target="_top" xlink:title="The different instructions used by the compiler and virtual machine.">
<polygon fill="white" stroke="#666666" points="796.75,-80.12 651,-80.12 651,-60.88 796.75,-60.88 796.75,-80.12"/>
<text text-anchor="middle" x="723.88" y="-66.62" font-family="Helvetica,sans-Serif" font-size="10.00">Ark/Compiler/Instructions.hpp</text>
</a>
</g>
</g>
<!-- Node29&#45;&gt;Node31 -->
<g id="edge50_Node000029_Node000031" class="edge">
<title>Node29&#45;&gt;Node31</title>
<g id="a_edge50_Node000029_Node000031"><a xlink:title=" ">
<path fill="none" stroke="#63b8ff" d="M868.44,-121.36C836.1,-110.21 792,-95 761.04,-84.32"/>
<polygon fill="#63b8ff" stroke="#63b8ff" points="762.29,-81.05 751.7,-81.1 760.01,-87.67 762.29,-81.05"/>
</a>
</g>
</g>
<!-- Node30&#45;&gt;Node23 -->
<g id="edge49_Node000030_Node000023" class="edge">
<title>Node30&#45;&gt;Node23</title>
<g id="a_edge49_Node000030_Node000023"><a xlink:title=" ">
<path fill="none" stroke="#63b8ff" d="M872.42,-54.8C842.4,-45.08 803.46,-32.49 774.86,-23.23"/>
<polygon fill="#63b8ff" stroke="#63b8ff" points="776.09,-19.95 765.49,-20.21 773.93,-26.61 776.09,-19.95"/>
</a>
</g>
</g>
<!-- Node31&#45;&gt;Node21 -->
<g id="edge51_Node000031_Node000021" class="edge">
<title>Node31&#45;&gt;Node21</title>
<g id="a_edge51_Node000031_Node000021"><a xlink:title=" ">
<path fill="none" stroke="#63b8ff" d="M702,-60.43C677.66,-50.34 638.2,-33.98 611.2,-22.78"/>
<polygon fill="#63b8ff" stroke="#63b8ff" points="612.8,-19.66 602.22,-19.06 610.12,-26.12 612.8,-19.66"/>
</a>
</g>
</g>
</g>
</svg>

<g id="navigator" transform="translate(0 0)" fill="#404254">
  <rect fill="#f2f5e9" fill-opacity="0.5" stroke="#606060" stroke-width=".5" x="0" y="0" width="60" height="60"/>
  <use id="zoomplus" xlink:href="#zoomPlus" x="17" y="9" onmousedown="handleZoom(evt,'in')"/>
  <use id="zoomminus" xlink:href="#zoomMin" x="42" y="9" onmousedown="handleZoom(evt,'out')"/>
  <use id="reset" xlink:href="#resetDef" x="30" y="36" onmousedown="handleReset()"/>
   <use id="arrowup" xlink:href="#arrowUp" x="0" y="0" onmousedown="handlePan(0,-1)"/>
  <use id="arrowright" xlink:href="#arrowRight" x="0" y="0" onmousedown="handlePan(1,0)"/>
  <use id="arrowdown" xlink:href="#arrowDown" x="0" y="0" onmousedown="handlePan(0,1)"/>
  <use id="arrowleft" xlink:href="#arrowLeft" x="0" y="0" onmousedown="handlePan(-1,0)"/>
</g>
<svg viewBox="0 0 15 15" width="100%" height="30px" preserveAspectRatio="xMaxYMin meet">
 <g id="arrow_out" transform="scale(0.3 0.3)">
  <a xlink:href="IROptimizer_8hpp__incl_org.svg" target="_base">
   <rect id="button" ry="5" rx="5" y="6" x="6" height="38" width="38"
        fill="#f2f5e9" fill-opacity="0.5" stroke="#606060" stroke-width="1.0"/>
   <path id="arrow"
     d="M 11.500037,31.436501 C 11.940474,20.09759 22.043105,11.32322 32.158766,21.979434 L 37.068811,17.246167 C 37.068811,17.246167 37.088388,32 37.088388,32 L 22.160133,31.978069 C 22.160133,31.978069 26.997745,27.140456 26.997745,27.140456 C 18.528582,18.264221 13.291696,25.230495 11.500037,31.436501 z"
     style="fill:#404040;"/>
  </a>
 </g>
</svg>

<style type='text/css'>
<![CDATA[
[data-mouse-over-selected='false'] { opacity: 0.7; }
[data-mouse-over-selected='true']  { opacity: 1.0; }
]]>
</style>
<script type="application/ecmascript"><![CDATA[
document.addEventListener('DOMContentLoaded', (event) => {
  highlightEdges();
  highlightAdjacentNodes();
});
]]></script>
</svg>
