<?xml version="1.0" encoding="UTF-8" standalone="no"?>
<!DOCTYPE svg PUBLIC "-//W3C//DTD SVG 1.1//EN"
 "http://www.w3.org/Graphics/SVG/1.1/DTD/svg11.dtd">
<!-- Generated by graphviz version 12.2.0 (20241103.1931)
 -->
<!-- Title: /Users/fola/Documents/ArkScript/Ark/include/Ark/Compiler/IntermediateRepresentation/IROptimizer.hpp Pages: 1 -->
<!--zoomable 360 -->

<svg id="main" version="1.1" xmlns="http://www.w3.org/2000/svg" xmlns:xlink="http://www.w3.org/1999/xlink" xml:space="preserve" onload="init(evt)">

<style type="text/css"><![CDATA[
.node, .edge {opacity: 0.7;}
.node.selected, .edge.selected {opacity: 1;}
.edge:hover path { stroke: red; }
.edge:hover polygon { stroke: red; fill: red; }
]]></style>

<defs>
  <circle id="rim" cx="0" cy="0" r="7"/>
  <circle id="rim2" cx="0" cy="0" r="3.5"/>
  <g id="zoomPlus">
    <use xlink:href="#rim" fill="#404040"><set attributeName="fill" to="#808080" begin="zoomplus.mouseover" end="zoomplus.mouseout"/></use>
    <path d="M-4,0h8M0,-4v8" fill="none" stroke="white" stroke-width="1.5" pointer-events="none"/>
  </g>
  <g id="zoomMin">
    <use xlink:href="#rim" fill="#404040"><set attributeName="fill" to="#808080" begin="zoomminus.mouseover" end="zoomminus.mouseout"/></use>
    <path d="M-4,0h8" fill="none" stroke="white" stroke-width="1.5" pointer-events="none"/>
  </g>
  <g id="arrowUp" transform="translate(30 24)">
    <use xlink:href="#rim"/>
    <path pointer-events="none" fill="none" stroke="white" stroke-width="1.5" d="M0,-3.0v7 M-2.5,-0.5L0,-3.0L2.5,-0.5"/>
  </g>
  <g id="arrowRight" transform="rotate(90) translate(36 -43)">
    <use xlink:href="#rim"/>
    <path pointer-events="none" fill="none" stroke="white" stroke-width="1.5" d="M0,-3.0v7 M-2.5,-0.5L0,-3.0L2.5,-0.5"/>
  </g>
  <g id="arrowDown" transform="rotate(180) translate(-30 -48)">
    <use xlink:href="#rim"/>
    <path pointer-events="none" fill="none" stroke="white" stroke-width="1.5" d="M0,-3.0v7 M-2.5,-0.5L0,-3.0L2.5,-0.5"/>
  </g>
  <g id="arrowLeft" transform="rotate(270) translate(-36 17)">
    <use xlink:href="#rim"/>
    <path pointer-events="none" fill="none" stroke="white" stroke-width="1.5" d="M0,-3.0v7 M-2.5,-0.5L0,-3.0L2.5,-0.5"/>
  </g>
  <g id="resetDef">
    <use xlink:href="#rim2" fill="#404040"><set attributeName="fill" to="#808080" begin="reset.mouseover" end="reset.mouseout"/></use>
  </g>
</defs>
<script type="application/ecmascript">
var viewWidth = 1575;
var viewHeight = 360;
var sectionId = 'dynsection-0';
</script>
<script type="application/ecmascript" xlink:href="../../svg.min.js"/>
<svg id="graph" class="graph">
<g id="viewport">
<title>/Users/fola/Documents/ArkScript/Ark/include/Ark/Compiler/IntermediateRepresentation/IROptimizer.hpp</title>
<!-- Node1 -->
<g id="Node000001" class="node">
<title>Node1</title>
<g id="a_Node000001"><a xlink:title="Optimize IR based on IR entity grouped by 2 (or more)">
<polygon fill="#999999" stroke="#666666" points="1318.38,-351.75 1119.38,-351.75 1119.38,-298.75 1318.38,-298.75 1318.38,-351.75"/>
<text text-anchor="start" x="1127.38" y="-338.25" font-family="Helvetica,sans-Serif" font-size="10.00">/Users/fola/Documents</text>
<text text-anchor="start" x="1127.38" y="-327" font-family="Helvetica,sans-Serif" font-size="10.00">/ArkScript/Ark/include</text>
<text text-anchor="start" x="1127.38" y="-315.75" font-family="Helvetica,sans-Serif" font-size="10.00">/Ark/Compiler/IntermediateRepresentation</text>
<text text-anchor="middle" x="1218.88" y="-304.5" font-family="Helvetica,sans-Serif" font-size="10.00">/IROptimizer.hpp</text>
</a>
</g>
</g>
<!-- Node2 -->
<g id="Node000002" class="node">
<title>Node2</title>
<g id="a_Node000002"><a xlink:href="../../d5/d40/Platform_8hpp.html" target="_top" xlink:title="ArkScript configuration macros.">
<polygon fill="white" stroke="#666666" points="1385.25,-80.12 1272.5,-80.12 1272.5,-60.88 1385.25,-60.88 1385.25,-80.12"/>
<text text-anchor="middle" x="1328.88" y="-66.62" font-family="Helvetica,sans-Serif" font-size="10.00">Ark/Utils/Platform.hpp</text>
</a>
</g>
</g>
<!-- Node1&#45;&gt;Node2 -->
<g id="edge1_Node000001_Node000002" class="edge">
<title>Node1&#45;&gt;Node2</title>
<g id="a_edge1_Node000001_Node000002"><a xlink:title=" ">
<path fill="none" stroke="#63b8ff" d="M1214.14,-298.44C1208.07,-257.37 1202.18,-176.25 1237.88,-121.75 1249.15,-104.54 1268.42,-92.7 1286.34,-84.85"/>
<polygon fill="#63b8ff" stroke="#63b8ff" points="1287.58,-88.12 1295.54,-81.14 1284.96,-81.63 1287.58,-88.12"/>
</a>
</g>
</g>
<!-- Node3 -->
<g id="Node000003" class="node">
<title>Node3</title>
<g id="a_Node000003"><a xlink:href="../../d9/d11/Logger_8hpp.html" target="_top" xlink:title="Internal logger.">
<polygon fill="white" stroke="#666666" points="396.12,-146.62 291.62,-146.62 291.62,-127.38 396.12,-127.38 396.12,-146.62"/>
<text text-anchor="middle" x="343.88" y="-133.12" font-family="Helvetica,sans-Serif" font-size="10.00">Ark/Utils/Logger.hpp</text>
</a>
</g>
</g>
<!-- Node1&#45;&gt;Node3 -->
<g id="edge2_Node000001_Node000003" class="edge">
<title>Node1&#45;&gt;Node3</title>
<g id="a_edge2_Node000001_Node000003"><a xlink:title=" ">
<path fill="none" stroke="#63b8ff" d="M1119.05,-321.78C1000.81,-317.03 798.6,-303.18 629.88,-262.75 563.21,-246.78 548.72,-234.87 485.88,-207.5 445.26,-189.81 399.42,-166.81 371.09,-152.22"/>
<polygon fill="#63b8ff" stroke="#63b8ff" points="372.96,-149.25 362.47,-147.76 369.75,-155.46 372.96,-149.25"/>
</a>
</g>
</g>
<!-- Node12 -->
<g id="Node000012" class="node">
<title>Node12</title>
<g id="a_Node000012"><a xlink:href="../../dd/de7/ValTableElem_8hpp.html" target="_top" xlink:title="The basic value type handled by the compiler.">
<polygon fill="white" stroke="#666666" points="792.88,-262.75 638.88,-262.75 638.88,-243.5 792.88,-243.5 792.88,-262.75"/>
<text text-anchor="middle" x="715.88" y="-249.25" font-family="Helvetica,sans-Serif" font-size="10.00">Ark/Compiler/ValTableElem.hpp</text>
</a>
</g>
</g>
<!-- Node1&#45;&gt;Node12 -->
<g id="edge11_Node000001_Node000012" class="edge">
<title>Node1&#45;&gt;Node12</title>
<g id="a_edge11_Node000001_Node000012"><a xlink:title=" ">
<path fill="none" stroke="#63b8ff" d="M1118.9,-310.31C1022.83,-296.92 879.74,-276.97 792.42,-264.8"/>
<polygon fill="#63b8ff" stroke="#63b8ff" points="793.16,-261.37 782.77,-263.45 792.19,-268.3 793.16,-261.37"/>
</a>
</g>
</g>
<!-- Node16 -->
<g id="Node000016" class="node">
<title>Node16</title>
<g id="a_Node000016"><a xlink:title=" ">
<polygon fill="#e0e0e0" stroke="#999999" points="1452.75,-80.12 1403,-80.12 1403,-60.88 1452.75,-60.88 1452.75,-80.12"/>
<text text-anchor="middle" x="1427.88" y="-66.62" font-family="Helvetica,sans-Serif" font-size="10.00">optional</text>
</a>
</g>
</g>
<!-- Node1&#45;&gt;Node16 -->
<g id="edge47_Node000001_Node000016" class="edge">
<title>Node1&#45;&gt;Node16</title>
<g id="a_edge47_Node000001_Node000016"><a xlink:title=" ">
<path fill="none" stroke="#63b8ff" d="M1254.07,-298.44C1293.87,-267.62 1358.28,-212.61 1397.88,-152.25 1410.28,-133.33 1418.5,-108.57 1423.15,-91.48"/>
<polygon fill="#63b8ff" stroke="#63b8ff" points="1426.48,-92.61 1425.54,-82.06 1419.69,-90.89 1426.48,-92.61"/>
</a>
</g>
</g>
<!-- Node27 -->
<g id="Node000027" class="node">
<title>Node27</title>
<g id="a_Node000027"><a xlink:href="../../de/da6/Entity_8hpp.html" target="_top" xlink:title="An entity in the IR is a bundle of information.">
<polygon fill="white" stroke="#666666" points="1143.88,-152.25 1013.88,-152.25 1013.88,-121.75 1143.88,-121.75 1143.88,-152.25"/>
<text text-anchor="start" x="1021.88" y="-138.75" font-family="Helvetica,sans-Serif" font-size="10.00">Ark/Compiler/Intermediate</text>
<text text-anchor="middle" x="1078.88" y="-127.5" font-family="Helvetica,sans-Serif" font-size="10.00">Representation/Entity.hpp</text>
</a>
</g>
</g>
<!-- Node1&#45;&gt;Node27 -->
<g id="edge38_Node000001_Node000027" class="edge">
<title>Node1&#45;&gt;Node27</title>
<g id="a_edge38_Node000001_Node000027"><a xlink:title=" ">
<path fill="none" stroke="#63b8ff" d="M1199.41,-298.35C1172.08,-261.99 1122.73,-196.34 1096.46,-161.39"/>
<polygon fill="#63b8ff" stroke="#63b8ff" points="1099.41,-159.49 1090.6,-153.6 1093.81,-163.7 1099.41,-159.49"/>
</a>
</g>
</g>
<!-- Node30 -->
<g id="Node000030" class="node">
<title>Node30</title>
<g id="a_Node000030"><a xlink:title=" ">
<polygon fill="#e0e0e0" stroke="#999999" points="1490.38,-262.75 1453.38,-262.75 1453.38,-243.5 1490.38,-243.5 1490.38,-262.75"/>
<text text-anchor="middle" x="1471.88" y="-249.25" font-family="Helvetica,sans-Serif" font-size="10.00">span</text>
</a>
</g>
</g>
<!-- Node1&#45;&gt;Node30 -->
<g id="edge46_Node000001_Node000030" class="edge">
<title>Node1&#45;&gt;Node30</title>
<g id="a_edge46_Node000001_Node000030"><a xlink:title=" ">
<path fill="none" stroke="#63b8ff" d="M1312.36,-298.34C1358.25,-285.62 1410.36,-271.17 1442.18,-262.36"/>
<polygon fill="#63b8ff" stroke="#63b8ff" points="1442.77,-265.82 1451.47,-259.78 1440.9,-259.08 1442.77,-265.82"/>
</a>
</g>
</g>
<!-- Node31 -->
<g id="Node000031" class="node">
<title>Node31</title>
<g id="a_Node000031"><a xlink:title=" ">
<polygon fill="#e0e0e0" stroke="#999999" points="1566.88,-262.75 1508.88,-262.75 1508.88,-243.5 1566.88,-243.5 1566.88,-262.75"/>
<text text-anchor="middle" x="1537.88" y="-249.25" font-family="Helvetica,sans-Serif" font-size="10.00">functional</text>
</a>
</g>
</g>
<!-- Node1&#45;&gt;Node31 -->
<g id="edge48_Node000001_Node000031" class="edge">
<title>Node1&#45;&gt;Node31</title>
<g id="a_edge48_Node000001_Node000031"><a xlink:title=" ">
<path fill="none" stroke="#63b8ff" d="M1318.73,-302.59C1369.6,-291.51 1432.73,-277.69 1497.58,-263.25"/>
<polygon fill="#63b8ff" stroke="#63b8ff" points="1497.95,-266.75 1506.94,-261.16 1496.42,-259.92 1497.95,-266.75"/>
</a>
</g>
</g>
<!-- Node4 -->
<g id="Node000004" class="node">
<title>Node4</title>
<g id="a_Node000004"><a xlink:title=" ">
<polygon fill="#e0e0e0" stroke="#999999" points="133.62,-80.12 80.12,-80.12 80.12,-60.88 133.62,-60.88 133.62,-80.12"/>
<text text-anchor="middle" x="106.88" y="-66.62" font-family="Helvetica,sans-Serif" font-size="10.00">iostream</text>
</a>
</g>
</g>
<!-- Node3&#45;&gt;Node4 -->
<g id="edge3_Node000003_Node000004" class="edge">
<title>Node3&#45;&gt;Node4</title>
<g id="a_edge3_Node000003_Node000004"><a xlink:title=" ">
<path fill="none" stroke="#63b8ff" d="M299.62,-126.9C258.35,-117.97 195.3,-103.17 141.88,-85.75 140.72,-85.37 139.55,-84.98 138.37,-84.57"/>
<polygon fill="#63b8ff" stroke="#63b8ff" points="139.8,-81.36 129.21,-81.12 137.34,-87.92 139.8,-81.36"/>
</a>
</g>
</g>
<!-- Node5 -->
<g id="Node000005" class="node">
<title>Node5</title>
<g id="a_Node000005"><a xlink:title=" ">
<polygon fill="#e0e0e0" stroke="#999999" points="220.5,-80.12 151.25,-80.12 151.25,-60.88 220.5,-60.88 220.5,-80.12"/>
<text text-anchor="middle" x="185.88" y="-66.62" font-family="Helvetica,sans-Serif" font-size="10.00">fmt/format.h</text>
</a>
</g>
</g>
<!-- Node3&#45;&gt;Node5 -->
<g id="edge4_Node000003_Node000005" class="edge">
<title>Node3&#45;&gt;Node5</title>
<g id="a_edge4_Node000003_Node000005"><a xlink:title=" ">
<path fill="none" stroke="#63b8ff" d="M321.57,-126.9C294.75,-115.95 249.51,-97.48 218.7,-84.9"/>
<polygon fill="#63b8ff" stroke="#63b8ff" points="220.05,-81.67 209.47,-81.13 217.4,-88.15 220.05,-81.67"/>
</a>
</g>
</g>
<!-- Node6 -->
<g id="Node000006" class="node">
<title>Node6</title>
<g id="a_Node000006"><a xlink:title=" ">
<polygon fill="#e0e0e0" stroke="#999999" points="544.88,-80.12 504.88,-80.12 504.88,-60.88 544.88,-60.88 544.88,-80.12"/>
<text text-anchor="middle" x="524.88" y="-66.62" font-family="Helvetica,sans-Serif" font-size="10.00">string</text>
</a>
</g>
</g>
<!-- Node3&#45;&gt;Node6 -->
<g id="edge5_Node000003_Node000006" class="edge">
<title>Node3&#45;&gt;Node6</title>
<g id="a_edge5_Node000003_Node000006"><a xlink:title=" ">
<path fill="none" stroke="#63b8ff" d="M375.48,-126.94C406.55,-117.71 455.1,-102.42 495.88,-85.75 496.36,-85.55 496.84,-85.35 497.32,-85.15"/>
<polygon fill="#63b8ff" stroke="#63b8ff" points="498.54,-88.44 506.19,-81.11 495.64,-82.07 498.54,-88.44"/>
</a>
</g>
</g>
<!-- Node7 -->
<g id="Node000007" class="node">
<title>Node7</title>
<g id="a_Node000007"><a xlink:title=" ">
<polygon fill="#e0e0e0" stroke="#999999" points="283.5,-80.12 238.25,-80.12 238.25,-60.88 283.5,-60.88 283.5,-80.12"/>
<text text-anchor="middle" x="260.88" y="-66.62" font-family="Helvetica,sans-Serif" font-size="10.00">chrono</text>
</a>
</g>
</g>
<!-- Node3&#45;&gt;Node7 -->
<g id="edge6_Node000003_Node000007" class="edge">
<title>Node3&#45;&gt;Node7</title>
<g id="a_edge6_Node000003_Node000007"><a xlink:title=" ">
<path fill="none" stroke="#63b8ff" d="M332.33,-127.03C319.15,-116.79 297.34,-99.84 281.27,-87.35"/>
<polygon fill="#63b8ff" stroke="#63b8ff" points="283.82,-84.9 273.78,-81.53 279.53,-90.43 283.82,-84.9"/>
</a>
</g>
</g>
<!-- Node8 -->
<g id="Node000008" class="node">
<title>Node8</title>
<g id="a_Node000008"><a xlink:title=" ">
<polygon fill="#e0e0e0" stroke="#999999" points="386,-80.12 301.75,-80.12 301.75,-60.88 386,-60.88 386,-80.12"/>
<text text-anchor="middle" x="343.88" y="-66.62" font-family="Helvetica,sans-Serif" font-size="10.00">source_location</text>
</a>
</g>
</g>
<!-- Node3&#45;&gt;Node8 -->
<g id="edge7_Node000003_Node000008" class="edge">
<title>Node3&#45;&gt;Node8</title>
<g id="a_edge7_Node000003_Node000008"><a xlink:title=" ">
<path fill="none" stroke="#63b8ff" d="M343.88,-127.03C343.88,-117.98 343.88,-103.7 343.88,-91.88"/>
<polygon fill="#63b8ff" stroke="#63b8ff" points="347.38,-91.91 343.88,-81.91 340.38,-91.91 347.38,-91.91"/>
</a>
</g>
</g>
<!-- Node9 -->
<g id="Node000009" class="node">
<title>Node9</title>
<g id="a_Node000009"><a xlink:title=" ">
<polygon fill="#e0e0e0" stroke="#999999" points="675.38,-80.12 632.38,-80.12 632.38,-60.88 675.38,-60.88 675.38,-80.12"/>
<text text-anchor="middle" x="653.88" y="-66.62" font-family="Helvetica,sans-Serif" font-size="10.00">vector</text>
</a>
</g>
</g>
<!-- Node3&#45;&gt;Node9 -->
<g id="edge8_Node000003_Node000009" class="edge">
<title>Node3&#45;&gt;Node9</title>
<g id="a_edge8_Node000003_Node000009"><a xlink:title=" ">
<path fill="none" stroke="#63b8ff" d="M396.4,-128.28C465.33,-117.85 582.43,-99.05 623.88,-85.75 624.68,-85.49 625.49,-85.22 626.3,-84.93"/>
<polygon fill="#63b8ff" stroke="#63b8ff" points="627.45,-88.24 635.35,-81.17 624.77,-81.77 627.45,-88.24"/>
</a>
</g>
</g>
<!-- Node10 -->
<g id="Node000010" class="node">
<title>Node10</title>
<g id="a_Node000010"><a xlink:title=" ">
<polygon fill="#e0e0e0" stroke="#999999" points="487.25,-80.12 404.5,-80.12 404.5,-60.88 487.25,-60.88 487.25,-80.12"/>
<text text-anchor="middle" x="445.88" y="-66.62" font-family="Helvetica,sans-Serif" font-size="10.00">unordered_map</text>
</a>
</g>
</g>
<!-- Node3&#45;&gt;Node10 -->
<g id="edge9_Node000003_Node000010" class="edge">
<title>Node3&#45;&gt;Node10</title>
<g id="a_edge9_Node000003_Node000010"><a xlink:title=" ">
<path fill="none" stroke="#63b8ff" d="M358.06,-127.03C374.56,-116.6 402.07,-99.2 421.91,-86.65"/>
<polygon fill="#63b8ff" stroke="#63b8ff" points="423.62,-89.71 430.2,-81.41 419.88,-83.8 423.62,-89.71"/>
</a>
</g>
</g>
<!-- Node11 -->
<g id="Node000011" class="node">
<title>Node11</title>
<g id="a_Node000011"><a xlink:title=" ">
<polygon fill="#e0e0e0" stroke="#999999" points="61.75,-80.12 0,-80.12 0,-60.88 61.75,-60.88 61.75,-80.12"/>
<text text-anchor="middle" x="30.88" y="-66.62" font-family="Helvetica,sans-Serif" font-size="10.00">fmt/color.h</text>
</a>
</g>
</g>
<!-- Node3&#45;&gt;Node11 -->
<g id="edge10_Node000003_Node000011" class="edge">
<title>Node3&#45;&gt;Node11</title>
<g id="a_edge10_Node000003_Node000011"><a xlink:title=" ">
<path fill="none" stroke="#63b8ff" d="M291.24,-128.87C235.85,-120.78 146.4,-106.01 70.88,-85.75 69.01,-85.25 67.12,-84.71 65.21,-84.13"/>
<polygon fill="#63b8ff" stroke="#63b8ff" points="66.4,-80.83 55.8,-81.05 64.22,-87.49 66.4,-80.83"/>
</a>
</g>
</g>
<!-- Node12&#45;&gt;Node6 -->
<g id="edge13_Node000012_Node000006" class="edge">
<title>Node12&#45;&gt;Node6</title>
<g id="a_edge13_Node000012_Node000006"><a xlink:title=" ">
<path fill="none" stroke="#63b8ff" d="M638.4,-246.07C576.56,-236.67 493.73,-212.77 452.88,-152.25 445.29,-141.01 446.61,-133.77 452.88,-121.75 457.96,-112 480.18,-97.28 498.61,-86.29"/>
<polygon fill="#63b8ff" stroke="#63b8ff" points="500.15,-89.44 507.02,-81.38 496.62,-83.4 500.15,-89.44"/>
</a>
</g>
</g>
<!-- Node13 -->
<g id="Node000013" class="node">
<title>Node13</title>
<g id="a_Node000013"><a xlink:title=" ">
<polygon fill="#e0e0e0" stroke="#999999" points="507.5,-146.62 462.25,-146.62 462.25,-127.38 507.5,-127.38 507.5,-146.62"/>
<text text-anchor="middle" x="484.88" y="-133.12" font-family="Helvetica,sans-Serif" font-size="10.00">variant</text>
</a>
</g>
</g>
<!-- Node12&#45;&gt;Node13 -->
<g id="edge12_Node000012_Node000013" class="edge">
<title>Node12&#45;&gt;Node13</title>
<g id="a_edge12_Node000012_Node000013"><a xlink:title=" ">
<path fill="none" stroke="#63b8ff" d="M697.75,-243.17C657.7,-223.38 561.43,-175.82 513.29,-152.04"/>
<polygon fill="#63b8ff" stroke="#63b8ff" points="515.11,-149.03 504.59,-147.74 512.01,-155.31 515.11,-149.03"/>
</a>
</g>
</g>
<!-- Node14 -->
<g id="Node000014" class="node">
<title>Node14</title>
<g id="a_Node000014"><a xlink:href="../../d7/dc6/Node_8hpp.html" target="_top" xlink:title="AST node used by the parser, optimizer and compiler.">
<polygon fill="white" stroke="#666666" points="879.12,-207.5 738.62,-207.5 738.62,-188.25 879.12,-188.25 879.12,-207.5"/>
<text text-anchor="middle" x="808.88" y="-194" font-family="Helvetica,sans-Serif" font-size="10.00">Ark/Compiler/AST/Node.hpp</text>
</a>
</g>
</g>
<!-- Node12&#45;&gt;Node14 -->
<g id="edge14_Node000012_Node000014" class="edge">
<title>Node12&#45;&gt;Node14</title>
<g id="a_edge14_Node000012_Node000014"><a xlink:title=" ">
<path fill="none" stroke="#63b8ff" d="M731.65,-243.09C745.81,-234.98 766.86,-222.93 783.4,-213.46"/>
<polygon fill="#63b8ff" stroke="#63b8ff" points="784.77,-216.71 791.71,-208.7 781.29,-210.64 784.77,-216.71"/>
</a>
</g>
</g>
<!-- Node14&#45;&gt;Node2 -->
<g id="edge34_Node000014_Node000002" class="edge">
<title>Node14&#45;&gt;Node2</title>
<g id="a_edge34_Node000014_Node000002"><a xlink:title=" ">
<path fill="none" stroke="#63b8ff" d="M879.59,-195.9C950.47,-193.05 1061.85,-183.4 1152.88,-152.25 1178.22,-143.57 1180.84,-133.59 1204.88,-121.75 1233.92,-107.44 1268.09,-93.82 1293.2,-84.38"/>
<polygon fill="#63b8ff" stroke="#63b8ff" points="1294.13,-87.76 1302.29,-81 1291.69,-81.2 1294.13,-87.76"/>
</a>
</g>
</g>
<!-- Node14&#45;&gt;Node6 -->
<g id="edge17_Node000014_Node000006" class="edge">
<title>Node14&#45;&gt;Node6</title>
<g id="a_edge17_Node000014_Node000006"><a xlink:title=" ">
<path fill="none" stroke="#63b8ff" d="M738.27,-192.27C673.01,-186.65 582.14,-174.96 554.88,-152.25 536.86,-137.24 529.65,-110.32 526.78,-91.71"/>
<polygon fill="#63b8ff" stroke="#63b8ff" points="530.27,-91.41 525.59,-81.91 523.32,-92.26 530.27,-91.41"/>
</a>
</g>
</g>
<!-- Node14&#45;&gt;Node9 -->
<g id="edge18_Node000014_Node000009" class="edge">
<title>Node14&#45;&gt;Node9</title>
<g id="a_edge18_Node000014_Node000009"><a xlink:title=" ">
<path fill="none" stroke="#63b8ff" d="M802.74,-188.14C791.93,-173.19 768.21,-142.32 742.88,-121.75 732.52,-113.34 703.61,-97.47 681.53,-85.81"/>
<polygon fill="#63b8ff" stroke="#63b8ff" points="683.17,-82.71 672.69,-81.17 679.92,-88.91 683.17,-82.71"/>
</a>
</g>
</g>
<!-- Node14&#45;&gt;Node13 -->
<g id="edge15_Node000014_Node000013" class="edge">
<title>Node14&#45;&gt;Node13</title>
<g id="a_edge15_Node000014_Node000013"><a xlink:title=" ">
<path fill="none" stroke="#63b8ff" d="M738.42,-190.16C679.78,-183.57 594.46,-171.63 521.88,-152.25 520.25,-151.82 518.61,-151.34 516.95,-150.82"/>
<polygon fill="#63b8ff" stroke="#63b8ff" points="518.16,-147.54 507.57,-147.57 515.87,-154.15 518.16,-147.54"/>
</a>
</g>
</g>
<!-- Node15 -->
<g id="Node000015" class="node">
<title>Node15</title>
<g id="a_Node000015"><a xlink:title=" ">
<polygon fill="#e0e0e0" stroke="#999999" points="993.5,-146.62 942.25,-146.62 942.25,-127.38 993.5,-127.38 993.5,-146.62"/>
<text text-anchor="middle" x="967.88" y="-133.12" font-family="Helvetica,sans-Serif" font-size="10.00">ostream</text>
</a>
</g>
</g>
<!-- Node14&#45;&gt;Node15 -->
<g id="edge16_Node000014_Node000015" class="edge">
<title>Node14&#45;&gt;Node15</title>
<g id="a_edge16_Node000014_Node000015"><a xlink:title=" ">
<path fill="none" stroke="#63b8ff" d="M835.12,-187.78C860.3,-178.98 899.33,-165.11 932.88,-152.25 933.81,-151.89 934.76,-151.52 935.72,-151.15"/>
<polygon fill="#63b8ff" stroke="#63b8ff" points="936.68,-154.54 944.68,-147.59 934.09,-148.03 936.68,-154.54"/>
</a>
</g>
</g>
<!-- Node14&#45;&gt;Node16 -->
<g id="edge19_Node000014_Node000016" class="edge">
<title>Node14&#45;&gt;Node16</title>
<g id="a_edge19_Node000014_Node000016"><a xlink:title=" ">
<path fill="none" stroke="#63b8ff" d="M879.45,-194.49C1020.25,-189.26 1326.11,-175.37 1367.88,-152.25 1392.54,-138.59 1409.95,-110.06 1419.46,-90.83"/>
<polygon fill="#63b8ff" stroke="#63b8ff" points="1422.57,-92.44 1423.6,-81.9 1416.22,-89.5 1422.57,-92.44"/>
</a>
</g>
</g>
<!-- Node17 -->
<g id="Node000017" class="node">
<title>Node17</title>
<g id="a_Node000017"><a xlink:href="../../da/d33/Namespace_8hpp.html" target="_top" xlink:title=" ">
<polygon fill="white" stroke="#666666" points="733.75,-146.62 564,-146.62 564,-127.38 733.75,-127.38 733.75,-146.62"/>
<text text-anchor="middle" x="648.88" y="-133.12" font-family="Helvetica,sans-Serif" font-size="10.00">Ark/Compiler/AST/Namespace.hpp</text>
</a>
</g>
</g>
<!-- Node14&#45;&gt;Node17 -->
<g id="edge20_Node000014_Node000017" class="edge">
<title>Node14&#45;&gt;Node17</title>
<g id="a_edge20_Node000014_Node000017"><a xlink:title=" ">
<path fill="none" stroke="#63b8ff" d="M784.23,-187.8C757.45,-177.95 714.44,-162.13 684.1,-150.96"/>
<polygon fill="#63b8ff" stroke="#63b8ff" points="685.57,-147.77 674.97,-147.6 683.15,-154.34 685.57,-147.77"/>
</a>
</g>
</g>
<!-- Node19 -->
<g id="Node000019" class="node">
<title>Node19</title>
<g id="a_Node000019"><a xlink:href="../../d8/ddd/Common_8hpp.html" target="_top" xlink:title="Common code for the compiler.">
<polygon fill="white" stroke="#666666" points="924.12,-146.62 789.62,-146.62 789.62,-127.38 924.12,-127.38 924.12,-146.62"/>
<text text-anchor="middle" x="856.88" y="-133.12" font-family="Helvetica,sans-Serif" font-size="10.00">Ark/Compiler/Common.hpp</text>
</a>
</g>
</g>
<!-- Node14&#45;&gt;Node19 -->
<g id="edge24_Node000014_Node000019" class="edge">
<title>Node14&#45;&gt;Node19</title>
<g id="a_edge24_Node000014_Node000019"><a xlink:title=" ">
<path fill="none" stroke="#63b8ff" d="M816.17,-187.93C823.07,-179.46 833.65,-166.49 842.29,-155.89"/>
<polygon fill="#63b8ff" stroke="#63b8ff" points="844.95,-158.16 848.56,-148.2 839.53,-153.74 844.95,-158.16"/>
</a>
</g>
</g>
<!-- Node26 -->
<g id="Node000026" class="node">
<title>Node26</title>
<g id="a_Node000026"><a xlink:href="../../dc/d58/Position_8hpp.html" target="_top" xlink:title="Defines position utilities (for text in a file) for the parser, formatter, diagnostics.">
<polygon fill="white" stroke="#666666" points="1358.5,-146.62 1247.25,-146.62 1247.25,-127.38 1358.5,-127.38 1358.5,-146.62"/>
<text text-anchor="middle" x="1302.88" y="-133.12" font-family="Helvetica,sans-Serif" font-size="10.00">Ark/Utils/Position.hpp</text>
</a>
</g>
</g>
<!-- Node14&#45;&gt;Node26 -->
<g id="edge35_Node000014_Node000026" class="edge">
<title>Node14&#45;&gt;Node26</title>
<g id="a_edge35_Node000014_Node000026"><a xlink:title=" ">
<path fill="none" stroke="#63b8ff" d="M879.49,-188.9C956.37,-180.15 1082.9,-165.59 1191.88,-152.25 1206.03,-150.52 1221.19,-148.61 1235.61,-146.76"/>
<polygon fill="#63b8ff" stroke="#63b8ff" points="1236.02,-150.24 1245.49,-145.5 1235.13,-143.3 1236.02,-150.24"/>
</a>
</g>
</g>
<!-- Node17&#45;&gt;Node6 -->
<g id="edge21_Node000017_Node000006" class="edge">
<title>Node17&#45;&gt;Node6</title>
<g id="a_edge21_Node000017_Node000006"><a xlink:title=" ">
<path fill="none" stroke="#63b8ff" d="M631.37,-126.9C610.79,-116.19 576.37,-98.28 552.24,-85.74"/>
<polygon fill="#63b8ff" stroke="#63b8ff" points="554.12,-82.77 543.63,-81.26 550.89,-88.98 554.12,-82.77"/>
</a>
</g>
</g>
<!-- Node17&#45;&gt;Node9 -->
<g id="edge22_Node000017_Node000009" class="edge">
<title>Node17&#45;&gt;Node9</title>
<g id="a_edge22_Node000017_Node000009"><a xlink:title=" ">
<path fill="none" stroke="#63b8ff" d="M649.57,-127.03C650.28,-117.89 651.4,-103.39 652.32,-91.5"/>
<polygon fill="#63b8ff" stroke="#63b8ff" points="655.79,-92.14 653.07,-81.9 648.81,-91.6 655.79,-92.14"/>
</a>
</g>
</g>
<!-- Node18 -->
<g id="Node000018" class="node">
<title>Node18</title>
<g id="a_Node000018"><a xlink:title=" ">
<polygon fill="#e0e0e0" stroke="#999999" points="614.5,-80.12 563.25,-80.12 563.25,-60.88 614.5,-60.88 614.5,-80.12"/>
<text text-anchor="middle" x="588.88" y="-66.62" font-family="Helvetica,sans-Serif" font-size="10.00">memory</text>
</a>
</g>
</g>
<!-- Node17&#45;&gt;Node18 -->
<g id="edge23_Node000017_Node000018" class="edge">
<title>Node17&#45;&gt;Node18</title>
<g id="a_edge23_Node000017_Node000018"><a xlink:title=" ">
<path fill="none" stroke="#63b8ff" d="M640.53,-127.03C631.31,-117.12 616.23,-100.91 604.74,-88.56"/>
<polygon fill="#63b8ff" stroke="#63b8ff" points="607.55,-86.44 598.18,-81.5 602.43,-91.21 607.55,-86.44"/>
</a>
</g>
</g>
<!-- Node19&#45;&gt;Node9 -->
<g id="edge27_Node000019_Node000009" class="edge">
<title>Node19&#45;&gt;Node9</title>
<g id="a_edge27_Node000019_Node000009"><a xlink:title=" ">
<path fill="none" stroke="#63b8ff" d="M819.18,-126.92C783.75,-117.95 729.49,-103.08 683.88,-85.75 683.25,-85.51 682.62,-85.27 681.99,-85.02"/>
<polygon fill="#63b8ff" stroke="#63b8ff" points="683.71,-81.95 673.14,-81.17 680.92,-88.37 683.71,-81.95"/>
</a>
</g>
</g>
<!-- Node20 -->
<g id="Node000020" class="node">
<title>Node20</title>
<g id="a_Node000020"><a xlink:title=" ">
<polygon fill="#e0e0e0" stroke="#999999" points="1130.75,-19.25 1093,-19.25 1093,0 1130.75,0 1130.75,-19.25"/>
<text text-anchor="middle" x="1111.88" y="-5.75" font-family="Helvetica,sans-Serif" font-size="10.00">array</text>
</a>
</g>
</g>
<!-- Node19&#45;&gt;Node20 -->
<g id="edge25_Node000019_Node000020" class="edge">
<title>Node19&#45;&gt;Node20</title>
<g id="a_edge25_Node000019_Node000020"><a xlink:title=" ">
<path fill="none" stroke="#63b8ff" d="M905.75,-126.9C940.21,-119.18 986.67,-106.05 1023.88,-85.75 1052.41,-70.18 1080.02,-44.29 1096.49,-27.33"/>
<polygon fill="#63b8ff" stroke="#63b8ff" points="1098.64,-30.15 1102.98,-20.48 1093.56,-25.33 1098.64,-30.15"/>
</a>
</g>
</g>
<!-- Node21 -->
<g id="Node000021" class="node">
<title>Node21</title>
<g id="a_Node000021"><a xlink:title=" ">
<polygon fill="#e0e0e0" stroke="#999999" points="850.62,-19.25 785.12,-19.25 785.12,0 850.62,0 850.62,-19.25"/>
<text text-anchor="middle" x="817.88" y="-5.75" font-family="Helvetica,sans-Serif" font-size="10.00">string_view</text>
</a>
</g>
</g>
<!-- Node19&#45;&gt;Node21 -->
<g id="edge26_Node000019_Node000021" class="edge">
<title>Node19&#45;&gt;Node21</title>
<g id="a_edge26_Node000019_Node000021"><a xlink:title=" ">
<path fill="none" stroke="#63b8ff" d="M854.07,-126.98C847.8,-106.83 832.54,-57.76 823.97,-30.21"/>
<polygon fill="#63b8ff" stroke="#63b8ff" points="827.42,-29.51 821.1,-21.01 820.73,-31.59 827.42,-29.51"/>
</a>
</g>
</g>
<!-- Node22 -->
<g id="Node000022" class="node">
<title>Node22</title>
<g id="a_Node000022"><a xlink:title=" ">
<polygon fill="#e0e0e0" stroke="#999999" points="951.75,-19.25 896,-19.25 896,0 951.75,0 951.75,-19.25"/>
<text text-anchor="middle" x="923.88" y="-5.75" font-family="Helvetica,sans-Serif" font-size="10.00">cinttypes</text>
</a>
</g>
</g>
<!-- Node19&#45;&gt;Node22 -->
<g id="edge28_Node000019_Node000022" class="edge">
<title>Node19&#45;&gt;Node22</title>
<g id="a_edge28_Node000019_Node000022"><a xlink:title=" ">
<path fill="none" stroke="#63b8ff" d="M857.3,-126.89C858.4,-111.24 862.27,-78.66 875.88,-55.25 882.31,-44.18 892.36,-34.22 901.6,-26.54"/>
<polygon fill="#63b8ff" stroke="#63b8ff" points="903.5,-29.5 909.22,-20.58 899.19,-23.98 903.5,-29.5"/>
</a>
</g>
</g>
<!-- Node23 -->
<g id="Node000023" class="node">
<title>Node23</title>
<g id="a_Node000023"><a xlink:href="../../d6/de9/Constants_8hpp.html" target="_top" xlink:title="Constants used by ArkScript.">
<polygon fill="white" stroke="#666666" points="790.75,-80.12 693,-80.12 693,-60.88 790.75,-60.88 790.75,-80.12"/>
<text text-anchor="middle" x="741.88" y="-66.62" font-family="Helvetica,sans-Serif" font-size="10.00">Ark/Constants.hpp</text>
</a>
</g>
</g>
<!-- Node19&#45;&gt;Node23 -->
<g id="edge29_Node000019_Node000023" class="edge">
<title>Node19&#45;&gt;Node23</title>
<g id="a_edge29_Node000019_Node000023"><a xlink:title=" ">
<path fill="none" stroke="#63b8ff" d="M840.88,-127.03C822.02,-116.45 790.4,-98.72 767.98,-86.14"/>
<polygon fill="#63b8ff" stroke="#63b8ff" points="769.85,-83.18 759.42,-81.34 766.43,-89.29 769.85,-83.18"/>
</a>
</g>
</g>
<!-- Node23&#45;&gt;Node21 -->
<g id="edge30_Node000023_Node000021" class="edge">
<title>Node23&#45;&gt;Node21</title>
<g id="a_edge30_Node000023_Node000021"><a xlink:title=" ">
<path fill="none" stroke="#63b8ff" d="M753.42,-60.56C765.02,-51.57 783.17,-37.51 797.25,-26.6"/>
<polygon fill="#63b8ff" stroke="#63b8ff" points="799.27,-29.47 805.03,-20.58 794.98,-23.94 799.27,-29.47"/>
</a>
</g>
</g>
<!-- Node23&#45;&gt;Node22 -->
<g id="edge32_Node000023_Node000022" class="edge">
<title>Node23&#45;&gt;Node22</title>
<g id="a_edge32_Node000023_Node000022"><a xlink:title=" ">
<path fill="none" stroke="#63b8ff" d="M769.91,-60.43C800.77,-50.45 850.59,-34.33 885.16,-23.15"/>
<polygon fill="#63b8ff" stroke="#63b8ff" points="885.93,-26.58 894.36,-20.17 883.77,-19.92 885.93,-26.58"/>
</a>
</g>
</g>
<!-- Node24 -->
<g id="Node000024" class="node">
<title>Node24</title>
<g id="a_Node000024"><a xlink:title=" ">
<polygon fill="#e0e0e0" stroke="#999999" points="699.5,-19.25 660.25,-19.25 660.25,0 699.5,0 699.5,-19.25"/>
<text text-anchor="middle" x="679.88" y="-5.75" font-family="Helvetica,sans-Serif" font-size="10.00">limits</text>
</a>
</g>
</g>
<!-- Node23&#45;&gt;Node24 -->
<g id="edge31_Node000023_Node000024" class="edge">
<title>Node23&#45;&gt;Node24</title>
<g id="a_edge31_Node000023_Node000024"><a xlink:title=" ">
<path fill="none" stroke="#63b8ff" d="M732.46,-60.56C723.26,-51.83 709.04,-38.32 697.7,-27.55"/>
<polygon fill="#63b8ff" stroke="#63b8ff" points="700.14,-25.04 690.48,-20.69 695.32,-30.12 700.14,-25.04"/>
</a>
</g>
</g>
<!-- Node25 -->
<g id="Node000025" class="node">
<title>Node25</title>
<g id="a_Node000025"><a xlink:title=" ">
<polygon fill="#e0e0e0" stroke="#999999" points="766,-19.25 717.75,-19.25 717.75,0 766,0 766,-19.25"/>
<text text-anchor="middle" x="741.88" y="-5.75" font-family="Helvetica,sans-Serif" font-size="10.00">cstddef</text>
</a>
</g>
</g>
<!-- Node23&#45;&gt;Node25 -->
<g id="edge33_Node000023_Node000025" class="edge">
<title>Node23&#45;&gt;Node25</title>
<g id="a_edge33_Node000023_Node000025"><a xlink:title=" ">
<path fill="none" stroke="#63b8ff" d="M741.88,-60.56C741.88,-52.78 741.88,-41.2 741.88,-31.16"/>
<polygon fill="#63b8ff" stroke="#63b8ff" points="745.38,-31.16 741.88,-21.16 738.38,-31.16 745.38,-31.16"/>
</a>
</g>
</g>
<!-- Node26&#45;&gt;Node2 -->
<g id="edge37_Node000026_Node000002" class="edge">
<title>Node26&#45;&gt;Node2</title>
<g id="a_edge37_Node000026_Node000002"><a xlink:title=" ">
<path fill="none" stroke="#63b8ff" d="M1306.49,-127.03C1310.25,-117.69 1316.27,-102.78 1321.11,-90.76"/>
<polygon fill="#63b8ff" stroke="#63b8ff" points="1324.23,-92.38 1324.72,-81.8 1317.74,-89.76 1324.23,-92.38"/>
</a>
</g>
</g>
<!-- Node26&#45;&gt;Node16 -->
<g id="edge36_Node000026_Node000016" class="edge">
<title>Node26&#45;&gt;Node16</title>
<g id="a_edge36_Node000026_Node000016"><a xlink:title=" ">
<path fill="none" stroke="#63b8ff" d="M1320.52,-126.9C1341.27,-116.19 1375.97,-98.28 1400.29,-85.74"/>
<polygon fill="#63b8ff" stroke="#63b8ff" points="1401.69,-88.95 1408.98,-81.25 1398.48,-82.73 1401.69,-88.95"/>
</a>
</g>
</g>
<!-- Node27&#45;&gt;Node6 -->
<g id="edge41_Node000027_Node000006" class="edge">
<title>Node27&#45;&gt;Node6</title>
<g id="a_edge41_Node000027_Node000006"><a xlink:title=" ">
<path fill="none" stroke="#63b8ff" d="M1013.45,-123.28C1009.88,-122.73 1006.33,-122.21 1002.88,-121.75 804.44,-95.27 746.9,-138.83 553.88,-85.75 552.9,-85.48 551.93,-85.18 550.95,-84.86"/>
<polygon fill="#63b8ff" stroke="#63b8ff" points="552.68,-81.79 542.11,-81.19 550,-88.25 552.68,-81.79"/>
</a>
</g>
</g>
<!-- Node27&#45;&gt;Node9 -->
<g id="edge40_Node000027_Node000009" class="edge">
<title>Node27&#45;&gt;Node9</title>
<g id="a_edge40_Node000027_Node000009"><a xlink:title=" ">
<path fill="none" stroke="#63b8ff" d="M1013.43,-123.41C1009.86,-122.83 1006.33,-122.27 1002.88,-121.75 861.78,-100.59 821.08,-124.89 683.88,-85.75 682.88,-85.47 681.88,-85.15 680.87,-84.81"/>
<polygon fill="#63b8ff" stroke="#63b8ff" points="682.29,-81.61 671.71,-81.07 679.65,-88.09 682.29,-81.61"/>
</a>
</g>
</g>
<!-- Node27&#45;&gt;Node22 -->
<g id="edge39_Node000027_Node000022" class="edge">
<title>Node27&#45;&gt;Node22</title>
<g id="a_edge39_Node000027_Node000022"><a xlink:title=" ">
<path fill="none" stroke="#63b8ff" d="M1072.07,-121.36C1063.19,-103.63 1046.13,-73.85 1023.88,-55.25 1006.11,-40.4 982.62,-29.58 962.87,-22.32"/>
<polygon fill="#63b8ff" stroke="#63b8ff" points="964.07,-19.03 953.47,-19.04 961.77,-25.64 964.07,-19.03"/>
</a>
</g>
</g>
<!-- Node28 -->
<g id="Node000028" class="node">
<title>Node28</title>
<g id="a_Node000028"><a xlink:href="../../db/d53/Word_8hpp.html" target="_top" xlink:title="Describe an instruction and its immediate argument.">
<polygon fill="white" stroke="#666666" points="1014.88,-85.75 884.88,-85.75 884.88,-55.25 1014.88,-55.25 1014.88,-85.75"/>
<text text-anchor="start" x="892.88" y="-72.25" font-family="Helvetica,sans-Serif" font-size="10.00">Ark/Compiler/Intermediate</text>
<text text-anchor="middle" x="949.88" y="-61" font-family="Helvetica,sans-Serif" font-size="10.00">Representation/Word.hpp</text>
</a>
</g>
</g>
<!-- Node27&#45;&gt;Node28 -->
<g id="edge42_Node000027_Node000028" class="edge">
<title>Node27&#45;&gt;Node28</title>
<g id="a_edge42_Node000027_Node000028"><a xlink:title=" ">
<path fill="none" stroke="#63b8ff" d="M1049.6,-121.36C1031.71,-112.42 1008.59,-100.86 989.12,-91.12"/>
<polygon fill="#63b8ff" stroke="#63b8ff" points="990.89,-88.1 980.39,-86.76 987.76,-94.36 990.89,-88.1"/>
</a>
</g>
</g>
<!-- Node29 -->
<g id="Node000029" class="node">
<title>Node29</title>
<g id="a_Node000029"><a xlink:href="../../d8/daa/Instructions_8hpp.html" target="_top" xlink:title="The different instructions used by the compiler and virtual machine.">
<polygon fill="white" stroke="#666666" points="1254.75,-80.12 1109,-80.12 1109,-60.88 1254.75,-60.88 1254.75,-80.12"/>
<text text-anchor="middle" x="1181.88" y="-66.62" font-family="Helvetica,sans-Serif" font-size="10.00">Ark/Compiler/Instructions.hpp</text>
</a>
</g>
</g>
<!-- Node27&#45;&gt;Node29 -->
<g id="edge44_Node000027_Node000029" class="edge">
<title>Node27&#45;&gt;Node29</title>
<g id="a_edge44_Node000027_Node000029"><a xlink:title=" ">
<path fill="none" stroke="#63b8ff" d="M1102.25,-121.36C1118.86,-110.96 1141.11,-97.03 1157.86,-86.54"/>
<polygon fill="#63b8ff" stroke="#63b8ff" points="1159.59,-89.59 1166.2,-81.31 1155.87,-83.65 1159.59,-89.59"/>
</a>
</g>
</g>
<!-- Node28&#45;&gt;Node22 -->
<g id="edge43_Node000028_Node000022" class="edge">
<title>Node28&#45;&gt;Node22</title>
<g id="a_edge43_Node000028_Node000022"><a xlink:title=" ">
<path fill="none" stroke="#63b8ff" d="M943.45,-54.95C940.14,-47.45 936.05,-38.2 932.47,-30.1"/>
<polygon fill="#63b8ff" stroke="#63b8ff" points="935.74,-28.82 928.49,-21.09 929.33,-31.65 935.74,-28.82"/>
</a>
</g>
</g>
<!-- Node29&#45;&gt;Node20 -->
<g id="edge45_Node000029_Node000020" class="edge">
<title>Node29&#45;&gt;Node20</title>
<g id="a_edge45_Node000029_Node000020"><a xlink:title=" ">
<path fill="none" stroke="#63b8ff" d="M1171.24,-60.56C1160.66,-51.65 1144.16,-37.78 1131.25,-26.92"/>
<polygon fill="#63b8ff" stroke="#63b8ff" points="1133.67,-24.38 1123.76,-20.63 1129.17,-29.74 1133.67,-24.38"/>
</a>
</g>
</g>
</g>
</svg>

<g id="navigator" transform="translate(0 0)" fill="#404254">
  <rect fill="#f2f5e9" fill-opacity="0.5" stroke="#606060" stroke-width=".5" x="0" y="0" width="60" height="60"/>
  <use id="zoomplus" xlink:href="#zoomPlus" x="17" y="9" onmousedown="handleZoom(evt,'in')"/>
  <use id="zoomminus" xlink:href="#zoomMin" x="42" y="9" onmousedown="handleZoom(evt,'out')"/>
  <use id="reset" xlink:href="#resetDef" x="30" y="36" onmousedown="handleReset()"/>
   <use id="arrowup" xlink:href="#arrowUp" x="0" y="0" onmousedown="handlePan(0,-1)"/>
  <use id="arrowright" xlink:href="#arrowRight" x="0" y="0" onmousedown="handlePan(1,0)"/>
  <use id="arrowdown" xlink:href="#arrowDown" x="0" y="0" onmousedown="handlePan(0,1)"/>
  <use id="arrowleft" xlink:href="#arrowLeft" x="0" y="0" onmousedown="handlePan(-1,0)"/>
</g>
<svg viewBox="0 0 15 15" width="100%" height="30px" preserveAspectRatio="xMaxYMin meet">
 <g id="arrow_out" transform="scale(0.3 0.3)">
  <a xlink:href="IROptimizer_8hpp__incl_org.svg" target="_base">
   <rect id="button" ry="5" rx="5" y="6" x="6" height="38" width="38"
        fill="#f2f5e9" fill-opacity="0.5" stroke="#606060" stroke-width="1.0"/>
   <path id="arrow"
     d="M 11.500037,31.436501 C 11.940474,20.09759 22.043105,11.32322 32.158766,21.979434 L 37.068811,17.246167 C 37.068811,17.246167 37.088388,32 37.088388,32 L 22.160133,31.978069 C 22.160133,31.978069 26.997745,27.140456 26.997745,27.140456 C 18.528582,18.264221 13.291696,25.230495 11.500037,31.436501 z"
     style="fill:#404040;"/>
  </a>
 </g>
</svg>

<style type='text/css'>
<![CDATA[
[data-mouse-over-selected='false'] { opacity: 0.7; }
[data-mouse-over-selected='true']  { opacity: 1.0; }
]]>
</style>
<script type="application/ecmascript"><![CDATA[
document.addEventListener('DOMContentLoaded', (event) => {
  highlightEdges();
  highlightAdjacentNodes();
});
]]></script>
</svg>
