<?xml version="1.0" encoding="UTF-8" standalone="no"?>
<!DOCTYPE svg PUBLIC "-//W3C//DTD SVG 1.1//EN"
 "http://www.w3.org/Graphics/SVG/1.1/DTD/svg11.dtd">
<!-- Generated by graphviz version 12.2.0 (20241103.1931)
 -->
<!-- Title: Ark::internal::Closure Pages: 1 -->
<!--zoomable 483 -->

<svg id="main" version="1.1" xmlns="http://www.w3.org/2000/svg" xmlns:xlink="http://www.w3.org/1999/xlink" xml:space="preserve" onload="init(evt)">

<style type="text/css"><![CDATA[
.node, .edge {opacity: 0.7;}
.node.selected, .edge.selected {opacity: 1;}
.edge:hover path { stroke: red; }
.edge:hover polygon { stroke: red; fill: red; }
]]></style>

<defs>
  <circle id="rim" cx="0" cy="0" r="7"/>
  <circle id="rim2" cx="0" cy="0" r="3.5"/>
  <g id="zoomPlus">
    <use xlink:href="#rim" fill="#404040"><set attributeName="fill" to="#808080" begin="zoomplus.mouseover" end="zoomplus.mouseout"/></use>
    <path d="M-4,0h8M0,-4v8" fill="none" stroke="white" stroke-width="1.5" pointer-events="none"/>
  </g>
  <g id="zoomMin">
    <use xlink:href="#rim" fill="#404040"><set attributeName="fill" to="#808080" begin="zoomminus.mouseover" end="zoomminus.mouseout"/></use>
    <path d="M-4,0h8" fill="none" stroke="white" stroke-width="1.5" pointer-events="none"/>
  </g>
  <g id="arrowUp" transform="translate(30 24)">
    <use xlink:href="#rim"/>
    <path pointer-events="none" fill="none" stroke="white" stroke-width="1.5" d="M0,-3.0v7 M-2.5,-0.5L0,-3.0L2.5,-0.5"/>
  </g>
  <g id="arrowRight" transform="rotate(90) translate(36 -43)">
    <use xlink:href="#rim"/>
    <path pointer-events="none" fill="none" stroke="white" stroke-width="1.5" d="M0,-3.0v7 M-2.5,-0.5L0,-3.0L2.5,-0.5"/>
  </g>
  <g id="arrowDown" transform="rotate(180) translate(-30 -48)">
    <use xlink:href="#rim"/>
    <path pointer-events="none" fill="none" stroke="white" stroke-width="1.5" d="M0,-3.0v7 M-2.5,-0.5L0,-3.0L2.5,-0.5"/>
  </g>
  <g id="arrowLeft" transform="rotate(270) translate(-36 17)">
    <use xlink:href="#rim"/>
    <path pointer-events="none" fill="none" stroke="white" stroke-width="1.5" d="M0,-3.0v7 M-2.5,-0.5L0,-3.0L2.5,-0.5"/>
  </g>
  <g id="resetDef">
    <use xlink:href="#rim2" fill="#404040"><set attributeName="fill" to="#808080" begin="reset.mouseover" end="reset.mouseout"/></use>
  </g>
</defs>
<script type="application/ecmascript">
var viewWidth = 418;
var viewHeight = 483;
var sectionId = 'dynsection-0';
</script>
<script type="application/ecmascript" xlink:href="../../svg.min.js"/>
<svg id="graph" class="graph">
<g id="viewport">
<title>Ark::internal::Closure</title>
<!-- Node1 -->
<g id="Node000001" class="node">
<title>Node1</title>
<g id="a_Node000001"><a xlink:title="Closure management.">
<polygon fill="#999999" stroke="#666666" points="317.62,-19.25 209.38,-19.25 209.38,0 317.62,0 317.62,-19.25"/>
<text text-anchor="middle" x="263.5" y="-5.75" font-family="Helvetica,sans-Serif" font-size="10.00">Ark::internal::Closure</text>
</a>
</g>
</g>
<!-- Node2 -->
<g id="Node000002" class="node">
<title>Node2</title>
<g id="a_Node000002"><a xlink:title=" ">
<polygon fill="white" stroke="#666666" points="328.5,-97 198.5,-97 198.5,-66.5 328.5,-66.5 328.5,-97"/>
<text text-anchor="start" x="206.5" y="-83.5" font-family="Helvetica,sans-Serif" font-size="10.00">std::shared_ptr&lt; Ark</text>
<text text-anchor="middle" x="263.5" y="-72.25" font-family="Helvetica,sans-Serif" font-size="10.00">::internal::ClosureScope &gt;</text>
</a>
</g>
</g>
<!-- Node2&#45;&gt;Node1 -->
<g id="edge1_Node000001_Node000002" class="edge">
<title>Node2&#45;&gt;Node1</title>
<g id="a_edge1_Node000001_Node000002"><a xlink:title=" ">
<path fill="none" stroke="#9a32cd" stroke-dasharray="5,2" d="M263.5,-54.98C263.5,-42.48 263.5,-28.27 263.5,-19.38"/>
<polygon fill="#9a32cd" stroke="#9a32cd" points="260,-54.71 263.5,-64.71 267,-54.71 260,-54.71"/>
</a>
</g>
<text text-anchor="middle" x="284.88" y="-39" font-family="Helvetica,sans-Serif" font-size="10.00" fill="grey"> m_scope</text>
</g>
<!-- Node3 -->
<g id="Node000003" class="node">
<title>Node3</title>
<g id="a_Node000003"><a xlink:href="../../d9/d6c/classArk_1_1internal_1_1ClosureScope.html" target="_top" xlink:title="A class to store fields captured by a closure.">
<polygon fill="white" stroke="#666666" points="281.5,-163.5 145.5,-163.5 145.5,-144.25 281.5,-144.25 281.5,-163.5"/>
<text text-anchor="middle" x="213.5" y="-150" font-family="Helvetica,sans-Serif" font-size="10.00">Ark::internal::ClosureScope</text>
</a>
</g>
</g>
<!-- Node3&#45;&gt;Node2 -->
<g id="edge2_Node000002_Node000003" class="edge">
<title>Node3&#45;&gt;Node2</title>
<g id="a_edge2_Node000002_Node000003"><a xlink:title=" ">
<path fill="none" stroke="#9a32cd" stroke-dasharray="5,2" d="M226.38,-134.82C234.66,-123.2 245.28,-108.3 253.04,-97.42"/>
<polygon fill="#9a32cd" stroke="#9a32cd" points="223.67,-132.59 220.71,-142.76 229.37,-136.65 223.67,-132.59"/>
</a>
</g>
<text text-anchor="middle" x="247.12" y="-116.75" font-family="Helvetica,sans-Serif" font-size="10.00" fill="grey"> ptr</text>
</g>
<!-- Node4 -->
<g id="Node000004" class="node">
<title>Node4</title>
<g id="a_Node000004"><a xlink:title=" ">
<polygon fill="white" stroke="#666666" points="244.38,-252.5 116.62,-252.5 116.62,-222 244.38,-222 244.38,-252.5"/>
<text text-anchor="start" x="124.62" y="-239" font-family="Helvetica,sans-Serif" font-size="10.00">std::vector&lt; std::pair</text>
<text text-anchor="middle" x="180.5" y="-227.75" font-family="Helvetica,sans-Serif" font-size="10.00">&lt; uint16_t, Ark::Value &gt; &gt;</text>
</a>
</g>
</g>
<!-- Node4&#45;&gt;Node3 -->
<g id="edge3_Node000003_Node000004" class="edge">
<title>Node4&#45;&gt;Node3</title>
<g id="a_edge3_Node000003_Node000004"><a xlink:title=" ">
<path fill="none" stroke="#9a32cd" stroke-dasharray="5,2" d="M190.62,-211.3C197.16,-195.16 205.3,-175.1 209.89,-163.77"/>
<polygon fill="#9a32cd" stroke="#9a32cd" points="187.48,-209.72 186.97,-220.3 193.97,-212.35 187.48,-209.72"/>
</a>
</g>
<text text-anchor="middle" x="219.51" y="-188.88" font-family="Helvetica,sans-Serif" font-size="10.00" fill="grey"> m_data</text>
</g>
<!-- Node5 -->
<g id="Node000005" class="node">
<title>Node5</title>
<g id="a_Node000005"><a xlink:title=" ">
<polygon fill="white" stroke="#666666" points="163.38,-341.5 65.62,-341.5 65.62,-311 163.38,-311 163.38,-341.5"/>
<text text-anchor="start" x="73.62" y="-328" font-family="Helvetica,sans-Serif" font-size="10.00">std::pair&lt; uint16_t,</text>
<text text-anchor="middle" x="114.5" y="-316.75" font-family="Helvetica,sans-Serif" font-size="10.00"> Ark::Value &gt;</text>
</a>
</g>
</g>
<!-- Node5&#45;&gt;Node4 -->
<g id="edge4_Node000004_Node000005" class="edge">
<title>Node5&#45;&gt;Node4</title>
<g id="a_edge4_Node000004_Node000005"><a xlink:title=" ">
<path fill="none" stroke="#9a32cd" stroke-dasharray="5,2" d="M114.81,-299.68C116.02,-289.82 118.79,-278.92 124.75,-270.5 129.85,-263.29 137.11,-257.46 144.72,-252.84"/>
<polygon fill="#9a32cd" stroke="#9a32cd" points="111.34,-299.22 114.12,-309.44 118.32,-299.72 111.34,-299.22"/>
</a>
</g>
<text text-anchor="middle" x="146.12" y="-277.88" font-family="Helvetica,sans-Serif" font-size="10.00" fill="grey"> elements</text>
</g>
<!-- Node6 -->
<g id="Node000006" class="node">
<title>Node6</title>
<g id="a_Node000006"><a xlink:href="../../d3/d90/classArk_1_1Value.html" target="_top" xlink:title=" ">
<polygon fill="white" stroke="#666666" points="61,-408 0,-408 0,-388.75 61,-388.75 61,-408"/>
<text text-anchor="middle" x="30.5" y="-394.5" font-family="Helvetica,sans-Serif" font-size="10.00">Ark::Value</text>
</a>
</g>
</g>
<!-- Node6&#45;&gt;Node5 -->
<g id="edge5_Node000005_Node000006" class="edge">
<title>Node6&#45;&gt;Node5</title>
<g id="a_edge5_Node000005_Node000006"><a xlink:title=" ">
<path fill="none" stroke="#9a32cd" stroke-dasharray="5,2" d="M41.63,-378.82C46.17,-372.22 51.8,-365.05 58,-359.5 65.49,-352.79 74.6,-346.85 83.3,-341.95"/>
<polygon fill="#9a32cd" stroke="#9a32cd" points="38.75,-376.84 36.3,-387.15 44.64,-380.61 38.75,-376.84"/>
</a>
</g>
<text text-anchor="middle" x="87.25" y="-361.25" font-family="Helvetica,sans-Serif" font-size="10.00" fill="grey"> second_type</text>
</g>
<!-- Node7 -->
<g id="Node000007" class="node">
<title>Node7</title>
<g id="a_Node000007"><a xlink:title=" ">
<polygon fill="white" stroke="#666666" points="176.38,-408 78.62,-408 78.62,-388.75 176.38,-388.75 176.38,-408"/>
<text text-anchor="middle" x="127.5" y="-394.5" font-family="Helvetica,sans-Serif" font-size="10.00">std::pair&lt; T1, T2 &gt;</text>
</a>
</g>
</g>
<!-- Node7&#45;&gt;Node5 -->
<g id="edge6_Node000005_Node000007" class="edge">
<title>Node7&#45;&gt;Node5</title>
<g id="a_edge6_Node000005_Node000007"><a xlink:title=" ">
<path fill="none" stroke="orange" stroke-dasharray="5,2" d="M123.82,-377.53C121.72,-366.2 119.13,-352.25 117.22,-341.92"/>
<polygon fill="orange" stroke="orange" points="120.31,-377.81 125.58,-387.01 127.2,-376.53 120.31,-377.81"/>
</a>
</g>
<text text-anchor="middle" x="175.42" y="-361.25" font-family="Helvetica,sans-Serif" font-size="10.00" fill="grey"> &lt; uint16_t, Ark::Value &gt;</text>
</g>
<!-- Node8 -->
<g id="Node000008" class="node">
<title>Node8</title>
<g id="a_Node000008"><a xlink:title=" ">
<polygon fill="white" stroke="#666666" points="107.9,-474.5 79.1,-474.5 79.1,-455.25 107.9,-455.25 107.9,-474.5"/>
<text text-anchor="middle" x="93.5" y="-461" font-family="Helvetica,sans-Serif" font-size="10.00">T1</text>
</a>
</g>
</g>
<!-- Node8&#45;&gt;Node7 -->
<g id="edge7_Node000007_Node000008" class="edge">
<title>Node8&#45;&gt;Node7</title>
<g id="a_edge7_Node000007_Node000008"><a xlink:title=" ">
<path fill="none" stroke="#9a32cd" stroke-dasharray="5,2" d="M91.24,-443.72C91.36,-437.76 92.32,-431.39 95,-426 98.58,-418.82 105.08,-412.89 111.33,-408.47"/>
<polygon fill="#9a32cd" stroke="#9a32cd" points="87.73,-443.65 91.79,-453.44 94.72,-443.26 87.73,-443.65"/>
</a>
</g>
<text text-anchor="middle" x="116.75" y="-427.75" font-family="Helvetica,sans-Serif" font-size="10.00" fill="grey"> first_type</text>
</g>
<!-- Node9 -->
<g id="Node000009" class="node">
<title>Node9</title>
<g id="a_Node000009"><a xlink:title=" ">
<polygon fill="white" stroke="#666666" points="174.9,-474.5 146.1,-474.5 146.1,-455.25 174.9,-455.25 174.9,-474.5"/>
<text text-anchor="middle" x="160.5" y="-461" font-family="Helvetica,sans-Serif" font-size="10.00">T2</text>
</a>
</g>
</g>
<!-- Node9&#45;&gt;Node7 -->
<g id="edge8_Node000007_Node000009" class="edge">
<title>Node9&#45;&gt;Node7</title>
<g id="a_edge8_Node000007_Node000009"><a xlink:title=" ">
<path fill="none" stroke="#9a32cd" stroke-dasharray="5,2" d="M150.79,-444.89C144.6,-432.79 136.86,-417.67 132.05,-408.27"/>
<polygon fill="#9a32cd" stroke="#9a32cd" points="147.55,-446.25 155.22,-453.56 153.78,-443.06 147.55,-446.25"/>
</a>
</g>
<text text-anchor="middle" x="175.23" y="-427.75" font-family="Helvetica,sans-Serif" font-size="10.00" fill="grey"> second_type</text>
</g>
<!-- Node10 -->
<g id="Node000010" class="node">
<title>Node10</title>
<g id="a_Node000010"><a xlink:title=" ">
<polygon fill="white" stroke="#666666" points="279.75,-335.88 193.25,-335.88 193.25,-316.62 279.75,-316.62 279.75,-335.88"/>
<text text-anchor="middle" x="236.5" y="-322.38" font-family="Helvetica,sans-Serif" font-size="10.00">std::vector&lt; T &gt;</text>
</a>
</g>
</g>
<!-- Node10&#45;&gt;Node4 -->
<g id="edge9_Node000004_Node000010" class="edge">
<title>Node10&#45;&gt;Node4</title>
<g id="a_edge9_Node000004_Node000010"><a xlink:title=" ">
<path fill="none" stroke="orange" stroke-dasharray="5,2" d="M195.02,-310.92C187.44,-306.39 180.51,-300.52 176,-293 168.74,-280.9 171.38,-264.49 174.89,-252.8"/>
<polygon fill="orange" stroke="orange" points="193.37,-314.01 203.87,-315.46 196.57,-307.78 193.37,-314.01"/>
</a>
</g>
<text text-anchor="start" x="176" y="-283.5" font-family="Helvetica,sans-Serif" font-size="10.00" fill="grey"> &lt; std::pair&lt; uint16</text>
<text text-anchor="middle" x="217.25" y="-272.25" font-family="Helvetica,sans-Serif" font-size="10.00" fill="grey">_t, Ark::Value &gt; &gt;</text>
</g>
<!-- Node11 -->
<g id="Node000011" class="node">
<title>Node11</title>
<g id="a_Node000011"><a xlink:title=" ">
<polygon fill="white" stroke="#666666" points="298.9,-408 270.1,-408 270.1,-388.75 298.9,-388.75 298.9,-408"/>
<text text-anchor="middle" x="284.5" y="-394.5" font-family="Helvetica,sans-Serif" font-size="10.00">T</text>
</a>
</g>
</g>
<!-- Node11&#45;&gt;Node10 -->
<g id="edge10_Node000010_Node000011" class="edge">
<title>Node11&#45;&gt;Node10</title>
<g id="a_edge10_Node000010_Node000011"><a xlink:title=" ">
<path fill="none" stroke="#9a32cd" stroke-dasharray="5,2" d="M263.05,-381.21C259.65,-378 256.39,-374.47 253.75,-370.75 246.13,-360.02 241.25,-345.45 238.69,-336.2"/>
<polygon fill="#9a32cd" stroke="#9a32cd" points="260.5,-383.63 270.38,-387.45 265.04,-378.3 260.5,-383.63"/>
</a>
</g>
<text text-anchor="middle" x="275.12" y="-361.25" font-family="Helvetica,sans-Serif" font-size="10.00" fill="grey"> elements</text>
</g>
<!-- Node12 -->
<g id="Node000012" class="node">
<title>Node12</title>
<g id="a_Node000012"><a xlink:title=" ">
<polygon fill="white" stroke="#666666" points="373.12,-291.38 267.88,-291.38 267.88,-272.12 373.12,-272.12 373.12,-291.38"/>
<text text-anchor="middle" x="320.5" y="-277.88" font-family="Helvetica,sans-Serif" font-size="10.00">std::shared_ptr&lt; T &gt;</text>
</a>
</g>
</g>
<!-- Node11&#45;&gt;Node12 -->
<g id="edge12_Node000012_Node000011" class="edge">
<title>Node11&#45;&gt;Node12</title>
<g id="a_edge12_Node000012_Node000011"><a xlink:title=" ">
<path fill="none" stroke="#9a32cd" stroke-dasharray="5,2" d="M293.52,-378.33C294.58,-375.8 295.61,-373.23 296.5,-370.75 306.67,-342.43 314.96,-307.68 318.57,-291.64"/>
<polygon fill="#9a32cd" stroke="#9a32cd" points="290.41,-376.71 289.48,-387.26 296.79,-379.59 290.41,-376.71"/>
</a>
</g>
<text text-anchor="middle" x="307.07" y="-361.25" font-family="Helvetica,sans-Serif" font-size="10.00" fill="grey"> ptr</text>
</g>
<!-- Node12&#45;&gt;Node2 -->
<g id="edge11_Node000002_Node000012" class="edge">
<title>Node12&#45;&gt;Node2</title>
<g id="a_edge11_Node000002_Node000012"><a xlink:title=" ">
<path fill="none" stroke="orange" stroke-dasharray="5,2" d="M317.36,-260.64C312.87,-233.72 303.67,-184.68 290.5,-144.25 285.08,-127.62 276.74,-109.36 270.77,-97.1"/>
<polygon fill="orange" stroke="orange" points="313.85,-260.83 318.9,-270.15 320.76,-259.72 313.85,-260.83"/>
</a>
</g>
<text text-anchor="start" x="306.22" y="-194.5" font-family="Helvetica,sans-Serif" font-size="10.00" fill="grey"> &lt; Ark::internal::Closure</text>
<text text-anchor="middle" x="357.97" y="-183.25" font-family="Helvetica,sans-Serif" font-size="10.00" fill="grey">Scope &gt;</text>
</g>
</g>
</svg>

<g id="navigator" transform="translate(0 0)" fill="#404254">
  <rect fill="#f2f5e9" fill-opacity="0.5" stroke="#606060" stroke-width=".5" x="0" y="0" width="60" height="60"/>
  <use id="zoomplus" xlink:href="#zoomPlus" x="17" y="9" onmousedown="handleZoom(evt,'in')"/>
  <use id="zoomminus" xlink:href="#zoomMin" x="42" y="9" onmousedown="handleZoom(evt,'out')"/>
  <use id="reset" xlink:href="#resetDef" x="30" y="36" onmousedown="handleReset()"/>
   <use id="arrowup" xlink:href="#arrowUp" x="0" y="0" onmousedown="handlePan(0,-1)"/>
  <use id="arrowright" xlink:href="#arrowRight" x="0" y="0" onmousedown="handlePan(1,0)"/>
  <use id="arrowdown" xlink:href="#arrowDown" x="0" y="0" onmousedown="handlePan(0,1)"/>
  <use id="arrowleft" xlink:href="#arrowLeft" x="0" y="0" onmousedown="handlePan(-1,0)"/>
</g>
<svg viewBox="0 0 15 15" width="100%" height="30px" preserveAspectRatio="xMaxYMin meet">
 <g id="arrow_out" transform="scale(0.3 0.3)">
  <a xlink:href="classArk_1_1internal_1_1Closure__coll__graph_org.svg" target="_base">
   <rect id="button" ry="5" rx="5" y="6" x="6" height="38" width="38"
        fill="#f2f5e9" fill-opacity="0.5" stroke="#606060" stroke-width="1.0"/>
   <path id="arrow"
     d="M 11.500037,31.436501 C 11.940474,20.09759 22.043105,11.32322 32.158766,21.979434 L 37.068811,17.246167 C 37.068811,17.246167 37.088388,32 37.088388,32 L 22.160133,31.978069 C 22.160133,31.978069 26.997745,27.140456 26.997745,27.140456 C 18.528582,18.264221 13.291696,25.230495 11.500037,31.436501 z"
     style="fill:#404040;"/>
  </a>
 </g>
</svg>

<style type='text/css'>
<![CDATA[
[data-mouse-over-selected='false'] { opacity: 0.7; }
[data-mouse-over-selected='true']  { opacity: 1.0; }
]]>
</style>
<script type="application/ecmascript"><![CDATA[
document.addEventListener('DOMContentLoaded', (event) => {
  highlightEdges();
  highlightAdjacentNodes();
});
]]></script>
</svg>
