<?xml version="1.0" encoding="UTF-8" standalone="no"?>
<!DOCTYPE svg PUBLIC "-//W3C//DTD SVG 1.1//EN"
 "http://www.w3.org/Graphics/SVG/1.1/DTD/svg11.dtd">
<!-- Generated by graphviz version 12.2.0 (20241103.1931)
 -->
<!-- Title: /Users/fola/Documents/ArkScript/Ark/include/Ark/Compiler/Pass.hpp Pages: 1 -->
<svg width="840pt" height="160pt"
 viewBox="0.00 0.00 839.75 160.25" xmlns="http://www.w3.org/2000/svg" xmlns:xlink="http://www.w3.org/1999/xlink">
<g id="graph0" class="graph" transform="scale(1 1) rotate(0) translate(4 156.25)">
<title>/Users/fola/Documents/ArkScript/Ark/include/Ark/Compiler/Pass.hpp</title>
<!-- Node1 -->
<g id="Node000001" class="node">
<title>Node1</title>
<g id="a_Node000001"><a xlink:title="Interface for a compiler pass.">
<polygon fill="#999999" stroke="#666666" points="467.5,-152.25 347.25,-152.25 347.25,-110.5 467.5,-110.5 467.5,-152.25"/>
<text text-anchor="start" x="355.25" y="-138.75" font-family="Helvetica,sans-Serif" font-size="10.00">/Users/fola/Documents</text>
<text text-anchor="start" x="355.25" y="-127.5" font-family="Helvetica,sans-Serif" font-size="10.00">/ArkScript/Ark/include</text>
<text text-anchor="middle" x="407.38" y="-116.25" font-family="Helvetica,sans-Serif" font-size="10.00">/Ark/Compiler/Pass.hpp</text>
</a>
</g>
</g>
<!-- Node2 -->
<g id="Node000002" class="node">
<title>Node2</title>
<g id="a_Node000002"><a xlink:href="../../d5/d40/Platform_8hpp.html" target="_top" xlink:title="ArkScript configuration macros.">
<polygon fill="white" stroke="#666666" points="112.75,-19.25 0,-19.25 0,0 112.75,0 112.75,-19.25"/>
<text text-anchor="middle" x="56.38" y="-5.75" font-family="Helvetica,sans-Serif" font-size="10.00">Ark/Utils/Platform.hpp</text>
</a>
</g>
</g>
<!-- Node1&#45;&gt;Node2 -->
<g id="edge1_Node000001_Node000002" class="edge">
<title>Node1&#45;&gt;Node2</title>
<g id="a_edge1_Node000001_Node000002"><a xlink:title=" ">
<path fill="none" stroke="#63b8ff" d="M347.83,-110.06C275.1,-85.25 154.28,-44.03 93.58,-23.32"/>
<polygon fill="#63b8ff" stroke="#63b8ff" points="95,-20.11 84.41,-20.19 92.74,-26.73 95,-20.11"/>
</a>
</g>
</g>
<!-- Node3 -->
<g id="Node000003" class="node">
<title>Node3</title>
<g id="a_Node000003"><a xlink:href="../../d9/d11/Logger_8hpp.html" target="_top" xlink:title="Internal logger.">
<polygon fill="white" stroke="#666666" points="459.62,-74.5 355.12,-74.5 355.12,-55.25 459.62,-55.25 459.62,-74.5"/>
<text text-anchor="middle" x="407.38" y="-61" font-family="Helvetica,sans-Serif" font-size="10.00">Ark/Utils/Logger.hpp</text>
</a>
</g>
</g>
<!-- Node1&#45;&gt;Node3 -->
<g id="edge2_Node000001_Node000003" class="edge">
<title>Node1&#45;&gt;Node3</title>
<g id="a_edge2_Node000001_Node000003"><a xlink:title=" ">
<path fill="none" stroke="#63b8ff" d="M407.38,-110.32C407.38,-102.65 407.38,-93.89 407.38,-86.2"/>
<polygon fill="#63b8ff" stroke="#63b8ff" points="410.88,-86.46 407.38,-76.46 403.88,-86.46 410.88,-86.46"/>
</a>
</g>
</g>
<!-- Node13 -->
<g id="Node000013" class="node">
<title>Node13</title>
<g id="a_Node000013"><a xlink:title=" ">
<polygon fill="#e0e0e0" stroke="#999999" points="529,-74.5 477.75,-74.5 477.75,-55.25 529,-55.25 529,-74.5"/>
<text text-anchor="middle" x="503.38" y="-61" font-family="Helvetica,sans-Serif" font-size="10.00">ostream</text>
</a>
</g>
</g>
<!-- Node1&#45;&gt;Node13 -->
<g id="edge13_Node000001_Node000013" class="edge">
<title>Node1&#45;&gt;Node13</title>
<g id="a_edge13_Node000001_Node000013"><a xlink:title=" ">
<path fill="none" stroke="#63b8ff" d="M437.49,-110.14C451.37,-100.82 467.59,-89.92 480.46,-81.27"/>
<polygon fill="#63b8ff" stroke="#63b8ff" points="482.35,-84.22 488.69,-75.74 478.44,-78.41 482.35,-84.22"/>
</a>
</g>
</g>
<!-- Node3&#45;&gt;Node2 -->
<g id="edge12_Node000003_Node000002" class="edge">
<title>Node3&#45;&gt;Node2</title>
<g id="a_edge12_Node000003_Node000002"><a xlink:title=" ">
<path fill="none" stroke="#63b8ff" d="M354.83,-55.9C293.45,-46.59 191.75,-31.16 124.4,-20.95"/>
<polygon fill="#63b8ff" stroke="#63b8ff" points="124.98,-17.49 114.57,-19.45 123.93,-24.41 124.98,-17.49"/>
</a>
</g>
</g>
<!-- Node4 -->
<g id="Node000004" class="node">
<title>Node4</title>
<g id="a_Node000004"><a xlink:title=" ">
<polygon fill="#e0e0e0" stroke="#999999" points="184.12,-19.25 130.62,-19.25 130.62,0 184.12,0 184.12,-19.25"/>
<text text-anchor="middle" x="157.38" y="-5.75" font-family="Helvetica,sans-Serif" font-size="10.00">iostream</text>
</a>
</g>
</g>
<!-- Node3&#45;&gt;Node4 -->
<g id="edge3_Node000003_Node000004" class="edge">
<title>Node3&#45;&gt;Node4</title>
<g id="a_edge3_Node000003_Node000004"><a xlink:title=" ">
<path fill="none" stroke="#63b8ff" d="M361.13,-54.79C319.99,-46.59 257.9,-33.94 195.69,-19.95"/>
<polygon fill="#63b8ff" stroke="#63b8ff" points="196.49,-16.54 185.96,-17.74 194.94,-23.37 196.49,-16.54"/>
</a>
</g>
</g>
<!-- Node5 -->
<g id="Node000005" class="node">
<title>Node5</title>
<g id="a_Node000005"><a xlink:title=" ">
<polygon fill="#e0e0e0" stroke="#999999" points="271,-19.25 201.75,-19.25 201.75,0 271,0 271,-19.25"/>
<text text-anchor="middle" x="236.38" y="-5.75" font-family="Helvetica,sans-Serif" font-size="10.00">fmt/format.h</text>
</a>
</g>
</g>
<!-- Node3&#45;&gt;Node5 -->
<g id="edge4_Node000003_Node000005" class="edge">
<title>Node3&#45;&gt;Node5</title>
<g id="a_edge4_Node000003_Node000005"><a xlink:title=" ">
<path fill="none" stroke="#63b8ff" d="M378.37,-54.84C350.36,-46.12 307.72,-32.84 276.47,-23.11"/>
<polygon fill="#63b8ff" stroke="#63b8ff" points="277.56,-19.78 266.97,-20.15 275.48,-26.47 277.56,-19.78"/>
</a>
</g>
</g>
<!-- Node6 -->
<g id="Node000006" class="node">
<title>Node6</title>
<g id="a_Node000006"><a xlink:title=" ">
<polygon fill="#e0e0e0" stroke="#999999" points="351.25,-19.25 289.5,-19.25 289.5,0 351.25,0 351.25,-19.25"/>
<text text-anchor="middle" x="320.38" y="-5.75" font-family="Helvetica,sans-Serif" font-size="10.00">fmt/color.h</text>
</a>
</g>
</g>
<!-- Node3&#45;&gt;Node6 -->
<g id="edge5_Node000003_Node000006" class="edge">
<title>Node3&#45;&gt;Node6</title>
<g id="a_edge5_Node000003_Node000006"><a xlink:title=" ">
<path fill="none" stroke="#63b8ff" d="M392.62,-54.84C379.49,-46.81 360.05,-34.91 344.64,-25.48"/>
<polygon fill="#63b8ff" stroke="#63b8ff" points="346.85,-22.73 336.5,-20.49 343.2,-28.7 346.85,-22.73"/>
</a>
</g>
</g>
<!-- Node7 -->
<g id="Node000007" class="node">
<title>Node7</title>
<g id="a_Node000007"><a xlink:title=" ">
<polygon fill="#e0e0e0" stroke="#999999" points="445.75,-19.25 369,-19.25 369,0 445.75,0 445.75,-19.25"/>
<text text-anchor="middle" x="407.38" y="-5.75" font-family="Helvetica,sans-Serif" font-size="10.00">fmt/ostream.h</text>
</a>
</g>
</g>
<!-- Node3&#45;&gt;Node7 -->
<g id="edge6_Node000003_Node000007" class="edge">
<title>Node3&#45;&gt;Node7</title>
<g id="a_edge6_Node000003_Node000007"><a xlink:title=" ">
<path fill="none" stroke="#63b8ff" d="M407.38,-55.08C407.38,-48.57 407.38,-39.42 407.38,-31.12"/>
<polygon fill="#63b8ff" stroke="#63b8ff" points="410.88,-31.12 407.38,-21.12 403.88,-31.12 410.88,-31.12"/>
</a>
</g>
</g>
<!-- Node8 -->
<g id="Node000008" class="node">
<title>Node8</title>
<g id="a_Node000008"><a xlink:title=" ">
<polygon fill="#e0e0e0" stroke="#999999" points="503.38,-19.25 463.38,-19.25 463.38,0 503.38,0 503.38,-19.25"/>
<text text-anchor="middle" x="483.38" y="-5.75" font-family="Helvetica,sans-Serif" font-size="10.00">string</text>
</a>
</g>
</g>
<!-- Node3&#45;&gt;Node8 -->
<g id="edge7_Node000003_Node000008" class="edge">
<title>Node3&#45;&gt;Node8</title>
<g id="a_edge7_Node000003_Node000008"><a xlink:title=" ">
<path fill="none" stroke="#63b8ff" d="M420.27,-54.84C431.4,-47.04 447.75,-35.59 461.01,-26.29"/>
<polygon fill="#63b8ff" stroke="#63b8ff" points="463,-29.18 469.18,-20.57 458.98,-23.44 463,-29.18"/>
</a>
</g>
</g>
<!-- Node9 -->
<g id="Node000009" class="node">
<title>Node9</title>
<g id="a_Node000009"><a xlink:title=" ">
<polygon fill="#e0e0e0" stroke="#999999" points="567,-19.25 521.75,-19.25 521.75,0 567,0 567,-19.25"/>
<text text-anchor="middle" x="544.38" y="-5.75" font-family="Helvetica,sans-Serif" font-size="10.00">chrono</text>
</a>
</g>
</g>
<!-- Node3&#45;&gt;Node9 -->
<g id="edge8_Node000003_Node000009" class="edge">
<title>Node3&#45;&gt;Node9</title>
<g id="a_edge8_Node000003_Node000009"><a xlink:title=" ">
<path fill="none" stroke="#63b8ff" d="M430.62,-54.84C452.69,-46.26 486.13,-33.27 511.04,-23.58"/>
<polygon fill="#63b8ff" stroke="#63b8ff" points="512.01,-26.96 520.07,-20.07 509.48,-20.43 512.01,-26.96"/>
</a>
</g>
</g>
<!-- Node10 -->
<g id="Node000010" class="node">
<title>Node10</title>
<g id="a_Node000010"><a xlink:title=" ">
<polygon fill="#e0e0e0" stroke="#999999" points="669.5,-19.25 585.25,-19.25 585.25,0 669.5,0 669.5,-19.25"/>
<text text-anchor="middle" x="627.38" y="-5.75" font-family="Helvetica,sans-Serif" font-size="10.00">source_location</text>
</a>
</g>
</g>
<!-- Node3&#45;&gt;Node10 -->
<g id="edge9_Node000003_Node000010" class="edge">
<title>Node3&#45;&gt;Node10</title>
<g id="a_edge9_Node000003_Node000010"><a xlink:title=" ">
<path fill="none" stroke="#63b8ff" d="M444.7,-54.84C481.67,-45.89 538.49,-32.14 578.93,-22.35"/>
<polygon fill="#63b8ff" stroke="#63b8ff" points="579.5,-25.81 588.4,-20.06 577.86,-19.01 579.5,-25.81"/>
</a>
</g>
</g>
<!-- Node11 -->
<g id="Node000011" class="node">
<title>Node11</title>
<g id="a_Node000011"><a xlink:title=" ">
<polygon fill="#e0e0e0" stroke="#999999" points="730.88,-19.25 687.88,-19.25 687.88,0 730.88,0 730.88,-19.25"/>
<text text-anchor="middle" x="709.38" y="-5.75" font-family="Helvetica,sans-Serif" font-size="10.00">vector</text>
</a>
</g>
</g>
<!-- Node3&#45;&gt;Node11 -->
<g id="edge10_Node000003_Node000011" class="edge">
<title>Node3&#45;&gt;Node11</title>
<g id="a_edge10_Node000003_Node000011"><a xlink:title=" ">
<path fill="none" stroke="#63b8ff" d="M459.93,-55.91C522.04,-46.39 622.76,-30.57 676.42,-19.42"/>
<polygon fill="#63b8ff" stroke="#63b8ff" points="676.92,-22.89 685.95,-17.36 675.44,-16.05 676.92,-22.89"/>
</a>
</g>
</g>
<!-- Node12 -->
<g id="Node000012" class="node">
<title>Node12</title>
<g id="a_Node000012"><a xlink:title=" ">
<polygon fill="#e0e0e0" stroke="#999999" points="831.75,-19.25 749,-19.25 749,0 831.75,0 831.75,-19.25"/>
<text text-anchor="middle" x="790.38" y="-5.75" font-family="Helvetica,sans-Serif" font-size="10.00">unordered_map</text>
</a>
</g>
</g>
<!-- Node3&#45;&gt;Node12 -->
<g id="edge11_Node000003_Node000012" class="edge">
<title>Node3&#45;&gt;Node12</title>
<g id="a_edge11_Node000003_Node000012"><a xlink:title=" ">
<path fill="none" stroke="#63b8ff" d="M459.94,-56.41C462.8,-56.02 465.62,-55.63 468.38,-55.25 585.65,-39.2 617.95,-37.7 737.58,-19.63"/>
<polygon fill="#63b8ff" stroke="#63b8ff" points="737.8,-23.14 747.16,-18.18 736.74,-16.22 737.8,-23.14"/>
</a>
</g>
</g>
</g>
</svg>
