<?xml version="1.0" encoding="UTF-8" standalone="no"?>
<!DOCTYPE svg PUBLIC "-//W3C//DTD SVG 1.1//EN"
 "http://www.w3.org/Graphics/SVG/1.1/DTD/svg11.dtd">
<!-- Generated by graphviz version 12.2.0 (20241103.1931)
 -->
<!-- Title: /Users/fola/Documents/ArkScript/Ark/include/Ark/Compiler/Pass.hpp Pages: 1 -->
<!--zoomable 271 -->

<svg id="main" version="1.1" xmlns="http://www.w3.org/2000/svg" xmlns:xlink="http://www.w3.org/1999/xlink" xml:space="preserve" onload="init(evt)">

<style type="text/css"><![CDATA[
.node, .edge {opacity: 0.7;}
.node.selected, .edge.selected {opacity: 1;}
.edge:hover path { stroke: red; }
.edge:hover polygon { stroke: red; fill: red; }
]]></style>

<defs>
  <circle id="rim" cx="0" cy="0" r="7"/>
  <circle id="rim2" cx="0" cy="0" r="3.5"/>
  <g id="zoomPlus">
    <use xlink:href="#rim" fill="#404040"><set attributeName="fill" to="#808080" begin="zoomplus.mouseover" end="zoomplus.mouseout"/></use>
    <path d="M-4,0h8M0,-4v8" fill="none" stroke="white" stroke-width="1.5" pointer-events="none"/>
  </g>
  <g id="zoomMin">
    <use xlink:href="#rim" fill="#404040"><set attributeName="fill" to="#808080" begin="zoomminus.mouseover" end="zoomminus.mouseout"/></use>
    <path d="M-4,0h8" fill="none" stroke="white" stroke-width="1.5" pointer-events="none"/>
  </g>
  <g id="arrowUp" transform="translate(30 24)">
    <use xlink:href="#rim"/>
    <path pointer-events="none" fill="none" stroke="white" stroke-width="1.5" d="M0,-3.0v7 M-2.5,-0.5L0,-3.0L2.5,-0.5"/>
  </g>
  <g id="arrowRight" transform="rotate(90) translate(36 -43)">
    <use xlink:href="#rim"/>
    <path pointer-events="none" fill="none" stroke="white" stroke-width="1.5" d="M0,-3.0v7 M-2.5,-0.5L0,-3.0L2.5,-0.5"/>
  </g>
  <g id="arrowDown" transform="rotate(180) translate(-30 -48)">
    <use xlink:href="#rim"/>
    <path pointer-events="none" fill="none" stroke="white" stroke-width="1.5" d="M0,-3.0v7 M-2.5,-0.5L0,-3.0L2.5,-0.5"/>
  </g>
  <g id="arrowLeft" transform="rotate(270) translate(-36 17)">
    <use xlink:href="#rim"/>
    <path pointer-events="none" fill="none" stroke="white" stroke-width="1.5" d="M0,-3.0v7 M-2.5,-0.5L0,-3.0L2.5,-0.5"/>
  </g>
  <g id="resetDef">
    <use xlink:href="#rim2" fill="#404040"><set attributeName="fill" to="#808080" begin="reset.mouseover" end="reset.mouseout"/></use>
  </g>
</defs>
<script type="application/ecmascript">
var viewWidth = 1306;
var viewHeight = 271;
var sectionId = 'dynsection-0';
</script>
<script type="application/ecmascript" xlink:href="../../svg.min.js"/>
<svg id="graph" class="graph">
<g id="viewport">
<title>/Users/fola/Documents/ArkScript/Ark/include/Ark/Compiler/Pass.hpp</title>
<!-- Node1 -->
<g id="Node000001" class="node">
<title>Node1</title>
<g id="a_Node000001"><a xlink:title="Interface for a compiler pass (take in an AST, output an AST)">
<polygon fill="#999999" stroke="#666666" points="596.88,-262.75 476.62,-262.75 476.62,-221 596.88,-221 596.88,-262.75"/>
<text text-anchor="start" x="484.62" y="-249.25" font-family="Helvetica,sans-Serif" font-size="10.00">/Users/fola/Documents</text>
<text text-anchor="start" x="484.62" y="-238" font-family="Helvetica,sans-Serif" font-size="10.00">/ArkScript/Ark/include</text>
<text text-anchor="middle" x="536.75" y="-226.75" font-family="Helvetica,sans-Serif" font-size="10.00">/Ark/Compiler/Pass.hpp</text>
</a>
</g>
</g>
<!-- Node2 -->
<g id="Node000002" class="node">
<title>Node2</title>
<g id="a_Node000002"><a xlink:href="../../d5/d40/Platform_8hpp.html" target="_top" xlink:title="ArkScript configuration macros.">
<polygon fill="white" stroke="#666666" points="408.12,-74.5 295.38,-74.5 295.38,-55.25 408.12,-55.25 408.12,-74.5"/>
<text text-anchor="middle" x="351.75" y="-61" font-family="Helvetica,sans-Serif" font-size="10.00">Ark/Utils/Platform.hpp</text>
</a>
</g>
</g>
<!-- Node1&#45;&gt;Node2 -->
<g id="edge1_Node000001_Node000002" class="edge">
<title>Node1&#45;&gt;Node2</title>
<g id="a_edge1_Node000001_Node000002"><a xlink:title=" ">
<path fill="none" stroke="#63b8ff" d="M476.24,-228.89C423.62,-214.92 350.51,-186.14 315.75,-129.75 306,-113.93 319.08,-95.37 332.12,-82.35"/>
<polygon fill="#63b8ff" stroke="#63b8ff" points="334.36,-85.06 339.34,-75.71 329.61,-79.91 334.36,-85.06"/>
</a>
</g>
</g>
<!-- Node3 -->
<g id="Node000003" class="node">
<title>Node3</title>
<g id="a_Node000003"><a xlink:href="../../d7/dc6/Node_8hpp.html" target="_top" xlink:title="AST node used by the parser, optimizer and compiler.">
<polygon fill="white" stroke="#666666" points="607,-185 466.5,-185 466.5,-165.75 607,-165.75 607,-185"/>
<text text-anchor="middle" x="536.75" y="-171.5" font-family="Helvetica,sans-Serif" font-size="10.00">Ark/Compiler/AST/Node.hpp</text>
</a>
</g>
</g>
<!-- Node1&#45;&gt;Node3 -->
<g id="edge2_Node000001_Node000003" class="edge">
<title>Node1&#45;&gt;Node3</title>
<g id="a_edge2_Node000001_Node000003"><a xlink:title=" ">
<path fill="none" stroke="#63b8ff" d="M536.75,-220.82C536.75,-213.15 536.75,-204.39 536.75,-196.7"/>
<polygon fill="#63b8ff" stroke="#63b8ff" points="540.25,-196.96 536.75,-186.96 533.25,-196.96 540.25,-196.96"/>
</a>
</g>
</g>
<!-- Node19 -->
<g id="Node000019" class="node">
<title>Node19</title>
<g id="a_Node000019"><a xlink:href="../../d9/d11/Logger_8hpp.html" target="_top" xlink:title="Internal logger.">
<polygon fill="white" stroke="#666666" points="1008,-129.75 903.5,-129.75 903.5,-110.5 1008,-110.5 1008,-129.75"/>
<text text-anchor="middle" x="955.75" y="-116.25" font-family="Helvetica,sans-Serif" font-size="10.00">Ark/Utils/Logger.hpp</text>
</a>
</g>
</g>
<!-- Node1&#45;&gt;Node19 -->
<g id="edge26_Node000001_Node000019" class="edge">
<title>Node1&#45;&gt;Node19</title>
<g id="a_edge26_Node000001_Node000019"><a xlink:title=" ">
<path fill="none" stroke="#63b8ff" d="M597.23,-223.59C683.13,-199.04 838.34,-154.68 913.15,-133.3"/>
<polygon fill="#63b8ff" stroke="#63b8ff" points="913.91,-136.72 922.57,-130.61 911.99,-129.99 913.91,-136.72"/>
</a>
</g>
</g>
<!-- Node3&#45;&gt;Node2 -->
<g id="edge22_Node000003_Node000002" class="edge">
<title>Node3&#45;&gt;Node2</title>
<g id="a_edge22_Node000003_Node000002"><a xlink:title=" ">
<path fill="none" stroke="#63b8ff" d="M466.13,-168.94C411.56,-163.1 342.44,-151.55 324.75,-129.75 313.66,-116.08 324.05,-97.18 335,-83.49"/>
<polygon fill="#63b8ff" stroke="#63b8ff" points="337.5,-85.95 341.42,-76.11 332.21,-81.36 337.5,-85.95"/>
</a>
</g>
</g>
<!-- Node4 -->
<g id="Node000004" class="node">
<title>Node4</title>
<g id="a_Node000004"><a xlink:title=" ">
<polygon fill="#e0e0e0" stroke="#999999" points="508.38,-129.75 463.12,-129.75 463.12,-110.5 508.38,-110.5 508.38,-129.75"/>
<text text-anchor="middle" x="485.75" y="-116.25" font-family="Helvetica,sans-Serif" font-size="10.00">variant</text>
</a>
</g>
</g>
<!-- Node3&#45;&gt;Node4 -->
<g id="edge3_Node000003_Node000004" class="edge">
<title>Node3&#45;&gt;Node4</title>
<g id="a_edge3_Node000003_Node000004"><a xlink:title=" ">
<path fill="none" stroke="#63b8ff" d="M528.33,-165.58C521.21,-158.15 510.81,-147.29 502.06,-138.16"/>
<polygon fill="#63b8ff" stroke="#63b8ff" points="504.85,-136 495.4,-131.2 499.79,-140.85 504.85,-136"/>
</a>
</g>
</g>
<!-- Node5 -->
<g id="Node000005" class="node">
<title>Node5</title>
<g id="a_Node000005"><a xlink:title=" ">
<polygon fill="#e0e0e0" stroke="#999999" points="616.38,-129.75 565.12,-129.75 565.12,-110.5 616.38,-110.5 616.38,-129.75"/>
<text text-anchor="middle" x="590.75" y="-116.25" font-family="Helvetica,sans-Serif" font-size="10.00">ostream</text>
</a>
</g>
</g>
<!-- Node3&#45;&gt;Node5 -->
<g id="edge4_Node000003_Node000005" class="edge">
<title>Node3&#45;&gt;Node5</title>
<g id="a_edge4_Node000003_Node000005"><a xlink:title=" ">
<path fill="none" stroke="#63b8ff" d="M545.67,-165.58C553.2,-158.15 564.22,-147.29 573.48,-138.16"/>
<polygon fill="#63b8ff" stroke="#63b8ff" points="575.9,-140.69 580.56,-131.17 570.98,-135.7 575.9,-140.69"/>
</a>
</g>
</g>
<!-- Node6 -->
<g id="Node000006" class="node">
<title>Node6</title>
<g id="a_Node000006"><a xlink:title=" ">
<polygon fill="#e0e0e0" stroke="#999999" points="793.75,-74.5 753.75,-74.5 753.75,-55.25 793.75,-55.25 793.75,-74.5"/>
<text text-anchor="middle" x="773.75" y="-61" font-family="Helvetica,sans-Serif" font-size="10.00">string</text>
</a>
</g>
</g>
<!-- Node3&#45;&gt;Node6 -->
<g id="edge5_Node000003_Node000006" class="edge">
<title>Node3&#45;&gt;Node6</title>
<g id="a_edge5_Node000003_Node000006"><a xlink:title=" ">
<path fill="none" stroke="#63b8ff" d="M607.27,-174.68C690.26,-173.36 820.74,-165.46 851.75,-129.75 870.47,-108.19 833.65,-88.16 804.47,-76.48"/>
<polygon fill="#63b8ff" stroke="#63b8ff" points="805.81,-73.24 795.21,-72.96 803.32,-79.78 805.81,-73.24"/>
</a>
</g>
</g>
<!-- Node7 -->
<g id="Node000007" class="node">
<title>Node7</title>
<g id="a_Node000007"><a xlink:title=" ">
<polygon fill="#e0e0e0" stroke="#999999" points="666.25,-74.5 623.25,-74.5 623.25,-55.25 666.25,-55.25 666.25,-74.5"/>
<text text-anchor="middle" x="644.75" y="-61" font-family="Helvetica,sans-Serif" font-size="10.00">vector</text>
</a>
</g>
</g>
<!-- Node3&#45;&gt;Node7 -->
<g id="edge6_Node000003_Node000007" class="edge">
<title>Node3&#45;&gt;Node7</title>
<g id="a_edge6_Node000003_Node000007"><a xlink:title=" ">
<path fill="none" stroke="#63b8ff" d="M569.28,-165.26C588.24,-158.38 611.2,-147.1 625.75,-129.75 636.11,-117.39 640.82,-99.56 642.96,-85.88"/>
<polygon fill="#63b8ff" stroke="#63b8ff" points="646.4,-86.6 644.12,-76.26 639.45,-85.77 646.4,-86.6"/>
</a>
</g>
</g>
<!-- Node8 -->
<g id="Node000008" class="node">
<title>Node8</title>
<g id="a_Node000008"><a xlink:title=" ">
<polygon fill="#e0e0e0" stroke="#999999" points="518.62,-74.5 468.88,-74.5 468.88,-55.25 518.62,-55.25 518.62,-74.5"/>
<text text-anchor="middle" x="493.75" y="-61" font-family="Helvetica,sans-Serif" font-size="10.00">optional</text>
</a>
</g>
</g>
<!-- Node3&#45;&gt;Node8 -->
<g id="edge7_Node000003_Node000008" class="edge">
<title>Node3&#45;&gt;Node8</title>
<g id="a_edge7_Node000003_Node000008"><a xlink:title=" ">
<path fill="none" stroke="#63b8ff" d="M534.72,-165.5C531.72,-152.98 525.6,-129.54 517.75,-110.5 514.15,-101.77 509.34,-92.51 504.98,-84.7"/>
<polygon fill="#63b8ff" stroke="#63b8ff" points="508.07,-83.05 500.04,-76.15 502.01,-86.56 508.07,-83.05"/>
</a>
</g>
</g>
<!-- Node9 -->
<g id="Node000009" class="node">
<title>Node9</title>
<g id="a_Node000009"><a xlink:href="../../da/d33/Namespace_8hpp.html" target="_top" xlink:title=" ">
<polygon fill="white" stroke="#666666" points="842.62,-129.75 672.88,-129.75 672.88,-110.5 842.62,-110.5 842.62,-129.75"/>
<text text-anchor="middle" x="757.75" y="-116.25" font-family="Helvetica,sans-Serif" font-size="10.00">Ark/Compiler/AST/Namespace.hpp</text>
</a>
</g>
</g>
<!-- Node3&#45;&gt;Node9 -->
<g id="edge8_Node000003_Node000009" class="edge">
<title>Node3&#45;&gt;Node9</title>
<g id="a_edge8_Node000003_Node000009"><a xlink:title=" ">
<path fill="none" stroke="#63b8ff" d="M574.49,-165.28C611.68,-156.32 668.65,-142.59 709.2,-132.82"/>
<polygon fill="#63b8ff" stroke="#63b8ff" points="709.79,-136.28 718.69,-130.54 708.15,-129.48 709.79,-136.28"/>
</a>
</g>
</g>
<!-- Node11 -->
<g id="Node000011" class="node">
<title>Node11</title>
<g id="a_Node000011"><a xlink:href="../../d8/ddd/Common_8hpp.html" target="_top" xlink:title="Common code for the compiler.">
<polygon fill="white" stroke="#666666" points="240,-129.75 105.5,-129.75 105.5,-110.5 240,-110.5 240,-129.75"/>
<text text-anchor="middle" x="172.75" y="-116.25" font-family="Helvetica,sans-Serif" font-size="10.00">Ark/Compiler/Common.hpp</text>
</a>
</g>
</g>
<!-- Node3&#45;&gt;Node11 -->
<g id="edge12_Node000003_Node000011" class="edge">
<title>Node3&#45;&gt;Node11</title>
<g id="a_edge12_Node000003_Node000011"><a xlink:title=" ">
<path fill="none" stroke="#63b8ff" d="M474.59,-165.28C411.34,-156.03 313.34,-141.69 246.27,-131.88"/>
<polygon fill="#63b8ff" stroke="#63b8ff" points="246.86,-128.43 236.46,-130.44 245.84,-135.36 246.86,-128.43"/>
</a>
</g>
</g>
<!-- Node18 -->
<g id="Node000018" class="node">
<title>Node18</title>
<g id="a_Node000018"><a xlink:href="../../dc/d58/Position_8hpp.html" target="_top" xlink:title="Defines position utilities (for text in a file) for the parser, formatter, diagnostics.">
<polygon fill="white" stroke="#666666" points="445.38,-129.75 334.12,-129.75 334.12,-110.5 445.38,-110.5 445.38,-129.75"/>
<text text-anchor="middle" x="389.75" y="-116.25" font-family="Helvetica,sans-Serif" font-size="10.00">Ark/Utils/Position.hpp</text>
</a>
</g>
</g>
<!-- Node3&#45;&gt;Node18 -->
<g id="edge23_Node000003_Node000018" class="edge">
<title>Node3&#45;&gt;Node18</title>
<g id="a_edge23_Node000003_Node000018"><a xlink:title=" ">
<path fill="none" stroke="#63b8ff" d="M511.81,-165.34C488.06,-156.74 452.04,-143.69 425.29,-134"/>
<polygon fill="#63b8ff" stroke="#63b8ff" points="426.83,-130.83 416.23,-130.72 424.44,-137.41 426.83,-130.83"/>
</a>
</g>
</g>
<!-- Node9&#45;&gt;Node6 -->
<g id="edge9_Node000009_Node000006" class="edge">
<title>Node9&#45;&gt;Node6</title>
<g id="a_edge9_Node000009_Node000006"><a xlink:title=" ">
<path fill="none" stroke="#63b8ff" d="M760.39,-110.33C762.39,-103.67 765.23,-94.24 767.77,-85.78"/>
<polygon fill="#63b8ff" stroke="#63b8ff" points="771.09,-86.89 770.61,-76.31 764.39,-84.88 771.09,-86.89"/>
</a>
</g>
</g>
<!-- Node9&#45;&gt;Node7 -->
<g id="edge10_Node000009_Node000007" class="edge">
<title>Node9&#45;&gt;Node7</title>
<g id="a_edge10_Node000009_Node000007"><a xlink:title=" ">
<path fill="none" stroke="#63b8ff" d="M738.58,-110.09C720.97,-101.79 694.59,-89.36 674.29,-79.79"/>
<polygon fill="#63b8ff" stroke="#63b8ff" points="675.92,-76.69 665.38,-75.6 672.94,-83.03 675.92,-76.69"/>
</a>
</g>
</g>
<!-- Node10 -->
<g id="Node000010" class="node">
<title>Node10</title>
<g id="a_Node000010"><a xlink:title=" ">
<polygon fill="#e0e0e0" stroke="#999999" points="735.38,-74.5 684.12,-74.5 684.12,-55.25 735.38,-55.25 735.38,-74.5"/>
<text text-anchor="middle" x="709.75" y="-61" font-family="Helvetica,sans-Serif" font-size="10.00">memory</text>
</a>
</g>
</g>
<!-- Node9&#45;&gt;Node10 -->
<g id="edge11_Node000009_Node000010" class="edge">
<title>Node9&#45;&gt;Node10</title>
<g id="a_edge11_Node000009_Node000010"><a xlink:title=" ">
<path fill="none" stroke="#63b8ff" d="M749.82,-110.33C743.19,-102.98 733.53,-92.26 725.36,-83.19"/>
<polygon fill="#63b8ff" stroke="#63b8ff" points="728.16,-81.07 718.86,-75.98 722.96,-85.75 728.16,-81.07"/>
</a>
</g>
</g>
<!-- Node11&#45;&gt;Node7 -->
<g id="edge15_Node000011_Node000007" class="edge">
<title>Node11&#45;&gt;Node7</title>
<g id="a_edge15_Node000011_Node000007"><a xlink:title=" ">
<path fill="none" stroke="#63b8ff" d="M240.38,-111.5C343.21,-99.89 535.04,-78.25 611.78,-69.59"/>
<polygon fill="#63b8ff" stroke="#63b8ff" points="612.03,-73.09 621.57,-68.49 611.24,-66.13 612.03,-73.09"/>
</a>
</g>
</g>
<!-- Node12 -->
<g id="Node000012" class="node">
<title>Node12</title>
<g id="a_Node000012"><a xlink:title=" ">
<polygon fill="#e0e0e0" stroke="#999999" points="277.62,-74.5 239.88,-74.5 239.88,-55.25 277.62,-55.25 277.62,-74.5"/>
<text text-anchor="middle" x="258.75" y="-61" font-family="Helvetica,sans-Serif" font-size="10.00">array</text>
</a>
</g>
</g>
<!-- Node11&#45;&gt;Node12 -->
<g id="edge13_Node000011_Node000012" class="edge">
<title>Node11&#45;&gt;Node12</title>
<g id="a_edge13_Node000011_Node000012"><a xlink:title=" ">
<path fill="none" stroke="#63b8ff" d="M187.34,-110.09C200.19,-102.14 219.16,-90.39 234.32,-81"/>
<polygon fill="#63b8ff" stroke="#63b8ff" points="236.14,-83.99 242.8,-75.75 232.46,-78.04 236.14,-83.99"/>
</a>
</g>
</g>
<!-- Node13 -->
<g id="Node000013" class="node">
<title>Node13</title>
<g id="a_Node000013"><a xlink:title=" ">
<polygon fill="#e0e0e0" stroke="#999999" points="65.5,-19.25 0,-19.25 0,0 65.5,0 65.5,-19.25"/>
<text text-anchor="middle" x="32.75" y="-5.75" font-family="Helvetica,sans-Serif" font-size="10.00">string_view</text>
</a>
</g>
</g>
<!-- Node11&#45;&gt;Node13 -->
<g id="edge14_Node000011_Node000013" class="edge">
<title>Node11&#45;&gt;Node13</title>
<g id="a_edge14_Node000011_Node000013"><a xlink:title=" ">
<path fill="none" stroke="#63b8ff" d="M157.74,-110.15C143.67,-101.53 122.24,-87.89 104.75,-74.5 85.16,-59.5 64.21,-40.56 49.99,-27.21"/>
<polygon fill="#63b8ff" stroke="#63b8ff" points="52.46,-24.73 42.8,-20.38 47.65,-29.8 52.46,-24.73"/>
</a>
</g>
</g>
<!-- Node14 -->
<g id="Node000014" class="node">
<title>Node14</title>
<g id="a_Node000014"><a xlink:title=" ">
<polygon fill="#e0e0e0" stroke="#999999" points="139.62,-19.25 83.88,-19.25 83.88,0 139.62,0 139.62,-19.25"/>
<text text-anchor="middle" x="111.75" y="-5.75" font-family="Helvetica,sans-Serif" font-size="10.00">cinttypes</text>
</a>
</g>
</g>
<!-- Node11&#45;&gt;Node14 -->
<g id="edge16_Node000011_Node000014" class="edge">
<title>Node11&#45;&gt;Node14</title>
<g id="a_edge16_Node000011_Node000014"><a xlink:title=" ">
<path fill="none" stroke="#63b8ff" d="M153.74,-110.13C140.27,-102.64 123.16,-90.61 114.75,-74.5 107.74,-61.07 107.35,-43.82 108.52,-30.63"/>
<polygon fill="#63b8ff" stroke="#63b8ff" points="111.95,-31.35 109.75,-20.99 105.01,-30.46 111.95,-31.35"/>
</a>
</g>
</g>
<!-- Node15 -->
<g id="Node000015" class="node">
<title>Node15</title>
<g id="a_Node000015"><a xlink:href="../../d6/de9/Constants_8hpp.html" target="_top" xlink:title="Constants used by ArkScript.">
<polygon fill="white" stroke="#666666" points="221.62,-74.5 123.88,-74.5 123.88,-55.25 221.62,-55.25 221.62,-74.5"/>
<text text-anchor="middle" x="172.75" y="-61" font-family="Helvetica,sans-Serif" font-size="10.00">Ark/Constants.hpp</text>
</a>
</g>
</g>
<!-- Node11&#45;&gt;Node15 -->
<g id="edge17_Node000011_Node000015" class="edge">
<title>Node11&#45;&gt;Node15</title>
<g id="a_edge17_Node000011_Node000015"><a xlink:title=" ">
<path fill="none" stroke="#63b8ff" d="M172.75,-110.33C172.75,-103.82 172.75,-94.67 172.75,-86.37"/>
<polygon fill="#63b8ff" stroke="#63b8ff" points="176.25,-86.37 172.75,-76.37 169.25,-86.37 176.25,-86.37"/>
</a>
</g>
</g>
<!-- Node15&#45;&gt;Node13 -->
<g id="edge18_Node000015_Node000013" class="edge">
<title>Node15&#45;&gt;Node13</title>
<g id="a_edge18_Node000015_Node000013"><a xlink:title=" ">
<path fill="none" stroke="#63b8ff" d="M149,-54.84C126.58,-46.31 92.69,-33.42 67.28,-23.76"/>
<polygon fill="#63b8ff" stroke="#63b8ff" points="68.62,-20.52 58.03,-20.24 66.13,-27.07 68.62,-20.52"/>
</a>
</g>
</g>
<!-- Node15&#45;&gt;Node14 -->
<g id="edge20_Node000015_Node000014" class="edge">
<title>Node15&#45;&gt;Node14</title>
<g id="a_edge20_Node000015_Node000014"><a xlink:title=" ">
<path fill="none" stroke="#63b8ff" d="M162.4,-54.84C153.67,-47.22 140.96,-36.12 130.45,-26.95"/>
<polygon fill="#63b8ff" stroke="#63b8ff" points="132.92,-24.46 123.09,-20.52 128.32,-29.73 132.92,-24.46"/>
</a>
</g>
</g>
<!-- Node16 -->
<g id="Node000016" class="node">
<title>Node16</title>
<g id="a_Node000016"><a xlink:title=" ">
<polygon fill="#e0e0e0" stroke="#999999" points="263.38,-19.25 224.12,-19.25 224.12,0 263.38,0 263.38,-19.25"/>
<text text-anchor="middle" x="243.75" y="-5.75" font-family="Helvetica,sans-Serif" font-size="10.00">limits</text>
</a>
</g>
</g>
<!-- Node15&#45;&gt;Node16 -->
<g id="edge19_Node000015_Node000016" class="edge">
<title>Node15&#45;&gt;Node16</title>
<g id="a_edge19_Node000015_Node000016"><a xlink:title=" ">
<path fill="none" stroke="#63b8ff" d="M184.79,-54.84C195.16,-47.07 210.35,-35.67 222.72,-26.4"/>
<polygon fill="#63b8ff" stroke="#63b8ff" points="224.77,-29.23 230.67,-20.43 220.57,-23.63 224.77,-29.23"/>
</a>
</g>
</g>
<!-- Node17 -->
<g id="Node000017" class="node">
<title>Node17</title>
<g id="a_Node000017"><a xlink:title=" ">
<polygon fill="#e0e0e0" stroke="#999999" points="205.88,-19.25 157.62,-19.25 157.62,0 205.88,0 205.88,-19.25"/>
<text text-anchor="middle" x="181.75" y="-5.75" font-family="Helvetica,sans-Serif" font-size="10.00">cstddef</text>
</a>
</g>
</g>
<!-- Node15&#45;&gt;Node17 -->
<g id="edge21_Node000015_Node000017" class="edge">
<title>Node15&#45;&gt;Node17</title>
<g id="a_edge21_Node000015_Node000017"><a xlink:title=" ">
<path fill="none" stroke="#63b8ff" d="M174.24,-55.08C175.35,-48.49 176.92,-39.21 178.34,-30.82"/>
<polygon fill="#63b8ff" stroke="#63b8ff" points="181.76,-31.55 179.98,-21.1 174.86,-30.38 181.76,-31.55"/>
</a>
</g>
</g>
<!-- Node18&#45;&gt;Node2 -->
<g id="edge25_Node000018_Node000002" class="edge">
<title>Node18&#45;&gt;Node2</title>
<g id="a_edge25_Node000018_Node000002"><a xlink:title=" ">
<path fill="none" stroke="#63b8ff" d="M383.48,-110.33C378.39,-103.21 371.05,-92.93 364.72,-84.05"/>
<polygon fill="#63b8ff" stroke="#63b8ff" points="367.7,-82.2 359.04,-76.09 362,-86.26 367.7,-82.2"/>
</a>
</g>
</g>
<!-- Node18&#45;&gt;Node8 -->
<g id="edge24_Node000018_Node000008" class="edge">
<title>Node18&#45;&gt;Node8</title>
<g id="a_edge24_Node000018_Node000008"><a xlink:title=" ">
<path fill="none" stroke="#63b8ff" d="M407.39,-110.09C423.38,-101.91 447.21,-89.71 465.79,-80.19"/>
<polygon fill="#63b8ff" stroke="#63b8ff" points="467.37,-83.32 474.67,-75.64 464.18,-77.08 467.37,-83.32"/>
</a>
</g>
</g>
<!-- Node19&#45;&gt;Node6 -->
<g id="edge29_Node000019_Node000006" class="edge">
<title>Node19&#45;&gt;Node6</title>
<g id="a_edge29_Node000019_Node000006"><a xlink:title=" ">
<path fill="none" stroke="#63b8ff" d="M924.38,-110.03C895.68,-101.69 851.75,-88.91 805,-75.15"/>
<polygon fill="#63b8ff" stroke="#63b8ff" points="806.06,-71.82 795.48,-72.35 804.08,-78.53 806.06,-71.82"/>
</a>
</g>
</g>
<!-- Node19&#45;&gt;Node7 -->
<g id="edge32_Node000019_Node000007" class="edge">
<title>Node19&#45;&gt;Node7</title>
<g id="a_edge32_Node000019_Node000007"><a xlink:title=" ">
<path fill="none" stroke="#63b8ff" d="M903.08,-112.72C848.78,-105.68 761.49,-93.16 677.86,-74.98"/>
<polygon fill="#63b8ff" stroke="#63b8ff" points="678.62,-71.57 668.1,-72.83 677.11,-78.4 678.62,-71.57"/>
</a>
</g>
</g>
<!-- Node20 -->
<g id="Node000020" class="node">
<title>Node20</title>
<g id="a_Node000020"><a xlink:title=" ">
<polygon fill="#e0e0e0" stroke="#999999" points="1148.5,-74.5 1095,-74.5 1095,-55.25 1148.5,-55.25 1148.5,-74.5"/>
<text text-anchor="middle" x="1121.75" y="-61" font-family="Helvetica,sans-Serif" font-size="10.00">iostream</text>
</a>
</g>
</g>
<!-- Node19&#45;&gt;Node20 -->
<g id="edge27_Node000019_Node000020" class="edge">
<title>Node19&#45;&gt;Node20</title>
<g id="a_edge27_Node000019_Node000020"><a xlink:title=" ">
<path fill="none" stroke="#63b8ff" d="M983.91,-110.09C1011.43,-101.27 1053.5,-87.77 1083.92,-78.01"/>
<polygon fill="#63b8ff" stroke="#63b8ff" points="1084.66,-81.45 1093.12,-75.06 1082.52,-74.78 1084.66,-81.45"/>
</a>
</g>
</g>
<!-- Node21 -->
<g id="Node000021" class="node">
<title>Node21</title>
<g id="a_Node000021"><a xlink:title=" ">
<polygon fill="#e0e0e0" stroke="#999999" points="1235.38,-74.5 1166.12,-74.5 1166.12,-55.25 1235.38,-55.25 1235.38,-74.5"/>
<text text-anchor="middle" x="1200.75" y="-61" font-family="Helvetica,sans-Serif" font-size="10.00">fmt/format.h</text>
</a>
</g>
</g>
<!-- Node19&#45;&gt;Node21 -->
<g id="edge28_Node000019_Node000021" class="edge">
<title>Node19&#45;&gt;Node21</title>
<g id="a_edge28_Node000019_Node000021"><a xlink:title=" ">
<path fill="none" stroke="#63b8ff" d="M997.59,-110.03C1041.22,-100.55 1109.41,-85.73 1154.59,-75.91"/>
<polygon fill="#63b8ff" stroke="#63b8ff" points="1155.32,-79.33 1164.35,-73.79 1153.83,-72.49 1155.32,-79.33"/>
</a>
</g>
</g>
<!-- Node22 -->
<g id="Node000022" class="node">
<title>Node22</title>
<g id="a_Node000022"><a xlink:title=" ">
<polygon fill="#e0e0e0" stroke="#999999" points="1298.38,-74.5 1253.12,-74.5 1253.12,-55.25 1298.38,-55.25 1298.38,-74.5"/>
<text text-anchor="middle" x="1275.75" y="-61" font-family="Helvetica,sans-Serif" font-size="10.00">chrono</text>
</a>
</g>
</g>
<!-- Node19&#45;&gt;Node22 -->
<g id="edge30_Node000019_Node000022" class="edge">
<title>Node19&#45;&gt;Node22</title>
<g id="a_edge30_Node000019_Node000022"><a xlink:title=" ">
<path fill="none" stroke="#63b8ff" d="M1008.3,-112.91C1064.09,-105.89 1155.02,-93.24 1241.71,-74.96"/>
<polygon fill="#63b8ff" stroke="#63b8ff" points="1242.28,-78.42 1251.32,-72.9 1240.81,-71.57 1242.28,-78.42"/>
</a>
</g>
</g>
<!-- Node23 -->
<g id="Node000023" class="node">
<title>Node23</title>
<g id="a_Node000023"><a xlink:title=" ">
<polygon fill="#e0e0e0" stroke="#999999" points="895.88,-74.5 811.62,-74.5 811.62,-55.25 895.88,-55.25 895.88,-74.5"/>
<text text-anchor="middle" x="853.75" y="-61" font-family="Helvetica,sans-Serif" font-size="10.00">source_location</text>
</a>
</g>
</g>
<!-- Node19&#45;&gt;Node23 -->
<g id="edge31_Node000019_Node000023" class="edge">
<title>Node19&#45;&gt;Node23</title>
<g id="a_edge31_Node000019_Node000023"><a xlink:title=" ">
<path fill="none" stroke="#63b8ff" d="M938.45,-110.09C922.77,-101.91 899.4,-89.71 881.17,-80.19"/>
<polygon fill="#63b8ff" stroke="#63b8ff" points="882.96,-77.18 872.48,-75.65 879.72,-83.38 882.96,-77.18"/>
</a>
</g>
</g>
<!-- Node24 -->
<g id="Node000024" class="node">
<title>Node24</title>
<g id="a_Node000024"><a xlink:title=" ">
<polygon fill="#e0e0e0" stroke="#999999" points="997.12,-74.5 914.38,-74.5 914.38,-55.25 997.12,-55.25 997.12,-74.5"/>
<text text-anchor="middle" x="955.75" y="-61" font-family="Helvetica,sans-Serif" font-size="10.00">unordered_map</text>
</a>
</g>
</g>
<!-- Node19&#45;&gt;Node24 -->
<g id="edge33_Node000019_Node000024" class="edge">
<title>Node19&#45;&gt;Node24</title>
<g id="a_edge33_Node000019_Node000024"><a xlink:title=" ">
<path fill="none" stroke="#63b8ff" d="M955.75,-110.33C955.75,-103.82 955.75,-94.67 955.75,-86.37"/>
<polygon fill="#63b8ff" stroke="#63b8ff" points="959.25,-86.37 955.75,-76.37 952.25,-86.37 959.25,-86.37"/>
</a>
</g>
</g>
<!-- Node25 -->
<g id="Node000025" class="node">
<title>Node25</title>
<g id="a_Node000025"><a xlink:title=" ">
<polygon fill="#e0e0e0" stroke="#999999" points="1076.62,-74.5 1014.88,-74.5 1014.88,-55.25 1076.62,-55.25 1076.62,-74.5"/>
<text text-anchor="middle" x="1045.75" y="-61" font-family="Helvetica,sans-Serif" font-size="10.00">fmt/color.h</text>
</a>
</g>
</g>
<!-- Node19&#45;&gt;Node25 -->
<g id="edge34_Node000019_Node000025" class="edge">
<title>Node19&#45;&gt;Node25</title>
<g id="a_edge34_Node000019_Node000025"><a xlink:title=" ">
<path fill="none" stroke="#63b8ff" d="M971.02,-110.09C984.59,-102.06 1004.7,-90.16 1020.65,-80.73"/>
<polygon fill="#63b8ff" stroke="#63b8ff" points="1022.28,-83.83 1029.11,-75.72 1018.72,-77.8 1022.28,-83.83"/>
</a>
</g>
</g>
</g>
</svg>

<g id="navigator" transform="translate(0 0)" fill="#404254">
  <rect fill="#f2f5e9" fill-opacity="0.5" stroke="#606060" stroke-width=".5" x="0" y="0" width="60" height="60"/>
  <use id="zoomplus" xlink:href="#zoomPlus" x="17" y="9" onmousedown="handleZoom(evt,'in')"/>
  <use id="zoomminus" xlink:href="#zoomMin" x="42" y="9" onmousedown="handleZoom(evt,'out')"/>
  <use id="reset" xlink:href="#resetDef" x="30" y="36" onmousedown="handleReset()"/>
   <use id="arrowup" xlink:href="#arrowUp" x="0" y="0" onmousedown="handlePan(0,-1)"/>
  <use id="arrowright" xlink:href="#arrowRight" x="0" y="0" onmousedown="handlePan(1,0)"/>
  <use id="arrowdown" xlink:href="#arrowDown" x="0" y="0" onmousedown="handlePan(0,1)"/>
  <use id="arrowleft" xlink:href="#arrowLeft" x="0" y="0" onmousedown="handlePan(-1,0)"/>
</g>
<svg viewBox="0 0 15 15" width="100%" height="30px" preserveAspectRatio="xMaxYMin meet">
 <g id="arrow_out" transform="scale(0.3 0.3)">
  <a xlink:href="Pass_8hpp__incl_org.svg" target="_base">
   <rect id="button" ry="5" rx="5" y="6" x="6" height="38" width="38"
        fill="#f2f5e9" fill-opacity="0.5" stroke="#606060" stroke-width="1.0"/>
   <path id="arrow"
     d="M 11.500037,31.436501 C 11.940474,20.09759 22.043105,11.32322 32.158766,21.979434 L 37.068811,17.246167 C 37.068811,17.246167 37.088388,32 37.088388,32 L 22.160133,31.978069 C 22.160133,31.978069 26.997745,27.140456 26.997745,27.140456 C 18.528582,18.264221 13.291696,25.230495 11.500037,31.436501 z"
     style="fill:#404040;"/>
  </a>
 </g>
</svg>

<style type='text/css'>
<![CDATA[
[data-mouse-over-selected='false'] { opacity: 0.7; }
[data-mouse-over-selected='true']  { opacity: 1.0; }
]]>
</style>
<script type="application/ecmascript"><![CDATA[
document.addEventListener('DOMContentLoaded', (event) => {
  highlightEdges();
  highlightAdjacentNodes();
});
]]></script>
</svg>
