<?xml version="1.0" encoding="UTF-8" standalone="no"?>
<!DOCTYPE svg PUBLIC "-//W3C//DTD SVG 1.1//EN"
 "http://www.w3.org/Graphics/SVG/1.1/DTD/svg11.dtd">
<!-- Generated by graphviz version 12.2.0 (20241103.1931)
 -->
<!-- Title: /Users/fola/Documents/ArkScript/Ark/include/Ark/Compiler/Common.hpp Pages: 1 -->
<svg width="313pt" height="160pt"
 viewBox="0.00 0.00 312.75 160.25" xmlns="http://www.w3.org/2000/svg" xmlns:xlink="http://www.w3.org/1999/xlink">

<svg id="main" version="1.1" xmlns="http://www.w3.org/2000/svg" xmlns:xlink="http://www.w3.org/1999/xlink" xml:space="preserve">

<style type="text/css"><![CDATA[
.node, .edge {opacity: 0.7;}
.node.selected, .edge.selected {opacity: 1;}
.edge:hover path { stroke: red; }
.edge:hover polygon { stroke: red; fill: red; }
]]></style>
<script type="application/ecmascript" xlink:href="../../svg.min.js"/>
<svg id="graph" class="graph">
<g id="graph0" class="graph" transform="scale(1 1) rotate(0) translate(4 156.25)">
<title>/Users/fola/Documents/ArkScript/Ark/include/Ark/Compiler/Common.hpp</title>
<!-- Node1 -->
<g id="Node000001" class="node">
<title>Node1</title>
<g id="a_Node000001"><a xlink:title="Common code for the compiler.">
<polygon fill="#999999" stroke="#666666" points="184.62,-152.25 47.12,-152.25 47.12,-110.5 184.62,-110.5 184.62,-152.25"/>
<text text-anchor="start" x="55.12" y="-138.75" font-family="Helvetica,sans-Serif" font-size="10.00">/Users/fola/Documents</text>
<text text-anchor="start" x="55.12" y="-127.5" font-family="Helvetica,sans-Serif" font-size="10.00">/ArkScript/Ark/include</text>
<text text-anchor="middle" x="115.88" y="-116.25" font-family="Helvetica,sans-Serif" font-size="10.00">/Ark/Compiler/Common.hpp</text>
</a>
</g>
</g>
<!-- Node2 -->
<g id="Node000002" class="node">
<title>Node2</title>
<g id="a_Node000002"><a xlink:title=" ">
<polygon fill="#e0e0e0" stroke="#999999" points="37.75,-74.5 0,-74.5 0,-55.25 37.75,-55.25 37.75,-74.5"/>
<text text-anchor="middle" x="18.88" y="-61" font-family="Helvetica,sans-Serif" font-size="10.00">array</text>
</a>
</g>
</g>
<!-- Node1&#45;&gt;Node2 -->
<g id="edge1_Node000001_Node000002" class="edge">
<title>Node1&#45;&gt;Node2</title>
<g id="a_edge1_Node000001_Node000002"><a xlink:title=" ">
<path fill="none" stroke="#63b8ff" d="M85.45,-110.14C71.28,-100.72 54.71,-89.71 41.65,-81.02"/>
<polygon fill="#63b8ff" stroke="#63b8ff" points="43.96,-78.36 33.7,-75.73 40.09,-84.18 43.96,-78.36"/>
</a>
</g>
</g>
<!-- Node3 -->
<g id="Node000003" class="node">
<title>Node3</title>
<g id="a_Node000003"><a xlink:title=" ">
<polygon fill="#e0e0e0" stroke="#999999" points="130.62,-19.25 65.12,-19.25 65.12,0 130.62,0 130.62,-19.25"/>
<text text-anchor="middle" x="97.88" y="-5.75" font-family="Helvetica,sans-Serif" font-size="10.00">string_view</text>
</a>
</g>
</g>
<!-- Node1&#45;&gt;Node3 -->
<g id="edge2_Node000001_Node000003" class="edge">
<title>Node1&#45;&gt;Node3</title>
<g id="a_edge2_Node000001_Node000003"><a xlink:title=" ">
<path fill="none" stroke="#63b8ff" d="M101.42,-110.22C95,-100.03 88.15,-87.17 84.88,-74.5 81.05,-59.72 84.87,-42.78 89.33,-30.06"/>
<polygon fill="#63b8ff" stroke="#63b8ff" points="92.58,-31.36 93.02,-20.78 86.08,-28.77 92.58,-31.36"/>
</a>
</g>
</g>
<!-- Node4 -->
<g id="Node000004" class="node">
<title>Node4</title>
<g id="a_Node000004"><a xlink:title=" ">
<polygon fill="#e0e0e0" stroke="#999999" points="137.38,-74.5 94.38,-74.5 94.38,-55.25 137.38,-55.25 137.38,-74.5"/>
<text text-anchor="middle" x="115.88" y="-61" font-family="Helvetica,sans-Serif" font-size="10.00">vector</text>
</a>
</g>
</g>
<!-- Node1&#45;&gt;Node4 -->
<g id="edge3_Node000001_Node000004" class="edge">
<title>Node1&#45;&gt;Node4</title>
<g id="a_edge3_Node000001_Node000004"><a xlink:title=" ">
<path fill="none" stroke="#63b8ff" d="M115.88,-110.32C115.88,-102.65 115.88,-93.89 115.88,-86.2"/>
<polygon fill="#63b8ff" stroke="#63b8ff" points="119.38,-86.46 115.88,-76.46 112.38,-86.46 119.38,-86.46"/>
</a>
</g>
</g>
<!-- Node5 -->
<g id="Node000005" class="node">
<title>Node5</title>
<g id="a_Node000005"><a xlink:title=" ">
<polygon fill="#e0e0e0" stroke="#999999" points="304.75,-19.25 249,-19.25 249,0 304.75,0 304.75,-19.25"/>
<text text-anchor="middle" x="276.88" y="-5.75" font-family="Helvetica,sans-Serif" font-size="10.00">cinttypes</text>
</a>
</g>
</g>
<!-- Node1&#45;&gt;Node5 -->
<g id="edge4_Node000001_Node000005" class="edge">
<title>Node1&#45;&gt;Node5</title>
<g id="a_edge4_Node000001_Node000005"><a xlink:title=" ">
<path fill="none" stroke="#63b8ff" d="M185.01,-118.52C212.52,-110.46 242.24,-96.98 261.88,-74.5 272.32,-62.55 275.84,-44.68 276.87,-30.88"/>
<polygon fill="#63b8ff" stroke="#63b8ff" points="280.36,-31.26 277.21,-21.15 273.37,-31.02 280.36,-31.26"/>
</a>
</g>
</g>
<!-- Node6 -->
<g id="Node000006" class="node">
<title>Node6</title>
<g id="a_Node000006"><a xlink:href="../../d6/de9/Constants_8hpp.html" target="_top" xlink:title="Constants used by ArkScript.">
<polygon fill="white" stroke="#666666" points="252.75,-74.5 155,-74.5 155,-55.25 252.75,-55.25 252.75,-74.5"/>
<text text-anchor="middle" x="203.88" y="-61" font-family="Helvetica,sans-Serif" font-size="10.00">Ark/Constants.hpp</text>
</a>
</g>
</g>
<!-- Node1&#45;&gt;Node6 -->
<g id="edge5_Node000001_Node000006" class="edge">
<title>Node1&#45;&gt;Node6</title>
<g id="a_edge5_Node000001_Node000006"><a xlink:title=" ">
<path fill="none" stroke="#63b8ff" d="M143.24,-110.32C155.85,-101.08 170.6,-90.26 182.4,-81.62"/>
<polygon fill="#63b8ff" stroke="#63b8ff" points="184.28,-84.57 190.28,-75.84 180.14,-78.93 184.28,-84.57"/>
</a>
</g>
</g>
<!-- Node6&#45;&gt;Node3 -->
<g id="edge6_Node000006_Node000003" class="edge">
<title>Node6&#45;&gt;Node3</title>
<g id="a_edge6_Node000006_Node000003"><a xlink:title=" ">
<path fill="none" stroke="#63b8ff" d="M185.89,-54.84C169.52,-46.62 145.09,-34.34 126.11,-24.81"/>
<polygon fill="#63b8ff" stroke="#63b8ff" points="127.8,-21.74 117.3,-20.38 124.66,-28 127.8,-21.74"/>
</a>
</g>
</g>
<!-- Node6&#45;&gt;Node5 -->
<g id="edge7_Node000006_Node000005" class="edge">
<title>Node6&#45;&gt;Node5</title>
<g id="a_edge7_Node000006_Node000005"><a xlink:title=" ">
<path fill="none" stroke="#63b8ff" d="M216.26,-54.84C227.02,-46.99 242.85,-35.45 255.63,-26.12"/>
<polygon fill="#63b8ff" stroke="#63b8ff" points="257.44,-29.14 263.45,-20.42 253.31,-23.48 257.44,-29.14"/>
</a>
</g>
</g>
<!-- Node7 -->
<g id="Node000007" class="node">
<title>Node7</title>
<g id="a_Node000007"><a xlink:title=" ">
<polygon fill="#e0e0e0" stroke="#999999" points="228,-19.25 179.75,-19.25 179.75,0 228,0 228,-19.25"/>
<text text-anchor="middle" x="203.88" y="-5.75" font-family="Helvetica,sans-Serif" font-size="10.00">cstddef</text>
</a>
</g>
</g>
<!-- Node6&#45;&gt;Node7 -->
<g id="edge8_Node000006_Node000007" class="edge">
<title>Node6&#45;&gt;Node7</title>
<g id="a_edge8_Node000006_Node000007"><a xlink:title=" ">
<path fill="none" stroke="#63b8ff" d="M203.88,-55.08C203.88,-48.57 203.88,-39.42 203.88,-31.12"/>
<polygon fill="#63b8ff" stroke="#63b8ff" points="207.38,-31.12 203.88,-21.12 200.38,-31.12 207.38,-31.12"/>
</a>
</g>
</g>
</g>
</svg>
</svg>

<style type='text/css'>
<![CDATA[
[data-mouse-over-selected='false'] { opacity: 0.7; }
[data-mouse-over-selected='true']  { opacity: 1.0; }
]]>
</style>
<script type="application/ecmascript"><![CDATA[
document.addEventListener('DOMContentLoaded', (event) => {
  highlightEdges();
  highlightAdjacentNodes();
});
]]></script>
</svg>
