<?xml version="1.0" encoding="UTF-8" standalone="no"?>
<!DOCTYPE svg PUBLIC "-//W3C//DTD SVG 1.1//EN"
 "http://www.w3.org/Graphics/SVG/1.1/DTD/svg11.dtd">
<!-- Generated by graphviz version 12.2.0 (20241103.1931)
 -->
<!-- Title: Ark::State Pages: 1 -->
<!--zoomable 390 -->

<svg id="main" version="1.1" xmlns="http://www.w3.org/2000/svg" xmlns:xlink="http://www.w3.org/1999/xlink" xml:space="preserve" onload="init(evt)">

<style type="text/css"><![CDATA[
.node, .edge {opacity: 0.7;}
.node.selected, .edge.selected {opacity: 1;}
.edge:hover path { stroke: red; }
.edge:hover polygon { stroke: red; fill: red; }
]]></style>

<defs>
  <circle id="rim" cx="0" cy="0" r="7"/>
  <circle id="rim2" cx="0" cy="0" r="3.5"/>
  <g id="zoomPlus">
    <use xlink:href="#rim" fill="#404040"><set attributeName="fill" to="#808080" begin="zoomplus.mouseover" end="zoomplus.mouseout"/></use>
    <path d="M-4,0h8M0,-4v8" fill="none" stroke="white" stroke-width="1.5" pointer-events="none"/>
  </g>
  <g id="zoomMin">
    <use xlink:href="#rim" fill="#404040"><set attributeName="fill" to="#808080" begin="zoomminus.mouseover" end="zoomminus.mouseout"/></use>
    <path d="M-4,0h8" fill="none" stroke="white" stroke-width="1.5" pointer-events="none"/>
  </g>
  <g id="arrowUp" transform="translate(30 24)">
    <use xlink:href="#rim"/>
    <path pointer-events="none" fill="none" stroke="white" stroke-width="1.5" d="M0,-3.0v7 M-2.5,-0.5L0,-3.0L2.5,-0.5"/>
  </g>
  <g id="arrowRight" transform="rotate(90) translate(36 -43)">
    <use xlink:href="#rim"/>
    <path pointer-events="none" fill="none" stroke="white" stroke-width="1.5" d="M0,-3.0v7 M-2.5,-0.5L0,-3.0L2.5,-0.5"/>
  </g>
  <g id="arrowDown" transform="rotate(180) translate(-30 -48)">
    <use xlink:href="#rim"/>
    <path pointer-events="none" fill="none" stroke="white" stroke-width="1.5" d="M0,-3.0v7 M-2.5,-0.5L0,-3.0L2.5,-0.5"/>
  </g>
  <g id="arrowLeft" transform="rotate(270) translate(-36 17)">
    <use xlink:href="#rim"/>
    <path pointer-events="none" fill="none" stroke="white" stroke-width="1.5" d="M0,-3.0v7 M-2.5,-0.5L0,-3.0L2.5,-0.5"/>
  </g>
  <g id="resetDef">
    <use xlink:href="#rim2" fill="#404040"><set attributeName="fill" to="#808080" begin="reset.mouseover" end="reset.mouseout"/></use>
  </g>
</defs>
<script type="application/ecmascript">
var viewWidth = 743;
var viewHeight = 390;
var sectionId = 'dynsection-0';
</script>
<script type="application/ecmascript" xlink:href="../../svg.min.js"/>
<svg id="graph" class="graph">
<g id="viewport">
<title>Ark::State</title>
<!-- Node1 -->
<g id="Node000001" class="node">
<title>Node1</title>
<g id="a_Node000001"><a xlink:title="Ark state to handle the dirty job of loading and compiling ArkScript code.">
<polygon fill="#999999" stroke="#666666" points="735.25,-228.19 675,-228.19 675,-208.94 735.25,-208.94 735.25,-228.19"/>
<text text-anchor="middle" x="705.12" y="-214.69" font-family="Helvetica,sans-Serif" font-size="10.00">Ark::State</text>
</a>
</g>
</g>
<!-- Node2 -->
<g id="Node000002" class="node">
<title>Node2</title>
<g id="a_Node000002"><a xlink:title=" ">
<polygon fill="white" stroke="#666666" points="549.38,-382.19 439.62,-382.19 439.62,-362.94 549.38,-362.94 549.38,-382.19"/>
<text text-anchor="middle" x="494.5" y="-368.69" font-family="Helvetica,sans-Serif" font-size="10.00">std::vector&lt; uint8_t &gt;</text>
</a>
</g>
</g>
<!-- Node2&#45;&gt;Node1 -->
<g id="edge1_Node000001_Node000002" class="edge">
<title>Node2&#45;&gt;Node1</title>
<g id="a_edge1_Node000001_Node000002"><a xlink:title=" ">
<path fill="none" stroke="#9a32cd" stroke-dasharray="5,2" d="M560.67,-361.67C592.77,-353.52 630.22,-339.48 657,-315.56 684.09,-291.37 697.19,-248.14 701.94,-228.62"/>
<polygon fill="#9a32cd" stroke="#9a32cd" points="559.95,-358.24 551.04,-363.97 561.58,-365.05 559.95,-358.24"/>
</a>
</g>
<text text-anchor="middle" x="618.75" y="-367.83" font-family="Helvetica,sans-Serif" font-size="10.00" fill="grey"> m_bytecode</text>
<text text-anchor="middle" x="618.75" y="-356.58" font-family="Helvetica,sans-Serif" font-size="10.00" fill="grey">m_code</text>
</g>
<!-- Node3 -->
<g id="Node000003" class="node">
<title>Node3</title>
<g id="a_Node000003"><a xlink:title=" ">
<polygon fill="white" stroke="#666666" points="269.38,-310.19 182.88,-310.19 182.88,-290.94 269.38,-290.94 269.38,-310.19"/>
<text text-anchor="middle" x="226.12" y="-296.69" font-family="Helvetica,sans-Serif" font-size="10.00">std::vector&lt; T &gt;</text>
</a>
</g>
</g>
<!-- Node3&#45;&gt;Node2 -->
<g id="edge2_Node000002_Node000003" class="edge">
<title>Node3&#45;&gt;Node2</title>
<g id="a_edge2_Node000002_Node000003"><a xlink:title=" ">
<path fill="none" stroke="orange" stroke-dasharray="5,2" d="M247.47,-317.41C260.86,-327.55 279.22,-339.78 297.5,-346.56 343.52,-363.64 399.28,-369.75 439.55,-371.82"/>
<polygon fill="orange" stroke="orange" points="249.9,-314.86 239.87,-311.43 245.57,-320.36 249.9,-314.86"/>
</a>
</g>
<text text-anchor="middle" x="353" y="-371.18" font-family="Helvetica,sans-Serif" font-size="10.00" fill="grey"> &lt; uint8_t &gt;</text>
</g>
<!-- Node5 -->
<g id="Node000005" class="node">
<title>Node5</title>
<g id="a_Node000005"><a xlink:title=" ">
<polygon fill="white" stroke="#666666" points="562.5,-338.81 426.5,-338.81 426.5,-308.31 562.5,-308.31 562.5,-338.81"/>
<text text-anchor="start" x="434.5" y="-325.31" font-family="Helvetica,sans-Serif" font-size="10.00">std::vector&lt; std::filesystem</text>
<text text-anchor="middle" x="494.5" y="-314.06" font-family="Helvetica,sans-Serif" font-size="10.00">::path &gt;</text>
</a>
</g>
</g>
<!-- Node3&#45;&gt;Node5 -->
<g id="edge5_Node000005_Node000003" class="edge">
<title>Node3&#45;&gt;Node5</title>
<g id="a_edge5_Node000005_Node000003"><a xlink:title=" ">
<path fill="none" stroke="orange" stroke-dasharray="5,2" d="M281.1,-309.53C286.63,-310.29 292.17,-310.98 297.5,-311.56 340.2,-316.2 388.35,-319.18 426.24,-321.01"/>
<polygon fill="orange" stroke="orange" points="281.73,-306.08 271.34,-308.11 280.73,-313.01 281.73,-306.08"/>
</a>
</g>
<text text-anchor="start" x="311.75" y="-332.85" font-family="Helvetica,sans-Serif" font-size="10.00" fill="grey"> &lt; std::filesystem::</text>
<text text-anchor="middle" x="353" y="-321.6" font-family="Helvetica,sans-Serif" font-size="10.00" fill="grey">path &gt;</text>
</g>
<!-- Node8 -->
<g id="Node000008" class="node">
<title>Node8</title>
<g id="a_Node000008"><a xlink:title=" ">
<polygon fill="white" stroke="#666666" points="556.5,-173.19 432.5,-173.19 432.5,-153.94 556.5,-153.94 556.5,-173.19"/>
<text text-anchor="middle" x="494.5" y="-159.69" font-family="Helvetica,sans-Serif" font-size="10.00">std::vector&lt; std::string &gt;</text>
</a>
</g>
</g>
<!-- Node3&#45;&gt;Node8 -->
<g id="edge10_Node000008_Node000003" class="edge">
<title>Node3&#45;&gt;Node8</title>
<g id="a_edge10_Node000008_Node000003"><a xlink:title=" ">
<path fill="none" stroke="orange" stroke-dasharray="5,2" d="M278.72,-283.46C278.99,-283.17 279.25,-282.87 279.5,-282.56 313.05,-242.46 258.04,-200.61 297.5,-166.31 317.02,-149.34 382.46,-151.56 432.4,-156.15"/>
<polygon fill="orange" stroke="orange" points="276.57,-280.7 270.98,-289.7 280.96,-286.15 276.57,-280.7"/>
</a>
</g>
<text text-anchor="middle" x="353" y="-168.06" font-family="Helvetica,sans-Serif" font-size="10.00" fill="grey"> &lt; std::string &gt;</text>
</g>
<!-- Node9 -->
<g id="Node000009" class="node">
<title>Node9</title>
<g id="a_Node000009"><a xlink:title=" ">
<polygon fill="white" stroke="#666666" points="556.88,-228.19 432.12,-228.19 432.12,-208.94 556.88,-208.94 556.88,-228.19"/>
<text text-anchor="middle" x="494.5" y="-214.69" font-family="Helvetica,sans-Serif" font-size="10.00">std::vector&lt; Ark::Value &gt;</text>
</a>
</g>
</g>
<!-- Node3&#45;&gt;Node9 -->
<g id="edge13_Node000009_Node000003" class="edge">
<title>Node3&#45;&gt;Node9</title>
<g id="a_edge13_Node000009_Node000003"><a xlink:title=" ">
<path fill="none" stroke="orange" stroke-dasharray="5,2" d="M276.59,-284.84C277.59,-284.11 278.56,-283.36 279.5,-282.56 292.32,-271.7 283.78,-259.01 297.5,-249.31 336.32,-221.88 390.24,-215.09 431.7,-214.66"/>
<polygon fill="orange" stroke="orange" points="275.06,-281.68 268.2,-289.75 278.6,-287.72 275.06,-281.68"/>
</a>
</g>
<text text-anchor="middle" x="353" y="-251.06" font-family="Helvetica,sans-Serif" font-size="10.00" fill="grey"> &lt; Ark::Value &gt;</text>
</g>
<!-- Node11 -->
<g id="Node000011" class="node">
<title>Node11</title>
<g id="a_Node000011"><a xlink:title=" ">
<polygon fill="white" stroke="#666666" points="556.12,-280.81 432.88,-280.81 432.88,-250.31 556.12,-250.31 556.12,-280.81"/>
<text text-anchor="start" x="440.88" y="-267.31" font-family="Helvetica,sans-Serif" font-size="10.00">std::vector&lt; Ark::internal</text>
<text text-anchor="middle" x="494.5" y="-256.06" font-family="Helvetica,sans-Serif" font-size="10.00">::InstLoc &gt;</text>
</a>
</g>
</g>
<!-- Node3&#45;&gt;Node11 -->
<g id="edge16_Node000011_Node000003" class="edge">
<title>Node3&#45;&gt;Node11</title>
<g id="a_edge16_Node000011_Node000003"><a xlink:title=" ">
<path fill="none" stroke="orange" stroke-dasharray="5,2" d="M280.92,-293.94C317.02,-289.45 365.63,-283.31 408.5,-277.56 416.33,-276.51 424.56,-275.39 432.69,-274.25"/>
<polygon fill="orange" stroke="orange" points="280.65,-290.45 271.16,-295.15 281.51,-297.4 280.65,-290.45"/>
</a>
</g>
<text text-anchor="middle" x="353" y="-293.22" font-family="Helvetica,sans-Serif" font-size="10.00" fill="grey"> &lt; Ark::internal::InstLoc &gt;</text>
</g>
<!-- Node4 -->
<g id="Node000004" class="node">
<title>Node4</title>
<g id="a_Node000004"><a xlink:title=" ">
<polygon fill="white" stroke="#666666" points="61.4,-168.19 32.6,-168.19 32.6,-148.94 61.4,-148.94 61.4,-168.19"/>
<text text-anchor="middle" x="47" y="-154.69" font-family="Helvetica,sans-Serif" font-size="10.00">T</text>
</a>
</g>
</g>
<!-- Node4&#45;&gt;Node3 -->
<g id="edge3_Node000003_Node000004" class="edge">
<title>Node4&#45;&gt;Node3</title>
<g id="a_edge3_Node000003_Node000004"><a xlink:title=" ">
<path fill="none" stroke="#9a32cd" stroke-dasharray="5,2" d="M62.15,-177.22C83.41,-204.07 126.11,-253.53 172.75,-282.56 177.73,-285.66 183.31,-288.31 188.92,-290.54"/>
<polygon fill="#9a32cd" stroke="#9a32cd" points="65.15,-175.38 56.25,-169.63 59.62,-179.67 65.15,-175.38"/>
</a>
</g>
<text text-anchor="middle" x="133.38" y="-270.8" font-family="Helvetica,sans-Serif" font-size="10.00" fill="grey"> elements</text>
</g>
<!-- Node14 -->
<g id="Node000014" class="node">
<title>Node14</title>
<g id="a_Node000014"><a xlink:title=" ">
<polygon fill="white" stroke="#666666" points="277.25,-121.81 175,-121.81 175,-91.31 277.25,-91.31 277.25,-121.81"/>
<text text-anchor="start" x="183" y="-108.31" font-family="Helvetica,sans-Serif" font-size="10.00">std::unordered_map</text>
<text text-anchor="middle" x="226.12" y="-97.06" font-family="Helvetica,sans-Serif" font-size="10.00">&lt; K, T &gt;</text>
</a>
</g>
</g>
<!-- Node4&#45;&gt;Node14 -->
<g id="edge22_Node000014_Node000004" class="edge">
<title>Node4&#45;&gt;Node14</title>
<g id="a_edge22_Node000014_Node000004"><a xlink:title=" ">
<path fill="none" stroke="#9a32cd" stroke-dasharray="5,2" d="M72.75,-151.3C99.02,-143.59 141.24,-131.19 174.59,-121.4"/>
<polygon fill="#9a32cd" stroke="#9a32cd" points="71.96,-147.88 63.35,-154.06 73.93,-154.6 71.96,-147.88"/>
</a>
</g>
<text text-anchor="middle" x="133.38" y="-140.5" font-family="Helvetica,sans-Serif" font-size="10.00" fill="grey"> elements</text>
</g>
<!-- Node5&#45;&gt;Node1 -->
<g id="edge4_Node000001_Node000005" class="edge">
<title>Node5&#45;&gt;Node1</title>
<g id="a_edge4_Node000001_Node000005"><a xlink:title=" ">
<path fill="none" stroke="#9a32cd" stroke-dasharray="5,2" d="M569.41,-304.55C598.07,-295.29 630.33,-282.45 657,-265.56 673.01,-255.43 687.85,-238.99 696.44,-228.48"/>
<polygon fill="#9a32cd" stroke="#9a32cd" points="568.57,-301.15 560.07,-307.47 570.66,-307.83 568.57,-301.15"/>
</a>
</g>
<text text-anchor="middle" x="618.75" y="-302.5" font-family="Helvetica,sans-Serif" font-size="10.00" fill="grey"> m_libenv</text>
</g>
<!-- Node6 -->
<g id="Node000006" class="node">
<title>Node6</title>
<g id="a_Node000006"><a xlink:title=" ">
<polygon fill="white" stroke="#666666" points="255.88,-25.19 196.38,-25.19 196.38,-5.94 255.88,-5.94 255.88,-25.19"/>
<text text-anchor="middle" x="226.12" y="-11.69" font-family="Helvetica,sans-Serif" font-size="10.00">std::string</text>
</a>
</g>
</g>
<!-- Node6&#45;&gt;Node1 -->
<g id="edge6_Node000001_Node000006" class="edge">
<title>Node6&#45;&gt;Node1</title>
<g id="a_edge6_Node000001_Node000006"><a xlink:title=" ">
<path fill="none" stroke="#9a32cd" stroke-dasharray="5,2" d="M267.33,-8.76C332.36,0.38 463.32,10.99 562.5,-31.31 611.63,-52.27 624.68,-63.04 657,-105.56 682.34,-138.9 696.59,-187.84 701.81,-208.64"/>
<polygon fill="#9a32cd" stroke="#9a32cd" points="266.86,-5.29 257.48,-10.22 267.88,-12.22 266.86,-5.29"/>
</a>
</g>
<text text-anchor="middle" x="494.5" y="-33.06" font-family="Helvetica,sans-Serif" font-size="10.00" fill="grey"> m_filename</text>
</g>
<!-- Node6&#45;&gt;Node8 -->
<g id="edge9_Node000008_Node000006" class="edge">
<title>Node6&#45;&gt;Node8</title>
<g id="a_edge9_Node000008_Node000006"><a xlink:title=" ">
<path fill="none" stroke="#9a32cd" stroke-dasharray="5,2" d="M242,-34.18C252.59,-47.54 267.09,-66.03 279.5,-82.56 287.72,-93.51 286.23,-99.78 297.5,-107.56 339.53,-136.58 359.42,-123.16 408.5,-137.31 426.31,-142.45 446.1,-148.54 462.1,-153.56"/>
<polygon fill="#9a32cd" stroke="#9a32cd" points="244.96,-32.29 236,-26.64 239.49,-36.65 244.96,-32.29"/>
</a>
</g>
<text text-anchor="middle" x="353" y="-139.06" font-family="Helvetica,sans-Serif" font-size="10.00" fill="grey"> elements</text>
</g>
<!-- Node13 -->
<g id="Node000013" class="node">
<title>Node13</title>
<g id="a_Node000013"><a xlink:title=" ">
<polygon fill="white" stroke="#666666" points="545.62,-93.44 443.38,-93.44 443.38,-51.69 545.62,-51.69 545.62,-93.44"/>
<text text-anchor="start" x="451.38" y="-79.94" font-family="Helvetica,sans-Serif" font-size="10.00">std::unordered_map</text>
<text text-anchor="start" x="451.38" y="-68.69" font-family="Helvetica,sans-Serif" font-size="10.00">&lt; std::string, Ark::</text>
<text text-anchor="middle" x="494.5" y="-57.44" font-family="Helvetica,sans-Serif" font-size="10.00">Value &gt;</text>
</a>
</g>
</g>
<!-- Node6&#45;&gt;Node13 -->
<g id="edge18_Node000013_Node000006" class="edge">
<title>Node6&#45;&gt;Node13</title>
<g id="a_edge18_Node000013_Node000006"><a xlink:title=" ">
<path fill="none" stroke="#9a32cd" stroke-dasharray="5,2" d="M267.75,-13.36C305.07,-12.46 361.53,-13.96 408.5,-27.31 426.99,-32.57 446.02,-42.23 461.38,-51.29"/>
<polygon fill="#9a32cd" stroke="#9a32cd" points="267.74,-9.86 257.86,-13.67 267.97,-16.85 267.74,-9.86"/>
</a>
</g>
<text text-anchor="middle" x="353" y="-29.06" font-family="Helvetica,sans-Serif" font-size="10.00" fill="grey"> keys</text>
</g>
<!-- Node7 -->
<g id="Node000007" class="node">
<title>Node7</title>
<g id="a_Node000007"><a xlink:title=" ">
<polygon fill="white" stroke="#666666" points="94,-30.81 0,-30.81 0,-0.31 94,-0.31 94,-30.81"/>
<text text-anchor="start" x="8" y="-17.31" font-family="Helvetica,sans-Serif" font-size="10.00">std::basic_string&lt;</text>
<text text-anchor="middle" x="47" y="-6.06" font-family="Helvetica,sans-Serif" font-size="10.00"> Char &gt;</text>
</a>
</g>
</g>
<!-- Node7&#45;&gt;Node6 -->
<g id="edge7_Node000006_Node000007" class="edge">
<title>Node7&#45;&gt;Node6</title>
<g id="a_edge7_Node000006_Node000007"><a xlink:title=" ">
<path fill="none" stroke="#63b8ff" d="M105.36,-15.56C135.59,-15.56 171.39,-15.56 195.93,-15.56"/>
<polygon fill="#63b8ff" stroke="#63b8ff" points="105.59,-12.06 95.59,-15.56 105.59,-19.06 105.59,-12.06"/>
</a>
</g>
</g>
<!-- Node8&#45;&gt;Node1 -->
<g id="edge8_Node000001_Node000008" class="edge">
<title>Node8&#45;&gt;Node1</title>
<g id="a_edge8_Node000001_Node000008"><a xlink:title=" ">
<path fill="none" stroke="#9a32cd" stroke-dasharray="5,2" d="M568,-171.04C596.32,-175.33 628.72,-181.95 657,-192.06 668.49,-196.17 680.46,-202.94 689.46,-208.61"/>
<polygon fill="#9a32cd" stroke="#9a32cd" points="568.85,-167.63 558.46,-169.67 567.86,-174.56 568.85,-167.63"/>
</a>
</g>
<text text-anchor="middle" x="618.75" y="-205.06" font-family="Helvetica,sans-Serif" font-size="10.00" fill="grey"> m_filenames</text>
<text text-anchor="middle" x="618.75" y="-193.81" font-family="Helvetica,sans-Serif" font-size="10.00" fill="grey">m_symbols</text>
</g>
<!-- Node9&#45;&gt;Node1 -->
<g id="edge11_Node000001_Node000009" class="edge">
<title>Node9&#45;&gt;Node1</title>
<g id="a_edge11_Node000001_Node000009"><a xlink:title=" ">
<path fill="none" stroke="#9a32cd" stroke-dasharray="5,2" d="M568.39,-218.56C604.96,-218.56 647.2,-218.56 674.72,-218.56"/>
<polygon fill="#9a32cd" stroke="#9a32cd" points="568.76,-215.06 558.76,-218.56 568.76,-222.06 568.76,-215.06"/>
</a>
</g>
<text text-anchor="middle" x="618.75" y="-220.31" font-family="Helvetica,sans-Serif" font-size="10.00" fill="grey"> m_constants</text>
</g>
<!-- Node10 -->
<g id="Node000010" class="node">
<title>Node10</title>
<g id="a_Node000010"><a xlink:href="../../d3/d90/classArk_1_1Value.html" target="_top" xlink:title=" ">
<polygon fill="white" stroke="#666666" points="256.62,-183.19 195.62,-183.19 195.62,-163.94 256.62,-163.94 256.62,-183.19"/>
<text text-anchor="middle" x="226.12" y="-169.69" font-family="Helvetica,sans-Serif" font-size="10.00">Ark::Value</text>
</a>
</g>
</g>
<!-- Node10&#45;&gt;Node9 -->
<g id="edge12_Node000009_Node000010" class="edge">
<title>Node10&#45;&gt;Node9</title>
<g id="a_edge12_Node000009_Node000010"><a xlink:title=" ">
<path fill="none" stroke="#9a32cd" stroke-dasharray="5,2" d="M268.41,-178.03C305.29,-182.29 360.72,-189.38 408.5,-198.31 423.71,-201.16 440.29,-204.95 454.74,-208.48"/>
<polygon fill="#9a32cd" stroke="#9a32cd" points="268.95,-174.56 258.62,-176.91 268.16,-181.52 268.95,-174.56"/>
</a>
</g>
<text text-anchor="middle" x="353" y="-200.06" font-family="Helvetica,sans-Serif" font-size="10.00" fill="grey"> elements</text>
</g>
<!-- Node10&#45;&gt;Node13 -->
<g id="edge19_Node000013_Node000010" class="edge">
<title>Node10&#45;&gt;Node13</title>
<g id="a_edge19_Node000013_Node000010"><a xlink:title=" ">
<path fill="none" stroke="#9a32cd" stroke-dasharray="5,2" d="M251.35,-156.94C260.9,-149.61 271.47,-140.41 279.5,-130.56 290.36,-117.23 283.34,-106.08 297.5,-96.31 320.43,-80.5 393.22,-75.19 443.34,-73.43"/>
<polygon fill="#9a32cd" stroke="#9a32cd" points="249.48,-153.97 243.5,-162.72 253.63,-159.61 249.48,-153.97"/>
</a>
</g>
<text text-anchor="middle" x="353" y="-98.06" font-family="Helvetica,sans-Serif" font-size="10.00" fill="grey"> elements</text>
</g>
<!-- Node11&#45;&gt;Node1 -->
<g id="edge14_Node000001_Node000011" class="edge">
<title>Node11&#45;&gt;Node1</title>
<g id="a_edge14_Node000001_Node000011"><a xlink:title=" ">
<path fill="none" stroke="#9a32cd" stroke-dasharray="5,2" d="M567.4,-253.11C595.51,-247.78 627.92,-241.05 657,-233.56 662.74,-232.09 668.81,-230.32 674.61,-228.52"/>
<polygon fill="#9a32cd" stroke="#9a32cd" points="567.12,-249.6 557.94,-254.88 568.41,-256.48 567.12,-249.6"/>
</a>
</g>
<text text-anchor="middle" x="618.75" y="-252" font-family="Helvetica,sans-Serif" font-size="10.00" fill="grey"> m_inst_locations</text>
</g>
<!-- Node12 -->
<g id="Node000012" class="node">
<title>Node12</title>
<g id="a_Node000012"><a xlink:href="../../d5/d64/structArk_1_1internal_1_1InstLoc.html" target="_top" xlink:title=" ">
<polygon fill="white" stroke="#666666" points="279.5,-273.19 172.75,-273.19 172.75,-253.94 279.5,-253.94 279.5,-273.19"/>
<text text-anchor="middle" x="226.12" y="-259.69" font-family="Helvetica,sans-Serif" font-size="10.00">Ark::internal::InstLoc</text>
</a>
</g>
</g>
<!-- Node12&#45;&gt;Node11 -->
<g id="edge15_Node000011_Node000012" class="edge">
<title>Node12&#45;&gt;Node11</title>
<g id="a_edge15_Node000011_Node000012"><a xlink:title=" ">
<path fill="none" stroke="#9a32cd" stroke-dasharray="5,2" d="M291.21,-264.04C334.14,-264.37 390.33,-264.79 432.59,-265.11"/>
<polygon fill="#9a32cd" stroke="#9a32cd" points="291.29,-260.54 281.27,-263.97 291.24,-267.54 291.29,-260.54"/>
</a>
</g>
<text text-anchor="middle" x="353" y="-266.67" font-family="Helvetica,sans-Serif" font-size="10.00" fill="grey"> elements</text>
</g>
<!-- Node13&#45;&gt;Node1 -->
<g id="edge17_Node000001_Node000013" class="edge">
<title>Node13&#45;&gt;Node1</title>
<g id="a_edge17_Node000001_Node000013"><a xlink:title=" ">
<path fill="none" stroke="#9a32cd" stroke-dasharray="5,2" d="M555.91,-97.25C587.95,-112.09 626.81,-133.01 657,-158.31 674.71,-173.16 690.12,-195.66 698.17,-208.55"/>
<polygon fill="#9a32cd" stroke="#9a32cd" points="557.7,-94.22 547.15,-93.28 554.81,-100.6 557.7,-94.22"/>
</a>
</g>
<text text-anchor="middle" x="618.75" y="-160.06" font-family="Helvetica,sans-Serif" font-size="10.00" fill="grey"> m_binded</text>
</g>
<!-- Node14&#45;&gt;Node13 -->
<g id="edge20_Node000013_Node000014" class="edge">
<title>Node14&#45;&gt;Node13</title>
<g id="a_edge20_Node000013_Node000014"><a xlink:title=" ">
<path fill="none" stroke="orange" stroke-dasharray="5,2" d="M249.08,-82.88C261.88,-70.85 279.11,-57.44 297.5,-51.06 345.04,-34.57 402.61,-44.11 443.02,-55.22"/>
<polygon fill="orange" stroke="orange" points="246.69,-80.31 242.03,-89.83 251.61,-85.3 246.69,-80.31"/>
</a>
</g>
<text text-anchor="start" x="315.12" y="-64.06" font-family="Helvetica,sans-Serif" font-size="10.00" fill="grey"> &lt; std::string, Ark</text>
<text text-anchor="middle" x="353" y="-52.81" font-family="Helvetica,sans-Serif" font-size="10.00" fill="grey">::Value &gt;</text>
</g>
<!-- Node15 -->
<g id="Node000015" class="node">
<title>Node15</title>
<g id="a_Node000015"><a xlink:title=" ">
<polygon fill="white" stroke="#666666" points="61.4,-116.19 32.6,-116.19 32.6,-96.94 61.4,-96.94 61.4,-116.19"/>
<text text-anchor="middle" x="47" y="-102.69" font-family="Helvetica,sans-Serif" font-size="10.00">K</text>
</a>
</g>
</g>
<!-- Node15&#45;&gt;Node14 -->
<g id="edge21_Node000014_Node000015" class="edge">
<title>Node15&#45;&gt;Node14</title>
<g id="a_edge21_Node000014_Node000015"><a xlink:title=" ">
<path fill="none" stroke="#9a32cd" stroke-dasharray="5,2" d="M73.11,-106.56C99.4,-106.56 141.39,-106.56 174.59,-106.56"/>
<polygon fill="#9a32cd" stroke="#9a32cd" points="73.41,-103.06 63.41,-106.56 73.41,-110.06 73.41,-103.06"/>
</a>
</g>
<text text-anchor="middle" x="133.38" y="-108.31" font-family="Helvetica,sans-Serif" font-size="10.00" fill="grey"> keys</text>
</g>
</g>
</svg>

<g id="navigator" transform="translate(0 0)" fill="#404254">
  <rect fill="#f2f5e9" fill-opacity="0.5" stroke="#606060" stroke-width=".5" x="0" y="0" width="60" height="60"/>
  <use id="zoomplus" xlink:href="#zoomPlus" x="17" y="9" onmousedown="handleZoom(evt,'in')"/>
  <use id="zoomminus" xlink:href="#zoomMin" x="42" y="9" onmousedown="handleZoom(evt,'out')"/>
  <use id="reset" xlink:href="#resetDef" x="30" y="36" onmousedown="handleReset()"/>
   <use id="arrowup" xlink:href="#arrowUp" x="0" y="0" onmousedown="handlePan(0,-1)"/>
  <use id="arrowright" xlink:href="#arrowRight" x="0" y="0" onmousedown="handlePan(1,0)"/>
  <use id="arrowdown" xlink:href="#arrowDown" x="0" y="0" onmousedown="handlePan(0,1)"/>
  <use id="arrowleft" xlink:href="#arrowLeft" x="0" y="0" onmousedown="handlePan(-1,0)"/>
</g>
<svg viewBox="0 0 15 15" width="100%" height="30px" preserveAspectRatio="xMaxYMin meet">
 <g id="arrow_out" transform="scale(0.3 0.3)">
  <a xlink:href="classArk_1_1State__coll__graph_org.svg" target="_base">
   <rect id="button" ry="5" rx="5" y="6" x="6" height="38" width="38"
        fill="#f2f5e9" fill-opacity="0.5" stroke="#606060" stroke-width="1.0"/>
   <path id="arrow"
     d="M 11.500037,31.436501 C 11.940474,20.09759 22.043105,11.32322 32.158766,21.979434 L 37.068811,17.246167 C 37.068811,17.246167 37.088388,32 37.088388,32 L 22.160133,31.978069 C 22.160133,31.978069 26.997745,27.140456 26.997745,27.140456 C 18.528582,18.264221 13.291696,25.230495 11.500037,31.436501 z"
     style="fill:#404040;"/>
  </a>
 </g>
</svg>

<style type='text/css'>
<![CDATA[
[data-mouse-over-selected='false'] { opacity: 0.7; }
[data-mouse-over-selected='true']  { opacity: 1.0; }
]]>
</style>
<script type="application/ecmascript"><![CDATA[
document.addEventListener('DOMContentLoaded', (event) => {
  highlightEdges();
  highlightAdjacentNodes();
});
]]></script>
</svg>
