<?xml version="1.0" encoding="UTF-8" standalone="no"?>
<!DOCTYPE svg PUBLIC "-//W3C//DTD SVG 1.1//EN"
 "http://www.w3.org/Graphics/SVG/1.1/DTD/svg11.dtd">
<!-- Generated by graphviz version 12.2.0 (20241103.1931)
 -->
<!-- Title: Ark::State Pages: 1 -->
<svg width="949pt" height="476pt"
 viewBox="0.00 0.00 948.55 476.35" xmlns="http://www.w3.org/2000/svg" xmlns:xlink="http://www.w3.org/1999/xlink">
<g id="graph0" class="graph" transform="scale(1 1) rotate(0) translate(4 472.35)">
<title>Ark::State</title>
<!-- Node1 -->
<g id="Node000001" class="node">
<title>Node1</title>
<g id="a_Node000001"><a xlink:title="Ark state to handle the dirty job of loading and compiling ArkScript code.">
<polygon fill="#999999" stroke="#666666" points="940.55,-246.25 880.3,-246.25 880.3,-227 940.55,-227 940.55,-246.25"/>
<text text-anchor="middle" x="910.42" y="-232.75" font-family="Helvetica,sans-Serif" font-size="10.00">Ark::State</text>
</a>
</g>
</g>
<!-- Node2 -->
<g id="Node000002" class="node">
<title>Node2</title>
<g id="a_Node000002"><a xlink:title=" ">
<polygon fill="white" stroke="#666666" points="477.8,-392.25 368.05,-392.25 368.05,-373 477.8,-373 477.8,-392.25"/>
<text text-anchor="middle" x="422.92" y="-378.75" font-family="Helvetica,sans-Serif" font-size="10.00">std::vector&lt; uint8_t &gt;</text>
</a>
</g>
</g>
<!-- Node2&#45;&gt;Node1 -->
<g id="edge1_Node000001_Node000002" class="edge">
<title>Node2&#45;&gt;Node1</title>
<g id="a_edge1_Node000001_Node000002"><a xlink:title=" ">
<path fill="none" stroke="#9a32cd" stroke-dasharray="5,2" d="M489.49,-386.15C563.26,-388.09 685.73,-385.14 785.05,-352.62 821.41,-340.72 834.1,-340.49 862.3,-314.62 883.87,-294.84 898.87,-262.92 905.54,-246.73"/>
<polygon fill="#9a32cd" stroke="#9a32cd" points="489.7,-382.66 479.6,-385.85 489.48,-389.65 489.7,-382.66"/>
</a>
</g>
<text text-anchor="middle" x="720.8" y="-391.79" font-family="Helvetica,sans-Serif" font-size="10.00" fill="grey"> m_bytecode</text>
<text text-anchor="middle" x="720.8" y="-380.54" font-family="Helvetica,sans-Serif" font-size="10.00" fill="grey">m_code</text>
</g>
<!-- Node13 -->
<g id="Node000013" class="node">
<title>Node13</title>
<g id="a_Node000013"><a xlink:title=" ">
<polygon fill="white" stroke="#666666" points="785.05,-343.25 656.55,-343.25 656.55,-324 785.05,-324 785.05,-343.25"/>
<text text-anchor="middle" x="720.8" y="-329.75" font-family="Helvetica,sans-Serif" font-size="10.00">std::vector&lt; bytecode_t &gt;</text>
</a>
</g>
</g>
<!-- Node2&#45;&gt;Node13 -->
<g id="edge18_Node000013_Node000002" class="edge">
<title>Node2&#45;&gt;Node13</title>
<g id="a_edge18_Node000013_Node000002"><a xlink:title=" ">
<path fill="none" stroke="#9a32cd" stroke-dasharray="5,2" d="M485.6,-370.44C491.32,-369.37 497.04,-368.34 502.55,-367.38 554.25,-358.35 613.09,-349.28 656.48,-342.82"/>
<polygon fill="#9a32cd" stroke="#9a32cd" points="485.29,-366.93 476.11,-372.22 486.59,-373.81 485.29,-366.93"/>
</a>
</g>
<text text-anchor="middle" x="570.55" y="-369.12" font-family="Helvetica,sans-Serif" font-size="10.00" fill="grey"> elements</text>
</g>
<!-- Node3 -->
<g id="Node000003" class="node">
<title>Node3</title>
<g id="a_Node000003"><a xlink:title=" ">
<polygon fill="white" stroke="#666666" points="204.17,-306.25 117.67,-306.25 117.67,-287 204.17,-287 204.17,-306.25"/>
<text text-anchor="middle" x="160.92" y="-292.75" font-family="Helvetica,sans-Serif" font-size="10.00">std::vector&lt; T &gt;</text>
</a>
</g>
</g>
<!-- Node3&#45;&gt;Node2 -->
<g id="edge2_Node000002_Node000003" class="edge">
<title>Node3&#45;&gt;Node2</title>
<g id="a_edge2_Node000002_Node000003"><a xlink:title=" ">
<path fill="none" stroke="orange" stroke-dasharray="5,2" d="M177.37,-314.89C190.46,-329.04 210.53,-347.83 232.3,-357.62 275.15,-376.9 328.57,-382.5 367.77,-383.66"/>
<polygon fill="orange" stroke="orange" points="180.09,-312.69 170.84,-307.54 174.86,-317.34 180.09,-312.69"/>
</a>
</g>
<text text-anchor="middle" x="287.8" y="-384.07" font-family="Helvetica,sans-Serif" font-size="10.00" fill="grey"> &lt; uint8_t &gt;</text>
</g>
<!-- Node5 -->
<g id="Node000005" class="node">
<title>Node5</title>
<g id="a_Node000005"><a xlink:title=" ">
<polygon fill="white" stroke="#666666" points="638.55,-456.88 502.55,-456.88 502.55,-426.38 638.55,-426.38 638.55,-456.88"/>
<text text-anchor="start" x="510.55" y="-443.38" font-family="Helvetica,sans-Serif" font-size="10.00">std::vector&lt; std::filesystem</text>
<text text-anchor="middle" x="570.55" y="-432.12" font-family="Helvetica,sans-Serif" font-size="10.00">::path &gt;</text>
</a>
</g>
</g>
<!-- Node3&#45;&gt;Node5 -->
<g id="edge5_Node000005_Node000003" class="edge">
<title>Node3&#45;&gt;Node5</title>
<g id="a_edge5_Node000005_Node000003"><a xlink:title=" ">
<path fill="none" stroke="orange" stroke-dasharray="5,2" d="M170.02,-317.03C180.56,-340.69 201.36,-378.83 232.3,-397.62 315.06,-447.91 430.19,-451.82 502.25,-448.14"/>
<polygon fill="orange" stroke="orange" points="173.25,-315.7 166.14,-307.84 166.8,-318.41 173.25,-315.7"/>
</a>
</g>
<text text-anchor="start" x="246.55" y="-451.27" font-family="Helvetica,sans-Serif" font-size="10.00" fill="grey"> &lt; std::filesystem::</text>
<text text-anchor="middle" x="287.8" y="-440.02" font-family="Helvetica,sans-Serif" font-size="10.00" fill="grey">path &gt;</text>
</g>
<!-- Node8 -->
<g id="Node000008" class="node">
<title>Node8</title>
<g id="a_Node000008"><a xlink:title=" ">
<polygon fill="white" stroke="#666666" points="782.8,-167.25 658.8,-167.25 658.8,-148 782.8,-148 782.8,-167.25"/>
<text text-anchor="middle" x="720.8" y="-153.75" font-family="Helvetica,sans-Serif" font-size="10.00">std::vector&lt; std::string &gt;</text>
</a>
</g>
</g>
<!-- Node3&#45;&gt;Node8 -->
<g id="edge10_Node000008_Node000003" class="edge">
<title>Node3&#45;&gt;Node8</title>
<g id="a_edge10_Node000008_Node000003"><a xlink:title=" ">
<path fill="none" stroke="orange" stroke-dasharray="5,2" d="M178.09,-278.47C191.55,-264.14 211.77,-244.34 232.3,-230.62 284.62,-195.69 300.09,-186.88 361.3,-172.38 463.44,-148.18 586.43,-149.44 658.58,-153.14"/>
<polygon fill="orange" stroke="orange" points="175.85,-275.74 171.66,-285.47 181,-280.47 175.85,-275.74"/>
</a>
</g>
<text text-anchor="middle" x="422.92" y="-174.12" font-family="Helvetica,sans-Serif" font-size="10.00" fill="grey"> &lt; std::string &gt;</text>
</g>
<!-- Node9 -->
<g id="Node000009" class="node">
<title>Node9</title>
<g id="a_Node000009"><a xlink:title=" ">
<polygon fill="white" stroke="#666666" points="783.17,-280.25 658.42,-280.25 658.42,-261 783.17,-261 783.17,-280.25"/>
<text text-anchor="middle" x="720.8" y="-266.75" font-family="Helvetica,sans-Serif" font-size="10.00">std::vector&lt; Ark::Value &gt;</text>
</a>
</g>
</g>
<!-- Node3&#45;&gt;Node9 -->
<g id="edge13_Node000009_Node000003" class="edge">
<title>Node3&#45;&gt;Node9</title>
<g id="a_edge13_Node000009_Node000003"><a xlink:title=" ">
<path fill="none" stroke="orange" stroke-dasharray="5,2" d="M215.71,-296.01C304.07,-294.72 485.43,-290.82 638.55,-279.62 644.92,-279.16 651.56,-278.58 658.18,-277.94"/>
<polygon fill="orange" stroke="orange" points="215.85,-292.51 205.9,-296.15 215.95,-299.51 215.85,-292.51"/>
</a>
</g>
<text text-anchor="middle" x="422.92" y="-294.44" font-family="Helvetica,sans-Serif" font-size="10.00" fill="grey"> &lt; Ark::Value &gt;</text>
</g>
<!-- Node11 -->
<g id="Node000011" class="node">
<title>Node11</title>
<g id="a_Node000011"><a xlink:title=" ">
<polygon fill="white" stroke="#666666" points="484.55,-222.88 361.3,-222.88 361.3,-192.38 484.55,-192.38 484.55,-222.88"/>
<text text-anchor="start" x="369.3" y="-209.38" font-family="Helvetica,sans-Serif" font-size="10.00">std::vector&lt; Ark::internal</text>
<text text-anchor="middle" x="422.92" y="-198.12" font-family="Helvetica,sans-Serif" font-size="10.00">::InstLoc &gt;</text>
</a>
</g>
</g>
<!-- Node3&#45;&gt;Node11 -->
<g id="edge16_Node000011_Node000003" class="edge">
<title>Node3&#45;&gt;Node11</title>
<g id="a_edge16_Node000011_Node000003"><a xlink:title=" ">
<path fill="none" stroke="orange" stroke-dasharray="5,2" d="M200.43,-282.65C210.76,-278.94 221.94,-274.97 232.3,-271.38 280.53,-254.62 335.89,-236.09 374.3,-223.34"/>
<polygon fill="orange" stroke="orange" points="199.27,-279.35 191.05,-286.03 201.64,-285.94 199.27,-279.35"/>
</a>
</g>
<text text-anchor="middle" x="287.8" y="-273.12" font-family="Helvetica,sans-Serif" font-size="10.00" fill="grey"> &lt; Ark::internal::InstLoc &gt;</text>
</g>
<!-- Node3&#45;&gt;Node13 -->
<g id="edge19_Node000013_Node000003" class="edge">
<title>Node3&#45;&gt;Node13</title>
<g id="a_edge19_Node000013_Node000003"><a xlink:title=" ">
<path fill="none" stroke="orange" stroke-dasharray="5,2" d="M215.88,-306.49C221.41,-307.3 226.96,-308.03 232.3,-308.62 383.71,-325.36 562.84,-330.92 656.11,-332.75"/>
<polygon fill="orange" stroke="orange" points="216.53,-303.05 206.11,-304.96 215.45,-309.96 216.53,-303.05"/>
</a>
</g>
<text text-anchor="middle" x="422.92" y="-328.84" font-family="Helvetica,sans-Serif" font-size="10.00" fill="grey"> &lt; bytecode_t &gt;</text>
</g>
<!-- Node4 -->
<g id="Node000004" class="node">
<title>Node4</title>
<g id="a_Node000004"><a xlink:title=" ">
<polygon fill="white" stroke="#666666" points="28.8,-81.25 0,-81.25 0,-62 28.8,-62 28.8,-81.25"/>
<text text-anchor="middle" x="14.4" y="-67.75" font-family="Helvetica,sans-Serif" font-size="10.00">T</text>
</a>
</g>
</g>
<!-- Node4&#45;&gt;Node3 -->
<g id="edge3_Node000003_Node000004" class="edge">
<title>Node4&#45;&gt;Node3</title>
<g id="a_edge3_Node000003_Node000004"><a xlink:title=" ">
<path fill="none" stroke="#9a32cd" stroke-dasharray="5,2" d="M27.86,-91.03C57.46,-137.11 131.15,-251.83 153.44,-286.53"/>
<polygon fill="#9a32cd" stroke="#9a32cd" points="30.96,-89.38 22.61,-82.86 25.07,-93.16 30.96,-89.38"/>
</a>
</g>
<text text-anchor="middle" x="68.17" y="-185.88" font-family="Helvetica,sans-Serif" font-size="10.00" fill="grey"> elements</text>
</g>
<!-- Node15 -->
<g id="Node000015" class="node">
<title>Node15</title>
<g id="a_Node000015"><a xlink:title=" ">
<polygon fill="white" stroke="#666666" points="474.05,-46.88 371.8,-46.88 371.8,-16.38 474.05,-16.38 474.05,-46.88"/>
<text text-anchor="start" x="379.8" y="-33.38" font-family="Helvetica,sans-Serif" font-size="10.00">std::unordered_map</text>
<text text-anchor="middle" x="422.92" y="-22.12" font-family="Helvetica,sans-Serif" font-size="10.00">&lt; K, T &gt;</text>
</a>
</g>
</g>
<!-- Node4&#45;&gt;Node15 -->
<g id="edge25_Node000015_Node000004" class="edge">
<title>Node4&#45;&gt;Node15</title>
<g id="a_edge25_Node000015_Node000004"><a xlink:title=" ">
<path fill="none" stroke="#9a32cd" stroke-dasharray="5,2" d="M40.47,-69.21C95.36,-63.93 230.3,-50.89 343.3,-39.62 352.45,-38.71 362.19,-37.73 371.6,-36.78"/>
<polygon fill="#9a32cd" stroke="#9a32cd" points="40.27,-65.72 30.65,-70.16 40.94,-72.68 40.27,-65.72"/>
</a>
</g>
<text text-anchor="middle" x="160.92" y="-64.43" font-family="Helvetica,sans-Serif" font-size="10.00" fill="grey"> elements</text>
</g>
<!-- Node5&#45;&gt;Node1 -->
<g id="edge4_Node000001_Node000005" class="edge">
<title>Node5&#45;&gt;Node1</title>
<g id="a_edge4_Node000001_Node000005"><a xlink:title=" ">
<path fill="none" stroke="#9a32cd" stroke-dasharray="5,2" d="M650.38,-454.83C715.29,-460.93 805.57,-457.76 862.3,-406.62 910.3,-363.36 911.19,-275.93 910.02,-246.53"/>
<polygon fill="#9a32cd" stroke="#9a32cd" points="650.79,-451.35 640.48,-453.79 650.06,-458.31 650.79,-451.35"/>
</a>
</g>
<text text-anchor="middle" x="720.8" y="-458.85" font-family="Helvetica,sans-Serif" font-size="10.00" fill="grey"> m_libenv</text>
</g>
<!-- Node6 -->
<g id="Node000006" class="node">
<title>Node6</title>
<g id="a_Node000006"><a xlink:title=" ">
<polygon fill="white" stroke="#666666" points="452.67,-111.25 393.17,-111.25 393.17,-92 452.67,-92 452.67,-111.25"/>
<text text-anchor="middle" x="422.92" y="-97.75" font-family="Helvetica,sans-Serif" font-size="10.00">std::string</text>
</a>
</g>
</g>
<!-- Node6&#45;&gt;Node1 -->
<g id="edge6_Node000001_Node000006" class="edge">
<title>Node6&#45;&gt;Node1</title>
<g id="a_edge6_Node000001_Node000006"><a xlink:title=" ">
<path fill="none" stroke="#9a32cd" stroke-dasharray="5,2" d="M464.28,-100.45C560.73,-98.45 801.17,-98.56 862.3,-146.62 889.06,-167.67 902.26,-208.13 907.13,-226.78"/>
<polygon fill="#9a32cd" stroke="#9a32cd" points="464.41,-96.94 454.5,-100.67 464.57,-103.94 464.41,-96.94"/>
</a>
</g>
<text text-anchor="middle" x="720.8" y="-119.35" font-family="Helvetica,sans-Serif" font-size="10.00" fill="grey"> m_filename</text>
</g>
<!-- Node6&#45;&gt;Node8 -->
<g id="edge9_Node000008_Node000006" class="edge">
<title>Node6&#45;&gt;Node8</title>
<g id="a_edge9_Node000008_Node000006"><a xlink:title=" ">
<path fill="none" stroke="#9a32cd" stroke-dasharray="5,2" d="M464.17,-108.29C525.12,-118.38 634.29,-136.49 638.55,-137.38 652.78,-140.33 668.3,-144.07 681.91,-147.52"/>
<polygon fill="#9a32cd" stroke="#9a32cd" points="464.95,-104.87 454.51,-106.69 463.81,-111.78 464.95,-104.87"/>
</a>
</g>
<text text-anchor="middle" x="570.55" y="-139.12" font-family="Helvetica,sans-Serif" font-size="10.00" fill="grey"> elements</text>
</g>
<!-- Node14 -->
<g id="Node000014" class="node">
<title>Node14</title>
<g id="a_Node000014"><a xlink:title=" ">
<polygon fill="white" stroke="#666666" points="771.92,-67.5 669.67,-67.5 669.67,-25.75 771.92,-25.75 771.92,-67.5"/>
<text text-anchor="start" x="677.67" y="-54" font-family="Helvetica,sans-Serif" font-size="10.00">std::unordered_map</text>
<text text-anchor="start" x="677.67" y="-42.75" font-family="Helvetica,sans-Serif" font-size="10.00">&lt; std::string, Ark::</text>
<text text-anchor="middle" x="720.8" y="-31.5" font-family="Helvetica,sans-Serif" font-size="10.00">Value &gt;</text>
</a>
</g>
</g>
<!-- Node6&#45;&gt;Node14 -->
<g id="edge21_Node000014_Node000006" class="edge">
<title>Node6&#45;&gt;Node14</title>
<g id="a_edge21_Node000014_Node000006"><a xlink:title=" ">
<path fill="none" stroke="#9a32cd" stroke-dasharray="5,2" d="M464,-88.58C476.27,-84.91 489.88,-81.16 502.55,-78.38 559.14,-65.94 625.12,-57.08 669.39,-51.93"/>
<polygon fill="#9a32cd" stroke="#9a32cd" points="463.14,-85.18 454.61,-91.46 465.2,-91.87 463.14,-85.18"/>
</a>
</g>
<text text-anchor="middle" x="570.55" y="-80.12" font-family="Helvetica,sans-Serif" font-size="10.00" fill="grey"> keys</text>
</g>
<!-- Node7 -->
<g id="Node000007" class="node">
<title>Node7</title>
<g id="a_Node000007"><a xlink:title=" ">
<polygon fill="white" stroke="#666666" points="207.92,-115.88 113.92,-115.88 113.92,-85.38 207.92,-85.38 207.92,-115.88"/>
<text text-anchor="start" x="121.92" y="-102.38" font-family="Helvetica,sans-Serif" font-size="10.00">std::basic_string&lt;</text>
<text text-anchor="middle" x="160.92" y="-91.12" font-family="Helvetica,sans-Serif" font-size="10.00"> Char &gt;</text>
</a>
</g>
</g>
<!-- Node7&#45;&gt;Node6 -->
<g id="edge7_Node000006_Node000007" class="edge">
<title>Node7&#45;&gt;Node6</title>
<g id="a_edge7_Node000006_Node000007"><a xlink:title=" ">
<path fill="none" stroke="#63b8ff" d="M219.81,-100.85C273.45,-101.05 351.07,-101.35 392.78,-101.51"/>
<polygon fill="#63b8ff" stroke="#63b8ff" points="219.93,-97.35 209.92,-100.81 219.91,-104.35 219.93,-97.35"/>
</a>
</g>
</g>
<!-- Node8&#45;&gt;Node1 -->
<g id="edge8_Node000001_Node000008" class="edge">
<title>Node8&#45;&gt;Node1</title>
<g id="a_edge8_Node000001_Node000008"><a xlink:title=" ">
<path fill="none" stroke="#9a32cd" stroke-dasharray="5,2" d="M794.44,-150.44C817.42,-151.24 842.08,-155.51 862.3,-167.12 885.69,-180.55 899.88,-210.87 905.96,-226.65"/>
<polygon fill="#9a32cd" stroke="#9a32cd" points="794.51,-146.94 784.48,-150.33 794.44,-153.94 794.51,-146.94"/>
</a>
</g>
<text text-anchor="middle" x="832.67" y="-180.12" font-family="Helvetica,sans-Serif" font-size="10.00" fill="grey"> m_filenames</text>
<text text-anchor="middle" x="832.67" y="-168.88" font-family="Helvetica,sans-Serif" font-size="10.00" fill="grey">m_symbols</text>
</g>
<!-- Node9&#45;&gt;Node1 -->
<g id="edge11_Node000001_Node000009" class="edge">
<title>Node9&#45;&gt;Node1</title>
<g id="a_edge11_Node000001_Node000009"><a xlink:title=" ">
<path fill="none" stroke="#9a32cd" stroke-dasharray="5,2" d="M788.86,-258.47C820.07,-252.82 855.6,-246.38 879.95,-241.97"/>
<polygon fill="#9a32cd" stroke="#9a32cd" points="788.29,-255.02 779.07,-260.25 789.54,-261.91 788.29,-255.02"/>
</a>
</g>
<text text-anchor="middle" x="832.67" y="-257.41" font-family="Helvetica,sans-Serif" font-size="10.00" fill="grey"> m_constants</text>
</g>
<!-- Node10 -->
<g id="Node000010" class="node">
<title>Node10</title>
<g id="a_Node000010"><a xlink:href="../../d3/d90/classArk_1_1Value.html" target="_top" xlink:title=" ">
<polygon fill="white" stroke="#666666" points="453.42,-260.25 392.42,-260.25 392.42,-241 453.42,-241 453.42,-260.25"/>
<text text-anchor="middle" x="422.92" y="-246.75" font-family="Helvetica,sans-Serif" font-size="10.00">Ark::Value</text>
</a>
</g>
</g>
<!-- Node10&#45;&gt;Node9 -->
<g id="edge12_Node000009_Node000010" class="edge">
<title>Node10&#45;&gt;Node9</title>
<g id="a_edge12_Node000009_Node000010"><a xlink:title=" ">
<path fill="none" stroke="#9a32cd" stroke-dasharray="5,2" d="M465.27,-253.42C515.38,-256.81 600.28,-262.55 658.13,-266.46"/>
<polygon fill="#9a32cd" stroke="#9a32cd" points="465.65,-249.94 455.43,-252.75 465.17,-256.92 465.65,-249.94"/>
</a>
</g>
<text text-anchor="middle" x="570.55" y="-266.47" font-family="Helvetica,sans-Serif" font-size="10.00" fill="grey"> elements</text>
</g>
<!-- Node10&#45;&gt;Node14 -->
<g id="edge22_Node000014_Node000010" class="edge">
<title>Node10&#45;&gt;Node14</title>
<g id="a_edge22_Node000014_Node000010"><a xlink:title=" ">
<path fill="none" stroke="#9a32cd" stroke-dasharray="5,2" d="M464.93,-243.47C513.99,-232.68 594.96,-207.35 638.55,-152.62 658.83,-127.16 636.67,-107.41 656.55,-81.62 660.61,-76.36 665.7,-71.77 671.22,-67.81"/>
<polygon fill="#9a32cd" stroke="#9a32cd" points="464.34,-240.02 455.26,-245.49 465.77,-246.87 464.34,-240.02"/>
</a>
</g>
<text text-anchor="middle" x="570.55" y="-234.14" font-family="Helvetica,sans-Serif" font-size="10.00" fill="grey"> elements</text>
</g>
<!-- Node11&#45;&gt;Node1 -->
<g id="edge14_Node000001_Node000011" class="edge">
<title>Node11&#45;&gt;Node1</title>
<g id="a_edge14_Node000001_Node000011"><a xlink:title=" ">
<path fill="none" stroke="#9a32cd" stroke-dasharray="5,2" d="M496.42,-210.58C538.02,-212.38 591.24,-214.86 638.55,-217.62 726.56,-222.76 830.53,-230.53 880.18,-234.35"/>
<polygon fill="#9a32cd" stroke="#9a32cd" points="496.66,-207.09 486.52,-210.15 496.36,-214.08 496.66,-207.09"/>
</a>
</g>
<text text-anchor="middle" x="720.8" y="-228.82" font-family="Helvetica,sans-Serif" font-size="10.00" fill="grey"> m_inst_locations</text>
</g>
<!-- Node12 -->
<g id="Node000012" class="node">
<title>Node12</title>
<g id="a_Node000012"><a xlink:href="../../d5/d64/structArk_1_1internal_1_1InstLoc.html" target="_top" xlink:title=" ">
<polygon fill="white" stroke="#666666" points="214.3,-153.25 107.55,-153.25 107.55,-134 214.3,-134 214.3,-153.25"/>
<text text-anchor="middle" x="160.92" y="-139.75" font-family="Helvetica,sans-Serif" font-size="10.00">Ark::internal::InstLoc</text>
</a>
</g>
</g>
<!-- Node12&#45;&gt;Node11 -->
<g id="edge15_Node000011_Node000012" class="edge">
<title>Node12&#45;&gt;Node11</title>
<g id="a_edge15_Node000011_Node000012"><a xlink:title=" ">
<path fill="none" stroke="#9a32cd" stroke-dasharray="5,2" d="M213.76,-156.38C256.17,-166.82 316.22,-181.61 360.94,-192.61"/>
<polygon fill="#9a32cd" stroke="#9a32cd" points="214.85,-153.05 204.31,-154.06 213.18,-159.85 214.85,-153.05"/>
</a>
</g>
<text text-anchor="middle" x="287.8" y="-188.67" font-family="Helvetica,sans-Serif" font-size="10.00" fill="grey"> elements</text>
</g>
<!-- Node13&#45;&gt;Node1 -->
<g id="edge17_Node000001_Node000013" class="edge">
<title>Node13&#45;&gt;Node1</title>
<g id="a_edge17_Node000001_Node000013"><a xlink:title=" ">
<path fill="none" stroke="#9a32cd" stroke-dasharray="5,2" d="M758.95,-319.39C787.87,-307.74 828.63,-290.05 862.3,-270.62 874.71,-263.47 887.85,-253.79 897.09,-246.59"/>
<polygon fill="#9a32cd" stroke="#9a32cd" points="757.89,-316.05 749.89,-322.99 760.47,-322.55 757.89,-316.05"/>
</a>
</g>
<text text-anchor="middle" x="832.67" y="-301.06" font-family="Helvetica,sans-Serif" font-size="10.00" fill="grey"> m_pages</text>
</g>
<!-- Node14&#45;&gt;Node1 -->
<g id="edge20_Node000001_Node000014" class="edge">
<title>Node14&#45;&gt;Node1</title>
<g id="a_edge20_Node000001_Node000014"><a xlink:title=" ">
<path fill="none" stroke="#9a32cd" stroke-dasharray="5,2" d="M783.55,-47.03C810.77,-50.32 841.28,-58.72 862.3,-78.38 906.06,-119.29 909.78,-198.88 909.67,-226.72"/>
<polygon fill="#9a32cd" stroke="#9a32cd" points="783.92,-43.55 773.63,-46.06 783.24,-50.52 783.92,-43.55"/>
</a>
</g>
<text text-anchor="middle" x="832.67" y="-80.12" font-family="Helvetica,sans-Serif" font-size="10.00" fill="grey"> m_bound</text>
</g>
<!-- Node15&#45;&gt;Node14 -->
<g id="edge23_Node000014_Node000015" class="edge">
<title>Node15&#45;&gt;Node14</title>
<g id="a_edge23_Node000014_Node000015"><a xlink:title=" ">
<path fill="none" stroke="orange" stroke-dasharray="5,2" d="M485.74,-29.48C528.68,-28.63 587.2,-28.71 638.55,-33.12 648.52,-33.98 659.12,-35.38 669.25,-36.96"/>
<polygon fill="orange" stroke="orange" points="485.76,-25.98 475.85,-29.71 485.92,-32.98 485.76,-25.98"/>
</a>
</g>
<text text-anchor="start" x="532.67" y="-46.12" font-family="Helvetica,sans-Serif" font-size="10.00" fill="grey"> &lt; std::string, Ark</text>
<text text-anchor="middle" x="570.55" y="-34.88" font-family="Helvetica,sans-Serif" font-size="10.00" fill="grey">::Value &gt;</text>
</g>
<!-- Node16 -->
<g id="Node000016" class="node">
<title>Node16</title>
<g id="a_Node000016"><a xlink:title=" ">
<polygon fill="white" stroke="#666666" points="175.32,-19.25 146.52,-19.25 146.52,0 175.32,0 175.32,-19.25"/>
<text text-anchor="middle" x="160.92" y="-5.75" font-family="Helvetica,sans-Serif" font-size="10.00">K</text>
</a>
</g>
</g>
<!-- Node16&#45;&gt;Node15 -->
<g id="edge24_Node000015_Node000016" class="edge">
<title>Node16&#45;&gt;Node15</title>
<g id="a_edge24_Node000015_Node000016"><a xlink:title=" ">
<path fill="none" stroke="#9a32cd" stroke-dasharray="5,2" d="M186.95,-11.74C229.31,-15.33 315.95,-22.66 371.36,-27.35"/>
<polygon fill="#9a32cd" stroke="#9a32cd" points="187.31,-8.26 177.05,-10.9 186.72,-15.24 187.31,-8.26"/>
</a>
</g>
<text text-anchor="middle" x="287.8" y="-26.26" font-family="Helvetica,sans-Serif" font-size="10.00" fill="grey"> keys</text>
</g>
</g>
</svg>
